<?xml version="1.0" encoding="UTF-8" standalone="no"?>
<!DOCTYPE svg PUBLIC "-//W3C//DTD SVG 1.1//EN"
 "http://www.w3.org/Graphics/SVG/1.1/DTD/svg11.dtd">
<!-- Generated by graphviz version 2.43.0 (0)
 -->
<!-- Title: src/42sh.c Pages: 1 -->
<svg width="587pt" height="302pt"
 viewBox="0.00 0.00 587.16 302.00" xmlns="http://www.w3.org/2000/svg" xmlns:xlink="http://www.w3.org/1999/xlink">
<g id="graph0" class="graph" transform="scale(1 1) rotate(0) translate(4 298)">
<title>src/42sh.c</title>
<!-- Node1 -->
<g id="Node000001" class="node">
<title>Node1</title>
<g id="a_Node000001"><a xlink:title=" ">
<polygon fill="#999999" stroke="#666666" points="258.16,-294 193.16,-294 193.16,-275 258.16,-275 258.16,-294"/>
<text text-anchor="middle" x="225.66" y="-282" font-family="Helvetica,sans-Serif" font-size="10.00">src/42sh.c</text>
</a>
</g>
</g>
<!-- Node2 -->
<g id="Node000002" class="node">
<title>Node2</title>
<g id="a_Node000002"><a xlink:title=" ">
<polygon fill="#e0e0e0" stroke="#999999" points="156.66,-19 106.66,-19 106.66,0 156.66,0 156.66,-19"/>
<text text-anchor="middle" x="131.66" y="-7" font-family="Helvetica,sans-Serif" font-size="10.00">stdio.h</text>
</a>
</g>
</g>
<!-- Node1&#45;&gt;Node2 -->
<g id="edge1_Node000001_Node000002" class="edge">
<title>Node1&#45;&gt;Node2</title>
<g id="a_edge1_Node000001_Node000002"><a xlink:title=" ">
<path fill="none" stroke="#63b8ff" d="M193.06,-280.48C141.54,-275.06 44.57,-262.04 19.66,-239 -1.97,-219 0.66,-204.96 0.66,-175.5 0.66,-175.5 0.66,-175.5 0.66,-118.5 0.66,-68.5 58.17,-37.35 96.98,-22.01"/>
<polygon fill="#63b8ff" stroke="#63b8ff" points="98.28,-25.26 106.4,-18.45 95.81,-18.71 98.28,-25.26"/>
</a>
</g>
</g>
<!-- Node3 -->
<g id="Node000003" class="node">
<title>Node3</title>
<g id="a_Node000003"><a xlink:title=" ">
<polygon fill="#e0e0e0" stroke="#999999" points="579.16,-129 526.16,-129 526.16,-110 579.16,-110 579.16,-129"/>
<text text-anchor="middle" x="552.66" y="-117" font-family="Helvetica,sans-Serif" font-size="10.00">stdlib.h</text>
</a>
</g>
</g>
<!-- Node1&#45;&gt;Node3 -->
<g id="edge2_Node000001_Node000003" class="edge">
<title>Node1&#45;&gt;Node3</title>
<g id="a_edge2_Node000001_Node000003"><a xlink:title=" ">
<path fill="none" stroke="#63b8ff" d="M258.33,-279.38C337.13,-268.67 533.63,-237.02 567.66,-184 576.62,-170.04 570.42,-151.27 563.47,-137.76"/>
<polygon fill="#63b8ff" stroke="#63b8ff" points="566.47,-135.96 558.48,-129 560.39,-139.42 566.47,-135.96"/>
</a>
</g>
</g>
<!-- Node4 -->
<g id="Node000004" class="node">
<title>Node4</title>
<g id="a_Node000004"><a xlink:href="ast_8h.html" target="_top" xlink:title=" ">
<polygon fill="white" stroke="#666666" points="181.16,-184 122.16,-184 122.16,-165 181.16,-165 181.16,-184"/>
<text text-anchor="middle" x="151.66" y="-172" font-family="Helvetica,sans-Serif" font-size="10.00">ast/ast.h</text>
</a>
</g>
</g>
<!-- Node1&#45;&gt;Node4 -->
<g id="edge3_Node000001_Node000004" class="edge">
<title>Node1&#45;&gt;Node4</title>
<g id="a_edge3_Node000001_Node000004"><a xlink:title=" ">
<path fill="none" stroke="#63b8ff" d="M207.92,-274.87C194.27,-267.3 176.02,-255 165.66,-239 157.02,-225.66 153.65,-207.79 152.36,-194.41"/>
<polygon fill="#63b8ff" stroke="#63b8ff" points="155.83,-193.78 151.69,-184.03 148.84,-194.23 155.83,-193.78"/>
</a>
</g>
</g>
<!-- Node5 -->
<g id="Node000005" class="node">
<title>Node5</title>
<g id="a_Node000005"><a xlink:href="expand_8h.html" target="_top" xlink:title=" ">
<polygon fill="white" stroke="#666666" points="363.66,-129 253.66,-129 253.66,-110 363.66,-110 363.66,-129"/>
<text text-anchor="middle" x="308.66" y="-117" font-family="Helvetica,sans-Serif" font-size="10.00">../expand/expand.h</text>
</a>
</g>
</g>
<!-- Node1&#45;&gt;Node5 -->
<g id="edge10_Node000001_Node000005" class="edge">
<title>Node1&#45;&gt;Node5</title>
<g id="a_edge10_Node000001_Node000005"><a xlink:title=" ">
<path fill="none" stroke="#63b8ff" d="M243.5,-274.94C257.22,-267.41 275.49,-255.13 285.66,-239 305.23,-207.93 308.79,-163.86 309.08,-139.16"/>
<polygon fill="#63b8ff" stroke="#63b8ff" points="312.58,-138.99 309.02,-129.01 305.58,-139.02 312.58,-138.99"/>
</a>
</g>
</g>
<!-- Node9 -->
<g id="Node000009" class="node">
<title>Node9</title>
<g id="a_Node000009"><a xlink:href="io_8h.html" target="_top" xlink:title=" ">
<polygon fill="white" stroke="#666666" points="438.16,-239 391.16,-239 391.16,-220 438.16,-220 438.16,-239"/>
<text text-anchor="middle" x="414.66" y="-227" font-family="Helvetica,sans-Serif" font-size="10.00">io/io.h</text>
</a>
</g>
</g>
<!-- Node1&#45;&gt;Node9 -->
<g id="edge11_Node000001_Node000009" class="edge">
<title>Node1&#45;&gt;Node9</title>
<g id="a_edge11_Node000001_Node000009"><a xlink:title=" ">
<path fill="none" stroke="#63b8ff" d="M256.02,-274.98C290.21,-265.4 345.61,-249.86 381.07,-239.92"/>
<polygon fill="#63b8ff" stroke="#63b8ff" points="382.26,-243.22 390.95,-237.15 380.37,-236.48 382.26,-243.22"/>
</a>
</g>
</g>
<!-- Node12 -->
<g id="Node000012" class="node">
<title>Node12</title>
<g id="a_Node000012"><a xlink:href="parser_8h.html" target="_top" xlink:title=" ">
<polygon fill="white" stroke="#666666" points="118.16,-239 29.16,-239 29.16,-220 118.16,-220 118.16,-239"/>
<text text-anchor="middle" x="73.66" y="-227" font-family="Helvetica,sans-Serif" font-size="10.00">parser/parser.h</text>
</a>
</g>
</g>
<!-- Node1&#45;&gt;Node12 -->
<g id="edge17_Node000001_Node000012" class="edge">
<title>Node1&#45;&gt;Node12</title>
<g id="a_edge17_Node000001_Node000012"><a xlink:title=" ">
<path fill="none" stroke="#63b8ff" d="M201.24,-274.98C175.94,-266.16 136.2,-252.31 107.8,-242.41"/>
<polygon fill="#63b8ff" stroke="#63b8ff" points="108.86,-239.07 98.27,-239.08 106.56,-245.68 108.86,-239.07"/>
</a>
</g>
</g>
<!-- Node13 -->
<g id="Node000013" class="node">
<title>Node13</title>
<g id="a_Node000013"><a xlink:href="prettyprint_8h.html" target="_top" xlink:title=" ">
<polygon fill="white" stroke="#666666" points="276.16,-239 175.16,-239 175.16,-220 276.16,-220 276.16,-239"/>
<text text-anchor="middle" x="225.66" y="-227" font-family="Helvetica,sans-Serif" font-size="10.00">utils/prettyprint.h</text>
</a>
</g>
</g>
<!-- Node1&#45;&gt;Node13 -->
<g id="edge20_Node000001_Node000013" class="edge">
<title>Node1&#45;&gt;Node13</title>
<g id="a_edge20_Node000001_Node000013"><a xlink:title=" ">
<path fill="none" stroke="#63b8ff" d="M225.66,-274.75C225.66,-267.8 225.66,-257.85 225.66,-249.13"/>
<polygon fill="#63b8ff" stroke="#63b8ff" points="229.16,-249.09 225.66,-239.09 222.16,-249.09 229.16,-249.09"/>
</a>
</g>
</g>
<!-- Node4&#45;&gt;Node5 -->
<g id="edge4_Node000004_Node000005" class="edge">
<title>Node4&#45;&gt;Node5</title>
<g id="a_edge4_Node000004_Node000005"><a xlink:title=" ">
<path fill="none" stroke="#63b8ff" d="M176.88,-164.98C203.01,-156.16 244.05,-142.31 273.39,-132.41"/>
<polygon fill="#63b8ff" stroke="#63b8ff" points="274.88,-135.6 283.23,-129.08 272.64,-128.96 274.88,-135.6"/>
</a>
</g>
</g>
<!-- Node7 -->
<g id="Node000007" class="node">
<title>Node7</title>
<g id="a_Node000007"><a xlink:href="redir_8h.html" target="_top" xlink:title=" ">
<polygon fill="white" stroke="#666666" points="197.66,-129 117.66,-129 117.66,-110 197.66,-110 197.66,-129"/>
<text text-anchor="middle" x="157.66" y="-117" font-family="Helvetica,sans-Serif" font-size="10.00">../utils/redir.h</text>
</a>
</g>
</g>
<!-- Node4&#45;&gt;Node7 -->
<g id="edge6_Node000004_Node000007" class="edge">
<title>Node4&#45;&gt;Node7</title>
<g id="a_edge6_Node000004_Node000007"><a xlink:title=" ">
<path fill="none" stroke="#63b8ff" d="M152.65,-164.75C153.43,-157.8 154.56,-147.85 155.55,-139.13"/>
<polygon fill="#63b8ff" stroke="#63b8ff" points="159.04,-139.42 156.68,-129.09 152.08,-138.63 159.04,-139.42"/>
</a>
</g>
</g>
<!-- Node8 -->
<g id="Node000008" class="node">
<title>Node8</title>
<g id="a_Node000008"><a xlink:href="token_8h.html" target="_top" xlink:title=" ">
<polygon fill="white" stroke="#666666" points="158.16,-74 105.16,-74 105.16,-55 158.16,-55 158.16,-74"/>
<text text-anchor="middle" x="131.66" y="-62" font-family="Helvetica,sans-Serif" font-size="10.00">token.h</text>
</a>
</g>
</g>
<!-- Node4&#45;&gt;Node8 -->
<g id="edge9_Node000004_Node000008" class="edge">
<title>Node4&#45;&gt;Node8</title>
<g id="a_edge9_Node000004_Node000008"><a xlink:title=" ">
<path fill="none" stroke="#63b8ff" d="M139.16,-164.93C128.79,-156.99 114.78,-144.14 108.66,-129 102.36,-113.43 110.31,-95.4 118.54,-82.54"/>
<polygon fill="#63b8ff" stroke="#63b8ff" points="121.51,-84.4 124.37,-74.2 115.77,-80.39 121.51,-84.4"/>
</a>
</g>
</g>
<!-- Node6 -->
<g id="Node000006" class="node">
<title>Node6</title>
<g id="a_Node000006"><a xlink:href="hashmap_8h.html" target="_top" xlink:title=" ">
<polygon fill="white" stroke="#666666" points="344.16,-74 273.16,-74 273.16,-55 344.16,-55 344.16,-74"/>
<text text-anchor="middle" x="308.66" y="-62" font-family="Helvetica,sans-Serif" font-size="10.00">hashmap.h</text>
</a>
</g>
</g>
<!-- Node5&#45;&gt;Node6 -->
<g id="edge5_Node000005_Node000006" class="edge">
<title>Node5&#45;&gt;Node6</title>
<g id="a_edge5_Node000005_Node000006"><a xlink:title=" ">
<path fill="none" stroke="#63b8ff" d="M308.66,-109.75C308.66,-102.8 308.66,-92.85 308.66,-84.13"/>
<polygon fill="#63b8ff" stroke="#63b8ff" points="312.16,-84.09 308.66,-74.09 305.16,-84.09 312.16,-84.09"/>
</a>
</g>
</g>
<!-- Node7&#45;&gt;Node8 -->
<g id="edge7_Node000007_Node000008" class="edge">
<title>Node7&#45;&gt;Node8</title>
<g id="a_edge7_Node000007_Node000008"><a xlink:title=" ">
<path fill="none" stroke="#63b8ff" d="M153.36,-109.75C149.84,-102.57 144.74,-92.18 140.37,-83.27"/>
<polygon fill="#63b8ff" stroke="#63b8ff" points="143.42,-81.53 135.87,-74.09 137.13,-84.61 143.42,-81.53"/>
</a>
</g>
</g>
<!-- Node8&#45;&gt;Node2 -->
<g id="edge8_Node000008_Node000002" class="edge">
<title>Node8&#45;&gt;Node2</title>
<g id="a_edge8_Node000008_Node000002"><a xlink:title=" ">
<path fill="none" stroke="#63b8ff" d="M131.66,-54.75C131.66,-47.8 131.66,-37.85 131.66,-29.13"/>
<polygon fill="#63b8ff" stroke="#63b8ff" points="135.16,-29.09 131.66,-19.09 128.16,-29.09 135.16,-29.09"/>
</a>
</g>
</g>
<!-- Node9&#45;&gt;Node2 -->
<g id="edge12_Node000009_Node000002" class="edge">
<title>Node9&#45;&gt;Node2</title>
<g id="a_edge12_Node000009_Node000002"><a xlink:title=" ">
<path fill="none" stroke="#63b8ff" d="M416.03,-219.7C417.65,-207.28 419.57,-184 414.66,-165 400.65,-110.88 398.79,-87.99 353.66,-55 324.36,-33.59 221.88,-19.92 166.99,-13.96"/>
<polygon fill="#63b8ff" stroke="#63b8ff" points="167.32,-10.47 157.01,-12.9 166.58,-17.43 167.32,-10.47"/>
</a>
</g>
</g>
<!-- Node9&#45;&gt;Node5 -->
<g id="edge14_Node000009_Node000005" class="edge">
<title>Node9&#45;&gt;Node5</title>
<g id="a_edge14_Node000009_Node000005"><a xlink:title=" ">
<path fill="none" stroke="#63b8ff" d="M414.17,-219.68C413.01,-206.4 409.06,-181.09 395.66,-165 383.41,-150.29 365.05,-139.9 348.35,-132.88"/>
<polygon fill="#63b8ff" stroke="#63b8ff" points="349.36,-129.52 338.77,-129.13 346.81,-136.03 349.36,-129.52"/>
</a>
</g>
</g>
<!-- Node10 -->
<g id="Node000010" class="node">
<title>Node10</title>
<g id="a_Node000010"><a xlink:title=" ">
<polygon fill="#e0e0e0" stroke="#999999" points="386.16,-184 333.16,-184 333.16,-165 386.16,-165 386.16,-184"/>
<text text-anchor="middle" x="359.66" y="-172" font-family="Helvetica,sans-Serif" font-size="10.00">string.h</text>
</a>
</g>
</g>
<!-- Node9&#45;&gt;Node10 -->
<g id="edge13_Node000009_Node000010" class="edge">
<title>Node9&#45;&gt;Node10</title>
<g id="a_edge13_Node000009_Node000010"><a xlink:title=" ">
<path fill="none" stroke="#63b8ff" d="M405.57,-219.75C397.57,-212.03 385.7,-200.6 376.04,-191.28"/>
<polygon fill="#63b8ff" stroke="#63b8ff" points="378.2,-188.51 368.57,-184.09 373.34,-193.55 378.2,-188.51"/>
</a>
</g>
</g>
<!-- Node11 -->
<g id="Node000011" class="node">
<title>Node11</title>
<g id="a_Node000011"><a xlink:href="itoa_8h.html" target="_top" xlink:title=" ">
<polygon fill="white" stroke="#666666" points="558.16,-184 481.16,-184 481.16,-165 558.16,-165 558.16,-184"/>
<text text-anchor="middle" x="519.66" y="-172" font-family="Helvetica,sans-Serif" font-size="10.00">../utils/itoa.h</text>
</a>
</g>
</g>
<!-- Node9&#45;&gt;Node11 -->
<g id="edge15_Node000009_Node000011" class="edge">
<title>Node9&#45;&gt;Node11</title>
<g id="a_edge15_Node000009_Node000011"><a xlink:title=" ">
<path fill="none" stroke="#63b8ff" d="M431.53,-219.98C448.27,-211.54 474.15,-198.47 493.55,-188.68"/>
<polygon fill="#63b8ff" stroke="#63b8ff" points="495.13,-191.8 502.48,-184.17 491.98,-185.55 495.13,-191.8"/>
</a>
</g>
</g>
<!-- Node11&#45;&gt;Node3 -->
<g id="edge16_Node000011_Node000003" class="edge">
<title>Node11&#45;&gt;Node3</title>
<g id="a_edge16_Node000011_Node000003"><a xlink:title=" ">
<path fill="none" stroke="#63b8ff" d="M525.11,-164.75C529.67,-157.42 536.33,-146.73 541.95,-137.7"/>
<polygon fill="#63b8ff" stroke="#63b8ff" points="544.99,-139.43 547.31,-129.09 539.05,-135.73 544.99,-139.43"/>
</a>
</g>
</g>
<!-- Node12&#45;&gt;Node2 -->
<g id="edge18_Node000012_Node000002" class="edge">
<title>Node12&#45;&gt;Node2</title>
<g id="a_edge18_Node000012_Node000002"><a xlink:title=" ">
<path fill="none" stroke="#63b8ff" d="M73.13,-219.76C71.87,-193.58 70.52,-113.93 95.66,-55 100.17,-44.42 107.97,-34.3 115.15,-26.4"/>
<polygon fill="#63b8ff" stroke="#63b8ff" points="117.83,-28.67 122.25,-19.04 112.79,-23.81 117.83,-28.67"/>
</a>
</g>
</g>
<!-- Node12&#45;&gt;Node4 -->
<g id="edge19_Node000012_Node000004" class="edge">
<title>Node12&#45;&gt;Node4</title>
<g id="a_edge19_Node000012_Node000004"><a xlink:title=" ">
<path fill="none" stroke="#63b8ff" d="M86.19,-219.98C98.06,-211.92 116.12,-199.65 130.27,-190.03"/>
<polygon fill="#63b8ff" stroke="#63b8ff" points="132.59,-192.69 138.9,-184.17 128.66,-186.9 132.59,-192.69"/>
</a>
</g>
</g>
<!-- Node13&#45;&gt;Node2 -->
<g id="edge21_Node000013_Node000002" class="edge">
<title>Node13&#45;&gt;Node2</title>
<g id="a_edge21_Node000013_Node000002"><a xlink:title=" ">
<path fill="none" stroke="#63b8ff" d="M225.63,-219.8C225.28,-199.67 222.73,-148.67 206.66,-110 192.84,-76.76 165.31,-44.7 147.72,-26.33"/>
<polygon fill="#63b8ff" stroke="#63b8ff" points="150.14,-23.8 140.64,-19.11 145.14,-28.7 150.14,-23.8"/>
</a>
</g>
</g>
<!-- Node13&#45;&gt;Node4 -->
<g id="edge22_Node000013_Node000004" class="edge">
<title>Node13&#45;&gt;Node4</title>
<g id="a_edge22_Node000013_Node000004"><a xlink:title=" ">
<path fill="none" stroke="#63b8ff" d="M213.77,-219.98C202.51,-211.92 185.37,-199.65 171.95,-190.03"/>
<polygon fill="#63b8ff" stroke="#63b8ff" points="173.93,-187.15 163.76,-184.17 169.85,-192.84 173.93,-187.15"/>
</a>
</g>
</g>
</g>
</svg>
