<?xml version="1.0" encoding="UTF-8" standalone="no"?>
<!DOCTYPE svg PUBLIC "-//W3C//DTD SVG 1.1//EN"
 "http://www.w3.org/Graphics/SVG/1.1/DTD/svg11.dtd">
<!-- Generated by graphviz version 2.43.0 (0)
 -->
<!-- Title: free_ast Pages: 1 -->
<svg width="213pt" height="304pt"
 viewBox="0.00 0.00 213.00 304.00" xmlns="http://www.w3.org/2000/svg" xmlns:xlink="http://www.w3.org/1999/xlink">
<g id="graph0" class="graph" transform="scale(1 1) rotate(0) translate(4 300)">
<title>free_ast</title>
<!-- Node1 -->
<g id="Node000001" class="node">
<title>Node1</title>
<g id="a_Node000001"><a xlink:title=" ">
<polygon fill="#999999" stroke="#666666" points="56,-130 0,-130 0,-111 56,-111 56,-130"/>
<text text-anchor="middle" x="28" y="-118" font-family="Helvetica,sans-Serif" font-size="10.00">free_ast</text>
</a>
</g>
</g>
<!-- Node2 -->
<g id="Node000002" class="node">
<title>Node2</title>
<g id="a_Node000002"><a xlink:href="ast__free_8c.html#a80edc240f8b3b576efc19e8465449822" target="_top" xlink:title=" ">
<polygon fill="white" stroke="#666666" points="196,-296 101,-296 101,-277 196,-277 196,-296"/>
<text text-anchor="middle" x="148.5" y="-284" font-family="Helvetica,sans-Serif" font-size="10.00">ast_free_and_or</text>
</a>
</g>
</g>
<!-- Node1&#45;&gt;Node2 -->
<g id="edge1_Node000001_Node000002" class="edge">
<title>Node1&#45;&gt;Node2</title>
<g id="a_edge1_Node000001_Node000002"><a xlink:title=" ">
<path fill="none" stroke="#63b8ff" d="M31.1,-130.03C36.14,-155.43 51.62,-222.55 92,-259.5 99.65,-266.5 110.07,-270.78 119.81,-273.98"/>
<polygon fill="#63b8ff" stroke="#63b8ff" points="118.98,-277.38 129.57,-276.98 121.04,-270.69 118.98,-277.38"/>
</a>
</g>
</g>
<!-- Node3 -->
<g id="Node000003" class="node">
<title>Node3</title>
<g id="a_Node000003"><a xlink:href="ast__free_8c.html#a9330029530c792a2570859c41fea1f87" target="_top" xlink:title=" ">
<polygon fill="white" stroke="#666666" points="190,-259 107,-259 107,-240 190,-240 190,-259"/>
<text text-anchor="middle" x="148.5" y="-247" font-family="Helvetica,sans-Serif" font-size="10.00">ast_free_cmd</text>
</a>
</g>
</g>
<!-- Node1&#45;&gt;Node3 -->
<g id="edge3_Node000001_Node000003" class="edge">
<title>Node1&#45;&gt;Node3</title>
<g id="a_edge3_Node000001_Node000003"><a xlink:title=" ">
<path fill="none" stroke="#63b8ff" d="M31.79,-130.09C38.52,-151.5 57.65,-203.49 92,-231.5 93.79,-232.96 95.69,-234.3 97.68,-235.53"/>
<polygon fill="#63b8ff" stroke="#63b8ff" points="96.36,-238.79 106.86,-240.27 99.58,-232.57 96.36,-238.79"/>
</a>
</g>
</g>
<!-- Node4 -->
<g id="Node000004" class="node">
<title>Node4</title>
<g id="a_Node000004"><a xlink:href="ast__free_8c.html#a2093aa16119809b1788e3544ccacb07a" target="_top" xlink:title=" ">
<polygon fill="white" stroke="#666666" points="186,-222 111,-222 111,-203 186,-203 186,-222"/>
<text text-anchor="middle" x="148.5" y="-210" font-family="Helvetica,sans-Serif" font-size="10.00">ast_free_for</text>
</a>
</g>
</g>
<!-- Node1&#45;&gt;Node4 -->
<g id="edge4_Node000001_Node000004" class="edge">
<title>Node1&#45;&gt;Node4</title>
<g id="a_edge4_Node000001_Node000004"><a xlink:title=" ">
<path fill="none" stroke="#63b8ff" d="M39.06,-130.24C50.09,-144.71 69.28,-170.3 92,-185.5 101.47,-191.84 113.34,-196.08 123.66,-199.61"/>
<polygon fill="#63b8ff" stroke="#63b8ff" points="122.73,-202.99 133.33,-202.95 125.02,-196.38 122.73,-202.99"/>
</a>
</g>
</g>
<!-- Node5 -->
<g id="Node000005" class="node">
<title>Node5</title>
<g id="a_Node000005"><a xlink:href="ast__free_8c.html#abfce6009bf2f91da322878514d9209c0" target="_top" xlink:title=" ">
<polygon fill="white" stroke="#666666" points="182.5,-185 114.5,-185 114.5,-166 182.5,-166 182.5,-185"/>
<text text-anchor="middle" x="148.5" y="-173" font-family="Helvetica,sans-Serif" font-size="10.00">ast_free_if</text>
</a>
</g>
</g>
<!-- Node1&#45;&gt;Node5 -->
<g id="edge6_Node000001_Node000005" class="edge">
<title>Node1&#45;&gt;Node5</title>
<g id="a_edge6_Node000001_Node000005"><a xlink:title=" ">
<path fill="none" stroke="#63b8ff" d="M56.22,-129.86C67.07,-135.84 79.85,-143.04 92,-148.5 103.2,-153.53 116.24,-157.84 126.87,-161.93"/>
<polygon fill="#63b8ff" stroke="#63b8ff" points="125.6,-165.19 136.18,-165.8 128.29,-158.73 125.6,-165.19"/>
</a>
</g>
</g>
<!-- Node6 -->
<g id="Node000006" class="node">
<title>Node6</title>
<g id="a_Node000006"><a xlink:href="ast__free_8c.html#a654d27b37151693d221d215450efe6bb" target="_top" xlink:title=" ">
<polygon fill="white" stroke="#666666" points="187,-130 110,-130 110,-111 187,-111 187,-130"/>
<text text-anchor="middle" x="148.5" y="-118" font-family="Helvetica,sans-Serif" font-size="10.00">ast_free_list</text>
</a>
</g>
</g>
<!-- Node1&#45;&gt;Node6 -->
<g id="edge8_Node000001_Node000006" class="edge">
<title>Node1&#45;&gt;Node6</title>
<g id="a_edge8_Node000001_Node000006"><a xlink:title=" ">
<path fill="none" stroke="#63b8ff" d="M56.19,-114.72C69.07,-113.85 84.84,-113.57 99.63,-113.86"/>
<polygon fill="#63b8ff" stroke="#63b8ff" points="99.57,-117.36 109.66,-114.16 99.77,-110.36 99.57,-117.36"/>
</a>
</g>
</g>
<!-- Node7 -->
<g id="Node000007" class="node">
<title>Node7</title>
<g id="a_Node000007"><a xlink:href="ast__free_8c.html#a09f3dd857c6d405a4e1b2e3109a1d3df" target="_top" xlink:title=" ">
<polygon fill="white" stroke="#666666" points="190,-93 107,-93 107,-74 190,-74 190,-93"/>
<text text-anchor="middle" x="148.5" y="-81" font-family="Helvetica,sans-Serif" font-size="10.00">ast_free_loop</text>
</a>
</g>
</g>
<!-- Node1&#45;&gt;Node7 -->
<g id="edge11_Node000001_Node000007" class="edge">
<title>Node1&#45;&gt;Node7</title>
<g id="a_edge11_Node000001_Node000007"><a xlink:title=" ">
<path fill="none" stroke="#63b8ff" d="M44.49,-110.93C57.9,-105.16 78.07,-98.21 97.01,-92.58"/>
<polygon fill="#63b8ff" stroke="#63b8ff" points="98.12,-95.9 106.76,-89.77 96.18,-89.18 98.12,-95.9"/>
</a>
</g>
</g>
<!-- Node8 -->
<g id="Node000008" class="node">
<title>Node8</title>
<g id="a_Node000008"><a xlink:href="ast__free_8c.html#a50c5d556b19bcd99345d42797422afbc" target="_top" xlink:title=" ">
<polygon fill="white" stroke="#666666" points="190,-56 107,-56 107,-37 190,-37 190,-56"/>
<text text-anchor="middle" x="148.5" y="-44" font-family="Helvetica,sans-Serif" font-size="10.00">ast_free_pipe</text>
</a>
</g>
</g>
<!-- Node1&#45;&gt;Node8 -->
<g id="edge13_Node000001_Node000008" class="edge">
<title>Node1&#45;&gt;Node8</title>
<g id="a_edge13_Node000001_Node000008"><a xlink:title=" ">
<path fill="none" stroke="#63b8ff" d="M33.4,-110.69C43.03,-95.92 67.11,-70.88 92,-56.5 93.75,-55.49 95.57,-54.52 97.43,-53.59"/>
<polygon fill="#63b8ff" stroke="#63b8ff" points="99.23,-56.62 106.97,-49.38 96.41,-50.22 99.23,-56.62"/>
</a>
</g>
</g>
<!-- Node9 -->
<g id="Node000009" class="node">
<title>Node9</title>
<g id="a_Node000009"><a xlink:href="ast__free_8c.html#a6e033482de30aca56f1b66190b9a481c" target="_top" xlink:title=" ">
<polygon fill="white" stroke="#666666" points="205,-19 92,-19 92,0 205,0 205,-19"/>
<text text-anchor="middle" x="148.5" y="-7" font-family="Helvetica,sans-Serif" font-size="10.00">ast_free_shell_redir</text>
</a>
</g>
</g>
<!-- Node1&#45;&gt;Node9 -->
<g id="edge15_Node000001_Node000009" class="edge">
<title>Node1&#45;&gt;Node9</title>
<g id="a_edge15_Node000001_Node000009"><a xlink:title=" ">
<path fill="none" stroke="#63b8ff" d="M31.33,-110.71C37.62,-91.53 56.35,-51.34 84.67,-25.65"/>
<polygon fill="#63b8ff" stroke="#63b8ff" points="87.05,-28.22 92.49,-19.13 82.57,-22.84 87.05,-28.22"/>
</a>
</g>
</g>
<!-- Node2&#45;&gt;Node1 -->
<g id="edge2_Node000002_Node000001" class="edge">
<title>Node2&#45;&gt;Node1</title>
<g id="a_edge2_Node000002_Node000001"><a xlink:title=" ">
<path fill="none" stroke="#63b8ff" d="M100.94,-283.9C97.72,-282.09 94.69,-279.96 92,-277.5 51.65,-240.58 36.16,-173.52 31.12,-140.02"/>
<polygon fill="#63b8ff" stroke="#63b8ff" points="34.58,-139.49 29.78,-130.04 27.64,-140.42 34.58,-139.49"/>
</a>
</g>
</g>
<!-- Node4&#45;&gt;Node1 -->
<g id="edge5_Node000004_Node000001" class="edge">
<title>Node4&#45;&gt;Node1</title>
<g id="a_edge5_Node000004_Node000001"><a xlink:title=" ">
<path fill="none" stroke="#63b8ff" d="M110.93,-212.66C104.32,-210.4 97.73,-207.33 92,-203.5 67.52,-187.12 47.13,-158.67 36.64,-139.37"/>
<polygon fill="#63b8ff" stroke="#63b8ff" points="39.67,-137.62 32.08,-130.23 33.41,-140.74 39.67,-137.62"/>
</a>
</g>
</g>
<!-- Node5&#45;&gt;Node1 -->
<g id="edge7_Node000005_Node000001" class="edge">
<title>Node5&#45;&gt;Node1</title>
<g id="a_edge7_Node000005_Node000001"><a xlink:title=" ">
<path fill="none" stroke="#63b8ff" d="M114.48,-174.85C106.97,-172.6 99.11,-169.7 92,-166.5 74.5,-158.63 55.68,-147.14 43.21,-137.2"/>
<polygon fill="#63b8ff" stroke="#63b8ff" points="45.19,-134.28 35.37,-130.31 40.57,-139.54 45.19,-134.28"/>
</a>
</g>
</g>
<!-- Node6&#45;&gt;Node1 -->
<g id="edge10_Node000006_Node000001" class="edge">
<title>Node6&#45;&gt;Node1</title>
<g id="a_edge10_Node000006_Node000001"><a xlink:title=" ">
<path fill="none" stroke="#63b8ff" d="M109.66,-126.84C95.81,-127.39 80.14,-127.39 66.33,-126.82"/>
<polygon fill="#63b8ff" stroke="#63b8ff" points="66.36,-123.32 56.19,-126.28 65.99,-130.31 66.36,-123.32"/>
</a>
</g>
</g>
<!-- Node6&#45;&gt;Node6 -->
<g id="edge9_Node000006_Node000006" class="edge">
<title>Node6&#45;&gt;Node6</title>
<g id="a_edge9_Node000006_Node000006"><a xlink:title=" ">
<path fill="none" stroke="#63b8ff" d="M130,-130.08C121.01,-138.73 127.17,-148 148.5,-148 161.83,-148 169.24,-144.38 170.72,-139.55"/>
<polygon fill="#63b8ff" stroke="#63b8ff" points="173.91,-138.11 167,-130.08 167.4,-140.67 173.91,-138.11"/>
</a>
</g>
</g>
<!-- Node7&#45;&gt;Node1 -->
<g id="edge12_Node000007_Node000001" class="edge">
<title>Node7&#45;&gt;Node1</title>
<g id="a_edge12_Node000007_Node000001"><a xlink:title=" ">
<path fill="none" stroke="#63b8ff" d="M132.05,-93.05C115.38,-100.23 88.25,-109.23 66.01,-115.25"/>
<polygon fill="#63b8ff" stroke="#63b8ff" points="64.99,-111.9 56.19,-117.79 66.74,-118.68 64.99,-111.9"/>
</a>
</g>
</g>
<!-- Node8&#45;&gt;Node1 -->
<g id="edge14_Node000008_Node000001" class="edge">
<title>Node8&#45;&gt;Node1</title>
<g id="a_edge14_Node000008_Node000001"><a xlink:title=" ">
<path fill="none" stroke="#63b8ff" d="M135.45,-56.07C123.81,-61.1 105.93,-66.45 92,-74.5 77.73,-82.74 63.74,-94.48 52.58,-104.21"/>
<polygon fill="#63b8ff" stroke="#63b8ff" points="50.2,-101.65 44.99,-110.87 54.81,-106.91 50.2,-101.65"/>
</a>
</g>
</g>
<!-- Node9&#45;&gt;Node1 -->
<g id="edge16_Node000009_Node000001" class="edge">
<title>Node9&#45;&gt;Node1</title>
<g id="a_edge16_Node000009_Node000001"><a xlink:title=" ">
<path fill="none" stroke="#63b8ff" d="M133.09,-19.01C121.12,-23.32 104.16,-28.25 92,-37.5 69.04,-54.96 51.46,-83.27 40.78,-102.1"/>
<polygon fill="#63b8ff" stroke="#63b8ff" points="37.64,-100.54 35.83,-110.98 43.76,-103.95 37.64,-100.54"/>
</a>
</g>
</g>
</g>
</svg>
