<?xml version="1.0" encoding="UTF-8" standalone="no"?>
<!DOCTYPE svg PUBLIC "-//W3C//DTD SVG 1.1//EN"
 "http://www.w3.org/Graphics/SVG/1.1/DTD/svg11.dtd">
<!-- Generated by graphviz version 2.43.0 (0)
 -->
<!-- Title: ast_run_loop Pages: 1 -->
<svg width="849pt" height="440pt"
 viewBox="0.00 0.00 849.00 439.68" xmlns="http://www.w3.org/2000/svg" xmlns:xlink="http://www.w3.org/1999/xlink">
<g id="graph0" class="graph" transform="scale(1 1) rotate(0) translate(4 435.68)">
<title>ast_run_loop</title>
<!-- Node1 -->
<g id="Node000001" class="node">
<title>Node1</title>
<g id="a_Node000001"><a xlink:title=" ">
<polygon fill="#999999" stroke="#666666" points="841,-283.68 762,-283.68 762,-264.68 841,-264.68 841,-283.68"/>
<text text-anchor="middle" x="801.5" y="-271.68" font-family="Helvetica,sans-Serif" font-size="10.00">ast_run_loop</text>
</a>
</g>
</g>
<!-- Node2 -->
<g id="Node000002" class="node">
<title>Node2</title>
<g id="a_Node000002"><a xlink:href="ast_8c.html#a572345b2707780bbbc5bbaacdca9c372" target="_top" xlink:title=" ">
<polygon fill="white" stroke="#666666" points="726,-283.68 673,-283.68 673,-264.68 726,-264.68 726,-283.68"/>
<text text-anchor="middle" x="699.5" y="-271.68" font-family="Helvetica,sans-Serif" font-size="10.00">run_ast</text>
</a>
</g>
</g>
<!-- Node1&#45;&gt;Node2 -->
<g id="edge1_Node000001_Node000002" class="edge">
<title>Node1&#45;&gt;Node2</title>
<g id="a_edge1_Node000001_Node000002"><a xlink:title=" ">
<path fill="none" stroke="#63b8ff" d="M751.58,-267.44C742.76,-267.41 733.9,-267.67 726.1,-268.21"/>
<polygon fill="#63b8ff" stroke="#63b8ff" points="751.79,-270.94 761.84,-267.59 751.89,-263.94 751.79,-270.94"/>
</a>
</g>
</g>
<!-- Node2&#45;&gt;Node1 -->
<g id="edge11_Node000002_Node000001" class="edge">
<title>Node2&#45;&gt;Node1</title>
<g id="a_edge11_Node000002_Node000001"><a xlink:title=" ">
<path fill="none" stroke="#63b8ff" d="M736.23,-280.68C744.54,-280.98 753.41,-281.01 761.84,-280.78"/>
<polygon fill="#63b8ff" stroke="#63b8ff" points="736.26,-277.18 726.1,-280.16 735.9,-284.17 736.26,-277.18"/>
</a>
</g>
</g>
<!-- Node3 -->
<g id="Node000003" class="node">
<title>Node3</title>
<g id="a_Node000003"><a xlink:href="ast__run_8c.html#a8a01fec616135007fc5b3968a101901b" target="_top" xlink:title=" ">
<polygon fill="white" stroke="#666666" points="628,-431.68 537,-431.68 537,-412.68 628,-412.68 628,-431.68"/>
<text text-anchor="middle" x="582.5" y="-419.68" font-family="Helvetica,sans-Serif" font-size="10.00">ast_run_and_or</text>
</a>
</g>
</g>
<!-- Node2&#45;&gt;Node3 -->
<g id="edge2_Node000002_Node000003" class="edge">
<title>Node2&#45;&gt;Node3</title>
<g id="a_edge2_Node000002_Node000003"><a xlink:title=" ">
<path fill="none" stroke="#63b8ff" d="M692.67,-293.85C684.84,-320.6 668.16,-367.48 637,-395.18 626.75,-404.3 611.71,-408.83 600.18,-412.53"/>
<polygon fill="#63b8ff" stroke="#63b8ff" points="696.09,-294.62 695.41,-284.05 689.35,-292.73 696.09,-294.62"/>
</a>
</g>
</g>
<!-- Node4 -->
<g id="Node000004" class="node">
<title>Node4</title>
<g id="a_Node000004"><a xlink:href="ast__run_8c.html#a9d83d4834a61ffe21eb77838d70ae173" target="_top" xlink:title=" ">
<polygon fill="white" stroke="#666666" points="618,-394.68 547,-394.68 547,-375.68 618,-375.68 618,-394.68"/>
<text text-anchor="middle" x="582.5" y="-382.68" font-family="Helvetica,sans-Serif" font-size="10.00">ast_run_for</text>
</a>
</g>
</g>
<!-- Node2&#45;&gt;Node4 -->
<g id="edge4_Node000002_Node000004" class="edge">
<title>Node2&#45;&gt;Node4</title>
<g id="a_edge4_Node000002_Node000004"><a xlink:title=" ">
<path fill="none" stroke="#63b8ff" d="M687.24,-292.89C676.95,-311.97 659.87,-340.6 637,-358.18 625.66,-366.91 609.85,-371.53 598.36,-375.57"/>
<polygon fill="#63b8ff" stroke="#63b8ff" points="690.41,-294.37 691.99,-283.9 684.22,-291.1 690.41,-294.37"/>
</a>
</g>
</g>
<!-- Node5 -->
<g id="Node000005" class="node">
<title>Node5</title>
<g id="a_Node000005"><a xlink:href="ast__run_8c.html#a0a7138b1f2608ea36211c9b78988c248" target="_top" xlink:title=" ">
<polygon fill="white" stroke="#666666" points="615,-357.68 550,-357.68 550,-338.68 615,-338.68 615,-357.68"/>
<text text-anchor="middle" x="582.5" y="-345.68" font-family="Helvetica,sans-Serif" font-size="10.00">ast_run_if</text>
</a>
</g>
</g>
<!-- Node2&#45;&gt;Node5 -->
<g id="edge6_Node000002_Node000005" class="edge">
<title>Node2&#45;&gt;Node5</title>
<g id="a_edge6_Node000002_Node000005"><a xlink:title=" ">
<path fill="none" stroke="#63b8ff" d="M675.9,-290.78C665,-300.77 651.22,-312.82 637,-321.18 623.82,-328.93 606.84,-333.92 595.58,-338.67"/>
<polygon fill="#63b8ff" stroke="#63b8ff" points="678.32,-293.32 683.29,-283.96 673.57,-288.17 678.32,-293.32"/>
</a>
</g>
</g>
<!-- Node6 -->
<g id="Node000006" class="node">
<title>Node6</title>
<g id="a_Node000006"><a xlink:href="ast__run_8c.html#ae25cd3ced8abafd76110dba8852a6b87" target="_top" xlink:title=" ">
<polygon fill="white" stroke="#666666" points="619,-302.68 546,-302.68 546,-283.68 619,-283.68 619,-302.68"/>
<text text-anchor="middle" x="582.5" y="-290.68" font-family="Helvetica,sans-Serif" font-size="10.00">ast_run_list</text>
</a>
</g>
</g>
<!-- Node2&#45;&gt;Node6 -->
<g id="edge8_Node000002_Node000006" class="edge">
<title>Node2&#45;&gt;Node6</title>
<g id="a_edge8_Node000002_Node000006"><a xlink:title=" ">
<path fill="none" stroke="#63b8ff" d="M662.82,-273.78C644.79,-275.98 623.4,-279.74 607.38,-283.64"/>
<polygon fill="#63b8ff" stroke="#63b8ff" points="663.41,-277.24 672.98,-272.68 662.66,-270.28 663.41,-277.24"/>
</a>
</g>
</g>
<!-- Node7 -->
<g id="Node000007" class="node">
<title>Node7</title>
<g id="a_Node000007"><a xlink:href="ast__run_8c.html#aa3e6a973e744d748ee415840596beb53" target="_top" xlink:title=" ">
<polygon fill="white" stroke="#666666" points="637,-265.68 528,-265.68 528,-246.68 637,-246.68 637,-265.68"/>
<text text-anchor="middle" x="582.5" y="-253.68" font-family="Helvetica,sans-Serif" font-size="10.00">ast_run_shell_redir</text>
</a>
</g>
</g>
<!-- Node2&#45;&gt;Node7 -->
<g id="edge12_Node000002_Node000007" class="edge">
<title>Node2&#45;&gt;Node7</title>
<g id="a_edge12_Node000002_Node000007"><a xlink:title=" ">
<path fill="none" stroke="#63b8ff" d="M664.05,-262.55C655.66,-260.85 646.49,-259.25 637.43,-257.89"/>
<polygon fill="#63b8ff" stroke="#63b8ff" points="663.32,-265.97 673.83,-264.67 664.8,-259.13 663.32,-265.97"/>
</a>
</g>
</g>
<!-- Node8 -->
<g id="Node000008" class="node">
<title>Node8</title>
<g id="a_Node000008"><a xlink:href="exec_8c.html#a23babf893bbcd2f6126698a1a19b169f" target="_top" xlink:title="Execute funct with given arguments.">
<polygon fill="white" stroke="#666666" points="372,-194.68 307,-194.68 307,-175.68 372,-175.68 372,-194.68"/>
<text text-anchor="middle" x="339.5" y="-182.68" font-family="Helvetica,sans-Serif" font-size="10.00">exec_func</text>
</a>
</g>
</g>
<!-- Node2&#45;&gt;Node8 -->
<g id="edge14_Node000002_Node000008" class="edge">
<title>Node2&#45;&gt;Node8</title>
<g id="a_edge14_Node000002_Node000008"><a xlink:title=" ">
<path fill="none" stroke="#63b8ff" d="M676.65,-258.84C665.3,-251.54 650.92,-243.32 637,-238.18 544.52,-204.08 427.47,-191.47 372.18,-187.18"/>
<polygon fill="#63b8ff" stroke="#63b8ff" points="674.77,-261.79 685.03,-264.41 678.64,-255.96 674.77,-261.79"/>
</a>
</g>
</g>
<!-- Node11 -->
<g id="Node000011" class="node">
<title>Node11</title>
<g id="a_Node000011"><a xlink:href="exec_8c.html#ab743cb88e12e9b922050925fd2075e36" target="_top" xlink:title="Execute a pipeline of commands.">
<polygon fill="white" stroke="#666666" points="615,-171.68 550,-171.68 550,-152.68 615,-152.68 615,-171.68"/>
<text text-anchor="middle" x="582.5" y="-159.68" font-family="Helvetica,sans-Serif" font-size="10.00">exec_pipe</text>
</a>
</g>
</g>
<!-- Node2&#45;&gt;Node11 -->
<g id="edge18_Node000002_Node000011" class="edge">
<title>Node2&#45;&gt;Node11</title>
<g id="a_edge18_Node000002_Node000011"><a xlink:title=" ">
<path fill="none" stroke="#63b8ff" d="M684.78,-256.83C672.82,-242.16 654.68,-220.91 637,-204.18 624.31,-192.17 608.41,-180.01 597.25,-171.89"/>
<polygon fill="#63b8ff" stroke="#63b8ff" points="682.05,-259.03 691.05,-264.63 687.51,-254.64 682.05,-259.03"/>
</a>
</g>
</g>
<!-- Node13 -->
<g id="Node000013" class="node">
<title>Node13</title>
<g id="a_Node000013"><a xlink:href="42sh_8c.html#a3c04138a5bfe5d72780bb7e82a18e627" target="_top" xlink:title=" ">
<polygon fill="white" stroke="#666666" points="603,-134.68 562,-134.68 562,-115.68 603,-115.68 603,-134.68"/>
<text text-anchor="middle" x="582.5" y="-122.68" font-family="Helvetica,sans-Serif" font-size="10.00">main</text>
</a>
</g>
</g>
<!-- Node2&#45;&gt;Node13 -->
<g id="edge22_Node000002_Node000013" class="edge">
<title>Node2&#45;&gt;Node13</title>
<g id="a_edge22_Node000002_Node000013"><a xlink:title=" ">
<path fill="none" stroke="#63b8ff" d="M694.28,-254.63C687.22,-226.4 670.35,-174.34 637,-144.18 627.64,-135.72 614.27,-130.97 603.23,-128.34"/>
<polygon fill="#63b8ff" stroke="#63b8ff" points="690.91,-255.56 696.59,-264.5 697.72,-253.97 690.91,-255.56"/>
</a>
</g>
</g>
<!-- Node14 -->
<g id="Node000014" class="node">
<title>Node14</title>
<g id="a_Node000014"><a xlink:href="dot_8c.html#a17477ee2b0f1b8b9306566c990d15b35" target="_top" xlink:title="Main loop of dot builtin.">
<polygon fill="white" stroke="#666666" points="616.5,-58.68 548.5,-58.68 548.5,-39.68 616.5,-39.68 616.5,-58.68"/>
<text text-anchor="middle" x="582.5" y="-46.68" font-family="Helvetica,sans-Serif" font-size="10.00">main_loop</text>
</a>
</g>
</g>
<!-- Node2&#45;&gt;Node14 -->
<g id="edge23_Node000002_Node000014" class="edge">
<title>Node2&#45;&gt;Node14</title>
<g id="a_edge23_Node000002_Node000014"><a xlink:title=" ">
<path fill="none" stroke="#63b8ff" d="M697.7,-254.34C695.1,-215.03 684.03,-126.48 637,-73.18 631.48,-66.92 624,-62.21 616.39,-58.7"/>
<polygon fill="#63b8ff" stroke="#63b8ff" points="694.21,-254.66 698.25,-264.46 701.2,-254.28 694.21,-254.66"/>
</a>
</g>
</g>
<!-- Node3&#45;&gt;Node2 -->
<g id="edge3_Node000003_Node000002" class="edge">
<title>Node3&#45;&gt;Node2</title>
<g id="a_edge3_Node000003_Node000002"><a xlink:title=" ">
<path fill="none" stroke="#63b8ff" d="M636.49,-413.63C636.66,-413.48 636.83,-413.33 637,-413.18 677.12,-377.52 693.23,-310.07 697.36,-284.04"/>
<polygon fill="#63b8ff" stroke="#63b8ff" points="634.27,-410.91 628.02,-419.47 638.24,-416.67 634.27,-410.91"/>
</a>
</g>
</g>
<!-- Node4&#45;&gt;Node2 -->
<g id="edge5_Node000004_Node000002" class="edge">
<title>Node4&#45;&gt;Node2</title>
<g id="a_edge5_Node000004_Node000002"><a xlink:title=" ">
<path fill="none" stroke="#63b8ff" d="M627.32,-382.2C630.75,-380.47 634.03,-378.47 637,-376.18 669.22,-351.4 689.96,-304.7 696.38,-283.74"/>
<polygon fill="#63b8ff" stroke="#63b8ff" points="625.87,-379.01 618.02,-386.12 628.59,-385.46 625.87,-379.01"/>
</a>
</g>
</g>
<!-- Node5&#45;&gt;Node2 -->
<g id="edge7_Node000005_Node000002" class="edge">
<title>Node5&#45;&gt;Node2</title>
<g id="a_edge7_Node000005_Node000002"><a xlink:title=" ">
<path fill="none" stroke="#63b8ff" d="M624.52,-345.31C628.85,-343.54 633.09,-341.48 637,-339.18 661.65,-324.69 684.96,-299.12 694.26,-284.11"/>
<polygon fill="#63b8ff" stroke="#63b8ff" points="623.24,-342.05 615.01,-348.72 625.6,-348.64 623.24,-342.05"/>
</a>
</g>
</g>
<!-- Node6&#45;&gt;Node2 -->
<g id="edge10_Node000006_Node000002" class="edge">
<title>Node6&#45;&gt;Node2</title>
<g id="a_edge10_Node000006_Node000002"><a xlink:title=" ">
<path fill="none" stroke="#63b8ff" d="M629.11,-292.27C644.7,-290.04 661.5,-286.92 674.67,-283.71"/>
<polygon fill="#63b8ff" stroke="#63b8ff" points="628.55,-288.81 619.09,-293.6 629.47,-295.75 628.55,-288.81"/>
</a>
</g>
</g>
<!-- Node6&#45;&gt;Node6 -->
<g id="edge9_Node000006_Node000006" class="edge">
<title>Node6&#45;&gt;Node6</title>
<g id="a_edge9_Node000006_Node000006"><a xlink:title=" ">
<path fill="none" stroke="#63b8ff" d="M603.98,-312.24C602.55,-317.06 595.39,-320.68 582.5,-320.68 561.88,-320.68 555.92,-311.42 564.62,-302.77"/>
<polygon fill="#63b8ff" stroke="#63b8ff" points="607.2,-310.87 600.38,-302.77 600.66,-313.36 607.2,-310.87"/>
</a>
</g>
</g>
<!-- Node7&#45;&gt;Node2 -->
<g id="edge13_Node000007_Node000002" class="edge">
<title>Node7&#45;&gt;Node2</title>
<g id="a_edge13_Node000007_Node000002"><a xlink:title=" ">
<path fill="none" stroke="#63b8ff" d="M618.09,-267.85C635.74,-271.42 656.83,-274.55 672.98,-275.91"/>
<polygon fill="#63b8ff" stroke="#63b8ff" points="618.68,-264.39 608.16,-265.7 617.2,-271.23 618.68,-264.39"/>
</a>
</g>
</g>
<!-- Node9 -->
<g id="Node000009" class="node">
<title>Node9</title>
<g id="a_Node000009"><a xlink:href="exec_8c.html#ae65edaa99b26b49d60c451157d38b34a" target="_top" xlink:title="Execute les commandes avec les args donnes.">
<polygon fill="white" stroke="#666666" points="180,-58.68 115,-58.68 115,-39.68 180,-39.68 180,-58.68"/>
<text text-anchor="middle" x="147.5" y="-46.68" font-family="Helvetica,sans-Serif" font-size="10.00">exec_cmd</text>
</a>
</g>
</g>
<!-- Node8&#45;&gt;Node9 -->
<g id="edge15_Node000008_Node000009" class="edge">
<title>Node8&#45;&gt;Node9</title>
<g id="a_edge15_Node000008_Node000009"><a xlink:title=" ">
<path fill="none" stroke="#63b8ff" d="M316.95,-169.76C277.39,-141.44 194.26,-81.94 161.85,-58.74"/>
<polygon fill="#63b8ff" stroke="#63b8ff" points="314.97,-172.65 325.14,-175.62 319.05,-166.95 314.97,-172.65"/>
</a>
</g>
</g>
<!-- Node10 -->
<g id="Node000010" class="node">
<title>Node10</title>
<g id="a_Node000010"><a xlink:href="ast__run_8c.html#aeb6878a59c6907e5669fc3cc428913d9" target="_top" xlink:title=" ">
<polygon fill="white" stroke="#666666" points="79,-39.68 0,-39.68 0,-20.68 79,-20.68 79,-39.68"/>
<text text-anchor="middle" x="39.5" y="-27.68" font-family="Helvetica,sans-Serif" font-size="10.00">ast_run_cmd</text>
</a>
</g>
</g>
<!-- Node9&#45;&gt;Node10 -->
<g id="edge16_Node000009_Node000010" class="edge">
<title>Node9&#45;&gt;Node10</title>
<g id="a_edge16_Node000009_Node000010"><a xlink:title=" ">
<path fill="none" stroke="#63b8ff" d="M104.92,-41.73C96.45,-40.21 87.58,-38.62 79.21,-37.12"/>
<polygon fill="#63b8ff" stroke="#63b8ff" points="104.52,-45.22 114.98,-43.53 105.76,-38.33 104.52,-45.22"/>
</a>
</g>
</g>
<!-- Node10&#45;&gt;Node2 -->
<g id="edge17_Node000010_Node000002" class="edge">
<title>Node10&#45;&gt;Node2</title>
<g id="a_edge17_Node000010_Node000002"><a xlink:title=" ">
<path fill="none" stroke="#63b8ff" d="M89.1,-22.95C129.43,-17.58 188.31,-11.18 240,-11.18 453.5,-11.18 453.5,-11.18 453.5,-11.18 535.49,-11.18 575.01,23.48 637,-30.18 673.83,-62.06 693.16,-223.55 697.53,-264.65"/>
<polygon fill="#63b8ff" stroke="#63b8ff" points="88.45,-19.51 79.01,-24.33 89.4,-26.45 88.45,-19.51"/>
</a>
</g>
</g>
<!-- Node11&#45;&gt;Node11 -->
<g id="edge21_Node000011_Node000011" class="edge">
<title>Node11&#45;&gt;Node11</title>
<g id="a_edge21_Node000011_Node000011"><a xlink:title=" ">
<path fill="none" stroke="#63b8ff" d="M603.98,-181.24C602.55,-186.06 595.39,-189.68 582.5,-189.68 561.88,-189.68 555.92,-180.42 564.62,-171.77"/>
<polygon fill="#63b8ff" stroke="#63b8ff" points="607.2,-179.87 600.38,-171.77 600.66,-182.36 607.2,-179.87"/>
</a>
</g>
</g>
<!-- Node12 -->
<g id="Node000012" class="node">
<title>Node12</title>
<g id="a_Node000012"><a xlink:href="ast__run_8c.html#a24d0223822f7b635628199085c3283be" target="_top" xlink:title=" ">
<polygon fill="white" stroke="#666666" points="492,-133.68 413,-133.68 413,-114.68 492,-114.68 492,-133.68"/>
<text text-anchor="middle" x="452.5" y="-121.68" font-family="Helvetica,sans-Serif" font-size="10.00">ast_run_pipe</text>
</a>
</g>
</g>
<!-- Node11&#45;&gt;Node12 -->
<g id="edge19_Node000011_Node000012" class="edge">
<title>Node11&#45;&gt;Node12</title>
<g id="a_edge19_Node000011_Node000012"><a xlink:title=" ">
<path fill="none" stroke="#63b8ff" d="M539.85,-149.82C522.25,-144.6 502.08,-138.61 485.67,-133.73"/>
<polygon fill="#63b8ff" stroke="#63b8ff" points="539.28,-153.3 549.86,-152.79 541.27,-146.59 539.28,-153.3"/>
</a>
</g>
</g>
<!-- Node12&#45;&gt;Node2 -->
<g id="edge20_Node000012_Node000002" class="edge">
<title>Node12&#45;&gt;Node2</title>
<g id="a_edge20_Node000012_Node000002"><a xlink:title=" ">
<path fill="none" stroke="#63b8ff" d="M483.28,-110.5C522.29,-94.83 591.11,-75.18 637,-107.18 690.73,-144.65 697.64,-234.59 698.44,-264.4"/>
<polygon fill="#63b8ff" stroke="#63b8ff" points="481.44,-107.48 473.57,-114.57 484.15,-113.93 481.44,-107.48"/>
</a>
</g>
</g>
<!-- Node15 -->
<g id="Node000015" class="node">
<title>Node15</title>
<g id="a_Node000015"><a xlink:href="dot_8c.html#a713938d3c6ee343132c429642048bcf6" target="_top" xlink:title="Execute the dot builtin cmd.">
<polygon fill="white" stroke="#666666" points="474.5,-58.68 430.5,-58.68 430.5,-39.68 474.5,-39.68 474.5,-58.68"/>
<text text-anchor="middle" x="452.5" y="-46.68" font-family="Helvetica,sans-Serif" font-size="10.00">dot_b</text>
</a>
</g>
</g>
<!-- Node14&#45;&gt;Node15 -->
<g id="edge24_Node000014_Node000015" class="edge">
<title>Node14&#45;&gt;Node15</title>
<g id="a_edge24_Node000014_Node000015"><a xlink:title=" ">
<path fill="none" stroke="#63b8ff" d="M538.02,-49.18C516.61,-49.18 491.78,-49.18 474.6,-49.18"/>
<polygon fill="#63b8ff" stroke="#63b8ff" points="538.2,-52.68 548.2,-49.18 538.2,-45.68 538.2,-52.68"/>
</a>
</g>
</g>
<!-- Node16 -->
<g id="Node000016" class="node">
<title>Node16</title>
<g id="a_Node000016"><a xlink:href="exec_8c.html#abaeb177587c7eec6a064b35bb8399cae" target="_top" xlink:title="Execute builtin cmd with given args.">
<polygon fill="white" stroke="#666666" points="377,-58.68 302,-58.68 302,-39.68 377,-39.68 377,-58.68"/>
<text text-anchor="middle" x="339.5" y="-46.68" font-family="Helvetica,sans-Serif" font-size="10.00">exec_builtin</text>
</a>
</g>
</g>
<!-- Node15&#45;&gt;Node16 -->
<g id="edge25_Node000015_Node000016" class="edge">
<title>Node15&#45;&gt;Node16</title>
<g id="a_edge25_Node000015_Node000016"><a xlink:title=" ">
<path fill="none" stroke="#63b8ff" d="M420.23,-49.18C406.88,-49.18 391.2,-49.18 377.3,-49.18"/>
<polygon fill="#63b8ff" stroke="#63b8ff" points="420.36,-52.68 430.36,-49.18 420.36,-45.68 420.36,-52.68"/>
</a>
</g>
</g>
<!-- Node17 -->
<g id="Node000017" class="node">
<title>Node17</title>
<g id="a_Node000017"><a xlink:href="exec_8c.html#a287d81b4658832f192750310e2925917" target="_top" xlink:title="Execute the builtin command with given args.">
<polygon fill="white" stroke="#666666" points="266,-58.68 216,-58.68 216,-39.68 266,-39.68 266,-58.68"/>
<text text-anchor="middle" x="241" y="-46.68" font-family="Helvetica,sans-Serif" font-size="10.00">exec_b</text>
</a>
</g>
</g>
<!-- Node16&#45;&gt;Node17 -->
<g id="edge26_Node000016_Node000017" class="edge">
<title>Node16&#45;&gt;Node17</title>
<g id="a_edge26_Node000016_Node000017"><a xlink:title=" ">
<path fill="none" stroke="#63b8ff" d="M291.51,-49.18C282.71,-49.18 273.86,-49.18 266.12,-49.18"/>
<polygon fill="#63b8ff" stroke="#63b8ff" points="291.74,-52.68 301.74,-49.18 291.74,-45.68 291.74,-52.68"/>
</a>
</g>
</g>
<!-- Node17&#45;&gt;Node9 -->
<g id="edge27_Node000017_Node000009" class="edge">
<title>Node17&#45;&gt;Node9</title>
<g id="a_edge27_Node000017_Node000009"><a xlink:title=" ">
<path fill="none" stroke="#63b8ff" d="M205.77,-49.18C197.42,-49.18 188.53,-49.18 180.3,-49.18"/>
<polygon fill="#63b8ff" stroke="#63b8ff" points="205.96,-52.68 215.96,-49.18 205.96,-45.68 205.96,-52.68"/>
</a>
</g>
</g>
</g>
</svg>
