<?xml version="1.0" encoding="UTF-8" standalone="no"?>
<!DOCTYPE svg PUBLIC "-//W3C//DTD SVG 1.1//EN"
 "http://www.w3.org/Graphics/SVG/1.1/DTD/svg11.dtd">
<!-- Generated by graphviz version 2.43.0 (0)
 -->
<!-- Title: src/ast/ast.h Pages: 1 -->
<svg width="1664pt" height="192pt"
 viewBox="0.00 0.00 1664.00 192.00" xmlns="http://www.w3.org/2000/svg" xmlns:xlink="http://www.w3.org/1999/xlink">
<g id="graph0" class="graph" transform="scale(1 1) rotate(0) translate(4 188)">
<title>src/ast/ast.h</title>
<!-- Node1 -->
<g id="Node000001" class="node">
<title>Node1</title>
<g id="a_Node000001"><a xlink:title=" ">
<polygon fill="#999999" stroke="#666666" points="1018,-184 942,-184 942,-165 1018,-165 1018,-184"/>
<text text-anchor="middle" x="980" y="-172" font-family="Helvetica,sans-Serif" font-size="10.00">src/ast/ast.h</text>
</a>
</g>
</g>
<!-- Node2 -->
<g id="Node000002" class="node">
<title>Node2</title>
<g id="a_Node000002"><a xlink:href="42sh_8c.html" target="_top" xlink:title=" ">
<polygon fill="white" stroke="#666666" points="820.5,-74 755.5,-74 755.5,-55 820.5,-55 820.5,-74"/>
<text text-anchor="middle" x="788" y="-62" font-family="Helvetica,sans-Serif" font-size="10.00">src/42sh.c</text>
</a>
</g>
</g>
<!-- Node1&#45;&gt;Node2 -->
<g id="edge1_Node000001_Node000002" class="edge">
<title>Node1&#45;&gt;Node2</title>
<g id="a_edge1_Node000001_Node000002"><a xlink:title=" ">
<path fill="none" stroke="#63b8ff" d="M931.64,-169.57C898.1,-164.68 854.05,-153.68 823,-129 804.87,-114.59 794.72,-88.09 790.45,-74.32"/>
<polygon fill="#63b8ff" stroke="#63b8ff" points="931.32,-173.06 941.69,-170.91 932.24,-166.12 931.32,-173.06"/>
</a>
</g>
</g>
<!-- Node3 -->
<g id="Node000003" class="node">
<title>Node3</title>
<g id="a_Node000003"><a xlink:href="ast__aux_8h.html" target="_top" xlink:title=" ">
<polygon fill="white" stroke="#666666" points="1074.5,-74 975.5,-74 975.5,-55 1074.5,-55 1074.5,-74"/>
<text text-anchor="middle" x="1025" y="-62" font-family="Helvetica,sans-Serif" font-size="10.00">src/ast/ast_aux.h</text>
</a>
</g>
</g>
<!-- Node1&#45;&gt;Node3 -->
<g id="edge2_Node000001_Node000003" class="edge">
<title>Node1&#45;&gt;Node3</title>
<g id="a_edge2_Node000001_Node000003"><a xlink:title=" ">
<path fill="none" stroke="#63b8ff" d="M986.44,-155.3C991.07,-142.52 997.6,-125.09 1004,-110 1009.34,-97.42 1016.21,-83.18 1020.61,-74.27"/>
<polygon fill="#63b8ff" stroke="#63b8ff" points="983.12,-154.19 983.05,-164.79 989.71,-156.55 983.12,-154.19"/>
</a>
</g>
</g>
<!-- Node13 -->
<g id="Node000013" class="node">
<title>Node13</title>
<g id="a_Node000013"><a xlink:href="exec_8h.html" target="_top" xlink:title=" ">
<polygon fill="white" stroke="#666666" points="1545.5,-74 1454.5,-74 1454.5,-55 1545.5,-55 1545.5,-74"/>
<text text-anchor="middle" x="1500" y="-62" font-family="Helvetica,sans-Serif" font-size="10.00">src/exec/exec.h</text>
</a>
</g>
</g>
<!-- Node1&#45;&gt;Node13 -->
<g id="edge12_Node000001_Node000013" class="edge">
<title>Node1&#45;&gt;Node13</title>
<g id="a_edge12_Node000001_Node000013"><a xlink:title=" ">
<path fill="none" stroke="#63b8ff" d="M990.48,-156.19C1000.61,-141.18 1017.43,-120.28 1038,-110 1110.26,-73.9 1352.73,-67.05 1454.46,-65.78"/>
<polygon fill="#63b8ff" stroke="#63b8ff" points="987.52,-154.33 985.07,-164.64 993.41,-158.11 987.52,-154.33"/>
</a>
</g>
</g>
<!-- Node15 -->
<g id="Node000015" class="node">
<title>Node15</title>
<g id="a_Node000015"><a xlink:href="expand_8c.html" target="_top" xlink:title=" ">
<polygon fill="white" stroke="#666666" points="1163.5,-129 1046.5,-129 1046.5,-110 1163.5,-110 1163.5,-129"/>
<text text-anchor="middle" x="1105" y="-117" font-family="Helvetica,sans-Serif" font-size="10.00">src/expand/expand.c</text>
</a>
</g>
</g>
<!-- Node1&#45;&gt;Node15 -->
<g id="edge15_Node000001_Node000015" class="edge">
<title>Node1&#45;&gt;Node15</title>
<g id="a_edge15_Node000001_Node000015"><a xlink:title=" ">
<path fill="none" stroke="#63b8ff" d="M1009.41,-161.03C1032.53,-151.23 1064.13,-137.83 1084.55,-129.17"/>
<polygon fill="#63b8ff" stroke="#63b8ff" points="1007.92,-157.86 1000.08,-164.98 1010.66,-164.3 1007.92,-157.86"/>
</a>
</g>
</g>
<!-- Node16 -->
<g id="Node000016" class="node">
<title>Node16</title>
<g id="a_Node000016"><a xlink:href="hashmap_8c.html" target="_top" xlink:title=" ">
<polygon fill="white" stroke="#666666" points="1308,-129 1182,-129 1182,-110 1308,-110 1308,-129"/>
<text text-anchor="middle" x="1245" y="-117" font-family="Helvetica,sans-Serif" font-size="10.00">src/expand/hashmap.c</text>
</a>
</g>
</g>
<!-- Node1&#45;&gt;Node16 -->
<g id="edge16_Node000001_Node000016" class="edge">
<title>Node1&#45;&gt;Node16</title>
<g id="a_edge16_Node000001_Node000016"><a xlink:title=" ">
<path fill="none" stroke="#63b8ff" d="M1028.12,-163.88C1077.86,-153.93 1154.76,-138.55 1202.37,-129.03"/>
<polygon fill="#63b8ff" stroke="#63b8ff" points="1027.37,-160.46 1018.25,-165.85 1028.74,-167.32 1027.37,-160.46"/>
</a>
</g>
</g>
<!-- Node17 -->
<g id="Node000017" class="node">
<title>Node17</title>
<g id="a_Node000017"><a xlink:href="parser_8h.html" target="_top" xlink:title=" ">
<polygon fill="white" stroke="#666666" points="747.5,-129 640.5,-129 640.5,-110 747.5,-110 747.5,-129"/>
<text text-anchor="middle" x="694" y="-117" font-family="Helvetica,sans-Serif" font-size="10.00">src/parser/parser.h</text>
</a>
</g>
</g>
<!-- Node1&#45;&gt;Node17 -->
<g id="edge17_Node000001_Node000017" class="edge">
<title>Node1&#45;&gt;Node17</title>
<g id="a_edge17_Node000001_Node000017"><a xlink:title=" ">
<path fill="none" stroke="#63b8ff" d="M931.81,-164.57C878.34,-154.66 792.69,-138.79 740.09,-129.04"/>
<polygon fill="#63b8ff" stroke="#63b8ff" points="931.26,-168.03 941.73,-166.41 932.53,-161.14 931.26,-168.03"/>
</a>
</g>
</g>
<!-- Node22 -->
<g id="Node000022" class="node">
<title>Node22</title>
<g id="a_Node000022"><a xlink:href="prettyprint_8h.html" target="_top" xlink:title=" ">
<polygon fill="white" stroke="#666666" points="951.5,-129 832.5,-129 832.5,-110 951.5,-110 951.5,-129"/>
<text text-anchor="middle" x="892" y="-117" font-family="Helvetica,sans-Serif" font-size="10.00">src/utils/prettyprint.h</text>
</a>
</g>
</g>
<!-- Node1&#45;&gt;Node22 -->
<g id="edge28_Node000001_Node000022" class="edge">
<title>Node1&#45;&gt;Node22</title>
<g id="a_edge28_Node000001_Node000022"><a xlink:title=" ">
<path fill="none" stroke="#63b8ff" d="M957.08,-159.7C941.05,-150.04 920.13,-137.44 906.4,-129.17"/>
<polygon fill="#63b8ff" stroke="#63b8ff" points="955.49,-162.82 965.86,-164.98 959.1,-156.83 955.49,-162.82"/>
</a>
</g>
</g>
<!-- Node4 -->
<g id="Node000004" class="node">
<title>Node4</title>
<g id="a_Node000004"><a xlink:href="ast_8c.html" target="_top" xlink:title=" ">
<polygon fill="white" stroke="#666666" points="1201.5,-19 1126.5,-19 1126.5,0 1201.5,0 1201.5,-19"/>
<text text-anchor="middle" x="1164" y="-7" font-family="Helvetica,sans-Serif" font-size="10.00">src/ast/ast.c</text>
</a>
</g>
</g>
<!-- Node3&#45;&gt;Node4 -->
<g id="edge3_Node000003_Node000004" class="edge">
<title>Node3&#45;&gt;Node4</title>
<g id="a_edge3_Node000003_Node000004"><a xlink:title=" ">
<path fill="none" stroke="#63b8ff" d="M1056.68,-51.42C1082.47,-41.59 1118.24,-27.95 1141.26,-19.17"/>
<polygon fill="#63b8ff" stroke="#63b8ff" points="1055.43,-48.15 1047.33,-54.98 1057.92,-54.69 1055.43,-48.15"/>
</a>
</g>
</g>
<!-- Node5 -->
<g id="Node000005" class="node">
<title>Node5</title>
<g id="a_Node000005"><a xlink:href="ast__free_8c.html" target="_top" xlink:title=" ">
<polygon fill="white" stroke="#666666" points="1320,-19 1220,-19 1220,0 1320,0 1320,-19"/>
<text text-anchor="middle" x="1270" y="-7" font-family="Helvetica,sans-Serif" font-size="10.00">src/ast/ast_free.c</text>
</a>
</g>
</g>
<!-- Node3&#45;&gt;Node5 -->
<g id="edge4_Node000003_Node000005" class="edge">
<title>Node3&#45;&gt;Node5</title>
<g id="a_edge4_Node000003_Node000005"><a xlink:title=" ">
<path fill="none" stroke="#63b8ff" d="M1074.39,-52.82C1120.3,-42.88 1187.83,-28.28 1230.33,-19.08"/>
<polygon fill="#63b8ff" stroke="#63b8ff" points="1073.4,-49.45 1064.36,-54.98 1074.88,-56.29 1073.4,-49.45"/>
</a>
</g>
</g>
<!-- Node6 -->
<g id="Node000006" class="node">
<title>Node6</title>
<g id="a_Node000006"><a xlink:href="ast__init_8c.html" target="_top" xlink:title=" ">
<polygon fill="white" stroke="#666666" points="1434,-19 1338,-19 1338,0 1434,0 1434,-19"/>
<text text-anchor="middle" x="1386" y="-7" font-family="Helvetica,sans-Serif" font-size="10.00">src/ast/ast_init.c</text>
</a>
</g>
</g>
<!-- Node3&#45;&gt;Node6 -->
<g id="edge5_Node000003_Node000006" class="edge">
<title>Node3&#45;&gt;Node6</title>
<g id="a_edge5_Node000003_Node000006"><a xlink:title=" ">
<path fill="none" stroke="#63b8ff" d="M1084.76,-54.8C1146.07,-45.86 1244.2,-31.53 1329,-19 1331.87,-18.58 1334.82,-18.14 1337.8,-17.7"/>
<polygon fill="#63b8ff" stroke="#63b8ff" points="1083.89,-51.39 1074.5,-56.3 1084.9,-58.32 1083.89,-51.39"/>
</a>
</g>
</g>
<!-- Node7 -->
<g id="Node000007" class="node">
<title>Node7</title>
<g id="a_Node000007"><a xlink:href="ast__run_8c.html" target="_top" xlink:title=" ">
<polygon fill="white" stroke="#666666" points="1548,-19 1452,-19 1452,0 1548,0 1548,-19"/>
<text text-anchor="middle" x="1500" y="-7" font-family="Helvetica,sans-Serif" font-size="10.00">src/ast/ast_run.c</text>
</a>
</g>
</g>
<!-- Node3&#45;&gt;Node7 -->
<g id="edge6_Node000003_Node000007" class="edge">
<title>Node3&#45;&gt;Node7</title>
<g id="a_edge6_Node000003_Node000007"><a xlink:title=" ">
<path fill="none" stroke="#63b8ff" d="M1084.66,-57.94C1165.84,-50.2 1315.61,-35.27 1443,-19 1445.88,-18.63 1448.84,-18.24 1451.82,-17.83"/>
<polygon fill="#63b8ff" stroke="#63b8ff" points="1084.25,-54.47 1074.62,-58.9 1084.91,-61.44 1084.25,-54.47"/>
</a>
</g>
</g>
<!-- Node8 -->
<g id="Node000008" class="node">
<title>Node8</title>
<g id="a_Node000008"><a xlink:href="parser_8c.html" target="_top" xlink:title=" ">
<polygon fill="white" stroke="#666666" points="924,-19 818,-19 818,0 924,0 924,-19"/>
<text text-anchor="middle" x="871" y="-7" font-family="Helvetica,sans-Serif" font-size="10.00">src/parser/parser.c</text>
</a>
</g>
</g>
<!-- Node3&#45;&gt;Node8 -->
<g id="edge7_Node000003_Node000008" class="edge">
<title>Node3&#45;&gt;Node8</title>
<g id="a_edge7_Node000003_Node000008"><a xlink:title=" ">
<path fill="none" stroke="#63b8ff" d="M990.62,-51.67C961.91,-41.79 921.64,-27.93 895.94,-19.08"/>
<polygon fill="#63b8ff" stroke="#63b8ff" points="989.66,-55.04 1000.26,-54.98 991.94,-48.42 989.66,-55.04"/>
</a>
</g>
</g>
<!-- Node9 -->
<g id="Node000009" class="node">
<title>Node9</title>
<g id="a_Node000009"><a xlink:href="parser__commands_8c.html" target="_top" xlink:title=" ">
<polygon fill="white" stroke="#666666" points="1108,-19 942,-19 942,0 1108,0 1108,-19"/>
<text text-anchor="middle" x="1025" y="-7" font-family="Helvetica,sans-Serif" font-size="10.00">src/parser/parser_commands.c</text>
</a>
</g>
</g>
<!-- Node3&#45;&gt;Node9 -->
<g id="edge8_Node000003_Node000009" class="edge">
<title>Node3&#45;&gt;Node9</title>
<g id="a_edge8_Node000003_Node000009"><a xlink:title=" ">
<path fill="none" stroke="#63b8ff" d="M1025,-44.66C1025,-35.93 1025,-25.99 1025,-19.09"/>
<polygon fill="#63b8ff" stroke="#63b8ff" points="1021.5,-44.75 1025,-54.75 1028.5,-44.75 1021.5,-44.75"/>
</a>
</g>
</g>
<!-- Node10 -->
<g id="Node000010" class="node">
<title>Node10</title>
<g id="a_Node000010"><a xlink:href="parser__lists_8c.html" target="_top" xlink:title=" ">
<polygon fill="white" stroke="#666666" points="472,-19 340,-19 340,0 472,0 472,-19"/>
<text text-anchor="middle" x="406" y="-7" font-family="Helvetica,sans-Serif" font-size="10.00">src/parser/parser_lists.c</text>
</a>
</g>
</g>
<!-- Node3&#45;&gt;Node10 -->
<g id="edge9_Node000003_Node000010" class="edge">
<title>Node3&#45;&gt;Node10</title>
<g id="a_edge9_Node000003_Node000010"><a xlink:title=" ">
<path fill="none" stroke="#63b8ff" d="M965.39,-55.02C749.43,-31.8 692.95,-38.87 481,-19 478.13,-18.73 475.2,-18.45 472.24,-18.15"/>
<polygon fill="#63b8ff" stroke="#63b8ff" points="965.14,-58.51 975.46,-56.11 965.89,-51.55 965.14,-58.51"/>
</a>
</g>
</g>
<!-- Node11 -->
<g id="Node000011" class="node">
<title>Node11</title>
<g id="a_Node000011"><a xlink:href="parser__pipelines_8c.html" target="_top" xlink:title=" ">
<polygon fill="white" stroke="#666666" points="646,-19 490,-19 490,0 646,0 646,-19"/>
<text text-anchor="middle" x="568" y="-7" font-family="Helvetica,sans-Serif" font-size="10.00">src/parser/parser_pipelines.c</text>
</a>
</g>
</g>
<!-- Node3&#45;&gt;Node11 -->
<g id="edge10_Node000003_Node000011" class="edge">
<title>Node3&#45;&gt;Node11</title>
<g id="a_edge10_Node000003_Node000011"><a xlink:title=" ">
<path fill="none" stroke="#63b8ff" d="M965.2,-54.94C847.89,-40.04 724.3,-26.66 646.25,-18.51"/>
<polygon fill="#63b8ff" stroke="#63b8ff" points="965.08,-58.45 975.44,-56.24 965.96,-51.51 965.08,-58.45"/>
</a>
</g>
</g>
<!-- Node12 -->
<g id="Node000012" class="node">
<title>Node12</title>
<g id="a_Node000012"><a xlink:href="parser__rules_8c.html" target="_top" xlink:title=" ">
<polygon fill="white" stroke="#666666" points="800,-19 664,-19 664,0 800,0 800,-19"/>
<text text-anchor="middle" x="732" y="-7" font-family="Helvetica,sans-Serif" font-size="10.00">src/parser/parser_rules.c</text>
</a>
</g>
</g>
<!-- Node3&#45;&gt;Node12 -->
<g id="edge11_Node000003_Node000012" class="edge">
<title>Node3&#45;&gt;Node12</title>
<g id="a_edge11_Node000003_Node000012"><a xlink:title=" ">
<path fill="none" stroke="#63b8ff" d="M968,-53.19C913.06,-43.25 830.91,-28.39 779.44,-19.08"/>
<polygon fill="#63b8ff" stroke="#63b8ff" points="967.46,-56.65 977.92,-54.98 968.71,-49.76 967.46,-56.65"/>
</a>
</g>
</g>
<!-- Node13&#45;&gt;Node7 -->
<g id="edge13_Node000013_Node000007" class="edge">
<title>Node13&#45;&gt;Node7</title>
<g id="a_edge13_Node000013_Node000007"><a xlink:title=" ">
<path fill="none" stroke="#63b8ff" d="M1500,-44.66C1500,-35.93 1500,-25.99 1500,-19.09"/>
<polygon fill="#63b8ff" stroke="#63b8ff" points="1496.5,-44.75 1500,-54.75 1503.5,-44.75 1496.5,-44.75"/>
</a>
</g>
</g>
<!-- Node14 -->
<g id="Node000014" class="node">
<title>Node14</title>
<g id="a_Node000014"><a xlink:href="exec_8c.html" target="_top" xlink:title=" ">
<polygon fill="white" stroke="#666666" points="1656,-19 1566,-19 1566,0 1656,0 1656,-19"/>
<text text-anchor="middle" x="1611" y="-7" font-family="Helvetica,sans-Serif" font-size="10.00">src/exec/exec.c</text>
</a>
</g>
</g>
<!-- Node13&#45;&gt;Node14 -->
<g id="edge14_Node000013_Node000014" class="edge">
<title>Node13&#45;&gt;Node14</title>
<g id="a_edge14_Node000013_Node000014"><a xlink:title=" ">
<path fill="none" stroke="#63b8ff" d="M1526.95,-50.63C1547.39,-40.87 1574.95,-27.71 1592.84,-19.17"/>
<polygon fill="#63b8ff" stroke="#63b8ff" points="1525.35,-47.52 1517.83,-54.98 1528.37,-53.83 1525.35,-47.52"/>
</a>
</g>
</g>
<!-- Node17&#45;&gt;Node2 -->
<g id="edge18_Node000017_Node000002" class="edge">
<title>Node17&#45;&gt;Node2</title>
<g id="a_edge18_Node000017_Node000002"><a xlink:title=" ">
<path fill="none" stroke="#63b8ff" d="M718,-104.97C735.19,-95.28 757.81,-82.52 772.62,-74.17"/>
<polygon fill="#63b8ff" stroke="#63b8ff" points="716.09,-102.02 709.1,-109.98 719.53,-108.12 716.09,-102.02"/>
</a>
</g>
</g>
<!-- Node18 -->
<g id="Node000018" class="node">
<title>Node18</title>
<g id="a_Node000018"><a xlink:href="dot_8c.html" target="_top" xlink:title=" ">
<polygon fill="white" stroke="#666666" points="588,-74 496,-74 496,-55 588,-55 588,-74"/>
<text text-anchor="middle" x="542" y="-62" font-family="Helvetica,sans-Serif" font-size="10.00">src/builtin/dot.c</text>
</a>
</g>
</g>
<!-- Node17&#45;&gt;Node18 -->
<g id="edge19_Node000017_Node000018" class="edge">
<title>Node17&#45;&gt;Node18</title>
<g id="a_edge19_Node000017_Node000018"><a xlink:title=" ">
<path fill="none" stroke="#63b8ff" d="M660.07,-106.67C631.73,-96.79 591.98,-82.93 566.61,-74.08"/>
<polygon fill="#63b8ff" stroke="#63b8ff" points="658.98,-110 669.58,-109.98 661.29,-103.39 658.98,-110"/>
</a>
</g>
</g>
<!-- Node19 -->
<g id="Node000019" class="node">
<title>Node19</title>
<g id="a_Node000019"><a xlink:href="parser__aux_8h.html" target="_top" xlink:title=" ">
<polygon fill="white" stroke="#666666" points="737.5,-74 606.5,-74 606.5,-55 737.5,-55 737.5,-74"/>
<text text-anchor="middle" x="672" y="-62" font-family="Helvetica,sans-Serif" font-size="10.00">src/parser/parser_aux.h</text>
</a>
</g>
</g>
<!-- Node17&#45;&gt;Node19 -->
<g id="edge20_Node000017_Node000019" class="edge">
<title>Node17&#45;&gt;Node19</title>
<g id="a_edge20_Node000017_Node000019"><a xlink:title=" ">
<path fill="none" stroke="#63b8ff" d="M686.42,-100.24C682.74,-91.37 678.49,-81.14 675.57,-74.09"/>
<polygon fill="#63b8ff" stroke="#63b8ff" points="683.3,-101.85 690.37,-109.75 689.77,-99.17 683.3,-101.85"/>
</a>
</g>
</g>
<!-- Node19&#45;&gt;Node8 -->
<g id="edge21_Node000019_Node000008" class="edge">
<title>Node19&#45;&gt;Node8</title>
<g id="a_edge21_Node000019_Node000008"><a xlink:title=" ">
<path fill="none" stroke="#63b8ff" d="M714.01,-52.31C751.25,-42.39 804.84,-28.12 838.78,-19.08"/>
<polygon fill="#63b8ff" stroke="#63b8ff" points="712.74,-49.03 703.97,-54.98 714.54,-55.79 712.74,-49.03"/>
</a>
</g>
</g>
<!-- Node19&#45;&gt;Node9 -->
<g id="edge22_Node000019_Node000009" class="edge">
<title>Node19&#45;&gt;Node9</title>
<g id="a_edge22_Node000019_Node000009"><a xlink:title=" ">
<path fill="none" stroke="#63b8ff" d="M738.64,-53.49C804.92,-43.54 905.51,-28.44 968.13,-19.04"/>
<polygon fill="#63b8ff" stroke="#63b8ff" points="738.09,-50.04 728.72,-54.98 739.12,-56.96 738.09,-50.04"/>
</a>
</g>
</g>
<!-- Node19&#45;&gt;Node10 -->
<g id="edge23_Node000019_Node000010" class="edge">
<title>Node19&#45;&gt;Node10</title>
<g id="a_edge23_Node000019_Node000010"><a xlink:title=" ">
<path fill="none" stroke="#63b8ff" d="M619.32,-53C569.45,-43.07 495.51,-28.33 449.07,-19.08"/>
<polygon fill="#63b8ff" stroke="#63b8ff" points="618.77,-56.46 629.26,-54.98 620.14,-49.6 618.77,-56.46"/>
</a>
</g>
</g>
<!-- Node19&#45;&gt;Node11 -->
<g id="edge24_Node000019_Node000011" class="edge">
<title>Node19&#45;&gt;Node11</title>
<g id="a_edge24_Node000019_Node000011"><a xlink:title=" ">
<path fill="none" stroke="#63b8ff" d="M646.23,-50.37C627.13,-40.63 601.63,-27.64 585.01,-19.17"/>
<polygon fill="#63b8ff" stroke="#63b8ff" points="644.79,-53.56 655.29,-54.98 647.97,-47.33 644.79,-53.56"/>
</a>
</g>
</g>
<!-- Node19&#45;&gt;Node12 -->
<g id="edge26_Node000019_Node000012" class="edge">
<title>Node19&#45;&gt;Node12</title>
<g id="a_edge26_Node000019_Node000012"><a xlink:title=" ">
<path fill="none" stroke="#63b8ff" d="M689.18,-48.32C699.88,-38.87 713.26,-27.06 722.18,-19.17"/>
<polygon fill="#63b8ff" stroke="#63b8ff" points="686.82,-45.74 681.64,-54.98 691.45,-50.99 686.82,-45.74"/>
</a>
</g>
</g>
<!-- Node20 -->
<g id="Node000020" class="node">
<title>Node20</title>
<g id="a_Node000020"><a xlink:href="parser__redirections_8c.html" target="_top" xlink:title=" ">
<polygon fill="white" stroke="#666666" points="170,-19 0,-19 0,0 170,0 170,-19"/>
<text text-anchor="middle" x="85" y="-7" font-family="Helvetica,sans-Serif" font-size="10.00">src/parser/parser_redirections.c</text>
</a>
</g>
</g>
<!-- Node19&#45;&gt;Node20 -->
<g id="edge25_Node000019_Node000020" class="edge">
<title>Node19&#45;&gt;Node20</title>
<g id="a_edge25_Node000019_Node000020"><a xlink:title=" ">
<path fill="none" stroke="#63b8ff" d="M596.03,-54.93C409.77,-36.46 361.48,-35.11 179,-19 176.06,-18.74 173.07,-18.48 170.05,-18.21"/>
<polygon fill="#63b8ff" stroke="#63b8ff" points="595.86,-58.43 606.16,-55.94 596.56,-51.46 595.86,-58.43"/>
</a>
</g>
</g>
<!-- Node21 -->
<g id="Node000021" class="node">
<title>Node21</title>
<g id="a_Node000021"><a xlink:href="parser__utils_8c.html" target="_top" xlink:title=" ">
<polygon fill="white" stroke="#666666" points="321.5,-19 188.5,-19 188.5,0 321.5,0 321.5,-19"/>
<text text-anchor="middle" x="255" y="-7" font-family="Helvetica,sans-Serif" font-size="10.00">src/parser/parser_utils.c</text>
</a>
</g>
</g>
<!-- Node19&#45;&gt;Node21 -->
<g id="edge27_Node000019_Node000021" class="edge">
<title>Node19&#45;&gt;Node21</title>
<g id="a_edge27_Node000019_Node000021"><a xlink:title=" ">
<path fill="none" stroke="#63b8ff" d="M596.09,-53.85C517.65,-43.88 396.44,-28.48 321.61,-18.97"/>
<polygon fill="#63b8ff" stroke="#63b8ff" points="596.02,-57.37 606.39,-55.16 596.91,-50.43 596.02,-57.37"/>
</a>
</g>
</g>
<!-- Node22&#45;&gt;Node2 -->
<g id="edge29_Node000022_Node000002" class="edge">
<title>Node22&#45;&gt;Node2</title>
<g id="a_edge29_Node000022_Node000002"><a xlink:title=" ">
<path fill="none" stroke="#63b8ff" d="M866.23,-105.37C847.13,-95.63 821.63,-82.64 805.01,-74.17"/>
<polygon fill="#63b8ff" stroke="#63b8ff" points="864.79,-108.56 875.29,-109.98 867.97,-102.33 864.79,-108.56"/>
</a>
</g>
</g>
<!-- Node23 -->
<g id="Node000023" class="node">
<title>Node23</title>
<g id="a_Node000023"><a xlink:href="prettyprint_8c.html" target="_top" xlink:title=" ">
<polygon fill="white" stroke="#666666" points="957,-74 839,-74 839,-55 957,-55 957,-74"/>
<text text-anchor="middle" x="898" y="-62" font-family="Helvetica,sans-Serif" font-size="10.00">src/utils/prettyprint.c</text>
</a>
</g>
</g>
<!-- Node22&#45;&gt;Node23 -->
<g id="edge30_Node000022_Node000023" class="edge">
<title>Node22&#45;&gt;Node23</title>
<g id="a_edge30_Node000022_Node000023"><a xlink:title=" ">
<path fill="none" stroke="#63b8ff" d="M894.13,-99.66C895.12,-90.93 896.25,-80.99 897.03,-74.09"/>
<polygon fill="#63b8ff" stroke="#63b8ff" points="890.64,-99.42 892.99,-109.75 897.59,-100.21 890.64,-99.42"/>
</a>
</g>
</g>
</g>
</svg>
