<?xml version="1.0" encoding="UTF-8" standalone="no"?>
<!DOCTYPE svg PUBLIC "-//W3C//DTD SVG 1.1//EN"
 "http://www.w3.org/Graphics/SVG/1.1/DTD/svg11.dtd">
<!-- Generated by graphviz version 2.43.0 (0)
 -->
<!-- Title: ast_free_list Pages: 1 -->
<svg width="326pt" height="249pt"
 viewBox="0.00 0.00 326.00 249.00" xmlns="http://www.w3.org/2000/svg" xmlns:xlink="http://www.w3.org/1999/xlink">
<g id="graph0" class="graph" transform="scale(1 1) rotate(0) translate(4 245)">
<title>ast_free_list</title>
<!-- Node1 -->
<g id="Node000001" class="node">
<title>Node1</title>
<g id="a_Node000001"><a xlink:title=" ">
<polygon fill="#999999" stroke="#666666" points="77,-130 0,-130 0,-111 77,-111 77,-130"/>
<text text-anchor="middle" x="38.5" y="-118" font-family="Helvetica,sans-Serif" font-size="10.00">ast_free_list</text>
</a>
</g>
</g>
<!-- Node1&#45;&gt;Node1 -->
<g id="edge1_Node000001_Node000001" class="edge">
<title>Node1&#45;&gt;Node1</title>
<g id="a_edge1_Node000001_Node000001"><a xlink:title=" ">
<path fill="none" stroke="#63b8ff" d="M22.78,-130.08C15.13,-138.73 20.37,-148 38.5,-148 49.55,-148 55.81,-144.56 57.28,-139.91"/>
<polygon fill="#63b8ff" stroke="#63b8ff" points="60.54,-138.59 54.22,-130.08 53.85,-140.67 60.54,-138.59"/>
</a>
</g>
</g>
<!-- Node2 -->
<g id="Node000002" class="node">
<title>Node2</title>
<g id="a_Node000002"><a xlink:href="ast_8c.html#adbd51ee24d251e4506b1163864d7fd64" target="_top" xlink:title=" ">
<polygon fill="white" stroke="#666666" points="169,-130 113,-130 113,-111 169,-111 169,-130"/>
<text text-anchor="middle" x="141" y="-118" font-family="Helvetica,sans-Serif" font-size="10.00">free_ast</text>
</a>
</g>
</g>
<!-- Node1&#45;&gt;Node2 -->
<g id="edge2_Node000001_Node000002" class="edge">
<title>Node1&#45;&gt;Node2</title>
<g id="a_edge2_Node000001_Node000002"><a xlink:title=" ">
<path fill="none" stroke="#63b8ff" d="M77.21,-113.94C85.51,-113.68 94.3,-113.69 102.59,-113.95"/>
<polygon fill="#63b8ff" stroke="#63b8ff" points="102.6,-117.45 112.75,-114.42 102.92,-110.46 102.6,-117.45"/>
</a>
</g>
</g>
<!-- Node2&#45;&gt;Node1 -->
<g id="edge10_Node000002_Node000001" class="edge">
<title>Node2&#45;&gt;Node1</title>
<g id="a_edge10_Node000002_Node000001"><a xlink:title=" ">
<path fill="none" stroke="#63b8ff" d="M112.75,-126.58C104.89,-127.07 96.07,-127.29 87.34,-127.24"/>
<polygon fill="#63b8ff" stroke="#63b8ff" points="87.27,-123.74 77.21,-127.06 87.14,-130.74 87.27,-123.74"/>
</a>
</g>
</g>
<!-- Node3 -->
<g id="Node000003" class="node">
<title>Node3</title>
<g id="a_Node000003"><a xlink:href="ast__free_8c.html#a80edc240f8b3b576efc19e8465449822" target="_top" xlink:title=" ">
<polygon fill="white" stroke="#666666" points="309,-241 214,-241 214,-222 309,-222 309,-241"/>
<text text-anchor="middle" x="261.5" y="-229" font-family="Helvetica,sans-Serif" font-size="10.00">ast_free_and_or</text>
</a>
</g>
</g>
<!-- Node2&#45;&gt;Node3 -->
<g id="edge3_Node000002_Node000003" class="edge">
<title>Node2&#45;&gt;Node3</title>
<g id="a_edge3_Node000002_Node000003"><a xlink:title=" ">
<path fill="none" stroke="#63b8ff" d="M148.74,-130.26C158.3,-148.07 177.72,-184 205,-204.5 213.87,-211.16 225.3,-215.42 235.49,-218.81"/>
<polygon fill="#63b8ff" stroke="#63b8ff" points="234.52,-222.18 245.11,-221.98 236.71,-215.53 234.52,-222.18"/>
</a>
</g>
</g>
<!-- Node4 -->
<g id="Node000004" class="node">
<title>Node4</title>
<g id="a_Node000004"><a xlink:href="ast__free_8c.html#a9330029530c792a2570859c41fea1f87" target="_top" xlink:title=" ">
<polygon fill="white" stroke="#666666" points="303,-204 220,-204 220,-185 303,-185 303,-204"/>
<text text-anchor="middle" x="261.5" y="-192" font-family="Helvetica,sans-Serif" font-size="10.00">ast_free_cmd</text>
</a>
</g>
</g>
<!-- Node2&#45;&gt;Node4 -->
<g id="edge5_Node000002_Node000004" class="edge">
<title>Node2&#45;&gt;Node4</title>
<g id="a_edge5_Node000002_Node000004"><a xlink:title=" ">
<path fill="none" stroke="#63b8ff" d="M150.45,-130.16C161.74,-142.52 182.9,-163.85 205,-176.5 207.99,-178.21 211.17,-179.79 214.43,-181.23"/>
<polygon fill="#63b8ff" stroke="#63b8ff" points="213.17,-184.5 223.75,-184.96 215.77,-178 213.17,-184.5"/>
</a>
</g>
</g>
<!-- Node5 -->
<g id="Node000005" class="node">
<title>Node5</title>
<g id="a_Node000005"><a xlink:href="ast__free_8c.html#a2093aa16119809b1788e3544ccacb07a" target="_top" xlink:title=" ">
<polygon fill="white" stroke="#666666" points="299,-167 224,-167 224,-148 299,-148 299,-167"/>
<text text-anchor="middle" x="261.5" y="-155" font-family="Helvetica,sans-Serif" font-size="10.00">ast_free_for</text>
</a>
</g>
</g>
<!-- Node2&#45;&gt;Node5 -->
<g id="edge6_Node000002_Node000005" class="edge">
<title>Node2&#45;&gt;Node5</title>
<g id="a_edge6_Node000002_Node000005"><a xlink:title=" ">
<path fill="none" stroke="#63b8ff" d="M169.19,-123.21C189.2,-128.11 216.21,-136.6 235.65,-144.13"/>
<polygon fill="#63b8ff" stroke="#63b8ff" points="234.47,-147.42 245.05,-147.95 237.11,-140.94 234.47,-147.42"/>
</a>
</g>
</g>
<!-- Node6 -->
<g id="Node000006" class="node">
<title>Node6</title>
<g id="a_Node000006"><a xlink:href="ast__free_8c.html#abfce6009bf2f91da322878514d9209c0" target="_top" xlink:title=" ">
<polygon fill="white" stroke="#666666" points="295.5,-130 227.5,-130 227.5,-111 295.5,-111 295.5,-130"/>
<text text-anchor="middle" x="261.5" y="-118" font-family="Helvetica,sans-Serif" font-size="10.00">ast_free_if</text>
</a>
</g>
</g>
<!-- Node2&#45;&gt;Node6 -->
<g id="edge8_Node000002_Node000006" class="edge">
<title>Node2&#45;&gt;Node6</title>
<g id="a_edge8_Node000002_Node000006"><a xlink:title=" ">
<path fill="none" stroke="#63b8ff" d="M169.19,-114.72C183.31,-113.77 200.92,-113.52 216.89,-113.96"/>
<polygon fill="#63b8ff" stroke="#63b8ff" points="216.97,-117.47 227.09,-114.36 217.24,-110.47 216.97,-117.47"/>
</a>
</g>
</g>
<!-- Node7 -->
<g id="Node000007" class="node">
<title>Node7</title>
<g id="a_Node000007"><a xlink:href="ast__free_8c.html#a09f3dd857c6d405a4e1b2e3109a1d3df" target="_top" xlink:title=" ">
<polygon fill="white" stroke="#666666" points="303,-93 220,-93 220,-74 303,-74 303,-93"/>
<text text-anchor="middle" x="261.5" y="-81" font-family="Helvetica,sans-Serif" font-size="10.00">ast_free_loop</text>
</a>
</g>
</g>
<!-- Node2&#45;&gt;Node7 -->
<g id="edge11_Node000002_Node000007" class="edge">
<title>Node2&#45;&gt;Node7</title>
<g id="a_edge11_Node000002_Node000007"><a xlink:title=" ">
<path fill="none" stroke="#63b8ff" d="M157.49,-110.93C170.9,-105.16 191.07,-98.21 210.01,-92.58"/>
<polygon fill="#63b8ff" stroke="#63b8ff" points="211.12,-95.9 219.76,-89.77 209.18,-89.18 211.12,-95.9"/>
</a>
</g>
</g>
<!-- Node8 -->
<g id="Node000008" class="node">
<title>Node8</title>
<g id="a_Node000008"><a xlink:href="ast__free_8c.html#a50c5d556b19bcd99345d42797422afbc" target="_top" xlink:title=" ">
<polygon fill="white" stroke="#666666" points="303,-56 220,-56 220,-37 303,-37 303,-56"/>
<text text-anchor="middle" x="261.5" y="-44" font-family="Helvetica,sans-Serif" font-size="10.00">ast_free_pipe</text>
</a>
</g>
</g>
<!-- Node2&#45;&gt;Node8 -->
<g id="edge13_Node000002_Node000008" class="edge">
<title>Node2&#45;&gt;Node8</title>
<g id="a_edge13_Node000002_Node000008"><a xlink:title=" ">
<path fill="none" stroke="#63b8ff" d="M146.4,-110.69C156.03,-95.92 180.11,-70.88 205,-56.5 206.75,-55.49 208.57,-54.52 210.43,-53.59"/>
<polygon fill="#63b8ff" stroke="#63b8ff" points="212.23,-56.62 219.97,-49.38 209.41,-50.22 212.23,-56.62"/>
</a>
</g>
</g>
<!-- Node9 -->
<g id="Node000009" class="node">
<title>Node9</title>
<g id="a_Node000009"><a xlink:href="ast__free_8c.html#a6e033482de30aca56f1b66190b9a481c" target="_top" xlink:title=" ">
<polygon fill="white" stroke="#666666" points="318,-19 205,-19 205,0 318,0 318,-19"/>
<text text-anchor="middle" x="261.5" y="-7" font-family="Helvetica,sans-Serif" font-size="10.00">ast_free_shell_redir</text>
</a>
</g>
</g>
<!-- Node2&#45;&gt;Node9 -->
<g id="edge15_Node000002_Node000009" class="edge">
<title>Node2&#45;&gt;Node9</title>
<g id="a_edge15_Node000002_Node000009"><a xlink:title=" ">
<path fill="none" stroke="#63b8ff" d="M144.33,-110.71C150.62,-91.53 169.35,-51.34 197.67,-25.65"/>
<polygon fill="#63b8ff" stroke="#63b8ff" points="200.05,-28.22 205.49,-19.13 195.57,-22.84 200.05,-28.22"/>
</a>
</g>
</g>
<!-- Node3&#45;&gt;Node2 -->
<g id="edge4_Node000003_Node000002" class="edge">
<title>Node3&#45;&gt;Node2</title>
<g id="a_edge4_Node000003_Node000002"><a xlink:title=" ">
<path fill="none" stroke="#63b8ff" d="M213.89,-228.02C210.75,-226.41 207.75,-224.57 205,-222.5 176.61,-201.16 156.73,-163.12 147.62,-139.7"/>
<polygon fill="#63b8ff" stroke="#63b8ff" points="150.85,-138.33 144.2,-130.08 144.25,-140.67 150.85,-138.33"/>
</a>
</g>
</g>
<!-- Node5&#45;&gt;Node2 -->
<g id="edge7_Node000005_Node000002" class="edge">
<title>Node5&#45;&gt;Node2</title>
<g id="a_edge7_Node000005_Node000002"><a xlink:title=" ">
<path fill="none" stroke="#63b8ff" d="M223.82,-152.34C205.37,-147.36 183.48,-140.3 166.98,-133.93"/>
<polygon fill="#63b8ff" stroke="#63b8ff" points="168.07,-130.59 157.49,-130.07 165.44,-137.08 168.07,-130.59"/>
</a>
</g>
</g>
<!-- Node6&#45;&gt;Node2 -->
<g id="edge9_Node000006_Node000002" class="edge">
<title>Node6&#45;&gt;Node2</title>
<g id="a_edge9_Node000006_Node000002"><a xlink:title=" ">
<path fill="none" stroke="#63b8ff" d="M227.09,-126.64C212.23,-127.39 194.66,-127.45 179.36,-126.82"/>
<polygon fill="#63b8ff" stroke="#63b8ff" points="179.36,-123.32 169.19,-126.28 178.99,-130.31 179.36,-123.32"/>
</a>
</g>
</g>
<!-- Node7&#45;&gt;Node2 -->
<g id="edge12_Node000007_Node000002" class="edge">
<title>Node7&#45;&gt;Node2</title>
<g id="a_edge12_Node000007_Node000002"><a xlink:title=" ">
<path fill="none" stroke="#63b8ff" d="M245.05,-93.05C228.38,-100.23 201.25,-109.23 179.01,-115.25"/>
<polygon fill="#63b8ff" stroke="#63b8ff" points="177.99,-111.9 169.19,-117.79 179.74,-118.68 177.99,-111.9"/>
</a>
</g>
</g>
<!-- Node8&#45;&gt;Node2 -->
<g id="edge14_Node000008_Node000002" class="edge">
<title>Node8&#45;&gt;Node2</title>
<g id="a_edge14_Node000008_Node000002"><a xlink:title=" ">
<path fill="none" stroke="#63b8ff" d="M248.45,-56.07C236.81,-61.1 218.93,-66.45 205,-74.5 190.73,-82.74 176.74,-94.48 165.58,-104.21"/>
<polygon fill="#63b8ff" stroke="#63b8ff" points="163.2,-101.65 157.99,-110.87 167.81,-106.91 163.2,-101.65"/>
</a>
</g>
</g>
<!-- Node9&#45;&gt;Node2 -->
<g id="edge16_Node000009_Node000002" class="edge">
<title>Node9&#45;&gt;Node2</title>
<g id="a_edge16_Node000009_Node000002"><a xlink:title=" ">
<path fill="none" stroke="#63b8ff" d="M246.09,-19.01C234.12,-23.32 217.16,-28.25 205,-37.5 182.04,-54.96 164.46,-83.27 153.78,-102.1"/>
<polygon fill="#63b8ff" stroke="#63b8ff" points="150.64,-100.54 148.83,-110.98 156.76,-103.95 150.64,-100.54"/>
</a>
</g>
</g>
</g>
</svg>
