<?xml version="1.0" encoding="UTF-8" standalone="no"?>
<!DOCTYPE svg PUBLIC "-//W3C//DTD SVG 1.1//EN"
 "http://www.w3.org/Graphics/SVG/1.1/DTD/svg11.dtd">
<!-- Generated by graphviz version 2.43.0 (0)
 -->
<!-- Title: ast_free_loop Pages: 1 -->
<svg width="332pt" height="267pt"
 viewBox="0.00 0.00 332.00 267.00" xmlns="http://www.w3.org/2000/svg" xmlns:xlink="http://www.w3.org/1999/xlink">
<g id="graph0" class="graph" transform="scale(1 1) rotate(0) translate(4 263)">
<title>ast_free_loop</title>
<!-- Node1 -->
<g id="Node000001" class="node">
<title>Node1</title>
<g id="a_Node000001"><a xlink:title=" ">
<polygon fill="#999999" stroke="#666666" points="83,-148 0,-148 0,-129 83,-129 83,-148"/>
<text text-anchor="middle" x="41.5" y="-136" font-family="Helvetica,sans-Serif" font-size="10.00">ast_free_loop</text>
</a>
</g>
</g>
<!-- Node2 -->
<g id="Node000002" class="node">
<title>Node2</title>
<g id="a_Node000002"><a xlink:href="ast_8c.html#adbd51ee24d251e4506b1163864d7fd64" target="_top" xlink:title=" ">
<polygon fill="white" stroke="#666666" points="175,-148 119,-148 119,-129 175,-129 175,-148"/>
<text text-anchor="middle" x="147" y="-136" font-family="Helvetica,sans-Serif" font-size="10.00">free_ast</text>
</a>
</g>
</g>
<!-- Node1&#45;&gt;Node2 -->
<g id="edge1_Node000001_Node000002" class="edge">
<title>Node1&#45;&gt;Node2</title>
<g id="a_edge1_Node000001_Node000002"><a xlink:title=" ">
<path fill="none" stroke="#63b8ff" d="M83.11,-131.89C91.55,-131.67 100.41,-131.71 108.72,-131.99"/>
<polygon fill="#63b8ff" stroke="#63b8ff" points="108.74,-135.49 118.89,-132.48 109.07,-128.5 108.74,-135.49"/>
</a>
</g>
</g>
<!-- Node2&#45;&gt;Node1 -->
<g id="edge12_Node000002_Node000001" class="edge">
<title>Node2&#45;&gt;Node1</title>
<g id="a_edge12_Node000002_Node000001"><a xlink:title=" ">
<path fill="none" stroke="#63b8ff" d="M118.89,-144.52C111.04,-145.02 102.19,-145.27 93.38,-145.25"/>
<polygon fill="#63b8ff" stroke="#63b8ff" points="93.16,-141.75 83.11,-145.11 93.06,-148.75 93.16,-141.75"/>
</a>
</g>
</g>
<!-- Node3 -->
<g id="Node000003" class="node">
<title>Node3</title>
<g id="a_Node000003"><a xlink:href="ast__free_8c.html#a80edc240f8b3b576efc19e8465449822" target="_top" xlink:title=" ">
<polygon fill="white" stroke="#666666" points="315,-259 220,-259 220,-240 315,-240 315,-259"/>
<text text-anchor="middle" x="267.5" y="-247" font-family="Helvetica,sans-Serif" font-size="10.00">ast_free_and_or</text>
</a>
</g>
</g>
<!-- Node2&#45;&gt;Node3 -->
<g id="edge2_Node000002_Node000003" class="edge">
<title>Node2&#45;&gt;Node3</title>
<g id="a_edge2_Node000002_Node000003"><a xlink:title=" ">
<path fill="none" stroke="#63b8ff" d="M154.74,-148.26C164.3,-166.07 183.72,-202 211,-222.5 219.87,-229.16 231.3,-233.42 241.49,-236.81"/>
<polygon fill="#63b8ff" stroke="#63b8ff" points="240.52,-240.18 251.11,-239.98 242.71,-233.53 240.52,-240.18"/>
</a>
</g>
</g>
<!-- Node4 -->
<g id="Node000004" class="node">
<title>Node4</title>
<g id="a_Node000004"><a xlink:href="ast__free_8c.html#a9330029530c792a2570859c41fea1f87" target="_top" xlink:title=" ">
<polygon fill="white" stroke="#666666" points="309,-222 226,-222 226,-203 309,-203 309,-222"/>
<text text-anchor="middle" x="267.5" y="-210" font-family="Helvetica,sans-Serif" font-size="10.00">ast_free_cmd</text>
</a>
</g>
</g>
<!-- Node2&#45;&gt;Node4 -->
<g id="edge4_Node000002_Node000004" class="edge">
<title>Node2&#45;&gt;Node4</title>
<g id="a_edge4_Node000002_Node000004"><a xlink:title=" ">
<path fill="none" stroke="#63b8ff" d="M156.45,-148.16C167.74,-160.52 188.9,-181.85 211,-194.5 213.99,-196.21 217.17,-197.79 220.43,-199.23"/>
<polygon fill="#63b8ff" stroke="#63b8ff" points="219.17,-202.5 229.75,-202.96 221.77,-196 219.17,-202.5"/>
</a>
</g>
</g>
<!-- Node5 -->
<g id="Node000005" class="node">
<title>Node5</title>
<g id="a_Node000005"><a xlink:href="ast__free_8c.html#a2093aa16119809b1788e3544ccacb07a" target="_top" xlink:title=" ">
<polygon fill="white" stroke="#666666" points="305,-185 230,-185 230,-166 305,-166 305,-185"/>
<text text-anchor="middle" x="267.5" y="-173" font-family="Helvetica,sans-Serif" font-size="10.00">ast_free_for</text>
</a>
</g>
</g>
<!-- Node2&#45;&gt;Node5 -->
<g id="edge5_Node000002_Node000005" class="edge">
<title>Node2&#45;&gt;Node5</title>
<g id="a_edge5_Node000002_Node000005"><a xlink:title=" ">
<path fill="none" stroke="#63b8ff" d="M175.19,-141.21C195.2,-146.11 222.21,-154.6 241.65,-162.13"/>
<polygon fill="#63b8ff" stroke="#63b8ff" points="240.47,-165.42 251.05,-165.95 243.11,-158.94 240.47,-165.42"/>
</a>
</g>
</g>
<!-- Node6 -->
<g id="Node000006" class="node">
<title>Node6</title>
<g id="a_Node000006"><a xlink:href="ast__free_8c.html#abfce6009bf2f91da322878514d9209c0" target="_top" xlink:title=" ">
<polygon fill="white" stroke="#666666" points="301.5,-148 233.5,-148 233.5,-129 301.5,-129 301.5,-148"/>
<text text-anchor="middle" x="267.5" y="-136" font-family="Helvetica,sans-Serif" font-size="10.00">ast_free_if</text>
</a>
</g>
</g>
<!-- Node2&#45;&gt;Node6 -->
<g id="edge7_Node000002_Node000006" class="edge">
<title>Node2&#45;&gt;Node6</title>
<g id="a_edge7_Node000002_Node000006"><a xlink:title=" ">
<path fill="none" stroke="#63b8ff" d="M175.19,-132.72C189.31,-131.77 206.92,-131.52 222.89,-131.96"/>
<polygon fill="#63b8ff" stroke="#63b8ff" points="222.97,-135.47 233.09,-132.36 223.24,-128.47 222.97,-135.47"/>
</a>
</g>
</g>
<!-- Node7 -->
<g id="Node000007" class="node">
<title>Node7</title>
<g id="a_Node000007"><a xlink:href="ast__free_8c.html#a654d27b37151693d221d215450efe6bb" target="_top" xlink:title=" ">
<polygon fill="white" stroke="#666666" points="306,-93 229,-93 229,-74 306,-74 306,-93"/>
<text text-anchor="middle" x="267.5" y="-81" font-family="Helvetica,sans-Serif" font-size="10.00">ast_free_list</text>
</a>
</g>
</g>
<!-- Node2&#45;&gt;Node7 -->
<g id="edge9_Node000002_Node000007" class="edge">
<title>Node2&#45;&gt;Node7</title>
<g id="a_edge9_Node000002_Node000007"><a xlink:title=" ">
<path fill="none" stroke="#63b8ff" d="M159.8,-128.78C174.5,-119.79 200.45,-106.99 223.07,-97.12"/>
<polygon fill="#63b8ff" stroke="#63b8ff" points="224.7,-100.24 232.53,-93.1 221.95,-93.8 224.7,-100.24"/>
</a>
</g>
</g>
<!-- Node8 -->
<g id="Node000008" class="node">
<title>Node8</title>
<g id="a_Node000008"><a xlink:href="ast__free_8c.html#a50c5d556b19bcd99345d42797422afbc" target="_top" xlink:title=" ">
<polygon fill="white" stroke="#666666" points="309,-56 226,-56 226,-37 309,-37 309,-56"/>
<text text-anchor="middle" x="267.5" y="-44" font-family="Helvetica,sans-Serif" font-size="10.00">ast_free_pipe</text>
</a>
</g>
</g>
<!-- Node2&#45;&gt;Node8 -->
<g id="edge13_Node000002_Node000008" class="edge">
<title>Node2&#45;&gt;Node8</title>
<g id="a_edge13_Node000002_Node000008"><a xlink:title=" ">
<path fill="none" stroke="#63b8ff" d="M151.12,-128.87C159.27,-110.97 182.57,-75.72 211,-56.5 212.85,-55.25 214.79,-54.07 216.8,-52.97"/>
<polygon fill="#63b8ff" stroke="#63b8ff" points="218.35,-56.11 225.88,-48.65 215.34,-49.79 218.35,-56.11"/>
</a>
</g>
</g>
<!-- Node9 -->
<g id="Node000009" class="node">
<title>Node9</title>
<g id="a_Node000009"><a xlink:href="ast__free_8c.html#a6e033482de30aca56f1b66190b9a481c" target="_top" xlink:title=" ">
<polygon fill="white" stroke="#666666" points="324,-19 211,-19 211,0 324,0 324,-19"/>
<text text-anchor="middle" x="267.5" y="-7" font-family="Helvetica,sans-Serif" font-size="10.00">ast_free_shell_redir</text>
</a>
</g>
</g>
<!-- Node2&#45;&gt;Node9 -->
<g id="edge15_Node000002_Node000009" class="edge">
<title>Node2&#45;&gt;Node9</title>
<g id="a_edge15_Node000002_Node000009"><a xlink:title=" ">
<path fill="none" stroke="#63b8ff" d="M149.68,-128.94C154.85,-107.31 172.17,-57.11 204,-25.86"/>
<polygon fill="#63b8ff" stroke="#63b8ff" points="206.39,-28.41 211.47,-19.11 201.71,-23.21 206.39,-28.41"/>
</a>
</g>
</g>
<!-- Node3&#45;&gt;Node2 -->
<g id="edge3_Node000003_Node000002" class="edge">
<title>Node3&#45;&gt;Node2</title>
<g id="a_edge3_Node000003_Node000002"><a xlink:title=" ">
<path fill="none" stroke="#63b8ff" d="M219.89,-246.02C216.75,-244.41 213.75,-242.57 211,-240.5 182.61,-219.16 162.73,-181.12 153.62,-157.7"/>
<polygon fill="#63b8ff" stroke="#63b8ff" points="156.85,-156.33 150.2,-148.08 150.25,-158.67 156.85,-156.33"/>
</a>
</g>
</g>
<!-- Node5&#45;&gt;Node2 -->
<g id="edge6_Node000005_Node000002" class="edge">
<title>Node5&#45;&gt;Node2</title>
<g id="a_edge6_Node000005_Node000002"><a xlink:title=" ">
<path fill="none" stroke="#63b8ff" d="M229.82,-170.34C211.37,-165.36 189.48,-158.3 172.98,-151.93"/>
<polygon fill="#63b8ff" stroke="#63b8ff" points="174.07,-148.59 163.49,-148.07 171.44,-155.08 174.07,-148.59"/>
</a>
</g>
</g>
<!-- Node6&#45;&gt;Node2 -->
<g id="edge8_Node000006_Node000002" class="edge">
<title>Node6&#45;&gt;Node2</title>
<g id="a_edge8_Node000006_Node000002"><a xlink:title=" ">
<path fill="none" stroke="#63b8ff" d="M233.09,-144.64C218.23,-145.39 200.66,-145.45 185.36,-144.82"/>
<polygon fill="#63b8ff" stroke="#63b8ff" points="185.36,-141.32 175.19,-144.28 184.99,-148.31 185.36,-141.32"/>
</a>
</g>
</g>
<!-- Node7&#45;&gt;Node2 -->
<g id="edge11_Node000007_Node000002" class="edge">
<title>Node7&#45;&gt;Node2</title>
<g id="a_edge11_Node000007_Node000002"><a xlink:title=" ">
<path fill="none" stroke="#63b8ff" d="M254.86,-93.12C238.73,-103.01 208.83,-117.58 184.76,-127.74"/>
<polygon fill="#63b8ff" stroke="#63b8ff" points="183.11,-124.63 175.19,-131.66 185.77,-131.11 183.11,-124.63"/>
</a>
</g>
</g>
<!-- Node7&#45;&gt;Node7 -->
<g id="edge10_Node000007_Node000007" class="edge">
<title>Node7&#45;&gt;Node7</title>
<g id="a_edge10_Node000007_Node000007"><a xlink:title=" ">
<path fill="none" stroke="#63b8ff" d="M249,-93.08C240.01,-101.73 246.17,-111 267.5,-111 280.83,-111 288.24,-107.38 289.72,-102.55"/>
<polygon fill="#63b8ff" stroke="#63b8ff" points="292.91,-101.11 286,-93.08 286.4,-103.67 292.91,-101.11"/>
</a>
</g>
</g>
<!-- Node8&#45;&gt;Node2 -->
<g id="edge14_Node000008_Node000002" class="edge">
<title>Node8&#45;&gt;Node2</title>
<g id="a_edge14_Node000008_Node000002"><a xlink:title=" ">
<path fill="none" stroke="#63b8ff" d="M253.28,-56C241.44,-60.63 223.99,-65.72 211,-74.5 192.51,-87 176.19,-106.28 164.8,-120.62"/>
<polygon fill="#63b8ff" stroke="#63b8ff" points="161.79,-118.77 158.36,-128.8 167.29,-123.1 161.79,-118.77"/>
</a>
</g>
</g>
<!-- Node9&#45;&gt;Node2 -->
<g id="edge16_Node000009_Node000002" class="edge">
<title>Node9&#45;&gt;Node2</title>
<g id="a_edge16_Node000009_Node000002"><a xlink:title=" ">
<path fill="none" stroke="#63b8ff" d="M250.92,-19.1C238.9,-23.18 222.47,-28.03 211,-37.5 184.07,-59.74 166.32,-96.68 156.71,-119.4"/>
<polygon fill="#63b8ff" stroke="#63b8ff" points="153.44,-118.16 152.87,-128.74 159.91,-120.82 153.44,-118.16"/>
</a>
</g>
</g>
</g>
</svg>
