<?xml version="1.0" encoding="UTF-8" standalone="no"?>
<!DOCTYPE svg PUBLIC "-//W3C//DTD SVG 1.1//EN"
 "http://www.w3.org/Graphics/SVG/1.1/DTD/svg11.dtd">
<!-- Generated by graphviz version 2.43.0 (0)
 -->
<!-- Title: run_ast Pages: 1 -->
<svg width="734pt" height="477pt"
 viewBox="0.00 0.00 734.00 476.91" xmlns="http://www.w3.org/2000/svg" xmlns:xlink="http://www.w3.org/1999/xlink">
<g id="graph0" class="graph" transform="scale(1 1) rotate(0) translate(4 472.91)">
<title>run_ast</title>
<!-- Node1 -->
<g id="Node000001" class="node">
<title>Node1</title>
<g id="a_Node000001"><a xlink:title=" ">
<polygon fill="#999999" stroke="#666666" points="726,-302.91 673,-302.91 673,-283.91 726,-283.91 726,-302.91"/>
<text text-anchor="middle" x="699.5" y="-290.91" font-family="Helvetica,sans-Serif" font-size="10.00">run_ast</text>
</a>
</g>
</g>
<!-- Node2 -->
<g id="Node000002" class="node">
<title>Node2</title>
<g id="a_Node000002"><a xlink:href="ast__run_8c.html#a8a01fec616135007fc5b3968a101901b" target="_top" xlink:title=" ">
<polygon fill="white" stroke="#666666" points="628,-468.91 537,-468.91 537,-449.91 628,-449.91 628,-468.91"/>
<text text-anchor="middle" x="582.5" y="-456.91" font-family="Helvetica,sans-Serif" font-size="10.00">ast_run_and_or</text>
</a>
</g>
</g>
<!-- Node1&#45;&gt;Node2 -->
<g id="edge1_Node000001_Node000002" class="edge">
<title>Node1&#45;&gt;Node2</title>
<g id="a_edge1_Node000001_Node000002"><a xlink:title=" ">
<path fill="none" stroke="#63b8ff" d="M694.39,-313.47C687.89,-343.59 672.18,-399.59 637,-432.41 626.97,-441.77 611.91,-446.28 600.32,-449.91"/>
<polygon fill="#63b8ff" stroke="#63b8ff" points="697.89,-313.79 696.45,-303.29 691.03,-312.4 697.89,-313.79"/>
</a>
</g>
</g>
<!-- Node3 -->
<g id="Node000003" class="node">
<title>Node3</title>
<g id="a_Node000003"><a xlink:href="ast__run_8c.html#a9d83d4834a61ffe21eb77838d70ae173" target="_top" xlink:title=" ">
<polygon fill="white" stroke="#666666" points="618,-431.91 547,-431.91 547,-412.91 618,-412.91 618,-431.91"/>
<text text-anchor="middle" x="582.5" y="-419.91" font-family="Helvetica,sans-Serif" font-size="10.00">ast_run_for</text>
</a>
</g>
</g>
<!-- Node1&#45;&gt;Node3 -->
<g id="edge3_Node000001_Node000003" class="edge">
<title>Node1&#45;&gt;Node3</title>
<g id="a_edge3_Node000001_Node000003"><a xlink:title=" ">
<path fill="none" stroke="#63b8ff" d="M690.39,-312.4C681.24,-335.33 664.01,-372.91 637,-395.41 626.16,-404.45 610.59,-409.01 599.04,-412.88"/>
<polygon fill="#63b8ff" stroke="#63b8ff" points="693.68,-313.59 694.03,-303 687.16,-311.06 693.68,-313.59"/>
</a>
</g>
</g>
<!-- Node4 -->
<g id="Node000004" class="node">
<title>Node4</title>
<g id="a_Node000004"><a xlink:href="ast__run_8c.html#a0a7138b1f2608ea36211c9b78988c248" target="_top" xlink:title=" ">
<polygon fill="white" stroke="#666666" points="615,-394.91 550,-394.91 550,-375.91 615,-375.91 615,-394.91"/>
<text text-anchor="middle" x="582.5" y="-382.91" font-family="Helvetica,sans-Serif" font-size="10.00">ast_run_if</text>
</a>
</g>
</g>
<!-- Node1&#45;&gt;Node4 -->
<g id="edge5_Node000001_Node000004" class="edge">
<title>Node1&#45;&gt;Node4</title>
<g id="a_edge5_Node000001_Node000004"><a xlink:title=" ">
<path fill="none" stroke="#63b8ff" d="M682.53,-311.43C671.48,-326.03 655.48,-345.74 637,-358.41 624.88,-366.72 608.59,-371.48 597.19,-375.8"/>
<polygon fill="#63b8ff" stroke="#63b8ff" points="685.56,-313.21 688.74,-303.11 679.95,-309.03 685.56,-313.21"/>
</a>
</g>
</g>
<!-- Node5 -->
<g id="Node000005" class="node">
<title>Node5</title>
<g id="a_Node000005"><a xlink:href="ast__run_8c.html#ae25cd3ced8abafd76110dba8852a6b87" target="_top" xlink:title=" ">
<polygon fill="white" stroke="#666666" points="619,-339.91 546,-339.91 546,-320.91 619,-320.91 619,-339.91"/>
<text text-anchor="middle" x="582.5" y="-327.91" font-family="Helvetica,sans-Serif" font-size="10.00">ast_run_list</text>
</a>
</g>
</g>
<!-- Node1&#45;&gt;Node5 -->
<g id="edge7_Node000001_Node000005" class="edge">
<title>Node1&#45;&gt;Node5</title>
<g id="a_edge7_Node000001_Node000005"><a xlink:title=" ">
<path fill="none" stroke="#63b8ff" d="M663.09,-298.52C641.37,-304.55 614.69,-313.66 598.4,-320.9"/>
<polygon fill="#63b8ff" stroke="#63b8ff" points="664.21,-301.84 672.98,-295.9 662.42,-295.08 664.21,-301.84"/>
</a>
</g>
</g>
<!-- Node6 -->
<g id="Node000006" class="node">
<title>Node6</title>
<g id="a_Node000006"><a xlink:href="ast__run_8c.html#a536f37ba9bffcd2099fef668656181e0" target="_top" xlink:title=" ">
<polygon fill="white" stroke="#666666" points="622,-302.91 543,-302.91 543,-283.91 622,-283.91 622,-302.91"/>
<text text-anchor="middle" x="582.5" y="-290.91" font-family="Helvetica,sans-Serif" font-size="10.00">ast_run_loop</text>
</a>
</g>
</g>
<!-- Node1&#45;&gt;Node6 -->
<g id="edge10_Node000001_Node000006" class="edge">
<title>Node1&#45;&gt;Node6</title>
<g id="a_edge10_Node000001_Node000006"><a xlink:title=" ">
<path fill="none" stroke="#63b8ff" d="M662.63,-287.11C649.74,-286.55 635.17,-286.52 622.07,-287"/>
<polygon fill="#63b8ff" stroke="#63b8ff" points="662.8,-290.62 672.98,-287.69 663.19,-283.63 662.8,-290.62"/>
</a>
</g>
</g>
<!-- Node7 -->
<g id="Node000007" class="node">
<title>Node7</title>
<g id="a_Node000007"><a xlink:href="ast__run_8c.html#aa3e6a973e744d748ee415840596beb53" target="_top" xlink:title=" ">
<polygon fill="white" stroke="#666666" points="637,-265.91 528,-265.91 528,-246.91 637,-246.91 637,-265.91"/>
<text text-anchor="middle" x="582.5" y="-253.91" font-family="Helvetica,sans-Serif" font-size="10.00">ast_run_shell_redir</text>
</a>
</g>
</g>
<!-- Node1&#45;&gt;Node7 -->
<g id="edge12_Node000001_Node000007" class="edge">
<title>Node1&#45;&gt;Node7</title>
<g id="a_edge12_Node000001_Node000007"><a xlink:title=" ">
<path fill="none" stroke="#63b8ff" d="M673.99,-279.88C662.3,-275.23 647.86,-270.24 633.98,-265.95"/>
<polygon fill="#63b8ff" stroke="#63b8ff" points="672.89,-283.21 683.47,-283.84 675.59,-276.76 672.89,-283.21"/>
</a>
</g>
</g>
<!-- Node8 -->
<g id="Node000008" class="node">
<title>Node8</title>
<g id="a_Node000008"><a xlink:href="exec_8c.html#a23babf893bbcd2f6126698a1a19b169f" target="_top" xlink:title="Execute funct with given arguments.">
<polygon fill="white" stroke="#666666" points="372,-194.91 307,-194.91 307,-175.91 372,-175.91 372,-194.91"/>
<text text-anchor="middle" x="339.5" y="-182.91" font-family="Helvetica,sans-Serif" font-size="10.00">exec_func</text>
</a>
</g>
</g>
<!-- Node1&#45;&gt;Node8 -->
<g id="edge14_Node000001_Node000008" class="edge">
<title>Node1&#45;&gt;Node8</title>
<g id="a_edge14_Node000001_Node000008"><a xlink:title=" ">
<path fill="none" stroke="#63b8ff" d="M684.22,-276.33C672.77,-263.8 655.59,-247.47 637,-238.41 547.91,-195.02 428.25,-186.83 372.09,-185.5"/>
<polygon fill="#63b8ff" stroke="#63b8ff" points="681.64,-278.69 690.88,-283.89 686.9,-274.07 681.64,-278.69"/>
</a>
</g>
</g>
<!-- Node11 -->
<g id="Node000011" class="node">
<title>Node11</title>
<g id="a_Node000011"><a xlink:href="exec_8c.html#ab743cb88e12e9b922050925fd2075e36" target="_top" xlink:title="Execute a pipeline of commands.">
<polygon fill="white" stroke="#666666" points="615,-171.91 550,-171.91 550,-152.91 615,-152.91 615,-171.91"/>
<text text-anchor="middle" x="582.5" y="-159.91" font-family="Helvetica,sans-Serif" font-size="10.00">exec_pipe</text>
</a>
</g>
</g>
<!-- Node1&#45;&gt;Node11 -->
<g id="edge18_Node000001_Node000011" class="edge">
<title>Node1&#45;&gt;Node11</title>
<g id="a_edge18_Node000001_Node000011"><a xlink:title=" ">
<path fill="none" stroke="#63b8ff" d="M688.1,-275.12C676.89,-256.25 657.82,-226.54 637,-204.41 625.19,-191.86 609.45,-179.96 598.1,-172.06"/>
<polygon fill="#63b8ff" stroke="#63b8ff" points="685.16,-277.02 693.22,-283.9 691.21,-273.5 685.16,-277.02"/>
</a>
</g>
</g>
<!-- Node13 -->
<g id="Node000013" class="node">
<title>Node13</title>
<g id="a_Node000013"><a xlink:href="42sh_8c.html#a3c04138a5bfe5d72780bb7e82a18e627" target="_top" xlink:title=" ">
<polygon fill="white" stroke="#666666" points="603,-134.91 562,-134.91 562,-115.91 603,-115.91 603,-134.91"/>
<text text-anchor="middle" x="582.5" y="-122.91" font-family="Helvetica,sans-Serif" font-size="10.00">main</text>
</a>
</g>
</g>
<!-- Node1&#45;&gt;Node13 -->
<g id="edge22_Node000001_Node000013" class="edge">
<title>Node1&#45;&gt;Node13</title>
<g id="a_edge22_Node000001_Node000013"><a xlink:title=" ">
<path fill="none" stroke="#63b8ff" d="M695.61,-273.75C689.97,-242.18 674.57,-180.14 637,-144.41 627.79,-135.65 614.27,-130.89 603.13,-128.33"/>
<polygon fill="#63b8ff" stroke="#63b8ff" points="692.2,-274.59 697.27,-283.89 699.11,-273.46 692.2,-274.59"/>
</a>
</g>
</g>
<!-- Node14 -->
<g id="Node000014" class="node">
<title>Node14</title>
<g id="a_Node000014"><a xlink:href="dot_8c.html#a17477ee2b0f1b8b9306566c990d15b35" target="_top" xlink:title="Main loop of dot builtin.">
<polygon fill="white" stroke="#666666" points="616.5,-58.91 548.5,-58.91 548.5,-39.91 616.5,-39.91 616.5,-58.91"/>
<text text-anchor="middle" x="582.5" y="-46.91" font-family="Helvetica,sans-Serif" font-size="10.00">main_loop</text>
</a>
</g>
</g>
<!-- Node1&#45;&gt;Node14 -->
<g id="edge23_Node000001_Node000014" class="edge">
<title>Node1&#45;&gt;Node14</title>
<g id="a_edge23_Node000001_Node000014"><a xlink:title=" ">
<path fill="none" stroke="#63b8ff" d="M698.35,-273.73C696.99,-231.84 688.2,-132.88 637,-73.41 631.55,-67.09 624.11,-62.35 616.5,-58.84"/>
<polygon fill="#63b8ff" stroke="#63b8ff" points="694.85,-273.81 698.56,-283.73 701.85,-273.66 694.85,-273.81"/>
</a>
</g>
</g>
<!-- Node2&#45;&gt;Node1 -->
<g id="edge2_Node000002_Node000001" class="edge">
<title>Node2&#45;&gt;Node1</title>
<g id="a_edge2_Node000002_Node000001"><a xlink:title=" ">
<path fill="none" stroke="#63b8ff" d="M636.5,-450.87C636.67,-450.72 636.83,-450.57 637,-450.41 681.35,-409.03 694.76,-330.8 697.77,-302.93"/>
<polygon fill="#63b8ff" stroke="#63b8ff" points="634.25,-448.17 628.15,-456.83 638.32,-453.87 634.25,-448.17"/>
</a>
</g>
</g>
<!-- Node3&#45;&gt;Node1 -->
<g id="edge4_Node000003_Node000001" class="edge">
<title>Node3&#45;&gt;Node1</title>
<g id="a_edge4_Node000003_Node000001"><a xlink:title=" ">
<path fill="none" stroke="#63b8ff" d="M627.38,-419.75C630.82,-417.95 634.08,-415.84 637,-413.41 673.05,-383.37 691.69,-326.48 696.93,-303.03"/>
<polygon fill="#63b8ff" stroke="#63b8ff" points="625.81,-416.62 618,-423.78 628.57,-423.05 625.81,-416.62"/>
</a>
</g>
</g>
<!-- Node4&#45;&gt;Node1 -->
<g id="edge6_Node000004_Node000001" class="edge">
<title>Node4&#45;&gt;Node1</title>
<g id="a_edge6_Node000004_Node000001"><a xlink:title=" ">
<path fill="none" stroke="#63b8ff" d="M624.7,-383.14C629.02,-381.25 633.21,-379.01 637,-376.41 665.24,-357.05 687.69,-321.24 695.51,-303.13"/>
<polygon fill="#63b8ff" stroke="#63b8ff" points="623.3,-379.93 615.14,-386.68 625.74,-386.49 623.3,-379.93"/>
</a>
</g>
</g>
<!-- Node5&#45;&gt;Node1 -->
<g id="edge9_Node000005_Node000001" class="edge">
<title>Node5&#45;&gt;Node1</title>
<g id="a_edge9_Node000005_Node000001"><a xlink:title=" ">
<path fill="none" stroke="#63b8ff" d="M628.95,-322.41C648.33,-316.61 669.61,-309.13 683.47,-302.98"/>
<polygon fill="#63b8ff" stroke="#63b8ff" points="627.97,-319.04 619.34,-325.19 629.92,-325.77 627.97,-319.04"/>
</a>
</g>
</g>
<!-- Node5&#45;&gt;Node5 -->
<g id="edge8_Node000005_Node000005" class="edge">
<title>Node5&#45;&gt;Node5</title>
<g id="a_edge8_Node000005_Node000005"><a xlink:title=" ">
<path fill="none" stroke="#63b8ff" d="M603.98,-349.47C602.55,-354.29 595.39,-357.91 582.5,-357.91 561.88,-357.91 555.92,-348.65 564.62,-339.99"/>
<polygon fill="#63b8ff" stroke="#63b8ff" points="607.2,-348.1 600.38,-339.99 600.66,-350.59 607.2,-348.1"/>
</a>
</g>
</g>
<!-- Node6&#45;&gt;Node1 -->
<g id="edge11_Node000006_Node000001" class="edge">
<title>Node6&#45;&gt;Node1</title>
<g id="a_edge11_Node000006_Node000001"><a xlink:title=" ">
<path fill="none" stroke="#63b8ff" d="M632.12,-300.09C646.17,-300.32 660.94,-300 672.98,-299.13"/>
<polygon fill="#63b8ff" stroke="#63b8ff" points="632.16,-296.59 622.07,-299.83 631.97,-303.59 632.16,-296.59"/>
</a>
</g>
</g>
<!-- Node7&#45;&gt;Node1 -->
<g id="edge13_Node000007_Node000001" class="edge">
<title>Node7&#45;&gt;Node1</title>
<g id="a_edge13_Node000007_Node000001"><a xlink:title=" ">
<path fill="none" stroke="#63b8ff" d="M607.64,-269.8C626.79,-277.43 653.48,-286.05 672.98,-290.92"/>
<polygon fill="#63b8ff" stroke="#63b8ff" points="608.97,-266.56 598.4,-265.92 606.27,-273.01 608.97,-266.56"/>
</a>
</g>
</g>
<!-- Node9 -->
<g id="Node000009" class="node">
<title>Node9</title>
<g id="a_Node000009"><a xlink:href="exec_8c.html#ae65edaa99b26b49d60c451157d38b34a" target="_top" xlink:title="Execute les commandes avec les args donnes.">
<polygon fill="white" stroke="#666666" points="180,-58.91 115,-58.91 115,-39.91 180,-39.91 180,-58.91"/>
<text text-anchor="middle" x="147.5" y="-46.91" font-family="Helvetica,sans-Serif" font-size="10.00">exec_cmd</text>
</a>
</g>
</g>
<!-- Node8&#45;&gt;Node9 -->
<g id="edge15_Node000008_Node000009" class="edge">
<title>Node8&#45;&gt;Node9</title>
<g id="a_edge15_Node000008_Node000009"><a xlink:title=" ">
<path fill="none" stroke="#63b8ff" d="M316.95,-169.99C277.39,-141.67 194.26,-82.17 161.85,-58.96"/>
<polygon fill="#63b8ff" stroke="#63b8ff" points="314.97,-172.87 325.14,-175.85 319.05,-167.18 314.97,-172.87"/>
</a>
</g>
</g>
<!-- Node10 -->
<g id="Node000010" class="node">
<title>Node10</title>
<g id="a_Node000010"><a xlink:href="ast__run_8c.html#aeb6878a59c6907e5669fc3cc428913d9" target="_top" xlink:title=" ">
<polygon fill="white" stroke="#666666" points="79,-39.91 0,-39.91 0,-20.91 79,-20.91 79,-39.91"/>
<text text-anchor="middle" x="39.5" y="-27.91" font-family="Helvetica,sans-Serif" font-size="10.00">ast_run_cmd</text>
</a>
</g>
</g>
<!-- Node9&#45;&gt;Node10 -->
<g id="edge16_Node000009_Node000010" class="edge">
<title>Node9&#45;&gt;Node10</title>
<g id="a_edge16_Node000009_Node000010"><a xlink:title=" ">
<path fill="none" stroke="#63b8ff" d="M104.92,-41.96C96.45,-40.44 87.58,-38.85 79.21,-37.35"/>
<polygon fill="#63b8ff" stroke="#63b8ff" points="104.52,-45.44 114.98,-43.76 105.76,-38.55 104.52,-45.44"/>
</a>
</g>
</g>
<!-- Node10&#45;&gt;Node1 -->
<g id="edge17_Node000010_Node000001" class="edge">
<title>Node10&#45;&gt;Node1</title>
<g id="a_edge17_Node000010_Node000001"><a xlink:title=" ">
<path fill="none" stroke="#63b8ff" d="M89.1,-23.18C129.43,-17.81 188.31,-11.41 240,-11.41 453.5,-11.41 453.5,-11.41 453.5,-11.41 535.49,-11.41 575.47,23.78 637,-30.41 676.41,-65.13 693.94,-240.45 697.7,-283.74"/>
<polygon fill="#63b8ff" stroke="#63b8ff" points="88.45,-19.74 79.01,-24.56 89.4,-26.67 88.45,-19.74"/>
</a>
</g>
</g>
<!-- Node11&#45;&gt;Node11 -->
<g id="edge21_Node000011_Node000011" class="edge">
<title>Node11&#45;&gt;Node11</title>
<g id="a_edge21_Node000011_Node000011"><a xlink:title=" ">
<path fill="none" stroke="#63b8ff" d="M603.98,-181.47C602.55,-186.29 595.39,-189.91 582.5,-189.91 561.88,-189.91 555.92,-180.65 564.62,-171.99"/>
<polygon fill="#63b8ff" stroke="#63b8ff" points="607.2,-180.1 600.38,-171.99 600.66,-182.59 607.2,-180.1"/>
</a>
</g>
</g>
<!-- Node12 -->
<g id="Node000012" class="node">
<title>Node12</title>
<g id="a_Node000012"><a xlink:href="ast__run_8c.html#a24d0223822f7b635628199085c3283be" target="_top" xlink:title=" ">
<polygon fill="white" stroke="#666666" points="492,-133.91 413,-133.91 413,-114.91 492,-114.91 492,-133.91"/>
<text text-anchor="middle" x="452.5" y="-121.91" font-family="Helvetica,sans-Serif" font-size="10.00">ast_run_pipe</text>
</a>
</g>
</g>
<!-- Node11&#45;&gt;Node12 -->
<g id="edge19_Node000011_Node000012" class="edge">
<title>Node11&#45;&gt;Node12</title>
<g id="a_edge19_Node000011_Node000012"><a xlink:title=" ">
<path fill="none" stroke="#63b8ff" d="M539.85,-150.05C522.25,-144.82 502.08,-138.84 485.67,-133.96"/>
<polygon fill="#63b8ff" stroke="#63b8ff" points="539.28,-153.53 549.86,-153.02 541.27,-146.82 539.28,-153.53"/>
</a>
</g>
</g>
<!-- Node12&#45;&gt;Node1 -->
<g id="edge20_Node000012_Node000001" class="edge">
<title>Node12&#45;&gt;Node1</title>
<g id="a_edge20_Node000012_Node000001"><a xlink:title=" ">
<path fill="none" stroke="#63b8ff" d="M482.33,-110.95C521.32,-94.96 591.22,-74.33 637,-107.41 695.99,-150.04 699.33,-251.37 698.84,-283.48"/>
<polygon fill="#63b8ff" stroke="#63b8ff" points="480.94,-107.74 473.12,-114.88 483.69,-114.18 480.94,-107.74"/>
</a>
</g>
</g>
<!-- Node15 -->
<g id="Node000015" class="node">
<title>Node15</title>
<g id="a_Node000015"><a xlink:href="dot_8c.html#a713938d3c6ee343132c429642048bcf6" target="_top" xlink:title="Execute the dot builtin cmd.">
<polygon fill="white" stroke="#666666" points="474.5,-58.91 430.5,-58.91 430.5,-39.91 474.5,-39.91 474.5,-58.91"/>
<text text-anchor="middle" x="452.5" y="-46.91" font-family="Helvetica,sans-Serif" font-size="10.00">dot_b</text>
</a>
</g>
</g>
<!-- Node14&#45;&gt;Node15 -->
<g id="edge24_Node000014_Node000015" class="edge">
<title>Node14&#45;&gt;Node15</title>
<g id="a_edge24_Node000014_Node000015"><a xlink:title=" ">
<path fill="none" stroke="#63b8ff" d="M538.02,-49.41C516.61,-49.41 491.78,-49.41 474.6,-49.41"/>
<polygon fill="#63b8ff" stroke="#63b8ff" points="538.2,-52.91 548.2,-49.41 538.2,-45.91 538.2,-52.91"/>
</a>
</g>
</g>
<!-- Node16 -->
<g id="Node000016" class="node">
<title>Node16</title>
<g id="a_Node000016"><a xlink:href="exec_8c.html#abaeb177587c7eec6a064b35bb8399cae" target="_top" xlink:title="Execute builtin cmd with given args.">
<polygon fill="white" stroke="#666666" points="377,-58.91 302,-58.91 302,-39.91 377,-39.91 377,-58.91"/>
<text text-anchor="middle" x="339.5" y="-46.91" font-family="Helvetica,sans-Serif" font-size="10.00">exec_builtin</text>
</a>
</g>
</g>
<!-- Node15&#45;&gt;Node16 -->
<g id="edge25_Node000015_Node000016" class="edge">
<title>Node15&#45;&gt;Node16</title>
<g id="a_edge25_Node000015_Node000016"><a xlink:title=" ">
<path fill="none" stroke="#63b8ff" d="M420.23,-49.41C406.88,-49.41 391.2,-49.41 377.3,-49.41"/>
<polygon fill="#63b8ff" stroke="#63b8ff" points="420.36,-52.91 430.36,-49.41 420.36,-45.91 420.36,-52.91"/>
</a>
</g>
</g>
<!-- Node17 -->
<g id="Node000017" class="node">
<title>Node17</title>
<g id="a_Node000017"><a xlink:href="exec_8c.html#a287d81b4658832f192750310e2925917" target="_top" xlink:title="Execute the builtin command with given args.">
<polygon fill="white" stroke="#666666" points="266,-58.91 216,-58.91 216,-39.91 266,-39.91 266,-58.91"/>
<text text-anchor="middle" x="241" y="-46.91" font-family="Helvetica,sans-Serif" font-size="10.00">exec_b</text>
</a>
</g>
</g>
<!-- Node16&#45;&gt;Node17 -->
<g id="edge26_Node000016_Node000017" class="edge">
<title>Node16&#45;&gt;Node17</title>
<g id="a_edge26_Node000016_Node000017"><a xlink:title=" ">
<path fill="none" stroke="#63b8ff" d="M291.51,-49.41C282.71,-49.41 273.86,-49.41 266.12,-49.41"/>
<polygon fill="#63b8ff" stroke="#63b8ff" points="291.74,-52.91 301.74,-49.41 291.74,-45.91 291.74,-52.91"/>
</a>
</g>
</g>
<!-- Node17&#45;&gt;Node9 -->
<g id="edge27_Node000017_Node000009" class="edge">
<title>Node17&#45;&gt;Node9</title>
<g id="a_edge27_Node000017_Node000009"><a xlink:title=" ">
<path fill="none" stroke="#63b8ff" d="M205.77,-49.41C197.42,-49.41 188.53,-49.41 180.3,-49.41"/>
<polygon fill="#63b8ff" stroke="#63b8ff" points="205.96,-52.91 215.96,-49.41 205.96,-45.91 205.96,-52.91"/>
</a>
</g>
</g>
</g>
</svg>
