<?xml version="1.0" encoding="UTF-8" standalone="no"?>
<!DOCTYPE svg PUBLIC "-//W3C//DTD SVG 1.1//EN"
 "http://www.w3.org/Graphics/SVG/1.1/DTD/svg11.dtd">
<!-- Generated by graphviz version 2.43.0 (0)
 -->
<!-- Title: ast_free_shell_redir Pages: 1 -->
<svg width="344pt" height="267pt"
 viewBox="0.00 0.00 344.00 267.00" xmlns="http://www.w3.org/2000/svg" xmlns:xlink="http://www.w3.org/1999/xlink">
<g id="graph0" class="graph" transform="scale(1 1) rotate(0) translate(4 263)">
<title>ast_free_shell_redir</title>
<!-- Node1 -->
<g id="Node000001" class="node">
<title>Node1</title>
<g id="a_Node000001"><a xlink:title=" ">
<polygon fill="#999999" stroke="#666666" points="113,-148 0,-148 0,-129 113,-129 113,-148"/>
<text text-anchor="middle" x="56.5" y="-136" font-family="Helvetica,sans-Serif" font-size="10.00">ast_free_shell_redir</text>
</a>
</g>
</g>
<!-- Node2 -->
<g id="Node000002" class="node">
<title>Node2</title>
<g id="a_Node000002"><a xlink:href="ast_8c.html#adbd51ee24d251e4506b1163864d7fd64" target="_top" xlink:title=" ">
<polygon fill="white" stroke="#666666" points="205,-148 149,-148 149,-129 205,-129 205,-148"/>
<text text-anchor="middle" x="177" y="-136" font-family="Helvetica,sans-Serif" font-size="10.00">free_ast</text>
</a>
</g>
</g>
<!-- Node1&#45;&gt;Node2 -->
<g id="edge1_Node000001_Node000002" class="edge">
<title>Node1&#45;&gt;Node2</title>
<g id="a_edge1_Node000001_Node000002"><a xlink:title=" ">
<path fill="none" stroke="#63b8ff" d="M113.28,-131.76C121.88,-131.71 130.57,-131.85 138.64,-132.18"/>
<polygon fill="#63b8ff" stroke="#63b8ff" points="138.65,-135.68 148.82,-132.72 139.02,-128.69 138.65,-135.68"/>
</a>
</g>
</g>
<!-- Node2&#45;&gt;Node1 -->
<g id="edge16_Node000002_Node000001" class="edge">
<title>Node2&#45;&gt;Node1</title>
<g id="a_edge16_Node000002_Node000001"><a xlink:title=" ">
<path fill="none" stroke="#63b8ff" d="M148.82,-144.28C141.11,-144.8 132.37,-145.11 123.43,-145.21"/>
<polygon fill="#63b8ff" stroke="#63b8ff" points="123.27,-141.71 113.28,-145.24 123.29,-148.71 123.27,-141.71"/>
</a>
</g>
</g>
<!-- Node3 -->
<g id="Node000003" class="node">
<title>Node3</title>
<g id="a_Node000003"><a xlink:href="ast__free_8c.html#a80edc240f8b3b576efc19e8465449822" target="_top" xlink:title=" ">
<polygon fill="white" stroke="#666666" points="336,-259 241,-259 241,-240 336,-240 336,-259"/>
<text text-anchor="middle" x="288.5" y="-247" font-family="Helvetica,sans-Serif" font-size="10.00">ast_free_and_or</text>
</a>
</g>
</g>
<!-- Node2&#45;&gt;Node3 -->
<g id="edge2_Node000002_Node000003" class="edge">
<title>Node2&#45;&gt;Node3</title>
<g id="a_edge2_Node000002_Node000003"><a xlink:title=" ">
<path fill="none" stroke="#63b8ff" d="M184.91,-148.03C194.66,-165.59 214.3,-201.24 241,-222.5 248.4,-228.39 257.95,-232.53 266.47,-236.04"/>
<polygon fill="#63b8ff" stroke="#63b8ff" points="265.23,-239.32 275.81,-239.94 267.93,-232.86 265.23,-239.32"/>
</a>
</g>
</g>
<!-- Node4 -->
<g id="Node000004" class="node">
<title>Node4</title>
<g id="a_Node000004"><a xlink:href="ast__free_8c.html#a9330029530c792a2570859c41fea1f87" target="_top" xlink:title=" ">
<polygon fill="white" stroke="#666666" points="330,-222 247,-222 247,-203 330,-203 330,-222"/>
<text text-anchor="middle" x="288.5" y="-210" font-family="Helvetica,sans-Serif" font-size="10.00">ast_free_cmd</text>
</a>
</g>
</g>
<!-- Node2&#45;&gt;Node4 -->
<g id="edge4_Node000002_Node000004" class="edge">
<title>Node2&#45;&gt;Node4</title>
<g id="a_edge4_Node000002_Node000004"><a xlink:title=" ">
<path fill="none" stroke="#63b8ff" d="M186.96,-148.4C198.46,-160.62 219.52,-181.39 241,-194.5 243.34,-195.93 245.82,-197.28 248.36,-198.55"/>
<polygon fill="#63b8ff" stroke="#63b8ff" points="247.17,-201.86 257.72,-202.8 250.06,-195.48 247.17,-201.86"/>
</a>
</g>
</g>
<!-- Node5 -->
<g id="Node000005" class="node">
<title>Node5</title>
<g id="a_Node000005"><a xlink:href="ast__free_8c.html#a2093aa16119809b1788e3544ccacb07a" target="_top" xlink:title=" ">
<polygon fill="white" stroke="#666666" points="326,-185 251,-185 251,-166 326,-166 326,-185"/>
<text text-anchor="middle" x="288.5" y="-173" font-family="Helvetica,sans-Serif" font-size="10.00">ast_free_for</text>
</a>
</g>
</g>
<!-- Node2&#45;&gt;Node5 -->
<g id="edge5_Node000002_Node000005" class="edge">
<title>Node2&#45;&gt;Node5</title>
<g id="a_edge5_Node000002_Node000005"><a xlink:title=" ">
<path fill="none" stroke="#63b8ff" d="M205.07,-141.73C223.07,-146.63 246.49,-154.62 263.76,-161.8"/>
<polygon fill="#63b8ff" stroke="#63b8ff" points="262.57,-165.1 273.13,-165.91 265.38,-158.69 262.57,-165.1"/>
</a>
</g>
</g>
<!-- Node6 -->
<g id="Node000006" class="node">
<title>Node6</title>
<g id="a_Node000006"><a xlink:href="ast__free_8c.html#abfce6009bf2f91da322878514d9209c0" target="_top" xlink:title=" ">
<polygon fill="white" stroke="#666666" points="322.5,-148 254.5,-148 254.5,-129 322.5,-129 322.5,-148"/>
<text text-anchor="middle" x="288.5" y="-136" font-family="Helvetica,sans-Serif" font-size="10.00">ast_free_if</text>
</a>
</g>
</g>
<!-- Node2&#45;&gt;Node6 -->
<g id="edge7_Node000002_Node000006" class="edge">
<title>Node2&#45;&gt;Node6</title>
<g id="a_edge7_Node000002_Node000006"><a xlink:title=" ">
<path fill="none" stroke="#63b8ff" d="M205.07,-132.58C216.86,-131.81 230.98,-131.57 244.17,-131.88"/>
<polygon fill="#63b8ff" stroke="#63b8ff" points="244.38,-135.39 254.49,-132.25 244.62,-128.4 244.38,-135.39"/>
</a>
</g>
</g>
<!-- Node7 -->
<g id="Node000007" class="node">
<title>Node7</title>
<g id="a_Node000007"><a xlink:href="ast__free_8c.html#a654d27b37151693d221d215450efe6bb" target="_top" xlink:title=" ">
<polygon fill="white" stroke="#666666" points="327,-93 250,-93 250,-74 327,-74 327,-93"/>
<text text-anchor="middle" x="288.5" y="-81" font-family="Helvetica,sans-Serif" font-size="10.00">ast_free_list</text>
</a>
</g>
</g>
<!-- Node2&#45;&gt;Node7 -->
<g id="edge9_Node000002_Node000007" class="edge">
<title>Node2&#45;&gt;Node7</title>
<g id="a_edge9_Node000002_Node000007"><a xlink:title=" ">
<path fill="none" stroke="#63b8ff" d="M188.9,-128.78C202.32,-119.91 225.87,-107.3 246.59,-97.49"/>
<polygon fill="#63b8ff" stroke="#63b8ff" points="248.26,-100.58 255.87,-93.2 245.32,-94.22 248.26,-100.58"/>
</a>
</g>
</g>
<!-- Node8 -->
<g id="Node000008" class="node">
<title>Node8</title>
<g id="a_Node000008"><a xlink:href="ast__free_8c.html#a09f3dd857c6d405a4e1b2e3109a1d3df" target="_top" xlink:title=" ">
<polygon fill="white" stroke="#666666" points="330,-56 247,-56 247,-37 330,-37 330,-56"/>
<text text-anchor="middle" x="288.5" y="-44" font-family="Helvetica,sans-Serif" font-size="10.00">ast_free_loop</text>
</a>
</g>
</g>
<!-- Node2&#45;&gt;Node8 -->
<g id="edge12_Node000002_Node000008" class="edge">
<title>Node2&#45;&gt;Node8</title>
<g id="a_edge12_Node000002_Node000008"><a xlink:title=" ">
<path fill="none" stroke="#63b8ff" d="M181.19,-128.97C188.82,-112.74 209.36,-82.12 238.72,-58.81"/>
<polygon fill="#63b8ff" stroke="#63b8ff" points="240.9,-61.56 246.8,-52.76 236.7,-55.95 240.9,-61.56"/>
</a>
</g>
</g>
<!-- Node9 -->
<g id="Node000009" class="node">
<title>Node9</title>
<g id="a_Node000009"><a xlink:href="ast__free_8c.html#a50c5d556b19bcd99345d42797422afbc" target="_top" xlink:title=" ">
<polygon fill="white" stroke="#666666" points="330,-19 247,-19 247,0 330,0 330,-19"/>
<text text-anchor="middle" x="288.5" y="-7" font-family="Helvetica,sans-Serif" font-size="10.00">ast_free_pipe</text>
</a>
</g>
</g>
<!-- Node2&#45;&gt;Node9 -->
<g id="edge14_Node000002_Node000009" class="edge">
<title>Node2&#45;&gt;Node9</title>
<g id="a_edge14_Node000002_Node000009"><a xlink:title=" ">
<path fill="none" stroke="#63b8ff" d="M179.83,-128.7C185.36,-106.95 203.44,-57.02 239.47,-21.87"/>
<polygon fill="#63b8ff" stroke="#63b8ff" points="241.91,-24.39 246.92,-15.05 237.18,-19.22 241.91,-24.39"/>
</a>
</g>
</g>
<!-- Node3&#45;&gt;Node2 -->
<g id="edge3_Node000003_Node000002" class="edge">
<title>Node3&#45;&gt;Node2</title>
<g id="a_edge3_Node000003_Node000002"><a xlink:title=" ">
<path fill="none" stroke="#63b8ff" d="M240.63,-240.2C213.15,-218.14 193.21,-180.88 183.89,-157.79"/>
<polygon fill="#63b8ff" stroke="#63b8ff" points="187.12,-156.45 180.37,-148.29 180.56,-158.88 187.12,-156.45"/>
</a>
</g>
</g>
<!-- Node5&#45;&gt;Node2 -->
<g id="edge6_Node000005_Node000002" class="edge">
<title>Node5&#45;&gt;Node2</title>
<g id="a_edge6_Node000005_Node000002"><a xlink:title=" ">
<path fill="none" stroke="#63b8ff" d="M250.57,-169.44C234.48,-164.62 216.1,-158.16 201.86,-152.25"/>
<polygon fill="#63b8ff" stroke="#63b8ff" points="202.88,-148.87 192.32,-148.07 200.07,-155.29 202.88,-148.87"/>
</a>
</g>
</g>
<!-- Node6&#45;&gt;Node2 -->
<g id="edge8_Node000006_Node000002" class="edge">
<title>Node6&#45;&gt;Node2</title>
<g id="a_edge8_Node000006_Node000002"><a xlink:title=" ">
<path fill="none" stroke="#63b8ff" d="M254.49,-144.75C242.15,-145.35 228.05,-145.41 215.34,-144.94"/>
<polygon fill="#63b8ff" stroke="#63b8ff" points="215.23,-141.43 205.07,-144.42 214.88,-148.42 215.23,-141.43"/>
</a>
</g>
</g>
<!-- Node7&#45;&gt;Node2 -->
<g id="edge11_Node000007_Node000002" class="edge">
<title>Node7&#45;&gt;Node2</title>
<g id="a_edge11_Node000007_Node000002"><a xlink:title=" ">
<path fill="none" stroke="#63b8ff" d="M276.87,-93.04C262.53,-102.57 236.28,-116.49 214.43,-126.61"/>
<polygon fill="#63b8ff" stroke="#63b8ff" points="212.75,-123.52 205.07,-130.82 215.62,-129.91 212.75,-123.52"/>
</a>
</g>
</g>
<!-- Node7&#45;&gt;Node7 -->
<g id="edge10_Node000007_Node000007" class="edge">
<title>Node7&#45;&gt;Node7</title>
<g id="a_edge10_Node000007_Node000007"><a xlink:title=" ">
<path fill="none" stroke="#63b8ff" d="M271.55,-93.08C263.3,-101.73 268.95,-111 288.5,-111 300.72,-111 307.51,-107.38 308.87,-102.55"/>
<polygon fill="#63b8ff" stroke="#63b8ff" points="312.14,-101.3 305.45,-93.08 305.55,-103.68 312.14,-101.3"/>
</a>
</g>
</g>
<!-- Node8&#45;&gt;Node2 -->
<g id="edge13_Node000008_Node000002" class="edge">
<title>Node8&#45;&gt;Node2</title>
<g id="a_edge13_Node000008_Node000002"><a xlink:title=" ">
<path fill="none" stroke="#63b8ff" d="M277.19,-56.07C267.28,-61.1 252.19,-66.46 241,-74.5 222.99,-87.45 206.75,-106.55 195.27,-120.72"/>
<polygon fill="#63b8ff" stroke="#63b8ff" points="192.3,-118.82 188.76,-128.8 197.76,-123.21 192.3,-118.82"/>
</a>
</g>
</g>
<!-- Node9&#45;&gt;Node2 -->
<g id="edge15_Node000009_Node000002" class="edge">
<title>Node9&#45;&gt;Node2</title>
<g id="a_edge15_Node000009_Node000002"><a xlink:title=" ">
<path fill="none" stroke="#63b8ff" d="M275.65,-19.15C265.5,-23.71 250.97,-28.77 241,-37.5 214.73,-60.51 196.82,-97.26 187,-119.73"/>
<polygon fill="#63b8ff" stroke="#63b8ff" points="183.77,-118.38 183.06,-128.95 190.21,-121.13 183.77,-118.38"/>
</a>
</g>
</g>
</g>
</svg>
