<?xml version="1.0" encoding="UTF-8" standalone="no"?>
<!DOCTYPE svg PUBLIC "-//W3C//DTD SVG 1.1//EN"
 "http://www.w3.org/Graphics/SVG/1.1/DTD/svg11.dtd">
<!-- Generated by graphviz version 2.43.0 (0)
 -->
<!-- Title: ast_run_cmd Pages: 1 -->
<svg width="734pt" height="466pt"
 viewBox="0.00 0.00 734.00 465.50" xmlns="http://www.w3.org/2000/svg" xmlns:xlink="http://www.w3.org/1999/xlink">
<g id="graph0" class="graph" transform="scale(1 1) rotate(0) translate(4 461.5)">
<title>ast_run_cmd</title>
<!-- Node1 -->
<g id="Node000001" class="node">
<title>Node1</title>
<g id="a_Node000001"><a xlink:title=" ">
<polygon fill="#999999" stroke="#666666" points="726,-150.5 647,-150.5 647,-131.5 726,-131.5 726,-150.5"/>
<text text-anchor="middle" x="686.5" y="-138.5" font-family="Helvetica,sans-Serif" font-size="10.00">ast_run_cmd</text>
</a>
</g>
</g>
<!-- Node2 -->
<g id="Node000002" class="node">
<title>Node2</title>
<g id="a_Node000002"><a xlink:href="ast_8c.html#a572345b2707780bbbc5bbaacdca9c372" target="_top" xlink:title=" ">
<polygon fill="white" stroke="#666666" points="611,-291.5 558,-291.5 558,-272.5 611,-272.5 611,-291.5"/>
<text text-anchor="middle" x="584.5" y="-279.5" font-family="Helvetica,sans-Serif" font-size="10.00">run_ast</text>
</a>
</g>
</g>
<!-- Node1&#45;&gt;Node2 -->
<g id="edge1_Node000001_Node000002" class="edge">
<title>Node1&#45;&gt;Node2</title>
<g id="a_edge1_Node000001_Node000002"><a xlink:title=" ">
<path fill="none" stroke="#63b8ff" d="M672.71,-159.03C651.33,-189.18 609.03,-248.83 592.42,-272.24"/>
<polygon fill="#63b8ff" stroke="#63b8ff" points="675.7,-160.87 678.63,-150.69 669.99,-156.82 675.7,-160.87"/>
</a>
</g>
</g>
<!-- Node3 -->
<g id="Node000003" class="node">
<title>Node3</title>
<g id="a_Node000003"><a xlink:href="ast__run_8c.html#a8a01fec616135007fc5b3968a101901b" target="_top" xlink:title=" ">
<polygon fill="white" stroke="#666666" points="513,-457.5 422,-457.5 422,-438.5 513,-438.5 513,-457.5"/>
<text text-anchor="middle" x="467.5" y="-445.5" font-family="Helvetica,sans-Serif" font-size="10.00">ast_run_and_or</text>
</a>
</g>
</g>
<!-- Node2&#45;&gt;Node3 -->
<g id="edge2_Node000002_Node000003" class="edge">
<title>Node2&#45;&gt;Node3</title>
<g id="a_edge2_Node000002_Node000003"><a xlink:title=" ">
<path fill="none" stroke="#63b8ff" d="M579.39,-302.05C572.89,-332.18 557.18,-388.18 522,-421 511.97,-430.36 496.91,-434.87 485.32,-438.5"/>
<polygon fill="#63b8ff" stroke="#63b8ff" points="582.89,-302.37 581.45,-291.88 576.03,-300.98 582.89,-302.37"/>
</a>
</g>
</g>
<!-- Node4 -->
<g id="Node000004" class="node">
<title>Node4</title>
<g id="a_Node000004"><a xlink:href="ast__run_8c.html#a9d83d4834a61ffe21eb77838d70ae173" target="_top" xlink:title=" ">
<polygon fill="white" stroke="#666666" points="503,-420.5 432,-420.5 432,-401.5 503,-401.5 503,-420.5"/>
<text text-anchor="middle" x="467.5" y="-408.5" font-family="Helvetica,sans-Serif" font-size="10.00">ast_run_for</text>
</a>
</g>
</g>
<!-- Node2&#45;&gt;Node4 -->
<g id="edge4_Node000002_Node000004" class="edge">
<title>Node2&#45;&gt;Node4</title>
<g id="a_edge4_Node000002_Node000004"><a xlink:title=" ">
<path fill="none" stroke="#63b8ff" d="M575.39,-300.99C566.24,-323.92 549.01,-361.5 522,-384 511.16,-393.03 495.59,-397.6 484.04,-401.47"/>
<polygon fill="#63b8ff" stroke="#63b8ff" points="578.68,-302.17 579.03,-291.59 572.16,-299.65 578.68,-302.17"/>
</a>
</g>
</g>
<!-- Node5 -->
<g id="Node000005" class="node">
<title>Node5</title>
<g id="a_Node000005"><a xlink:href="ast__run_8c.html#a0a7138b1f2608ea36211c9b78988c248" target="_top" xlink:title=" ">
<polygon fill="white" stroke="#666666" points="500,-383.5 435,-383.5 435,-364.5 500,-364.5 500,-383.5"/>
<text text-anchor="middle" x="467.5" y="-371.5" font-family="Helvetica,sans-Serif" font-size="10.00">ast_run_if</text>
</a>
</g>
</g>
<!-- Node2&#45;&gt;Node5 -->
<g id="edge6_Node000002_Node000005" class="edge">
<title>Node2&#45;&gt;Node5</title>
<g id="a_edge6_Node000002_Node000005"><a xlink:title=" ">
<path fill="none" stroke="#63b8ff" d="M567.53,-300.02C556.48,-314.62 540.48,-334.33 522,-347 509.88,-355.31 493.59,-360.06 482.19,-364.38"/>
<polygon fill="#63b8ff" stroke="#63b8ff" points="570.56,-301.8 573.74,-291.7 564.95,-297.61 570.56,-301.8"/>
</a>
</g>
</g>
<!-- Node6 -->
<g id="Node000006" class="node">
<title>Node6</title>
<g id="a_Node000006"><a xlink:href="ast__run_8c.html#ae25cd3ced8abafd76110dba8852a6b87" target="_top" xlink:title=" ">
<polygon fill="white" stroke="#666666" points="504,-328.5 431,-328.5 431,-309.5 504,-309.5 504,-328.5"/>
<text text-anchor="middle" x="467.5" y="-316.5" font-family="Helvetica,sans-Serif" font-size="10.00">ast_run_list</text>
</a>
</g>
</g>
<!-- Node2&#45;&gt;Node6 -->
<g id="edge8_Node000002_Node000006" class="edge">
<title>Node2&#45;&gt;Node6</title>
<g id="a_edge8_Node000002_Node000006"><a xlink:title=" ">
<path fill="none" stroke="#63b8ff" d="M548.09,-287.11C526.37,-293.14 499.69,-302.25 483.4,-309.49"/>
<polygon fill="#63b8ff" stroke="#63b8ff" points="549.21,-290.43 557.98,-284.49 547.42,-283.66 549.21,-290.43"/>
</a>
</g>
</g>
<!-- Node7 -->
<g id="Node000007" class="node">
<title>Node7</title>
<g id="a_Node000007"><a xlink:href="ast__run_8c.html#a536f37ba9bffcd2099fef668656181e0" target="_top" xlink:title=" ">
<polygon fill="white" stroke="#666666" points="507,-291.5 428,-291.5 428,-272.5 507,-272.5 507,-291.5"/>
<text text-anchor="middle" x="467.5" y="-279.5" font-family="Helvetica,sans-Serif" font-size="10.00">ast_run_loop</text>
</a>
</g>
</g>
<!-- Node2&#45;&gt;Node7 -->
<g id="edge11_Node000002_Node000007" class="edge">
<title>Node2&#45;&gt;Node7</title>
<g id="a_edge11_Node000002_Node000007"><a xlink:title=" ">
<path fill="none" stroke="#63b8ff" d="M547.63,-275.69C534.74,-275.14 520.17,-275.1 507.07,-275.59"/>
<polygon fill="#63b8ff" stroke="#63b8ff" points="547.8,-279.21 557.98,-276.28 548.19,-272.22 547.8,-279.21"/>
</a>
</g>
</g>
<!-- Node8 -->
<g id="Node000008" class="node">
<title>Node8</title>
<g id="a_Node000008"><a xlink:href="ast__run_8c.html#aa3e6a973e744d748ee415840596beb53" target="_top" xlink:title=" ">
<polygon fill="white" stroke="#666666" points="522,-254.5 413,-254.5 413,-235.5 522,-235.5 522,-254.5"/>
<text text-anchor="middle" x="467.5" y="-242.5" font-family="Helvetica,sans-Serif" font-size="10.00">ast_run_shell_redir</text>
</a>
</g>
</g>
<!-- Node2&#45;&gt;Node8 -->
<g id="edge13_Node000002_Node000008" class="edge">
<title>Node2&#45;&gt;Node8</title>
<g id="a_edge13_Node000002_Node000008"><a xlink:title=" ">
<path fill="none" stroke="#63b8ff" d="M558.99,-268.47C547.3,-263.82 532.86,-258.82 518.98,-254.54"/>
<polygon fill="#63b8ff" stroke="#63b8ff" points="557.89,-271.8 568.47,-272.43 560.59,-265.34 557.89,-271.8"/>
</a>
</g>
</g>
<!-- Node9 -->
<g id="Node000009" class="node">
<title>Node9</title>
<g id="a_Node000009"><a xlink:href="exec_8c.html#a23babf893bbcd2f6126698a1a19b169f" target="_top" xlink:title="Execute funct with given arguments.">
<polygon fill="white" stroke="#666666" points="257,-183.5 192,-183.5 192,-164.5 257,-164.5 257,-183.5"/>
<text text-anchor="middle" x="224.5" y="-171.5" font-family="Helvetica,sans-Serif" font-size="10.00">exec_func</text>
</a>
</g>
</g>
<!-- Node2&#45;&gt;Node9 -->
<g id="edge15_Node000002_Node000009" class="edge">
<title>Node2&#45;&gt;Node9</title>
<g id="a_edge15_Node000002_Node000009"><a xlink:title=" ">
<path fill="none" stroke="#63b8ff" d="M569.22,-264.91C557.77,-252.39 540.59,-236.06 522,-227 432.91,-183.61 313.25,-175.41 257.09,-174.09"/>
<polygon fill="#63b8ff" stroke="#63b8ff" points="566.64,-267.28 575.88,-272.48 571.9,-262.66 566.64,-267.28"/>
</a>
</g>
</g>
<!-- Node11 -->
<g id="Node000011" class="node">
<title>Node11</title>
<g id="a_Node000011"><a xlink:href="exec_8c.html#ab743cb88e12e9b922050925fd2075e36" target="_top" xlink:title="Execute a pipeline of commands.">
<polygon fill="white" stroke="#666666" points="500,-160.5 435,-160.5 435,-141.5 500,-141.5 500,-160.5"/>
<text text-anchor="middle" x="467.5" y="-148.5" font-family="Helvetica,sans-Serif" font-size="10.00">exec_pipe</text>
</a>
</g>
</g>
<!-- Node2&#45;&gt;Node11 -->
<g id="edge18_Node000002_Node000011" class="edge">
<title>Node2&#45;&gt;Node11</title>
<g id="a_edge18_Node000002_Node000011"><a xlink:title=" ">
<path fill="none" stroke="#63b8ff" d="M573.1,-263.71C561.89,-244.84 542.82,-215.13 522,-193 510.19,-180.44 494.45,-168.55 483.1,-160.64"/>
<polygon fill="#63b8ff" stroke="#63b8ff" points="570.16,-265.61 578.22,-272.49 576.21,-262.08 570.16,-265.61"/>
</a>
</g>
</g>
<!-- Node13 -->
<g id="Node000013" class="node">
<title>Node13</title>
<g id="a_Node000013"><a xlink:href="42sh_8c.html#a3c04138a5bfe5d72780bb7e82a18e627" target="_top" xlink:title=" ">
<polygon fill="white" stroke="#666666" points="488,-123.5 447,-123.5 447,-104.5 488,-104.5 488,-123.5"/>
<text text-anchor="middle" x="467.5" y="-111.5" font-family="Helvetica,sans-Serif" font-size="10.00">main</text>
</a>
</g>
</g>
<!-- Node2&#45;&gt;Node13 -->
<g id="edge22_Node000002_Node000013" class="edge">
<title>Node2&#45;&gt;Node13</title>
<g id="a_edge22_Node000002_Node000013"><a xlink:title=" ">
<path fill="none" stroke="#63b8ff" d="M580.61,-262.34C574.97,-230.77 559.57,-168.73 522,-133 512.79,-124.24 499.27,-119.48 488.13,-116.92"/>
<polygon fill="#63b8ff" stroke="#63b8ff" points="577.2,-263.18 582.27,-272.48 584.11,-262.05 577.2,-263.18"/>
</a>
</g>
</g>
<!-- Node14 -->
<g id="Node000014" class="node">
<title>Node14</title>
<g id="a_Node000014"><a xlink:href="dot_8c.html#a17477ee2b0f1b8b9306566c990d15b35" target="_top" xlink:title="Main loop of dot builtin.">
<polygon fill="white" stroke="#666666" points="501.5,-47.5 433.5,-47.5 433.5,-28.5 501.5,-28.5 501.5,-47.5"/>
<text text-anchor="middle" x="467.5" y="-35.5" font-family="Helvetica,sans-Serif" font-size="10.00">main_loop</text>
</a>
</g>
</g>
<!-- Node2&#45;&gt;Node14 -->
<g id="edge23_Node000002_Node000014" class="edge">
<title>Node2&#45;&gt;Node14</title>
<g id="a_edge23_Node000002_Node000014"><a xlink:title=" ">
<path fill="none" stroke="#63b8ff" d="M583.35,-262.31C581.99,-220.43 573.2,-121.46 522,-62 516.55,-55.67 509.11,-50.94 501.5,-47.42"/>
<polygon fill="#63b8ff" stroke="#63b8ff" points="579.85,-262.4 583.56,-272.32 586.85,-262.25 579.85,-262.4"/>
</a>
</g>
</g>
<!-- Node3&#45;&gt;Node2 -->
<g id="edge3_Node000003_Node000002" class="edge">
<title>Node3&#45;&gt;Node2</title>
<g id="a_edge3_Node000003_Node000002"><a xlink:title=" ">
<path fill="none" stroke="#63b8ff" d="M521.5,-439.46C521.67,-439.31 521.83,-439.15 522,-439 566.35,-397.62 579.76,-319.39 582.77,-291.52"/>
<polygon fill="#63b8ff" stroke="#63b8ff" points="519.25,-436.76 513.15,-445.42 523.32,-442.46 519.25,-436.76"/>
</a>
</g>
</g>
<!-- Node4&#45;&gt;Node2 -->
<g id="edge5_Node000004_Node000002" class="edge">
<title>Node4&#45;&gt;Node2</title>
<g id="a_edge5_Node000004_Node000002"><a xlink:title=" ">
<path fill="none" stroke="#63b8ff" d="M512.38,-408.34C515.82,-406.54 519.08,-404.43 522,-402 558.05,-371.96 576.69,-315.07 581.93,-291.62"/>
<polygon fill="#63b8ff" stroke="#63b8ff" points="510.81,-405.2 503,-412.37 513.57,-411.63 510.81,-405.2"/>
</a>
</g>
</g>
<!-- Node5&#45;&gt;Node2 -->
<g id="edge7_Node000005_Node000002" class="edge">
<title>Node5&#45;&gt;Node2</title>
<g id="a_edge7_Node000005_Node000002"><a xlink:title=" ">
<path fill="none" stroke="#63b8ff" d="M509.7,-371.73C514.02,-369.84 518.21,-367.59 522,-365 550.24,-345.64 572.69,-309.83 580.51,-291.71"/>
<polygon fill="#63b8ff" stroke="#63b8ff" points="508.3,-368.52 500.14,-375.27 510.74,-375.08 508.3,-368.52"/>
</a>
</g>
</g>
<!-- Node6&#45;&gt;Node2 -->
<g id="edge10_Node000006_Node000002" class="edge">
<title>Node6&#45;&gt;Node2</title>
<g id="a_edge10_Node000006_Node000002"><a xlink:title=" ">
<path fill="none" stroke="#63b8ff" d="M513.95,-310.99C533.33,-305.19 554.61,-297.72 568.47,-291.57"/>
<polygon fill="#63b8ff" stroke="#63b8ff" points="512.97,-307.63 504.34,-313.77 514.92,-314.36 512.97,-307.63"/>
</a>
</g>
</g>
<!-- Node6&#45;&gt;Node6 -->
<g id="edge9_Node000006_Node000006" class="edge">
<title>Node6&#45;&gt;Node6</title>
<g id="a_edge9_Node000006_Node000006"><a xlink:title=" ">
<path fill="none" stroke="#63b8ff" d="M488.98,-338.05C487.55,-342.88 480.39,-346.5 467.5,-346.5 446.88,-346.5 440.92,-337.23 449.62,-328.58"/>
<polygon fill="#63b8ff" stroke="#63b8ff" points="492.2,-336.69 485.38,-328.58 485.66,-339.17 492.2,-336.69"/>
</a>
</g>
</g>
<!-- Node7&#45;&gt;Node2 -->
<g id="edge12_Node000007_Node000002" class="edge">
<title>Node7&#45;&gt;Node2</title>
<g id="a_edge12_Node000007_Node000002"><a xlink:title=" ">
<path fill="none" stroke="#63b8ff" d="M517.12,-288.68C531.17,-288.91 545.94,-288.59 557.98,-287.72"/>
<polygon fill="#63b8ff" stroke="#63b8ff" points="517.16,-285.18 507.07,-288.41 516.97,-292.18 517.16,-285.18"/>
</a>
</g>
</g>
<!-- Node8&#45;&gt;Node2 -->
<g id="edge14_Node000008_Node000002" class="edge">
<title>Node8&#45;&gt;Node2</title>
<g id="a_edge14_Node000008_Node000002"><a xlink:title=" ">
<path fill="none" stroke="#63b8ff" d="M492.64,-258.39C511.79,-266.02 538.48,-274.64 557.98,-279.51"/>
<polygon fill="#63b8ff" stroke="#63b8ff" points="493.97,-255.15 483.4,-254.51 491.27,-261.6 493.97,-255.15"/>
</a>
</g>
</g>
<!-- Node10 -->
<g id="Node000010" class="node">
<title>Node10</title>
<g id="a_Node000010"><a xlink:href="exec_8c.html#ae65edaa99b26b49d60c451157d38b34a" target="_top" xlink:title="Execute les commandes avec les args donnes.">
<polygon fill="white" stroke="#666666" points="65,-47.5 0,-47.5 0,-28.5 65,-28.5 65,-47.5"/>
<text text-anchor="middle" x="32.5" y="-35.5" font-family="Helvetica,sans-Serif" font-size="10.00">exec_cmd</text>
</a>
</g>
</g>
<!-- Node9&#45;&gt;Node10 -->
<g id="edge16_Node000009_Node000010" class="edge">
<title>Node9&#45;&gt;Node10</title>
<g id="a_edge16_Node000009_Node000010"><a xlink:title=" ">
<path fill="none" stroke="#63b8ff" d="M201.95,-158.58C162.39,-130.26 79.26,-70.76 46.85,-47.55"/>
<polygon fill="#63b8ff" stroke="#63b8ff" points="199.97,-161.46 210.14,-164.44 204.05,-155.77 199.97,-161.46"/>
</a>
</g>
</g>
<!-- Node10&#45;&gt;Node1 -->
<g id="edge17_Node000010_Node000001" class="edge">
<title>Node10&#45;&gt;Node1</title>
<g id="a_edge17_Node000010_Node000001"><a xlink:title=" ">
<path fill="none" stroke="#63b8ff" d="M72.43,-25.53C110.51,-14.45 170.39,0 223.5,0 468.5,0 468.5,0 468.5,0 565.1,0 652.5,-99.45 678.02,-131.31"/>
<polygon fill="#63b8ff" stroke="#63b8ff" points="71.34,-22.2 62.76,-28.41 73.34,-28.91 71.34,-22.2"/>
</a>
</g>
</g>
<!-- Node11&#45;&gt;Node11 -->
<g id="edge21_Node000011_Node000011" class="edge">
<title>Node11&#45;&gt;Node11</title>
<g id="a_edge21_Node000011_Node000011"><a xlink:title=" ">
<path fill="none" stroke="#63b8ff" d="M488.98,-170.05C487.55,-174.88 480.39,-178.5 467.5,-178.5 446.88,-178.5 440.92,-169.23 449.62,-160.58"/>
<polygon fill="#63b8ff" stroke="#63b8ff" points="492.2,-168.69 485.38,-160.58 485.66,-171.17 492.2,-168.69"/>
</a>
</g>
</g>
<!-- Node12 -->
<g id="Node000012" class="node">
<title>Node12</title>
<g id="a_Node000012"><a xlink:href="ast__run_8c.html#a24d0223822f7b635628199085c3283be" target="_top" xlink:title=" ">
<polygon fill="white" stroke="#666666" points="377,-122.5 298,-122.5 298,-103.5 377,-103.5 377,-122.5"/>
<text text-anchor="middle" x="337.5" y="-110.5" font-family="Helvetica,sans-Serif" font-size="10.00">ast_run_pipe</text>
</a>
</g>
</g>
<!-- Node11&#45;&gt;Node12 -->
<g id="edge19_Node000011_Node000012" class="edge">
<title>Node11&#45;&gt;Node12</title>
<g id="a_edge19_Node000011_Node000012"><a xlink:title=" ">
<path fill="none" stroke="#63b8ff" d="M424.85,-138.63C407.25,-133.41 387.08,-127.42 370.67,-122.55"/>
<polygon fill="#63b8ff" stroke="#63b8ff" points="424.28,-142.12 434.86,-141.61 426.27,-135.41 424.28,-142.12"/>
</a>
</g>
</g>
<!-- Node12&#45;&gt;Node2 -->
<g id="edge20_Node000012_Node000002" class="edge">
<title>Node12&#45;&gt;Node2</title>
<g id="a_edge20_Node000012_Node000002"><a xlink:title=" ">
<path fill="none" stroke="#63b8ff" d="M367.33,-99.54C406.32,-83.55 476.22,-62.92 522,-96 580.99,-138.63 584.33,-239.96 583.84,-272.07"/>
<polygon fill="#63b8ff" stroke="#63b8ff" points="365.94,-96.33 358.12,-103.47 368.69,-102.77 365.94,-96.33"/>
</a>
</g>
</g>
<!-- Node15 -->
<g id="Node000015" class="node">
<title>Node15</title>
<g id="a_Node000015"><a xlink:href="dot_8c.html#a713938d3c6ee343132c429642048bcf6" target="_top" xlink:title="Execute the dot builtin cmd.">
<polygon fill="white" stroke="#666666" points="359.5,-47.5 315.5,-47.5 315.5,-28.5 359.5,-28.5 359.5,-47.5"/>
<text text-anchor="middle" x="337.5" y="-35.5" font-family="Helvetica,sans-Serif" font-size="10.00">dot_b</text>
</a>
</g>
</g>
<!-- Node14&#45;&gt;Node15 -->
<g id="edge24_Node000014_Node000015" class="edge">
<title>Node14&#45;&gt;Node15</title>
<g id="a_edge24_Node000014_Node000015"><a xlink:title=" ">
<path fill="none" stroke="#63b8ff" d="M423.02,-38C401.61,-38 376.78,-38 359.6,-38"/>
<polygon fill="#63b8ff" stroke="#63b8ff" points="423.2,-41.5 433.2,-38 423.2,-34.5 423.2,-41.5"/>
</a>
</g>
</g>
<!-- Node16 -->
<g id="Node000016" class="node">
<title>Node16</title>
<g id="a_Node000016"><a xlink:href="exec_8c.html#abaeb177587c7eec6a064b35bb8399cae" target="_top" xlink:title="Execute builtin cmd with given args.">
<polygon fill="white" stroke="#666666" points="262,-47.5 187,-47.5 187,-28.5 262,-28.5 262,-47.5"/>
<text text-anchor="middle" x="224.5" y="-35.5" font-family="Helvetica,sans-Serif" font-size="10.00">exec_builtin</text>
</a>
</g>
</g>
<!-- Node15&#45;&gt;Node16 -->
<g id="edge25_Node000015_Node000016" class="edge">
<title>Node15&#45;&gt;Node16</title>
<g id="a_edge25_Node000015_Node000016"><a xlink:title=" ">
<path fill="none" stroke="#63b8ff" d="M305.23,-38C291.88,-38 276.2,-38 262.3,-38"/>
<polygon fill="#63b8ff" stroke="#63b8ff" points="305.36,-41.5 315.36,-38 305.36,-34.5 305.36,-41.5"/>
</a>
</g>
</g>
<!-- Node17 -->
<g id="Node000017" class="node">
<title>Node17</title>
<g id="a_Node000017"><a xlink:href="exec_8c.html#a287d81b4658832f192750310e2925917" target="_top" xlink:title="Execute the builtin command with given args.">
<polygon fill="white" stroke="#666666" points="151,-47.5 101,-47.5 101,-28.5 151,-28.5 151,-47.5"/>
<text text-anchor="middle" x="126" y="-35.5" font-family="Helvetica,sans-Serif" font-size="10.00">exec_b</text>
</a>
</g>
</g>
<!-- Node16&#45;&gt;Node17 -->
<g id="edge26_Node000016_Node000017" class="edge">
<title>Node16&#45;&gt;Node17</title>
<g id="a_edge26_Node000016_Node000017"><a xlink:title=" ">
<path fill="none" stroke="#63b8ff" d="M176.51,-38C167.71,-38 158.86,-38 151.12,-38"/>
<polygon fill="#63b8ff" stroke="#63b8ff" points="176.74,-41.5 186.74,-38 176.74,-34.5 176.74,-41.5"/>
</a>
</g>
</g>
<!-- Node17&#45;&gt;Node10 -->
<g id="edge27_Node000017_Node000010" class="edge">
<title>Node17&#45;&gt;Node10</title>
<g id="a_edge27_Node000017_Node000010"><a xlink:title=" ">
<path fill="none" stroke="#63b8ff" d="M90.77,-38C82.42,-38 73.53,-38 65.3,-38"/>
<polygon fill="#63b8ff" stroke="#63b8ff" points="90.96,-41.5 100.96,-38 90.96,-34.5 90.96,-41.5"/>
</a>
</g>
</g>
</g>
</svg>
