<?xml version="1.0" encoding="UTF-8" standalone="no"?>
<!DOCTYPE svg PUBLIC "-//W3C//DTD SVG 1.1//EN"
 "http://www.w3.org/Graphics/SVG/1.1/DTD/svg11.dtd">
<!-- Generated by graphviz version 2.43.0 (0)
 -->
<!-- Title: ast_free_for Pages: 1 -->
<svg width="324pt" height="267pt"
 viewBox="0.00 0.00 324.00 267.00" xmlns="http://www.w3.org/2000/svg" xmlns:xlink="http://www.w3.org/1999/xlink">
<g id="graph0" class="graph" transform="scale(1 1) rotate(0) translate(4 263)">
<title>ast_free_for</title>
<!-- Node1 -->
<g id="Node000001" class="node">
<title>Node1</title>
<g id="a_Node000001"><a xlink:title=" ">
<polygon fill="#999999" stroke="#666666" points="75,-130 0,-130 0,-111 75,-111 75,-130"/>
<text text-anchor="middle" x="37.5" y="-118" font-family="Helvetica,sans-Serif" font-size="10.00">ast_free_for</text>
</a>
</g>
</g>
<!-- Node2 -->
<g id="Node000002" class="node">
<title>Node2</title>
<g id="a_Node000002"><a xlink:href="ast_8c.html#adbd51ee24d251e4506b1163864d7fd64" target="_top" xlink:title=" ">
<polygon fill="white" stroke="#666666" points="167,-130 111,-130 111,-111 167,-111 167,-130"/>
<text text-anchor="middle" x="139" y="-118" font-family="Helvetica,sans-Serif" font-size="10.00">free_ast</text>
</a>
</g>
</g>
<!-- Node1&#45;&gt;Node2 -->
<g id="edge1_Node000001_Node000002" class="edge">
<title>Node1&#45;&gt;Node2</title>
<g id="a_edge1_Node000001_Node000002"><a xlink:title=" ">
<path fill="none" stroke="#63b8ff" d="M75.27,-113.96C83.52,-113.69 92.28,-113.68 100.56,-113.94"/>
<polygon fill="#63b8ff" stroke="#63b8ff" points="100.56,-117.44 110.71,-114.4 100.89,-110.45 100.56,-117.44"/>
</a>
</g>
</g>
<!-- Node2&#45;&gt;Node1 -->
<g id="edge5_Node000002_Node000001" class="edge">
<title>Node2&#45;&gt;Node1</title>
<g id="a_edge5_Node000002_Node000001"><a xlink:title=" ">
<path fill="none" stroke="#63b8ff" d="M110.71,-126.6C102.85,-127.09 94.04,-127.3 85.35,-127.24"/>
<polygon fill="#63b8ff" stroke="#63b8ff" points="85.33,-123.74 75.27,-127.04 85.2,-130.74 85.33,-123.74"/>
</a>
</g>
</g>
<!-- Node3 -->
<g id="Node000003" class="node">
<title>Node3</title>
<g id="a_Node000003"><a xlink:href="ast__free_8c.html#a80edc240f8b3b576efc19e8465449822" target="_top" xlink:title=" ">
<polygon fill="white" stroke="#666666" points="307,-259 212,-259 212,-240 307,-240 307,-259"/>
<text text-anchor="middle" x="259.5" y="-247" font-family="Helvetica,sans-Serif" font-size="10.00">ast_free_and_or</text>
</a>
</g>
</g>
<!-- Node2&#45;&gt;Node3 -->
<g id="edge2_Node000002_Node000003" class="edge">
<title>Node2&#45;&gt;Node3</title>
<g id="a_edge2_Node000002_Node000003"><a xlink:title=" ">
<path fill="none" stroke="#63b8ff" d="M144.65,-130.13C152.68,-150.66 171.4,-196.73 203,-222.5 211.42,-229.37 222.53,-233.64 232.59,-236.95"/>
<polygon fill="#63b8ff" stroke="#63b8ff" points="231.58,-240.3 242.17,-239.99 233.7,-233.63 231.58,-240.3"/>
</a>
</g>
</g>
<!-- Node4 -->
<g id="Node000004" class="node">
<title>Node4</title>
<g id="a_Node000004"><a xlink:href="ast__free_8c.html#a9330029530c792a2570859c41fea1f87" target="_top" xlink:title=" ">
<polygon fill="white" stroke="#666666" points="301,-222 218,-222 218,-203 301,-203 301,-222"/>
<text text-anchor="middle" x="259.5" y="-210" font-family="Helvetica,sans-Serif" font-size="10.00">ast_free_cmd</text>
</a>
</g>
</g>
<!-- Node2&#45;&gt;Node4 -->
<g id="edge4_Node000002_Node000004" class="edge">
<title>Node2&#45;&gt;Node4</title>
<g id="a_edge4_Node000002_Node000004"><a xlink:title=" ">
<path fill="none" stroke="#63b8ff" d="M145.7,-130.16C155.48,-145.89 176.92,-177.05 203,-194.5 205.29,-196.03 207.72,-197.44 210.23,-198.74"/>
<polygon fill="#63b8ff" stroke="#63b8ff" points="209.04,-202.04 219.6,-202.95 211.91,-195.65 209.04,-202.04"/>
</a>
</g>
</g>
<!-- Node5 -->
<g id="Node000005" class="node">
<title>Node5</title>
<g id="a_Node000005"><a xlink:href="ast__free_8c.html#abfce6009bf2f91da322878514d9209c0" target="_top" xlink:title=" ">
<polygon fill="white" stroke="#666666" points="293.5,-185 225.5,-185 225.5,-166 293.5,-166 293.5,-185"/>
<text text-anchor="middle" x="259.5" y="-173" font-family="Helvetica,sans-Serif" font-size="10.00">ast_free_if</text>
</a>
</g>
</g>
<!-- Node2&#45;&gt;Node5 -->
<g id="edge6_Node000002_Node000005" class="edge">
<title>Node2&#45;&gt;Node5</title>
<g id="a_edge6_Node000002_Node000005"><a xlink:title=" ">
<path fill="none" stroke="#63b8ff" d="M167.22,-129.86C178.07,-135.84 190.85,-143.04 203,-148.5 214.2,-153.53 227.24,-157.84 237.87,-161.93"/>
<polygon fill="#63b8ff" stroke="#63b8ff" points="236.6,-165.19 247.18,-165.8 239.29,-158.73 236.6,-165.19"/>
</a>
</g>
</g>
<!-- Node6 -->
<g id="Node000006" class="node">
<title>Node6</title>
<g id="a_Node000006"><a xlink:href="ast__free_8c.html#a654d27b37151693d221d215450efe6bb" target="_top" xlink:title=" ">
<polygon fill="white" stroke="#666666" points="298,-130 221,-130 221,-111 298,-111 298,-130"/>
<text text-anchor="middle" x="259.5" y="-118" font-family="Helvetica,sans-Serif" font-size="10.00">ast_free_list</text>
</a>
</g>
</g>
<!-- Node2&#45;&gt;Node6 -->
<g id="edge8_Node000002_Node000006" class="edge">
<title>Node2&#45;&gt;Node6</title>
<g id="a_edge8_Node000002_Node000006"><a xlink:title=" ">
<path fill="none" stroke="#63b8ff" d="M167.19,-114.72C180.07,-113.85 195.84,-113.57 210.63,-113.86"/>
<polygon fill="#63b8ff" stroke="#63b8ff" points="210.57,-117.36 220.66,-114.16 210.77,-110.36 210.57,-117.36"/>
</a>
</g>
</g>
<!-- Node7 -->
<g id="Node000007" class="node">
<title>Node7</title>
<g id="a_Node000007"><a xlink:href="ast__free_8c.html#a09f3dd857c6d405a4e1b2e3109a1d3df" target="_top" xlink:title=" ">
<polygon fill="white" stroke="#666666" points="301,-93 218,-93 218,-74 301,-74 301,-93"/>
<text text-anchor="middle" x="259.5" y="-81" font-family="Helvetica,sans-Serif" font-size="10.00">ast_free_loop</text>
</a>
</g>
</g>
<!-- Node2&#45;&gt;Node7 -->
<g id="edge11_Node000002_Node000007" class="edge">
<title>Node2&#45;&gt;Node7</title>
<g id="a_edge11_Node000002_Node000007"><a xlink:title=" ">
<path fill="none" stroke="#63b8ff" d="M155.49,-110.93C168.9,-105.16 189.07,-98.21 208.01,-92.58"/>
<polygon fill="#63b8ff" stroke="#63b8ff" points="209.12,-95.9 217.76,-89.77 207.18,-89.18 209.12,-95.9"/>
</a>
</g>
</g>
<!-- Node8 -->
<g id="Node000008" class="node">
<title>Node8</title>
<g id="a_Node000008"><a xlink:href="ast__free_8c.html#a50c5d556b19bcd99345d42797422afbc" target="_top" xlink:title=" ">
<polygon fill="white" stroke="#666666" points="301,-56 218,-56 218,-37 301,-37 301,-56"/>
<text text-anchor="middle" x="259.5" y="-44" font-family="Helvetica,sans-Serif" font-size="10.00">ast_free_pipe</text>
</a>
</g>
</g>
<!-- Node2&#45;&gt;Node8 -->
<g id="edge13_Node000002_Node000008" class="edge">
<title>Node2&#45;&gt;Node8</title>
<g id="a_edge13_Node000002_Node000008"><a xlink:title=" ">
<path fill="none" stroke="#63b8ff" d="M144.4,-110.69C154.03,-95.92 178.11,-70.88 203,-56.5 204.75,-55.49 206.57,-54.52 208.43,-53.59"/>
<polygon fill="#63b8ff" stroke="#63b8ff" points="210.23,-56.62 217.97,-49.38 207.41,-50.22 210.23,-56.62"/>
</a>
</g>
</g>
<!-- Node9 -->
<g id="Node000009" class="node">
<title>Node9</title>
<g id="a_Node000009"><a xlink:href="ast__free_8c.html#a6e033482de30aca56f1b66190b9a481c" target="_top" xlink:title=" ">
<polygon fill="white" stroke="#666666" points="316,-19 203,-19 203,0 316,0 316,-19"/>
<text text-anchor="middle" x="259.5" y="-7" font-family="Helvetica,sans-Serif" font-size="10.00">ast_free_shell_redir</text>
</a>
</g>
</g>
<!-- Node2&#45;&gt;Node9 -->
<g id="edge15_Node000002_Node000009" class="edge">
<title>Node2&#45;&gt;Node9</title>
<g id="a_edge15_Node000002_Node000009"><a xlink:title=" ">
<path fill="none" stroke="#63b8ff" d="M142.33,-110.71C148.62,-91.53 167.35,-51.34 195.67,-25.65"/>
<polygon fill="#63b8ff" stroke="#63b8ff" points="198.05,-28.22 203.49,-19.13 193.57,-22.84 198.05,-28.22"/>
</a>
</g>
</g>
<!-- Node3&#45;&gt;Node2 -->
<g id="edge3_Node000003_Node000002" class="edge">
<title>Node3&#45;&gt;Node2</title>
<g id="a_edge3_Node000003_Node000002"><a xlink:title=" ">
<path fill="none" stroke="#63b8ff" d="M211.97,-246.4C208.78,-244.7 205.75,-242.74 203,-240.5 170.85,-214.28 152.03,-167.05 144.24,-140.04"/>
<polygon fill="#63b8ff" stroke="#63b8ff" points="147.56,-138.92 141.64,-130.13 140.79,-140.7 147.56,-138.92"/>
</a>
</g>
</g>
<!-- Node5&#45;&gt;Node2 -->
<g id="edge7_Node000005_Node000002" class="edge">
<title>Node5&#45;&gt;Node2</title>
<g id="a_edge7_Node000005_Node000002"><a xlink:title=" ">
<path fill="none" stroke="#63b8ff" d="M225.48,-174.85C217.97,-172.6 210.11,-169.7 203,-166.5 185.5,-158.63 166.68,-147.14 154.21,-137.2"/>
<polygon fill="#63b8ff" stroke="#63b8ff" points="156.19,-134.28 146.37,-130.31 151.57,-139.54 156.19,-134.28"/>
</a>
</g>
</g>
<!-- Node6&#45;&gt;Node2 -->
<g id="edge10_Node000006_Node000002" class="edge">
<title>Node6&#45;&gt;Node2</title>
<g id="a_edge10_Node000006_Node000002"><a xlink:title=" ">
<path fill="none" stroke="#63b8ff" d="M220.66,-126.84C206.81,-127.39 191.14,-127.39 177.33,-126.82"/>
<polygon fill="#63b8ff" stroke="#63b8ff" points="177.36,-123.32 167.19,-126.28 176.99,-130.31 177.36,-123.32"/>
</a>
</g>
</g>
<!-- Node6&#45;&gt;Node6 -->
<g id="edge9_Node000006_Node000006" class="edge">
<title>Node6&#45;&gt;Node6</title>
<g id="a_edge9_Node000006_Node000006"><a xlink:title=" ">
<path fill="none" stroke="#63b8ff" d="M241,-130.08C232.01,-138.73 238.17,-148 259.5,-148 272.83,-148 280.24,-144.38 281.72,-139.55"/>
<polygon fill="#63b8ff" stroke="#63b8ff" points="284.91,-138.11 278,-130.08 278.4,-140.67 284.91,-138.11"/>
</a>
</g>
</g>
<!-- Node7&#45;&gt;Node2 -->
<g id="edge12_Node000007_Node000002" class="edge">
<title>Node7&#45;&gt;Node2</title>
<g id="a_edge12_Node000007_Node000002"><a xlink:title=" ">
<path fill="none" stroke="#63b8ff" d="M243.05,-93.05C226.38,-100.23 199.25,-109.23 177.01,-115.25"/>
<polygon fill="#63b8ff" stroke="#63b8ff" points="175.99,-111.9 167.19,-117.79 177.74,-118.68 175.99,-111.9"/>
</a>
</g>
</g>
<!-- Node8&#45;&gt;Node2 -->
<g id="edge14_Node000008_Node000002" class="edge">
<title>Node8&#45;&gt;Node2</title>
<g id="a_edge14_Node000008_Node000002"><a xlink:title=" ">
<path fill="none" stroke="#63b8ff" d="M246.45,-56.07C234.81,-61.1 216.93,-66.45 203,-74.5 188.73,-82.74 174.74,-94.48 163.58,-104.21"/>
<polygon fill="#63b8ff" stroke="#63b8ff" points="161.2,-101.65 155.99,-110.87 165.81,-106.91 161.2,-101.65"/>
</a>
</g>
</g>
<!-- Node9&#45;&gt;Node2 -->
<g id="edge16_Node000009_Node000002" class="edge">
<title>Node9&#45;&gt;Node2</title>
<g id="a_edge16_Node000009_Node000002"><a xlink:title=" ">
<path fill="none" stroke="#63b8ff" d="M244.09,-19.01C232.12,-23.32 215.16,-28.25 203,-37.5 180.04,-54.96 162.46,-83.27 151.78,-102.1"/>
<polygon fill="#63b8ff" stroke="#63b8ff" points="148.64,-100.54 146.83,-110.98 154.76,-103.95 148.64,-100.54"/>
</a>
</g>
</g>
</g>
</svg>
