<?xml version="1.0" encoding="UTF-8" standalone="no"?>
<!DOCTYPE svg PUBLIC "-//W3C//DTD SVG 1.1//EN"
 "http://www.w3.org/Graphics/SVG/1.1/DTD/svg11.dtd">
<!-- Generated by graphviz version 2.43.0 (0)
 -->
<!-- Title: init_ast_list Pages: 1 -->
<svg width="2473pt" height="555pt"
 viewBox="0.00 0.00 2473.00 554.50" xmlns="http://www.w3.org/2000/svg" xmlns:xlink="http://www.w3.org/1999/xlink">
<g id="graph0" class="graph" transform="scale(1 1) rotate(0) translate(4 550.5)">
<title>init_ast_list</title>
<!-- Node1 -->
<g id="Node000001" class="node">
<title>Node1</title>
<g id="a_Node000001"><a xlink:title=" ">
<polygon fill="#999999" stroke="#666666" points="2465,-275.5 2392,-275.5 2392,-256.5 2465,-256.5 2465,-275.5"/>
<text text-anchor="middle" x="2428.5" y="-263.5" font-family="Helvetica,sans-Serif" font-size="10.00">init_ast_list</text>
</a>
</g>
</g>
<!-- Node2 -->
<g id="Node000002" class="node">
<title>Node2</title>
<g id="a_Node000002"><a xlink:href="parser_8c.html#a620dffcc9a167cdee6e67de1191e5277" target="_top" xlink:title="Parse the input of our shell into list.">
<polygon fill="white" stroke="#666666" points="993,-370.5 946,-370.5 946,-351.5 993,-351.5 993,-370.5"/>
<text text-anchor="middle" x="969.5" y="-358.5" font-family="Helvetica,sans-Serif" font-size="10.00">parser</text>
</a>
</g>
</g>
<!-- Node1&#45;&gt;Node2 -->
<g id="edge1_Node000001_Node000002" class="edge">
<title>Node1&#45;&gt;Node2</title>
<g id="a_edge1_Node000001_Node000002"><a xlink:title=" ">
<path fill="none" stroke="#63b8ff" d="M2412.32,-283.43C2398.91,-297.76 2378.08,-317.5 2356,-329 2270.62,-373.45 2241.76,-380 2145.5,-380 2145.5,-380 2145.5,-380 1175,-380 1108.68,-380 1030.78,-369.97 993.13,-364.48"/>
<polygon fill="#63b8ff" stroke="#63b8ff" points="2415.19,-285.48 2419.32,-275.72 2410.01,-280.78 2415.19,-285.48"/>
</a>
</g>
</g>
<!-- Node20 -->
<g id="Node000020" class="node">
<title>Node20</title>
<g id="a_Node000020"><a xlink:href="parser__lists_8c.html#aae7a5d6760b83c1a37b0369f82a20500" target="_top" xlink:title="Absorb a chain of and_or separeted by &#39;;&#39; or &#39; &#39;.">
<polygon fill="white" stroke="#666666" points="2356,-199.5 2232,-199.5 2232,-180.5 2356,-180.5 2356,-199.5"/>
<text text-anchor="middle" x="2294" y="-187.5" font-family="Helvetica,sans-Serif" font-size="10.00">parser_compound_list</text>
</a>
</g>
</g>
<!-- Node1&#45;&gt;Node20 -->
<g id="edge31_Node000001_Node000020" class="edge">
<title>Node1&#45;&gt;Node20</title>
<g id="a_edge31_Node000001_Node000020"><a xlink:title=" ">
<path fill="none" stroke="#63b8ff" d="M2401.95,-251.35C2375.32,-236.07 2334.37,-212.58 2311.64,-199.55"/>
<polygon fill="#63b8ff" stroke="#63b8ff" points="2400.3,-254.44 2410.72,-256.37 2403.79,-248.36 2400.3,-254.44"/>
</a>
</g>
</g>
<!-- Node28 -->
<g id="Node000028" class="node">
<title>Node28</title>
<g id="a_Node000028"><a xlink:href="parser__lists_8c.html#a7b9812922acfb4eba24e65d40bd99001" target="_top" xlink:title="Parse list block into sub and_or block(s) separated by semi&#45;colons.">
<polygon fill="white" stroke="#666666" points="1097,-351.5 1029,-351.5 1029,-332.5 1097,-332.5 1097,-351.5"/>
<text text-anchor="middle" x="1063" y="-339.5" font-family="Helvetica,sans-Serif" font-size="10.00">parser_list</text>
</a>
</g>
</g>
<!-- Node1&#45;&gt;Node28 -->
<g id="edge56_Node000001_Node000028" class="edge">
<title>Node1&#45;&gt;Node28</title>
<g id="a_edge56_Node000001_Node000028"><a xlink:title=" ">
<path fill="none" stroke="#63b8ff" d="M2397.39,-279.74C2346.58,-301.64 2240.1,-342 2145.5,-342 2145.5,-342 2145.5,-342 1300,-342 1227.68,-342 1142.9,-342 1097.22,-342"/>
<polygon fill="#63b8ff" stroke="#63b8ff" points="2399.04,-282.84 2406.79,-275.63 2396.23,-276.43 2399.04,-282.84"/>
</a>
</g>
</g>
<!-- Node29 -->
<g id="Node000029" class="node">
<title>Node29</title>
<g id="a_Node000029"><a xlink:href="parser__commands_8c.html#a14408e6904da17fc6899bba03f7a5f5a" target="_top" xlink:title="Handle a function definition and add it to the dictionnary.">
<polygon fill="white" stroke="#666666" points="1604,-104.5 1520,-104.5 1520,-85.5 1604,-85.5 1604,-104.5"/>
<text text-anchor="middle" x="1562" y="-92.5" font-family="Helvetica,sans-Serif" font-size="10.00">parser_fundef</text>
</a>
</g>
</g>
<!-- Node1&#45;&gt;Node29 -->
<g id="edge55_Node000001_Node000029" class="edge">
<title>Node1&#45;&gt;Node29</title>
<g id="a_edge55_Node000001_Node000029"><a xlink:title=" ">
<path fill="none" stroke="#63b8ff" d="M2418.9,-246.97C2389.92,-186.08 2289.6,0 2145.5,0 2145.5,0 2145.5,0 1850,0 1742.14,0 1622.51,-61.22 1579.51,-85.37"/>
<polygon fill="#63b8ff" stroke="#63b8ff" points="2415.81,-248.63 2423.2,-256.22 2422.15,-245.67 2415.81,-248.63"/>
</a>
</g>
</g>
<!-- Node3 -->
<g id="Node000003" class="node">
<title>Node3</title>
<g id="a_Node000003"><a xlink:href="42sh_8c.html#a3c04138a5bfe5d72780bb7e82a18e627" target="_top" xlink:title=" ">
<polygon fill="white" stroke="#666666" points="190,-546.5 149,-546.5 149,-527.5 190,-527.5 190,-546.5"/>
<text text-anchor="middle" x="169.5" y="-534.5" font-family="Helvetica,sans-Serif" font-size="10.00">main</text>
</a>
</g>
</g>
<!-- Node2&#45;&gt;Node3 -->
<g id="edge2_Node000002_Node000003" class="edge">
<title>Node2&#45;&gt;Node3</title>
<g id="a_edge2_Node000002_Node000003"><a xlink:title=" ">
<path fill="none" stroke="#63b8ff" d="M935.71,-369.07C899.18,-377.34 838.24,-389 785,-389 785,-389 785,-389 387.5,-389 294.66,-389 305.55,-474.64 224,-519 213.41,-524.76 200.65,-529.14 190.24,-532.14"/>
<polygon fill="#63b8ff" stroke="#63b8ff" points="936.83,-372.4 945.78,-366.73 935.25,-365.58 936.83,-372.4"/>
</a>
</g>
</g>
<!-- Node4 -->
<g id="Node000004" class="node">
<title>Node4</title>
<g id="a_Node000004"><a xlink:href="dot_8c.html#a17477ee2b0f1b8b9306566c990d15b35" target="_top" xlink:title="Main loop of dot builtin.">
<polygon fill="white" stroke="#666666" points="910,-351.5 842,-351.5 842,-332.5 910,-332.5 910,-351.5"/>
<text text-anchor="middle" x="876" y="-339.5" font-family="Helvetica,sans-Serif" font-size="10.00">main_loop</text>
</a>
</g>
</g>
<!-- Node2&#45;&gt;Node4 -->
<g id="edge3_Node000002_Node000004" class="edge">
<title>Node2&#45;&gt;Node4</title>
<g id="a_edge3_Node000002_Node000004"><a xlink:title=" ">
<path fill="none" stroke="#63b8ff" d="M936.02,-354.26C927.6,-352.51 918.52,-350.62 910.07,-348.87"/>
<polygon fill="#63b8ff" stroke="#63b8ff" points="935.38,-357.7 945.88,-356.3 936.8,-350.84 935.38,-357.7"/>
</a>
</g>
</g>
<!-- Node5 -->
<g id="Node000005" class="node">
<title>Node5</title>
<g id="a_Node000005"><a xlink:href="dot_8c.html#a713938d3c6ee343132c429642048bcf6" target="_top" xlink:title="Execute the dot builtin cmd.">
<polygon fill="white" stroke="#666666" points="806,-313.5 762,-313.5 762,-294.5 806,-294.5 806,-313.5"/>
<text text-anchor="middle" x="784" y="-301.5" font-family="Helvetica,sans-Serif" font-size="10.00">dot_b</text>
</a>
</g>
</g>
<!-- Node4&#45;&gt;Node5 -->
<g id="edge4_Node000004_Node000005" class="edge">
<title>Node4&#45;&gt;Node5</title>
<g id="a_edge4_Node000004_Node000005"><a xlink:title=" ">
<path fill="none" stroke="#63b8ff" d="M842.88,-328.44C830.68,-323.29 817.1,-317.55 806.16,-312.93"/>
<polygon fill="#63b8ff" stroke="#63b8ff" points="841.72,-331.75 852.29,-332.41 844.44,-325.3 841.72,-331.75"/>
</a>
</g>
</g>
<!-- Node6 -->
<g id="Node000006" class="node">
<title>Node6</title>
<g id="a_Node000006"><a xlink:href="exec_8c.html#abaeb177587c7eec6a064b35bb8399cae" target="_top" xlink:title="Execute builtin cmd with given args.">
<polygon fill="white" stroke="#666666" points="726,-313.5 651,-313.5 651,-294.5 726,-294.5 726,-313.5"/>
<text text-anchor="middle" x="688.5" y="-301.5" font-family="Helvetica,sans-Serif" font-size="10.00">exec_builtin</text>
</a>
</g>
</g>
<!-- Node5&#45;&gt;Node6 -->
<g id="edge5_Node000005_Node000006" class="edge">
<title>Node5&#45;&gt;Node6</title>
<g id="a_edge5_Node000005_Node000006"><a xlink:title=" ">
<path fill="none" stroke="#63b8ff" d="M751.53,-304C743.35,-304 734.47,-304 726.05,-304"/>
<polygon fill="#63b8ff" stroke="#63b8ff" points="751.78,-307.5 761.78,-304 751.78,-300.5 751.78,-307.5"/>
</a>
</g>
</g>
<!-- Node7 -->
<g id="Node000007" class="node">
<title>Node7</title>
<g id="a_Node000007"><a xlink:href="exec_8c.html#a287d81b4658832f192750310e2925917" target="_top" xlink:title="Execute the builtin command with given args.">
<polygon fill="white" stroke="#666666" points="615,-313.5 565,-313.5 565,-294.5 615,-294.5 615,-313.5"/>
<text text-anchor="middle" x="590" y="-301.5" font-family="Helvetica,sans-Serif" font-size="10.00">exec_b</text>
</a>
</g>
</g>
<!-- Node6&#45;&gt;Node7 -->
<g id="edge6_Node000006_Node000007" class="edge">
<title>Node6&#45;&gt;Node7</title>
<g id="a_edge6_Node000006_Node000007"><a xlink:title=" ">
<path fill="none" stroke="#63b8ff" d="M640.51,-304C631.71,-304 622.86,-304 615.12,-304"/>
<polygon fill="#63b8ff" stroke="#63b8ff" points="640.74,-307.5 650.74,-304 640.74,-300.5 640.74,-307.5"/>
</a>
</g>
</g>
<!-- Node8 -->
<g id="Node000008" class="node">
<title>Node8</title>
<g id="a_Node000008"><a xlink:href="exec_8c.html#ae65edaa99b26b49d60c451157d38b34a" target="_top" xlink:title="Execute les commandes avec les args donnes.">
<polygon fill="white" stroke="#666666" points="529,-313.5 464,-313.5 464,-294.5 529,-294.5 529,-313.5"/>
<text text-anchor="middle" x="496.5" y="-301.5" font-family="Helvetica,sans-Serif" font-size="10.00">exec_cmd</text>
</a>
</g>
</g>
<!-- Node7&#45;&gt;Node8 -->
<g id="edge7_Node000007_Node000008" class="edge">
<title>Node7&#45;&gt;Node8</title>
<g id="a_edge7_Node000007_Node000008"><a xlink:title=" ">
<path fill="none" stroke="#63b8ff" d="M554.77,-304C546.42,-304 537.53,-304 529.3,-304"/>
<polygon fill="#63b8ff" stroke="#63b8ff" points="554.96,-307.5 564.96,-304 554.96,-300.5 554.96,-307.5"/>
</a>
</g>
</g>
<!-- Node9 -->
<g id="Node000009" class="node">
<title>Node9</title>
<g id="a_Node000009"><a xlink:href="ast__run_8c.html#aeb6878a59c6907e5669fc3cc428913d9" target="_top" xlink:title=" ">
<polygon fill="white" stroke="#666666" points="428,-313.5 349,-313.5 349,-294.5 428,-294.5 428,-313.5"/>
<text text-anchor="middle" x="388.5" y="-301.5" font-family="Helvetica,sans-Serif" font-size="10.00">ast_run_cmd</text>
</a>
</g>
</g>
<!-- Node8&#45;&gt;Node9 -->
<g id="edge8_Node000008_Node000009" class="edge">
<title>Node8&#45;&gt;Node9</title>
<g id="a_edge8_Node000008_Node000009"><a xlink:title=" ">
<path fill="none" stroke="#63b8ff" d="M453.92,-304C445.45,-304 436.58,-304 428.21,-304"/>
<polygon fill="#63b8ff" stroke="#63b8ff" points="453.98,-307.5 463.98,-304 453.98,-300.5 453.98,-307.5"/>
</a>
</g>
</g>
<!-- Node10 -->
<g id="Node000010" class="node">
<title>Node10</title>
<g id="a_Node000010"><a xlink:href="ast_8c.html#a572345b2707780bbbc5bbaacdca9c372" target="_top" xlink:title=" ">
<polygon fill="white" stroke="#666666" points="313,-341.5 260,-341.5 260,-322.5 313,-322.5 313,-341.5"/>
<text text-anchor="middle" x="286.5" y="-329.5" font-family="Helvetica,sans-Serif" font-size="10.00">run_ast</text>
</a>
</g>
</g>
<!-- Node9&#45;&gt;Node10 -->
<g id="edge9_Node000009_Node000010" class="edge">
<title>Node9&#45;&gt;Node10</title>
<g id="a_edge9_Node000009_Node000010"><a xlink:title=" ">
<path fill="none" stroke="#63b8ff" d="M343.6,-316.29C333.24,-319.19 322.53,-322.19 313.27,-324.78"/>
<polygon fill="#63b8ff" stroke="#63b8ff" points="344.68,-319.62 353.37,-313.56 342.79,-312.88 344.68,-319.62"/>
</a>
</g>
</g>
<!-- Node10&#45;&gt;Node3 -->
<g id="edge29_Node000010_Node000003" class="edge">
<title>Node10&#45;&gt;Node3</title>
<g id="a_edge29_Node000010_Node000003"><a xlink:title=" ">
<path fill="none" stroke="#63b8ff" d="M273.03,-350.34C268.42,-357.75 263.48,-366.53 260,-375 234.91,-436.01 268.76,-470.53 224,-519 215.29,-528.43 201.49,-532.92 190.08,-535.06"/>
<polygon fill="#63b8ff" stroke="#63b8ff" points="276.05,-352.11 278.55,-341.82 270.17,-348.31 276.05,-352.11"/>
</a>
</g>
</g>
<!-- Node10&#45;&gt;Node4 -->
<g id="edge30_Node000010_Node000004" class="edge">
<title>Node10&#45;&gt;Node4</title>
<g id="a_edge30_Node000010_Node000004"><a xlink:title=" ">
<path fill="none" stroke="#63b8ff" d="M323.23,-334.76C364.65,-337.72 434.97,-342 495.5,-342 689.5,-342 689.5,-342 689.5,-342 742.8,-342 804.71,-342 841.83,-342"/>
<polygon fill="#63b8ff" stroke="#63b8ff" points="323.33,-331.26 313.1,-334.02 322.82,-338.24 323.33,-331.26"/>
</a>
</g>
</g>
<!-- Node11 -->
<g id="Node000011" class="node">
<title>Node11</title>
<g id="a_Node000011"><a xlink:href="ast__run_8c.html#a8a01fec616135007fc5b3968a101901b" target="_top" xlink:title=" ">
<polygon fill="white" stroke="#666666" points="215,-378.5 124,-378.5 124,-359.5 215,-359.5 215,-378.5"/>
<text text-anchor="middle" x="169.5" y="-366.5" font-family="Helvetica,sans-Serif" font-size="10.00">ast_run_and_or</text>
</a>
</g>
</g>
<!-- Node10&#45;&gt;Node11 -->
<g id="edge10_Node000010_Node000011" class="edge">
<title>Node10&#45;&gt;Node11</title>
<g id="a_edge10_Node000010_Node000011"><a xlink:title=" ">
<path fill="none" stroke="#63b8ff" d="M250.09,-337.11C228.37,-343.14 201.69,-352.25 185.4,-359.49"/>
<polygon fill="#63b8ff" stroke="#63b8ff" points="251.21,-340.43 259.98,-334.49 249.42,-333.66 251.21,-340.43"/>
</a>
</g>
</g>
<!-- Node12 -->
<g id="Node000012" class="node">
<title>Node12</title>
<g id="a_Node000012"><a xlink:href="ast__run_8c.html#a9d83d4834a61ffe21eb77838d70ae173" target="_top" xlink:title=" ">
<polygon fill="white" stroke="#666666" points="205,-341.5 134,-341.5 134,-322.5 205,-322.5 205,-341.5"/>
<text text-anchor="middle" x="169.5" y="-329.5" font-family="Helvetica,sans-Serif" font-size="10.00">ast_run_for</text>
</a>
</g>
</g>
<!-- Node10&#45;&gt;Node12 -->
<g id="edge12_Node000010_Node000012" class="edge">
<title>Node10&#45;&gt;Node12</title>
<g id="a_edge12_Node000010_Node000012"><a xlink:title=" ">
<path fill="none" stroke="#63b8ff" d="M249.6,-325.69C235.41,-325.08 219.17,-325.1 205.11,-325.75"/>
<polygon fill="#63b8ff" stroke="#63b8ff" points="249.8,-329.21 259.98,-326.28 250.19,-322.22 249.8,-329.21"/>
</a>
</g>
</g>
<!-- Node13 -->
<g id="Node000013" class="node">
<title>Node13</title>
<g id="a_Node000013"><a xlink:href="ast__run_8c.html#a0a7138b1f2608ea36211c9b78988c248" target="_top" xlink:title=" ">
<polygon fill="white" stroke="#666666" points="202,-304.5 137,-304.5 137,-285.5 202,-285.5 202,-304.5"/>
<text text-anchor="middle" x="169.5" y="-292.5" font-family="Helvetica,sans-Serif" font-size="10.00">ast_run_if</text>
</a>
</g>
</g>
<!-- Node10&#45;&gt;Node13 -->
<g id="edge14_Node000010_Node000013" class="edge">
<title>Node10&#45;&gt;Node13</title>
<g id="a_edge14_Node000010_Node000013"><a xlink:title=" ">
<path fill="none" stroke="#63b8ff" d="M261.1,-318.51C243.88,-311.66 220.65,-304.04 202.03,-299.05"/>
<polygon fill="#63b8ff" stroke="#63b8ff" points="259.89,-321.8 270.47,-322.43 262.59,-315.34 259.89,-321.8"/>
</a>
</g>
</g>
<!-- Node14 -->
<g id="Node000014" class="node">
<title>Node14</title>
<g id="a_Node000014"><a xlink:href="ast__run_8c.html#ae25cd3ced8abafd76110dba8852a6b87" target="_top" xlink:title=" ">
<polygon fill="white" stroke="#666666" points="206,-249.5 133,-249.5 133,-230.5 206,-230.5 206,-249.5"/>
<text text-anchor="middle" x="169.5" y="-237.5" font-family="Helvetica,sans-Serif" font-size="10.00">ast_run_list</text>
</a>
</g>
</g>
<!-- Node10&#45;&gt;Node14 -->
<g id="edge16_Node000010_Node000014" class="edge">
<title>Node10&#45;&gt;Node14</title>
<g id="a_edge16_Node000010_Node000014"><a xlink:title=" ">
<path fill="none" stroke="#63b8ff" d="M274.23,-314.1C262.22,-300.1 242.44,-281.47 224,-267 216.25,-260.92 207.51,-254.76 199.37,-249.67"/>
<polygon fill="#63b8ff" stroke="#63b8ff" points="271.65,-316.49 280.62,-322.13 277.13,-312.13 271.65,-316.49"/>
</a>
</g>
</g>
<!-- Node15 -->
<g id="Node000015" class="node">
<title>Node15</title>
<g id="a_Node000015"><a xlink:href="ast__run_8c.html#a536f37ba9bffcd2099fef668656181e0" target="_top" xlink:title=" ">
<polygon fill="white" stroke="#666666" points="209,-212.5 130,-212.5 130,-193.5 209,-193.5 209,-212.5"/>
<text text-anchor="middle" x="169.5" y="-200.5" font-family="Helvetica,sans-Serif" font-size="10.00">ast_run_loop</text>
</a>
</g>
</g>
<!-- Node10&#45;&gt;Node15 -->
<g id="edge19_Node000010_Node000015" class="edge">
<title>Node10&#45;&gt;Node15</title>
<g id="a_edge19_Node000010_Node000015"><a xlink:title=" ">
<path fill="none" stroke="#63b8ff" d="M281.43,-312.5C273.92,-285.55 255.69,-238.4 224,-212 219.63,-208.36 214.5,-205.45 209.17,-203.22"/>
<polygon fill="#63b8ff" stroke="#63b8ff" points="278.08,-313.55 283.93,-322.38 284.87,-311.83 278.08,-313.55"/>
</a>
</g>
</g>
<!-- Node16 -->
<g id="Node000016" class="node">
<title>Node16</title>
<g id="a_Node000016"><a xlink:href="ast__run_8c.html#aa3e6a973e744d748ee415840596beb53" target="_top" xlink:title=" ">
<polygon fill="white" stroke="#666666" points="224,-509.5 115,-509.5 115,-490.5 224,-490.5 224,-509.5"/>
<text text-anchor="middle" x="169.5" y="-497.5" font-family="Helvetica,sans-Serif" font-size="10.00">ast_run_shell_redir</text>
</a>
</g>
</g>
<!-- Node10&#45;&gt;Node16 -->
<g id="edge21_Node000010_Node000016" class="edge">
<title>Node10&#45;&gt;Node16</title>
<g id="a_edge21_Node000010_Node000016"><a xlink:title=" ">
<path fill="none" stroke="#63b8ff" d="M268.36,-350.11C265.37,-355.17 262.44,-360.67 260,-366 239.09,-411.61 259.48,-437.52 224,-473 214.51,-482.49 199.85,-486.98 188.28,-490.48"/>
<polygon fill="#63b8ff" stroke="#63b8ff" points="271.33,-351.96 273.7,-341.63 265.41,-348.22 271.33,-351.96"/>
</a>
</g>
</g>
<!-- Node17 -->
<g id="Node000017" class="node">
<title>Node17</title>
<g id="a_Node000017"><a xlink:href="exec_8c.html#a23babf893bbcd2f6126698a1a19b169f" target="_top" xlink:title="Execute funct with given arguments.">
<polygon fill="white" stroke="#666666" points="202,-175.5 137,-175.5 137,-156.5 202,-156.5 202,-175.5"/>
<text text-anchor="middle" x="169.5" y="-163.5" font-family="Helvetica,sans-Serif" font-size="10.00">exec_func</text>
</a>
</g>
</g>
<!-- Node10&#45;&gt;Node17 -->
<g id="edge23_Node000010_Node000017" class="edge">
<title>Node10&#45;&gt;Node17</title>
<g id="a_edge23_Node000010_Node000017"><a xlink:title=" ">
<path fill="none" stroke="#63b8ff" d="M282.56,-311.94C276.89,-280.34 261.51,-218.99 224,-184 217.91,-178.32 209.97,-174.42 202.07,-171.76"/>
<polygon fill="#63b8ff" stroke="#63b8ff" points="279.16,-312.83 284.23,-322.13 286.07,-311.69 279.16,-312.83"/>
</a>
</g>
</g>
<!-- Node18 -->
<g id="Node000018" class="node">
<title>Node18</title>
<g id="a_Node000018"><a xlink:href="exec_8c.html#ab743cb88e12e9b922050925fd2075e36" target="_top" xlink:title="Execute a pipeline of commands.">
<polygon fill="white" stroke="#666666" points="202,-454.5 137,-454.5 137,-435.5 202,-435.5 202,-454.5"/>
<text text-anchor="middle" x="169.5" y="-442.5" font-family="Helvetica,sans-Serif" font-size="10.00">exec_pipe</text>
</a>
</g>
</g>
<!-- Node10&#45;&gt;Node18 -->
<g id="edge25_Node000010_Node000018" class="edge">
<title>Node10&#45;&gt;Node18</title>
<g id="a_edge25_Node000010_Node000018"><a xlink:title=" ">
<path fill="none" stroke="#63b8ff" d="M274.3,-350.62C260.25,-373.51 236.51,-410.59 224,-421 216.8,-426.99 207.87,-431.77 199.37,-435.45"/>
<polygon fill="#63b8ff" stroke="#63b8ff" points="277.46,-352.17 279.66,-341.8 271.47,-348.53 277.46,-352.17"/>
</a>
</g>
</g>
<!-- Node11&#45;&gt;Node10 -->
<g id="edge11_Node000011_Node000010" class="edge">
<title>Node11&#45;&gt;Node10</title>
<g id="a_edge11_Node000011_Node000010"><a xlink:title=" ">
<path fill="none" stroke="#63b8ff" d="M224.85,-358.25C241.6,-352.96 258.71,-346.79 270.47,-341.57"/>
<polygon fill="#63b8ff" stroke="#63b8ff" points="223.61,-354.98 215.07,-361.26 225.66,-361.67 223.61,-354.98"/>
</a>
</g>
</g>
<!-- Node12&#45;&gt;Node10 -->
<g id="edge13_Node000012_Node000010" class="edge">
<title>Node12&#45;&gt;Node10</title>
<g id="a_edge13_Node000012_Node000010"><a xlink:title=" ">
<path fill="none" stroke="#63b8ff" d="M215.34,-338.6C230.48,-338.96 246.86,-338.67 259.98,-337.72"/>
<polygon fill="#63b8ff" stroke="#63b8ff" points="215.23,-335.1 205.11,-338.25 214.98,-342.09 215.23,-335.1"/>
</a>
</g>
</g>
<!-- Node13&#45;&gt;Node10 -->
<g id="edge15_Node000013_Node000010" class="edge">
<title>Node13&#45;&gt;Node10</title>
<g id="a_edge15_Node000013_Node000010"><a xlink:title=" ">
<path fill="none" stroke="#63b8ff" d="M194.64,-308.39C213.79,-316.02 240.48,-324.64 259.98,-329.51"/>
<polygon fill="#63b8ff" stroke="#63b8ff" points="195.97,-305.15 185.4,-304.51 193.27,-311.6 195.97,-305.15"/>
</a>
</g>
</g>
<!-- Node14&#45;&gt;Node10 -->
<g id="edge18_Node000014_Node000010" class="edge">
<title>Node14&#45;&gt;Node10</title>
<g id="a_edge18_Node000014_Node000010"><a xlink:title=" ">
<path fill="none" stroke="#63b8ff" d="M184.71,-256.11C195.72,-264.73 211.21,-274.96 224,-285 239.56,-297.21 256.08,-312.39 268.08,-322.49"/>
<polygon fill="#63b8ff" stroke="#63b8ff" points="186.87,-253.36 176.97,-249.58 182.35,-258.71 186.87,-253.36"/>
</a>
</g>
</g>
<!-- Node14&#45;&gt;Node14 -->
<g id="edge17_Node000014_Node000014" class="edge">
<title>Node14&#45;&gt;Node14</title>
<g id="a_edge17_Node000014_Node000014"><a xlink:title=" ">
<path fill="none" stroke="#63b8ff" d="M190.98,-259.05C189.55,-263.88 182.39,-267.5 169.5,-267.5 148.88,-267.5 142.92,-258.23 151.62,-249.58"/>
<polygon fill="#63b8ff" stroke="#63b8ff" points="194.2,-257.69 187.38,-249.58 187.66,-260.17 194.2,-257.69"/>
</a>
</g>
</g>
<!-- Node15&#45;&gt;Node10 -->
<g id="edge20_Node000015_Node000010" class="edge">
<title>Node15&#45;&gt;Node10</title>
<g id="a_edge20_Node000015_Node000010"><a xlink:title=" ">
<path fill="none" stroke="#63b8ff" d="M195.62,-215.73C205.3,-219.05 215.95,-223.3 224,-230 255.14,-255.95 273.29,-301.94 281.03,-322.41"/>
<polygon fill="#63b8ff" stroke="#63b8ff" points="196.63,-212.37 186.04,-212.53 194.42,-219.02 196.63,-212.37"/>
</a>
</g>
</g>
<!-- Node16&#45;&gt;Node10 -->
<g id="edge22_Node000016_Node000010" class="edge">
<title>Node16&#45;&gt;Node10</title>
<g id="a_edge22_Node000016_Node000010"><a xlink:title=" ">
<path fill="none" stroke="#63b8ff" d="M231.31,-482.88C256.55,-451.37 240.72,-426.06 260,-384 266.8,-369.17 277.37,-352.93 282.5,-341.79"/>
<polygon fill="#63b8ff" stroke="#63b8ff" points="228.48,-480.8 224.41,-490.58 233.69,-485.47 228.48,-480.8"/>
</a>
</g>
</g>
<!-- Node17&#45;&gt;Node8 -->
<g id="edge24_Node000017_Node000008" class="edge">
<title>Node17&#45;&gt;Node8</title>
<g id="a_edge24_Node000017_Node000008"><a xlink:title=" ">
<path fill="none" stroke="#63b8ff" d="M210.01,-178.84C214.75,-180.51 219.5,-182.25 224,-184 319.84,-221.21 431.19,-273.3 475.67,-294.48"/>
<polygon fill="#63b8ff" stroke="#63b8ff" points="210.98,-175.47 200.39,-175.52 208.7,-182.09 210.98,-175.47"/>
</a>
</g>
</g>
<!-- Node18&#45;&gt;Node18 -->
<g id="edge28_Node000018_Node000018" class="edge">
<title>Node18&#45;&gt;Node18</title>
<g id="a_edge28_Node000018_Node000018"><a xlink:title=" ">
<path fill="none" stroke="#63b8ff" d="M190.98,-464.05C189.55,-468.88 182.39,-472.5 169.5,-472.5 148.88,-472.5 142.92,-463.23 151.62,-454.58"/>
<polygon fill="#63b8ff" stroke="#63b8ff" points="194.2,-462.69 187.38,-454.58 187.66,-465.17 194.2,-462.69"/>
</a>
</g>
</g>
<!-- Node19 -->
<g id="Node000019" class="node">
<title>Node19</title>
<g id="a_Node000019"><a xlink:href="ast__run_8c.html#a24d0223822f7b635628199085c3283be" target="_top" xlink:title=" ">
<polygon fill="white" stroke="#666666" points="79,-435.5 0,-435.5 0,-416.5 79,-416.5 79,-435.5"/>
<text text-anchor="middle" x="39.5" y="-423.5" font-family="Helvetica,sans-Serif" font-size="10.00">ast_run_pipe</text>
</a>
</g>
</g>
<!-- Node18&#45;&gt;Node19 -->
<g id="edge26_Node000018_Node000019" class="edge">
<title>Node18&#45;&gt;Node19</title>
<g id="a_edge26_Node000018_Node000019"><a xlink:title=" ">
<path fill="none" stroke="#63b8ff" d="M126.62,-438.78C111.32,-436.51 94.09,-433.95 79.08,-431.73"/>
<polygon fill="#63b8ff" stroke="#63b8ff" points="126.45,-442.3 136.86,-440.3 127.48,-435.37 126.45,-442.3"/>
</a>
</g>
</g>
<!-- Node19&#45;&gt;Node10 -->
<g id="edge27_Node000019_Node000010" class="edge">
<title>Node19&#45;&gt;Node10</title>
<g id="a_edge27_Node000019_Node000010"><a xlink:title=" ">
<path fill="none" stroke="#63b8ff" d="M89.75,-422.91C128.1,-418.87 181.74,-409.54 224,-388 246.64,-376.46 267.22,-354.32 277.87,-341.61"/>
<polygon fill="#63b8ff" stroke="#63b8ff" points="88.97,-419.47 79.36,-423.92 89.65,-426.44 88.97,-419.47"/>
</a>
</g>
</g>
<!-- Node21 -->
<g id="Node000021" class="node">
<title>Node21</title>
<g id="a_Node000021"><a xlink:href="parser__rules_8c.html#a799f84e24df3eff653f7c0696e348572" target="_top" xlink:title="Parse an elif block when called.">
<polygon fill="white" stroke="#666666" points="2178.5,-237.5 2110.5,-237.5 2110.5,-218.5 2178.5,-218.5 2178.5,-237.5"/>
<text text-anchor="middle" x="2144.5" y="-225.5" font-family="Helvetica,sans-Serif" font-size="10.00">parser_elif</text>
</a>
</g>
</g>
<!-- Node20&#45;&gt;Node21 -->
<g id="edge32_Node000020_Node000021" class="edge">
<title>Node20&#45;&gt;Node21</title>
<g id="a_edge32_Node000020_Node000021"><a xlink:title=" ">
<path fill="none" stroke="#63b8ff" d="M2246,-202.11C2224.09,-207.75 2198.54,-214.34 2178.68,-219.45"/>
<polygon fill="#63b8ff" stroke="#63b8ff" points="2246.97,-205.47 2255.78,-199.59 2245.22,-198.69 2246.97,-205.47"/>
</a>
</g>
</g>
<!-- Node22 -->
<g id="Node000022" class="node">
<title>Node22</title>
<g id="a_Node000022"><a xlink:href="parser__rules_8c.html#adf5258219dad4f79fdbc7786eb925699" target="_top" xlink:title="Define which parser to use depending on the context.">
<polygon fill="white" stroke="#666666" points="2049.5,-206.5 1939.5,-206.5 1939.5,-187.5 2049.5,-187.5 2049.5,-206.5"/>
<text text-anchor="middle" x="1994.5" y="-194.5" font-family="Helvetica,sans-Serif" font-size="10.00">parser_else_clause</text>
</a>
</g>
</g>
<!-- Node20&#45;&gt;Node22 -->
<g id="edge45_Node000020_Node000022" class="edge">
<title>Node20&#45;&gt;Node22</title>
<g id="a_edge45_Node000020_Node000022"><a xlink:title=" ">
<path fill="none" stroke="#63b8ff" d="M2221.41,-191.68C2168.61,-192.93 2097.86,-194.59 2049.7,-195.72"/>
<polygon fill="#63b8ff" stroke="#63b8ff" points="2221.8,-195.18 2231.72,-191.44 2221.64,-188.18 2221.8,-195.18"/>
</a>
</g>
</g>
<!-- Node23 -->
<g id="Node000023" class="node">
<title>Node23</title>
<g id="a_Node000023"><a xlink:href="parser__rules_8c.html#abf9e27d14e7a1c314285114bead78817" target="_top" xlink:title="Handle a &#39;if&#39; block by calling corresponding parser at each step.">
<polygon fill="white" stroke="#666666" points="1892.5,-161.5 1809.5,-161.5 1809.5,-142.5 1892.5,-142.5 1892.5,-161.5"/>
<text text-anchor="middle" x="1851" y="-149.5" font-family="Helvetica,sans-Serif" font-size="10.00">parser_rule_if</text>
</a>
</g>
</g>
<!-- Node20&#45;&gt;Node23 -->
<g id="edge50_Node000020_Node000023" class="edge">
<title>Node20&#45;&gt;Node23</title>
<g id="a_edge50_Node000020_Node000023"><a xlink:title=" ">
<path fill="none" stroke="#63b8ff" d="M2221.47,-183.84C2128.06,-175.79 1967.67,-161.97 1892.77,-155.51"/>
<polygon fill="#63b8ff" stroke="#63b8ff" points="2221.42,-187.34 2231.68,-184.72 2222.02,-180.37 2221.42,-187.34"/>
</a>
</g>
</g>
<!-- Node30 -->
<g id="Node000030" class="node">
<title>Node30</title>
<g id="a_Node000030"><a xlink:href="parser__rules_8c.html#afb9701776de31af668314b48a0b54636" target="_top" xlink:title="Handle a command block enclosed in brackets.">
<polygon fill="white" stroke="#666666" points="2057,-269 1932,-269 1932,-239 2057,-239 2057,-269"/>
<text text-anchor="start" x="1940" y="-257" font-family="Helvetica,sans-Serif" font-size="10.00">parser_rule_command</text>
<text text-anchor="middle" x="1994.5" y="-246" font-family="Helvetica,sans-Serif" font-size="10.00">_block</text>
</a>
</g>
</g>
<!-- Node20&#45;&gt;Node30 -->
<g id="edge46_Node000020_Node000030" class="edge">
<title>Node20&#45;&gt;Node30</title>
<g id="a_edge46_Node000020_Node000030"><a xlink:title=" ">
<path fill="none" stroke="#63b8ff" d="M2272.97,-205.48C2254.22,-218.97 2224.86,-237.65 2196,-246 2150.82,-259.07 2097.54,-260.58 2057.26,-259.09"/>
<polygon fill="#63b8ff" stroke="#63b8ff" points="2275.07,-208.28 2281.03,-199.52 2270.9,-202.65 2275.07,-208.28"/>
</a>
</g>
</g>
<!-- Node31 -->
<g id="Node000031" class="node">
<title>Node31</title>
<g id="a_Node000031"><a xlink:href="parser__rules_8c.html#a55dc38591d3749d39ca3f38f8a2a26dd" target="_top" xlink:title="Handle a for block by calling corresponding parser at each step.">
<polygon fill="white" stroke="#666666" points="1896,-47.5 1806,-47.5 1806,-28.5 1896,-28.5 1896,-47.5"/>
<text text-anchor="middle" x="1851" y="-35.5" font-family="Helvetica,sans-Serif" font-size="10.00">parser_rule_for</text>
</a>
</g>
</g>
<!-- Node20&#45;&gt;Node31 -->
<g id="edge48_Node000020_Node000031" class="edge">
<title>Node20&#45;&gt;Node31</title>
<g id="a_edge48_Node000020_Node000031"><a xlink:title=" ">
<path fill="none" stroke="#63b8ff" d="M2285.51,-170.89C2272.48,-140.57 2242.49,-82.27 2196,-57 2099.7,-4.65 1965,-17.51 1896.22,-29.05"/>
<polygon fill="#63b8ff" stroke="#63b8ff" points="2282.36,-172.44 2289.41,-180.35 2288.83,-169.77 2282.36,-172.44"/>
</a>
</g>
</g>
<!-- Node32 -->
<g id="Node000032" class="node">
<title>Node32</title>
<g id="a_Node000032"><a xlink:href="parser__rules_8c.html#abf1c3edda1bb73d8c86028687922ce95" target="_top" xlink:title="Handle a &#39;until&#39; block by calling corresponding parser at each step.">
<polygon fill="white" stroke="#666666" points="2043.5,-123.5 1945.5,-123.5 1945.5,-104.5 2043.5,-104.5 2043.5,-123.5"/>
<text text-anchor="middle" x="1994.5" y="-111.5" font-family="Helvetica,sans-Serif" font-size="10.00">parser_rule_until</text>
</a>
</g>
</g>
<!-- Node20&#45;&gt;Node32 -->
<g id="edge51_Node000020_Node000032" class="edge">
<title>Node20&#45;&gt;Node32</title>
<g id="a_edge51_Node000020_Node000032"><a xlink:title=" ">
<path fill="none" stroke="#63b8ff" d="M2270.76,-174.96C2251.76,-162.89 2223.25,-146.6 2196,-138 2145.52,-122.07 2084.83,-116.58 2043.54,-114.76"/>
<polygon fill="#63b8ff" stroke="#63b8ff" points="2268.99,-177.98 2279.28,-180.49 2272.8,-172.11 2268.99,-177.98"/>
</a>
</g>
</g>
<!-- Node33 -->
<g id="Node000033" class="node">
<title>Node33</title>
<g id="a_Node000033"><a xlink:href="parser__rules_8c.html#aa6719ad356821f03ad45b1ac0a57d3bd" target="_top" xlink:title="Handle a &#39;while&#39; block by calling corresponding parser at each step.">
<polygon fill="white" stroke="#666666" points="2196,-85.5 2093,-85.5 2093,-66.5 2196,-66.5 2196,-85.5"/>
<text text-anchor="middle" x="2144.5" y="-73.5" font-family="Helvetica,sans-Serif" font-size="10.00">parser_rule_while</text>
</a>
</g>
</g>
<!-- Node20&#45;&gt;Node33 -->
<g id="edge53_Node000020_Node000033" class="edge">
<title>Node20&#45;&gt;Node33</title>
<g id="a_edge53_Node000020_Node000033"><a xlink:title=" ">
<path fill="none" stroke="#63b8ff" d="M2277.53,-172.78C2259.4,-153.32 2227.78,-121.55 2196,-100 2187.8,-94.44 2178.12,-89.5 2169.44,-85.57"/>
<polygon fill="#63b8ff" stroke="#63b8ff" points="2275.1,-175.3 2284.44,-180.3 2280.26,-170.57 2275.1,-175.3"/>
</a>
</g>
</g>
<!-- Node21&#45;&gt;Node22 -->
<g id="edge33_Node000021_Node000022" class="edge">
<title>Node21&#45;&gt;Node22</title>
<g id="a_edge33_Node000021_Node000022"><a xlink:title=" ">
<path fill="none" stroke="#63b8ff" d="M2111.92,-215.74C2093.84,-210.89 2070.65,-205.74 2049.73,-201.83"/>
<polygon fill="#63b8ff" stroke="#63b8ff" points="2111.09,-219.14 2121.66,-218.47 2112.98,-212.4 2111.09,-219.14"/>
</a>
</g>
</g>
<!-- Node22&#45;&gt;Node21 -->
<g id="edge34_Node000022_Node000021" class="edge">
<title>Node22&#45;&gt;Node21</title>
<g id="a_edge34_Node000022_Node000021"><a xlink:title=" ">
<path fill="none" stroke="#63b8ff" d="M2027.46,-209.36C2051.91,-215.9 2085.53,-222.97 2110.29,-226.78"/>
<polygon fill="#63b8ff" stroke="#63b8ff" points="2028.17,-205.93 2017.59,-206.61 2026.28,-212.67 2028.17,-205.93"/>
</a>
</g>
</g>
<!-- Node22&#45;&gt;Node23 -->
<g id="edge35_Node000022_Node000023" class="edge">
<title>Node22&#45;&gt;Node23</title>
<g id="a_edge35_Node000022_Node000023"><a xlink:title=" ">
<path fill="none" stroke="#63b8ff" d="M1953.77,-184.37C1931,-177.12 1902.87,-168.18 1881.97,-161.53"/>
<polygon fill="#63b8ff" stroke="#63b8ff" points="1952.9,-187.76 1963.49,-187.46 1955.02,-181.09 1952.9,-187.76"/>
</a>
</g>
</g>
<!-- Node24 -->
<g id="Node000024" class="node">
<title>Node24</title>
<g id="a_Node000024"><a xlink:href="parser__commands_8c.html#ad98fbb958a265134e775b69579e28835" target="_top" xlink:title="Handle a shell command block by calling corresponding parser at each step.">
<polygon fill="white" stroke="#666666" points="1770,-123.5 1640,-123.5 1640,-104.5 1770,-104.5 1770,-123.5"/>
<text text-anchor="middle" x="1705" y="-111.5" font-family="Helvetica,sans-Serif" font-size="10.00">parser_shell_command</text>
</a>
</g>
</g>
<!-- Node23&#45;&gt;Node24 -->
<g id="edge36_Node000023_Node000024" class="edge">
<title>Node23&#45;&gt;Node24</title>
<g id="a_edge36_Node000023_Node000024"><a xlink:title=" ">
<path fill="none" stroke="#63b8ff" d="M1803.83,-139.82C1783.84,-134.54 1760.78,-128.46 1742.08,-123.52"/>
<polygon fill="#63b8ff" stroke="#63b8ff" points="1803.1,-143.24 1813.66,-142.41 1804.89,-136.48 1803.1,-143.24"/>
</a>
</g>
</g>
<!-- Node25 -->
<g id="Node000025" class="node">
<title>Node25</title>
<g id="a_Node000025"><a xlink:href="parser__commands_8c.html#aa7191f56bd8e70874c5c381e52186807" target="_top" xlink:title="Parse a command which can be either a simple command or a shell command.">
<polygon fill="white" stroke="#666666" points="1484,-142.5 1383,-142.5 1383,-123.5 1484,-123.5 1484,-142.5"/>
<text text-anchor="middle" x="1433.5" y="-130.5" font-family="Helvetica,sans-Serif" font-size="10.00">parser_command</text>
</a>
</g>
</g>
<!-- Node24&#45;&gt;Node25 -->
<g id="edge37_Node000024_Node000025" class="edge">
<title>Node24&#45;&gt;Node25</title>
<g id="a_edge37_Node000024_Node000025"><a xlink:title=" ">
<path fill="none" stroke="#63b8ff" d="M1629.8,-119.23C1583.49,-122.5 1525.13,-126.61 1484.32,-129.49"/>
<polygon fill="#63b8ff" stroke="#63b8ff" points="1630.06,-122.72 1639.79,-118.53 1629.57,-115.74 1630.06,-122.72"/>
</a>
</g>
</g>
<!-- Node24&#45;&gt;Node29 -->
<g id="edge43_Node000024_Node000029" class="edge">
<title>Node24&#45;&gt;Node29</title>
<g id="a_edge43_Node000024_Node000029"><a xlink:title=" ">
<path fill="none" stroke="#63b8ff" d="M1629.77,-104C1620.99,-102.81 1612.29,-101.64 1604.21,-100.55"/>
<polygon fill="#63b8ff" stroke="#63b8ff" points="1629.31,-107.47 1639.69,-105.33 1630.25,-100.53 1629.31,-107.47"/>
</a>
</g>
</g>
<!-- Node26 -->
<g id="Node000026" class="node">
<title>Node26</title>
<g id="a_Node000026"><a xlink:href="parser__pipelines_8c.html#a06068cdf8924fb28f414f419d84a5eae" target="_top" xlink:title="Parse and_or blocks separated by &#39;|&#39; (pipes)">
<polygon fill="white" stroke="#666666" points="1347,-199.5 1255,-199.5 1255,-180.5 1347,-180.5 1347,-199.5"/>
<text text-anchor="middle" x="1301" y="-187.5" font-family="Helvetica,sans-Serif" font-size="10.00">parser_pipeline</text>
</a>
</g>
</g>
<!-- Node25&#45;&gt;Node26 -->
<g id="edge38_Node000025_Node000026" class="edge">
<title>Node25&#45;&gt;Node26</title>
<g id="a_edge38_Node000025_Node000026"><a xlink:title=" ">
<path fill="none" stroke="#63b8ff" d="M1401.32,-146.62C1377.45,-157.05 1345.11,-171.17 1323.91,-180.43"/>
<polygon fill="#63b8ff" stroke="#63b8ff" points="1402.89,-149.75 1410.66,-142.54 1400.09,-143.34 1402.89,-149.75"/>
</a>
</g>
</g>
<!-- Node27 -->
<g id="Node000027" class="node">
<title>Node27</title>
<g id="a_Node000027"><a xlink:href="parser__pipelines_8c.html#a85ca4872d7efdb8b0cd643037ccd5763" target="_top" xlink:title="Parse and_or blocks separated by &#39;&amp;&amp;&#39; or &#39;||&#39;.">
<polygon fill="white" stroke="#666666" points="1219,-313.5 1133,-313.5 1133,-294.5 1219,-294.5 1219,-313.5"/>
<text text-anchor="middle" x="1176" y="-301.5" font-family="Helvetica,sans-Serif" font-size="10.00">parser_and_or</text>
</a>
</g>
</g>
<!-- Node26&#45;&gt;Node27 -->
<g id="edge39_Node000026_Node000027" class="edge">
<title>Node26&#45;&gt;Node27</title>
<g id="a_edge39_Node000026_Node000027"><a xlink:title=" ">
<path fill="none" stroke="#63b8ff" d="M1282.18,-206.52C1256.13,-230.66 1208.5,-274.81 1187.46,-294.31"/>
<polygon fill="#63b8ff" stroke="#63b8ff" points="1284.56,-209.08 1289.51,-199.72 1279.8,-203.95 1284.56,-209.08"/>
</a>
</g>
</g>
<!-- Node27&#45;&gt;Node20 -->
<g id="edge40_Node000027_Node000020" class="edge">
<title>Node27&#45;&gt;Node20</title>
<g id="a_edge40_Node000027_Node000020"><a xlink:title=" ">
<path fill="none" stroke="#63b8ff" d="M1229.29,-304C1280.93,-304 1362.16,-304 1432.5,-304 1995.5,-304 1995.5,-304 1995.5,-304 2086.12,-304 2113.51,-304.5 2196,-267 2232.99,-250.18 2268.23,-216.23 2284.15,-199.61"/>
<polygon fill="#63b8ff" stroke="#63b8ff" points="1229.05,-300.5 1219.05,-304 1229.05,-307.5 1229.05,-300.5"/>
</a>
</g>
</g>
<!-- Node27&#45;&gt;Node28 -->
<g id="edge41_Node000027_Node000028" class="edge">
<title>Node27&#45;&gt;Node28</title>
<g id="a_edge41_Node000027_Node000028"><a xlink:title=" ">
<path fill="none" stroke="#63b8ff" d="M1137.11,-316.97C1122.32,-322.03 1105.67,-327.73 1092,-332.41"/>
<polygon fill="#63b8ff" stroke="#63b8ff" points="1138.66,-320.14 1146.99,-313.59 1136.4,-313.52 1138.66,-320.14"/>
</a>
</g>
</g>
<!-- Node28&#45;&gt;Node2 -->
<g id="edge42_Node000028_Node000002" class="edge">
<title>Node28&#45;&gt;Node2</title>
<g id="a_edge42_Node000028_Node000002"><a xlink:title=" ">
<path fill="none" stroke="#63b8ff" d="M1019.02,-350.93C1010.09,-352.78 1001.02,-354.66 993.18,-356.29"/>
<polygon fill="#63b8ff" stroke="#63b8ff" points="1019.89,-354.32 1028.97,-348.86 1018.46,-347.47 1019.89,-354.32"/>
</a>
</g>
</g>
<!-- Node29&#45;&gt;Node25 -->
<g id="edge44_Node000029_Node000025" class="edge">
<title>Node29&#45;&gt;Node25</title>
<g id="a_edge44_Node000029_Node000025"><a xlink:title=" ">
<path fill="none" stroke="#63b8ff" d="M1519.27,-107.54C1502.06,-112.7 1482.44,-118.6 1466.41,-123.41"/>
<polygon fill="#63b8ff" stroke="#63b8ff" points="1520.51,-110.82 1529.08,-104.59 1518.49,-104.11 1520.51,-110.82"/>
</a>
</g>
</g>
<!-- Node30&#45;&gt;Node24 -->
<g id="edge47_Node000030_Node000024" class="edge">
<title>Node30&#45;&gt;Node24</title>
<g id="a_edge47_Node000030_Node000024"><a xlink:title=" ">
<path fill="none" stroke="#63b8ff" d="M1948.12,-235.02C1909.81,-218.68 1853.74,-194 1806,-170 1775.78,-154.81 1741.6,-135.1 1722.04,-123.57"/>
<polygon fill="#63b8ff" stroke="#63b8ff" points="1946.89,-238.3 1957.46,-238.99 1949.63,-231.86 1946.89,-238.3"/>
</a>
</g>
</g>
<!-- Node31&#45;&gt;Node24 -->
<g id="edge49_Node000031_Node000024" class="edge">
<title>Node31&#45;&gt;Node24</title>
<g id="a_edge49_Node000031_Node000024"><a xlink:title=" ">
<path fill="none" stroke="#63b8ff" d="M1822.61,-52.46C1793.68,-67.72 1748.9,-91.36 1724.09,-104.45"/>
<polygon fill="#63b8ff" stroke="#63b8ff" points="1824.55,-55.39 1831.76,-47.63 1821.28,-49.2 1824.55,-55.39"/>
</a>
</g>
</g>
<!-- Node32&#45;&gt;Node24 -->
<g id="edge52_Node000032_Node000024" class="edge">
<title>Node32&#45;&gt;Node24</title>
<g id="a_edge52_Node000032_Node000024"><a xlink:title=" ">
<path fill="none" stroke="#63b8ff" d="M1935.18,-114C1887.31,-114 1819.61,-114 1770.21,-114"/>
<polygon fill="#63b8ff" stroke="#63b8ff" points="1935.38,-117.5 1945.38,-114 1935.38,-110.5 1935.38,-117.5"/>
</a>
</g>
</g>
<!-- Node33&#45;&gt;Node24 -->
<g id="edge54_Node000033_Node000024" class="edge">
<title>Node33&#45;&gt;Node24</title>
<g id="a_edge54_Node000033_Node000024"><a xlink:title=" ">
<path fill="none" stroke="#63b8ff" d="M2082.69,-81.28C2000.43,-88.43 1854.33,-101.12 1770.3,-108.42"/>
<polygon fill="#63b8ff" stroke="#63b8ff" points="2083.23,-84.75 2092.89,-80.4 2082.62,-77.77 2083.23,-84.75"/>
</a>
</g>
</g>
</g>
</svg>
