<?xml version="1.0" encoding="UTF-8" standalone="no"?>
<!DOCTYPE svg PUBLIC "-//W3C//DTD SVG 1.1//EN"
 "http://www.w3.org/Graphics/SVG/1.1/DTD/svg11.dtd">
<!-- Generated by graphviz version 2.43.0 (0)
 -->
<!-- Title: init_ast_loop Pages: 1 -->
<svg width="2242pt" height="437pt"
 viewBox="0.00 0.00 2242.00 436.50" xmlns="http://www.w3.org/2000/svg" xmlns:xlink="http://www.w3.org/1999/xlink">
<g id="graph0" class="graph" transform="scale(1 1) rotate(0) translate(4 432.5)">
<title>init_ast_loop</title>
<!-- Node1 -->
<g id="Node000001" class="node">
<title>Node1</title>
<g id="a_Node000001"><a xlink:title=" ">
<polygon fill="#999999" stroke="#666666" points="2234,-396 2155,-396 2155,-377 2234,-377 2234,-396"/>
<text text-anchor="middle" x="2194.5" y="-384" font-family="Helvetica,sans-Serif" font-size="10.00">init_ast_loop</text>
</a>
</g>
</g>
<!-- Node2 -->
<g id="Node000002" class="node">
<title>Node2</title>
<g id="a_Node000002"><a xlink:href="parser__rules_8c.html#abf1c3edda1bb73d8c86028687922ce95" target="_top" xlink:title="Handle a &#39;until&#39; block by calling corresponding parser at each step.">
<polygon fill="white" stroke="#666666" points="2119,-358 2021,-358 2021,-339 2119,-339 2119,-358"/>
<text text-anchor="middle" x="2070" y="-346" font-family="Helvetica,sans-Serif" font-size="10.00">parser_rule_until</text>
</a>
</g>
</g>
<!-- Node1&#45;&gt;Node2 -->
<g id="edge1_Node000001_Node000002" class="edge">
<title>Node1&#45;&gt;Node2</title>
<g id="a_edge1_Node000001_Node000002"><a xlink:title=" ">
<path fill="none" stroke="#63b8ff" d="M2152.62,-373.82C2136.07,-368.69 2117.28,-362.86 2101.9,-358.09"/>
<polygon fill="#63b8ff" stroke="#63b8ff" points="2152,-377.29 2162.59,-376.91 2154.07,-370.61 2152,-377.29"/>
</a>
</g>
</g>
<!-- Node13 -->
<g id="Node000013" class="node">
<title>Node13</title>
<g id="a_Node000013"><a xlink:href="parser__rules_8c.html#aa6719ad356821f03ad45b1ac0a57d3bd" target="_top" xlink:title="Handle a &#39;while&#39; block by calling corresponding parser at each step.">
<polygon fill="white" stroke="#666666" points="1141,-362 1038,-362 1038,-343 1141,-343 1141,-362"/>
<text text-anchor="middle" x="1089.5" y="-350" font-family="Helvetica,sans-Serif" font-size="10.00">parser_rule_while</text>
</a>
</g>
</g>
<!-- Node1&#45;&gt;Node13 -->
<g id="edge54_Node000001_Node000013" class="edge">
<title>Node1&#45;&gt;Node13</title>
<g id="a_edge54_Node000001_Node000013"><a xlink:title=" ">
<path fill="none" stroke="#63b8ff" d="M2145.88,-398.36C2091.76,-410.78 2000.6,-428.5 1921,-428.5 1921,-428.5 1921,-428.5 1390,-428.5 1283.25,-428.5 1161.48,-382.58 1112.55,-362.13"/>
<polygon fill="#63b8ff" stroke="#63b8ff" points="2146.93,-401.71 2155.87,-396.03 2145.34,-394.89 2146.93,-401.71"/>
</a>
</g>
</g>
<!-- Node3 -->
<g id="Node000003" class="node">
<title>Node3</title>
<g id="a_Node000003"><a xlink:href="parser__commands_8c.html#ad98fbb958a265134e775b69579e28835" target="_top" xlink:title="Handle a shell command block by calling corresponding parser at each step.">
<polygon fill="white" stroke="#666666" points="1985,-244 1855,-244 1855,-225 1985,-225 1985,-244"/>
<text text-anchor="middle" x="1920" y="-232" font-family="Helvetica,sans-Serif" font-size="10.00">parser_shell_command</text>
</a>
</g>
</g>
<!-- Node2&#45;&gt;Node3 -->
<g id="edge2_Node000002_Node000003" class="edge">
<title>Node2&#45;&gt;Node3</title>
<g id="a_edge2_Node000002_Node000003"><a xlink:title=" ">
<path fill="none" stroke="#63b8ff" d="M2048.65,-332.82C2017.59,-308.9 1959.28,-263.99 1933.64,-244.24"/>
<polygon fill="#63b8ff" stroke="#63b8ff" points="2046.58,-335.65 2056.64,-338.98 2050.85,-330.1 2046.58,-335.65"/>
</a>
</g>
</g>
<!-- Node4 -->
<g id="Node000004" class="node">
<title>Node4</title>
<g id="a_Node000004"><a xlink:href="parser__commands_8c.html#aa7191f56bd8e70874c5c381e52186807" target="_top" xlink:title="Parse a command which can be either a simple command or a shell command.">
<polygon fill="white" stroke="#666666" points="1699,-196 1598,-196 1598,-177 1699,-177 1699,-196"/>
<text text-anchor="middle" x="1648.5" y="-184" font-family="Helvetica,sans-Serif" font-size="10.00">parser_command</text>
</a>
</g>
</g>
<!-- Node3&#45;&gt;Node4 -->
<g id="edge3_Node000003_Node000004" class="edge">
<title>Node3&#45;&gt;Node4</title>
<g id="a_edge3_Node000003_Node000004"><a xlink:title=" ">
<path fill="none" stroke="#63b8ff" d="M1898.71,-218.69C1879.44,-204.75 1849.02,-185.45 1819,-177.5 1777.13,-166.4 1727.45,-171.02 1692.74,-176.96"/>
<polygon fill="#63b8ff" stroke="#63b8ff" points="1896.87,-221.69 1906.99,-224.85 1901.05,-216.07 1896.87,-221.69"/>
</a>
</g>
</g>
<!-- Node33 -->
<g id="Node000033" class="node">
<title>Node33</title>
<g id="a_Node000033"><a xlink:href="parser__commands_8c.html#a14408e6904da17fc6899bba03f7a5f5a" target="_top" xlink:title="Handle a function definition and add it to the dictionnary.">
<polygon fill="white" stroke="#666666" points="1819,-206 1735,-206 1735,-187 1819,-187 1819,-206"/>
<text text-anchor="middle" x="1777" y="-194" font-family="Helvetica,sans-Serif" font-size="10.00">parser_fundef</text>
</a>
</g>
</g>
<!-- Node3&#45;&gt;Node33 -->
<g id="edge52_Node000003_Node000033" class="edge">
<title>Node3&#45;&gt;Node33</title>
<g id="a_edge52_Node000003_Node000033"><a xlink:title=" ">
<path fill="none" stroke="#63b8ff" d="M1873.56,-222.25C1854.13,-217.02 1831.77,-210.99 1813.57,-206.09"/>
<polygon fill="#63b8ff" stroke="#63b8ff" points="1872.85,-225.69 1883.42,-224.91 1874.68,-218.93 1872.85,-225.69"/>
</a>
</g>
</g>
<!-- Node5 -->
<g id="Node000005" class="node">
<title>Node5</title>
<g id="a_Node000005"><a xlink:href="parser__pipelines_8c.html#a06068cdf8924fb28f414f419d84a5eae" target="_top" xlink:title="Parse and_or blocks separated by &#39;|&#39; (pipes)">
<polygon fill="white" stroke="#666666" points="1562,-196 1470,-196 1470,-177 1562,-177 1562,-196"/>
<text text-anchor="middle" x="1516" y="-184" font-family="Helvetica,sans-Serif" font-size="10.00">parser_pipeline</text>
</a>
</g>
</g>
<!-- Node4&#45;&gt;Node5 -->
<g id="edge4_Node000004_Node000005" class="edge">
<title>Node4&#45;&gt;Node5</title>
<g id="a_edge4_Node000004_Node000005"><a xlink:title=" ">
<path fill="none" stroke="#63b8ff" d="M1587.53,-186.5C1579.05,-186.5 1570.44,-186.5 1562.29,-186.5"/>
<polygon fill="#63b8ff" stroke="#63b8ff" points="1587.79,-190 1597.79,-186.5 1587.79,-183 1587.79,-190"/>
</a>
</g>
</g>
<!-- Node6 -->
<g id="Node000006" class="node">
<title>Node6</title>
<g id="a_Node000006"><a xlink:href="parser__pipelines_8c.html#a85ca4872d7efdb8b0cd643037ccd5763" target="_top" xlink:title="Parse and_or blocks separated by &#39;&amp;&amp;&#39; or &#39;||&#39;.">
<polygon fill="white" stroke="#666666" points="1434,-196 1348,-196 1348,-177 1434,-177 1434,-196"/>
<text text-anchor="middle" x="1391" y="-184" font-family="Helvetica,sans-Serif" font-size="10.00">parser_and_or</text>
</a>
</g>
</g>
<!-- Node5&#45;&gt;Node6 -->
<g id="edge5_Node000005_Node000006" class="edge">
<title>Node5&#45;&gt;Node6</title>
<g id="a_edge5_Node000005_Node000006"><a xlink:title=" ">
<path fill="none" stroke="#63b8ff" d="M1459.62,-186.5C1451.1,-186.5 1442.41,-186.5 1434.24,-186.5"/>
<polygon fill="#63b8ff" stroke="#63b8ff" points="1459.9,-190 1469.9,-186.5 1459.9,-183 1459.9,-190"/>
</a>
</g>
</g>
<!-- Node7 -->
<g id="Node000007" class="node">
<title>Node7</title>
<g id="a_Node000007"><a xlink:href="parser__lists_8c.html#aae7a5d6760b83c1a37b0369f82a20500" target="_top" xlink:title="Absorb a chain of and_or separeted by &#39;;&#39; or &#39; &#39;.">
<polygon fill="white" stroke="#666666" points="1312,-282 1188,-282 1188,-263 1312,-263 1312,-282"/>
<text text-anchor="middle" x="1250" y="-270" font-family="Helvetica,sans-Serif" font-size="10.00">parser_compound_list</text>
</a>
</g>
</g>
<!-- Node6&#45;&gt;Node7 -->
<g id="edge6_Node000006_Node000007" class="edge">
<title>Node6&#45;&gt;Node7</title>
<g id="a_edge6_Node000006_Node000007"><a xlink:title=" ">
<path fill="none" stroke="#63b8ff" d="M1366.02,-201.34C1337.47,-219 1290.63,-247.98 1266.48,-262.93"/>
<polygon fill="#63b8ff" stroke="#63b8ff" points="1367.93,-204.27 1374.59,-196.03 1364.25,-198.32 1367.93,-204.27"/>
</a>
</g>
</g>
<!-- Node14 -->
<g id="Node000014" class="node">
<title>Node14</title>
<g id="a_Node000014"><a xlink:href="parser__lists_8c.html#a7b9812922acfb4eba24e65d40bd99001" target="_top" xlink:title="Parse list block into sub and_or block(s) separated by semi&#45;colons.">
<polygon fill="white" stroke="#666666" points="1284,-176 1216,-176 1216,-157 1284,-157 1284,-176"/>
<text text-anchor="middle" x="1250" y="-164" font-family="Helvetica,sans-Serif" font-size="10.00">parser_list</text>
</a>
</g>
</g>
<!-- Node6&#45;&gt;Node14 -->
<g id="edge21_Node000006_Node000014" class="edge">
<title>Node6&#45;&gt;Node14</title>
<g id="a_edge21_Node000006_Node000014"><a xlink:title=" ">
<path fill="none" stroke="#63b8ff" d="M1337.84,-178.99C1319.83,-176.4 1300.17,-173.58 1284.12,-171.27"/>
<polygon fill="#63b8ff" stroke="#63b8ff" points="1337.52,-182.49 1347.92,-180.45 1338.52,-175.56 1337.52,-182.49"/>
</a>
</g>
</g>
<!-- Node7&#45;&gt;Node2 -->
<g id="edge18_Node000007_Node000002" class="edge">
<title>Node7&#45;&gt;Node2</title>
<g id="a_edge18_Node000007_Node000002"><a xlink:title=" ">
<path fill="none" stroke="#63b8ff" d="M1279.39,-286.38C1326.94,-308.31 1426.2,-348.5 1515,-348.5 1778,-348.5 1778,-348.5 1778,-348.5 1863.51,-348.5 1963.15,-348.5 2020.86,-348.5"/>
<polygon fill="#63b8ff" stroke="#63b8ff" points="1280.86,-283.2 1270.32,-282.13 1277.89,-289.54 1280.86,-283.2"/>
</a>
</g>
</g>
<!-- Node8 -->
<g id="Node000008" class="node">
<title>Node8</title>
<g id="a_Node000008"><a xlink:href="parser__rules_8c.html#a799f84e24df3eff653f7c0696e348572" target="_top" xlink:title="Parse an elif block when called.">
<polygon fill="white" stroke="#666666" points="1123.5,-286 1055.5,-286 1055.5,-267 1123.5,-267 1123.5,-286"/>
<text text-anchor="middle" x="1089.5" y="-274" font-family="Helvetica,sans-Serif" font-size="10.00">parser_elif</text>
</a>
</g>
</g>
<!-- Node7&#45;&gt;Node8 -->
<g id="edge7_Node000007_Node000008" class="edge">
<title>Node7&#45;&gt;Node8</title>
<g id="a_edge7_Node000007_Node000008"><a xlink:title=" ">
<path fill="none" stroke="#63b8ff" d="M1177.66,-274.3C1158.84,-274.78 1139.43,-275.27 1123.71,-275.66"/>
<polygon fill="#63b8ff" stroke="#63b8ff" points="1177.81,-277.8 1187.72,-274.05 1177.63,-270.8 1177.81,-277.8"/>
</a>
</g>
</g>
<!-- Node9 -->
<g id="Node000009" class="node">
<title>Node9</title>
<g id="a_Node000009"><a xlink:href="parser__rules_8c.html#adf5258219dad4f79fdbc7786eb925699" target="_top" xlink:title="Define which parser to use depending on the context.">
<polygon fill="white" stroke="#666666" points="991,-286 881,-286 881,-267 991,-267 991,-286"/>
<text text-anchor="middle" x="936" y="-274" font-family="Helvetica,sans-Serif" font-size="10.00">parser_else_clause</text>
</a>
</g>
</g>
<!-- Node7&#45;&gt;Node9 -->
<g id="edge12_Node000007_Node000009" class="edge">
<title>Node7&#45;&gt;Node9</title>
<g id="a_edge12_Node000007_Node000009"><a xlink:title=" ">
<path fill="none" stroke="#63b8ff" d="M1182.61,-261.63C1172.38,-260.33 1161.93,-259.21 1152,-258.5 1096.59,-254.52 1082.29,-253.03 1027,-258.5 1010.19,-260.16 991.87,-263.54 976.18,-266.92"/>
<polygon fill="#63b8ff" stroke="#63b8ff" points="1182.35,-265.13 1192.73,-262.99 1183.28,-258.19 1182.35,-265.13"/>
</a>
</g>
</g>
<!-- Node10 -->
<g id="Node000010" class="node">
<title>Node10</title>
<g id="a_Node000010"><a xlink:href="parser__rules_8c.html#abf9e27d14e7a1c314285114bead78817" target="_top" xlink:title="Handle a &#39;if&#39; block by calling corresponding parser at each step.">
<polygon fill="white" stroke="#666666" points="845,-324 762,-324 762,-305 845,-305 845,-324"/>
<text text-anchor="middle" x="803.5" y="-312" font-family="Helvetica,sans-Serif" font-size="10.00">parser_rule_if</text>
</a>
</g>
</g>
<!-- Node7&#45;&gt;Node10 -->
<g id="edge17_Node000007_Node000010" class="edge">
<title>Node7&#45;&gt;Node10</title>
<g id="a_edge17_Node000007_Node000010"><a xlink:title=" ">
<path fill="none" stroke="#63b8ff" d="M1205.23,-284.63C1188.67,-288.75 1169.59,-292.95 1152,-295.5 1041.82,-311.44 910.23,-314.28 845.13,-314.62"/>
<polygon fill="#63b8ff" stroke="#63b8ff" points="1206.35,-287.95 1215.17,-282.09 1204.61,-281.17 1206.35,-287.95"/>
</a>
</g>
</g>
<!-- Node11 -->
<g id="Node000011" class="node">
<title>Node11</title>
<g id="a_Node000011"><a xlink:href="parser__rules_8c.html#afb9701776de31af668314b48a0b54636" target="_top" xlink:title="Handle a command block enclosed in brackets.">
<polygon fill="white" stroke="#666666" points="1152,-210.5 1027,-210.5 1027,-180.5 1152,-180.5 1152,-210.5"/>
<text text-anchor="start" x="1035" y="-198.5" font-family="Helvetica,sans-Serif" font-size="10.00">parser_rule_command</text>
<text text-anchor="middle" x="1089.5" y="-187.5" font-family="Helvetica,sans-Serif" font-size="10.00">_block</text>
</a>
</g>
</g>
<!-- Node7&#45;&gt;Node11 -->
<g id="edge13_Node000007_Node000011" class="edge">
<title>Node7&#45;&gt;Node11</title>
<g id="a_edge13_Node000007_Node000011"><a xlink:title=" ">
<path fill="none" stroke="#63b8ff" d="M1211.64,-259.26C1203.7,-256.04 1195.46,-252.4 1188,-248.5 1170.96,-239.6 1168.74,-233.96 1152,-224.5 1143.37,-219.62 1133.78,-214.82 1124.79,-210.58"/>
<polygon fill="#63b8ff" stroke="#63b8ff" points="1210.53,-262.58 1221.12,-262.96 1213.07,-256.06 1210.53,-262.58"/>
</a>
</g>
</g>
<!-- Node12 -->
<g id="Node000012" class="node">
<title>Node12</title>
<g id="a_Node000012"><a xlink:href="parser__rules_8c.html#a55dc38591d3749d39ca3f38f8a2a26dd" target="_top" xlink:title="Handle a for block by calling corresponding parser at each step.">
<polygon fill="white" stroke="#666666" points="1134.5,-125 1044.5,-125 1044.5,-106 1134.5,-106 1134.5,-125"/>
<text text-anchor="middle" x="1089.5" y="-113" font-family="Helvetica,sans-Serif" font-size="10.00">parser_rule_for</text>
</a>
</g>
</g>
<!-- Node7&#45;&gt;Node12 -->
<g id="edge15_Node000007_Node000012" class="edge">
<title>Node7&#45;&gt;Node12</title>
<g id="a_edge15_Node000007_Node000012"><a xlink:title=" ">
<path fill="none" stroke="#63b8ff" d="M1236.44,-254.66C1224.09,-237.09 1204.7,-209.47 1188,-185.5 1171.93,-162.44 1174.8,-149.95 1152,-133.5 1146.77,-129.72 1140.75,-126.74 1134.57,-124.37"/>
<polygon fill="#63b8ff" stroke="#63b8ff" points="1233.6,-256.69 1242.21,-262.86 1239.32,-252.66 1233.6,-256.69"/>
</a>
</g>
</g>
<!-- Node7&#45;&gt;Node13 -->
<g id="edge19_Node000007_Node000013" class="edge">
<title>Node7&#45;&gt;Node13</title>
<g id="a_edge19_Node000007_Node000013"><a xlink:title=" ">
<path fill="none" stroke="#63b8ff" d="M1208.87,-285.95C1201.7,-289 1194.47,-292.53 1188,-296.5 1169.76,-307.7 1170.26,-317.32 1152,-328.5 1142.52,-334.3 1131.39,-339.16 1121.23,-342.94"/>
<polygon fill="#63b8ff" stroke="#63b8ff" points="1210.54,-289.05 1218.52,-282.09 1207.94,-282.55 1210.54,-289.05"/>
</a>
</g>
</g>
<!-- Node8&#45;&gt;Node9 -->
<g id="edge8_Node000008_Node000009" class="edge">
<title>Node8&#45;&gt;Node9</title>
<g id="a_edge8_Node000008_Node000009"><a xlink:title=" ">
<path fill="none" stroke="#63b8ff" d="M1045.13,-270.33C1028.27,-269.69 1008.77,-269.58 991.01,-270"/>
<polygon fill="#63b8ff" stroke="#63b8ff" points="1045.1,-273.83 1055.25,-270.8 1045.43,-266.84 1045.1,-273.83"/>
</a>
</g>
</g>
<!-- Node9&#45;&gt;Node8 -->
<g id="edge9_Node000009_Node000008" class="edge">
<title>Node9&#45;&gt;Node8</title>
<g id="a_edge9_Node000009_Node000008"><a xlink:title=" ">
<path fill="none" stroke="#63b8ff" d="M1001.22,-283.18C1019.82,-283.41 1039.38,-283.08 1055.25,-282.2"/>
<polygon fill="#63b8ff" stroke="#63b8ff" points="1001.07,-279.68 991.01,-283 1000.94,-286.68 1001.07,-279.68"/>
</a>
</g>
</g>
<!-- Node9&#45;&gt;Node10 -->
<g id="edge10_Node000009_Node000010" class="edge">
<title>Node9&#45;&gt;Node10</title>
<g id="a_edge10_Node000009_Node000010"><a xlink:title=" ">
<path fill="none" stroke="#63b8ff" d="M892.45,-288.89C874.58,-294.09 854.11,-300.05 837.42,-304.91"/>
<polygon fill="#63b8ff" stroke="#63b8ff" points="893.45,-292.25 902.07,-286.09 891.49,-285.52 893.45,-292.25"/>
</a>
</g>
</g>
<!-- Node10&#45;&gt;Node3 -->
<g id="edge11_Node000010_Node000003" class="edge">
<title>Node10&#45;&gt;Node3</title>
<g id="a_edge11_Node000010_Node000003"><a xlink:title=" ">
<path fill="none" stroke="#63b8ff" d="M834.83,-328.24C886.01,-350.14 993.28,-390.5 1088.5,-390.5 1649.5,-390.5 1649.5,-390.5 1649.5,-390.5 1766.81,-390.5 1878.89,-278.41 1910.31,-244.26"/>
<polygon fill="#63b8ff" stroke="#63b8ff" points="835.93,-324.9 825.36,-324.13 833.14,-331.32 835.93,-324.9"/>
</a>
</g>
</g>
<!-- Node11&#45;&gt;Node3 -->
<g id="edge14_Node000011_Node000003" class="edge">
<title>Node11&#45;&gt;Node3</title>
<g id="a_edge14_Node000011_Node000003"><a xlink:title=" ">
<path fill="none" stroke="#63b8ff" d="M1162.34,-210.16C1222.8,-221.22 1311.68,-234.5 1390,-234.5 1649.5,-234.5 1649.5,-234.5 1649.5,-234.5 1719.68,-234.5 1800.15,-234.5 1854.75,-234.5"/>
<polygon fill="#63b8ff" stroke="#63b8ff" points="1162.62,-206.65 1152.14,-208.27 1161.34,-213.54 1162.62,-206.65"/>
</a>
</g>
</g>
<!-- Node12&#45;&gt;Node3 -->
<g id="edge16_Node000012_Node000003" class="edge">
<title>Node12&#45;&gt;Node3</title>
<g id="a_edge16_Node000012_Node000003"><a xlink:title=" ">
<path fill="none" stroke="#63b8ff" d="M1144.65,-116.08C1204.64,-116.67 1304.23,-117.5 1390,-117.5 1649.5,-117.5 1649.5,-117.5 1649.5,-117.5 1728.04,-117.5 1747.89,-134.15 1819,-167.5 1853.43,-183.65 1889.45,-210.7 1907.4,-224.99"/>
<polygon fill="#63b8ff" stroke="#63b8ff" points="1144.68,-112.58 1134.65,-115.98 1144.61,-119.58 1144.68,-112.58"/>
</a>
</g>
</g>
<!-- Node13&#45;&gt;Node3 -->
<g id="edge20_Node000013_Node000003" class="edge">
<title>Node13&#45;&gt;Node3</title>
<g id="a_edge20_Node000013_Node000003"><a xlink:title=" ">
<path fill="none" stroke="#63b8ff" d="M1141.79,-340.87C1201.19,-328.44 1302.15,-310.5 1390,-310.5 1649.5,-310.5 1649.5,-310.5 1649.5,-310.5 1746.24,-310.5 1855.43,-264.58 1899.26,-244.13"/>
<polygon fill="#63b8ff" stroke="#63b8ff" points="1140.97,-337.47 1131.91,-342.97 1142.42,-344.32 1140.97,-337.47"/>
</a>
</g>
</g>
<!-- Node15 -->
<g id="Node000015" class="node">
<title>Node15</title>
<g id="a_Node000015"><a xlink:href="parser_8c.html#a620dffcc9a167cdee6e67de1191e5277" target="_top" xlink:title="Parse the input of our shell into list.">
<polygon fill="white" stroke="#666666" points="1113,-162 1066,-162 1066,-143 1113,-143 1113,-162"/>
<text text-anchor="middle" x="1089.5" y="-150" font-family="Helvetica,sans-Serif" font-size="10.00">parser</text>
</a>
</g>
</g>
<!-- Node14&#45;&gt;Node15 -->
<g id="edge22_Node000014_Node000015" class="edge">
<title>Node14&#45;&gt;Node15</title>
<g id="a_edge22_Node000014_Node000015"><a xlink:title=" ">
<path fill="none" stroke="#63b8ff" d="M1205.63,-162.67C1175.85,-160.04 1137.49,-156.65 1113.44,-154.53"/>
<polygon fill="#63b8ff" stroke="#63b8ff" points="1205.5,-166.17 1215.77,-163.57 1206.12,-159.2 1205.5,-166.17"/>
</a>
</g>
</g>
<!-- Node16 -->
<g id="Node000016" class="node">
<title>Node16</title>
<g id="a_Node000016"><a xlink:href="42sh_8c.html#a3c04138a5bfe5d72780bb7e82a18e627" target="_top" xlink:title=" ">
<polygon fill="white" stroke="#666666" points="190,-19 149,-19 149,0 190,0 190,-19"/>
<text text-anchor="middle" x="169.5" y="-7" font-family="Helvetica,sans-Serif" font-size="10.00">main</text>
</a>
</g>
</g>
<!-- Node15&#45;&gt;Node16 -->
<g id="edge23_Node000015_Node000016" class="edge">
<title>Node15&#45;&gt;Node16</title>
<g id="a_edge23_Node000015_Node000016"><a xlink:title=" ">
<path fill="none" stroke="#63b8ff" d="M1055.66,-146.57C1002.9,-137.57 895.91,-121.5 804.5,-121.5 804.5,-121.5 804.5,-121.5 387.5,-121.5 303.68,-121.5 300.43,-61.92 224,-27.5 213.1,-22.59 200.44,-18.27 190.17,-15.1"/>
<polygon fill="#63b8ff" stroke="#63b8ff" points="1055.32,-150.06 1065.77,-148.32 1056.51,-143.16 1055.32,-150.06"/>
</a>
</g>
</g>
<!-- Node17 -->
<g id="Node000017" class="node">
<title>Node17</title>
<g id="a_Node000017"><a xlink:href="dot_8c.html#a17477ee2b0f1b8b9306566c990d15b35" target="_top" xlink:title="Main loop of dot builtin.">
<polygon fill="white" stroke="#666666" points="970,-193 902,-193 902,-174 970,-174 970,-193"/>
<text text-anchor="middle" x="936" y="-181" font-family="Helvetica,sans-Serif" font-size="10.00">main_loop</text>
</a>
</g>
</g>
<!-- Node15&#45;&gt;Node17 -->
<g id="edge24_Node000015_Node000017" class="edge">
<title>Node15&#45;&gt;Node17</title>
<g id="a_edge24_Node000015_Node000017"><a xlink:title=" ">
<path fill="none" stroke="#63b8ff" d="M1055.96,-159.16C1030.66,-164.33 995.7,-171.49 970.23,-176.7"/>
<polygon fill="#63b8ff" stroke="#63b8ff" points="1056.72,-162.57 1065.82,-157.14 1055.32,-155.72 1056.72,-162.57"/>
</a>
</g>
</g>
<!-- Node18 -->
<g id="Node000018" class="node">
<title>Node18</title>
<g id="a_Node000018"><a xlink:href="dot_8c.html#a713938d3c6ee343132c429642048bcf6" target="_top" xlink:title="Execute the dot builtin cmd.">
<polygon fill="white" stroke="#666666" points="825.5,-231 781.5,-231 781.5,-212 825.5,-212 825.5,-231"/>
<text text-anchor="middle" x="803.5" y="-219" font-family="Helvetica,sans-Serif" font-size="10.00">dot_b</text>
</a>
</g>
</g>
<!-- Node17&#45;&gt;Node18 -->
<g id="edge25_Node000017_Node000018" class="edge">
<title>Node17&#45;&gt;Node18</title>
<g id="a_edge25_Node000017_Node000018"><a xlink:title=" ">
<path fill="none" stroke="#63b8ff" d="M892.43,-195.89C870.04,-202.42 843.57,-210.12 825.57,-215.37"/>
<polygon fill="#63b8ff" stroke="#63b8ff" points="893.45,-199.25 902.07,-193.09 891.49,-192.52 893.45,-199.25"/>
</a>
</g>
</g>
<!-- Node19 -->
<g id="Node000019" class="node">
<title>Node19</title>
<g id="a_Node000019"><a xlink:href="exec_8c.html#abaeb177587c7eec6a064b35bb8399cae" target="_top" xlink:title="Execute builtin cmd with given args.">
<polygon fill="white" stroke="#666666" points="726,-231 651,-231 651,-212 726,-212 726,-231"/>
<text text-anchor="middle" x="688.5" y="-219" font-family="Helvetica,sans-Serif" font-size="10.00">exec_builtin</text>
</a>
</g>
</g>
<!-- Node18&#45;&gt;Node19 -->
<g id="edge26_Node000018_Node000019" class="edge">
<title>Node18&#45;&gt;Node19</title>
<g id="a_edge26_Node000018_Node000019"><a xlink:title=" ">
<path fill="none" stroke="#63b8ff" d="M771.17,-221.5C757.23,-221.5 740.73,-221.5 726.22,-221.5"/>
<polygon fill="#63b8ff" stroke="#63b8ff" points="771.25,-225 781.25,-221.5 771.25,-218 771.25,-225"/>
</a>
</g>
</g>
<!-- Node20 -->
<g id="Node000020" class="node">
<title>Node20</title>
<g id="a_Node000020"><a xlink:href="exec_8c.html#a287d81b4658832f192750310e2925917" target="_top" xlink:title="Execute the builtin command with given args.">
<polygon fill="white" stroke="#666666" points="615,-231 565,-231 565,-212 615,-212 615,-231"/>
<text text-anchor="middle" x="590" y="-219" font-family="Helvetica,sans-Serif" font-size="10.00">exec_b</text>
</a>
</g>
</g>
<!-- Node19&#45;&gt;Node20 -->
<g id="edge27_Node000019_Node000020" class="edge">
<title>Node19&#45;&gt;Node20</title>
<g id="a_edge27_Node000019_Node000020"><a xlink:title=" ">
<path fill="none" stroke="#63b8ff" d="M640.51,-221.5C631.71,-221.5 622.86,-221.5 615.12,-221.5"/>
<polygon fill="#63b8ff" stroke="#63b8ff" points="640.74,-225 650.74,-221.5 640.74,-218 640.74,-225"/>
</a>
</g>
</g>
<!-- Node21 -->
<g id="Node000021" class="node">
<title>Node21</title>
<g id="a_Node000021"><a xlink:href="exec_8c.html#ae65edaa99b26b49d60c451157d38b34a" target="_top" xlink:title="Execute les commandes avec les args donnes.">
<polygon fill="white" stroke="#666666" points="529,-231 464,-231 464,-212 529,-212 529,-231"/>
<text text-anchor="middle" x="496.5" y="-219" font-family="Helvetica,sans-Serif" font-size="10.00">exec_cmd</text>
</a>
</g>
</g>
<!-- Node20&#45;&gt;Node21 -->
<g id="edge28_Node000020_Node000021" class="edge">
<title>Node20&#45;&gt;Node21</title>
<g id="a_edge28_Node000020_Node000021"><a xlink:title=" ">
<path fill="none" stroke="#63b8ff" d="M554.77,-221.5C546.42,-221.5 537.53,-221.5 529.3,-221.5"/>
<polygon fill="#63b8ff" stroke="#63b8ff" points="554.96,-225 564.96,-221.5 554.96,-218 554.96,-225"/>
</a>
</g>
</g>
<!-- Node22 -->
<g id="Node000022" class="node">
<title>Node22</title>
<g id="a_Node000022"><a xlink:href="ast__run_8c.html#aeb6878a59c6907e5669fc3cc428913d9" target="_top" xlink:title=" ">
<polygon fill="white" stroke="#666666" points="428,-231 349,-231 349,-212 428,-212 428,-231"/>
<text text-anchor="middle" x="388.5" y="-219" font-family="Helvetica,sans-Serif" font-size="10.00">ast_run_cmd</text>
</a>
</g>
</g>
<!-- Node21&#45;&gt;Node22 -->
<g id="edge29_Node000021_Node000022" class="edge">
<title>Node21&#45;&gt;Node22</title>
<g id="a_edge29_Node000021_Node000022"><a xlink:title=" ">
<path fill="none" stroke="#63b8ff" d="M453.92,-221.5C445.45,-221.5 436.58,-221.5 428.21,-221.5"/>
<polygon fill="#63b8ff" stroke="#63b8ff" points="453.98,-225 463.98,-221.5 453.98,-218 453.98,-225"/>
</a>
</g>
</g>
<!-- Node23 -->
<g id="Node000023" class="node">
<title>Node23</title>
<g id="a_Node000023"><a xlink:href="ast_8c.html#a572345b2707780bbbc5bbaacdca9c372" target="_top" xlink:title=" ">
<polygon fill="white" stroke="#666666" points="313,-212 260,-212 260,-193 313,-193 313,-212"/>
<text text-anchor="middle" x="286.5" y="-200" font-family="Helvetica,sans-Serif" font-size="10.00">run_ast</text>
</a>
</g>
</g>
<!-- Node22&#45;&gt;Node23 -->
<g id="edge30_Node000022_Node000023" class="edge">
<title>Node22&#45;&gt;Node23</title>
<g id="a_edge30_Node000022_Node000023"><a xlink:title=" ">
<path fill="none" stroke="#63b8ff" d="M338.86,-212.26C329.95,-210.57 320.99,-208.86 313.1,-207.36"/>
<polygon fill="#63b8ff" stroke="#63b8ff" points="338.36,-215.73 348.84,-214.15 339.67,-208.85 338.36,-215.73"/>
</a>
</g>
</g>
<!-- Node23&#45;&gt;Node16 -->
<g id="edge50_Node000023_Node000016" class="edge">
<title>Node23&#45;&gt;Node16</title>
<g id="a_edge50_Node000023_Node000016"><a xlink:title=" ">
<path fill="none" stroke="#63b8ff" d="M277.84,-183.02C272.66,-169.7 265.74,-151.59 260,-135.5 243,-87.85 259.73,-63.33 224,-27.5 215,-18.48 201.35,-13.98 190.09,-11.73"/>
<polygon fill="#63b8ff" stroke="#63b8ff" points="274.67,-184.52 281.57,-192.56 281.19,-181.97 274.67,-184.52"/>
</a>
</g>
</g>
<!-- Node23&#45;&gt;Node17 -->
<g id="edge51_Node000023_Node000017" class="edge">
<title>Node23&#45;&gt;Node17</title>
<g id="a_edge51_Node000023_Node000017"><a xlink:title=" ">
<path fill="none" stroke="#63b8ff" d="M323.17,-197.25C364.52,-191.63 434.79,-183.5 495.5,-183.5 689.5,-183.5 689.5,-183.5 689.5,-183.5 765.37,-183.5 854.42,-183.5 901.64,-183.5"/>
<polygon fill="#63b8ff" stroke="#63b8ff" points="322.47,-193.81 313.05,-198.66 323.43,-200.75 322.47,-193.81"/>
</a>
</g>
</g>
<!-- Node24 -->
<g id="Node000024" class="node">
<title>Node24</title>
<g id="a_Node000024"><a xlink:href="ast__run_8c.html#a8a01fec616135007fc5b3968a101901b" target="_top" xlink:title=" ">
<polygon fill="white" stroke="#666666" points="215,-314 124,-314 124,-295 215,-295 215,-314"/>
<text text-anchor="middle" x="169.5" y="-302" font-family="Helvetica,sans-Serif" font-size="10.00">ast_run_and_or</text>
</a>
</g>
</g>
<!-- Node23&#45;&gt;Node24 -->
<g id="edge31_Node000023_Node000024" class="edge">
<title>Node23&#45;&gt;Node24</title>
<g id="a_edge31_Node000023_Node000024"><a xlink:title=" ">
<path fill="none" stroke="#63b8ff" d="M269.68,-220.46C255.52,-240.09 235.32,-269.22 224,-277.5 212.3,-286.06 196.24,-290.74 184.78,-294.9"/>
<polygon fill="#63b8ff" stroke="#63b8ff" points="272.63,-222.35 275.7,-212.21 266.97,-218.22 272.63,-222.35"/>
</a>
</g>
</g>
<!-- Node25 -->
<g id="Node000025" class="node">
<title>Node25</title>
<g id="a_Node000025"><a xlink:href="ast__run_8c.html#a9d83d4834a61ffe21eb77838d70ae173" target="_top" xlink:title=" ">
<polygon fill="white" stroke="#666666" points="205,-277 134,-277 134,-258 205,-258 205,-277"/>
<text text-anchor="middle" x="169.5" y="-265" font-family="Helvetica,sans-Serif" font-size="10.00">ast_run_for</text>
</a>
</g>
</g>
<!-- Node23&#45;&gt;Node25 -->
<g id="edge33_Node000023_Node000025" class="edge">
<title>Node23&#45;&gt;Node25</title>
<g id="a_edge33_Node000023_Node000025"><a xlink:title=" ">
<path fill="none" stroke="#63b8ff" d="M258.04,-218.1C247.85,-225.64 235.87,-234.19 224,-240.5 210.33,-247.77 193.15,-252.92 182.01,-257.92"/>
<polygon fill="#63b8ff" stroke="#63b8ff" points="260.21,-220.85 266.14,-212.07 256.03,-215.23 260.21,-220.85"/>
</a>
</g>
</g>
<!-- Node26 -->
<g id="Node000026" class="node">
<title>Node26</title>
<g id="a_Node000026"><a xlink:href="ast__run_8c.html#a0a7138b1f2608ea36211c9b78988c248" target="_top" xlink:title=" ">
<polygon fill="white" stroke="#666666" points="202,-240 137,-240 137,-221 202,-221 202,-240"/>
<text text-anchor="middle" x="169.5" y="-228" font-family="Helvetica,sans-Serif" font-size="10.00">ast_run_if</text>
</a>
</g>
</g>
<!-- Node23&#45;&gt;Node26 -->
<g id="edge35_Node000023_Node000026" class="edge">
<title>Node23&#45;&gt;Node26</title>
<g id="a_edge35_Node000023_Node000026"><a xlink:title=" ">
<path fill="none" stroke="#63b8ff" d="M250.13,-204.83C229.86,-208.87 205.25,-215.26 188.81,-220.95"/>
<polygon fill="#63b8ff" stroke="#63b8ff" points="250.79,-208.27 259.98,-202.99 249.51,-201.38 250.79,-208.27"/>
</a>
</g>
</g>
<!-- Node27 -->
<g id="Node000027" class="node">
<title>Node27</title>
<g id="a_Node000027"><a xlink:href="ast__run_8c.html#ae25cd3ced8abafd76110dba8852a6b87" target="_top" xlink:title=" ">
<polygon fill="white" stroke="#666666" points="206,-185 133,-185 133,-166 206,-166 206,-185"/>
<text text-anchor="middle" x="169.5" y="-173" font-family="Helvetica,sans-Serif" font-size="10.00">ast_run_list</text>
</a>
</g>
</g>
<!-- Node23&#45;&gt;Node27 -->
<g id="edge37_Node000023_Node000027" class="edge">
<title>Node23&#45;&gt;Node27</title>
<g id="a_edge37_Node000023_Node000027"><a xlink:title=" ">
<path fill="none" stroke="#63b8ff" d="M256.86,-189.85C241.59,-185.31 222.66,-180.74 206.41,-177.62"/>
<polygon fill="#63b8ff" stroke="#63b8ff" points="256.18,-193.3 266.77,-192.96 258.28,-186.62 256.18,-193.3"/>
</a>
</g>
</g>
<!-- Node28 -->
<g id="Node000028" class="node">
<title>Node28</title>
<g id="a_Node000028"><a xlink:href="ast__run_8c.html#a536f37ba9bffcd2099fef668656181e0" target="_top" xlink:title=" ">
<polygon fill="white" stroke="#666666" points="209,-148 130,-148 130,-129 209,-129 209,-148"/>
<text text-anchor="middle" x="169.5" y="-136" font-family="Helvetica,sans-Serif" font-size="10.00">ast_run_loop</text>
</a>
</g>
</g>
<!-- Node23&#45;&gt;Node28 -->
<g id="edge40_Node000023_Node000028" class="edge">
<title>Node23&#45;&gt;Node28</title>
<g id="a_edge40_Node000023_Node000028"><a xlink:title=" ">
<path fill="none" stroke="#63b8ff" d="M273.82,-185.13C261.98,-172.74 242.79,-157.36 224,-147.5 219.31,-145.04 214.23,-142.82 209.11,-140.93"/>
<polygon fill="#63b8ff" stroke="#63b8ff" points="271.25,-187.5 280.46,-192.74 276.53,-182.91 271.25,-187.5"/>
</a>
</g>
</g>
<!-- Node29 -->
<g id="Node000029" class="node">
<title>Node29</title>
<g id="a_Node000029"><a xlink:href="ast__run_8c.html#aa3e6a973e744d748ee415840596beb53" target="_top" xlink:title=" ">
<polygon fill="white" stroke="#666666" points="224,-111 115,-111 115,-92 224,-92 224,-111"/>
<text text-anchor="middle" x="169.5" y="-99" font-family="Helvetica,sans-Serif" font-size="10.00">ast_run_shell_redir</text>
</a>
</g>
</g>
<!-- Node23&#45;&gt;Node29 -->
<g id="edge42_Node000023_Node000029" class="edge">
<title>Node23&#45;&gt;Node29</title>
<g id="a_edge42_Node000023_Node000029"><a xlink:title=" ">
<path fill="none" stroke="#63b8ff" d="M279.18,-183.64C269.7,-162.48 250.12,-129.67 224.35,-110.76"/>
<polygon fill="#63b8ff" stroke="#63b8ff" points="275.98,-185.06 283.01,-192.98 282.45,-182.4 275.98,-185.06"/>
</a>
</g>
</g>
<!-- Node30 -->
<g id="Node000030" class="node">
<title>Node30</title>
<g id="a_Node000030"><a xlink:href="exec_8c.html#a23babf893bbcd2f6126698a1a19b169f" target="_top" xlink:title="Execute funct with given arguments.">
<polygon fill="white" stroke="#666666" points="202,-390 137,-390 137,-371 202,-371 202,-390"/>
<text text-anchor="middle" x="169.5" y="-378" font-family="Helvetica,sans-Serif" font-size="10.00">exec_func</text>
</a>
</g>
</g>
<!-- Node23&#45;&gt;Node30 -->
<g id="edge44_Node000023_Node000030" class="edge">
<title>Node23&#45;&gt;Node30</title>
<g id="a_edge44_Node000023_Node000030"><a xlink:title=" ">
<path fill="none" stroke="#63b8ff" d="M273.51,-220.67C268.89,-228.16 263.82,-237.05 260,-245.5 238.64,-292.76 258.64,-317.9 224,-356.5 218.15,-363.02 210.2,-367.86 202.21,-371.43"/>
<polygon fill="#63b8ff" stroke="#63b8ff" points="276.57,-222.39 278.98,-212.07 270.66,-218.63 276.57,-222.39"/>
</a>
</g>
</g>
<!-- Node31 -->
<g id="Node000031" class="node">
<title>Node31</title>
<g id="a_Node000031"><a xlink:href="exec_8c.html#ab743cb88e12e9b922050925fd2075e36" target="_top" xlink:title="Execute a pipeline of commands.">
<polygon fill="white" stroke="#666666" points="202,-56 137,-56 137,-37 202,-37 202,-56"/>
<text text-anchor="middle" x="169.5" y="-44" font-family="Helvetica,sans-Serif" font-size="10.00">exec_pipe</text>
</a>
</g>
</g>
<!-- Node23&#45;&gt;Node31 -->
<g id="edge46_Node000023_Node000031" class="edge">
<title>Node23&#45;&gt;Node31</title>
<g id="a_edge46_Node000023_Node000031"><a xlink:title=" ">
<path fill="none" stroke="#63b8ff" d="M279.09,-183.26C269.95,-157.96 251.2,-113.14 224,-82.5 214.26,-71.53 200.48,-62.36 189.35,-56.02"/>
<polygon fill="#63b8ff" stroke="#63b8ff" points="275.83,-184.52 282.42,-192.81 282.44,-182.22 275.83,-184.52"/>
</a>
</g>
</g>
<!-- Node24&#45;&gt;Node23 -->
<g id="edge32_Node000024_Node000023" class="edge">
<title>Node24&#45;&gt;Node23</title>
<g id="a_edge32_Node000024_Node000023"><a xlink:title=" ">
<path fill="none" stroke="#63b8ff" d="M223.74,-295.69C223.83,-295.63 223.91,-295.56 224,-295.5 239.39,-284.24 271.19,-234.48 281.89,-212.29"/>
<polygon fill="#63b8ff" stroke="#63b8ff" points="221.83,-292.75 215.08,-300.92 225.45,-298.74 221.83,-292.75"/>
</a>
</g>
</g>
<!-- Node25&#45;&gt;Node23 -->
<g id="edge34_Node000025_Node000023" class="edge">
<title>Node25&#45;&gt;Node23</title>
<g id="a_edge34_Node000025_Node000023"><a xlink:title=" ">
<path fill="none" stroke="#63b8ff" d="M214.78,-262.88C217.95,-261.53 221.06,-260.06 224,-258.5 247.02,-246.26 270.47,-225.58 280.48,-212.37"/>
<polygon fill="#63b8ff" stroke="#63b8ff" points="213.27,-259.71 205.16,-266.53 215.75,-266.25 213.27,-259.71"/>
</a>
</g>
</g>
<!-- Node26&#45;&gt;Node23 -->
<g id="edge36_Node000026_Node000023" class="edge">
<title>Node26&#45;&gt;Node23</title>
<g id="a_edge36_Node000026_Node000023"><a xlink:title=" ">
<path fill="none" stroke="#63b8ff" d="M212.02,-226.9C230.98,-222.86 252.46,-217.16 267.28,-212.03"/>
<polygon fill="#63b8ff" stroke="#63b8ff" points="211.2,-223.5 202.09,-228.91 212.58,-230.36 211.2,-223.5"/>
</a>
</g>
</g>
<!-- Node27&#45;&gt;Node23 -->
<g id="edge39_Node000027_Node000023" class="edge">
<title>Node27&#45;&gt;Node23</title>
<g id="a_edge39_Node000027_Node000023"><a xlink:title=" ">
<path fill="none" stroke="#63b8ff" d="M198.9,-188.08C217.61,-193.65 241.89,-199.29 259.98,-202.23"/>
<polygon fill="#63b8ff" stroke="#63b8ff" points="199.75,-184.68 189.16,-185.01 197.65,-191.36 199.75,-184.68"/>
</a>
</g>
</g>
<!-- Node27&#45;&gt;Node27 -->
<g id="edge38_Node000027_Node000027" class="edge">
<title>Node27&#45;&gt;Node27</title>
<g id="a_edge38_Node000027_Node000027"><a xlink:title=" ">
<path fill="none" stroke="#63b8ff" d="M190.98,-194.55C189.55,-199.38 182.39,-203 169.5,-203 148.88,-203 142.92,-193.73 151.62,-185.08"/>
<polygon fill="#63b8ff" stroke="#63b8ff" points="194.2,-193.19 187.38,-185.08 187.66,-195.67 194.2,-193.19"/>
</a>
</g>
</g>
<!-- Node28&#45;&gt;Node23 -->
<g id="edge41_Node000028_Node000023" class="edge">
<title>Node28&#45;&gt;Node23</title>
<g id="a_edge41_Node000028_Node000023"><a xlink:title=" ">
<path fill="none" stroke="#63b8ff" d="M191.32,-151.94C201.49,-155.85 213.72,-160.1 224,-165.5 238.88,-173.31 254.01,-184.57 265.54,-192.93"/>
<polygon fill="#63b8ff" stroke="#63b8ff" points="192.57,-148.67 181.99,-148.11 189.92,-155.14 192.57,-148.67"/>
</a>
</g>
</g>
<!-- Node29&#45;&gt;Node23 -->
<g id="edge43_Node000029_Node000023" class="edge">
<title>Node29&#45;&gt;Node23</title>
<g id="a_edge43_Node000029_Node000023"><a xlink:title=" ">
<path fill="none" stroke="#63b8ff" d="M194.39,-114.5C204.21,-117.96 215.29,-122.17 224,-128.5 248.51,-146.33 267.46,-176.79 277.51,-192.85"/>
<polygon fill="#63b8ff" stroke="#63b8ff" points="195.36,-111.13 184.77,-111.11 193.04,-117.73 195.36,-111.13"/>
</a>
</g>
</g>
<!-- Node30&#45;&gt;Node21 -->
<g id="edge45_Node000030_Node000021" class="edge">
<title>Node30&#45;&gt;Node21</title>
<g id="a_edge45_Node000030_Node000021"><a xlink:title=" ">
<path fill="none" stroke="#63b8ff" d="M199.33,-366.4C264.2,-334.66 420.34,-258.27 475.66,-231.21"/>
<polygon fill="#63b8ff" stroke="#63b8ff" points="197.53,-363.38 190.08,-370.92 200.6,-369.67 197.53,-363.38"/>
</a>
</g>
</g>
<!-- Node31&#45;&gt;Node31 -->
<g id="edge49_Node000031_Node000031" class="edge">
<title>Node31&#45;&gt;Node31</title>
<g id="a_edge49_Node000031_Node000031"><a xlink:title=" ">
<path fill="none" stroke="#63b8ff" d="M190.98,-65.55C189.55,-70.38 182.39,-74 169.5,-74 148.88,-74 142.92,-64.73 151.62,-56.08"/>
<polygon fill="#63b8ff" stroke="#63b8ff" points="194.2,-64.19 187.38,-56.08 187.66,-66.67 194.2,-64.19"/>
</a>
</g>
</g>
<!-- Node32 -->
<g id="Node000032" class="node">
<title>Node32</title>
<g id="a_Node000032"><a xlink:href="ast__run_8c.html#a24d0223822f7b635628199085c3283be" target="_top" xlink:title=" ">
<polygon fill="white" stroke="#666666" points="79,-204 0,-204 0,-185 79,-185 79,-204"/>
<text text-anchor="middle" x="39.5" y="-192" font-family="Helvetica,sans-Serif" font-size="10.00">ast_run_pipe</text>
</a>
</g>
</g>
<!-- Node31&#45;&gt;Node32 -->
<g id="edge47_Node000031_Node000032" class="edge">
<title>Node31&#45;&gt;Node32</title>
<g id="a_edge47_Node000031_Node000032"><a xlink:title=" ">
<path fill="none" stroke="#63b8ff" d="M141.63,-61.65C132.59,-67.48 122.82,-74.64 115,-82.5 82.39,-115.28 55.66,-164.35 45.22,-184.91"/>
<polygon fill="#63b8ff" stroke="#63b8ff" points="143.66,-64.51 150.34,-56.28 139.99,-58.55 143.66,-64.51"/>
</a>
</g>
</g>
<!-- Node32&#45;&gt;Node23 -->
<g id="edge48_Node000032_Node000023" class="edge">
<title>Node32&#45;&gt;Node23</title>
<g id="a_edge48_Node000032_Node000023"><a xlink:title=" ">
<path fill="none" stroke="#63b8ff" d="M45.16,-213.99C53.45,-243.8 73.91,-299.78 115,-323.5 156.96,-347.72 183.19,-349.61 224,-323.5 256.16,-302.92 242.24,-279.3 260,-245.5 266.14,-233.82 273.98,-220.85 279.33,-212.24"/>
<polygon fill="#63b8ff" stroke="#63b8ff" points="48.54,-213.09 42.64,-204.29 41.77,-214.85 48.54,-213.09"/>
</a>
</g>
</g>
<!-- Node33&#45;&gt;Node4 -->
<g id="edge53_Node000033_Node000004" class="edge">
<title>Node33&#45;&gt;Node4</title>
<g id="a_edge53_Node000033_Node000004"><a xlink:title=" ">
<path fill="none" stroke="#63b8ff" d="M1724.81,-192.45C1716.36,-191.79 1707.61,-191.09 1699.2,-190.43"/>
<polygon fill="#63b8ff" stroke="#63b8ff" points="1724.68,-195.95 1734.93,-193.25 1725.24,-188.98 1724.68,-195.95"/>
</a>
</g>
</g>
</g>
</svg>
