<?xml version="1.0" encoding="UTF-8" standalone="no"?>
<!DOCTYPE svg PUBLIC "-//W3C//DTD SVG 1.1//EN"
 "http://www.w3.org/Graphics/SVG/1.1/DTD/svg11.dtd">
<!-- Generated by graphviz version 2.43.0 (0)
 -->
<!-- Title: ast_run_shell_redir Pages: 1 -->
<svg width="861pt" height="438pt"
 viewBox="0.00 0.00 861.00 437.63" xmlns="http://www.w3.org/2000/svg" xmlns:xlink="http://www.w3.org/1999/xlink">
<g id="graph0" class="graph" transform="scale(1 1) rotate(0) translate(4 433.63)">
<title>ast_run_shell_redir</title>
<!-- Node1 -->
<g id="Node000001" class="node">
<title>Node1</title>
<g id="a_Node000001"><a xlink:title=" ">
<polygon fill="#999999" stroke="#666666" points="853,-281.63 744,-281.63 744,-262.63 853,-262.63 853,-281.63"/>
<text text-anchor="middle" x="798.5" y="-269.63" font-family="Helvetica,sans-Serif" font-size="10.00">ast_run_shell_redir</text>
</a>
</g>
</g>
<!-- Node2 -->
<g id="Node000002" class="node">
<title>Node2</title>
<g id="a_Node000002"><a xlink:href="ast_8c.html#a572345b2707780bbbc5bbaacdca9c372" target="_top" xlink:title=" ">
<polygon fill="white" stroke="#666666" points="708,-281.63 655,-281.63 655,-262.63 708,-262.63 708,-281.63"/>
<text text-anchor="middle" x="681.5" y="-269.63" font-family="Helvetica,sans-Serif" font-size="10.00">run_ast</text>
</a>
</g>
</g>
<!-- Node1&#45;&gt;Node2 -->
<g id="edge1_Node000001_Node000002" class="edge">
<title>Node1&#45;&gt;Node2</title>
<g id="a_edge1_Node000001_Node000002"><a xlink:title=" ">
<path fill="none" stroke="#63b8ff" d="M733.53,-265.41C724.56,-265.52 715.81,-265.85 708.15,-266.4"/>
<polygon fill="#63b8ff" stroke="#63b8ff" points="733.71,-268.91 743.7,-265.39 733.69,-261.91 733.71,-268.91"/>
</a>
</g>
</g>
<!-- Node2&#45;&gt;Node1 -->
<g id="edge13_Node000002_Node000001" class="edge">
<title>Node2&#45;&gt;Node1</title>
<g id="a_edge13_Node000002_Node000001"><a xlink:title=" ">
<path fill="none" stroke="#63b8ff" d="M718.3,-278.43C726.36,-278.78 735.09,-278.92 743.7,-278.86"/>
<polygon fill="#63b8ff" stroke="#63b8ff" points="718.33,-274.92 708.15,-277.85 717.94,-281.91 718.33,-274.92"/>
</a>
</g>
</g>
<!-- Node3 -->
<g id="Node000003" class="node">
<title>Node3</title>
<g id="a_Node000003"><a xlink:href="ast__run_8c.html#a8a01fec616135007fc5b3968a101901b" target="_top" xlink:title=" ">
<polygon fill="white" stroke="#666666" points="619,-429.63 528,-429.63 528,-410.63 619,-410.63 619,-429.63"/>
<text text-anchor="middle" x="573.5" y="-417.63" font-family="Helvetica,sans-Serif" font-size="10.00">ast_run_and_or</text>
</a>
</g>
</g>
<!-- Node2&#45;&gt;Node3 -->
<g id="edge2_Node000002_Node000003" class="edge">
<title>Node2&#45;&gt;Node3</title>
<g id="a_edge2_Node000002_Node000003"><a xlink:title=" ">
<path fill="none" stroke="#63b8ff" d="M674.36,-291.46C666.25,-317.91 649.32,-364.5 619,-393.13 610.03,-401.59 596.56,-406.29 586.79,-410.48"/>
<polygon fill="#63b8ff" stroke="#63b8ff" points="677.75,-292.36 677.22,-281.78 671.03,-290.38 677.75,-292.36"/>
</a>
</g>
</g>
<!-- Node4 -->
<g id="Node000004" class="node">
<title>Node4</title>
<g id="a_Node000004"><a xlink:href="ast__run_8c.html#a9d83d4834a61ffe21eb77838d70ae173" target="_top" xlink:title=" ">
<polygon fill="white" stroke="#666666" points="609,-392.63 538,-392.63 538,-373.63 609,-373.63 609,-392.63"/>
<text text-anchor="middle" x="573.5" y="-380.63" font-family="Helvetica,sans-Serif" font-size="10.00">ast_run_for</text>
</a>
</g>
</g>
<!-- Node2&#45;&gt;Node4 -->
<g id="edge4_Node000002_Node000004" class="edge">
<title>Node2&#45;&gt;Node4</title>
<g id="a_edge4_Node000002_Node000004"><a xlink:title=" ">
<path fill="none" stroke="#63b8ff" d="M668.78,-290.81C658.31,-309.67 641.2,-337.97 619,-356.13 609.19,-364.14 595.34,-368.99 585.71,-373.48"/>
<polygon fill="#63b8ff" stroke="#63b8ff" points="671.92,-292.36 673.64,-281.9 665.77,-289 671.92,-292.36"/>
</a>
</g>
</g>
<!-- Node5 -->
<g id="Node000005" class="node">
<title>Node5</title>
<g id="a_Node000005"><a xlink:href="ast__run_8c.html#a0a7138b1f2608ea36211c9b78988c248" target="_top" xlink:title=" ">
<polygon fill="white" stroke="#666666" points="606,-355.63 541,-355.63 541,-336.63 606,-336.63 606,-355.63"/>
<text text-anchor="middle" x="573.5" y="-343.63" font-family="Helvetica,sans-Serif" font-size="10.00">ast_run_if</text>
</a>
</g>
</g>
<!-- Node2&#45;&gt;Node5 -->
<g id="edge6_Node000002_Node000005" class="edge">
<title>Node2&#45;&gt;Node5</title>
<g id="a_edge6_Node000002_Node000005"><a xlink:title=" ">
<path fill="none" stroke="#63b8ff" d="M656.88,-289.04C646.07,-298.81 632.64,-310.55 619,-319.13 607.71,-326.22 593.15,-331.48 583.82,-336.62"/>
<polygon fill="#63b8ff" stroke="#63b8ff" points="659.55,-291.35 664.6,-282.04 654.84,-286.17 659.55,-291.35"/>
</a>
</g>
</g>
<!-- Node6 -->
<g id="Node000006" class="node">
<title>Node6</title>
<g id="a_Node000006"><a xlink:href="ast__run_8c.html#ae25cd3ced8abafd76110dba8852a6b87" target="_top" xlink:title=" ">
<polygon fill="white" stroke="#666666" points="610,-300.63 537,-300.63 537,-281.63 610,-281.63 610,-300.63"/>
<text text-anchor="middle" x="573.5" y="-288.63" font-family="Helvetica,sans-Serif" font-size="10.00">ast_run_list</text>
</a>
</g>
</g>
<!-- Node2&#45;&gt;Node6 -->
<g id="edge8_Node000002_Node000006" class="edge">
<title>Node2&#45;&gt;Node6</title>
<g id="a_edge8_Node000002_Node000006"><a xlink:title=" ">
<path fill="none" stroke="#63b8ff" d="M644.79,-272.11C628.87,-274.33 610.61,-277.87 596.69,-281.54"/>
<polygon fill="#63b8ff" stroke="#63b8ff" points="645.35,-275.56 654.84,-270.85 644.48,-268.62 645.35,-275.56"/>
</a>
</g>
</g>
<!-- Node7 -->
<g id="Node000007" class="node">
<title>Node7</title>
<g id="a_Node000007"><a xlink:href="ast__run_8c.html#a536f37ba9bffcd2099fef668656181e0" target="_top" xlink:title=" ">
<polygon fill="white" stroke="#666666" points="613,-263.63 534,-263.63 534,-244.63 613,-244.63 613,-263.63"/>
<text text-anchor="middle" x="573.5" y="-251.63" font-family="Helvetica,sans-Serif" font-size="10.00">ast_run_loop</text>
</a>
</g>
</g>
<!-- Node2&#45;&gt;Node7 -->
<g id="edge11_Node000002_Node000007" class="edge">
<title>Node2&#45;&gt;Node7</title>
<g id="a_edge11_Node000002_Node000007"><a xlink:title=" ">
<path fill="none" stroke="#63b8ff" d="M647.73,-260.27C636.76,-257.88 624.43,-255.71 613.05,-254.15"/>
<polygon fill="#63b8ff" stroke="#63b8ff" points="647.23,-263.74 657.76,-262.61 648.82,-256.93 647.23,-263.74"/>
</a>
</g>
</g>
<!-- Node8 -->
<g id="Node000008" class="node">
<title>Node8</title>
<g id="a_Node000008"><a xlink:href="exec_8c.html#a23babf893bbcd2f6126698a1a19b169f" target="_top" xlink:title="Execute funct with given arguments.">
<polygon fill="white" stroke="#666666" points="372,-192.63 307,-192.63 307,-173.63 372,-173.63 372,-192.63"/>
<text text-anchor="middle" x="339.5" y="-180.63" font-family="Helvetica,sans-Serif" font-size="10.00">exec_func</text>
</a>
</g>
</g>
<!-- Node2&#45;&gt;Node8 -->
<g id="edge14_Node000002_Node000008" class="edge">
<title>Node2&#45;&gt;Node8</title>
<g id="a_edge14_Node000002_Node000008"><a xlink:title=" ">
<path fill="none" stroke="#63b8ff" d="M658.62,-256.84C647.27,-249.57 632.89,-241.34 619,-236.13 533.28,-203.98 425.11,-190.57 372.35,-185.64"/>
<polygon fill="#63b8ff" stroke="#63b8ff" points="656.74,-259.8 667.01,-262.4 660.61,-253.96 656.74,-259.8"/>
</a>
</g>
</g>
<!-- Node11 -->
<g id="Node000011" class="node">
<title>Node11</title>
<g id="a_Node000011"><a xlink:href="exec_8c.html#ab743cb88e12e9b922050925fd2075e36" target="_top" xlink:title="Execute a pipeline of commands.">
<polygon fill="white" stroke="#666666" points="606,-169.63 541,-169.63 541,-150.63 606,-150.63 606,-169.63"/>
<text text-anchor="middle" x="573.5" y="-157.63" font-family="Helvetica,sans-Serif" font-size="10.00">exec_pipe</text>
</a>
</g>
</g>
<!-- Node2&#45;&gt;Node11 -->
<g id="edge18_Node000002_Node000011" class="edge">
<title>Node2&#45;&gt;Node11</title>
<g id="a_edge18_Node000002_Node000011"><a xlink:title=" ">
<path fill="none" stroke="#63b8ff" d="M665.97,-254.69C653.78,-240.28 635.71,-219.45 619,-202.13 607.93,-190.66 594.56,-178.21 585.38,-169.87"/>
<polygon fill="#63b8ff" stroke="#63b8ff" points="663.3,-256.96 672.42,-262.36 668.66,-252.45 663.3,-256.96"/>
</a>
</g>
</g>
<!-- Node13 -->
<g id="Node000013" class="node">
<title>Node13</title>
<g id="a_Node000013"><a xlink:href="42sh_8c.html#a3c04138a5bfe5d72780bb7e82a18e627" target="_top" xlink:title=" ">
<polygon fill="white" stroke="#666666" points="594,-132.63 553,-132.63 553,-113.63 594,-113.63 594,-132.63"/>
<text text-anchor="middle" x="573.5" y="-120.63" font-family="Helvetica,sans-Serif" font-size="10.00">main</text>
</a>
</g>
</g>
<!-- Node2&#45;&gt;Node13 -->
<g id="edge22_Node000002_Node000013" class="edge">
<title>Node2&#45;&gt;Node13</title>
<g id="a_edge22_Node000002_Node000013"><a xlink:title=" ">
<path fill="none" stroke="#63b8ff" d="M676.03,-252.84C668.65,-224.95 651.4,-173.3 619,-142.13 612.1,-135.48 602.52,-130.99 594.02,-128.05"/>
<polygon fill="#63b8ff" stroke="#63b8ff" points="672.65,-253.73 678.46,-262.58 679.44,-252.03 672.65,-253.73"/>
</a>
</g>
</g>
<!-- Node14 -->
<g id="Node000014" class="node">
<title>Node14</title>
<g id="a_Node000014"><a xlink:href="dot_8c.html#a17477ee2b0f1b8b9306566c990d15b35" target="_top" xlink:title="Main loop of dot builtin.">
<polygon fill="white" stroke="#666666" points="607.5,-56.63 539.5,-56.63 539.5,-37.63 607.5,-37.63 607.5,-56.63"/>
<text text-anchor="middle" x="573.5" y="-44.63" font-family="Helvetica,sans-Serif" font-size="10.00">main_loop</text>
</a>
</g>
</g>
<!-- Node2&#45;&gt;Node14 -->
<g id="edge23_Node000002_Node000014" class="edge">
<title>Node2&#45;&gt;Node14</title>
<g id="a_edge23_Node000002_Node000014"><a xlink:title=" ">
<path fill="none" stroke="#63b8ff" d="M679.36,-252.57C676.15,-213.77 664.05,-126.1 619,-71.13 614.1,-65.15 607.32,-60.45 600.51,-56.85"/>
<polygon fill="#63b8ff" stroke="#63b8ff" points="675.87,-252.82 680.07,-262.55 682.85,-252.32 675.87,-252.82"/>
</a>
</g>
</g>
<!-- Node3&#45;&gt;Node2 -->
<g id="edge3_Node000003_Node000002" class="edge">
<title>Node3&#45;&gt;Node2</title>
<g id="a_edge3_Node000003_Node000002"><a xlink:title=" ">
<path fill="none" stroke="#63b8ff" d="M626.46,-403.44C660.21,-365.63 675.17,-305.92 679.28,-281.89"/>
<polygon fill="#63b8ff" stroke="#63b8ff" points="623.88,-401.07 619.46,-410.69 628.92,-405.93 623.88,-401.07"/>
</a>
</g>
</g>
<!-- Node4&#45;&gt;Node2 -->
<g id="edge5_Node000004_Node000002" class="edge">
<title>Node4&#45;&gt;Node2</title>
<g id="a_edge5_Node000004_Node000002"><a xlink:title=" ">
<path fill="none" stroke="#63b8ff" d="M617.87,-375.02C618.25,-374.73 618.63,-374.43 619,-374.13 650.32,-348.52 671.49,-302.74 678.21,-281.89"/>
<polygon fill="#63b8ff" stroke="#63b8ff" points="615.79,-372.2 609.21,-380.51 619.54,-378.11 615.79,-372.2"/>
</a>
</g>
</g>
<!-- Node5&#45;&gt;Node2 -->
<g id="edge7_Node000005_Node000002" class="edge">
<title>Node5&#45;&gt;Node2</title>
<g id="a_edge7_Node000005_Node000002"><a xlink:title=" ">
<path fill="none" stroke="#63b8ff" d="M615.58,-339.17C616.75,-338.51 617.89,-337.82 619,-337.13 643.2,-321.9 666.76,-296.73 676.19,-281.94"/>
<polygon fill="#63b8ff" stroke="#63b8ff" points="613.7,-336.19 606.31,-343.79 616.82,-342.46 613.7,-336.19"/>
</a>
</g>
</g>
<!-- Node6&#45;&gt;Node2 -->
<g id="edge10_Node000006_Node000002" class="edge">
<title>Node6&#45;&gt;Node2</title>
<g id="a_edge10_Node000006_Node000002"><a xlink:title=" ">
<path fill="none" stroke="#63b8ff" d="M620.2,-289.63C633.5,-287.45 647.42,-284.59 658.54,-281.65"/>
<polygon fill="#63b8ff" stroke="#63b8ff" points="619.57,-286.18 610.2,-291.15 620.62,-293.1 619.57,-286.18"/>
</a>
</g>
</g>
<!-- Node6&#45;&gt;Node6 -->
<g id="edge9_Node000006_Node000006" class="edge">
<title>Node6&#45;&gt;Node6</title>
<g id="a_edge9_Node000006_Node000006"><a xlink:title=" ">
<path fill="none" stroke="#63b8ff" d="M593.5,-310.18C592.16,-315.01 585.5,-318.63 573.5,-318.63 554.3,-318.63 548.76,-309.36 556.85,-300.71"/>
<polygon fill="#63b8ff" stroke="#63b8ff" points="596.78,-308.97 590.15,-300.71 590.18,-311.3 596.78,-308.97"/>
</a>
</g>
</g>
<!-- Node7&#45;&gt;Node2 -->
<g id="edge12_Node000007_Node000002" class="edge">
<title>Node7&#45;&gt;Node2</title>
<g id="a_edge12_Node000007_Node000002"><a xlink:title=" ">
<path fill="none" stroke="#63b8ff" d="M607.47,-266.03C622.74,-269.33 640.6,-272.23 654.84,-273.65"/>
<polygon fill="#63b8ff" stroke="#63b8ff" points="607.93,-262.54 597.4,-263.68 606.35,-269.36 607.93,-262.54"/>
</a>
</g>
</g>
<!-- Node9 -->
<g id="Node000009" class="node">
<title>Node9</title>
<g id="a_Node000009"><a xlink:href="exec_8c.html#ae65edaa99b26b49d60c451157d38b34a" target="_top" xlink:title="Execute les commandes avec les args donnes.">
<polygon fill="white" stroke="#666666" points="180,-56.63 115,-56.63 115,-37.63 180,-37.63 180,-56.63"/>
<text text-anchor="middle" x="147.5" y="-44.63" font-family="Helvetica,sans-Serif" font-size="10.00">exec_cmd</text>
</a>
</g>
</g>
<!-- Node8&#45;&gt;Node9 -->
<g id="edge15_Node000008_Node000009" class="edge">
<title>Node8&#45;&gt;Node9</title>
<g id="a_edge15_Node000008_Node000009"><a xlink:title=" ">
<path fill="none" stroke="#63b8ff" d="M316.95,-167.7C277.39,-139.38 194.26,-79.88 161.85,-56.68"/>
<polygon fill="#63b8ff" stroke="#63b8ff" points="314.97,-170.59 325.14,-173.56 319.05,-164.9 314.97,-170.59"/>
</a>
</g>
</g>
<!-- Node10 -->
<g id="Node000010" class="node">
<title>Node10</title>
<g id="a_Node000010"><a xlink:href="ast__run_8c.html#aeb6878a59c6907e5669fc3cc428913d9" target="_top" xlink:title=" ">
<polygon fill="white" stroke="#666666" points="79,-37.63 0,-37.63 0,-18.63 79,-18.63 79,-37.63"/>
<text text-anchor="middle" x="39.5" y="-25.63" font-family="Helvetica,sans-Serif" font-size="10.00">ast_run_cmd</text>
</a>
</g>
</g>
<!-- Node9&#45;&gt;Node10 -->
<g id="edge16_Node000009_Node000010" class="edge">
<title>Node9&#45;&gt;Node10</title>
<g id="a_edge16_Node000009_Node000010"><a xlink:title=" ">
<path fill="none" stroke="#63b8ff" d="M104.92,-39.67C96.45,-38.15 87.58,-36.56 79.21,-35.06"/>
<polygon fill="#63b8ff" stroke="#63b8ff" points="104.52,-43.16 114.98,-41.48 105.76,-36.27 104.52,-43.16"/>
</a>
</g>
</g>
<!-- Node10&#45;&gt;Node2 -->
<g id="edge17_Node000010_Node000002" class="edge">
<title>Node10&#45;&gt;Node2</title>
<g id="a_edge17_Node000010_Node000002"><a xlink:title=" ">
<path fill="none" stroke="#63b8ff" d="M89.1,-20.9C129.43,-15.52 188.31,-9.13 240,-9.13 453.5,-9.13 453.5,-9.13 453.5,-9.13 527.54,-9.13 563.29,20.64 619,-28.13 655.65,-60.21 675.12,-221.55 679.52,-262.61"/>
<polygon fill="#63b8ff" stroke="#63b8ff" points="88.45,-17.45 79.01,-22.27 89.4,-24.39 88.45,-17.45"/>
</a>
</g>
</g>
<!-- Node11&#45;&gt;Node11 -->
<g id="edge21_Node000011_Node000011" class="edge">
<title>Node11&#45;&gt;Node11</title>
<g id="a_edge21_Node000011_Node000011"><a xlink:title=" ">
<path fill="none" stroke="#63b8ff" d="M593.5,-179.18C592.16,-184.01 585.5,-187.63 573.5,-187.63 554.3,-187.63 548.76,-178.36 556.85,-169.71"/>
<polygon fill="#63b8ff" stroke="#63b8ff" points="596.78,-177.97 590.15,-169.71 590.18,-180.3 596.78,-177.97"/>
</a>
</g>
</g>
<!-- Node12 -->
<g id="Node000012" class="node">
<title>Node12</title>
<g id="a_Node000012"><a xlink:href="ast__run_8c.html#a24d0223822f7b635628199085c3283be" target="_top" xlink:title=" ">
<polygon fill="white" stroke="#666666" points="492,-131.63 413,-131.63 413,-112.63 492,-112.63 492,-131.63"/>
<text text-anchor="middle" x="452.5" y="-119.63" font-family="Helvetica,sans-Serif" font-size="10.00">ast_run_pipe</text>
</a>
</g>
</g>
<!-- Node11&#45;&gt;Node12 -->
<g id="edge19_Node000011_Node000012" class="edge">
<title>Node11&#45;&gt;Node12</title>
<g id="a_edge19_Node000011_Node000012"><a xlink:title=" ">
<path fill="none" stroke="#63b8ff" d="M532.79,-147.44C516.71,-142.31 498.46,-136.48 483.52,-131.71"/>
<polygon fill="#63b8ff" stroke="#63b8ff" points="531.88,-150.83 542.47,-150.54 534.01,-144.16 531.88,-150.83"/>
</a>
</g>
</g>
<!-- Node12&#45;&gt;Node2 -->
<g id="edge20_Node000012_Node000002" class="edge">
<title>Node12&#45;&gt;Node2</title>
<g id="a_edge20_Node000012_Node000002"><a xlink:title=" ">
<path fill="none" stroke="#63b8ff" d="M482.2,-108.62C517.66,-94.12 578.29,-76.73 619,-105.13 672.73,-142.59 679.64,-232.53 680.44,-262.34"/>
<polygon fill="#63b8ff" stroke="#63b8ff" points="480.72,-105.44 472.9,-112.59 483.47,-111.88 480.72,-105.44"/>
</a>
</g>
</g>
<!-- Node15 -->
<g id="Node000015" class="node">
<title>Node15</title>
<g id="a_Node000015"><a xlink:href="dot_8c.html#a713938d3c6ee343132c429642048bcf6" target="_top" xlink:title="Execute the dot builtin cmd.">
<polygon fill="white" stroke="#666666" points="474.5,-56.63 430.5,-56.63 430.5,-37.63 474.5,-37.63 474.5,-56.63"/>
<text text-anchor="middle" x="452.5" y="-44.63" font-family="Helvetica,sans-Serif" font-size="10.00">dot_b</text>
</a>
</g>
</g>
<!-- Node14&#45;&gt;Node15 -->
<g id="edge24_Node000014_Node000015" class="edge">
<title>Node14&#45;&gt;Node15</title>
<g id="a_edge24_Node000014_Node000015"><a xlink:title=" ">
<path fill="none" stroke="#63b8ff" d="M529.34,-47.13C510.81,-47.13 489.99,-47.13 474.86,-47.13"/>
<polygon fill="#63b8ff" stroke="#63b8ff" points="529.35,-50.63 539.35,-47.13 529.35,-43.63 529.35,-50.63"/>
</a>
</g>
</g>
<!-- Node16 -->
<g id="Node000016" class="node">
<title>Node16</title>
<g id="a_Node000016"><a xlink:href="exec_8c.html#abaeb177587c7eec6a064b35bb8399cae" target="_top" xlink:title="Execute builtin cmd with given args.">
<polygon fill="white" stroke="#666666" points="377,-56.63 302,-56.63 302,-37.63 377,-37.63 377,-56.63"/>
<text text-anchor="middle" x="339.5" y="-44.63" font-family="Helvetica,sans-Serif" font-size="10.00">exec_builtin</text>
</a>
</g>
</g>
<!-- Node15&#45;&gt;Node16 -->
<g id="edge25_Node000015_Node000016" class="edge">
<title>Node15&#45;&gt;Node16</title>
<g id="a_edge25_Node000015_Node000016"><a xlink:title=" ">
<path fill="none" stroke="#63b8ff" d="M420.23,-47.13C406.88,-47.13 391.2,-47.13 377.3,-47.13"/>
<polygon fill="#63b8ff" stroke="#63b8ff" points="420.36,-50.63 430.36,-47.13 420.36,-43.63 420.36,-50.63"/>
</a>
</g>
</g>
<!-- Node17 -->
<g id="Node000017" class="node">
<title>Node17</title>
<g id="a_Node000017"><a xlink:href="exec_8c.html#a287d81b4658832f192750310e2925917" target="_top" xlink:title="Execute the builtin command with given args.">
<polygon fill="white" stroke="#666666" points="266,-56.63 216,-56.63 216,-37.63 266,-37.63 266,-56.63"/>
<text text-anchor="middle" x="241" y="-44.63" font-family="Helvetica,sans-Serif" font-size="10.00">exec_b</text>
</a>
</g>
</g>
<!-- Node16&#45;&gt;Node17 -->
<g id="edge26_Node000016_Node000017" class="edge">
<title>Node16&#45;&gt;Node17</title>
<g id="a_edge26_Node000016_Node000017"><a xlink:title=" ">
<path fill="none" stroke="#63b8ff" d="M291.51,-47.13C282.71,-47.13 273.86,-47.13 266.12,-47.13"/>
<polygon fill="#63b8ff" stroke="#63b8ff" points="291.74,-50.63 301.74,-47.13 291.74,-43.63 291.74,-50.63"/>
</a>
</g>
</g>
<!-- Node17&#45;&gt;Node9 -->
<g id="edge27_Node000017_Node000009" class="edge">
<title>Node17&#45;&gt;Node9</title>
<g id="a_edge27_Node000017_Node000009"><a xlink:title=" ">
<path fill="none" stroke="#63b8ff" d="M205.77,-47.13C197.42,-47.13 188.53,-47.13 180.3,-47.13"/>
<polygon fill="#63b8ff" stroke="#63b8ff" points="205.96,-50.63 215.96,-47.13 205.96,-43.63 205.96,-50.63"/>
</a>
</g>
</g>
</g>
</svg>
