<?xml version="1.0" encoding="UTF-8" standalone="no"?>
<!DOCTYPE svg PUBLIC "-//W3C//DTD SVG 1.1//EN"
 "http://www.w3.org/Graphics/SVG/1.1/DTD/svg11.dtd">
<!-- Generated by graphviz version 2.43.0 (0)
 -->
<!-- Title: break_continue Pages: 1 -->
<svg width="216pt" height="138pt"
 viewBox="0.00 0.00 216.00 138.00" xmlns="http://www.w3.org/2000/svg" xmlns:xlink="http://www.w3.org/1999/xlink">
<g id="graph0" class="graph" transform="scale(1 1) rotate(0) translate(4 134)">
<title>break_continue</title>
<!-- Node1 -->
<g id="Node000001" class="node">
<title>Node1</title>
<g id="a_Node000001"><a xlink:title=" ">
<polygon fill="#999999" stroke="#666666" points="92,-74 0,-74 0,-55 92,-55 92,-74"/>
<text text-anchor="middle" x="46" y="-62" font-family="Helvetica,sans-Serif" font-size="10.00">break_continue</text>
</a>
</g>
</g>
<!-- Node2 -->
<g id="Node000002" class="node">
<title>Node2</title>
<g id="a_Node000002"><a xlink:href="break__continue_8c.html#ae4694f053b5c61e216001e5f80b360c1" target="_top" xlink:title=" ">
<polygon fill="white" stroke="#666666" points="200.5,-130 135.5,-130 135.5,-111 200.5,-111 200.5,-130"/>
<text text-anchor="middle" x="168" y="-118" font-family="Helvetica,sans-Serif" font-size="10.00">get_break</text>
</a>
</g>
</g>
<!-- Node1&#45;&gt;Node2 -->
<g id="edge1_Node000001_Node000002" class="edge">
<title>Node1&#45;&gt;Node2</title>
<g id="a_edge1_Node000001_Node000002"><a xlink:title=" ">
<path fill="none" stroke="#63b8ff" d="M67.29,-74.06C83.66,-81.77 107.3,-92.87 128,-102.5 130.97,-103.88 134.08,-105.32 137.18,-106.76"/>
<polygon fill="#63b8ff" stroke="#63b8ff" points="135.8,-109.98 146.34,-111 138.73,-103.62 135.8,-109.98"/>
</a>
</g>
</g>
<!-- Node3 -->
<g id="Node000003" class="node">
<title>Node3</title>
<g id="a_Node000003"><a xlink:href="break__continue_8c.html#ae9389b7621942adf17053fa19ea42159" target="_top" xlink:title=" ">
<polygon fill="white" stroke="#666666" points="208,-93 128,-93 128,-74 208,-74 208,-93"/>
<text text-anchor="middle" x="168" y="-81" font-family="Helvetica,sans-Serif" font-size="10.00">get_continue</text>
</a>
</g>
</g>
<!-- Node1&#45;&gt;Node3 -->
<g id="edge2_Node000001_Node000003" class="edge">
<title>Node1&#45;&gt;Node3</title>
<g id="a_edge2_Node000001_Node000003"><a xlink:title=" ">
<path fill="none" stroke="#63b8ff" d="M92.02,-71.63C100.35,-72.95 109.08,-74.33 117.52,-75.67"/>
<polygon fill="#63b8ff" stroke="#63b8ff" points="117.21,-79.16 127.63,-77.27 118.31,-72.25 117.21,-79.16"/>
</a>
</g>
</g>
<!-- Node4 -->
<g id="Node000004" class="node">
<title>Node4</title>
<g id="a_Node000004"><a xlink:href="break__continue_8c.html#a288db8696d7666e5a29b3e1dd66b509a" target="_top" xlink:title=" ">
<polygon fill="white" stroke="#666666" points="200.5,-56 135.5,-56 135.5,-37 200.5,-37 200.5,-56"/>
<text text-anchor="middle" x="168" y="-44" font-family="Helvetica,sans-Serif" font-size="10.00">set_break</text>
</a>
</g>
</g>
<!-- Node1&#45;&gt;Node4 -->
<g id="edge3_Node000001_Node000004" class="edge">
<title>Node1&#45;&gt;Node4</title>
<g id="a_edge3_Node000001_Node000004"><a xlink:title=" ">
<path fill="none" stroke="#63b8ff" d="M92.02,-57.75C102.91,-56.11 114.5,-54.38 125.23,-52.77"/>
<polygon fill="#63b8ff" stroke="#63b8ff" points="125.83,-56.21 135.2,-51.27 124.79,-49.29 125.83,-56.21"/>
</a>
</g>
</g>
<!-- Node5 -->
<g id="Node000005" class="node">
<title>Node5</title>
<g id="a_Node000005"><a xlink:href="break__continue_8c.html#aa68245514e48192c25c8d61340d75a65" target="_top" xlink:title=" ">
<polygon fill="white" stroke="#666666" points="207.5,-19 128.5,-19 128.5,0 207.5,0 207.5,-19"/>
<text text-anchor="middle" x="168" y="-7" font-family="Helvetica,sans-Serif" font-size="10.00">set_continue</text>
</a>
</g>
</g>
<!-- Node1&#45;&gt;Node5 -->
<g id="edge4_Node000001_Node000005" class="edge">
<title>Node1&#45;&gt;Node5</title>
<g id="a_edge4_Node000001_Node000005"><a xlink:title=" ">
<path fill="none" stroke="#63b8ff" d="M67.9,-54.92C86.89,-46.22 115.12,-33.28 136.6,-23.43"/>
<polygon fill="#63b8ff" stroke="#63b8ff" points="138.3,-26.5 145.93,-19.16 135.39,-20.14 138.3,-26.5"/>
</a>
</g>
</g>
</g>
</svg>
