<?xml version="1.0" encoding="UTF-8" standalone="no"?>
<!DOCTYPE svg PUBLIC "-//W3C//DTD SVG 1.1//EN"
 "http://www.w3.org/Graphics/SVG/1.1/DTD/svg11.dtd">
<!-- Generated by graphviz version 2.43.0 (0)
 -->
<!-- Title: ast_free_and_or Pages: 1 -->
<svg width="344pt" height="267pt"
 viewBox="0.00 0.00 344.00 267.00" xmlns="http://www.w3.org/2000/svg" xmlns:xlink="http://www.w3.org/1999/xlink">
<g id="graph0" class="graph" transform="scale(1 1) rotate(0) translate(4 263)">
<title>ast_free_and_or</title>
<!-- Node1 -->
<g id="Node000001" class="node">
<title>Node1</title>
<g id="a_Node000001"><a xlink:title=" ">
<polygon fill="#999999" stroke="#666666" points="95,-130 0,-130 0,-111 95,-111 95,-130"/>
<text text-anchor="middle" x="47.5" y="-118" font-family="Helvetica,sans-Serif" font-size="10.00">ast_free_and_or</text>
</a>
</g>
</g>
<!-- Node2 -->
<g id="Node000002" class="node">
<title>Node2</title>
<g id="a_Node000002"><a xlink:href="ast_8c.html#adbd51ee24d251e4506b1163864d7fd64" target="_top" xlink:title=" ">
<polygon fill="white" stroke="#666666" points="187,-130 131,-130 131,-111 187,-111 187,-130"/>
<text text-anchor="middle" x="159" y="-118" font-family="Helvetica,sans-Serif" font-size="10.00">free_ast</text>
</a>
</g>
</g>
<!-- Node1&#45;&gt;Node2 -->
<g id="edge1_Node000001_Node000002" class="edge">
<title>Node1&#45;&gt;Node2</title>
<g id="a_edge1_Node000001_Node000002"><a xlink:title=" ">
<path fill="none" stroke="#63b8ff" d="M95.26,-113.81C103.76,-113.68 112.52,-113.76 120.7,-114.06"/>
<polygon fill="#63b8ff" stroke="#63b8ff" points="120.53,-117.56 130.7,-114.57 120.88,-110.57 120.53,-117.56"/>
</a>
</g>
</g>
<!-- Node2&#45;&gt;Node1 -->
<g id="edge2_Node000002_Node000001" class="edge">
<title>Node2&#45;&gt;Node1</title>
<g id="a_edge2_Node000002_Node000001"><a xlink:title=" ">
<path fill="none" stroke="#63b8ff" d="M130.7,-126.43C122.99,-126.93 114.3,-127.2 105.53,-127.24"/>
<polygon fill="#63b8ff" stroke="#63b8ff" points="105.28,-123.74 95.26,-127.19 105.24,-130.74 105.28,-123.74"/>
</a>
</g>
</g>
<!-- Node3 -->
<g id="Node000003" class="node">
<title>Node3</title>
<g id="a_Node000003"><a xlink:href="ast__free_8c.html#a9330029530c792a2570859c41fea1f87" target="_top" xlink:title=" ">
<polygon fill="white" stroke="#666666" points="321,-259 238,-259 238,-240 321,-240 321,-259"/>
<text text-anchor="middle" x="279.5" y="-247" font-family="Helvetica,sans-Serif" font-size="10.00">ast_free_cmd</text>
</a>
</g>
</g>
<!-- Node2&#45;&gt;Node3 -->
<g id="edge3_Node000002_Node000003" class="edge">
<title>Node2&#45;&gt;Node3</title>
<g id="a_edge3_Node000002_Node000003"><a xlink:title=" ">
<path fill="none" stroke="#63b8ff" d="M162.79,-130.09C169.52,-151.5 188.65,-203.49 223,-231.5 224.79,-232.96 226.69,-234.3 228.68,-235.53"/>
<polygon fill="#63b8ff" stroke="#63b8ff" points="227.36,-238.79 237.86,-240.27 230.58,-232.57 227.36,-238.79"/>
</a>
</g>
</g>
<!-- Node4 -->
<g id="Node000004" class="node">
<title>Node4</title>
<g id="a_Node000004"><a xlink:href="ast__free_8c.html#a2093aa16119809b1788e3544ccacb07a" target="_top" xlink:title=" ">
<polygon fill="white" stroke="#666666" points="317,-222 242,-222 242,-203 317,-203 317,-222"/>
<text text-anchor="middle" x="279.5" y="-210" font-family="Helvetica,sans-Serif" font-size="10.00">ast_free_for</text>
</a>
</g>
</g>
<!-- Node2&#45;&gt;Node4 -->
<g id="edge4_Node000002_Node000004" class="edge">
<title>Node2&#45;&gt;Node4</title>
<g id="a_edge4_Node000002_Node000004"><a xlink:title=" ">
<path fill="none" stroke="#63b8ff" d="M170.06,-130.24C181.09,-144.71 200.28,-170.3 223,-185.5 232.47,-191.84 244.34,-196.08 254.66,-199.61"/>
<polygon fill="#63b8ff" stroke="#63b8ff" points="253.73,-202.99 264.33,-202.95 256.02,-196.38 253.73,-202.99"/>
</a>
</g>
</g>
<!-- Node5 -->
<g id="Node000005" class="node">
<title>Node5</title>
<g id="a_Node000005"><a xlink:href="ast__free_8c.html#abfce6009bf2f91da322878514d9209c0" target="_top" xlink:title=" ">
<polygon fill="white" stroke="#666666" points="313.5,-185 245.5,-185 245.5,-166 313.5,-166 313.5,-185"/>
<text text-anchor="middle" x="279.5" y="-173" font-family="Helvetica,sans-Serif" font-size="10.00">ast_free_if</text>
</a>
</g>
</g>
<!-- Node2&#45;&gt;Node5 -->
<g id="edge6_Node000002_Node000005" class="edge">
<title>Node2&#45;&gt;Node5</title>
<g id="a_edge6_Node000002_Node000005"><a xlink:title=" ">
<path fill="none" stroke="#63b8ff" d="M187.22,-129.86C198.07,-135.84 210.85,-143.04 223,-148.5 234.2,-153.53 247.24,-157.84 257.87,-161.93"/>
<polygon fill="#63b8ff" stroke="#63b8ff" points="256.6,-165.19 267.18,-165.8 259.29,-158.73 256.6,-165.19"/>
</a>
</g>
</g>
<!-- Node6 -->
<g id="Node000006" class="node">
<title>Node6</title>
<g id="a_Node000006"><a xlink:href="ast__free_8c.html#a654d27b37151693d221d215450efe6bb" target="_top" xlink:title=" ">
<polygon fill="white" stroke="#666666" points="318,-130 241,-130 241,-111 318,-111 318,-130"/>
<text text-anchor="middle" x="279.5" y="-118" font-family="Helvetica,sans-Serif" font-size="10.00">ast_free_list</text>
</a>
</g>
</g>
<!-- Node2&#45;&gt;Node6 -->
<g id="edge8_Node000002_Node000006" class="edge">
<title>Node2&#45;&gt;Node6</title>
<g id="a_edge8_Node000002_Node000006"><a xlink:title=" ">
<path fill="none" stroke="#63b8ff" d="M187.19,-114.72C200.07,-113.85 215.84,-113.57 230.63,-113.86"/>
<polygon fill="#63b8ff" stroke="#63b8ff" points="230.57,-117.36 240.66,-114.16 230.77,-110.36 230.57,-117.36"/>
</a>
</g>
</g>
<!-- Node7 -->
<g id="Node000007" class="node">
<title>Node7</title>
<g id="a_Node000007"><a xlink:href="ast__free_8c.html#a09f3dd857c6d405a4e1b2e3109a1d3df" target="_top" xlink:title=" ">
<polygon fill="white" stroke="#666666" points="321,-93 238,-93 238,-74 321,-74 321,-93"/>
<text text-anchor="middle" x="279.5" y="-81" font-family="Helvetica,sans-Serif" font-size="10.00">ast_free_loop</text>
</a>
</g>
</g>
<!-- Node2&#45;&gt;Node7 -->
<g id="edge11_Node000002_Node000007" class="edge">
<title>Node2&#45;&gt;Node7</title>
<g id="a_edge11_Node000002_Node000007"><a xlink:title=" ">
<path fill="none" stroke="#63b8ff" d="M175.49,-110.93C188.9,-105.16 209.07,-98.21 228.01,-92.58"/>
<polygon fill="#63b8ff" stroke="#63b8ff" points="229.12,-95.9 237.76,-89.77 227.18,-89.18 229.12,-95.9"/>
</a>
</g>
</g>
<!-- Node8 -->
<g id="Node000008" class="node">
<title>Node8</title>
<g id="a_Node000008"><a xlink:href="ast__free_8c.html#a50c5d556b19bcd99345d42797422afbc" target="_top" xlink:title=" ">
<polygon fill="white" stroke="#666666" points="321,-56 238,-56 238,-37 321,-37 321,-56"/>
<text text-anchor="middle" x="279.5" y="-44" font-family="Helvetica,sans-Serif" font-size="10.00">ast_free_pipe</text>
</a>
</g>
</g>
<!-- Node2&#45;&gt;Node8 -->
<g id="edge13_Node000002_Node000008" class="edge">
<title>Node2&#45;&gt;Node8</title>
<g id="a_edge13_Node000002_Node000008"><a xlink:title=" ">
<path fill="none" stroke="#63b8ff" d="M164.4,-110.69C174.03,-95.92 198.11,-70.88 223,-56.5 224.75,-55.49 226.57,-54.52 228.43,-53.59"/>
<polygon fill="#63b8ff" stroke="#63b8ff" points="230.23,-56.62 237.97,-49.38 227.41,-50.22 230.23,-56.62"/>
</a>
</g>
</g>
<!-- Node9 -->
<g id="Node000009" class="node">
<title>Node9</title>
<g id="a_Node000009"><a xlink:href="ast__free_8c.html#a6e033482de30aca56f1b66190b9a481c" target="_top" xlink:title=" ">
<polygon fill="white" stroke="#666666" points="336,-19 223,-19 223,0 336,0 336,-19"/>
<text text-anchor="middle" x="279.5" y="-7" font-family="Helvetica,sans-Serif" font-size="10.00">ast_free_shell_redir</text>
</a>
</g>
</g>
<!-- Node2&#45;&gt;Node9 -->
<g id="edge15_Node000002_Node000009" class="edge">
<title>Node2&#45;&gt;Node9</title>
<g id="a_edge15_Node000002_Node000009"><a xlink:title=" ">
<path fill="none" stroke="#63b8ff" d="M162.33,-110.71C168.62,-91.53 187.35,-51.34 215.67,-25.65"/>
<polygon fill="#63b8ff" stroke="#63b8ff" points="218.05,-28.22 223.49,-19.13 213.57,-22.84 218.05,-28.22"/>
</a>
</g>
</g>
<!-- Node4&#45;&gt;Node2 -->
<g id="edge5_Node000004_Node000002" class="edge">
<title>Node4&#45;&gt;Node2</title>
<g id="a_edge5_Node000004_Node000002"><a xlink:title=" ">
<path fill="none" stroke="#63b8ff" d="M241.93,-212.66C235.32,-210.4 228.73,-207.33 223,-203.5 198.52,-187.12 178.13,-158.67 167.64,-139.37"/>
<polygon fill="#63b8ff" stroke="#63b8ff" points="170.67,-137.62 163.08,-130.23 164.41,-140.74 170.67,-137.62"/>
</a>
</g>
</g>
<!-- Node5&#45;&gt;Node2 -->
<g id="edge7_Node000005_Node000002" class="edge">
<title>Node5&#45;&gt;Node2</title>
<g id="a_edge7_Node000005_Node000002"><a xlink:title=" ">
<path fill="none" stroke="#63b8ff" d="M245.48,-174.85C237.97,-172.6 230.11,-169.7 223,-166.5 205.5,-158.63 186.68,-147.14 174.21,-137.2"/>
<polygon fill="#63b8ff" stroke="#63b8ff" points="176.19,-134.28 166.37,-130.31 171.57,-139.54 176.19,-134.28"/>
</a>
</g>
</g>
<!-- Node6&#45;&gt;Node2 -->
<g id="edge10_Node000006_Node000002" class="edge">
<title>Node6&#45;&gt;Node2</title>
<g id="a_edge10_Node000006_Node000002"><a xlink:title=" ">
<path fill="none" stroke="#63b8ff" d="M240.66,-126.84C226.81,-127.39 211.14,-127.39 197.33,-126.82"/>
<polygon fill="#63b8ff" stroke="#63b8ff" points="197.36,-123.32 187.19,-126.28 196.99,-130.31 197.36,-123.32"/>
</a>
</g>
</g>
<!-- Node6&#45;&gt;Node6 -->
<g id="edge9_Node000006_Node000006" class="edge">
<title>Node6&#45;&gt;Node6</title>
<g id="a_edge9_Node000006_Node000006"><a xlink:title=" ">
<path fill="none" stroke="#63b8ff" d="M261,-130.08C252.01,-138.73 258.17,-148 279.5,-148 292.83,-148 300.24,-144.38 301.72,-139.55"/>
<polygon fill="#63b8ff" stroke="#63b8ff" points="304.91,-138.11 298,-130.08 298.4,-140.67 304.91,-138.11"/>
</a>
</g>
</g>
<!-- Node7&#45;&gt;Node2 -->
<g id="edge12_Node000007_Node000002" class="edge">
<title>Node7&#45;&gt;Node2</title>
<g id="a_edge12_Node000007_Node000002"><a xlink:title=" ">
<path fill="none" stroke="#63b8ff" d="M263.05,-93.05C246.38,-100.23 219.25,-109.23 197.01,-115.25"/>
<polygon fill="#63b8ff" stroke="#63b8ff" points="195.99,-111.9 187.19,-117.79 197.74,-118.68 195.99,-111.9"/>
</a>
</g>
</g>
<!-- Node8&#45;&gt;Node2 -->
<g id="edge14_Node000008_Node000002" class="edge">
<title>Node8&#45;&gt;Node2</title>
<g id="a_edge14_Node000008_Node000002"><a xlink:title=" ">
<path fill="none" stroke="#63b8ff" d="M266.45,-56.07C254.81,-61.1 236.93,-66.45 223,-74.5 208.73,-82.74 194.74,-94.48 183.58,-104.21"/>
<polygon fill="#63b8ff" stroke="#63b8ff" points="181.2,-101.65 175.99,-110.87 185.81,-106.91 181.2,-101.65"/>
</a>
</g>
</g>
<!-- Node9&#45;&gt;Node2 -->
<g id="edge16_Node000009_Node000002" class="edge">
<title>Node9&#45;&gt;Node2</title>
<g id="a_edge16_Node000009_Node000002"><a xlink:title=" ">
<path fill="none" stroke="#63b8ff" d="M264.09,-19.01C252.12,-23.32 235.16,-28.25 223,-37.5 200.04,-54.96 182.46,-83.27 171.78,-102.1"/>
<polygon fill="#63b8ff" stroke="#63b8ff" points="168.64,-100.54 166.83,-110.98 174.76,-103.95 168.64,-100.54"/>
</a>
</g>
</g>
</g>
</svg>
