<?xml version="1.0" encoding="UTF-8" standalone="no"?>
<!DOCTYPE svg PUBLIC "-//W3C//DTD SVG 1.1//EN"
 "http://www.w3.org/Graphics/SVG/1.1/DTD/svg11.dtd">
<!-- Generated by graphviz version 2.43.0 (0)
 -->
<!-- Title: ast_run_pipe Pages: 1 -->
<svg width="835pt" height="437pt"
 viewBox="0.00 0.00 835.00 437.00" xmlns="http://www.w3.org/2000/svg" xmlns:xlink="http://www.w3.org/1999/xlink">
<g id="graph0" class="graph" transform="scale(1 1) rotate(0) translate(4 433)">
<title>ast_run_pipe</title>
<!-- Node1 -->
<g id="Node000001" class="node">
<title>Node1</title>
<g id="a_Node000001"><a xlink:title=" ">
<polygon fill="#999999" stroke="#666666" points="827,-141 748,-141 748,-122 827,-122 827,-141"/>
<text text-anchor="middle" x="787.5" y="-129" font-family="Helvetica,sans-Serif" font-size="10.00">ast_run_pipe</text>
</a>
</g>
</g>
<!-- Node2 -->
<g id="Node000002" class="node">
<title>Node2</title>
<g id="a_Node000002"><a xlink:href="ast_8c.html#a572345b2707780bbbc5bbaacdca9c372" target="_top" xlink:title=" ">
<polygon fill="white" stroke="#666666" points="712,-263 659,-263 659,-244 712,-244 712,-263"/>
<text text-anchor="middle" x="685.5" y="-251" font-family="Helvetica,sans-Serif" font-size="10.00">run_ast</text>
</a>
</g>
</g>
<!-- Node1&#45;&gt;Node2 -->
<g id="edge1_Node000001_Node000002" class="edge">
<title>Node1&#45;&gt;Node2</title>
<g id="a_edge1_Node000001_Node000002"><a xlink:title=" ">
<path fill="none" stroke="#63b8ff" d="M772.14,-149.02C750.71,-175.17 711.07,-223.52 694.31,-243.97"/>
<polygon fill="#63b8ff" stroke="#63b8ff" points="775.02,-151.03 778.65,-141.07 769.61,-146.59 775.02,-151.03"/>
</a>
</g>
</g>
<!-- Node3 -->
<g id="Node000003" class="node">
<title>Node3</title>
<g id="a_Node000003"><a xlink:href="ast__run_8c.html#a8a01fec616135007fc5b3968a101901b" target="_top" xlink:title=" ">
<polygon fill="white" stroke="#666666" points="614,-429 523,-429 523,-410 614,-410 614,-429"/>
<text text-anchor="middle" x="568.5" y="-417" font-family="Helvetica,sans-Serif" font-size="10.00">ast_run_and_or</text>
</a>
</g>
</g>
<!-- Node2&#45;&gt;Node3 -->
<g id="edge2_Node000002_Node000003" class="edge">
<title>Node2&#45;&gt;Node3</title>
<g id="a_edge2_Node000002_Node000003"><a xlink:title=" ">
<path fill="none" stroke="#63b8ff" d="M680.39,-273.55C673.89,-303.68 658.18,-359.68 623,-392.5 612.97,-401.86 597.91,-406.37 586.32,-410"/>
<polygon fill="#63b8ff" stroke="#63b8ff" points="683.89,-273.87 682.45,-263.38 677.03,-272.48 683.89,-273.87"/>
</a>
</g>
</g>
<!-- Node4 -->
<g id="Node000004" class="node">
<title>Node4</title>
<g id="a_Node000004"><a xlink:href="ast__run_8c.html#a9d83d4834a61ffe21eb77838d70ae173" target="_top" xlink:title=" ">
<polygon fill="white" stroke="#666666" points="604,-392 533,-392 533,-373 604,-373 604,-392"/>
<text text-anchor="middle" x="568.5" y="-380" font-family="Helvetica,sans-Serif" font-size="10.00">ast_run_for</text>
</a>
</g>
</g>
<!-- Node2&#45;&gt;Node4 -->
<g id="edge4_Node000002_Node000004" class="edge">
<title>Node2&#45;&gt;Node4</title>
<g id="a_edge4_Node000002_Node000004"><a xlink:title=" ">
<path fill="none" stroke="#63b8ff" d="M676.39,-272.49C667.24,-295.42 650.01,-333 623,-355.5 612.16,-364.53 596.59,-369.1 585.04,-372.97"/>
<polygon fill="#63b8ff" stroke="#63b8ff" points="679.68,-273.67 680.03,-263.09 673.16,-271.15 679.68,-273.67"/>
</a>
</g>
</g>
<!-- Node5 -->
<g id="Node000005" class="node">
<title>Node5</title>
<g id="a_Node000005"><a xlink:href="ast__run_8c.html#a0a7138b1f2608ea36211c9b78988c248" target="_top" xlink:title=" ">
<polygon fill="white" stroke="#666666" points="601,-355 536,-355 536,-336 601,-336 601,-355"/>
<text text-anchor="middle" x="568.5" y="-343" font-family="Helvetica,sans-Serif" font-size="10.00">ast_run_if</text>
</a>
</g>
</g>
<!-- Node2&#45;&gt;Node5 -->
<g id="edge6_Node000002_Node000005" class="edge">
<title>Node2&#45;&gt;Node5</title>
<g id="a_edge6_Node000002_Node000005"><a xlink:title=" ">
<path fill="none" stroke="#63b8ff" d="M668.53,-271.52C657.48,-286.12 641.48,-305.83 623,-318.5 610.88,-326.81 594.59,-331.56 583.19,-335.88"/>
<polygon fill="#63b8ff" stroke="#63b8ff" points="671.56,-273.3 674.74,-263.2 665.95,-269.11 671.56,-273.3"/>
</a>
</g>
</g>
<!-- Node6 -->
<g id="Node000006" class="node">
<title>Node6</title>
<g id="a_Node000006"><a xlink:href="ast__run_8c.html#ae25cd3ced8abafd76110dba8852a6b87" target="_top" xlink:title=" ">
<polygon fill="white" stroke="#666666" points="605,-300 532,-300 532,-281 605,-281 605,-300"/>
<text text-anchor="middle" x="568.5" y="-288" font-family="Helvetica,sans-Serif" font-size="10.00">ast_run_list</text>
</a>
</g>
</g>
<!-- Node2&#45;&gt;Node6 -->
<g id="edge8_Node000002_Node000006" class="edge">
<title>Node2&#45;&gt;Node6</title>
<g id="a_edge8_Node000002_Node000006"><a xlink:title=" ">
<path fill="none" stroke="#63b8ff" d="M649.09,-258.61C627.37,-264.64 600.69,-273.75 584.4,-280.99"/>
<polygon fill="#63b8ff" stroke="#63b8ff" points="650.21,-261.93 658.98,-255.99 648.42,-255.16 650.21,-261.93"/>
</a>
</g>
</g>
<!-- Node7 -->
<g id="Node000007" class="node">
<title>Node7</title>
<g id="a_Node000007"><a xlink:href="ast__run_8c.html#a536f37ba9bffcd2099fef668656181e0" target="_top" xlink:title=" ">
<polygon fill="white" stroke="#666666" points="608,-263 529,-263 529,-244 608,-244 608,-263"/>
<text text-anchor="middle" x="568.5" y="-251" font-family="Helvetica,sans-Serif" font-size="10.00">ast_run_loop</text>
</a>
</g>
</g>
<!-- Node2&#45;&gt;Node7 -->
<g id="edge11_Node000002_Node000007" class="edge">
<title>Node2&#45;&gt;Node7</title>
<g id="a_edge11_Node000002_Node000007"><a xlink:title=" ">
<path fill="none" stroke="#63b8ff" d="M648.63,-247.19C635.74,-246.64 621.17,-246.6 608.07,-247.09"/>
<polygon fill="#63b8ff" stroke="#63b8ff" points="648.8,-250.71 658.98,-247.78 649.19,-243.72 648.8,-250.71"/>
</a>
</g>
</g>
<!-- Node8 -->
<g id="Node000008" class="node">
<title>Node8</title>
<g id="a_Node000008"><a xlink:href="ast__run_8c.html#aa3e6a973e744d748ee415840596beb53" target="_top" xlink:title=" ">
<polygon fill="white" stroke="#666666" points="623,-226 514,-226 514,-207 623,-207 623,-226"/>
<text text-anchor="middle" x="568.5" y="-214" font-family="Helvetica,sans-Serif" font-size="10.00">ast_run_shell_redir</text>
</a>
</g>
</g>
<!-- Node2&#45;&gt;Node8 -->
<g id="edge13_Node000002_Node000008" class="edge">
<title>Node2&#45;&gt;Node8</title>
<g id="a_edge13_Node000002_Node000008"><a xlink:title=" ">
<path fill="none" stroke="#63b8ff" d="M659.99,-239.97C648.3,-235.32 633.86,-230.32 619.98,-226.04"/>
<polygon fill="#63b8ff" stroke="#63b8ff" points="658.89,-243.3 669.47,-243.93 661.59,-236.84 658.89,-243.3"/>
</a>
</g>
</g>
<!-- Node9 -->
<g id="Node000009" class="node">
<title>Node9</title>
<g id="a_Node000009"><a xlink:href="exec_8c.html#a23babf893bbcd2f6126698a1a19b169f" target="_top" xlink:title="Execute funct with given arguments.">
<polygon fill="white" stroke="#666666" points="478,-169 413,-169 413,-150 478,-150 478,-169"/>
<text text-anchor="middle" x="445.5" y="-157" font-family="Helvetica,sans-Serif" font-size="10.00">exec_func</text>
</a>
</g>
</g>
<!-- Node2&#45;&gt;Node9 -->
<g id="edge15_Node000002_Node000009" class="edge">
<title>Node2&#45;&gt;Node9</title>
<g id="a_edge15_Node000002_Node000009"><a xlink:title=" ">
<path fill="none" stroke="#63b8ff" d="M669.72,-236.2C658.22,-223.85 641.2,-207.82 623,-198.5 576.08,-174.46 514.73,-165.17 478.1,-161.63"/>
<polygon fill="#63b8ff" stroke="#63b8ff" points="667.15,-238.58 676.44,-243.68 672.36,-233.91 667.15,-238.58"/>
</a>
</g>
</g>
<!-- Node12 -->
<g id="Node000012" class="node">
<title>Node12</title>
<g id="a_Node000012"><a xlink:href="exec_8c.html#ab743cb88e12e9b922050925fd2075e36" target="_top" xlink:title="Execute a pipeline of commands.">
<polygon fill="white" stroke="#666666" points="601,-19 536,-19 536,0 601,0 601,-19"/>
<text text-anchor="middle" x="568.5" y="-7" font-family="Helvetica,sans-Serif" font-size="10.00">exec_pipe</text>
</a>
</g>
</g>
<!-- Node2&#45;&gt;Node12 -->
<g id="edge19_Node000002_Node000012" class="edge">
<title>Node2&#45;&gt;Node12</title>
<g id="a_edge19_Node000002_Node000012"><a xlink:title=" ">
<path fill="none" stroke="#63b8ff" d="M682.42,-233.45C677.63,-195.07 662.98,-109.89 623,-51.5 613.66,-37.86 598.54,-26.58 586.75,-19.15"/>
<polygon fill="#63b8ff" stroke="#63b8ff" points="678.99,-234.24 683.61,-243.77 685.95,-233.44 678.99,-234.24"/>
</a>
</g>
</g>
<!-- Node13 -->
<g id="Node000013" class="node">
<title>Node13</title>
<g id="a_Node000013"><a xlink:href="42sh_8c.html#a3c04138a5bfe5d72780bb7e82a18e627" target="_top" xlink:title=" ">
<polygon fill="white" stroke="#666666" points="589,-150 548,-150 548,-131 589,-131 589,-150"/>
<text text-anchor="middle" x="568.5" y="-138" font-family="Helvetica,sans-Serif" font-size="10.00">main</text>
</a>
</g>
</g>
<!-- Node2&#45;&gt;Node13 -->
<g id="edge22_Node000002_Node000013" class="edge">
<title>Node2&#45;&gt;Node13</title>
<g id="a_edge22_Node000002_Node000013"><a xlink:title=" ">
<path fill="none" stroke="#63b8ff" d="M675.46,-234.73C665.15,-215 646.61,-184.14 623,-164.5 613.14,-156.3 600.03,-150.35 589.25,-146.43"/>
<polygon fill="#63b8ff" stroke="#63b8ff" points="672.46,-236.56 680.09,-243.92 678.72,-233.41 672.46,-236.56"/>
</a>
</g>
</g>
<!-- Node14 -->
<g id="Node000014" class="node">
<title>Node14</title>
<g id="a_Node000014"><a xlink:href="dot_8c.html#a17477ee2b0f1b8b9306566c990d15b35" target="_top" xlink:title="Main loop of dot builtin.">
<polygon fill="white" stroke="#666666" points="602.5,-113 534.5,-113 534.5,-94 602.5,-94 602.5,-113"/>
<text text-anchor="middle" x="568.5" y="-101" font-family="Helvetica,sans-Serif" font-size="10.00">main_loop</text>
</a>
</g>
</g>
<!-- Node2&#45;&gt;Node14 -->
<g id="edge23_Node000002_Node000014" class="edge">
<title>Node2&#45;&gt;Node14</title>
<g id="a_edge23_Node000002_Node000014"><a xlink:title=" ">
<path fill="none" stroke="#63b8ff" d="M680.33,-233.8C673.31,-205.36 656.52,-152.89 623,-122.5 617.23,-117.27 609.93,-113.46 602.59,-110.69"/>
<polygon fill="#63b8ff" stroke="#63b8ff" points="676.96,-234.78 682.62,-243.74 683.78,-233.21 676.96,-234.78"/>
</a>
</g>
</g>
<!-- Node3&#45;&gt;Node2 -->
<g id="edge3_Node000003_Node000002" class="edge">
<title>Node3&#45;&gt;Node2</title>
<g id="a_edge3_Node000003_Node000002"><a xlink:title=" ">
<path fill="none" stroke="#63b8ff" d="M622.5,-410.96C622.67,-410.81 622.83,-410.65 623,-410.5 667.35,-369.12 680.76,-290.89 683.77,-263.02"/>
<polygon fill="#63b8ff" stroke="#63b8ff" points="620.25,-408.26 614.15,-416.92 624.32,-413.96 620.25,-408.26"/>
</a>
</g>
</g>
<!-- Node4&#45;&gt;Node2 -->
<g id="edge5_Node000004_Node000002" class="edge">
<title>Node4&#45;&gt;Node2</title>
<g id="a_edge5_Node000004_Node000002"><a xlink:title=" ">
<path fill="none" stroke="#63b8ff" d="M613.38,-379.84C616.82,-378.04 620.08,-375.93 623,-373.5 659.05,-343.46 677.69,-286.57 682.93,-263.12"/>
<polygon fill="#63b8ff" stroke="#63b8ff" points="611.81,-376.7 604,-383.87 614.57,-383.13 611.81,-376.7"/>
</a>
</g>
</g>
<!-- Node5&#45;&gt;Node2 -->
<g id="edge7_Node000005_Node000002" class="edge">
<title>Node5&#45;&gt;Node2</title>
<g id="a_edge7_Node000005_Node000002"><a xlink:title=" ">
<path fill="none" stroke="#63b8ff" d="M610.7,-343.23C615.02,-341.34 619.21,-339.09 623,-336.5 651.24,-317.14 673.69,-281.33 681.51,-263.21"/>
<polygon fill="#63b8ff" stroke="#63b8ff" points="609.3,-340.02 601.14,-346.77 611.74,-346.58 609.3,-340.02"/>
</a>
</g>
</g>
<!-- Node6&#45;&gt;Node2 -->
<g id="edge10_Node000006_Node000002" class="edge">
<title>Node6&#45;&gt;Node2</title>
<g id="a_edge10_Node000006_Node000002"><a xlink:title=" ">
<path fill="none" stroke="#63b8ff" d="M614.95,-282.49C634.33,-276.69 655.61,-269.22 669.47,-263.07"/>
<polygon fill="#63b8ff" stroke="#63b8ff" points="613.97,-279.13 605.34,-285.27 615.92,-285.86 613.97,-279.13"/>
</a>
</g>
</g>
<!-- Node6&#45;&gt;Node6 -->
<g id="edge9_Node000006_Node000006" class="edge">
<title>Node6&#45;&gt;Node6</title>
<g id="a_edge9_Node000006_Node000006"><a xlink:title=" ">
<path fill="none" stroke="#63b8ff" d="M589.98,-309.55C588.55,-314.38 581.39,-318 568.5,-318 547.88,-318 541.92,-308.73 550.62,-300.08"/>
<polygon fill="#63b8ff" stroke="#63b8ff" points="593.2,-308.19 586.38,-300.08 586.66,-310.67 593.2,-308.19"/>
</a>
</g>
</g>
<!-- Node7&#45;&gt;Node2 -->
<g id="edge12_Node000007_Node000002" class="edge">
<title>Node7&#45;&gt;Node2</title>
<g id="a_edge12_Node000007_Node000002"><a xlink:title=" ">
<path fill="none" stroke="#63b8ff" d="M618.12,-260.18C632.17,-260.41 646.94,-260.09 658.98,-259.22"/>
<polygon fill="#63b8ff" stroke="#63b8ff" points="618.16,-256.68 608.07,-259.91 617.97,-263.68 618.16,-256.68"/>
</a>
</g>
</g>
<!-- Node8&#45;&gt;Node2 -->
<g id="edge14_Node000008_Node000002" class="edge">
<title>Node8&#45;&gt;Node2</title>
<g id="a_edge14_Node000008_Node000002"><a xlink:title=" ">
<path fill="none" stroke="#63b8ff" d="M593.64,-229.89C612.79,-237.52 639.48,-246.14 658.98,-251.01"/>
<polygon fill="#63b8ff" stroke="#63b8ff" points="594.97,-226.65 584.4,-226.01 592.27,-233.1 594.97,-226.65"/>
</a>
</g>
</g>
<!-- Node10 -->
<g id="Node000010" class="node">
<title>Node10</title>
<g id="a_Node000010"><a xlink:href="exec_8c.html#ae65edaa99b26b49d60c451157d38b34a" target="_top" xlink:title="Execute les commandes avec les args donnes.">
<polygon fill="white" stroke="#666666" points="180,-113 115,-113 115,-94 180,-94 180,-113"/>
<text text-anchor="middle" x="147.5" y="-101" font-family="Helvetica,sans-Serif" font-size="10.00">exec_cmd</text>
</a>
</g>
</g>
<!-- Node9&#45;&gt;Node10 -->
<g id="edge16_Node000009_Node000010" class="edge">
<title>Node9&#45;&gt;Node10</title>
<g id="a_edge16_Node000009_Node000010"><a xlink:title=" ">
<path fill="none" stroke="#63b8ff" d="M402.68,-154.18C356.65,-148 280.62,-136.78 216,-122.5 203.99,-119.85 190.95,-116.33 179.57,-113.04"/>
<polygon fill="#63b8ff" stroke="#63b8ff" points="402.49,-157.69 412.87,-155.54 403.42,-150.75 402.49,-157.69"/>
</a>
</g>
</g>
<!-- Node11 -->
<g id="Node000011" class="node">
<title>Node11</title>
<g id="a_Node000011"><a xlink:href="ast__run_8c.html#aeb6878a59c6907e5669fc3cc428913d9" target="_top" xlink:title=" ">
<polygon fill="white" stroke="#666666" points="79,-94 0,-94 0,-75 79,-75 79,-94"/>
<text text-anchor="middle" x="39.5" y="-82" font-family="Helvetica,sans-Serif" font-size="10.00">ast_run_cmd</text>
</a>
</g>
</g>
<!-- Node10&#45;&gt;Node11 -->
<g id="edge17_Node000010_Node000011" class="edge">
<title>Node10&#45;&gt;Node11</title>
<g id="a_edge17_Node000010_Node000011"><a xlink:title=" ">
<path fill="none" stroke="#63b8ff" d="M104.92,-96.05C96.45,-94.53 87.58,-92.94 79.21,-91.44"/>
<polygon fill="#63b8ff" stroke="#63b8ff" points="104.52,-99.53 114.98,-97.85 105.76,-92.64 104.52,-99.53"/>
</a>
</g>
</g>
<!-- Node11&#45;&gt;Node2 -->
<g id="edge18_Node000011_Node000002" class="edge">
<title>Node11&#45;&gt;Node2</title>
<g id="a_edge18_Node000011_Node000002"><a xlink:title=" ">
<path fill="none" stroke="#63b8ff" d="M89.1,-77.27C129.43,-71.9 188.31,-65.5 240,-65.5 446.5,-65.5 446.5,-65.5 446.5,-65.5 525.4,-65.5 560.89,-35.85 623,-84.5 675.11,-125.32 683.09,-214.43 684.29,-243.86"/>
<polygon fill="#63b8ff" stroke="#63b8ff" points="88.45,-73.83 79.01,-78.64 89.4,-80.76 88.45,-73.83"/>
</a>
</g>
</g>
<!-- Node12&#45;&gt;Node1 -->
<g id="edge20_Node000012_Node000001" class="edge">
<title>Node12&#45;&gt;Node1</title>
<g id="a_edge20_Node000012_Node000001"><a xlink:title=" ">
<path fill="none" stroke="#63b8ff" d="M595.29,-24C640.21,-49.25 731.6,-100.64 769.47,-121.93"/>
<polygon fill="#63b8ff" stroke="#63b8ff" points="596.88,-20.88 586.45,-19.03 593.45,-26.98 596.88,-20.88"/>
</a>
</g>
</g>
<!-- Node12&#45;&gt;Node12 -->
<g id="edge21_Node000012_Node000012" class="edge">
<title>Node12&#45;&gt;Node12</title>
<g id="a_edge21_Node000012_Node000012"><a xlink:title=" ">
<path fill="none" stroke="#63b8ff" d="M589.98,-28.55C588.55,-33.38 581.39,-37 568.5,-37 547.88,-37 541.92,-27.73 550.62,-19.08"/>
<polygon fill="#63b8ff" stroke="#63b8ff" points="593.2,-27.19 586.38,-19.08 586.66,-29.67 593.2,-27.19"/>
</a>
</g>
</g>
<!-- Node15 -->
<g id="Node000015" class="node">
<title>Node15</title>
<g id="a_Node000015"><a xlink:href="dot_8c.html#a713938d3c6ee343132c429642048bcf6" target="_top" xlink:title="Execute the dot builtin cmd.">
<polygon fill="white" stroke="#666666" points="467.5,-113 423.5,-113 423.5,-94 467.5,-94 467.5,-113"/>
<text text-anchor="middle" x="445.5" y="-101" font-family="Helvetica,sans-Serif" font-size="10.00">dot_b</text>
</a>
</g>
</g>
<!-- Node14&#45;&gt;Node15 -->
<g id="edge24_Node000014_Node000015" class="edge">
<title>Node14&#45;&gt;Node15</title>
<g id="a_edge24_Node000014_Node000015"><a xlink:title=" ">
<path fill="none" stroke="#63b8ff" d="M524.37,-103.5C505.13,-103.5 483.34,-103.5 467.72,-103.5"/>
<polygon fill="#63b8ff" stroke="#63b8ff" points="524.44,-107 534.44,-103.5 524.44,-100 524.44,-107"/>
</a>
</g>
</g>
<!-- Node16 -->
<g id="Node000016" class="node">
<title>Node16</title>
<g id="a_Node000016"><a xlink:href="exec_8c.html#abaeb177587c7eec6a064b35bb8399cae" target="_top" xlink:title="Execute builtin cmd with given args.">
<polygon fill="white" stroke="#666666" points="377,-113 302,-113 302,-94 377,-94 377,-113"/>
<text text-anchor="middle" x="339.5" y="-101" font-family="Helvetica,sans-Serif" font-size="10.00">exec_builtin</text>
</a>
</g>
</g>
<!-- Node15&#45;&gt;Node16 -->
<g id="edge25_Node000015_Node000016" class="edge">
<title>Node15&#45;&gt;Node16</title>
<g id="a_edge25_Node000015_Node000016"><a xlink:title=" ">
<path fill="none" stroke="#63b8ff" d="M413.14,-103.5C401.78,-103.5 388.86,-103.5 377.09,-103.5"/>
<polygon fill="#63b8ff" stroke="#63b8ff" points="413.45,-107 423.45,-103.5 413.45,-100 413.45,-107"/>
</a>
</g>
</g>
<!-- Node17 -->
<g id="Node000017" class="node">
<title>Node17</title>
<g id="a_Node000017"><a xlink:href="exec_8c.html#a287d81b4658832f192750310e2925917" target="_top" xlink:title="Execute the builtin command with given args.">
<polygon fill="white" stroke="#666666" points="266,-113 216,-113 216,-94 266,-94 266,-113"/>
<text text-anchor="middle" x="241" y="-101" font-family="Helvetica,sans-Serif" font-size="10.00">exec_b</text>
</a>
</g>
</g>
<!-- Node16&#45;&gt;Node17 -->
<g id="edge26_Node000016_Node000017" class="edge">
<title>Node16&#45;&gt;Node17</title>
<g id="a_edge26_Node000016_Node000017"><a xlink:title=" ">
<path fill="none" stroke="#63b8ff" d="M291.51,-103.5C282.71,-103.5 273.86,-103.5 266.12,-103.5"/>
<polygon fill="#63b8ff" stroke="#63b8ff" points="291.74,-107 301.74,-103.5 291.74,-100 291.74,-107"/>
</a>
</g>
</g>
<!-- Node17&#45;&gt;Node10 -->
<g id="edge27_Node000017_Node000010" class="edge">
<title>Node17&#45;&gt;Node10</title>
<g id="a_edge27_Node000017_Node000010"><a xlink:title=" ">
<path fill="none" stroke="#63b8ff" d="M205.77,-103.5C197.42,-103.5 188.53,-103.5 180.3,-103.5"/>
<polygon fill="#63b8ff" stroke="#63b8ff" points="205.96,-107 215.96,-103.5 205.96,-100 205.96,-107"/>
</a>
</g>
</g>
</g>
</svg>
