<?xml version="1.0" encoding="UTF-8" standalone="no"?>
<!DOCTYPE svg PUBLIC "-//W3C//DTD SVG 1.1//EN"
 "http://www.w3.org/Graphics/SVG/1.1/DTD/svg11.dtd">
<!-- Generated by graphviz version 2.43.0 (0)
 -->
<!-- Title: ast_free_if Pages: 1 -->
<svg width="317pt" height="267pt"
 viewBox="0.00 0.00 317.00 267.00" xmlns="http://www.w3.org/2000/svg" xmlns:xlink="http://www.w3.org/1999/xlink">
<g id="graph0" class="graph" transform="scale(1 1) rotate(0) translate(4 263)">
<title>ast_free_if</title>
<!-- Node1 -->
<g id="Node000001" class="node">
<title>Node1</title>
<g id="a_Node000001"><a xlink:title=" ">
<polygon fill="#999999" stroke="#666666" points="68,-130 0,-130 0,-111 68,-111 68,-130"/>
<text text-anchor="middle" x="34" y="-118" font-family="Helvetica,sans-Serif" font-size="10.00">ast_free_if</text>
</a>
</g>
</g>
<!-- Node2 -->
<g id="Node000002" class="node">
<title>Node2</title>
<g id="a_Node000002"><a xlink:href="ast_8c.html#adbd51ee24d251e4506b1163864d7fd64" target="_top" xlink:title=" ">
<polygon fill="white" stroke="#666666" points="160,-130 104,-130 104,-111 160,-111 160,-130"/>
<text text-anchor="middle" x="132" y="-118" font-family="Helvetica,sans-Serif" font-size="10.00">free_ast</text>
</a>
</g>
</g>
<!-- Node1&#45;&gt;Node2 -->
<g id="edge1_Node000001_Node000002" class="edge">
<title>Node1&#45;&gt;Node2</title>
<g id="a_edge1_Node000001_Node000002"><a xlink:title=" ">
<path fill="none" stroke="#63b8ff" d="M68.04,-114.05C76.37,-113.71 85.36,-113.66 93.88,-113.91"/>
<polygon fill="#63b8ff" stroke="#63b8ff" points="93.8,-117.41 103.95,-114.36 94.11,-110.41 93.8,-117.41"/>
</a>
</g>
</g>
<!-- Node2&#45;&gt;Node1 -->
<g id="edge7_Node000002_Node000001" class="edge">
<title>Node2&#45;&gt;Node1</title>
<g id="a_edge7_Node000002_Node000001"><a xlink:title=" ">
<path fill="none" stroke="#63b8ff" d="M103.95,-126.64C95.93,-127.14 86.94,-127.33 78.16,-127.22"/>
<polygon fill="#63b8ff" stroke="#63b8ff" points="78.13,-123.72 68.04,-126.95 77.94,-130.71 78.13,-123.72"/>
</a>
</g>
</g>
<!-- Node3 -->
<g id="Node000003" class="node">
<title>Node3</title>
<g id="a_Node000003"><a xlink:href="ast__free_8c.html#a80edc240f8b3b576efc19e8465449822" target="_top" xlink:title=" ">
<polygon fill="white" stroke="#666666" points="300,-259 205,-259 205,-240 300,-240 300,-259"/>
<text text-anchor="middle" x="252.5" y="-247" font-family="Helvetica,sans-Serif" font-size="10.00">ast_free_and_or</text>
</a>
</g>
</g>
<!-- Node2&#45;&gt;Node3 -->
<g id="edge2_Node000002_Node000003" class="edge">
<title>Node2&#45;&gt;Node3</title>
<g id="a_edge2_Node000002_Node000003"><a xlink:title=" ">
<path fill="none" stroke="#63b8ff" d="M137.65,-130.13C145.68,-150.66 164.4,-196.73 196,-222.5 204.42,-229.37 215.53,-233.64 225.59,-236.95"/>
<polygon fill="#63b8ff" stroke="#63b8ff" points="224.58,-240.3 235.17,-239.99 226.7,-233.63 224.58,-240.3"/>
</a>
</g>
</g>
<!-- Node4 -->
<g id="Node000004" class="node">
<title>Node4</title>
<g id="a_Node000004"><a xlink:href="ast__free_8c.html#a9330029530c792a2570859c41fea1f87" target="_top" xlink:title=" ">
<polygon fill="white" stroke="#666666" points="294,-222 211,-222 211,-203 294,-203 294,-222"/>
<text text-anchor="middle" x="252.5" y="-210" font-family="Helvetica,sans-Serif" font-size="10.00">ast_free_cmd</text>
</a>
</g>
</g>
<!-- Node2&#45;&gt;Node4 -->
<g id="edge4_Node000002_Node000004" class="edge">
<title>Node2&#45;&gt;Node4</title>
<g id="a_edge4_Node000002_Node000004"><a xlink:title=" ">
<path fill="none" stroke="#63b8ff" d="M138.7,-130.16C148.48,-145.89 169.92,-177.05 196,-194.5 198.29,-196.03 200.72,-197.44 203.23,-198.74"/>
<polygon fill="#63b8ff" stroke="#63b8ff" points="202.04,-202.04 212.6,-202.95 204.91,-195.65 202.04,-202.04"/>
</a>
</g>
</g>
<!-- Node5 -->
<g id="Node000005" class="node">
<title>Node5</title>
<g id="a_Node000005"><a xlink:href="ast__free_8c.html#a2093aa16119809b1788e3544ccacb07a" target="_top" xlink:title=" ">
<polygon fill="white" stroke="#666666" points="290,-185 215,-185 215,-166 290,-166 290,-185"/>
<text text-anchor="middle" x="252.5" y="-173" font-family="Helvetica,sans-Serif" font-size="10.00">ast_free_for</text>
</a>
</g>
</g>
<!-- Node2&#45;&gt;Node5 -->
<g id="edge5_Node000002_Node000005" class="edge">
<title>Node2&#45;&gt;Node5</title>
<g id="a_edge5_Node000002_Node000005"><a xlink:title=" ">
<path fill="none" stroke="#63b8ff" d="M160.22,-129.86C171.07,-135.84 183.85,-143.04 196,-148.5 207.2,-153.53 220.24,-157.84 230.87,-161.93"/>
<polygon fill="#63b8ff" stroke="#63b8ff" points="229.6,-165.19 240.18,-165.8 232.29,-158.73 229.6,-165.19"/>
</a>
</g>
</g>
<!-- Node6 -->
<g id="Node000006" class="node">
<title>Node6</title>
<g id="a_Node000006"><a xlink:href="ast__free_8c.html#a654d27b37151693d221d215450efe6bb" target="_top" xlink:title=" ">
<polygon fill="white" stroke="#666666" points="291,-130 214,-130 214,-111 291,-111 291,-130"/>
<text text-anchor="middle" x="252.5" y="-118" font-family="Helvetica,sans-Serif" font-size="10.00">ast_free_list</text>
</a>
</g>
</g>
<!-- Node2&#45;&gt;Node6 -->
<g id="edge8_Node000002_Node000006" class="edge">
<title>Node2&#45;&gt;Node6</title>
<g id="a_edge8_Node000002_Node000006"><a xlink:title=" ">
<path fill="none" stroke="#63b8ff" d="M160.19,-114.72C173.07,-113.85 188.84,-113.57 203.63,-113.86"/>
<polygon fill="#63b8ff" stroke="#63b8ff" points="203.57,-117.36 213.66,-114.16 203.77,-110.36 203.57,-117.36"/>
</a>
</g>
</g>
<!-- Node7 -->
<g id="Node000007" class="node">
<title>Node7</title>
<g id="a_Node000007"><a xlink:href="ast__free_8c.html#a09f3dd857c6d405a4e1b2e3109a1d3df" target="_top" xlink:title=" ">
<polygon fill="white" stroke="#666666" points="294,-93 211,-93 211,-74 294,-74 294,-93"/>
<text text-anchor="middle" x="252.5" y="-81" font-family="Helvetica,sans-Serif" font-size="10.00">ast_free_loop</text>
</a>
</g>
</g>
<!-- Node2&#45;&gt;Node7 -->
<g id="edge11_Node000002_Node000007" class="edge">
<title>Node2&#45;&gt;Node7</title>
<g id="a_edge11_Node000002_Node000007"><a xlink:title=" ">
<path fill="none" stroke="#63b8ff" d="M148.49,-110.93C161.9,-105.16 182.07,-98.21 201.01,-92.58"/>
<polygon fill="#63b8ff" stroke="#63b8ff" points="202.12,-95.9 210.76,-89.77 200.18,-89.18 202.12,-95.9"/>
</a>
</g>
</g>
<!-- Node8 -->
<g id="Node000008" class="node">
<title>Node8</title>
<g id="a_Node000008"><a xlink:href="ast__free_8c.html#a50c5d556b19bcd99345d42797422afbc" target="_top" xlink:title=" ">
<polygon fill="white" stroke="#666666" points="294,-56 211,-56 211,-37 294,-37 294,-56"/>
<text text-anchor="middle" x="252.5" y="-44" font-family="Helvetica,sans-Serif" font-size="10.00">ast_free_pipe</text>
</a>
</g>
</g>
<!-- Node2&#45;&gt;Node8 -->
<g id="edge13_Node000002_Node000008" class="edge">
<title>Node2&#45;&gt;Node8</title>
<g id="a_edge13_Node000002_Node000008"><a xlink:title=" ">
<path fill="none" stroke="#63b8ff" d="M137.4,-110.69C147.03,-95.92 171.11,-70.88 196,-56.5 197.75,-55.49 199.57,-54.52 201.43,-53.59"/>
<polygon fill="#63b8ff" stroke="#63b8ff" points="203.23,-56.62 210.97,-49.38 200.41,-50.22 203.23,-56.62"/>
</a>
</g>
</g>
<!-- Node9 -->
<g id="Node000009" class="node">
<title>Node9</title>
<g id="a_Node000009"><a xlink:href="ast__free_8c.html#a6e033482de30aca56f1b66190b9a481c" target="_top" xlink:title=" ">
<polygon fill="white" stroke="#666666" points="309,-19 196,-19 196,0 309,0 309,-19"/>
<text text-anchor="middle" x="252.5" y="-7" font-family="Helvetica,sans-Serif" font-size="10.00">ast_free_shell_redir</text>
</a>
</g>
</g>
<!-- Node2&#45;&gt;Node9 -->
<g id="edge15_Node000002_Node000009" class="edge">
<title>Node2&#45;&gt;Node9</title>
<g id="a_edge15_Node000002_Node000009"><a xlink:title=" ">
<path fill="none" stroke="#63b8ff" d="M135.33,-110.71C141.62,-91.53 160.35,-51.34 188.67,-25.65"/>
<polygon fill="#63b8ff" stroke="#63b8ff" points="191.05,-28.22 196.49,-19.13 186.57,-22.84 191.05,-28.22"/>
</a>
</g>
</g>
<!-- Node3&#45;&gt;Node2 -->
<g id="edge3_Node000003_Node000002" class="edge">
<title>Node3&#45;&gt;Node2</title>
<g id="a_edge3_Node000003_Node000002"><a xlink:title=" ">
<path fill="none" stroke="#63b8ff" d="M204.97,-246.4C201.78,-244.7 198.75,-242.74 196,-240.5 163.85,-214.28 145.03,-167.05 137.24,-140.04"/>
<polygon fill="#63b8ff" stroke="#63b8ff" points="140.56,-138.92 134.64,-130.13 133.79,-140.7 140.56,-138.92"/>
</a>
</g>
</g>
<!-- Node5&#45;&gt;Node2 -->
<g id="edge6_Node000005_Node000002" class="edge">
<title>Node5&#45;&gt;Node2</title>
<g id="a_edge6_Node000005_Node000002"><a xlink:title=" ">
<path fill="none" stroke="#63b8ff" d="M214.95,-173.75C208.54,-171.69 202.01,-169.2 196,-166.5 178.5,-158.63 159.68,-147.14 147.21,-137.2"/>
<polygon fill="#63b8ff" stroke="#63b8ff" points="149.19,-134.28 139.37,-130.31 144.57,-139.54 149.19,-134.28"/>
</a>
</g>
</g>
<!-- Node6&#45;&gt;Node2 -->
<g id="edge10_Node000006_Node000002" class="edge">
<title>Node6&#45;&gt;Node2</title>
<g id="a_edge10_Node000006_Node000002"><a xlink:title=" ">
<path fill="none" stroke="#63b8ff" d="M213.66,-126.84C199.81,-127.39 184.14,-127.39 170.33,-126.82"/>
<polygon fill="#63b8ff" stroke="#63b8ff" points="170.36,-123.32 160.19,-126.28 169.99,-130.31 170.36,-123.32"/>
</a>
</g>
</g>
<!-- Node6&#45;&gt;Node6 -->
<g id="edge9_Node000006_Node000006" class="edge">
<title>Node6&#45;&gt;Node6</title>
<g id="a_edge9_Node000006_Node000006"><a xlink:title=" ">
<path fill="none" stroke="#63b8ff" d="M234,-130.08C225.01,-138.73 231.17,-148 252.5,-148 265.83,-148 273.24,-144.38 274.72,-139.55"/>
<polygon fill="#63b8ff" stroke="#63b8ff" points="277.91,-138.11 271,-130.08 271.4,-140.67 277.91,-138.11"/>
</a>
</g>
</g>
<!-- Node7&#45;&gt;Node2 -->
<g id="edge12_Node000007_Node000002" class="edge">
<title>Node7&#45;&gt;Node2</title>
<g id="a_edge12_Node000007_Node000002"><a xlink:title=" ">
<path fill="none" stroke="#63b8ff" d="M236.05,-93.05C219.38,-100.23 192.25,-109.23 170.01,-115.25"/>
<polygon fill="#63b8ff" stroke="#63b8ff" points="168.99,-111.9 160.19,-117.79 170.74,-118.68 168.99,-111.9"/>
</a>
</g>
</g>
<!-- Node8&#45;&gt;Node2 -->
<g id="edge14_Node000008_Node000002" class="edge">
<title>Node8&#45;&gt;Node2</title>
<g id="a_edge14_Node000008_Node000002"><a xlink:title=" ">
<path fill="none" stroke="#63b8ff" d="M239.45,-56.07C227.81,-61.1 209.93,-66.45 196,-74.5 181.73,-82.74 167.74,-94.48 156.58,-104.21"/>
<polygon fill="#63b8ff" stroke="#63b8ff" points="154.2,-101.65 148.99,-110.87 158.81,-106.91 154.2,-101.65"/>
</a>
</g>
</g>
<!-- Node9&#45;&gt;Node2 -->
<g id="edge16_Node000009_Node000002" class="edge">
<title>Node9&#45;&gt;Node2</title>
<g id="a_edge16_Node000009_Node000002"><a xlink:title=" ">
<path fill="none" stroke="#63b8ff" d="M237.09,-19.01C225.12,-23.32 208.16,-28.25 196,-37.5 173.04,-54.96 155.46,-83.27 144.78,-102.1"/>
<polygon fill="#63b8ff" stroke="#63b8ff" points="141.64,-100.54 139.83,-110.98 147.76,-103.95 141.64,-100.54"/>
</a>
</g>
</g>
</g>
</svg>
