<?xml version="1.0" encoding="UTF-8" standalone="no"?>
<!DOCTYPE svg PUBLIC "-//W3C//DTD SVG 1.1//EN"
 "http://www.w3.org/Graphics/SVG/1.1/DTD/svg11.dtd">
<!-- Generated by graphviz version 2.43.0 (0)
 -->
<!-- Title: src/ast/ast_run.c Pages: 1 -->
<svg width="628pt" height="302pt"
 viewBox="0.00 0.00 627.50 302.00" xmlns="http://www.w3.org/2000/svg" xmlns:xlink="http://www.w3.org/1999/xlink">
<g id="graph0" class="graph" transform="scale(1 1) rotate(0) translate(4 298)">
<title>src/ast/ast_run.c</title>
<!-- Node1 -->
<g id="Node000001" class="node">
<title>Node1</title>
<g id="a_Node000001"><a xlink:title=" ">
<polygon fill="#999999" stroke="#666666" points="323,-294 227,-294 227,-275 323,-275 323,-294"/>
<text text-anchor="middle" x="275" y="-282" font-family="Helvetica,sans-Serif" font-size="10.00">src/ast/ast_run.c</text>
</a>
</g>
</g>
<!-- Node2 -->
<g id="Node000002" class="node">
<title>Node2</title>
<g id="a_Node000002"><a xlink:title=" ">
<polygon fill="#e0e0e0" stroke="#999999" points="56,-184 0,-184 0,-165 56,-165 56,-184"/>
<text text-anchor="middle" x="28" y="-172" font-family="Helvetica,sans-Serif" font-size="10.00">stddef.h</text>
</a>
</g>
</g>
<!-- Node1&#45;&gt;Node2 -->
<g id="edge1_Node000001_Node000002" class="edge">
<title>Node1&#45;&gt;Node2</title>
<g id="a_edge1_Node000001_Node000002"><a xlink:title=" ">
<path fill="none" stroke="#63b8ff" d="M226.99,-282.43C159.21,-279.8 40.72,-270.66 14,-239 3.23,-226.24 9.58,-207.04 16.86,-193.09"/>
<polygon fill="#63b8ff" stroke="#63b8ff" points="19.89,-194.83 21.85,-184.41 13.82,-191.34 19.89,-194.83"/>
</a>
</g>
</g>
<!-- Node3 -->
<g id="Node000003" class="node">
<title>Node3</title>
<g id="a_Node000003"><a xlink:title=" ">
<polygon fill="#e0e0e0" stroke="#999999" points="387.5,-239 334.5,-239 334.5,-220 387.5,-220 387.5,-239"/>
<text text-anchor="middle" x="361" y="-227" font-family="Helvetica,sans-Serif" font-size="10.00">stdlib.h</text>
</a>
</g>
</g>
<!-- Node1&#45;&gt;Node3 -->
<g id="edge2_Node000001_Node000003" class="edge">
<title>Node1&#45;&gt;Node3</title>
<g id="a_edge2_Node000001_Node000003"><a xlink:title=" ">
<path fill="none" stroke="#63b8ff" d="M288.82,-274.98C302.15,-266.77 322.58,-254.18 338.31,-244.49"/>
<polygon fill="#63b8ff" stroke="#63b8ff" points="340.25,-247.4 346.93,-239.17 336.58,-241.44 340.25,-247.4"/>
</a>
</g>
</g>
<!-- Node4 -->
<g id="Node000004" class="node">
<title>Node4</title>
<g id="a_Node000004"><a xlink:title=" ">
<polygon fill="#e0e0e0" stroke="#999999" points="458.5,-239 405.5,-239 405.5,-220 458.5,-220 458.5,-239"/>
<text text-anchor="middle" x="432" y="-227" font-family="Helvetica,sans-Serif" font-size="10.00">string.h</text>
</a>
</g>
</g>
<!-- Node1&#45;&gt;Node4 -->
<g id="edge3_Node000001_Node000004" class="edge">
<title>Node1&#45;&gt;Node4</title>
<g id="a_edge3_Node000001_Node000004"><a xlink:title=" ">
<path fill="none" stroke="#63b8ff" d="M300.22,-274.98C326.36,-266.16 367.4,-252.31 396.73,-242.41"/>
<polygon fill="#63b8ff" stroke="#63b8ff" points="398.22,-245.6 406.58,-239.08 395.98,-238.96 398.22,-245.6"/>
</a>
</g>
</g>
<!-- Node5 -->
<g id="Node000005" class="node">
<title>Node5</title>
<g id="a_Node000005"><a xlink:href="break__continue_8h.html" target="_top" xlink:title=" ">
<polygon fill="white" stroke="#666666" points="619.5,-239 476.5,-239 476.5,-220 619.5,-220 619.5,-239"/>
<text text-anchor="middle" x="548" y="-227" font-family="Helvetica,sans-Serif" font-size="10.00">../builtin/break_continue.h</text>
</a>
</g>
</g>
<!-- Node1&#45;&gt;Node5 -->
<g id="edge4_Node000001_Node000005" class="edge">
<title>Node1&#45;&gt;Node5</title>
<g id="a_edge4_Node000001_Node000005"><a xlink:title=" ">
<path fill="none" stroke="#63b8ff" d="M318.86,-274.98C366.48,-265.74 442.58,-250.97 493.88,-241.01"/>
<polygon fill="#63b8ff" stroke="#63b8ff" points="494.64,-244.42 503.79,-239.08 493.31,-237.55 494.64,-244.42"/>
</a>
</g>
</g>
<!-- Node6 -->
<g id="Node000006" class="node">
<title>Node6</title>
<g id="a_Node000006"><a xlink:href="exec_8h.html" target="_top" xlink:title=" ">
<polygon fill="white" stroke="#666666" points="316.5,-239 233.5,-239 233.5,-220 316.5,-220 316.5,-239"/>
<text text-anchor="middle" x="275" y="-227" font-family="Helvetica,sans-Serif" font-size="10.00">../exec/exec.h</text>
</a>
</g>
</g>
<!-- Node1&#45;&gt;Node6 -->
<g id="edge5_Node000001_Node000006" class="edge">
<title>Node1&#45;&gt;Node6</title>
<g id="a_edge5_Node000001_Node000006"><a xlink:title=" ">
<path fill="none" stroke="#63b8ff" d="M275,-274.75C275,-267.8 275,-257.85 275,-249.13"/>
<polygon fill="#63b8ff" stroke="#63b8ff" points="278.5,-249.09 275,-239.09 271.5,-249.09 278.5,-249.09"/>
</a>
</g>
</g>
<!-- Node13 -->
<g id="Node000013" class="node">
<title>Node13</title>
<g id="a_Node000013"><a xlink:href="redir__exec_8h.html" target="_top" xlink:title=" ">
<polygon fill="white" stroke="#666666" points="133,-239 23,-239 23,-220 133,-220 133,-239"/>
<text text-anchor="middle" x="78" y="-227" font-family="Helvetica,sans-Serif" font-size="10.00">../exec/redir_exec.h</text>
</a>
</g>
</g>
<!-- Node1&#45;&gt;Node13 -->
<g id="edge14_Node000001_Node000013" class="edge">
<title>Node1&#45;&gt;Node13</title>
<g id="a_edge14_Node000001_Node000013"><a xlink:title=" ">
<path fill="none" stroke="#63b8ff" d="M243.35,-274.98C209.84,-265.97 156.8,-251.7 119.86,-241.76"/>
<polygon fill="#63b8ff" stroke="#63b8ff" points="120.47,-238.3 109.9,-239.08 118.65,-245.06 120.47,-238.3"/>
</a>
</g>
</g>
<!-- Node14 -->
<g id="Node000014" class="node">
<title>Node14</title>
<g id="a_Node000014"><a xlink:href="ast__aux_8h.html" target="_top" xlink:title=" ">
<polygon fill="white" stroke="#666666" points="215,-239 151,-239 151,-220 215,-220 215,-239"/>
<text text-anchor="middle" x="183" y="-227" font-family="Helvetica,sans-Serif" font-size="10.00">ast_aux.h</text>
</a>
</g>
</g>
<!-- Node1&#45;&gt;Node14 -->
<g id="edge17_Node000001_Node000014" class="edge">
<title>Node1&#45;&gt;Node14</title>
<g id="a_edge17_Node000001_Node000014"><a xlink:title=" ">
<path fill="none" stroke="#63b8ff" d="M260.22,-274.98C245.82,-266.69 223.69,-253.94 206.81,-244.22"/>
<polygon fill="#63b8ff" stroke="#63b8ff" points="208.46,-241.13 198.05,-239.17 204.97,-247.19 208.46,-241.13"/>
</a>
</g>
</g>
<!-- Node7 -->
<g id="Node000007" class="node">
<title>Node7</title>
<g id="a_Node000007"><a xlink:href="ast_8h.html" target="_top" xlink:title=" ">
<polygon fill="white" stroke="#666666" points="219,-184 151,-184 151,-165 219,-165 219,-184"/>
<text text-anchor="middle" x="185" y="-172" font-family="Helvetica,sans-Serif" font-size="10.00">../ast/ast.h</text>
</a>
</g>
</g>
<!-- Node6&#45;&gt;Node7 -->
<g id="edge6_Node000006_Node000007" class="edge">
<title>Node6&#45;&gt;Node7</title>
<g id="a_edge6_Node000006_Node000007"><a xlink:title=" ">
<path fill="none" stroke="#63b8ff" d="M260.54,-219.98C246.58,-211.77 225.21,-199.18 208.75,-189.49"/>
<polygon fill="#63b8ff" stroke="#63b8ff" points="210.12,-186.23 199.72,-184.17 206.56,-192.26 210.12,-186.23"/>
</a>
</g>
</g>
<!-- Node8 -->
<g id="Node000008" class="node">
<title>Node8</title>
<g id="a_Node000008"><a xlink:href="expand_8h.html" target="_top" xlink:title=" ">
<polygon fill="white" stroke="#666666" points="327,-129 217,-129 217,-110 327,-110 327,-129"/>
<text text-anchor="middle" x="272" y="-117" font-family="Helvetica,sans-Serif" font-size="10.00">../expand/expand.h</text>
</a>
</g>
</g>
<!-- Node6&#45;&gt;Node8 -->
<g id="edge13_Node000006_Node000008" class="edge">
<title>Node6&#45;&gt;Node8</title>
<g id="a_edge13_Node000006_Node000008"><a xlink:title=" ">
<path fill="none" stroke="#63b8ff" d="M274.75,-219.66C274.27,-202.17 273.18,-162.8 272.52,-139.27"/>
<polygon fill="#63b8ff" stroke="#63b8ff" points="276.02,-139.06 272.24,-129.16 269.02,-139.25 276.02,-139.06"/>
</a>
</g>
</g>
<!-- Node7&#45;&gt;Node8 -->
<g id="edge7_Node000007_Node000008" class="edge">
<title>Node7&#45;&gt;Node8</title>
<g id="a_edge7_Node000007_Node000008"><a xlink:title=" ">
<path fill="none" stroke="#63b8ff" d="M198.98,-164.98C212.47,-156.77 233.13,-144.18 249.04,-134.49"/>
<polygon fill="#63b8ff" stroke="#63b8ff" points="251.05,-137.36 257.77,-129.17 247.41,-131.38 251.05,-137.36"/>
</a>
</g>
</g>
<!-- Node10 -->
<g id="Node000010" class="node">
<title>Node10</title>
<g id="a_Node000010"><a xlink:href="redir_8h.html" target="_top" xlink:title=" ">
<polygon fill="white" stroke="#666666" points="157,-129 77,-129 77,-110 157,-110 157,-129"/>
<text text-anchor="middle" x="117" y="-117" font-family="Helvetica,sans-Serif" font-size="10.00">../utils/redir.h</text>
</a>
</g>
</g>
<!-- Node7&#45;&gt;Node10 -->
<g id="edge9_Node000007_Node000010" class="edge">
<title>Node7&#45;&gt;Node10</title>
<g id="a_edge9_Node000007_Node000010"><a xlink:title=" ">
<path fill="none" stroke="#63b8ff" d="M174.07,-164.98C163.92,-157.07 148.58,-145.11 136.35,-135.58"/>
<polygon fill="#63b8ff" stroke="#63b8ff" points="138.16,-132.56 128.12,-129.17 133.86,-138.08 138.16,-132.56"/>
</a>
</g>
</g>
<!-- Node11 -->
<g id="Node000011" class="node">
<title>Node11</title>
<g id="a_Node000011"><a xlink:href="token_8h.html" target="_top" xlink:title=" ">
<polygon fill="white" stroke="#666666" points="177.5,-74 124.5,-74 124.5,-55 177.5,-55 177.5,-74"/>
<text text-anchor="middle" x="151" y="-62" font-family="Helvetica,sans-Serif" font-size="10.00">token.h</text>
</a>
</g>
</g>
<!-- Node7&#45;&gt;Node11 -->
<g id="edge12_Node000007_Node000011" class="edge">
<title>Node7&#45;&gt;Node11</title>
<g id="a_edge12_Node000007_Node000011"><a xlink:title=" ">
<path fill="none" stroke="#63b8ff" d="M182.51,-164.84C178.97,-152.59 172.21,-129.52 166,-110 163.22,-101.25 159.98,-91.58 157.22,-83.5"/>
<polygon fill="#63b8ff" stroke="#63b8ff" points="160.52,-82.32 153.96,-74 153.9,-84.6 160.52,-82.32"/>
</a>
</g>
</g>
<!-- Node9 -->
<g id="Node000009" class="node">
<title>Node9</title>
<g id="a_Node000009"><a xlink:href="hashmap_8h.html" target="_top" xlink:title=" ">
<polygon fill="white" stroke="#666666" points="307.5,-74 236.5,-74 236.5,-55 307.5,-55 307.5,-74"/>
<text text-anchor="middle" x="272" y="-62" font-family="Helvetica,sans-Serif" font-size="10.00">hashmap.h</text>
</a>
</g>
</g>
<!-- Node8&#45;&gt;Node9 -->
<g id="edge8_Node000008_Node000009" class="edge">
<title>Node8&#45;&gt;Node9</title>
<g id="a_edge8_Node000008_Node000009"><a xlink:title=" ">
<path fill="none" stroke="#63b8ff" d="M272,-109.75C272,-102.8 272,-92.85 272,-84.13"/>
<polygon fill="#63b8ff" stroke="#63b8ff" points="275.5,-84.09 272,-74.09 268.5,-84.09 275.5,-84.09"/>
</a>
</g>
</g>
<!-- Node10&#45;&gt;Node11 -->
<g id="edge10_Node000010_Node000011" class="edge">
<title>Node10&#45;&gt;Node11</title>
<g id="a_edge10_Node000010_Node000011"><a xlink:title=" ">
<path fill="none" stroke="#63b8ff" d="M122.61,-109.75C127.32,-102.42 134.17,-91.73 139.97,-82.7"/>
<polygon fill="#63b8ff" stroke="#63b8ff" points="143.04,-84.4 145.49,-74.09 137.14,-80.62 143.04,-84.4"/>
</a>
</g>
</g>
<!-- Node12 -->
<g id="Node000012" class="node">
<title>Node12</title>
<g id="a_Node000012"><a xlink:title=" ">
<polygon fill="#e0e0e0" stroke="#999999" points="176,-19 126,-19 126,0 176,0 176,-19"/>
<text text-anchor="middle" x="151" y="-7" font-family="Helvetica,sans-Serif" font-size="10.00">stdio.h</text>
</a>
</g>
</g>
<!-- Node11&#45;&gt;Node12 -->
<g id="edge11_Node000011_Node000012" class="edge">
<title>Node11&#45;&gt;Node12</title>
<g id="a_edge11_Node000011_Node000012"><a xlink:title=" ">
<path fill="none" stroke="#63b8ff" d="M151,-54.75C151,-47.8 151,-37.85 151,-29.13"/>
<polygon fill="#63b8ff" stroke="#63b8ff" points="154.5,-29.09 151,-19.09 147.5,-29.09 154.5,-29.09"/>
</a>
</g>
</g>
<!-- Node13&#45;&gt;Node2 -->
<g id="edge15_Node000013_Node000002" class="edge">
<title>Node13&#45;&gt;Node2</title>
<g id="a_edge15_Node000013_Node000002"><a xlink:title=" ">
<path fill="none" stroke="#63b8ff" d="M69.74,-219.75C62.54,-212.11 51.89,-200.82 43.15,-191.56"/>
<polygon fill="#63b8ff" stroke="#63b8ff" points="45.51,-188.96 36.1,-184.09 40.42,-193.76 45.51,-188.96"/>
</a>
</g>
</g>
<!-- Node13&#45;&gt;Node10 -->
<g id="edge16_Node000013_Node000010" class="edge">
<title>Node13&#45;&gt;Node10</title>
<g id="a_edge16_Node000013_Node000010"><a xlink:title=" ">
<path fill="none" stroke="#63b8ff" d="M81.19,-219.66C87.57,-202.01 101.98,-162.09 110.45,-138.64"/>
<polygon fill="#63b8ff" stroke="#63b8ff" points="113.77,-139.75 113.87,-129.16 107.18,-137.38 113.77,-139.75"/>
</a>
</g>
</g>
<!-- Node14&#45;&gt;Node7 -->
<g id="edge18_Node000014_Node000007" class="edge">
<title>Node14&#45;&gt;Node7</title>
<g id="a_edge18_Node000014_Node000007"><a xlink:title=" ">
<path fill="none" stroke="#63b8ff" d="M183.33,-219.75C183.59,-212.8 183.97,-202.85 184.3,-194.13"/>
<polygon fill="#63b8ff" stroke="#63b8ff" points="187.8,-194.21 184.68,-184.09 180.8,-193.95 187.8,-194.21"/>
</a>
</g>
</g>
</g>
</svg>
