<?xml version="1.0" encoding="UTF-8" standalone="no"?>
<!DOCTYPE svg PUBLIC "-//W3C//DTD SVG 1.1//EN"
 "http://www.w3.org/Graphics/SVG/1.1/DTD/svg11.dtd">
<!-- Generated by graphviz version 2.43.0 (0)
 -->
<!-- Title: get_break Pages: 1 -->
<svg width="983pt" height="421pt"
 viewBox="0.00 0.00 983.00 421.00" xmlns="http://www.w3.org/2000/svg" xmlns:xlink="http://www.w3.org/1999/xlink">
<g id="graph0" class="graph" transform="scale(1 1) rotate(0) translate(4 417)">
<title>get_break</title>
<!-- Node1 -->
<g id="Node000001" class="node">
<title>Node1</title>
<g id="a_Node000001"><a xlink:title=" ">
<polygon fill="#999999" stroke="#666666" points="975,-283 910,-283 910,-264 975,-264 975,-283"/>
<text text-anchor="middle" x="942.5" y="-271" font-family="Helvetica,sans-Serif" font-size="10.00">get_break</text>
</a>
</g>
</g>
<!-- Node2 -->
<g id="Node000002" class="node">
<title>Node2</title>
<g id="a_Node000002"><a xlink:href="ast__run_8c.html#ae25cd3ced8abafd76110dba8852a6b87" target="_top" xlink:title=" ">
<polygon fill="white" stroke="#666666" points="874,-283 801,-283 801,-264 874,-264 874,-283"/>
<text text-anchor="middle" x="837.5" y="-271" font-family="Helvetica,sans-Serif" font-size="10.00">ast_run_list</text>
</a>
</g>
</g>
<!-- Node1&#45;&gt;Node2 -->
<g id="edge1_Node000001_Node000002" class="edge">
<title>Node1&#45;&gt;Node2</title>
<g id="a_edge1_Node000001_Node000002"><a xlink:title=" ">
<path fill="none" stroke="#63b8ff" d="M899.71,-273.5C891.28,-273.5 882.48,-273.5 874.27,-273.5"/>
<polygon fill="#63b8ff" stroke="#63b8ff" points="899.76,-277 909.76,-273.5 899.76,-270 899.76,-277"/>
</a>
</g>
</g>
<!-- Node7 -->
<g id="Node000007" class="node">
<title>Node7</title>
<g id="a_Node000007"><a xlink:href="ast__run_8c.html#a536f37ba9bffcd2099fef668656181e0" target="_top" xlink:title=" ">
<polygon fill="white" stroke="#666666" points="622,-19 543,-19 543,0 622,0 622,-19"/>
<text text-anchor="middle" x="582.5" y="-7" font-family="Helvetica,sans-Serif" font-size="10.00">ast_run_loop</text>
</a>
</g>
</g>
<!-- Node1&#45;&gt;Node7 -->
<g id="edge29_Node000001_Node000007" class="edge">
<title>Node1&#45;&gt;Node7</title>
<g id="a_edge29_Node000001_Node000007"><a xlink:title=" ">
<path fill="none" stroke="#63b8ff" d="M924.75,-256.23C881.19,-212.22 759.26,-94.62 637,-27.5 631.07,-24.25 624.45,-21.44 617.95,-19.07"/>
<polygon fill="#63b8ff" stroke="#63b8ff" points="922.44,-258.88 931.95,-263.56 927.44,-253.97 922.44,-258.88"/>
</a>
</g>
</g>
<!-- Node19 -->
<g id="Node000019" class="node">
<title>Node19</title>
<g id="a_Node000019"><a xlink:href="ast__run_8c.html#ab736d4b21353eaef40be48666508a4bc" target="_top" xlink:title=" ">
<polygon fill="white" stroke="#666666" points="765,-399 673,-399 673,-380 765,-380 765,-399"/>
<text text-anchor="middle" x="719" y="-387" font-family="Helvetica,sans-Serif" font-size="10.00">break_continue</text>
</a>
</g>
</g>
<!-- Node1&#45;&gt;Node19 -->
<g id="edge30_Node000001_Node000019" class="edge">
<title>Node1&#45;&gt;Node19</title>
<g id="a_edge30_Node000001_Node000019"><a xlink:title=" ">
<path fill="none" stroke="#63b8ff" d="M915.42,-288.02C902.93,-294.91 887.74,-303.21 874,-310.5 825.69,-336.13 768.23,-365.24 739.05,-379.94"/>
<polygon fill="#63b8ff" stroke="#63b8ff" points="917.32,-290.96 924.37,-283.06 913.93,-284.84 917.32,-290.96"/>
</a>
</g>
</g>
<!-- Node2&#45;&gt;Node2 -->
<g id="edge2_Node000002_Node000002" class="edge">
<title>Node2&#45;&gt;Node2</title>
<g id="a_edge2_Node000002_Node000002"><a xlink:title=" ">
<path fill="none" stroke="#63b8ff" d="M856.76,-292.55C855.47,-297.38 849.05,-301 837.5,-301 819.02,-301 813.67,-291.73 821.47,-283.08"/>
<polygon fill="#63b8ff" stroke="#63b8ff" points="860.07,-291.42 853.53,-283.08 853.44,-293.68 860.07,-291.42"/>
</a>
</g>
</g>
<!-- Node3 -->
<g id="Node000003" class="node">
<title>Node3</title>
<g id="a_Node000003"><a xlink:href="ast_8c.html#a572345b2707780bbbc5bbaacdca9c372" target="_top" xlink:title=" ">
<polygon fill="white" stroke="#666666" points="745.5,-283 692.5,-283 692.5,-264 745.5,-264 745.5,-283"/>
<text text-anchor="middle" x="719" y="-271" font-family="Helvetica,sans-Serif" font-size="10.00">run_ast</text>
</a>
</g>
</g>
<!-- Node2&#45;&gt;Node3 -->
<g id="edge3_Node000002_Node000003" class="edge">
<title>Node2&#45;&gt;Node3</title>
<g id="a_edge3_Node000002_Node000003"><a xlink:title=" ">
<path fill="none" stroke="#63b8ff" d="M790.6,-266.89C775.36,-266.54 758.93,-266.84 745.76,-267.79"/>
<polygon fill="#63b8ff" stroke="#63b8ff" points="790.8,-270.4 800.91,-267.23 791.03,-263.4 790.8,-270.4"/>
</a>
</g>
</g>
<!-- Node3&#45;&gt;Node2 -->
<g id="edge10_Node000003_Node000002" class="edge">
<title>Node3&#45;&gt;Node2</title>
<g id="a_edge10_Node000003_Node000002"><a xlink:title=" ">
<path fill="none" stroke="#63b8ff" d="M755.76,-279.78C770.1,-280.41 786.59,-280.41 800.91,-279.77"/>
<polygon fill="#63b8ff" stroke="#63b8ff" points="755.94,-276.29 745.76,-279.21 755.55,-283.27 755.94,-276.29"/>
</a>
</g>
</g>
<!-- Node4 -->
<g id="Node000004" class="node">
<title>Node4</title>
<g id="a_Node000004"><a xlink:href="ast__run_8c.html#a8a01fec616135007fc5b3968a101901b" target="_top" xlink:title=" ">
<polygon fill="white" stroke="#666666" points="628,-376 537,-376 537,-357 628,-357 628,-376"/>
<text text-anchor="middle" x="582.5" y="-364" font-family="Helvetica,sans-Serif" font-size="10.00">ast_run_and_or</text>
</a>
</g>
</g>
<!-- Node3&#45;&gt;Node4 -->
<g id="edge4_Node000003_Node000004" class="edge">
<title>Node3&#45;&gt;Node4</title>
<g id="a_edge4_Node000003_Node000004"><a xlink:title=" ">
<path fill="none" stroke="#63b8ff" d="M697,-290.16C681.76,-305.02 659.87,-325.92 637,-339.5 624.02,-347.2 607.3,-352.15 596.03,-356.83"/>
<polygon fill="#63b8ff" stroke="#63b8ff" points="699.61,-292.5 704.33,-283.01 694.73,-287.48 699.61,-292.5"/>
</a>
</g>
</g>
<!-- Node5 -->
<g id="Node000005" class="node">
<title>Node5</title>
<g id="a_Node000005"><a xlink:href="ast__run_8c.html#a9d83d4834a61ffe21eb77838d70ae173" target="_top" xlink:title=" ">
<polygon fill="white" stroke="#666666" points="618,-413 547,-413 547,-394 618,-394 618,-413"/>
<text text-anchor="middle" x="582.5" y="-401" font-family="Helvetica,sans-Serif" font-size="10.00">ast_run_for</text>
</a>
</g>
</g>
<!-- Node3&#45;&gt;Node5 -->
<g id="edge6_Node000003_Node000005" class="edge">
<title>Node3&#45;&gt;Node5</title>
<g id="a_edge6_Node000003_Node000005"><a xlink:title=" ">
<path fill="none" stroke="#63b8ff" d="M705.67,-292.1C692.13,-315.2 668.11,-353.6 637,-376.5 625.32,-385.1 609.26,-389.77 597.8,-393.92"/>
<polygon fill="#63b8ff" stroke="#63b8ff" points="708.83,-293.63 710.82,-283.22 702.77,-290.12 708.83,-293.63"/>
</a>
</g>
</g>
<!-- Node6 -->
<g id="Node000006" class="node">
<title>Node6</title>
<g id="a_Node000006"><a xlink:href="ast__run_8c.html#a0a7138b1f2608ea36211c9b78988c248" target="_top" xlink:title=" ">
<polygon fill="white" stroke="#666666" points="615,-339 550,-339 550,-320 615,-320 615,-339"/>
<text text-anchor="middle" x="582.5" y="-327" font-family="Helvetica,sans-Serif" font-size="10.00">ast_run_if</text>
</a>
</g>
</g>
<!-- Node3&#45;&gt;Node6 -->
<g id="edge8_Node000003_Node000006" class="edge">
<title>Node3&#45;&gt;Node6</title>
<g id="a_edge8_Node000003_Node000006"><a xlink:title=" ">
<path fill="none" stroke="#63b8ff" d="M683.07,-282.6C668.93,-288.74 652.34,-296.34 637,-302.5 622.08,-308.49 604.32,-314.19 593.48,-319.88"/>
<polygon fill="#63b8ff" stroke="#63b8ff" points="684.6,-285.75 692.43,-278.62 681.86,-279.31 684.6,-285.75"/>
</a>
</g>
</g>
<!-- Node3&#45;&gt;Node7 -->
<g id="edge11_Node000003_Node000007" class="edge">
<title>Node3&#45;&gt;Node7</title>
<g id="a_edge11_Node000003_Node000007"><a xlink:title=" ">
<path fill="none" stroke="#63b8ff" d="M712.84,-254.07C704.24,-227.32 686.59,-178.91 673,-137.5 655.77,-85 675.47,-58.17 637,-18.5 632.84,-14.21 627.62,-10.94 622.09,-8.57"/>
<polygon fill="#63b8ff" stroke="#63b8ff" points="709.55,-255.3 715.84,-263.82 716.24,-253.23 709.55,-255.3"/>
</a>
</g>
</g>
<!-- Node8 -->
<g id="Node000008" class="node">
<title>Node8</title>
<g id="a_Node000008"><a xlink:href="ast__run_8c.html#aa3e6a973e744d748ee415840596beb53" target="_top" xlink:title=" ">
<polygon fill="white" stroke="#666666" points="637,-302 528,-302 528,-283 637,-283 637,-302"/>
<text text-anchor="middle" x="582.5" y="-290" font-family="Helvetica,sans-Serif" font-size="10.00">ast_run_shell_redir</text>
</a>
</g>
</g>
<!-- Node3&#45;&gt;Node8 -->
<g id="edge13_Node000003_Node000008" class="edge">
<title>Node3&#45;&gt;Node8</title>
<g id="a_edge13_Node000003_Node000008"><a xlink:title=" ">
<path fill="none" stroke="#63b8ff" d="M682.33,-272.5C660.1,-274.56 631.91,-278.69 611.34,-282.98"/>
<polygon fill="#63b8ff" stroke="#63b8ff" points="682.7,-275.98 692.38,-271.68 682.13,-269 682.7,-275.98"/>
</a>
</g>
</g>
<!-- Node9 -->
<g id="Node000009" class="node">
<title>Node9</title>
<g id="a_Node000009"><a xlink:href="exec_8c.html#a23babf893bbcd2f6126698a1a19b169f" target="_top" xlink:title="Execute funct with given arguments.">
<polygon fill="white" stroke="#666666" points="372,-264 307,-264 307,-245 372,-245 372,-264"/>
<text text-anchor="middle" x="339.5" y="-252" font-family="Helvetica,sans-Serif" font-size="10.00">exec_func</text>
</a>
</g>
</g>
<!-- Node3&#45;&gt;Node9 -->
<g id="edge15_Node000003_Node000009" class="edge">
<title>Node3&#45;&gt;Node9</title>
<g id="a_edge15_Node000003_Node000009"><a xlink:title=" ">
<path fill="none" stroke="#63b8ff" d="M682.21,-271.7C608.75,-268 442.01,-259.61 372.18,-256.09"/>
<polygon fill="#63b8ff" stroke="#63b8ff" points="682.19,-275.2 692.35,-272.21 682.54,-268.21 682.19,-275.2"/>
</a>
</g>
</g>
<!-- Node12 -->
<g id="Node000012" class="node">
<title>Node12</title>
<g id="a_Node000012"><a xlink:href="exec_8c.html#ab743cb88e12e9b922050925fd2075e36" target="_top" xlink:title="Execute a pipeline of commands.">
<polygon fill="white" stroke="#666666" points="615,-132 550,-132 550,-113 615,-113 615,-132"/>
<text text-anchor="middle" x="582.5" y="-120" font-family="Helvetica,sans-Serif" font-size="10.00">exec_pipe</text>
</a>
</g>
</g>
<!-- Node3&#45;&gt;Node12 -->
<g id="edge19_Node000003_Node000012" class="edge">
<title>Node3&#45;&gt;Node12</title>
<g id="a_edge19_Node000003_Node000012"><a xlink:title=" ">
<path fill="none" stroke="#63b8ff" d="M706.57,-255.18C691.98,-232.54 665.21,-193.47 637,-164.5 624.97,-152.15 609.26,-140.23 597.98,-132.26"/>
<polygon fill="#63b8ff" stroke="#63b8ff" points="703.73,-257.24 712.05,-263.8 709.64,-253.48 703.73,-257.24"/>
</a>
</g>
</g>
<!-- Node14 -->
<g id="Node000014" class="node">
<title>Node14</title>
<g id="a_Node000014"><a xlink:href="42sh_8c.html#a3c04138a5bfe5d72780bb7e82a18e627" target="_top" xlink:title=" ">
<polygon fill="white" stroke="#666666" points="603,-56 562,-56 562,-37 603,-37 603,-56"/>
<text text-anchor="middle" x="582.5" y="-44" font-family="Helvetica,sans-Serif" font-size="10.00">main</text>
</a>
</g>
</g>
<!-- Node3&#45;&gt;Node14 -->
<g id="edge23_Node000003_Node000014" class="edge">
<title>Node3&#45;&gt;Node14</title>
<g id="a_edge23_Node000003_Node000014"><a xlink:title=" ">
<path fill="none" stroke="#63b8ff" d="M711.24,-254.21C694.3,-206.26 650.46,-84.54 637,-70.5 627.91,-61.02 614.4,-55 603.23,-51.36"/>
<polygon fill="#63b8ff" stroke="#63b8ff" points="707.97,-255.47 714.59,-263.74 714.58,-253.15 707.97,-255.47"/>
</a>
</g>
</g>
<!-- Node15 -->
<g id="Node000015" class="node">
<title>Node15</title>
<g id="a_Node000015"><a xlink:href="dot_8c.html#a17477ee2b0f1b8b9306566c990d15b35" target="_top" xlink:title="Main loop of dot builtin.">
<polygon fill="white" stroke="#666666" points="616.5,-226 548.5,-226 548.5,-207 616.5,-207 616.5,-226"/>
<text text-anchor="middle" x="582.5" y="-214" font-family="Helvetica,sans-Serif" font-size="10.00">main_loop</text>
</a>
</g>
</g>
<!-- Node3&#45;&gt;Node15 -->
<g id="edge24_Node000003_Node000015" class="edge">
<title>Node3&#45;&gt;Node15</title>
<g id="a_edge24_Node000003_Node000015"><a xlink:title=" ">
<path fill="none" stroke="#63b8ff" d="M686.19,-260.02C661.56,-249.58 628.03,-235.37 606.09,-226.07"/>
<polygon fill="#63b8ff" stroke="#63b8ff" points="684.91,-263.28 695.49,-263.96 687.65,-256.83 684.91,-263.28"/>
</a>
</g>
</g>
<!-- Node4&#45;&gt;Node3 -->
<g id="edge5_Node000004_Node000003" class="edge">
<title>Node4&#45;&gt;Node3</title>
<g id="a_edge5_Node000004_Node000003"><a xlink:title=" ">
<path fill="none" stroke="#63b8ff" d="M637.04,-356.71C675.13,-332.47 703.19,-300.14 713.66,-283.23"/>
<polygon fill="#63b8ff" stroke="#63b8ff" points="634.96,-353.88 628.23,-362.06 638.6,-359.86 634.96,-353.88"/>
</a>
</g>
</g>
<!-- Node5&#45;&gt;Node3 -->
<g id="edge7_Node000005_Node000003" class="edge">
<title>Node5&#45;&gt;Node3</title>
<g id="a_edge7_Node000005_Node000003"><a xlink:title=" ">
<path fill="none" stroke="#63b8ff" d="M627.66,-400.16C630.95,-398.51 634.11,-396.63 637,-394.5 678.16,-364.2 706.9,-306.79 715.4,-283.17"/>
<polygon fill="#63b8ff" stroke="#63b8ff" points="626.02,-397.05 618.16,-404.16 628.73,-403.51 626.02,-397.05"/>
</a>
</g>
</g>
<!-- Node6&#45;&gt;Node3 -->
<g id="edge9_Node000006_Node000003" class="edge">
<title>Node6&#45;&gt;Node3</title>
<g id="a_edge9_Node000006_Node000003"><a xlink:title=" ">
<path fill="none" stroke="#63b8ff" d="M624.77,-325.1C628.92,-323.64 633.06,-322.08 637,-320.5 664.1,-309.62 695.08,-294.23 709.63,-283.25"/>
<polygon fill="#63b8ff" stroke="#63b8ff" points="623.52,-321.83 615.12,-328.28 625.71,-328.47 623.52,-321.83"/>
</a>
</g>
</g>
<!-- Node7&#45;&gt;Node3 -->
<g id="edge12_Node000007_Node000003" class="edge">
<title>Node7&#45;&gt;Node3</title>
<g id="a_edge12_Node000007_Node000003"><a xlink:title=" ">
<path fill="none" stroke="#63b8ff" d="M611.32,-22.04C620.55,-25.19 630.19,-29.47 637,-36.5 675.47,-76.17 655.77,-103 673,-155.5 686.28,-195.95 703.42,-243.07 712.22,-263.71"/>
<polygon fill="#63b8ff" stroke="#63b8ff" points="612.22,-18.66 601.63,-19 610.12,-25.34 612.22,-18.66"/>
</a>
</g>
</g>
<!-- Node8&#45;&gt;Node3 -->
<g id="edge14_Node000008_Node000003" class="edge">
<title>Node8&#45;&gt;Node3</title>
<g id="a_edge14_Node000008_Node000003"><a xlink:title=" ">
<path fill="none" stroke="#63b8ff" d="M647.07,-290.26C663.12,-288.07 679.45,-285.33 692.38,-282.55"/>
<polygon fill="#63b8ff" stroke="#63b8ff" points="646.61,-286.79 637.14,-291.55 647.51,-293.73 646.61,-286.79"/>
</a>
</g>
</g>
<!-- Node10 -->
<g id="Node000010" class="node">
<title>Node10</title>
<g id="a_Node000010"><a xlink:href="exec_8c.html#ae65edaa99b26b49d60c451157d38b34a" target="_top" xlink:title="Execute les commandes avec les args donnes.">
<polygon fill="white" stroke="#666666" points="180,-226 115,-226 115,-207 180,-207 180,-226"/>
<text text-anchor="middle" x="147.5" y="-214" font-family="Helvetica,sans-Serif" font-size="10.00">exec_cmd</text>
</a>
</g>
</g>
<!-- Node9&#45;&gt;Node10 -->
<g id="edge16_Node000009_Node000010" class="edge">
<title>Node9&#45;&gt;Node10</title>
<g id="a_edge16_Node000009_Node000010"><a xlink:title=" ">
<path fill="none" stroke="#63b8ff" d="M296.73,-249.29C272.94,-246.01 242.65,-241.3 216,-235.5 203.98,-232.89 190.94,-229.38 179.56,-226.09"/>
<polygon fill="#63b8ff" stroke="#63b8ff" points="296.46,-252.79 306.84,-250.66 297.39,-245.85 296.46,-252.79"/>
</a>
</g>
</g>
<!-- Node11 -->
<g id="Node000011" class="node">
<title>Node11</title>
<g id="a_Node000011"><a xlink:href="ast__run_8c.html#aeb6878a59c6907e5669fc3cc428913d9" target="_top" xlink:title=" ">
<polygon fill="white" stroke="#666666" points="79,-207 0,-207 0,-188 79,-188 79,-207"/>
<text text-anchor="middle" x="39.5" y="-195" font-family="Helvetica,sans-Serif" font-size="10.00">ast_run_cmd</text>
</a>
</g>
</g>
<!-- Node10&#45;&gt;Node11 -->
<g id="edge17_Node000010_Node000011" class="edge">
<title>Node10&#45;&gt;Node11</title>
<g id="a_edge17_Node000010_Node000011"><a xlink:title=" ">
<path fill="none" stroke="#63b8ff" d="M104.92,-209.05C96.45,-207.53 87.58,-205.94 79.21,-204.44"/>
<polygon fill="#63b8ff" stroke="#63b8ff" points="104.52,-212.53 114.98,-210.85 105.76,-205.64 104.52,-212.53"/>
</a>
</g>
</g>
<!-- Node11&#45;&gt;Node3 -->
<g id="edge18_Node000011_Node000003" class="edge">
<title>Node11&#45;&gt;Node3</title>
<g id="a_edge18_Node000011_Node000003"><a xlink:title=" ">
<path fill="none" stroke="#63b8ff" d="M89.1,-190.27C129.43,-184.9 188.31,-178.5 240,-178.5 453.5,-178.5 453.5,-178.5 453.5,-178.5 535.54,-178.5 562.35,-164.47 637,-198.5 669.96,-213.53 698.4,-247.24 711.03,-263.86"/>
<polygon fill="#63b8ff" stroke="#63b8ff" points="88.45,-186.83 79.01,-191.64 89.4,-193.76 88.45,-186.83"/>
</a>
</g>
</g>
<!-- Node12&#45;&gt;Node12 -->
<g id="edge22_Node000012_Node000012" class="edge">
<title>Node12&#45;&gt;Node12</title>
<g id="a_edge22_Node000012_Node000012"><a xlink:title=" ">
<path fill="none" stroke="#63b8ff" d="M606.68,-141.19C605.36,-146.2 597.3,-150 582.5,-150 559.39,-150 552.72,-140.73 562.46,-132.08"/>
<polygon fill="#63b8ff" stroke="#63b8ff" points="609.86,-139.73 602.54,-132.08 603.49,-142.63 609.86,-139.73"/>
</a>
</g>
</g>
<!-- Node13 -->
<g id="Node000013" class="node">
<title>Node13</title>
<g id="a_Node000013"><a xlink:href="ast__run_8c.html#a24d0223822f7b635628199085c3283be" target="_top" xlink:title=" ">
<polygon fill="white" stroke="#666666" points="492,-113 413,-113 413,-94 492,-94 492,-113"/>
<text text-anchor="middle" x="452.5" y="-101" font-family="Helvetica,sans-Serif" font-size="10.00">ast_run_pipe</text>
</a>
</g>
</g>
<!-- Node12&#45;&gt;Node13 -->
<g id="edge20_Node000012_Node000013" class="edge">
<title>Node12&#45;&gt;Node13</title>
<g id="a_edge20_Node000012_Node000013"><a xlink:title=" ">
<path fill="none" stroke="#63b8ff" d="M539.62,-116.28C524.32,-114.01 507.09,-111.45 492.08,-109.23"/>
<polygon fill="#63b8ff" stroke="#63b8ff" points="539.45,-119.8 549.86,-117.8 540.48,-112.87 539.45,-119.8"/>
</a>
</g>
</g>
<!-- Node13&#45;&gt;Node3 -->
<g id="edge21_Node000013_Node000003" class="edge">
<title>Node13&#45;&gt;Node3</title>
<g id="a_edge21_Node000013_Node000003"><a xlink:title=" ">
<path fill="none" stroke="#63b8ff" d="M495.05,-91.65C534.69,-82.91 594.5,-76.67 637,-103.5 666.86,-122.35 704,-230.42 714.87,-263.73"/>
<polygon fill="#63b8ff" stroke="#63b8ff" points="494.11,-88.27 485.18,-93.97 495.71,-95.09 494.11,-88.27"/>
</a>
</g>
</g>
<!-- Node16 -->
<g id="Node000016" class="node">
<title>Node16</title>
<g id="a_Node000016"><a xlink:href="dot_8c.html#a713938d3c6ee343132c429642048bcf6" target="_top" xlink:title="Execute the dot builtin cmd.">
<polygon fill="white" stroke="#666666" points="474.5,-226 430.5,-226 430.5,-207 474.5,-207 474.5,-226"/>
<text text-anchor="middle" x="452.5" y="-214" font-family="Helvetica,sans-Serif" font-size="10.00">dot_b</text>
</a>
</g>
</g>
<!-- Node15&#45;&gt;Node16 -->
<g id="edge25_Node000015_Node000016" class="edge">
<title>Node15&#45;&gt;Node16</title>
<g id="a_edge25_Node000015_Node000016"><a xlink:title=" ">
<path fill="none" stroke="#63b8ff" d="M538.02,-216.5C516.61,-216.5 491.78,-216.5 474.6,-216.5"/>
<polygon fill="#63b8ff" stroke="#63b8ff" points="538.2,-220 548.2,-216.5 538.2,-213 538.2,-220"/>
</a>
</g>
</g>
<!-- Node17 -->
<g id="Node000017" class="node">
<title>Node17</title>
<g id="a_Node000017"><a xlink:href="exec_8c.html#abaeb177587c7eec6a064b35bb8399cae" target="_top" xlink:title="Execute builtin cmd with given args.">
<polygon fill="white" stroke="#666666" points="377,-226 302,-226 302,-207 377,-207 377,-226"/>
<text text-anchor="middle" x="339.5" y="-214" font-family="Helvetica,sans-Serif" font-size="10.00">exec_builtin</text>
</a>
</g>
</g>
<!-- Node16&#45;&gt;Node17 -->
<g id="edge26_Node000016_Node000017" class="edge">
<title>Node16&#45;&gt;Node17</title>
<g id="a_edge26_Node000016_Node000017"><a xlink:title=" ">
<path fill="none" stroke="#63b8ff" d="M420.23,-216.5C406.88,-216.5 391.2,-216.5 377.3,-216.5"/>
<polygon fill="#63b8ff" stroke="#63b8ff" points="420.36,-220 430.36,-216.5 420.36,-213 420.36,-220"/>
</a>
</g>
</g>
<!-- Node18 -->
<g id="Node000018" class="node">
<title>Node18</title>
<g id="a_Node000018"><a xlink:href="exec_8c.html#a287d81b4658832f192750310e2925917" target="_top" xlink:title="Execute the builtin command with given args.">
<polygon fill="white" stroke="#666666" points="266,-226 216,-226 216,-207 266,-207 266,-226"/>
<text text-anchor="middle" x="241" y="-214" font-family="Helvetica,sans-Serif" font-size="10.00">exec_b</text>
</a>
</g>
</g>
<!-- Node17&#45;&gt;Node18 -->
<g id="edge27_Node000017_Node000018" class="edge">
<title>Node17&#45;&gt;Node18</title>
<g id="a_edge27_Node000017_Node000018"><a xlink:title=" ">
<path fill="none" stroke="#63b8ff" d="M291.51,-216.5C282.71,-216.5 273.86,-216.5 266.12,-216.5"/>
<polygon fill="#63b8ff" stroke="#63b8ff" points="291.74,-220 301.74,-216.5 291.74,-213 291.74,-220"/>
</a>
</g>
</g>
<!-- Node18&#45;&gt;Node10 -->
<g id="edge28_Node000018_Node000010" class="edge">
<title>Node18&#45;&gt;Node10</title>
<g id="a_edge28_Node000018_Node000010"><a xlink:title=" ">
<path fill="none" stroke="#63b8ff" d="M205.77,-216.5C197.42,-216.5 188.53,-216.5 180.3,-216.5"/>
<polygon fill="#63b8ff" stroke="#63b8ff" points="205.96,-220 215.96,-216.5 205.96,-213 205.96,-220"/>
</a>
</g>
</g>
<!-- Node19&#45;&gt;Node5 -->
<g id="edge31_Node000019_Node000005" class="edge">
<title>Node19&#45;&gt;Node5</title>
<g id="a_edge31_Node000019_Node000005"><a xlink:title=" ">
<path fill="none" stroke="#63b8ff" d="M662.59,-395.27C647.53,-396.83 631.66,-398.49 618.12,-399.9"/>
<polygon fill="#63b8ff" stroke="#63b8ff" points="663.26,-398.72 672.84,-394.2 662.53,-391.75 663.26,-398.72"/>
</a>
</g>
</g>
</g>
</svg>
