<?xml version="1.0" encoding="UTF-8" standalone="no"?>
<!DOCTYPE svg PUBLIC "-//W3C//DTD SVG 1.1//EN"
 "http://www.w3.org/Graphics/SVG/1.1/DTD/svg11.dtd">
<!-- Generated by graphviz version 2.43.0 (0)
 -->
<!-- Title: break_b Pages: 1 -->
<svg width="826pt" height="464pt"
 viewBox="0.00 0.00 826.00 463.50" xmlns="http://www.w3.org/2000/svg" xmlns:xlink="http://www.w3.org/1999/xlink">
<g id="graph0" class="graph" transform="scale(1 1) rotate(0) translate(4 459.5)">
<title>break_b</title>
<!-- Node1 -->
<g id="Node000001" class="node">
<title>Node1</title>
<g id="a_Node000001"><a xlink:title="Implements the break builtin.">
<polygon fill="#999999" stroke="#666666" points="818,-28.5 762,-28.5 762,-9.5 818,-9.5 818,-28.5"/>
<text text-anchor="middle" x="790" y="-16.5" font-family="Helvetica,sans-Serif" font-size="10.00">break_b</text>
</a>
</g>
</g>
<!-- Node2 -->
<g id="Node000002" class="node">
<title>Node2</title>
<g id="a_Node000002"><a xlink:href="exec_8c.html#abaeb177587c7eec6a064b35bb8399cae" target="_top" xlink:title="Execute builtin cmd with given args.">
<polygon fill="white" stroke="#666666" points="726,-28.5 651,-28.5 651,-9.5 726,-9.5 726,-28.5"/>
<text text-anchor="middle" x="688.5" y="-16.5" font-family="Helvetica,sans-Serif" font-size="10.00">exec_builtin</text>
</a>
</g>
</g>
<!-- Node1&#45;&gt;Node2 -->
<g id="edge1_Node000001_Node000002" class="edge">
<title>Node1&#45;&gt;Node2</title>
<g id="a_edge1_Node000001_Node000002"><a xlink:title=" ">
<path fill="none" stroke="#63b8ff" d="M751.66,-19C743.38,-19 734.61,-19 726.36,-19"/>
<polygon fill="#63b8ff" stroke="#63b8ff" points="751.81,-22.5 761.81,-19 751.81,-15.5 751.81,-22.5"/>
</a>
</g>
</g>
<!-- Node3 -->
<g id="Node000003" class="node">
<title>Node3</title>
<g id="a_Node000003"><a xlink:href="exec_8c.html#a287d81b4658832f192750310e2925917" target="_top" xlink:title="Execute the builtin command with given args.">
<polygon fill="white" stroke="#666666" points="615,-47.5 565,-47.5 565,-28.5 615,-28.5 615,-47.5"/>
<text text-anchor="middle" x="590" y="-35.5" font-family="Helvetica,sans-Serif" font-size="10.00">exec_b</text>
</a>
</g>
</g>
<!-- Node2&#45;&gt;Node3 -->
<g id="edge2_Node000002_Node000003" class="edge">
<title>Node2&#45;&gt;Node3</title>
<g id="a_edge2_Node000002_Node000003"><a xlink:title=" ">
<path fill="none" stroke="#63b8ff" d="M640.8,-28.2C631.9,-29.95 622.94,-31.71 615.12,-33.25"/>
<polygon fill="#63b8ff" stroke="#63b8ff" points="641.61,-31.6 650.74,-26.24 640.25,-24.74 641.61,-31.6"/>
</a>
</g>
</g>
<!-- Node4 -->
<g id="Node000004" class="node">
<title>Node4</title>
<g id="a_Node000004"><a xlink:href="exec_8c.html#ae65edaa99b26b49d60c451157d38b34a" target="_top" xlink:title="Execute les commandes avec les args donnes.">
<polygon fill="white" stroke="#666666" points="529,-47.5 464,-47.5 464,-28.5 529,-28.5 529,-47.5"/>
<text text-anchor="middle" x="496.5" y="-35.5" font-family="Helvetica,sans-Serif" font-size="10.00">exec_cmd</text>
</a>
</g>
</g>
<!-- Node3&#45;&gt;Node4 -->
<g id="edge3_Node000003_Node000004" class="edge">
<title>Node3&#45;&gt;Node4</title>
<g id="a_edge3_Node000003_Node000004"><a xlink:title=" ">
<path fill="none" stroke="#63b8ff" d="M554.77,-38C546.42,-38 537.53,-38 529.3,-38"/>
<polygon fill="#63b8ff" stroke="#63b8ff" points="554.96,-41.5 564.96,-38 554.96,-34.5 554.96,-41.5"/>
</a>
</g>
</g>
<!-- Node5 -->
<g id="Node000005" class="node">
<title>Node5</title>
<g id="a_Node000005"><a xlink:href="ast__run_8c.html#aeb6878a59c6907e5669fc3cc428913d9" target="_top" xlink:title=" ">
<polygon fill="white" stroke="#666666" points="428,-187.5 349,-187.5 349,-168.5 428,-168.5 428,-187.5"/>
<text text-anchor="middle" x="388.5" y="-175.5" font-family="Helvetica,sans-Serif" font-size="10.00">ast_run_cmd</text>
</a>
</g>
</g>
<!-- Node4&#45;&gt;Node5 -->
<g id="edge4_Node000004_Node000005" class="edge">
<title>Node4&#45;&gt;Node5</title>
<g id="a_edge4_Node000004_Node000005"><a xlink:title=" ">
<path fill="none" stroke="#63b8ff" d="M481.95,-55.9C459.28,-85.84 414.44,-145.06 396.84,-168.31"/>
<polygon fill="#63b8ff" stroke="#63b8ff" points="484.97,-57.71 488.21,-47.62 479.39,-53.48 484.97,-57.71"/>
</a>
</g>
</g>
<!-- Node6 -->
<g id="Node000006" class="node">
<title>Node6</title>
<g id="a_Node000006"><a xlink:href="ast_8c.html#a572345b2707780bbbc5bbaacdca9c372" target="_top" xlink:title=" ">
<polygon fill="white" stroke="#666666" points="313,-289.5 260,-289.5 260,-270.5 313,-270.5 313,-289.5"/>
<text text-anchor="middle" x="286.5" y="-277.5" font-family="Helvetica,sans-Serif" font-size="10.00">run_ast</text>
</a>
</g>
</g>
<!-- Node5&#45;&gt;Node6 -->
<g id="edge5_Node000005_Node000006" class="edge">
<title>Node5&#45;&gt;Node6</title>
<g id="a_edge5_Node000005_Node000006"><a xlink:title=" ">
<path fill="none" stroke="#63b8ff" d="M370.84,-195C349.67,-216.59 313.85,-253.12 296.91,-270.4"/>
<polygon fill="#63b8ff" stroke="#63b8ff" points="373.41,-197.37 377.91,-187.78 368.41,-192.47 373.41,-197.37"/>
</a>
</g>
</g>
<!-- Node7 -->
<g id="Node000007" class="node">
<title>Node7</title>
<g id="a_Node000007"><a xlink:href="ast__run_8c.html#a8a01fec616135007fc5b3968a101901b" target="_top" xlink:title=" ">
<polygon fill="white" stroke="#666666" points="215,-455.5 124,-455.5 124,-436.5 215,-436.5 215,-455.5"/>
<text text-anchor="middle" x="169.5" y="-443.5" font-family="Helvetica,sans-Serif" font-size="10.00">ast_run_and_or</text>
</a>
</g>
</g>
<!-- Node6&#45;&gt;Node7 -->
<g id="edge6_Node000006_Node000007" class="edge">
<title>Node6&#45;&gt;Node7</title>
<g id="a_edge6_Node000006_Node000007"><a xlink:title=" ">
<path fill="none" stroke="#63b8ff" d="M281.39,-300.05C274.89,-330.18 259.18,-386.18 224,-419 213.97,-428.36 198.91,-432.87 187.32,-436.5"/>
<polygon fill="#63b8ff" stroke="#63b8ff" points="284.89,-300.37 283.45,-289.88 278.03,-298.98 284.89,-300.37"/>
</a>
</g>
</g>
<!-- Node8 -->
<g id="Node000008" class="node">
<title>Node8</title>
<g id="a_Node000008"><a xlink:href="ast__run_8c.html#a9d83d4834a61ffe21eb77838d70ae173" target="_top" xlink:title=" ">
<polygon fill="white" stroke="#666666" points="205,-418.5 134,-418.5 134,-399.5 205,-399.5 205,-418.5"/>
<text text-anchor="middle" x="169.5" y="-406.5" font-family="Helvetica,sans-Serif" font-size="10.00">ast_run_for</text>
</a>
</g>
</g>
<!-- Node6&#45;&gt;Node8 -->
<g id="edge8_Node000006_Node000008" class="edge">
<title>Node6&#45;&gt;Node8</title>
<g id="a_edge8_Node000006_Node000008"><a xlink:title=" ">
<path fill="none" stroke="#63b8ff" d="M277.39,-298.99C268.24,-321.92 251.01,-359.5 224,-382 213.16,-391.03 197.59,-395.6 186.04,-399.47"/>
<polygon fill="#63b8ff" stroke="#63b8ff" points="280.68,-300.17 281.03,-289.59 274.16,-297.65 280.68,-300.17"/>
</a>
</g>
</g>
<!-- Node9 -->
<g id="Node000009" class="node">
<title>Node9</title>
<g id="a_Node000009"><a xlink:href="ast__run_8c.html#a0a7138b1f2608ea36211c9b78988c248" target="_top" xlink:title=" ">
<polygon fill="white" stroke="#666666" points="202,-381.5 137,-381.5 137,-362.5 202,-362.5 202,-381.5"/>
<text text-anchor="middle" x="169.5" y="-369.5" font-family="Helvetica,sans-Serif" font-size="10.00">ast_run_if</text>
</a>
</g>
</g>
<!-- Node6&#45;&gt;Node9 -->
<g id="edge10_Node000006_Node000009" class="edge">
<title>Node6&#45;&gt;Node9</title>
<g id="a_edge10_Node000006_Node000009"><a xlink:title=" ">
<path fill="none" stroke="#63b8ff" d="M269.53,-298.02C258.48,-312.62 242.48,-332.33 224,-345 211.88,-353.31 195.59,-358.06 184.19,-362.38"/>
<polygon fill="#63b8ff" stroke="#63b8ff" points="272.56,-299.8 275.74,-289.7 266.95,-295.61 272.56,-299.8"/>
</a>
</g>
</g>
<!-- Node10 -->
<g id="Node000010" class="node">
<title>Node10</title>
<g id="a_Node000010"><a xlink:href="ast__run_8c.html#ae25cd3ced8abafd76110dba8852a6b87" target="_top" xlink:title=" ">
<polygon fill="white" stroke="#666666" points="206,-326.5 133,-326.5 133,-307.5 206,-307.5 206,-326.5"/>
<text text-anchor="middle" x="169.5" y="-314.5" font-family="Helvetica,sans-Serif" font-size="10.00">ast_run_list</text>
</a>
</g>
</g>
<!-- Node6&#45;&gt;Node10 -->
<g id="edge12_Node000006_Node000010" class="edge">
<title>Node6&#45;&gt;Node10</title>
<g id="a_edge12_Node000006_Node000010"><a xlink:title=" ">
<path fill="none" stroke="#63b8ff" d="M250.09,-285.11C228.37,-291.14 201.69,-300.25 185.4,-307.49"/>
<polygon fill="#63b8ff" stroke="#63b8ff" points="251.21,-288.43 259.98,-282.49 249.42,-281.66 251.21,-288.43"/>
</a>
</g>
</g>
<!-- Node11 -->
<g id="Node000011" class="node">
<title>Node11</title>
<g id="a_Node000011"><a xlink:href="ast__run_8c.html#a536f37ba9bffcd2099fef668656181e0" target="_top" xlink:title=" ">
<polygon fill="white" stroke="#666666" points="209,-289.5 130,-289.5 130,-270.5 209,-270.5 209,-289.5"/>
<text text-anchor="middle" x="169.5" y="-277.5" font-family="Helvetica,sans-Serif" font-size="10.00">ast_run_loop</text>
</a>
</g>
</g>
<!-- Node6&#45;&gt;Node11 -->
<g id="edge15_Node000006_Node000011" class="edge">
<title>Node6&#45;&gt;Node11</title>
<g id="a_edge15_Node000006_Node000011"><a xlink:title=" ">
<path fill="none" stroke="#63b8ff" d="M249.63,-273.69C236.74,-273.14 222.17,-273.1 209.07,-273.59"/>
<polygon fill="#63b8ff" stroke="#63b8ff" points="249.8,-277.21 259.98,-274.28 250.19,-270.22 249.8,-277.21"/>
</a>
</g>
</g>
<!-- Node12 -->
<g id="Node000012" class="node">
<title>Node12</title>
<g id="a_Node000012"><a xlink:href="ast__run_8c.html#aa3e6a973e744d748ee415840596beb53" target="_top" xlink:title=" ">
<polygon fill="white" stroke="#666666" points="224,-252.5 115,-252.5 115,-233.5 224,-233.5 224,-252.5"/>
<text text-anchor="middle" x="169.5" y="-240.5" font-family="Helvetica,sans-Serif" font-size="10.00">ast_run_shell_redir</text>
</a>
</g>
</g>
<!-- Node6&#45;&gt;Node12 -->
<g id="edge17_Node000006_Node000012" class="edge">
<title>Node6&#45;&gt;Node12</title>
<g id="a_edge17_Node000006_Node000012"><a xlink:title=" ">
<path fill="none" stroke="#63b8ff" d="M260.99,-266.47C249.3,-261.82 234.86,-256.82 220.98,-252.54"/>
<polygon fill="#63b8ff" stroke="#63b8ff" points="259.89,-269.8 270.47,-270.43 262.59,-263.34 259.89,-269.8"/>
</a>
</g>
</g>
<!-- Node13 -->
<g id="Node000013" class="node">
<title>Node13</title>
<g id="a_Node000013"><a xlink:href="exec_8c.html#a23babf893bbcd2f6126698a1a19b169f" target="_top" xlink:title="Execute funct with given arguments.">
<polygon fill="white" stroke="#666666" points="202,-47.5 137,-47.5 137,-28.5 202,-28.5 202,-47.5"/>
<text text-anchor="middle" x="169.5" y="-35.5" font-family="Helvetica,sans-Serif" font-size="10.00">exec_func</text>
</a>
</g>
</g>
<!-- Node6&#45;&gt;Node13 -->
<g id="edge19_Node000006_Node000013" class="edge">
<title>Node6&#45;&gt;Node13</title>
<g id="a_edge19_Node000006_Node000013"><a xlink:title=" ">
<path fill="none" stroke="#63b8ff" d="M285.81,-260.31C285.39,-217.58 278.38,-115.45 224,-57 218.16,-50.72 210.11,-46.52 202.03,-43.7"/>
<polygon fill="#63b8ff" stroke="#63b8ff" points="282.31,-260.49 285.79,-270.49 289.31,-260.5 282.31,-260.49"/>
</a>
</g>
</g>
<!-- Node14 -->
<g id="Node000014" class="node">
<title>Node14</title>
<g id="a_Node000014"><a xlink:href="exec_8c.html#ab743cb88e12e9b922050925fd2075e36" target="_top" xlink:title="Execute a pipeline of commands.">
<polygon fill="white" stroke="#666666" points="202,-197.5 137,-197.5 137,-178.5 202,-178.5 202,-197.5"/>
<text text-anchor="middle" x="169.5" y="-185.5" font-family="Helvetica,sans-Serif" font-size="10.00">exec_pipe</text>
</a>
</g>
</g>
<!-- Node6&#45;&gt;Node14 -->
<g id="edge21_Node000006_Node000014" class="edge">
<title>Node6&#45;&gt;Node14</title>
<g id="a_edge21_Node000006_Node000014"><a xlink:title=" ">
<path fill="none" stroke="#63b8ff" d="M267.85,-263.15C255.82,-251.93 239.36,-237.1 224,-225 211.4,-215.07 196.32,-204.78 185.39,-197.57"/>
<polygon fill="#63b8ff" stroke="#63b8ff" points="265.71,-265.94 275.4,-270.25 270.51,-260.85 265.71,-265.94"/>
</a>
</g>
</g>
<!-- Node16 -->
<g id="Node000016" class="node">
<title>Node16</title>
<g id="a_Node000016"><a xlink:href="42sh_8c.html#a3c04138a5bfe5d72780bb7e82a18e627" target="_top" xlink:title=" ">
<polygon fill="white" stroke="#666666" points="190,-160.5 149,-160.5 149,-141.5 190,-141.5 190,-160.5"/>
<text text-anchor="middle" x="169.5" y="-148.5" font-family="Helvetica,sans-Serif" font-size="10.00">main</text>
</a>
</g>
</g>
<!-- Node6&#45;&gt;Node16 -->
<g id="edge25_Node000006_Node000016" class="edge">
<title>Node6&#45;&gt;Node16</title>
<g id="a_edge25_Node000006_Node000016"><a xlink:title=" ">
<path fill="none" stroke="#63b8ff" d="M279.47,-260.66C270.91,-236.24 252.98,-194.47 224,-170 214.36,-161.86 200.98,-157.11 190.02,-154.4"/>
<polygon fill="#63b8ff" stroke="#63b8ff" points="276.18,-261.86 282.66,-270.25 282.82,-259.65 276.18,-261.86"/>
</a>
</g>
</g>
<!-- Node17 -->
<g id="Node000017" class="node">
<title>Node17</title>
<g id="a_Node000017"><a xlink:href="dot_8c.html#a17477ee2b0f1b8b9306566c990d15b35" target="_top" xlink:title="Main loop of dot builtin.">
<polygon fill="white" stroke="#666666" points="203.5,-84.5 135.5,-84.5 135.5,-65.5 203.5,-65.5 203.5,-84.5"/>
<text text-anchor="middle" x="169.5" y="-72.5" font-family="Helvetica,sans-Serif" font-size="10.00">main_loop</text>
</a>
</g>
</g>
<!-- Node6&#45;&gt;Node17 -->
<g id="edge26_Node000006_Node000017" class="edge">
<title>Node6&#45;&gt;Node17</title>
<g id="a_edge26_Node000006_Node000017"><a xlink:title=" ">
<path fill="none" stroke="#63b8ff" d="M283.89,-260.16C279.94,-223.8 266.73,-145.96 224,-99 218.31,-92.75 210.69,-88.03 202.98,-84.51"/>
<polygon fill="#63b8ff" stroke="#63b8ff" points="280.43,-260.79 284.87,-270.41 287.4,-260.12 280.43,-260.79"/>
</a>
</g>
</g>
<!-- Node7&#45;&gt;Node6 -->
<g id="edge7_Node000007_Node000006" class="edge">
<title>Node7&#45;&gt;Node6</title>
<g id="a_edge7_Node000007_Node000006"><a xlink:title=" ">
<path fill="none" stroke="#63b8ff" d="M223.5,-437.46C223.67,-437.31 223.83,-437.15 224,-437 268.35,-395.62 281.76,-317.39 284.77,-289.52"/>
<polygon fill="#63b8ff" stroke="#63b8ff" points="221.25,-434.76 215.15,-443.42 225.32,-440.46 221.25,-434.76"/>
</a>
</g>
</g>
<!-- Node8&#45;&gt;Node6 -->
<g id="edge9_Node000008_Node000006" class="edge">
<title>Node8&#45;&gt;Node6</title>
<g id="a_edge9_Node000008_Node000006"><a xlink:title=" ">
<path fill="none" stroke="#63b8ff" d="M214.38,-406.34C217.82,-404.54 221.08,-402.43 224,-400 260.05,-369.96 278.69,-313.07 283.93,-289.62"/>
<polygon fill="#63b8ff" stroke="#63b8ff" points="212.81,-403.2 205,-410.37 215.57,-409.63 212.81,-403.2"/>
</a>
</g>
</g>
<!-- Node9&#45;&gt;Node6 -->
<g id="edge11_Node000009_Node000006" class="edge">
<title>Node9&#45;&gt;Node6</title>
<g id="a_edge11_Node000009_Node000006"><a xlink:title=" ">
<path fill="none" stroke="#63b8ff" d="M211.7,-369.73C216.02,-367.84 220.21,-365.59 224,-363 252.24,-343.64 274.69,-307.83 282.51,-289.71"/>
<polygon fill="#63b8ff" stroke="#63b8ff" points="210.3,-366.52 202.14,-373.27 212.74,-373.08 210.3,-366.52"/>
</a>
</g>
</g>
<!-- Node10&#45;&gt;Node6 -->
<g id="edge14_Node000010_Node000006" class="edge">
<title>Node10&#45;&gt;Node6</title>
<g id="a_edge14_Node000010_Node000006"><a xlink:title=" ">
<path fill="none" stroke="#63b8ff" d="M215.95,-308.99C235.33,-303.19 256.61,-295.72 270.47,-289.57"/>
<polygon fill="#63b8ff" stroke="#63b8ff" points="214.97,-305.63 206.34,-311.77 216.92,-312.36 214.97,-305.63"/>
</a>
</g>
</g>
<!-- Node10&#45;&gt;Node10 -->
<g id="edge13_Node000010_Node000010" class="edge">
<title>Node10&#45;&gt;Node10</title>
<g id="a_edge13_Node000010_Node000010"><a xlink:title=" ">
<path fill="none" stroke="#63b8ff" d="M190.98,-336.05C189.55,-340.88 182.39,-344.5 169.5,-344.5 148.88,-344.5 142.92,-335.23 151.62,-326.58"/>
<polygon fill="#63b8ff" stroke="#63b8ff" points="194.2,-334.69 187.38,-326.58 187.66,-337.17 194.2,-334.69"/>
</a>
</g>
</g>
<!-- Node11&#45;&gt;Node6 -->
<g id="edge16_Node000011_Node000006" class="edge">
<title>Node11&#45;&gt;Node6</title>
<g id="a_edge16_Node000011_Node000006"><a xlink:title=" ">
<path fill="none" stroke="#63b8ff" d="M219.12,-286.68C233.17,-286.91 247.94,-286.59 259.98,-285.72"/>
<polygon fill="#63b8ff" stroke="#63b8ff" points="219.16,-283.18 209.07,-286.41 218.97,-290.18 219.16,-283.18"/>
</a>
</g>
</g>
<!-- Node12&#45;&gt;Node6 -->
<g id="edge18_Node000012_Node000006" class="edge">
<title>Node12&#45;&gt;Node6</title>
<g id="a_edge18_Node000012_Node000006"><a xlink:title=" ">
<path fill="none" stroke="#63b8ff" d="M194.64,-256.39C213.79,-264.02 240.48,-272.64 259.98,-277.51"/>
<polygon fill="#63b8ff" stroke="#63b8ff" points="195.97,-253.15 185.4,-252.51 193.27,-259.6 195.97,-253.15"/>
</a>
</g>
</g>
<!-- Node13&#45;&gt;Node4 -->
<g id="edge20_Node000013_Node000004" class="edge">
<title>Node13&#45;&gt;Node4</title>
<g id="a_edge20_Node000013_Node000004"><a xlink:title=" ">
<path fill="none" stroke="#63b8ff" d="M212.42,-38C278.34,-38 404.77,-38 463.75,-38"/>
<polygon fill="#63b8ff" stroke="#63b8ff" points="212.38,-34.5 202.38,-38 212.38,-41.5 212.38,-34.5"/>
</a>
</g>
</g>
<!-- Node14&#45;&gt;Node14 -->
<g id="edge24_Node000014_Node000014" class="edge">
<title>Node14&#45;&gt;Node14</title>
<g id="a_edge24_Node000014_Node000014"><a xlink:title=" ">
<path fill="none" stroke="#63b8ff" d="M190.98,-207.05C189.55,-211.88 182.39,-215.5 169.5,-215.5 148.88,-215.5 142.92,-206.23 151.62,-197.58"/>
<polygon fill="#63b8ff" stroke="#63b8ff" points="194.2,-205.69 187.38,-197.58 187.66,-208.17 194.2,-205.69"/>
</a>
</g>
</g>
<!-- Node15 -->
<g id="Node000015" class="node">
<title>Node15</title>
<g id="a_Node000015"><a xlink:href="ast__run_8c.html#a24d0223822f7b635628199085c3283be" target="_top" xlink:title=" ">
<polygon fill="white" stroke="#666666" points="79,-159.5 0,-159.5 0,-140.5 79,-140.5 79,-159.5"/>
<text text-anchor="middle" x="39.5" y="-147.5" font-family="Helvetica,sans-Serif" font-size="10.00">ast_run_pipe</text>
</a>
</g>
</g>
<!-- Node14&#45;&gt;Node15 -->
<g id="edge22_Node000014_Node000015" class="edge">
<title>Node14&#45;&gt;Node15</title>
<g id="a_edge22_Node000014_Node000015"><a xlink:title=" ">
<path fill="none" stroke="#63b8ff" d="M126.85,-175.63C109.25,-170.41 89.08,-164.42 72.67,-159.55"/>
<polygon fill="#63b8ff" stroke="#63b8ff" points="126.28,-179.12 136.86,-178.61 128.27,-172.41 126.28,-179.12"/>
</a>
</g>
</g>
<!-- Node15&#45;&gt;Node6 -->
<g id="edge23_Node000015_Node000006" class="edge">
<title>Node15&#45;&gt;Node6</title>
<g id="a_edge23_Node000015_Node000006"><a xlink:title=" ">
<path fill="none" stroke="#63b8ff" d="M70.38,-136.5C109.22,-121.18 177.55,-102.08 224,-133 272.13,-165.04 282.66,-242.74 284.91,-270.19"/>
<polygon fill="#63b8ff" stroke="#63b8ff" points="68.63,-133.44 60.71,-140.48 71.29,-139.91 68.63,-133.44"/>
</a>
</g>
</g>
<!-- Node18 -->
<g id="Node000018" class="node">
<title>Node18</title>
<g id="a_Node000018"><a xlink:href="dot_8c.html#a713938d3c6ee343132c429642048bcf6" target="_top" xlink:title="Execute the dot builtin cmd.">
<polygon fill="white" stroke="#666666" points="61.5,-47.5 17.5,-47.5 17.5,-28.5 61.5,-28.5 61.5,-47.5"/>
<text text-anchor="middle" x="39.5" y="-35.5" font-family="Helvetica,sans-Serif" font-size="10.00">dot_b</text>
</a>
</g>
</g>
<!-- Node17&#45;&gt;Node18 -->
<g id="edge27_Node000017_Node000018" class="edge">
<title>Node17&#45;&gt;Node18</title>
<g id="a_edge27_Node000017_Node000018"><a xlink:title=" ">
<path fill="none" stroke="#63b8ff" d="M125.93,-62.69C104.37,-56.46 79.13,-49.17 61.71,-44.13"/>
<polygon fill="#63b8ff" stroke="#63b8ff" points="124.96,-66.06 135.54,-65.47 126.9,-59.33 124.96,-66.06"/>
</a>
</g>
</g>
<!-- Node18&#45;&gt;Node2 -->
<g id="edge28_Node000018_Node000002" class="edge">
<title>Node18&#45;&gt;Node2</title>
<g id="a_edge28_Node000018_Node000002"><a xlink:title=" ">
<path fill="none" stroke="#63b8ff" d="M71.18,-29.15C84.55,-25.57 100.45,-21.65 115,-19 190.01,-5.32 209.25,0 285.5,0 497.5,0 497.5,0 497.5,0 551.04,0 612.64,-7.56 650.83,-13.14"/>
<polygon fill="#63b8ff" stroke="#63b8ff" points="70.24,-25.78 61.52,-31.81 72.09,-32.53 70.24,-25.78"/>
</a>
</g>
</g>
</g>
</svg>
