<?xml version="1.0" encoding="UTF-8" standalone="no"?>
<!DOCTYPE svg PUBLIC "-//W3C//DTD SVG 1.1//EN"
 "http://www.w3.org/Graphics/SVG/1.1/DTD/svg11.dtd">
<!-- Generated by graphviz version 2.43.0 (0)
 -->
<!-- Title: is_nb Pages: 1 -->
<svg width="918pt" height="472pt"
 viewBox="0.00 0.00 918.00 472.00" xmlns="http://www.w3.org/2000/svg" xmlns:xlink="http://www.w3.org/1999/xlink">
<g id="graph0" class="graph" transform="scale(1 1) rotate(0) translate(4 468)">
<title>is_nb</title>
<!-- Node1 -->
<g id="Node000001" class="node">
<title>Node1</title>
<g id="a_Node000001"><a xlink:title=" ">
<polygon fill="#999999" stroke="#666666" points="910,-37 868,-37 868,-18 910,-18 910,-37"/>
<text text-anchor="middle" x="889" y="-25" font-family="Helvetica,sans-Serif" font-size="10.00">is_nb</text>
</a>
</g>
</g>
<!-- Node2 -->
<g id="Node000002" class="node">
<title>Node2</title>
<g id="a_Node000002"><a xlink:href="break__continue_8c.html#aeac667997bd914edf57cb59805ce9a40" target="_top" xlink:title="Implements the break builtin.">
<polygon fill="white" stroke="#666666" points="825,-56 769,-56 769,-37 825,-37 825,-56"/>
<text text-anchor="middle" x="797" y="-44" font-family="Helvetica,sans-Serif" font-size="10.00">break_b</text>
</a>
</g>
</g>
<!-- Node1&#45;&gt;Node2 -->
<g id="edge1_Node000001_Node000002" class="edge">
<title>Node1&#45;&gt;Node2</title>
<g id="a_edge1_Node000001_Node000002"><a xlink:title=" ">
<path fill="none" stroke="#63b8ff" d="M857.57,-33.92C847.07,-36.14 835.39,-38.61 825.17,-40.76"/>
<polygon fill="#63b8ff" stroke="#63b8ff" points="858.52,-37.3 867.58,-31.81 857.07,-30.45 858.52,-37.3"/>
</a>
</g>
</g>
<!-- Node20 -->
<g id="Node000020" class="node">
<title>Node20</title>
<g id="a_Node000020"><a xlink:href="break__continue_8c.html#a2661295757f3f02f3561b02cb4ef5397" target="_top" xlink:title="Implements the continue builtin.">
<polygon fill="white" stroke="#666666" points="832,-19 762,-19 762,0 832,0 832,-19"/>
<text text-anchor="middle" x="797" y="-7" font-family="Helvetica,sans-Serif" font-size="10.00">continue_b</text>
</a>
</g>
</g>
<!-- Node1&#45;&gt;Node20 -->
<g id="edge30_Node000001_Node000020" class="edge">
<title>Node1&#45;&gt;Node20</title>
<g id="a_edge30_Node000001_Node000020"><a xlink:title=" ">
<path fill="none" stroke="#63b8ff" d="M857.66,-21.43C849.45,-19.79 840.51,-18 832.11,-16.32"/>
<polygon fill="#63b8ff" stroke="#63b8ff" points="857.09,-24.89 867.58,-23.42 858.46,-18.02 857.09,-24.89"/>
</a>
</g>
</g>
<!-- Node3 -->
<g id="Node000003" class="node">
<title>Node3</title>
<g id="a_Node000003"><a xlink:href="exec_8c.html#abaeb177587c7eec6a064b35bb8399cae" target="_top" xlink:title="Execute builtin cmd with given args.">
<polygon fill="white" stroke="#666666" points="726,-37 651,-37 651,-18 726,-18 726,-37"/>
<text text-anchor="middle" x="688.5" y="-25" font-family="Helvetica,sans-Serif" font-size="10.00">exec_builtin</text>
</a>
</g>
</g>
<!-- Node2&#45;&gt;Node3 -->
<g id="edge2_Node000002_Node000003" class="edge">
<title>Node2&#45;&gt;Node3</title>
<g id="a_edge2_Node000002_Node000003"><a xlink:title=" ">
<path fill="none" stroke="#63b8ff" d="M758.7,-39.85C748.18,-37.97 736.74,-35.93 726.25,-34.06"/>
<polygon fill="#63b8ff" stroke="#63b8ff" points="758.39,-43.35 768.85,-41.66 759.62,-36.45 758.39,-43.35"/>
</a>
</g>
</g>
<!-- Node4 -->
<g id="Node000004" class="node">
<title>Node4</title>
<g id="a_Node000004"><a xlink:href="exec_8c.html#a287d81b4658832f192750310e2925917" target="_top" xlink:title="Execute the builtin command with given args.">
<polygon fill="white" stroke="#666666" points="615,-56 565,-56 565,-37 615,-37 615,-56"/>
<text text-anchor="middle" x="590" y="-44" font-family="Helvetica,sans-Serif" font-size="10.00">exec_b</text>
</a>
</g>
</g>
<!-- Node3&#45;&gt;Node4 -->
<g id="edge3_Node000003_Node000004" class="edge">
<title>Node3&#45;&gt;Node4</title>
<g id="a_edge3_Node000003_Node000004"><a xlink:title=" ">
<path fill="none" stroke="#63b8ff" d="M640.8,-36.7C631.9,-38.45 622.94,-40.21 615.12,-41.75"/>
<polygon fill="#63b8ff" stroke="#63b8ff" points="641.61,-40.1 650.74,-34.74 640.25,-33.24 641.61,-40.1"/>
</a>
</g>
</g>
<!-- Node5 -->
<g id="Node000005" class="node">
<title>Node5</title>
<g id="a_Node000005"><a xlink:href="exec_8c.html#ae65edaa99b26b49d60c451157d38b34a" target="_top" xlink:title="Execute les commandes avec les args donnes.">
<polygon fill="white" stroke="#666666" points="529,-56 464,-56 464,-37 529,-37 529,-56"/>
<text text-anchor="middle" x="496.5" y="-44" font-family="Helvetica,sans-Serif" font-size="10.00">exec_cmd</text>
</a>
</g>
</g>
<!-- Node4&#45;&gt;Node5 -->
<g id="edge4_Node000004_Node000005" class="edge">
<title>Node4&#45;&gt;Node5</title>
<g id="a_edge4_Node000004_Node000005"><a xlink:title=" ">
<path fill="none" stroke="#63b8ff" d="M554.77,-46.5C546.42,-46.5 537.53,-46.5 529.3,-46.5"/>
<polygon fill="#63b8ff" stroke="#63b8ff" points="554.96,-50 564.96,-46.5 554.96,-43 554.96,-50"/>
</a>
</g>
</g>
<!-- Node6 -->
<g id="Node000006" class="node">
<title>Node6</title>
<g id="a_Node000006"><a xlink:href="ast__run_8c.html#aeb6878a59c6907e5669fc3cc428913d9" target="_top" xlink:title=" ">
<polygon fill="white" stroke="#666666" points="428,-196 349,-196 349,-177 428,-177 428,-196"/>
<text text-anchor="middle" x="388.5" y="-184" font-family="Helvetica,sans-Serif" font-size="10.00">ast_run_cmd</text>
</a>
</g>
</g>
<!-- Node5&#45;&gt;Node6 -->
<g id="edge5_Node000005_Node000006" class="edge">
<title>Node5&#45;&gt;Node6</title>
<g id="a_edge5_Node000005_Node000006"><a xlink:title=" ">
<path fill="none" stroke="#63b8ff" d="M481.95,-64.4C459.28,-94.34 414.44,-153.56 396.84,-176.81"/>
<polygon fill="#63b8ff" stroke="#63b8ff" points="484.97,-66.21 488.21,-56.12 479.39,-61.98 484.97,-66.21"/>
</a>
</g>
</g>
<!-- Node7 -->
<g id="Node000007" class="node">
<title>Node7</title>
<g id="a_Node000007"><a xlink:href="ast_8c.html#a572345b2707780bbbc5bbaacdca9c372" target="_top" xlink:title=" ">
<polygon fill="white" stroke="#666666" points="313,-298 260,-298 260,-279 313,-279 313,-298"/>
<text text-anchor="middle" x="286.5" y="-286" font-family="Helvetica,sans-Serif" font-size="10.00">run_ast</text>
</a>
</g>
</g>
<!-- Node6&#45;&gt;Node7 -->
<g id="edge6_Node000006_Node000007" class="edge">
<title>Node6&#45;&gt;Node7</title>
<g id="a_edge6_Node000006_Node000007"><a xlink:title=" ">
<path fill="none" stroke="#63b8ff" d="M370.84,-203.5C349.67,-225.09 313.85,-261.62 296.91,-278.9"/>
<polygon fill="#63b8ff" stroke="#63b8ff" points="373.41,-205.87 377.91,-196.28 368.41,-200.97 373.41,-205.87"/>
</a>
</g>
</g>
<!-- Node8 -->
<g id="Node000008" class="node">
<title>Node8</title>
<g id="a_Node000008"><a xlink:href="ast__run_8c.html#a8a01fec616135007fc5b3968a101901b" target="_top" xlink:title=" ">
<polygon fill="white" stroke="#666666" points="215,-464 124,-464 124,-445 215,-445 215,-464"/>
<text text-anchor="middle" x="169.5" y="-452" font-family="Helvetica,sans-Serif" font-size="10.00">ast_run_and_or</text>
</a>
</g>
</g>
<!-- Node7&#45;&gt;Node8 -->
<g id="edge7_Node000007_Node000008" class="edge">
<title>Node7&#45;&gt;Node8</title>
<g id="a_edge7_Node000007_Node000008"><a xlink:title=" ">
<path fill="none" stroke="#63b8ff" d="M281.39,-308.55C274.89,-338.68 259.18,-394.68 224,-427.5 213.97,-436.86 198.91,-441.37 187.32,-445"/>
<polygon fill="#63b8ff" stroke="#63b8ff" points="284.89,-308.87 283.45,-298.38 278.03,-307.48 284.89,-308.87"/>
</a>
</g>
</g>
<!-- Node9 -->
<g id="Node000009" class="node">
<title>Node9</title>
<g id="a_Node000009"><a xlink:href="ast__run_8c.html#a9d83d4834a61ffe21eb77838d70ae173" target="_top" xlink:title=" ">
<polygon fill="white" stroke="#666666" points="205,-427 134,-427 134,-408 205,-408 205,-427"/>
<text text-anchor="middle" x="169.5" y="-415" font-family="Helvetica,sans-Serif" font-size="10.00">ast_run_for</text>
</a>
</g>
</g>
<!-- Node7&#45;&gt;Node9 -->
<g id="edge9_Node000007_Node000009" class="edge">
<title>Node7&#45;&gt;Node9</title>
<g id="a_edge9_Node000007_Node000009"><a xlink:title=" ">
<path fill="none" stroke="#63b8ff" d="M277.39,-307.49C268.24,-330.42 251.01,-368 224,-390.5 213.16,-399.53 197.59,-404.1 186.04,-407.97"/>
<polygon fill="#63b8ff" stroke="#63b8ff" points="280.68,-308.67 281.03,-298.09 274.16,-306.15 280.68,-308.67"/>
</a>
</g>
</g>
<!-- Node10 -->
<g id="Node000010" class="node">
<title>Node10</title>
<g id="a_Node000010"><a xlink:href="ast__run_8c.html#a0a7138b1f2608ea36211c9b78988c248" target="_top" xlink:title=" ">
<polygon fill="white" stroke="#666666" points="202,-390 137,-390 137,-371 202,-371 202,-390"/>
<text text-anchor="middle" x="169.5" y="-378" font-family="Helvetica,sans-Serif" font-size="10.00">ast_run_if</text>
</a>
</g>
</g>
<!-- Node7&#45;&gt;Node10 -->
<g id="edge11_Node000007_Node000010" class="edge">
<title>Node7&#45;&gt;Node10</title>
<g id="a_edge11_Node000007_Node000010"><a xlink:title=" ">
<path fill="none" stroke="#63b8ff" d="M269.53,-306.52C258.48,-321.12 242.48,-340.83 224,-353.5 211.88,-361.81 195.59,-366.56 184.19,-370.88"/>
<polygon fill="#63b8ff" stroke="#63b8ff" points="272.56,-308.3 275.74,-298.2 266.95,-304.11 272.56,-308.3"/>
</a>
</g>
</g>
<!-- Node11 -->
<g id="Node000011" class="node">
<title>Node11</title>
<g id="a_Node000011"><a xlink:href="ast__run_8c.html#ae25cd3ced8abafd76110dba8852a6b87" target="_top" xlink:title=" ">
<polygon fill="white" stroke="#666666" points="206,-335 133,-335 133,-316 206,-316 206,-335"/>
<text text-anchor="middle" x="169.5" y="-323" font-family="Helvetica,sans-Serif" font-size="10.00">ast_run_list</text>
</a>
</g>
</g>
<!-- Node7&#45;&gt;Node11 -->
<g id="edge13_Node000007_Node000011" class="edge">
<title>Node7&#45;&gt;Node11</title>
<g id="a_edge13_Node000007_Node000011"><a xlink:title=" ">
<path fill="none" stroke="#63b8ff" d="M250.09,-293.61C228.37,-299.64 201.69,-308.75 185.4,-315.99"/>
<polygon fill="#63b8ff" stroke="#63b8ff" points="251.21,-296.93 259.98,-290.99 249.42,-290.16 251.21,-296.93"/>
</a>
</g>
</g>
<!-- Node12 -->
<g id="Node000012" class="node">
<title>Node12</title>
<g id="a_Node000012"><a xlink:href="ast__run_8c.html#a536f37ba9bffcd2099fef668656181e0" target="_top" xlink:title=" ">
<polygon fill="white" stroke="#666666" points="209,-298 130,-298 130,-279 209,-279 209,-298"/>
<text text-anchor="middle" x="169.5" y="-286" font-family="Helvetica,sans-Serif" font-size="10.00">ast_run_loop</text>
</a>
</g>
</g>
<!-- Node7&#45;&gt;Node12 -->
<g id="edge16_Node000007_Node000012" class="edge">
<title>Node7&#45;&gt;Node12</title>
<g id="a_edge16_Node000007_Node000012"><a xlink:title=" ">
<path fill="none" stroke="#63b8ff" d="M249.63,-282.19C236.74,-281.64 222.17,-281.6 209.07,-282.09"/>
<polygon fill="#63b8ff" stroke="#63b8ff" points="249.8,-285.71 259.98,-282.78 250.19,-278.72 249.8,-285.71"/>
</a>
</g>
</g>
<!-- Node13 -->
<g id="Node000013" class="node">
<title>Node13</title>
<g id="a_Node000013"><a xlink:href="ast__run_8c.html#aa3e6a973e744d748ee415840596beb53" target="_top" xlink:title=" ">
<polygon fill="white" stroke="#666666" points="224,-261 115,-261 115,-242 224,-242 224,-261"/>
<text text-anchor="middle" x="169.5" y="-249" font-family="Helvetica,sans-Serif" font-size="10.00">ast_run_shell_redir</text>
</a>
</g>
</g>
<!-- Node7&#45;&gt;Node13 -->
<g id="edge18_Node000007_Node000013" class="edge">
<title>Node7&#45;&gt;Node13</title>
<g id="a_edge18_Node000007_Node000013"><a xlink:title=" ">
<path fill="none" stroke="#63b8ff" d="M260.99,-274.97C249.3,-270.32 234.86,-265.32 220.98,-261.04"/>
<polygon fill="#63b8ff" stroke="#63b8ff" points="259.89,-278.3 270.47,-278.93 262.59,-271.84 259.89,-278.3"/>
</a>
</g>
</g>
<!-- Node14 -->
<g id="Node000014" class="node">
<title>Node14</title>
<g id="a_Node000014"><a xlink:href="exec_8c.html#a23babf893bbcd2f6126698a1a19b169f" target="_top" xlink:title="Execute funct with given arguments.">
<polygon fill="white" stroke="#666666" points="202,-56 137,-56 137,-37 202,-37 202,-56"/>
<text text-anchor="middle" x="169.5" y="-44" font-family="Helvetica,sans-Serif" font-size="10.00">exec_func</text>
</a>
</g>
</g>
<!-- Node7&#45;&gt;Node14 -->
<g id="edge20_Node000007_Node000014" class="edge">
<title>Node7&#45;&gt;Node14</title>
<g id="a_edge20_Node000007_Node000014"><a xlink:title=" ">
<path fill="none" stroke="#63b8ff" d="M285.81,-268.81C285.39,-226.08 278.38,-123.95 224,-65.5 218.16,-59.22 210.11,-55.02 202.03,-52.2"/>
<polygon fill="#63b8ff" stroke="#63b8ff" points="282.31,-268.99 285.79,-278.99 289.31,-269 282.31,-268.99"/>
</a>
</g>
</g>
<!-- Node15 -->
<g id="Node000015" class="node">
<title>Node15</title>
<g id="a_Node000015"><a xlink:href="exec_8c.html#ab743cb88e12e9b922050925fd2075e36" target="_top" xlink:title="Execute a pipeline of commands.">
<polygon fill="white" stroke="#666666" points="202,-206 137,-206 137,-187 202,-187 202,-206"/>
<text text-anchor="middle" x="169.5" y="-194" font-family="Helvetica,sans-Serif" font-size="10.00">exec_pipe</text>
</a>
</g>
</g>
<!-- Node7&#45;&gt;Node15 -->
<g id="edge22_Node000007_Node000015" class="edge">
<title>Node7&#45;&gt;Node15</title>
<g id="a_edge22_Node000007_Node000015"><a xlink:title=" ">
<path fill="none" stroke="#63b8ff" d="M267.85,-271.65C255.82,-260.43 239.36,-245.6 224,-233.5 211.4,-223.57 196.32,-213.28 185.39,-206.07"/>
<polygon fill="#63b8ff" stroke="#63b8ff" points="265.71,-274.44 275.4,-278.75 270.51,-269.35 265.71,-274.44"/>
</a>
</g>
</g>
<!-- Node17 -->
<g id="Node000017" class="node">
<title>Node17</title>
<g id="a_Node000017"><a xlink:href="42sh_8c.html#a3c04138a5bfe5d72780bb7e82a18e627" target="_top" xlink:title=" ">
<polygon fill="white" stroke="#666666" points="190,-169 149,-169 149,-150 190,-150 190,-169"/>
<text text-anchor="middle" x="169.5" y="-157" font-family="Helvetica,sans-Serif" font-size="10.00">main</text>
</a>
</g>
</g>
<!-- Node7&#45;&gt;Node17 -->
<g id="edge26_Node000007_Node000017" class="edge">
<title>Node7&#45;&gt;Node17</title>
<g id="a_edge26_Node000007_Node000017"><a xlink:title=" ">
<path fill="none" stroke="#63b8ff" d="M279.47,-269.16C270.91,-244.74 252.98,-202.97 224,-178.5 214.36,-170.36 200.98,-165.61 190.02,-162.9"/>
<polygon fill="#63b8ff" stroke="#63b8ff" points="276.18,-270.36 282.66,-278.75 282.82,-268.15 276.18,-270.36"/>
</a>
</g>
</g>
<!-- Node18 -->
<g id="Node000018" class="node">
<title>Node18</title>
<g id="a_Node000018"><a xlink:href="dot_8c.html#a17477ee2b0f1b8b9306566c990d15b35" target="_top" xlink:title="Main loop of dot builtin.">
<polygon fill="white" stroke="#666666" points="203.5,-93 135.5,-93 135.5,-74 203.5,-74 203.5,-93"/>
<text text-anchor="middle" x="169.5" y="-81" font-family="Helvetica,sans-Serif" font-size="10.00">main_loop</text>
</a>
</g>
</g>
<!-- Node7&#45;&gt;Node18 -->
<g id="edge27_Node000007_Node000018" class="edge">
<title>Node7&#45;&gt;Node18</title>
<g id="a_edge27_Node000007_Node000018"><a xlink:title=" ">
<path fill="none" stroke="#63b8ff" d="M283.89,-268.66C279.94,-232.3 266.73,-154.46 224,-107.5 218.31,-101.25 210.69,-96.53 202.98,-93.01"/>
<polygon fill="#63b8ff" stroke="#63b8ff" points="280.43,-269.29 284.87,-278.91 287.4,-268.62 280.43,-269.29"/>
</a>
</g>
</g>
<!-- Node8&#45;&gt;Node7 -->
<g id="edge8_Node000008_Node000007" class="edge">
<title>Node8&#45;&gt;Node7</title>
<g id="a_edge8_Node000008_Node000007"><a xlink:title=" ">
<path fill="none" stroke="#63b8ff" d="M223.5,-445.96C223.67,-445.81 223.83,-445.65 224,-445.5 268.35,-404.12 281.76,-325.89 284.77,-298.02"/>
<polygon fill="#63b8ff" stroke="#63b8ff" points="221.25,-443.26 215.15,-451.92 225.32,-448.96 221.25,-443.26"/>
</a>
</g>
</g>
<!-- Node9&#45;&gt;Node7 -->
<g id="edge10_Node000009_Node000007" class="edge">
<title>Node9&#45;&gt;Node7</title>
<g id="a_edge10_Node000009_Node000007"><a xlink:title=" ">
<path fill="none" stroke="#63b8ff" d="M214.38,-414.84C217.82,-413.04 221.08,-410.93 224,-408.5 260.05,-378.46 278.69,-321.57 283.93,-298.12"/>
<polygon fill="#63b8ff" stroke="#63b8ff" points="212.81,-411.7 205,-418.87 215.57,-418.13 212.81,-411.7"/>
</a>
</g>
</g>
<!-- Node10&#45;&gt;Node7 -->
<g id="edge12_Node000010_Node000007" class="edge">
<title>Node10&#45;&gt;Node7</title>
<g id="a_edge12_Node000010_Node000007"><a xlink:title=" ">
<path fill="none" stroke="#63b8ff" d="M211.7,-378.23C216.02,-376.34 220.21,-374.09 224,-371.5 252.24,-352.14 274.69,-316.33 282.51,-298.21"/>
<polygon fill="#63b8ff" stroke="#63b8ff" points="210.3,-375.02 202.14,-381.77 212.74,-381.58 210.3,-375.02"/>
</a>
</g>
</g>
<!-- Node11&#45;&gt;Node7 -->
<g id="edge15_Node000011_Node000007" class="edge">
<title>Node11&#45;&gt;Node7</title>
<g id="a_edge15_Node000011_Node000007"><a xlink:title=" ">
<path fill="none" stroke="#63b8ff" d="M215.95,-317.49C235.33,-311.69 256.61,-304.22 270.47,-298.07"/>
<polygon fill="#63b8ff" stroke="#63b8ff" points="214.97,-314.13 206.34,-320.27 216.92,-320.86 214.97,-314.13"/>
</a>
</g>
</g>
<!-- Node11&#45;&gt;Node11 -->
<g id="edge14_Node000011_Node000011" class="edge">
<title>Node11&#45;&gt;Node11</title>
<g id="a_edge14_Node000011_Node000011"><a xlink:title=" ">
<path fill="none" stroke="#63b8ff" d="M190.98,-344.55C189.55,-349.38 182.39,-353 169.5,-353 148.88,-353 142.92,-343.73 151.62,-335.08"/>
<polygon fill="#63b8ff" stroke="#63b8ff" points="194.2,-343.19 187.38,-335.08 187.66,-345.67 194.2,-343.19"/>
</a>
</g>
</g>
<!-- Node12&#45;&gt;Node7 -->
<g id="edge17_Node000012_Node000007" class="edge">
<title>Node12&#45;&gt;Node7</title>
<g id="a_edge17_Node000012_Node000007"><a xlink:title=" ">
<path fill="none" stroke="#63b8ff" d="M219.12,-295.18C233.17,-295.41 247.94,-295.09 259.98,-294.22"/>
<polygon fill="#63b8ff" stroke="#63b8ff" points="219.16,-291.68 209.07,-294.91 218.97,-298.68 219.16,-291.68"/>
</a>
</g>
</g>
<!-- Node13&#45;&gt;Node7 -->
<g id="edge19_Node000013_Node000007" class="edge">
<title>Node13&#45;&gt;Node7</title>
<g id="a_edge19_Node000013_Node000007"><a xlink:title=" ">
<path fill="none" stroke="#63b8ff" d="M194.64,-264.89C213.79,-272.52 240.48,-281.14 259.98,-286.01"/>
<polygon fill="#63b8ff" stroke="#63b8ff" points="195.97,-261.65 185.4,-261.01 193.27,-268.1 195.97,-261.65"/>
</a>
</g>
</g>
<!-- Node14&#45;&gt;Node5 -->
<g id="edge21_Node000014_Node000005" class="edge">
<title>Node14&#45;&gt;Node5</title>
<g id="a_edge21_Node000014_Node000005"><a xlink:title=" ">
<path fill="none" stroke="#63b8ff" d="M212.42,-46.5C278.34,-46.5 404.77,-46.5 463.75,-46.5"/>
<polygon fill="#63b8ff" stroke="#63b8ff" points="212.38,-43 202.38,-46.5 212.38,-50 212.38,-43"/>
</a>
</g>
</g>
<!-- Node15&#45;&gt;Node15 -->
<g id="edge25_Node000015_Node000015" class="edge">
<title>Node15&#45;&gt;Node15</title>
<g id="a_edge25_Node000015_Node000015"><a xlink:title=" ">
<path fill="none" stroke="#63b8ff" d="M190.98,-215.55C189.55,-220.38 182.39,-224 169.5,-224 148.88,-224 142.92,-214.73 151.62,-206.08"/>
<polygon fill="#63b8ff" stroke="#63b8ff" points="194.2,-214.19 187.38,-206.08 187.66,-216.67 194.2,-214.19"/>
</a>
</g>
</g>
<!-- Node16 -->
<g id="Node000016" class="node">
<title>Node16</title>
<g id="a_Node000016"><a xlink:href="ast__run_8c.html#a24d0223822f7b635628199085c3283be" target="_top" xlink:title=" ">
<polygon fill="white" stroke="#666666" points="79,-168 0,-168 0,-149 79,-149 79,-168"/>
<text text-anchor="middle" x="39.5" y="-156" font-family="Helvetica,sans-Serif" font-size="10.00">ast_run_pipe</text>
</a>
</g>
</g>
<!-- Node15&#45;&gt;Node16 -->
<g id="edge23_Node000015_Node000016" class="edge">
<title>Node15&#45;&gt;Node16</title>
<g id="a_edge23_Node000015_Node000016"><a xlink:title=" ">
<path fill="none" stroke="#63b8ff" d="M126.85,-184.13C109.25,-178.91 89.08,-172.92 72.67,-168.05"/>
<polygon fill="#63b8ff" stroke="#63b8ff" points="126.28,-187.62 136.86,-187.11 128.27,-180.91 126.28,-187.62"/>
</a>
</g>
</g>
<!-- Node16&#45;&gt;Node7 -->
<g id="edge24_Node000016_Node000007" class="edge">
<title>Node16&#45;&gt;Node7</title>
<g id="a_edge24_Node000016_Node000007"><a xlink:title=" ">
<path fill="none" stroke="#63b8ff" d="M70.38,-145C109.22,-129.68 177.55,-110.58 224,-141.5 272.13,-173.54 282.66,-251.24 284.91,-278.69"/>
<polygon fill="#63b8ff" stroke="#63b8ff" points="68.63,-141.94 60.71,-148.98 71.29,-148.41 68.63,-141.94"/>
</a>
</g>
</g>
<!-- Node19 -->
<g id="Node000019" class="node">
<title>Node19</title>
<g id="a_Node000019"><a xlink:href="dot_8c.html#a713938d3c6ee343132c429642048bcf6" target="_top" xlink:title="Execute the dot builtin cmd.">
<polygon fill="white" stroke="#666666" points="61.5,-56 17.5,-56 17.5,-37 61.5,-37 61.5,-56"/>
<text text-anchor="middle" x="39.5" y="-44" font-family="Helvetica,sans-Serif" font-size="10.00">dot_b</text>
</a>
</g>
</g>
<!-- Node18&#45;&gt;Node19 -->
<g id="edge28_Node000018_Node000019" class="edge">
<title>Node18&#45;&gt;Node19</title>
<g id="a_edge28_Node000018_Node000019"><a xlink:title=" ">
<path fill="none" stroke="#63b8ff" d="M125.93,-71.19C104.37,-64.96 79.13,-57.67 61.71,-52.63"/>
<polygon fill="#63b8ff" stroke="#63b8ff" points="124.96,-74.56 135.54,-73.97 126.9,-67.83 124.96,-74.56"/>
</a>
</g>
</g>
<!-- Node19&#45;&gt;Node3 -->
<g id="edge29_Node000019_Node000003" class="edge">
<title>Node19&#45;&gt;Node3</title>
<g id="a_edge29_Node000019_Node000003"><a xlink:title=" ">
<path fill="none" stroke="#63b8ff" d="M71.18,-37.65C84.55,-34.07 100.45,-30.15 115,-27.5 190.01,-13.82 209.25,-8.5 285.5,-8.5 497.5,-8.5 497.5,-8.5 497.5,-8.5 551.04,-8.5 612.64,-16.06 650.83,-21.64"/>
<polygon fill="#63b8ff" stroke="#63b8ff" points="70.24,-34.28 61.52,-40.31 72.09,-41.03 70.24,-34.28"/>
</a>
</g>
</g>
<!-- Node20&#45;&gt;Node3 -->
<g id="edge31_Node000020_Node000003" class="edge">
<title>Node20&#45;&gt;Node3</title>
<g id="a_edge31_Node000020_Node000003"><a xlink:title=" ">
<path fill="none" stroke="#63b8ff" d="M751.64,-17C743.2,-18.42 734.46,-19.9 726.29,-21.28"/>
<polygon fill="#63b8ff" stroke="#63b8ff" points="752.44,-20.41 761.72,-15.29 751.27,-13.51 752.44,-20.41"/>
</a>
</g>
</g>
</g>
</svg>
