<?xml version="1.0" encoding="UTF-8" standalone="no"?>
<!DOCTYPE svg PUBLIC "-//W3C//DTD SVG 1.1//EN"
 "http://www.w3.org/Graphics/SVG/1.1/DTD/svg11.dtd">
<!-- Generated by graphviz version 2.43.0 (0)
 -->
<!-- Title: set_break Pages: 1 -->
<svg width="989pt" height="439pt"
 viewBox="0.00 0.00 989.00 438.99" xmlns="http://www.w3.org/2000/svg" xmlns:xlink="http://www.w3.org/1999/xlink">
<g id="graph0" class="graph" transform="scale(1 1) rotate(0) translate(4 434.99)">
<title>set_break</title>
<!-- Node1 -->
<g id="Node000001" class="node">
<title>Node1</title>
<g id="a_Node000001"><a xlink:title=" ">
<polygon fill="#999999" stroke="#666666" points="981,-320.99 916,-320.99 916,-301.99 981,-301.99 981,-320.99"/>
<text text-anchor="middle" x="948.5" y="-308.99" font-family="Helvetica,sans-Serif" font-size="10.00">set_break</text>
</a>
</g>
</g>
<!-- Node2 -->
<g id="Node000002" class="node">
<title>Node2</title>
<g id="a_Node000002"><a xlink:href="ast__run_8c.html#a536f37ba9bffcd2099fef668656181e0" target="_top" xlink:title=" ">
<polygon fill="white" stroke="#666666" points="880,-301.99 801,-301.99 801,-282.99 880,-282.99 880,-301.99"/>
<text text-anchor="middle" x="840.5" y="-289.99" font-family="Helvetica,sans-Serif" font-size="10.00">ast_run_loop</text>
</a>
</g>
</g>
<!-- Node1&#45;&gt;Node2 -->
<g id="edge1_Node000001_Node000002" class="edge">
<title>Node1&#45;&gt;Node2</title>
<g id="a_edge1_Node000001_Node000002"><a xlink:title=" ">
<path fill="none" stroke="#63b8ff" d="M905.92,-304.03C897.45,-302.51 888.58,-300.92 880.21,-299.42"/>
<polygon fill="#63b8ff" stroke="#63b8ff" points="905.52,-307.52 915.98,-305.84 906.76,-300.63 905.52,-307.52"/>
</a>
</g>
</g>
<!-- Node19 -->
<g id="Node000019" class="node">
<title>Node19</title>
<g id="a_Node000019"><a xlink:href="ast__run_8c.html#ab736d4b21353eaef40be48666508a4bc" target="_top" xlink:title=" ">
<polygon fill="white" stroke="#666666" points="765,-407.99 673,-407.99 673,-388.99 765,-388.99 765,-407.99"/>
<text text-anchor="middle" x="719" y="-395.99" font-family="Helvetica,sans-Serif" font-size="10.00">break_continue</text>
</a>
</g>
</g>
<!-- Node1&#45;&gt;Node19 -->
<g id="edge29_Node000001_Node000019" class="edge">
<title>Node1&#45;&gt;Node19</title>
<g id="a_edge29_Node000001_Node000019"><a xlink:title=" ">
<path fill="none" stroke="#63b8ff" d="M912.68,-324.8C866.38,-342.51 785.68,-373.37 744.98,-388.93"/>
<polygon fill="#63b8ff" stroke="#63b8ff" points="914.19,-327.97 922.28,-321.13 911.69,-321.43 914.19,-327.97"/>
</a>
</g>
</g>
<!-- Node3 -->
<g id="Node000003" class="node">
<title>Node3</title>
<g id="a_Node000003"><a xlink:href="ast_8c.html#a572345b2707780bbbc5bbaacdca9c372" target="_top" xlink:title=" ">
<polygon fill="white" stroke="#666666" points="745.5,-301.99 692.5,-301.99 692.5,-282.99 745.5,-282.99 745.5,-301.99"/>
<text text-anchor="middle" x="719" y="-289.99" font-family="Helvetica,sans-Serif" font-size="10.00">run_ast</text>
</a>
</g>
</g>
<!-- Node2&#45;&gt;Node3 -->
<g id="edge2_Node000002_Node000003" class="edge">
<title>Node2&#45;&gt;Node3</title>
<g id="a_edge2_Node000002_Node000003"><a xlink:title=" ">
<path fill="none" stroke="#63b8ff" d="M790.33,-285.83C775.05,-285.55 758.81,-285.88 745.8,-286.82"/>
<polygon fill="#63b8ff" stroke="#63b8ff" points="790.61,-289.34 800.7,-286.12 790.8,-282.34 790.61,-289.34"/>
</a>
</g>
</g>
<!-- Node3&#45;&gt;Node2 -->
<g id="edge12_Node000003_Node000002" class="edge">
<title>Node3&#45;&gt;Node2</title>
<g id="a_edge12_Node000003_Node000002"><a xlink:title=" ">
<path fill="none" stroke="#63b8ff" d="M756.1,-298.74C770.18,-299.36 786.36,-299.4 800.7,-298.85"/>
<polygon fill="#63b8ff" stroke="#63b8ff" points="755.98,-295.23 745.8,-298.15 755.58,-302.22 755.98,-295.23"/>
</a>
</g>
</g>
<!-- Node4 -->
<g id="Node000004" class="node">
<title>Node4</title>
<g id="a_Node000004"><a xlink:href="ast__run_8c.html#a8a01fec616135007fc5b3968a101901b" target="_top" xlink:title=" ">
<polygon fill="white" stroke="#666666" points="628,-393.99 537,-393.99 537,-374.99 628,-374.99 628,-393.99"/>
<text text-anchor="middle" x="582.5" y="-381.99" font-family="Helvetica,sans-Serif" font-size="10.00">ast_run_and_or</text>
</a>
</g>
</g>
<!-- Node3&#45;&gt;Node4 -->
<g id="edge3_Node000003_Node000004" class="edge">
<title>Node3&#45;&gt;Node4</title>
<g id="a_edge3_Node000003_Node000004"><a xlink:title=" ">
<path fill="none" stroke="#63b8ff" d="M696.66,-309.08C681.4,-323.7 659.64,-344.15 637,-357.49 623.83,-365.25 606.84,-370.23 595.58,-374.98"/>
<polygon fill="#63b8ff" stroke="#63b8ff" points="699.21,-311.48 704.01,-302.04 694.37,-306.42 699.21,-311.48"/>
</a>
</g>
</g>
<!-- Node5 -->
<g id="Node000005" class="node">
<title>Node5</title>
<g id="a_Node000005"><a xlink:href="ast__run_8c.html#a9d83d4834a61ffe21eb77838d70ae173" target="_top" xlink:title=" ">
<polygon fill="white" stroke="#666666" points="618,-430.99 547,-430.99 547,-411.99 618,-411.99 618,-430.99"/>
<text text-anchor="middle" x="582.5" y="-418.99" font-family="Helvetica,sans-Serif" font-size="10.00">ast_run_for</text>
</a>
</g>
</g>
<!-- Node3&#45;&gt;Node5 -->
<g id="edge5_Node000003_Node000005" class="edge">
<title>Node3&#45;&gt;Node5</title>
<g id="a_edge5_Node000003_Node000005"><a xlink:title=" ">
<path fill="none" stroke="#63b8ff" d="M705.61,-310.86C692.03,-333.73 667.98,-371.78 637,-394.49 625.3,-403.06 609.25,-407.74 597.79,-411.89"/>
<polygon fill="#63b8ff" stroke="#63b8ff" points="708.73,-312.46 710.78,-302.07 702.7,-308.91 708.73,-312.46"/>
</a>
</g>
</g>
<!-- Node6 -->
<g id="Node000006" class="node">
<title>Node6</title>
<g id="a_Node000006"><a xlink:href="ast__run_8c.html#a0a7138b1f2608ea36211c9b78988c248" target="_top" xlink:title=" ">
<polygon fill="white" stroke="#666666" points="615,-356.99 550,-356.99 550,-337.99 615,-337.99 615,-356.99"/>
<text text-anchor="middle" x="582.5" y="-344.99" font-family="Helvetica,sans-Serif" font-size="10.00">ast_run_if</text>
</a>
</g>
</g>
<!-- Node3&#45;&gt;Node6 -->
<g id="edge7_Node000003_Node000006" class="edge">
<title>Node3&#45;&gt;Node6</title>
<g id="a_edge7_Node000003_Node000006"><a xlink:title=" ">
<path fill="none" stroke="#63b8ff" d="M683.03,-301.07C668.88,-307.02 652.3,-314.44 637,-320.49 622.05,-326.39 604.3,-332.12 593.47,-337.84"/>
<polygon fill="#63b8ff" stroke="#63b8ff" points="684.48,-304.26 692.39,-297.21 681.82,-297.78 684.48,-304.26"/>
</a>
</g>
</g>
<!-- Node7 -->
<g id="Node000007" class="node">
<title>Node7</title>
<g id="a_Node000007"><a xlink:href="ast__run_8c.html#ae25cd3ced8abafd76110dba8852a6b87" target="_top" xlink:title=" ">
<polygon fill="white" stroke="#666666" points="619,-301.99 546,-301.99 546,-282.99 619,-282.99 619,-301.99"/>
<text text-anchor="middle" x="582.5" y="-289.99" font-family="Helvetica,sans-Serif" font-size="10.00">ast_run_list</text>
</a>
</g>
</g>
<!-- Node3&#45;&gt;Node7 -->
<g id="edge9_Node000003_Node000007" class="edge">
<title>Node3&#45;&gt;Node7</title>
<g id="a_edge9_Node000003_Node000007"><a xlink:title=" ">
<path fill="none" stroke="#63b8ff" d="M682.36,-286.45C662.83,-285.5 638.71,-285.5 619.18,-286.45"/>
<polygon fill="#63b8ff" stroke="#63b8ff" points="682.19,-289.94 692.38,-287.05 682.61,-282.96 682.19,-289.94"/>
</a>
</g>
</g>
<!-- Node8 -->
<g id="Node000008" class="node">
<title>Node8</title>
<g id="a_Node000008"><a xlink:href="ast__run_8c.html#aa3e6a973e744d748ee415840596beb53" target="_top" xlink:title=" ">
<polygon fill="white" stroke="#666666" points="637,-264.99 528,-264.99 528,-245.99 637,-245.99 637,-264.99"/>
<text text-anchor="middle" x="582.5" y="-252.99" font-family="Helvetica,sans-Serif" font-size="10.00">ast_run_shell_redir</text>
</a>
</g>
</g>
<!-- Node3&#45;&gt;Node8 -->
<g id="edge13_Node000003_Node000008" class="edge">
<title>Node3&#45;&gt;Node8</title>
<g id="a_edge13_Node000003_Node000008"><a xlink:title=" ">
<path fill="none" stroke="#63b8ff" d="M690.97,-279.52C675.53,-274.2 655.61,-268.35 637.12,-263.61"/>
<polygon fill="#63b8ff" stroke="#63b8ff" points="689.82,-282.82 700.42,-282.92 692.19,-276.23 689.82,-282.82"/>
</a>
</g>
</g>
<!-- Node9 -->
<g id="Node000009" class="node">
<title>Node9</title>
<g id="a_Node000009"><a xlink:href="exec_8c.html#a23babf893bbcd2f6126698a1a19b169f" target="_top" xlink:title="Execute funct with given arguments.">
<polygon fill="white" stroke="#666666" points="372,-193.99 307,-193.99 307,-174.99 372,-174.99 372,-193.99"/>
<text text-anchor="middle" x="339.5" y="-181.99" font-family="Helvetica,sans-Serif" font-size="10.00">exec_func</text>
</a>
</g>
</g>
<!-- Node3&#45;&gt;Node9 -->
<g id="edge15_Node000003_Node000009" class="edge">
<title>Node3&#45;&gt;Node9</title>
<g id="a_edge15_Node000003_Node000009"><a xlink:title=" ">
<path fill="none" stroke="#63b8ff" d="M699.25,-276.36C683.62,-263.79 660.25,-246.95 637,-237.49 545.71,-200.31 428.1,-189.15 372.43,-185.84"/>
<polygon fill="#63b8ff" stroke="#63b8ff" points="697.14,-279.15 707.08,-282.82 701.59,-273.76 697.14,-279.15"/>
</a>
</g>
</g>
<!-- Node12 -->
<g id="Node000012" class="node">
<title>Node12</title>
<g id="a_Node000012"><a xlink:href="exec_8c.html#ab743cb88e12e9b922050925fd2075e36" target="_top" xlink:title="Execute a pipeline of commands.">
<polygon fill="white" stroke="#666666" points="615,-170.99 550,-170.99 550,-151.99 615,-151.99 615,-170.99"/>
<text text-anchor="middle" x="582.5" y="-158.99" font-family="Helvetica,sans-Serif" font-size="10.00">exec_pipe</text>
</a>
</g>
</g>
<!-- Node3&#45;&gt;Node12 -->
<g id="edge19_Node000003_Node000012" class="edge">
<title>Node3&#45;&gt;Node12</title>
<g id="a_edge19_Node000003_Node000012"><a xlink:title=" ">
<path fill="none" stroke="#63b8ff" d="M703.62,-275.02C688.01,-256.47 661.97,-226.7 637,-203.49 624.2,-191.59 608.32,-179.41 597.2,-171.25"/>
<polygon fill="#63b8ff" stroke="#63b8ff" points="701.11,-277.47 710.2,-282.91 706.49,-272.99 701.11,-277.47"/>
</a>
</g>
</g>
<!-- Node14 -->
<g id="Node000014" class="node">
<title>Node14</title>
<g id="a_Node000014"><a xlink:href="42sh_8c.html#a3c04138a5bfe5d72780bb7e82a18e627" target="_top" xlink:title=" ">
<polygon fill="white" stroke="#666666" points="603,-133.99 562,-133.99 562,-114.99 603,-114.99 603,-133.99"/>
<text text-anchor="middle" x="582.5" y="-121.99" font-family="Helvetica,sans-Serif" font-size="10.00">main</text>
</a>
</g>
</g>
<!-- Node3&#45;&gt;Node14 -->
<g id="edge23_Node000003_Node000014" class="edge">
<title>Node3&#45;&gt;Node14</title>
<g id="a_edge23_Node000003_Node000014"><a xlink:title=" ">
<path fill="none" stroke="#63b8ff" d="M712.49,-273.17C702.55,-241.64 678.65,-179.07 637,-143.49 627.41,-135.29 614.03,-130.54 603.06,-127.84"/>
<polygon fill="#63b8ff" stroke="#63b8ff" points="709.2,-274.37 715.44,-282.93 715.9,-272.35 709.2,-274.37"/>
</a>
</g>
</g>
<!-- Node15 -->
<g id="Node000015" class="node">
<title>Node15</title>
<g id="a_Node000015"><a xlink:href="dot_8c.html#a17477ee2b0f1b8b9306566c990d15b35" target="_top" xlink:title="Main loop of dot builtin.">
<polygon fill="white" stroke="#666666" points="616.5,-57.99 548.5,-57.99 548.5,-38.99 616.5,-38.99 616.5,-57.99"/>
<text text-anchor="middle" x="582.5" y="-45.99" font-family="Helvetica,sans-Serif" font-size="10.00">main_loop</text>
</a>
</g>
</g>
<!-- Node3&#45;&gt;Node15 -->
<g id="edge24_Node000003_Node000015" class="edge">
<title>Node3&#45;&gt;Node15</title>
<g id="a_edge24_Node000003_Node000015"><a xlink:title=" ">
<path fill="none" stroke="#63b8ff" d="M715.87,-272.71C710.34,-230.64 691.95,-131.36 637,-72.49 631.23,-66.31 623.58,-61.61 615.88,-58.09"/>
<polygon fill="#63b8ff" stroke="#63b8ff" points="712.41,-273.25 717.08,-282.76 719.36,-272.41 712.41,-273.25"/>
</a>
</g>
</g>
<!-- Node4&#45;&gt;Node3 -->
<g id="edge4_Node000004_Node000003" class="edge">
<title>Node4&#45;&gt;Node3</title>
<g id="a_edge4_Node000004_Node000003"><a xlink:title=" ">
<path fill="none" stroke="#63b8ff" d="M637.01,-374.73C675,-350.76 703.14,-318.87 713.64,-302.14"/>
<polygon fill="#63b8ff" stroke="#63b8ff" points="634.98,-371.86 628.22,-380.02 638.59,-377.86 634.98,-371.86"/>
</a>
</g>
</g>
<!-- Node5&#45;&gt;Node3 -->
<g id="edge6_Node000005_Node000003" class="edge">
<title>Node5&#45;&gt;Node3</title>
<g id="a_edge6_Node000005_Node000003"><a xlink:title=" ">
<path fill="none" stroke="#63b8ff" d="M627.65,-418.13C630.95,-416.49 634.11,-414.61 637,-412.49 677.98,-382.45 706.84,-325.55 715.38,-302.1"/>
<polygon fill="#63b8ff" stroke="#63b8ff" points="626.01,-415.03 618.14,-422.12 628.72,-421.48 626.01,-415.03"/>
</a>
</g>
</g>
<!-- Node6&#45;&gt;Node3 -->
<g id="edge8_Node000006_Node000003" class="edge">
<title>Node6&#45;&gt;Node3</title>
<g id="a_edge8_Node000006_Node000003"><a xlink:title=" ">
<path fill="none" stroke="#63b8ff" d="M624.75,-343.04C628.91,-341.59 633.05,-340.05 637,-338.49 664.03,-327.8 695.04,-312.85 709.61,-302.1"/>
<polygon fill="#63b8ff" stroke="#63b8ff" points="623.51,-339.77 615.1,-346.22 625.69,-346.42 623.51,-339.77"/>
</a>
</g>
</g>
<!-- Node7&#45;&gt;Node3 -->
<g id="edge11_Node000007_Node000003" class="edge">
<title>Node7&#45;&gt;Node3</title>
<g id="a_edge11_Node000007_Node000003"><a xlink:title=" ">
<path fill="none" stroke="#63b8ff" d="M629.24,-298.92C650.33,-299.56 674.57,-299.23 692.38,-297.92"/>
<polygon fill="#63b8ff" stroke="#63b8ff" points="629.31,-295.42 619.18,-298.53 629.03,-302.41 629.31,-295.42"/>
</a>
</g>
</g>
<!-- Node7&#45;&gt;Node7 -->
<g id="edge10_Node000007_Node000007" class="edge">
<title>Node7&#45;&gt;Node7</title>
<g id="a_edge10_Node000007_Node000007"><a xlink:title=" ">
<path fill="none" stroke="#63b8ff" d="M606.68,-311.17C605.36,-316.18 597.3,-319.99 582.5,-319.99 559.39,-319.99 552.72,-310.72 562.46,-302.07"/>
<polygon fill="#63b8ff" stroke="#63b8ff" points="609.86,-309.72 602.54,-302.07 603.49,-312.62 609.86,-309.72"/>
</a>
</g>
</g>
<!-- Node8&#45;&gt;Node3 -->
<g id="edge14_Node000008_Node000003" class="edge">
<title>Node8&#45;&gt;Node3</title>
<g id="a_edge14_Node000008_Node000003"><a xlink:title=" ">
<path fill="none" stroke="#63b8ff" d="M610.81,-268.55C634.67,-276.75 669.04,-286.17 692.38,-290.87"/>
<polygon fill="#63b8ff" stroke="#63b8ff" points="611.89,-265.22 601.29,-265.13 609.52,-271.81 611.89,-265.22"/>
</a>
</g>
</g>
<!-- Node10 -->
<g id="Node000010" class="node">
<title>Node10</title>
<g id="a_Node000010"><a xlink:href="exec_8c.html#ae65edaa99b26b49d60c451157d38b34a" target="_top" xlink:title="Execute les commandes avec les args donnes.">
<polygon fill="white" stroke="#666666" points="180,-57.99 115,-57.99 115,-38.99 180,-38.99 180,-57.99"/>
<text text-anchor="middle" x="147.5" y="-45.99" font-family="Helvetica,sans-Serif" font-size="10.00">exec_cmd</text>
</a>
</g>
</g>
<!-- Node9&#45;&gt;Node10 -->
<g id="edge16_Node000009_Node000010" class="edge">
<title>Node9&#45;&gt;Node10</title>
<g id="a_edge16_Node000009_Node000010"><a xlink:title=" ">
<path fill="none" stroke="#63b8ff" d="M316.95,-169.06C277.39,-140.74 194.26,-81.24 161.85,-58.04"/>
<polygon fill="#63b8ff" stroke="#63b8ff" points="314.97,-171.95 325.14,-174.92 319.05,-166.26 314.97,-171.95"/>
</a>
</g>
</g>
<!-- Node11 -->
<g id="Node000011" class="node">
<title>Node11</title>
<g id="a_Node000011"><a xlink:href="ast__run_8c.html#aeb6878a59c6907e5669fc3cc428913d9" target="_top" xlink:title=" ">
<polygon fill="white" stroke="#666666" points="79,-38.99 0,-38.99 0,-19.99 79,-19.99 79,-38.99"/>
<text text-anchor="middle" x="39.5" y="-26.99" font-family="Helvetica,sans-Serif" font-size="10.00">ast_run_cmd</text>
</a>
</g>
</g>
<!-- Node10&#45;&gt;Node11 -->
<g id="edge17_Node000010_Node000011" class="edge">
<title>Node10&#45;&gt;Node11</title>
<g id="a_edge17_Node000010_Node000011"><a xlink:title=" ">
<path fill="none" stroke="#63b8ff" d="M104.92,-41.03C96.45,-39.51 87.58,-37.92 79.21,-36.42"/>
<polygon fill="#63b8ff" stroke="#63b8ff" points="104.52,-44.52 114.98,-42.84 105.76,-37.63 104.52,-44.52"/>
</a>
</g>
</g>
<!-- Node11&#45;&gt;Node3 -->
<g id="edge18_Node000011_Node000003" class="edge">
<title>Node11&#45;&gt;Node3</title>
<g id="a_edge18_Node000011_Node000003"><a xlink:title=" ">
<path fill="none" stroke="#63b8ff" d="M89.1,-22.26C129.43,-16.88 188.31,-10.49 240,-10.49 453.5,-10.49 453.5,-10.49 453.5,-10.49 535.49,-10.49 573.64,22.55 637,-29.49 718.59,-96.5 719.68,-243.81 718.45,-282.84"/>
<polygon fill="#63b8ff" stroke="#63b8ff" points="88.45,-18.81 79.01,-23.63 89.4,-25.75 88.45,-18.81"/>
</a>
</g>
</g>
<!-- Node12&#45;&gt;Node12 -->
<g id="edge22_Node000012_Node000012" class="edge">
<title>Node12&#45;&gt;Node12</title>
<g id="a_edge22_Node000012_Node000012"><a xlink:title=" ">
<path fill="none" stroke="#63b8ff" d="M606.68,-180.17C605.36,-185.18 597.3,-188.99 582.5,-188.99 559.39,-188.99 552.72,-179.72 562.46,-171.07"/>
<polygon fill="#63b8ff" stroke="#63b8ff" points="609.86,-178.72 602.54,-171.07 603.49,-181.62 609.86,-178.72"/>
</a>
</g>
</g>
<!-- Node13 -->
<g id="Node000013" class="node">
<title>Node13</title>
<g id="a_Node000013"><a xlink:href="ast__run_8c.html#a24d0223822f7b635628199085c3283be" target="_top" xlink:title=" ">
<polygon fill="white" stroke="#666666" points="492,-132.99 413,-132.99 413,-113.99 492,-113.99 492,-132.99"/>
<text text-anchor="middle" x="452.5" y="-120.99" font-family="Helvetica,sans-Serif" font-size="10.00">ast_run_pipe</text>
</a>
</g>
</g>
<!-- Node12&#45;&gt;Node13 -->
<g id="edge20_Node000012_Node000013" class="edge">
<title>Node12&#45;&gt;Node13</title>
<g id="a_edge20_Node000012_Node000013"><a xlink:title=" ">
<path fill="none" stroke="#63b8ff" d="M539.85,-149.12C522.25,-143.9 502.08,-137.91 485.67,-133.03"/>
<polygon fill="#63b8ff" stroke="#63b8ff" points="539.28,-152.6 549.86,-152.09 541.27,-145.89 539.28,-152.6"/>
</a>
</g>
</g>
<!-- Node13&#45;&gt;Node3 -->
<g id="edge21_Node000013_Node000003" class="edge">
<title>Node13&#45;&gt;Node3</title>
<g id="a_edge21_Node000013_Node000003"><a xlink:title=" ">
<path fill="none" stroke="#63b8ff" d="M483.62,-109.97C522.43,-94.78 590.45,-75.98 637,-106.49 700.34,-147.99 714.42,-250.97 717.31,-282.89"/>
<polygon fill="#63b8ff" stroke="#63b8ff" points="481.88,-106.89 473.95,-113.91 484.53,-113.38 481.88,-106.89"/>
</a>
</g>
</g>
<!-- Node16 -->
<g id="Node000016" class="node">
<title>Node16</title>
<g id="a_Node000016"><a xlink:href="dot_8c.html#a713938d3c6ee343132c429642048bcf6" target="_top" xlink:title="Execute the dot builtin cmd.">
<polygon fill="white" stroke="#666666" points="474.5,-57.99 430.5,-57.99 430.5,-38.99 474.5,-38.99 474.5,-57.99"/>
<text text-anchor="middle" x="452.5" y="-45.99" font-family="Helvetica,sans-Serif" font-size="10.00">dot_b</text>
</a>
</g>
</g>
<!-- Node15&#45;&gt;Node16 -->
<g id="edge25_Node000015_Node000016" class="edge">
<title>Node15&#45;&gt;Node16</title>
<g id="a_edge25_Node000015_Node000016"><a xlink:title=" ">
<path fill="none" stroke="#63b8ff" d="M538.02,-48.49C516.61,-48.49 491.78,-48.49 474.6,-48.49"/>
<polygon fill="#63b8ff" stroke="#63b8ff" points="538.2,-51.99 548.2,-48.49 538.2,-44.99 538.2,-51.99"/>
</a>
</g>
</g>
<!-- Node17 -->
<g id="Node000017" class="node">
<title>Node17</title>
<g id="a_Node000017"><a xlink:href="exec_8c.html#abaeb177587c7eec6a064b35bb8399cae" target="_top" xlink:title="Execute builtin cmd with given args.">
<polygon fill="white" stroke="#666666" points="377,-57.99 302,-57.99 302,-38.99 377,-38.99 377,-57.99"/>
<text text-anchor="middle" x="339.5" y="-45.99" font-family="Helvetica,sans-Serif" font-size="10.00">exec_builtin</text>
</a>
</g>
</g>
<!-- Node16&#45;&gt;Node17 -->
<g id="edge26_Node000016_Node000017" class="edge">
<title>Node16&#45;&gt;Node17</title>
<g id="a_edge26_Node000016_Node000017"><a xlink:title=" ">
<path fill="none" stroke="#63b8ff" d="M420.23,-48.49C406.88,-48.49 391.2,-48.49 377.3,-48.49"/>
<polygon fill="#63b8ff" stroke="#63b8ff" points="420.36,-51.99 430.36,-48.49 420.36,-44.99 420.36,-51.99"/>
</a>
</g>
</g>
<!-- Node18 -->
<g id="Node000018" class="node">
<title>Node18</title>
<g id="a_Node000018"><a xlink:href="exec_8c.html#a287d81b4658832f192750310e2925917" target="_top" xlink:title="Execute the builtin command with given args.">
<polygon fill="white" stroke="#666666" points="266,-57.99 216,-57.99 216,-38.99 266,-38.99 266,-57.99"/>
<text text-anchor="middle" x="241" y="-45.99" font-family="Helvetica,sans-Serif" font-size="10.00">exec_b</text>
</a>
</g>
</g>
<!-- Node17&#45;&gt;Node18 -->
<g id="edge27_Node000017_Node000018" class="edge">
<title>Node17&#45;&gt;Node18</title>
<g id="a_edge27_Node000017_Node000018"><a xlink:title=" ">
<path fill="none" stroke="#63b8ff" d="M291.51,-48.49C282.71,-48.49 273.86,-48.49 266.12,-48.49"/>
<polygon fill="#63b8ff" stroke="#63b8ff" points="291.74,-51.99 301.74,-48.49 291.74,-44.99 291.74,-51.99"/>
</a>
</g>
</g>
<!-- Node18&#45;&gt;Node10 -->
<g id="edge28_Node000018_Node000010" class="edge">
<title>Node18&#45;&gt;Node10</title>
<g id="a_edge28_Node000018_Node000010"><a xlink:title=" ">
<path fill="none" stroke="#63b8ff" d="M205.77,-48.49C197.42,-48.49 188.53,-48.49 180.3,-48.49"/>
<polygon fill="#63b8ff" stroke="#63b8ff" points="205.96,-51.99 215.96,-48.49 205.96,-44.99 205.96,-51.99"/>
</a>
</g>
</g>
<!-- Node19&#45;&gt;Node5 -->
<g id="edge30_Node000019_Node000005" class="edge">
<title>Node19&#45;&gt;Node5</title>
<g id="a_edge30_Node000019_Node000005"><a xlink:title=" ">
<path fill="none" stroke="#63b8ff" d="M662.59,-407.96C647.53,-410.54 631.66,-413.25 618.12,-415.57"/>
<polygon fill="#63b8ff" stroke="#63b8ff" points="663.57,-411.34 672.84,-406.21 662.39,-404.44 663.57,-411.34"/>
</a>
</g>
</g>
</g>
</svg>
