<?xml version="1.0" encoding="UTF-8" standalone="no"?>
<!DOCTYPE svg PUBLIC "-//W3C//DTD SVG 1.1//EN"
 "http://www.w3.org/Graphics/SVG/1.1/DTD/svg11.dtd">
<!-- Generated by graphviz version 2.43.0 (0)
 -->
<!-- Title: update_pwd Pages: 1 -->
<svg width="1261pt" height="263pt"
 viewBox="0.00 0.00 1261.00 262.50" xmlns="http://www.w3.org/2000/svg" xmlns:xlink="http://www.w3.org/1999/xlink">
<g id="graph0" class="graph" transform="scale(1 1) rotate(0) translate(4 258.5)">
<title>update_pwd</title>
<!-- Node1 -->
<g id="Node000001" class="node">
<title>Node1</title>
<g id="a_Node000001"><a xlink:title="Update PWD and OLDPWD vars after cd.">
<polygon fill="#999999" stroke="#666666" points="76,-47 0,-47 0,-28 76,-28 76,-47"/>
<text text-anchor="middle" x="38" y="-35" font-family="Helvetica,sans-Serif" font-size="10.00">update_pwd</text>
</a>
</g>
</g>
<!-- Node2 -->
<g id="Node000002" class="node">
<title>Node2</title>
<g id="a_Node000002"><a xlink:href="hashmap_8c.html#a3bf95c887f7eac3eb074725515feba49" target="_top" xlink:title="Add a variable to the dictionnary.">
<polygon fill="white" stroke="#666666" points="168,-94 112,-94 112,-75 168,-75 168,-94"/>
<text text-anchor="middle" x="140" y="-82" font-family="Helvetica,sans-Serif" font-size="10.00">add_var</text>
</a>
</g>
</g>
<!-- Node1&#45;&gt;Node2 -->
<g id="edge1_Node000001_Node000002" class="edge">
<title>Node1&#45;&gt;Node2</title>
<g id="a_edge1_Node000001_Node000002"><a xlink:title=" ">
<path fill="none" stroke="#63b8ff" d="M59.24,-47.01C73.64,-53.78 93.24,-62.99 109.4,-70.59"/>
<polygon fill="#63b8ff" stroke="#63b8ff" points="107.91,-73.76 118.45,-74.84 110.89,-67.42 107.91,-73.76"/>
</a>
</g>
</g>
<!-- Node12 -->
<g id="Node000012" class="node">
<title>Node12</title>
<g id="a_Node000012"><a xlink:href="hashmap_8c.html#aa54a9eed65359c74557f0f55c9ca3dd3" target="_top" xlink:title="Get the variable from the dictionnary.">
<polygon fill="white" stroke="#666666" points="1066,-19 1013,-19 1013,0 1066,0 1066,-19"/>
<text text-anchor="middle" x="1039.5" y="-7" font-family="Helvetica,sans-Serif" font-size="10.00">get_var</text>
</a>
</g>
</g>
<!-- Node1&#45;&gt;Node12 -->
<g id="edge25_Node000001_Node000012" class="edge">
<title>Node1&#45;&gt;Node12</title>
<g id="a_edge25_Node000001_Node000012"><a xlink:title=" ">
<path fill="none" stroke="#63b8ff" d="M76.04,-32.51C121.09,-26.88 199.48,-18.5 267,-18.5 267,-18.5 267,-18.5 785,-18.5 862.75,-18.5 953.82,-14.22 1002.87,-11.56"/>
<polygon fill="#63b8ff" stroke="#63b8ff" points="1003.17,-15.05 1012.96,-11.01 1002.79,-8.06 1003.17,-15.05"/>
</a>
</g>
</g>
<!-- Node3 -->
<g id="Node000003" class="node">
<title>Node3</title>
<g id="a_Node000003"><a xlink:href="hashmap_8c.html#aca86cd9ca85ac2e41fbb5c9e86ad6d6f" target="_top" xlink:title=" ">
<polygon fill="white" stroke="#666666" points="310.5,-170 225.5,-170 225.5,-151 310.5,-151 310.5,-170"/>
<text text-anchor="middle" x="268" y="-158" font-family="Helvetica,sans-Serif" font-size="10.00">expand_value</text>
</a>
</g>
</g>
<!-- Node2&#45;&gt;Node3 -->
<g id="edge2_Node000002_Node000003" class="edge">
<title>Node2&#45;&gt;Node3</title>
<g id="a_edge2_Node000002_Node000003"><a xlink:title=" ">
<path fill="none" stroke="#63b8ff" d="M156.96,-94.13C178.54,-107.15 217.25,-130.49 242.52,-145.74"/>
<polygon fill="#63b8ff" stroke="#63b8ff" points="240.8,-148.78 251.17,-150.95 244.42,-142.79 240.8,-148.78"/>
</a>
</g>
</g>
<!-- Node13 -->
<g id="Node000013" class="node">
<title>Node13</title>
<g id="a_Node000013"><a xlink:href="hash_8c.html#ac74a7e29e54c223be6213463974d6154" target="_top" xlink:title=" ">
<polygon fill="white" stroke="#666666" points="1175,-66 1135,-66 1135,-47 1175,-47 1175,-66"/>
<text text-anchor="middle" x="1155" y="-54" font-family="Helvetica,sans-Serif" font-size="10.00">hash</text>
</a>
</g>
</g>
<!-- Node2&#45;&gt;Node13 -->
<g id="edge23_Node000002_Node000013" class="edge">
<title>Node2&#45;&gt;Node13</title>
<g id="a_edge23_Node000002_Node000013"><a xlink:title=" ">
<path fill="none" stroke="#63b8ff" d="M168.23,-81.1C214.46,-75.64 311.29,-65.5 393.5,-65.5 393.5,-65.5 393.5,-65.5 908.5,-65.5 986.68,-65.5 1078.77,-60.89 1124.77,-58.27"/>
<polygon fill="#63b8ff" stroke="#63b8ff" points="1125.13,-61.75 1134.91,-57.68 1124.72,-54.76 1125.13,-61.75"/>
</a>
</g>
</g>
<!-- Node21 -->
<g id="Node000021" class="node">
<title>Node21</title>
<g id="a_Node000021"><a xlink:href="hashmap_8c.html#a5bcdd565d2ba5876c5ef1685625cdcfa" target="_top" xlink:title=" ">
<polygon fill="white" stroke="#666666" points="332,-113 204,-113 204,-94 332,-94 332,-113"/>
<text text-anchor="middle" x="268" y="-101" font-family="Helvetica,sans-Serif" font-size="10.00">update_or_append_var</text>
</a>
</g>
</g>
<!-- Node2&#45;&gt;Node21 -->
<g id="edge24_Node000002_Node000021" class="edge">
<title>Node2&#45;&gt;Node21</title>
<g id="a_edge24_Node000002_Node000021"><a xlink:title=" ">
<path fill="none" stroke="#63b8ff" d="M168.03,-88.58C175.78,-89.75 184.63,-91.08 193.77,-92.46"/>
<polygon fill="#63b8ff" stroke="#63b8ff" points="193.36,-95.93 203.77,-93.96 194.4,-89.01 193.36,-95.93"/>
</a>
</g>
</g>
<!-- Node4 -->
<g id="Node000004" class="node">
<title>Node4</title>
<g id="a_Node000004"><a xlink:href="expand_8c.html#ae22ff4719527d6b2b8bca3e43f576837" target="_top" xlink:title=" ">
<polygon fill="white" stroke="#666666" points="421,-170 368,-170 368,-151 421,-151 421,-170"/>
<text text-anchor="middle" x="394.5" y="-158" font-family="Helvetica,sans-Serif" font-size="10.00">expand</text>
</a>
</g>
</g>
<!-- Node3&#45;&gt;Node4 -->
<g id="edge3_Node000003_Node000004" class="edge">
<title>Node3&#45;&gt;Node4</title>
<g id="a_edge3_Node000003_Node000004"><a xlink:title=" ">
<path fill="none" stroke="#63b8ff" d="M310.8,-160.5C326.04,-160.5 343.11,-160.5 357.77,-160.5"/>
<polygon fill="#63b8ff" stroke="#63b8ff" points="357.96,-164 367.96,-160.5 357.96,-157 357.96,-164"/>
</a>
</g>
</g>
<!-- Node5 -->
<g id="Node000005" class="node">
<title>Node5</title>
<g id="a_Node000005"><a xlink:href="expand_8c.html#a492ca861a96ee6319b97b4b1d6ba9835" target="_top" xlink:title=" ">
<polygon fill="white" stroke="#666666" points="539,-170 457,-170 457,-151 539,-151 539,-170"/>
<text text-anchor="middle" x="498" y="-158" font-family="Helvetica,sans-Serif" font-size="10.00">expand_word</text>
</a>
</g>
</g>
<!-- Node4&#45;&gt;Node5 -->
<g id="edge4_Node000004_Node000005" class="edge">
<title>Node4&#45;&gt;Node5</title>
<g id="a_edge4_Node000004_Node000005"><a xlink:title=" ">
<path fill="none" stroke="#63b8ff" d="M421.11,-160.5C428.88,-160.5 437.7,-160.5 446.5,-160.5"/>
<polygon fill="#63b8ff" stroke="#63b8ff" points="446.78,-164 456.78,-160.5 446.78,-157 446.78,-164"/>
</a>
</g>
</g>
<!-- Node11 -->
<g id="Node000011" class="node">
<title>Node11</title>
<g id="a_Node000011"><a xlink:href="expand_8c.html#aaf941edbfdd3ac08d813ff01acc1f963" target="_top" xlink:title=" ">
<polygon fill="white" stroke="#666666" points="1066,-245 1013,-245 1013,-226 1066,-226 1066,-245"/>
<text text-anchor="middle" x="1039.5" y="-233" font-family="Helvetica,sans-Serif" font-size="10.00">free_ex</text>
</a>
</g>
</g>
<!-- Node4&#45;&gt;Node11 -->
<g id="edge22_Node000004_Node000011" class="edge">
<title>Node4&#45;&gt;Node11</title>
<g id="a_edge22_Node000004_Node000011"><a xlink:title=" ">
<path fill="none" stroke="#63b8ff" d="M409.29,-170.03C445.24,-193.93 545.54,-254.5 638.5,-254.5 638.5,-254.5 638.5,-254.5 785,-254.5 862.71,-254.5 953.45,-245.51 1002.53,-239.9"/>
<polygon fill="#63b8ff" stroke="#63b8ff" points="1003.11,-243.36 1012.64,-238.72 1002.3,-236.4 1003.11,-243.36"/>
</a>
</g>
</g>
<!-- Node6 -->
<g id="Node000006" class="node">
<title>Node6</title>
<g id="a_Node000006"><a xlink:href="expand_8c.html#a97a675ffacb4b71f4f3b4a30749d9f66" target="_top" xlink:title=" ">
<polygon fill="white" stroke="#666666" points="679,-226 600,-226 600,-207 679,-207 679,-226"/>
<text text-anchor="middle" x="639.5" y="-214" font-family="Helvetica,sans-Serif" font-size="10.00">append_char</text>
</a>
</g>
</g>
<!-- Node5&#45;&gt;Node6 -->
<g id="edge5_Node000005_Node000006" class="edge">
<title>Node5&#45;&gt;Node6</title>
<g id="a_edge5_Node000005_Node000006"><a xlink:title=" ">
<path fill="none" stroke="#63b8ff" d="M515.79,-170.04C530.92,-178.36 553.96,-190.34 575,-198.5 580.07,-200.47 585.45,-202.33 590.85,-204.05"/>
<polygon fill="#63b8ff" stroke="#63b8ff" points="589.92,-207.42 600.51,-206.99 591.96,-200.73 589.92,-207.42"/>
</a>
</g>
</g>
<!-- Node7 -->
<g id="Node000007" class="node">
<title>Node7</title>
<g id="a_Node000007"><a xlink:href="expand_8c.html#a6d4728fd992669e4bb35624d37972179" target="_top" xlink:title=" ">
<polygon fill="white" stroke="#666666" points="704,-189 575,-189 575,-170 704,-170 704,-189"/>
<text text-anchor="middle" x="639.5" y="-177" font-family="Helvetica,sans-Serif" font-size="10.00">double_quotes_expand</text>
</a>
</g>
</g>
<!-- Node5&#45;&gt;Node7 -->
<g id="edge6_Node000005_Node000007" class="edge">
<title>Node5&#45;&gt;Node7</title>
<g id="a_edge6_Node000005_Node000007"><a xlink:title=" ">
<path fill="none" stroke="#63b8ff" d="M539.35,-166C547.42,-167.09 556.13,-168.28 564.92,-169.48"/>
<polygon fill="#63b8ff" stroke="#63b8ff" points="564.47,-172.95 574.85,-170.83 565.41,-166.01 564.47,-172.95"/>
</a>
</g>
</g>
<!-- Node10 -->
<g id="Node000010" class="node">
<title>Node10</title>
<g id="a_Node000010"><a xlink:href="expand_8c.html#a0a337c3a6b2595b2b8c03e171c9559ba" target="_top" xlink:title=" ">
<polygon fill="white" stroke="#666666" points="944.5,-151 870.5,-151 870.5,-132 944.5,-132 944.5,-151"/>
<text text-anchor="middle" x="907.5" y="-139" font-family="Helvetica,sans-Serif" font-size="10.00">var_expand</text>
</a>
</g>
</g>
<!-- Node5&#45;&gt;Node10 -->
<g id="edge21_Node000005_Node000010" class="edge">
<title>Node5&#45;&gt;Node10</title>
<g id="a_edge21_Node000005_Node000010"><a xlink:title=" ">
<path fill="none" stroke="#63b8ff" d="M539.19,-158.63C615.19,-155.08 779.56,-147.42 860.11,-143.66"/>
<polygon fill="#63b8ff" stroke="#63b8ff" points="860.61,-147.14 870.44,-143.18 860.29,-140.15 860.61,-147.14"/>
</a>
</g>
</g>
<!-- Node20 -->
<g id="Node000020" class="node">
<title>Node20</title>
<g id="a_Node000020"><a xlink:href="expand_8c.html#ad45c8055962fa36940e109b04b7e562e" target="_top" xlink:title=" ">
<polygon fill="white" stroke="#666666" points="699.5,-113 579.5,-113 579.5,-94 699.5,-94 699.5,-113"/>
<text text-anchor="middle" x="639.5" y="-101" font-family="Helvetica,sans-Serif" font-size="10.00">single_quote_expand</text>
</a>
</g>
</g>
<!-- Node5&#45;&gt;Node20 -->
<g id="edge20_Node000005_Node000020" class="edge">
<title>Node5&#45;&gt;Node20</title>
<g id="a_edge20_Node000005_Node000020"><a xlink:title=" ">
<path fill="none" stroke="#63b8ff" d="M520.18,-150.98C535.36,-144.23 556.34,-135.07 575,-127.5 583.98,-123.86 593.75,-120.07 602.87,-116.62"/>
<polygon fill="#63b8ff" stroke="#63b8ff" points="604.31,-119.82 612.44,-113.03 601.85,-113.27 604.31,-119.82"/>
</a>
</g>
</g>
<!-- Node8 -->
<g id="Node000008" class="node">
<title>Node8</title>
<g id="a_Node000008"><a xlink:href="expand_8c.html#a4a10ac07faa08df14e0a438c5feace6b" target="_top" xlink:title=" ">
<polygon fill="white" stroke="#666666" points="828,-189 740,-189 740,-170 828,-170 828,-189"/>
<text text-anchor="middle" x="784" y="-177" font-family="Helvetica,sans-Serif" font-size="10.00">in_dquote_exp</text>
</a>
</g>
</g>
<!-- Node7&#45;&gt;Node8 -->
<g id="edge7_Node000007_Node000008" class="edge">
<title>Node7&#45;&gt;Node8</title>
<g id="a_edge7_Node000007_Node000008"><a xlink:title=" ">
<path fill="none" stroke="#63b8ff" d="M704.25,-179.5C712.69,-179.5 721.27,-179.5 729.52,-179.5"/>
<polygon fill="#63b8ff" stroke="#63b8ff" points="729.74,-183 739.74,-179.5 729.74,-176 729.74,-183"/>
</a>
</g>
</g>
<!-- Node9 -->
<g id="Node000009" class="node">
<title>Node9</title>
<g id="a_Node000009"><a xlink:href="expand_8c.html#a46b3549565fede625ad04072f2654aa4" target="_top" xlink:title=" ">
<polygon fill="white" stroke="#666666" points="951,-189 864,-189 864,-170 951,-170 951,-189"/>
<text text-anchor="middle" x="907.5" y="-177" font-family="Helvetica,sans-Serif" font-size="10.00">is_expandable</text>
</a>
</g>
</g>
<!-- Node8&#45;&gt;Node9 -->
<g id="edge8_Node000008_Node000009" class="edge">
<title>Node8&#45;&gt;Node9</title>
<g id="a_edge8_Node000008_Node000009"><a xlink:title=" ">
<path fill="none" stroke="#63b8ff" d="M828.18,-179.5C836.42,-179.5 845.14,-179.5 853.64,-179.5"/>
<polygon fill="#63b8ff" stroke="#63b8ff" points="853.87,-183 863.87,-179.5 853.87,-176 853.87,-183"/>
</a>
</g>
</g>
<!-- Node8&#45;&gt;Node10 -->
<g id="edge9_Node000008_Node000010" class="edge">
<title>Node8&#45;&gt;Node10</title>
<g id="a_edge9_Node000008_Node000010"><a xlink:title=" ">
<path fill="none" stroke="#63b8ff" d="M815.66,-169.91C830.91,-165.14 849.55,-159.31 865.97,-154.18"/>
<polygon fill="#63b8ff" stroke="#63b8ff" points="867.35,-157.41 875.85,-151.09 865.26,-150.73 867.35,-157.41"/>
</a>
</g>
</g>
<!-- Node10&#45;&gt;Node11 -->
<g id="edge10_Node000010_Node000011" class="edge">
<title>Node10&#45;&gt;Node11</title>
<g id="a_edge10_Node000010_Node000011"><a xlink:title=" ">
<path fill="none" stroke="#63b8ff" d="M932.69,-151.12C938.89,-154.05 945.4,-157.56 951,-161.5 969.51,-174.51 969.85,-182.74 987,-197.5 996.06,-205.3 1006.61,-213.26 1015.78,-219.86"/>
<polygon fill="#63b8ff" stroke="#63b8ff" points="1013.89,-222.81 1024.07,-225.73 1017.93,-217.09 1013.89,-222.81"/>
</a>
</g>
</g>
<!-- Node10&#45;&gt;Node12 -->
<g id="edge11_Node000010_Node000012" class="edge">
<title>Node10&#45;&gt;Node12</title>
<g id="a_edge11_Node000010_Node000012"><a xlink:title=" ">
<path fill="none" stroke="#63b8ff" d="M918.27,-131.58C940.31,-109.2 994.09,-54.6 1021.63,-26.63"/>
<polygon fill="#63b8ff" stroke="#63b8ff" points="1024.45,-28.76 1028.97,-19.18 1019.46,-23.85 1024.45,-28.76"/>
</a>
</g>
</g>
<!-- Node16 -->
<g id="Node000016" class="node">
<title>Node16</title>
<g id="a_Node000016"><a xlink:href="expand_8c.html#ac1225d88933658edb6e51e4ed8f003c3" target="_top" xlink:title=" ">
<polygon fill="white" stroke="#666666" points="1076,-151 1003,-151 1003,-132 1076,-132 1076,-151"/>
<text text-anchor="middle" x="1039.5" y="-139" font-family="Helvetica,sans-Serif" font-size="10.00">val_append</text>
</a>
</g>
</g>
<!-- Node10&#45;&gt;Node16 -->
<g id="edge16_Node000010_Node000016" class="edge">
<title>Node10&#45;&gt;Node16</title>
<g id="a_edge16_Node000010_Node000016"><a xlink:title=" ">
<path fill="none" stroke="#63b8ff" d="M944.71,-141.5C959.63,-141.5 977.07,-141.5 992.85,-141.5"/>
<polygon fill="#63b8ff" stroke="#63b8ff" points="992.93,-145 1002.93,-141.5 992.93,-138 992.93,-145"/>
</a>
</g>
</g>
<!-- Node17 -->
<g id="Node000017" class="node">
<title>Node17</title>
<g id="a_Node000017"><a xlink:href="expand_8c.html#aa0106a12d15398cad9ca20f96f1eb374" target="_top" xlink:title=" ">
<polygon fill="white" stroke="#666666" points="1083.5,-114 995.5,-114 995.5,-95 1083.5,-95 1083.5,-114"/>
<text text-anchor="middle" x="1039.5" y="-102" font-family="Helvetica,sans-Serif" font-size="10.00">var_exp_brack</text>
</a>
</g>
</g>
<!-- Node10&#45;&gt;Node17 -->
<g id="edge17_Node000010_Node000017" class="edge">
<title>Node10&#45;&gt;Node17</title>
<g id="a_edge17_Node000010_Node000017"><a xlink:title=" ">
<path fill="none" stroke="#63b8ff" d="M941.98,-131.97C958.08,-127.39 977.58,-121.84 994.83,-116.93"/>
<polygon fill="#63b8ff" stroke="#63b8ff" points="996.02,-120.23 1004.68,-114.12 994.11,-113.5 996.02,-120.23"/>
</a>
</g>
</g>
<!-- Node18 -->
<g id="Node000018" class="node">
<title>Node18</title>
<g id="a_Node000018"><a xlink:href="expand_8c.html#a5785fb584914d075e9a5d933e903823c" target="_top" xlink:title=" ">
<polygon fill="white" stroke="#666666" points="1092,-188 987,-188 987,-169 1092,-169 1092,-188"/>
<text text-anchor="middle" x="1039.5" y="-176" font-family="Helvetica,sans-Serif" font-size="10.00">var_exp_no_brack</text>
</a>
</g>
</g>
<!-- Node10&#45;&gt;Node18 -->
<g id="edge18_Node000010_Node000018" class="edge">
<title>Node10&#45;&gt;Node18</title>
<g id="a_edge18_Node000010_Node000018"><a xlink:title=" ">
<path fill="none" stroke="#63b8ff" d="M941.98,-151.03C958.08,-155.61 977.58,-161.16 994.83,-166.07"/>
<polygon fill="#63b8ff" stroke="#63b8ff" points="994.11,-169.5 1004.68,-168.88 996.02,-162.77 994.11,-169.5"/>
</a>
</g>
</g>
<!-- Node12&#45;&gt;Node12 -->
<g id="edge12_Node000012_Node000012" class="edge">
<title>Node12&#45;&gt;Node12</title>
<g id="a_edge12_Node000012_Node000012"><a xlink:title=" ">
<path fill="none" stroke="#63b8ff" d="M1021.93,-19.08C1013.38,-27.73 1019.24,-37 1039.5,-37 1052.16,-37 1059.2,-33.38 1060.61,-28.55"/>
<polygon fill="#63b8ff" stroke="#63b8ff" points="1063.85,-27.22 1057.07,-19.08 1057.29,-29.68 1063.85,-27.22"/>
</a>
</g>
</g>
<!-- Node12&#45;&gt;Node13 -->
<g id="edge13_Node000012_Node000013" class="edge">
<title>Node12&#45;&gt;Node13</title>
<g id="a_edge13_Node000012_Node000013"><a xlink:title=" ">
<path fill="none" stroke="#63b8ff" d="M1063.47,-19.01C1081.34,-26.41 1106.24,-36.72 1125.4,-44.66"/>
<polygon fill="#63b8ff" stroke="#63b8ff" points="1124.26,-47.97 1134.83,-48.56 1126.93,-41.5 1124.26,-47.97"/>
</a>
</g>
</g>
<!-- Node14 -->
<g id="Node000014" class="node">
<title>Node14</title>
<g id="a_Node000014"><a xlink:href="hashmap_8c.html#a5b2c78a0a08d606dfbf21fe636373e6e" target="_top" xlink:title=" ">
<polygon fill="white" stroke="#666666" points="1180.5,-19 1129.5,-19 1129.5,0 1180.5,0 1180.5,-19"/>
<text text-anchor="middle" x="1155" y="-7" font-family="Helvetica,sans-Serif" font-size="10.00">special</text>
</a>
</g>
</g>
<!-- Node12&#45;&gt;Node14 -->
<g id="edge14_Node000012_Node000014" class="edge">
<title>Node12&#45;&gt;Node14</title>
<g id="a_edge14_Node000012_Node000014"><a xlink:title=" ">
<path fill="none" stroke="#63b8ff" d="M1066.25,-9.5C1081.85,-9.5 1101.96,-9.5 1118.99,-9.5"/>
<polygon fill="#63b8ff" stroke="#63b8ff" points="1119.13,-13 1129.13,-9.5 1119.13,-6 1119.13,-13"/>
</a>
</g>
</g>
<!-- Node15 -->
<g id="Node000015" class="node">
<title>Node15</title>
<g id="a_Node000015"><a xlink:href="itoa_8c.html#a43f392ec16afbe6cdb1ee6d1f1347f99" target="_top" xlink:title="Convert int to string.">
<polygon fill="white" stroke="#666666" points="1253,-19 1218,-19 1218,0 1253,0 1253,-19"/>
<text text-anchor="middle" x="1235.5" y="-7" font-family="Helvetica,sans-Serif" font-size="10.00">itoa</text>
</a>
</g>
</g>
<!-- Node14&#45;&gt;Node15 -->
<g id="edge15_Node000014_Node000015" class="edge">
<title>Node14&#45;&gt;Node15</title>
<g id="a_edge15_Node000014_Node000015"><a xlink:title=" ">
<path fill="none" stroke="#63b8ff" d="M1180.84,-9.5C1189.4,-9.5 1199.02,-9.5 1207.72,-9.5"/>
<polygon fill="#63b8ff" stroke="#63b8ff" points="1207.76,-13 1217.76,-9.5 1207.76,-6 1207.76,-13"/>
</a>
</g>
</g>
<!-- Node19 -->
<g id="Node000019" class="node">
<title>Node19</title>
<g id="a_Node000019"><a xlink:href="expand_8c.html#a66cc7be396f0ef502a888b56eee2f4bf" target="_top" xlink:title=" ">
<polygon fill="white" stroke="#666666" points="1182,-188 1128,-188 1128,-169 1182,-169 1182,-188"/>
<text text-anchor="middle" x="1155" y="-176" font-family="Helvetica,sans-Serif" font-size="10.00">is_word</text>
</a>
</g>
</g>
<!-- Node18&#45;&gt;Node19 -->
<g id="edge19_Node000018_Node000019" class="edge">
<title>Node18&#45;&gt;Node19</title>
<g id="a_edge19_Node000018_Node000019"><a xlink:title=" ">
<path fill="none" stroke="#63b8ff" d="M1092.27,-178.5C1100.8,-178.5 1109.49,-178.5 1117.55,-178.5"/>
<polygon fill="#63b8ff" stroke="#63b8ff" points="1117.72,-182 1127.72,-178.5 1117.72,-175 1117.72,-182"/>
</a>
</g>
</g>
</g>
</svg>
