<?xml version="1.0" encoding="UTF-8" standalone="no"?>
<!DOCTYPE svg PUBLIC "-//W3C//DTD SVG 1.1//EN"
 "http://www.w3.org/Graphics/SVG/1.1/DTD/svg11.dtd">
<!-- Generated by graphviz version 2.43.0 (0)
 -->
<!-- Title: find_path Pages: 1 -->
<svg width="317pt" height="100pt"
 viewBox="0.00 0.00 317.00 100.00" xmlns="http://www.w3.org/2000/svg" xmlns:xlink="http://www.w3.org/1999/xlink">
<g id="graph0" class="graph" transform="scale(1 1) rotate(0) translate(4 96)">
<title>find_path</title>
<!-- Node1 -->
<g id="Node000001" class="node">
<title>Node1</title>
<g id="a_Node000001"><a xlink:title="Find the target path for cd command.">
<polygon fill="#999999" stroke="#666666" points="62,-64 0,-64 0,-45 62,-45 62,-64"/>
<text text-anchor="middle" x="31" y="-52" font-family="Helvetica,sans-Serif" font-size="10.00">find_path</text>
</a>
</g>
</g>
<!-- Node2 -->
<g id="Node000002" class="node">
<title>Node2</title>
<g id="a_Node000002"><a xlink:href="expand_8c.html#aaf941edbfdd3ac08d813ff01acc1f963" target="_top" xlink:title=" ">
<polygon fill="white" stroke="#666666" points="151,-92 98,-92 98,-73 151,-73 151,-92"/>
<text text-anchor="middle" x="124.5" y="-80" font-family="Helvetica,sans-Serif" font-size="10.00">free_ex</text>
</a>
</g>
</g>
<!-- Node1&#45;&gt;Node2 -->
<g id="edge1_Node000001_Node000002" class="edge">
<title>Node1&#45;&gt;Node2</title>
<g id="a_edge1_Node000001_Node000002"><a xlink:title=" ">
<path fill="none" stroke="#63b8ff" d="M62.21,-63.75C70.52,-66.29 79.6,-69.07 88.17,-71.69"/>
<polygon fill="#63b8ff" stroke="#63b8ff" points="87.32,-75.09 97.91,-74.67 89.37,-68.4 87.32,-75.09"/>
</a>
</g>
</g>
<!-- Node3 -->
<g id="Node000003" class="node">
<title>Node3</title>
<g id="a_Node000003"><a xlink:href="hashmap_8c.html#aa54a9eed65359c74557f0f55c9ca3dd3" target="_top" xlink:title="Get the variable from the dictionnary.">
<polygon fill="white" stroke="#666666" points="151,-37 98,-37 98,-18 151,-18 151,-37"/>
<text text-anchor="middle" x="124.5" y="-25" font-family="Helvetica,sans-Serif" font-size="10.00">get_var</text>
</a>
</g>
</g>
<!-- Node1&#45;&gt;Node3 -->
<g id="edge2_Node000001_Node000003" class="edge">
<title>Node1&#45;&gt;Node3</title>
<g id="a_edge2_Node000001_Node000003"><a xlink:title=" ">
<path fill="none" stroke="#63b8ff" d="M62.21,-45.58C70.52,-43.13 79.6,-40.45 88.17,-37.93"/>
<polygon fill="#63b8ff" stroke="#63b8ff" points="89.31,-41.24 97.91,-35.05 87.33,-34.52 89.31,-41.24"/>
</a>
</g>
</g>
<!-- Node3&#45;&gt;Node3 -->
<g id="edge3_Node000003_Node000003" class="edge">
<title>Node3&#45;&gt;Node3</title>
<g id="a_edge3_Node000003_Node000003"><a xlink:title=" ">
<path fill="none" stroke="#63b8ff" d="M110.94,-37.08C104.34,-45.73 108.86,-55 124.5,-55 134.03,-55 139.43,-51.56 140.71,-46.91"/>
<polygon fill="#63b8ff" stroke="#63b8ff" points="144.04,-45.83 138.06,-37.08 137.28,-47.65 144.04,-45.83"/>
</a>
</g>
</g>
<!-- Node4 -->
<g id="Node000004" class="node">
<title>Node4</title>
<g id="a_Node000004"><a xlink:href="hash_8c.html#ac74a7e29e54c223be6213463974d6154" target="_top" xlink:title=" ">
<polygon fill="white" stroke="#666666" points="232.5,-56 192.5,-56 192.5,-37 232.5,-37 232.5,-56"/>
<text text-anchor="middle" x="212.5" y="-44" font-family="Helvetica,sans-Serif" font-size="10.00">hash</text>
</a>
</g>
</g>
<!-- Node3&#45;&gt;Node4 -->
<g id="edge4_Node000003_Node000004" class="edge">
<title>Node3&#45;&gt;Node4</title>
<g id="a_edge4_Node000003_Node000004"><a xlink:title=" ">
<path fill="none" stroke="#63b8ff" d="M151.3,-33.2C161.07,-35.36 172.26,-37.83 182.31,-40.05"/>
<polygon fill="#63b8ff" stroke="#63b8ff" points="181.76,-43.51 192.28,-42.25 183.27,-36.68 181.76,-43.51"/>
</a>
</g>
</g>
<!-- Node5 -->
<g id="Node000005" class="node">
<title>Node5</title>
<g id="a_Node000005"><a xlink:href="hashmap_8c.html#a5b2c78a0a08d606dfbf21fe636373e6e" target="_top" xlink:title=" ">
<polygon fill="white" stroke="#666666" points="238,-19 187,-19 187,0 238,0 238,-19"/>
<text text-anchor="middle" x="212.5" y="-7" font-family="Helvetica,sans-Serif" font-size="10.00">special</text>
</a>
</g>
</g>
<!-- Node3&#45;&gt;Node5 -->
<g id="edge5_Node000003_Node000005" class="edge">
<title>Node3&#45;&gt;Node5</title>
<g id="a_edge5_Node000003_Node000005"><a xlink:title=" ">
<path fill="none" stroke="#63b8ff" d="M151.3,-22.1C159.41,-20.4 168.5,-18.5 177.1,-16.7"/>
<polygon fill="#63b8ff" stroke="#63b8ff" points="177.82,-20.12 186.9,-14.65 176.39,-13.27 177.82,-20.12"/>
</a>
</g>
</g>
<!-- Node6 -->
<g id="Node000006" class="node">
<title>Node6</title>
<g id="a_Node000006"><a xlink:href="itoa_8c.html#a43f392ec16afbe6cdb1ee6d1f1347f99" target="_top" xlink:title="Convert int to string.">
<polygon fill="white" stroke="#666666" points="309,-19 274,-19 274,0 309,0 309,-19"/>
<text text-anchor="middle" x="291.5" y="-7" font-family="Helvetica,sans-Serif" font-size="10.00">itoa</text>
</a>
</g>
</g>
<!-- Node5&#45;&gt;Node6 -->
<g id="edge6_Node000005_Node000006" class="edge">
<title>Node5&#45;&gt;Node6</title>
<g id="a_edge6_Node000005_Node000006"><a xlink:title=" ">
<path fill="none" stroke="#63b8ff" d="M238.29,-9.5C246.36,-9.5 255.35,-9.5 263.57,-9.5"/>
<polygon fill="#63b8ff" stroke="#63b8ff" points="263.79,-13 273.79,-9.5 263.79,-6 263.79,-13"/>
</a>
</g>
</g>
</g>
</svg>
