<?xml version="1.0" encoding="UTF-8" standalone="no"?>
<!DOCTYPE svg PUBLIC "-//W3C//DTD SVG 1.1//EN"
 "http://www.w3.org/Graphics/SVG/1.1/DTD/svg11.dtd">
<!-- Generated by graphviz version 2.43.0 (0)
 -->
<!-- Title: cd_b Pages: 1 -->
<svg width="1336pt" height="359pt"
 viewBox="0.00 0.00 1336.00 358.50" xmlns="http://www.w3.org/2000/svg" xmlns:xlink="http://www.w3.org/1999/xlink">
<g id="graph0" class="graph" transform="scale(1 1) rotate(0) translate(4 354.5)">
<title>cd_b</title>
<!-- Node1 -->
<g id="Node000001" class="node">
<title>Node1</title>
<g id="a_Node000001"><a xlink:title="Execute the cd builtin cmd.">
<polygon fill="#999999" stroke="#666666" points="39,-322 0,-322 0,-303 39,-303 39,-322"/>
<text text-anchor="middle" x="19.5" y="-310" font-family="Helvetica,sans-Serif" font-size="10.00">cd_b</text>
</a>
</g>
</g>
<!-- Node2 -->
<g id="Node000002" class="node">
<title>Node2</title>
<g id="a_Node000002"><a xlink:href="cd_8c.html#a5da9da23a18f984a482a5dec3bf3b37f" target="_top" xlink:title="Find the target path for cd command.">
<polygon fill="white" stroke="#666666" points="1013.5,-322 951.5,-322 951.5,-303 1013.5,-303 1013.5,-322"/>
<text text-anchor="middle" x="982.5" y="-310" font-family="Helvetica,sans-Serif" font-size="10.00">find_path</text>
</a>
</g>
</g>
<!-- Node1&#45;&gt;Node2 -->
<g id="edge1_Node000001_Node000002" class="edge">
<title>Node1&#45;&gt;Node2</title>
<g id="a_edge1_Node000001_Node000002"><a xlink:title=" ">
<path fill="none" stroke="#63b8ff" d="M39.18,-312.5C73.7,-312.5 149.84,-312.5 214,-312.5 214,-312.5 214,-312.5 715.5,-312.5 795.43,-312.5 888.86,-312.5 941.01,-312.5"/>
<polygon fill="#63b8ff" stroke="#63b8ff" points="941.18,-316 951.18,-312.5 941.18,-309 941.18,-316"/>
</a>
</g>
</g>
<!-- Node3 -->
<g id="Node000003" class="node">
<title>Node3</title>
<g id="a_Node000003"><a xlink:href="expand_8c.html#aaf941edbfdd3ac08d813ff01acc1f963" target="_top" xlink:title=" ">
<polygon fill="white" stroke="#666666" points="1141,-316 1088,-316 1088,-297 1141,-297 1141,-316"/>
<text text-anchor="middle" x="1114.5" y="-304" font-family="Helvetica,sans-Serif" font-size="10.00">free_ex</text>
</a>
</g>
</g>
<!-- Node1&#45;&gt;Node3 -->
<g id="edge8_Node000001_Node000003" class="edge">
<title>Node1&#45;&gt;Node3</title>
<g id="a_edge8_Node000001_Node000003"><a xlink:title=" ">
<path fill="none" stroke="#63b8ff" d="M39.21,-318.69C73.48,-329.46 148.78,-350.5 214,-350.5 214,-350.5 214,-350.5 860,-350.5 934.26,-350.5 953.16,-345.97 1026,-331.5 1043.29,-328.07 1062.13,-322.88 1077.88,-318.11"/>
<polygon fill="#63b8ff" stroke="#63b8ff" points="1079.22,-321.36 1087.74,-315.07 1077.15,-314.68 1079.22,-321.36"/>
</a>
</g>
</g>
<!-- Node8 -->
<g id="Node000008" class="node">
<title>Node8</title>
<g id="a_Node000008"><a xlink:href="cd_8c.html#a9eb5212e3fb105823c28e343ce5ca946" target="_top" xlink:title="Update PWD and OLDPWD vars after cd.">
<polygon fill="white" stroke="#666666" points="151,-284 75,-284 75,-265 151,-265 151,-284"/>
<text text-anchor="middle" x="113" y="-272" font-family="Helvetica,sans-Serif" font-size="10.00">update_pwd</text>
</a>
</g>
</g>
<!-- Node1&#45;&gt;Node8 -->
<g id="edge9_Node000001_Node000008" class="edge">
<title>Node1&#45;&gt;Node8</title>
<g id="a_edge9_Node000001_Node000008"><a xlink:title=" ">
<path fill="none" stroke="#63b8ff" d="M39.02,-304.81C50.61,-299.99 65.88,-293.65 79.46,-288.02"/>
<polygon fill="#63b8ff" stroke="#63b8ff" points="81.07,-291.14 88.96,-284.07 78.38,-284.67 81.07,-291.14"/>
</a>
</g>
</g>
<!-- Node2&#45;&gt;Node3 -->
<g id="edge2_Node000002_Node000003" class="edge">
<title>Node2&#45;&gt;Node3</title>
<g id="a_edge2_Node000002_Node000003"><a xlink:title=" ">
<path fill="none" stroke="#63b8ff" d="M1013.65,-311.11C1032.81,-310.22 1057.71,-309.07 1077.85,-308.15"/>
<polygon fill="#63b8ff" stroke="#63b8ff" points="1078.07,-311.64 1087.89,-307.68 1077.74,-304.65 1078.07,-311.64"/>
</a>
</g>
</g>
<!-- Node4 -->
<g id="Node000004" class="node">
<title>Node4</title>
<g id="a_Node000004"><a xlink:href="hashmap_8c.html#aa54a9eed65359c74557f0f55c9ca3dd3" target="_top" xlink:title="Get the variable from the dictionnary.">
<polygon fill="white" stroke="#666666" points="1141,-256 1088,-256 1088,-237 1141,-237 1141,-256"/>
<text text-anchor="middle" x="1114.5" y="-244" font-family="Helvetica,sans-Serif" font-size="10.00">get_var</text>
</a>
</g>
</g>
<!-- Node2&#45;&gt;Node4 -->
<g id="edge3_Node000002_Node000004" class="edge">
<title>Node2&#45;&gt;Node4</title>
<g id="a_edge3_Node000002_Node000004"><a xlink:title=" ">
<path fill="none" stroke="#63b8ff" d="M1002.4,-302.9C1024.26,-291.81 1060.44,-273.44 1085.55,-260.69"/>
<polygon fill="#63b8ff" stroke="#63b8ff" points="1087.24,-263.76 1094.57,-256.11 1084.07,-257.51 1087.24,-263.76"/>
</a>
</g>
</g>
<!-- Node4&#45;&gt;Node4 -->
<g id="edge4_Node000004_Node000004" class="edge">
<title>Node4&#45;&gt;Node4</title>
<g id="a_edge4_Node000004_Node000004"><a xlink:title=" ">
<path fill="none" stroke="#63b8ff" d="M1096.93,-256.08C1088.38,-264.73 1094.24,-274 1114.5,-274 1127.16,-274 1134.2,-270.38 1135.61,-265.55"/>
<polygon fill="#63b8ff" stroke="#63b8ff" points="1138.85,-264.22 1132.07,-256.08 1132.29,-266.68 1138.85,-264.22"/>
</a>
</g>
</g>
<!-- Node5 -->
<g id="Node000005" class="node">
<title>Node5</title>
<g id="a_Node000005"><a xlink:href="hash_8c.html#ac74a7e29e54c223be6213463974d6154" target="_top" xlink:title=" ">
<polygon fill="white" stroke="#666666" points="1250,-201 1210,-201 1210,-182 1250,-182 1250,-201"/>
<text text-anchor="middle" x="1230" y="-189" font-family="Helvetica,sans-Serif" font-size="10.00">hash</text>
</a>
</g>
</g>
<!-- Node4&#45;&gt;Node5 -->
<g id="edge5_Node000004_Node000005" class="edge">
<title>Node4&#45;&gt;Node5</title>
<g id="a_edge5_Node000004_Node000005"><a xlink:title=" ">
<path fill="none" stroke="#63b8ff" d="M1135.27,-236.92C1153.36,-228.15 1180.34,-215.08 1200.71,-205.21"/>
<polygon fill="#63b8ff" stroke="#63b8ff" points="1202.36,-208.3 1209.83,-200.79 1199.31,-202 1202.36,-208.3"/>
</a>
</g>
</g>
<!-- Node6 -->
<g id="Node000006" class="node">
<title>Node6</title>
<g id="a_Node000006"><a xlink:href="hashmap_8c.html#a5b2c78a0a08d606dfbf21fe636373e6e" target="_top" xlink:title=" ">
<polygon fill="white" stroke="#666666" points="1255.5,-256 1204.5,-256 1204.5,-237 1255.5,-237 1255.5,-256"/>
<text text-anchor="middle" x="1230" y="-244" font-family="Helvetica,sans-Serif" font-size="10.00">special</text>
</a>
</g>
</g>
<!-- Node4&#45;&gt;Node6 -->
<g id="edge6_Node000004_Node000006" class="edge">
<title>Node4&#45;&gt;Node6</title>
<g id="a_edge6_Node000004_Node000006"><a xlink:title=" ">
<path fill="none" stroke="#63b8ff" d="M1141.25,-246.5C1156.85,-246.5 1176.96,-246.5 1193.99,-246.5"/>
<polygon fill="#63b8ff" stroke="#63b8ff" points="1194.13,-250 1204.13,-246.5 1194.13,-243 1194.13,-250"/>
</a>
</g>
</g>
<!-- Node7 -->
<g id="Node000007" class="node">
<title>Node7</title>
<g id="a_Node000007"><a xlink:href="itoa_8c.html#a43f392ec16afbe6cdb1ee6d1f1347f99" target="_top" xlink:title="Convert int to string.">
<polygon fill="white" stroke="#666666" points="1328,-256 1293,-256 1293,-237 1328,-237 1328,-256"/>
<text text-anchor="middle" x="1310.5" y="-244" font-family="Helvetica,sans-Serif" font-size="10.00">itoa</text>
</a>
</g>
</g>
<!-- Node6&#45;&gt;Node7 -->
<g id="edge7_Node000006_Node000007" class="edge">
<title>Node6&#45;&gt;Node7</title>
<g id="a_edge7_Node000006_Node000007"><a xlink:title=" ">
<path fill="none" stroke="#63b8ff" d="M1255.84,-246.5C1264.4,-246.5 1274.02,-246.5 1282.72,-246.5"/>
<polygon fill="#63b8ff" stroke="#63b8ff" points="1282.76,-250 1292.76,-246.5 1282.76,-243 1282.76,-250"/>
</a>
</g>
</g>
<!-- Node8&#45;&gt;Node4 -->
<g id="edge30_Node000008_Node000004" class="edge">
<title>Node8&#45;&gt;Node4</title>
<g id="a_edge30_Node000008_Node000004"><a xlink:title=" ">
<path fill="none" stroke="#63b8ff" d="M151.12,-274.5C196.25,-274.5 274.71,-274.5 342,-274.5 342,-274.5 342,-274.5 860,-274.5 937.96,-274.5 1028.61,-261.25 1077.6,-252.98"/>
<polygon fill="#63b8ff" stroke="#63b8ff" points="1078.43,-256.39 1087.69,-251.25 1077.25,-249.49 1078.43,-256.39"/>
</a>
</g>
</g>
<!-- Node9 -->
<g id="Node000009" class="node">
<title>Node9</title>
<g id="a_Node000009"><a xlink:href="hashmap_8c.html#a3bf95c887f7eac3eb074725515feba49" target="_top" xlink:title="Add a variable to the dictionnary.">
<polygon fill="white" stroke="#666666" points="243,-72 187,-72 187,-53 243,-53 243,-72"/>
<text text-anchor="middle" x="215" y="-60" font-family="Helvetica,sans-Serif" font-size="10.00">add_var</text>
</a>
</g>
</g>
<!-- Node8&#45;&gt;Node9 -->
<g id="edge10_Node000008_Node000009" class="edge">
<title>Node8&#45;&gt;Node9</title>
<g id="a_edge10_Node000008_Node000009"><a xlink:title=" ">
<path fill="none" stroke="#63b8ff" d="M118.56,-264.84C133.98,-232.14 184.4,-125.24 205.06,-81.46"/>
<polygon fill="#63b8ff" stroke="#63b8ff" points="208.32,-82.75 209.42,-72.22 201.98,-79.77 208.32,-82.75"/>
</a>
</g>
</g>
<!-- Node9&#45;&gt;Node5 -->
<g id="edge28_Node000009_Node000005" class="edge">
<title>Node9&#45;&gt;Node5</title>
<g id="a_edge28_Node000009_Node000005"><a xlink:title=" ">
<path fill="none" stroke="#63b8ff" d="M243.24,-59.82C289.5,-55.5 386.38,-47.5 468.5,-47.5 468.5,-47.5 468.5,-47.5 983.5,-47.5 1069.03,-47.5 1097.69,-55.38 1167,-105.5 1191.38,-123.14 1209.91,-153.32 1220.12,-172.84"/>
<polygon fill="#63b8ff" stroke="#63b8ff" points="1217.07,-174.57 1224.68,-181.95 1223.33,-171.44 1217.07,-174.57"/>
</a>
</g>
</g>
<!-- Node10 -->
<g id="Node000010" class="node">
<title>Node10</title>
<g id="a_Node000010"><a xlink:href="hashmap_8c.html#aca86cd9ca85ac2e41fbb5c9e86ad6d6f" target="_top" xlink:title=" ">
<polygon fill="white" stroke="#666666" points="385.5,-128 300.5,-128 300.5,-109 385.5,-109 385.5,-128"/>
<text text-anchor="middle" x="343" y="-116" font-family="Helvetica,sans-Serif" font-size="10.00">expand_value</text>
</a>
</g>
</g>
<!-- Node9&#45;&gt;Node10 -->
<g id="edge11_Node000009_Node000010" class="edge">
<title>Node9&#45;&gt;Node10</title>
<g id="a_edge11_Node000009_Node000010"><a xlink:title=" ">
<path fill="none" stroke="#63b8ff" d="M237.66,-72.13C257.98,-81.16 288.56,-94.75 311.37,-104.89"/>
<polygon fill="#63b8ff" stroke="#63b8ff" points="310.06,-108.14 320.62,-109 312.91,-101.74 310.06,-108.14"/>
</a>
</g>
</g>
<!-- Node23 -->
<g id="Node000023" class="node">
<title>Node23</title>
<g id="a_Node000023"><a xlink:href="hashmap_8c.html#a5bcdd565d2ba5876c5ef1685625cdcfa" target="_top" xlink:title=" ">
<polygon fill="white" stroke="#666666" points="407,-19 279,-19 279,0 407,0 407,-19"/>
<text text-anchor="middle" x="343" y="-7" font-family="Helvetica,sans-Serif" font-size="10.00">update_or_append_var</text>
</a>
</g>
</g>
<!-- Node9&#45;&gt;Node23 -->
<g id="edge29_Node000009_Node000023" class="edge">
<title>Node9&#45;&gt;Node23</title>
<g id="a_edge29_Node000009_Node000023"><a xlink:title=" ">
<path fill="none" stroke="#63b8ff" d="M235.99,-52.88C248.3,-47.06 264.46,-39.61 279,-33.5 287.8,-29.8 297.38,-26.03 306.35,-22.6"/>
<polygon fill="#63b8ff" stroke="#63b8ff" points="307.67,-25.84 315.79,-19.03 305.2,-19.3 307.67,-25.84"/>
</a>
</g>
</g>
<!-- Node11 -->
<g id="Node000011" class="node">
<title>Node11</title>
<g id="a_Node000011"><a xlink:href="expand_8c.html#ae22ff4719527d6b2b8bca3e43f576837" target="_top" xlink:title=" ">
<polygon fill="white" stroke="#666666" points="496,-156 443,-156 443,-137 496,-137 496,-156"/>
<text text-anchor="middle" x="469.5" y="-144" font-family="Helvetica,sans-Serif" font-size="10.00">expand</text>
</a>
</g>
</g>
<!-- Node10&#45;&gt;Node11 -->
<g id="edge12_Node000010_Node000011" class="edge">
<title>Node10&#45;&gt;Node11</title>
<g id="a_edge12_Node000010_Node000011"><a xlink:title=" ">
<path fill="none" stroke="#63b8ff" d="M385.8,-127.9C401.19,-131.36 418.44,-135.24 433.2,-138.56"/>
<polygon fill="#63b8ff" stroke="#63b8ff" points="432.43,-141.98 442.96,-140.76 433.97,-135.15 432.43,-141.98"/>
</a>
</g>
</g>
<!-- Node11&#45;&gt;Node3 -->
<g id="edge27_Node000011_Node000003" class="edge">
<title>Node11&#45;&gt;Node3</title>
<g id="a_edge27_Node000011_Node000003"><a xlink:title=" ">
<path fill="none" stroke="#63b8ff" d="M485.15,-156.13C521.91,-179.35 621.72,-236.5 713.5,-236.5 713.5,-236.5 713.5,-236.5 860,-236.5 943.76,-236.5 1037.65,-272.45 1084.14,-292.82"/>
<polygon fill="#63b8ff" stroke="#63b8ff" points="1082.76,-296.04 1093.32,-296.91 1085.61,-289.64 1082.76,-296.04"/>
</a>
</g>
</g>
<!-- Node12 -->
<g id="Node000012" class="node">
<title>Node12</title>
<g id="a_Node000012"><a xlink:href="expand_8c.html#a492ca861a96ee6319b97b4b1d6ba9835" target="_top" xlink:title=" ">
<polygon fill="white" stroke="#666666" points="614,-156 532,-156 532,-137 614,-137 614,-156"/>
<text text-anchor="middle" x="573" y="-144" font-family="Helvetica,sans-Serif" font-size="10.00">expand_word</text>
</a>
</g>
</g>
<!-- Node11&#45;&gt;Node12 -->
<g id="edge13_Node000011_Node000012" class="edge">
<title>Node11&#45;&gt;Node12</title>
<g id="a_edge13_Node000011_Node000012"><a xlink:title=" ">
<path fill="none" stroke="#63b8ff" d="M496.11,-146.5C503.88,-146.5 512.7,-146.5 521.5,-146.5"/>
<polygon fill="#63b8ff" stroke="#63b8ff" points="521.78,-150 531.78,-146.5 521.78,-143 521.78,-150"/>
</a>
</g>
</g>
<!-- Node13 -->
<g id="Node000013" class="node">
<title>Node13</title>
<g id="a_Node000013"><a xlink:href="expand_8c.html#a97a675ffacb4b71f4f3b4a30749d9f66" target="_top" xlink:title=" ">
<polygon fill="white" stroke="#666666" points="754,-95 675,-95 675,-76 754,-76 754,-95"/>
<text text-anchor="middle" x="714.5" y="-83" font-family="Helvetica,sans-Serif" font-size="10.00">append_char</text>
</a>
</g>
</g>
<!-- Node12&#45;&gt;Node13 -->
<g id="edge14_Node000012_Node000013" class="edge">
<title>Node12&#45;&gt;Node13</title>
<g id="a_edge14_Node000012_Node000013"><a xlink:title=" ">
<path fill="none" stroke="#63b8ff" d="M588.6,-136.84C603.53,-127.31 627.62,-112.85 650,-103.5 654.77,-101.51 659.83,-99.66 664.93,-97.97"/>
<polygon fill="#63b8ff" stroke="#63b8ff" points="666.22,-101.23 674.71,-94.9 664.13,-94.55 666.22,-101.23"/>
</a>
</g>
</g>
<!-- Node14 -->
<g id="Node000014" class="node">
<title>Node14</title>
<g id="a_Node000014"><a xlink:href="expand_8c.html#a6d4728fd992669e4bb35624d37972179" target="_top" xlink:title=" ">
<polygon fill="white" stroke="#666666" points="779,-208 650,-208 650,-189 779,-189 779,-208"/>
<text text-anchor="middle" x="714.5" y="-196" font-family="Helvetica,sans-Serif" font-size="10.00">double_quotes_expand</text>
</a>
</g>
</g>
<!-- Node12&#45;&gt;Node14 -->
<g id="edge15_Node000012_Node000014" class="edge">
<title>Node12&#45;&gt;Node14</title>
<g id="a_edge15_Node000012_Node000014"><a xlink:title=" ">
<path fill="none" stroke="#63b8ff" d="M599.59,-156.04C621.57,-164.23 653.5,-176.13 677.96,-185.25"/>
<polygon fill="#63b8ff" stroke="#63b8ff" points="677.01,-188.63 687.6,-188.85 679.46,-182.07 677.01,-188.63"/>
</a>
</g>
</g>
<!-- Node17 -->
<g id="Node000017" class="node">
<title>Node17</title>
<g id="a_Node000017"><a xlink:href="expand_8c.html#a0a337c3a6b2595b2b8c03e171c9559ba" target="_top" xlink:title=" ">
<polygon fill="white" stroke="#666666" points="1019.5,-171 945.5,-171 945.5,-152 1019.5,-152 1019.5,-171"/>
<text text-anchor="middle" x="982.5" y="-159" font-family="Helvetica,sans-Serif" font-size="10.00">var_expand</text>
</a>
</g>
</g>
<!-- Node12&#45;&gt;Node17 -->
<g id="edge26_Node000012_Node000017" class="edge">
<title>Node12&#45;&gt;Node17</title>
<g id="a_edge26_Node000012_Node000017"><a xlink:title=" ">
<path fill="none" stroke="#63b8ff" d="M614.19,-147.98C690.19,-150.78 854.56,-156.83 935.11,-159.79"/>
<polygon fill="#63b8ff" stroke="#63b8ff" points="935.32,-163.3 945.44,-160.17 935.57,-156.31 935.32,-163.3"/>
</a>
</g>
</g>
<!-- Node22 -->
<g id="Node000022" class="node">
<title>Node22</title>
<g id="a_Node000022"><a xlink:href="expand_8c.html#ad45c8055962fa36940e109b04b7e562e" target="_top" xlink:title=" ">
<polygon fill="white" stroke="#666666" points="774.5,-132 654.5,-132 654.5,-113 774.5,-113 774.5,-132"/>
<text text-anchor="middle" x="714.5" y="-120" font-family="Helvetica,sans-Serif" font-size="10.00">single_quote_expand</text>
</a>
</g>
</g>
<!-- Node12&#45;&gt;Node22 -->
<g id="edge25_Node000012_Node000022" class="edge">
<title>Node12&#45;&gt;Node22</title>
<g id="a_edge25_Node000012_Node000022"><a xlink:title=" ">
<path fill="none" stroke="#63b8ff" d="M614.35,-139.56C624.93,-137.74 636.61,-135.73 648.14,-133.74"/>
<polygon fill="#63b8ff" stroke="#63b8ff" points="648.93,-137.16 658.19,-132.02 647.75,-130.26 648.93,-137.16"/>
</a>
</g>
</g>
<!-- Node15 -->
<g id="Node000015" class="node">
<title>Node15</title>
<g id="a_Node000015"><a xlink:href="expand_8c.html#a4a10ac07faa08df14e0a438c5feace6b" target="_top" xlink:title=" ">
<polygon fill="white" stroke="#666666" points="903,-208 815,-208 815,-189 903,-189 903,-208"/>
<text text-anchor="middle" x="859" y="-196" font-family="Helvetica,sans-Serif" font-size="10.00">in_dquote_exp</text>
</a>
</g>
</g>
<!-- Node14&#45;&gt;Node15 -->
<g id="edge16_Node000014_Node000015" class="edge">
<title>Node14&#45;&gt;Node15</title>
<g id="a_edge16_Node000014_Node000015"><a xlink:title=" ">
<path fill="none" stroke="#63b8ff" d="M779.25,-198.5C787.69,-198.5 796.27,-198.5 804.52,-198.5"/>
<polygon fill="#63b8ff" stroke="#63b8ff" points="804.74,-202 814.74,-198.5 804.74,-195 804.74,-202"/>
</a>
</g>
</g>
<!-- Node16 -->
<g id="Node000016" class="node">
<title>Node16</title>
<g id="a_Node000016"><a xlink:href="expand_8c.html#a46b3549565fede625ad04072f2654aa4" target="_top" xlink:title=" ">
<polygon fill="white" stroke="#666666" points="1026,-208 939,-208 939,-189 1026,-189 1026,-208"/>
<text text-anchor="middle" x="982.5" y="-196" font-family="Helvetica,sans-Serif" font-size="10.00">is_expandable</text>
</a>
</g>
</g>
<!-- Node15&#45;&gt;Node16 -->
<g id="edge17_Node000015_Node000016" class="edge">
<title>Node15&#45;&gt;Node16</title>
<g id="a_edge17_Node000015_Node000016"><a xlink:title=" ">
<path fill="none" stroke="#63b8ff" d="M903.18,-198.5C911.42,-198.5 920.14,-198.5 928.64,-198.5"/>
<polygon fill="#63b8ff" stroke="#63b8ff" points="928.87,-202 938.87,-198.5 928.87,-195 928.87,-202"/>
</a>
</g>
</g>
<!-- Node15&#45;&gt;Node17 -->
<g id="edge18_Node000015_Node000017" class="edge">
<title>Node15&#45;&gt;Node17</title>
<g id="a_edge18_Node000015_Node000017"><a xlink:title=" ">
<path fill="none" stroke="#63b8ff" d="M891.29,-188.97C906.2,-184.43 924.22,-178.94 940.23,-174.07"/>
<polygon fill="#63b8ff" stroke="#63b8ff" points="941.35,-177.39 949.89,-171.12 939.31,-170.69 941.35,-177.39"/>
</a>
</g>
</g>
<!-- Node17&#45;&gt;Node3 -->
<g id="edge19_Node000017_Node000003" class="edge">
<title>Node17&#45;&gt;Node3</title>
<g id="a_edge19_Node000017_Node000003"><a xlink:title=" ">
<path fill="none" stroke="#63b8ff" d="M1013.45,-171.1C1018.09,-173.6 1022.5,-176.69 1026,-180.5 1058.82,-216.2 1029.18,-247.8 1062,-283.5 1066.52,-288.42 1072.3,-292.35 1078.33,-295.47"/>
<polygon fill="#63b8ff" stroke="#63b8ff" points="1077.32,-298.86 1087.88,-299.73 1080.18,-292.46 1077.32,-298.86"/>
</a>
</g>
</g>
<!-- Node17&#45;&gt;Node4 -->
<g id="edge20_Node000017_Node000004" class="edge">
<title>Node17&#45;&gt;Node4</title>
<g id="a_edge20_Node000017_Node000004"><a xlink:title=" ">
<path fill="none" stroke="#63b8ff" d="M1009.07,-171.05C1014.87,-173.72 1020.83,-176.89 1026,-180.5 1044.81,-193.64 1043.82,-203.51 1062,-217.5 1068.8,-222.74 1076.66,-227.65 1084.16,-231.89"/>
<polygon fill="#63b8ff" stroke="#63b8ff" points="1082.89,-235.18 1093.35,-236.87 1086.23,-229.03 1082.89,-235.18"/>
</a>
</g>
</g>
<!-- Node18 -->
<g id="Node000018" class="node">
<title>Node18</title>
<g id="a_Node000018"><a xlink:href="expand_8c.html#ac1225d88933658edb6e51e4ed8f003c3" target="_top" xlink:title=" ">
<polygon fill="white" stroke="#666666" points="1151,-208 1078,-208 1078,-189 1151,-189 1151,-208"/>
<text text-anchor="middle" x="1114.5" y="-196" font-family="Helvetica,sans-Serif" font-size="10.00">val_append</text>
</a>
</g>
</g>
<!-- Node17&#45;&gt;Node18 -->
<g id="edge21_Node000017_Node000018" class="edge">
<title>Node17&#45;&gt;Node18</title>
<g id="a_edge21_Node000017_Node000018"><a xlink:title=" ">
<path fill="none" stroke="#63b8ff" d="M1016.98,-171.03C1033.08,-175.61 1052.58,-181.16 1069.83,-186.07"/>
<polygon fill="#63b8ff" stroke="#63b8ff" points="1069.11,-189.5 1079.68,-188.88 1071.02,-182.77 1069.11,-189.5"/>
</a>
</g>
</g>
<!-- Node19 -->
<g id="Node000019" class="node">
<title>Node19</title>
<g id="a_Node000019"><a xlink:href="expand_8c.html#aa0106a12d15398cad9ca20f96f1eb374" target="_top" xlink:title=" ">
<polygon fill="white" stroke="#666666" points="1158.5,-171 1070.5,-171 1070.5,-152 1158.5,-152 1158.5,-171"/>
<text text-anchor="middle" x="1114.5" y="-159" font-family="Helvetica,sans-Serif" font-size="10.00">var_exp_brack</text>
</a>
</g>
</g>
<!-- Node17&#45;&gt;Node19 -->
<g id="edge22_Node000017_Node000019" class="edge">
<title>Node17&#45;&gt;Node19</title>
<g id="a_edge22_Node000017_Node000019"><a xlink:title=" ">
<path fill="none" stroke="#63b8ff" d="M1019.71,-161.5C1032.16,-161.5 1046.38,-161.5 1059.92,-161.5"/>
<polygon fill="#63b8ff" stroke="#63b8ff" points="1060.1,-165 1070.1,-161.5 1060.1,-158 1060.1,-165"/>
</a>
</g>
</g>
<!-- Node20 -->
<g id="Node000020" class="node">
<title>Node20</title>
<g id="a_Node000020"><a xlink:href="expand_8c.html#a5785fb584914d075e9a5d933e903823c" target="_top" xlink:title=" ">
<polygon fill="white" stroke="#666666" points="1167,-134 1062,-134 1062,-115 1167,-115 1167,-134"/>
<text text-anchor="middle" x="1114.5" y="-122" font-family="Helvetica,sans-Serif" font-size="10.00">var_exp_no_brack</text>
</a>
</g>
</g>
<!-- Node17&#45;&gt;Node20 -->
<g id="edge23_Node000017_Node000020" class="edge">
<title>Node17&#45;&gt;Node20</title>
<g id="a_edge23_Node000017_Node000020"><a xlink:title=" ">
<path fill="none" stroke="#63b8ff" d="M1016.98,-151.97C1033.08,-147.39 1052.58,-141.84 1069.83,-136.93"/>
<polygon fill="#63b8ff" stroke="#63b8ff" points="1071.02,-140.23 1079.68,-134.12 1069.11,-133.5 1071.02,-140.23"/>
</a>
</g>
</g>
<!-- Node21 -->
<g id="Node000021" class="node">
<title>Node21</title>
<g id="a_Node000021"><a xlink:href="expand_8c.html#a66cc7be396f0ef502a888b56eee2f4bf" target="_top" xlink:title=" ">
<polygon fill="white" stroke="#666666" points="1257,-134 1203,-134 1203,-115 1257,-115 1257,-134"/>
<text text-anchor="middle" x="1230" y="-122" font-family="Helvetica,sans-Serif" font-size="10.00">is_word</text>
</a>
</g>
</g>
<!-- Node20&#45;&gt;Node21 -->
<g id="edge24_Node000020_Node000021" class="edge">
<title>Node20&#45;&gt;Node21</title>
<g id="a_edge24_Node000020_Node000021"><a xlink:title=" ">
<path fill="none" stroke="#63b8ff" d="M1167.27,-124.5C1175.8,-124.5 1184.49,-124.5 1192.55,-124.5"/>
<polygon fill="#63b8ff" stroke="#63b8ff" points="1192.72,-128 1202.72,-124.5 1192.72,-121 1192.72,-128"/>
</a>
</g>
</g>
</g>
</svg>
