<?xml version="1.0" encoding="UTF-8" standalone="no"?>
<!DOCTYPE svg PUBLIC "-//W3C//DTD SVG 1.1//EN"
 "http://www.w3.org/Graphics/SVG/1.1/DTD/svg11.dtd">
<!-- Generated by graphviz version 2.43.0 (0)
 -->
<!-- Title: src Pages: 1 -->
<svg width="316pt" height="389pt"
 viewBox="0.00 0.00 316.00 389.00" xmlns="http://www.w3.org/2000/svg" xmlns:xlink="http://www.w3.org/1999/xlink">
<g id="graph0" class="graph" transform="scale(1 1) rotate(0) translate(4 385)">
<title>src</title>
<g id="clust1" class="cluster">
<title>clusterdir_68267d1309a1af8e8297ef4c3efbcdba</title>
<g id="a_clust1"><a xlink:href="dir_68267d1309a1af8e8297ef4c3efbcdba.html" target="_top">
<polygon fill="#edf0f7" stroke="#404040" stroke-width="2" points="8,-8 8,-373 300,-373 300,-8 8,-8"/>
</a>
</g>
</g>
<!-- dir_68267d1309a1af8e8297ef4c3efbcdba -->
<g id="node1" class="node">
<title>dir_68267d1309a1af8e8297ef4c3efbcdba</title>
<text text-anchor="middle" x="223" y="-353" font-family="Helvetica,sans-Serif" font-size="10.00">src</text>
</g>
<!-- dir_203e5988f1ed315d29383d699972de6f -->
<g id="node2" class="node">
<title>dir_203e5988f1ed315d29383d699972de6f</title>
<g id="a_node2"><a xlink:href="dir_203e5988f1ed315d29383d699972de6f.html" target="_top" xlink:title="ast">
<polygon fill="#a2b4d6" stroke="#404040" points="180,-310 148,-310 148,-291 180,-291 180,-310"/>
<text text-anchor="middle" x="164" y="-298" font-family="Helvetica,sans-Serif" font-size="10.00">ast</text>
</a>
</g>
</g>
<!-- dir_68267d1309a1af8e8297ef4c3efbcdba&#45;&gt;dir_203e5988f1ed315d29383d699972de6f -->
<g id="edge1" class="edge">
<title>dir_68267d1309a1af8e8297ef4c3efbcdba&#45;&gt;dir_203e5988f1ed315d29383d699972de6f</title>
<g id="a_edge1"><a xlink:href="dir_000007_000000.html" target="_top">
<path fill="none" stroke="#63b8ff" d="M213.52,-345.98C204.8,-338.15 191.66,-326.34 181.1,-316.86"/>
<polygon fill="#63b8ff" stroke="#63b8ff" points="183.43,-314.25 173.65,-310.17 178.75,-319.46 183.43,-314.25"/>
</a>
</g>
<g id="a_edge1&#45;headlabel"><a xlink:href="dir_000007_000000.html" target="_top" xlink:title="11">
<text text-anchor="middle" x="188" y="-312.04" font-family="Helvetica,sans-Serif" font-size="10.00" fill="#63b8ff">11</text>
</a>
</g>
</g>
<!-- dir_e5986d01aae1422d724ecb71d884ed82 -->
<g id="node5" class="node">
<title>dir_e5986d01aae1422d724ecb71d884ed82</title>
<g id="a_node5"><a xlink:href="dir_e5986d01aae1422d724ecb71d884ed82.html" target="_top" xlink:title="expand">
<polygon fill="#a2b4d6" stroke="#404040" points="229.5,-90 176.5,-90 176.5,-71 229.5,-71 229.5,-90"/>
<text text-anchor="middle" x="203" y="-78" font-family="Helvetica,sans-Serif" font-size="10.00">expand</text>
</a>
</g>
</g>
<!-- dir_68267d1309a1af8e8297ef4c3efbcdba&#45;&gt;dir_e5986d01aae1422d724ecb71d884ed82 -->
<g id="edge5" class="edge">
<title>dir_68267d1309a1af8e8297ef4c3efbcdba&#45;&gt;dir_e5986d01aae1422d724ecb71d884ed82</title>
<g id="a_edge5"><a xlink:href="dir_000007_000003.html" target="_top">
<path fill="none" stroke="#63b8ff" d="M223,-345.82C223,-327.48 223,-283.44 223,-246.5 223,-246.5 223,-246.5 223,-189.5 223,-157.51 214.41,-121.07 208.49,-99.75"/>
<polygon fill="#63b8ff" stroke="#63b8ff" points="211.84,-98.71 205.7,-90.08 205.11,-100.66 211.84,-98.71"/>
</a>
</g>
<g id="a_edge5&#45;headlabel"><a xlink:href="dir_000007_000003.html" target="_top" xlink:title="9">
<text text-anchor="middle" x="215.56" y="-98.88" font-family="Helvetica,sans-Serif" font-size="10.00" fill="#63b8ff">9</text>
</a>
</g>
</g>
<!-- dir_c184e51c84f2c3f0345bbc8a0d75d3e1 -->
<g id="node6" class="node">
<title>dir_c184e51c84f2c3f0345bbc8a0d75d3e1</title>
<g id="a_node6"><a xlink:href="dir_c184e51c84f2c3f0345bbc8a0d75d3e1.html" target="_top" xlink:title="io">
<polygon fill="#a2b4d6" stroke="#404040" points="271.5,-145 242.5,-145 242.5,-126 271.5,-126 271.5,-145"/>
<text text-anchor="middle" x="257" y="-133" font-family="Helvetica,sans-Serif" font-size="10.00">io</text>
</a>
</g>
</g>
<!-- dir_68267d1309a1af8e8297ef4c3efbcdba&#45;&gt;dir_c184e51c84f2c3f0345bbc8a0d75d3e1 -->
<g id="edge4" class="edge">
<title>dir_68267d1309a1af8e8297ef4c3efbcdba&#45;&gt;dir_c184e51c84f2c3f0345bbc8a0d75d3e1</title>
<g id="a_edge4"><a xlink:href="dir_000007_000004.html" target="_top">
<path fill="none" stroke="#63b8ff" d="M224.33,-345.95C229.34,-313.88 247.07,-200.2 254.1,-155.12"/>
<polygon fill="#63b8ff" stroke="#63b8ff" points="257.56,-155.64 255.64,-145.22 250.64,-154.56 257.56,-155.64"/>
</a>
</g>
<g id="a_edge4&#45;headlabel"><a xlink:href="dir_000007_000004.html" target="_top" xlink:title="1">
<text text-anchor="middle" x="259.81" y="-157.13" font-family="Helvetica,sans-Serif" font-size="10.00" fill="#63b8ff">1</text>
</a>
</g>
</g>
<!-- dir_6cd8491d143eb218b70983dbdb3c58bc -->
<g id="node8" class="node">
<title>dir_6cd8491d143eb218b70983dbdb3c58bc</title>
<g id="a_node8"><a xlink:href="dir_6cd8491d143eb218b70983dbdb3c58bc.html" target="_top" xlink:title="parser">
<polygon fill="#a2b4d6" stroke="#404040" points="123.5,-145 76.5,-145 76.5,-126 123.5,-126 123.5,-145"/>
<text text-anchor="middle" x="100" y="-133" font-family="Helvetica,sans-Serif" font-size="10.00">parser</text>
</a>
</g>
</g>
<!-- dir_68267d1309a1af8e8297ef4c3efbcdba&#45;&gt;dir_6cd8491d143eb218b70983dbdb3c58bc -->
<g id="edge3" class="edge">
<title>dir_68267d1309a1af8e8297ef4c3efbcdba&#45;&gt;dir_6cd8491d143eb218b70983dbdb3c58bc</title>
<g id="a_edge3"><a xlink:href="dir_000007_000006.html" target="_top">
<path fill="none" stroke="#63b8ff" d="M207.32,-348.46C189.54,-341.12 160.28,-327.52 139,-310 90.45,-270.03 70.98,-259.28 50,-200 47.18,-192.04 46.54,-188.7 50,-181 55.5,-168.74 66.23,-158.48 76.35,-150.91"/>
<polygon fill="#63b8ff" stroke="#63b8ff" points="78.35,-153.78 84.57,-145.2 74.36,-148.03 78.35,-153.78"/>
</a>
</g>
<g id="a_edge3&#45;headlabel"><a xlink:href="dir_000007_000006.html" target="_top" xlink:title="2">
<text text-anchor="middle" x="77.02" y="-155.66" font-family="Helvetica,sans-Serif" font-size="10.00" fill="#63b8ff">2</text>
</a>
</g>
</g>
<!-- dir_313caf1132e152dd9b58bea13a4052ca -->
<g id="node9" class="node">
<title>dir_313caf1132e152dd9b58bea13a4052ca</title>
<g id="a_node9"><a xlink:href="dir_313caf1132e152dd9b58bea13a4052ca.html" target="_top" xlink:title="utils">
<polygon fill="#a2b4d6" stroke="#404040" points="146,-35 108,-35 108,-16 146,-16 146,-35"/>
<text text-anchor="middle" x="127" y="-23" font-family="Helvetica,sans-Serif" font-size="10.00">utils</text>
</a>
</g>
</g>
<!-- dir_68267d1309a1af8e8297ef4c3efbcdba&#45;&gt;dir_313caf1132e152dd9b58bea13a4052ca -->
<g id="edge2" class="edge">
<title>dir_68267d1309a1af8e8297ef4c3efbcdba&#45;&gt;dir_313caf1132e152dd9b58bea13a4052ca</title>
<g id="a_edge2"><a xlink:href="dir_000007_000008.html" target="_top">
<path fill="none" stroke="#63b8ff" d="M233.33,-345.87C252.35,-328.93 291,-289.26 291,-246.5 291,-246.5 291,-246.5 291,-134.5 291,-70.64 203.18,-42.41 156.07,-31.86"/>
<polygon fill="#63b8ff" stroke="#63b8ff" points="156.64,-28.4 146.13,-29.76 155.2,-35.25 156.64,-28.4"/>
</a>
</g>
<g id="a_edge2&#45;headlabel"><a xlink:href="dir_000007_000008.html" target="_top" xlink:title="13">
<text text-anchor="middle" x="160.74" y="-23.87" font-family="Helvetica,sans-Serif" font-size="10.00" fill="#63b8ff">13</text>
</a>
</g>
</g>
<!-- dir_373c2c7059a28a5fb56f71d9101aecc4 -->
<g id="node3" class="node">
<title>dir_373c2c7059a28a5fb56f71d9101aecc4</title>
<g id="a_node3"><a xlink:href="dir_373c2c7059a28a5fb56f71d9101aecc4.html" target="_top" xlink:title="builtin">
<polygon fill="#a2b4d6" stroke="#404040" points="105.5,-200 58.5,-200 58.5,-181 105.5,-181 105.5,-200"/>
<text text-anchor="middle" x="82" y="-188" font-family="Helvetica,sans-Serif" font-size="10.00">builtin</text>
</a>
</g>
</g>
<!-- dir_203e5988f1ed315d29383d699972de6f&#45;&gt;dir_373c2c7059a28a5fb56f71d9101aecc4 -->
<g id="edge7" class="edge">
<title>dir_203e5988f1ed315d29383d699972de6f&#45;&gt;dir_373c2c7059a28a5fb56f71d9101aecc4</title>
<g id="a_edge7"><a xlink:href="dir_000000_000001.html" target="_top">
<path fill="none" stroke="#63b8ff" d="M154.22,-290.89C144.81,-282.34 130.52,-268.57 120,-255 108.71,-240.44 98.14,-222.26 91.03,-209.09"/>
<polygon fill="#63b8ff" stroke="#63b8ff" points="94.07,-207.35 86.31,-200.13 87.88,-210.61 94.07,-207.35"/>
</a>
</g>
<g id="a_edge7&#45;headlabel"><a xlink:href="dir_000000_000001.html" target="_top" xlink:title="1">
<text text-anchor="middle" x="98.26" y="-206.71" font-family="Helvetica,sans-Serif" font-size="10.00" fill="#63b8ff">1</text>
</a>
</g>
</g>
<!-- dir_cd44cc7ac5d40f1a8e481ebacd0c63d5 -->
<g id="node4" class="node">
<title>dir_cd44cc7ac5d40f1a8e481ebacd0c63d5</title>
<g id="a_node4"><a xlink:href="dir_cd44cc7ac5d40f1a8e481ebacd0c63d5.html" target="_top" xlink:title="exec">
<polygon fill="#a2b4d6" stroke="#404040" points="183.5,-255 144.5,-255 144.5,-236 183.5,-236 183.5,-255"/>
<text text-anchor="middle" x="164" y="-243" font-family="Helvetica,sans-Serif" font-size="10.00">exec</text>
</a>
</g>
</g>
<!-- dir_203e5988f1ed315d29383d699972de6f&#45;&gt;dir_cd44cc7ac5d40f1a8e481ebacd0c63d5 -->
<g id="edge8" class="edge">
<title>dir_203e5988f1ed315d29383d699972de6f&#45;&gt;dir_cd44cc7ac5d40f1a8e481ebacd0c63d5</title>
<g id="a_edge8"><a xlink:href="dir_000000_000002.html" target="_top">
<path fill="none" stroke="#63b8ff" d="M158.83,-290.75C157.34,-283.8 156.9,-273.85 157.52,-265.13"/>
<polygon fill="#63b8ff" stroke="#63b8ff" points="161.01,-265.47 158.87,-255.09 154.07,-264.53 161.01,-265.47"/>
</a>
</g>
<g id="a_edge8&#45;headlabel"><a xlink:href="dir_000000_000002.html" target="_top" xlink:title="2">
<text text-anchor="middle" x="163.34" y="-266.91" font-family="Helvetica,sans-Serif" font-size="10.00" fill="#63b8ff">2</text>
</a>
</g>
</g>
<!-- dir_203e5988f1ed315d29383d699972de6f&#45;&gt;dir_e5986d01aae1422d724ecb71d884ed82 -->
<g id="edge9" class="edge">
<title>dir_203e5988f1ed315d29383d699972de6f&#45;&gt;dir_e5986d01aae1422d724ecb71d884ed82</title>
<g id="a_edge9"><a xlink:href="dir_000000_000003.html" target="_top">
<path fill="none" stroke="#63b8ff" d="M164.8,-290.69C169.72,-282.2 179.51,-268.67 184,-255 201.7,-201.14 198.8,-132.86 199.57,-100.36"/>
<polygon fill="#63b8ff" stroke="#63b8ff" points="203.08,-100.25 200.06,-90.09 196.09,-99.91 203.08,-100.25"/>
</a>
</g>
<g id="a_edge9&#45;headlabel"><a xlink:href="dir_000000_000003.html" target="_top" xlink:title="1">
<text text-anchor="middle" x="205.74" y="-101.48" font-family="Helvetica,sans-Serif" font-size="10.00" fill="#63b8ff">1</text>
</a>
</g>
</g>
<!-- dir_203e5988f1ed315d29383d699972de6f&#45;&gt;dir_313caf1132e152dd9b58bea13a4052ca -->
<g id="edge6" class="edge">
<title>dir_203e5988f1ed315d29383d699972de6f&#45;&gt;dir_313caf1132e152dd9b58bea13a4052ca</title>
<g id="a_edge6"><a xlink:href="dir_000000_000008.html" target="_top">
<path fill="none" stroke="#63b8ff" d="M147.8,-294.07C118.89,-281.59 61.22,-248.21 41,-200 18.82,-147.11 8.93,-120.44 38,-71 50.46,-49.81 77.07,-37.98 98.17,-31.94"/>
<polygon fill="#63b8ff" stroke="#63b8ff" points="99.18,-35.29 108,-29.42 97.44,-28.51 99.18,-35.29"/>
</a>
</g>
<g id="a_edge6&#45;headlabel"><a xlink:href="dir_000000_000008.html" target="_top" xlink:title="2">
<text text-anchor="middle" x="96.4" y="-36.43" font-family="Helvetica,sans-Serif" font-size="10.00" fill="#63b8ff">2</text>
</a>
</g>
</g>
<!-- dir_373c2c7059a28a5fb56f71d9101aecc4&#45;&gt;dir_e5986d01aae1422d724ecb71d884ed82 -->
<g id="edge13" class="edge">
<title>dir_373c2c7059a28a5fb56f71d9101aecc4&#45;&gt;dir_e5986d01aae1422d724ecb71d884ed82</title>
<g id="a_edge13"><a xlink:href="dir_000001_000003.html" target="_top">
<path fill="none" stroke="#63b8ff" d="M92.21,-180.69C102.54,-171.76 118.95,-157.5 133,-145 151.24,-128.77 171.93,-109.96 186.05,-97.04"/>
<polygon fill="#63b8ff" stroke="#63b8ff" points="188.53,-99.52 193.54,-90.19 183.8,-94.36 188.53,-99.52"/>
</a>
</g>
<g id="a_edge13&#45;headlabel"><a xlink:href="dir_000001_000003.html" target="_top" xlink:title="4">
<text text-anchor="middle" x="187.79" y="-101.54" font-family="Helvetica,sans-Serif" font-size="10.00" fill="#63b8ff">4</text>
</a>
</g>
</g>
<!-- dir_e1aa690b4af0a0538ec65649b0390051 -->
<g id="node7" class="node">
<title>dir_e1aa690b4af0a0538ec65649b0390051</title>
<g id="a_node7"><a xlink:href="dir_e1aa690b4af0a0538ec65649b0390051.html" target="_top" xlink:title="lexer">
<polygon fill="#a2b4d6" stroke="#404040" points="107.5,-90 66.5,-90 66.5,-71 107.5,-71 107.5,-90"/>
<text text-anchor="middle" x="87" y="-78" font-family="Helvetica,sans-Serif" font-size="10.00">lexer</text>
</a>
</g>
</g>
<!-- dir_373c2c7059a28a5fb56f71d9101aecc4&#45;&gt;dir_e1aa690b4af0a0538ec65649b0390051 -->
<g id="edge12" class="edge">
<title>dir_373c2c7059a28a5fb56f71d9101aecc4&#45;&gt;dir_e1aa690b4af0a0538ec65649b0390051</title>
<g id="a_edge12"><a xlink:href="dir_000001_000005.html" target="_top">
<path fill="none" stroke="#63b8ff" d="M77.77,-180.89C72.31,-168.7 63.97,-145.69 68,-126 69.89,-116.74 73.79,-107.03 77.57,-99.04"/>
<polygon fill="#63b8ff" stroke="#63b8ff" points="80.74,-100.53 82.12,-90.02 74.49,-97.37 80.74,-100.53"/>
</a>
</g>
<g id="a_edge12&#45;headlabel"><a xlink:href="dir_000001_000005.html" target="_top" xlink:title="1">
<text text-anchor="middle" x="81.65" y="-102.52" font-family="Helvetica,sans-Serif" font-size="10.00" fill="#63b8ff">1</text>
</a>
</g>
</g>
<!-- dir_373c2c7059a28a5fb56f71d9101aecc4&#45;&gt;dir_6cd8491d143eb218b70983dbdb3c58bc -->
<g id="edge11" class="edge">
<title>dir_373c2c7059a28a5fb56f71d9101aecc4&#45;&gt;dir_6cd8491d143eb218b70983dbdb3c58bc</title>
<g id="a_edge11"><a xlink:href="dir_000001_000006.html" target="_top">
<path fill="none" stroke="#63b8ff" d="M84.97,-180.75C87.36,-173.72 90.79,-163.62 93.77,-154.84"/>
<polygon fill="#63b8ff" stroke="#63b8ff" points="97.18,-155.68 97.08,-145.09 90.55,-153.43 97.18,-155.68"/>
</a>
</g>
<g id="a_edge11&#45;headlabel"><a xlink:href="dir_000001_000006.html" target="_top" xlink:title="1">
<text text-anchor="middle" x="98.71" y="-157.5" font-family="Helvetica,sans-Serif" font-size="10.00" fill="#63b8ff">1</text>
</a>
</g>
</g>
<!-- dir_373c2c7059a28a5fb56f71d9101aecc4&#45;&gt;dir_313caf1132e152dd9b58bea13a4052ca -->
<g id="edge10" class="edge">
<title>dir_373c2c7059a28a5fb56f71d9101aecc4&#45;&gt;dir_313caf1132e152dd9b58bea13a4052ca</title>
<g id="a_edge10"><a xlink:href="dir_000001_000008.html" target="_top">
<path fill="none" stroke="#63b8ff" d="M76.54,-180.88C64.38,-160.49 37.71,-108.23 58,-71 66.62,-55.19 83.53,-44.15 98.46,-37.02"/>
<polygon fill="#63b8ff" stroke="#63b8ff" points="100.12,-40.11 107.87,-32.88 97.31,-33.7 100.12,-40.11"/>
</a>
</g>
<g id="a_edge10&#45;headlabel"><a xlink:href="dir_000001_000008.html" target="_top" xlink:title="1">
<text text-anchor="middle" x="97.97" y="-41.65" font-family="Helvetica,sans-Serif" font-size="10.00" fill="#63b8ff">1</text>
</a>
</g>
</g>
<!-- dir_cd44cc7ac5d40f1a8e481ebacd0c63d5&#45;&gt;dir_203e5988f1ed315d29383d699972de6f -->
<g id="edge14" class="edge">
<title>dir_cd44cc7ac5d40f1a8e481ebacd0c63d5&#45;&gt;dir_203e5988f1ed315d29383d699972de6f</title>
<g id="a_edge14"><a xlink:href="dir_000002_000000.html" target="_top">
<path fill="none" stroke="#63b8ff" d="M169.13,-255.09C170.64,-261.99 171.09,-271.93 170.49,-280.66"/>
<polygon fill="#63b8ff" stroke="#63b8ff" points="167,-280.38 169.17,-290.75 173.94,-281.29 167,-280.38"/>
</a>
</g>
<g id="a_edge14&#45;headlabel"><a xlink:href="dir_000002_000000.html" target="_top" xlink:title="1">
<text text-anchor="middle" x="164.65" y="-273.94" font-family="Helvetica,sans-Serif" font-size="10.00" fill="#63b8ff">1</text>
</a>
</g>
</g>
<!-- dir_cd44cc7ac5d40f1a8e481ebacd0c63d5&#45;&gt;dir_373c2c7059a28a5fb56f71d9101aecc4 -->
<g id="edge16" class="edge">
<title>dir_cd44cc7ac5d40f1a8e481ebacd0c63d5&#45;&gt;dir_373c2c7059a28a5fb56f71d9101aecc4</title>
<g id="a_edge16"><a xlink:href="dir_000002_000001.html" target="_top">
<path fill="none" stroke="#63b8ff" d="M150.83,-235.98C138.23,-227.84 119,-215.41 104.06,-205.76"/>
<polygon fill="#63b8ff" stroke="#63b8ff" points="105.71,-202.66 95.41,-200.17 101.91,-208.54 105.71,-202.66"/>
</a>
</g>
<g id="a_edge16&#45;headlabel"><a xlink:href="dir_000002_000001.html" target="_top" xlink:title="7">
<text text-anchor="middle" x="110.27" y="-199.73" font-family="Helvetica,sans-Serif" font-size="10.00" fill="#63b8ff">7</text>
</a>
</g>
</g>
<!-- dir_cd44cc7ac5d40f1a8e481ebacd0c63d5&#45;&gt;dir_e5986d01aae1422d724ecb71d884ed82 -->
<g id="edge17" class="edge">
<title>dir_cd44cc7ac5d40f1a8e481ebacd0c63d5&#45;&gt;dir_e5986d01aae1422d724ecb71d884ed82</title>
<g id="a_edge17"><a xlink:href="dir_000002_000003.html" target="_top">
<path fill="none" stroke="#63b8ff" d="M166.1,-235.74C172.21,-210.2 190.1,-135.43 198.52,-100.23"/>
<polygon fill="#63b8ff" stroke="#63b8ff" points="201.97,-100.85 200.89,-90.31 195.16,-99.22 201.97,-100.85"/>
</a>
</g>
<g id="a_edge17&#45;headlabel"><a xlink:href="dir_000002_000003.html" target="_top" xlink:title="1">
<text text-anchor="middle" x="203.89" y="-102.5" font-family="Helvetica,sans-Serif" font-size="10.00" fill="#63b8ff">1</text>
</a>
</g>
</g>
<!-- dir_cd44cc7ac5d40f1a8e481ebacd0c63d5&#45;&gt;dir_313caf1132e152dd9b58bea13a4052ca -->
<g id="edge15" class="edge">
<title>dir_cd44cc7ac5d40f1a8e481ebacd0c63d5&#45;&gt;dir_313caf1132e152dd9b58bea13a4052ca</title>
<g id="a_edge15"><a xlink:href="dir_000002_000008.html" target="_top">
<path fill="none" stroke="#63b8ff" d="M162.55,-235.95C157.11,-203.88 137.81,-90.2 130.16,-45.12"/>
<polygon fill="#63b8ff" stroke="#63b8ff" points="133.6,-44.5 128.48,-35.22 126.7,-45.67 133.6,-44.5"/>
</a>
</g>
<g id="a_edge15&#45;headlabel"><a xlink:href="dir_000002_000008.html" target="_top" xlink:title="3">
<text text-anchor="middle" x="137.01" y="-45.07" font-family="Helvetica,sans-Serif" font-size="10.00" fill="#63b8ff">3</text>
</a>
</g>
</g>
<!-- dir_e5986d01aae1422d724ecb71d884ed82&#45;&gt;dir_203e5988f1ed315d29383d699972de6f -->
<g id="edge18" class="edge">
<title>dir_e5986d01aae1422d724ecb71d884ed82&#45;&gt;dir_203e5988f1ed315d29383d699972de6f</title>
<g id="a_edge18"><a xlink:href="dir_000003_000000.html" target="_top">
<path fill="none" stroke="#63b8ff" d="M207.99,-90.09C215.78,-115.87 221.88,-194.52 202,-255 198.67,-265.14 192.42,-275.21 185.74,-283.2"/>
<polygon fill="#63b8ff" stroke="#63b8ff" points="183.01,-281 178.73,-290.69 188.12,-285.78 183.01,-281"/>
</a>
</g>
<g id="a_edge18&#45;headlabel"><a xlink:href="dir_000003_000000.html" target="_top" xlink:title="2">
<text text-anchor="middle" x="183.39" y="-273.93" font-family="Helvetica,sans-Serif" font-size="10.00" fill="#63b8ff">2</text>
</a>
</g>
</g>
<!-- dir_e5986d01aae1422d724ecb71d884ed82&#45;&gt;dir_313caf1132e152dd9b58bea13a4052ca -->
<g id="edge19" class="edge">
<title>dir_e5986d01aae1422d724ecb71d884ed82&#45;&gt;dir_313caf1132e152dd9b58bea13a4052ca</title>
<g id="a_edge19"><a xlink:href="dir_000003_000008.html" target="_top">
<path fill="none" stroke="#63b8ff" d="M190.79,-70.98C179.22,-62.92 161.62,-50.65 147.84,-41.03"/>
<polygon fill="#63b8ff" stroke="#63b8ff" points="149.64,-38.02 139.43,-35.17 145.63,-43.76 149.64,-38.02"/>
</a>
</g>
<g id="a_edge19&#45;headlabel"><a xlink:href="dir_000003_000008.html" target="_top" xlink:title="2">
<text text-anchor="middle" x="154.21" y="-35.25" font-family="Helvetica,sans-Serif" font-size="10.00" fill="#63b8ff">2</text>
</a>
</g>
</g>
<!-- dir_c184e51c84f2c3f0345bbc8a0d75d3e1&#45;&gt;dir_e5986d01aae1422d724ecb71d884ed82 -->
<g id="edge21" class="edge">
<title>dir_c184e51c84f2c3f0345bbc8a0d75d3e1&#45;&gt;dir_e5986d01aae1422d724ecb71d884ed82</title>
<g id="a_edge21"><a xlink:href="dir_000004_000003.html" target="_top">
<path fill="none" stroke="#63b8ff" d="M248.08,-125.75C240.22,-118.03 228.57,-106.6 219.08,-97.28"/>
<polygon fill="#63b8ff" stroke="#63b8ff" points="221.34,-94.6 211.75,-90.09 216.44,-99.59 221.34,-94.6"/>
</a>
</g>
<g id="a_edge21&#45;headlabel"><a xlink:href="dir_000004_000003.html" target="_top" xlink:title="1">
<text text-anchor="middle" x="225.89" y="-92.59" font-family="Helvetica,sans-Serif" font-size="10.00" fill="#63b8ff">1</text>
</a>
</g>
</g>
<!-- dir_c184e51c84f2c3f0345bbc8a0d75d3e1&#45;&gt;dir_313caf1132e152dd9b58bea13a4052ca -->
<g id="edge20" class="edge">
<title>dir_c184e51c84f2c3f0345bbc8a0d75d3e1&#45;&gt;dir_313caf1132e152dd9b58bea13a4052ca</title>
<g id="a_edge20"><a xlink:href="dir_000004_000008.html" target="_top">
<path fill="none" stroke="#63b8ff" d="M256.88,-125.97C256.25,-112.61 253.13,-86.65 239,-71 217.53,-47.22 181.67,-35.97 156.32,-30.76"/>
<polygon fill="#63b8ff" stroke="#63b8ff" points="156.64,-27.26 146.17,-28.88 155.37,-34.15 156.64,-27.26"/>
</a>
</g>
<g id="a_edge20&#45;headlabel"><a xlink:href="dir_000004_000008.html" target="_top" xlink:title="1">
<text text-anchor="middle" x="160.69" y="-22.63" font-family="Helvetica,sans-Serif" font-size="10.00" fill="#63b8ff">1</text>
</a>
</g>
</g>
<!-- dir_e1aa690b4af0a0538ec65649b0390051&#45;&gt;dir_313caf1132e152dd9b58bea13a4052ca -->
<g id="edge22" class="edge">
<title>dir_e1aa690b4af0a0538ec65649b0390051&#45;&gt;dir_313caf1132e152dd9b58bea13a4052ca</title>
<g id="a_edge22"><a xlink:href="dir_000005_000008.html" target="_top">
<path fill="none" stroke="#63b8ff" d="M93.61,-70.75C99.26,-63.26 107.54,-52.28 114.45,-43.13"/>
<polygon fill="#63b8ff" stroke="#63b8ff" points="117.29,-45.18 120.52,-35.09 111.7,-40.96 117.29,-45.18"/>
</a>
</g>
<g id="a_edge22&#45;headlabel"><a xlink:href="dir_000005_000008.html" target="_top" xlink:title="2">
<text text-anchor="middle" x="117.39" y="-47.26" font-family="Helvetica,sans-Serif" font-size="10.00" fill="#63b8ff">2</text>
</a>
</g>
</g>
<!-- dir_6cd8491d143eb218b70983dbdb3c58bc&#45;&gt;dir_203e5988f1ed315d29383d699972de6f -->
<g id="edge23" class="edge">
<title>dir_6cd8491d143eb218b70983dbdb3c58bc&#45;&gt;dir_203e5988f1ed315d29383d699972de6f</title>
<g id="a_edge23"><a xlink:href="dir_000006_000000.html" target="_top">
<path fill="none" stroke="#63b8ff" d="M103.12,-145.32C106.24,-154.27 111.13,-168.54 115,-181 125.13,-213.65 122.09,-223.77 136,-255 140.22,-264.47 146.2,-274.29 151.56,-282.3"/>
<polygon fill="#63b8ff" stroke="#63b8ff" points="148.83,-284.5 157.41,-290.72 154.58,-280.51 148.83,-284.5"/>
</a>
</g>
<g id="a_edge23&#45;headlabel"><a xlink:href="dir_000006_000000.html" target="_top" xlink:title="6">
<text text-anchor="middle" x="144.45" y="-280.67" font-family="Helvetica,sans-Serif" font-size="10.00" fill="#63b8ff">6</text>
</a>
</g>
</g>
<!-- dir_6cd8491d143eb218b70983dbdb3c58bc&#45;&gt;dir_e5986d01aae1422d724ecb71d884ed82 -->
<g id="edge26" class="edge">
<title>dir_6cd8491d143eb218b70983dbdb3c58bc&#45;&gt;dir_e5986d01aae1422d724ecb71d884ed82</title>
<g id="a_edge26"><a xlink:href="dir_000006_000003.html" target="_top">
<path fill="none" stroke="#63b8ff" d="M116.55,-125.98C132.89,-117.57 158.13,-104.59 177.13,-94.81"/>
<polygon fill="#63b8ff" stroke="#63b8ff" points="178.86,-97.86 186.15,-90.17 175.66,-91.63 178.86,-97.86"/>
</a>
</g>
<g id="a_edge26&#45;headlabel"><a xlink:href="dir_000006_000003.html" target="_top" xlink:title="1">
<text text-anchor="middle" x="176.96" y="-99.53" font-family="Helvetica,sans-Serif" font-size="10.00" fill="#63b8ff">1</text>
</a>
</g>
</g>
<!-- dir_6cd8491d143eb218b70983dbdb3c58bc&#45;&gt;dir_e1aa690b4af0a0538ec65649b0390051 -->
<g id="edge25" class="edge">
<title>dir_6cd8491d143eb218b70983dbdb3c58bc&#45;&gt;dir_e1aa690b4af0a0538ec65649b0390051</title>
<g id="a_edge25"><a xlink:href="dir_000006_000005.html" target="_top">
<path fill="none" stroke="#63b8ff" d="M97.85,-125.75C96.13,-118.72 93.65,-108.62 91.5,-99.84"/>
<polygon fill="#63b8ff" stroke="#63b8ff" points="94.89,-98.97 89.11,-90.09 88.09,-100.63 94.89,-98.97"/>
</a>
</g>
<g id="a_edge25&#45;headlabel"><a xlink:href="dir_000006_000005.html" target="_top" xlink:title="1">
<text text-anchor="middle" x="98.5" y="-99.28" font-family="Helvetica,sans-Serif" font-size="10.00" fill="#63b8ff">1</text>
</a>
</g>
</g>
<!-- dir_6cd8491d143eb218b70983dbdb3c58bc&#45;&gt;dir_313caf1132e152dd9b58bea13a4052ca -->
<g id="edge24" class="edge">
<title>dir_6cd8491d143eb218b70983dbdb3c58bc&#45;&gt;dir_313caf1132e152dd9b58bea13a4052ca</title>
<g id="a_edge24"><a xlink:href="dir_000006_000008.html" target="_top">
<path fill="none" stroke="#63b8ff" d="M103.94,-125.81C107.8,-116.97 113.59,-102.79 117,-90 120.92,-75.3 123.5,-58.26 125.06,-45.53"/>
<polygon fill="#63b8ff" stroke="#63b8ff" points="128.57,-45.57 126.21,-35.25 121.62,-44.8 128.57,-45.57"/>
</a>
</g>
<g id="a_edge24&#45;headlabel"><a xlink:href="dir_000006_000008.html" target="_top" xlink:title="1">
<text text-anchor="middle" x="130.99" y="-46.96" font-family="Helvetica,sans-Serif" font-size="10.00" fill="#63b8ff">1</text>
</a>
</g>
</g>
<!-- dir_313caf1132e152dd9b58bea13a4052ca&#45;&gt;dir_203e5988f1ed315d29383d699972de6f -->
<g id="edge27" class="edge">
<title>dir_313caf1132e152dd9b58bea13a4052ca&#45;&gt;dir_203e5988f1ed315d29383d699972de6f</title>
<g id="a_edge27"><a xlink:href="dir_000008_000000.html" target="_top">
<path fill="none" stroke="#63b8ff" d="M107.81,-33.54C90.8,-39.98 67.44,-51.55 56,-71 26.93,-120.44 36.82,-147.11 59,-200 75.65,-239.7 117.7,-269.35 143.44,-285.54"/>
<polygon fill="#63b8ff" stroke="#63b8ff" points="141.77,-288.62 152.11,-290.89 145.44,-282.66 141.77,-288.62"/>
</a>
</g>
<g id="a_edge27&#45;headlabel"><a xlink:href="dir_000008_000000.html" target="_top" xlink:title="1">
<text text-anchor="middle" x="137.22" y="-286.65" font-family="Helvetica,sans-Serif" font-size="10.00" fill="#63b8ff">1</text>
</a>
</g>
</g>
</g>
</svg>
