<?xml version="1.0" encoding="UTF-8" standalone="no"?>
<!DOCTYPE svg PUBLIC "-//W3C//DTD SVG 1.1//EN"
 "http://www.w3.org/Graphics/SVG/1.1/DTD/svg11.dtd">
<!-- Generated by graphviz version 2.43.0 (0)
 -->
<!-- Title: main_loop Pages: 1 -->
<svg width="918pt" height="386pt"
 viewBox="0.00 0.00 918.00 386.04" xmlns="http://www.w3.org/2000/svg" xmlns:xlink="http://www.w3.org/1999/xlink">
<g id="graph0" class="graph" transform="scale(1 1) rotate(0) translate(4 382.04)">
<title>main_loop</title>
<!-- Node1 -->
<g id="Node000001" class="node">
<title>Node1</title>
<g id="a_Node000001"><a xlink:title="Main loop of dot builtin.">
<polygon fill="#999999" stroke="#666666" points="910,-231.04 842,-231.04 842,-212.04 910,-212.04 910,-231.04"/>
<text text-anchor="middle" x="876" y="-219.04" font-family="Helvetica,sans-Serif" font-size="10.00">main_loop</text>
</a>
</g>
</g>
<!-- Node2 -->
<g id="Node000002" class="node">
<title>Node2</title>
<g id="a_Node000002"><a xlink:href="dot_8c.html#a713938d3c6ee343132c429642048bcf6" target="_top" xlink:title="Execute the dot builtin cmd.">
<polygon fill="white" stroke="#666666" points="806,-250.04 762,-250.04 762,-231.04 806,-231.04 806,-250.04"/>
<text text-anchor="middle" x="784" y="-238.04" font-family="Helvetica,sans-Serif" font-size="10.00">dot_b</text>
</a>
</g>
</g>
<!-- Node1&#45;&gt;Node2 -->
<g id="edge1_Node000001_Node000002" class="edge">
<title>Node1&#45;&gt;Node2</title>
<g id="a_edge1_Node000001_Node000002"><a xlink:title=" ">
<path fill="none" stroke="#63b8ff" d="M832.01,-230.62C823.05,-232.51 813.99,-234.42 806.24,-236.06"/>
<polygon fill="#63b8ff" stroke="#63b8ff" points="832.94,-234 842,-228.51 831.49,-227.15 832.94,-234"/>
</a>
</g>
</g>
<!-- Node3 -->
<g id="Node000003" class="node">
<title>Node3</title>
<g id="a_Node000003"><a xlink:href="exec_8c.html#abaeb177587c7eec6a064b35bb8399cae" target="_top" xlink:title="Execute builtin cmd with given args.">
<polygon fill="white" stroke="#666666" points="726,-250.04 651,-250.04 651,-231.04 726,-231.04 726,-250.04"/>
<text text-anchor="middle" x="688.5" y="-238.04" font-family="Helvetica,sans-Serif" font-size="10.00">exec_builtin</text>
</a>
</g>
</g>
<!-- Node2&#45;&gt;Node3 -->
<g id="edge2_Node000002_Node000003" class="edge">
<title>Node2&#45;&gt;Node3</title>
<g id="a_edge2_Node000002_Node000003"><a xlink:title=" ">
<path fill="none" stroke="#63b8ff" d="M751.53,-240.54C743.35,-240.54 734.47,-240.54 726.05,-240.54"/>
<polygon fill="#63b8ff" stroke="#63b8ff" points="751.78,-244.04 761.78,-240.54 751.78,-237.04 751.78,-244.04"/>
</a>
</g>
</g>
<!-- Node4 -->
<g id="Node000004" class="node">
<title>Node4</title>
<g id="a_Node000004"><a xlink:href="exec_8c.html#a287d81b4658832f192750310e2925917" target="_top" xlink:title="Execute the builtin command with given args.">
<polygon fill="white" stroke="#666666" points="615,-250.04 565,-250.04 565,-231.04 615,-231.04 615,-250.04"/>
<text text-anchor="middle" x="590" y="-238.04" font-family="Helvetica,sans-Serif" font-size="10.00">exec_b</text>
</a>
</g>
</g>
<!-- Node3&#45;&gt;Node4 -->
<g id="edge3_Node000003_Node000004" class="edge">
<title>Node3&#45;&gt;Node4</title>
<g id="a_edge3_Node000003_Node000004"><a xlink:title=" ">
<path fill="none" stroke="#63b8ff" d="M640.51,-240.54C631.71,-240.54 622.86,-240.54 615.12,-240.54"/>
<polygon fill="#63b8ff" stroke="#63b8ff" points="640.74,-244.04 650.74,-240.54 640.74,-237.04 640.74,-244.04"/>
</a>
</g>
</g>
<!-- Node5 -->
<g id="Node000005" class="node">
<title>Node5</title>
<g id="a_Node000005"><a xlink:href="exec_8c.html#ae65edaa99b26b49d60c451157d38b34a" target="_top" xlink:title="Execute les commandes avec les args donnes.">
<polygon fill="white" stroke="#666666" points="529,-250.04 464,-250.04 464,-231.04 529,-231.04 529,-250.04"/>
<text text-anchor="middle" x="496.5" y="-238.04" font-family="Helvetica,sans-Serif" font-size="10.00">exec_cmd</text>
</a>
</g>
</g>
<!-- Node4&#45;&gt;Node5 -->
<g id="edge4_Node000004_Node000005" class="edge">
<title>Node4&#45;&gt;Node5</title>
<g id="a_edge4_Node000004_Node000005"><a xlink:title=" ">
<path fill="none" stroke="#63b8ff" d="M554.77,-240.54C546.42,-240.54 537.53,-240.54 529.3,-240.54"/>
<polygon fill="#63b8ff" stroke="#63b8ff" points="554.96,-244.04 564.96,-240.54 554.96,-237.04 554.96,-244.04"/>
</a>
</g>
</g>
<!-- Node6 -->
<g id="Node000006" class="node">
<title>Node6</title>
<g id="a_Node000006"><a xlink:href="ast__run_8c.html#aeb6878a59c6907e5669fc3cc428913d9" target="_top" xlink:title=" ">
<polygon fill="white" stroke="#666666" points="428,-250.04 349,-250.04 349,-231.04 428,-231.04 428,-250.04"/>
<text text-anchor="middle" x="388.5" y="-238.04" font-family="Helvetica,sans-Serif" font-size="10.00">ast_run_cmd</text>
</a>
</g>
</g>
<!-- Node5&#45;&gt;Node6 -->
<g id="edge5_Node000005_Node000006" class="edge">
<title>Node5&#45;&gt;Node6</title>
<g id="a_edge5_Node000005_Node000006"><a xlink:title=" ">
<path fill="none" stroke="#63b8ff" d="M453.92,-240.54C445.45,-240.54 436.58,-240.54 428.21,-240.54"/>
<polygon fill="#63b8ff" stroke="#63b8ff" points="453.98,-244.04 463.98,-240.54 453.98,-237.04 453.98,-244.04"/>
</a>
</g>
</g>
<!-- Node7 -->
<g id="Node000007" class="node">
<title>Node7</title>
<g id="a_Node000007"><a xlink:href="ast_8c.html#a572345b2707780bbbc5bbaacdca9c372" target="_top" xlink:title=" ">
<polygon fill="white" stroke="#666666" points="313,-212.04 260,-212.04 260,-193.04 313,-193.04 313,-212.04"/>
<text text-anchor="middle" x="286.5" y="-200.04" font-family="Helvetica,sans-Serif" font-size="10.00">run_ast</text>
</a>
</g>
</g>
<!-- Node6&#45;&gt;Node7 -->
<g id="edge6_Node000006_Node000007" class="edge">
<title>Node6&#45;&gt;Node7</title>
<g id="a_edge6_Node000006_Node000007"><a xlink:title=" ">
<path fill="none" stroke="#63b8ff" d="M352.59,-227.28C339.47,-222.29 324.81,-216.72 312.73,-212.13"/>
<polygon fill="#63b8ff" stroke="#63b8ff" points="351.67,-230.67 362.27,-230.95 354.16,-224.13 351.67,-230.67"/>
</a>
</g>
</g>
<!-- Node7&#45;&gt;Node1 -->
<g id="edge27_Node000007_Node000001" class="edge">
<title>Node7&#45;&gt;Node1</title>
<g id="a_edge27_Node000007_Node000001"><a xlink:title=" ">
<path fill="none" stroke="#63b8ff" d="M323.26,-202.54C364.7,-202.54 435.04,-202.54 495.5,-202.54 689.5,-202.54 689.5,-202.54 689.5,-202.54 743.08,-202.54 804.91,-210.48 841.93,-216.1"/>
<polygon fill="#63b8ff" stroke="#63b8ff" points="323.12,-199.04 313.12,-202.54 323.12,-206.04 323.12,-199.04"/>
</a>
</g>
</g>
<!-- Node8 -->
<g id="Node000008" class="node">
<title>Node8</title>
<g id="a_Node000008"><a xlink:href="ast__run_8c.html#a8a01fec616135007fc5b3968a101901b" target="_top" xlink:title=" ">
<polygon fill="white" stroke="#666666" points="215,-341.04 124,-341.04 124,-322.04 215,-322.04 215,-341.04"/>
<text text-anchor="middle" x="169.5" y="-329.04" font-family="Helvetica,sans-Serif" font-size="10.00">ast_run_and_or</text>
</a>
</g>
</g>
<!-- Node7&#45;&gt;Node8 -->
<g id="edge7_Node000007_Node000008" class="edge">
<title>Node7&#45;&gt;Node8</title>
<g id="a_edge7_Node000007_Node000008"><a xlink:title=" ">
<path fill="none" stroke="#63b8ff" d="M277.39,-221.53C268.24,-244.47 251.01,-282.04 224,-304.54 213.16,-313.58 197.59,-318.14 186.04,-322.01"/>
<polygon fill="#63b8ff" stroke="#63b8ff" points="280.68,-222.72 281.03,-212.13 274.16,-220.19 280.68,-222.72"/>
</a>
</g>
</g>
<!-- Node9 -->
<g id="Node000009" class="node">
<title>Node9</title>
<g id="a_Node000009"><a xlink:href="ast__run_8c.html#a9d83d4834a61ffe21eb77838d70ae173" target="_top" xlink:title=" ">
<polygon fill="white" stroke="#666666" points="205,-304.04 134,-304.04 134,-285.04 205,-285.04 205,-304.04"/>
<text text-anchor="middle" x="169.5" y="-292.04" font-family="Helvetica,sans-Serif" font-size="10.00">ast_run_for</text>
</a>
</g>
</g>
<!-- Node7&#45;&gt;Node9 -->
<g id="edge9_Node000007_Node000009" class="edge">
<title>Node7&#45;&gt;Node9</title>
<g id="a_edge9_Node000007_Node000009"><a xlink:title=" ">
<path fill="none" stroke="#63b8ff" d="M269.53,-220.56C258.48,-235.16 242.48,-254.87 224,-267.54 211.88,-275.85 195.59,-280.61 184.19,-284.93"/>
<polygon fill="#63b8ff" stroke="#63b8ff" points="272.56,-222.34 275.74,-212.24 266.95,-218.16 272.56,-222.34"/>
</a>
</g>
</g>
<!-- Node10 -->
<g id="Node000010" class="node">
<title>Node10</title>
<g id="a_Node000010"><a xlink:href="ast__run_8c.html#a0a7138b1f2608ea36211c9b78988c248" target="_top" xlink:title=" ">
<polygon fill="white" stroke="#666666" points="202,-267.04 137,-267.04 137,-248.04 202,-248.04 202,-267.04"/>
<text text-anchor="middle" x="169.5" y="-255.04" font-family="Helvetica,sans-Serif" font-size="10.00">ast_run_if</text>
</a>
</g>
</g>
<!-- Node7&#45;&gt;Node10 -->
<g id="edge11_Node000007_Node000010" class="edge">
<title>Node7&#45;&gt;Node10</title>
<g id="a_edge11_Node000007_Node000010"><a xlink:title=" ">
<path fill="none" stroke="#63b8ff" d="M250.77,-215.67C242.18,-220.37 232.9,-225.4 224,-229.54 209.34,-236.36 191.51,-242.24 180.58,-247.95"/>
<polygon fill="#63b8ff" stroke="#63b8ff" points="252.66,-218.62 259.75,-210.75 249.3,-212.48 252.66,-218.62"/>
</a>
</g>
</g>
<!-- Node11 -->
<g id="Node000011" class="node">
<title>Node11</title>
<g id="a_Node000011"><a xlink:href="ast__run_8c.html#ae25cd3ced8abafd76110dba8852a6b87" target="_top" xlink:title=" ">
<polygon fill="white" stroke="#666666" points="206,-212.04 133,-212.04 133,-193.04 206,-193.04 206,-212.04"/>
<text text-anchor="middle" x="169.5" y="-200.04" font-family="Helvetica,sans-Serif" font-size="10.00">ast_run_list</text>
</a>
</g>
</g>
<!-- Node7&#45;&gt;Node11 -->
<g id="edge13_Node000007_Node000011" class="edge">
<title>Node7&#45;&gt;Node11</title>
<g id="a_edge13_Node000007_Node000011"><a xlink:title=" ">
<path fill="none" stroke="#63b8ff" d="M249.87,-196.25C236.05,-195.64 220.26,-195.64 206.42,-196.23"/>
<polygon fill="#63b8ff" stroke="#63b8ff" points="249.79,-199.75 259.98,-196.82 250.19,-192.76 249.79,-199.75"/>
</a>
</g>
</g>
<!-- Node12 -->
<g id="Node000012" class="node">
<title>Node12</title>
<g id="a_Node000012"><a xlink:href="ast__run_8c.html#a536f37ba9bffcd2099fef668656181e0" target="_top" xlink:title=" ">
<polygon fill="white" stroke="#666666" points="209,-175.04 130,-175.04 130,-156.04 209,-156.04 209,-175.04"/>
<text text-anchor="middle" x="169.5" y="-163.04" font-family="Helvetica,sans-Serif" font-size="10.00">ast_run_loop</text>
</a>
</g>
</g>
<!-- Node7&#45;&gt;Node12 -->
<g id="edge16_Node000007_Node000012" class="edge">
<title>Node7&#45;&gt;Node12</title>
<g id="a_edge16_Node000007_Node000012"><a xlink:title=" ">
<path fill="none" stroke="#63b8ff" d="M260.88,-188.97C245.86,-183 226.34,-176.47 209.29,-171.6"/>
<polygon fill="#63b8ff" stroke="#63b8ff" points="259.89,-192.35 270.47,-192.97 262.59,-185.89 259.89,-192.35"/>
</a>
</g>
</g>
<!-- Node13 -->
<g id="Node000013" class="node">
<title>Node13</title>
<g id="a_Node000013"><a xlink:href="ast__run_8c.html#aa3e6a973e744d748ee415840596beb53" target="_top" xlink:title=" ">
<polygon fill="white" stroke="#666666" points="224,-138.04 115,-138.04 115,-119.04 224,-119.04 224,-138.04"/>
<text text-anchor="middle" x="169.5" y="-126.04" font-family="Helvetica,sans-Serif" font-size="10.00">ast_run_shell_redir</text>
</a>
</g>
</g>
<!-- Node7&#45;&gt;Node13 -->
<g id="edge18_Node000007_Node000013" class="edge">
<title>Node7&#45;&gt;Node13</title>
<g id="a_edge18_Node000007_Node000013"><a xlink:title=" ">
<path fill="none" stroke="#63b8ff" d="M275.31,-184.09C263.99,-169.25 244.61,-149.74 224.29,-137.71"/>
<polygon fill="#63b8ff" stroke="#63b8ff" points="272.67,-186.41 281.26,-192.62 278.41,-182.41 272.67,-186.41"/>
</a>
</g>
</g>
<!-- Node14 -->
<g id="Node000014" class="node">
<title>Node14</title>
<g id="a_Node000014"><a xlink:href="exec_8c.html#a23babf893bbcd2f6126698a1a19b169f" target="_top" xlink:title="Execute funct with given arguments.">
<polygon fill="white" stroke="#666666" points="202,-378.04 137,-378.04 137,-359.04 202,-359.04 202,-378.04"/>
<text text-anchor="middle" x="169.5" y="-366.04" font-family="Helvetica,sans-Serif" font-size="10.00">exec_func</text>
</a>
</g>
</g>
<!-- Node7&#45;&gt;Node14 -->
<g id="edge20_Node000007_Node000014" class="edge">
<title>Node7&#45;&gt;Node14</title>
<g id="a_edge20_Node000007_Node000014"><a xlink:title=" ">
<path fill="none" stroke="#63b8ff" d="M282.56,-222.6C276.89,-254.2 261.51,-315.55 224,-350.54 217.91,-356.22 209.97,-360.12 202.07,-362.78"/>
<polygon fill="#63b8ff" stroke="#63b8ff" points="286.07,-222.85 284.23,-212.41 279.16,-221.72 286.07,-222.85"/>
</a>
</g>
</g>
<!-- Node15 -->
<g id="Node000015" class="node">
<title>Node15</title>
<g id="a_Node000015"><a xlink:href="exec_8c.html#ab743cb88e12e9b922050925fd2075e36" target="_top" xlink:title="Execute a pipeline of commands.">
<polygon fill="white" stroke="#666666" points="202,-83.04 137,-83.04 137,-64.04 202,-64.04 202,-83.04"/>
<text text-anchor="middle" x="169.5" y="-71.04" font-family="Helvetica,sans-Serif" font-size="10.00">exec_pipe</text>
</a>
</g>
</g>
<!-- Node7&#45;&gt;Node15 -->
<g id="edge22_Node000007_Node000015" class="edge">
<title>Node7&#45;&gt;Node15</title>
<g id="a_edge22_Node000007_Node000015"><a xlink:title=" ">
<path fill="none" stroke="#63b8ff" d="M276.09,-183.97C265.37,-164.01 246.39,-132.11 224,-109.54 213.59,-99.05 199.69,-89.81 188.67,-83.31"/>
<polygon fill="#63b8ff" stroke="#63b8ff" points="273.06,-185.72 280.8,-192.96 279.26,-182.48 273.06,-185.72"/>
</a>
</g>
</g>
<!-- Node17 -->
<g id="Node000017" class="node">
<title>Node17</title>
<g id="a_Node000017"><a xlink:href="42sh_8c.html#a3c04138a5bfe5d72780bb7e82a18e627" target="_top" xlink:title=" ">
<polygon fill="white" stroke="#666666" points="190,-46.04 149,-46.04 149,-27.04 190,-27.04 190,-46.04"/>
<text text-anchor="middle" x="169.5" y="-34.04" font-family="Helvetica,sans-Serif" font-size="10.00">main</text>
</a>
</g>
</g>
<!-- Node7&#45;&gt;Node17 -->
<g id="edge26_Node000007_Node000017" class="edge">
<title>Node7&#45;&gt;Node17</title>
<g id="a_edge26_Node000007_Node000017"><a xlink:title=" ">
<path fill="none" stroke="#63b8ff" d="M282.56,-182.48C276.89,-150.88 261.51,-89.54 224,-54.54 214.76,-45.92 201.24,-41.41 190.11,-39.07"/>
<polygon fill="#63b8ff" stroke="#63b8ff" points="279.16,-183.37 284.23,-192.67 286.07,-182.23 279.16,-183.37"/>
</a>
</g>
</g>
<!-- Node8&#45;&gt;Node7 -->
<g id="edge8_Node000008_Node000007" class="edge">
<title>Node8&#45;&gt;Node7</title>
<g id="a_edge8_Node000008_Node000007"><a xlink:title=" ">
<path fill="none" stroke="#63b8ff" d="M223.49,-322.96C223.66,-322.82 223.83,-322.68 224,-322.54 260.05,-292.5 278.69,-235.61 283.93,-212.16"/>
<polygon fill="#63b8ff" stroke="#63b8ff" points="221.54,-320.06 215.12,-328.49 225.39,-325.9 221.54,-320.06"/>
</a>
</g>
</g>
<!-- Node9&#45;&gt;Node7 -->
<g id="edge10_Node000009_Node000007" class="edge">
<title>Node9&#45;&gt;Node7</title>
<g id="a_edge10_Node000009_Node000007"><a xlink:title=" ">
<path fill="none" stroke="#63b8ff" d="M214.65,-290.92C217.92,-289.34 221.08,-287.54 224,-285.54 252.24,-266.18 274.69,-230.37 282.51,-212.26"/>
<polygon fill="#63b8ff" stroke="#63b8ff" points="213.14,-287.75 205.23,-294.8 215.81,-294.23 213.14,-287.75"/>
</a>
</g>
</g>
<!-- Node10&#45;&gt;Node7 -->
<g id="edge12_Node000010_Node000007" class="edge">
<title>Node10&#45;&gt;Node7</title>
<g id="a_edge12_Node000010_Node000007"><a xlink:title=" ">
<path fill="none" stroke="#63b8ff" d="M211.75,-252.74C215.93,-251.12 220.08,-249.37 224,-247.54 245.09,-237.73 268.37,-222.92 279.25,-212.17"/>
<polygon fill="#63b8ff" stroke="#63b8ff" points="210.26,-249.55 202.02,-256.21 212.61,-256.14 210.26,-249.55"/>
</a>
</g>
</g>
<!-- Node11&#45;&gt;Node7 -->
<g id="edge15_Node000011_Node000007" class="edge">
<title>Node11&#45;&gt;Node7</title>
<g id="a_edge15_Node000011_Node000007"><a xlink:title=" ">
<path fill="none" stroke="#63b8ff" d="M216.46,-209.17C231.29,-209.49 247.18,-209.19 259.98,-208.26"/>
<polygon fill="#63b8ff" stroke="#63b8ff" points="216.52,-205.67 206.42,-208.85 216.3,-212.67 216.52,-205.67"/>
</a>
</g>
</g>
<!-- Node11&#45;&gt;Node11 -->
<g id="edge14_Node000011_Node000011" class="edge">
<title>Node11&#45;&gt;Node11</title>
<g id="a_edge14_Node000011_Node000011"><a xlink:title=" ">
<path fill="none" stroke="#63b8ff" d="M190.98,-221.6C189.55,-226.42 182.39,-230.04 169.5,-230.04 148.88,-230.04 142.92,-220.78 151.62,-212.12"/>
<polygon fill="#63b8ff" stroke="#63b8ff" points="194.2,-220.23 187.38,-212.12 187.66,-222.72 194.2,-220.23"/>
</a>
</g>
</g>
<!-- Node12&#45;&gt;Node7 -->
<g id="edge17_Node000012_Node000007" class="edge">
<title>Node12&#45;&gt;Node7</title>
<g id="a_edge17_Node000012_Node000007"><a xlink:title=" ">
<path fill="none" stroke="#63b8ff" d="M194.64,-178.93C213.79,-186.56 240.48,-195.18 259.98,-200.05"/>
<polygon fill="#63b8ff" stroke="#63b8ff" points="195.97,-175.69 185.4,-175.05 193.27,-182.15 195.97,-175.69"/>
</a>
</g>
</g>
<!-- Node13&#45;&gt;Node7 -->
<g id="edge19_Node000013_Node000007" class="edge">
<title>Node13&#45;&gt;Node7</title>
<g id="a_edge19_Node000013_Node000007"><a xlink:title=" ">
<path fill="none" stroke="#63b8ff" d="M191.95,-141.7C202.09,-145.47 214.12,-149.73 224,-155.54 241.68,-165.94 258.66,-182.03 270.29,-192.77"/>
<polygon fill="#63b8ff" stroke="#63b8ff" points="193.17,-138.42 182.58,-138.05 190.63,-144.94 193.17,-138.42"/>
</a>
</g>
</g>
<!-- Node14&#45;&gt;Node5 -->
<g id="edge21_Node000014_Node000005" class="edge">
<title>Node14&#45;&gt;Node5</title>
<g id="a_edge21_Node000014_Node000005"><a xlink:title=" ">
<path fill="none" stroke="#63b8ff" d="M209.79,-355.63C214.59,-353.96 219.42,-352.24 224,-350.54 317.47,-315.92 426.96,-269.83 473.15,-250.13"/>
<polygon fill="#63b8ff" stroke="#63b8ff" points="208.38,-352.41 200.05,-358.96 210.64,-359.03 208.38,-352.41"/>
</a>
</g>
</g>
<!-- Node15&#45;&gt;Node15 -->
<g id="edge25_Node000015_Node000015" class="edge">
<title>Node15&#45;&gt;Node15</title>
<g id="a_edge25_Node000015_Node000015"><a xlink:title=" ">
<path fill="none" stroke="#63b8ff" d="M190.98,-92.6C189.55,-97.42 182.39,-101.04 169.5,-101.04 148.88,-101.04 142.92,-91.78 151.62,-83.12"/>
<polygon fill="#63b8ff" stroke="#63b8ff" points="194.2,-91.23 187.38,-83.12 187.66,-93.72 194.2,-91.23"/>
</a>
</g>
</g>
<!-- Node16 -->
<g id="Node000016" class="node">
<title>Node16</title>
<g id="a_Node000016"><a xlink:href="ast__run_8c.html#a24d0223822f7b635628199085c3283be" target="_top" xlink:title=" ">
<polygon fill="white" stroke="#666666" points="79,-45.04 0,-45.04 0,-26.04 79,-26.04 79,-45.04"/>
<text text-anchor="middle" x="39.5" y="-33.04" font-family="Helvetica,sans-Serif" font-size="10.00">ast_run_pipe</text>
</a>
</g>
</g>
<!-- Node15&#45;&gt;Node16 -->
<g id="edge23_Node000015_Node000016" class="edge">
<title>Node15&#45;&gt;Node16</title>
<g id="a_edge23_Node000015_Node000016"><a xlink:title=" ">
<path fill="none" stroke="#63b8ff" d="M126.85,-61.18C109.25,-55.95 89.08,-49.97 72.67,-45.09"/>
<polygon fill="#63b8ff" stroke="#63b8ff" points="126.28,-64.66 136.86,-64.15 128.27,-57.95 126.28,-64.66"/>
</a>
</g>
</g>
<!-- Node16&#45;&gt;Node7 -->
<g id="edge24_Node000016_Node000007" class="edge">
<title>Node16&#45;&gt;Node7</title>
<g id="a_edge24_Node000016_Node000007"><a xlink:title=" ">
<path fill="none" stroke="#63b8ff" d="M69.01,-21.99C107.92,-5.69 178.05,15.61 224,-17.54 282.74,-59.92 286.25,-160.72 285.82,-192.66"/>
<polygon fill="#63b8ff" stroke="#63b8ff" points="67.6,-18.79 59.83,-25.99 70.39,-25.2 67.6,-18.79"/>
</a>
</g>
</g>
</g>
</svg>
