<?xml version="1.0" encoding="UTF-8" standalone="no"?>
<!DOCTYPE svg PUBLIC "-//W3C//DTD SVG 1.1//EN"
 "http://www.w3.org/Graphics/SVG/1.1/DTD/svg11.dtd">
<!-- Generated by graphviz version 2.43.0 (0)
 -->
<!-- Title: src/builtin/dot.c Pages: 1 -->
<svg width="650pt" height="302pt"
 viewBox="0.00 0.00 650.00 302.00" xmlns="http://www.w3.org/2000/svg" xmlns:xlink="http://www.w3.org/1999/xlink">
<g id="graph0" class="graph" transform="scale(1 1) rotate(0) translate(4 298)">
<title>src/builtin/dot.c</title>
<!-- Node1 -->
<g id="Node000001" class="node">
<title>Node1</title>
<g id="a_Node000001"><a xlink:title=" ">
<polygon fill="#999999" stroke="#666666" points="461.5,-294 369.5,-294 369.5,-275 461.5,-275 461.5,-294"/>
<text text-anchor="middle" x="415.5" y="-282" font-family="Helvetica,sans-Serif" font-size="10.00">src/builtin/dot.c</text>
</a>
</g>
</g>
<!-- Node2 -->
<g id="Node000002" class="node">
<title>Node2</title>
<g id="a_Node000002"><a xlink:href="dot_8h.html" target="_top" xlink:title=" ">
<polygon fill="white" stroke="#666666" points="203,-184 162,-184 162,-165 203,-165 203,-184"/>
<text text-anchor="middle" x="182.5" y="-172" font-family="Helvetica,sans-Serif" font-size="10.00">dot.h</text>
</a>
</g>
</g>
<!-- Node1&#45;&gt;Node2 -->
<g id="edge1_Node000001_Node000002" class="edge">
<title>Node1&#45;&gt;Node2</title>
<g id="a_edge1_Node000001_Node000002"><a xlink:title=" ">
<path fill="none" stroke="#63b8ff" d="M381.56,-274.92C353.68,-267.27 313.55,-254.83 280.5,-239 251.61,-225.16 221.06,-204.22 201.9,-190.21"/>
<polygon fill="#63b8ff" stroke="#63b8ff" points="203.82,-187.28 193.7,-184.14 199.65,-192.9 203.82,-187.28"/>
</a>
</g>
</g>
<!-- Node5 -->
<g id="Node000005" class="node">
<title>Node5</title>
<g id="a_Node000005"><a xlink:title=" ">
<polygon fill="#e0e0e0" stroke="#999999" points="499.5,-239 443.5,-239 443.5,-220 499.5,-220 499.5,-239"/>
<text text-anchor="middle" x="471.5" y="-227" font-family="Helvetica,sans-Serif" font-size="10.00">stddef.h</text>
</a>
</g>
</g>
<!-- Node1&#45;&gt;Node5 -->
<g id="edge4_Node000001_Node000005" class="edge">
<title>Node1&#45;&gt;Node5</title>
<g id="a_edge4_Node000001_Node000005"><a xlink:title=" ">
<path fill="none" stroke="#63b8ff" d="M424.5,-274.98C432.69,-267.23 445.01,-255.58 454.97,-246.14"/>
<polygon fill="#63b8ff" stroke="#63b8ff" points="457.48,-248.59 462.34,-239.17 452.67,-243.5 457.48,-248.59"/>
</a>
</g>
</g>
<!-- Node6 -->
<g id="Node000006" class="node">
<title>Node6</title>
<g id="a_Node000006"><a xlink:title=" ">
<polygon fill="#e0e0e0" stroke="#999999" points="366.5,-19 316.5,-19 316.5,0 366.5,0 366.5,-19"/>
<text text-anchor="middle" x="341.5" y="-7" font-family="Helvetica,sans-Serif" font-size="10.00">stdio.h</text>
</a>
</g>
</g>
<!-- Node1&#45;&gt;Node6 -->
<g id="edge5_Node000001_Node000006" class="edge">
<title>Node1&#45;&gt;Node6</title>
<g id="a_edge5_Node000001_Node000006"><a xlink:title=" ">
<path fill="none" stroke="#63b8ff" d="M415.5,-274.82C415.5,-256.48 415.5,-212.44 415.5,-175.5 415.5,-175.5 415.5,-175.5 415.5,-118.5 415.5,-79.8 382.77,-44.81 360.85,-25.71"/>
<polygon fill="#63b8ff" stroke="#63b8ff" points="362.98,-22.93 353.06,-19.19 358.48,-28.3 362.98,-22.93"/>
</a>
</g>
</g>
<!-- Node7 -->
<g id="Node000007" class="node">
<title>Node7</title>
<g id="a_Node000007"><a xlink:title=" ">
<polygon fill="#e0e0e0" stroke="#999999" points="571,-239 518,-239 518,-220 571,-220 571,-239"/>
<text text-anchor="middle" x="544.5" y="-227" font-family="Helvetica,sans-Serif" font-size="10.00">stdlib.h</text>
</a>
</g>
</g>
<!-- Node1&#45;&gt;Node7 -->
<g id="edge6_Node000001_Node000007" class="edge">
<title>Node1&#45;&gt;Node7</title>
<g id="a_edge6_Node000001_Node000007"><a xlink:title=" ">
<path fill="none" stroke="#63b8ff" d="M436.23,-274.98C457.26,-266.34 490.05,-252.87 514.04,-243.02"/>
<polygon fill="#63b8ff" stroke="#63b8ff" points="515.48,-246.21 523.4,-239.17 512.82,-239.73 515.48,-246.21"/>
</a>
</g>
</g>
<!-- Node8 -->
<g id="Node000008" class="node">
<title>Node8</title>
<g id="a_Node000008"><a xlink:title=" ">
<polygon fill="#e0e0e0" stroke="#999999" points="642,-239 589,-239 589,-220 642,-220 642,-239"/>
<text text-anchor="middle" x="615.5" y="-227" font-family="Helvetica,sans-Serif" font-size="10.00">string.h</text>
</a>
</g>
</g>
<!-- Node1&#45;&gt;Node8 -->
<g id="edge7_Node000001_Node000008" class="edge">
<title>Node1&#45;&gt;Node8</title>
<g id="a_edge7_Node000001_Node000008"><a xlink:title=" ">
<path fill="none" stroke="#63b8ff" d="M447.63,-274.98C483.46,-265.49 541.3,-250.16 578.86,-240.21"/>
<polygon fill="#63b8ff" stroke="#63b8ff" points="580.12,-243.5 588.89,-237.55 578.32,-236.73 580.12,-243.5"/>
</a>
</g>
</g>
<!-- Node9 -->
<g id="Node000009" class="node">
<title>Node9</title>
<g id="a_Node000009"><a xlink:href="lexer_8h.html" target="_top" xlink:title=" ">
<polygon fill="white" stroke="#666666" points="85,-129 0,-129 0,-110 85,-110 85,-129"/>
<text text-anchor="middle" x="42.5" y="-117" font-family="Helvetica,sans-Serif" font-size="10.00">../lexer/lexer.h</text>
</a>
</g>
</g>
<!-- Node1&#45;&gt;Node9 -->
<g id="edge8_Node000001_Node000009" class="edge">
<title>Node1&#45;&gt;Node9</title>
<g id="a_edge8_Node000001_Node000009"><a xlink:title=" ">
<path fill="none" stroke="#63b8ff" d="M369.19,-275.3C333.67,-268.14 283.89,-256.18 242.5,-239 172.69,-210.03 97.99,-160.04 62.91,-135.28"/>
<polygon fill="#63b8ff" stroke="#63b8ff" points="64.67,-132.23 54.49,-129.28 60.6,-137.93 64.67,-132.23"/>
</a>
</g>
</g>
<!-- Node11 -->
<g id="Node000011" class="node">
<title>Node11</title>
<g id="a_Node000011"><a xlink:href="parser_8h.html" target="_top" xlink:title=" ">
<polygon fill="white" stroke="#666666" points="387.5,-239 289.5,-239 289.5,-220 387.5,-220 387.5,-239"/>
<text text-anchor="middle" x="338.5" y="-227" font-family="Helvetica,sans-Serif" font-size="10.00">../parser/parser.h</text>
</a>
</g>
</g>
<!-- Node1&#45;&gt;Node11 -->
<g id="edge12_Node000001_Node000011" class="edge">
<title>Node1&#45;&gt;Node11</title>
<g id="a_edge12_Node000001_Node000011"><a xlink:title=" ">
<path fill="none" stroke="#63b8ff" d="M403.13,-274.98C391.41,-266.92 373.58,-254.65 359.61,-245.03"/>
<polygon fill="#63b8ff" stroke="#63b8ff" points="361.32,-241.96 351.1,-239.17 357.35,-247.72 361.32,-241.96"/>
</a>
</g>
</g>
<!-- Node3 -->
<g id="Node000003" class="node">
<title>Node3</title>
<g id="a_Node000003"><a xlink:href="expand_8h.html" target="_top" xlink:title=" ">
<polygon fill="white" stroke="#666666" points="213.5,-129 103.5,-129 103.5,-110 213.5,-110 213.5,-129"/>
<text text-anchor="middle" x="158.5" y="-117" font-family="Helvetica,sans-Serif" font-size="10.00">../expand/expand.h</text>
</a>
</g>
</g>
<!-- Node2&#45;&gt;Node3 -->
<g id="edge2_Node000002_Node000003" class="edge">
<title>Node2&#45;&gt;Node3</title>
<g id="a_edge2_Node000002_Node000003"><a xlink:title=" ">
<path fill="none" stroke="#63b8ff" d="M178.54,-164.75C175.29,-157.57 170.58,-147.18 166.55,-138.27"/>
<polygon fill="#63b8ff" stroke="#63b8ff" points="169.7,-136.75 162.39,-129.09 163.33,-139.64 169.7,-136.75"/>
</a>
</g>
</g>
<!-- Node4 -->
<g id="Node000004" class="node">
<title>Node4</title>
<g id="a_Node000004"><a xlink:href="hashmap_8h.html" target="_top" xlink:title=" ">
<polygon fill="white" stroke="#666666" points="194,-74 123,-74 123,-55 194,-55 194,-74"/>
<text text-anchor="middle" x="158.5" y="-62" font-family="Helvetica,sans-Serif" font-size="10.00">hashmap.h</text>
</a>
</g>
</g>
<!-- Node3&#45;&gt;Node4 -->
<g id="edge3_Node000003_Node000004" class="edge">
<title>Node3&#45;&gt;Node4</title>
<g id="a_edge3_Node000003_Node000004"><a xlink:title=" ">
<path fill="none" stroke="#63b8ff" d="M158.5,-109.75C158.5,-102.8 158.5,-92.85 158.5,-84.13"/>
<polygon fill="#63b8ff" stroke="#63b8ff" points="162,-84.09 158.5,-74.09 155,-84.09 162,-84.09"/>
</a>
</g>
</g>
<!-- Node9&#45;&gt;Node6 -->
<g id="edge9_Node000009_Node000006" class="edge">
<title>Node9&#45;&gt;Node6</title>
<g id="a_edge9_Node000009_Node000006"><a xlink:title=" ">
<path fill="none" stroke="#63b8ff" d="M49.34,-109.92C60.96,-96.01 85.96,-68.69 113.5,-55 176.49,-23.69 259.48,-14.39 305.98,-11.64"/>
<polygon fill="#63b8ff" stroke="#63b8ff" points="306.35,-15.13 316.16,-11.11 305.99,-8.13 306.35,-15.13"/>
</a>
</g>
</g>
<!-- Node10 -->
<g id="Node000010" class="node">
<title>Node10</title>
<g id="a_Node000010"><a xlink:href="token_8h.html" target="_top" xlink:title=" ">
<polygon fill="white" stroke="#666666" points="323.5,-74 237.5,-74 237.5,-55 323.5,-55 323.5,-74"/>
<text text-anchor="middle" x="280.5" y="-62" font-family="Helvetica,sans-Serif" font-size="10.00">../utils/token.h</text>
</a>
</g>
</g>
<!-- Node9&#45;&gt;Node10 -->
<g id="edge10_Node000009_Node000010" class="edge">
<title>Node9&#45;&gt;Node10</title>
<g id="a_edge10_Node000009_Node000010"><a xlink:title=" ">
<path fill="none" stroke="#63b8ff" d="M80.74,-109.98C121.91,-100.82 187.49,-86.21 232.2,-76.26"/>
<polygon fill="#63b8ff" stroke="#63b8ff" points="232.96,-79.67 241.96,-74.08 231.44,-72.84 232.96,-79.67"/>
</a>
</g>
</g>
<!-- Node10&#45;&gt;Node6 -->
<g id="edge11_Node000010_Node000006" class="edge">
<title>Node10&#45;&gt;Node6</title>
<g id="a_edge11_Node000010_Node000006"><a xlink:title=" ">
<path fill="none" stroke="#63b8ff" d="M290.3,-54.98C299.32,-47.15 312.91,-35.34 323.82,-25.86"/>
<polygon fill="#63b8ff" stroke="#63b8ff" points="326.27,-28.37 331.52,-19.17 321.68,-23.09 326.27,-28.37"/>
</a>
</g>
</g>
<!-- Node11&#45;&gt;Node6 -->
<g id="edge13_Node000011_Node000006" class="edge">
<title>Node11&#45;&gt;Node6</title>
<g id="a_edge13_Node000011_Node000006"><a xlink:title=" ">
<path fill="none" stroke="#63b8ff" d="M340.86,-219.8C345.37,-202.62 355.12,-163.01 358.5,-129 362.04,-93.45 353.16,-52.22 346.95,-28.96"/>
<polygon fill="#63b8ff" stroke="#63b8ff" points="350.25,-27.77 344.18,-19.09 343.51,-29.67 350.25,-27.77"/>
</a>
</g>
</g>
<!-- Node12 -->
<g id="Node000012" class="node">
<title>Node12</title>
<g id="a_Node000012"><a xlink:href="ast_8h.html" target="_top" xlink:title=" ">
<polygon fill="white" stroke="#666666" points="325.5,-184 257.5,-184 257.5,-165 325.5,-165 325.5,-184"/>
<text text-anchor="middle" x="291.5" y="-172" font-family="Helvetica,sans-Serif" font-size="10.00">../ast/ast.h</text>
</a>
</g>
</g>
<!-- Node11&#45;&gt;Node12 -->
<g id="edge14_Node000011_Node000012" class="edge">
<title>Node11&#45;&gt;Node12</title>
<g id="a_edge14_Node000011_Node000012"><a xlink:title=" ">
<path fill="none" stroke="#63b8ff" d="M330.74,-219.75C324.03,-212.18 314.16,-201.05 305.99,-191.84"/>
<polygon fill="#63b8ff" stroke="#63b8ff" points="308.37,-189.25 299.12,-184.09 303.13,-193.89 308.37,-189.25"/>
</a>
</g>
</g>
<!-- Node12&#45;&gt;Node3 -->
<g id="edge15_Node000012_Node000003" class="edge">
<title>Node12&#45;&gt;Node3</title>
<g id="a_edge15_Node000012_Node000003"><a xlink:title=" ">
<path fill="none" stroke="#63b8ff" d="M270.13,-164.98C248.35,-156.3 214.34,-142.75 189.58,-132.88"/>
<polygon fill="#63b8ff" stroke="#63b8ff" points="190.84,-129.62 180.26,-129.17 188.25,-136.12 190.84,-129.62"/>
</a>
</g>
</g>
<!-- Node12&#45;&gt;Node10 -->
<g id="edge18_Node000012_Node000010" class="edge">
<title>Node12&#45;&gt;Node10</title>
<g id="a_edge18_Node000012_Node000010"><a xlink:title=" ">
<path fill="none" stroke="#63b8ff" d="M283.02,-164.85C275.45,-156.47 264.9,-143.01 260.5,-129 255.59,-113.36 262.26,-95.56 269.19,-82.79"/>
<polygon fill="#63b8ff" stroke="#63b8ff" points="272.24,-84.51 274.34,-74.13 266.22,-80.93 272.24,-84.51"/>
</a>
</g>
</g>
<!-- Node13 -->
<g id="Node000013" class="node">
<title>Node13</title>
<g id="a_Node000013"><a xlink:href="redir_8h.html" target="_top" xlink:title=" ">
<polygon fill="white" stroke="#666666" points="349.5,-129 269.5,-129 269.5,-110 349.5,-110 349.5,-129"/>
<text text-anchor="middle" x="309.5" y="-117" font-family="Helvetica,sans-Serif" font-size="10.00">../utils/redir.h</text>
</a>
</g>
</g>
<!-- Node12&#45;&gt;Node13 -->
<g id="edge16_Node000012_Node000013" class="edge">
<title>Node12&#45;&gt;Node13</title>
<g id="a_edge16_Node000012_Node000013"><a xlink:title=" ">
<path fill="none" stroke="#63b8ff" d="M294.47,-164.75C296.86,-157.72 300.29,-147.62 303.27,-138.84"/>
<polygon fill="#63b8ff" stroke="#63b8ff" points="306.68,-139.68 306.58,-129.09 300.05,-137.43 306.68,-139.68"/>
</a>
</g>
</g>
<!-- Node13&#45;&gt;Node10 -->
<g id="edge17_Node000013_Node000010" class="edge">
<title>Node13&#45;&gt;Node10</title>
<g id="a_edge17_Node000013_Node000010"><a xlink:title=" ">
<path fill="none" stroke="#63b8ff" d="M304.71,-109.75C300.74,-102.49 294.97,-91.95 290.07,-82.98"/>
<polygon fill="#63b8ff" stroke="#63b8ff" points="293.07,-81.18 285.2,-74.09 286.93,-84.54 293.07,-81.18"/>
</a>
</g>
</g>
</g>
</svg>
