<?xml version="1.0" encoding="UTF-8" standalone="no"?>
<!DOCTYPE svg PUBLIC "-//W3C//DTD SVG 1.1//EN"
 "http://www.w3.org/Graphics/SVG/1.1/DTD/svg11.dtd">
<!-- Generated by graphviz version 2.43.0 (0)
 -->
<!-- Title: dot_b Pages: 1 -->
<svg width="814pt" height="435pt"
 viewBox="0.00 0.00 814.00 435.00" xmlns="http://www.w3.org/2000/svg" xmlns:xlink="http://www.w3.org/1999/xlink">
<g id="graph0" class="graph" transform="scale(1 1) rotate(0) translate(4 431)">
<title>dot_b</title>
<!-- Node1 -->
<g id="Node000001" class="node">
<title>Node1</title>
<g id="a_Node000001"><a xlink:title="Execute the dot builtin cmd.">
<polygon fill="#999999" stroke="#666666" points="806,-121 762,-121 762,-102 806,-102 806,-121"/>
<text text-anchor="middle" x="784" y="-109" font-family="Helvetica,sans-Serif" font-size="10.00">dot_b</text>
</a>
</g>
</g>
<!-- Node2 -->
<g id="Node000002" class="node">
<title>Node2</title>
<g id="a_Node000002"><a xlink:href="exec_8c.html#abaeb177587c7eec6a064b35bb8399cae" target="_top" xlink:title="Execute builtin cmd with given args.">
<polygon fill="white" stroke="#666666" points="726,-140 651,-140 651,-121 726,-121 726,-140"/>
<text text-anchor="middle" x="688.5" y="-128" font-family="Helvetica,sans-Serif" font-size="10.00">exec_builtin</text>
</a>
</g>
</g>
<!-- Node1&#45;&gt;Node2 -->
<g id="edge1_Node000001_Node000002" class="edge">
<title>Node1&#45;&gt;Node2</title>
<g id="a_edge1_Node000001_Node000002"><a xlink:title=" ">
<path fill="none" stroke="#63b8ff" d="M751.81,-117.84C743.55,-119.52 734.56,-121.34 726.05,-123.07"/>
<polygon fill="#63b8ff" stroke="#63b8ff" points="752.68,-121.23 761.78,-115.81 751.29,-114.37 752.68,-121.23"/>
</a>
</g>
</g>
<!-- Node3 -->
<g id="Node000003" class="node">
<title>Node3</title>
<g id="a_Node000003"><a xlink:href="exec_8c.html#a287d81b4658832f192750310e2925917" target="_top" xlink:title="Execute the builtin command with given args.">
<polygon fill="white" stroke="#666666" points="615,-181 565,-181 565,-162 615,-162 615,-181"/>
<text text-anchor="middle" x="590" y="-169" font-family="Helvetica,sans-Serif" font-size="10.00">exec_b</text>
</a>
</g>
</g>
<!-- Node2&#45;&gt;Node3 -->
<g id="edge2_Node000002_Node000003" class="edge">
<title>Node2&#45;&gt;Node3</title>
<g id="a_edge2_Node000002_Node000003"><a xlink:title=" ">
<path fill="none" stroke="#63b8ff" d="M655.55,-144.08C641.81,-149.91 626.09,-156.59 613.59,-161.9"/>
<polygon fill="#63b8ff" stroke="#63b8ff" points="657.28,-147.14 665.12,-140.01 654.55,-140.7 657.28,-147.14"/>
</a>
</g>
</g>
<!-- Node4 -->
<g id="Node000004" class="node">
<title>Node4</title>
<g id="a_Node000004"><a xlink:href="exec_8c.html#ae65edaa99b26b49d60c451157d38b34a" target="_top" xlink:title="Execute les commandes avec les args donnes.">
<polygon fill="white" stroke="#666666" points="529,-222 464,-222 464,-203 529,-203 529,-222"/>
<text text-anchor="middle" x="496.5" y="-210" font-family="Helvetica,sans-Serif" font-size="10.00">exec_cmd</text>
</a>
</g>
</g>
<!-- Node3&#45;&gt;Node4 -->
<g id="edge3_Node000003_Node000004" class="edge">
<title>Node3&#45;&gt;Node4</title>
<g id="a_edge3_Node000003_Node000004"><a xlink:title=" ">
<path fill="none" stroke="#63b8ff" d="M558.32,-185.25C545.39,-191.04 530.65,-197.64 518.92,-202.9"/>
<polygon fill="#63b8ff" stroke="#63b8ff" points="560.08,-188.29 567.78,-181.01 557.22,-181.9 560.08,-188.29"/>
</a>
</g>
</g>
<!-- Node5 -->
<g id="Node000005" class="node">
<title>Node5</title>
<g id="a_Node000005"><a xlink:href="ast__run_8c.html#aeb6878a59c6907e5669fc3cc428913d9" target="_top" xlink:title=" ">
<polygon fill="white" stroke="#666666" points="428,-222 349,-222 349,-203 428,-203 428,-222"/>
<text text-anchor="middle" x="388.5" y="-210" font-family="Helvetica,sans-Serif" font-size="10.00">ast_run_cmd</text>
</a>
</g>
</g>
<!-- Node4&#45;&gt;Node5 -->
<g id="edge4_Node000004_Node000005" class="edge">
<title>Node4&#45;&gt;Node5</title>
<g id="a_edge4_Node000004_Node000005"><a xlink:title=" ">
<path fill="none" stroke="#63b8ff" d="M453.92,-212.5C445.45,-212.5 436.58,-212.5 428.21,-212.5"/>
<polygon fill="#63b8ff" stroke="#63b8ff" points="453.98,-216 463.98,-212.5 453.98,-209 453.98,-216"/>
</a>
</g>
</g>
<!-- Node6 -->
<g id="Node000006" class="node">
<title>Node6</title>
<g id="a_Node000006"><a xlink:href="ast_8c.html#a572345b2707780bbbc5bbaacdca9c372" target="_top" xlink:title=" ">
<polygon fill="white" stroke="#666666" points="313,-222 260,-222 260,-203 313,-203 313,-222"/>
<text text-anchor="middle" x="286.5" y="-210" font-family="Helvetica,sans-Serif" font-size="10.00">run_ast</text>
</a>
</g>
</g>
<!-- Node5&#45;&gt;Node6 -->
<g id="edge5_Node000005_Node000006" class="edge">
<title>Node5&#45;&gt;Node6</title>
<g id="a_edge5_Node000005_Node000006"><a xlink:title=" ">
<path fill="none" stroke="#63b8ff" d="M338.58,-212.5C329.76,-212.5 320.9,-212.5 313.1,-212.5"/>
<polygon fill="#63b8ff" stroke="#63b8ff" points="338.84,-216 348.84,-212.5 338.84,-209 338.84,-216"/>
</a>
</g>
</g>
<!-- Node7 -->
<g id="Node000007" class="node">
<title>Node7</title>
<g id="a_Node000007"><a xlink:href="ast__run_8c.html#a8a01fec616135007fc5b3968a101901b" target="_top" xlink:title=" ">
<polygon fill="white" stroke="#666666" points="215,-351 124,-351 124,-332 215,-332 215,-351"/>
<text text-anchor="middle" x="169.5" y="-339" font-family="Helvetica,sans-Serif" font-size="10.00">ast_run_and_or</text>
</a>
</g>
</g>
<!-- Node6&#45;&gt;Node7 -->
<g id="edge6_Node000006_Node000007" class="edge">
<title>Node6&#45;&gt;Node7</title>
<g id="a_edge6_Node000006_Node000007"><a xlink:title=" ">
<path fill="none" stroke="#63b8ff" d="M277.39,-231.49C268.24,-254.42 251.01,-292 224,-314.5 213.16,-323.53 197.59,-328.1 186.04,-331.97"/>
<polygon fill="#63b8ff" stroke="#63b8ff" points="280.68,-232.67 281.03,-222.09 274.16,-230.15 280.68,-232.67"/>
</a>
</g>
</g>
<!-- Node8 -->
<g id="Node000008" class="node">
<title>Node8</title>
<g id="a_Node000008"><a xlink:href="ast__run_8c.html#a9d83d4834a61ffe21eb77838d70ae173" target="_top" xlink:title=" ">
<polygon fill="white" stroke="#666666" points="205,-314 134,-314 134,-295 205,-295 205,-314"/>
<text text-anchor="middle" x="169.5" y="-302" font-family="Helvetica,sans-Serif" font-size="10.00">ast_run_for</text>
</a>
</g>
</g>
<!-- Node6&#45;&gt;Node8 -->
<g id="edge8_Node000006_Node000008" class="edge">
<title>Node6&#45;&gt;Node8</title>
<g id="a_edge8_Node000006_Node000008"><a xlink:title=" ">
<path fill="none" stroke="#63b8ff" d="M269.53,-230.52C258.48,-245.12 242.48,-264.83 224,-277.5 211.88,-285.81 195.59,-290.56 184.19,-294.88"/>
<polygon fill="#63b8ff" stroke="#63b8ff" points="272.56,-232.3 275.74,-222.2 266.95,-228.11 272.56,-232.3"/>
</a>
</g>
</g>
<!-- Node9 -->
<g id="Node000009" class="node">
<title>Node9</title>
<g id="a_Node000009"><a xlink:href="ast__run_8c.html#a0a7138b1f2608ea36211c9b78988c248" target="_top" xlink:title=" ">
<polygon fill="white" stroke="#666666" points="202,-277 137,-277 137,-258 202,-258 202,-277"/>
<text text-anchor="middle" x="169.5" y="-265" font-family="Helvetica,sans-Serif" font-size="10.00">ast_run_if</text>
</a>
</g>
</g>
<!-- Node6&#45;&gt;Node9 -->
<g id="edge10_Node000006_Node000009" class="edge">
<title>Node6&#45;&gt;Node9</title>
<g id="a_edge10_Node000006_Node000009"><a xlink:title=" ">
<path fill="none" stroke="#63b8ff" d="M250.87,-226.39C242.29,-231.22 232.97,-236.35 224,-240.5 209.59,-247.16 191.99,-252.6 181.01,-257.98"/>
<polygon fill="#63b8ff" stroke="#63b8ff" points="252.86,-229.28 259.85,-221.31 249.42,-223.19 252.86,-229.28"/>
</a>
</g>
</g>
<!-- Node10 -->
<g id="Node000010" class="node">
<title>Node10</title>
<g id="a_Node000010"><a xlink:href="ast__run_8c.html#ae25cd3ced8abafd76110dba8852a6b87" target="_top" xlink:title=" ">
<polygon fill="white" stroke="#666666" points="206,-222 133,-222 133,-203 206,-203 206,-222"/>
<text text-anchor="middle" x="169.5" y="-210" font-family="Helvetica,sans-Serif" font-size="10.00">ast_run_list</text>
</a>
</g>
</g>
<!-- Node6&#45;&gt;Node10 -->
<g id="edge12_Node000006_Node000010" class="edge">
<title>Node6&#45;&gt;Node10</title>
<g id="a_edge12_Node000006_Node000010"><a xlink:title=" ">
<path fill="none" stroke="#63b8ff" d="M249.87,-206.2C236.05,-205.6 220.26,-205.6 206.42,-206.19"/>
<polygon fill="#63b8ff" stroke="#63b8ff" points="249.79,-209.71 259.98,-206.78 250.19,-202.72 249.79,-209.71"/>
</a>
</g>
</g>
<!-- Node11 -->
<g id="Node000011" class="node">
<title>Node11</title>
<g id="a_Node000011"><a xlink:href="ast__run_8c.html#a536f37ba9bffcd2099fef668656181e0" target="_top" xlink:title=" ">
<polygon fill="white" stroke="#666666" points="209,-185 130,-185 130,-166 209,-166 209,-185"/>
<text text-anchor="middle" x="169.5" y="-173" font-family="Helvetica,sans-Serif" font-size="10.00">ast_run_loop</text>
</a>
</g>
</g>
<!-- Node6&#45;&gt;Node11 -->
<g id="edge15_Node000006_Node000011" class="edge">
<title>Node6&#45;&gt;Node11</title>
<g id="a_edge15_Node000006_Node000011"><a xlink:title=" ">
<path fill="none" stroke="#63b8ff" d="M260.88,-198.92C245.86,-192.96 226.34,-186.43 209.29,-181.56"/>
<polygon fill="#63b8ff" stroke="#63b8ff" points="259.89,-202.3 270.47,-202.93 262.59,-195.85 259.89,-202.3"/>
</a>
</g>
</g>
<!-- Node12 -->
<g id="Node000012" class="node">
<title>Node12</title>
<g id="a_Node000012"><a xlink:href="ast__run_8c.html#aa3e6a973e744d748ee415840596beb53" target="_top" xlink:title=" ">
<polygon fill="white" stroke="#666666" points="224,-148 115,-148 115,-129 224,-129 224,-148"/>
<text text-anchor="middle" x="169.5" y="-136" font-family="Helvetica,sans-Serif" font-size="10.00">ast_run_shell_redir</text>
</a>
</g>
</g>
<!-- Node6&#45;&gt;Node12 -->
<g id="edge17_Node000006_Node000012" class="edge">
<title>Node6&#45;&gt;Node12</title>
<g id="a_edge17_Node000006_Node000012"><a xlink:title=" ">
<path fill="none" stroke="#63b8ff" d="M275.31,-194.05C263.99,-179.21 244.61,-159.7 224.29,-147.67"/>
<polygon fill="#63b8ff" stroke="#63b8ff" points="272.67,-196.37 281.26,-202.57 278.41,-192.37 272.67,-196.37"/>
</a>
</g>
</g>
<!-- Node13 -->
<g id="Node000013" class="node">
<title>Node13</title>
<g id="a_Node000013"><a xlink:href="exec_8c.html#a23babf893bbcd2f6126698a1a19b169f" target="_top" xlink:title="Execute funct with given arguments.">
<polygon fill="white" stroke="#666666" points="202,-427 137,-427 137,-408 202,-408 202,-427"/>
<text text-anchor="middle" x="169.5" y="-415" font-family="Helvetica,sans-Serif" font-size="10.00">exec_func</text>
</a>
</g>
</g>
<!-- Node6&#45;&gt;Node13 -->
<g id="edge19_Node000006_Node000013" class="edge">
<title>Node6&#45;&gt;Node13</title>
<g id="a_edge19_Node000006_Node000013"><a xlink:title=" ">
<path fill="none" stroke="#63b8ff" d="M280.91,-232.24C270.88,-273.94 246.15,-369.17 224,-393.5 218.11,-399.98 210.14,-404.81 202.15,-408.37"/>
<polygon fill="#63b8ff" stroke="#63b8ff" points="284.33,-232.97 283.23,-222.43 277.52,-231.36 284.33,-232.97"/>
</a>
</g>
</g>
<!-- Node14 -->
<g id="Node000014" class="node">
<title>Node14</title>
<g id="a_Node000014"><a xlink:href="exec_8c.html#ab743cb88e12e9b922050925fd2075e36" target="_top" xlink:title="Execute a pipeline of commands.">
<polygon fill="white" stroke="#666666" points="202,-93 137,-93 137,-74 202,-74 202,-93"/>
<text text-anchor="middle" x="169.5" y="-81" font-family="Helvetica,sans-Serif" font-size="10.00">exec_pipe</text>
</a>
</g>
</g>
<!-- Node6&#45;&gt;Node14 -->
<g id="edge21_Node000006_Node000014" class="edge">
<title>Node6&#45;&gt;Node14</title>
<g id="a_edge21_Node000006_Node000014"><a xlink:title=" ">
<path fill="none" stroke="#63b8ff" d="M276.09,-193.92C265.37,-173.96 246.39,-142.07 224,-119.5 213.59,-109.01 199.69,-99.77 188.67,-93.27"/>
<polygon fill="#63b8ff" stroke="#63b8ff" points="273.06,-195.68 280.8,-202.92 279.26,-192.43 273.06,-195.68"/>
</a>
</g>
</g>
<!-- Node16 -->
<g id="Node000016" class="node">
<title>Node16</title>
<g id="a_Node000016"><a xlink:href="42sh_8c.html#a3c04138a5bfe5d72780bb7e82a18e627" target="_top" xlink:title=" ">
<polygon fill="white" stroke="#666666" points="190,-56 149,-56 149,-37 190,-37 190,-56"/>
<text text-anchor="middle" x="169.5" y="-44" font-family="Helvetica,sans-Serif" font-size="10.00">main</text>
</a>
</g>
</g>
<!-- Node6&#45;&gt;Node16 -->
<g id="edge25_Node000006_Node000016" class="edge">
<title>Node6&#45;&gt;Node16</title>
<g id="a_edge25_Node000006_Node000016"><a xlink:title=" ">
<path fill="none" stroke="#63b8ff" d="M282.56,-192.44C276.89,-160.84 261.51,-99.49 224,-64.5 214.76,-55.88 201.24,-51.37 190.11,-49.03"/>
<polygon fill="#63b8ff" stroke="#63b8ff" points="279.16,-193.33 284.23,-202.63 286.07,-192.19 279.16,-193.33"/>
</a>
</g>
</g>
<!-- Node17 -->
<g id="Node000017" class="node">
<title>Node17</title>
<g id="a_Node000017"><a xlink:href="dot_8c.html#a17477ee2b0f1b8b9306566c990d15b35" target="_top" xlink:title="Main loop of dot builtin.">
<polygon fill="white" stroke="#666666" points="203.5,-19 135.5,-19 135.5,0 203.5,0 203.5,-19"/>
<text text-anchor="middle" x="169.5" y="-7" font-family="Helvetica,sans-Serif" font-size="10.00">main_loop</text>
</a>
</g>
</g>
<!-- Node6&#45;&gt;Node17 -->
<g id="edge26_Node000006_Node000017" class="edge">
<title>Node6&#45;&gt;Node17</title>
<g id="a_edge26_Node000006_Node000017"><a xlink:title=" ">
<path fill="none" stroke="#63b8ff" d="M281.27,-192.75C271.8,-150.11 247.79,-51.38 224,-27.5 218.47,-21.95 211.17,-18.11 203.75,-15.45"/>
<polygon fill="#63b8ff" stroke="#63b8ff" points="277.9,-193.72 283.46,-202.74 284.74,-192.22 277.9,-193.72"/>
</a>
</g>
</g>
<!-- Node7&#45;&gt;Node6 -->
<g id="edge7_Node000007_Node000006" class="edge">
<title>Node7&#45;&gt;Node6</title>
<g id="a_edge7_Node000007_Node000006"><a xlink:title=" ">
<path fill="none" stroke="#63b8ff" d="M223.49,-332.92C223.66,-332.78 223.83,-332.64 224,-332.5 260.05,-302.46 278.69,-245.57 283.93,-222.12"/>
<polygon fill="#63b8ff" stroke="#63b8ff" points="221.54,-330.02 215.12,-338.45 225.39,-335.86 221.54,-330.02"/>
</a>
</g>
</g>
<!-- Node8&#45;&gt;Node6 -->
<g id="edge9_Node000008_Node000006" class="edge">
<title>Node8&#45;&gt;Node6</title>
<g id="a_edge9_Node000008_Node000006"><a xlink:title=" ">
<path fill="none" stroke="#63b8ff" d="M214.65,-300.87C217.92,-299.29 221.08,-297.5 224,-295.5 252.24,-276.14 274.69,-240.33 282.51,-222.21"/>
<polygon fill="#63b8ff" stroke="#63b8ff" points="213.14,-297.71 205.23,-304.76 215.81,-304.18 213.14,-297.71"/>
</a>
</g>
</g>
<!-- Node9&#45;&gt;Node6 -->
<g id="edge11_Node000009_Node000006" class="edge">
<title>Node9&#45;&gt;Node6</title>
<g id="a_edge11_Node000009_Node000006"><a xlink:title=" ">
<path fill="none" stroke="#63b8ff" d="M211.79,-263.58C215.96,-262.02 220.1,-260.3 224,-258.5 245.26,-248.67 268.46,-233.32 279.29,-222.3"/>
<polygon fill="#63b8ff" stroke="#63b8ff" points="210.4,-260.35 202.06,-266.89 212.66,-266.98 210.4,-260.35"/>
</a>
</g>
</g>
<!-- Node10&#45;&gt;Node6 -->
<g id="edge14_Node000010_Node000006" class="edge">
<title>Node10&#45;&gt;Node6</title>
<g id="a_edge14_Node000010_Node000006"><a xlink:title=" ">
<path fill="none" stroke="#63b8ff" d="M216.46,-219.13C231.29,-219.45 247.18,-219.14 259.98,-218.22"/>
<polygon fill="#63b8ff" stroke="#63b8ff" points="216.52,-215.63 206.42,-218.81 216.3,-222.62 216.52,-215.63"/>
</a>
</g>
</g>
<!-- Node10&#45;&gt;Node10 -->
<g id="edge13_Node000010_Node000010" class="edge">
<title>Node10&#45;&gt;Node10</title>
<g id="a_edge13_Node000010_Node000010"><a xlink:title=" ">
<path fill="none" stroke="#63b8ff" d="M190.98,-231.55C189.55,-236.38 182.39,-240 169.5,-240 148.88,-240 142.92,-230.73 151.62,-222.08"/>
<polygon fill="#63b8ff" stroke="#63b8ff" points="194.2,-230.19 187.38,-222.08 187.66,-232.67 194.2,-230.19"/>
</a>
</g>
</g>
<!-- Node11&#45;&gt;Node6 -->
<g id="edge16_Node000011_Node000006" class="edge">
<title>Node11&#45;&gt;Node6</title>
<g id="a_edge16_Node000011_Node000006"><a xlink:title=" ">
<path fill="none" stroke="#63b8ff" d="M194.64,-188.89C213.79,-196.52 240.48,-205.14 259.98,-210.01"/>
<polygon fill="#63b8ff" stroke="#63b8ff" points="195.97,-185.65 185.4,-185.01 193.27,-192.1 195.97,-185.65"/>
</a>
</g>
</g>
<!-- Node12&#45;&gt;Node6 -->
<g id="edge18_Node000012_Node000006" class="edge">
<title>Node12&#45;&gt;Node6</title>
<g id="a_edge18_Node000012_Node000006"><a xlink:title=" ">
<path fill="none" stroke="#63b8ff" d="M191.95,-151.66C202.09,-155.43 214.12,-159.69 224,-165.5 241.68,-175.89 258.66,-191.99 270.29,-202.72"/>
<polygon fill="#63b8ff" stroke="#63b8ff" points="193.17,-148.38 182.58,-148.01 190.63,-154.9 193.17,-148.38"/>
</a>
</g>
</g>
<!-- Node13&#45;&gt;Node4 -->
<g id="edge20_Node000013_Node000004" class="edge">
<title>Node13&#45;&gt;Node4</title>
<g id="a_edge20_Node000013_Node000004"><a xlink:title=" ">
<path fill="none" stroke="#63b8ff" d="M194.21,-402.54C257.34,-362.72 428.23,-254.93 480.26,-222.11"/>
<polygon fill="#63b8ff" stroke="#63b8ff" points="192.3,-399.61 185.71,-407.91 196.03,-405.53 192.3,-399.61"/>
</a>
</g>
</g>
<!-- Node14&#45;&gt;Node14 -->
<g id="edge24_Node000014_Node000014" class="edge">
<title>Node14&#45;&gt;Node14</title>
<g id="a_edge24_Node000014_Node000014"><a xlink:title=" ">
<path fill="none" stroke="#63b8ff" d="M190.98,-102.55C189.55,-107.38 182.39,-111 169.5,-111 148.88,-111 142.92,-101.73 151.62,-93.08"/>
<polygon fill="#63b8ff" stroke="#63b8ff" points="194.2,-101.19 187.38,-93.08 187.66,-103.67 194.2,-101.19"/>
</a>
</g>
</g>
<!-- Node15 -->
<g id="Node000015" class="node">
<title>Node15</title>
<g id="a_Node000015"><a xlink:href="ast__run_8c.html#a24d0223822f7b635628199085c3283be" target="_top" xlink:title=" ">
<polygon fill="white" stroke="#666666" points="79,-241 0,-241 0,-222 79,-222 79,-241"/>
<text text-anchor="middle" x="39.5" y="-229" font-family="Helvetica,sans-Serif" font-size="10.00">ast_run_pipe</text>
</a>
</g>
</g>
<!-- Node14&#45;&gt;Node15 -->
<g id="edge22_Node000014_Node000015" class="edge">
<title>Node14&#45;&gt;Node15</title>
<g id="a_edge22_Node000014_Node000015"><a xlink:title=" ">
<path fill="none" stroke="#63b8ff" d="M141.63,-98.65C132.59,-104.48 122.82,-111.64 115,-119.5 82.39,-152.28 55.66,-201.35 45.22,-221.91"/>
<polygon fill="#63b8ff" stroke="#63b8ff" points="143.66,-101.51 150.34,-93.28 139.99,-95.55 143.66,-101.51"/>
</a>
</g>
</g>
<!-- Node15&#45;&gt;Node6 -->
<g id="edge23_Node000015_Node000006" class="edge">
<title>Node15&#45;&gt;Node6</title>
<g id="a_edge23_Node000015_Node000006"><a xlink:title=" ">
<path fill="none" stroke="#63b8ff" d="M45.16,-250.99C53.45,-280.8 73.91,-336.78 115,-360.5 156.96,-384.72 183.7,-387.39 224,-360.5 272.37,-328.22 282.75,-250 284.93,-222.37"/>
<polygon fill="#63b8ff" stroke="#63b8ff" points="48.54,-250.09 42.64,-241.29 41.77,-251.85 48.54,-250.09"/>
</a>
</g>
</g>
<!-- Node17&#45;&gt;Node1 -->
<g id="edge27_Node000017_Node000001" class="edge">
<title>Node17&#45;&gt;Node1</title>
<g id="a_edge27_Node000017_Node000001"><a xlink:title=" ">
<path fill="none" stroke="#63b8ff" d="M209.6,-22.38C214.46,-24.07 219.36,-25.8 224,-27.5 297.42,-54.42 309.3,-92.5 387.5,-92.5 591,-92.5 591,-92.5 591,-92.5 653.3,-92.5 726.43,-102.53 761.76,-108.02"/>
<polygon fill="#63b8ff" stroke="#63b8ff" points="210.35,-18.94 199.75,-19.03 208.09,-25.57 210.35,-18.94"/>
</a>
</g>
</g>
</g>
</svg>
