<?xml version="1.0" encoding="UTF-8" standalone="no"?>
<!DOCTYPE svg PUBLIC "-//W3C//DTD SVG 1.1//EN"
 "http://www.w3.org/Graphics/SVG/1.1/DTD/svg11.dtd">
<!-- Generated by graphviz version 2.43.0 (0)
 -->
<!-- Title: echo_b Pages: 1 -->
<svg width="161pt" height="64pt"
 viewBox="0.00 0.00 161.00 64.00" xmlns="http://www.w3.org/2000/svg" xmlns:xlink="http://www.w3.org/1999/xlink">
<g id="graph0" class="graph" transform="scale(1 1) rotate(0) translate(4 60)">
<title>echo_b</title>
<!-- Node1 -->
<g id="Node000001" class="node">
<title>Node1</title>
<g id="a_Node000001"><a xlink:title="print les strings sur le terminal">
<polygon fill="#999999" stroke="#666666" points="51,-37 0,-37 0,-18 51,-18 51,-37"/>
<text text-anchor="middle" x="25.5" y="-25" font-family="Helvetica,sans-Serif" font-size="10.00">echo_b</text>
</a>
</g>
</g>
<!-- Node2 -->
<g id="Node000002" class="node">
<title>Node2</title>
<g id="a_Node000002"><a xlink:href="echo_8c.html#a35bb3b6350dcd1d19a889822cc7dedf0" target="_top" xlink:title="Parse &#45;n, &#45;e, and &#45;E options.">
<polygon fill="white" stroke="#666666" points="153,-56 87,-56 87,-37 153,-37 153,-56"/>
<text text-anchor="middle" x="120" y="-44" font-family="Helvetica,sans-Serif" font-size="10.00">args_echo</text>
</a>
</g>
</g>
<!-- Node1&#45;&gt;Node2 -->
<g id="edge1_Node000001_Node000002" class="edge">
<title>Node1&#45;&gt;Node2</title>
<g id="a_edge1_Node000001_Node000002"><a xlink:title=" ">
<path fill="none" stroke="#63b8ff" d="M51.29,-32.59C59.13,-34.2 68.04,-36.03 76.76,-37.82"/>
<polygon fill="#63b8ff" stroke="#63b8ff" points="76.32,-41.31 86.82,-39.89 77.73,-34.45 76.32,-41.31"/>
</a>
</g>
</g>
<!-- Node3 -->
<g id="Node000003" class="node">
<title>Node3</title>
<g id="a_Node000003"><a xlink:href="echo_8c.html#ad398eb4dcd3b31a7800eb6f3f510f2b2" target="_top" xlink:title="insert 2 character">
<polygon fill="white" stroke="#666666" points="149.5,-19 90.5,-19 90.5,0 149.5,0 149.5,-19"/>
<text text-anchor="middle" x="120" y="-7" font-family="Helvetica,sans-Serif" font-size="10.00">insert_in</text>
</a>
</g>
</g>
<!-- Node1&#45;&gt;Node3 -->
<g id="edge2_Node000001_Node000003" class="edge">
<title>Node1&#45;&gt;Node3</title>
<g id="a_edge2_Node000001_Node000003"><a xlink:title=" ">
<path fill="none" stroke="#63b8ff" d="M51.29,-22.68C60.19,-20.95 70.44,-18.95 80.24,-17.04"/>
<polygon fill="#63b8ff" stroke="#63b8ff" points="81.06,-20.45 90.21,-15.1 79.72,-13.58 81.06,-20.45"/>
</a>
</g>
</g>
</g>
</svg>
