<?xml version="1.0" encoding="UTF-8" standalone="no"?>
<!DOCTYPE svg PUBLIC "-//W3C//DTD SVG 1.1//EN"
 "http://www.w3.org/Graphics/SVG/1.1/DTD/svg11.dtd">
<!-- Generated by graphviz version 2.43.0 (0)
 -->
<!-- Title: exec_func Pages: 1 -->
<svg width="835pt" height="427pt"
 viewBox="0.00 0.00 835.00 426.50" xmlns="http://www.w3.org/2000/svg" xmlns:xlink="http://www.w3.org/1999/xlink">
<g id="graph0" class="graph" transform="scale(1 1) rotate(0) translate(4 422.5)">
<title>exec_func</title>
<!-- Node1 -->
<g id="Node000001" class="node">
<title>Node1</title>
<g id="a_Node000001"><a xlink:title="Execute funct with given arguments.">
<polygon fill="#999999" stroke="#666666" points="827,-280 762,-280 762,-261 827,-261 827,-280"/>
<text text-anchor="middle" x="794.5" y="-268" font-family="Helvetica,sans-Serif" font-size="10.00">exec_func</text>
</a>
</g>
</g>
<!-- Node2 -->
<g id="Node000002" class="node">
<title>Node2</title>
<g id="a_Node000002"><a xlink:href="exec_8c.html#ae65edaa99b26b49d60c451157d38b34a" target="_top" xlink:title="Execute les commandes avec les args donnes.">
<polygon fill="white" stroke="#666666" points="726,-299 661,-299 661,-280 726,-280 726,-299"/>
<text text-anchor="middle" x="693.5" y="-287" font-family="Helvetica,sans-Serif" font-size="10.00">exec_cmd</text>
</a>
</g>
</g>
<!-- Node1&#45;&gt;Node2 -->
<g id="edge1_Node000001_Node000002" class="edge">
<title>Node1&#45;&gt;Node2</title>
<g id="a_edge1_Node000001_Node000002"><a xlink:title=" ">
<path fill="none" stroke="#63b8ff" d="M751.97,-278.47C743.33,-280.13 734.35,-281.85 726.14,-283.43"/>
<polygon fill="#63b8ff" stroke="#63b8ff" points="752.74,-281.89 761.9,-276.56 751.42,-275.01 752.74,-281.89"/>
</a>
</g>
</g>
<!-- Node3 -->
<g id="Node000003" class="node">
<title>Node3</title>
<g id="a_Node000003"><a xlink:href="ast__run_8c.html#aeb6878a59c6907e5669fc3cc428913d9" target="_top" xlink:title=" ">
<polygon fill="white" stroke="#666666" points="625,-299 546,-299 546,-280 625,-280 625,-299"/>
<text text-anchor="middle" x="585.5" y="-287" font-family="Helvetica,sans-Serif" font-size="10.00">ast_run_cmd</text>
</a>
</g>
</g>
<!-- Node2&#45;&gt;Node3 -->
<g id="edge2_Node000002_Node000003" class="edge">
<title>Node2&#45;&gt;Node3</title>
<g id="a_edge2_Node000002_Node000003"><a xlink:title=" ">
<path fill="none" stroke="#63b8ff" d="M650.92,-289.5C642.45,-289.5 633.58,-289.5 625.21,-289.5"/>
<polygon fill="#63b8ff" stroke="#63b8ff" points="650.98,-293 660.98,-289.5 650.98,-286 650.98,-293"/>
</a>
</g>
</g>
<!-- Node4 -->
<g id="Node000004" class="node">
<title>Node4</title>
<g id="a_Node000004"><a xlink:href="ast_8c.html#a572345b2707780bbbc5bbaacdca9c372" target="_top" xlink:title=" ">
<polygon fill="white" stroke="#666666" points="510,-261 457,-261 457,-242 510,-242 510,-261"/>
<text text-anchor="middle" x="483.5" y="-249" font-family="Helvetica,sans-Serif" font-size="10.00">run_ast</text>
</a>
</g>
</g>
<!-- Node3&#45;&gt;Node4 -->
<g id="edge3_Node000003_Node000004" class="edge">
<title>Node3&#45;&gt;Node4</title>
<g id="a_edge3_Node000003_Node000004"><a xlink:title=" ">
<path fill="none" stroke="#63b8ff" d="M549.59,-276.24C536.47,-271.25 521.81,-265.68 509.73,-261.09"/>
<polygon fill="#63b8ff" stroke="#63b8ff" points="548.67,-279.63 559.27,-279.91 551.16,-273.09 548.67,-279.63"/>
</a>
</g>
</g>
<!-- Node4&#45;&gt;Node1 -->
<g id="edge17_Node000004_Node000001" class="edge">
<title>Node4&#45;&gt;Node1</title>
<g id="a_edge17_Node000004_Node000001"><a xlink:title=" ">
<path fill="none" stroke="#63b8ff" d="M520.38,-253.71C581.3,-257.45 703.99,-265 761.88,-268.56"/>
<polygon fill="#63b8ff" stroke="#63b8ff" points="520.3,-250.19 510.1,-253.07 519.87,-257.18 520.3,-250.19"/>
</a>
</g>
</g>
<!-- Node5 -->
<g id="Node000005" class="node">
<title>Node5</title>
<g id="a_Node000005"><a xlink:href="ast__run_8c.html#a8a01fec616135007fc5b3968a101901b" target="_top" xlink:title=" ">
<polygon fill="white" stroke="#666666" points="412,-390 321,-390 321,-371 412,-371 412,-390"/>
<text text-anchor="middle" x="366.5" y="-378" font-family="Helvetica,sans-Serif" font-size="10.00">ast_run_and_or</text>
</a>
</g>
</g>
<!-- Node4&#45;&gt;Node5 -->
<g id="edge4_Node000004_Node000005" class="edge">
<title>Node4&#45;&gt;Node5</title>
<g id="a_edge4_Node000004_Node000005"><a xlink:title=" ">
<path fill="none" stroke="#63b8ff" d="M474.39,-270.49C465.24,-293.42 448.01,-331 421,-353.5 410.16,-362.53 394.59,-367.1 383.04,-370.97"/>
<polygon fill="#63b8ff" stroke="#63b8ff" points="477.68,-271.67 478.03,-261.09 471.16,-269.15 477.68,-271.67"/>
</a>
</g>
</g>
<!-- Node6 -->
<g id="Node000006" class="node">
<title>Node6</title>
<g id="a_Node000006"><a xlink:href="ast__run_8c.html#a9d83d4834a61ffe21eb77838d70ae173" target="_top" xlink:title=" ">
<polygon fill="white" stroke="#666666" points="402,-353 331,-353 331,-334 402,-334 402,-353"/>
<text text-anchor="middle" x="366.5" y="-341" font-family="Helvetica,sans-Serif" font-size="10.00">ast_run_for</text>
</a>
</g>
</g>
<!-- Node4&#45;&gt;Node6 -->
<g id="edge6_Node000004_Node000006" class="edge">
<title>Node4&#45;&gt;Node6</title>
<g id="a_edge6_Node000004_Node000006"><a xlink:title=" ">
<path fill="none" stroke="#63b8ff" d="M466.53,-269.52C455.48,-284.12 439.48,-303.83 421,-316.5 408.88,-324.81 392.59,-329.56 381.19,-333.88"/>
<polygon fill="#63b8ff" stroke="#63b8ff" points="469.56,-271.3 472.74,-261.2 463.95,-267.11 469.56,-271.3"/>
</a>
</g>
</g>
<!-- Node7 -->
<g id="Node000007" class="node">
<title>Node7</title>
<g id="a_Node000007"><a xlink:href="ast__run_8c.html#a0a7138b1f2608ea36211c9b78988c248" target="_top" xlink:title=" ">
<polygon fill="white" stroke="#666666" points="399,-316 334,-316 334,-297 399,-297 399,-316"/>
<text text-anchor="middle" x="366.5" y="-304" font-family="Helvetica,sans-Serif" font-size="10.00">ast_run_if</text>
</a>
</g>
</g>
<!-- Node4&#45;&gt;Node7 -->
<g id="edge8_Node000004_Node000007" class="edge">
<title>Node4&#45;&gt;Node7</title>
<g id="a_edge8_Node000004_Node000007"><a xlink:title=" ">
<path fill="none" stroke="#63b8ff" d="M447.77,-264.63C439.18,-269.33 429.9,-274.36 421,-278.5 406.34,-285.32 388.51,-291.2 377.58,-296.91"/>
<polygon fill="#63b8ff" stroke="#63b8ff" points="449.66,-267.58 456.75,-259.71 446.3,-261.44 449.66,-267.58"/>
</a>
</g>
</g>
<!-- Node8 -->
<g id="Node000008" class="node">
<title>Node8</title>
<g id="a_Node000008"><a xlink:href="ast__run_8c.html#ae25cd3ced8abafd76110dba8852a6b87" target="_top" xlink:title=" ">
<polygon fill="white" stroke="#666666" points="403,-261 330,-261 330,-242 403,-242 403,-261"/>
<text text-anchor="middle" x="366.5" y="-249" font-family="Helvetica,sans-Serif" font-size="10.00">ast_run_list</text>
</a>
</g>
</g>
<!-- Node4&#45;&gt;Node8 -->
<g id="edge10_Node000004_Node000008" class="edge">
<title>Node4&#45;&gt;Node8</title>
<g id="a_edge10_Node000004_Node000008"><a xlink:title=" ">
<path fill="none" stroke="#63b8ff" d="M446.87,-245.2C433.05,-244.6 417.26,-244.6 403.42,-245.19"/>
<polygon fill="#63b8ff" stroke="#63b8ff" points="446.79,-248.71 456.98,-245.78 447.19,-241.72 446.79,-248.71"/>
</a>
</g>
</g>
<!-- Node9 -->
<g id="Node000009" class="node">
<title>Node9</title>
<g id="a_Node000009"><a xlink:href="ast__run_8c.html#a536f37ba9bffcd2099fef668656181e0" target="_top" xlink:title=" ">
<polygon fill="white" stroke="#666666" points="406,-224 327,-224 327,-205 406,-205 406,-224"/>
<text text-anchor="middle" x="366.5" y="-212" font-family="Helvetica,sans-Serif" font-size="10.00">ast_run_loop</text>
</a>
</g>
</g>
<!-- Node4&#45;&gt;Node9 -->
<g id="edge13_Node000004_Node000009" class="edge">
<title>Node4&#45;&gt;Node9</title>
<g id="a_edge13_Node000004_Node000009"><a xlink:title=" ">
<path fill="none" stroke="#63b8ff" d="M457.88,-237.92C442.86,-231.96 423.34,-225.43 406.29,-220.56"/>
<polygon fill="#63b8ff" stroke="#63b8ff" points="456.89,-241.3 467.47,-241.93 459.59,-234.85 456.89,-241.3"/>
</a>
</g>
</g>
<!-- Node10 -->
<g id="Node000010" class="node">
<title>Node10</title>
<g id="a_Node000010"><a xlink:href="ast__run_8c.html#aa3e6a973e744d748ee415840596beb53" target="_top" xlink:title=" ">
<polygon fill="white" stroke="#666666" points="421,-187 312,-187 312,-168 421,-168 421,-187"/>
<text text-anchor="middle" x="366.5" y="-175" font-family="Helvetica,sans-Serif" font-size="10.00">ast_run_shell_redir</text>
</a>
</g>
</g>
<!-- Node4&#45;&gt;Node10 -->
<g id="edge15_Node000004_Node000010" class="edge">
<title>Node4&#45;&gt;Node10</title>
<g id="a_edge15_Node000004_Node000010"><a xlink:title=" ">
<path fill="none" stroke="#63b8ff" d="M472.31,-233.05C460.99,-218.21 441.61,-198.7 421.29,-186.67"/>
<polygon fill="#63b8ff" stroke="#63b8ff" points="469.67,-235.37 478.26,-241.57 475.41,-231.37 469.67,-235.37"/>
</a>
</g>
</g>
<!-- Node11 -->
<g id="Node000011" class="node">
<title>Node11</title>
<g id="a_Node000011"><a xlink:href="exec_8c.html#ab743cb88e12e9b922050925fd2075e36" target="_top" xlink:title="Execute a pipeline of commands.">
<polygon fill="white" stroke="#666666" points="399,-132 334,-132 334,-113 399,-113 399,-132"/>
<text text-anchor="middle" x="366.5" y="-120" font-family="Helvetica,sans-Serif" font-size="10.00">exec_pipe</text>
</a>
</g>
</g>
<!-- Node4&#45;&gt;Node11 -->
<g id="edge18_Node000004_Node000011" class="edge">
<title>Node4&#45;&gt;Node11</title>
<g id="a_edge18_Node000004_Node000011"><a xlink:title=" ">
<path fill="none" stroke="#63b8ff" d="M473.09,-232.92C462.37,-212.96 443.39,-181.07 421,-158.5 410.59,-148.01 396.69,-138.77 385.67,-132.27"/>
<polygon fill="#63b8ff" stroke="#63b8ff" points="470.06,-234.68 477.8,-241.92 476.26,-231.43 470.06,-234.68"/>
</a>
</g>
</g>
<!-- Node13 -->
<g id="Node000013" class="node">
<title>Node13</title>
<g id="a_Node000013"><a xlink:href="42sh_8c.html#a3c04138a5bfe5d72780bb7e82a18e627" target="_top" xlink:title=" ">
<polygon fill="white" stroke="#666666" points="387,-95 346,-95 346,-76 387,-76 387,-95"/>
<text text-anchor="middle" x="366.5" y="-83" font-family="Helvetica,sans-Serif" font-size="10.00">main</text>
</a>
</g>
</g>
<!-- Node4&#45;&gt;Node13 -->
<g id="edge22_Node000004_Node000013" class="edge">
<title>Node4&#45;&gt;Node13</title>
<g id="a_edge22_Node000004_Node000013"><a xlink:title=" ">
<path fill="none" stroke="#63b8ff" d="M479.56,-231.44C473.89,-199.84 458.51,-138.49 421,-103.5 411.76,-94.88 398.24,-90.37 387.11,-88.03"/>
<polygon fill="#63b8ff" stroke="#63b8ff" points="476.16,-232.33 481.23,-241.63 483.07,-231.19 476.16,-232.33"/>
</a>
</g>
</g>
<!-- Node14 -->
<g id="Node000014" class="node">
<title>Node14</title>
<g id="a_Node000014"><a xlink:href="dot_8c.html#a17477ee2b0f1b8b9306566c990d15b35" target="_top" xlink:title="Main loop of dot builtin.">
<polygon fill="white" stroke="#666666" points="400.5,-19 332.5,-19 332.5,0 400.5,0 400.5,-19"/>
<text text-anchor="middle" x="366.5" y="-7" font-family="Helvetica,sans-Serif" font-size="10.00">main_loop</text>
</a>
</g>
</g>
<!-- Node4&#45;&gt;Node14 -->
<g id="edge23_Node000004_Node000014" class="edge">
<title>Node4&#45;&gt;Node14</title>
<g id="a_edge23_Node000004_Node000014"><a xlink:title=" ">
<path fill="none" stroke="#63b8ff" d="M482.28,-231.72C480.79,-190.06 471.73,-92.28 421,-33.5 415.61,-27.26 408.28,-22.56 400.77,-19.06"/>
<polygon fill="#63b8ff" stroke="#63b8ff" points="478.79,-231.99 482.53,-241.91 485.78,-231.82 478.79,-231.99"/>
</a>
</g>
</g>
<!-- Node5&#45;&gt;Node4 -->
<g id="edge5_Node000005_Node000004" class="edge">
<title>Node5&#45;&gt;Node4</title>
<g id="a_edge5_Node000005_Node000004"><a xlink:title=" ">
<path fill="none" stroke="#63b8ff" d="M420.49,-371.92C420.66,-371.78 420.83,-371.64 421,-371.5 457.05,-341.46 475.69,-284.57 480.93,-261.12"/>
<polygon fill="#63b8ff" stroke="#63b8ff" points="418.54,-369.02 412.12,-377.45 422.39,-374.86 418.54,-369.02"/>
</a>
</g>
</g>
<!-- Node6&#45;&gt;Node4 -->
<g id="edge7_Node000006_Node000004" class="edge">
<title>Node6&#45;&gt;Node4</title>
<g id="a_edge7_Node000006_Node000004"><a xlink:title=" ">
<path fill="none" stroke="#63b8ff" d="M411.65,-339.87C414.92,-338.29 418.08,-336.5 421,-334.5 449.24,-315.14 471.69,-279.33 479.51,-261.21"/>
<polygon fill="#63b8ff" stroke="#63b8ff" points="410.14,-336.71 402.23,-343.76 412.81,-343.18 410.14,-336.71"/>
</a>
</g>
</g>
<!-- Node7&#45;&gt;Node4 -->
<g id="edge9_Node000007_Node000004" class="edge">
<title>Node7&#45;&gt;Node4</title>
<g id="a_edge9_Node000007_Node000004"><a xlink:title=" ">
<path fill="none" stroke="#63b8ff" d="M408.75,-301.69C412.93,-300.08 417.08,-298.32 421,-296.5 442.09,-286.69 465.37,-271.87 476.25,-261.13"/>
<polygon fill="#63b8ff" stroke="#63b8ff" points="407.26,-298.51 399.02,-305.17 409.61,-305.1 407.26,-298.51"/>
</a>
</g>
</g>
<!-- Node8&#45;&gt;Node4 -->
<g id="edge12_Node000008_Node000004" class="edge">
<title>Node8&#45;&gt;Node4</title>
<g id="a_edge12_Node000008_Node000004"><a xlink:title=" ">
<path fill="none" stroke="#63b8ff" d="M413.46,-258.13C428.29,-258.45 444.18,-258.14 456.98,-257.22"/>
<polygon fill="#63b8ff" stroke="#63b8ff" points="413.52,-254.63 403.42,-257.81 413.3,-261.62 413.52,-254.63"/>
</a>
</g>
</g>
<!-- Node8&#45;&gt;Node8 -->
<g id="edge11_Node000008_Node000008" class="edge">
<title>Node8&#45;&gt;Node8</title>
<g id="a_edge11_Node000008_Node000008"><a xlink:title=" ">
<path fill="none" stroke="#63b8ff" d="M387.98,-270.55C386.55,-275.38 379.39,-279 366.5,-279 345.88,-279 339.92,-269.73 348.62,-261.08"/>
<polygon fill="#63b8ff" stroke="#63b8ff" points="391.2,-269.19 384.38,-261.08 384.66,-271.67 391.2,-269.19"/>
</a>
</g>
</g>
<!-- Node9&#45;&gt;Node4 -->
<g id="edge14_Node000009_Node000004" class="edge">
<title>Node9&#45;&gt;Node4</title>
<g id="a_edge14_Node000009_Node000004"><a xlink:title=" ">
<path fill="none" stroke="#63b8ff" d="M391.64,-227.89C410.79,-235.52 437.48,-244.14 456.98,-249.01"/>
<polygon fill="#63b8ff" stroke="#63b8ff" points="392.97,-224.65 382.4,-224.01 390.27,-231.1 392.97,-224.65"/>
</a>
</g>
</g>
<!-- Node10&#45;&gt;Node4 -->
<g id="edge16_Node000010_Node000004" class="edge">
<title>Node10&#45;&gt;Node4</title>
<g id="a_edge16_Node000010_Node000004"><a xlink:title=" ">
<path fill="none" stroke="#63b8ff" d="M388.95,-190.66C399.09,-194.43 411.12,-198.69 421,-204.5 438.68,-214.89 455.66,-230.99 467.29,-241.72"/>
<polygon fill="#63b8ff" stroke="#63b8ff" points="390.17,-187.38 379.58,-187.01 387.63,-193.9 390.17,-187.38"/>
</a>
</g>
</g>
<!-- Node11&#45;&gt;Node11 -->
<g id="edge21_Node000011_Node000011" class="edge">
<title>Node11&#45;&gt;Node11</title>
<g id="a_edge21_Node000011_Node000011"><a xlink:title=" ">
<path fill="none" stroke="#63b8ff" d="M387.98,-141.55C386.55,-146.38 379.39,-150 366.5,-150 345.88,-150 339.92,-140.73 348.62,-132.08"/>
<polygon fill="#63b8ff" stroke="#63b8ff" points="391.2,-140.19 384.38,-132.08 384.66,-142.67 391.2,-140.19"/>
</a>
</g>
</g>
<!-- Node12 -->
<g id="Node000012" class="node">
<title>Node12</title>
<g id="a_Node000012"><a xlink:href="ast__run_8c.html#a24d0223822f7b635628199085c3283be" target="_top" xlink:title=" ">
<polygon fill="white" stroke="#666666" points="276,-94 197,-94 197,-75 276,-75 276,-94"/>
<text text-anchor="middle" x="236.5" y="-82" font-family="Helvetica,sans-Serif" font-size="10.00">ast_run_pipe</text>
</a>
</g>
</g>
<!-- Node11&#45;&gt;Node12 -->
<g id="edge19_Node000011_Node000012" class="edge">
<title>Node11&#45;&gt;Node12</title>
<g id="a_edge19_Node000011_Node000012"><a xlink:title=" ">
<path fill="none" stroke="#63b8ff" d="M323.85,-110.13C306.25,-104.91 286.08,-98.92 269.67,-94.05"/>
<polygon fill="#63b8ff" stroke="#63b8ff" points="323.28,-113.62 333.86,-113.11 325.27,-106.91 323.28,-113.62"/>
</a>
</g>
</g>
<!-- Node12&#45;&gt;Node4 -->
<g id="edge20_Node000012_Node000004" class="edge">
<title>Node12&#45;&gt;Node4</title>
<g id="a_edge20_Node000012_Node000004"><a xlink:title=" ">
<path fill="none" stroke="#63b8ff" d="M266.01,-70.95C304.92,-54.65 375.05,-33.35 421,-66.5 479.74,-108.87 483.25,-209.68 482.82,-241.62"/>
<polygon fill="#63b8ff" stroke="#63b8ff" points="264.6,-67.74 256.83,-74.95 267.39,-74.16 264.6,-67.74"/>
</a>
</g>
</g>
<!-- Node15 -->
<g id="Node000015" class="node">
<title>Node15</title>
<g id="a_Node000015"><a xlink:href="dot_8c.html#a713938d3c6ee343132c429642048bcf6" target="_top" xlink:title="Execute the dot builtin cmd.">
<polygon fill="white" stroke="#666666" points="258.5,-57 214.5,-57 214.5,-38 258.5,-38 258.5,-57"/>
<text text-anchor="middle" x="236.5" y="-45" font-family="Helvetica,sans-Serif" font-size="10.00">dot_b</text>
</a>
</g>
</g>
<!-- Node14&#45;&gt;Node15 -->
<g id="edge24_Node000014_Node000015" class="edge">
<title>Node14&#45;&gt;Node15</title>
<g id="a_edge24_Node000014_Node000015"><a xlink:title=" ">
<path fill="none" stroke="#63b8ff" d="M323.52,-21.96C301.76,-28.42 276.13,-36.03 258.55,-41.25"/>
<polygon fill="#63b8ff" stroke="#63b8ff" points="324.61,-25.29 333.2,-19.09 322.62,-18.58 324.61,-25.29"/>
</a>
</g>
</g>
<!-- Node16 -->
<g id="Node000016" class="node">
<title>Node16</title>
<g id="a_Node000016"><a xlink:href="exec_8c.html#abaeb177587c7eec6a064b35bb8399cae" target="_top" xlink:title="Execute builtin cmd with given args.">
<polygon fill="white" stroke="#666666" points="161,-205 86,-205 86,-186 161,-186 161,-205"/>
<text text-anchor="middle" x="123.5" y="-193" font-family="Helvetica,sans-Serif" font-size="10.00">exec_builtin</text>
</a>
</g>
</g>
<!-- Node15&#45;&gt;Node16 -->
<g id="edge25_Node000015_Node000016" class="edge">
<title>Node15&#45;&gt;Node16</title>
<g id="a_edge25_Node000015_Node000016"><a xlink:title=" ">
<path fill="none" stroke="#63b8ff" d="M205.58,-59.13C202.5,-61 199.56,-63.11 197,-65.5 158.61,-101.25 135.51,-162.05 127.6,-185.69"/>
<polygon fill="#63b8ff" stroke="#63b8ff" points="207.21,-62.22 214.46,-54.5 203.97,-56.01 207.21,-62.22"/>
</a>
</g>
</g>
<!-- Node17 -->
<g id="Node000017" class="node">
<title>Node17</title>
<g id="a_Node000017"><a xlink:href="exec_8c.html#a287d81b4658832f192750310e2925917" target="_top" xlink:title="Execute the builtin command with given args.">
<polygon fill="white" stroke="#666666" points="50,-224 0,-224 0,-205 50,-205 50,-224"/>
<text text-anchor="middle" x="25" y="-212" font-family="Helvetica,sans-Serif" font-size="10.00">exec_b</text>
</a>
</g>
</g>
<!-- Node16&#45;&gt;Node17 -->
<g id="edge26_Node000016_Node000017" class="edge">
<title>Node16&#45;&gt;Node17</title>
<g id="a_edge26_Node000016_Node000017"><a xlink:title=" ">
<path fill="none" stroke="#63b8ff" d="M75.8,-204.7C66.9,-206.45 57.94,-208.21 50.12,-209.75"/>
<polygon fill="#63b8ff" stroke="#63b8ff" points="76.61,-208.1 85.74,-202.74 75.25,-201.24 76.61,-208.1"/>
</a>
</g>
</g>
<!-- Node17&#45;&gt;Node2 -->
<g id="edge27_Node000017_Node000002" class="edge">
<title>Node17&#45;&gt;Node2</title>
<g id="a_edge27_Node000017_Node000002"><a xlink:title=" ">
<path fill="none" stroke="#63b8ff" d="M34.14,-233.21C57.49,-283.62 129.83,-418.5 235.5,-418.5 484.5,-418.5 484.5,-418.5 484.5,-418.5 575.01,-418.5 658.9,-329.2 684.53,-299.2"/>
<polygon fill="#63b8ff" stroke="#63b8ff" points="37.32,-231.74 30.02,-224.07 30.94,-234.62 37.32,-231.74"/>
</a>
</g>
</g>
</g>
</svg>
