<?xml version="1.0" encoding="UTF-8" standalone="no"?>
<!DOCTYPE svg PUBLIC "-//W3C//DTD SVG 1.1//EN"
 "http://www.w3.org/Graphics/SVG/1.1/DTD/svg11.dtd">
<!-- Generated by graphviz version 2.43.0 (0)
 -->
<!-- Title: exec_b Pages: 1 -->
<svg width="734pt" height="464pt"
 viewBox="0.00 0.00 734.00 463.50" xmlns="http://www.w3.org/2000/svg" xmlns:xlink="http://www.w3.org/1999/xlink">
<g id="graph0" class="graph" transform="scale(1 1) rotate(0) translate(4 459.5)">
<title>exec_b</title>
<!-- Node1 -->
<g id="Node000001" class="node">
<title>Node1</title>
<g id="a_Node000001"><a xlink:title="Execute the builtin command with given args.">
<polygon fill="#999999" stroke="#666666" points="726,-28.5 676,-28.5 676,-9.5 726,-9.5 726,-28.5"/>
<text text-anchor="middle" x="701" y="-16.5" font-family="Helvetica,sans-Serif" font-size="10.00">exec_b</text>
</a>
</g>
</g>
<!-- Node2 -->
<g id="Node000002" class="node">
<title>Node2</title>
<g id="a_Node000002"><a xlink:href="exec_8c.html#ae65edaa99b26b49d60c451157d38b34a" target="_top" xlink:title="Execute les commandes avec les args donnes.">
<polygon fill="white" stroke="#666666" points="640,-47.5 575,-47.5 575,-28.5 640,-28.5 640,-47.5"/>
<text text-anchor="middle" x="607.5" y="-35.5" font-family="Helvetica,sans-Serif" font-size="10.00">exec_cmd</text>
</a>
</g>
</g>
<!-- Node1&#45;&gt;Node2 -->
<g id="edge1_Node000001_Node000002" class="edge">
<title>Node1&#45;&gt;Node2</title>
<g id="a_edge1_Node000001_Node000002"><a xlink:title=" ">
<path fill="none" stroke="#63b8ff" d="M666.05,-26.05C657.62,-27.8 648.62,-29.67 640.3,-31.4"/>
<polygon fill="#63b8ff" stroke="#63b8ff" points="666.88,-29.45 675.96,-23.99 665.46,-22.6 666.88,-29.45"/>
</a>
</g>
</g>
<!-- Node3 -->
<g id="Node000003" class="node">
<title>Node3</title>
<g id="a_Node000003"><a xlink:href="ast__run_8c.html#aeb6878a59c6907e5669fc3cc428913d9" target="_top" xlink:title=" ">
<polygon fill="white" stroke="#666666" points="539,-187.5 460,-187.5 460,-168.5 539,-168.5 539,-187.5"/>
<text text-anchor="middle" x="499.5" y="-175.5" font-family="Helvetica,sans-Serif" font-size="10.00">ast_run_cmd</text>
</a>
</g>
</g>
<!-- Node2&#45;&gt;Node3 -->
<g id="edge2_Node000002_Node000003" class="edge">
<title>Node2&#45;&gt;Node3</title>
<g id="a_edge2_Node000002_Node000003"><a xlink:title=" ">
<path fill="none" stroke="#63b8ff" d="M592.95,-55.9C570.28,-85.84 525.44,-145.06 507.84,-168.31"/>
<polygon fill="#63b8ff" stroke="#63b8ff" points="595.97,-57.71 599.21,-47.62 590.39,-53.48 595.97,-57.71"/>
</a>
</g>
</g>
<!-- Node4 -->
<g id="Node000004" class="node">
<title>Node4</title>
<g id="a_Node000004"><a xlink:href="ast_8c.html#a572345b2707780bbbc5bbaacdca9c372" target="_top" xlink:title=" ">
<polygon fill="white" stroke="#666666" points="424,-289.5 371,-289.5 371,-270.5 424,-270.5 424,-289.5"/>
<text text-anchor="middle" x="397.5" y="-277.5" font-family="Helvetica,sans-Serif" font-size="10.00">run_ast</text>
</a>
</g>
</g>
<!-- Node3&#45;&gt;Node4 -->
<g id="edge3_Node000003_Node000004" class="edge">
<title>Node3&#45;&gt;Node4</title>
<g id="a_edge3_Node000003_Node000004"><a xlink:title=" ">
<path fill="none" stroke="#63b8ff" d="M481.84,-195C460.67,-216.59 424.85,-253.12 407.91,-270.4"/>
<polygon fill="#63b8ff" stroke="#63b8ff" points="484.41,-197.37 488.91,-187.78 479.41,-192.47 484.41,-197.37"/>
</a>
</g>
</g>
<!-- Node5 -->
<g id="Node000005" class="node">
<title>Node5</title>
<g id="a_Node000005"><a xlink:href="ast__run_8c.html#a8a01fec616135007fc5b3968a101901b" target="_top" xlink:title=" ">
<polygon fill="white" stroke="#666666" points="326,-455.5 235,-455.5 235,-436.5 326,-436.5 326,-455.5"/>
<text text-anchor="middle" x="280.5" y="-443.5" font-family="Helvetica,sans-Serif" font-size="10.00">ast_run_and_or</text>
</a>
</g>
</g>
<!-- Node4&#45;&gt;Node5 -->
<g id="edge4_Node000004_Node000005" class="edge">
<title>Node4&#45;&gt;Node5</title>
<g id="a_edge4_Node000004_Node000005"><a xlink:title=" ">
<path fill="none" stroke="#63b8ff" d="M392.39,-300.05C385.89,-330.18 370.18,-386.18 335,-419 324.97,-428.36 309.91,-432.87 298.32,-436.5"/>
<polygon fill="#63b8ff" stroke="#63b8ff" points="395.89,-300.37 394.45,-289.88 389.03,-298.98 395.89,-300.37"/>
</a>
</g>
</g>
<!-- Node6 -->
<g id="Node000006" class="node">
<title>Node6</title>
<g id="a_Node000006"><a xlink:href="ast__run_8c.html#a9d83d4834a61ffe21eb77838d70ae173" target="_top" xlink:title=" ">
<polygon fill="white" stroke="#666666" points="316,-418.5 245,-418.5 245,-399.5 316,-399.5 316,-418.5"/>
<text text-anchor="middle" x="280.5" y="-406.5" font-family="Helvetica,sans-Serif" font-size="10.00">ast_run_for</text>
</a>
</g>
</g>
<!-- Node4&#45;&gt;Node6 -->
<g id="edge6_Node000004_Node000006" class="edge">
<title>Node4&#45;&gt;Node6</title>
<g id="a_edge6_Node000004_Node000006"><a xlink:title=" ">
<path fill="none" stroke="#63b8ff" d="M388.39,-298.99C379.24,-321.92 362.01,-359.5 335,-382 324.16,-391.03 308.59,-395.6 297.04,-399.47"/>
<polygon fill="#63b8ff" stroke="#63b8ff" points="391.68,-300.17 392.03,-289.59 385.16,-297.65 391.68,-300.17"/>
</a>
</g>
</g>
<!-- Node7 -->
<g id="Node000007" class="node">
<title>Node7</title>
<g id="a_Node000007"><a xlink:href="ast__run_8c.html#a0a7138b1f2608ea36211c9b78988c248" target="_top" xlink:title=" ">
<polygon fill="white" stroke="#666666" points="313,-381.5 248,-381.5 248,-362.5 313,-362.5 313,-381.5"/>
<text text-anchor="middle" x="280.5" y="-369.5" font-family="Helvetica,sans-Serif" font-size="10.00">ast_run_if</text>
</a>
</g>
</g>
<!-- Node4&#45;&gt;Node7 -->
<g id="edge8_Node000004_Node000007" class="edge">
<title>Node4&#45;&gt;Node7</title>
<g id="a_edge8_Node000004_Node000007"><a xlink:title=" ">
<path fill="none" stroke="#63b8ff" d="M380.53,-298.02C369.48,-312.62 353.48,-332.33 335,-345 322.88,-353.31 306.59,-358.06 295.19,-362.38"/>
<polygon fill="#63b8ff" stroke="#63b8ff" points="383.56,-299.8 386.74,-289.7 377.95,-295.61 383.56,-299.8"/>
</a>
</g>
</g>
<!-- Node8 -->
<g id="Node000008" class="node">
<title>Node8</title>
<g id="a_Node000008"><a xlink:href="ast__run_8c.html#ae25cd3ced8abafd76110dba8852a6b87" target="_top" xlink:title=" ">
<polygon fill="white" stroke="#666666" points="317,-326.5 244,-326.5 244,-307.5 317,-307.5 317,-326.5"/>
<text text-anchor="middle" x="280.5" y="-314.5" font-family="Helvetica,sans-Serif" font-size="10.00">ast_run_list</text>
</a>
</g>
</g>
<!-- Node4&#45;&gt;Node8 -->
<g id="edge10_Node000004_Node000008" class="edge">
<title>Node4&#45;&gt;Node8</title>
<g id="a_edge10_Node000004_Node000008"><a xlink:title=" ">
<path fill="none" stroke="#63b8ff" d="M361.09,-285.11C339.37,-291.14 312.69,-300.25 296.4,-307.49"/>
<polygon fill="#63b8ff" stroke="#63b8ff" points="362.21,-288.43 370.98,-282.49 360.42,-281.66 362.21,-288.43"/>
</a>
</g>
</g>
<!-- Node9 -->
<g id="Node000009" class="node">
<title>Node9</title>
<g id="a_Node000009"><a xlink:href="ast__run_8c.html#a536f37ba9bffcd2099fef668656181e0" target="_top" xlink:title=" ">
<polygon fill="white" stroke="#666666" points="320,-289.5 241,-289.5 241,-270.5 320,-270.5 320,-289.5"/>
<text text-anchor="middle" x="280.5" y="-277.5" font-family="Helvetica,sans-Serif" font-size="10.00">ast_run_loop</text>
</a>
</g>
</g>
<!-- Node4&#45;&gt;Node9 -->
<g id="edge13_Node000004_Node000009" class="edge">
<title>Node4&#45;&gt;Node9</title>
<g id="a_edge13_Node000004_Node000009"><a xlink:title=" ">
<path fill="none" stroke="#63b8ff" d="M360.63,-273.69C347.74,-273.14 333.17,-273.1 320.07,-273.59"/>
<polygon fill="#63b8ff" stroke="#63b8ff" points="360.8,-277.21 370.98,-274.28 361.19,-270.22 360.8,-277.21"/>
</a>
</g>
</g>
<!-- Node10 -->
<g id="Node000010" class="node">
<title>Node10</title>
<g id="a_Node000010"><a xlink:href="ast__run_8c.html#aa3e6a973e744d748ee415840596beb53" target="_top" xlink:title=" ">
<polygon fill="white" stroke="#666666" points="335,-252.5 226,-252.5 226,-233.5 335,-233.5 335,-252.5"/>
<text text-anchor="middle" x="280.5" y="-240.5" font-family="Helvetica,sans-Serif" font-size="10.00">ast_run_shell_redir</text>
</a>
</g>
</g>
<!-- Node4&#45;&gt;Node10 -->
<g id="edge15_Node000004_Node000010" class="edge">
<title>Node4&#45;&gt;Node10</title>
<g id="a_edge15_Node000004_Node000010"><a xlink:title=" ">
<path fill="none" stroke="#63b8ff" d="M371.99,-266.47C360.3,-261.82 345.86,-256.82 331.98,-252.54"/>
<polygon fill="#63b8ff" stroke="#63b8ff" points="370.89,-269.8 381.47,-270.43 373.59,-263.34 370.89,-269.8"/>
</a>
</g>
</g>
<!-- Node11 -->
<g id="Node000011" class="node">
<title>Node11</title>
<g id="a_Node000011"><a xlink:href="exec_8c.html#a23babf893bbcd2f6126698a1a19b169f" target="_top" xlink:title="Execute funct with given arguments.">
<polygon fill="white" stroke="#666666" points="313,-47.5 248,-47.5 248,-28.5 313,-28.5 313,-47.5"/>
<text text-anchor="middle" x="280.5" y="-35.5" font-family="Helvetica,sans-Serif" font-size="10.00">exec_func</text>
</a>
</g>
</g>
<!-- Node4&#45;&gt;Node11 -->
<g id="edge17_Node000004_Node000011" class="edge">
<title>Node4&#45;&gt;Node11</title>
<g id="a_edge17_Node000004_Node000011"><a xlink:title=" ">
<path fill="none" stroke="#63b8ff" d="M396.81,-260.31C396.39,-217.58 389.38,-115.45 335,-57 329.16,-50.72 321.11,-46.52 313.03,-43.7"/>
<polygon fill="#63b8ff" stroke="#63b8ff" points="393.31,-260.49 396.79,-270.49 400.31,-260.5 393.31,-260.49"/>
</a>
</g>
</g>
<!-- Node12 -->
<g id="Node000012" class="node">
<title>Node12</title>
<g id="a_Node000012"><a xlink:href="exec_8c.html#ab743cb88e12e9b922050925fd2075e36" target="_top" xlink:title="Execute a pipeline of commands.">
<polygon fill="white" stroke="#666666" points="313,-197.5 248,-197.5 248,-178.5 313,-178.5 313,-197.5"/>
<text text-anchor="middle" x="280.5" y="-185.5" font-family="Helvetica,sans-Serif" font-size="10.00">exec_pipe</text>
</a>
</g>
</g>
<!-- Node4&#45;&gt;Node12 -->
<g id="edge19_Node000004_Node000012" class="edge">
<title>Node4&#45;&gt;Node12</title>
<g id="a_edge19_Node000004_Node000012"><a xlink:title=" ">
<path fill="none" stroke="#63b8ff" d="M378.85,-263.15C366.82,-251.93 350.36,-237.1 335,-225 322.4,-215.07 307.32,-204.78 296.39,-197.57"/>
<polygon fill="#63b8ff" stroke="#63b8ff" points="376.71,-265.94 386.4,-270.25 381.51,-260.85 376.71,-265.94"/>
</a>
</g>
</g>
<!-- Node14 -->
<g id="Node000014" class="node">
<title>Node14</title>
<g id="a_Node000014"><a xlink:href="42sh_8c.html#a3c04138a5bfe5d72780bb7e82a18e627" target="_top" xlink:title=" ">
<polygon fill="white" stroke="#666666" points="301,-160.5 260,-160.5 260,-141.5 301,-141.5 301,-160.5"/>
<text text-anchor="middle" x="280.5" y="-148.5" font-family="Helvetica,sans-Serif" font-size="10.00">main</text>
</a>
</g>
</g>
<!-- Node4&#45;&gt;Node14 -->
<g id="edge23_Node000004_Node000014" class="edge">
<title>Node4&#45;&gt;Node14</title>
<g id="a_edge23_Node000004_Node000014"><a xlink:title=" ">
<path fill="none" stroke="#63b8ff" d="M390.47,-260.66C381.91,-236.24 363.98,-194.47 335,-170 325.36,-161.86 311.98,-157.11 301.02,-154.4"/>
<polygon fill="#63b8ff" stroke="#63b8ff" points="387.18,-261.86 393.66,-270.25 393.82,-259.65 387.18,-261.86"/>
</a>
</g>
</g>
<!-- Node15 -->
<g id="Node000015" class="node">
<title>Node15</title>
<g id="a_Node000015"><a xlink:href="dot_8c.html#a17477ee2b0f1b8b9306566c990d15b35" target="_top" xlink:title="Main loop of dot builtin.">
<polygon fill="white" stroke="#666666" points="314.5,-84.5 246.5,-84.5 246.5,-65.5 314.5,-65.5 314.5,-84.5"/>
<text text-anchor="middle" x="280.5" y="-72.5" font-family="Helvetica,sans-Serif" font-size="10.00">main_loop</text>
</a>
</g>
</g>
<!-- Node4&#45;&gt;Node15 -->
<g id="edge24_Node000004_Node000015" class="edge">
<title>Node4&#45;&gt;Node15</title>
<g id="a_edge24_Node000004_Node000015"><a xlink:title=" ">
<path fill="none" stroke="#63b8ff" d="M394.89,-260.16C390.94,-223.8 377.73,-145.96 335,-99 329.31,-92.75 321.69,-88.03 313.98,-84.51"/>
<polygon fill="#63b8ff" stroke="#63b8ff" points="391.43,-260.79 395.87,-270.41 398.4,-260.12 391.43,-260.79"/>
</a>
</g>
</g>
<!-- Node5&#45;&gt;Node4 -->
<g id="edge5_Node000005_Node000004" class="edge">
<title>Node5&#45;&gt;Node4</title>
<g id="a_edge5_Node000005_Node000004"><a xlink:title=" ">
<path fill="none" stroke="#63b8ff" d="M334.5,-437.46C334.67,-437.31 334.83,-437.15 335,-437 379.35,-395.62 392.76,-317.39 395.77,-289.52"/>
<polygon fill="#63b8ff" stroke="#63b8ff" points="332.25,-434.76 326.15,-443.42 336.32,-440.46 332.25,-434.76"/>
</a>
</g>
</g>
<!-- Node6&#45;&gt;Node4 -->
<g id="edge7_Node000006_Node000004" class="edge">
<title>Node6&#45;&gt;Node4</title>
<g id="a_edge7_Node000006_Node000004"><a xlink:title=" ">
<path fill="none" stroke="#63b8ff" d="M325.38,-406.34C328.82,-404.54 332.08,-402.43 335,-400 371.05,-369.96 389.69,-313.07 394.93,-289.62"/>
<polygon fill="#63b8ff" stroke="#63b8ff" points="323.81,-403.2 316,-410.37 326.57,-409.63 323.81,-403.2"/>
</a>
</g>
</g>
<!-- Node7&#45;&gt;Node4 -->
<g id="edge9_Node000007_Node000004" class="edge">
<title>Node7&#45;&gt;Node4</title>
<g id="a_edge9_Node000007_Node000004"><a xlink:title=" ">
<path fill="none" stroke="#63b8ff" d="M322.7,-369.73C327.02,-367.84 331.21,-365.59 335,-363 363.24,-343.64 385.69,-307.83 393.51,-289.71"/>
<polygon fill="#63b8ff" stroke="#63b8ff" points="321.3,-366.52 313.14,-373.27 323.74,-373.08 321.3,-366.52"/>
</a>
</g>
</g>
<!-- Node8&#45;&gt;Node4 -->
<g id="edge12_Node000008_Node000004" class="edge">
<title>Node8&#45;&gt;Node4</title>
<g id="a_edge12_Node000008_Node000004"><a xlink:title=" ">
<path fill="none" stroke="#63b8ff" d="M326.95,-308.99C346.33,-303.19 367.61,-295.72 381.47,-289.57"/>
<polygon fill="#63b8ff" stroke="#63b8ff" points="325.97,-305.63 317.34,-311.77 327.92,-312.36 325.97,-305.63"/>
</a>
</g>
</g>
<!-- Node8&#45;&gt;Node8 -->
<g id="edge11_Node000008_Node000008" class="edge">
<title>Node8&#45;&gt;Node8</title>
<g id="a_edge11_Node000008_Node000008"><a xlink:title=" ">
<path fill="none" stroke="#63b8ff" d="M301.98,-336.05C300.55,-340.88 293.39,-344.5 280.5,-344.5 259.88,-344.5 253.92,-335.23 262.62,-326.58"/>
<polygon fill="#63b8ff" stroke="#63b8ff" points="305.2,-334.69 298.38,-326.58 298.66,-337.17 305.2,-334.69"/>
</a>
</g>
</g>
<!-- Node9&#45;&gt;Node4 -->
<g id="edge14_Node000009_Node000004" class="edge">
<title>Node9&#45;&gt;Node4</title>
<g id="a_edge14_Node000009_Node000004"><a xlink:title=" ">
<path fill="none" stroke="#63b8ff" d="M330.12,-286.68C344.17,-286.91 358.94,-286.59 370.98,-285.72"/>
<polygon fill="#63b8ff" stroke="#63b8ff" points="330.16,-283.18 320.07,-286.41 329.97,-290.18 330.16,-283.18"/>
</a>
</g>
</g>
<!-- Node10&#45;&gt;Node4 -->
<g id="edge16_Node000010_Node000004" class="edge">
<title>Node10&#45;&gt;Node4</title>
<g id="a_edge16_Node000010_Node000004"><a xlink:title=" ">
<path fill="none" stroke="#63b8ff" d="M305.64,-256.39C324.79,-264.02 351.48,-272.64 370.98,-277.51"/>
<polygon fill="#63b8ff" stroke="#63b8ff" points="306.97,-253.15 296.4,-252.51 304.27,-259.6 306.97,-253.15"/>
</a>
</g>
</g>
<!-- Node11&#45;&gt;Node2 -->
<g id="edge18_Node000011_Node000002" class="edge">
<title>Node11&#45;&gt;Node2</title>
<g id="a_edge18_Node000011_Node000002"><a xlink:title=" ">
<path fill="none" stroke="#63b8ff" d="M323.42,-38C389.34,-38 515.77,-38 574.75,-38"/>
<polygon fill="#63b8ff" stroke="#63b8ff" points="323.38,-34.5 313.38,-38 323.38,-41.5 323.38,-34.5"/>
</a>
</g>
</g>
<!-- Node12&#45;&gt;Node12 -->
<g id="edge22_Node000012_Node000012" class="edge">
<title>Node12&#45;&gt;Node12</title>
<g id="a_edge22_Node000012_Node000012"><a xlink:title=" ">
<path fill="none" stroke="#63b8ff" d="M301.98,-207.05C300.55,-211.88 293.39,-215.5 280.5,-215.5 259.88,-215.5 253.92,-206.23 262.62,-197.58"/>
<polygon fill="#63b8ff" stroke="#63b8ff" points="305.2,-205.69 298.38,-197.58 298.66,-208.17 305.2,-205.69"/>
</a>
</g>
</g>
<!-- Node13 -->
<g id="Node000013" class="node">
<title>Node13</title>
<g id="a_Node000013"><a xlink:href="ast__run_8c.html#a24d0223822f7b635628199085c3283be" target="_top" xlink:title=" ">
<polygon fill="white" stroke="#666666" points="190,-159.5 111,-159.5 111,-140.5 190,-140.5 190,-159.5"/>
<text text-anchor="middle" x="150.5" y="-147.5" font-family="Helvetica,sans-Serif" font-size="10.00">ast_run_pipe</text>
</a>
</g>
</g>
<!-- Node12&#45;&gt;Node13 -->
<g id="edge20_Node000012_Node000013" class="edge">
<title>Node12&#45;&gt;Node13</title>
<g id="a_edge20_Node000012_Node000013"><a xlink:title=" ">
<path fill="none" stroke="#63b8ff" d="M237.85,-175.63C220.25,-170.41 200.08,-164.42 183.67,-159.55"/>
<polygon fill="#63b8ff" stroke="#63b8ff" points="237.28,-179.12 247.86,-178.61 239.27,-172.41 237.28,-179.12"/>
</a>
</g>
</g>
<!-- Node13&#45;&gt;Node4 -->
<g id="edge21_Node000013_Node000004" class="edge">
<title>Node13&#45;&gt;Node4</title>
<g id="a_edge21_Node000013_Node000004"><a xlink:title=" ">
<path fill="none" stroke="#63b8ff" d="M181.38,-136.5C220.22,-121.18 288.55,-102.08 335,-133 383.13,-165.04 393.66,-242.74 395.91,-270.19"/>
<polygon fill="#63b8ff" stroke="#63b8ff" points="179.63,-133.44 171.71,-140.48 182.29,-139.91 179.63,-133.44"/>
</a>
</g>
</g>
<!-- Node16 -->
<g id="Node000016" class="node">
<title>Node16</title>
<g id="a_Node000016"><a xlink:href="dot_8c.html#a713938d3c6ee343132c429642048bcf6" target="_top" xlink:title="Execute the dot builtin cmd.">
<polygon fill="white" stroke="#666666" points="172.5,-66.5 128.5,-66.5 128.5,-47.5 172.5,-47.5 172.5,-66.5"/>
<text text-anchor="middle" x="150.5" y="-54.5" font-family="Helvetica,sans-Serif" font-size="10.00">dot_b</text>
</a>
</g>
</g>
<!-- Node15&#45;&gt;Node16 -->
<g id="edge25_Node000015_Node000016" class="edge">
<title>Node15&#45;&gt;Node16</title>
<g id="a_edge25_Node000015_Node000016"><a xlink:title=" ">
<path fill="none" stroke="#63b8ff" d="M236.02,-68.89C214.61,-65.88 189.78,-62.38 172.6,-59.97"/>
<polygon fill="#63b8ff" stroke="#63b8ff" points="235.81,-72.39 246.2,-70.32 236.79,-65.46 235.81,-72.39"/>
</a>
</g>
</g>
<!-- Node17 -->
<g id="Node000017" class="node">
<title>Node17</title>
<g id="a_Node000017"><a xlink:href="exec_8c.html#abaeb177587c7eec6a064b35bb8399cae" target="_top" xlink:title="Execute builtin cmd with given args.">
<polygon fill="white" stroke="#666666" points="75,-46.5 0,-46.5 0,-27.5 75,-27.5 75,-46.5"/>
<text text-anchor="middle" x="37.5" y="-34.5" font-family="Helvetica,sans-Serif" font-size="10.00">exec_builtin</text>
</a>
</g>
</g>
<!-- Node16&#45;&gt;Node17 -->
<g id="edge26_Node000016_Node000017" class="edge">
<title>Node16&#45;&gt;Node17</title>
<g id="a_edge26_Node000016_Node000017"><a xlink:title=" ">
<path fill="none" stroke="#63b8ff" d="M118.23,-51.37C104.88,-48.96 89.2,-46.14 75.3,-43.63"/>
<polygon fill="#63b8ff" stroke="#63b8ff" points="117.9,-54.86 128.36,-53.19 119.14,-47.97 117.9,-54.86"/>
</a>
</g>
</g>
<!-- Node17&#45;&gt;Node1 -->
<g id="edge27_Node000017_Node000001" class="edge">
<title>Node17&#45;&gt;Node1</title>
<g id="a_edge27_Node000017_Node000001"><a xlink:title=" ">
<path fill="none" stroke="#63b8ff" d="M85.24,-25.5C133.55,-14.64 211.33,0 279.5,0 500.5,0 500.5,0 500.5,0 564,0 638.35,-9.66 675.81,-15.2"/>
<polygon fill="#63b8ff" stroke="#63b8ff" points="84.35,-22.12 75.39,-27.76 85.92,-28.94 84.35,-22.12"/>
</a>
</g>
</g>
</g>
</svg>
