<?xml version="1.0" encoding="UTF-8" standalone="no"?>
<!DOCTYPE svg PUBLIC "-//W3C//DTD SVG 1.1//EN"
 "http://www.w3.org/Graphics/SVG/1.1/DTD/svg11.dtd">
<!-- Generated by graphviz version 2.43.0 (0)
 -->
<!-- Title: src/exec/exec.c Pages: 1 -->
<svg width="1187pt" height="302pt"
 viewBox="0.00 0.00 1187.48 302.00" xmlns="http://www.w3.org/2000/svg" xmlns:xlink="http://www.w3.org/1999/xlink">
<g id="graph0" class="graph" transform="scale(1 1) rotate(0) translate(4 298)">
<title>src/exec/exec.c</title>
<!-- Node1 -->
<g id="Node000001" class="node">
<title>Node1</title>
<g id="a_Node000001"><a xlink:title=" ">
<polygon fill="#999999" stroke="#666666" points="633,-294 543,-294 543,-275 633,-275 633,-294"/>
<text text-anchor="middle" x="588" y="-282" font-family="Helvetica,sans-Serif" font-size="10.00">src/exec/exec.c</text>
</a>
</g>
</g>
<!-- Node2 -->
<g id="Node000002" class="node">
<title>Node2</title>
<g id="a_Node000002"><a xlink:href="exec_8h.html" target="_top" xlink:title=" ">
<polygon fill="white" stroke="#666666" points="214,-239 166,-239 166,-220 214,-220 214,-239"/>
<text text-anchor="middle" x="190" y="-227" font-family="Helvetica,sans-Serif" font-size="10.00">exec.h</text>
</a>
</g>
</g>
<!-- Node1&#45;&gt;Node2 -->
<g id="edge1_Node000001_Node000002" class="edge">
<title>Node1&#45;&gt;Node2</title>
<g id="a_edge1_Node000001_Node000002"><a xlink:title=" ">
<path fill="none" stroke="#63b8ff" d="M542.89,-279.34C474.51,-272.72 340.62,-258.51 228,-239 226.73,-238.78 225.43,-238.54 224.12,-238.3"/>
<polygon fill="#63b8ff" stroke="#63b8ff" points="224.55,-234.81 214.05,-236.25 223.15,-241.67 224.55,-234.81"/>
</a>
</g>
</g>
<!-- Node6 -->
<g id="Node000006" class="node">
<title>Node6</title>
<g id="a_Node000006"><a xlink:href="redir_8h.html" target="_top" xlink:title=" ">
<polygon fill="white" stroke="#666666" points="144,-129 64,-129 64,-110 144,-110 144,-129"/>
<text text-anchor="middle" x="104" y="-117" font-family="Helvetica,sans-Serif" font-size="10.00">../utils/redir.h</text>
</a>
</g>
</g>
<!-- Node1&#45;&gt;Node6 -->
<g id="edge30_Node000001_Node000006" class="edge">
<title>Node1&#45;&gt;Node6</title>
<g id="a_edge30_Node000001_Node000006"><a xlink:title=" ">
<path fill="none" stroke="#63b8ff" d="M542.85,-283.78C445.68,-283.59 220.42,-278.76 157,-239 122.42,-217.32 110.24,-167 106.07,-139.42"/>
<polygon fill="#63b8ff" stroke="#63b8ff" points="109.5,-138.6 104.74,-129.14 102.56,-139.51 109.5,-138.6"/>
</a>
</g>
</g>
<!-- Node8 -->
<g id="Node000008" class="node">
<title>Node8</title>
<g id="a_Node000008"><a xlink:title=" ">
<polygon fill="#e0e0e0" stroke="#999999" points="244,-19 194,-19 194,0 244,0 244,-19"/>
<text text-anchor="middle" x="219" y="-7" font-family="Helvetica,sans-Serif" font-size="10.00">stdio.h</text>
</a>
</g>
</g>
<!-- Node1&#45;&gt;Node8 -->
<g id="edge10_Node000001_Node000008" class="edge">
<title>Node1&#45;&gt;Node8</title>
<g id="a_edge10_Node000001_Node000008"><a xlink:title=" ">
<path fill="none" stroke="#63b8ff" d="M542.82,-282.48C469.02,-279.91 327.13,-270.84 290,-239 226.32,-184.39 218.93,-73.74 218.64,-29.45"/>
<polygon fill="#63b8ff" stroke="#63b8ff" points="222.14,-29.28 218.7,-19.26 215.14,-29.24 222.14,-29.28"/>
</a>
</g>
</g>
<!-- Node9 -->
<g id="Node000009" class="node">
<title>Node9</title>
<g id="a_Node000009"><a xlink:title=" ">
<polygon fill="#e0e0e0" stroke="#999999" points="1074.5,-184 1021.5,-184 1021.5,-165 1074.5,-165 1074.5,-184"/>
<text text-anchor="middle" x="1048" y="-172" font-family="Helvetica,sans-Serif" font-size="10.00">stdlib.h</text>
</a>
</g>
</g>
<!-- Node1&#45;&gt;Node9 -->
<g id="edge11_Node000001_Node000009" class="edge">
<title>Node1&#45;&gt;Node9</title>
<g id="a_edge11_Node000001_Node000009"><a xlink:title=" ">
<path fill="none" stroke="#63b8ff" d="M633.01,-281.77C739.23,-277.28 998.89,-263.87 1029,-239 1042.02,-228.25 1046.36,-208.95 1047.69,-194.44"/>
<polygon fill="#63b8ff" stroke="#63b8ff" points="1051.2,-194.26 1048.22,-184.09 1044.21,-193.9 1051.2,-194.26"/>
</a>
</g>
</g>
<!-- Node10 -->
<g id="Node000010" class="node">
<title>Node10</title>
<g id="a_Node000010"><a xlink:title=" ">
<polygon fill="#e0e0e0" stroke="#999999" points="740.5,-184 687.5,-184 687.5,-165 740.5,-165 740.5,-184"/>
<text text-anchor="middle" x="714" y="-172" font-family="Helvetica,sans-Serif" font-size="10.00">string.h</text>
</a>
</g>
</g>
<!-- Node1&#45;&gt;Node10 -->
<g id="edge12_Node000001_Node000010" class="edge">
<title>Node1&#45;&gt;Node10</title>
<g id="a_edge12_Node000001_Node000010"><a xlink:title=" ">
<path fill="none" stroke="#63b8ff" d="M598.31,-274.66C619.74,-256.3 669.3,-213.81 696.07,-190.87"/>
<polygon fill="#63b8ff" stroke="#63b8ff" points="698.58,-193.32 703.9,-184.16 694.03,-188.01 698.58,-193.32"/>
</a>
</g>
</g>
<!-- Node11 -->
<g id="Node000011" class="node">
<title>Node11</title>
<g id="a_Node000011"><a xlink:title=" ">
<polygon fill="#e0e0e0" stroke="#999999" points="374,-239 308,-239 308,-220 374,-220 374,-239"/>
<text text-anchor="middle" x="341" y="-227" font-family="Helvetica,sans-Serif" font-size="10.00">sys/wait.h</text>
</a>
</g>
</g>
<!-- Node1&#45;&gt;Node11 -->
<g id="edge13_Node000001_Node000011" class="edge">
<title>Node1&#45;&gt;Node11</title>
<g id="a_edge13_Node000001_Node000011"><a xlink:title=" ">
<path fill="none" stroke="#63b8ff" d="M548.32,-274.98C503.43,-265.35 430.59,-249.72 384.28,-239.79"/>
<polygon fill="#63b8ff" stroke="#63b8ff" points="384.76,-236.31 374.25,-237.63 383.29,-243.16 384.76,-236.31"/>
</a>
</g>
</g>
<!-- Node12 -->
<g id="Node000012" class="node">
<title>Node12</title>
<g id="a_Node000012"><a xlink:title=" ">
<polygon fill="#e0e0e0" stroke="#999999" points="448,-239 392,-239 392,-220 448,-220 448,-239"/>
<text text-anchor="middle" x="420" y="-227" font-family="Helvetica,sans-Serif" font-size="10.00">unistd.h</text>
</a>
</g>
</g>
<!-- Node1&#45;&gt;Node12 -->
<g id="edge14_Node000001_Node000012" class="edge">
<title>Node1&#45;&gt;Node12</title>
<g id="a_edge14_Node000001_Node000012"><a xlink:title=" ">
<path fill="none" stroke="#63b8ff" d="M561.01,-274.98C532.8,-266.09 488.36,-252.07 456.92,-242.15"/>
<polygon fill="#63b8ff" stroke="#63b8ff" points="457.79,-238.75 447.2,-239.08 455.69,-245.43 457.79,-238.75"/>
</a>
</g>
</g>
<!-- Node13 -->
<g id="Node000013" class="node">
<title>Node13</title>
<g id="a_Node000013"><a xlink:href="break__continue_8h.html" target="_top" xlink:title=" ">
<polygon fill="white" stroke="#666666" points="609.5,-239 466.5,-239 466.5,-220 609.5,-220 609.5,-239"/>
<text text-anchor="middle" x="538" y="-227" font-family="Helvetica,sans-Serif" font-size="10.00">../builtin/break_continue.h</text>
</a>
</g>
</g>
<!-- Node1&#45;&gt;Node13 -->
<g id="edge15_Node000001_Node000013" class="edge">
<title>Node1&#45;&gt;Node13</title>
<g id="a_edge15_Node000001_Node000013"><a xlink:title=" ">
<path fill="none" stroke="#63b8ff" d="M579.74,-274.75C572.54,-267.11 561.89,-255.82 553.15,-246.56"/>
<polygon fill="#63b8ff" stroke="#63b8ff" points="555.51,-243.96 546.1,-239.09 550.42,-248.76 555.51,-243.96"/>
</a>
</g>
</g>
<!-- Node14 -->
<g id="Node000014" class="node">
<title>Node14</title>
<g id="a_Node000014"><a xlink:href="cd_8h.html" target="_top" xlink:title=" ">
<polygon fill="white" stroke="#666666" points="411,-184 331,-184 331,-165 411,-165 411,-184"/>
<text text-anchor="middle" x="371" y="-172" font-family="Helvetica,sans-Serif" font-size="10.00">../builtin/cd.h</text>
</a>
</g>
</g>
<!-- Node1&#45;&gt;Node14 -->
<g id="edge16_Node000001_Node000014" class="edge">
<title>Node1&#45;&gt;Node14</title>
<g id="a_edge16_Node000001_Node000014"><a xlink:title=" ">
<path fill="none" stroke="#63b8ff" d="M542.77,-283.39C469.49,-282.15 329.86,-274.98 299,-239 282.18,-219.4 312.11,-200.26 338.35,-188.2"/>
<polygon fill="#63b8ff" stroke="#63b8ff" points="340,-191.31 347.76,-184.1 337.19,-184.89 340,-191.31"/>
</a>
</g>
</g>
<!-- Node15 -->
<g id="Node000015" class="node">
<title>Node15</title>
<g id="a_Node000015"><a xlink:href="dot_8h.html" target="_top" xlink:title=" ">
<polygon fill="white" stroke="#666666" points="641,-184 557,-184 557,-165 641,-165 641,-184"/>
<text text-anchor="middle" x="599" y="-172" font-family="Helvetica,sans-Serif" font-size="10.00">../builtin/dot.h</text>
</a>
</g>
</g>
<!-- Node1&#45;&gt;Node15 -->
<g id="edge18_Node000001_Node000015" class="edge">
<title>Node1&#45;&gt;Node15</title>
<g id="a_edge18_Node000001_Node000015"><a xlink:title=" ">
<path fill="none" stroke="#63b8ff" d="M596.48,-274.85C604.05,-266.47 614.6,-253.01 619,-239 623.91,-223.36 617.24,-205.56 610.31,-192.79"/>
<polygon fill="#63b8ff" stroke="#63b8ff" points="613.28,-190.93 605.16,-184.13 607.26,-194.51 613.28,-190.93"/>
</a>
</g>
</g>
<!-- Node16 -->
<g id="Node000016" class="node">
<title>Node16</title>
<g id="a_Node000016"><a xlink:href="echo_8h.html" target="_top" xlink:title=" ">
<polygon fill="white" stroke="#666666" points="796,-239 704,-239 704,-220 796,-220 796,-239"/>
<text text-anchor="middle" x="750" y="-227" font-family="Helvetica,sans-Serif" font-size="10.00">../builtin/echo.h</text>
</a>
</g>
</g>
<!-- Node1&#45;&gt;Node16 -->
<g id="edge20_Node000001_Node000016" class="edge">
<title>Node1&#45;&gt;Node16</title>
<g id="a_edge20_Node000001_Node000016"><a xlink:title=" ">
<path fill="none" stroke="#63b8ff" d="M614.03,-274.98C641.11,-266.13 683.71,-252.19 714.01,-242.28"/>
<polygon fill="#63b8ff" stroke="#63b8ff" points="715.35,-245.52 723.77,-239.08 713.18,-238.87 715.35,-245.52"/>
</a>
</g>
</g>
<!-- Node17 -->
<g id="Node000017" class="node">
<title>Node17</title>
<g id="a_Node000017"><a xlink:href="exit_8h.html" target="_top" xlink:title=" ">
<polygon fill="white" stroke="#666666" points="901.5,-239 814.5,-239 814.5,-220 901.5,-220 901.5,-239"/>
<text text-anchor="middle" x="858" y="-227" font-family="Helvetica,sans-Serif" font-size="10.00">../builtin/exit.h</text>
</a>
</g>
</g>
<!-- Node1&#45;&gt;Node17 -->
<g id="edge21_Node000001_Node000017" class="edge">
<title>Node1&#45;&gt;Node17</title>
<g id="a_edge21_Node000001_Node000017"><a xlink:title=" ">
<path fill="none" stroke="#63b8ff" d="M631.38,-274.98C678.38,-265.76 753.43,-251.03 804.16,-241.07"/>
<polygon fill="#63b8ff" stroke="#63b8ff" points="805.14,-244.44 814.28,-239.08 803.79,-237.57 805.14,-244.44"/>
</a>
</g>
</g>
<!-- Node18 -->
<g id="Node000018" class="node">
<title>Node18</title>
<g id="a_Node000018"><a xlink:href="export_8h.html" target="_top" xlink:title=" ">
<polygon fill="white" stroke="#666666" points="1020,-239 920,-239 920,-220 1020,-220 1020,-239"/>
<text text-anchor="middle" x="970" y="-227" font-family="Helvetica,sans-Serif" font-size="10.00">../builtin/export.h</text>
</a>
</g>
</g>
<!-- Node1&#45;&gt;Node18 -->
<g id="edge22_Node000001_Node000018" class="edge">
<title>Node1&#45;&gt;Node18</title>
<g id="a_edge22_Node000001_Node000018"><a xlink:title=" ">
<path fill="none" stroke="#63b8ff" d="M633.21,-277.36C693.74,-269.12 804.72,-253.95 909.66,-239.18"/>
<polygon fill="#63b8ff" stroke="#63b8ff" points="910.38,-242.62 919.79,-237.76 909.4,-235.68 910.38,-242.62"/>
</a>
</g>
</g>
<!-- Node19 -->
<g id="Node000019" class="node">
<title>Node19</title>
<g id="a_Node000019"><a xlink:href="unset_8h.html" target="_top" xlink:title=" ">
<polygon fill="white" stroke="#666666" points="890.5,-129 795.5,-129 795.5,-110 890.5,-110 890.5,-129"/>
<text text-anchor="middle" x="843" y="-117" font-family="Helvetica,sans-Serif" font-size="10.00">../builtin/unset.h</text>
</a>
</g>
</g>
<!-- Node1&#45;&gt;Node19 -->
<g id="edge26_Node000001_Node000019" class="edge">
<title>Node1&#45;&gt;Node19</title>
<g id="a_edge26_Node000001_Node000019"><a xlink:title=" ">
<path fill="none" stroke="#63b8ff" d="M633.1,-283.44C762.38,-282.82 1127.25,-277.62 1163,-239 1241.83,-153.84 1012.66,-129.62 900.69,-122.95"/>
<polygon fill="#63b8ff" stroke="#63b8ff" points="900.74,-119.44 890.56,-122.37 900.34,-126.43 900.74,-119.44"/>
</a>
</g>
</g>
<!-- Node20 -->
<g id="Node000020" class="node">
<title>Node20</title>
<g id="a_Node000020"><a xlink:href="itoa_8h.html" target="_top" xlink:title=" ">
<polygon fill="white" stroke="#666666" points="1153.5,-239 1076.5,-239 1076.5,-220 1153.5,-220 1153.5,-239"/>
<text text-anchor="middle" x="1115" y="-227" font-family="Helvetica,sans-Serif" font-size="10.00">../utils/itoa.h</text>
</a>
</g>
</g>
<!-- Node1&#45;&gt;Node20 -->
<g id="edge28_Node000001_Node000020" class="edge">
<title>Node1&#45;&gt;Node20</title>
<g id="a_edge28_Node000001_Node000020"><a xlink:title=" ">
<path fill="none" stroke="#63b8ff" d="M633.2,-280.25C717.64,-273.95 904.98,-258.94 1062,-239 1063.3,-238.83 1064.62,-238.66 1065.95,-238.48"/>
<polygon fill="#63b8ff" stroke="#63b8ff" points="1066.85,-241.89 1076.25,-237.01 1065.86,-234.96 1066.85,-241.89"/>
</a>
</g>
</g>
<!-- Node21 -->
<g id="Node000021" class="node">
<title>Node21</title>
<g id="a_Node000021"><a xlink:href="redir__exec_8h.html" target="_top" xlink:title=" ">
<polygon fill="white" stroke="#666666" points="76,-239 0,-239 0,-220 76,-220 76,-239"/>
<text text-anchor="middle" x="38" y="-227" font-family="Helvetica,sans-Serif" font-size="10.00">redir_exec.h</text>
</a>
</g>
</g>
<!-- Node1&#45;&gt;Node21 -->
<g id="edge31_Node000001_Node000021" class="edge">
<title>Node1&#45;&gt;Node21</title>
<g id="a_edge31_Node000001_Node000021"><a xlink:title=" ">
<path fill="none" stroke="#63b8ff" d="M542.9,-280.58C455.37,-274.66 256.43,-260.01 90,-239 88.72,-238.84 87.43,-238.67 86.13,-238.49"/>
<polygon fill="#63b8ff" stroke="#63b8ff" points="86.41,-235 76.01,-237.04 85.41,-241.93 86.41,-235"/>
</a>
</g>
</g>
<!-- Node3 -->
<g id="Node000003" class="node">
<title>Node3</title>
<g id="a_Node000003"><a xlink:href="ast_8h.html" target="_top" xlink:title=" ">
<polygon fill="white" stroke="#666666" points="200,-184 132,-184 132,-165 200,-165 200,-184"/>
<text text-anchor="middle" x="166" y="-172" font-family="Helvetica,sans-Serif" font-size="10.00">../ast/ast.h</text>
</a>
</g>
</g>
<!-- Node2&#45;&gt;Node3 -->
<g id="edge2_Node000002_Node000003" class="edge">
<title>Node2&#45;&gt;Node3</title>
<g id="a_edge2_Node000002_Node000003"><a xlink:title=" ">
<path fill="none" stroke="#63b8ff" d="M186.04,-219.75C182.79,-212.57 178.08,-202.18 174.05,-193.27"/>
<polygon fill="#63b8ff" stroke="#63b8ff" points="177.2,-191.75 169.89,-184.09 170.83,-194.64 177.2,-191.75"/>
</a>
</g>
</g>
<!-- Node4 -->
<g id="Node000004" class="node">
<title>Node4</title>
<g id="a_Node000004"><a xlink:href="expand_8h.html" target="_top" xlink:title=" ">
<polygon fill="white" stroke="#666666" points="462,-129 352,-129 352,-110 462,-110 462,-129"/>
<text text-anchor="middle" x="407" y="-117" font-family="Helvetica,sans-Serif" font-size="10.00">../expand/expand.h</text>
</a>
</g>
</g>
<!-- Node2&#45;&gt;Node4 -->
<g id="edge9_Node000002_Node000004" class="edge">
<title>Node2&#45;&gt;Node4</title>
<g id="a_edge9_Node000002_Node000004"><a xlink:title=" ">
<path fill="none" stroke="#63b8ff" d="M207.39,-219.84C245.34,-200.96 335.76,-155.96 380.71,-133.59"/>
<polygon fill="#63b8ff" stroke="#63b8ff" points="382.43,-136.64 389.83,-129.05 379.32,-130.37 382.43,-136.64"/>
</a>
</g>
</g>
<!-- Node3&#45;&gt;Node4 -->
<g id="edge3_Node000003_Node000004" class="edge">
<title>Node3&#45;&gt;Node4</title>
<g id="a_edge3_Node000003_Node000004"><a xlink:title=" ">
<path fill="none" stroke="#63b8ff" d="M200.02,-166.02C241.24,-156.95 310.99,-141.61 358,-131.28"/>
<polygon fill="#63b8ff" stroke="#63b8ff" points="358.95,-134.65 367.96,-129.08 357.45,-127.81 358.95,-134.65"/>
</a>
</g>
</g>
<!-- Node3&#45;&gt;Node6 -->
<g id="edge5_Node000003_Node000006" class="edge">
<title>Node3&#45;&gt;Node6</title>
<g id="a_edge5_Node000003_Node000006"><a xlink:title=" ">
<path fill="none" stroke="#63b8ff" d="M156.04,-164.98C146.87,-157.15 133.06,-145.34 121.97,-135.86"/>
<polygon fill="#63b8ff" stroke="#63b8ff" points="124.02,-133.01 114.14,-129.17 119.47,-138.33 124.02,-133.01"/>
</a>
</g>
</g>
<!-- Node7 -->
<g id="Node000007" class="node">
<title>Node7</title>
<g id="a_Node000007"><a xlink:href="token_8h.html" target="_top" xlink:title=" ">
<polygon fill="white" stroke="#666666" points="198.5,-74 145.5,-74 145.5,-55 198.5,-55 198.5,-74"/>
<text text-anchor="middle" x="172" y="-62" font-family="Helvetica,sans-Serif" font-size="10.00">token.h</text>
</a>
</g>
</g>
<!-- Node3&#45;&gt;Node7 -->
<g id="edge8_Node000003_Node000007" class="edge">
<title>Node3&#45;&gt;Node7</title>
<g id="a_edge8_Node000003_Node000007"><a xlink:title=" ">
<path fill="none" stroke="#63b8ff" d="M166.49,-164.66C167.46,-147.17 169.65,-107.8 170.96,-84.27"/>
<polygon fill="#63b8ff" stroke="#63b8ff" points="174.46,-84.34 171.52,-74.16 167.47,-83.95 174.46,-84.34"/>
</a>
</g>
</g>
<!-- Node5 -->
<g id="Node000005" class="node">
<title>Node5</title>
<g id="a_Node000005"><a xlink:href="hashmap_8h.html" target="_top" xlink:title=" ">
<polygon fill="white" stroke="#666666" points="660.5,-74 589.5,-74 589.5,-55 660.5,-55 660.5,-74"/>
<text text-anchor="middle" x="625" y="-62" font-family="Helvetica,sans-Serif" font-size="10.00">hashmap.h</text>
</a>
</g>
</g>
<!-- Node4&#45;&gt;Node5 -->
<g id="edge4_Node000004_Node000005" class="edge">
<title>Node4&#45;&gt;Node5</title>
<g id="a_edge4_Node000004_Node000005"><a xlink:title=" ">
<path fill="none" stroke="#63b8ff" d="M442.03,-109.98C479.5,-100.87 539.05,-86.4 579.98,-76.45"/>
<polygon fill="#63b8ff" stroke="#63b8ff" points="580.81,-79.85 589.7,-74.08 579.16,-73.04 580.81,-79.85"/>
</a>
</g>
</g>
<!-- Node6&#45;&gt;Node7 -->
<g id="edge6_Node000006_Node000007" class="edge">
<title>Node6&#45;&gt;Node7</title>
<g id="a_edge6_Node000006_Node000007"><a xlink:title=" ">
<path fill="none" stroke="#63b8ff" d="M114.93,-109.98C125.08,-102.07 140.42,-90.11 152.65,-80.58"/>
<polygon fill="#63b8ff" stroke="#63b8ff" points="155.14,-83.08 160.88,-74.17 150.84,-77.56 155.14,-83.08"/>
</a>
</g>
</g>
<!-- Node7&#45;&gt;Node8 -->
<g id="edge7_Node000007_Node000008" class="edge">
<title>Node7&#45;&gt;Node8</title>
<g id="a_edge7_Node000007_Node000008"><a xlink:title=" ">
<path fill="none" stroke="#63b8ff" d="M179.76,-54.75C186.47,-47.18 196.34,-36.05 204.51,-26.84"/>
<polygon fill="#63b8ff" stroke="#63b8ff" points="207.37,-28.89 211.38,-19.09 202.13,-24.25 207.37,-28.89"/>
</a>
</g>
</g>
<!-- Node14&#45;&gt;Node4 -->
<g id="edge17_Node000014_Node000004" class="edge">
<title>Node14&#45;&gt;Node4</title>
<g id="a_edge17_Node000014_Node000004"><a xlink:title=" ">
<path fill="none" stroke="#63b8ff" d="M376.94,-164.75C381.98,-157.34 389.34,-146.5 395.51,-137.41"/>
<polygon fill="#63b8ff" stroke="#63b8ff" points="398.44,-139.33 401.17,-129.09 392.65,-135.39 398.44,-139.33"/>
</a>
</g>
</g>
<!-- Node15&#45;&gt;Node4 -->
<g id="edge19_Node000015_Node000004" class="edge">
<title>Node15&#45;&gt;Node4</title>
<g id="a_edge19_Node000015_Node000004"><a xlink:title=" ">
<path fill="none" stroke="#63b8ff" d="M568.15,-164.98C535.5,-155.97 483.8,-141.7 447.8,-131.76"/>
<polygon fill="#63b8ff" stroke="#63b8ff" points="448.66,-128.37 438.09,-129.08 446.8,-135.12 448.66,-128.37"/>
</a>
</g>
</g>
<!-- Node18&#45;&gt;Node4 -->
<g id="edge25_Node000018_Node000004" class="edge">
<title>Node18&#45;&gt;Node4</title>
<g id="a_edge25_Node000018_Node000004"><a xlink:title=" ">
<path fill="none" stroke="#63b8ff" d="M944.91,-219.9C904.38,-206.32 821.81,-179.93 750,-165 654.38,-145.12 541.8,-132.54 472.42,-126"/>
<polygon fill="#63b8ff" stroke="#63b8ff" points="472.36,-122.48 462.08,-125.05 471.72,-129.45 472.36,-122.48"/>
</a>
</g>
</g>
<!-- Node18&#45;&gt;Node9 -->
<g id="edge23_Node000018_Node000009" class="edge">
<title>Node18&#45;&gt;Node9</title>
<g id="a_edge23_Node000018_Node000009"><a xlink:title=" ">
<path fill="none" stroke="#63b8ff" d="M982.53,-219.98C994.4,-211.92 1012.46,-199.65 1026.61,-190.03"/>
<polygon fill="#63b8ff" stroke="#63b8ff" points="1028.94,-192.69 1035.24,-184.17 1025,-186.9 1028.94,-192.69"/>
</a>
</g>
</g>
<!-- Node18&#45;&gt;Node10 -->
<g id="edge24_Node000018_Node000010" class="edge">
<title>Node18&#45;&gt;Node10</title>
<g id="a_edge24_Node000018_Node000010"><a xlink:title=" ">
<path fill="none" stroke="#63b8ff" d="M928.87,-219.98C879.59,-209.78 797.8,-192.85 750.62,-183.08"/>
<polygon fill="#63b8ff" stroke="#63b8ff" points="751.04,-179.59 740.54,-180.99 749.62,-186.45 751.04,-179.59"/>
</a>
</g>
</g>
<!-- Node19&#45;&gt;Node5 -->
<g id="edge27_Node000019_Node000005" class="edge">
<title>Node19&#45;&gt;Node5</title>
<g id="a_edge27_Node000019_Node000005"><a xlink:title=" ">
<path fill="none" stroke="#63b8ff" d="M807.97,-109.98C770.5,-100.87 710.95,-86.4 670.02,-76.45"/>
<polygon fill="#63b8ff" stroke="#63b8ff" points="670.84,-73.04 660.3,-74.08 669.19,-79.85 670.84,-73.04"/>
</a>
</g>
</g>
<!-- Node20&#45;&gt;Node9 -->
<g id="edge29_Node000020_Node000009" class="edge">
<title>Node20&#45;&gt;Node9</title>
<g id="a_edge29_Node000020_Node000009"><a xlink:title=" ">
<path fill="none" stroke="#63b8ff" d="M1104.24,-219.98C1094.23,-212.07 1079.11,-200.11 1067.07,-190.58"/>
<polygon fill="#63b8ff" stroke="#63b8ff" points="1068.97,-187.63 1058.96,-184.17 1064.63,-193.12 1068.97,-187.63"/>
</a>
</g>
</g>
<!-- Node21&#45;&gt;Node6 -->
<g id="edge33_Node000021_Node000006" class="edge">
<title>Node21&#45;&gt;Node6</title>
<g id="a_edge33_Node000021_Node000006"><a xlink:title=" ">
<path fill="none" stroke="#63b8ff" d="M29.23,-219.86C17.52,-207.23 -0.5,-183.24 11,-165 20.73,-149.56 37.47,-139.35 54.09,-132.67"/>
<polygon fill="#63b8ff" stroke="#63b8ff" points="55.61,-135.84 63.8,-129.13 53.21,-129.26 55.61,-135.84"/>
</a>
</g>
</g>
<!-- Node22 -->
<g id="Node000022" class="node">
<title>Node22</title>
<g id="a_Node000022"><a xlink:title=" ">
<polygon fill="#e0e0e0" stroke="#999999" points="76,-184 20,-184 20,-165 76,-165 76,-184"/>
<text text-anchor="middle" x="48" y="-172" font-family="Helvetica,sans-Serif" font-size="10.00">stddef.h</text>
</a>
</g>
</g>
<!-- Node21&#45;&gt;Node22 -->
<g id="edge32_Node000021_Node000022" class="edge">
<title>Node21&#45;&gt;Node22</title>
<g id="a_edge32_Node000021_Node000022"><a xlink:title=" ">
<path fill="none" stroke="#63b8ff" d="M39.65,-219.75C40.96,-212.8 42.84,-202.85 44.48,-194.13"/>
<polygon fill="#63b8ff" stroke="#63b8ff" points="47.96,-194.56 46.38,-184.09 41.09,-193.27 47.96,-194.56"/>
</a>
</g>
</g>
</g>
</svg>
