<?xml version="1.0" encoding="UTF-8" standalone="no"?>
<!DOCTYPE svg PUBLIC "-//W3C//DTD SVG 1.1//EN"
 "http://www.w3.org/Graphics/SVG/1.1/DTD/svg11.dtd">
<!-- Generated by graphviz version 2.43.0 (0)
 -->
<!-- Title: exec_pipe Pages: 1 -->
<svg width="936pt" height="381pt"
 viewBox="0.00 0.00 936.00 380.97" xmlns="http://www.w3.org/2000/svg" xmlns:xlink="http://www.w3.org/1999/xlink">
<g id="graph0" class="graph" transform="scale(1 1) rotate(0) translate(4 376.97)">
<title>exec_pipe</title>
<!-- Node1 -->
<g id="Node000001" class="node">
<title>Node1</title>
<g id="a_Node000001"><a xlink:title="Execute a pipeline of commands.">
<polygon fill="#999999" stroke="#666666" points="928,-224.97 863,-224.97 863,-205.97 928,-205.97 928,-224.97"/>
<text text-anchor="middle" x="895.5" y="-212.97" font-family="Helvetica,sans-Serif" font-size="10.00">exec_pipe</text>
</a>
</g>
</g>
<!-- Node1&#45;&gt;Node1 -->
<g id="edge27_Node000001_Node000001" class="edge">
<title>Node1&#45;&gt;Node1</title>
<g id="a_edge27_Node000001_Node000001"><a xlink:title=" ">
<path fill="none" stroke="#63b8ff" d="M915.5,-234.52C914.16,-239.35 907.5,-242.97 895.5,-242.97 876.3,-242.97 870.76,-233.7 878.85,-225.05"/>
<polygon fill="#63b8ff" stroke="#63b8ff" points="918.78,-233.31 912.15,-225.05 912.18,-235.65 918.78,-233.31"/>
</a>
</g>
</g>
<!-- Node2 -->
<g id="Node000002" class="node">
<title>Node2</title>
<g id="a_Node000002"><a xlink:href="ast__run_8c.html#a24d0223822f7b635628199085c3283be" target="_top" xlink:title=" ">
<polygon fill="white" stroke="#666666" points="827,-243.97 748,-243.97 748,-224.97 827,-224.97 827,-243.97"/>
<text text-anchor="middle" x="787.5" y="-231.97" font-family="Helvetica,sans-Serif" font-size="10.00">ast_run_pipe</text>
</a>
</g>
</g>
<!-- Node1&#45;&gt;Node2 -->
<g id="edge1_Node000001_Node000002" class="edge">
<title>Node1&#45;&gt;Node2</title>
<g id="a_edge1_Node000001_Node000002"><a xlink:title=" ">
<path fill="none" stroke="#63b8ff" d="M852.92,-222.92C844.45,-224.44 835.58,-226.03 827.21,-227.53"/>
<polygon fill="#63b8ff" stroke="#63b8ff" points="853.76,-226.33 862.98,-221.12 852.52,-219.44 853.76,-226.33"/>
</a>
</g>
</g>
<!-- Node3 -->
<g id="Node000003" class="node">
<title>Node3</title>
<g id="a_Node000003"><a xlink:href="ast_8c.html#a572345b2707780bbbc5bbaacdca9c372" target="_top" xlink:title=" ">
<polygon fill="white" stroke="#666666" points="712,-224.97 659,-224.97 659,-205.97 712,-205.97 712,-224.97"/>
<text text-anchor="middle" x="685.5" y="-212.97" font-family="Helvetica,sans-Serif" font-size="10.00">run_ast</text>
</a>
</g>
</g>
<!-- Node2&#45;&gt;Node3 -->
<g id="edge2_Node000002_Node000003" class="edge">
<title>Node2&#45;&gt;Node3</title>
<g id="a_edge2_Node000002_Node000003"><a xlink:title=" ">
<path fill="none" stroke="#63b8ff" d="M737.86,-225.23C728.95,-223.54 719.99,-221.83 712.1,-220.33"/>
<polygon fill="#63b8ff" stroke="#63b8ff" points="737.36,-228.7 747.84,-227.12 738.67,-221.82 737.36,-228.7"/>
</a>
</g>
</g>
<!-- Node3&#45;&gt;Node1 -->
<g id="edge20_Node000003_Node000001" class="edge">
<title>Node3&#45;&gt;Node1</title>
<g id="a_edge20_Node000003_Node000001"><a xlink:title=" ">
<path fill="none" stroke="#63b8ff" d="M722.15,-215.47C761.74,-215.47 825.04,-215.47 862.91,-215.47"/>
<polygon fill="#63b8ff" stroke="#63b8ff" points="722.14,-211.97 712.14,-215.47 722.14,-218.97 722.14,-211.97"/>
</a>
</g>
</g>
<!-- Node4 -->
<g id="Node000004" class="node">
<title>Node4</title>
<g id="a_Node000004"><a xlink:href="ast__run_8c.html#a8a01fec616135007fc5b3968a101901b" target="_top" xlink:title=" ">
<polygon fill="white" stroke="#666666" points="614,-372.97 523,-372.97 523,-353.97 614,-353.97 614,-372.97"/>
<text text-anchor="middle" x="568.5" y="-360.97" font-family="Helvetica,sans-Serif" font-size="10.00">ast_run_and_or</text>
</a>
</g>
</g>
<!-- Node3&#45;&gt;Node4 -->
<g id="edge3_Node000003_Node000004" class="edge">
<title>Node3&#45;&gt;Node4</title>
<g id="a_edge3_Node000003_Node000004"><a xlink:title=" ">
<path fill="none" stroke="#63b8ff" d="M678.67,-235.14C670.84,-261.89 654.16,-308.77 623,-336.47 612.75,-345.59 597.71,-350.11 586.18,-353.82"/>
<polygon fill="#63b8ff" stroke="#63b8ff" points="682.09,-235.91 681.41,-225.33 675.35,-234.02 682.09,-235.91"/>
</a>
</g>
</g>
<!-- Node5 -->
<g id="Node000005" class="node">
<title>Node5</title>
<g id="a_Node000005"><a xlink:href="ast__run_8c.html#a9d83d4834a61ffe21eb77838d70ae173" target="_top" xlink:title=" ">
<polygon fill="white" stroke="#666666" points="604,-335.97 533,-335.97 533,-316.97 604,-316.97 604,-335.97"/>
<text text-anchor="middle" x="568.5" y="-323.97" font-family="Helvetica,sans-Serif" font-size="10.00">ast_run_for</text>
</a>
</g>
</g>
<!-- Node3&#45;&gt;Node5 -->
<g id="edge5_Node000003_Node000005" class="edge">
<title>Node3&#45;&gt;Node5</title>
<g id="a_edge5_Node000003_Node000005"><a xlink:title=" ">
<path fill="none" stroke="#63b8ff" d="M673.24,-234.18C662.95,-253.26 645.87,-281.89 623,-299.47 611.66,-308.19 595.85,-312.82 584.36,-316.86"/>
<polygon fill="#63b8ff" stroke="#63b8ff" points="676.41,-235.66 677.99,-225.18 670.22,-232.39 676.41,-235.66"/>
</a>
</g>
</g>
<!-- Node6 -->
<g id="Node000006" class="node">
<title>Node6</title>
<g id="a_Node000006"><a xlink:href="ast__run_8c.html#a0a7138b1f2608ea36211c9b78988c248" target="_top" xlink:title=" ">
<polygon fill="white" stroke="#666666" points="601,-298.97 536,-298.97 536,-279.97 601,-279.97 601,-298.97"/>
<text text-anchor="middle" x="568.5" y="-286.97" font-family="Helvetica,sans-Serif" font-size="10.00">ast_run_if</text>
</a>
</g>
</g>
<!-- Node3&#45;&gt;Node6 -->
<g id="edge7_Node000003_Node000006" class="edge">
<title>Node3&#45;&gt;Node6</title>
<g id="a_edge7_Node000003_Node000006"><a xlink:title=" ">
<path fill="none" stroke="#63b8ff" d="M661.9,-232.07C651,-242.05 637.22,-254.11 623,-262.47 609.82,-270.22 592.84,-275.21 581.58,-279.96"/>
<polygon fill="#63b8ff" stroke="#63b8ff" points="664.32,-234.6 669.29,-225.25 659.57,-229.46 664.32,-234.6"/>
</a>
</g>
</g>
<!-- Node7 -->
<g id="Node000007" class="node">
<title>Node7</title>
<g id="a_Node000007"><a xlink:href="ast__run_8c.html#ae25cd3ced8abafd76110dba8852a6b87" target="_top" xlink:title=" ">
<polygon fill="white" stroke="#666666" points="605,-243.97 532,-243.97 532,-224.97 605,-224.97 605,-243.97"/>
<text text-anchor="middle" x="568.5" y="-231.97" font-family="Helvetica,sans-Serif" font-size="10.00">ast_run_list</text>
</a>
</g>
</g>
<!-- Node3&#45;&gt;Node7 -->
<g id="edge9_Node000003_Node000007" class="edge">
<title>Node3&#45;&gt;Node7</title>
<g id="a_edge9_Node000003_Node000007"><a xlink:title=" ">
<path fill="none" stroke="#63b8ff" d="M648.82,-215.07C630.79,-217.26 609.4,-221.03 593.38,-224.93"/>
<polygon fill="#63b8ff" stroke="#63b8ff" points="649.41,-218.52 658.98,-213.97 648.66,-211.56 649.41,-218.52"/>
</a>
</g>
</g>
<!-- Node8 -->
<g id="Node000008" class="node">
<title>Node8</title>
<g id="a_Node000008"><a xlink:href="ast__run_8c.html#a536f37ba9bffcd2099fef668656181e0" target="_top" xlink:title=" ">
<polygon fill="white" stroke="#666666" points="608,-206.97 529,-206.97 529,-187.97 608,-187.97 608,-206.97"/>
<text text-anchor="middle" x="568.5" y="-194.97" font-family="Helvetica,sans-Serif" font-size="10.00">ast_run_loop</text>
</a>
</g>
</g>
<!-- Node3&#45;&gt;Node8 -->
<g id="edge12_Node000003_Node000008" class="edge">
<title>Node3&#45;&gt;Node8</title>
<g id="a_edge12_Node000003_Node000008"><a xlink:title=" ">
<path fill="none" stroke="#63b8ff" d="M649.77,-203.78C636.64,-201.12 621.62,-198.72 608.16,-197.1"/>
<polygon fill="#63b8ff" stroke="#63b8ff" points="649.32,-207.26 659.83,-205.95 650.79,-200.42 649.32,-207.26"/>
</a>
</g>
</g>
<!-- Node9 -->
<g id="Node000009" class="node">
<title>Node9</title>
<g id="a_Node000009"><a xlink:href="ast__run_8c.html#aa3e6a973e744d748ee415840596beb53" target="_top" xlink:title=" ">
<polygon fill="white" stroke="#666666" points="623,-169.97 514,-169.97 514,-150.97 623,-150.97 623,-169.97"/>
<text text-anchor="middle" x="568.5" y="-157.97" font-family="Helvetica,sans-Serif" font-size="10.00">ast_run_shell_redir</text>
</a>
</g>
</g>
<!-- Node3&#45;&gt;Node9 -->
<g id="edge14_Node000003_Node000009" class="edge">
<title>Node3&#45;&gt;Node9</title>
<g id="a_edge14_Node000003_Node000009"><a xlink:title=" ">
<path fill="none" stroke="#63b8ff" d="M670.7,-198.85C658.66,-189 640.5,-177.62 623.5,-169.7"/>
<polygon fill="#63b8ff" stroke="#63b8ff" points="668.51,-201.58 678.29,-205.67 673.2,-196.38 668.51,-201.58"/>
</a>
</g>
</g>
<!-- Node10 -->
<g id="Node000010" class="node">
<title>Node10</title>
<g id="a_Node000010"><a xlink:href="exec_8c.html#a23babf893bbcd2f6126698a1a19b169f" target="_top" xlink:title="Execute funct with given arguments.">
<polygon fill="white" stroke="#666666" points="478,-112.97 413,-112.97 413,-93.97 478,-93.97 478,-112.97"/>
<text text-anchor="middle" x="445.5" y="-100.97" font-family="Helvetica,sans-Serif" font-size="10.00">exec_func</text>
</a>
</g>
</g>
<!-- Node3&#45;&gt;Node10 -->
<g id="edge16_Node000003_Node000010" class="edge">
<title>Node3&#45;&gt;Node10</title>
<g id="a_edge16_Node000003_Node000010"><a xlink:title=" ">
<path fill="none" stroke="#63b8ff" d="M673.95,-196.7C663.32,-179.6 645.33,-155 623,-141.47 577.69,-114.02 515.29,-106.25 478.1,-104.14"/>
<polygon fill="#63b8ff" stroke="#63b8ff" points="671.21,-198.96 679.33,-205.77 677.23,-195.38 671.21,-198.96"/>
</a>
</g>
</g>
<!-- Node13 -->
<g id="Node000013" class="node">
<title>Node13</title>
<g id="a_Node000013"><a xlink:href="42sh_8c.html#a3c04138a5bfe5d72780bb7e82a18e627" target="_top" xlink:title=" ">
<polygon fill="white" stroke="#666666" points="589,-93.97 548,-93.97 548,-74.97 589,-74.97 589,-93.97"/>
<text text-anchor="middle" x="568.5" y="-81.97" font-family="Helvetica,sans-Serif" font-size="10.00">main</text>
</a>
</g>
</g>
<!-- Node3&#45;&gt;Node13 -->
<g id="edge21_Node000003_Node000013" class="edge">
<title>Node3&#45;&gt;Node13</title>
<g id="a_edge21_Node000003_Node000013"><a xlink:title=" ">
<path fill="none" stroke="#63b8ff" d="M677.76,-196.33C668.63,-172.86 650.28,-133.15 623,-108.47 613.34,-99.73 599.96,-93.73 589,-89.91"/>
<polygon fill="#63b8ff" stroke="#63b8ff" points="674.54,-197.71 681.3,-205.86 681.1,-195.27 674.54,-197.71"/>
</a>
</g>
</g>
<!-- Node14 -->
<g id="Node000014" class="node">
<title>Node14</title>
<g id="a_Node000014"><a xlink:href="dot_8c.html#a17477ee2b0f1b8b9306566c990d15b35" target="_top" xlink:title="Main loop of dot builtin.">
<polygon fill="white" stroke="#666666" points="602.5,-56.97 534.5,-56.97 534.5,-37.97 602.5,-37.97 602.5,-56.97"/>
<text text-anchor="middle" x="568.5" y="-44.97" font-family="Helvetica,sans-Serif" font-size="10.00">main_loop</text>
</a>
</g>
</g>
<!-- Node3&#45;&gt;Node14 -->
<g id="edge22_Node000003_Node000014" class="edge">
<title>Node3&#45;&gt;Node14</title>
<g id="a_edge22_Node000003_Node000014"><a xlink:title=" ">
<path fill="none" stroke="#63b8ff" d="M681.72,-195.6C676.23,-163.73 661.04,-101.13 623,-65.47 617.35,-60.18 610.09,-56.43 602.76,-53.79"/>
<polygon fill="#63b8ff" stroke="#63b8ff" points="678.32,-196.51 683.33,-205.85 685.24,-195.43 678.32,-196.51"/>
</a>
</g>
</g>
<!-- Node4&#45;&gt;Node3 -->
<g id="edge4_Node000004_Node000003" class="edge">
<title>Node4&#45;&gt;Node3</title>
<g id="a_edge4_Node000004_Node000003"><a xlink:title=" ">
<path fill="none" stroke="#63b8ff" d="M622.49,-354.92C622.66,-354.77 622.83,-354.62 623,-354.47 663.12,-318.8 679.23,-251.35 683.36,-225.33"/>
<polygon fill="#63b8ff" stroke="#63b8ff" points="620.27,-352.2 614.02,-360.75 624.24,-357.96 620.27,-352.2"/>
</a>
</g>
</g>
<!-- Node5&#45;&gt;Node3 -->
<g id="edge6_Node000005_Node000003" class="edge">
<title>Node5&#45;&gt;Node3</title>
<g id="a_edge6_Node000005_Node000003"><a xlink:title=" ">
<path fill="none" stroke="#63b8ff" d="M613.32,-323.49C616.75,-321.76 620.03,-319.76 623,-317.47 655.22,-292.69 675.96,-245.98 682.38,-225.03"/>
<polygon fill="#63b8ff" stroke="#63b8ff" points="611.87,-320.3 604.02,-327.41 614.59,-326.75 611.87,-320.3"/>
</a>
</g>
</g>
<!-- Node6&#45;&gt;Node3 -->
<g id="edge8_Node000006_Node000003" class="edge">
<title>Node6&#45;&gt;Node3</title>
<g id="a_edge8_Node000006_Node000003"><a xlink:title=" ">
<path fill="none" stroke="#63b8ff" d="M610.52,-286.59C614.85,-284.82 619.09,-282.77 623,-280.47 647.65,-265.98 670.96,-240.4 680.26,-225.4"/>
<polygon fill="#63b8ff" stroke="#63b8ff" points="609.24,-283.34 601.01,-290.01 611.6,-289.93 609.24,-283.34"/>
</a>
</g>
</g>
<!-- Node7&#45;&gt;Node3 -->
<g id="edge11_Node000007_Node000003" class="edge">
<title>Node7&#45;&gt;Node3</title>
<g id="a_edge11_Node000007_Node000003"><a xlink:title=" ">
<path fill="none" stroke="#63b8ff" d="M615.11,-233.55C630.7,-231.32 647.5,-228.21 660.67,-225"/>
<polygon fill="#63b8ff" stroke="#63b8ff" points="614.55,-230.1 605.09,-234.88 615.47,-237.04 614.55,-230.1"/>
</a>
</g>
</g>
<!-- Node7&#45;&gt;Node7 -->
<g id="edge10_Node000007_Node000007" class="edge">
<title>Node7&#45;&gt;Node7</title>
<g id="a_edge10_Node000007_Node000007"><a xlink:title=" ">
<path fill="none" stroke="#63b8ff" d="M589.98,-253.52C588.55,-258.35 581.39,-261.97 568.5,-261.97 547.88,-261.97 541.92,-252.7 550.62,-244.05"/>
<polygon fill="#63b8ff" stroke="#63b8ff" points="593.2,-252.16 586.38,-244.05 586.66,-254.64 593.2,-252.16"/>
</a>
</g>
</g>
<!-- Node8&#45;&gt;Node3 -->
<g id="edge13_Node000008_Node000003" class="edge">
<title>Node8&#45;&gt;Node3</title>
<g id="a_edge13_Node000008_Node000003"><a xlink:title=" ">
<path fill="none" stroke="#63b8ff" d="M604.09,-209.13C621.74,-212.71 642.83,-215.83 658.98,-217.2"/>
<polygon fill="#63b8ff" stroke="#63b8ff" points="604.68,-205.68 594.16,-206.99 603.2,-212.52 604.68,-205.68"/>
</a>
</g>
</g>
<!-- Node9&#45;&gt;Node3 -->
<g id="edge15_Node000009_Node000003" class="edge">
<title>Node9&#45;&gt;Node3</title>
<g id="a_edge15_Node000009_Node000003"><a xlink:title=" ">
<path fill="none" stroke="#63b8ff" d="M589.34,-174.06C599.59,-178.17 612.19,-182.47 623,-187.47 635.21,-193.12 648.07,-200.59 658.85,-206.66"/>
<polygon fill="#63b8ff" stroke="#63b8ff" points="590.58,-170.78 580.01,-169.99 587.78,-177.2 590.58,-170.78"/>
</a>
</g>
</g>
<!-- Node11 -->
<g id="Node000011" class="node">
<title>Node11</title>
<g id="a_Node000011"><a xlink:href="exec_8c.html#ae65edaa99b26b49d60c451157d38b34a" target="_top" xlink:title="Execute les commandes avec les args donnes.">
<polygon fill="white" stroke="#666666" points="180,-56.97 115,-56.97 115,-37.97 180,-37.97 180,-56.97"/>
<text text-anchor="middle" x="147.5" y="-44.97" font-family="Helvetica,sans-Serif" font-size="10.00">exec_cmd</text>
</a>
</g>
</g>
<!-- Node10&#45;&gt;Node11 -->
<g id="edge17_Node000010_Node000011" class="edge">
<title>Node10&#45;&gt;Node11</title>
<g id="a_edge17_Node000010_Node000011"><a xlink:title=" ">
<path fill="none" stroke="#63b8ff" d="M402.72,-97.75C356.73,-91.17 280.73,-79.45 216,-65.47 204.26,-62.94 191.51,-59.67 180.28,-56.62"/>
<polygon fill="#63b8ff" stroke="#63b8ff" points="402.51,-101.25 412.9,-99.19 403.49,-94.32 402.51,-101.25"/>
</a>
</g>
</g>
<!-- Node12 -->
<g id="Node000012" class="node">
<title>Node12</title>
<g id="a_Node000012"><a xlink:href="ast__run_8c.html#aeb6878a59c6907e5669fc3cc428913d9" target="_top" xlink:title=" ">
<polygon fill="white" stroke="#666666" points="79,-37.97 0,-37.97 0,-18.97 79,-18.97 79,-37.97"/>
<text text-anchor="middle" x="39.5" y="-25.97" font-family="Helvetica,sans-Serif" font-size="10.00">ast_run_cmd</text>
</a>
</g>
</g>
<!-- Node11&#45;&gt;Node12 -->
<g id="edge18_Node000011_Node000012" class="edge">
<title>Node11&#45;&gt;Node12</title>
<g id="a_edge18_Node000011_Node000012"><a xlink:title=" ">
<path fill="none" stroke="#63b8ff" d="M104.92,-40.02C96.45,-38.5 87.58,-36.91 79.21,-35.41"/>
<polygon fill="#63b8ff" stroke="#63b8ff" points="104.52,-43.5 114.98,-41.82 105.76,-36.61 104.52,-43.5"/>
</a>
</g>
</g>
<!-- Node12&#45;&gt;Node3 -->
<g id="edge19_Node000012_Node000003" class="edge">
<title>Node12&#45;&gt;Node3</title>
<g id="a_edge19_Node000012_Node000003"><a xlink:title=" ">
<path fill="none" stroke="#63b8ff" d="M89.1,-21.24C129.43,-15.87 188.31,-9.47 240,-9.47 446.5,-9.47 446.5,-9.47 446.5,-9.47 525.4,-9.47 561.66,21.15 623,-28.47 679.86,-74.47 684.63,-174.24 684.67,-205.74"/>
<polygon fill="#63b8ff" stroke="#63b8ff" points="88.45,-17.8 79.01,-22.61 89.4,-24.73 88.45,-17.8"/>
</a>
</g>
</g>
<!-- Node15 -->
<g id="Node000015" class="node">
<title>Node15</title>
<g id="a_Node000015"><a xlink:href="dot_8c.html#a713938d3c6ee343132c429642048bcf6" target="_top" xlink:title="Execute the dot builtin cmd.">
<polygon fill="white" stroke="#666666" points="467.5,-56.97 423.5,-56.97 423.5,-37.97 467.5,-37.97 467.5,-56.97"/>
<text text-anchor="middle" x="445.5" y="-44.97" font-family="Helvetica,sans-Serif" font-size="10.00">dot_b</text>
</a>
</g>
</g>
<!-- Node14&#45;&gt;Node15 -->
<g id="edge23_Node000014_Node000015" class="edge">
<title>Node14&#45;&gt;Node15</title>
<g id="a_edge23_Node000014_Node000015"><a xlink:title=" ">
<path fill="none" stroke="#63b8ff" d="M524.37,-47.47C505.13,-47.47 483.34,-47.47 467.72,-47.47"/>
<polygon fill="#63b8ff" stroke="#63b8ff" points="524.44,-50.97 534.44,-47.47 524.44,-43.97 524.44,-50.97"/>
</a>
</g>
</g>
<!-- Node16 -->
<g id="Node000016" class="node">
<title>Node16</title>
<g id="a_Node000016"><a xlink:href="exec_8c.html#abaeb177587c7eec6a064b35bb8399cae" target="_top" xlink:title="Execute builtin cmd with given args.">
<polygon fill="white" stroke="#666666" points="377,-56.97 302,-56.97 302,-37.97 377,-37.97 377,-56.97"/>
<text text-anchor="middle" x="339.5" y="-44.97" font-family="Helvetica,sans-Serif" font-size="10.00">exec_builtin</text>
</a>
</g>
</g>
<!-- Node15&#45;&gt;Node16 -->
<g id="edge24_Node000015_Node000016" class="edge">
<title>Node15&#45;&gt;Node16</title>
<g id="a_edge24_Node000015_Node000016"><a xlink:title=" ">
<path fill="none" stroke="#63b8ff" d="M413.14,-47.47C401.78,-47.47 388.86,-47.47 377.09,-47.47"/>
<polygon fill="#63b8ff" stroke="#63b8ff" points="413.45,-50.97 423.45,-47.47 413.45,-43.97 413.45,-50.97"/>
</a>
</g>
</g>
<!-- Node17 -->
<g id="Node000017" class="node">
<title>Node17</title>
<g id="a_Node000017"><a xlink:href="exec_8c.html#a287d81b4658832f192750310e2925917" target="_top" xlink:title="Execute the builtin command with given args.">
<polygon fill="white" stroke="#666666" points="266,-56.97 216,-56.97 216,-37.97 266,-37.97 266,-56.97"/>
<text text-anchor="middle" x="241" y="-44.97" font-family="Helvetica,sans-Serif" font-size="10.00">exec_b</text>
</a>
</g>
</g>
<!-- Node16&#45;&gt;Node17 -->
<g id="edge25_Node000016_Node000017" class="edge">
<title>Node16&#45;&gt;Node17</title>
<g id="a_edge25_Node000016_Node000017"><a xlink:title=" ">
<path fill="none" stroke="#63b8ff" d="M291.51,-47.47C282.71,-47.47 273.86,-47.47 266.12,-47.47"/>
<polygon fill="#63b8ff" stroke="#63b8ff" points="291.74,-50.97 301.74,-47.47 291.74,-43.97 291.74,-50.97"/>
</a>
</g>
</g>
<!-- Node17&#45;&gt;Node11 -->
<g id="edge26_Node000017_Node000011" class="edge">
<title>Node17&#45;&gt;Node11</title>
<g id="a_edge26_Node000017_Node000011"><a xlink:title=" ">
<path fill="none" stroke="#63b8ff" d="M205.77,-47.47C197.42,-47.47 188.53,-47.47 180.3,-47.47"/>
<polygon fill="#63b8ff" stroke="#63b8ff" points="205.96,-50.97 215.96,-47.47 205.96,-43.97 205.96,-50.97"/>
</a>
</g>
</g>
</g>
</svg>
