<?xml version="1.0" encoding="UTF-8" standalone="no"?>
<!DOCTYPE svg PUBLIC "-//W3C//DTD SVG 1.1//EN"
 "http://www.w3.org/Graphics/SVG/1.1/DTD/svg11.dtd">
<!-- Generated by graphviz version 2.43.0 (0)
 -->
<!-- Title: exec_assignment Pages: 1 -->
<svg width="1451pt" height="260pt"
 viewBox="0.00 0.00 1451.00 259.50" xmlns="http://www.w3.org/2000/svg" xmlns:xlink="http://www.w3.org/1999/xlink">
<g id="graph0" class="graph" transform="scale(1 1) rotate(0) translate(4 255.5)">
<title>exec_assignment</title>
<!-- Node1 -->
<g id="Node000001" class="node">
<title>Node1</title>
<g id="a_Node000001"><a xlink:title="Exec assignments in cmd.">
<polygon fill="#999999" stroke="#666666" points="101,-83.5 0,-83.5 0,-64.5 101,-64.5 101,-83.5"/>
<text text-anchor="middle" x="50.5" y="-71.5" font-family="Helvetica,sans-Serif" font-size="10.00">exec_assignment</text>
</a>
</g>
</g>
<!-- Node2 -->
<g id="Node000002" class="node">
<title>Node2</title>
<g id="a_Node000002"><a xlink:href="hashmap_8c.html#a3bf95c887f7eac3eb074725515feba49" target="_top" xlink:title="Add a variable to the dictionnary.">
<polygon fill="white" stroke="#666666" points="335.5,-75.5 279.5,-75.5 279.5,-56.5 335.5,-56.5 335.5,-75.5"/>
<text text-anchor="middle" x="307.5" y="-63.5" font-family="Helvetica,sans-Serif" font-size="10.00">add_var</text>
</a>
</g>
</g>
<!-- Node1&#45;&gt;Node2 -->
<g id="edge1_Node000001_Node000002" class="edge">
<title>Node1&#45;&gt;Node2</title>
<g id="a_edge1_Node000001_Node000002"><a xlink:title=" ">
<path fill="none" stroke="#63b8ff" d="M101.22,-74.7C135.01,-74.93 180.72,-74.77 221,-73 236.68,-72.31 253.95,-71 268.83,-69.7"/>
<polygon fill="#63b8ff" stroke="#63b8ff" points="269.55,-73.15 279.19,-68.77 268.92,-66.18 269.55,-73.15"/>
</a>
</g>
</g>
<!-- Node22 -->
<g id="Node000022" class="node">
<title>Node22</title>
<g id="a_Node000022"><a xlink:href="redir__exec_8c.html#ace19b4ee14b7f7739a289d5119c95663" target="_top" xlink:title="Apply redirs.">
<polygon fill="white" stroke="#666666" points="214.5,-149.5 143.5,-149.5 143.5,-130.5 214.5,-130.5 214.5,-149.5"/>
<text text-anchor="middle" x="179" y="-137.5" font-family="Helvetica,sans-Serif" font-size="10.00">redir_apply</text>
</a>
</g>
</g>
<!-- Node1&#45;&gt;Node22 -->
<g id="edge25_Node000001_Node000022" class="edge">
<title>Node1&#45;&gt;Node22</title>
<g id="a_edge25_Node000001_Node000022"><a xlink:title=" ">
<path fill="none" stroke="#63b8ff" d="M69.89,-83.6C91.07,-94.64 126.06,-112.9 150.48,-125.64"/>
<polygon fill="#63b8ff" stroke="#63b8ff" points="149.1,-128.87 159.58,-130.39 152.34,-122.66 149.1,-128.87"/>
</a>
</g>
</g>
<!-- Node27 -->
<g id="Node000027" class="node">
<title>Node27</title>
<g id="a_Node000027"><a xlink:href="redir__exec_8c.html#aad8d30393d8f72801110acdac137b0b3" target="_top" xlink:title="Restore saved fds.">
<polygon fill="white" stroke="#666666" points="221,-64.5 137,-64.5 137,-45.5 221,-45.5 221,-64.5"/>
<text text-anchor="middle" x="179" y="-52.5" font-family="Helvetica,sans-Serif" font-size="10.00">restore_redirs</text>
</a>
</g>
</g>
<!-- Node1&#45;&gt;Node27 -->
<g id="edge31_Node000001_Node000027" class="edge">
<title>Node1&#45;&gt;Node27</title>
<g id="a_edge31_Node000001_Node000027"><a xlink:title=" ">
<path fill="none" stroke="#63b8ff" d="M101.13,-66.55C109.5,-65.29 118.2,-63.98 126.61,-62.72"/>
<polygon fill="#63b8ff" stroke="#63b8ff" points="127.31,-66.15 136.68,-61.21 126.27,-59.23 127.31,-66.15"/>
</a>
</g>
</g>
<!-- Node28 -->
<g id="Node000028" class="node">
<title>Node28</title>
<g id="a_Node000028"><a xlink:href="exec_8c.html#a10741ea1c82bec65aa88b283c4a68e5b" target="_top" xlink:title="Update special var &quot;?&quot; with given status.">
<polygon fill="white" stroke="#666666" points="216,-27.5 142,-27.5 142,-8.5 216,-8.5 216,-27.5"/>
<text text-anchor="middle" x="179" y="-15.5" font-family="Helvetica,sans-Serif" font-size="10.00">update_exit</text>
</a>
</g>
</g>
<!-- Node1&#45;&gt;Node28 -->
<g id="edge32_Node000001_Node000028" class="edge">
<title>Node1&#45;&gt;Node28</title>
<g id="a_edge32_Node000001_Node000028"><a xlink:title=" ">
<path fill="none" stroke="#63b8ff" d="M72.92,-64.45C90.21,-56.75 115.16,-45.65 137,-36 140.23,-34.57 143.6,-33.09 146.96,-31.61"/>
<polygon fill="#63b8ff" stroke="#63b8ff" points="148.54,-34.74 156.29,-27.51 145.73,-28.33 148.54,-34.74"/>
</a>
</g>
</g>
<!-- Node3 -->
<g id="Node000003" class="node">
<title>Node3</title>
<g id="a_Node000003"><a xlink:href="hashmap_8c.html#aca86cd9ca85ac2e41fbb5c9e86ad6d6f" target="_top" xlink:title=" ">
<polygon fill="white" stroke="#666666" points="500.5,-85.5 415.5,-85.5 415.5,-66.5 500.5,-66.5 500.5,-85.5"/>
<text text-anchor="middle" x="458" y="-73.5" font-family="Helvetica,sans-Serif" font-size="10.00">expand_value</text>
</a>
</g>
</g>
<!-- Node2&#45;&gt;Node3 -->
<g id="edge2_Node000002_Node000003" class="edge">
<title>Node2&#45;&gt;Node3</title>
<g id="a_edge2_Node000002_Node000003"><a xlink:title=" ">
<path fill="none" stroke="#63b8ff" d="M335.74,-67.83C355.14,-69.14 381.82,-70.94 405.21,-72.51"/>
<polygon fill="#63b8ff" stroke="#63b8ff" points="405.13,-76.02 415.34,-73.19 405.6,-69.03 405.13,-76.02"/>
</a>
</g>
</g>
<!-- Node13 -->
<g id="Node000013" class="node">
<title>Node13</title>
<g id="a_Node000013"><a xlink:href="hash_8c.html#ac74a7e29e54c223be6213463974d6154" target="_top" xlink:title=" ">
<polygon fill="white" stroke="#666666" points="1365,-57.5 1325,-57.5 1325,-38.5 1365,-38.5 1365,-57.5"/>
<text text-anchor="middle" x="1345" y="-45.5" font-family="Helvetica,sans-Serif" font-size="10.00">hash</text>
</a>
</g>
</g>
<!-- Node2&#45;&gt;Node13 -->
<g id="edge23_Node000002_Node000013" class="edge">
<title>Node2&#45;&gt;Node13</title>
<g id="a_edge23_Node000002_Node000013"><a xlink:title=" ">
<path fill="none" stroke="#63b8ff" d="M335.73,-61.38C385,-53.42 492.32,-38 583.5,-38 583.5,-38 583.5,-38 1098.5,-38 1176.69,-38 1268.78,-43.13 1314.77,-46.04"/>
<polygon fill="#63b8ff" stroke="#63b8ff" points="1314.71,-49.54 1324.91,-46.69 1315.16,-42.56 1314.71,-49.54"/>
</a>
</g>
</g>
<!-- Node21 -->
<g id="Node000021" class="node">
<title>Node21</title>
<g id="a_Node000021"><a xlink:href="hashmap_8c.html#a5bcdd565d2ba5876c5ef1685625cdcfa" target="_top" xlink:title=" ">
<polygon fill="white" stroke="#666666" points="522,-122.5 394,-122.5 394,-103.5 522,-103.5 522,-122.5"/>
<text text-anchor="middle" x="458" y="-110.5" font-family="Helvetica,sans-Serif" font-size="10.00">update_or_append_var</text>
</a>
</g>
</g>
<!-- Node2&#45;&gt;Node21 -->
<g id="edge24_Node000002_Node000021" class="edge">
<title>Node2&#45;&gt;Node21</title>
<g id="a_edge24_Node000002_Node000021"><a xlink:title=" ">
<path fill="none" stroke="#63b8ff" d="M335.79,-75.12C352.55,-80.67 374.48,-87.86 394,-94 400.74,-96.12 407.89,-98.32 414.87,-100.45"/>
<polygon fill="#63b8ff" stroke="#63b8ff" points="414.32,-103.93 424.91,-103.48 416.35,-97.23 414.32,-103.93"/>
</a>
</g>
</g>
<!-- Node4 -->
<g id="Node000004" class="node">
<title>Node4</title>
<g id="a_Node000004"><a xlink:href="expand_8c.html#ae22ff4719527d6b2b8bca3e43f576837" target="_top" xlink:title=" ">
<polygon fill="white" stroke="#666666" points="611,-85.5 558,-85.5 558,-66.5 611,-66.5 611,-85.5"/>
<text text-anchor="middle" x="584.5" y="-73.5" font-family="Helvetica,sans-Serif" font-size="10.00">expand</text>
</a>
</g>
</g>
<!-- Node3&#45;&gt;Node4 -->
<g id="edge3_Node000003_Node000004" class="edge">
<title>Node3&#45;&gt;Node4</title>
<g id="a_edge3_Node000003_Node000004"><a xlink:title=" ">
<path fill="none" stroke="#63b8ff" d="M500.8,-76C516.04,-76 533.11,-76 547.77,-76"/>
<polygon fill="#63b8ff" stroke="#63b8ff" points="547.96,-79.5 557.96,-76 547.96,-72.5 547.96,-79.5"/>
</a>
</g>
</g>
<!-- Node5 -->
<g id="Node000005" class="node">
<title>Node5</title>
<g id="a_Node000005"><a xlink:href="expand_8c.html#a492ca861a96ee6319b97b4b1d6ba9835" target="_top" xlink:title=" ">
<polygon fill="white" stroke="#666666" points="729,-160.5 647,-160.5 647,-141.5 729,-141.5 729,-160.5"/>
<text text-anchor="middle" x="688" y="-148.5" font-family="Helvetica,sans-Serif" font-size="10.00">expand_word</text>
</a>
</g>
</g>
<!-- Node4&#45;&gt;Node5 -->
<g id="edge4_Node000004_Node000005" class="edge">
<title>Node4&#45;&gt;Node5</title>
<g id="a_edge4_Node000004_Node000005"><a xlink:title=" ">
<path fill="none" stroke="#63b8ff" d="M598.77,-85.8C615.81,-98.39 645.58,-120.4 665.78,-135.32"/>
<polygon fill="#63b8ff" stroke="#63b8ff" points="663.93,-138.3 674.05,-141.43 668.09,-132.67 663.93,-138.3"/>
</a>
</g>
</g>
<!-- Node11 -->
<g id="Node000011" class="node">
<title>Node11</title>
<g id="a_Node000011"><a xlink:href="expand_8c.html#aaf941edbfdd3ac08d813ff01acc1f963" target="_top" xlink:title=" ">
<polygon fill="white" stroke="#666666" points="1256,-85.5 1203,-85.5 1203,-66.5 1256,-66.5 1256,-85.5"/>
<text text-anchor="middle" x="1229.5" y="-73.5" font-family="Helvetica,sans-Serif" font-size="10.00">free_ex</text>
</a>
</g>
</g>
<!-- Node4&#45;&gt;Node11 -->
<g id="edge22_Node000004_Node000011" class="edge">
<title>Node4&#45;&gt;Node11</title>
<g id="a_edge22_Node000004_Node000011"><a xlink:title=" ">
<path fill="none" stroke="#63b8ff" d="M611.04,-76C655.31,-76 749.19,-76 828.5,-76 828.5,-76 828.5,-76 975,-76 1052.7,-76 1143.79,-76 1192.85,-76"/>
<polygon fill="#63b8ff" stroke="#63b8ff" points="1192.95,-79.5 1202.95,-76 1192.95,-72.5 1192.95,-79.5"/>
</a>
</g>
</g>
<!-- Node6 -->
<g id="Node000006" class="node">
<title>Node6</title>
<g id="a_Node000006"><a xlink:href="expand_8c.html#a97a675ffacb4b71f4f3b4a30749d9f66" target="_top" xlink:title=" ">
<polygon fill="white" stroke="#666666" points="869,-123.5 790,-123.5 790,-104.5 869,-104.5 869,-123.5"/>
<text text-anchor="middle" x="829.5" y="-111.5" font-family="Helvetica,sans-Serif" font-size="10.00">append_char</text>
</a>
</g>
</g>
<!-- Node5&#45;&gt;Node6 -->
<g id="edge5_Node000005_Node000006" class="edge">
<title>Node5&#45;&gt;Node6</title>
<g id="a_edge5_Node000005_Node000006"><a xlink:title=" ">
<path fill="none" stroke="#63b8ff" d="M724.92,-141.47C742.44,-136.83 763.72,-131.18 782.42,-126.22"/>
<polygon fill="#63b8ff" stroke="#63b8ff" points="783.44,-129.57 792.21,-123.62 781.65,-122.81 783.44,-129.57"/>
</a>
</g>
</g>
<!-- Node7 -->
<g id="Node000007" class="node">
<title>Node7</title>
<g id="a_Node000007"><a xlink:href="expand_8c.html#a6d4728fd992669e4bb35624d37972179" target="_top" xlink:title=" ">
<polygon fill="white" stroke="#666666" points="894,-236.5 765,-236.5 765,-217.5 894,-217.5 894,-236.5"/>
<text text-anchor="middle" x="829.5" y="-224.5" font-family="Helvetica,sans-Serif" font-size="10.00">double_quotes_expand</text>
</a>
</g>
</g>
<!-- Node5&#45;&gt;Node7 -->
<g id="edge6_Node000005_Node000007" class="edge">
<title>Node5&#45;&gt;Node7</title>
<g id="a_edge6_Node000005_Node000007"><a xlink:title=" ">
<path fill="none" stroke="#63b8ff" d="M701.07,-160.61C715.6,-171.85 741.04,-190.51 765,-203 772.66,-207 781.14,-210.67 789.34,-213.88"/>
<polygon fill="#63b8ff" stroke="#63b8ff" points="788.19,-217.19 798.78,-217.43 790.65,-210.63 788.19,-217.19"/>
</a>
</g>
</g>
<!-- Node10 -->
<g id="Node000010" class="node">
<title>Node10</title>
<g id="a_Node000010"><a xlink:href="expand_8c.html#a0a337c3a6b2595b2b8c03e171c9559ba" target="_top" xlink:title=" ">
<polygon fill="white" stroke="#666666" points="1134.5,-198.5 1060.5,-198.5 1060.5,-179.5 1134.5,-179.5 1134.5,-198.5"/>
<text text-anchor="middle" x="1097.5" y="-186.5" font-family="Helvetica,sans-Serif" font-size="10.00">var_expand</text>
</a>
</g>
</g>
<!-- Node5&#45;&gt;Node10 -->
<g id="edge21_Node000005_Node000010" class="edge">
<title>Node5&#45;&gt;Node10</title>
<g id="a_edge21_Node000005_Node000010"><a xlink:title=" ">
<path fill="none" stroke="#63b8ff" d="M721.65,-160.59C734.98,-164.13 750.61,-167.81 765,-170 865.95,-185.37 985.92,-188.57 1050.25,-189.08"/>
<polygon fill="#63b8ff" stroke="#63b8ff" points="1050.44,-192.58 1060.46,-189.14 1050.48,-185.58 1050.44,-192.58"/>
</a>
</g>
</g>
<!-- Node20 -->
<g id="Node000020" class="node">
<title>Node20</title>
<g id="a_Node000020"><a xlink:href="expand_8c.html#ad45c8055962fa36940e109b04b7e562e" target="_top" xlink:title=" ">
<polygon fill="white" stroke="#666666" points="889.5,-160.5 769.5,-160.5 769.5,-141.5 889.5,-141.5 889.5,-160.5"/>
<text text-anchor="middle" x="829.5" y="-148.5" font-family="Helvetica,sans-Serif" font-size="10.00">single_quote_expand</text>
</a>
</g>
</g>
<!-- Node5&#45;&gt;Node20 -->
<g id="edge20_Node000005_Node000020" class="edge">
<title>Node5&#45;&gt;Node20</title>
<g id="a_edge20_Node000005_Node000020"><a xlink:title=" ">
<path fill="none" stroke="#63b8ff" d="M729.35,-151C738.7,-151 748.92,-151 759.13,-151"/>
<polygon fill="#63b8ff" stroke="#63b8ff" points="759.3,-154.5 769.3,-151 759.3,-147.5 759.3,-154.5"/>
</a>
</g>
</g>
<!-- Node8 -->
<g id="Node000008" class="node">
<title>Node8</title>
<g id="a_Node000008"><a xlink:href="expand_8c.html#a4a10ac07faa08df14e0a438c5feace6b" target="_top" xlink:title=" ">
<polygon fill="white" stroke="#666666" points="1018,-236.5 930,-236.5 930,-217.5 1018,-217.5 1018,-236.5"/>
<text text-anchor="middle" x="974" y="-224.5" font-family="Helvetica,sans-Serif" font-size="10.00">in_dquote_exp</text>
</a>
</g>
</g>
<!-- Node7&#45;&gt;Node8 -->
<g id="edge7_Node000007_Node000008" class="edge">
<title>Node7&#45;&gt;Node8</title>
<g id="a_edge7_Node000007_Node000008"><a xlink:title=" ">
<path fill="none" stroke="#63b8ff" d="M894.25,-227C902.69,-227 911.27,-227 919.52,-227"/>
<polygon fill="#63b8ff" stroke="#63b8ff" points="919.74,-230.5 929.74,-227 919.74,-223.5 919.74,-230.5"/>
</a>
</g>
</g>
<!-- Node9 -->
<g id="Node000009" class="node">
<title>Node9</title>
<g id="a_Node000009"><a xlink:href="expand_8c.html#a46b3549565fede625ad04072f2654aa4" target="_top" xlink:title=" ">
<polygon fill="white" stroke="#666666" points="1141,-236.5 1054,-236.5 1054,-217.5 1141,-217.5 1141,-236.5"/>
<text text-anchor="middle" x="1097.5" y="-224.5" font-family="Helvetica,sans-Serif" font-size="10.00">is_expandable</text>
</a>
</g>
</g>
<!-- Node8&#45;&gt;Node9 -->
<g id="edge8_Node000008_Node000009" class="edge">
<title>Node8&#45;&gt;Node9</title>
<g id="a_edge8_Node000008_Node000009"><a xlink:title=" ">
<path fill="none" stroke="#63b8ff" d="M1018.18,-227C1026.42,-227 1035.14,-227 1043.64,-227"/>
<polygon fill="#63b8ff" stroke="#63b8ff" points="1043.87,-230.5 1053.87,-227 1043.87,-223.5 1043.87,-230.5"/>
</a>
</g>
</g>
<!-- Node8&#45;&gt;Node10 -->
<g id="edge9_Node000008_Node000010" class="edge">
<title>Node8&#45;&gt;Node10</title>
<g id="a_edge9_Node000008_Node000010"><a xlink:title=" ">
<path fill="none" stroke="#63b8ff" d="M1005.66,-217.41C1020.91,-212.64 1039.55,-206.81 1055.97,-201.68"/>
<polygon fill="#63b8ff" stroke="#63b8ff" points="1057.35,-204.91 1065.85,-198.59 1055.26,-198.23 1057.35,-204.91"/>
</a>
</g>
</g>
<!-- Node10&#45;&gt;Node11 -->
<g id="edge10_Node000010_Node000011" class="edge">
<title>Node10&#45;&gt;Node11</title>
<g id="a_edge10_Node000010_Node000011"><a xlink:title=" ">
<path fill="none" stroke="#63b8ff" d="M1103.92,-179.45C1115.14,-160.48 1142.76,-117.84 1177,-94 1181.93,-90.57 1187.58,-87.73 1193.29,-85.41"/>
<polygon fill="#63b8ff" stroke="#63b8ff" points="1194.61,-88.65 1202.83,-81.96 1192.24,-82.06 1194.61,-88.65"/>
</a>
</g>
</g>
<!-- Node12 -->
<g id="Node000012" class="node">
<title>Node12</title>
<g id="a_Node000012"><a xlink:href="hashmap_8c.html#aa54a9eed65359c74557f0f55c9ca3dd3" target="_top" xlink:title="Get the variable from the dictionnary.">
<polygon fill="white" stroke="#666666" points="1256,-122.5 1203,-122.5 1203,-103.5 1256,-103.5 1256,-122.5"/>
<text text-anchor="middle" x="1229.5" y="-110.5" font-family="Helvetica,sans-Serif" font-size="10.00">get_var</text>
</a>
</g>
</g>
<!-- Node10&#45;&gt;Node12 -->
<g id="edge11_Node000010_Node000012" class="edge">
<title>Node10&#45;&gt;Node12</title>
<g id="a_edge11_Node000010_Node000012"><a xlink:title=" ">
<path fill="none" stroke="#63b8ff" d="M1114.96,-179.37C1137.24,-166.35 1177.17,-143.01 1203.25,-127.76"/>
<polygon fill="#63b8ff" stroke="#63b8ff" points="1205.3,-130.62 1212.17,-122.55 1201.77,-124.57 1205.3,-130.62"/>
</a>
</g>
</g>
<!-- Node16 -->
<g id="Node000016" class="node">
<title>Node16</title>
<g id="a_Node000016"><a xlink:href="expand_8c.html#ac1225d88933658edb6e51e4ed8f003c3" target="_top" xlink:title=" ">
<polygon fill="white" stroke="#666666" points="1266,-251.5 1193,-251.5 1193,-232.5 1266,-232.5 1266,-251.5"/>
<text text-anchor="middle" x="1229.5" y="-239.5" font-family="Helvetica,sans-Serif" font-size="10.00">val_append</text>
</a>
</g>
</g>
<!-- Node10&#45;&gt;Node16 -->
<g id="edge16_Node000010_Node000016" class="edge">
<title>Node10&#45;&gt;Node16</title>
<g id="a_edge16_Node000010_Node000016"><a xlink:title=" ">
<path fill="none" stroke="#63b8ff" d="M1118.63,-198.53C1134.38,-205.85 1156.89,-216.02 1177,-224 1181.22,-225.68 1185.67,-227.36 1190.12,-228.98"/>
<polygon fill="#63b8ff" stroke="#63b8ff" points="1189.15,-232.35 1199.74,-232.42 1191.5,-225.76 1189.15,-232.35"/>
</a>
</g>
</g>
<!-- Node17 -->
<g id="Node000017" class="node">
<title>Node17</title>
<g id="a_Node000017"><a xlink:href="expand_8c.html#aa0106a12d15398cad9ca20f96f1eb374" target="_top" xlink:title=" ">
<polygon fill="white" stroke="#666666" points="1273.5,-214.5 1185.5,-214.5 1185.5,-195.5 1273.5,-195.5 1273.5,-214.5"/>
<text text-anchor="middle" x="1229.5" y="-202.5" font-family="Helvetica,sans-Serif" font-size="10.00">var_exp_brack</text>
</a>
</g>
</g>
<!-- Node10&#45;&gt;Node17 -->
<g id="edge17_Node000010_Node000017" class="edge">
<title>Node10&#45;&gt;Node17</title>
<g id="a_edge17_Node000010_Node000017"><a xlink:title=" ">
<path fill="none" stroke="#63b8ff" d="M1134.71,-193.46C1147.16,-194.99 1161.38,-196.74 1174.92,-198.41"/>
<polygon fill="#63b8ff" stroke="#63b8ff" points="1174.75,-201.91 1185.1,-199.66 1175.6,-194.96 1174.75,-201.91"/>
</a>
</g>
</g>
<!-- Node18 -->
<g id="Node000018" class="node">
<title>Node18</title>
<g id="a_Node000018"><a xlink:href="expand_8c.html#a5785fb584914d075e9a5d933e903823c" target="_top" xlink:title=" ">
<polygon fill="white" stroke="#666666" points="1282,-177.5 1177,-177.5 1177,-158.5 1282,-158.5 1282,-177.5"/>
<text text-anchor="middle" x="1229.5" y="-165.5" font-family="Helvetica,sans-Serif" font-size="10.00">var_exp_no_brack</text>
</a>
</g>
</g>
<!-- Node10&#45;&gt;Node18 -->
<g id="edge18_Node000010_Node000018" class="edge">
<title>Node10&#45;&gt;Node18</title>
<g id="a_edge18_Node000010_Node000018"><a xlink:title=" ">
<path fill="none" stroke="#63b8ff" d="M1134.71,-183.15C1144.72,-181.53 1155.87,-179.73 1166.89,-177.95"/>
<polygon fill="#63b8ff" stroke="#63b8ff" points="1167.62,-181.38 1176.94,-176.33 1166.51,-174.47 1167.62,-181.38"/>
</a>
</g>
</g>
<!-- Node12&#45;&gt;Node12 -->
<g id="edge12_Node000012_Node000012" class="edge">
<title>Node12&#45;&gt;Node12</title>
<g id="a_edge12_Node000012_Node000012"><a xlink:title=" ">
<path fill="none" stroke="#63b8ff" d="M1211.93,-122.58C1203.38,-131.23 1209.24,-140.5 1229.5,-140.5 1242.16,-140.5 1249.2,-136.88 1250.61,-132.05"/>
<polygon fill="#63b8ff" stroke="#63b8ff" points="1253.85,-130.72 1247.07,-122.58 1247.29,-133.18 1253.85,-130.72"/>
</a>
</g>
</g>
<!-- Node12&#45;&gt;Node13 -->
<g id="edge13_Node000012_Node000013" class="edge">
<title>Node12&#45;&gt;Node13</title>
<g id="a_edge13_Node000012_Node000013"><a xlink:title=" ">
<path fill="none" stroke="#63b8ff" d="M1256.01,-105.21C1264.51,-102.19 1273.87,-98.4 1282,-94 1297.56,-85.58 1313.55,-73.62 1325.4,-64"/>
<polygon fill="#63b8ff" stroke="#63b8ff" points="1327.77,-66.58 1333.22,-57.5 1323.3,-61.2 1327.77,-66.58"/>
</a>
</g>
</g>
<!-- Node14 -->
<g id="Node000014" class="node">
<title>Node14</title>
<g id="a_Node000014"><a xlink:href="hashmap_8c.html#a5b2c78a0a08d606dfbf21fe636373e6e" target="_top" xlink:title=" ">
<polygon fill="white" stroke="#666666" points="1370.5,-103.5 1319.5,-103.5 1319.5,-84.5 1370.5,-84.5 1370.5,-103.5"/>
<text text-anchor="middle" x="1345" y="-91.5" font-family="Helvetica,sans-Serif" font-size="10.00">special</text>
</a>
</g>
</g>
<!-- Node12&#45;&gt;Node14 -->
<g id="edge14_Node000012_Node000014" class="edge">
<title>Node12&#45;&gt;Node14</title>
<g id="a_edge14_Node000012_Node000014"><a xlink:title=" ">
<path fill="none" stroke="#63b8ff" d="M1256.25,-108.69C1271.85,-106.08 1291.96,-102.71 1308.99,-99.86"/>
<polygon fill="#63b8ff" stroke="#63b8ff" points="1309.84,-103.27 1319.13,-98.16 1308.69,-96.36 1309.84,-103.27"/>
</a>
</g>
</g>
<!-- Node15 -->
<g id="Node000015" class="node">
<title>Node15</title>
<g id="a_Node000015"><a xlink:href="itoa_8c.html#a43f392ec16afbe6cdb1ee6d1f1347f99" target="_top" xlink:title="Convert int to string.">
<polygon fill="white" stroke="#666666" points="1443,-65.5 1408,-65.5 1408,-46.5 1443,-46.5 1443,-65.5"/>
<text text-anchor="middle" x="1425.5" y="-53.5" font-family="Helvetica,sans-Serif" font-size="10.00">itoa</text>
</a>
</g>
</g>
<!-- Node14&#45;&gt;Node15 -->
<g id="edge15_Node000014_Node000015" class="edge">
<title>Node14&#45;&gt;Node15</title>
<g id="a_edge15_Node000014_Node000015"><a xlink:title=" ">
<path fill="none" stroke="#63b8ff" d="M1365.81,-84.41C1375.75,-79.6 1387.93,-73.7 1398.6,-68.54"/>
<polygon fill="#63b8ff" stroke="#63b8ff" points="1400.41,-71.55 1407.88,-64.04 1397.36,-65.25 1400.41,-71.55"/>
</a>
</g>
</g>
<!-- Node19 -->
<g id="Node000019" class="node">
<title>Node19</title>
<g id="a_Node000019"><a xlink:href="expand_8c.html#a66cc7be396f0ef502a888b56eee2f4bf" target="_top" xlink:title=" ">
<polygon fill="white" stroke="#666666" points="1372,-177.5 1318,-177.5 1318,-158.5 1372,-158.5 1372,-177.5"/>
<text text-anchor="middle" x="1345" y="-165.5" font-family="Helvetica,sans-Serif" font-size="10.00">is_word</text>
</a>
</g>
</g>
<!-- Node18&#45;&gt;Node19 -->
<g id="edge19_Node000018_Node000019" class="edge">
<title>Node18&#45;&gt;Node19</title>
<g id="a_edge19_Node000018_Node000019"><a xlink:title=" ">
<path fill="none" stroke="#63b8ff" d="M1282.27,-168C1290.8,-168 1299.49,-168 1307.55,-168"/>
<polygon fill="#63b8ff" stroke="#63b8ff" points="1307.72,-171.5 1317.72,-168 1307.72,-164.5 1307.72,-171.5"/>
</a>
</g>
</g>
<!-- Node23 -->
<g id="Node000023" class="node">
<title>Node23</title>
<g id="a_Node000023"><a xlink:href="redir__exec_8c.html#a5a3ff9da1f0e0d2c0081574a73114b1a" target="_top" xlink:title="Save fd state.">
<polygon fill="white" stroke="#666666" points="335,-149.5 280,-149.5 280,-130.5 335,-130.5 335,-149.5"/>
<text text-anchor="middle" x="307.5" y="-137.5" font-family="Helvetica,sans-Serif" font-size="10.00">fd_save</text>
</a>
</g>
</g>
<!-- Node22&#45;&gt;Node23 -->
<g id="edge26_Node000022_Node000023" class="edge">
<title>Node22&#45;&gt;Node23</title>
<g id="a_edge26_Node000022_Node000023"><a xlink:title=" ">
<path fill="none" stroke="#63b8ff" d="M214.57,-140C231.53,-140 251.98,-140 269.29,-140"/>
<polygon fill="#63b8ff" stroke="#63b8ff" points="269.6,-143.5 279.6,-140 269.6,-136.5 269.6,-143.5"/>
</a>
</g>
</g>
<!-- Node24 -->
<g id="Node000024" class="node">
<title>Node24</title>
<g id="a_Node000024"><a xlink:href="redir__exec_8c.html#a007e10b16e39db1606efa3f9650fc163" target="_top" xlink:title="Handle dup redir.">
<polygon fill="white" stroke="#666666" points="358,-112.5 257,-112.5 257,-93.5 358,-93.5 358,-112.5"/>
<text text-anchor="middle" x="307.5" y="-100.5" font-family="Helvetica,sans-Serif" font-size="10.00">handle_dup_redir</text>
</a>
</g>
</g>
<!-- Node22&#45;&gt;Node24 -->
<g id="edge27_Node000022_Node000024" class="edge">
<title>Node22&#45;&gt;Node24</title>
<g id="a_edge27_Node000022_Node000024"><a xlink:title=" ">
<path fill="none" stroke="#63b8ff" d="M212.58,-130.47C228.1,-125.93 246.87,-120.44 263.53,-115.57"/>
<polygon fill="#63b8ff" stroke="#63b8ff" points="264.98,-118.79 273.59,-112.62 263.01,-112.07 264.98,-118.79"/>
</a>
</g>
</g>
<!-- Node25 -->
<g id="Node000025" class="node">
<title>Node25</title>
<g id="a_Node000025"><a xlink:href="redir__exec_8c.html#abd4469671025c9985273fcde19dc69ae" target="_top" xlink:title="Read io num from string.">
<polygon fill="white" stroke="#666666" points="484.5,-191.5 431.5,-191.5 431.5,-172.5 484.5,-172.5 484.5,-191.5"/>
<text text-anchor="middle" x="458" y="-179.5" font-family="Helvetica,sans-Serif" font-size="10.00">read_io</text>
</a>
</g>
</g>
<!-- Node22&#45;&gt;Node25 -->
<g id="edge30_Node000022_Node000025" class="edge">
<title>Node22&#45;&gt;Node25</title>
<g id="a_edge30_Node000022_Node000025"><a xlink:title=" ">
<path fill="none" stroke="#63b8ff" d="M189.3,-149.89C202.72,-163.38 229.02,-186.9 257,-196 312.38,-214.01 380.81,-202.5 421.57,-192.36"/>
<polygon fill="#63b8ff" stroke="#63b8ff" points="422.51,-195.73 431.31,-189.83 420.75,-188.96 422.51,-195.73"/>
</a>
</g>
</g>
<!-- Node26 -->
<g id="Node000026" class="node">
<title>Node26</title>
<g id="a_Node000026"><a xlink:href="redir__exec_8c.html#a65f8df655786afa907a1f7029bea8088" target="_top" xlink:title="Open file for redir.">
<polygon fill="white" stroke="#666666" points="352,-186.5 263,-186.5 263,-167.5 352,-167.5 352,-186.5"/>
<text text-anchor="middle" x="307.5" y="-174.5" font-family="Helvetica,sans-Serif" font-size="10.00">open_redir_file</text>
</a>
</g>
</g>
<!-- Node22&#45;&gt;Node26 -->
<g id="edge29_Node000022_Node000026" class="edge">
<title>Node22&#45;&gt;Node26</title>
<g id="a_edge29_Node000022_Node000026"><a xlink:title=" ">
<path fill="none" stroke="#63b8ff" d="M212.58,-149.53C228.1,-154.07 246.87,-159.56 263.53,-164.43"/>
<polygon fill="#63b8ff" stroke="#63b8ff" points="263.01,-167.93 273.59,-167.38 264.98,-161.21 263.01,-167.93"/>
</a>
</g>
</g>
<!-- Node24&#45;&gt;Node25 -->
<g id="edge28_Node000024_Node000025" class="edge">
<title>Node24&#45;&gt;Node25</title>
<g id="a_edge28_Node000024_Node000025"><a xlink:title=" ">
<path fill="none" stroke="#63b8ff" d="M336.11,-112.6C343.34,-115.38 351.06,-118.6 358,-122 385.26,-135.36 414.83,-153.85 434.48,-166.76"/>
<polygon fill="#63b8ff" stroke="#63b8ff" points="432.76,-169.81 443.02,-172.43 436.63,-163.98 432.76,-169.81"/>
</a>
</g>
</g>
<!-- Node28&#45;&gt;Node2 -->
<g id="edge33_Node000028_Node000002" class="edge">
<title>Node28&#45;&gt;Node2</title>
<g id="a_edge33_Node000028_Node000002"><a xlink:title=" ">
<path fill="none" stroke="#63b8ff" d="M205.3,-27.6C224.34,-34.83 250.68,-44.82 271.71,-52.8"/>
<polygon fill="#63b8ff" stroke="#63b8ff" points="270.66,-56.14 281.25,-56.42 273.14,-49.6 270.66,-56.14"/>
</a>
</g>
</g>
<!-- Node28&#45;&gt;Node15 -->
<g id="edge34_Node000028_Node000015" class="edge">
<title>Node28&#45;&gt;Node15</title>
<g id="a_edge34_Node000028_Node000015"><a xlink:title=" ">
<path fill="none" stroke="#63b8ff" d="M216.25,-14.14C269.12,-8.85 370.5,0 457,0 457,0 457,0 1230.5,0 1294.7,0 1311.45,-7.68 1372,-29 1381.27,-32.26 1390.96,-36.87 1399.46,-41.36"/>
<polygon fill="#63b8ff" stroke="#63b8ff" points="1398.01,-44.56 1408.46,-46.3 1401.38,-38.42 1398.01,-44.56"/>
</a>
</g>
</g>
</g>
</svg>
