<?xml version="1.0" encoding="UTF-8" standalone="no"?>
<!DOCTYPE svg PUBLIC "-//W3C//DTD SVG 1.1//EN"
 "http://www.w3.org/Graphics/SVG/1.1/DTD/svg11.dtd">
<!-- Generated by graphviz version 2.43.0 (0)
 -->
<!-- Title: is_builtin Pages: 1 -->
<svg width="831pt" height="464pt"
 viewBox="0.00 0.00 831.00 463.50" xmlns="http://www.w3.org/2000/svg" xmlns:xlink="http://www.w3.org/1999/xlink">
<g id="graph0" class="graph" transform="scale(1 1) rotate(0) translate(4 459.5)">
<title>is_builtin</title>
<!-- Node1 -->
<g id="Node000001" class="node">
<title>Node1</title>
<g id="a_Node000001"><a xlink:title="Check if cmd is builtin.">
<polygon fill="#999999" stroke="#666666" points="823,-47.5 762,-47.5 762,-28.5 823,-28.5 823,-47.5"/>
<text text-anchor="middle" x="792.5" y="-35.5" font-family="Helvetica,sans-Serif" font-size="10.00">is_builtin</text>
</a>
</g>
</g>
<!-- Node2 -->
<g id="Node000002" class="node">
<title>Node2</title>
<g id="a_Node000002"><a xlink:href="exec_8c.html#ae65edaa99b26b49d60c451157d38b34a" target="_top" xlink:title="Execute les commandes avec les args donnes.">
<polygon fill="white" stroke="#666666" points="726,-47.5 661,-47.5 661,-28.5 726,-28.5 726,-47.5"/>
<text text-anchor="middle" x="693.5" y="-35.5" font-family="Helvetica,sans-Serif" font-size="10.00">exec_cmd</text>
</a>
</g>
</g>
<!-- Node1&#45;&gt;Node2 -->
<g id="edge1_Node000001_Node000002" class="edge">
<title>Node1&#45;&gt;Node2</title>
<g id="a_edge1_Node000001_Node000002"><a xlink:title=" ">
<path fill="none" stroke="#63b8ff" d="M751.78,-38C743.3,-38 734.45,-38 726.31,-38"/>
<polygon fill="#63b8ff" stroke="#63b8ff" points="751.87,-41.5 761.87,-38 751.87,-34.5 751.87,-41.5"/>
</a>
</g>
</g>
<!-- Node3 -->
<g id="Node000003" class="node">
<title>Node3</title>
<g id="a_Node000003"><a xlink:href="ast__run_8c.html#aeb6878a59c6907e5669fc3cc428913d9" target="_top" xlink:title=" ">
<polygon fill="white" stroke="#666666" points="625,-187.5 546,-187.5 546,-168.5 625,-168.5 625,-187.5"/>
<text text-anchor="middle" x="585.5" y="-175.5" font-family="Helvetica,sans-Serif" font-size="10.00">ast_run_cmd</text>
</a>
</g>
</g>
<!-- Node2&#45;&gt;Node3 -->
<g id="edge2_Node000002_Node000003" class="edge">
<title>Node2&#45;&gt;Node3</title>
<g id="a_edge2_Node000002_Node000003"><a xlink:title=" ">
<path fill="none" stroke="#63b8ff" d="M678.95,-55.9C656.28,-85.84 611.44,-145.06 593.84,-168.31"/>
<polygon fill="#63b8ff" stroke="#63b8ff" points="681.97,-57.71 685.21,-47.62 676.39,-53.48 681.97,-57.71"/>
</a>
</g>
</g>
<!-- Node4 -->
<g id="Node000004" class="node">
<title>Node4</title>
<g id="a_Node000004"><a xlink:href="ast_8c.html#a572345b2707780bbbc5bbaacdca9c372" target="_top" xlink:title=" ">
<polygon fill="white" stroke="#666666" points="510,-289.5 457,-289.5 457,-270.5 510,-270.5 510,-289.5"/>
<text text-anchor="middle" x="483.5" y="-277.5" font-family="Helvetica,sans-Serif" font-size="10.00">run_ast</text>
</a>
</g>
</g>
<!-- Node3&#45;&gt;Node4 -->
<g id="edge3_Node000003_Node000004" class="edge">
<title>Node3&#45;&gt;Node4</title>
<g id="a_edge3_Node000003_Node000004"><a xlink:title=" ">
<path fill="none" stroke="#63b8ff" d="M567.84,-195C546.67,-216.59 510.85,-253.12 493.91,-270.4"/>
<polygon fill="#63b8ff" stroke="#63b8ff" points="570.41,-197.37 574.91,-187.78 565.41,-192.47 570.41,-197.37"/>
</a>
</g>
</g>
<!-- Node5 -->
<g id="Node000005" class="node">
<title>Node5</title>
<g id="a_Node000005"><a xlink:href="ast__run_8c.html#a8a01fec616135007fc5b3968a101901b" target="_top" xlink:title=" ">
<polygon fill="white" stroke="#666666" points="412,-455.5 321,-455.5 321,-436.5 412,-436.5 412,-455.5"/>
<text text-anchor="middle" x="366.5" y="-443.5" font-family="Helvetica,sans-Serif" font-size="10.00">ast_run_and_or</text>
</a>
</g>
</g>
<!-- Node4&#45;&gt;Node5 -->
<g id="edge4_Node000004_Node000005" class="edge">
<title>Node4&#45;&gt;Node5</title>
<g id="a_edge4_Node000004_Node000005"><a xlink:title=" ">
<path fill="none" stroke="#63b8ff" d="M478.39,-300.05C471.89,-330.18 456.18,-386.18 421,-419 410.97,-428.36 395.91,-432.87 384.32,-436.5"/>
<polygon fill="#63b8ff" stroke="#63b8ff" points="481.89,-300.37 480.45,-289.88 475.03,-298.98 481.89,-300.37"/>
</a>
</g>
</g>
<!-- Node6 -->
<g id="Node000006" class="node">
<title>Node6</title>
<g id="a_Node000006"><a xlink:href="ast__run_8c.html#a9d83d4834a61ffe21eb77838d70ae173" target="_top" xlink:title=" ">
<polygon fill="white" stroke="#666666" points="402,-418.5 331,-418.5 331,-399.5 402,-399.5 402,-418.5"/>
<text text-anchor="middle" x="366.5" y="-406.5" font-family="Helvetica,sans-Serif" font-size="10.00">ast_run_for</text>
</a>
</g>
</g>
<!-- Node4&#45;&gt;Node6 -->
<g id="edge6_Node000004_Node000006" class="edge">
<title>Node4&#45;&gt;Node6</title>
<g id="a_edge6_Node000004_Node000006"><a xlink:title=" ">
<path fill="none" stroke="#63b8ff" d="M474.39,-298.99C465.24,-321.92 448.01,-359.5 421,-382 410.16,-391.03 394.59,-395.6 383.04,-399.47"/>
<polygon fill="#63b8ff" stroke="#63b8ff" points="477.68,-300.17 478.03,-289.59 471.16,-297.65 477.68,-300.17"/>
</a>
</g>
</g>
<!-- Node7 -->
<g id="Node000007" class="node">
<title>Node7</title>
<g id="a_Node000007"><a xlink:href="ast__run_8c.html#a0a7138b1f2608ea36211c9b78988c248" target="_top" xlink:title=" ">
<polygon fill="white" stroke="#666666" points="399,-381.5 334,-381.5 334,-362.5 399,-362.5 399,-381.5"/>
<text text-anchor="middle" x="366.5" y="-369.5" font-family="Helvetica,sans-Serif" font-size="10.00">ast_run_if</text>
</a>
</g>
</g>
<!-- Node4&#45;&gt;Node7 -->
<g id="edge8_Node000004_Node000007" class="edge">
<title>Node4&#45;&gt;Node7</title>
<g id="a_edge8_Node000004_Node000007"><a xlink:title=" ">
<path fill="none" stroke="#63b8ff" d="M466.53,-298.02C455.48,-312.62 439.48,-332.33 421,-345 408.88,-353.31 392.59,-358.06 381.19,-362.38"/>
<polygon fill="#63b8ff" stroke="#63b8ff" points="469.56,-299.8 472.74,-289.7 463.95,-295.61 469.56,-299.8"/>
</a>
</g>
</g>
<!-- Node8 -->
<g id="Node000008" class="node">
<title>Node8</title>
<g id="a_Node000008"><a xlink:href="ast__run_8c.html#ae25cd3ced8abafd76110dba8852a6b87" target="_top" xlink:title=" ">
<polygon fill="white" stroke="#666666" points="403,-326.5 330,-326.5 330,-307.5 403,-307.5 403,-326.5"/>
<text text-anchor="middle" x="366.5" y="-314.5" font-family="Helvetica,sans-Serif" font-size="10.00">ast_run_list</text>
</a>
</g>
</g>
<!-- Node4&#45;&gt;Node8 -->
<g id="edge10_Node000004_Node000008" class="edge">
<title>Node4&#45;&gt;Node8</title>
<g id="a_edge10_Node000004_Node000008"><a xlink:title=" ">
<path fill="none" stroke="#63b8ff" d="M447.09,-285.11C425.37,-291.14 398.69,-300.25 382.4,-307.49"/>
<polygon fill="#63b8ff" stroke="#63b8ff" points="448.21,-288.43 456.98,-282.49 446.42,-281.66 448.21,-288.43"/>
</a>
</g>
</g>
<!-- Node9 -->
<g id="Node000009" class="node">
<title>Node9</title>
<g id="a_Node000009"><a xlink:href="ast__run_8c.html#a536f37ba9bffcd2099fef668656181e0" target="_top" xlink:title=" ">
<polygon fill="white" stroke="#666666" points="406,-289.5 327,-289.5 327,-270.5 406,-270.5 406,-289.5"/>
<text text-anchor="middle" x="366.5" y="-277.5" font-family="Helvetica,sans-Serif" font-size="10.00">ast_run_loop</text>
</a>
</g>
</g>
<!-- Node4&#45;&gt;Node9 -->
<g id="edge13_Node000004_Node000009" class="edge">
<title>Node4&#45;&gt;Node9</title>
<g id="a_edge13_Node000004_Node000009"><a xlink:title=" ">
<path fill="none" stroke="#63b8ff" d="M446.63,-273.69C433.74,-273.14 419.17,-273.1 406.07,-273.59"/>
<polygon fill="#63b8ff" stroke="#63b8ff" points="446.8,-277.21 456.98,-274.28 447.19,-270.22 446.8,-277.21"/>
</a>
</g>
</g>
<!-- Node10 -->
<g id="Node000010" class="node">
<title>Node10</title>
<g id="a_Node000010"><a xlink:href="ast__run_8c.html#aa3e6a973e744d748ee415840596beb53" target="_top" xlink:title=" ">
<polygon fill="white" stroke="#666666" points="421,-252.5 312,-252.5 312,-233.5 421,-233.5 421,-252.5"/>
<text text-anchor="middle" x="366.5" y="-240.5" font-family="Helvetica,sans-Serif" font-size="10.00">ast_run_shell_redir</text>
</a>
</g>
</g>
<!-- Node4&#45;&gt;Node10 -->
<g id="edge15_Node000004_Node000010" class="edge">
<title>Node4&#45;&gt;Node10</title>
<g id="a_edge15_Node000004_Node000010"><a xlink:title=" ">
<path fill="none" stroke="#63b8ff" d="M457.99,-266.47C446.3,-261.82 431.86,-256.82 417.98,-252.54"/>
<polygon fill="#63b8ff" stroke="#63b8ff" points="456.89,-269.8 467.47,-270.43 459.59,-263.34 456.89,-269.8"/>
</a>
</g>
</g>
<!-- Node11 -->
<g id="Node000011" class="node">
<title>Node11</title>
<g id="a_Node000011"><a xlink:href="exec_8c.html#a23babf893bbcd2f6126698a1a19b169f" target="_top" xlink:title="Execute funct with given arguments.">
<polygon fill="white" stroke="#666666" points="399,-47.5 334,-47.5 334,-28.5 399,-28.5 399,-47.5"/>
<text text-anchor="middle" x="366.5" y="-35.5" font-family="Helvetica,sans-Serif" font-size="10.00">exec_func</text>
</a>
</g>
</g>
<!-- Node4&#45;&gt;Node11 -->
<g id="edge17_Node000004_Node000011" class="edge">
<title>Node4&#45;&gt;Node11</title>
<g id="a_edge17_Node000004_Node000011"><a xlink:title=" ">
<path fill="none" stroke="#63b8ff" d="M482.81,-260.31C482.39,-217.58 475.38,-115.45 421,-57 415.16,-50.72 407.11,-46.52 399.03,-43.7"/>
<polygon fill="#63b8ff" stroke="#63b8ff" points="479.31,-260.49 482.79,-270.49 486.31,-260.5 479.31,-260.49"/>
</a>
</g>
</g>
<!-- Node12 -->
<g id="Node000012" class="node">
<title>Node12</title>
<g id="a_Node000012"><a xlink:href="exec_8c.html#ab743cb88e12e9b922050925fd2075e36" target="_top" xlink:title="Execute a pipeline of commands.">
<polygon fill="white" stroke="#666666" points="399,-197.5 334,-197.5 334,-178.5 399,-178.5 399,-197.5"/>
<text text-anchor="middle" x="366.5" y="-185.5" font-family="Helvetica,sans-Serif" font-size="10.00">exec_pipe</text>
</a>
</g>
</g>
<!-- Node4&#45;&gt;Node12 -->
<g id="edge19_Node000004_Node000012" class="edge">
<title>Node4&#45;&gt;Node12</title>
<g id="a_edge19_Node000004_Node000012"><a xlink:title=" ">
<path fill="none" stroke="#63b8ff" d="M464.85,-263.15C452.82,-251.93 436.36,-237.1 421,-225 408.4,-215.07 393.32,-204.78 382.39,-197.57"/>
<polygon fill="#63b8ff" stroke="#63b8ff" points="462.71,-265.94 472.4,-270.25 467.51,-260.85 462.71,-265.94"/>
</a>
</g>
</g>
<!-- Node14 -->
<g id="Node000014" class="node">
<title>Node14</title>
<g id="a_Node000014"><a xlink:href="42sh_8c.html#a3c04138a5bfe5d72780bb7e82a18e627" target="_top" xlink:title=" ">
<polygon fill="white" stroke="#666666" points="387,-160.5 346,-160.5 346,-141.5 387,-141.5 387,-160.5"/>
<text text-anchor="middle" x="366.5" y="-148.5" font-family="Helvetica,sans-Serif" font-size="10.00">main</text>
</a>
</g>
</g>
<!-- Node4&#45;&gt;Node14 -->
<g id="edge23_Node000004_Node000014" class="edge">
<title>Node4&#45;&gt;Node14</title>
<g id="a_edge23_Node000004_Node000014"><a xlink:title=" ">
<path fill="none" stroke="#63b8ff" d="M476.47,-260.66C467.91,-236.24 449.98,-194.47 421,-170 411.36,-161.86 397.98,-157.11 387.02,-154.4"/>
<polygon fill="#63b8ff" stroke="#63b8ff" points="473.18,-261.86 479.66,-270.25 479.82,-259.65 473.18,-261.86"/>
</a>
</g>
</g>
<!-- Node15 -->
<g id="Node000015" class="node">
<title>Node15</title>
<g id="a_Node000015"><a xlink:href="dot_8c.html#a17477ee2b0f1b8b9306566c990d15b35" target="_top" xlink:title="Main loop of dot builtin.">
<polygon fill="white" stroke="#666666" points="400.5,-84.5 332.5,-84.5 332.5,-65.5 400.5,-65.5 400.5,-84.5"/>
<text text-anchor="middle" x="366.5" y="-72.5" font-family="Helvetica,sans-Serif" font-size="10.00">main_loop</text>
</a>
</g>
</g>
<!-- Node4&#45;&gt;Node15 -->
<g id="edge24_Node000004_Node000015" class="edge">
<title>Node4&#45;&gt;Node15</title>
<g id="a_edge24_Node000004_Node000015"><a xlink:title=" ">
<path fill="none" stroke="#63b8ff" d="M480.89,-260.16C476.94,-223.8 463.73,-145.96 421,-99 415.31,-92.75 407.69,-88.03 399.98,-84.51"/>
<polygon fill="#63b8ff" stroke="#63b8ff" points="477.43,-260.79 481.87,-270.41 484.4,-260.12 477.43,-260.79"/>
</a>
</g>
</g>
<!-- Node5&#45;&gt;Node4 -->
<g id="edge5_Node000005_Node000004" class="edge">
<title>Node5&#45;&gt;Node4</title>
<g id="a_edge5_Node000005_Node000004"><a xlink:title=" ">
<path fill="none" stroke="#63b8ff" d="M420.5,-437.46C420.67,-437.31 420.83,-437.15 421,-437 465.35,-395.62 478.76,-317.39 481.77,-289.52"/>
<polygon fill="#63b8ff" stroke="#63b8ff" points="418.25,-434.76 412.15,-443.42 422.32,-440.46 418.25,-434.76"/>
</a>
</g>
</g>
<!-- Node6&#45;&gt;Node4 -->
<g id="edge7_Node000006_Node000004" class="edge">
<title>Node6&#45;&gt;Node4</title>
<g id="a_edge7_Node000006_Node000004"><a xlink:title=" ">
<path fill="none" stroke="#63b8ff" d="M411.38,-406.34C414.82,-404.54 418.08,-402.43 421,-400 457.05,-369.96 475.69,-313.07 480.93,-289.62"/>
<polygon fill="#63b8ff" stroke="#63b8ff" points="409.81,-403.2 402,-410.37 412.57,-409.63 409.81,-403.2"/>
</a>
</g>
</g>
<!-- Node7&#45;&gt;Node4 -->
<g id="edge9_Node000007_Node000004" class="edge">
<title>Node7&#45;&gt;Node4</title>
<g id="a_edge9_Node000007_Node000004"><a xlink:title=" ">
<path fill="none" stroke="#63b8ff" d="M408.7,-369.73C413.02,-367.84 417.21,-365.59 421,-363 449.24,-343.64 471.69,-307.83 479.51,-289.71"/>
<polygon fill="#63b8ff" stroke="#63b8ff" points="407.3,-366.52 399.14,-373.27 409.74,-373.08 407.3,-366.52"/>
</a>
</g>
</g>
<!-- Node8&#45;&gt;Node4 -->
<g id="edge12_Node000008_Node000004" class="edge">
<title>Node8&#45;&gt;Node4</title>
<g id="a_edge12_Node000008_Node000004"><a xlink:title=" ">
<path fill="none" stroke="#63b8ff" d="M412.95,-308.99C432.33,-303.19 453.61,-295.72 467.47,-289.57"/>
<polygon fill="#63b8ff" stroke="#63b8ff" points="411.97,-305.63 403.34,-311.77 413.92,-312.36 411.97,-305.63"/>
</a>
</g>
</g>
<!-- Node8&#45;&gt;Node8 -->
<g id="edge11_Node000008_Node000008" class="edge">
<title>Node8&#45;&gt;Node8</title>
<g id="a_edge11_Node000008_Node000008"><a xlink:title=" ">
<path fill="none" stroke="#63b8ff" d="M387.98,-336.05C386.55,-340.88 379.39,-344.5 366.5,-344.5 345.88,-344.5 339.92,-335.23 348.62,-326.58"/>
<polygon fill="#63b8ff" stroke="#63b8ff" points="391.2,-334.69 384.38,-326.58 384.66,-337.17 391.2,-334.69"/>
</a>
</g>
</g>
<!-- Node9&#45;&gt;Node4 -->
<g id="edge14_Node000009_Node000004" class="edge">
<title>Node9&#45;&gt;Node4</title>
<g id="a_edge14_Node000009_Node000004"><a xlink:title=" ">
<path fill="none" stroke="#63b8ff" d="M416.12,-286.68C430.17,-286.91 444.94,-286.59 456.98,-285.72"/>
<polygon fill="#63b8ff" stroke="#63b8ff" points="416.16,-283.18 406.07,-286.41 415.97,-290.18 416.16,-283.18"/>
</a>
</g>
</g>
<!-- Node10&#45;&gt;Node4 -->
<g id="edge16_Node000010_Node000004" class="edge">
<title>Node10&#45;&gt;Node4</title>
<g id="a_edge16_Node000010_Node000004"><a xlink:title=" ">
<path fill="none" stroke="#63b8ff" d="M391.64,-256.39C410.79,-264.02 437.48,-272.64 456.98,-277.51"/>
<polygon fill="#63b8ff" stroke="#63b8ff" points="392.97,-253.15 382.4,-252.51 390.27,-259.6 392.97,-253.15"/>
</a>
</g>
</g>
<!-- Node11&#45;&gt;Node2 -->
<g id="edge18_Node000011_Node000002" class="edge">
<title>Node11&#45;&gt;Node2</title>
<g id="a_edge18_Node000011_Node000002"><a xlink:title=" ">
<path fill="none" stroke="#63b8ff" d="M409.42,-38C475.34,-38 601.77,-38 660.75,-38"/>
<polygon fill="#63b8ff" stroke="#63b8ff" points="409.38,-34.5 399.38,-38 409.38,-41.5 409.38,-34.5"/>
</a>
</g>
</g>
<!-- Node12&#45;&gt;Node12 -->
<g id="edge22_Node000012_Node000012" class="edge">
<title>Node12&#45;&gt;Node12</title>
<g id="a_edge22_Node000012_Node000012"><a xlink:title=" ">
<path fill="none" stroke="#63b8ff" d="M387.98,-207.05C386.55,-211.88 379.39,-215.5 366.5,-215.5 345.88,-215.5 339.92,-206.23 348.62,-197.58"/>
<polygon fill="#63b8ff" stroke="#63b8ff" points="391.2,-205.69 384.38,-197.58 384.66,-208.17 391.2,-205.69"/>
</a>
</g>
</g>
<!-- Node13 -->
<g id="Node000013" class="node">
<title>Node13</title>
<g id="a_Node000013"><a xlink:href="ast__run_8c.html#a24d0223822f7b635628199085c3283be" target="_top" xlink:title=" ">
<polygon fill="white" stroke="#666666" points="276,-159.5 197,-159.5 197,-140.5 276,-140.5 276,-159.5"/>
<text text-anchor="middle" x="236.5" y="-147.5" font-family="Helvetica,sans-Serif" font-size="10.00">ast_run_pipe</text>
</a>
</g>
</g>
<!-- Node12&#45;&gt;Node13 -->
<g id="edge20_Node000012_Node000013" class="edge">
<title>Node12&#45;&gt;Node13</title>
<g id="a_edge20_Node000012_Node000013"><a xlink:title=" ">
<path fill="none" stroke="#63b8ff" d="M323.85,-175.63C306.25,-170.41 286.08,-164.42 269.67,-159.55"/>
<polygon fill="#63b8ff" stroke="#63b8ff" points="323.28,-179.12 333.86,-178.61 325.27,-172.41 323.28,-179.12"/>
</a>
</g>
</g>
<!-- Node13&#45;&gt;Node4 -->
<g id="edge21_Node000013_Node000004" class="edge">
<title>Node13&#45;&gt;Node4</title>
<g id="a_edge21_Node000013_Node000004"><a xlink:title=" ">
<path fill="none" stroke="#63b8ff" d="M267.38,-136.5C306.22,-121.18 374.55,-102.08 421,-133 469.13,-165.04 479.66,-242.74 481.91,-270.19"/>
<polygon fill="#63b8ff" stroke="#63b8ff" points="265.63,-133.44 257.71,-140.48 268.29,-139.91 265.63,-133.44"/>
</a>
</g>
</g>
<!-- Node16 -->
<g id="Node000016" class="node">
<title>Node16</title>
<g id="a_Node000016"><a xlink:href="dot_8c.html#a713938d3c6ee343132c429642048bcf6" target="_top" xlink:title="Execute the dot builtin cmd.">
<polygon fill="white" stroke="#666666" points="258.5,-75.5 214.5,-75.5 214.5,-56.5 258.5,-56.5 258.5,-75.5"/>
<text text-anchor="middle" x="236.5" y="-63.5" font-family="Helvetica,sans-Serif" font-size="10.00">dot_b</text>
</a>
</g>
</g>
<!-- Node15&#45;&gt;Node16 -->
<g id="edge25_Node000015_Node000016" class="edge">
<title>Node15&#45;&gt;Node16</title>
<g id="a_edge25_Node000015_Node000016"><a xlink:title=" ">
<path fill="none" stroke="#63b8ff" d="M322.02,-71.94C300.61,-70.44 275.78,-68.69 258.6,-67.48"/>
<polygon fill="#63b8ff" stroke="#63b8ff" points="321.98,-75.45 332.2,-72.66 322.47,-68.47 321.98,-75.45"/>
</a>
</g>
</g>
<!-- Node17 -->
<g id="Node000017" class="node">
<title>Node17</title>
<g id="a_Node000017"><a xlink:href="exec_8c.html#abaeb177587c7eec6a064b35bb8399cae" target="_top" xlink:title="Execute builtin cmd with given args.">
<polygon fill="white" stroke="#666666" points="161,-65.5 86,-65.5 86,-46.5 161,-46.5 161,-65.5"/>
<text text-anchor="middle" x="123.5" y="-53.5" font-family="Helvetica,sans-Serif" font-size="10.00">exec_builtin</text>
</a>
</g>
</g>
<!-- Node16&#45;&gt;Node17 -->
<g id="edge26_Node000016_Node000017" class="edge">
<title>Node16&#45;&gt;Node17</title>
<g id="a_edge26_Node000016_Node000017"><a xlink:title=" ">
<path fill="none" stroke="#63b8ff" d="M204.23,-63.18C190.88,-61.98 175.2,-60.57 161.3,-59.32"/>
<polygon fill="#63b8ff" stroke="#63b8ff" points="204.09,-66.68 214.36,-64.1 204.71,-59.71 204.09,-66.68"/>
</a>
</g>
</g>
<!-- Node18 -->
<g id="Node000018" class="node">
<title>Node18</title>
<g id="a_Node000018"><a xlink:href="exec_8c.html#a287d81b4658832f192750310e2925917" target="_top" xlink:title="Execute the builtin command with given args.">
<polygon fill="white" stroke="#666666" points="50,-28.5 0,-28.5 0,-9.5 50,-9.5 50,-28.5"/>
<text text-anchor="middle" x="25" y="-16.5" font-family="Helvetica,sans-Serif" font-size="10.00">exec_b</text>
</a>
</g>
</g>
<!-- Node17&#45;&gt;Node18 -->
<g id="edge27_Node000017_Node000018" class="edge">
<title>Node17&#45;&gt;Node18</title>
<g id="a_edge27_Node000017_Node000018"><a xlink:title=" ">
<path fill="none" stroke="#63b8ff" d="M87.96,-42.76C75.42,-37.95 61.54,-32.63 50.1,-28.24"/>
<polygon fill="#63b8ff" stroke="#63b8ff" points="87.06,-46.16 97.65,-46.47 89.56,-39.62 87.06,-46.16"/>
</a>
</g>
</g>
<!-- Node18&#45;&gt;Node2 -->
<g id="edge28_Node000018_Node000002" class="edge">
<title>Node18&#45;&gt;Node2</title>
<g id="a_edge28_Node000018_Node000002"><a xlink:title=" ">
<path fill="none" stroke="#63b8ff" d="M60.22,-13.98C101.63,-8.35 173.51,0 235.5,0 484.5,0 484.5,0 484.5,0 547.82,0 620.25,-17.25 660.76,-28.51"/>
<polygon fill="#63b8ff" stroke="#63b8ff" points="59.55,-10.54 50.13,-15.38 60.52,-17.47 59.55,-10.54"/>
</a>
</g>
</g>
</g>
</svg>
