<?xml version="1.0" encoding="UTF-8" standalone="no"?>
<!DOCTYPE svg PUBLIC "-//W3C//DTD SVG 1.1//EN"
 "http://www.w3.org/Graphics/SVG/1.1/DTD/svg11.dtd">
<!-- Generated by graphviz version 2.43.0 (0)
 -->
<!-- Title: update_exit Pages: 1 -->
<svg width="981pt" height="502pt"
 viewBox="0.00 0.00 981.00 501.50" xmlns="http://www.w3.org/2000/svg" xmlns:xlink="http://www.w3.org/1999/xlink">
<g id="graph0" class="graph" transform="scale(1 1) rotate(0) translate(4 497.5)">
<title>update_exit</title>
<!-- Node1 -->
<g id="Node000001" class="node">
<title>Node1</title>
<g id="a_Node000001"><a xlink:title="Update special var &quot;?&quot; with given status.">
<polygon fill="#999999" stroke="#666666" points="973,-47.5 899,-47.5 899,-28.5 973,-28.5 973,-47.5"/>
<text text-anchor="middle" x="936" y="-35.5" font-family="Helvetica,sans-Serif" font-size="10.00">update_exit</text>
</a>
</g>
</g>
<!-- Node2 -->
<g id="Node000002" class="node">
<title>Node2</title>
<g id="a_Node000002"><a xlink:href="exec_8c.html#a9707f3708c634be49a10356313da4d30" target="_top" xlink:title="Execute the command with given arguments.">
<polygon fill="white" stroke="#666666" points="832,-84.5 793,-84.5 793,-65.5 832,-65.5 832,-84.5"/>
<text text-anchor="middle" x="812.5" y="-72.5" font-family="Helvetica,sans-Serif" font-size="10.00">exec</text>
</a>
</g>
</g>
<!-- Node1&#45;&gt;Node2 -->
<g id="edge1_Node000001_Node000002" class="edge">
<title>Node1&#45;&gt;Node2</title>
<g id="a_edge1_Node000001_Node000002"><a xlink:title=" ">
<path fill="none" stroke="#63b8ff" d="M894.07,-50.47C873.11,-56.85 848.62,-64.3 832.2,-69.31"/>
<polygon fill="#63b8ff" stroke="#63b8ff" points="895.16,-53.79 903.71,-47.53 893.12,-47.09 895.16,-53.79"/>
</a>
</g>
</g>
<!-- Node19 -->
<g id="Node000019" class="node">
<title>Node19</title>
<g id="a_Node000019"><a xlink:href="exec_8c.html#a287d81b4658832f192750310e2925917" target="_top" xlink:title="Execute the builtin command with given args.">
<polygon fill="white" stroke="#666666" points="50,-47.5 0,-47.5 0,-28.5 50,-28.5 50,-47.5"/>
<text text-anchor="middle" x="25" y="-35.5" font-family="Helvetica,sans-Serif" font-size="10.00">exec_b</text>
</a>
</g>
</g>
<!-- Node1&#45;&gt;Node19 -->
<g id="edge32_Node000001_Node000019" class="edge">
<title>Node1&#45;&gt;Node19</title>
<g id="a_edge32_Node000001_Node000019"><a xlink:title=" ">
<path fill="none" stroke="#63b8ff" d="M893.05,-25.83C883.25,-23.29 872.81,-20.84 863,-19 788.92,-5.13 769.86,0 694.5,0 694.5,0 694.5,0 235.5,0 167.48,0 89.01,-19.63 50.25,-30.67"/>
<polygon fill="#63b8ff" stroke="#63b8ff" points="892.41,-29.28 902.97,-28.48 894.21,-22.52 892.41,-29.28"/>
</a>
</g>
</g>
<!-- Node20 -->
<g id="Node000020" class="node">
<title>Node20</title>
<g id="a_Node000020"><a xlink:href="exec_8c.html#a60ea263265f67ff588c7de955c83bcec" target="_top" xlink:title="Exec assignments in cmd.">
<polygon fill="white" stroke="#666666" points="863,-47.5 762,-47.5 762,-28.5 863,-28.5 863,-47.5"/>
<text text-anchor="middle" x="812.5" y="-35.5" font-family="Helvetica,sans-Serif" font-size="10.00">exec_assignment</text>
</a>
</g>
</g>
<!-- Node1&#45;&gt;Node20 -->
<g id="edge30_Node000001_Node000020" class="edge">
<title>Node1&#45;&gt;Node20</title>
<g id="a_edge30_Node000001_Node000020"><a xlink:title=" ">
<path fill="none" stroke="#63b8ff" d="M888.6,-38C880.29,-38 871.6,-38 863.2,-38"/>
<polygon fill="#63b8ff" stroke="#63b8ff" points="888.87,-41.5 898.87,-38 888.87,-34.5 888.87,-41.5"/>
</a>
</g>
</g>
<!-- Node3 -->
<g id="Node000003" class="node">
<title>Node3</title>
<g id="a_Node000003"><a xlink:href="exec_8c.html#ae65edaa99b26b49d60c451157d38b34a" target="_top" xlink:title="Execute les commandes avec les args donnes.">
<polygon fill="white" stroke="#666666" points="726,-84.5 661,-84.5 661,-65.5 726,-65.5 726,-84.5"/>
<text text-anchor="middle" x="693.5" y="-72.5" font-family="Helvetica,sans-Serif" font-size="10.00">exec_cmd</text>
</a>
</g>
</g>
<!-- Node2&#45;&gt;Node3 -->
<g id="edge2_Node000002_Node000003" class="edge">
<title>Node2&#45;&gt;Node3</title>
<g id="a_edge2_Node000002_Node000003"><a xlink:title=" ">
<path fill="none" stroke="#63b8ff" d="M782.96,-75C765.78,-75 743.88,-75 726.18,-75"/>
<polygon fill="#63b8ff" stroke="#63b8ff" points="782.96,-78.5 792.96,-75 782.96,-71.5 782.96,-78.5"/>
</a>
</g>
</g>
<!-- Node4 -->
<g id="Node000004" class="node">
<title>Node4</title>
<g id="a_Node000004"><a xlink:href="ast__run_8c.html#aeb6878a59c6907e5669fc3cc428913d9" target="_top" xlink:title=" ">
<polygon fill="white" stroke="#666666" points="625,-225.5 546,-225.5 546,-206.5 625,-206.5 625,-225.5"/>
<text text-anchor="middle" x="585.5" y="-213.5" font-family="Helvetica,sans-Serif" font-size="10.00">ast_run_cmd</text>
</a>
</g>
</g>
<!-- Node3&#45;&gt;Node4 -->
<g id="edge3_Node000003_Node000004" class="edge">
<title>Node3&#45;&gt;Node4</title>
<g id="a_edge3_Node000003_Node000004"><a xlink:title=" ">
<path fill="none" stroke="#63b8ff" d="M678.95,-93.03C656.28,-123.18 611.44,-182.83 593.84,-206.24"/>
<polygon fill="#63b8ff" stroke="#63b8ff" points="682,-94.79 685.21,-84.69 676.41,-90.58 682,-94.79"/>
</a>
</g>
</g>
<!-- Node5 -->
<g id="Node000005" class="node">
<title>Node5</title>
<g id="a_Node000005"><a xlink:href="ast_8c.html#a572345b2707780bbbc5bbaacdca9c372" target="_top" xlink:title=" ">
<polygon fill="white" stroke="#666666" points="510,-327.5 457,-327.5 457,-308.5 510,-308.5 510,-327.5"/>
<text text-anchor="middle" x="483.5" y="-315.5" font-family="Helvetica,sans-Serif" font-size="10.00">run_ast</text>
</a>
</g>
</g>
<!-- Node4&#45;&gt;Node5 -->
<g id="edge4_Node000004_Node000005" class="edge">
<title>Node4&#45;&gt;Node5</title>
<g id="a_edge4_Node000004_Node000005"><a xlink:title=" ">
<path fill="none" stroke="#63b8ff" d="M567.84,-233C546.67,-254.59 510.85,-291.12 493.91,-308.4"/>
<polygon fill="#63b8ff" stroke="#63b8ff" points="570.41,-235.37 574.91,-225.78 565.41,-230.47 570.41,-235.37"/>
</a>
</g>
</g>
<!-- Node6 -->
<g id="Node000006" class="node">
<title>Node6</title>
<g id="a_Node000006"><a xlink:href="ast__run_8c.html#a8a01fec616135007fc5b3968a101901b" target="_top" xlink:title=" ">
<polygon fill="white" stroke="#666666" points="412,-493.5 321,-493.5 321,-474.5 412,-474.5 412,-493.5"/>
<text text-anchor="middle" x="366.5" y="-481.5" font-family="Helvetica,sans-Serif" font-size="10.00">ast_run_and_or</text>
</a>
</g>
</g>
<!-- Node5&#45;&gt;Node6 -->
<g id="edge5_Node000005_Node000006" class="edge">
<title>Node5&#45;&gt;Node6</title>
<g id="a_edge5_Node000005_Node000006"><a xlink:title=" ">
<path fill="none" stroke="#63b8ff" d="M478.39,-338.05C471.89,-368.18 456.18,-424.18 421,-457 410.97,-466.36 395.91,-470.87 384.32,-474.5"/>
<polygon fill="#63b8ff" stroke="#63b8ff" points="481.89,-338.37 480.45,-327.88 475.03,-336.98 481.89,-338.37"/>
</a>
</g>
</g>
<!-- Node7 -->
<g id="Node000007" class="node">
<title>Node7</title>
<g id="a_Node000007"><a xlink:href="ast__run_8c.html#a9d83d4834a61ffe21eb77838d70ae173" target="_top" xlink:title=" ">
<polygon fill="white" stroke="#666666" points="402,-456.5 331,-456.5 331,-437.5 402,-437.5 402,-456.5"/>
<text text-anchor="middle" x="366.5" y="-444.5" font-family="Helvetica,sans-Serif" font-size="10.00">ast_run_for</text>
</a>
</g>
</g>
<!-- Node5&#45;&gt;Node7 -->
<g id="edge7_Node000005_Node000007" class="edge">
<title>Node5&#45;&gt;Node7</title>
<g id="a_edge7_Node000005_Node000007"><a xlink:title=" ">
<path fill="none" stroke="#63b8ff" d="M474.39,-336.99C465.24,-359.92 448.01,-397.5 421,-420 410.16,-429.03 394.59,-433.6 383.04,-437.47"/>
<polygon fill="#63b8ff" stroke="#63b8ff" points="477.68,-338.17 478.03,-327.59 471.16,-335.65 477.68,-338.17"/>
</a>
</g>
</g>
<!-- Node8 -->
<g id="Node000008" class="node">
<title>Node8</title>
<g id="a_Node000008"><a xlink:href="ast__run_8c.html#a0a7138b1f2608ea36211c9b78988c248" target="_top" xlink:title=" ">
<polygon fill="white" stroke="#666666" points="399,-419.5 334,-419.5 334,-400.5 399,-400.5 399,-419.5"/>
<text text-anchor="middle" x="366.5" y="-407.5" font-family="Helvetica,sans-Serif" font-size="10.00">ast_run_if</text>
</a>
</g>
</g>
<!-- Node5&#45;&gt;Node8 -->
<g id="edge9_Node000005_Node000008" class="edge">
<title>Node5&#45;&gt;Node8</title>
<g id="a_edge9_Node000005_Node000008"><a xlink:title=" ">
<path fill="none" stroke="#63b8ff" d="M466.53,-336.02C455.48,-350.62 439.48,-370.33 421,-383 408.88,-391.31 392.59,-396.06 381.19,-400.38"/>
<polygon fill="#63b8ff" stroke="#63b8ff" points="469.56,-337.8 472.74,-327.7 463.95,-333.61 469.56,-337.8"/>
</a>
</g>
</g>
<!-- Node9 -->
<g id="Node000009" class="node">
<title>Node9</title>
<g id="a_Node000009"><a xlink:href="ast__run_8c.html#ae25cd3ced8abafd76110dba8852a6b87" target="_top" xlink:title=" ">
<polygon fill="white" stroke="#666666" points="403,-364.5 330,-364.5 330,-345.5 403,-345.5 403,-364.5"/>
<text text-anchor="middle" x="366.5" y="-352.5" font-family="Helvetica,sans-Serif" font-size="10.00">ast_run_list</text>
</a>
</g>
</g>
<!-- Node5&#45;&gt;Node9 -->
<g id="edge11_Node000005_Node000009" class="edge">
<title>Node5&#45;&gt;Node9</title>
<g id="a_edge11_Node000005_Node000009"><a xlink:title=" ">
<path fill="none" stroke="#63b8ff" d="M447.09,-323.11C425.37,-329.14 398.69,-338.25 382.4,-345.49"/>
<polygon fill="#63b8ff" stroke="#63b8ff" points="448.21,-326.43 456.98,-320.49 446.42,-319.66 448.21,-326.43"/>
</a>
</g>
</g>
<!-- Node10 -->
<g id="Node000010" class="node">
<title>Node10</title>
<g id="a_Node000010"><a xlink:href="ast__run_8c.html#a536f37ba9bffcd2099fef668656181e0" target="_top" xlink:title=" ">
<polygon fill="white" stroke="#666666" points="406,-327.5 327,-327.5 327,-308.5 406,-308.5 406,-327.5"/>
<text text-anchor="middle" x="366.5" y="-315.5" font-family="Helvetica,sans-Serif" font-size="10.00">ast_run_loop</text>
</a>
</g>
</g>
<!-- Node5&#45;&gt;Node10 -->
<g id="edge14_Node000005_Node000010" class="edge">
<title>Node5&#45;&gt;Node10</title>
<g id="a_edge14_Node000005_Node000010"><a xlink:title=" ">
<path fill="none" stroke="#63b8ff" d="M446.63,-311.69C433.74,-311.14 419.17,-311.1 406.07,-311.59"/>
<polygon fill="#63b8ff" stroke="#63b8ff" points="446.8,-315.21 456.98,-312.28 447.19,-308.22 446.8,-315.21"/>
</a>
</g>
</g>
<!-- Node11 -->
<g id="Node000011" class="node">
<title>Node11</title>
<g id="a_Node000011"><a xlink:href="ast__run_8c.html#aa3e6a973e744d748ee415840596beb53" target="_top" xlink:title=" ">
<polygon fill="white" stroke="#666666" points="421,-290.5 312,-290.5 312,-271.5 421,-271.5 421,-290.5"/>
<text text-anchor="middle" x="366.5" y="-278.5" font-family="Helvetica,sans-Serif" font-size="10.00">ast_run_shell_redir</text>
</a>
</g>
</g>
<!-- Node5&#45;&gt;Node11 -->
<g id="edge16_Node000005_Node000011" class="edge">
<title>Node5&#45;&gt;Node11</title>
<g id="a_edge16_Node000005_Node000011"><a xlink:title=" ">
<path fill="none" stroke="#63b8ff" d="M457.99,-304.47C446.3,-299.82 431.86,-294.82 417.98,-290.54"/>
<polygon fill="#63b8ff" stroke="#63b8ff" points="456.89,-307.8 467.47,-308.43 459.59,-301.34 456.89,-307.8"/>
</a>
</g>
</g>
<!-- Node12 -->
<g id="Node000012" class="node">
<title>Node12</title>
<g id="a_Node000012"><a xlink:href="exec_8c.html#a23babf893bbcd2f6126698a1a19b169f" target="_top" xlink:title="Execute funct with given arguments.">
<polygon fill="white" stroke="#666666" points="399,-85.5 334,-85.5 334,-66.5 399,-66.5 399,-85.5"/>
<text text-anchor="middle" x="366.5" y="-73.5" font-family="Helvetica,sans-Serif" font-size="10.00">exec_func</text>
</a>
</g>
</g>
<!-- Node5&#45;&gt;Node12 -->
<g id="edge18_Node000005_Node000012" class="edge">
<title>Node5&#45;&gt;Node12</title>
<g id="a_edge18_Node000005_Node000012"><a xlink:title=" ">
<path fill="none" stroke="#63b8ff" d="M482.81,-298.31C482.39,-255.58 475.38,-153.45 421,-95 415.16,-88.72 407.11,-84.52 399.03,-81.7"/>
<polygon fill="#63b8ff" stroke="#63b8ff" points="479.31,-298.49 482.79,-308.49 486.31,-298.5 479.31,-298.49"/>
</a>
</g>
</g>
<!-- Node13 -->
<g id="Node000013" class="node">
<title>Node13</title>
<g id="a_Node000013"><a xlink:href="exec_8c.html#ab743cb88e12e9b922050925fd2075e36" target="_top" xlink:title="Execute a pipeline of commands.">
<polygon fill="white" stroke="#666666" points="399,-235.5 334,-235.5 334,-216.5 399,-216.5 399,-235.5"/>
<text text-anchor="middle" x="366.5" y="-223.5" font-family="Helvetica,sans-Serif" font-size="10.00">exec_pipe</text>
</a>
</g>
</g>
<!-- Node5&#45;&gt;Node13 -->
<g id="edge20_Node000005_Node000013" class="edge">
<title>Node5&#45;&gt;Node13</title>
<g id="a_edge20_Node000005_Node000013"><a xlink:title=" ">
<path fill="none" stroke="#63b8ff" d="M464.85,-301.15C452.82,-289.93 436.36,-275.1 421,-263 408.4,-253.07 393.32,-242.78 382.39,-235.57"/>
<polygon fill="#63b8ff" stroke="#63b8ff" points="462.71,-303.94 472.4,-308.25 467.51,-298.85 462.71,-303.94"/>
</a>
</g>
</g>
<!-- Node15 -->
<g id="Node000015" class="node">
<title>Node15</title>
<g id="a_Node000015"><a xlink:href="42sh_8c.html#a3c04138a5bfe5d72780bb7e82a18e627" target="_top" xlink:title=" ">
<polygon fill="white" stroke="#666666" points="387,-198.5 346,-198.5 346,-179.5 387,-179.5 387,-198.5"/>
<text text-anchor="middle" x="366.5" y="-186.5" font-family="Helvetica,sans-Serif" font-size="10.00">main</text>
</a>
</g>
</g>
<!-- Node5&#45;&gt;Node15 -->
<g id="edge24_Node000005_Node000015" class="edge">
<title>Node5&#45;&gt;Node15</title>
<g id="a_edge24_Node000005_Node000015"><a xlink:title=" ">
<path fill="none" stroke="#63b8ff" d="M476.47,-298.66C467.91,-274.24 449.98,-232.47 421,-208 411.36,-199.86 397.98,-195.11 387.02,-192.4"/>
<polygon fill="#63b8ff" stroke="#63b8ff" points="473.18,-299.86 479.66,-308.25 479.82,-297.65 473.18,-299.86"/>
</a>
</g>
</g>
<!-- Node16 -->
<g id="Node000016" class="node">
<title>Node16</title>
<g id="a_Node000016"><a xlink:href="dot_8c.html#a17477ee2b0f1b8b9306566c990d15b35" target="_top" xlink:title="Main loop of dot builtin.">
<polygon fill="white" stroke="#666666" points="400.5,-122.5 332.5,-122.5 332.5,-103.5 400.5,-103.5 400.5,-122.5"/>
<text text-anchor="middle" x="366.5" y="-110.5" font-family="Helvetica,sans-Serif" font-size="10.00">main_loop</text>
</a>
</g>
</g>
<!-- Node5&#45;&gt;Node16 -->
<g id="edge25_Node000005_Node000016" class="edge">
<title>Node5&#45;&gt;Node16</title>
<g id="a_edge25_Node000005_Node000016"><a xlink:title=" ">
<path fill="none" stroke="#63b8ff" d="M480.89,-298.16C476.94,-261.8 463.73,-183.96 421,-137 415.31,-130.75 407.69,-126.03 399.98,-122.51"/>
<polygon fill="#63b8ff" stroke="#63b8ff" points="477.43,-298.79 481.87,-308.41 484.4,-298.12 477.43,-298.79"/>
</a>
</g>
</g>
<!-- Node6&#45;&gt;Node5 -->
<g id="edge6_Node000006_Node000005" class="edge">
<title>Node6&#45;&gt;Node5</title>
<g id="a_edge6_Node000006_Node000005"><a xlink:title=" ">
<path fill="none" stroke="#63b8ff" d="M420.5,-475.46C420.67,-475.31 420.83,-475.15 421,-475 465.35,-433.62 478.76,-355.39 481.77,-327.52"/>
<polygon fill="#63b8ff" stroke="#63b8ff" points="418.25,-472.76 412.15,-481.42 422.32,-478.46 418.25,-472.76"/>
</a>
</g>
</g>
<!-- Node7&#45;&gt;Node5 -->
<g id="edge8_Node000007_Node000005" class="edge">
<title>Node7&#45;&gt;Node5</title>
<g id="a_edge8_Node000007_Node000005"><a xlink:title=" ">
<path fill="none" stroke="#63b8ff" d="M411.38,-444.34C414.82,-442.54 418.08,-440.43 421,-438 457.05,-407.96 475.69,-351.07 480.93,-327.62"/>
<polygon fill="#63b8ff" stroke="#63b8ff" points="409.81,-441.2 402,-448.37 412.57,-447.63 409.81,-441.2"/>
</a>
</g>
</g>
<!-- Node8&#45;&gt;Node5 -->
<g id="edge10_Node000008_Node000005" class="edge">
<title>Node8&#45;&gt;Node5</title>
<g id="a_edge10_Node000008_Node000005"><a xlink:title=" ">
<path fill="none" stroke="#63b8ff" d="M408.7,-407.73C413.02,-405.84 417.21,-403.59 421,-401 449.24,-381.64 471.69,-345.83 479.51,-327.71"/>
<polygon fill="#63b8ff" stroke="#63b8ff" points="407.3,-404.52 399.14,-411.27 409.74,-411.08 407.3,-404.52"/>
</a>
</g>
</g>
<!-- Node9&#45;&gt;Node5 -->
<g id="edge13_Node000009_Node000005" class="edge">
<title>Node9&#45;&gt;Node5</title>
<g id="a_edge13_Node000009_Node000005"><a xlink:title=" ">
<path fill="none" stroke="#63b8ff" d="M412.95,-346.99C432.33,-341.19 453.61,-333.72 467.47,-327.57"/>
<polygon fill="#63b8ff" stroke="#63b8ff" points="411.97,-343.63 403.34,-349.77 413.92,-350.36 411.97,-343.63"/>
</a>
</g>
</g>
<!-- Node9&#45;&gt;Node9 -->
<g id="edge12_Node000009_Node000009" class="edge">
<title>Node9&#45;&gt;Node9</title>
<g id="a_edge12_Node000009_Node000009"><a xlink:title=" ">
<path fill="none" stroke="#63b8ff" d="M387.98,-374.05C386.55,-378.88 379.39,-382.5 366.5,-382.5 345.88,-382.5 339.92,-373.23 348.62,-364.58"/>
<polygon fill="#63b8ff" stroke="#63b8ff" points="391.2,-372.69 384.38,-364.58 384.66,-375.17 391.2,-372.69"/>
</a>
</g>
</g>
<!-- Node10&#45;&gt;Node5 -->
<g id="edge15_Node000010_Node000005" class="edge">
<title>Node10&#45;&gt;Node5</title>
<g id="a_edge15_Node000010_Node000005"><a xlink:title=" ">
<path fill="none" stroke="#63b8ff" d="M416.12,-324.68C430.17,-324.91 444.94,-324.59 456.98,-323.72"/>
<polygon fill="#63b8ff" stroke="#63b8ff" points="416.16,-321.18 406.07,-324.41 415.97,-328.18 416.16,-321.18"/>
</a>
</g>
</g>
<!-- Node11&#45;&gt;Node5 -->
<g id="edge17_Node000011_Node000005" class="edge">
<title>Node11&#45;&gt;Node5</title>
<g id="a_edge17_Node000011_Node000005"><a xlink:title=" ">
<path fill="none" stroke="#63b8ff" d="M391.64,-294.39C410.79,-302.02 437.48,-310.64 456.98,-315.51"/>
<polygon fill="#63b8ff" stroke="#63b8ff" points="392.97,-291.15 382.4,-290.51 390.27,-297.6 392.97,-291.15"/>
</a>
</g>
</g>
<!-- Node12&#45;&gt;Node3 -->
<g id="edge19_Node000012_Node000003" class="edge">
<title>Node12&#45;&gt;Node3</title>
<g id="a_edge19_Node000012_Node000003"><a xlink:title=" ">
<path fill="none" stroke="#63b8ff" d="M409.42,-75.87C475.34,-75.67 601.77,-75.28 660.75,-75.1"/>
<polygon fill="#63b8ff" stroke="#63b8ff" points="409.37,-72.37 399.38,-75.9 409.39,-79.37 409.37,-72.37"/>
</a>
</g>
</g>
<!-- Node13&#45;&gt;Node13 -->
<g id="edge23_Node000013_Node000013" class="edge">
<title>Node13&#45;&gt;Node13</title>
<g id="a_edge23_Node000013_Node000013"><a xlink:title=" ">
<path fill="none" stroke="#63b8ff" d="M387.98,-245.05C386.55,-249.88 379.39,-253.5 366.5,-253.5 345.88,-253.5 339.92,-244.23 348.62,-235.58"/>
<polygon fill="#63b8ff" stroke="#63b8ff" points="391.2,-243.69 384.38,-235.58 384.66,-246.17 391.2,-243.69"/>
</a>
</g>
</g>
<!-- Node14 -->
<g id="Node000014" class="node">
<title>Node14</title>
<g id="a_Node000014"><a xlink:href="ast__run_8c.html#a24d0223822f7b635628199085c3283be" target="_top" xlink:title=" ">
<polygon fill="white" stroke="#666666" points="276,-197.5 197,-197.5 197,-178.5 276,-178.5 276,-197.5"/>
<text text-anchor="middle" x="236.5" y="-185.5" font-family="Helvetica,sans-Serif" font-size="10.00">ast_run_pipe</text>
</a>
</g>
</g>
<!-- Node13&#45;&gt;Node14 -->
<g id="edge21_Node000013_Node000014" class="edge">
<title>Node13&#45;&gt;Node14</title>
<g id="a_edge21_Node000013_Node000014"><a xlink:title=" ">
<path fill="none" stroke="#63b8ff" d="M323.85,-213.63C306.25,-208.41 286.08,-202.42 269.67,-197.55"/>
<polygon fill="#63b8ff" stroke="#63b8ff" points="323.28,-217.12 333.86,-216.61 325.27,-210.41 323.28,-217.12"/>
</a>
</g>
</g>
<!-- Node14&#45;&gt;Node5 -->
<g id="edge22_Node000014_Node000005" class="edge">
<title>Node14&#45;&gt;Node5</title>
<g id="a_edge22_Node000014_Node000005"><a xlink:title=" ">
<path fill="none" stroke="#63b8ff" d="M267.38,-174.5C306.22,-159.18 374.55,-140.08 421,-171 469.13,-203.04 479.66,-280.74 481.91,-308.19"/>
<polygon fill="#63b8ff" stroke="#63b8ff" points="265.63,-171.44 257.71,-178.48 268.29,-177.91 265.63,-171.44"/>
</a>
</g>
</g>
<!-- Node17 -->
<g id="Node000017" class="node">
<title>Node17</title>
<g id="a_Node000017"><a xlink:href="dot_8c.html#a713938d3c6ee343132c429642048bcf6" target="_top" xlink:title="Execute the dot builtin cmd.">
<polygon fill="white" stroke="#666666" points="258.5,-112.5 214.5,-112.5 214.5,-93.5 258.5,-93.5 258.5,-112.5"/>
<text text-anchor="middle" x="236.5" y="-100.5" font-family="Helvetica,sans-Serif" font-size="10.00">dot_b</text>
</a>
</g>
</g>
<!-- Node16&#45;&gt;Node17 -->
<g id="edge26_Node000016_Node000017" class="edge">
<title>Node16&#45;&gt;Node17</title>
<g id="a_edge26_Node000016_Node000017"><a xlink:title=" ">
<path fill="none" stroke="#63b8ff" d="M322.02,-109.6C300.61,-107.93 275.78,-105.99 258.6,-104.65"/>
<polygon fill="#63b8ff" stroke="#63b8ff" points="321.96,-113.11 332.2,-110.4 322.51,-106.13 321.96,-113.11"/>
</a>
</g>
</g>
<!-- Node18 -->
<g id="Node000018" class="node">
<title>Node18</title>
<g id="a_Node000018"><a xlink:href="exec_8c.html#abaeb177587c7eec6a064b35bb8399cae" target="_top" xlink:title="Execute builtin cmd with given args.">
<polygon fill="white" stroke="#666666" points="161,-103.5 86,-103.5 86,-84.5 161,-84.5 161,-103.5"/>
<text text-anchor="middle" x="123.5" y="-91.5" font-family="Helvetica,sans-Serif" font-size="10.00">exec_builtin</text>
</a>
</g>
</g>
<!-- Node17&#45;&gt;Node18 -->
<g id="edge27_Node000017_Node000018" class="edge">
<title>Node17&#45;&gt;Node18</title>
<g id="a_edge27_Node000017_Node000018"><a xlink:title=" ">
<path fill="none" stroke="#63b8ff" d="M204.23,-100.46C190.88,-99.38 175.2,-98.11 161.3,-96.98"/>
<polygon fill="#63b8ff" stroke="#63b8ff" points="204.11,-103.97 214.36,-101.29 204.68,-96.99 204.11,-103.97"/>
</a>
</g>
</g>
<!-- Node18&#45;&gt;Node19 -->
<g id="edge28_Node000018_Node000019" class="edge">
<title>Node18&#45;&gt;Node19</title>
<g id="a_edge28_Node000018_Node000019"><a xlink:title=" ">
<path fill="none" stroke="#63b8ff" d="M96.73,-79.05C79.56,-69.08 57.5,-56.28 42.62,-47.64"/>
<polygon fill="#63b8ff" stroke="#63b8ff" points="95.29,-82.25 105.69,-84.25 98.8,-76.2 95.29,-82.25"/>
</a>
</g>
</g>
<!-- Node19&#45;&gt;Node3 -->
<g id="edge29_Node000019_Node000003" class="edge">
<title>Node19&#45;&gt;Node3</title>
<g id="a_edge29_Node000019_Node000003"><a xlink:title=" ">
<path fill="none" stroke="#63b8ff" d="M60.31,-38C101.8,-38 173.77,-38 235.5,-38 484.5,-38 484.5,-38 484.5,-38 547.77,-38 620.21,-54.8 660.74,-65.76"/>
<polygon fill="#63b8ff" stroke="#63b8ff" points="60.19,-34.5 50.19,-38 60.19,-41.5 60.19,-34.5"/>
</a>
</g>
</g>
<!-- Node20&#45;&gt;Node3 -->
<g id="edge31_Node000020_Node000003" class="edge">
<title>Node20&#45;&gt;Node3</title>
<g id="a_edge31_Node000020_Node000003"><a xlink:title=" ">
<path fill="none" stroke="#63b8ff" d="M771.65,-50.6C756.37,-55.43 739.2,-60.87 724.93,-65.38"/>
<polygon fill="#63b8ff" stroke="#63b8ff" points="772.89,-53.88 781.37,-47.53 770.78,-47.21 772.89,-53.88"/>
</a>
</g>
</g>
</g>
</svg>
