<?xml version="1.0" encoding="UTF-8" standalone="no"?>
<!DOCTYPE svg PUBLIC "-//W3C//DTD SVG 1.1//EN"
 "http://www.w3.org/Graphics/SVG/1.1/DTD/svg11.dtd">
<!-- Generated by graphviz version 2.43.0 (0)
 -->
<!-- Title: update_exit Pages: 1 -->
<svg width="1259pt" height="260pt"
 viewBox="0.00 0.00 1259.00 259.50" xmlns="http://www.w3.org/2000/svg" xmlns:xlink="http://www.w3.org/1999/xlink">
<g id="graph0" class="graph" transform="scale(1 1) rotate(0) translate(4 255.5)">
<title>update_exit</title>
<!-- Node1 -->
<g id="Node000001" class="node">
<title>Node1</title>
<g id="a_Node000001"><a xlink:title="Update special var &quot;?&quot; with given status.">
<polygon fill="#999999" stroke="#666666" points="74,-28.5 0,-28.5 0,-9.5 74,-9.5 74,-28.5"/>
<text text-anchor="middle" x="37" y="-16.5" font-family="Helvetica,sans-Serif" font-size="10.00">update_exit</text>
</a>
</g>
</g>
<!-- Node2 -->
<g id="Node000002" class="node">
<title>Node2</title>
<g id="a_Node000002"><a xlink:href="hashmap_8c.html#a3bf95c887f7eac3eb074725515feba49" target="_top" xlink:title="Add a variable to the dictionnary.">
<polygon fill="white" stroke="#666666" points="166,-66.5 110,-66.5 110,-47.5 166,-47.5 166,-66.5"/>
<text text-anchor="middle" x="138" y="-54.5" font-family="Helvetica,sans-Serif" font-size="10.00">add_var</text>
</a>
</g>
</g>
<!-- Node1&#45;&gt;Node2 -->
<g id="edge1_Node000001_Node000002" class="edge">
<title>Node1&#45;&gt;Node2</title>
<g id="a_edge1_Node000001_Node000002"><a xlink:title=" ">
<path fill="none" stroke="#63b8ff" d="M62.98,-28.59C74.94,-33.18 89.45,-38.75 102.45,-43.74"/>
<polygon fill="#63b8ff" stroke="#63b8ff" points="101.44,-47.1 112.03,-47.41 103.94,-40.56 101.44,-47.1"/>
</a>
</g>
</g>
<!-- Node15 -->
<g id="Node000015" class="node">
<title>Node15</title>
<g id="a_Node000015"><a xlink:href="itoa_8c.html#a43f392ec16afbe6cdb1ee6d1f1347f99" target="_top" xlink:title="Convert int to string.">
<polygon fill="white" stroke="#666666" points="1251,-65.5 1216,-65.5 1216,-46.5 1251,-46.5 1251,-65.5"/>
<text text-anchor="middle" x="1233.5" y="-53.5" font-family="Helvetica,sans-Serif" font-size="10.00">itoa</text>
</a>
</g>
</g>
<!-- Node1&#45;&gt;Node15 -->
<g id="edge25_Node000001_Node000015" class="edge">
<title>Node1&#45;&gt;Node15</title>
<g id="a_edge25_Node000001_Node000015"><a xlink:title=" ">
<path fill="none" stroke="#63b8ff" d="M74.09,-14.11C118.81,-8.48 197.37,0 265,0 265,0 265,0 1038.5,0 1102.7,0 1119.45,-7.68 1180,-29 1189.27,-32.26 1198.96,-36.87 1207.46,-41.36"/>
<polygon fill="#63b8ff" stroke="#63b8ff" points="1206.01,-44.56 1216.46,-46.3 1209.38,-38.42 1206.01,-44.56"/>
</a>
</g>
</g>
<!-- Node3 -->
<g id="Node000003" class="node">
<title>Node3</title>
<g id="a_Node000003"><a xlink:href="hashmap_8c.html#aca86cd9ca85ac2e41fbb5c9e86ad6d6f" target="_top" xlink:title=" ">
<polygon fill="white" stroke="#666666" points="308.5,-85.5 223.5,-85.5 223.5,-66.5 308.5,-66.5 308.5,-85.5"/>
<text text-anchor="middle" x="266" y="-73.5" font-family="Helvetica,sans-Serif" font-size="10.00">expand_value</text>
</a>
</g>
</g>
<!-- Node2&#45;&gt;Node3 -->
<g id="edge2_Node000002_Node000003" class="edge">
<title>Node2&#45;&gt;Node3</title>
<g id="a_edge2_Node000002_Node000003"><a xlink:title=" ">
<path fill="none" stroke="#63b8ff" d="M166.03,-61.08C179.8,-63.15 197.03,-65.75 213.22,-68.19"/>
<polygon fill="#63b8ff" stroke="#63b8ff" points="212.73,-71.66 223.14,-69.69 213.77,-64.74 212.73,-71.66"/>
</a>
</g>
</g>
<!-- Node13 -->
<g id="Node000013" class="node">
<title>Node13</title>
<g id="a_Node000013"><a xlink:href="hash_8c.html#ac74a7e29e54c223be6213463974d6154" target="_top" xlink:title=" ">
<polygon fill="white" stroke="#666666" points="1173,-57.5 1133,-57.5 1133,-38.5 1173,-38.5 1173,-57.5"/>
<text text-anchor="middle" x="1153" y="-45.5" font-family="Helvetica,sans-Serif" font-size="10.00">hash</text>
</a>
</g>
</g>
<!-- Node2&#45;&gt;Node13 -->
<g id="edge23_Node000002_Node000013" class="edge">
<title>Node2&#45;&gt;Node13</title>
<g id="a_edge23_Node000002_Node000013"><a xlink:title=" ">
<path fill="none" stroke="#63b8ff" d="M166.23,-53.6C212.46,-48.14 309.29,-38 391.5,-38 391.5,-38 391.5,-38 906.5,-38 984.69,-38 1076.78,-43.13 1122.77,-46.04"/>
<polygon fill="#63b8ff" stroke="#63b8ff" points="1122.71,-49.54 1132.91,-46.69 1123.16,-42.56 1122.71,-49.54"/>
</a>
</g>
</g>
<!-- Node21 -->
<g id="Node000021" class="node">
<title>Node21</title>
<g id="a_Node000021"><a xlink:href="hashmap_8c.html#a5bcdd565d2ba5876c5ef1685625cdcfa" target="_top" xlink:title=" ">
<polygon fill="white" stroke="#666666" points="330,-122.5 202,-122.5 202,-103.5 330,-103.5 330,-122.5"/>
<text text-anchor="middle" x="266" y="-110.5" font-family="Helvetica,sans-Serif" font-size="10.00">update_or_append_var</text>
</a>
</g>
</g>
<!-- Node2&#45;&gt;Node21 -->
<g id="edge24_Node000002_Node000021" class="edge">
<title>Node2&#45;&gt;Node21</title>
<g id="a_edge24_Node000002_Node000021"><a xlink:title=" ">
<path fill="none" stroke="#63b8ff" d="M153,-66.54C165.44,-74.68 184.33,-86.28 202,-94 207.3,-96.32 212.96,-98.46 218.64,-100.4"/>
<polygon fill="#63b8ff" stroke="#63b8ff" points="217.56,-103.73 228.16,-103.49 219.73,-97.08 217.56,-103.73"/>
</a>
</g>
</g>
<!-- Node4 -->
<g id="Node000004" class="node">
<title>Node4</title>
<g id="a_Node000004"><a xlink:href="expand_8c.html#ae22ff4719527d6b2b8bca3e43f576837" target="_top" xlink:title=" ">
<polygon fill="white" stroke="#666666" points="419,-85.5 366,-85.5 366,-66.5 419,-66.5 419,-85.5"/>
<text text-anchor="middle" x="392.5" y="-73.5" font-family="Helvetica,sans-Serif" font-size="10.00">expand</text>
</a>
</g>
</g>
<!-- Node3&#45;&gt;Node4 -->
<g id="edge3_Node000003_Node000004" class="edge">
<title>Node3&#45;&gt;Node4</title>
<g id="a_edge3_Node000003_Node000004"><a xlink:title=" ">
<path fill="none" stroke="#63b8ff" d="M308.8,-76C324.04,-76 341.11,-76 355.77,-76"/>
<polygon fill="#63b8ff" stroke="#63b8ff" points="355.96,-79.5 365.96,-76 355.96,-72.5 355.96,-79.5"/>
</a>
</g>
</g>
<!-- Node5 -->
<g id="Node000005" class="node">
<title>Node5</title>
<g id="a_Node000005"><a xlink:href="expand_8c.html#a492ca861a96ee6319b97b4b1d6ba9835" target="_top" xlink:title=" ">
<polygon fill="white" stroke="#666666" points="537,-160.5 455,-160.5 455,-141.5 537,-141.5 537,-160.5"/>
<text text-anchor="middle" x="496" y="-148.5" font-family="Helvetica,sans-Serif" font-size="10.00">expand_word</text>
</a>
</g>
</g>
<!-- Node4&#45;&gt;Node5 -->
<g id="edge4_Node000004_Node000005" class="edge">
<title>Node4&#45;&gt;Node5</title>
<g id="a_edge4_Node000004_Node000005"><a xlink:title=" ">
<path fill="none" stroke="#63b8ff" d="M406.77,-85.8C423.81,-98.39 453.58,-120.4 473.78,-135.32"/>
<polygon fill="#63b8ff" stroke="#63b8ff" points="471.93,-138.3 482.05,-141.43 476.09,-132.67 471.93,-138.3"/>
</a>
</g>
</g>
<!-- Node11 -->
<g id="Node000011" class="node">
<title>Node11</title>
<g id="a_Node000011"><a xlink:href="expand_8c.html#aaf941edbfdd3ac08d813ff01acc1f963" target="_top" xlink:title=" ">
<polygon fill="white" stroke="#666666" points="1064,-85.5 1011,-85.5 1011,-66.5 1064,-66.5 1064,-85.5"/>
<text text-anchor="middle" x="1037.5" y="-73.5" font-family="Helvetica,sans-Serif" font-size="10.00">free_ex</text>
</a>
</g>
</g>
<!-- Node4&#45;&gt;Node11 -->
<g id="edge22_Node000004_Node000011" class="edge">
<title>Node4&#45;&gt;Node11</title>
<g id="a_edge22_Node000004_Node000011"><a xlink:title=" ">
<path fill="none" stroke="#63b8ff" d="M419.04,-76C463.31,-76 557.19,-76 636.5,-76 636.5,-76 636.5,-76 783,-76 860.7,-76 951.79,-76 1000.85,-76"/>
<polygon fill="#63b8ff" stroke="#63b8ff" points="1000.95,-79.5 1010.95,-76 1000.95,-72.5 1000.95,-79.5"/>
</a>
</g>
</g>
<!-- Node6 -->
<g id="Node000006" class="node">
<title>Node6</title>
<g id="a_Node000006"><a xlink:href="expand_8c.html#a97a675ffacb4b71f4f3b4a30749d9f66" target="_top" xlink:title=" ">
<polygon fill="white" stroke="#666666" points="677,-123.5 598,-123.5 598,-104.5 677,-104.5 677,-123.5"/>
<text text-anchor="middle" x="637.5" y="-111.5" font-family="Helvetica,sans-Serif" font-size="10.00">append_char</text>
</a>
</g>
</g>
<!-- Node5&#45;&gt;Node6 -->
<g id="edge5_Node000005_Node000006" class="edge">
<title>Node5&#45;&gt;Node6</title>
<g id="a_edge5_Node000005_Node000006"><a xlink:title=" ">
<path fill="none" stroke="#63b8ff" d="M532.92,-141.47C550.44,-136.83 571.72,-131.18 590.42,-126.22"/>
<polygon fill="#63b8ff" stroke="#63b8ff" points="591.44,-129.57 600.21,-123.62 589.65,-122.81 591.44,-129.57"/>
</a>
</g>
</g>
<!-- Node7 -->
<g id="Node000007" class="node">
<title>Node7</title>
<g id="a_Node000007"><a xlink:href="expand_8c.html#a6d4728fd992669e4bb35624d37972179" target="_top" xlink:title=" ">
<polygon fill="white" stroke="#666666" points="702,-236.5 573,-236.5 573,-217.5 702,-217.5 702,-236.5"/>
<text text-anchor="middle" x="637.5" y="-224.5" font-family="Helvetica,sans-Serif" font-size="10.00">double_quotes_expand</text>
</a>
</g>
</g>
<!-- Node5&#45;&gt;Node7 -->
<g id="edge6_Node000005_Node000007" class="edge">
<title>Node5&#45;&gt;Node7</title>
<g id="a_edge6_Node000005_Node000007"><a xlink:title=" ">
<path fill="none" stroke="#63b8ff" d="M509.07,-160.61C523.6,-171.85 549.04,-190.51 573,-203 580.66,-207 589.14,-210.67 597.34,-213.88"/>
<polygon fill="#63b8ff" stroke="#63b8ff" points="596.19,-217.19 606.78,-217.43 598.65,-210.63 596.19,-217.19"/>
</a>
</g>
</g>
<!-- Node10 -->
<g id="Node000010" class="node">
<title>Node10</title>
<g id="a_Node000010"><a xlink:href="expand_8c.html#a0a337c3a6b2595b2b8c03e171c9559ba" target="_top" xlink:title=" ">
<polygon fill="white" stroke="#666666" points="942.5,-198.5 868.5,-198.5 868.5,-179.5 942.5,-179.5 942.5,-198.5"/>
<text text-anchor="middle" x="905.5" y="-186.5" font-family="Helvetica,sans-Serif" font-size="10.00">var_expand</text>
</a>
</g>
</g>
<!-- Node5&#45;&gt;Node10 -->
<g id="edge21_Node000005_Node000010" class="edge">
<title>Node5&#45;&gt;Node10</title>
<g id="a_edge21_Node000005_Node000010"><a xlink:title=" ">
<path fill="none" stroke="#63b8ff" d="M531.56,-160.51C544.47,-163.71 559.32,-166.98 573,-169 674.04,-183.9 793.97,-187.76 858.27,-188.72"/>
<polygon fill="#63b8ff" stroke="#63b8ff" points="858.44,-192.22 868.48,-188.85 858.53,-185.22 858.44,-192.22"/>
</a>
</g>
</g>
<!-- Node20 -->
<g id="Node000020" class="node">
<title>Node20</title>
<g id="a_Node000020"><a xlink:href="expand_8c.html#ad45c8055962fa36940e109b04b7e562e" target="_top" xlink:title=" ">
<polygon fill="white" stroke="#666666" points="697.5,-160.5 577.5,-160.5 577.5,-141.5 697.5,-141.5 697.5,-160.5"/>
<text text-anchor="middle" x="637.5" y="-148.5" font-family="Helvetica,sans-Serif" font-size="10.00">single_quote_expand</text>
</a>
</g>
</g>
<!-- Node5&#45;&gt;Node20 -->
<g id="edge20_Node000005_Node000020" class="edge">
<title>Node5&#45;&gt;Node20</title>
<g id="a_edge20_Node000005_Node000020"><a xlink:title=" ">
<path fill="none" stroke="#63b8ff" d="M537.35,-151C546.7,-151 556.92,-151 567.13,-151"/>
<polygon fill="#63b8ff" stroke="#63b8ff" points="567.3,-154.5 577.3,-151 567.3,-147.5 567.3,-154.5"/>
</a>
</g>
</g>
<!-- Node8 -->
<g id="Node000008" class="node">
<title>Node8</title>
<g id="a_Node000008"><a xlink:href="expand_8c.html#a4a10ac07faa08df14e0a438c5feace6b" target="_top" xlink:title=" ">
<polygon fill="white" stroke="#666666" points="826,-236.5 738,-236.5 738,-217.5 826,-217.5 826,-236.5"/>
<text text-anchor="middle" x="782" y="-224.5" font-family="Helvetica,sans-Serif" font-size="10.00">in_dquote_exp</text>
</a>
</g>
</g>
<!-- Node7&#45;&gt;Node8 -->
<g id="edge7_Node000007_Node000008" class="edge">
<title>Node7&#45;&gt;Node8</title>
<g id="a_edge7_Node000007_Node000008"><a xlink:title=" ">
<path fill="none" stroke="#63b8ff" d="M702.25,-227C710.69,-227 719.27,-227 727.52,-227"/>
<polygon fill="#63b8ff" stroke="#63b8ff" points="727.74,-230.5 737.74,-227 727.74,-223.5 727.74,-230.5"/>
</a>
</g>
</g>
<!-- Node9 -->
<g id="Node000009" class="node">
<title>Node9</title>
<g id="a_Node000009"><a xlink:href="expand_8c.html#a46b3549565fede625ad04072f2654aa4" target="_top" xlink:title=" ">
<polygon fill="white" stroke="#666666" points="949,-236.5 862,-236.5 862,-217.5 949,-217.5 949,-236.5"/>
<text text-anchor="middle" x="905.5" y="-224.5" font-family="Helvetica,sans-Serif" font-size="10.00">is_expandable</text>
</a>
</g>
</g>
<!-- Node8&#45;&gt;Node9 -->
<g id="edge8_Node000008_Node000009" class="edge">
<title>Node8&#45;&gt;Node9</title>
<g id="a_edge8_Node000008_Node000009"><a xlink:title=" ">
<path fill="none" stroke="#63b8ff" d="M826.18,-227C834.42,-227 843.14,-227 851.64,-227"/>
<polygon fill="#63b8ff" stroke="#63b8ff" points="851.87,-230.5 861.87,-227 851.87,-223.5 851.87,-230.5"/>
</a>
</g>
</g>
<!-- Node8&#45;&gt;Node10 -->
<g id="edge9_Node000008_Node000010" class="edge">
<title>Node8&#45;&gt;Node10</title>
<g id="a_edge9_Node000008_Node000010"><a xlink:title=" ">
<path fill="none" stroke="#63b8ff" d="M813.66,-217.41C828.91,-212.64 847.55,-206.81 863.97,-201.68"/>
<polygon fill="#63b8ff" stroke="#63b8ff" points="865.35,-204.91 873.85,-198.59 863.26,-198.23 865.35,-204.91"/>
</a>
</g>
</g>
<!-- Node10&#45;&gt;Node11 -->
<g id="edge10_Node000010_Node000011" class="edge">
<title>Node10&#45;&gt;Node11</title>
<g id="a_edge10_Node000010_Node000011"><a xlink:title=" ">
<path fill="none" stroke="#63b8ff" d="M911.92,-179.45C923.14,-160.48 950.76,-117.84 985,-94 989.93,-90.57 995.58,-87.73 1001.29,-85.41"/>
<polygon fill="#63b8ff" stroke="#63b8ff" points="1002.61,-88.65 1010.83,-81.96 1000.24,-82.06 1002.61,-88.65"/>
</a>
</g>
</g>
<!-- Node12 -->
<g id="Node000012" class="node">
<title>Node12</title>
<g id="a_Node000012"><a xlink:href="hashmap_8c.html#aa54a9eed65359c74557f0f55c9ca3dd3" target="_top" xlink:title="Get the variable from the dictionnary.">
<polygon fill="white" stroke="#666666" points="1064,-122.5 1011,-122.5 1011,-103.5 1064,-103.5 1064,-122.5"/>
<text text-anchor="middle" x="1037.5" y="-110.5" font-family="Helvetica,sans-Serif" font-size="10.00">get_var</text>
</a>
</g>
</g>
<!-- Node10&#45;&gt;Node12 -->
<g id="edge11_Node000010_Node000012" class="edge">
<title>Node10&#45;&gt;Node12</title>
<g id="a_edge11_Node000010_Node000012"><a xlink:title=" ">
<path fill="none" stroke="#63b8ff" d="M922.96,-179.37C945.24,-166.35 985.17,-143.01 1011.25,-127.76"/>
<polygon fill="#63b8ff" stroke="#63b8ff" points="1013.3,-130.62 1020.17,-122.55 1009.77,-124.57 1013.3,-130.62"/>
</a>
</g>
</g>
<!-- Node16 -->
<g id="Node000016" class="node">
<title>Node16</title>
<g id="a_Node000016"><a xlink:href="expand_8c.html#ac1225d88933658edb6e51e4ed8f003c3" target="_top" xlink:title=" ">
<polygon fill="white" stroke="#666666" points="1074,-251.5 1001,-251.5 1001,-232.5 1074,-232.5 1074,-251.5"/>
<text text-anchor="middle" x="1037.5" y="-239.5" font-family="Helvetica,sans-Serif" font-size="10.00">val_append</text>
</a>
</g>
</g>
<!-- Node10&#45;&gt;Node16 -->
<g id="edge16_Node000010_Node000016" class="edge">
<title>Node10&#45;&gt;Node16</title>
<g id="a_edge16_Node000010_Node000016"><a xlink:title=" ">
<path fill="none" stroke="#63b8ff" d="M926.63,-198.53C942.38,-205.85 964.89,-216.02 985,-224 989.22,-225.68 993.67,-227.36 998.12,-228.98"/>
<polygon fill="#63b8ff" stroke="#63b8ff" points="997.15,-232.35 1007.74,-232.42 999.5,-225.76 997.15,-232.35"/>
</a>
</g>
</g>
<!-- Node17 -->
<g id="Node000017" class="node">
<title>Node17</title>
<g id="a_Node000017"><a xlink:href="expand_8c.html#aa0106a12d15398cad9ca20f96f1eb374" target="_top" xlink:title=" ">
<polygon fill="white" stroke="#666666" points="1081.5,-214.5 993.5,-214.5 993.5,-195.5 1081.5,-195.5 1081.5,-214.5"/>
<text text-anchor="middle" x="1037.5" y="-202.5" font-family="Helvetica,sans-Serif" font-size="10.00">var_exp_brack</text>
</a>
</g>
</g>
<!-- Node10&#45;&gt;Node17 -->
<g id="edge17_Node000010_Node000017" class="edge">
<title>Node10&#45;&gt;Node17</title>
<g id="a_edge17_Node000010_Node000017"><a xlink:title=" ">
<path fill="none" stroke="#63b8ff" d="M942.71,-193.46C955.16,-194.99 969.38,-196.74 982.92,-198.41"/>
<polygon fill="#63b8ff" stroke="#63b8ff" points="982.75,-201.91 993.1,-199.66 983.6,-194.96 982.75,-201.91"/>
</a>
</g>
</g>
<!-- Node18 -->
<g id="Node000018" class="node">
<title>Node18</title>
<g id="a_Node000018"><a xlink:href="expand_8c.html#a5785fb584914d075e9a5d933e903823c" target="_top" xlink:title=" ">
<polygon fill="white" stroke="#666666" points="1090,-177.5 985,-177.5 985,-158.5 1090,-158.5 1090,-177.5"/>
<text text-anchor="middle" x="1037.5" y="-165.5" font-family="Helvetica,sans-Serif" font-size="10.00">var_exp_no_brack</text>
</a>
</g>
</g>
<!-- Node10&#45;&gt;Node18 -->
<g id="edge18_Node000010_Node000018" class="edge">
<title>Node10&#45;&gt;Node18</title>
<g id="a_edge18_Node000010_Node000018"><a xlink:title=" ">
<path fill="none" stroke="#63b8ff" d="M942.71,-183.15C952.72,-181.53 963.87,-179.73 974.89,-177.95"/>
<polygon fill="#63b8ff" stroke="#63b8ff" points="975.62,-181.38 984.94,-176.33 974.51,-174.47 975.62,-181.38"/>
</a>
</g>
</g>
<!-- Node12&#45;&gt;Node12 -->
<g id="edge12_Node000012_Node000012" class="edge">
<title>Node12&#45;&gt;Node12</title>
<g id="a_edge12_Node000012_Node000012"><a xlink:title=" ">
<path fill="none" stroke="#63b8ff" d="M1019.93,-122.58C1011.38,-131.23 1017.24,-140.5 1037.5,-140.5 1050.16,-140.5 1057.2,-136.88 1058.61,-132.05"/>
<polygon fill="#63b8ff" stroke="#63b8ff" points="1061.85,-130.72 1055.07,-122.58 1055.29,-133.18 1061.85,-130.72"/>
</a>
</g>
</g>
<!-- Node12&#45;&gt;Node13 -->
<g id="edge13_Node000012_Node000013" class="edge">
<title>Node12&#45;&gt;Node13</title>
<g id="a_edge13_Node000012_Node000013"><a xlink:title=" ">
<path fill="none" stroke="#63b8ff" d="M1064.01,-105.21C1072.51,-102.19 1081.87,-98.4 1090,-94 1105.56,-85.58 1121.55,-73.62 1133.4,-64"/>
<polygon fill="#63b8ff" stroke="#63b8ff" points="1135.77,-66.58 1141.22,-57.5 1131.3,-61.2 1135.77,-66.58"/>
</a>
</g>
</g>
<!-- Node14 -->
<g id="Node000014" class="node">
<title>Node14</title>
<g id="a_Node000014"><a xlink:href="hashmap_8c.html#a5b2c78a0a08d606dfbf21fe636373e6e" target="_top" xlink:title=" ">
<polygon fill="white" stroke="#666666" points="1178.5,-103.5 1127.5,-103.5 1127.5,-84.5 1178.5,-84.5 1178.5,-103.5"/>
<text text-anchor="middle" x="1153" y="-91.5" font-family="Helvetica,sans-Serif" font-size="10.00">special</text>
</a>
</g>
</g>
<!-- Node12&#45;&gt;Node14 -->
<g id="edge14_Node000012_Node000014" class="edge">
<title>Node12&#45;&gt;Node14</title>
<g id="a_edge14_Node000012_Node000014"><a xlink:title=" ">
<path fill="none" stroke="#63b8ff" d="M1064.25,-108.69C1079.85,-106.08 1099.96,-102.71 1116.99,-99.86"/>
<polygon fill="#63b8ff" stroke="#63b8ff" points="1117.84,-103.27 1127.13,-98.16 1116.69,-96.36 1117.84,-103.27"/>
</a>
</g>
</g>
<!-- Node14&#45;&gt;Node15 -->
<g id="edge15_Node000014_Node000015" class="edge">
<title>Node14&#45;&gt;Node15</title>
<g id="a_edge15_Node000014_Node000015"><a xlink:title=" ">
<path fill="none" stroke="#63b8ff" d="M1173.81,-84.41C1183.75,-79.6 1195.93,-73.7 1206.6,-68.54"/>
<polygon fill="#63b8ff" stroke="#63b8ff" points="1208.41,-71.55 1215.88,-64.04 1205.36,-65.25 1208.41,-71.55"/>
</a>
</g>
</g>
<!-- Node19 -->
<g id="Node000019" class="node">
<title>Node19</title>
<g id="a_Node000019"><a xlink:href="expand_8c.html#a66cc7be396f0ef502a888b56eee2f4bf" target="_top" xlink:title=" ">
<polygon fill="white" stroke="#666666" points="1180,-177.5 1126,-177.5 1126,-158.5 1180,-158.5 1180,-177.5"/>
<text text-anchor="middle" x="1153" y="-165.5" font-family="Helvetica,sans-Serif" font-size="10.00">is_word</text>
</a>
</g>
</g>
<!-- Node18&#45;&gt;Node19 -->
<g id="edge19_Node000018_Node000019" class="edge">
<title>Node18&#45;&gt;Node19</title>
<g id="a_edge19_Node000018_Node000019"><a xlink:title=" ">
<path fill="none" stroke="#63b8ff" d="M1090.27,-168C1098.8,-168 1107.49,-168 1115.55,-168"/>
<polygon fill="#63b8ff" stroke="#63b8ff" points="1115.72,-171.5 1125.72,-168 1115.72,-164.5 1115.72,-171.5"/>
</a>
</g>
</g>
</g>
</svg>
