<?xml version="1.0" encoding="UTF-8" standalone="no"?>
<!DOCTYPE svg PUBLIC "-//W3C//DTD SVG 1.1//EN"
 "http://www.w3.org/Graphics/SVG/1.1/DTD/svg11.dtd">
<!-- Generated by graphviz version 2.43.0 (0)
 -->
<!-- Title: exec Pages: 1 -->
<svg width="1379pt" height="434pt"
 viewBox="0.00 0.00 1379.00 433.50" xmlns="http://www.w3.org/2000/svg" xmlns:xlink="http://www.w3.org/1999/xlink">
<g id="graph0" class="graph" transform="scale(1 1) rotate(0) translate(4 429.5)">
<title>exec</title>
<!-- Node1 -->
<g id="Node000001" class="node">
<title>Node1</title>
<g id="a_Node000001"><a xlink:title="Execute the command with given arguments.">
<polygon fill="#999999" stroke="#666666" points="39,-208 0,-208 0,-189 39,-189 39,-208"/>
<text text-anchor="middle" x="19.5" y="-196" font-family="Helvetica,sans-Serif" font-size="10.00">exec</text>
</a>
</g>
</g>
<!-- Node2 -->
<g id="Node000002" class="node">
<title>Node2</title>
<g id="a_Node000002"><a xlink:href="hashmap_8c.html#a3bf95c887f7eac3eb074725515feba49" target="_top" xlink:title="Add a variable to the dictionnary.">
<polygon fill="white" stroke="#666666" points="263.5,-227 207.5,-227 207.5,-208 263.5,-208 263.5,-227"/>
<text text-anchor="middle" x="235.5" y="-215" font-family="Helvetica,sans-Serif" font-size="10.00">add_var</text>
</a>
</g>
</g>
<!-- Node1&#45;&gt;Node2 -->
<g id="edge1_Node000001_Node000002" class="edge">
<title>Node1&#45;&gt;Node2</title>
<g id="a_edge1_Node000001_Node000002"><a xlink:title=" ">
<path fill="none" stroke="#63b8ff" d="M39.12,-200.15C74.21,-203.27 150.77,-210.07 196.94,-214.17"/>
<polygon fill="#63b8ff" stroke="#63b8ff" points="196.88,-217.67 207.15,-215.07 197.5,-210.7 196.88,-217.67"/>
</a>
</g>
</g>
<!-- Node11 -->
<g id="Node000011" class="node">
<title>Node11</title>
<g id="a_Node000011"><a xlink:href="expand_8c.html#aaf941edbfdd3ac08d813ff01acc1f963" target="_top" xlink:title=" ">
<polygon fill="white" stroke="#666666" points="1184,-412 1131,-412 1131,-393 1184,-393 1184,-412"/>
<text text-anchor="middle" x="1157.5" y="-400" font-family="Helvetica,sans-Serif" font-size="10.00">free_ex</text>
</a>
</g>
</g>
<!-- Node1&#45;&gt;Node11 -->
<g id="edge25_Node000001_Node000011" class="edge">
<title>Node1&#45;&gt;Node11</title>
<g id="a_edge25_Node000001_Node000011"><a xlink:title=" ">
<path fill="none" stroke="#63b8ff" d="M24.01,-208.25C40.33,-251.7 113.18,-425.5 234.5,-425.5 234.5,-425.5 234.5,-425.5 903,-425.5 980.81,-425.5 1071.51,-414.62 1120.56,-407.83"/>
<polygon fill="#63b8ff" stroke="#63b8ff" points="1121.25,-411.26 1130.66,-406.4 1120.27,-404.33 1121.25,-411.26"/>
</a>
</g>
</g>
<!-- Node22 -->
<g id="Node000022" class="node">
<title>Node22</title>
<g id="a_Node000022"><a xlink:href="redir__exec_8c.html#ace19b4ee14b7f7739a289d5119c95663" target="_top" xlink:title="Apply redirs.">
<polygon fill="white" stroke="#666666" points="147.5,-94 76.5,-94 76.5,-75 147.5,-75 147.5,-94"/>
<text text-anchor="middle" x="112" y="-82" font-family="Helvetica,sans-Serif" font-size="10.00">redir_apply</text>
</a>
</g>
</g>
<!-- Node1&#45;&gt;Node22 -->
<g id="edge26_Node000001_Node000022" class="edge">
<title>Node1&#45;&gt;Node22</title>
<g id="a_edge26_Node000001_Node000022"><a xlink:title=" ">
<path fill="none" stroke="#63b8ff" d="M28.22,-188.78C43.44,-169.6 77.56,-126.62 96.91,-102.25"/>
<polygon fill="#63b8ff" stroke="#63b8ff" points="99.83,-104.2 103.3,-94.19 94.34,-99.85 99.83,-104.2"/>
</a>
</g>
</g>
<!-- Node27 -->
<g id="Node000027" class="node">
<title>Node27</title>
<g id="a_Node000027"><a xlink:href="exec_8c.html#a10741ea1c82bec65aa88b283c4a68e5b" target="_top" xlink:title="Update special var &quot;?&quot; with given status.">
<polygon fill="white" stroke="#666666" points="149,-189 75,-189 75,-170 149,-170 149,-189"/>
<text text-anchor="middle" x="112" y="-177" font-family="Helvetica,sans-Serif" font-size="10.00">update_exit</text>
</a>
</g>
</g>
<!-- Node1&#45;&gt;Node27 -->
<g id="edge32_Node000001_Node000027" class="edge">
<title>Node1&#45;&gt;Node27</title>
<g id="a_edge32_Node000001_Node000027"><a xlink:title=" ">
<path fill="none" stroke="#63b8ff" d="M39.25,-194.56C46.78,-192.98 55.82,-191.08 64.9,-189.18"/>
<polygon fill="#63b8ff" stroke="#63b8ff" points="65.64,-192.6 74.71,-187.12 64.2,-185.75 65.64,-192.6"/>
</a>
</g>
</g>
<!-- Node3 -->
<g id="Node000003" class="node">
<title>Node3</title>
<g id="a_Node000003"><a xlink:href="hashmap_8c.html#aca86cd9ca85ac2e41fbb5c9e86ad6d6f" target="_top" xlink:title=" ">
<polygon fill="white" stroke="#666666" points="428.5,-293 343.5,-293 343.5,-274 428.5,-274 428.5,-293"/>
<text text-anchor="middle" x="386" y="-281" font-family="Helvetica,sans-Serif" font-size="10.00">expand_value</text>
</a>
</g>
</g>
<!-- Node2&#45;&gt;Node3 -->
<g id="edge2_Node000002_Node000003" class="edge">
<title>Node2&#45;&gt;Node3</title>
<g id="a_edge2_Node000002_Node000003"><a xlink:title=" ">
<path fill="none" stroke="#63b8ff" d="M258.09,-227.1C283.39,-238.34 325.48,-257.05 354.2,-269.81"/>
<polygon fill="#63b8ff" stroke="#63b8ff" points="352.82,-273.03 363.38,-273.89 355.66,-266.63 352.82,-273.03"/>
</a>
</g>
</g>
<!-- Node13 -->
<g id="Node000013" class="node">
<title>Node13</title>
<g id="a_Node000013"><a xlink:href="hash_8c.html#ac74a7e29e54c223be6213463974d6154" target="_top" xlink:title=" ">
<polygon fill="white" stroke="#666666" points="1293,-218 1253,-218 1253,-199 1293,-199 1293,-218"/>
<text text-anchor="middle" x="1273" y="-206" font-family="Helvetica,sans-Serif" font-size="10.00">hash</text>
</a>
</g>
</g>
<!-- Node2&#45;&gt;Node13 -->
<g id="edge23_Node000002_Node000013" class="edge">
<title>Node2&#45;&gt;Node13</title>
<g id="a_edge23_Node000002_Node000013"><a xlink:title=" ">
<path fill="none" stroke="#63b8ff" d="M263.78,-214.36C313.13,-208.97 420.57,-198.5 511.5,-198.5 511.5,-198.5 511.5,-198.5 1026.5,-198.5 1104.69,-198.5 1196.78,-203.63 1242.77,-206.54"/>
<polygon fill="#63b8ff" stroke="#63b8ff" points="1242.71,-210.04 1252.91,-207.19 1243.16,-203.06 1242.71,-210.04"/>
</a>
</g>
</g>
<!-- Node21 -->
<g id="Node000021" class="node">
<title>Node21</title>
<g id="a_Node000021"><a xlink:href="hashmap_8c.html#a5bcdd565d2ba5876c5ef1685625cdcfa" target="_top" xlink:title=" ">
<polygon fill="white" stroke="#666666" points="450,-246 322,-246 322,-227 450,-227 450,-246"/>
<text text-anchor="middle" x="386" y="-234" font-family="Helvetica,sans-Serif" font-size="10.00">update_or_append_var</text>
</a>
</g>
</g>
<!-- Node2&#45;&gt;Node21 -->
<g id="edge24_Node000002_Node000021" class="edge">
<title>Node2&#45;&gt;Node21</title>
<g id="a_edge24_Node000002_Node000021"><a xlink:title=" ">
<path fill="none" stroke="#63b8ff" d="M263.74,-220.98C277.39,-222.73 294.64,-224.94 311.81,-227.14"/>
<polygon fill="#63b8ff" stroke="#63b8ff" points="311.52,-230.63 321.88,-228.42 312.41,-223.68 311.52,-230.63"/>
</a>
</g>
</g>
<!-- Node4 -->
<g id="Node000004" class="node">
<title>Node4</title>
<g id="a_Node000004"><a xlink:href="expand_8c.html#ae22ff4719527d6b2b8bca3e43f576837" target="_top" xlink:title=" ">
<polygon fill="white" stroke="#666666" points="539,-312 486,-312 486,-293 539,-293 539,-312"/>
<text text-anchor="middle" x="512.5" y="-300" font-family="Helvetica,sans-Serif" font-size="10.00">expand</text>
</a>
</g>
</g>
<!-- Node3&#45;&gt;Node4 -->
<g id="edge3_Node000003_Node000004" class="edge">
<title>Node3&#45;&gt;Node4</title>
<g id="a_edge3_Node000003_Node000004"><a xlink:title=" ">
<path fill="none" stroke="#63b8ff" d="M428.8,-289.88C444.04,-292.2 461.11,-294.81 475.77,-297.05"/>
<polygon fill="#63b8ff" stroke="#63b8ff" points="475.54,-300.55 485.96,-298.6 476.6,-293.63 475.54,-300.55"/>
</a>
</g>
</g>
<!-- Node5 -->
<g id="Node000005" class="node">
<title>Node5</title>
<g id="a_Node000005"><a xlink:href="expand_8c.html#a492ca861a96ee6319b97b4b1d6ba9835" target="_top" xlink:title=" ">
<polygon fill="white" stroke="#666666" points="657,-312 575,-312 575,-293 657,-293 657,-312"/>
<text text-anchor="middle" x="616" y="-300" font-family="Helvetica,sans-Serif" font-size="10.00">expand_word</text>
</a>
</g>
</g>
<!-- Node4&#45;&gt;Node5 -->
<g id="edge4_Node000004_Node000005" class="edge">
<title>Node4&#45;&gt;Node5</title>
<g id="a_edge4_Node000004_Node000005"><a xlink:title=" ">
<path fill="none" stroke="#63b8ff" d="M539.11,-302.5C546.88,-302.5 555.7,-302.5 564.5,-302.5"/>
<polygon fill="#63b8ff" stroke="#63b8ff" points="564.78,-306 574.78,-302.5 564.78,-299 564.78,-306"/>
</a>
</g>
</g>
<!-- Node4&#45;&gt;Node11 -->
<g id="edge22_Node000004_Node000011" class="edge">
<title>Node4&#45;&gt;Node11</title>
<g id="a_edge22_Node000004_Node000011"><a xlink:title=" ">
<path fill="none" stroke="#63b8ff" d="M529.04,-312.09C566.63,-334.32 665.99,-387.5 756.5,-387.5 756.5,-387.5 756.5,-387.5 903,-387.5 980.83,-387.5 1071.88,-394.63 1120.89,-399.06"/>
<polygon fill="#63b8ff" stroke="#63b8ff" points="1120.7,-402.56 1130.98,-399.99 1121.34,-395.59 1120.7,-402.56"/>
</a>
</g>
</g>
<!-- Node6 -->
<g id="Node000006" class="node">
<title>Node6</title>
<g id="a_Node000006"><a xlink:href="expand_8c.html#a97a675ffacb4b71f4f3b4a30749d9f66" target="_top" xlink:title=" ">
<polygon fill="white" stroke="#666666" points="797,-246 718,-246 718,-227 797,-227 797,-246"/>
<text text-anchor="middle" x="757.5" y="-234" font-family="Helvetica,sans-Serif" font-size="10.00">append_char</text>
</a>
</g>
</g>
<!-- Node5&#45;&gt;Node6 -->
<g id="edge5_Node000005_Node000006" class="edge">
<title>Node5&#45;&gt;Node6</title>
<g id="a_edge5_Node000005_Node000006"><a xlink:title=" ">
<path fill="none" stroke="#63b8ff" d="M632.67,-292.97C647.8,-283.98 671.52,-270.43 693,-260.5 701.32,-256.65 710.44,-252.93 719.11,-249.61"/>
<polygon fill="#63b8ff" stroke="#63b8ff" points="720.5,-252.83 728.64,-246.05 718.05,-246.27 720.5,-252.83"/>
</a>
</g>
</g>
<!-- Node7 -->
<g id="Node000007" class="node">
<title>Node7</title>
<g id="a_Node000007"><a xlink:href="expand_8c.html#a6d4728fd992669e4bb35624d37972179" target="_top" xlink:title=" ">
<polygon fill="white" stroke="#666666" points="822,-359 693,-359 693,-340 822,-340 822,-359"/>
<text text-anchor="middle" x="757.5" y="-347" font-family="Helvetica,sans-Serif" font-size="10.00">double_quotes_expand</text>
</a>
</g>
</g>
<!-- Node5&#45;&gt;Node7 -->
<g id="edge6_Node000005_Node000007" class="edge">
<title>Node5&#45;&gt;Node7</title>
<g id="a_edge6_Node000005_Node000007"><a xlink:title=" ">
<path fill="none" stroke="#63b8ff" d="M640.43,-312.05C655.36,-317.99 675.17,-325.58 693,-331.5 698.71,-333.4 704.76,-335.27 710.75,-337.06"/>
<polygon fill="#63b8ff" stroke="#63b8ff" points="710.15,-340.53 720.73,-339.96 712.11,-333.8 710.15,-340.53"/>
</a>
</g>
</g>
<!-- Node10 -->
<g id="Node000010" class="node">
<title>Node10</title>
<g id="a_Node000010"><a xlink:href="expand_8c.html#a0a337c3a6b2595b2b8c03e171c9559ba" target="_top" xlink:title=" ">
<polygon fill="white" stroke="#666666" points="1062.5,-322 988.5,-322 988.5,-303 1062.5,-303 1062.5,-322"/>
<text text-anchor="middle" x="1025.5" y="-310" font-family="Helvetica,sans-Serif" font-size="10.00">var_expand</text>
</a>
</g>
</g>
<!-- Node5&#45;&gt;Node10 -->
<g id="edge21_Node000005_Node000010" class="edge">
<title>Node5&#45;&gt;Node10</title>
<g id="a_edge21_Node000005_Node000010"><a xlink:title=" ">
<path fill="none" stroke="#63b8ff" d="M657.17,-297.48C668.72,-296.25 681.34,-295.11 693,-294.5 750.25,-291.49 764.72,-291.96 822,-294.5 875.8,-296.89 937.4,-302.82 978.39,-307.23"/>
<polygon fill="#63b8ff" stroke="#63b8ff" points="978.03,-310.71 988.35,-308.31 978.79,-303.75 978.03,-310.71"/>
</a>
</g>
</g>
<!-- Node20 -->
<g id="Node000020" class="node">
<title>Node20</title>
<g id="a_Node000020"><a xlink:href="expand_8c.html#ad45c8055962fa36940e109b04b7e562e" target="_top" xlink:title=" ">
<polygon fill="white" stroke="#666666" points="817.5,-322 697.5,-322 697.5,-303 817.5,-303 817.5,-322"/>
<text text-anchor="middle" x="757.5" y="-310" font-family="Helvetica,sans-Serif" font-size="10.00">single_quote_expand</text>
</a>
</g>
</g>
<!-- Node5&#45;&gt;Node20 -->
<g id="edge20_Node000005_Node000020" class="edge">
<title>Node5&#45;&gt;Node20</title>
<g id="a_edge20_Node000005_Node000020"><a xlink:title=" ">
<path fill="none" stroke="#63b8ff" d="M657.35,-305.39C666.7,-306.06 676.92,-306.8 687.13,-307.53"/>
<polygon fill="#63b8ff" stroke="#63b8ff" points="687.08,-311.03 697.3,-308.26 687.58,-304.05 687.08,-311.03"/>
</a>
</g>
</g>
<!-- Node8 -->
<g id="Node000008" class="node">
<title>Node8</title>
<g id="a_Node000008"><a xlink:href="expand_8c.html#a4a10ac07faa08df14e0a438c5feace6b" target="_top" xlink:title=" ">
<polygon fill="white" stroke="#666666" points="946,-359 858,-359 858,-340 946,-340 946,-359"/>
<text text-anchor="middle" x="902" y="-347" font-family="Helvetica,sans-Serif" font-size="10.00">in_dquote_exp</text>
</a>
</g>
</g>
<!-- Node7&#45;&gt;Node8 -->
<g id="edge7_Node000007_Node000008" class="edge">
<title>Node7&#45;&gt;Node8</title>
<g id="a_edge7_Node000007_Node000008"><a xlink:title=" ">
<path fill="none" stroke="#63b8ff" d="M822.25,-349.5C830.69,-349.5 839.27,-349.5 847.52,-349.5"/>
<polygon fill="#63b8ff" stroke="#63b8ff" points="847.74,-353 857.74,-349.5 847.74,-346 847.74,-353"/>
</a>
</g>
</g>
<!-- Node9 -->
<g id="Node000009" class="node">
<title>Node9</title>
<g id="a_Node000009"><a xlink:href="expand_8c.html#a46b3549565fede625ad04072f2654aa4" target="_top" xlink:title=" ">
<polygon fill="white" stroke="#666666" points="1069,-359 982,-359 982,-340 1069,-340 1069,-359"/>
<text text-anchor="middle" x="1025.5" y="-347" font-family="Helvetica,sans-Serif" font-size="10.00">is_expandable</text>
</a>
</g>
</g>
<!-- Node8&#45;&gt;Node9 -->
<g id="edge8_Node000008_Node000009" class="edge">
<title>Node8&#45;&gt;Node9</title>
<g id="a_edge8_Node000008_Node000009"><a xlink:title=" ">
<path fill="none" stroke="#63b8ff" d="M946.18,-349.5C954.42,-349.5 963.14,-349.5 971.64,-349.5"/>
<polygon fill="#63b8ff" stroke="#63b8ff" points="971.87,-353 981.87,-349.5 971.87,-346 971.87,-353"/>
</a>
</g>
</g>
<!-- Node8&#45;&gt;Node10 -->
<g id="edge9_Node000008_Node000010" class="edge">
<title>Node8&#45;&gt;Node10</title>
<g id="a_edge9_Node000008_Node000010"><a xlink:title=" ">
<path fill="none" stroke="#63b8ff" d="M934.29,-339.97C949.2,-335.43 967.22,-329.94 983.23,-325.07"/>
<polygon fill="#63b8ff" stroke="#63b8ff" points="984.35,-328.39 992.89,-322.12 982.31,-321.69 984.35,-328.39"/>
</a>
</g>
</g>
<!-- Node10&#45;&gt;Node11 -->
<g id="edge10_Node000010_Node000011" class="edge">
<title>Node10&#45;&gt;Node11</title>
<g id="a_edge10_Node000010_Node000011"><a xlink:title=" ">
<path fill="none" stroke="#63b8ff" d="M1053.89,-322.05C1059.23,-324.63 1064.54,-327.76 1069,-331.5 1090.83,-349.79 1082.42,-367.15 1105,-384.5 1109.81,-388.2 1115.44,-391.17 1121.17,-393.55"/>
<polygon fill="#63b8ff" stroke="#63b8ff" points="1120.21,-396.92 1130.8,-397.02 1122.58,-390.34 1120.21,-396.92"/>
</a>
</g>
</g>
<!-- Node12 -->
<g id="Node000012" class="node">
<title>Node12</title>
<g id="a_Node000012"><a xlink:href="hashmap_8c.html#aa54a9eed65359c74557f0f55c9ca3dd3" target="_top" xlink:title="Get the variable from the dictionnary.">
<polygon fill="white" stroke="#666666" points="1184,-283 1131,-283 1131,-264 1184,-264 1184,-283"/>
<text text-anchor="middle" x="1157.5" y="-271" font-family="Helvetica,sans-Serif" font-size="10.00">get_var</text>
</a>
</g>
</g>
<!-- Node10&#45;&gt;Node12 -->
<g id="edge11_Node000010_Node000012" class="edge">
<title>Node10&#45;&gt;Node12</title>
<g id="a_edge11_Node000010_Node000012"><a xlink:title=" ">
<path fill="none" stroke="#63b8ff" d="M1058.3,-302.96C1077.25,-297.28 1101.34,-290.05 1120.92,-284.17"/>
<polygon fill="#63b8ff" stroke="#63b8ff" points="1122.12,-287.47 1130.69,-281.24 1120.11,-280.76 1122.12,-287.47"/>
</a>
</g>
</g>
<!-- Node16 -->
<g id="Node000016" class="node">
<title>Node16</title>
<g id="a_Node000016"><a xlink:href="expand_8c.html#ac1225d88933658edb6e51e4ed8f003c3" target="_top" xlink:title=" ">
<polygon fill="white" stroke="#666666" points="1194,-246 1121,-246 1121,-227 1194,-227 1194,-246"/>
<text text-anchor="middle" x="1157.5" y="-234" font-family="Helvetica,sans-Serif" font-size="10.00">val_append</text>
</a>
</g>
</g>
<!-- Node10&#45;&gt;Node16 -->
<g id="edge16_Node000010_Node000016" class="edge">
<title>Node10&#45;&gt;Node16</title>
<g id="a_edge16_Node000010_Node000016"><a xlink:title=" ">
<path fill="none" stroke="#63b8ff" d="M1037.55,-302.95C1052.18,-290.68 1079.15,-269.31 1105,-255.5 1108.74,-253.5 1112.73,-251.63 1116.77,-249.89"/>
<polygon fill="#63b8ff" stroke="#63b8ff" points="1118.23,-253.08 1126.21,-246.1 1115.63,-246.58 1118.23,-253.08"/>
</a>
</g>
</g>
<!-- Node17 -->
<g id="Node000017" class="node">
<title>Node17</title>
<g id="a_Node000017"><a xlink:href="expand_8c.html#aa0106a12d15398cad9ca20f96f1eb374" target="_top" xlink:title=" ">
<polygon fill="white" stroke="#666666" points="1201.5,-375 1113.5,-375 1113.5,-356 1201.5,-356 1201.5,-375"/>
<text text-anchor="middle" x="1157.5" y="-363" font-family="Helvetica,sans-Serif" font-size="10.00">var_exp_brack</text>
</a>
</g>
</g>
<!-- Node10&#45;&gt;Node17 -->
<g id="edge17_Node000010_Node000017" class="edge">
<title>Node10&#45;&gt;Node17</title>
<g id="a_edge17_Node000010_Node000017"><a xlink:title=" ">
<path fill="none" stroke="#63b8ff" d="M1047.84,-322.04C1070.59,-332.21 1103.55,-346.93 1105,-347.5 1109.22,-349.18 1113.67,-350.86 1118.12,-352.48"/>
<polygon fill="#63b8ff" stroke="#63b8ff" points="1117.15,-355.85 1127.74,-355.92 1119.5,-349.26 1117.15,-355.85"/>
</a>
</g>
</g>
<!-- Node18 -->
<g id="Node000018" class="node">
<title>Node18</title>
<g id="a_Node000018"><a xlink:href="expand_8c.html#a5785fb584914d075e9a5d933e903823c" target="_top" xlink:title=" ">
<polygon fill="white" stroke="#666666" points="1210,-338 1105,-338 1105,-319 1210,-319 1210,-338"/>
<text text-anchor="middle" x="1157.5" y="-326" font-family="Helvetica,sans-Serif" font-size="10.00">var_exp_no_brack</text>
</a>
</g>
</g>
<!-- Node10&#45;&gt;Node18 -->
<g id="edge18_Node000010_Node000018" class="edge">
<title>Node10&#45;&gt;Node18</title>
<g id="a_edge18_Node000010_Node000018"><a xlink:title=" ">
<path fill="none" stroke="#63b8ff" d="M1062.71,-316.96C1072.72,-318.19 1083.87,-319.56 1094.89,-320.92"/>
<polygon fill="#63b8ff" stroke="#63b8ff" points="1094.58,-324.41 1104.94,-322.15 1095.44,-317.46 1094.58,-324.41"/>
</a>
</g>
</g>
<!-- Node12&#45;&gt;Node12 -->
<g id="edge12_Node000012_Node000012" class="edge">
<title>Node12&#45;&gt;Node12</title>
<g id="a_edge12_Node000012_Node000012"><a xlink:title=" ">
<path fill="none" stroke="#63b8ff" d="M1139.93,-283.08C1131.38,-291.73 1137.24,-301 1157.5,-301 1170.16,-301 1177.2,-297.38 1178.61,-292.55"/>
<polygon fill="#63b8ff" stroke="#63b8ff" points="1181.85,-291.22 1175.07,-283.08 1175.29,-293.68 1181.85,-291.22"/>
</a>
</g>
</g>
<!-- Node12&#45;&gt;Node13 -->
<g id="edge13_Node000012_Node000013" class="edge">
<title>Node12&#45;&gt;Node13</title>
<g id="a_edge13_Node000012_Node000013"><a xlink:title=" ">
<path fill="none" stroke="#63b8ff" d="M1184.05,-266.32C1192.55,-263.48 1201.9,-259.84 1210,-255.5 1225.71,-247.07 1241.7,-234.84 1253.5,-224.97"/>
<polygon fill="#63b8ff" stroke="#63b8ff" points="1255.98,-227.46 1261.3,-218.29 1251.43,-222.14 1255.98,-227.46"/>
</a>
</g>
</g>
<!-- Node14 -->
<g id="Node000014" class="node">
<title>Node14</title>
<g id="a_Node000014"><a xlink:href="hashmap_8c.html#a5b2c78a0a08d606dfbf21fe636373e6e" target="_top" xlink:title=" ">
<polygon fill="white" stroke="#666666" points="1298.5,-264 1247.5,-264 1247.5,-245 1298.5,-245 1298.5,-264"/>
<text text-anchor="middle" x="1273" y="-252" font-family="Helvetica,sans-Serif" font-size="10.00">special</text>
</a>
</g>
</g>
<!-- Node12&#45;&gt;Node14 -->
<g id="edge14_Node000012_Node000014" class="edge">
<title>Node12&#45;&gt;Node14</title>
<g id="a_edge14_Node000012_Node000014"><a xlink:title=" ">
<path fill="none" stroke="#63b8ff" d="M1184.25,-269.19C1199.85,-266.58 1219.96,-263.21 1236.99,-260.36"/>
<polygon fill="#63b8ff" stroke="#63b8ff" points="1237.84,-263.77 1247.13,-258.66 1236.69,-256.86 1237.84,-263.77"/>
</a>
</g>
</g>
<!-- Node15 -->
<g id="Node000015" class="node">
<title>Node15</title>
<g id="a_Node000015"><a xlink:href="itoa_8c.html#a43f392ec16afbe6cdb1ee6d1f1347f99" target="_top" xlink:title="Convert int to string.">
<polygon fill="white" stroke="#666666" points="1371,-226 1336,-226 1336,-207 1371,-207 1371,-226"/>
<text text-anchor="middle" x="1353.5" y="-214" font-family="Helvetica,sans-Serif" font-size="10.00">itoa</text>
</a>
</g>
</g>
<!-- Node14&#45;&gt;Node15 -->
<g id="edge15_Node000014_Node000015" class="edge">
<title>Node14&#45;&gt;Node15</title>
<g id="a_edge15_Node000014_Node000015"><a xlink:title=" ">
<path fill="none" stroke="#63b8ff" d="M1293.81,-244.91C1303.75,-240.1 1315.93,-234.2 1326.6,-229.04"/>
<polygon fill="#63b8ff" stroke="#63b8ff" points="1328.41,-232.05 1335.88,-224.54 1325.36,-225.75 1328.41,-232.05"/>
</a>
</g>
</g>
<!-- Node19 -->
<g id="Node000019" class="node">
<title>Node19</title>
<g id="a_Node000019"><a xlink:href="expand_8c.html#a66cc7be396f0ef502a888b56eee2f4bf" target="_top" xlink:title=" ">
<polygon fill="white" stroke="#666666" points="1300,-338 1246,-338 1246,-319 1300,-319 1300,-338"/>
<text text-anchor="middle" x="1273" y="-326" font-family="Helvetica,sans-Serif" font-size="10.00">is_word</text>
</a>
</g>
</g>
<!-- Node18&#45;&gt;Node19 -->
<g id="edge19_Node000018_Node000019" class="edge">
<title>Node18&#45;&gt;Node19</title>
<g id="a_edge19_Node000018_Node000019"><a xlink:title=" ">
<path fill="none" stroke="#63b8ff" d="M1210.27,-328.5C1218.8,-328.5 1227.49,-328.5 1235.55,-328.5"/>
<polygon fill="#63b8ff" stroke="#63b8ff" points="1235.72,-332 1245.72,-328.5 1235.72,-325 1235.72,-332"/>
</a>
</g>
</g>
<!-- Node23 -->
<g id="Node000023" class="node">
<title>Node23</title>
<g id="a_Node000023"><a xlink:href="redir__exec_8c.html#a5a3ff9da1f0e0d2c0081574a73114b1a" target="_top" xlink:title="Save fd state.">
<polygon fill="white" stroke="#666666" points="263,-19 208,-19 208,0 263,0 263,-19"/>
<text text-anchor="middle" x="235.5" y="-7" font-family="Helvetica,sans-Serif" font-size="10.00">fd_save</text>
</a>
</g>
</g>
<!-- Node22&#45;&gt;Node23 -->
<g id="edge27_Node000022_Node000023" class="edge">
<title>Node22&#45;&gt;Node23</title>
<g id="a_edge27_Node000022_Node000023"><a xlink:title=" ">
<path fill="none" stroke="#63b8ff" d="M122.97,-74.86C136.22,-62.5 160.78,-41.02 185,-27.5 189.22,-25.14 193.81,-22.99 198.43,-21.07"/>
<polygon fill="#63b8ff" stroke="#63b8ff" points="199.79,-24.29 207.86,-17.42 197.27,-17.76 199.79,-24.29"/>
</a>
</g>
</g>
<!-- Node24 -->
<g id="Node000024" class="node">
<title>Node24</title>
<g id="a_Node000024"><a xlink:href="redir__exec_8c.html#a007e10b16e39db1606efa3f9650fc163" target="_top" xlink:title="Handle dup redir.">
<polygon fill="white" stroke="#666666" points="286,-132 185,-132 185,-113 286,-113 286,-132"/>
<text text-anchor="middle" x="235.5" y="-120" font-family="Helvetica,sans-Serif" font-size="10.00">handle_dup_redir</text>
</a>
</g>
</g>
<!-- Node22&#45;&gt;Node24 -->
<g id="edge28_Node000022_Node000024" class="edge">
<title>Node22&#45;&gt;Node24</title>
<g id="a_edge28_Node000022_Node000024"><a xlink:title=" ">
<path fill="none" stroke="#63b8ff" d="M143.66,-94.09C158.91,-98.86 177.55,-104.69 193.97,-109.82"/>
<polygon fill="#63b8ff" stroke="#63b8ff" points="193.26,-113.27 203.85,-112.91 195.35,-106.59 193.26,-113.27"/>
</a>
</g>
</g>
<!-- Node25 -->
<g id="Node000025" class="node">
<title>Node25</title>
<g id="a_Node000025"><a xlink:href="redir__exec_8c.html#abd4469671025c9985273fcde19dc69ae" target="_top" xlink:title="Read io num from string.">
<polygon fill="white" stroke="#666666" points="412.5,-113 359.5,-113 359.5,-94 412.5,-94 412.5,-113"/>
<text text-anchor="middle" x="386" y="-101" font-family="Helvetica,sans-Serif" font-size="10.00">read_io</text>
</a>
</g>
</g>
<!-- Node22&#45;&gt;Node25 -->
<g id="edge31_Node000022_Node000025" class="edge">
<title>Node22&#45;&gt;Node25</title>
<g id="a_edge31_Node000022_Node000025"><a xlink:title=" ">
<path fill="none" stroke="#63b8ff" d="M147.73,-86.93C199.58,-90.55 296.75,-97.34 349.21,-101"/>
<polygon fill="#63b8ff" stroke="#63b8ff" points="349.17,-104.51 359.39,-101.71 349.66,-97.52 349.17,-104.51"/>
</a>
</g>
</g>
<!-- Node26 -->
<g id="Node000026" class="node">
<title>Node26</title>
<g id="a_Node000026"><a xlink:href="redir__exec_8c.html#a65f8df655786afa907a1f7029bea8088" target="_top" xlink:title="Open file for redir.">
<polygon fill="white" stroke="#666666" points="280,-56 191,-56 191,-37 280,-37 280,-56"/>
<text text-anchor="middle" x="235.5" y="-44" font-family="Helvetica,sans-Serif" font-size="10.00">open_redir_file</text>
</a>
</g>
</g>
<!-- Node22&#45;&gt;Node26 -->
<g id="edge30_Node000022_Node000026" class="edge">
<title>Node22&#45;&gt;Node26</title>
<g id="a_edge30_Node000022_Node000026"><a xlink:title=" ">
<path fill="none" stroke="#63b8ff" d="M143.66,-74.91C158.91,-70.14 177.55,-64.31 193.97,-59.18"/>
<polygon fill="#63b8ff" stroke="#63b8ff" points="195.35,-62.41 203.85,-56.09 193.26,-55.73 195.35,-62.41"/>
</a>
</g>
</g>
<!-- Node24&#45;&gt;Node25 -->
<g id="edge29_Node000024_Node000025" class="edge">
<title>Node24&#45;&gt;Node25</title>
<g id="a_edge29_Node000024_Node000025"><a xlink:title=" ">
<path fill="none" stroke="#63b8ff" d="M286.36,-116.12C306.98,-113.48 330.42,-110.48 349.27,-108.07"/>
<polygon fill="#63b8ff" stroke="#63b8ff" points="349.76,-111.54 359.23,-106.8 348.87,-104.59 349.76,-111.54"/>
</a>
</g>
</g>
<!-- Node27&#45;&gt;Node2 -->
<g id="edge33_Node000027_Node000002" class="edge">
<title>Node27&#45;&gt;Node2</title>
<g id="a_edge33_Node000027_Node000002"><a xlink:title=" ">
<path fill="none" stroke="#63b8ff" d="M143.66,-189.09C160,-194.2 180.22,-200.52 197.43,-205.91"/>
<polygon fill="#63b8ff" stroke="#63b8ff" points="196.58,-209.31 207.17,-208.95 198.67,-202.63 196.58,-209.31"/>
</a>
</g>
</g>
<!-- Node27&#45;&gt;Node15 -->
<g id="edge34_Node000027_Node000015" class="edge">
<title>Node27&#45;&gt;Node15</title>
<g id="a_edge34_Node000027_Node000015"><a xlink:title=" ">
<path fill="none" stroke="#63b8ff" d="M149.02,-175.38C201.04,-169.79 300.27,-160.5 385,-160.5 385,-160.5 385,-160.5 1158.5,-160.5 1222.79,-160.5 1239.27,-169.4 1300,-190.5 1309.07,-193.65 1318.6,-198.02 1327.01,-202.27"/>
<polygon fill="#63b8ff" stroke="#63b8ff" points="1325.46,-205.41 1335.94,-206.96 1328.71,-199.21 1325.46,-205.41"/>
</a>
</g>
</g>
</g>
</svg>
