<?xml version="1.0" encoding="UTF-8" standalone="no"?>
<!DOCTYPE svg PUBLIC "-//W3C//DTD SVG 1.1//EN"
 "http://www.w3.org/Graphics/SVG/1.1/DTD/svg11.dtd">
<!-- Generated by graphviz version 2.43.0 (0)
 -->
<!-- Title: free_ex Pages: 1 -->
<svg width="1924pt" height="594pt"
 viewBox="0.00 0.00 1924.00 593.71" xmlns="http://www.w3.org/2000/svg" xmlns:xlink="http://www.w3.org/1999/xlink">
<g id="graph0" class="graph" transform="scale(1 1) rotate(0) translate(4 589.71)">
<title>free_ex</title>
<!-- Node1 -->
<g id="Node000001" class="node">
<title>Node1</title>
<g id="a_Node000001"><a xlink:title=" ">
<polygon fill="#999999" stroke="#666666" points="1916,-367.21 1863,-367.21 1863,-348.21 1916,-348.21 1916,-367.21"/>
<text text-anchor="middle" x="1889.5" y="-355.21" font-family="Helvetica,sans-Serif" font-size="10.00">free_ex</text>
</a>
</g>
</g>
<!-- Node2 -->
<g id="Node000002" class="node">
<title>Node2</title>
<g id="a_Node000002"><a xlink:href="cd_8c.html#a592b884dd32e14e084c461b3372632b4" target="_top" xlink:title="Execute the cd builtin cmd.">
<polygon fill="white" stroke="#666666" points="832,-122.21 793,-122.21 793,-103.21 832,-103.21 832,-122.21"/>
<text text-anchor="middle" x="812.5" y="-110.21" font-family="Helvetica,sans-Serif" font-size="10.00">cd_b</text>
</a>
</g>
</g>
<!-- Node1&#45;&gt;Node2 -->
<g id="edge1_Node000001_Node000002" class="edge">
<title>Node1&#45;&gt;Node2</title>
<g id="a_edge1_Node000001_Node000002"><a xlink:title=" ">
<path fill="none" stroke="#63b8ff" d="M1883.08,-338.07C1864.89,-276.87 1799.92,-93.71 1674,-93.71 1674,-93.71 1674,-93.71 1071,-93.71 981.35,-93.71 874.61,-105.31 832.2,-110.38"/>
<polygon fill="#63b8ff" stroke="#63b8ff" points="1879.81,-339.36 1885.94,-348 1886.54,-337.43 1879.81,-339.36"/>
</a>
</g>
</g>
<!-- Node4 -->
<g id="Node000004" class="node">
<title>Node4</title>
<g id="a_Node000004"><a xlink:href="exec_8c.html#a287d81b4658832f192750310e2925917" target="_top" xlink:title="Execute the builtin command with given args.">
<polygon fill="white" stroke="#666666" points="615,-424.21 565,-424.21 565,-405.21 615,-405.21 615,-424.21"/>
<text text-anchor="middle" x="590" y="-412.21" font-family="Helvetica,sans-Serif" font-size="10.00">exec_b</text>
</a>
</g>
</g>
<!-- Node1&#45;&gt;Node4 -->
<g id="edge32_Node000001_Node000004" class="edge">
<title>Node1&#45;&gt;Node4</title>
<g id="a_edge32_Node000001_Node000004"><a xlink:title=" ">
<path fill="none" stroke="#63b8ff" d="M1876.09,-375.3C1846.24,-415.32 1766.08,-509.71 1674,-509.71 1674,-509.71 1674,-509.71 1282.5,-509.71 1049.78,-509.71 991.6,-490.68 762,-452.71 709.19,-443.98 648.17,-429.3 615.19,-420.97"/>
<polygon fill="#63b8ff" stroke="#63b8ff" points="1878.92,-377.36 1881.98,-367.22 1873.26,-373.24 1878.92,-377.36"/>
</a>
</g>
</g>
<!-- Node5 -->
<g id="Node000005" class="node">
<title>Node5</title>
<g id="a_Node000005"><a xlink:href="exec_8c.html#ae65edaa99b26b49d60c451157d38b34a" target="_top" xlink:title="Execute les commandes avec les args donnes.">
<polygon fill="white" stroke="#666666" points="529,-481.21 464,-481.21 464,-462.21 529,-462.21 529,-481.21"/>
<text text-anchor="middle" x="496.5" y="-469.21" font-family="Helvetica,sans-Serif" font-size="10.00">exec_cmd</text>
</a>
</g>
</g>
<!-- Node1&#45;&gt;Node5 -->
<g id="edge33_Node000001_Node000005" class="edge">
<title>Node1&#45;&gt;Node5</title>
<g id="a_edge33_Node000001_Node000005"><a xlink:title=" ">
<path fill="none" stroke="#63b8ff" d="M1882.44,-377.23C1873.75,-402.38 1855.6,-446.16 1827,-473.71 1772.61,-526.13 1749.54,-547.71 1674,-547.71 1674,-547.71 1674,-547.71 687.5,-547.71 616.8,-547.71 541.21,-501.79 511.05,-481.34"/>
<polygon fill="#63b8ff" stroke="#63b8ff" points="1885.87,-377.99 1885.67,-367.4 1879.22,-375.8 1885.87,-377.99"/>
</a>
</g>
</g>
<!-- Node20 -->
<g id="Node000020" class="node">
<title>Node20</title>
<g id="a_Node000020"><a xlink:href="exec_8c.html#a9707f3708c634be49a10356313da4d30" target="_top" xlink:title="Execute the command with given arguments.">
<polygon fill="white" stroke="#666666" points="832,-443.21 793,-443.21 793,-424.21 832,-424.21 832,-443.21"/>
<text text-anchor="middle" x="812.5" y="-431.21" font-family="Helvetica,sans-Serif" font-size="10.00">exec</text>
</a>
</g>
</g>
<!-- Node1&#45;&gt;Node20 -->
<g id="edge30_Node000001_Node000020" class="edge">
<title>Node1&#45;&gt;Node20</title>
<g id="a_edge30_Node000001_Node000020"><a xlink:title=" ">
<path fill="none" stroke="#63b8ff" d="M1852.86,-347.45C1810.58,-336.2 1737.76,-319.71 1674,-319.71 1674,-319.71 1674,-319.71 1282.5,-319.71 1154.25,-319.71 1133.14,-380.64 1008,-408.71 944.38,-422.98 867.11,-429.89 832.2,-432.47"/>
<polygon fill="#63b8ff" stroke="#63b8ff" points="1852.11,-350.87 1862.68,-350.11 1853.94,-344.12 1852.11,-350.87"/>
</a>
</g>
</g>
<!-- Node21 -->
<g id="Node000021" class="node">
<title>Node21</title>
<g id="a_Node000021"><a xlink:href="expand_8c.html#ae22ff4719527d6b2b8bca3e43f576837" target="_top" xlink:title=" ">
<polygon fill="white" stroke="#666666" points="1310,-405.21 1257,-405.21 1257,-386.21 1310,-386.21 1310,-405.21"/>
<text text-anchor="middle" x="1283.5" y="-393.21" font-family="Helvetica,sans-Serif" font-size="10.00">expand</text>
</a>
</g>
</g>
<!-- Node1&#45;&gt;Node21 -->
<g id="edge34_Node000001_Node000021" class="edge">
<title>Node1&#45;&gt;Node21</title>
<g id="a_edge34_Node000001_Node000021"><a xlink:title=" ">
<path fill="none" stroke="#63b8ff" d="M1852.6,-357.71C1810,-357.71 1736.82,-357.71 1674,-357.71 1674,-357.71 1674,-357.71 1527.5,-357.71 1446.35,-357.71 1425.58,-361.81 1346,-377.71 1334.11,-380.09 1321.19,-383.71 1310.28,-387.07"/>
<polygon fill="#63b8ff" stroke="#63b8ff" points="1852.75,-361.21 1862.75,-357.71 1852.75,-354.21 1852.75,-361.21"/>
</a>
</g>
</g>
<!-- Node33 -->
<g id="Node000033" class="node">
<title>Node33</title>
<g id="a_Node000033"><a xlink:href="cd_8c.html#a5da9da23a18f984a482a5dec3bf3b37f" target="_top" xlink:title="Find the target path for cd command.">
<polygon fill="white" stroke="#666666" points="1704,-46.21 1642,-46.21 1642,-27.21 1704,-27.21 1704,-46.21"/>
<text text-anchor="middle" x="1673" y="-34.21" font-family="Helvetica,sans-Serif" font-size="10.00">find_path</text>
</a>
</g>
</g>
<!-- Node1&#45;&gt;Node33 -->
<g id="edge60_Node000001_Node000033" class="edge">
<title>Node1&#45;&gt;Node33</title>
<g id="a_edge60_Node000001_Node000033"><a xlink:title=" ">
<path fill="none" stroke="#63b8ff" d="M1886.71,-337.69C1881.2,-280.39 1862.66,-117.44 1827,-79.71 1795.06,-45.93 1738.88,-37.99 1704.21,-36.51"/>
<polygon fill="#63b8ff" stroke="#63b8ff" points="1883.26,-338.32 1887.67,-347.95 1890.23,-337.67 1883.26,-338.32"/>
</a>
</g>
</g>
<!-- Node34 -->
<g id="Node000034" class="node">
<title>Node34</title>
<g id="a_Node000034"><a xlink:href="expand_8c.html#a0a337c3a6b2595b2b8c03e171c9559ba" target="_top" xlink:title=" ">
<polygon fill="white" stroke="#666666" points="1827,-405.21 1753,-405.21 1753,-386.21 1827,-386.21 1827,-405.21"/>
<text text-anchor="middle" x="1790" y="-393.21" font-family="Helvetica,sans-Serif" font-size="10.00">var_expand</text>
</a>
</g>
</g>
<!-- Node1&#45;&gt;Node34 -->
<g id="edge62_Node000001_Node000034" class="edge">
<title>Node1&#45;&gt;Node34</title>
<g id="a_edge62_Node000001_Node000034"><a xlink:title=" ">
<path fill="none" stroke="#63b8ff" d="M1854.47,-370.98C1841.67,-375.97 1827.37,-381.54 1815.6,-386.13"/>
<polygon fill="#63b8ff" stroke="#63b8ff" points="1855.85,-374.19 1863.9,-367.3 1853.31,-367.67 1855.85,-374.19"/>
</a>
</g>
</g>
<!-- Node3 -->
<g id="Node000003" class="node">
<title>Node3</title>
<g id="a_Node000003"><a xlink:href="exec_8c.html#abaeb177587c7eec6a064b35bb8399cae" target="_top" xlink:title="Execute builtin cmd with given args.">
<polygon fill="white" stroke="#666666" points="726,-187.21 651,-187.21 651,-168.21 726,-168.21 726,-187.21"/>
<text text-anchor="middle" x="688.5" y="-175.21" font-family="Helvetica,sans-Serif" font-size="10.00">exec_builtin</text>
</a>
</g>
</g>
<!-- Node2&#45;&gt;Node3 -->
<g id="edge2_Node000002_Node000003" class="edge">
<title>Node2&#45;&gt;Node3</title>
<g id="a_edge2_Node000002_Node000003"><a xlink:title=" ">
<path fill="none" stroke="#63b8ff" d="M784.44,-127.13C761.05,-139.59 727.88,-157.27 707.58,-168.08"/>
<polygon fill="#63b8ff" stroke="#63b8ff" points="786.32,-130.1 793.5,-122.3 783.03,-123.92 786.32,-130.1"/>
</a>
</g>
</g>
<!-- Node3&#45;&gt;Node4 -->
<g id="edge3_Node000003_Node000004" class="edge">
<title>Node3&#45;&gt;Node4</title>
<g id="a_edge3_Node000003_Node000004"><a xlink:title=" ">
<path fill="none" stroke="#63b8ff" d="M679.72,-196.81C660.17,-244.82 609.49,-369.31 594.95,-405.01"/>
<polygon fill="#63b8ff" stroke="#63b8ff" points="683.07,-197.88 683.6,-187.3 676.58,-195.24 683.07,-197.88"/>
</a>
</g>
</g>
<!-- Node4&#45;&gt;Node5 -->
<g id="edge4_Node000004_Node000005" class="edge">
<title>Node4&#45;&gt;Node5</title>
<g id="a_edge4_Node000004_Node000005"><a xlink:title=" ">
<path fill="none" stroke="#63b8ff" d="M564.89,-429.73C548.38,-440.02 527,-453.34 512.79,-462.19"/>
<polygon fill="#63b8ff" stroke="#63b8ff" points="566.84,-432.64 573.48,-424.38 563.14,-426.7 566.84,-432.64"/>
</a>
</g>
</g>
<!-- Node6 -->
<g id="Node000006" class="node">
<title>Node6</title>
<g id="a_Node000006"><a xlink:href="ast__run_8c.html#aeb6878a59c6907e5669fc3cc428913d9" target="_top" xlink:title=" ">
<polygon fill="white" stroke="#666666" points="428,-409.21 349,-409.21 349,-390.21 428,-390.21 428,-409.21"/>
<text text-anchor="middle" x="388.5" y="-397.21" font-family="Helvetica,sans-Serif" font-size="10.00">ast_run_cmd</text>
</a>
</g>
</g>
<!-- Node5&#45;&gt;Node6 -->
<g id="edge5_Node000005_Node000006" class="edge">
<title>Node5&#45;&gt;Node6</title>
<g id="a_edge5_Node000005_Node000006"><a xlink:title=" ">
<path fill="none" stroke="#63b8ff" d="M472.86,-456.33C451.86,-442.07 421.26,-421.29 403.57,-409.27"/>
<polygon fill="#63b8ff" stroke="#63b8ff" points="470.97,-459.28 481.2,-462 474.9,-453.49 470.97,-459.28"/>
</a>
</g>
</g>
<!-- Node7 -->
<g id="Node000007" class="node">
<title>Node7</title>
<g id="a_Node000007"><a xlink:href="ast_8c.html#a572345b2707780bbbc5bbaacdca9c372" target="_top" xlink:title=" ">
<polygon fill="white" stroke="#666666" points="313,-337.21 260,-337.21 260,-318.21 313,-318.21 313,-337.21"/>
<text text-anchor="middle" x="286.5" y="-325.21" font-family="Helvetica,sans-Serif" font-size="10.00">run_ast</text>
</a>
</g>
</g>
<!-- Node6&#45;&gt;Node7 -->
<g id="edge6_Node000006_Node000007" class="edge">
<title>Node6&#45;&gt;Node7</title>
<g id="a_edge6_Node000006_Node000007"><a xlink:title=" ">
<path fill="none" stroke="#63b8ff" d="M365.87,-384.14C346.07,-369.88 317.39,-349.23 300.77,-337.27"/>
<polygon fill="#63b8ff" stroke="#63b8ff" points="363.85,-387 374.01,-390 367.94,-381.32 363.85,-387"/>
</a>
</g>
</g>
<!-- Node8 -->
<g id="Node000008" class="node">
<title>Node8</title>
<g id="a_Node000008"><a xlink:href="ast__run_8c.html#a8a01fec616135007fc5b3968a101901b" target="_top" xlink:title=" ">
<polygon fill="white" stroke="#666666" points="215,-382.21 124,-382.21 124,-363.21 215,-363.21 215,-382.21"/>
<text text-anchor="middle" x="169.5" y="-370.21" font-family="Helvetica,sans-Serif" font-size="10.00">ast_run_and_or</text>
</a>
</g>
</g>
<!-- Node7&#45;&gt;Node8 -->
<g id="edge7_Node000007_Node000008" class="edge">
<title>Node7&#45;&gt;Node8</title>
<g id="a_edge7_Node000007_Node000008"><a xlink:title=" ">
<path fill="none" stroke="#63b8ff" d="M250.58,-334.96C241.95,-338.46 232.69,-342.35 224,-345.71 209.01,-351.51 191.27,-357.27 180.45,-363.02"/>
<polygon fill="#63b8ff" stroke="#63b8ff" points="251.97,-338.18 259.98,-331.24 249.39,-331.67 251.97,-338.18"/>
</a>
</g>
</g>
<!-- Node9 -->
<g id="Node000009" class="node">
<title>Node9</title>
<g id="a_Node000009"><a xlink:href="ast__run_8c.html#a9d83d4834a61ffe21eb77838d70ae173" target="_top" xlink:title=" ">
<polygon fill="white" stroke="#666666" points="205,-179.21 134,-179.21 134,-160.21 205,-160.21 205,-179.21"/>
<text text-anchor="middle" x="169.5" y="-167.21" font-family="Helvetica,sans-Serif" font-size="10.00">ast_run_for</text>
</a>
</g>
</g>
<!-- Node7&#45;&gt;Node9 -->
<g id="edge9_Node000007_Node000009" class="edge">
<title>Node7&#45;&gt;Node9</title>
<g id="a_edge9_Node000007_Node000009"><a xlink:title=" ">
<path fill="none" stroke="#63b8ff" d="M275.83,-309.59C270.58,-302.52 264.3,-294.61 260,-286.71 236,-242.65 259.18,-215.49 224,-179.71 218.82,-174.44 212.08,-170.63 205.14,-168.1"/>
<polygon fill="#63b8ff" stroke="#63b8ff" points="273.12,-311.82 281.71,-318.02 278.87,-307.82 273.12,-311.82"/>
</a>
</g>
</g>
<!-- Node10 -->
<g id="Node000010" class="node">
<title>Node10</title>
<g id="a_Node000010"><a xlink:href="ast__run_8c.html#a0a7138b1f2608ea36211c9b78988c248" target="_top" xlink:title=" ">
<polygon fill="white" stroke="#666666" points="202,-345.21 137,-345.21 137,-326.21 202,-326.21 202,-345.21"/>
<text text-anchor="middle" x="169.5" y="-333.21" font-family="Helvetica,sans-Serif" font-size="10.00">ast_run_if</text>
</a>
</g>
</g>
<!-- Node7&#45;&gt;Node10 -->
<g id="edge11_Node000007_Node000010" class="edge">
<title>Node7&#45;&gt;Node10</title>
<g id="a_edge11_Node000007_Node000010"><a xlink:title=" ">
<path fill="none" stroke="#63b8ff" d="M249.86,-323.9C234.59,-324.29 216.9,-325.59 202.11,-327.41"/>
<polygon fill="#63b8ff" stroke="#63b8ff" points="250.02,-327.39 259.98,-323.77 249.93,-320.4 250.02,-327.39"/>
</a>
</g>
</g>
<!-- Node11 -->
<g id="Node000011" class="node">
<title>Node11</title>
<g id="a_Node000011"><a xlink:href="ast__run_8c.html#ae25cd3ced8abafd76110dba8852a6b87" target="_top" xlink:title=" ">
<polygon fill="white" stroke="#666666" points="206,-290.21 133,-290.21 133,-271.21 206,-271.21 206,-290.21"/>
<text text-anchor="middle" x="169.5" y="-278.21" font-family="Helvetica,sans-Serif" font-size="10.00">ast_run_list</text>
</a>
</g>
</g>
<!-- Node7&#45;&gt;Node11 -->
<g id="edge13_Node000007_Node000011" class="edge">
<title>Node7&#45;&gt;Node11</title>
<g id="a_edge13_Node000007_Node000011"><a xlink:title=" ">
<path fill="none" stroke="#63b8ff" d="M263.58,-313.32C247.42,-305.33 225.09,-295.91 206.35,-289.06"/>
<polygon fill="#63b8ff" stroke="#63b8ff" points="262.26,-316.58 272.75,-318.07 265.48,-310.36 262.26,-316.58"/>
</a>
</g>
</g>
<!-- Node12 -->
<g id="Node000012" class="node">
<title>Node12</title>
<g id="a_Node000012"><a xlink:href="ast__run_8c.html#a536f37ba9bffcd2099fef668656181e0" target="_top" xlink:title=" ">
<polygon fill="white" stroke="#666666" points="209,-253.21 130,-253.21 130,-234.21 209,-234.21 209,-253.21"/>
<text text-anchor="middle" x="169.5" y="-241.21" font-family="Helvetica,sans-Serif" font-size="10.00">ast_run_loop</text>
</a>
</g>
</g>
<!-- Node7&#45;&gt;Node12 -->
<g id="edge16_Node000007_Node000012" class="edge">
<title>Node7&#45;&gt;Node12</title>
<g id="a_edge16_Node000007_Node000012"><a xlink:title=" ">
<path fill="none" stroke="#63b8ff" d="M275.44,-309.91C261.22,-290.22 235.68,-261.32 224,-253.71 219.46,-250.76 214.4,-248.19 209.25,-246.08"/>
<polygon fill="#63b8ff" stroke="#63b8ff" points="272.56,-311.91 281.08,-318.2 278.35,-307.97 272.56,-311.91"/>
</a>
</g>
</g>
<!-- Node13 -->
<g id="Node000013" class="node">
<title>Node13</title>
<g id="a_Node000013"><a xlink:href="ast__run_8c.html#aa3e6a973e744d748ee415840596beb53" target="_top" xlink:title=" ">
<polygon fill="white" stroke="#666666" points="224,-216.21 115,-216.21 115,-197.21 224,-197.21 224,-216.21"/>
<text text-anchor="middle" x="169.5" y="-204.21" font-family="Helvetica,sans-Serif" font-size="10.00">ast_run_shell_redir</text>
</a>
</g>
</g>
<!-- Node7&#45;&gt;Node13 -->
<g id="edge18_Node000007_Node000013" class="edge">
<title>Node7&#45;&gt;Node13</title>
<g id="a_edge18_Node000007_Node000013"><a xlink:title=" ">
<path fill="none" stroke="#63b8ff" d="M276.45,-309.56C271.31,-302.35 264.94,-294.35 260,-286.71 241.01,-257.33 250.34,-239.74 224,-216.71 223.85,-216.58 223.7,-216.45 223.55,-216.33"/>
<polygon fill="#63b8ff" stroke="#63b8ff" points="273.69,-311.74 282.1,-318.19 279.55,-307.91 273.69,-311.74"/>
</a>
</g>
</g>
<!-- Node14 -->
<g id="Node000014" class="node">
<title>Node14</title>
<g id="a_Node000014"><a xlink:href="exec_8c.html#a23babf893bbcd2f6126698a1a19b169f" target="_top" xlink:title="Execute funct with given arguments.">
<polygon fill="white" stroke="#666666" points="202,-550.21 137,-550.21 137,-531.21 202,-531.21 202,-550.21"/>
<text text-anchor="middle" x="169.5" y="-538.21" font-family="Helvetica,sans-Serif" font-size="10.00">exec_func</text>
</a>
</g>
</g>
<!-- Node7&#45;&gt;Node14 -->
<g id="edge20_Node000007_Node000014" class="edge">
<title>Node7&#45;&gt;Node14</title>
<g id="a_edge20_Node000007_Node000014"><a xlink:title=" ">
<path fill="none" stroke="#63b8ff" d="M284.94,-347.37C282.76,-386.23 272.42,-473.36 224,-522.71 218.1,-528.73 210.12,-532.73 202.14,-535.4"/>
<polygon fill="#63b8ff" stroke="#63b8ff" points="288.44,-347.5 285.37,-337.36 281.44,-347.2 288.44,-347.5"/>
</a>
</g>
</g>
<!-- Node15 -->
<g id="Node000015" class="node">
<title>Node15</title>
<g id="a_Node000015"><a xlink:href="exec_8c.html#ab743cb88e12e9b922050925fd2075e36" target="_top" xlink:title="Execute a pipeline of commands.">
<polygon fill="white" stroke="#666666" points="202,-495.21 137,-495.21 137,-476.21 202,-476.21 202,-495.21"/>
<text text-anchor="middle" x="169.5" y="-483.21" font-family="Helvetica,sans-Serif" font-size="10.00">exec_pipe</text>
</a>
</g>
</g>
<!-- Node7&#45;&gt;Node15 -->
<g id="edge22_Node000007_Node000015" class="edge">
<title>Node7&#45;&gt;Node15</title>
<g id="a_edge22_Node000007_Node000015"><a xlink:title=" ">
<path fill="none" stroke="#63b8ff" d="M281.12,-347.51C273.85,-376.15 256.74,-429.26 224,-461.71 217.78,-467.88 209.71,-472.61 201.72,-476.17"/>
<polygon fill="#63b8ff" stroke="#63b8ff" points="284.59,-348.04 283.51,-337.5 277.78,-346.42 284.59,-348.04"/>
</a>
</g>
</g>
<!-- Node17 -->
<g id="Node000017" class="node">
<title>Node17</title>
<g id="a_Node000017"><a xlink:href="42sh_8c.html#a3c04138a5bfe5d72780bb7e82a18e627" target="_top" xlink:title=" ">
<polygon fill="white" stroke="#666666" points="190,-103.21 149,-103.21 149,-84.21 190,-84.21 190,-103.21"/>
<text text-anchor="middle" x="169.5" y="-91.21" font-family="Helvetica,sans-Serif" font-size="10.00">main</text>
</a>
</g>
</g>
<!-- Node7&#45;&gt;Node17 -->
<g id="edge26_Node000007_Node000017" class="edge">
<title>Node7&#45;&gt;Node17</title>
<g id="a_edge26_Node000007_Node000017"><a xlink:title=" ">
<path fill="none" stroke="#63b8ff" d="M281.39,-307.98C273.76,-274.18 255.28,-203.82 224,-151.71 212.44,-132.45 193.73,-114.07 181.78,-103.34"/>
<polygon fill="#63b8ff" stroke="#63b8ff" points="278.01,-308.93 283.56,-317.96 284.85,-307.44 278.01,-308.93"/>
</a>
</g>
</g>
<!-- Node18 -->
<g id="Node000018" class="node">
<title>Node18</title>
<g id="a_Node000018"><a xlink:href="dot_8c.html#a17477ee2b0f1b8b9306566c990d15b35" target="_top" xlink:title="Main loop of dot builtin.">
<polygon fill="white" stroke="#666666" points="203.5,-419.21 135.5,-419.21 135.5,-400.21 203.5,-400.21 203.5,-419.21"/>
<text text-anchor="middle" x="169.5" y="-407.21" font-family="Helvetica,sans-Serif" font-size="10.00">main_loop</text>
</a>
</g>
</g>
<!-- Node7&#45;&gt;Node18 -->
<g id="edge27_Node000007_Node000018" class="edge">
<title>Node7&#45;&gt;Node18</title>
<g id="a_edge27_Node000007_Node000018"><a xlink:title=" ">
<path fill="none" stroke="#63b8ff" d="M272.43,-345.45C261.06,-359.74 243.4,-379.42 224,-391.71 217.79,-395.65 210.63,-398.82 203.6,-401.34"/>
<polygon fill="#63b8ff" stroke="#63b8ff" points="275.33,-347.42 278.65,-337.36 269.78,-343.15 275.33,-347.42"/>
</a>
</g>
</g>
<!-- Node8&#45;&gt;Node7 -->
<g id="edge8_Node000008_Node000007" class="edge">
<title>Node8&#45;&gt;Node7</title>
<g id="a_edge8_Node000008_Node000007"><a xlink:title=" ">
<path fill="none" stroke="#63b8ff" d="M224.66,-363.31C248.52,-353.84 267.34,-344.9 277.63,-337.31"/>
<polygon fill="#63b8ff" stroke="#63b8ff" points="223.32,-360.07 215.27,-366.97 225.86,-366.6 223.32,-360.07"/>
</a>
</g>
</g>
<!-- Node9&#45;&gt;Node7 -->
<g id="edge10_Node000009_Node000007" class="edge">
<title>Node9&#45;&gt;Node7</title>
<g id="a_edge10_Node000009_Node000007"><a xlink:title=" ">
<path fill="none" stroke="#63b8ff" d="M197.11,-182.53C206.65,-185.91 216.82,-190.41 224,-197.71 259.18,-233.49 236,-260.65 260,-304.71 262.51,-309.33 265.71,-313.95 268.97,-317.97"/>
<polygon fill="#63b8ff" stroke="#63b8ff" points="198.13,-179.18 187.54,-179.35 195.93,-185.82 198.13,-179.18"/>
</a>
</g>
</g>
<!-- Node10&#45;&gt;Node7 -->
<g id="edge12_Node000010_Node000007" class="edge">
<title>Node10&#45;&gt;Node7</title>
<g id="a_edge12_Node000010_Node000007"><a xlink:title=" ">
<path fill="none" stroke="#63b8ff" d="M212.29,-339.33C228.26,-338.69 245.97,-337.19 259.98,-335.21"/>
<polygon fill="#63b8ff" stroke="#63b8ff" points="212.01,-335.83 202.11,-339.62 212.2,-342.83 212.01,-335.83"/>
</a>
</g>
</g>
<!-- Node11&#45;&gt;Node7 -->
<g id="edge15_Node000011_Node000007" class="edge">
<title>Node11&#45;&gt;Node7</title>
<g id="a_edge15_Node000011_Node000007"><a xlink:title=" ">
<path fill="none" stroke="#63b8ff" d="M192.09,-294.95C211.36,-304.5 239.6,-316.14 259.98,-323"/>
<polygon fill="#63b8ff" stroke="#63b8ff" points="193.67,-291.82 183.18,-290.32 190.44,-298.03 193.67,-291.82"/>
</a>
</g>
</g>
<!-- Node11&#45;&gt;Node11 -->
<g id="edge14_Node000011_Node000011" class="edge">
<title>Node11&#45;&gt;Node11</title>
<g id="a_edge14_Node000011_Node000011"><a xlink:title=" ">
<path fill="none" stroke="#63b8ff" d="M190.98,-299.77C189.55,-304.59 182.39,-308.21 169.5,-308.21 148.88,-308.21 142.92,-298.95 151.62,-290.3"/>
<polygon fill="#63b8ff" stroke="#63b8ff" points="194.2,-298.4 187.38,-290.3 187.66,-300.89 194.2,-298.4"/>
</a>
</g>
</g>
<!-- Node12&#45;&gt;Node7 -->
<g id="edge17_Node000012_Node000007" class="edge">
<title>Node12&#45;&gt;Node7</title>
<g id="a_edge17_Node000012_Node000007"><a xlink:title=" ">
<path fill="none" stroke="#63b8ff" d="M192.14,-257.01C202.33,-260.91 214.34,-265.42 224,-271.71 234.74,-278.71 257.18,-303.69 271.78,-318.15"/>
<polygon fill="#63b8ff" stroke="#63b8ff" points="193.3,-253.7 182.71,-253.27 190.72,-260.21 193.3,-253.7"/>
</a>
</g>
</g>
<!-- Node13&#45;&gt;Node7 -->
<g id="edge19_Node000013_Node000007" class="edge">
<title>Node13&#45;&gt;Node7</title>
<g id="a_edge19_Node000013_Node000007"><a xlink:title=" ">
<path fill="none" stroke="#63b8ff" d="M195.34,-219.68C205.14,-223.2 215.96,-227.68 224,-234.71 250.34,-257.74 241.01,-275.33 260,-304.71 262.93,-309.25 266.37,-313.91 269.76,-317.99"/>
<polygon fill="#63b8ff" stroke="#63b8ff" points="196.24,-216.29 185.64,-216.31 193.93,-222.9 196.24,-216.29"/>
</a>
</g>
</g>
<!-- Node14&#45;&gt;Node5 -->
<g id="edge21_Node000014_Node000005" class="edge">
<title>Node14&#45;&gt;Node5</title>
<g id="a_edge21_Node000014_Node000005"><a xlink:title=" ">
<path fill="none" stroke="#63b8ff" d="M212.42,-531.81C278.34,-517.82 404.77,-490.98 463.75,-478.46"/>
<polygon fill="#63b8ff" stroke="#63b8ff" points="211.44,-528.44 202.38,-533.94 212.89,-535.29 211.44,-528.44"/>
</a>
</g>
</g>
<!-- Node15&#45;&gt;Node15 -->
<g id="edge25_Node000015_Node000015" class="edge">
<title>Node15&#45;&gt;Node15</title>
<g id="a_edge25_Node000015_Node000015"><a xlink:title=" ">
<path fill="none" stroke="#63b8ff" d="M190.98,-504.77C189.55,-509.59 182.39,-513.21 169.5,-513.21 148.88,-513.21 142.92,-503.95 151.62,-495.3"/>
<polygon fill="#63b8ff" stroke="#63b8ff" points="194.2,-503.4 187.38,-495.3 187.66,-505.89 194.2,-503.4"/>
</a>
</g>
</g>
<!-- Node16 -->
<g id="Node000016" class="node">
<title>Node16</title>
<g id="a_Node000016"><a xlink:href="ast__run_8c.html#a24d0223822f7b635628199085c3283be" target="_top" xlink:title=" ">
<polygon fill="white" stroke="#666666" points="79,-476.21 0,-476.21 0,-457.21 79,-457.21 79,-476.21"/>
<text text-anchor="middle" x="39.5" y="-464.21" font-family="Helvetica,sans-Serif" font-size="10.00">ast_run_pipe</text>
</a>
</g>
</g>
<!-- Node15&#45;&gt;Node16 -->
<g id="edge23_Node000015_Node000016" class="edge">
<title>Node15&#45;&gt;Node16</title>
<g id="a_edge23_Node000015_Node000016"><a xlink:title=" ">
<path fill="none" stroke="#63b8ff" d="M126.62,-479.5C111.32,-477.23 94.09,-474.67 79.08,-472.44"/>
<polygon fill="#63b8ff" stroke="#63b8ff" points="126.45,-483.01 136.86,-481.02 127.48,-476.09 126.45,-483.01"/>
</a>
</g>
</g>
<!-- Node16&#45;&gt;Node7 -->
<g id="edge24_Node000016_Node000007" class="edge">
<title>Node16&#45;&gt;Node7</title>
<g id="a_edge24_Node000016_Node000007"><a xlink:title=" ">
<path fill="none" stroke="#63b8ff" d="M89.34,-466.97C128.93,-464.9 184.46,-456.59 224,-428.71 257.22,-405.29 275.84,-357.68 282.58,-337.31"/>
<polygon fill="#63b8ff" stroke="#63b8ff" points="88.98,-463.48 79.13,-467.39 89.26,-470.48 88.98,-463.48"/>
</a>
</g>
</g>
<!-- Node19 -->
<g id="Node000019" class="node">
<title>Node19</title>
<g id="a_Node000019"><a xlink:href="dot_8c.html#a713938d3c6ee343132c429642048bcf6" target="_top" xlink:title="Execute the dot builtin cmd.">
<polygon fill="white" stroke="#666666" points="61.5,-280.21 17.5,-280.21 17.5,-261.21 61.5,-261.21 61.5,-280.21"/>
<text text-anchor="middle" x="39.5" y="-268.21" font-family="Helvetica,sans-Serif" font-size="10.00">dot_b</text>
</a>
</g>
</g>
<!-- Node18&#45;&gt;Node19 -->
<g id="edge28_Node000018_Node000019" class="edge">
<title>Node18&#45;&gt;Node19</title>
<g id="a_edge28_Node000018_Node000019"><a xlink:title=" ">
<path fill="none" stroke="#63b8ff" d="M125.96,-398.55C122.05,-396.62 118.32,-394.36 115,-391.71 75.99,-360.7 52.16,-303.29 43.84,-280.45"/>
<polygon fill="#63b8ff" stroke="#63b8ff" points="124.7,-401.82 135.27,-402.51 127.43,-395.38 124.7,-401.82"/>
</a>
</g>
</g>
<!-- Node19&#45;&gt;Node3 -->
<g id="edge29_Node000019_Node000003" class="edge">
<title>Node19&#45;&gt;Node3</title>
<g id="a_edge29_Node000019_Node000003"><a xlink:title=" ">
<path fill="none" stroke="#63b8ff" d="M46.62,-251.32C56.35,-224.04 78.09,-175.07 115,-151.71 179.48,-110.92 209.2,-131.71 285.5,-131.71 497.5,-131.71 497.5,-131.71 497.5,-131.71 558.93,-131.71 628.47,-154.71 663.95,-168.18"/>
<polygon fill="#63b8ff" stroke="#63b8ff" points="43.26,-250.33 43.38,-260.93 49.9,-252.57 43.26,-250.33"/>
</a>
</g>
</g>
<!-- Node20&#45;&gt;Node5 -->
<g id="edge31_Node000020_Node000005" class="edge">
<title>Node20&#45;&gt;Node5</title>
<g id="a_edge31_Node000020_Node000005"><a xlink:title=" ">
<path fill="none" stroke="#63b8ff" d="M782.71,-437.2C723.85,-444.32 590.15,-460.5 529.04,-467.9"/>
<polygon fill="#63b8ff" stroke="#63b8ff" points="783.29,-440.65 792.8,-435.98 782.45,-433.7 783.29,-440.65"/>
</a>
</g>
</g>
<!-- Node21&#45;&gt;Node5 -->
<g id="edge36_Node000021_Node000005" class="edge">
<title>Node21&#45;&gt;Node5</title>
<g id="a_edge36_Node000021_Node000005"><a xlink:title=" ">
<path fill="none" stroke="#63b8ff" d="M1250.69,-409.03C1175.87,-439.12 982.31,-509.71 813.5,-509.71 813.5,-509.71 813.5,-509.71 687.5,-509.71 629.64,-509.71 563.76,-492.56 526.76,-481.3"/>
<polygon fill="#63b8ff" stroke="#63b8ff" points="1252.09,-412.24 1260.04,-405.24 1249.45,-405.76 1252.09,-412.24"/>
</a>
</g>
</g>
<!-- Node21&#45;&gt;Node9 -->
<g id="edge35_Node000021_Node000009" class="edge">
<title>Node21&#45;&gt;Node9</title>
<g id="a_edge35_Node000021_Node000009"><a xlink:title=" ">
<path fill="none" stroke="#63b8ff" d="M1275.12,-376.42C1249.7,-313.09 1158.93,-111.31 1008,-36.71 865.76,33.58 808.22,-15.36 651,-36.71 605.38,-42.91 303.73,-130.66 203.1,-160.14"/>
<polygon fill="#63b8ff" stroke="#63b8ff" points="1271.96,-377.95 1278.88,-385.97 1278.48,-375.39 1271.96,-377.95"/>
</a>
</g>
</g>
<!-- Node21&#45;&gt;Node14 -->
<g id="edge37_Node000021_Node000014" class="edge">
<title>Node21&#45;&gt;Node14</title>
<g id="a_edge37_Node000021_Node000014"><a xlink:title=" ">
<path fill="none" stroke="#63b8ff" d="M1266.15,-412.95C1254.48,-424.41 1237.92,-439.08 1221,-448.71 1054.98,-543.29 1004.57,-585.71 813.5,-585.71 813.5,-585.71 813.5,-585.71 387.5,-585.71 318.24,-585.71 239.1,-563.47 198.21,-550.26"/>
<polygon fill="#63b8ff" stroke="#63b8ff" points="1268.85,-415.2 1273.39,-405.62 1263.87,-410.27 1268.85,-415.2"/>
</a>
</g>
</g>
<!-- Node22 -->
<g id="Node000022" class="node">
<title>Node22</title>
<g id="a_Node000022"><a xlink:href="hashmap_8c.html#aca86cd9ca85ac2e41fbb5c9e86ad6d6f" target="_top" xlink:title=" ">
<polygon fill="white" stroke="#666666" points="1221,-405.21 1136,-405.21 1136,-386.21 1221,-386.21 1221,-405.21"/>
<text text-anchor="middle" x="1178.5" y="-393.21" font-family="Helvetica,sans-Serif" font-size="10.00">expand_value</text>
</a>
</g>
</g>
<!-- Node21&#45;&gt;Node22 -->
<g id="edge38_Node000021_Node000022" class="edge">
<title>Node21&#45;&gt;Node22</title>
<g id="a_edge38_Node000021_Node000022"><a xlink:title=" ">
<path fill="none" stroke="#63b8ff" d="M1246.76,-395.71C1238.55,-395.71 1229.75,-395.71 1221.31,-395.71"/>
<polygon fill="#63b8ff" stroke="#63b8ff" points="1246.77,-399.21 1256.77,-395.71 1246.77,-392.21 1246.77,-399.21"/>
</a>
</g>
</g>
<!-- Node23 -->
<g id="Node000023" class="node">
<title>Node23</title>
<g id="a_Node000023"><a xlink:href="hashmap_8c.html#a3bf95c887f7eac3eb074725515feba49" target="_top" xlink:title="Add a variable to the dictionnary.">
<polygon fill="white" stroke="#666666" points="1100,-272.21 1044,-272.21 1044,-253.21 1100,-253.21 1100,-272.21"/>
<text text-anchor="middle" x="1072" y="-260.21" font-family="Helvetica,sans-Serif" font-size="10.00">add_var</text>
</a>
</g>
</g>
<!-- Node22&#45;&gt;Node23 -->
<g id="edge39_Node000022_Node000023" class="edge">
<title>Node22&#45;&gt;Node23</title>
<g id="a_edge39_Node000022_Node000023"><a xlink:title=" ">
<path fill="none" stroke="#63b8ff" d="M1147.59,-381C1143.44,-378.25 1139.42,-375.14 1136,-371.71 1105.4,-341.11 1084.45,-292.64 1076.52,-272.25"/>
<polygon fill="#63b8ff" stroke="#63b8ff" points="1145.8,-384.01 1156.18,-386.16 1149.41,-378.01 1145.8,-384.01"/>
</a>
</g>
</g>
<!-- Node23&#45;&gt;Node9 -->
<g id="edge48_Node000023_Node000009" class="edge">
<title>Node23&#45;&gt;Node9</title>
<g id="a_edge48_Node000023_Node000009"><a xlink:title=" ">
<path fill="none" stroke="#63b8ff" d="M1033.98,-267.17C984.01,-272.78 892.18,-281.71 813.5,-281.71 813.5,-281.71 813.5,-281.71 387.5,-281.71 303.9,-281.71 300.02,-223.5 224,-188.71 216.47,-185.27 208.12,-182.04 200.3,-179.25"/>
<polygon fill="#63b8ff" stroke="#63b8ff" points="1034.45,-270.64 1043.99,-266.02 1033.65,-263.68 1034.45,-270.64"/>
</a>
</g>
</g>
<!-- Node23&#45;&gt;Node20 -->
<g id="edge49_Node000023_Node000020" class="edge">
<title>Node23&#45;&gt;Node20</title>
<g id="a_edge49_Node000023_Node000020"><a xlink:title=" ">
<path fill="none" stroke="#63b8ff" d="M1065.47,-281.92C1057.16,-307.34 1039.04,-351.85 1008,-376.71 980.27,-398.94 875.2,-421.58 832.11,-430.14"/>
<polygon fill="#63b8ff" stroke="#63b8ff" points="1068.83,-282.89 1068.44,-272.3 1062.14,-280.83 1068.83,-282.89"/>
</a>
</g>
</g>
<!-- Node24 -->
<g id="Node000024" class="node">
<title>Node24</title>
<g id="a_Node000024"><a xlink:href="io_8c.html#ac8404f84d9b2f3f16fe4d24de44d6050" target="_top" xlink:title="Helper: Ajoute un arg au dictionnaire de variables.">
<polygon fill="white" stroke="#666666" points="1008,-178.21 899,-178.21 899,-159.21 1008,-159.21 1008,-178.21"/>
<text text-anchor="middle" x="953.5" y="-166.21" font-family="Helvetica,sans-Serif" font-size="10.00">add_positional_arg</text>
</a>
</g>
</g>
<!-- Node23&#45;&gt;Node24 -->
<g id="edge40_Node000023_Node000024" class="edge">
<title>Node23&#45;&gt;Node24</title>
<g id="a_edge40_Node000023_Node000024"><a xlink:title=" ">
<path fill="none" stroke="#63b8ff" d="M1059.85,-244.55C1048.64,-227.68 1029.92,-202.93 1008,-187.71 1002.49,-183.89 996.14,-180.76 989.77,-178.22"/>
<polygon fill="#63b8ff" stroke="#63b8ff" points="1056.93,-246.48 1065.27,-253 1062.82,-242.7 1056.93,-246.48"/>
</a>
</g>
</g>
<!-- Node26 -->
<g id="Node000026" class="node">
<title>Node26</title>
<g id="a_Node000026"><a xlink:href="hashmap_8c.html#a6ea7c10f5ac3ee3ad1986f24e1b83863" target="_top" xlink:title=" ">
<polygon fill="white" stroke="#666666" points="990.5,-65.21 916.5,-65.21 916.5,-46.21 990.5,-46.21 990.5,-65.21"/>
<text text-anchor="middle" x="953.5" y="-53.21" font-family="Helvetica,sans-Serif" font-size="10.00">add_special</text>
</a>
</g>
</g>
<!-- Node23&#45;&gt;Node26 -->
<g id="edge43_Node000023_Node000026" class="edge">
<title>Node23&#45;&gt;Node26</title>
<g id="a_edge43_Node000023_Node000026"><a xlink:title=" ">
<path fill="none" stroke="#63b8ff" d="M1065.23,-243.06C1055.97,-213.32 1035.95,-155.78 1008,-112.71 995.88,-94.04 977.33,-75.9 965.57,-65.27"/>
<polygon fill="#63b8ff" stroke="#63b8ff" points="1062,-244.45 1068.25,-253.01 1068.7,-242.42 1062,-244.45"/>
</a>
</g>
</g>
<!-- Node28 -->
<g id="Node000028" class="node">
<title>Node28</title>
<g id="a_Node000028"><a xlink:href="io_8c.html#aa3aea4ea03b25f3d2e5449741816dbb8" target="_top" xlink:title="Helper &#45;&gt; add number of args to dictionnary.">
<polygon fill="white" stroke="#666666" points="983,-215.21 924,-215.21 924,-196.21 983,-196.21 983,-215.21"/>
<text text-anchor="middle" x="953.5" y="-203.21" font-family="Helvetica,sans-Serif" font-size="10.00">arg_num</text>
</a>
</g>
</g>
<!-- Node23&#45;&gt;Node28 -->
<g id="edge46_Node000023_Node000028" class="edge">
<title>Node23&#45;&gt;Node28</title>
<g id="a_edge46_Node000023_Node000028"><a xlink:title=" ">
<path fill="none" stroke="#63b8ff" d="M1044.63,-248.44C1033.42,-242.5 1020.15,-235.61 1008,-229.71 997.74,-224.73 986.22,-219.52 976.5,-215.22"/>
<polygon fill="#63b8ff" stroke="#63b8ff" points="1043.02,-251.55 1053.49,-253.18 1046.32,-245.38 1043.02,-251.55"/>
</a>
</g>
</g>
<!-- Node29 -->
<g id="Node000029" class="node">
<title>Node29</title>
<g id="a_Node000029"><a xlink:href="exec_8c.html#a60ea263265f67ff588c7de955c83bcec" target="_top" xlink:title="Exec assignments in cmd.">
<polygon fill="white" stroke="#666666" points="863,-367.21 762,-367.21 762,-348.21 863,-348.21 863,-367.21"/>
<text text-anchor="middle" x="812.5" y="-355.21" font-family="Helvetica,sans-Serif" font-size="10.00">exec_assignment</text>
</a>
</g>
</g>
<!-- Node23&#45;&gt;Node29 -->
<g id="edge50_Node000023_Node000029" class="edge">
<title>Node23&#45;&gt;Node29</title>
<g id="a_edge50_Node000023_Node000029"><a xlink:title=" ">
<path fill="none" stroke="#63b8ff" d="M1045.65,-277.28C1034.35,-283.44 1020.73,-290.4 1008,-295.71 954.36,-318.11 889.63,-337.26 850.02,-348.12"/>
<polygon fill="#63b8ff" stroke="#63b8ff" points="1047.49,-280.26 1054.54,-272.35 1044.09,-274.14 1047.49,-280.26"/>
</a>
</g>
</g>
<!-- Node30 -->
<g id="Node000030" class="node">
<title>Node30</title>
<g id="a_Node000030"><a xlink:href="export_8c.html#a8b18baf315f49dfc9d40e9a05a8eaa24" target="_top" xlink:title="Execute export builtin cmd.">
<polygon fill="white" stroke="#666666" points="842,-234.21 783,-234.21 783,-215.21 842,-215.21 842,-234.21"/>
<text text-anchor="middle" x="812.5" y="-222.21" font-family="Helvetica,sans-Serif" font-size="10.00">export_b</text>
</a>
</g>
</g>
<!-- Node23&#45;&gt;Node30 -->
<g id="edge52_Node000023_Node000030" class="edge">
<title>Node23&#45;&gt;Node30</title>
<g id="a_edge52_Node000023_Node000030"><a xlink:title=" ">
<path fill="none" stroke="#63b8ff" d="M1033.82,-257.23C981.96,-249.57 889.01,-235.86 842.16,-228.94"/>
<polygon fill="#63b8ff" stroke="#63b8ff" points="1033.53,-260.72 1043.93,-258.72 1034.55,-253.8 1033.53,-260.72"/>
</a>
</g>
</g>
<!-- Node31 -->
<g id="Node000031" class="node">
<title>Node31</title>
<g id="a_Node000031"><a xlink:href="exec_8c.html#a10741ea1c82bec65aa88b283c4a68e5b" target="_top" xlink:title="Update special var &quot;?&quot; with given status.">
<polygon fill="white" stroke="#666666" points="990.5,-367.21 916.5,-367.21 916.5,-348.21 990.5,-348.21 990.5,-367.21"/>
<text text-anchor="middle" x="953.5" y="-355.21" font-family="Helvetica,sans-Serif" font-size="10.00">update_exit</text>
</a>
</g>
</g>
<!-- Node23&#45;&gt;Node31 -->
<g id="edge54_Node000023_Node000031" class="edge">
<title>Node23&#45;&gt;Node31</title>
<g id="a_edge54_Node000023_Node000031"><a xlink:title=" ">
<path fill="none" stroke="#63b8ff" d="M1058.28,-280.96C1046.65,-296.6 1028.21,-318.87 1008,-333.71 1000.04,-339.56 990.43,-344.42 981.57,-348.2"/>
<polygon fill="#63b8ff" stroke="#63b8ff" points="1061.29,-282.79 1064.31,-272.63 1055.61,-278.68 1061.29,-282.79"/>
</a>
</g>
</g>
<!-- Node32 -->
<g id="Node000032" class="node">
<title>Node32</title>
<g id="a_Node000032"><a xlink:href="cd_8c.html#a9eb5212e3fb105823c28e343ce5ca946" target="_top" xlink:title="Update PWD and OLDPWD vars after cd.">
<polygon fill="white" stroke="#666666" points="991.5,-141.21 915.5,-141.21 915.5,-122.21 991.5,-122.21 991.5,-141.21"/>
<text text-anchor="middle" x="953.5" y="-129.21" font-family="Helvetica,sans-Serif" font-size="10.00">update_pwd</text>
</a>
</g>
</g>
<!-- Node23&#45;&gt;Node32 -->
<g id="edge58_Node000023_Node000032" class="edge">
<title>Node23&#45;&gt;Node32</title>
<g id="a_edge58_Node000023_Node000032"><a xlink:title=" ">
<path fill="none" stroke="#63b8ff" d="M1064.92,-243.39C1056.17,-218.58 1037.73,-175.75 1008,-150.71 1003.25,-146.71 997.6,-143.53 991.78,-141.01"/>
<polygon fill="#63b8ff" stroke="#63b8ff" points="1061.68,-244.73 1068.17,-253.11 1068.32,-242.51 1061.68,-244.73"/>
</a>
</g>
</g>
<!-- Node25 -->
<g id="Node000025" class="node">
<title>Node25</title>
<g id="a_Node000025"><a xlink:href="io_8c.html#a8346ebcdde79020ca792f3d4d2d93ec0" target="_top" xlink:title="Gère options scripts et arguments.">
<polygon fill="white" stroke="#666666" points="839,-178.21 786,-178.21 786,-159.21 839,-159.21 839,-178.21"/>
<text text-anchor="middle" x="812.5" y="-166.21" font-family="Helvetica,sans-Serif" font-size="10.00">arg_file</text>
</a>
</g>
</g>
<!-- Node24&#45;&gt;Node25 -->
<g id="edge41_Node000024_Node000025" class="edge">
<title>Node24&#45;&gt;Node25</title>
<g id="a_edge41_Node000024_Node000025"><a xlink:title=" ">
<path fill="none" stroke="#63b8ff" d="M888.56,-168.71C871.09,-168.71 853.14,-168.71 839.18,-168.71"/>
<polygon fill="#63b8ff" stroke="#63b8ff" points="888.76,-172.21 898.76,-168.71 888.76,-165.21 888.76,-172.21"/>
</a>
</g>
</g>
<!-- Node25&#45;&gt;Node17 -->
<g id="edge42_Node000025_Node000017" class="edge">
<title>Node25&#45;&gt;Node17</title>
<g id="a_edge42_Node000025_Node000017"><a xlink:title=" ">
<path fill="none" stroke="#63b8ff" d="M786.49,-154.17C746.56,-132.36 665.31,-93.71 591,-93.71 591,-93.71 591,-93.71 387.5,-93.71 314.79,-93.71 228.38,-93.71 190.25,-93.71"/>
<polygon fill="#63b8ff" stroke="#63b8ff" points="784.83,-157.25 795.27,-159.06 788.24,-151.14 784.83,-157.25"/>
</a>
</g>
</g>
<!-- Node27 -->
<g id="Node000027" class="node">
<title>Node27</title>
<g id="a_Node000027"><a xlink:href="hashmap_8c.html#a5b305fb96c9d0ce57bb51cc0e2c434ac" target="_top" xlink:title="Initialise the dictionnary and adds special variables from the get go.">
<polygon fill="white" stroke="#666666" points="716.5,-65.21 660.5,-65.21 660.5,-46.21 716.5,-46.21 716.5,-65.21"/>
<text text-anchor="middle" x="688.5" y="-53.21" font-family="Helvetica,sans-Serif" font-size="10.00">init_dict</text>
</a>
</g>
</g>
<!-- Node26&#45;&gt;Node27 -->
<g id="edge44_Node000026_Node000027" class="edge">
<title>Node26&#45;&gt;Node27</title>
<g id="a_edge44_Node000026_Node000027"><a xlink:title=" ">
<path fill="none" stroke="#63b8ff" d="M906.32,-55.71C851.39,-55.71 761.52,-55.71 716.7,-55.71"/>
<polygon fill="#63b8ff" stroke="#63b8ff" points="906.48,-59.21 916.48,-55.71 906.48,-52.21 906.48,-59.21"/>
</a>
</g>
</g>
<!-- Node27&#45;&gt;Node17 -->
<g id="edge45_Node000027_Node000017" class="edge">
<title>Node27&#45;&gt;Node17</title>
<g id="a_edge45_Node000027_Node000017"><a xlink:title=" ">
<path fill="none" stroke="#63b8ff" d="M650.28,-55.71C611.97,-55.71 550.57,-55.71 497.5,-55.71 497.5,-55.71 497.5,-55.71 387.5,-55.71 313.68,-55.71 227.83,-77.31 190.05,-87.94"/>
<polygon fill="#63b8ff" stroke="#63b8ff" points="650.44,-59.21 660.44,-55.71 650.44,-52.21 650.44,-59.21"/>
</a>
</g>
</g>
<!-- Node28&#45;&gt;Node25 -->
<g id="edge47_Node000028_Node000025" class="edge">
<title>Node28&#45;&gt;Node25</title>
<g id="a_edge47_Node000028_Node000025"><a xlink:title=" ">
<path fill="none" stroke="#63b8ff" d="M913.94,-195.45C890.2,-189.13 860.4,-181.2 839.45,-175.62"/>
<polygon fill="#63b8ff" stroke="#63b8ff" points="913.14,-198.86 923.7,-198.05 914.94,-192.09 913.14,-198.86"/>
</a>
</g>
</g>
<!-- Node29&#45;&gt;Node5 -->
<g id="edge51_Node000029_Node000005" class="edge">
<title>Node29&#45;&gt;Node5</title>
<g id="a_edge51_Node000029_Node000005"><a xlink:title=" ">
<path fill="none" stroke="#63b8ff" d="M751.52,-356.23C699.27,-357.4 623.01,-365.22 565,-396.71 536.06,-412.43 513.22,-445.51 503.13,-461.98"/>
<polygon fill="#63b8ff" stroke="#63b8ff" points="751.69,-359.72 761.63,-356.08 751.58,-352.72 751.69,-359.72"/>
</a>
</g>
</g>
<!-- Node30&#45;&gt;Node3 -->
<g id="edge53_Node000030_Node000003" class="edge">
<title>Node30&#45;&gt;Node3</title>
<g id="a_edge53_Node000030_Node000003"><a xlink:title=" ">
<path fill="none" stroke="#63b8ff" d="M777.45,-211.6C757.5,-203.91 732.73,-194.37 714.57,-187.37"/>
<polygon fill="#63b8ff" stroke="#63b8ff" points="776.22,-214.87 786.81,-215.2 778.74,-208.34 776.22,-214.87"/>
</a>
</g>
</g>
<!-- Node31&#45;&gt;Node4 -->
<g id="edge57_Node000031_Node000004" class="edge">
<title>Node31&#45;&gt;Node4</title>
<g id="a_edge57_Node000031_Node000004"><a xlink:title=" ">
<path fill="none" stroke="#63b8ff" d="M906.6,-368.11C892.64,-371.09 877.23,-374.21 863,-376.71 771.9,-392.73 662.67,-406.29 615.1,-411.92"/>
<polygon fill="#63b8ff" stroke="#63b8ff" points="907.44,-371.51 916.47,-365.97 905.95,-364.66 907.44,-371.51"/>
</a>
</g>
</g>
<!-- Node31&#45;&gt;Node20 -->
<g id="edge55_Node000031_Node000020" class="edge">
<title>Node31&#45;&gt;Node20</title>
<g id="a_edge55_Node000031_Node000020"><a xlink:title=" ">
<path fill="none" stroke="#63b8ff" d="M918.45,-371.51C911.85,-374.6 905.1,-378.05 899,-381.71 881.63,-392.16 880.21,-399.01 863,-409.71 853.27,-415.76 841.78,-421.42 832.33,-425.71"/>
<polygon fill="#63b8ff" stroke="#63b8ff" points="920.21,-374.56 927.91,-367.28 917.35,-368.17 920.21,-374.56"/>
</a>
</g>
</g>
<!-- Node31&#45;&gt;Node29 -->
<g id="edge56_Node000031_Node000029" class="edge">
<title>Node31&#45;&gt;Node29</title>
<g id="a_edge56_Node000031_Node000029"><a xlink:title=" ">
<path fill="none" stroke="#63b8ff" d="M906.09,-357.71C892.27,-357.71 877.09,-357.71 863.08,-357.71"/>
<polygon fill="#63b8ff" stroke="#63b8ff" points="906.34,-361.21 916.34,-357.71 906.34,-354.21 906.34,-361.21"/>
</a>
</g>
</g>
<!-- Node32&#45;&gt;Node2 -->
<g id="edge59_Node000032_Node000002" class="edge">
<title>Node32&#45;&gt;Node2</title>
<g id="a_edge59_Node000032_Node000002"><a xlink:title=" ">
<path fill="none" stroke="#63b8ff" d="M905.17,-125.24C880.09,-121.82 850.71,-117.8 832.1,-115.26"/>
<polygon fill="#63b8ff" stroke="#63b8ff" points="904.87,-128.74 915.25,-126.62 905.82,-121.8 904.87,-128.74"/>
</a>
</g>
</g>
<!-- Node33&#45;&gt;Node2 -->
<g id="edge61_Node000033_Node000002" class="edge">
<title>Node33&#45;&gt;Node2</title>
<g id="a_edge61_Node000033_Node000002"><a xlink:title=" ">
<path fill="none" stroke="#63b8ff" d="M1631.75,-32.32C1576.76,-26.71 1475.04,-17.71 1388,-17.71 1388,-17.71 1388,-17.71 1071,-17.71 994.09,-17.71 969.28,-5.47 899,-36.71 864.7,-51.96 834.44,-86.12 820.96,-102.95"/>
<polygon fill="#63b8ff" stroke="#63b8ff" points="1631.47,-35.81 1641.78,-33.36 1632.2,-28.85 1631.47,-35.81"/>
</a>
</g>
</g>
<!-- Node35 -->
<g id="Node000035" class="node">
<title>Node35</title>
<g id="a_Node000035"><a xlink:href="expand_8c.html#a492ca861a96ee6319b97b4b1d6ba9835" target="_top" xlink:title=" ">
<polygon fill="white" stroke="#666666" points="1428,-405.21 1346,-405.21 1346,-386.21 1428,-386.21 1428,-405.21"/>
<text text-anchor="middle" x="1387" y="-393.21" font-family="Helvetica,sans-Serif" font-size="10.00">expand_word</text>
</a>
</g>
</g>
<!-- Node34&#45;&gt;Node35 -->
<g id="edge63_Node000034_Node000035" class="edge">
<title>Node34&#45;&gt;Node35</title>
<g id="a_edge63_Node000034_Node000035"><a xlink:title=" ">
<path fill="none" stroke="#63b8ff" d="M1750.08,-407.94C1739.46,-410.74 1727.88,-413.3 1717,-414.71 1605.49,-429.18 1575.6,-428.45 1464,-414.71 1448.88,-412.85 1432.44,-408.98 1418.74,-405.22"/>
<polygon fill="#63b8ff" stroke="#63b8ff" points="1751.21,-411.26 1759.91,-405.22 1749.34,-404.51 1751.21,-411.26"/>
</a>
</g>
</g>
<!-- Node36 -->
<g id="Node000036" class="node">
<title>Node36</title>
<g id="a_Node000036"><a xlink:href="expand_8c.html#a4a10ac07faa08df14e0a438c5feace6b" target="_top" xlink:title=" ">
<polygon fill="white" stroke="#666666" points="1717,-405.21 1629,-405.21 1629,-386.21 1717,-386.21 1717,-405.21"/>
<text text-anchor="middle" x="1673" y="-393.21" font-family="Helvetica,sans-Serif" font-size="10.00">in_dquote_exp</text>
</a>
</g>
</g>
<!-- Node34&#45;&gt;Node36 -->
<g id="edge65_Node000034_Node000036" class="edge">
<title>Node34&#45;&gt;Node36</title>
<g id="a_edge65_Node000034_Node000036"><a xlink:title=" ">
<path fill="none" stroke="#63b8ff" d="M1742.83,-395.71C1734.37,-395.71 1725.57,-395.71 1717.2,-395.71"/>
<polygon fill="#63b8ff" stroke="#63b8ff" points="1742.93,-399.21 1752.93,-395.71 1742.93,-392.21 1742.93,-399.21"/>
</a>
</g>
</g>
<!-- Node35&#45;&gt;Node21 -->
<g id="edge64_Node000035_Node000021" class="edge">
<title>Node35&#45;&gt;Node21</title>
<g id="a_edge64_Node000035_Node000021"><a xlink:title=" ">
<path fill="none" stroke="#63b8ff" d="M1335.85,-395.71C1326.89,-395.71 1317.91,-395.71 1310.03,-395.71"/>
<polygon fill="#63b8ff" stroke="#63b8ff" points="1335.88,-399.21 1345.88,-395.71 1335.88,-392.21 1335.88,-399.21"/>
</a>
</g>
</g>
<!-- Node37 -->
<g id="Node000037" class="node">
<title>Node37</title>
<g id="a_Node000037"><a xlink:href="expand_8c.html#a6d4728fd992669e4bb35624d37972179" target="_top" xlink:title=" ">
<polygon fill="white" stroke="#666666" points="1593,-405.21 1464,-405.21 1464,-386.21 1593,-386.21 1593,-405.21"/>
<text text-anchor="middle" x="1528.5" y="-393.21" font-family="Helvetica,sans-Serif" font-size="10.00">double_quotes_expand</text>
</a>
</g>
</g>
<!-- Node36&#45;&gt;Node37 -->
<g id="edge66_Node000036_Node000037" class="edge">
<title>Node36&#45;&gt;Node37</title>
<g id="a_edge66_Node000036_Node000037"><a xlink:title=" ">
<path fill="none" stroke="#63b8ff" d="M1618.61,-395.71C1610.34,-395.71 1601.73,-395.71 1593.26,-395.71"/>
<polygon fill="#63b8ff" stroke="#63b8ff" points="1618.86,-399.21 1628.86,-395.71 1618.86,-392.21 1618.86,-399.21"/>
</a>
</g>
</g>
<!-- Node37&#45;&gt;Node35 -->
<g id="edge67_Node000037_Node000035" class="edge">
<title>Node37&#45;&gt;Node35</title>
<g id="a_edge67_Node000037_Node000035"><a xlink:title=" ">
<path fill="none" stroke="#63b8ff" d="M1453.66,-395.71C1444.97,-395.71 1436.36,-395.71 1428.38,-395.71"/>
<polygon fill="#63b8ff" stroke="#63b8ff" points="1453.87,-399.21 1463.87,-395.71 1453.87,-392.21 1453.87,-399.21"/>
</a>
</g>
</g>
</g>
</svg>
