<?xml version="1.0" encoding="UTF-8" standalone="no"?>
<!DOCTYPE svg PUBLIC "-//W3C//DTD SVG 1.1//EN"
 "http://www.w3.org/Graphics/SVG/1.1/DTD/svg11.dtd">
<!-- Generated by graphviz version 2.43.0 (0)
 -->
<!-- Title: expand Pages: 1 -->
<svg width="893pt" height="203pt"
 viewBox="0.00 0.00 893.00 203.00" xmlns="http://www.w3.org/2000/svg" xmlns:xlink="http://www.w3.org/1999/xlink">
<g id="graph0" class="graph" transform="scale(1 1) rotate(0) translate(4 199)">
<title>expand</title>
<!-- Node1 -->
<g id="Node000001" class="node">
<title>Node1</title>
<g id="a_Node000001"><a xlink:title=" ">
<polygon fill="#999999" stroke="#666666" points="53,-74 0,-74 0,-55 53,-55 53,-74"/>
<text text-anchor="middle" x="26.5" y="-62" font-family="Helvetica,sans-Serif" font-size="10.00">expand</text>
</a>
</g>
</g>
<!-- Node2 -->
<g id="Node000002" class="node">
<title>Node2</title>
<g id="a_Node000002"><a xlink:href="expand_8c.html#a492ca861a96ee6319b97b4b1d6ba9835" target="_top" xlink:title=" ">
<polygon fill="white" stroke="#666666" points="171,-121 89,-121 89,-102 171,-102 171,-121"/>
<text text-anchor="middle" x="130" y="-109" font-family="Helvetica,sans-Serif" font-size="10.00">expand_word</text>
</a>
</g>
</g>
<!-- Node1&#45;&gt;Node2 -->
<g id="edge1_Node000001_Node000002" class="edge">
<title>Node1&#45;&gt;Node2</title>
<g id="a_edge1_Node000001_Node000002"><a xlink:title=" ">
<path fill="none" stroke="#63b8ff" d="M48.04,-74.01C62.66,-80.78 82.55,-89.99 98.95,-97.59"/>
<polygon fill="#63b8ff" stroke="#63b8ff" points="97.6,-100.82 108.14,-101.84 100.54,-94.46 97.6,-100.82"/>
</a>
</g>
</g>
<!-- Node8 -->
<g id="Node000008" class="node">
<title>Node8</title>
<g id="a_Node000008"><a xlink:href="expand_8c.html#aaf941edbfdd3ac08d813ff01acc1f963" target="_top" xlink:title=" ">
<polygon fill="white" stroke="#666666" points="698,-19 645,-19 645,0 698,0 698,-19"/>
<text text-anchor="middle" x="671.5" y="-7" font-family="Helvetica,sans-Serif" font-size="10.00">free_ex</text>
</a>
</g>
</g>
<!-- Node1&#45;&gt;Node8 -->
<g id="edge19_Node000001_Node000008" class="edge">
<title>Node1&#45;&gt;Node8</title>
<g id="a_edge19_Node000001_Node000008"><a xlink:title=" ">
<path fill="none" stroke="#63b8ff" d="M53.19,-57.79C97.3,-46.88 190.44,-26.5 270.5,-26.5 270.5,-26.5 270.5,-26.5 417,-26.5 494.87,-26.5 585.9,-18.41 634.9,-13.4"/>
<polygon fill="#63b8ff" stroke="#63b8ff" points="635.41,-16.86 644.99,-12.35 634.68,-9.9 635.41,-16.86"/>
</a>
</g>
</g>
<!-- Node3 -->
<g id="Node000003" class="node">
<title>Node3</title>
<g id="a_Node000003"><a xlink:href="expand_8c.html#a97a675ffacb4b71f4f3b4a30749d9f66" target="_top" xlink:title=" ">
<polygon fill="white" stroke="#666666" points="311,-158 232,-158 232,-139 311,-139 311,-158"/>
<text text-anchor="middle" x="271.5" y="-146" font-family="Helvetica,sans-Serif" font-size="10.00">append_char</text>
</a>
</g>
</g>
<!-- Node2&#45;&gt;Node3 -->
<g id="edge2_Node000002_Node000003" class="edge">
<title>Node2&#45;&gt;Node3</title>
<g id="a_edge2_Node000002_Node000003"><a xlink:title=" ">
<path fill="none" stroke="#63b8ff" d="M166.92,-121.03C184.44,-125.67 205.72,-131.32 224.42,-136.28"/>
<polygon fill="#63b8ff" stroke="#63b8ff" points="223.65,-139.69 234.21,-138.88 225.44,-132.93 223.65,-139.69"/>
</a>
</g>
</g>
<!-- Node4 -->
<g id="Node000004" class="node">
<title>Node4</title>
<g id="a_Node000004"><a xlink:href="expand_8c.html#a6d4728fd992669e4bb35624d37972179" target="_top" xlink:title=" ">
<polygon fill="white" stroke="#666666" points="336,-121 207,-121 207,-102 336,-102 336,-121"/>
<text text-anchor="middle" x="271.5" y="-109" font-family="Helvetica,sans-Serif" font-size="10.00">double_quotes_expand</text>
</a>
</g>
</g>
<!-- Node2&#45;&gt;Node4 -->
<g id="edge3_Node000002_Node000004" class="edge">
<title>Node2&#45;&gt;Node4</title>
<g id="a_edge3_Node000002_Node000004"><a xlink:title=" ">
<path fill="none" stroke="#63b8ff" d="M171.35,-111.5C179.33,-111.5 187.94,-111.5 196.64,-111.5"/>
<polygon fill="#63b8ff" stroke="#63b8ff" points="196.85,-115 206.85,-111.5 196.85,-108 196.85,-115"/>
</a>
</g>
</g>
<!-- Node7 -->
<g id="Node000007" class="node">
<title>Node7</title>
<g id="a_Node000007"><a xlink:href="expand_8c.html#a0a337c3a6b2595b2b8c03e171c9559ba" target="_top" xlink:title=" ">
<polygon fill="white" stroke="#666666" points="576.5,-88 502.5,-88 502.5,-69 576.5,-69 576.5,-88"/>
<text text-anchor="middle" x="539.5" y="-76" font-family="Helvetica,sans-Serif" font-size="10.00">var_expand</text>
</a>
</g>
</g>
<!-- Node2&#45;&gt;Node7 -->
<g id="edge18_Node000002_Node000007" class="edge">
<title>Node2&#45;&gt;Node7</title>
<g id="a_edge18_Node000002_Node000007"><a xlink:title=" ">
<path fill="none" stroke="#63b8ff" d="M165.17,-101.97C178.16,-98.72 193.17,-95.43 207,-93.5 308.07,-79.37 427.99,-77.61 492.28,-77.87"/>
<polygon fill="#63b8ff" stroke="#63b8ff" points="492.47,-81.37 502.49,-77.93 492.51,-74.37 492.47,-81.37"/>
</a>
</g>
</g>
<!-- Node17 -->
<g id="Node000017" class="node">
<title>Node17</title>
<g id="a_Node000017"><a xlink:href="expand_8c.html#ad45c8055962fa36940e109b04b7e562e" target="_top" xlink:title=" ">
<polygon fill="white" stroke="#666666" points="331.5,-195 211.5,-195 211.5,-176 331.5,-176 331.5,-195"/>
<text text-anchor="middle" x="271.5" y="-183" font-family="Helvetica,sans-Serif" font-size="10.00">single_quote_expand</text>
</a>
</g>
</g>
<!-- Node2&#45;&gt;Node17 -->
<g id="edge17_Node000002_Node000017" class="edge">
<title>Node2&#45;&gt;Node17</title>
<g id="a_edge17_Node000002_Node000017"><a xlink:title=" ">
<path fill="none" stroke="#63b8ff" d="M141.52,-121.19C155.48,-133.59 181.39,-154.95 207,-167.5 210.82,-169.37 214.87,-171.08 219,-172.63"/>
<polygon fill="#63b8ff" stroke="#63b8ff" points="218.11,-176.03 228.71,-175.97 220.39,-169.41 218.11,-176.03"/>
</a>
</g>
</g>
<!-- Node5 -->
<g id="Node000005" class="node">
<title>Node5</title>
<g id="a_Node000005"><a xlink:href="expand_8c.html#a4a10ac07faa08df14e0a438c5feace6b" target="_top" xlink:title=" ">
<polygon fill="white" stroke="#666666" points="460,-121 372,-121 372,-102 460,-102 460,-121"/>
<text text-anchor="middle" x="416" y="-109" font-family="Helvetica,sans-Serif" font-size="10.00">in_dquote_exp</text>
</a>
</g>
</g>
<!-- Node4&#45;&gt;Node5 -->
<g id="edge4_Node000004_Node000005" class="edge">
<title>Node4&#45;&gt;Node5</title>
<g id="a_edge4_Node000004_Node000005"><a xlink:title=" ">
<path fill="none" stroke="#63b8ff" d="M336.25,-111.5C344.69,-111.5 353.27,-111.5 361.52,-111.5"/>
<polygon fill="#63b8ff" stroke="#63b8ff" points="361.74,-115 371.74,-111.5 361.74,-108 361.74,-115"/>
</a>
</g>
</g>
<!-- Node6 -->
<g id="Node000006" class="node">
<title>Node6</title>
<g id="a_Node000006"><a xlink:href="expand_8c.html#a46b3549565fede625ad04072f2654aa4" target="_top" xlink:title=" ">
<polygon fill="white" stroke="#666666" points="583,-125 496,-125 496,-106 583,-106 583,-125"/>
<text text-anchor="middle" x="539.5" y="-113" font-family="Helvetica,sans-Serif" font-size="10.00">is_expandable</text>
</a>
</g>
</g>
<!-- Node5&#45;&gt;Node6 -->
<g id="edge5_Node000005_Node000006" class="edge">
<title>Node5&#45;&gt;Node6</title>
<g id="a_edge5_Node000005_Node000006"><a xlink:title=" ">
<path fill="none" stroke="#63b8ff" d="M460.18,-112.92C468.42,-113.19 477.14,-113.48 485.64,-113.76"/>
<polygon fill="#63b8ff" stroke="#63b8ff" points="485.76,-117.27 495.87,-114.1 485.99,-110.27 485.76,-117.27"/>
</a>
</g>
</g>
<!-- Node5&#45;&gt;Node7 -->
<g id="edge6_Node000005_Node000007" class="edge">
<title>Node5&#45;&gt;Node7</title>
<g id="a_edge6_Node000005_Node000007"><a xlink:title=" ">
<path fill="none" stroke="#63b8ff" d="M452.14,-101.96C465.11,-98.43 479.99,-94.39 493.7,-90.67"/>
<polygon fill="#63b8ff" stroke="#63b8ff" points="494.7,-94.02 503.44,-88.02 492.87,-87.27 494.7,-94.02"/>
</a>
</g>
</g>
<!-- Node7&#45;&gt;Node8 -->
<g id="edge7_Node000007_Node000008" class="edge">
<title>Node7&#45;&gt;Node8</title>
<g id="a_edge7_Node000007_Node000008"><a xlink:title=" ">
<path fill="none" stroke="#63b8ff" d="M553.26,-68.83C568.34,-57.73 594.49,-39.53 619,-27.5 624.1,-25 629.64,-22.68 635.13,-20.59"/>
<polygon fill="#63b8ff" stroke="#63b8ff" points="636.63,-23.78 644.86,-17.11 634.27,-17.19 636.63,-23.78"/>
</a>
</g>
</g>
<!-- Node9 -->
<g id="Node000009" class="node">
<title>Node9</title>
<g id="a_Node000009"><a xlink:href="hashmap_8c.html#aa54a9eed65359c74557f0f55c9ca3dd3" target="_top" xlink:title="Get the variable from the dictionnary.">
<polygon fill="white" stroke="#666666" points="698,-130 645,-130 645,-111 698,-111 698,-130"/>
<text text-anchor="middle" x="671.5" y="-118" font-family="Helvetica,sans-Serif" font-size="10.00">get_var</text>
</a>
</g>
</g>
<!-- Node7&#45;&gt;Node9 -->
<g id="edge8_Node000007_Node000009" class="edge">
<title>Node7&#45;&gt;Node9</title>
<g id="a_edge8_Node000007_Node000009"><a xlink:title=" ">
<path fill="none" stroke="#63b8ff" d="M570,-88.03C589.31,-94.27 614.66,-102.46 635.06,-109.05"/>
<polygon fill="#63b8ff" stroke="#63b8ff" points="634.04,-112.4 644.64,-112.14 636.2,-105.74 634.04,-112.4"/>
</a>
</g>
</g>
<!-- Node13 -->
<g id="Node000013" class="node">
<title>Node13</title>
<g id="a_Node000013"><a xlink:href="expand_8c.html#ac1225d88933658edb6e51e4ed8f003c3" target="_top" xlink:title=" ">
<polygon fill="white" stroke="#666666" points="708,-93 635,-93 635,-74 708,-74 708,-93"/>
<text text-anchor="middle" x="671.5" y="-81" font-family="Helvetica,sans-Serif" font-size="10.00">val_append</text>
</a>
</g>
</g>
<!-- Node7&#45;&gt;Node13 -->
<g id="edge13_Node000007_Node000013" class="edge">
<title>Node7&#45;&gt;Node13</title>
<g id="a_edge13_Node000007_Node000013"><a xlink:title=" ">
<path fill="none" stroke="#63b8ff" d="M576.71,-79.89C591.63,-80.47 609.07,-81.14 624.85,-81.74"/>
<polygon fill="#63b8ff" stroke="#63b8ff" points="624.8,-85.24 634.93,-82.13 625.07,-78.25 624.8,-85.24"/>
</a>
</g>
</g>
<!-- Node14 -->
<g id="Node000014" class="node">
<title>Node14</title>
<g id="a_Node000014"><a xlink:href="expand_8c.html#aa0106a12d15398cad9ca20f96f1eb374" target="_top" xlink:title=" ">
<polygon fill="white" stroke="#666666" points="715.5,-56 627.5,-56 627.5,-37 715.5,-37 715.5,-56"/>
<text text-anchor="middle" x="671.5" y="-44" font-family="Helvetica,sans-Serif" font-size="10.00">var_exp_brack</text>
</a>
</g>
</g>
<!-- Node7&#45;&gt;Node14 -->
<g id="edge14_Node000007_Node000014" class="edge">
<title>Node7&#45;&gt;Node14</title>
<g id="a_edge14_Node000007_Node000014"><a xlink:title=" ">
<path fill="none" stroke="#63b8ff" d="M576.71,-69.59C590.63,-66.16 606.75,-62.19 621.67,-58.52"/>
<polygon fill="#63b8ff" stroke="#63b8ff" points="622.88,-61.83 631.75,-56.04 621.21,-55.03 622.88,-61.83"/>
</a>
</g>
</g>
<!-- Node15 -->
<g id="Node000015" class="node">
<title>Node15</title>
<g id="a_Node000015"><a xlink:href="expand_8c.html#a5785fb584914d075e9a5d933e903823c" target="_top" xlink:title=" ">
<polygon fill="white" stroke="#666666" points="724,-185 619,-185 619,-166 724,-166 724,-185"/>
<text text-anchor="middle" x="671.5" y="-173" font-family="Helvetica,sans-Serif" font-size="10.00">var_exp_no_brack</text>
</a>
</g>
</g>
<!-- Node7&#45;&gt;Node15 -->
<g id="edge15_Node000007_Node000015" class="edge">
<title>Node7&#45;&gt;Node15</title>
<g id="a_edge15_Node000007_Node000015"><a xlink:title=" ">
<path fill="none" stroke="#63b8ff" d="M568.5,-88.07C573.67,-90.63 578.77,-93.75 583,-97.5 606.27,-118.13 594.88,-137.87 619,-157.5 620.57,-158.78 622.24,-159.97 623.97,-161.08"/>
<polygon fill="#63b8ff" stroke="#63b8ff" points="622.64,-164.33 633.11,-165.96 625.94,-158.16 622.64,-164.33"/>
</a>
</g>
</g>
<!-- Node9&#45;&gt;Node9 -->
<g id="edge9_Node000009_Node000009" class="edge">
<title>Node9&#45;&gt;Node9</title>
<g id="a_edge9_Node000009_Node000009"><a xlink:title=" ">
<path fill="none" stroke="#63b8ff" d="M653.93,-130.08C645.38,-138.73 651.24,-148 671.5,-148 684.16,-148 691.2,-144.38 692.61,-139.55"/>
<polygon fill="#63b8ff" stroke="#63b8ff" points="695.85,-138.22 689.07,-130.08 689.29,-140.68 695.85,-138.22"/>
</a>
</g>
</g>
<!-- Node10 -->
<g id="Node000010" class="node">
<title>Node10</title>
<g id="a_Node000010"><a xlink:href="hash_8c.html#ac74a7e29e54c223be6213463974d6154" target="_top" xlink:title=" ">
<polygon fill="white" stroke="#666666" points="807,-139 767,-139 767,-120 807,-120 807,-139"/>
<text text-anchor="middle" x="787" y="-127" font-family="Helvetica,sans-Serif" font-size="10.00">hash</text>
</a>
</g>
</g>
<!-- Node9&#45;&gt;Node10 -->
<g id="edge10_Node000009_Node000010" class="edge">
<title>Node9&#45;&gt;Node10</title>
<g id="a_edge10_Node000009_Node000010"><a xlink:title=" ">
<path fill="none" stroke="#63b8ff" d="M698.25,-122.54C715.64,-123.92 738.63,-125.74 756.71,-127.18"/>
<polygon fill="#63b8ff" stroke="#63b8ff" points="756.47,-130.67 766.71,-127.97 757.02,-123.69 756.47,-130.67"/>
</a>
</g>
</g>
<!-- Node11 -->
<g id="Node000011" class="node">
<title>Node11</title>
<g id="a_Node000011"><a xlink:href="hashmap_8c.html#a5b2c78a0a08d606dfbf21fe636373e6e" target="_top" xlink:title=" ">
<polygon fill="white" stroke="#666666" points="812.5,-102 761.5,-102 761.5,-83 812.5,-83 812.5,-102"/>
<text text-anchor="middle" x="787" y="-90" font-family="Helvetica,sans-Serif" font-size="10.00">special</text>
</a>
</g>
</g>
<!-- Node9&#45;&gt;Node11 -->
<g id="edge11_Node000009_Node000011" class="edge">
<title>Node9&#45;&gt;Node11</title>
<g id="a_edge11_Node000009_Node000011"><a xlink:title=" ">
<path fill="none" stroke="#63b8ff" d="M698.25,-114.15C713.85,-110.3 733.96,-105.34 750.99,-101.14"/>
<polygon fill="#63b8ff" stroke="#63b8ff" points="752.26,-104.43 761.13,-98.64 750.58,-97.63 752.26,-104.43"/>
</a>
</g>
</g>
<!-- Node12 -->
<g id="Node000012" class="node">
<title>Node12</title>
<g id="a_Node000012"><a xlink:href="itoa_8c.html#a43f392ec16afbe6cdb1ee6d1f1347f99" target="_top" xlink:title="Convert int to string.">
<polygon fill="white" stroke="#666666" points="885,-102 850,-102 850,-83 885,-83 885,-102"/>
<text text-anchor="middle" x="867.5" y="-90" font-family="Helvetica,sans-Serif" font-size="10.00">itoa</text>
</a>
</g>
</g>
<!-- Node11&#45;&gt;Node12 -->
<g id="edge12_Node000011_Node000012" class="edge">
<title>Node11&#45;&gt;Node12</title>
<g id="a_edge12_Node000011_Node000012"><a xlink:title=" ">
<path fill="none" stroke="#63b8ff" d="M812.84,-92.5C821.4,-92.5 831.02,-92.5 839.72,-92.5"/>
<polygon fill="#63b8ff" stroke="#63b8ff" points="839.76,-96 849.76,-92.5 839.76,-89 839.76,-96"/>
</a>
</g>
</g>
<!-- Node16 -->
<g id="Node000016" class="node">
<title>Node16</title>
<g id="a_Node000016"><a xlink:href="expand_8c.html#a66cc7be396f0ef502a888b56eee2f4bf" target="_top" xlink:title=" ">
<polygon fill="white" stroke="#666666" points="814,-185 760,-185 760,-166 814,-166 814,-185"/>
<text text-anchor="middle" x="787" y="-173" font-family="Helvetica,sans-Serif" font-size="10.00">is_word</text>
</a>
</g>
</g>
<!-- Node15&#45;&gt;Node16 -->
<g id="edge16_Node000015_Node000016" class="edge">
<title>Node15&#45;&gt;Node16</title>
<g id="a_edge16_Node000015_Node000016"><a xlink:title=" ">
<path fill="none" stroke="#63b8ff" d="M724.27,-175.5C732.8,-175.5 741.49,-175.5 749.55,-175.5"/>
<polygon fill="#63b8ff" stroke="#63b8ff" points="749.72,-179 759.72,-175.5 749.72,-172 749.72,-179"/>
</a>
</g>
</g>
</g>
</svg>
