<?xml version="1.0" encoding="UTF-8" standalone="no"?>
<!DOCTYPE svg PUBLIC "-//W3C//DTD SVG 1.1//EN"
 "http://www.w3.org/Graphics/SVG/1.1/DTD/svg11.dtd">
<!-- Generated by graphviz version 2.43.0 (0)
 -->
<!-- Title: var_expand Pages: 1 -->
<svg width="384pt" height="193pt"
 viewBox="0.00 0.00 384.00 193.00" xmlns="http://www.w3.org/2000/svg" xmlns:xlink="http://www.w3.org/1999/xlink">
<g id="graph0" class="graph" transform="scale(1 1) rotate(0) translate(4 189)">
<title>var_expand</title>
<!-- Node1 -->
<g id="Node000001" class="node">
<title>Node1</title>
<g id="a_Node000001"><a xlink:title=" ">
<polygon fill="#999999" stroke="#666666" points="74,-93 0,-93 0,-74 74,-74 74,-93"/>
<text text-anchor="middle" x="37" y="-81" font-family="Helvetica,sans-Serif" font-size="10.00">var_expand</text>
</a>
</g>
</g>
<!-- Node2 -->
<g id="Node000002" class="node">
<title>Node2</title>
<g id="a_Node000002"><a xlink:href="expand_8c.html#aaf941edbfdd3ac08d813ff01acc1f963" target="_top" xlink:title=" ">
<polygon fill="white" stroke="#666666" points="189,-185 136,-185 136,-166 189,-166 189,-185"/>
<text text-anchor="middle" x="162.5" y="-173" font-family="Helvetica,sans-Serif" font-size="10.00">free_ex</text>
</a>
</g>
</g>
<!-- Node1&#45;&gt;Node2 -->
<g id="edge1_Node000001_Node000002" class="edge">
<title>Node1&#45;&gt;Node2</title>
<g id="a_edge1_Node000001_Node000002"><a xlink:title=" ">
<path fill="none" stroke="#63b8ff" d="M44.9,-93.05C56.62,-108.63 81.89,-139.57 110,-157.5 115.01,-160.7 120.67,-163.41 126.34,-165.68"/>
<polygon fill="#63b8ff" stroke="#63b8ff" points="125.21,-168.99 135.81,-169.1 127.59,-162.41 125.21,-168.99"/>
</a>
</g>
</g>
<!-- Node3 -->
<g id="Node000003" class="node">
<title>Node3</title>
<g id="a_Node000003"><a xlink:href="hashmap_8c.html#aa54a9eed65359c74557f0f55c9ca3dd3" target="_top" xlink:title="Get the variable from the dictionnary.">
<polygon fill="white" stroke="#666666" points="189,-130 136,-130 136,-111 189,-111 189,-130"/>
<text text-anchor="middle" x="162.5" y="-118" font-family="Helvetica,sans-Serif" font-size="10.00">get_var</text>
</a>
</g>
</g>
<!-- Node1&#45;&gt;Node3 -->
<g id="edge2_Node000001_Node000003" class="edge">
<title>Node1&#45;&gt;Node3</title>
<g id="a_edge2_Node000001_Node000003"><a xlink:title=" ">
<path fill="none" stroke="#63b8ff" d="M69.8,-93.03C86.89,-98.15 108.01,-104.48 125.68,-109.77"/>
<polygon fill="#63b8ff" stroke="#63b8ff" points="125.04,-113.23 135.62,-112.75 127.05,-106.52 125.04,-113.23"/>
</a>
</g>
</g>
<!-- Node7 -->
<g id="Node000007" class="node">
<title>Node7</title>
<g id="a_Node000007"><a xlink:href="expand_8c.html#ac1225d88933658edb6e51e4ed8f003c3" target="_top" xlink:title=" ">
<polygon fill="white" stroke="#666666" points="199,-93 126,-93 126,-74 199,-74 199,-93"/>
<text text-anchor="middle" x="162.5" y="-81" font-family="Helvetica,sans-Serif" font-size="10.00">val_append</text>
</a>
</g>
</g>
<!-- Node1&#45;&gt;Node7 -->
<g id="edge7_Node000001_Node000007" class="edge">
<title>Node1&#45;&gt;Node7</title>
<g id="a_edge7_Node000001_Node000007"><a xlink:title=" ">
<path fill="none" stroke="#63b8ff" d="M74.05,-83.5C86.99,-83.5 101.76,-83.5 115.42,-83.5"/>
<polygon fill="#63b8ff" stroke="#63b8ff" points="115.62,-87 125.62,-83.5 115.62,-80 115.62,-87"/>
</a>
</g>
</g>
<!-- Node8 -->
<g id="Node000008" class="node">
<title>Node8</title>
<g id="a_Node000008"><a xlink:href="expand_8c.html#aa0106a12d15398cad9ca20f96f1eb374" target="_top" xlink:title=" ">
<polygon fill="white" stroke="#666666" points="206.5,-56 118.5,-56 118.5,-37 206.5,-37 206.5,-56"/>
<text text-anchor="middle" x="162.5" y="-44" font-family="Helvetica,sans-Serif" font-size="10.00">var_exp_brack</text>
</a>
</g>
</g>
<!-- Node1&#45;&gt;Node8 -->
<g id="edge8_Node000001_Node000008" class="edge">
<title>Node1&#45;&gt;Node8</title>
<g id="a_edge8_Node000001_Node000008"><a xlink:title=" ">
<path fill="none" stroke="#63b8ff" d="M69.8,-73.97C84.96,-69.43 103.28,-63.94 119.55,-59.07"/>
<polygon fill="#63b8ff" stroke="#63b8ff" points="120.8,-62.35 129.37,-56.12 118.79,-55.64 120.8,-62.35"/>
</a>
</g>
</g>
<!-- Node9 -->
<g id="Node000009" class="node">
<title>Node9</title>
<g id="a_Node000009"><a xlink:href="expand_8c.html#a5785fb584914d075e9a5d933e903823c" target="_top" xlink:title=" ">
<polygon fill="white" stroke="#666666" points="215,-19 110,-19 110,0 215,0 215,-19"/>
<text text-anchor="middle" x="162.5" y="-7" font-family="Helvetica,sans-Serif" font-size="10.00">var_exp_no_brack</text>
</a>
</g>
</g>
<!-- Node1&#45;&gt;Node9 -->
<g id="edge9_Node000001_Node000009" class="edge">
<title>Node1&#45;&gt;Node9</title>
<g id="a_edge9_Node000001_Node000009"><a xlink:title=" ">
<path fill="none" stroke="#63b8ff" d="M47.98,-74C61.24,-61.81 85.8,-40.68 110,-27.5 113.05,-25.84 116.27,-24.29 119.57,-22.85"/>
<polygon fill="#63b8ff" stroke="#63b8ff" points="120.97,-26.06 128.94,-19.08 118.36,-19.56 120.97,-26.06"/>
</a>
</g>
</g>
<!-- Node3&#45;&gt;Node3 -->
<g id="edge3_Node000003_Node000003" class="edge">
<title>Node3&#45;&gt;Node3</title>
<g id="a_edge3_Node000003_Node000003"><a xlink:title=" ">
<path fill="none" stroke="#63b8ff" d="M144.93,-130.08C136.38,-138.73 142.24,-148 162.5,-148 175.16,-148 182.2,-144.38 183.61,-139.55"/>
<polygon fill="#63b8ff" stroke="#63b8ff" points="186.85,-138.22 180.07,-130.08 180.29,-140.68 186.85,-138.22"/>
</a>
</g>
</g>
<!-- Node4 -->
<g id="Node000004" class="node">
<title>Node4</title>
<g id="a_Node000004"><a xlink:href="hash_8c.html#ac74a7e29e54c223be6213463974d6154" target="_top" xlink:title=" ">
<polygon fill="white" stroke="#666666" points="298,-148 258,-148 258,-129 298,-129 298,-148"/>
<text text-anchor="middle" x="278" y="-136" font-family="Helvetica,sans-Serif" font-size="10.00">hash</text>
</a>
</g>
</g>
<!-- Node3&#45;&gt;Node4 -->
<g id="edge4_Node000003_Node000004" class="edge">
<title>Node3&#45;&gt;Node4</title>
<g id="a_edge4_Node000003_Node000004"><a xlink:title=" ">
<path fill="none" stroke="#63b8ff" d="M189.25,-124.58C206.64,-127.34 229.63,-130.99 247.71,-133.85"/>
<polygon fill="#63b8ff" stroke="#63b8ff" points="247.29,-137.33 257.71,-135.44 248.38,-130.42 247.29,-137.33"/>
</a>
</g>
</g>
<!-- Node5 -->
<g id="Node000005" class="node">
<title>Node5</title>
<g id="a_Node000005"><a xlink:href="hashmap_8c.html#a5b2c78a0a08d606dfbf21fe636373e6e" target="_top" xlink:title=" ">
<polygon fill="white" stroke="#666666" points="303.5,-111 252.5,-111 252.5,-92 303.5,-92 303.5,-111"/>
<text text-anchor="middle" x="278" y="-99" font-family="Helvetica,sans-Serif" font-size="10.00">special</text>
</a>
</g>
</g>
<!-- Node3&#45;&gt;Node5 -->
<g id="edge5_Node000003_Node000005" class="edge">
<title>Node3&#45;&gt;Node5</title>
<g id="a_edge5_Node000003_Node000005"><a xlink:title=" ">
<path fill="none" stroke="#63b8ff" d="M189.25,-116.19C204.85,-113.58 224.96,-110.21 241.99,-107.36"/>
<polygon fill="#63b8ff" stroke="#63b8ff" points="242.84,-110.77 252.13,-105.66 241.69,-103.86 242.84,-110.77"/>
</a>
</g>
</g>
<!-- Node6 -->
<g id="Node000006" class="node">
<title>Node6</title>
<g id="a_Node000006"><a xlink:href="itoa_8c.html#a43f392ec16afbe6cdb1ee6d1f1347f99" target="_top" xlink:title="Convert int to string.">
<polygon fill="white" stroke="#666666" points="376,-111 341,-111 341,-92 376,-92 376,-111"/>
<text text-anchor="middle" x="358.5" y="-99" font-family="Helvetica,sans-Serif" font-size="10.00">itoa</text>
</a>
</g>
</g>
<!-- Node5&#45;&gt;Node6 -->
<g id="edge6_Node000005_Node000006" class="edge">
<title>Node5&#45;&gt;Node6</title>
<g id="a_edge6_Node000005_Node000006"><a xlink:title=" ">
<path fill="none" stroke="#63b8ff" d="M303.84,-101.5C312.4,-101.5 322.02,-101.5 330.72,-101.5"/>
<polygon fill="#63b8ff" stroke="#63b8ff" points="330.76,-105 340.76,-101.5 330.76,-98 330.76,-105"/>
</a>
</g>
</g>
<!-- Node10 -->
<g id="Node000010" class="node">
<title>Node10</title>
<g id="a_Node000010"><a xlink:href="expand_8c.html#a66cc7be396f0ef502a888b56eee2f4bf" target="_top" xlink:title=" ">
<polygon fill="white" stroke="#666666" points="305,-19 251,-19 251,0 305,0 305,-19"/>
<text text-anchor="middle" x="278" y="-7" font-family="Helvetica,sans-Serif" font-size="10.00">is_word</text>
</a>
</g>
</g>
<!-- Node9&#45;&gt;Node10 -->
<g id="edge10_Node000009_Node000010" class="edge">
<title>Node9&#45;&gt;Node10</title>
<g id="a_edge10_Node000009_Node000010"><a xlink:title=" ">
<path fill="none" stroke="#63b8ff" d="M215.27,-9.5C223.8,-9.5 232.49,-9.5 240.55,-9.5"/>
<polygon fill="#63b8ff" stroke="#63b8ff" points="240.72,-13 250.72,-9.5 240.72,-6 240.72,-13"/>
</a>
</g>
</g>
</g>
</svg>
