<?xml version="1.0" encoding="UTF-8" standalone="no"?>
<!DOCTYPE svg PUBLIC "-//W3C//DTD SVG 1.1//EN"
 "http://www.w3.org/Graphics/SVG/1.1/DTD/svg11.dtd">
<!-- Generated by graphviz version 2.43.0 (0)
 -->
<!-- Title: in_dquote_exp Pages: 1 -->
<svg width="521pt" height="193pt"
 viewBox="0.00 0.00 521.00 193.00" xmlns="http://www.w3.org/2000/svg" xmlns:xlink="http://www.w3.org/1999/xlink">
<g id="graph0" class="graph" transform="scale(1 1) rotate(0) translate(4 189)">
<title>in_dquote_exp</title>
<!-- Node1 -->
<g id="Node000001" class="node">
<title>Node1</title>
<g id="a_Node000001"><a xlink:title=" ">
<polygon fill="#999999" stroke="#666666" points="88,-111 0,-111 0,-92 88,-92 88,-111"/>
<text text-anchor="middle" x="44" y="-99" font-family="Helvetica,sans-Serif" font-size="10.00">in_dquote_exp</text>
</a>
</g>
</g>
<!-- Node2 -->
<g id="Node000002" class="node">
<title>Node2</title>
<g id="a_Node000002"><a xlink:href="expand_8c.html#a46b3549565fede625ad04072f2654aa4" target="_top" xlink:title=" ">
<polygon fill="white" stroke="#666666" points="211,-130 124,-130 124,-111 211,-111 211,-130"/>
<text text-anchor="middle" x="167.5" y="-118" font-family="Helvetica,sans-Serif" font-size="10.00">is_expandable</text>
</a>
</g>
</g>
<!-- Node1&#45;&gt;Node2 -->
<g id="edge1_Node000001_Node000002" class="edge">
<title>Node1&#45;&gt;Node2</title>
<g id="a_edge1_Node000001_Node000002"><a xlink:title=" ">
<path fill="none" stroke="#63b8ff" d="M88.18,-108.25C96.51,-109.56 105.33,-110.93 113.92,-112.28"/>
<polygon fill="#63b8ff" stroke="#63b8ff" points="113.45,-115.75 123.87,-113.83 114.53,-108.83 113.45,-115.75"/>
</a>
</g>
</g>
<!-- Node3 -->
<g id="Node000003" class="node">
<title>Node3</title>
<g id="a_Node000003"><a xlink:href="expand_8c.html#a0a337c3a6b2595b2b8c03e171c9559ba" target="_top" xlink:title=" ">
<polygon fill="white" stroke="#666666" points="204.5,-93 130.5,-93 130.5,-74 204.5,-74 204.5,-93"/>
<text text-anchor="middle" x="167.5" y="-81" font-family="Helvetica,sans-Serif" font-size="10.00">var_expand</text>
</a>
</g>
</g>
<!-- Node1&#45;&gt;Node3 -->
<g id="edge2_Node000001_Node000003" class="edge">
<title>Node1&#45;&gt;Node3</title>
<g id="a_edge2_Node000001_Node000003"><a xlink:title=" ">
<path fill="none" stroke="#63b8ff" d="M88.18,-95.1C98.62,-93.56 109.82,-91.9 120.39,-90.33"/>
<polygon fill="#63b8ff" stroke="#63b8ff" points="120.91,-93.79 130.29,-88.87 119.88,-86.87 120.91,-93.79"/>
</a>
</g>
</g>
<!-- Node4 -->
<g id="Node000004" class="node">
<title>Node4</title>
<g id="a_Node000004"><a xlink:href="expand_8c.html#aaf941edbfdd3ac08d813ff01acc1f963" target="_top" xlink:title=" ">
<polygon fill="white" stroke="#666666" points="326,-185 273,-185 273,-166 326,-166 326,-185"/>
<text text-anchor="middle" x="299.5" y="-173" font-family="Helvetica,sans-Serif" font-size="10.00">free_ex</text>
</a>
</g>
</g>
<!-- Node3&#45;&gt;Node4 -->
<g id="edge3_Node000003_Node000004" class="edge">
<title>Node3&#45;&gt;Node4</title>
<g id="a_edge3_Node000003_Node000004"><a xlink:title=" ">
<path fill="none" stroke="#63b8ff" d="M196.39,-93.2C201.57,-95.75 206.69,-98.83 211,-102.5 233.24,-121.45 223.99,-139.5 247,-157.5 251.78,-161.24 257.39,-164.23 263.12,-166.62"/>
<polygon fill="#63b8ff" stroke="#63b8ff" points="262.15,-169.99 272.75,-170.09 264.53,-163.41 262.15,-169.99"/>
</a>
</g>
</g>
<!-- Node5 -->
<g id="Node000005" class="node">
<title>Node5</title>
<g id="a_Node000005"><a xlink:href="hashmap_8c.html#aa54a9eed65359c74557f0f55c9ca3dd3" target="_top" xlink:title="Get the variable from the dictionnary.">
<polygon fill="white" stroke="#666666" points="326,-130 273,-130 273,-111 326,-111 326,-130"/>
<text text-anchor="middle" x="299.5" y="-118" font-family="Helvetica,sans-Serif" font-size="10.00">get_var</text>
</a>
</g>
</g>
<!-- Node3&#45;&gt;Node5 -->
<g id="edge4_Node000003_Node000005" class="edge">
<title>Node3&#45;&gt;Node5</title>
<g id="a_edge4_Node000003_Node000005"><a xlink:title=" ">
<path fill="none" stroke="#63b8ff" d="M201.98,-93.03C220.73,-98.36 244.09,-105.01 263.14,-110.44"/>
<polygon fill="#63b8ff" stroke="#63b8ff" points="262.36,-113.85 272.93,-113.22 264.28,-107.12 262.36,-113.85"/>
</a>
</g>
</g>
<!-- Node9 -->
<g id="Node000009" class="node">
<title>Node9</title>
<g id="a_Node000009"><a xlink:href="expand_8c.html#ac1225d88933658edb6e51e4ed8f003c3" target="_top" xlink:title=" ">
<polygon fill="white" stroke="#666666" points="336,-93 263,-93 263,-74 336,-74 336,-93"/>
<text text-anchor="middle" x="299.5" y="-81" font-family="Helvetica,sans-Serif" font-size="10.00">val_append</text>
</a>
</g>
</g>
<!-- Node3&#45;&gt;Node9 -->
<g id="edge9_Node000003_Node000009" class="edge">
<title>Node3&#45;&gt;Node9</title>
<g id="a_edge9_Node000003_Node000009"><a xlink:title=" ">
<path fill="none" stroke="#63b8ff" d="M204.71,-83.5C219.63,-83.5 237.07,-83.5 252.85,-83.5"/>
<polygon fill="#63b8ff" stroke="#63b8ff" points="252.93,-87 262.93,-83.5 252.93,-80 252.93,-87"/>
</a>
</g>
</g>
<!-- Node10 -->
<g id="Node000010" class="node">
<title>Node10</title>
<g id="a_Node000010"><a xlink:href="expand_8c.html#aa0106a12d15398cad9ca20f96f1eb374" target="_top" xlink:title=" ">
<polygon fill="white" stroke="#666666" points="343.5,-56 255.5,-56 255.5,-37 343.5,-37 343.5,-56"/>
<text text-anchor="middle" x="299.5" y="-44" font-family="Helvetica,sans-Serif" font-size="10.00">var_exp_brack</text>
</a>
</g>
</g>
<!-- Node3&#45;&gt;Node10 -->
<g id="edge10_Node000003_Node000010" class="edge">
<title>Node3&#45;&gt;Node10</title>
<g id="a_edge10_Node000003_Node000010"><a xlink:title=" ">
<path fill="none" stroke="#63b8ff" d="M201.98,-73.97C218.08,-69.39 237.58,-63.84 254.83,-58.93"/>
<polygon fill="#63b8ff" stroke="#63b8ff" points="256.02,-62.23 264.68,-56.12 254.11,-55.5 256.02,-62.23"/>
</a>
</g>
</g>
<!-- Node11 -->
<g id="Node000011" class="node">
<title>Node11</title>
<g id="a_Node000011"><a xlink:href="expand_8c.html#a5785fb584914d075e9a5d933e903823c" target="_top" xlink:title=" ">
<polygon fill="white" stroke="#666666" points="352,-19 247,-19 247,0 352,0 352,-19"/>
<text text-anchor="middle" x="299.5" y="-7" font-family="Helvetica,sans-Serif" font-size="10.00">var_exp_no_brack</text>
</a>
</g>
</g>
<!-- Node3&#45;&gt;Node11 -->
<g id="edge11_Node000003_Node000011" class="edge">
<title>Node3&#45;&gt;Node11</title>
<g id="a_edge11_Node000003_Node000011"><a xlink:title=" ">
<path fill="none" stroke="#63b8ff" d="M179.79,-73.86C194.48,-61.71 221.28,-40.82 247,-27.5 250.26,-25.81 253.72,-24.22 257.23,-22.74"/>
<polygon fill="#63b8ff" stroke="#63b8ff" points="258.55,-25.98 266.59,-19.07 256,-19.46 258.55,-25.98"/>
</a>
</g>
</g>
<!-- Node5&#45;&gt;Node5 -->
<g id="edge5_Node000005_Node000005" class="edge">
<title>Node5&#45;&gt;Node5</title>
<g id="a_edge5_Node000005_Node000005"><a xlink:title=" ">
<path fill="none" stroke="#63b8ff" d="M281.93,-130.08C273.38,-138.73 279.24,-148 299.5,-148 312.16,-148 319.2,-144.38 320.61,-139.55"/>
<polygon fill="#63b8ff" stroke="#63b8ff" points="323.85,-138.22 317.07,-130.08 317.29,-140.68 323.85,-138.22"/>
</a>
</g>
</g>
<!-- Node6 -->
<g id="Node000006" class="node">
<title>Node6</title>
<g id="a_Node000006"><a xlink:href="hash_8c.html#ac74a7e29e54c223be6213463974d6154" target="_top" xlink:title=" ">
<polygon fill="white" stroke="#666666" points="435,-148 395,-148 395,-129 435,-129 435,-148"/>
<text text-anchor="middle" x="415" y="-136" font-family="Helvetica,sans-Serif" font-size="10.00">hash</text>
</a>
</g>
</g>
<!-- Node5&#45;&gt;Node6 -->
<g id="edge6_Node000005_Node000006" class="edge">
<title>Node5&#45;&gt;Node6</title>
<g id="a_edge6_Node000005_Node000006"><a xlink:title=" ">
<path fill="none" stroke="#63b8ff" d="M326.25,-124.58C343.64,-127.34 366.63,-130.99 384.71,-133.85"/>
<polygon fill="#63b8ff" stroke="#63b8ff" points="384.29,-137.33 394.71,-135.44 385.38,-130.42 384.29,-137.33"/>
</a>
</g>
</g>
<!-- Node7 -->
<g id="Node000007" class="node">
<title>Node7</title>
<g id="a_Node000007"><a xlink:href="hashmap_8c.html#a5b2c78a0a08d606dfbf21fe636373e6e" target="_top" xlink:title=" ">
<polygon fill="white" stroke="#666666" points="440.5,-111 389.5,-111 389.5,-92 440.5,-92 440.5,-111"/>
<text text-anchor="middle" x="415" y="-99" font-family="Helvetica,sans-Serif" font-size="10.00">special</text>
</a>
</g>
</g>
<!-- Node5&#45;&gt;Node7 -->
<g id="edge7_Node000005_Node000007" class="edge">
<title>Node5&#45;&gt;Node7</title>
<g id="a_edge7_Node000005_Node000007"><a xlink:title=" ">
<path fill="none" stroke="#63b8ff" d="M326.25,-116.19C341.85,-113.58 361.96,-110.21 378.99,-107.36"/>
<polygon fill="#63b8ff" stroke="#63b8ff" points="379.84,-110.77 389.13,-105.66 378.69,-103.86 379.84,-110.77"/>
</a>
</g>
</g>
<!-- Node8 -->
<g id="Node000008" class="node">
<title>Node8</title>
<g id="a_Node000008"><a xlink:href="itoa_8c.html#a43f392ec16afbe6cdb1ee6d1f1347f99" target="_top" xlink:title="Convert int to string.">
<polygon fill="white" stroke="#666666" points="513,-111 478,-111 478,-92 513,-92 513,-111"/>
<text text-anchor="middle" x="495.5" y="-99" font-family="Helvetica,sans-Serif" font-size="10.00">itoa</text>
</a>
</g>
</g>
<!-- Node7&#45;&gt;Node8 -->
<g id="edge8_Node000007_Node000008" class="edge">
<title>Node7&#45;&gt;Node8</title>
<g id="a_edge8_Node000007_Node000008"><a xlink:title=" ">
<path fill="none" stroke="#63b8ff" d="M440.84,-101.5C449.4,-101.5 459.02,-101.5 467.72,-101.5"/>
<polygon fill="#63b8ff" stroke="#63b8ff" points="467.76,-105 477.76,-101.5 467.76,-98 467.76,-105"/>
</a>
</g>
</g>
<!-- Node12 -->
<g id="Node000012" class="node">
<title>Node12</title>
<g id="a_Node000012"><a xlink:href="expand_8c.html#a66cc7be396f0ef502a888b56eee2f4bf" target="_top" xlink:title=" ">
<polygon fill="white" stroke="#666666" points="442,-19 388,-19 388,0 442,0 442,-19"/>
<text text-anchor="middle" x="415" y="-7" font-family="Helvetica,sans-Serif" font-size="10.00">is_word</text>
</a>
</g>
</g>
<!-- Node11&#45;&gt;Node12 -->
<g id="edge12_Node000011_Node000012" class="edge">
<title>Node11&#45;&gt;Node12</title>
<g id="a_edge12_Node000011_Node000012"><a xlink:title=" ">
<path fill="none" stroke="#63b8ff" d="M352.27,-9.5C360.8,-9.5 369.49,-9.5 377.55,-9.5"/>
<polygon fill="#63b8ff" stroke="#63b8ff" points="377.72,-13 387.72,-9.5 377.72,-6 377.72,-13"/>
</a>
</g>
</g>
</g>
</svg>
