<?xml version="1.0" encoding="UTF-8" standalone="no"?>
<!DOCTYPE svg PUBLIC "-//W3C//DTD SVG 1.1//EN"
 "http://www.w3.org/Graphics/SVG/1.1/DTD/svg11.dtd">
<!-- Generated by graphviz version 2.43.0 (0)
 -->
<!-- Title: src/expand/expand.c Pages: 1 -->
<svg width="231pt" height="247pt"
 viewBox="0.00 0.00 231.15 247.00" xmlns="http://www.w3.org/2000/svg" xmlns:xlink="http://www.w3.org/1999/xlink">
<g id="graph0" class="graph" transform="scale(1 1) rotate(0) translate(4 243)">
<title>src/expand/expand.c</title>
<!-- Node1 -->
<g id="Node000001" class="node">
<title>Node1</title>
<g id="a_Node000001"><a xlink:title=" ">
<polygon fill="#999999" stroke="#666666" points="132.65,-239 15.65,-239 15.65,-220 132.65,-220 132.65,-239"/>
<text text-anchor="middle" x="74.15" y="-227" font-family="Helvetica,sans-Serif" font-size="10.00">src/expand/expand.c</text>
</a>
</g>
</g>
<!-- Node2 -->
<g id="Node000002" class="node">
<title>Node2</title>
<g id="a_Node000002"><a xlink:href="expand_8h.html" target="_top" xlink:title=" ">
<polygon fill="white" stroke="#666666" points="73.15,-129 11.15,-129 11.15,-110 73.15,-110 73.15,-129"/>
<text text-anchor="middle" x="42.15" y="-117" font-family="Helvetica,sans-Serif" font-size="10.00">expand.h</text>
</a>
</g>
</g>
<!-- Node1&#45;&gt;Node2 -->
<g id="edge1_Node000001_Node000002" class="edge">
<title>Node1&#45;&gt;Node2</title>
<g id="a_edge1_Node000001_Node000002"><a xlink:title=" ">
<path fill="none" stroke="#63b8ff" d="M48.64,-219.9C32.46,-212.96 12.8,-201.44 3.15,-184 -6.12,-167.25 8.36,-148.65 22.22,-135.93"/>
<polygon fill="#63b8ff" stroke="#63b8ff" points="24.8,-138.34 30.13,-129.19 20.25,-133.01 24.8,-138.34"/>
</a>
</g>
</g>
<!-- Node4 -->
<g id="Node000004" class="node">
<title>Node4</title>
<g id="a_Node000004"><a xlink:title=" ">
<polygon fill="#e0e0e0" stroke="#999999" points="65.65,-184 12.65,-184 12.65,-165 65.65,-165 65.65,-184"/>
<text text-anchor="middle" x="39.15" y="-172" font-family="Helvetica,sans-Serif" font-size="10.00">stdlib.h</text>
</a>
</g>
</g>
<!-- Node1&#45;&gt;Node4 -->
<g id="edge3_Node000001_Node000004" class="edge">
<title>Node1&#45;&gt;Node4</title>
<g id="a_edge3_Node000001_Node000004"><a xlink:title=" ">
<path fill="none" stroke="#63b8ff" d="M68.37,-219.75C63.53,-212.42 56.47,-201.73 50.51,-192.7"/>
<polygon fill="#63b8ff" stroke="#63b8ff" points="53.25,-190.5 44.82,-184.09 47.41,-194.36 53.25,-190.5"/>
</a>
</g>
</g>
<!-- Node5 -->
<g id="Node000005" class="node">
<title>Node5</title>
<g id="a_Node000005"><a xlink:title=" ">
<polygon fill="#e0e0e0" stroke="#999999" points="136.65,-184 83.65,-184 83.65,-165 136.65,-165 136.65,-184"/>
<text text-anchor="middle" x="110.15" y="-172" font-family="Helvetica,sans-Serif" font-size="10.00">string.h</text>
</a>
</g>
</g>
<!-- Node1&#45;&gt;Node5 -->
<g id="edge4_Node000001_Node000005" class="edge">
<title>Node1&#45;&gt;Node5</title>
<g id="a_edge4_Node000001_Node000005"><a xlink:title=" ">
<path fill="none" stroke="#63b8ff" d="M80.1,-219.75C85.13,-212.34 92.49,-201.5 98.66,-192.41"/>
<polygon fill="#63b8ff" stroke="#63b8ff" points="101.59,-194.33 104.32,-184.09 95.8,-190.39 101.59,-194.33"/>
</a>
</g>
</g>
<!-- Node6 -->
<g id="Node000006" class="node">
<title>Node6</title>
<g id="a_Node000006"><a xlink:href="ast_8h.html" target="_top" xlink:title=" ">
<polygon fill="white" stroke="#666666" points="223.15,-184 155.15,-184 155.15,-165 223.15,-165 223.15,-184"/>
<text text-anchor="middle" x="189.15" y="-172" font-family="Helvetica,sans-Serif" font-size="10.00">../ast/ast.h</text>
</a>
</g>
</g>
<!-- Node1&#45;&gt;Node6 -->
<g id="edge5_Node000001_Node000006" class="edge">
<title>Node1&#45;&gt;Node6</title>
<g id="a_edge5_Node000001_Node000006"><a xlink:title=" ">
<path fill="none" stroke="#63b8ff" d="M92.63,-219.98C111.13,-211.46 139.83,-198.23 161.13,-188.41"/>
<polygon fill="#63b8ff" stroke="#63b8ff" points="162.72,-191.53 170.34,-184.17 159.79,-185.18 162.72,-191.53"/>
</a>
</g>
</g>
<!-- Node3 -->
<g id="Node000003" class="node">
<title>Node3</title>
<g id="a_Node000003"><a xlink:href="hashmap_8h.html" target="_top" xlink:title=" ">
<polygon fill="white" stroke="#666666" points="77.65,-74 6.65,-74 6.65,-55 77.65,-55 77.65,-74"/>
<text text-anchor="middle" x="42.15" y="-62" font-family="Helvetica,sans-Serif" font-size="10.00">hashmap.h</text>
</a>
</g>
</g>
<!-- Node2&#45;&gt;Node3 -->
<g id="edge2_Node000002_Node000003" class="edge">
<title>Node2&#45;&gt;Node3</title>
<g id="a_edge2_Node000002_Node000003"><a xlink:title=" ">
<path fill="none" stroke="#63b8ff" d="M42.15,-109.75C42.15,-102.8 42.15,-92.85 42.15,-84.13"/>
<polygon fill="#63b8ff" stroke="#63b8ff" points="45.65,-84.09 42.15,-74.09 38.65,-84.09 45.65,-84.09"/>
</a>
</g>
</g>
<!-- Node6&#45;&gt;Node2 -->
<g id="edge6_Node000006_Node000002" class="edge">
<title>Node6&#45;&gt;Node2</title>
<g id="a_edge6_Node000006_Node000002"><a xlink:title=" ">
<path fill="none" stroke="#63b8ff" d="M165.53,-164.98C141.25,-156.23 103.2,-142.51 75.78,-132.62"/>
<polygon fill="#63b8ff" stroke="#63b8ff" points="76.79,-129.27 66.2,-129.17 74.42,-135.85 76.79,-129.27"/>
</a>
</g>
</g>
<!-- Node7 -->
<g id="Node000007" class="node">
<title>Node7</title>
<g id="a_Node000007"><a xlink:href="redir_8h.html" target="_top" xlink:title=" ">
<polygon fill="white" stroke="#666666" points="195.15,-129 115.15,-129 115.15,-110 195.15,-110 195.15,-129"/>
<text text-anchor="middle" x="155.15" y="-117" font-family="Helvetica,sans-Serif" font-size="10.00">../utils/redir.h</text>
</a>
</g>
</g>
<!-- Node6&#45;&gt;Node7 -->
<g id="edge7_Node000006_Node000007" class="edge">
<title>Node6&#45;&gt;Node7</title>
<g id="a_edge7_Node000006_Node000007"><a xlink:title=" ">
<path fill="none" stroke="#63b8ff" d="M183.54,-164.75C178.83,-157.42 171.98,-146.73 166.18,-137.7"/>
<polygon fill="#63b8ff" stroke="#63b8ff" points="169.01,-135.62 160.66,-129.09 163.11,-139.4 169.01,-135.62"/>
</a>
</g>
</g>
<!-- Node8 -->
<g id="Node000008" class="node">
<title>Node8</title>
<g id="a_Node000008"><a xlink:href="token_8h.html" target="_top" xlink:title=" ">
<polygon fill="white" stroke="#666666" points="215.65,-74 162.65,-74 162.65,-55 215.65,-55 215.65,-74"/>
<text text-anchor="middle" x="189.15" y="-62" font-family="Helvetica,sans-Serif" font-size="10.00">token.h</text>
</a>
</g>
</g>
<!-- Node6&#45;&gt;Node8 -->
<g id="edge10_Node000006_Node000008" class="edge">
<title>Node6&#45;&gt;Node8</title>
<g id="a_edge10_Node000006_Node000008"><a xlink:title=" ">
<path fill="none" stroke="#63b8ff" d="M193.39,-164.95C198.89,-152.82 207.41,-129.9 204.15,-110 202.68,-101.05 199.66,-91.47 196.71,-83.51"/>
<polygon fill="#63b8ff" stroke="#63b8ff" points="199.94,-82.16 193.01,-74.15 193.43,-84.74 199.94,-82.16"/>
</a>
</g>
</g>
<!-- Node7&#45;&gt;Node8 -->
<g id="edge8_Node000007_Node000008" class="edge">
<title>Node7&#45;&gt;Node8</title>
<g id="a_edge8_Node000007_Node000008"><a xlink:title=" ">
<path fill="none" stroke="#63b8ff" d="M160.77,-109.75C165.47,-102.42 172.32,-91.73 178.12,-82.7"/>
<polygon fill="#63b8ff" stroke="#63b8ff" points="181.19,-84.4 183.64,-74.09 175.3,-80.62 181.19,-84.4"/>
</a>
</g>
</g>
<!-- Node9 -->
<g id="Node000009" class="node">
<title>Node9</title>
<g id="a_Node000009"><a xlink:title=" ">
<polygon fill="#e0e0e0" stroke="#999999" points="214.15,-19 164.15,-19 164.15,0 214.15,0 214.15,-19"/>
<text text-anchor="middle" x="189.15" y="-7" font-family="Helvetica,sans-Serif" font-size="10.00">stdio.h</text>
</a>
</g>
</g>
<!-- Node8&#45;&gt;Node9 -->
<g id="edge9_Node000008_Node000009" class="edge">
<title>Node8&#45;&gt;Node9</title>
<g id="a_edge9_Node000008_Node000009"><a xlink:title=" ">
<path fill="none" stroke="#63b8ff" d="M189.15,-54.75C189.15,-47.8 189.15,-37.85 189.15,-29.13"/>
<polygon fill="#63b8ff" stroke="#63b8ff" points="192.65,-29.09 189.15,-19.09 185.65,-29.09 192.65,-29.09"/>
</a>
</g>
</g>
</g>
</svg>
