<?xml version="1.0" encoding="UTF-8" standalone="no"?>
<!DOCTYPE svg PUBLIC "-//W3C//DTD SVG 1.1//EN"
 "http://www.w3.org/Graphics/SVG/1.1/DTD/svg11.dtd">
<!-- Generated by graphviz version 2.43.0 (0)
 -->
<!-- Title: expand_word Pages: 1 -->
<svg width="1347pt" height="702pt"
 viewBox="0.00 0.00 1347.00 701.58" xmlns="http://www.w3.org/2000/svg" xmlns:xlink="http://www.w3.org/1999/xlink">
<g id="graph0" class="graph" transform="scale(1 1) rotate(0) translate(4 697.58)">
<title>expand_word</title>
<!-- Node1 -->
<g id="Node000001" class="node">
<title>Node1</title>
<g id="a_Node000001"><a xlink:title=" ">
<polygon fill="#999999" stroke="#666666" points="1339,-355.08 1257,-355.08 1257,-336.08 1339,-336.08 1339,-355.08"/>
<text text-anchor="middle" x="1298" y="-343.08" font-family="Helvetica,sans-Serif" font-size="10.00">expand_word</text>
</a>
</g>
</g>
<!-- Node2 -->
<g id="Node000002" class="node">
<title>Node2</title>
<g id="a_Node000002"><a xlink:href="expand_8c.html#ae22ff4719527d6b2b8bca3e43f576837" target="_top" xlink:title=" ">
<polygon fill="white" stroke="#666666" points="1221,-355.08 1168,-355.08 1168,-336.08 1221,-336.08 1221,-355.08"/>
<text text-anchor="middle" x="1194.5" y="-343.08" font-family="Helvetica,sans-Serif" font-size="10.00">expand</text>
</a>
</g>
</g>
<!-- Node1&#45;&gt;Node2 -->
<g id="edge1_Node000001_Node000002" class="edge">
<title>Node1&#45;&gt;Node2</title>
<g id="a_edge1_Node000001_Node000002"><a xlink:title=" ">
<path fill="none" stroke="#63b8ff" d="M1246.85,-345.58C1237.89,-345.58 1228.91,-345.58 1221.03,-345.58"/>
<polygon fill="#63b8ff" stroke="#63b8ff" points="1246.88,-349.08 1256.88,-345.58 1246.88,-342.08 1246.88,-349.08"/>
</a>
</g>
</g>
<!-- Node3 -->
<g id="Node000003" class="node">
<title>Node3</title>
<g id="a_Node000003"><a xlink:href="ast__run_8c.html#a9d83d4834a61ffe21eb77838d70ae173" target="_top" xlink:title=" ">
<polygon fill="white" stroke="#666666" points="900,-442.08 829,-442.08 829,-423.08 900,-423.08 900,-442.08"/>
<text text-anchor="middle" x="864.5" y="-430.08" font-family="Helvetica,sans-Serif" font-size="10.00">ast_run_for</text>
</a>
</g>
</g>
<!-- Node2&#45;&gt;Node3 -->
<g id="edge2_Node000002_Node000003" class="edge">
<title>Node2&#45;&gt;Node3</title>
<g id="a_edge2_Node000002_Node000003"><a xlink:title=" ">
<path fill="none" stroke="#63b8ff" d="M1157.82,-355.05C1094.37,-371.88 962.68,-406.81 900.04,-423.42"/>
<polygon fill="#63b8ff" stroke="#63b8ff" points="1158.99,-358.36 1167.76,-352.41 1157.2,-351.59 1158.99,-358.36"/>
</a>
</g>
</g>
<!-- Node10 -->
<g id="Node000010" class="node">
<title>Node10</title>
<g id="a_Node000010"><a xlink:href="exec_8c.html#a23babf893bbcd2f6126698a1a19b169f" target="_top" xlink:title="Execute funct with given arguments.">
<polygon fill="white" stroke="#666666" points="615,-330.08 550,-330.08 550,-311.08 615,-311.08 615,-330.08"/>
<text text-anchor="middle" x="582.5" y="-318.08" font-family="Helvetica,sans-Serif" font-size="10.00">exec_func</text>
</a>
</g>
</g>
<!-- Node2&#45;&gt;Node10 -->
<g id="edge31_Node000002_Node000010" class="edge">
<title>Node2&#45;&gt;Node10</title>
<g id="a_edge31_Node000002_Node000010"><a xlink:title=" ">
<path fill="none" stroke="#63b8ff" d="M1157.84,-340.37C1116.22,-334.74 1045.28,-326.58 984,-326.58 984,-326.58 984,-326.58 863.5,-326.58 773.55,-326.58 667.38,-323.45 615.41,-321.71"/>
<polygon fill="#63b8ff" stroke="#63b8ff" points="1157.38,-343.84 1167.77,-341.74 1158.34,-336.9 1157.38,-343.84"/>
</a>
</g>
</g>
<!-- Node11 -->
<g id="Node000011" class="node">
<title>Node11</title>
<g id="a_Node000011"><a xlink:href="exec_8c.html#ae65edaa99b26b49d60c451157d38b34a" target="_top" xlink:title="Execute les commandes avec les args donnes.">
<polygon fill="white" stroke="#666666" points="180,-293.08 115,-293.08 115,-274.08 180,-274.08 180,-293.08"/>
<text text-anchor="middle" x="147.5" y="-281.08" font-family="Helvetica,sans-Serif" font-size="10.00">exec_cmd</text>
</a>
</g>
</g>
<!-- Node2&#45;&gt;Node11 -->
<g id="edge30_Node000002_Node000011" class="edge">
<title>Node2&#45;&gt;Node11</title>
<g id="a_edge30_Node000002_Node000011"><a xlink:title=" ">
<path fill="none" stroke="#63b8ff" d="M1191.29,-365.5C1181.88,-439.38 1138.29,-693.58 984,-693.58 984,-693.58 984,-693.58 581.5,-693.58 340.8,-693.58 180.16,-355.4 152.69,-293.31"/>
<polygon fill="#63b8ff" stroke="#63b8ff" points="1194.8,-365.6 1192.52,-355.25 1187.85,-364.77 1194.8,-365.6"/>
</a>
</g>
</g>
<!-- Node20 -->
<g id="Node000020" class="node">
<title>Node20</title>
<g id="a_Node000020"><a xlink:href="hashmap_8c.html#aca86cd9ca85ac2e41fbb5c9e86ad6d6f" target="_top" xlink:title=" ">
<polygon fill="white" stroke="#666666" points="1132,-178.08 1047,-178.08 1047,-159.08 1132,-159.08 1132,-178.08"/>
<text text-anchor="middle" x="1089.5" y="-166.08" font-family="Helvetica,sans-Serif" font-size="10.00">expand_value</text>
</a>
</g>
</g>
<!-- Node2&#45;&gt;Node20 -->
<g id="edge32_Node000002_Node000020" class="edge">
<title>Node2&#45;&gt;Node20</title>
<g id="a_edge32_Node000002_Node000020"><a xlink:title=" ">
<path fill="none" stroke="#63b8ff" d="M1182.83,-327.25C1161.13,-289.96 1112.52,-206.42 1096.07,-178.15"/>
<polygon fill="#63b8ff" stroke="#63b8ff" points="1179.91,-329.18 1187.96,-336.07 1185.96,-325.66 1179.91,-329.18"/>
</a>
</g>
</g>
<!-- Node4 -->
<g id="Node000004" class="node">
<title>Node4</title>
<g id="a_Node000004"><a xlink:href="ast_8c.html#a572345b2707780bbbc5bbaacdca9c372" target="_top" xlink:title=" ">
<polygon fill="white" stroke="#666666" points="750,-453.08 697,-453.08 697,-434.08 750,-434.08 750,-453.08"/>
<text text-anchor="middle" x="723.5" y="-441.08" font-family="Helvetica,sans-Serif" font-size="10.00">run_ast</text>
</a>
</g>
</g>
<!-- Node3&#45;&gt;Node4 -->
<g id="edge3_Node000003_Node000004" class="edge">
<title>Node3&#45;&gt;Node4</title>
<g id="a_edge3_Node000003_Node000004"><a xlink:title=" ">
<path fill="none" stroke="#63b8ff" d="M818.68,-429.77C795.97,-430.82 769.22,-433.26 750.05,-436.19"/>
<polygon fill="#63b8ff" stroke="#63b8ff" points="818.92,-433.27 828.78,-429.4 818.66,-426.27 818.92,-433.27"/>
</a>
</g>
</g>
<!-- Node4&#45;&gt;Node3 -->
<g id="edge6_Node000004_Node000003" class="edge">
<title>Node4&#45;&gt;Node3</title>
<g id="a_edge6_Node000004_Node000003"><a xlink:title=" ">
<path fill="none" stroke="#63b8ff" d="M760.21,-446.74C781.3,-446.11 807.87,-443.99 828.78,-441.26"/>
<polygon fill="#63b8ff" stroke="#63b8ff" points="759.98,-443.24 750.05,-446.93 760.11,-450.24 759.98,-443.24"/>
</a>
</g>
</g>
<!-- Node5 -->
<g id="Node000005" class="node">
<title>Node5</title>
<g id="a_Node000005"><a xlink:href="ast__run_8c.html#a8a01fec616135007fc5b3968a101901b" target="_top" xlink:title=" ">
<polygon fill="white" stroke="#666666" points="628,-459.08 537,-459.08 537,-440.08 628,-440.08 628,-459.08"/>
<text text-anchor="middle" x="582.5" y="-447.08" font-family="Helvetica,sans-Serif" font-size="10.00">ast_run_and_or</text>
</a>
</g>
</g>
<!-- Node4&#45;&gt;Node5 -->
<g id="edge4_Node000004_Node000005" class="edge">
<title>Node4&#45;&gt;Node5</title>
<g id="a_edge4_Node000004_Node000005"><a xlink:title=" ">
<path fill="none" stroke="#63b8ff" d="M686.66,-439.14C668.78,-439.04 646.99,-439.86 628.04,-441.31"/>
<polygon fill="#63b8ff" stroke="#63b8ff" points="686.62,-442.64 696.68,-439.31 686.74,-435.64 686.62,-442.64"/>
</a>
</g>
</g>
<!-- Node6 -->
<g id="Node000006" class="node">
<title>Node6</title>
<g id="a_Node000006"><a xlink:href="ast__run_8c.html#a0a7138b1f2608ea36211c9b78988c248" target="_top" xlink:title=" ">
<polygon fill="white" stroke="#666666" points="615,-422.08 550,-422.08 550,-403.08 615,-403.08 615,-422.08"/>
<text text-anchor="middle" x="582.5" y="-410.08" font-family="Helvetica,sans-Serif" font-size="10.00">ast_run_if</text>
</a>
</g>
</g>
<!-- Node4&#45;&gt;Node6 -->
<g id="edge7_Node000004_Node000006" class="edge">
<title>Node4&#45;&gt;Node6</title>
<g id="a_edge7_Node000004_Node000006"><a xlink:title=" ">
<path fill="none" stroke="#63b8ff" d="M692.17,-431.13C669.39,-424.66 638.27,-417.7 615.17,-413.88"/>
<polygon fill="#63b8ff" stroke="#63b8ff" points="691.41,-434.55 701.99,-434.05 693.4,-427.85 691.41,-434.55"/>
</a>
</g>
</g>
<!-- Node7 -->
<g id="Node000007" class="node">
<title>Node7</title>
<g id="a_Node000007"><a xlink:href="ast__run_8c.html#ae25cd3ced8abafd76110dba8852a6b87" target="_top" xlink:title=" ">
<polygon fill="white" stroke="#666666" points="619,-367.08 546,-367.08 546,-348.08 619,-348.08 619,-367.08"/>
<text text-anchor="middle" x="582.5" y="-355.08" font-family="Helvetica,sans-Serif" font-size="10.00">ast_run_list</text>
</a>
</g>
</g>
<!-- Node4&#45;&gt;Node7 -->
<g id="edge9_Node000004_Node000007" class="edge">
<title>Node4&#45;&gt;Node7</title>
<g id="a_edge9_Node000004_Node000007"><a xlink:title=" ">
<path fill="none" stroke="#63b8ff" d="M704.83,-427.97C680.12,-410.12 635.17,-382.13 607.46,-367.16"/>
<polygon fill="#63b8ff" stroke="#63b8ff" points="702.84,-430.85 712.95,-434.04 707.03,-425.25 702.84,-430.85"/>
</a>
</g>
</g>
<!-- Node8 -->
<g id="Node000008" class="node">
<title>Node8</title>
<g id="a_Node000008"><a xlink:href="ast__run_8c.html#a536f37ba9bffcd2099fef668656181e0" target="_top" xlink:title=" ">
<polygon fill="white" stroke="#666666" points="622,-627.08 543,-627.08 543,-608.08 622,-608.08 622,-627.08"/>
<text text-anchor="middle" x="582.5" y="-615.08" font-family="Helvetica,sans-Serif" font-size="10.00">ast_run_loop</text>
</a>
</g>
</g>
<!-- Node4&#45;&gt;Node8 -->
<g id="edge12_Node000004_Node000008" class="edge">
<title>Node4&#45;&gt;Node8</title>
<g id="a_edge12_Node000004_Node000008"><a xlink:title=" ">
<path fill="none" stroke="#63b8ff" d="M715.1,-462.87C703.78,-494.27 678.94,-555.47 637,-590.58 626.18,-599.64 610.6,-604.2 599.05,-608.07"/>
<polygon fill="#63b8ff" stroke="#63b8ff" points="718.52,-463.69 718.54,-453.1 711.92,-461.36 718.52,-463.69"/>
</a>
</g>
</g>
<!-- Node9 -->
<g id="Node000009" class="node">
<title>Node9</title>
<g id="a_Node000009"><a xlink:href="ast__run_8c.html#aa3e6a973e744d748ee415840596beb53" target="_top" xlink:title=" ">
<polygon fill="white" stroke="#666666" points="637,-590.08 528,-590.08 528,-571.08 637,-571.08 637,-590.08"/>
<text text-anchor="middle" x="582.5" y="-578.08" font-family="Helvetica,sans-Serif" font-size="10.00">ast_run_shell_redir</text>
</a>
</g>
</g>
<!-- Node4&#45;&gt;Node9 -->
<g id="edge14_Node000004_Node000009" class="edge">
<title>Node4&#45;&gt;Node9</title>
<g id="a_edge14_Node000004_Node000009"><a xlink:title=" ">
<path fill="none" stroke="#63b8ff" d="M708.67,-461.83C693.76,-484.66 667.96,-522.94 637,-547.58 623.94,-557.98 605.66,-564.91 594.2,-570.91"/>
<polygon fill="#63b8ff" stroke="#63b8ff" points="711.67,-463.64 714.2,-453.36 705.81,-459.82 711.67,-463.64"/>
</a>
</g>
</g>
<!-- Node4&#45;&gt;Node10 -->
<g id="edge16_Node000004_Node000010" class="edge">
<title>Node4&#45;&gt;Node10</title>
<g id="a_edge16_Node000004_Node000010"><a xlink:title=" ">
<path fill="none" stroke="#63b8ff" d="M711.97,-425.03C697.8,-401.67 670.48,-361.78 637,-338.58 630.48,-334.06 622.72,-330.6 615.17,-327.98"/>
<polygon fill="#63b8ff" stroke="#63b8ff" points="709.12,-427.1 717.21,-433.94 715.15,-423.55 709.12,-427.1"/>
</a>
</g>
</g>
<!-- Node13 -->
<g id="Node000013" class="node">
<title>Node13</title>
<g id="a_Node000013"><a xlink:href="exec_8c.html#ab743cb88e12e9b922050925fd2075e36" target="_top" xlink:title="Execute a pipeline of commands.">
<polygon fill="white" stroke="#666666" points="615,-496.08 550,-496.08 550,-477.08 615,-477.08 615,-496.08"/>
<text text-anchor="middle" x="582.5" y="-484.08" font-family="Helvetica,sans-Serif" font-size="10.00">exec_pipe</text>
</a>
</g>
</g>
<!-- Node4&#45;&gt;Node13 -->
<g id="edge20_Node000004_Node000013" class="edge">
<title>Node4&#45;&gt;Node13</title>
<g id="a_edge20_Node000004_Node000013"><a xlink:title=" ">
<path fill="none" stroke="#63b8ff" d="M686.89,-454.6C664.53,-461.52 635.96,-470.35 614.53,-476.98"/>
<polygon fill="#63b8ff" stroke="#63b8ff" points="688.16,-457.87 696.68,-451.57 686.09,-451.18 688.16,-457.87"/>
</a>
</g>
</g>
<!-- Node15 -->
<g id="Node000015" class="node">
<title>Node15</title>
<g id="a_Node000015"><a xlink:href="42sh_8c.html#a3c04138a5bfe5d72780bb7e82a18e627" target="_top" xlink:title=" ">
<polygon fill="white" stroke="#666666" points="603,-179.08 562,-179.08 562,-160.08 603,-160.08 603,-179.08"/>
<text text-anchor="middle" x="582.5" y="-167.08" font-family="Helvetica,sans-Serif" font-size="10.00">main</text>
</a>
</g>
</g>
<!-- Node4&#45;&gt;Node15 -->
<g id="edge24_Node000004_Node000015" class="edge">
<title>Node4&#45;&gt;Node15</title>
<g id="a_edge24_Node000004_Node000015"><a xlink:title=" ">
<path fill="none" stroke="#63b8ff" d="M713.85,-424.4C698.86,-391.41 666.81,-321.94 637,-264.58 620.5,-232.84 599.2,-196.19 589.19,-179.18"/>
<polygon fill="#63b8ff" stroke="#63b8ff" points="710.78,-426.1 718.09,-433.77 717.16,-423.21 710.78,-426.1"/>
</a>
</g>
</g>
<!-- Node16 -->
<g id="Node000016" class="node">
<title>Node16</title>
<g id="a_Node000016"><a xlink:href="dot_8c.html#a17477ee2b0f1b8b9306566c990d15b35" target="_top" xlink:title="Main loop of dot builtin.">
<polygon fill="white" stroke="#666666" points="616.5,-293.08 548.5,-293.08 548.5,-274.08 616.5,-274.08 616.5,-293.08"/>
<text text-anchor="middle" x="582.5" y="-281.08" font-family="Helvetica,sans-Serif" font-size="10.00">main_loop</text>
</a>
</g>
</g>
<!-- Node4&#45;&gt;Node16 -->
<g id="edge25_Node000004_Node000016" class="edge">
<title>Node4&#45;&gt;Node16</title>
<g id="a_edge25_Node000004_Node000016"><a xlink:title=" ">
<path fill="none" stroke="#63b8ff" d="M716.03,-424.65C704.72,-394.34 678.54,-334.95 637,-301.58 631.12,-296.86 623.93,-293.35 616.76,-290.75"/>
<polygon fill="#63b8ff" stroke="#63b8ff" points="712.73,-425.84 719.41,-434.07 719.32,-423.47 712.73,-425.84"/>
</a>
</g>
</g>
<!-- Node5&#45;&gt;Node4 -->
<g id="edge5_Node000005_Node000004" class="edge">
<title>Node5&#45;&gt;Node4</title>
<g id="a_edge5_Node000005_Node000004"><a xlink:title=" ">
<path fill="none" stroke="#63b8ff" d="M638.09,-453.84C658.28,-453.35 680.23,-452 696.68,-450.09"/>
<polygon fill="#63b8ff" stroke="#63b8ff" points="637.98,-450.34 628.04,-454.01 638.1,-457.34 637.98,-450.34"/>
</a>
</g>
</g>
<!-- Node6&#45;&gt;Node4 -->
<g id="edge8_Node000006_Node000004" class="edge">
<title>Node6&#45;&gt;Node4</title>
<g id="a_edge8_Node000006_Node000004"><a xlink:title=" ">
<path fill="none" stroke="#63b8ff" d="M613.82,-425.03C638.59,-432.07 673.22,-439.69 696.68,-443.21"/>
<polygon fill="#63b8ff" stroke="#63b8ff" points="614.78,-421.67 604.2,-422.17 612.79,-428.38 614.78,-421.67"/>
</a>
</g>
</g>
<!-- Node7&#45;&gt;Node4 -->
<g id="edge11_Node000007_Node000004" class="edge">
<title>Node7&#45;&gt;Node4</title>
<g id="a_edge11_Node000007_Node000004"><a xlink:title=" ">
<path fill="none" stroke="#63b8ff" d="M601.3,-373.29C626.05,-391.15 670.95,-419.11 698.61,-434.04"/>
<polygon fill="#63b8ff" stroke="#63b8ff" points="603.26,-370.39 593.16,-367.21 599.07,-376 603.26,-370.39"/>
</a>
</g>
</g>
<!-- Node7&#45;&gt;Node7 -->
<g id="edge10_Node000007_Node000007" class="edge">
<title>Node7&#45;&gt;Node7</title>
<g id="a_edge10_Node000007_Node000007"><a xlink:title=" ">
<path fill="none" stroke="#63b8ff" d="M606.68,-376.27C605.36,-381.28 597.3,-385.08 582.5,-385.08 559.39,-385.08 552.72,-375.82 562.46,-367.17"/>
<polygon fill="#63b8ff" stroke="#63b8ff" points="609.86,-374.82 602.54,-367.17 603.49,-377.72 609.86,-374.82"/>
</a>
</g>
</g>
<!-- Node8&#45;&gt;Node4 -->
<g id="edge13_Node000008_Node000004" class="edge">
<title>Node8&#45;&gt;Node4</title>
<g id="a_edge13_Node000008_Node000004"><a xlink:title=" ">
<path fill="none" stroke="#63b8ff" d="M631.34,-612.67C633.33,-611.43 635.23,-610.07 637,-608.58 688.63,-565.36 714.33,-482.63 720.82,-453.46"/>
<polygon fill="#63b8ff" stroke="#63b8ff" points="629.48,-609.7 622.18,-617.38 632.68,-615.92 629.48,-609.7"/>
</a>
</g>
</g>
<!-- Node9&#45;&gt;Node4 -->
<g id="edge15_Node000009_Node000004" class="edge">
<title>Node9&#45;&gt;Node4</title>
<g id="a_edge15_Node000009_Node000004"><a xlink:title=" ">
<path fill="none" stroke="#63b8ff" d="M637.21,-564.54C681.42,-526.86 710.49,-475.12 719.54,-453.13"/>
<polygon fill="#63b8ff" stroke="#63b8ff" points="634.91,-561.89 629.38,-570.93 639.34,-567.31 634.91,-561.89"/>
</a>
</g>
</g>
<!-- Node10&#45;&gt;Node11 -->
<g id="edge17_Node000010_Node000011" class="edge">
<title>Node10&#45;&gt;Node11</title>
<g id="a_edge17_Node000010_Node000011"><a xlink:title=" ">
<path fill="none" stroke="#63b8ff" d="M539.69,-317.01C453.32,-309.63 256.88,-292.84 180.09,-286.28"/>
<polygon fill="#63b8ff" stroke="#63b8ff" points="539.4,-320.5 549.66,-317.86 539.99,-313.52 539.4,-320.5"/>
</a>
</g>
</g>
<!-- Node12 -->
<g id="Node000012" class="node">
<title>Node12</title>
<g id="a_Node000012"><a xlink:href="ast__run_8c.html#aeb6878a59c6907e5669fc3cc428913d9" target="_top" xlink:title=" ">
<polygon fill="white" stroke="#666666" points="79,-460.08 0,-460.08 0,-441.08 79,-441.08 79,-460.08"/>
<text text-anchor="middle" x="39.5" y="-448.08" font-family="Helvetica,sans-Serif" font-size="10.00">ast_run_cmd</text>
</a>
</g>
</g>
<!-- Node11&#45;&gt;Node12 -->
<g id="edge18_Node000011_Node000012" class="edge">
<title>Node11&#45;&gt;Node12</title>
<g id="a_edge18_Node000011_Node000012"><a xlink:title=" ">
<path fill="none" stroke="#63b8ff" d="M134.54,-302.42C111.95,-338.02 63.72,-414 46.65,-440.9"/>
<polygon fill="#63b8ff" stroke="#63b8ff" points="137.78,-303.85 140.19,-293.53 131.87,-300.1 137.78,-303.85"/>
</a>
</g>
</g>
<!-- Node12&#45;&gt;Node4 -->
<g id="edge19_Node000012_Node000004" class="edge">
<title>Node12&#45;&gt;Node4</title>
<g id="a_edge19_Node000012_Node000004"><a xlink:title=" ">
<path fill="none" stroke="#63b8ff" d="M48.1,-469.7C69.74,-520.61 136.84,-655.58 240,-655.58 453.5,-655.58 453.5,-655.58 453.5,-655.58 535.49,-655.58 570.67,-684.79 637,-636.58 700.74,-590.26 717.72,-485.62 721.53,-453.28"/>
<polygon fill="#63b8ff" stroke="#63b8ff" points="51.23,-468.1 44.18,-460.2 44.76,-470.77 51.23,-468.1"/>
</a>
</g>
</g>
<!-- Node13&#45;&gt;Node13 -->
<g id="edge23_Node000013_Node000013" class="edge">
<title>Node13&#45;&gt;Node13</title>
<g id="a_edge23_Node000013_Node000013"><a xlink:title=" ">
<path fill="none" stroke="#63b8ff" d="M606.68,-505.27C605.36,-510.28 597.3,-514.08 582.5,-514.08 559.39,-514.08 552.72,-504.82 562.46,-496.17"/>
<polygon fill="#63b8ff" stroke="#63b8ff" points="609.86,-503.82 602.54,-496.17 603.49,-506.72 609.86,-503.82"/>
</a>
</g>
</g>
<!-- Node14 -->
<g id="Node000014" class="node">
<title>Node14</title>
<g id="a_Node000014"><a xlink:href="ast__run_8c.html#a24d0223822f7b635628199085c3283be" target="_top" xlink:title=" ">
<polygon fill="white" stroke="#666666" points="492,-524.08 413,-524.08 413,-505.08 492,-505.08 492,-524.08"/>
<text text-anchor="middle" x="452.5" y="-512.08" font-family="Helvetica,sans-Serif" font-size="10.00">ast_run_pipe</text>
</a>
</g>
</g>
<!-- Node13&#45;&gt;Node14 -->
<g id="edge21_Node000013_Node000014" class="edge">
<title>Node13&#45;&gt;Node14</title>
<g id="a_edge21_Node000013_Node000014"><a xlink:title=" ">
<path fill="none" stroke="#63b8ff" d="M540.06,-495.65C524.65,-499.02 507.23,-502.83 492.08,-506.14"/>
<polygon fill="#63b8ff" stroke="#63b8ff" points="540.84,-499.06 549.86,-493.5 539.34,-492.22 540.84,-499.06"/>
</a>
</g>
</g>
<!-- Node14&#45;&gt;Node4 -->
<g id="edge22_Node000014_Node000004" class="edge">
<title>Node14&#45;&gt;Node4</title>
<g id="a_edge22_Node000014_Node000004"><a xlink:title=" ">
<path fill="none" stroke="#63b8ff" d="M496.1,-526.36C534.37,-534.72 591.38,-541.6 637,-523.58 673.49,-509.17 703.56,-471.02 716.14,-453.12"/>
<polygon fill="#63b8ff" stroke="#63b8ff" points="496.84,-522.94 486.31,-524.1 495.27,-529.76 496.84,-522.94"/>
</a>
</g>
</g>
<!-- Node17 -->
<g id="Node000017" class="node">
<title>Node17</title>
<g id="a_Node000017"><a xlink:href="dot_8c.html#a713938d3c6ee343132c429642048bcf6" target="_top" xlink:title="Execute the dot builtin cmd.">
<polygon fill="white" stroke="#666666" points="474.5,-292.08 430.5,-292.08 430.5,-273.08 474.5,-273.08 474.5,-292.08"/>
<text text-anchor="middle" x="452.5" y="-280.08" font-family="Helvetica,sans-Serif" font-size="10.00">dot_b</text>
</a>
</g>
</g>
<!-- Node16&#45;&gt;Node17 -->
<g id="edge26_Node000016_Node000017" class="edge">
<title>Node16&#45;&gt;Node17</title>
<g id="a_edge26_Node000016_Node000017"><a xlink:title=" ">
<path fill="none" stroke="#63b8ff" d="M538.02,-283.24C516.61,-283.08 491.78,-282.88 474.6,-282.75"/>
<polygon fill="#63b8ff" stroke="#63b8ff" points="538.18,-286.74 548.2,-283.32 538.23,-279.74 538.18,-286.74"/>
</a>
</g>
</g>
<!-- Node18 -->
<g id="Node000018" class="node">
<title>Node18</title>
<g id="a_Node000018"><a xlink:href="exec_8c.html#abaeb177587c7eec6a064b35bb8399cae" target="_top" xlink:title="Execute builtin cmd with given args.">
<polygon fill="white" stroke="#666666" points="377,-255.08 302,-255.08 302,-236.08 377,-236.08 377,-255.08"/>
<text text-anchor="middle" x="339.5" y="-243.08" font-family="Helvetica,sans-Serif" font-size="10.00">exec_builtin</text>
</a>
</g>
</g>
<!-- Node17&#45;&gt;Node18 -->
<g id="edge27_Node000017_Node000018" class="edge">
<title>Node17&#45;&gt;Node18</title>
<g id="a_edge27_Node000017_Node000018"><a xlink:title=" ">
<path fill="none" stroke="#63b8ff" d="M420.82,-272.36C404.66,-266.97 384.95,-260.4 369.11,-255.12"/>
<polygon fill="#63b8ff" stroke="#63b8ff" points="419.77,-275.69 430.36,-275.54 421.98,-269.05 419.77,-275.69"/>
</a>
</g>
</g>
<!-- Node19 -->
<g id="Node000019" class="node">
<title>Node19</title>
<g id="a_Node000019"><a xlink:href="exec_8c.html#a287d81b4658832f192750310e2925917" target="_top" xlink:title="Execute the builtin command with given args.">
<polygon fill="white" stroke="#666666" points="266,-255.08 216,-255.08 216,-236.08 266,-236.08 266,-255.08"/>
<text text-anchor="middle" x="241" y="-243.08" font-family="Helvetica,sans-Serif" font-size="10.00">exec_b</text>
</a>
</g>
</g>
<!-- Node18&#45;&gt;Node19 -->
<g id="edge28_Node000018_Node000019" class="edge">
<title>Node18&#45;&gt;Node19</title>
<g id="a_edge28_Node000018_Node000019"><a xlink:title=" ">
<path fill="none" stroke="#63b8ff" d="M291.51,-245.58C282.71,-245.58 273.86,-245.58 266.12,-245.58"/>
<polygon fill="#63b8ff" stroke="#63b8ff" points="291.74,-249.08 301.74,-245.58 291.74,-242.08 291.74,-249.08"/>
</a>
</g>
</g>
<!-- Node19&#45;&gt;Node11 -->
<g id="edge29_Node000019_Node000011" class="edge">
<title>Node19&#45;&gt;Node11</title>
<g id="a_edge29_Node000019_Node000011"><a xlink:title=" ">
<path fill="none" stroke="#63b8ff" d="M207.35,-259.14C195.52,-264.05 182.42,-269.5 171.58,-274"/>
<polygon fill="#63b8ff" stroke="#63b8ff" points="209.02,-262.24 216.91,-255.17 206.33,-255.78 209.02,-262.24"/>
</a>
</g>
</g>
<!-- Node21 -->
<g id="Node000021" class="node">
<title>Node21</title>
<g id="a_Node000021"><a xlink:href="hashmap_8c.html#a3bf95c887f7eac3eb074725515feba49" target="_top" xlink:title="Add a variable to the dictionnary.">
<polygon fill="white" stroke="#666666" points="1011,-161.08 955,-161.08 955,-142.08 1011,-142.08 1011,-161.08"/>
<text text-anchor="middle" x="983" y="-149.08" font-family="Helvetica,sans-Serif" font-size="10.00">add_var</text>
</a>
</g>
</g>
<!-- Node20&#45;&gt;Node21 -->
<g id="edge33_Node000020_Node000021" class="edge">
<title>Node20&#45;&gt;Node21</title>
<g id="a_edge33_Node000020_Node000021"><a xlink:title=" ">
<path fill="none" stroke="#63b8ff" d="M1036.88,-160.19C1027.95,-158.73 1018.99,-157.27 1011.05,-155.98"/>
<polygon fill="#63b8ff" stroke="#63b8ff" points="1036.47,-163.66 1046.9,-161.82 1037.59,-156.76 1036.47,-163.66"/>
</a>
</g>
</g>
<!-- Node21&#45;&gt;Node3 -->
<g id="edge42_Node000021_Node000003" class="edge">
<title>Node21&#45;&gt;Node3</title>
<g id="a_edge42_Node000021_Node000003"><a xlink:title=" ">
<path fill="none" stroke="#63b8ff" d="M974.16,-170.5C951.46,-225.23 886.3,-382.41 869.49,-422.95"/>
<polygon fill="#63b8ff" stroke="#63b8ff" points="977.39,-171.83 977.99,-161.26 970.93,-169.15 977.39,-171.83"/>
</a>
</g>
</g>
<!-- Node22 -->
<g id="Node000022" class="node">
<title>Node22</title>
<g id="a_Node000022"><a xlink:href="io_8c.html#ac8404f84d9b2f3f16fe4d24de44d6050" target="_top" xlink:title="Helper: Ajoute un arg au dictionnaire de variables.">
<polygon fill="white" stroke="#666666" points="919,-106.08 810,-106.08 810,-87.08 919,-87.08 919,-106.08"/>
<text text-anchor="middle" x="864.5" y="-94.08" font-family="Helvetica,sans-Serif" font-size="10.00">add_positional_arg</text>
</a>
</g>
</g>
<!-- Node21&#45;&gt;Node22 -->
<g id="edge34_Node000021_Node000022" class="edge">
<title>Node21&#45;&gt;Node22</title>
<g id="a_edge34_Node000021_Node000022"><a xlink:title=" ">
<path fill="none" stroke="#63b8ff" d="M959.03,-136.54C947.35,-129.3 932.75,-120.85 919,-114.58 912.13,-111.45 904.56,-108.58 897.32,-106.09"/>
<polygon fill="#63b8ff" stroke="#63b8ff" points="957.37,-139.64 967.69,-142.03 961.11,-133.72 957.37,-139.64"/>
</a>
</g>
</g>
<!-- Node24 -->
<g id="Node000024" class="node">
<title>Node24</title>
<g id="a_Node000024"><a xlink:href="hashmap_8c.html#a6ea7c10f5ac3ee3ad1986f24e1b83863" target="_top" xlink:title=" ">
<polygon fill="white" stroke="#666666" points="901.5,-180.08 827.5,-180.08 827.5,-161.08 901.5,-161.08 901.5,-180.08"/>
<text text-anchor="middle" x="864.5" y="-168.08" font-family="Helvetica,sans-Serif" font-size="10.00">add_special</text>
</a>
</g>
</g>
<!-- Node21&#45;&gt;Node24 -->
<g id="edge37_Node000021_Node000024" class="edge">
<title>Node21&#45;&gt;Node24</title>
<g id="a_edge37_Node000021_Node000024"><a xlink:title=" ">
<path fill="none" stroke="#63b8ff" d="M944.83,-157.64C931.01,-159.9 915.37,-162.45 901.64,-164.69"/>
<polygon fill="#63b8ff" stroke="#63b8ff" points="945.67,-161.05 954.98,-155.99 944.55,-154.15 945.67,-161.05"/>
</a>
</g>
</g>
<!-- Node26 -->
<g id="Node000026" class="node">
<title>Node26</title>
<g id="a_Node000026"><a xlink:href="io_8c.html#aa3aea4ea03b25f3d2e5449741816dbb8" target="_top" xlink:title="Helper &#45;&gt; add number of args to dictionnary.">
<polygon fill="white" stroke="#666666" points="894,-143.08 835,-143.08 835,-124.08 894,-124.08 894,-143.08"/>
<text text-anchor="middle" x="864.5" y="-131.08" font-family="Helvetica,sans-Serif" font-size="10.00">arg_num</text>
</a>
</g>
</g>
<!-- Node21&#45;&gt;Node26 -->
<g id="edge40_Node000021_Node000026" class="edge">
<title>Node21&#45;&gt;Node26</title>
<g id="a_edge40_Node000021_Node000026"><a xlink:title=" ">
<path fill="none" stroke="#63b8ff" d="M944.7,-145.82C928.42,-143.3 909.61,-140.4 894.41,-138.05"/>
<polygon fill="#63b8ff" stroke="#63b8ff" points="944.56,-149.34 954.98,-147.41 945.63,-142.42 944.56,-149.34"/>
</a>
</g>
</g>
<!-- Node27 -->
<g id="Node000027" class="node">
<title>Node27</title>
<g id="a_Node000027"><a xlink:href="exec_8c.html#a9707f3708c634be49a10356313da4d30" target="_top" xlink:title="Execute the command with given arguments.">
<polygon fill="white" stroke="#666666" points="743,-28.08 704,-28.08 704,-9.08 743,-9.08 743,-28.08"/>
<text text-anchor="middle" x="723.5" y="-16.08" font-family="Helvetica,sans-Serif" font-size="10.00">exec</text>
</a>
</g>
</g>
<!-- Node21&#45;&gt;Node27 -->
<g id="edge43_Node000021_Node000027" class="edge">
<title>Node21&#45;&gt;Node27</title>
<g id="a_edge43_Node000021_Node000027"><a xlink:title=" ">
<path fill="none" stroke="#63b8ff" d="M978.96,-131.75C973.21,-101.88 957.63,-46.21 919,-21.58 863.61,13.72 780.11,-2.89 743.19,-12.91"/>
<polygon fill="#63b8ff" stroke="#63b8ff" points="975.55,-132.57 980.71,-141.82 982.45,-131.37 975.55,-132.57"/>
</a>
</g>
</g>
<!-- Node28 -->
<g id="Node000028" class="node">
<title>Node28</title>
<g id="a_Node000028"><a xlink:href="exec_8c.html#a60ea263265f67ff588c7de955c83bcec" target="_top" xlink:title="Exec assignments in cmd.">
<polygon fill="white" stroke="#666666" points="774,-66.08 673,-66.08 673,-47.08 774,-47.08 774,-66.08"/>
<text text-anchor="middle" x="723.5" y="-54.08" font-family="Helvetica,sans-Serif" font-size="10.00">exec_assignment</text>
</a>
</g>
</g>
<!-- Node21&#45;&gt;Node28 -->
<g id="edge45_Node000021_Node000028" class="edge">
<title>Node21&#45;&gt;Node28</title>
<g id="a_edge45_Node000021_Node000028"><a xlink:title=" ">
<path fill="none" stroke="#63b8ff" d="M977.36,-131.92C969.99,-105.7 952.85,-60.29 919,-40.58 863.95,-8.53 784.86,-32.18 746.73,-47.01"/>
<polygon fill="#63b8ff" stroke="#63b8ff" points="974.03,-133.06 979.94,-141.86 980.81,-131.3 974.03,-133.06"/>
</a>
</g>
</g>
<!-- Node29 -->
<g id="Node000029" class="node">
<title>Node29</title>
<g id="a_Node000029"><a xlink:href="export_8c.html#a8b18baf315f49dfc9d40e9a05a8eaa24" target="_top" xlink:title="Execute export builtin cmd.">
<polygon fill="white" stroke="#666666" points="482,-255.08 423,-255.08 423,-236.08 482,-236.08 482,-255.08"/>
<text text-anchor="middle" x="452.5" y="-243.08" font-family="Helvetica,sans-Serif" font-size="10.00">export_b</text>
</a>
</g>
</g>
<!-- Node21&#45;&gt;Node29 -->
<g id="edge47_Node000021_Node000029" class="edge">
<title>Node21&#45;&gt;Node29</title>
<g id="a_edge47_Node000021_Node000029"><a xlink:title=" ">
<path fill="none" stroke="#63b8ff" d="M972.2,-170.18C961.68,-187.97 943.18,-213.78 919,-225.58 841.68,-263.34 571.38,-252.15 482.25,-247.3"/>
<polygon fill="#63b8ff" stroke="#63b8ff" points="975.36,-171.69 977.2,-161.26 969.25,-168.27 975.36,-171.69"/>
</a>
</g>
</g>
<!-- Node30 -->
<g id="Node000030" class="node">
<title>Node30</title>
<g id="a_Node000030"><a xlink:href="exec_8c.html#a10741ea1c82bec65aa88b283c4a68e5b" target="_top" xlink:title="Update special var &quot;?&quot; with given status.">
<polygon fill="white" stroke="#666666" points="901.5,-69.08 827.5,-69.08 827.5,-50.08 901.5,-50.08 901.5,-69.08"/>
<text text-anchor="middle" x="864.5" y="-57.08" font-family="Helvetica,sans-Serif" font-size="10.00">update_exit</text>
</a>
</g>
</g>
<!-- Node21&#45;&gt;Node30 -->
<g id="edge49_Node000021_Node000030" class="edge">
<title>Node21&#45;&gt;Node30</title>
<g id="a_edge49_Node000021_Node000030"><a xlink:title=" ">
<path fill="none" stroke="#63b8ff" d="M970.54,-133.12C959.3,-116.43 940.73,-92.29 919,-77.58 913.72,-74.01 907.68,-71.09 901.6,-68.73"/>
<polygon fill="#63b8ff" stroke="#63b8ff" points="967.89,-135.47 976.27,-141.96 973.77,-131.66 967.89,-135.47"/>
</a>
</g>
</g>
<!-- Node31 -->
<g id="Node000031" class="node">
<title>Node31</title>
<g id="a_Node000031"><a xlink:href="cd_8c.html#a9eb5212e3fb105823c28e343ce5ca946" target="_top" xlink:title="Update PWD and OLDPWD vars after cd.">
<polygon fill="white" stroke="#666666" points="902.5,-217.08 826.5,-217.08 826.5,-198.08 902.5,-198.08 902.5,-217.08"/>
<text text-anchor="middle" x="864.5" y="-205.08" font-family="Helvetica,sans-Serif" font-size="10.00">update_pwd</text>
</a>
</g>
</g>
<!-- Node21&#45;&gt;Node31 -->
<g id="edge53_Node000021_Node000031" class="edge">
<title>Node21&#45;&gt;Node31</title>
<g id="a_edge53_Node000021_Node000031"><a xlink:title=" ">
<path fill="none" stroke="#63b8ff" d="M958.75,-166.67C947.1,-173.85 932.61,-182.24 919,-188.58 911.58,-192.04 903.35,-195.25 895.62,-198.01"/>
<polygon fill="#63b8ff" stroke="#63b8ff" points="960.81,-169.51 967.41,-161.23 957.08,-163.58 960.81,-169.51"/>
</a>
</g>
</g>
<!-- Node23 -->
<g id="Node000023" class="node">
<title>Node23</title>
<g id="a_Node000023"><a xlink:href="io_8c.html#a8346ebcdde79020ca792f3d4d2d93ec0" target="_top" xlink:title="Gère options scripts et arguments.">
<polygon fill="white" stroke="#666666" points="750,-142.08 697,-142.08 697,-123.08 750,-123.08 750,-142.08"/>
<text text-anchor="middle" x="723.5" y="-130.08" font-family="Helvetica,sans-Serif" font-size="10.00">arg_file</text>
</a>
</g>
</g>
<!-- Node22&#45;&gt;Node23 -->
<g id="edge35_Node000022_Node000023" class="edge">
<title>Node22&#45;&gt;Node23</title>
<g id="a_edge35_Node000022_Node000023"><a xlink:title=" ">
<path fill="none" stroke="#63b8ff" d="M816.68,-108.71C794.44,-114.47 768.73,-121.13 750.11,-125.95"/>
<polygon fill="#63b8ff" stroke="#63b8ff" points="817.81,-112.03 826.62,-106.14 816.06,-105.26 817.81,-112.03"/>
</a>
</g>
</g>
<!-- Node23&#45;&gt;Node15 -->
<g id="edge36_Node000023_Node000015" class="edge">
<title>Node23&#45;&gt;Node15</title>
<g id="a_edge36_Node000023_Node000015"><a xlink:title=" ">
<path fill="none" stroke="#63b8ff" d="M686.98,-142.04C660.42,-149.11 625.09,-158.51 603.34,-164.3"/>
<polygon fill="#63b8ff" stroke="#63b8ff" points="687.92,-145.41 696.68,-139.46 686.12,-138.65 687.92,-145.41"/>
</a>
</g>
</g>
<!-- Node25 -->
<g id="Node000025" class="node">
<title>Node25</title>
<g id="a_Node000025"><a xlink:href="hashmap_8c.html#a5b305fb96c9d0ce57bb51cc0e2c434ac" target="_top" xlink:title="Initialise the dictionnary and adds special variables from the get go.">
<polygon fill="white" stroke="#666666" points="751.5,-179.08 695.5,-179.08 695.5,-160.08 751.5,-160.08 751.5,-179.08"/>
<text text-anchor="middle" x="723.5" y="-167.08" font-family="Helvetica,sans-Serif" font-size="10.00">init_dict</text>
</a>
</g>
</g>
<!-- Node24&#45;&gt;Node25 -->
<g id="edge38_Node000024_Node000025" class="edge">
<title>Node24&#45;&gt;Node25</title>
<g id="a_edge38_Node000024_Node000025"><a xlink:title=" ">
<path fill="none" stroke="#63b8ff" d="M817.3,-170.25C795.55,-170.09 770.34,-169.91 751.69,-169.78"/>
<polygon fill="#63b8ff" stroke="#63b8ff" points="817.32,-173.75 827.34,-170.32 817.37,-166.75 817.32,-173.75"/>
</a>
</g>
</g>
<!-- Node25&#45;&gt;Node15 -->
<g id="edge39_Node000025_Node000015" class="edge">
<title>Node25&#45;&gt;Node15</title>
<g id="a_edge39_Node000025_Node000015"><a xlink:title=" ">
<path fill="none" stroke="#63b8ff" d="M685.35,-169.58C659.01,-169.58 624.68,-169.58 603.37,-169.58"/>
<polygon fill="#63b8ff" stroke="#63b8ff" points="685.37,-173.08 695.37,-169.58 685.37,-166.08 685.37,-173.08"/>
</a>
</g>
</g>
<!-- Node26&#45;&gt;Node23 -->
<g id="edge41_Node000026_Node000023" class="edge">
<title>Node26&#45;&gt;Node23</title>
<g id="a_edge41_Node000026_Node000023"><a xlink:title=" ">
<path fill="none" stroke="#63b8ff" d="M824.62,-133.3C800.93,-133.13 771.31,-132.92 750.45,-132.77"/>
<polygon fill="#63b8ff" stroke="#63b8ff" points="824.67,-136.8 834.7,-133.38 824.72,-129.8 824.67,-136.8"/>
</a>
</g>
</g>
<!-- Node27&#45;&gt;Node11 -->
<g id="edge44_Node000027_Node000011" class="edge">
<title>Node27&#45;&gt;Node11</title>
<g id="a_edge44_Node000027_Node000011"><a xlink:title=" ">
<path fill="none" stroke="#63b8ff" d="M693.7,-18.58C644.48,-18.58 540.99,-18.58 453.5,-18.58 453.5,-18.58 453.5,-18.58 338.5,-18.58 277.28,-18.58 255.87,-35.12 216,-81.58 164.47,-141.63 151.92,-242.44 149.19,-273.9"/>
<polygon fill="#63b8ff" stroke="#63b8ff" points="693.91,-22.08 703.91,-18.58 693.91,-15.08 693.91,-22.08"/>
</a>
</g>
</g>
<!-- Node28&#45;&gt;Node11 -->
<g id="edge46_Node000028_Node000011" class="edge">
<title>Node28&#45;&gt;Node11</title>
<g id="a_edge46_Node000028_Node000011"><a xlink:title=" ">
<path fill="none" stroke="#63b8ff" d="M662.74,-56.58C608.23,-56.58 525.45,-56.58 453.5,-56.58 453.5,-56.58 453.5,-56.58 338.5,-56.58 223.38,-56.58 164.25,-230.38 151.27,-273.83"/>
<polygon fill="#63b8ff" stroke="#63b8ff" points="662.92,-60.08 672.92,-56.58 662.92,-53.08 662.92,-60.08"/>
</a>
</g>
</g>
<!-- Node29&#45;&gt;Node18 -->
<g id="edge48_Node000029_Node000018" class="edge">
<title>Node29&#45;&gt;Node18</title>
<g id="a_edge48_Node000029_Node000018"><a xlink:title=" ">
<path fill="none" stroke="#63b8ff" d="M412.73,-245.58C401.26,-245.58 388.73,-245.58 377.37,-245.58"/>
<polygon fill="#63b8ff" stroke="#63b8ff" points="412.91,-249.08 422.91,-245.58 412.91,-242.08 412.91,-249.08"/>
</a>
</g>
</g>
<!-- Node30&#45;&gt;Node19 -->
<g id="edge52_Node000030_Node000019" class="edge">
<title>Node30&#45;&gt;Node19</title>
<g id="a_edge52_Node000030_Node000019"><a xlink:title=" ">
<path fill="none" stroke="#63b8ff" d="M817.6,-68.88C762.31,-79.25 666.51,-94.58 583.5,-94.58 583.5,-94.58 583.5,-94.58 451.5,-94.58 354.66,-94.58 272.09,-202.08 248.65,-235.68"/>
<polygon fill="#63b8ff" stroke="#63b8ff" points="818.27,-72.31 827.43,-67.01 816.96,-65.44 818.27,-72.31"/>
</a>
</g>
</g>
<!-- Node30&#45;&gt;Node27 -->
<g id="edge50_Node000030_Node000027" class="edge">
<title>Node30&#45;&gt;Node27</title>
<g id="a_edge50_Node000030_Node000027"><a xlink:title=" ">
<path fill="none" stroke="#63b8ff" d="M821.61,-47.23C795.55,-39.54 763.31,-30.03 743.32,-24.13"/>
<polygon fill="#63b8ff" stroke="#63b8ff" points="820.68,-50.6 831.26,-50.07 822.66,-43.89 820.68,-50.6"/>
</a>
</g>
</g>
<!-- Node30&#45;&gt;Node28 -->
<g id="edge51_Node000030_Node000028" class="edge">
<title>Node30&#45;&gt;Node28</title>
<g id="a_edge51_Node000030_Node000028"><a xlink:title=" ">
<path fill="none" stroke="#63b8ff" d="M817.09,-58.58C803.27,-58.28 788.09,-57.96 774.08,-57.65"/>
<polygon fill="#63b8ff" stroke="#63b8ff" points="817.27,-62.09 827.34,-58.8 817.42,-55.09 817.27,-62.09"/>
</a>
</g>
</g>
<!-- Node32 -->
<g id="Node000032" class="node">
<title>Node32</title>
<g id="a_Node000032"><a xlink:href="cd_8c.html#a592b884dd32e14e084c461b3372632b4" target="_top" xlink:title="Execute the cd builtin cmd.">
<polygon fill="white" stroke="#666666" points="472,-218.08 433,-218.08 433,-199.08 472,-199.08 472,-218.08"/>
<text text-anchor="middle" x="452.5" y="-206.08" font-family="Helvetica,sans-Serif" font-size="10.00">cd_b</text>
</a>
</g>
</g>
<!-- Node31&#45;&gt;Node32 -->
<g id="edge54_Node000031_Node000032" class="edge">
<title>Node31&#45;&gt;Node32</title>
<g id="a_edge54_Node000031_Node000032"><a xlink:title=" ">
<path fill="none" stroke="#63b8ff" d="M816.17,-207.7C725.94,-207.92 532.87,-208.39 472.17,-208.54"/>
<polygon fill="#63b8ff" stroke="#63b8ff" points="816.4,-211.2 826.39,-207.67 816.38,-204.2 816.4,-211.2"/>
</a>
</g>
</g>
<!-- Node32&#45;&gt;Node18 -->
<g id="edge55_Node000032_Node000018" class="edge">
<title>Node32&#45;&gt;Node18</title>
<g id="a_edge55_Node000032_Node000018"><a xlink:title=" ">
<path fill="none" stroke="#63b8ff" d="M423.24,-218C406.67,-223.53 385.79,-230.48 369.16,-236.03"/>
<polygon fill="#63b8ff" stroke="#63b8ff" points="424.54,-221.26 432.92,-214.78 422.33,-214.62 424.54,-221.26"/>
</a>
</g>
</g>
</g>
</svg>
