<?xml version="1.0" encoding="UTF-8" standalone="no"?>
<!DOCTYPE svg PUBLIC "-//W3C//DTD SVG 1.1//EN"
 "http://www.w3.org/Graphics/SVG/1.1/DTD/svg11.dtd">
<!-- Generated by graphviz version 2.43.0 (0)
 -->
<!-- Title: src/expand/expand.h Pages: 1 -->
<svg width="1584pt" height="247pt"
 viewBox="0.00 0.00 1583.79 247.00" xmlns="http://www.w3.org/2000/svg" xmlns:xlink="http://www.w3.org/1999/xlink">
<g id="graph0" class="graph" transform="scale(1 1) rotate(0) translate(4 243)">
<title>src/expand/expand.h</title>
<!-- Node1 -->
<g id="Node000001" class="node">
<title>Node1</title>
<g id="a_Node000001"><a xlink:title=" ">
<polygon fill="#999999" stroke="#666666" points="1069,-239 951,-239 951,-220 1069,-220 1069,-239"/>
<text text-anchor="middle" x="1010" y="-227" font-family="Helvetica,sans-Serif" font-size="10.00">src/expand/expand.h</text>
</a>
</g>
</g>
<!-- Node2 -->
<g id="Node000002" class="node">
<title>Node2</title>
<g id="a_Node000002"><a xlink:href="42sh_8c.html" target="_top" xlink:title=" ">
<polygon fill="white" stroke="#666666" points="480.5,-74 415.5,-74 415.5,-55 480.5,-55 480.5,-74"/>
<text text-anchor="middle" x="448" y="-62" font-family="Helvetica,sans-Serif" font-size="10.00">src/42sh.c</text>
</a>
</g>
</g>
<!-- Node1&#45;&gt;Node2 -->
<g id="edge1_Node000001_Node000002" class="edge">
<title>Node1&#45;&gt;Node2</title>
<g id="a_edge1_Node000001_Node000002"><a xlink:title=" ">
<path fill="none" stroke="#63b8ff" d="M940.95,-229.08C802.91,-229.32 498,-225.01 403,-184 364.13,-167.22 319.62,-145.3 343,-110 358.96,-85.9 390.87,-74.82 415.34,-69.74"/>
<polygon fill="#63b8ff" stroke="#63b8ff" points="941,-232.58 950.99,-229.05 940.98,-225.58 941,-232.58"/>
</a>
</g>
</g>
<!-- Node3 -->
<g id="Node000003" class="node">
<title>Node3</title>
<g id="a_Node000003"><a xlink:href="ast_8h.html" target="_top" xlink:title=" ">
<polygon fill="white" stroke="#666666" points="865,-184 789,-184 789,-165 865,-165 865,-184"/>
<text text-anchor="middle" x="827" y="-172" font-family="Helvetica,sans-Serif" font-size="10.00">src/ast/ast.h</text>
</a>
</g>
</g>
<!-- Node1&#45;&gt;Node3 -->
<g id="edge2_Node000001_Node000003" class="edge">
<title>Node1&#45;&gt;Node3</title>
<g id="a_edge2_Node000001_Node000003"><a xlink:title=" ">
<path fill="none" stroke="#63b8ff" d="M970.93,-217.18C936.7,-207.27 887.71,-193.08 856.63,-184.08"/>
<polygon fill="#63b8ff" stroke="#63b8ff" points="970.02,-220.56 980.6,-219.98 971.97,-213.84 970.02,-220.56"/>
</a>
</g>
</g>
<!-- Node14 -->
<g id="Node000014" class="node">
<title>Node14</title>
<g id="a_Node000014"><a xlink:href="exec_8h.html" target="_top" xlink:title=" ">
<polygon fill="white" stroke="#666666" points="1292.5,-129 1201.5,-129 1201.5,-110 1292.5,-110 1292.5,-129"/>
<text text-anchor="middle" x="1247" y="-117" font-family="Helvetica,sans-Serif" font-size="10.00">src/exec/exec.h</text>
</a>
</g>
</g>
<!-- Node1&#45;&gt;Node14 -->
<g id="edge42_Node000001_Node000014" class="edge">
<title>Node1&#45;&gt;Node14</title>
<g id="a_edge42_Node000001_Node000014"><a xlink:title=" ">
<path fill="none" stroke="#63b8ff" d="M1038.38,-215.57C1087.45,-193.21 1186.85,-147.91 1228.24,-129.05"/>
<polygon fill="#63b8ff" stroke="#63b8ff" points="1036.64,-212.51 1028.99,-219.84 1039.55,-218.88 1036.64,-212.51"/>
</a>
</g>
</g>
<!-- Node16 -->
<g id="Node000016" class="node">
<title>Node16</title>
<g id="a_Node000016"><a xlink:href="expand_8c.html" target="_top" xlink:title=" ">
<polygon fill="white" stroke="#666666" points="928.5,-129 811.5,-129 811.5,-110 928.5,-110 928.5,-129"/>
<text text-anchor="middle" x="870" y="-117" font-family="Helvetica,sans-Serif" font-size="10.00">src/expand/expand.c</text>
</a>
</g>
</g>
<!-- Node1&#45;&gt;Node16 -->
<g id="edge43_Node000001_Node000016" class="edge">
<title>Node1&#45;&gt;Node16</title>
<g id="a_edge43_Node000001_Node000016"><a xlink:title=" ">
<path fill="none" stroke="#63b8ff" d="M990.56,-213.5C960.83,-190.57 905.03,-147.52 881.22,-129.16"/>
<polygon fill="#63b8ff" stroke="#63b8ff" points="988.49,-216.33 998.54,-219.66 992.76,-210.78 988.49,-216.33"/>
</a>
</g>
</g>
<!-- Node17 -->
<g id="Node000017" class="node">
<title>Node17</title>
<g id="a_Node000017"><a xlink:href="hashmap_8c.html" target="_top" xlink:title=" ">
<polygon fill="white" stroke="#666666" points="1073,-129 947,-129 947,-110 1073,-110 1073,-129"/>
<text text-anchor="middle" x="1010" y="-117" font-family="Helvetica,sans-Serif" font-size="10.00">src/expand/hashmap.c</text>
</a>
</g>
</g>
<!-- Node1&#45;&gt;Node17 -->
<g id="edge44_Node000001_Node000017" class="edge">
<title>Node1&#45;&gt;Node17</title>
<g id="a_edge44_Node000001_Node000017"><a xlink:title=" ">
<path fill="none" stroke="#63b8ff" d="M1010,-209.48C1010,-185.84 1010,-146.5 1010,-129.16"/>
<polygon fill="#63b8ff" stroke="#63b8ff" points="1006.5,-209.66 1010,-219.66 1013.5,-209.66 1006.5,-209.66"/>
</a>
</g>
</g>
<!-- Node25 -->
<g id="Node000025" class="node">
<title>Node25</title>
<g id="a_Node000025"><a xlink:href="cd_8h.html" target="_top" xlink:title=" ">
<polygon fill="white" stroke="#666666" points="1365,-184 1277,-184 1277,-165 1365,-165 1365,-184"/>
<text text-anchor="middle" x="1321" y="-172" font-family="Helvetica,sans-Serif" font-size="10.00">src/builtin/cd.h</text>
</a>
</g>
</g>
<!-- Node1&#45;&gt;Node25 -->
<g id="edge33_Node000001_Node000025" class="edge">
<title>Node1&#45;&gt;Node25</title>
<g id="a_edge33_Node000001_Node000025"><a xlink:title=" ">
<path fill="none" stroke="#63b8ff" d="M1070.14,-218.25C1130.65,-207.94 1222.54,-192.28 1276.7,-183.05"/>
<polygon fill="#63b8ff" stroke="#63b8ff" points="1069.24,-214.85 1059.97,-219.98 1070.41,-221.75 1069.24,-214.85"/>
</a>
</g>
</g>
<!-- Node27 -->
<g id="Node000027" class="node">
<title>Node27</title>
<g id="a_Node000027"><a xlink:href="dot_8h.html" target="_top" xlink:title=" ">
<polygon fill="white" stroke="#666666" points="1183,-129 1091,-129 1091,-110 1183,-110 1183,-129"/>
<text text-anchor="middle" x="1137" y="-117" font-family="Helvetica,sans-Serif" font-size="10.00">src/builtin/dot.h</text>
</a>
</g>
</g>
<!-- Node1&#45;&gt;Node27 -->
<g id="edge36_Node000001_Node000027" class="edge">
<title>Node1&#45;&gt;Node27</title>
<g id="a_edge36_Node000001_Node000027"><a xlink:title=" ">
<path fill="none" stroke="#63b8ff" d="M1028.34,-212.91C1055.47,-189.83 1105.41,-147.37 1126.82,-129.16"/>
<polygon fill="#63b8ff" stroke="#63b8ff" points="1025.74,-210.52 1020.39,-219.66 1030.28,-215.85 1025.74,-210.52"/>
</a>
</g>
</g>
<!-- Node28 -->
<g id="Node000028" class="node">
<title>Node28</title>
<g id="a_Node000028"><a xlink:href="export_8h.html" target="_top" xlink:title=" ">
<polygon fill="white" stroke="#666666" points="1562,-184 1454,-184 1454,-165 1562,-165 1562,-184"/>
<text text-anchor="middle" x="1508" y="-172" font-family="Helvetica,sans-Serif" font-size="10.00">src/builtin/export.h</text>
</a>
</g>
</g>
<!-- Node1&#45;&gt;Node28 -->
<g id="edge39_Node000001_Node000028" class="edge">
<title>Node1&#45;&gt;Node28</title>
<g id="a_edge39_Node000001_Node000028"><a xlink:title=" ">
<path fill="none" stroke="#63b8ff" d="M1079.11,-221.15C1179.32,-210.48 1362.93,-190.94 1453.93,-181.25"/>
<polygon fill="#63b8ff" stroke="#63b8ff" points="1078.66,-217.67 1069.08,-222.21 1079.4,-224.63 1078.66,-217.67"/>
</a>
</g>
</g>
<!-- Node30 -->
<g id="Node000030" class="node">
<title>Node30</title>
<g id="a_Node000030"><a xlink:href="io_8h.html" target="_top" xlink:title=" ">
<polygon fill="white" stroke="#666666" points="476,-184 412,-184 412,-165 476,-165 476,-184"/>
<text text-anchor="middle" x="444" y="-172" font-family="Helvetica,sans-Serif" font-size="10.00">src/io/io.h</text>
</a>
</g>
</g>
<!-- Node1&#45;&gt;Node30 -->
<g id="edge45_Node000001_Node000030" class="edge">
<title>Node1&#45;&gt;Node30</title>
<g id="a_edge45_Node000001_Node000030"><a xlink:title=" ">
<path fill="none" stroke="#63b8ff" d="M940.69,-222.01C817.52,-210.48 565.09,-186.84 476,-178.5"/>
<polygon fill="#63b8ff" stroke="#63b8ff" points="940.48,-225.51 950.76,-222.95 941.13,-218.54 940.48,-225.51"/>
</a>
</g>
</g>
<!-- Node3&#45;&gt;Node2 -->
<g id="edge3_Node000003_Node000002" class="edge">
<title>Node3&#45;&gt;Node2</title>
<g id="a_edge3_Node000003_Node000002"><a xlink:title=" ">
<path fill="none" stroke="#63b8ff" d="M778.6,-171.09C699.98,-166.48 548.61,-154.53 502,-129 478.39,-116.07 460.58,-88.41 452.61,-74.25"/>
<polygon fill="#63b8ff" stroke="#63b8ff" points="778.55,-174.59 788.73,-171.67 778.95,-167.61 778.55,-174.59"/>
</a>
</g>
</g>
<!-- Node4 -->
<g id="Node000004" class="node">
<title>Node4</title>
<g id="a_Node000004"><a xlink:href="ast__aux_8h.html" target="_top" xlink:title=" ">
<polygon fill="white" stroke="#666666" points="956.5,-74 857.5,-74 857.5,-55 956.5,-55 956.5,-74"/>
<text text-anchor="middle" x="907" y="-62" font-family="Helvetica,sans-Serif" font-size="10.00">src/ast/ast_aux.h</text>
</a>
</g>
</g>
<!-- Node3&#45;&gt;Node4 -->
<g id="edge4_Node000003_Node000004" class="edge">
<title>Node3&#45;&gt;Node4</title>
<g id="a_edge4_Node000003_Node000004"><a xlink:title=" ">
<path fill="none" stroke="#63b8ff" d="M812.59,-156.81C802.87,-143.42 793.42,-124.53 803,-110 815.38,-91.23 837.5,-80.35 858.15,-74.05"/>
<polygon fill="#63b8ff" stroke="#63b8ff" points="809.88,-159.03 818.82,-164.72 815.38,-154.69 809.88,-159.03"/>
</a>
</g>
</g>
<!-- Node3&#45;&gt;Node14 -->
<g id="edge14_Node000003_Node000014" class="edge">
<title>Node3&#45;&gt;Node14</title>
<g id="a_edge14_Node000003_Node000014"><a xlink:title=" ">
<path fill="none" stroke="#63b8ff" d="M875.41,-168.1C945.37,-160.18 1078.77,-144.65 1192,-129 1195.06,-128.58 1198.22,-128.13 1201.4,-127.66"/>
<polygon fill="#63b8ff" stroke="#63b8ff" points="874.69,-164.66 865.15,-169.26 875.48,-171.61 874.69,-164.66"/>
</a>
</g>
</g>
<!-- Node3&#45;&gt;Node16 -->
<g id="edge17_Node000003_Node000016" class="edge">
<title>Node3&#45;&gt;Node16</title>
<g id="a_edge17_Node000003_Node000016"><a xlink:title=" ">
<path fill="none" stroke="#63b8ff" d="M840.42,-156.96C847.91,-147.72 856.94,-136.6 863.03,-129.09"/>
<polygon fill="#63b8ff" stroke="#63b8ff" points="837.68,-154.78 834.1,-164.75 843.12,-159.19 837.68,-154.78"/>
</a>
</g>
</g>
<!-- Node3&#45;&gt;Node17 -->
<g id="edge18_Node000003_Node000017" class="edge">
<title>Node3&#45;&gt;Node17</title>
<g id="a_edge18_Node000003_Node000017"><a xlink:title=" ">
<path fill="none" stroke="#63b8ff" d="M866.07,-162.18C900.3,-152.27 949.29,-138.08 980.37,-129.08"/>
<polygon fill="#63b8ff" stroke="#63b8ff" points="865.03,-158.84 856.4,-164.98 866.98,-165.56 865.03,-158.84"/>
</a>
</g>
</g>
<!-- Node18 -->
<g id="Node000018" class="node">
<title>Node18</title>
<g id="a_Node000018"><a xlink:href="parser_8h.html" target="_top" xlink:title=" ">
<polygon fill="white" stroke="#666666" points="754.5,-129 647.5,-129 647.5,-110 754.5,-110 754.5,-129"/>
<text text-anchor="middle" x="701" y="-117" font-family="Helvetica,sans-Serif" font-size="10.00">src/parser/parser.h</text>
</a>
</g>
</g>
<!-- Node3&#45;&gt;Node18 -->
<g id="edge19_Node000003_Node000018" class="edge">
<title>Node3&#45;&gt;Node18</title>
<g id="a_edge19_Node000003_Node000018"><a xlink:title=" ">
<path fill="none" stroke="#63b8ff" d="M797.35,-161.03C774.05,-151.23 742.2,-137.83 721.61,-129.17"/>
<polygon fill="#63b8ff" stroke="#63b8ff" points="796.18,-164.33 806.76,-164.98 798.9,-157.88 796.18,-164.33"/>
</a>
</g>
</g>
<!-- Node23 -->
<g id="Node000023" class="node">
<title>Node23</title>
<g id="a_Node000023"><a xlink:href="prettyprint_8h.html" target="_top" xlink:title=" ">
<polygon fill="white" stroke="#666666" points="629.5,-129 510.5,-129 510.5,-110 629.5,-110 629.5,-129"/>
<text text-anchor="middle" x="570" y="-117" font-family="Helvetica,sans-Serif" font-size="10.00">src/utils/prettyprint.h</text>
</a>
</g>
</g>
<!-- Node3&#45;&gt;Node23 -->
<g id="edge30_Node000003_Node000023" class="edge">
<title>Node3&#45;&gt;Node23</title>
<g id="a_edge30_Node000003_Node000023"><a xlink:title=" ">
<path fill="none" stroke="#63b8ff" d="M778.91,-163.58C730.66,-153.63 657.12,-138.47 611.39,-129.04"/>
<polygon fill="#63b8ff" stroke="#63b8ff" points="778.3,-167.03 788.8,-165.62 779.72,-160.17 778.3,-167.03"/>
</a>
</g>
</g>
<!-- Node5 -->
<g id="Node000005" class="node">
<title>Node5</title>
<g id="a_Node000005"><a xlink:href="ast_8c.html" target="_top" xlink:title=" ">
<polygon fill="white" stroke="#666666" points="1201.5,-19 1126.5,-19 1126.5,0 1201.5,0 1201.5,-19"/>
<text text-anchor="middle" x="1164" y="-7" font-family="Helvetica,sans-Serif" font-size="10.00">src/ast/ast.c</text>
</a>
</g>
</g>
<!-- Node4&#45;&gt;Node5 -->
<g id="edge5_Node000004_Node000005" class="edge">
<title>Node4&#45;&gt;Node5</title>
<g id="a_edge5_Node000004_Node000005"><a xlink:title=" ">
<path fill="none" stroke="#63b8ff" d="M958.17,-52.95C1007.72,-42.73 1081.7,-27.47 1126.16,-18.3"/>
<polygon fill="#63b8ff" stroke="#63b8ff" points="957.38,-49.54 948.29,-54.98 958.79,-56.39 957.38,-49.54"/>
</a>
</g>
</g>
<!-- Node6 -->
<g id="Node000006" class="node">
<title>Node6</title>
<g id="a_Node000006"><a xlink:href="ast__free_8c.html" target="_top" xlink:title=" ">
<polygon fill="white" stroke="#666666" points="1320,-19 1220,-19 1220,0 1320,0 1320,-19"/>
<text text-anchor="middle" x="1270" y="-7" font-family="Helvetica,sans-Serif" font-size="10.00">src/ast/ast_free.c</text>
</a>
</g>
</g>
<!-- Node4&#45;&gt;Node6 -->
<g id="edge6_Node000004_Node000006" class="edge">
<title>Node4&#45;&gt;Node6</title>
<g id="a_edge6_Node000004_Node000006"><a xlink:title=" ">
<path fill="none" stroke="#63b8ff" d="M966.79,-54.77C1037.39,-44.46 1153.55,-27.5 1219.72,-17.84"/>
<polygon fill="#63b8ff" stroke="#63b8ff" points="966.1,-51.33 956.71,-56.24 967.11,-58.26 966.1,-51.33"/>
</a>
</g>
</g>
<!-- Node7 -->
<g id="Node000007" class="node">
<title>Node7</title>
<g id="a_Node000007"><a xlink:href="ast__init_8c.html" target="_top" xlink:title=" ">
<polygon fill="white" stroke="#666666" points="1434,-19 1338,-19 1338,0 1434,0 1434,-19"/>
<text text-anchor="middle" x="1386" y="-7" font-family="Helvetica,sans-Serif" font-size="10.00">src/ast/ast_init.c</text>
</a>
</g>
</g>
<!-- Node4&#45;&gt;Node7 -->
<g id="edge7_Node000004_Node000007" class="edge">
<title>Node4&#45;&gt;Node7</title>
<g id="a_edge7_Node000004_Node000007"><a xlink:title=" ">
<path fill="none" stroke="#63b8ff" d="M966.9,-58C1048.78,-50.3 1200.22,-35.38 1329,-19 1331.88,-18.63 1334.84,-18.24 1337.82,-17.83"/>
<polygon fill="#63b8ff" stroke="#63b8ff" points="966.41,-54.53 956.78,-58.95 967.06,-61.5 966.41,-54.53"/>
</a>
</g>
</g>
<!-- Node8 -->
<g id="Node000008" class="node">
<title>Node8</title>
<g id="a_Node000008"><a xlink:href="ast__run_8c.html" target="_top" xlink:title=" ">
<polygon fill="white" stroke="#666666" points="1548,-19 1452,-19 1452,0 1548,0 1548,-19"/>
<text text-anchor="middle" x="1500" y="-7" font-family="Helvetica,sans-Serif" font-size="10.00">src/ast/ast_run.c</text>
</a>
</g>
</g>
<!-- Node4&#45;&gt;Node8 -->
<g id="edge8_Node000004_Node000008" class="edge">
<title>Node4&#45;&gt;Node8</title>
<g id="a_edge8_Node000004_Node000008"><a xlink:title=" ">
<path fill="none" stroke="#63b8ff" d="M966.6,-58.29C979.28,-57.19 992.58,-56.05 1005,-55 1199.63,-38.56 1248.97,-41.42 1443,-19 1445.88,-18.67 1448.84,-18.3 1451.83,-17.91"/>
<polygon fill="#63b8ff" stroke="#63b8ff" points="966.26,-54.8 956.6,-59.15 966.86,-61.78 966.26,-54.8"/>
</a>
</g>
</g>
<!-- Node9 -->
<g id="Node000009" class="node">
<title>Node9</title>
<g id="a_Node000009"><a xlink:href="parser_8c.html" target="_top" xlink:title=" ">
<polygon fill="white" stroke="#666666" points="600,-19 494,-19 494,0 600,0 600,-19"/>
<text text-anchor="middle" x="547" y="-7" font-family="Helvetica,sans-Serif" font-size="10.00">src/parser/parser.c</text>
</a>
</g>
</g>
<!-- Node4&#45;&gt;Node9 -->
<g id="edge9_Node000004_Node000009" class="edge">
<title>Node4&#45;&gt;Node9</title>
<g id="a_edge9_Node000004_Node000009"><a xlink:title=" ">
<path fill="none" stroke="#63b8ff" d="M847.07,-54.68C778.19,-44.54 666.2,-28.05 600.27,-18.34"/>
<polygon fill="#63b8ff" stroke="#63b8ff" points="846.92,-58.19 857.32,-56.19 847.94,-51.27 846.92,-58.19"/>
</a>
</g>
</g>
<!-- Node10 -->
<g id="Node000010" class="node">
<title>Node10</title>
<g id="a_Node000010"><a xlink:href="parser__commands_8c.html" target="_top" xlink:title=" ">
<polygon fill="white" stroke="#666666" points="784,-19 618,-19 618,0 784,0 784,-19"/>
<text text-anchor="middle" x="701" y="-7" font-family="Helvetica,sans-Serif" font-size="10.00">src/parser/parser_commands.c</text>
</a>
</g>
</g>
<!-- Node4&#45;&gt;Node10 -->
<g id="edge10_Node000004_Node000010" class="edge">
<title>Node4&#45;&gt;Node10</title>
<g id="a_edge10_Node000004_Node000010"><a xlink:title=" ">
<path fill="none" stroke="#63b8ff" d="M864,-52.44C825.44,-42.52 769.64,-28.16 734.36,-19.08"/>
<polygon fill="#63b8ff" stroke="#63b8ff" points="863.35,-55.88 873.9,-54.98 865.09,-49.1 863.35,-55.88"/>
</a>
</g>
</g>
<!-- Node11 -->
<g id="Node000011" class="node">
<title>Node11</title>
<g id="a_Node000011"><a xlink:href="parser__lists_8c.html" target="_top" xlink:title=" ">
<polygon fill="white" stroke="#666666" points="934,-19 802,-19 802,0 934,0 934,-19"/>
<text text-anchor="middle" x="868" y="-7" font-family="Helvetica,sans-Serif" font-size="10.00">src/parser/parser_lists.c</text>
</a>
</g>
</g>
<!-- Node4&#45;&gt;Node11 -->
<g id="edge11_Node000004_Node000011" class="edge">
<title>Node4&#45;&gt;Node11</title>
<g id="a_edge11_Node000004_Node000011"><a xlink:title=" ">
<path fill="none" stroke="#63b8ff" d="M894.62,-46.67C887.86,-37.5 879.79,-26.52 874.32,-19.09"/>
<polygon fill="#63b8ff" stroke="#63b8ff" points="891.81,-48.77 900.56,-54.75 897.45,-44.62 891.81,-48.77"/>
</a>
</g>
</g>
<!-- Node12 -->
<g id="Node000012" class="node">
<title>Node12</title>
<g id="a_Node000012"><a xlink:href="parser__pipelines_8c.html" target="_top" xlink:title=" ">
<polygon fill="white" stroke="#666666" points="1108,-19 952,-19 952,0 1108,0 1108,-19"/>
<text text-anchor="middle" x="1030" y="-7" font-family="Helvetica,sans-Serif" font-size="10.00">src/parser/parser_pipelines.c</text>
</a>
</g>
</g>
<!-- Node4&#45;&gt;Node12 -->
<g id="edge12_Node000004_Node000012" class="edge">
<title>Node4&#45;&gt;Node12</title>
<g id="a_edge12_Node000004_Node000012"><a xlink:title=" ">
<path fill="none" stroke="#63b8ff" d="M936.25,-50.9C958.97,-41.11 989.87,-27.79 1009.88,-19.17"/>
<polygon fill="#63b8ff" stroke="#63b8ff" points="934.56,-47.81 926.76,-54.98 937.33,-54.24 934.56,-47.81"/>
</a>
</g>
</g>
<!-- Node13 -->
<g id="Node000013" class="node">
<title>Node13</title>
<g id="a_Node000013"><a xlink:href="parser__rules_8c.html" target="_top" xlink:title=" ">
<polygon fill="white" stroke="#666666" points="476,-19 340,-19 340,0 476,0 476,-19"/>
<text text-anchor="middle" x="408" y="-7" font-family="Helvetica,sans-Serif" font-size="10.00">src/parser/parser_rules.c</text>
</a>
</g>
</g>
<!-- Node4&#45;&gt;Node13 -->
<g id="edge13_Node000004_Node000013" class="edge">
<title>Node4&#45;&gt;Node13</title>
<g id="a_edge13_Node000004_Node000013"><a xlink:title=" ">
<path fill="none" stroke="#63b8ff" d="M847.19,-57.29C765.4,-48.77 614.07,-32.93 485,-19 482.06,-18.68 479.05,-18.36 476.02,-18.03"/>
<polygon fill="#63b8ff" stroke="#63b8ff" points="846.99,-60.78 857.29,-58.34 847.71,-53.82 846.99,-60.78"/>
</a>
</g>
</g>
<!-- Node14&#45;&gt;Node8 -->
<g id="edge15_Node000014_Node000008" class="edge">
<title>Node14&#45;&gt;Node8</title>
<g id="a_edge15_Node000014_Node000008"><a xlink:title=" ">
<path fill="none" stroke="#63b8ff" d="M1247.63,-99.4C1249.15,-85.11 1253.59,-66.19 1266,-55 1272.9,-48.78 1385.47,-29.35 1451.92,-18.34"/>
<polygon fill="#63b8ff" stroke="#63b8ff" points="1244.12,-99.41 1246.93,-109.62 1251.1,-99.88 1244.12,-99.41"/>
</a>
</g>
</g>
<!-- Node15 -->
<g id="Node000015" class="node">
<title>Node15</title>
<g id="a_Node000015"><a xlink:href="exec_8c.html" target="_top" xlink:title=" ">
<polygon fill="white" stroke="#666666" points="1365,-74 1275,-74 1275,-55 1365,-55 1365,-74"/>
<text text-anchor="middle" x="1320" y="-62" font-family="Helvetica,sans-Serif" font-size="10.00">src/exec/exec.c</text>
</a>
</g>
</g>
<!-- Node14&#45;&gt;Node15 -->
<g id="edge16_Node000014_Node000015" class="edge">
<title>Node14&#45;&gt;Node15</title>
<g id="a_edge16_Node000014_Node000015"><a xlink:title=" ">
<path fill="none" stroke="#63b8ff" d="M1267.14,-103.88C1280.28,-94.34 1296.98,-82.21 1308.06,-74.17"/>
<polygon fill="#63b8ff" stroke="#63b8ff" points="1264.76,-101.28 1258.73,-109.98 1268.88,-106.94 1264.76,-101.28"/>
</a>
</g>
</g>
<!-- Node18&#45;&gt;Node2 -->
<g id="edge20_Node000018_Node000002" class="edge">
<title>Node18&#45;&gt;Node2</title>
<g id="a_edge20_Node000018_Node000002"><a xlink:title=" ">
<path fill="none" stroke="#63b8ff" d="M650.28,-107.87C599.69,-97.28 523.49,-81.31 480.5,-72.31"/>
<polygon fill="#63b8ff" stroke="#63b8ff" points="649.85,-111.36 660.35,-109.98 651.28,-104.51 649.85,-111.36"/>
</a>
</g>
</g>
<!-- Node19 -->
<g id="Node000019" class="node">
<title>Node19</title>
<g id="a_Node000019"><a xlink:href="dot_8c.html" target="_top" xlink:title=" ">
<polygon fill="white" stroke="#666666" points="1106,-74 1014,-74 1014,-55 1106,-55 1106,-74"/>
<text text-anchor="middle" x="1060" y="-62" font-family="Helvetica,sans-Serif" font-size="10.00">src/builtin/dot.c</text>
</a>
</g>
</g>
<!-- Node18&#45;&gt;Node19 -->
<g id="edge21_Node000018_Node000019" class="edge">
<title>Node18&#45;&gt;Node19</title>
<g id="a_edge21_Node000018_Node000019"><a xlink:title=" ">
<path fill="none" stroke="#63b8ff" d="M764.98,-109.05C836.51,-98.49 950.58,-81.65 1013.88,-72.31"/>
<polygon fill="#63b8ff" stroke="#63b8ff" points="764.13,-105.64 754.75,-110.57 765.15,-112.57 764.13,-105.64"/>
</a>
</g>
</g>
<!-- Node20 -->
<g id="Node000020" class="node">
<title>Node20</title>
<g id="a_Node000020"><a xlink:href="parser__aux_8h.html" target="_top" xlink:title=" ">
<polygon fill="white" stroke="#666666" points="766.5,-74 635.5,-74 635.5,-55 766.5,-55 766.5,-74"/>
<text text-anchor="middle" x="701" y="-62" font-family="Helvetica,sans-Serif" font-size="10.00">src/parser/parser_aux.h</text>
</a>
</g>
</g>
<!-- Node18&#45;&gt;Node20 -->
<g id="edge22_Node000018_Node000020" class="edge">
<title>Node18&#45;&gt;Node20</title>
<g id="a_edge22_Node000018_Node000020"><a xlink:title=" ">
<path fill="none" stroke="#63b8ff" d="M701,-99.66C701,-90.93 701,-80.99 701,-74.09"/>
<polygon fill="#63b8ff" stroke="#63b8ff" points="697.5,-99.75 701,-109.75 704.5,-99.75 697.5,-99.75"/>
</a>
</g>
</g>
<!-- Node20&#45;&gt;Node9 -->
<g id="edge23_Node000020_Node000009" class="edge">
<title>Node20&#45;&gt;Node9</title>
<g id="a_edge23_Node000020_Node000009"><a xlink:title=" ">
<path fill="none" stroke="#63b8ff" d="M666.62,-51.67C637.91,-41.79 597.64,-27.93 571.94,-19.08"/>
<polygon fill="#63b8ff" stroke="#63b8ff" points="665.66,-55.04 676.26,-54.98 667.94,-48.42 665.66,-55.04"/>
</a>
</g>
</g>
<!-- Node20&#45;&gt;Node10 -->
<g id="edge24_Node000020_Node000010" class="edge">
<title>Node20&#45;&gt;Node10</title>
<g id="a_edge24_Node000020_Node000010"><a xlink:title=" ">
<path fill="none" stroke="#63b8ff" d="M701,-44.66C701,-35.93 701,-25.99 701,-19.09"/>
<polygon fill="#63b8ff" stroke="#63b8ff" points="697.5,-44.75 701,-54.75 704.5,-44.75 697.5,-44.75"/>
</a>
</g>
</g>
<!-- Node20&#45;&gt;Node11 -->
<g id="edge25_Node000020_Node000011" class="edge">
<title>Node20&#45;&gt;Node11</title>
<g id="a_edge25_Node000020_Node000011"><a xlink:title=" ">
<path fill="none" stroke="#63b8ff" d="M737.46,-51.93C768.66,-42.03 812.84,-28.01 840.96,-19.08"/>
<polygon fill="#63b8ff" stroke="#63b8ff" points="736.3,-48.62 727.83,-54.98 738.42,-55.3 736.3,-48.62"/>
</a>
</g>
</g>
<!-- Node20&#45;&gt;Node12 -->
<g id="edge26_Node000020_Node000012" class="edge">
<title>Node20&#45;&gt;Node12</title>
<g id="a_edge26_Node000020_Node000012"><a xlink:title=" ">
<path fill="none" stroke="#63b8ff" d="M763.87,-53.37C825.65,-43.42 918.87,-28.4 977,-19.04"/>
<polygon fill="#63b8ff" stroke="#63b8ff" points="763.18,-49.94 753.86,-54.98 764.29,-56.85 763.18,-49.94"/>
</a>
</g>
</g>
<!-- Node20&#45;&gt;Node13 -->
<g id="edge28_Node000020_Node000013" class="edge">
<title>Node20&#45;&gt;Node13</title>
<g id="a_edge28_Node000020_Node000013"><a xlink:title=" ">
<path fill="none" stroke="#63b8ff" d="M644,-53.19C589.06,-43.25 506.91,-28.39 455.44,-19.08"/>
<polygon fill="#63b8ff" stroke="#63b8ff" points="643.46,-56.65 653.92,-54.98 644.71,-49.76 643.46,-56.65"/>
</a>
</g>
</g>
<!-- Node21 -->
<g id="Node000021" class="node">
<title>Node21</title>
<g id="a_Node000021"><a xlink:href="parser__redirections_8c.html" target="_top" xlink:title=" ">
<polygon fill="white" stroke="#666666" points="170,-19 0,-19 0,0 170,0 170,-19"/>
<text text-anchor="middle" x="85" y="-7" font-family="Helvetica,sans-Serif" font-size="10.00">src/parser/parser_redirections.c</text>
</a>
</g>
</g>
<!-- Node20&#45;&gt;Node21 -->
<g id="edge27_Node000020_Node000021" class="edge">
<title>Node20&#45;&gt;Node21</title>
<g id="a_edge27_Node000020_Node000021"><a xlink:title=" ">
<path fill="none" stroke="#63b8ff" d="M624.95,-54.93C425.92,-35.78 374.29,-35.69 179,-19 176.06,-18.75 173.07,-18.49 170.05,-18.23"/>
<polygon fill="#63b8ff" stroke="#63b8ff" points="624.87,-58.44 635.16,-55.92 625.55,-51.47 624.87,-58.44"/>
</a>
</g>
</g>
<!-- Node22 -->
<g id="Node000022" class="node">
<title>Node22</title>
<g id="a_Node000022"><a xlink:href="parser__utils_8c.html" target="_top" xlink:title=" ">
<polygon fill="white" stroke="#666666" points="321.5,-19 188.5,-19 188.5,0 321.5,0 321.5,-19"/>
<text text-anchor="middle" x="255" y="-7" font-family="Helvetica,sans-Serif" font-size="10.00">src/parser/parser_utils.c</text>
</a>
</g>
</g>
<!-- Node20&#45;&gt;Node22 -->
<g id="edge29_Node000020_Node000022" class="edge">
<title>Node20&#45;&gt;Node22</title>
<g id="a_edge29_Node000020_Node000022"><a xlink:title=" ">
<path fill="none" stroke="#63b8ff" d="M625.07,-54.48C539.89,-44.36 403.06,-28.1 321.81,-18.44"/>
<polygon fill="#63b8ff" stroke="#63b8ff" points="624.85,-57.98 635.19,-55.68 625.67,-51.02 624.85,-57.98"/>
</a>
</g>
</g>
<!-- Node23&#45;&gt;Node2 -->
<g id="edge31_Node000023_Node000002" class="edge">
<title>Node23&#45;&gt;Node2</title>
<g id="a_edge31_Node000023_Node000002"><a xlink:title=" ">
<path fill="none" stroke="#63b8ff" d="M540.99,-105.9C518.46,-96.11 487.8,-82.79 467.96,-74.17"/>
<polygon fill="#63b8ff" stroke="#63b8ff" points="539.83,-109.21 550.4,-109.98 542.62,-102.79 539.83,-109.21"/>
</a>
</g>
</g>
<!-- Node24 -->
<g id="Node000024" class="node">
<title>Node24</title>
<g id="a_Node000024"><a xlink:href="prettyprint_8c.html" target="_top" xlink:title=" ">
<polygon fill="white" stroke="#666666" points="617,-74 499,-74 499,-55 617,-55 617,-74"/>
<text text-anchor="middle" x="558" y="-62" font-family="Helvetica,sans-Serif" font-size="10.00">src/utils/prettyprint.c</text>
</a>
</g>
</g>
<!-- Node23&#45;&gt;Node24 -->
<g id="edge32_Node000023_Node000024" class="edge">
<title>Node23&#45;&gt;Node24</title>
<g id="a_edge32_Node000023_Node000024"><a xlink:title=" ">
<path fill="none" stroke="#63b8ff" d="M565.8,-99.95C563.81,-91.15 561.52,-81.06 559.94,-74.09"/>
<polygon fill="#63b8ff" stroke="#63b8ff" points="562.4,-100.77 568.02,-109.75 569.22,-99.22 562.4,-100.77"/>
</a>
</g>
</g>
<!-- Node25&#45;&gt;Node15 -->
<g id="edge35_Node000025_Node000015" class="edge">
<title>Node25&#45;&gt;Node15</title>
<g id="a_edge35_Node000025_Node000015"><a xlink:title=" ">
<path fill="none" stroke="#63b8ff" d="M1320.82,-154.48C1320.61,-130.84 1320.24,-91.5 1320.08,-74.16"/>
<polygon fill="#63b8ff" stroke="#63b8ff" points="1317.33,-154.69 1320.92,-164.66 1324.33,-154.63 1317.33,-154.69"/>
</a>
</g>
</g>
<!-- Node26 -->
<g id="Node000026" class="node">
<title>Node26</title>
<g id="a_Node000026"><a xlink:href="cd_8c.html" target="_top" xlink:title=" ">
<polygon fill="white" stroke="#666666" points="1436.5,-129 1349.5,-129 1349.5,-110 1436.5,-110 1436.5,-129"/>
<text text-anchor="middle" x="1393" y="-117" font-family="Helvetica,sans-Serif" font-size="10.00">src/builtin/cd.c</text>
</a>
</g>
</g>
<!-- Node25&#45;&gt;Node26 -->
<g id="edge34_Node000025_Node000026" class="edge">
<title>Node25&#45;&gt;Node26</title>
<g id="a_edge34_Node000025_Node000026"><a xlink:title=" ">
<path fill="none" stroke="#63b8ff" d="M1340.87,-158.88C1353.82,-149.34 1370.3,-137.21 1381.22,-129.17"/>
<polygon fill="#63b8ff" stroke="#63b8ff" points="1338.55,-156.24 1332.57,-164.98 1342.7,-161.88 1338.55,-156.24"/>
</a>
</g>
</g>
<!-- Node27&#45;&gt;Node15 -->
<g id="edge38_Node000027_Node000015" class="edge">
<title>Node27&#45;&gt;Node15</title>
<g id="a_edge38_Node000027_Node000015"><a xlink:title=" ">
<path fill="none" stroke="#63b8ff" d="M1176.07,-107.18C1210.3,-97.27 1259.29,-83.08 1290.37,-74.08"/>
<polygon fill="#63b8ff" stroke="#63b8ff" points="1175.03,-103.84 1166.4,-109.98 1176.98,-110.56 1175.03,-103.84"/>
</a>
</g>
</g>
<!-- Node27&#45;&gt;Node19 -->
<g id="edge37_Node000027_Node000019" class="edge">
<title>Node27&#45;&gt;Node19</title>
<g id="a_edge37_Node000027_Node000019"><a xlink:title=" ">
<path fill="none" stroke="#63b8ff" d="M1116.15,-104.15C1102.24,-94.57 1084.39,-82.29 1072.6,-74.17"/>
<polygon fill="#63b8ff" stroke="#63b8ff" points="1114.41,-107.2 1124.63,-109.98 1118.38,-101.43 1114.41,-107.2"/>
</a>
</g>
</g>
<!-- Node28&#45;&gt;Node15 -->
<g id="edge41_Node000028_Node000015" class="edge">
<title>Node28&#45;&gt;Node15</title>
<g id="a_edge41_Node000028_Node000015"><a xlink:title=" ">
<path fill="none" stroke="#63b8ff" d="M1536.73,-160.35C1559.98,-147.93 1586.5,-128.49 1571,-110 1545.23,-79.26 1430.13,-69.74 1365.11,-66.8"/>
<polygon fill="#63b8ff" stroke="#63b8ff" points="1535.09,-157.26 1527.76,-164.91 1538.26,-163.5 1535.09,-157.26"/>
</a>
</g>
</g>
<!-- Node29 -->
<g id="Node000029" class="node">
<title>Node29</title>
<g id="a_Node000029"><a xlink:href="export_8c.html" target="_top" xlink:title=" ">
<polygon fill="white" stroke="#666666" points="1561.5,-129 1454.5,-129 1454.5,-110 1561.5,-110 1561.5,-129"/>
<text text-anchor="middle" x="1508" y="-117" font-family="Helvetica,sans-Serif" font-size="10.00">src/builtin/export.c</text>
</a>
</g>
</g>
<!-- Node28&#45;&gt;Node29 -->
<g id="edge40_Node000028_Node000029" class="edge">
<title>Node28&#45;&gt;Node29</title>
<g id="a_edge40_Node000028_Node000029"><a xlink:title=" ">
<path fill="none" stroke="#63b8ff" d="M1508,-154.66C1508,-145.93 1508,-135.99 1508,-129.09"/>
<polygon fill="#63b8ff" stroke="#63b8ff" points="1504.5,-154.75 1508,-164.75 1511.5,-154.75 1504.5,-154.75"/>
</a>
</g>
</g>
<!-- Node30&#45;&gt;Node2 -->
<g id="edge46_Node000030_Node000002" class="edge">
<title>Node30&#45;&gt;Node2</title>
<g id="a_edge46_Node000030_Node000002"><a xlink:title=" ">
<path fill="none" stroke="#63b8ff" d="M444.7,-154.48C445.58,-130.84 447.04,-91.5 447.68,-74.16"/>
<polygon fill="#63b8ff" stroke="#63b8ff" points="441.2,-154.54 444.33,-164.66 448.2,-154.8 441.2,-154.54"/>
</a>
</g>
</g>
<!-- Node31 -->
<g id="Node000031" class="node">
<title>Node31</title>
<g id="a_Node000031"><a xlink:href="io_8c.html" target="_top" xlink:title=" ">
<polygon fill="white" stroke="#666666" points="415.5,-129 352.5,-129 352.5,-110 415.5,-110 415.5,-129"/>
<text text-anchor="middle" x="384" y="-117" font-family="Helvetica,sans-Serif" font-size="10.00">src/io/io.c</text>
</a>
</g>
</g>
<!-- Node30&#45;&gt;Node31 -->
<g id="edge47_Node000030_Node000031" class="edge">
<title>Node30&#45;&gt;Node31</title>
<g id="a_edge47_Node000030_Node000031"><a xlink:title=" ">
<path fill="none" stroke="#63b8ff" d="M426.82,-158.32C416.12,-148.87 402.74,-137.06 393.82,-129.17"/>
<polygon fill="#63b8ff" stroke="#63b8ff" points="424.55,-160.99 434.36,-164.98 429.18,-155.74 424.55,-160.99"/>
</a>
</g>
</g>
</g>
</svg>
