<?xml version="1.0" encoding="UTF-8" standalone="no"?>
<!DOCTYPE svg PUBLIC "-//W3C//DTD SVG 1.1//EN"
 "http://www.w3.org/Graphics/SVG/1.1/DTD/svg11.dtd">
<!-- Generated by graphviz version 2.43.0 (0)
 -->
<!-- Title: expand_word Pages: 1 -->
<svg width="804pt" height="193pt"
 viewBox="0.00 0.00 804.00 193.00" xmlns="http://www.w3.org/2000/svg" xmlns:xlink="http://www.w3.org/1999/xlink">
<g id="graph0" class="graph" transform="scale(1 1) rotate(0) translate(4 189)">
<title>expand_word</title>
<!-- Node1 -->
<g id="Node000001" class="node">
<title>Node1</title>
<g id="a_Node000001"><a xlink:title=" ">
<polygon fill="#999999" stroke="#666666" points="82,-111 0,-111 0,-92 82,-92 82,-111"/>
<text text-anchor="middle" x="41" y="-99" font-family="Helvetica,sans-Serif" font-size="10.00">expand_word</text>
</a>
</g>
</g>
<!-- Node2 -->
<g id="Node000002" class="node">
<title>Node2</title>
<g id="a_Node000002"><a xlink:href="expand_8c.html#a97a675ffacb4b71f4f3b4a30749d9f66" target="_top" xlink:title=" ">
<polygon fill="white" stroke="#666666" points="222,-167 143,-167 143,-148 222,-148 222,-167"/>
<text text-anchor="middle" x="182.5" y="-155" font-family="Helvetica,sans-Serif" font-size="10.00">append_char</text>
</a>
</g>
</g>
<!-- Node1&#45;&gt;Node2 -->
<g id="edge1_Node000001_Node000002" class="edge">
<title>Node1&#45;&gt;Node2</title>
<g id="a_edge1_Node000001_Node000002"><a xlink:title=" ">
<path fill="none" stroke="#63b8ff" d="M58.79,-111.04C73.92,-119.36 96.96,-131.34 118,-139.5 123.07,-141.47 128.45,-143.33 133.85,-145.05"/>
<polygon fill="#63b8ff" stroke="#63b8ff" points="132.92,-148.42 143.51,-147.99 134.96,-141.73 132.92,-148.42"/>
</a>
</g>
</g>
<!-- Node3 -->
<g id="Node000003" class="node">
<title>Node3</title>
<g id="a_Node000003"><a xlink:href="expand_8c.html#a6d4728fd992669e4bb35624d37972179" target="_top" xlink:title=" ">
<polygon fill="white" stroke="#666666" points="247,-130 118,-130 118,-111 247,-111 247,-130"/>
<text text-anchor="middle" x="182.5" y="-118" font-family="Helvetica,sans-Serif" font-size="10.00">double_quotes_expand</text>
</a>
</g>
</g>
<!-- Node1&#45;&gt;Node3 -->
<g id="edge2_Node000001_Node000003" class="edge">
<title>Node1&#45;&gt;Node3</title>
<g id="a_edge2_Node000001_Node000003"><a xlink:title=" ">
<path fill="none" stroke="#63b8ff" d="M82.35,-107C90.42,-108.09 99.13,-109.28 107.92,-110.48"/>
<polygon fill="#63b8ff" stroke="#63b8ff" points="107.47,-113.95 117.85,-111.83 108.41,-107.01 107.47,-113.95"/>
</a>
</g>
</g>
<!-- Node6 -->
<g id="Node000006" class="node">
<title>Node6</title>
<g id="a_Node000006"><a xlink:href="expand_8c.html#a0a337c3a6b2595b2b8c03e171c9559ba" target="_top" xlink:title=" ">
<polygon fill="white" stroke="#666666" points="487.5,-93 413.5,-93 413.5,-74 487.5,-74 487.5,-93"/>
<text text-anchor="middle" x="450.5" y="-81" font-family="Helvetica,sans-Serif" font-size="10.00">var_expand</text>
</a>
</g>
</g>
<!-- Node1&#45;&gt;Node6 -->
<g id="edge17_Node000001_Node000006" class="edge">
<title>Node1&#45;&gt;Node6</title>
<g id="a_edge17_Node000001_Node000006"><a xlink:title=" ">
<path fill="none" stroke="#63b8ff" d="M82.19,-99.72C158.19,-96.37 322.56,-89.11 403.11,-85.55"/>
<polygon fill="#63b8ff" stroke="#63b8ff" points="403.6,-89.03 413.44,-85.09 403.29,-82.04 403.6,-89.03"/>
</a>
</g>
</g>
<!-- Node16 -->
<g id="Node000016" class="node">
<title>Node16</title>
<g id="a_Node000016"><a xlink:href="expand_8c.html#ad45c8055962fa36940e109b04b7e562e" target="_top" xlink:title=" ">
<polygon fill="white" stroke="#666666" points="242.5,-54 122.5,-54 122.5,-35 242.5,-35 242.5,-54"/>
<text text-anchor="middle" x="182.5" y="-42" font-family="Helvetica,sans-Serif" font-size="10.00">single_quote_expand</text>
</a>
</g>
</g>
<!-- Node1&#45;&gt;Node16 -->
<g id="edge16_Node000001_Node000016" class="edge">
<title>Node1&#45;&gt;Node16</title>
<g id="a_edge16_Node000001_Node000016"><a xlink:title=" ">
<path fill="none" stroke="#63b8ff" d="M63.18,-91.98C78.36,-85.23 99.34,-76.07 118,-68.5 126.98,-64.86 136.75,-61.07 145.87,-57.62"/>
<polygon fill="#63b8ff" stroke="#63b8ff" points="147.31,-60.82 155.44,-54.03 144.85,-54.27 147.31,-60.82"/>
</a>
</g>
</g>
<!-- Node4 -->
<g id="Node000004" class="node">
<title>Node4</title>
<g id="a_Node000004"><a xlink:href="expand_8c.html#a4a10ac07faa08df14e0a438c5feace6b" target="_top" xlink:title=" ">
<polygon fill="white" stroke="#666666" points="371,-130 283,-130 283,-111 371,-111 371,-130"/>
<text text-anchor="middle" x="327" y="-118" font-family="Helvetica,sans-Serif" font-size="10.00">in_dquote_exp</text>
</a>
</g>
</g>
<!-- Node3&#45;&gt;Node4 -->
<g id="edge3_Node000003_Node000004" class="edge">
<title>Node3&#45;&gt;Node4</title>
<g id="a_edge3_Node000003_Node000004"><a xlink:title=" ">
<path fill="none" stroke="#63b8ff" d="M247.25,-120.5C255.69,-120.5 264.27,-120.5 272.52,-120.5"/>
<polygon fill="#63b8ff" stroke="#63b8ff" points="272.74,-124 282.74,-120.5 272.74,-117 272.74,-124"/>
</a>
</g>
</g>
<!-- Node5 -->
<g id="Node000005" class="node">
<title>Node5</title>
<g id="a_Node000005"><a xlink:href="expand_8c.html#a46b3549565fede625ad04072f2654aa4" target="_top" xlink:title=" ">
<polygon fill="white" stroke="#666666" points="494,-130 407,-130 407,-111 494,-111 494,-130"/>
<text text-anchor="middle" x="450.5" y="-118" font-family="Helvetica,sans-Serif" font-size="10.00">is_expandable</text>
</a>
</g>
</g>
<!-- Node4&#45;&gt;Node5 -->
<g id="edge4_Node000004_Node000005" class="edge">
<title>Node4&#45;&gt;Node5</title>
<g id="a_edge4_Node000004_Node000005"><a xlink:title=" ">
<path fill="none" stroke="#63b8ff" d="M371.18,-120.5C379.42,-120.5 388.14,-120.5 396.64,-120.5"/>
<polygon fill="#63b8ff" stroke="#63b8ff" points="396.87,-124 406.87,-120.5 396.87,-117 396.87,-124"/>
</a>
</g>
</g>
<!-- Node4&#45;&gt;Node6 -->
<g id="edge5_Node000004_Node000006" class="edge">
<title>Node4&#45;&gt;Node6</title>
<g id="a_edge5_Node000004_Node000006"><a xlink:title=" ">
<path fill="none" stroke="#63b8ff" d="M359.29,-110.97C374.2,-106.43 392.22,-100.94 408.23,-96.07"/>
<polygon fill="#63b8ff" stroke="#63b8ff" points="409.35,-99.39 417.89,-93.12 407.31,-92.69 409.35,-99.39"/>
</a>
</g>
</g>
<!-- Node7 -->
<g id="Node000007" class="node">
<title>Node7</title>
<g id="a_Node000007"><a xlink:href="expand_8c.html#aaf941edbfdd3ac08d813ff01acc1f963" target="_top" xlink:title=" ">
<polygon fill="white" stroke="#666666" points="609,-185 556,-185 556,-166 609,-166 609,-185"/>
<text text-anchor="middle" x="582.5" y="-173" font-family="Helvetica,sans-Serif" font-size="10.00">free_ex</text>
</a>
</g>
</g>
<!-- Node6&#45;&gt;Node7 -->
<g id="edge6_Node000006_Node000007" class="edge">
<title>Node6&#45;&gt;Node7</title>
<g id="a_edge6_Node000006_Node000007"><a xlink:title=" ">
<path fill="none" stroke="#63b8ff" d="M480.74,-93.11C485.46,-95.42 490.08,-98.2 494,-101.5 516.63,-120.56 506.77,-139.18 530,-157.5 534.81,-161.3 540.48,-164.32 546.27,-166.73"/>
<polygon fill="#63b8ff" stroke="#63b8ff" points="545.39,-170.13 555.98,-170.21 547.75,-163.54 545.39,-170.13"/>
</a>
</g>
</g>
<!-- Node8 -->
<g id="Node000008" class="node">
<title>Node8</title>
<g id="a_Node000008"><a xlink:href="hashmap_8c.html#aa54a9eed65359c74557f0f55c9ca3dd3" target="_top" xlink:title="Get the variable from the dictionnary.">
<polygon fill="white" stroke="#666666" points="609,-130 556,-130 556,-111 609,-111 609,-130"/>
<text text-anchor="middle" x="582.5" y="-118" font-family="Helvetica,sans-Serif" font-size="10.00">get_var</text>
</a>
</g>
</g>
<!-- Node6&#45;&gt;Node8 -->
<g id="edge7_Node000006_Node000008" class="edge">
<title>Node6&#45;&gt;Node8</title>
<g id="a_edge7_Node000006_Node000008"><a xlink:title=" ">
<path fill="none" stroke="#63b8ff" d="M484.98,-93.03C503.73,-98.36 527.09,-105.01 546.14,-110.44"/>
<polygon fill="#63b8ff" stroke="#63b8ff" points="545.36,-113.85 555.93,-113.22 547.28,-107.12 545.36,-113.85"/>
</a>
</g>
</g>
<!-- Node12 -->
<g id="Node000012" class="node">
<title>Node12</title>
<g id="a_Node000012"><a xlink:href="expand_8c.html#ac1225d88933658edb6e51e4ed8f003c3" target="_top" xlink:title=" ">
<polygon fill="white" stroke="#666666" points="619,-93 546,-93 546,-74 619,-74 619,-93"/>
<text text-anchor="middle" x="582.5" y="-81" font-family="Helvetica,sans-Serif" font-size="10.00">val_append</text>
</a>
</g>
</g>
<!-- Node6&#45;&gt;Node12 -->
<g id="edge12_Node000006_Node000012" class="edge">
<title>Node6&#45;&gt;Node12</title>
<g id="a_edge12_Node000006_Node000012"><a xlink:title=" ">
<path fill="none" stroke="#63b8ff" d="M487.71,-83.5C502.63,-83.5 520.07,-83.5 535.85,-83.5"/>
<polygon fill="#63b8ff" stroke="#63b8ff" points="535.93,-87 545.93,-83.5 535.93,-80 535.93,-87"/>
</a>
</g>
</g>
<!-- Node13 -->
<g id="Node000013" class="node">
<title>Node13</title>
<g id="a_Node000013"><a xlink:href="expand_8c.html#aa0106a12d15398cad9ca20f96f1eb374" target="_top" xlink:title=" ">
<polygon fill="white" stroke="#666666" points="626.5,-56 538.5,-56 538.5,-37 626.5,-37 626.5,-56"/>
<text text-anchor="middle" x="582.5" y="-44" font-family="Helvetica,sans-Serif" font-size="10.00">var_exp_brack</text>
</a>
</g>
</g>
<!-- Node6&#45;&gt;Node13 -->
<g id="edge13_Node000006_Node000013" class="edge">
<title>Node6&#45;&gt;Node13</title>
<g id="a_edge13_Node000006_Node000013"><a xlink:title=" ">
<path fill="none" stroke="#63b8ff" d="M484.98,-73.97C501.08,-69.39 520.58,-63.84 537.83,-58.93"/>
<polygon fill="#63b8ff" stroke="#63b8ff" points="539.02,-62.23 547.68,-56.12 537.11,-55.5 539.02,-62.23"/>
</a>
</g>
</g>
<!-- Node14 -->
<g id="Node000014" class="node">
<title>Node14</title>
<g id="a_Node000014"><a xlink:href="expand_8c.html#a5785fb584914d075e9a5d933e903823c" target="_top" xlink:title=" ">
<polygon fill="white" stroke="#666666" points="635,-19 530,-19 530,0 635,0 635,-19"/>
<text text-anchor="middle" x="582.5" y="-7" font-family="Helvetica,sans-Serif" font-size="10.00">var_exp_no_brack</text>
</a>
</g>
</g>
<!-- Node6&#45;&gt;Node14 -->
<g id="edge14_Node000006_Node000014" class="edge">
<title>Node6&#45;&gt;Node14</title>
<g id="a_edge14_Node000006_Node000014"><a xlink:title=" ">
<path fill="none" stroke="#63b8ff" d="M462.79,-73.86C477.48,-61.71 504.28,-40.82 530,-27.5 533.26,-25.81 536.72,-24.22 540.23,-22.74"/>
<polygon fill="#63b8ff" stroke="#63b8ff" points="541.55,-25.98 549.59,-19.07 539,-19.46 541.55,-25.98"/>
</a>
</g>
</g>
<!-- Node8&#45;&gt;Node8 -->
<g id="edge8_Node000008_Node000008" class="edge">
<title>Node8&#45;&gt;Node8</title>
<g id="a_edge8_Node000008_Node000008"><a xlink:title=" ">
<path fill="none" stroke="#63b8ff" d="M564.93,-130.08C556.38,-138.73 562.24,-148 582.5,-148 595.16,-148 602.2,-144.38 603.61,-139.55"/>
<polygon fill="#63b8ff" stroke="#63b8ff" points="606.85,-138.22 600.07,-130.08 600.29,-140.68 606.85,-138.22"/>
</a>
</g>
</g>
<!-- Node9 -->
<g id="Node000009" class="node">
<title>Node9</title>
<g id="a_Node000009"><a xlink:href="hash_8c.html#ac74a7e29e54c223be6213463974d6154" target="_top" xlink:title=" ">
<polygon fill="white" stroke="#666666" points="718,-148 678,-148 678,-129 718,-129 718,-148"/>
<text text-anchor="middle" x="698" y="-136" font-family="Helvetica,sans-Serif" font-size="10.00">hash</text>
</a>
</g>
</g>
<!-- Node8&#45;&gt;Node9 -->
<g id="edge9_Node000008_Node000009" class="edge">
<title>Node8&#45;&gt;Node9</title>
<g id="a_edge9_Node000008_Node000009"><a xlink:title=" ">
<path fill="none" stroke="#63b8ff" d="M609.25,-124.58C626.64,-127.34 649.63,-130.99 667.71,-133.85"/>
<polygon fill="#63b8ff" stroke="#63b8ff" points="667.29,-137.33 677.71,-135.44 668.38,-130.42 667.29,-137.33"/>
</a>
</g>
</g>
<!-- Node10 -->
<g id="Node000010" class="node">
<title>Node10</title>
<g id="a_Node000010"><a xlink:href="hashmap_8c.html#a5b2c78a0a08d606dfbf21fe636373e6e" target="_top" xlink:title=" ">
<polygon fill="white" stroke="#666666" points="723.5,-111 672.5,-111 672.5,-92 723.5,-92 723.5,-111"/>
<text text-anchor="middle" x="698" y="-99" font-family="Helvetica,sans-Serif" font-size="10.00">special</text>
</a>
</g>
</g>
<!-- Node8&#45;&gt;Node10 -->
<g id="edge10_Node000008_Node000010" class="edge">
<title>Node8&#45;&gt;Node10</title>
<g id="a_edge10_Node000008_Node000010"><a xlink:title=" ">
<path fill="none" stroke="#63b8ff" d="M609.25,-116.19C624.85,-113.58 644.96,-110.21 661.99,-107.36"/>
<polygon fill="#63b8ff" stroke="#63b8ff" points="662.84,-110.77 672.13,-105.66 661.69,-103.86 662.84,-110.77"/>
</a>
</g>
</g>
<!-- Node11 -->
<g id="Node000011" class="node">
<title>Node11</title>
<g id="a_Node000011"><a xlink:href="itoa_8c.html#a43f392ec16afbe6cdb1ee6d1f1347f99" target="_top" xlink:title="Convert int to string.">
<polygon fill="white" stroke="#666666" points="796,-111 761,-111 761,-92 796,-92 796,-111"/>
<text text-anchor="middle" x="778.5" y="-99" font-family="Helvetica,sans-Serif" font-size="10.00">itoa</text>
</a>
</g>
</g>
<!-- Node10&#45;&gt;Node11 -->
<g id="edge11_Node000010_Node000011" class="edge">
<title>Node10&#45;&gt;Node11</title>
<g id="a_edge11_Node000010_Node000011"><a xlink:title=" ">
<path fill="none" stroke="#63b8ff" d="M723.84,-101.5C732.4,-101.5 742.02,-101.5 750.72,-101.5"/>
<polygon fill="#63b8ff" stroke="#63b8ff" points="750.76,-105 760.76,-101.5 750.76,-98 750.76,-105"/>
</a>
</g>
</g>
<!-- Node15 -->
<g id="Node000015" class="node">
<title>Node15</title>
<g id="a_Node000015"><a xlink:href="expand_8c.html#a66cc7be396f0ef502a888b56eee2f4bf" target="_top" xlink:title=" ">
<polygon fill="white" stroke="#666666" points="725,-19 671,-19 671,0 725,0 725,-19"/>
<text text-anchor="middle" x="698" y="-7" font-family="Helvetica,sans-Serif" font-size="10.00">is_word</text>
</a>
</g>
</g>
<!-- Node14&#45;&gt;Node15 -->
<g id="edge15_Node000014_Node000015" class="edge">
<title>Node14&#45;&gt;Node15</title>
<g id="a_edge15_Node000014_Node000015"><a xlink:title=" ">
<path fill="none" stroke="#63b8ff" d="M635.27,-9.5C643.8,-9.5 652.49,-9.5 660.55,-9.5"/>
<polygon fill="#63b8ff" stroke="#63b8ff" points="660.72,-13 670.72,-9.5 660.72,-6 660.72,-13"/>
</a>
</g>
</g>
</g>
</svg>
