<?xml version="1.0" encoding="UTF-8" standalone="no"?>
<!DOCTYPE svg PUBLIC "-//W3C//DTD SVG 1.1//EN"
 "http://www.w3.org/Graphics/SVG/1.1/DTD/svg11.dtd">
<!-- Generated by graphviz version 2.43.0 (0)
 -->
<!-- Title: double_quotes_expand Pages: 1 -->
<svg width="686pt" height="193pt"
 viewBox="0.00 0.00 686.00 193.00" xmlns="http://www.w3.org/2000/svg" xmlns:xlink="http://www.w3.org/1999/xlink">
<g id="graph0" class="graph" transform="scale(1 1) rotate(0) translate(4 189)">
<title>double_quotes_expand</title>
<!-- Node1 -->
<g id="Node000001" class="node">
<title>Node1</title>
<g id="a_Node000001"><a xlink:title=" ">
<polygon fill="#999999" stroke="#666666" points="129,-111 0,-111 0,-92 129,-92 129,-111"/>
<text text-anchor="middle" x="64.5" y="-99" font-family="Helvetica,sans-Serif" font-size="10.00">double_quotes_expand</text>
</a>
</g>
</g>
<!-- Node2 -->
<g id="Node000002" class="node">
<title>Node2</title>
<g id="a_Node000002"><a xlink:href="expand_8c.html#a4a10ac07faa08df14e0a438c5feace6b" target="_top" xlink:title=" ">
<polygon fill="white" stroke="#666666" points="253,-111 165,-111 165,-92 253,-92 253,-111"/>
<text text-anchor="middle" x="209" y="-99" font-family="Helvetica,sans-Serif" font-size="10.00">in_dquote_exp</text>
</a>
</g>
</g>
<!-- Node1&#45;&gt;Node2 -->
<g id="edge1_Node000001_Node000002" class="edge">
<title>Node1&#45;&gt;Node2</title>
<g id="a_edge1_Node000001_Node000002"><a xlink:title=" ">
<path fill="none" stroke="#63b8ff" d="M129.25,-101.5C137.69,-101.5 146.27,-101.5 154.52,-101.5"/>
<polygon fill="#63b8ff" stroke="#63b8ff" points="154.74,-105 164.74,-101.5 154.74,-98 154.74,-105"/>
</a>
</g>
</g>
<!-- Node3 -->
<g id="Node000003" class="node">
<title>Node3</title>
<g id="a_Node000003"><a xlink:href="expand_8c.html#a46b3549565fede625ad04072f2654aa4" target="_top" xlink:title=" ">
<polygon fill="white" stroke="#666666" points="376,-130 289,-130 289,-111 376,-111 376,-130"/>
<text text-anchor="middle" x="332.5" y="-118" font-family="Helvetica,sans-Serif" font-size="10.00">is_expandable</text>
</a>
</g>
</g>
<!-- Node2&#45;&gt;Node3 -->
<g id="edge2_Node000002_Node000003" class="edge">
<title>Node2&#45;&gt;Node3</title>
<g id="a_edge2_Node000002_Node000003"><a xlink:title=" ">
<path fill="none" stroke="#63b8ff" d="M253.18,-108.25C261.51,-109.56 270.33,-110.93 278.92,-112.28"/>
<polygon fill="#63b8ff" stroke="#63b8ff" points="278.45,-115.75 288.87,-113.83 279.53,-108.83 278.45,-115.75"/>
</a>
</g>
</g>
<!-- Node4 -->
<g id="Node000004" class="node">
<title>Node4</title>
<g id="a_Node000004"><a xlink:href="expand_8c.html#a0a337c3a6b2595b2b8c03e171c9559ba" target="_top" xlink:title=" ">
<polygon fill="white" stroke="#666666" points="369.5,-93 295.5,-93 295.5,-74 369.5,-74 369.5,-93"/>
<text text-anchor="middle" x="332.5" y="-81" font-family="Helvetica,sans-Serif" font-size="10.00">var_expand</text>
</a>
</g>
</g>
<!-- Node2&#45;&gt;Node4 -->
<g id="edge3_Node000002_Node000004" class="edge">
<title>Node2&#45;&gt;Node4</title>
<g id="a_edge3_Node000002_Node000004"><a xlink:title=" ">
<path fill="none" stroke="#63b8ff" d="M253.18,-95.1C263.62,-93.56 274.82,-91.9 285.39,-90.33"/>
<polygon fill="#63b8ff" stroke="#63b8ff" points="285.91,-93.79 295.29,-88.87 284.88,-86.87 285.91,-93.79"/>
</a>
</g>
</g>
<!-- Node5 -->
<g id="Node000005" class="node">
<title>Node5</title>
<g id="a_Node000005"><a xlink:href="expand_8c.html#aaf941edbfdd3ac08d813ff01acc1f963" target="_top" xlink:title=" ">
<polygon fill="white" stroke="#666666" points="491,-185 438,-185 438,-166 491,-166 491,-185"/>
<text text-anchor="middle" x="464.5" y="-173" font-family="Helvetica,sans-Serif" font-size="10.00">free_ex</text>
</a>
</g>
</g>
<!-- Node4&#45;&gt;Node5 -->
<g id="edge4_Node000004_Node000005" class="edge">
<title>Node4&#45;&gt;Node5</title>
<g id="a_edge4_Node000004_Node000005"><a xlink:title=" ">
<path fill="none" stroke="#63b8ff" d="M361.39,-93.2C366.57,-95.75 371.69,-98.83 376,-102.5 398.24,-121.45 388.99,-139.5 412,-157.5 416.78,-161.24 422.39,-164.23 428.12,-166.62"/>
<polygon fill="#63b8ff" stroke="#63b8ff" points="427.15,-169.99 437.75,-170.09 429.53,-163.41 427.15,-169.99"/>
</a>
</g>
</g>
<!-- Node6 -->
<g id="Node000006" class="node">
<title>Node6</title>
<g id="a_Node000006"><a xlink:href="hashmap_8c.html#aa54a9eed65359c74557f0f55c9ca3dd3" target="_top" xlink:title="Get the variable from the dictionnary.">
<polygon fill="white" stroke="#666666" points="491,-130 438,-130 438,-111 491,-111 491,-130"/>
<text text-anchor="middle" x="464.5" y="-118" font-family="Helvetica,sans-Serif" font-size="10.00">get_var</text>
</a>
</g>
</g>
<!-- Node4&#45;&gt;Node6 -->
<g id="edge5_Node000004_Node000006" class="edge">
<title>Node4&#45;&gt;Node6</title>
<g id="a_edge5_Node000004_Node000006"><a xlink:title=" ">
<path fill="none" stroke="#63b8ff" d="M366.98,-93.03C385.73,-98.36 409.09,-105.01 428.14,-110.44"/>
<polygon fill="#63b8ff" stroke="#63b8ff" points="427.36,-113.85 437.93,-113.22 429.28,-107.12 427.36,-113.85"/>
</a>
</g>
</g>
<!-- Node10 -->
<g id="Node000010" class="node">
<title>Node10</title>
<g id="a_Node000010"><a xlink:href="expand_8c.html#ac1225d88933658edb6e51e4ed8f003c3" target="_top" xlink:title=" ">
<polygon fill="white" stroke="#666666" points="501,-93 428,-93 428,-74 501,-74 501,-93"/>
<text text-anchor="middle" x="464.5" y="-81" font-family="Helvetica,sans-Serif" font-size="10.00">val_append</text>
</a>
</g>
</g>
<!-- Node4&#45;&gt;Node10 -->
<g id="edge10_Node000004_Node000010" class="edge">
<title>Node4&#45;&gt;Node10</title>
<g id="a_edge10_Node000004_Node000010"><a xlink:title=" ">
<path fill="none" stroke="#63b8ff" d="M369.71,-83.5C384.63,-83.5 402.07,-83.5 417.85,-83.5"/>
<polygon fill="#63b8ff" stroke="#63b8ff" points="417.93,-87 427.93,-83.5 417.93,-80 417.93,-87"/>
</a>
</g>
</g>
<!-- Node11 -->
<g id="Node000011" class="node">
<title>Node11</title>
<g id="a_Node000011"><a xlink:href="expand_8c.html#aa0106a12d15398cad9ca20f96f1eb374" target="_top" xlink:title=" ">
<polygon fill="white" stroke="#666666" points="508.5,-56 420.5,-56 420.5,-37 508.5,-37 508.5,-56"/>
<text text-anchor="middle" x="464.5" y="-44" font-family="Helvetica,sans-Serif" font-size="10.00">var_exp_brack</text>
</a>
</g>
</g>
<!-- Node4&#45;&gt;Node11 -->
<g id="edge11_Node000004_Node000011" class="edge">
<title>Node4&#45;&gt;Node11</title>
<g id="a_edge11_Node000004_Node000011"><a xlink:title=" ">
<path fill="none" stroke="#63b8ff" d="M366.98,-73.97C383.08,-69.39 402.58,-63.84 419.83,-58.93"/>
<polygon fill="#63b8ff" stroke="#63b8ff" points="421.02,-62.23 429.68,-56.12 419.11,-55.5 421.02,-62.23"/>
</a>
</g>
</g>
<!-- Node12 -->
<g id="Node000012" class="node">
<title>Node12</title>
<g id="a_Node000012"><a xlink:href="expand_8c.html#a5785fb584914d075e9a5d933e903823c" target="_top" xlink:title=" ">
<polygon fill="white" stroke="#666666" points="517,-19 412,-19 412,0 517,0 517,-19"/>
<text text-anchor="middle" x="464.5" y="-7" font-family="Helvetica,sans-Serif" font-size="10.00">var_exp_no_brack</text>
</a>
</g>
</g>
<!-- Node4&#45;&gt;Node12 -->
<g id="edge12_Node000004_Node000012" class="edge">
<title>Node4&#45;&gt;Node12</title>
<g id="a_edge12_Node000004_Node000012"><a xlink:title=" ">
<path fill="none" stroke="#63b8ff" d="M344.79,-73.86C359.48,-61.71 386.28,-40.82 412,-27.5 415.26,-25.81 418.72,-24.22 422.23,-22.74"/>
<polygon fill="#63b8ff" stroke="#63b8ff" points="423.55,-25.98 431.59,-19.07 421,-19.46 423.55,-25.98"/>
</a>
</g>
</g>
<!-- Node6&#45;&gt;Node6 -->
<g id="edge6_Node000006_Node000006" class="edge">
<title>Node6&#45;&gt;Node6</title>
<g id="a_edge6_Node000006_Node000006"><a xlink:title=" ">
<path fill="none" stroke="#63b8ff" d="M446.93,-130.08C438.38,-138.73 444.24,-148 464.5,-148 477.16,-148 484.2,-144.38 485.61,-139.55"/>
<polygon fill="#63b8ff" stroke="#63b8ff" points="488.85,-138.22 482.07,-130.08 482.29,-140.68 488.85,-138.22"/>
</a>
</g>
</g>
<!-- Node7 -->
<g id="Node000007" class="node">
<title>Node7</title>
<g id="a_Node000007"><a xlink:href="hash_8c.html#ac74a7e29e54c223be6213463974d6154" target="_top" xlink:title=" ">
<polygon fill="white" stroke="#666666" points="600,-148 560,-148 560,-129 600,-129 600,-148"/>
<text text-anchor="middle" x="580" y="-136" font-family="Helvetica,sans-Serif" font-size="10.00">hash</text>
</a>
</g>
</g>
<!-- Node6&#45;&gt;Node7 -->
<g id="edge7_Node000006_Node000007" class="edge">
<title>Node6&#45;&gt;Node7</title>
<g id="a_edge7_Node000006_Node000007"><a xlink:title=" ">
<path fill="none" stroke="#63b8ff" d="M491.25,-124.58C508.64,-127.34 531.63,-130.99 549.71,-133.85"/>
<polygon fill="#63b8ff" stroke="#63b8ff" points="549.29,-137.33 559.71,-135.44 550.38,-130.42 549.29,-137.33"/>
</a>
</g>
</g>
<!-- Node8 -->
<g id="Node000008" class="node">
<title>Node8</title>
<g id="a_Node000008"><a xlink:href="hashmap_8c.html#a5b2c78a0a08d606dfbf21fe636373e6e" target="_top" xlink:title=" ">
<polygon fill="white" stroke="#666666" points="605.5,-111 554.5,-111 554.5,-92 605.5,-92 605.5,-111"/>
<text text-anchor="middle" x="580" y="-99" font-family="Helvetica,sans-Serif" font-size="10.00">special</text>
</a>
</g>
</g>
<!-- Node6&#45;&gt;Node8 -->
<g id="edge8_Node000006_Node000008" class="edge">
<title>Node6&#45;&gt;Node8</title>
<g id="a_edge8_Node000006_Node000008"><a xlink:title=" ">
<path fill="none" stroke="#63b8ff" d="M491.25,-116.19C506.85,-113.58 526.96,-110.21 543.99,-107.36"/>
<polygon fill="#63b8ff" stroke="#63b8ff" points="544.84,-110.77 554.13,-105.66 543.69,-103.86 544.84,-110.77"/>
</a>
</g>
</g>
<!-- Node9 -->
<g id="Node000009" class="node">
<title>Node9</title>
<g id="a_Node000009"><a xlink:href="itoa_8c.html#a43f392ec16afbe6cdb1ee6d1f1347f99" target="_top" xlink:title="Convert int to string.">
<polygon fill="white" stroke="#666666" points="678,-111 643,-111 643,-92 678,-92 678,-111"/>
<text text-anchor="middle" x="660.5" y="-99" font-family="Helvetica,sans-Serif" font-size="10.00">itoa</text>
</a>
</g>
</g>
<!-- Node8&#45;&gt;Node9 -->
<g id="edge9_Node000008_Node000009" class="edge">
<title>Node8&#45;&gt;Node9</title>
<g id="a_edge9_Node000008_Node000009"><a xlink:title=" ">
<path fill="none" stroke="#63b8ff" d="M605.84,-101.5C614.4,-101.5 624.02,-101.5 632.72,-101.5"/>
<polygon fill="#63b8ff" stroke="#63b8ff" points="632.76,-105 642.76,-101.5 632.76,-98 632.76,-105"/>
</a>
</g>
</g>
<!-- Node13 -->
<g id="Node000013" class="node">
<title>Node13</title>
<g id="a_Node000013"><a xlink:href="expand_8c.html#a66cc7be396f0ef502a888b56eee2f4bf" target="_top" xlink:title=" ">
<polygon fill="white" stroke="#666666" points="607,-19 553,-19 553,0 607,0 607,-19"/>
<text text-anchor="middle" x="580" y="-7" font-family="Helvetica,sans-Serif" font-size="10.00">is_word</text>
</a>
</g>
</g>
<!-- Node12&#45;&gt;Node13 -->
<g id="edge13_Node000012_Node000013" class="edge">
<title>Node12&#45;&gt;Node13</title>
<g id="a_edge13_Node000012_Node000013"><a xlink:title=" ">
<path fill="none" stroke="#63b8ff" d="M517.27,-9.5C525.8,-9.5 534.49,-9.5 542.55,-9.5"/>
<polygon fill="#63b8ff" stroke="#63b8ff" points="542.72,-13 552.72,-9.5 542.72,-6 542.72,-13"/>
</a>
</g>
</g>
</g>
</svg>
