<?xml version="1.0" encoding="UTF-8" standalone="no"?>
<!DOCTYPE svg PUBLIC "-//W3C//DTD SVG 1.1//EN"
 "http://www.w3.org/Graphics/SVG/1.1/DTD/svg11.dtd">
<!-- Generated by graphviz version 2.43.0 (0)
 -->
<!-- Title: export_b Pages: 1 -->
<svg width="1275pt" height="292pt"
 viewBox="0.00 0.00 1275.00 291.50" xmlns="http://www.w3.org/2000/svg" xmlns:xlink="http://www.w3.org/1999/xlink">
<g id="graph0" class="graph" transform="scale(1 1) rotate(0) translate(4 287.5)">
<title>export_b</title>
<!-- Node1 -->
<g id="Node000001" class="node">
<title>Node1</title>
<g id="a_Node000001"><a xlink:title="Execute export builtin cmd.">
<polygon fill="#999999" stroke="#666666" points="59,-57 0,-57 0,-38 59,-38 59,-57"/>
<text text-anchor="middle" x="29.5" y="-45" font-family="Helvetica,sans-Serif" font-size="10.00">export_b</text>
</a>
</g>
</g>
<!-- Node2 -->
<g id="Node000002" class="node">
<title>Node2</title>
<g id="a_Node000002"><a xlink:href="hashmap_8c.html#a3bf95c887f7eac3eb074725515feba49" target="_top" xlink:title="Add a variable to the dictionnary.">
<polygon fill="white" stroke="#666666" points="166.5,-123 110.5,-123 110.5,-104 166.5,-104 166.5,-123"/>
<text text-anchor="middle" x="138.5" y="-111" font-family="Helvetica,sans-Serif" font-size="10.00">add_var</text>
</a>
</g>
</g>
<!-- Node1&#45;&gt;Node2 -->
<g id="edge1_Node000001_Node000002" class="edge">
<title>Node1&#45;&gt;Node2</title>
<g id="a_edge1_Node000001_Node000002"><a xlink:title=" ">
<path fill="none" stroke="#63b8ff" d="M46.29,-57.24C63.93,-68.12 92.71,-85.87 113.22,-98.52"/>
<polygon fill="#63b8ff" stroke="#63b8ff" points="111.65,-101.67 121.99,-103.94 115.32,-95.71 111.65,-101.67"/>
</a>
</g>
</g>
<!-- Node12 -->
<g id="Node000012" class="node">
<title>Node12</title>
<g id="a_Node000012"><a xlink:href="hashmap_8c.html#aa54a9eed65359c74557f0f55c9ca3dd3" target="_top" xlink:title="Get the variable from the dictionnary.">
<polygon fill="white" stroke="#666666" points="1080,-48 1027,-48 1027,-29 1080,-29 1080,-48"/>
<text text-anchor="middle" x="1053.5" y="-36" font-family="Helvetica,sans-Serif" font-size="10.00">get_var</text>
</a>
</g>
</g>
<!-- Node1&#45;&gt;Node12 -->
<g id="edge25_Node000001_Node000012" class="edge">
<title>Node1&#45;&gt;Node12</title>
<g id="a_edge25_Node000001_Node000012"><a xlink:title=" ">
<path fill="none" stroke="#63b8ff" d="M59.05,-47.5C105.55,-47.5 200.54,-47.5 281,-47.5 281,-47.5 281,-47.5 799,-47.5 876.75,-47.5 967.82,-43.22 1016.87,-40.56"/>
<polygon fill="#63b8ff" stroke="#63b8ff" points="1017.17,-44.05 1026.96,-40.01 1016.79,-37.06 1017.17,-44.05"/>
</a>
</g>
</g>
<!-- Node22 -->
<g id="Node000022" class="node">
<title>Node22</title>
<g id="a_Node000022"><a xlink:href="export_8c.html#a79c86c739fad578e8c5bc4461324eab9" target="_top" xlink:title="Check if valid var name.">
<polygon fill="white" stroke="#666666" points="182,-19 95,-19 95,0 182,0 182,-19"/>
<text text-anchor="middle" x="138.5" y="-7" font-family="Helvetica,sans-Serif" font-size="10.00">is_valid_name</text>
</a>
</g>
</g>
<!-- Node1&#45;&gt;Node22 -->
<g id="edge26_Node000001_Node000022" class="edge">
<title>Node1&#45;&gt;Node22</title>
<g id="a_edge26_Node000001_Node000022"><a xlink:title=" ">
<path fill="none" stroke="#63b8ff" d="M57.5,-37.91C70.68,-33.23 86.73,-27.53 100.98,-22.47"/>
<polygon fill="#63b8ff" stroke="#63b8ff" points="102.26,-25.73 110.51,-19.09 99.91,-19.13 102.26,-25.73"/>
</a>
</g>
</g>
<!-- Node3 -->
<g id="Node000003" class="node">
<title>Node3</title>
<g id="a_Node000003"><a xlink:href="hashmap_8c.html#aca86cd9ca85ac2e41fbb5c9e86ad6d6f" target="_top" xlink:title=" ">
<polygon fill="white" stroke="#666666" points="324.5,-199 239.5,-199 239.5,-180 324.5,-180 324.5,-199"/>
<text text-anchor="middle" x="282" y="-187" font-family="Helvetica,sans-Serif" font-size="10.00">expand_value</text>
</a>
</g>
</g>
<!-- Node2&#45;&gt;Node3 -->
<g id="edge2_Node000002_Node000003" class="edge">
<title>Node2&#45;&gt;Node3</title>
<g id="a_edge2_Node000002_Node000003"><a xlink:title=" ">
<path fill="none" stroke="#63b8ff" d="M157.42,-123.13C181.87,-136.26 225.89,-159.9 254.26,-175.14"/>
<polygon fill="#63b8ff" stroke="#63b8ff" points="252.76,-178.3 263.22,-179.95 256.07,-172.14 252.76,-178.3"/>
</a>
</g>
</g>
<!-- Node13 -->
<g id="Node000013" class="node">
<title>Node13</title>
<g id="a_Node000013"><a xlink:href="hash_8c.html#ac74a7e29e54c223be6213463974d6154" target="_top" xlink:title=" ">
<polygon fill="white" stroke="#666666" points="1189,-95 1149,-95 1149,-76 1189,-76 1189,-95"/>
<text text-anchor="middle" x="1169" y="-83" font-family="Helvetica,sans-Serif" font-size="10.00">hash</text>
</a>
</g>
</g>
<!-- Node2&#45;&gt;Node13 -->
<g id="edge23_Node000002_Node000013" class="edge">
<title>Node2&#45;&gt;Node13</title>
<g id="a_edge23_Node000002_Node000013"><a xlink:title=" ">
<path fill="none" stroke="#63b8ff" d="M166.85,-110.28C215.28,-104.86 319.34,-94.5 407.5,-94.5 407.5,-94.5 407.5,-94.5 922.5,-94.5 1000.68,-94.5 1092.77,-89.89 1138.77,-87.27"/>
<polygon fill="#63b8ff" stroke="#63b8ff" points="1139.13,-90.75 1148.91,-86.68 1138.72,-83.76 1139.13,-90.75"/>
</a>
</g>
</g>
<!-- Node21 -->
<g id="Node000021" class="node">
<title>Node21</title>
<g id="a_Node000021"><a xlink:href="hashmap_8c.html#a5bcdd565d2ba5876c5ef1685625cdcfa" target="_top" xlink:title=" ">
<polygon fill="white" stroke="#666666" points="346,-142 218,-142 218,-123 346,-123 346,-142"/>
<text text-anchor="middle" x="282" y="-130" font-family="Helvetica,sans-Serif" font-size="10.00">update_or_append_var</text>
</a>
</g>
</g>
<!-- Node2&#45;&gt;Node21 -->
<g id="edge24_Node000002_Node000021" class="edge">
<title>Node2&#45;&gt;Node21</title>
<g id="a_edge24_Node000002_Node000021"><a xlink:title=" ">
<path fill="none" stroke="#63b8ff" d="M166.78,-117.16C178.59,-118.75 193.04,-120.69 207.64,-122.65"/>
<polygon fill="#63b8ff" stroke="#63b8ff" points="207.36,-126.14 217.74,-124.01 208.29,-119.21 207.36,-126.14"/>
</a>
</g>
</g>
<!-- Node4 -->
<g id="Node000004" class="node">
<title>Node4</title>
<g id="a_Node000004"><a xlink:href="expand_8c.html#ae22ff4719527d6b2b8bca3e43f576837" target="_top" xlink:title=" ">
<polygon fill="white" stroke="#666666" points="435,-199 382,-199 382,-180 435,-180 435,-199"/>
<text text-anchor="middle" x="408.5" y="-187" font-family="Helvetica,sans-Serif" font-size="10.00">expand</text>
</a>
</g>
</g>
<!-- Node3&#45;&gt;Node4 -->
<g id="edge3_Node000003_Node000004" class="edge">
<title>Node3&#45;&gt;Node4</title>
<g id="a_edge3_Node000003_Node000004"><a xlink:title=" ">
<path fill="none" stroke="#63b8ff" d="M324.8,-189.5C340.04,-189.5 357.11,-189.5 371.77,-189.5"/>
<polygon fill="#63b8ff" stroke="#63b8ff" points="371.96,-193 381.96,-189.5 371.96,-186 371.96,-193"/>
</a>
</g>
</g>
<!-- Node5 -->
<g id="Node000005" class="node">
<title>Node5</title>
<g id="a_Node000005"><a xlink:href="expand_8c.html#a492ca861a96ee6319b97b4b1d6ba9835" target="_top" xlink:title=" ">
<polygon fill="white" stroke="#666666" points="553,-199 471,-199 471,-180 553,-180 553,-199"/>
<text text-anchor="middle" x="512" y="-187" font-family="Helvetica,sans-Serif" font-size="10.00">expand_word</text>
</a>
</g>
</g>
<!-- Node4&#45;&gt;Node5 -->
<g id="edge4_Node000004_Node000005" class="edge">
<title>Node4&#45;&gt;Node5</title>
<g id="a_edge4_Node000004_Node000005"><a xlink:title=" ">
<path fill="none" stroke="#63b8ff" d="M435.11,-189.5C442.88,-189.5 451.7,-189.5 460.5,-189.5"/>
<polygon fill="#63b8ff" stroke="#63b8ff" points="460.78,-193 470.78,-189.5 460.78,-186 460.78,-193"/>
</a>
</g>
</g>
<!-- Node11 -->
<g id="Node000011" class="node">
<title>Node11</title>
<g id="a_Node000011"><a xlink:href="expand_8c.html#aaf941edbfdd3ac08d813ff01acc1f963" target="_top" xlink:title=" ">
<polygon fill="white" stroke="#666666" points="1080,-274 1027,-274 1027,-255 1080,-255 1080,-274"/>
<text text-anchor="middle" x="1053.5" y="-262" font-family="Helvetica,sans-Serif" font-size="10.00">free_ex</text>
</a>
</g>
</g>
<!-- Node4&#45;&gt;Node11 -->
<g id="edge22_Node000004_Node000011" class="edge">
<title>Node4&#45;&gt;Node11</title>
<g id="a_edge22_Node000004_Node000011"><a xlink:title=" ">
<path fill="none" stroke="#63b8ff" d="M423.29,-199.03C459.24,-222.93 559.54,-283.5 652.5,-283.5 652.5,-283.5 652.5,-283.5 799,-283.5 876.71,-283.5 967.45,-274.51 1016.53,-268.9"/>
<polygon fill="#63b8ff" stroke="#63b8ff" points="1017.11,-272.36 1026.64,-267.72 1016.3,-265.4 1017.11,-272.36"/>
</a>
</g>
</g>
<!-- Node6 -->
<g id="Node000006" class="node">
<title>Node6</title>
<g id="a_Node000006"><a xlink:href="expand_8c.html#a97a675ffacb4b71f4f3b4a30749d9f66" target="_top" xlink:title=" ">
<polygon fill="white" stroke="#666666" points="693,-255 614,-255 614,-236 693,-236 693,-255"/>
<text text-anchor="middle" x="653.5" y="-243" font-family="Helvetica,sans-Serif" font-size="10.00">append_char</text>
</a>
</g>
</g>
<!-- Node5&#45;&gt;Node6 -->
<g id="edge5_Node000005_Node000006" class="edge">
<title>Node5&#45;&gt;Node6</title>
<g id="a_edge5_Node000005_Node000006"><a xlink:title=" ">
<path fill="none" stroke="#63b8ff" d="M529.79,-199.04C544.92,-207.36 567.96,-219.34 589,-227.5 594.07,-229.47 599.45,-231.33 604.85,-233.05"/>
<polygon fill="#63b8ff" stroke="#63b8ff" points="603.92,-236.42 614.51,-235.99 605.96,-229.73 603.92,-236.42"/>
</a>
</g>
</g>
<!-- Node7 -->
<g id="Node000007" class="node">
<title>Node7</title>
<g id="a_Node000007"><a xlink:href="expand_8c.html#a6d4728fd992669e4bb35624d37972179" target="_top" xlink:title=" ">
<polygon fill="white" stroke="#666666" points="718,-218 589,-218 589,-199 718,-199 718,-218"/>
<text text-anchor="middle" x="653.5" y="-206" font-family="Helvetica,sans-Serif" font-size="10.00">double_quotes_expand</text>
</a>
</g>
</g>
<!-- Node5&#45;&gt;Node7 -->
<g id="edge6_Node000005_Node000007" class="edge">
<title>Node5&#45;&gt;Node7</title>
<g id="a_edge6_Node000005_Node000007"><a xlink:title=" ">
<path fill="none" stroke="#63b8ff" d="M553.35,-195C561.42,-196.09 570.13,-197.28 578.92,-198.48"/>
<polygon fill="#63b8ff" stroke="#63b8ff" points="578.47,-201.95 588.85,-199.83 579.41,-195.01 578.47,-201.95"/>
</a>
</g>
</g>
<!-- Node10 -->
<g id="Node000010" class="node">
<title>Node10</title>
<g id="a_Node000010"><a xlink:href="expand_8c.html#a0a337c3a6b2595b2b8c03e171c9559ba" target="_top" xlink:title=" ">
<polygon fill="white" stroke="#666666" points="958.5,-180 884.5,-180 884.5,-161 958.5,-161 958.5,-180"/>
<text text-anchor="middle" x="921.5" y="-168" font-family="Helvetica,sans-Serif" font-size="10.00">var_expand</text>
</a>
</g>
</g>
<!-- Node5&#45;&gt;Node10 -->
<g id="edge21_Node000005_Node000010" class="edge">
<title>Node5&#45;&gt;Node10</title>
<g id="a_edge21_Node000005_Node000010"><a xlink:title=" ">
<path fill="none" stroke="#63b8ff" d="M553.19,-187.63C629.19,-184.08 793.56,-176.42 874.11,-172.66"/>
<polygon fill="#63b8ff" stroke="#63b8ff" points="874.61,-176.14 884.44,-172.18 874.29,-169.15 874.61,-176.14"/>
</a>
</g>
</g>
<!-- Node20 -->
<g id="Node000020" class="node">
<title>Node20</title>
<g id="a_Node000020"><a xlink:href="expand_8c.html#ad45c8055962fa36940e109b04b7e562e" target="_top" xlink:title=" ">
<polygon fill="white" stroke="#666666" points="713.5,-142 593.5,-142 593.5,-123 713.5,-123 713.5,-142"/>
<text text-anchor="middle" x="653.5" y="-130" font-family="Helvetica,sans-Serif" font-size="10.00">single_quote_expand</text>
</a>
</g>
</g>
<!-- Node5&#45;&gt;Node20 -->
<g id="edge20_Node000005_Node000020" class="edge">
<title>Node5&#45;&gt;Node20</title>
<g id="a_edge20_Node000005_Node000020"><a xlink:title=" ">
<path fill="none" stroke="#63b8ff" d="M534.18,-179.98C549.36,-173.23 570.34,-164.07 589,-156.5 597.98,-152.86 607.75,-149.07 616.87,-145.62"/>
<polygon fill="#63b8ff" stroke="#63b8ff" points="618.31,-148.82 626.44,-142.03 615.85,-142.27 618.31,-148.82"/>
</a>
</g>
</g>
<!-- Node8 -->
<g id="Node000008" class="node">
<title>Node8</title>
<g id="a_Node000008"><a xlink:href="expand_8c.html#a4a10ac07faa08df14e0a438c5feace6b" target="_top" xlink:title=" ">
<polygon fill="white" stroke="#666666" points="842,-218 754,-218 754,-199 842,-199 842,-218"/>
<text text-anchor="middle" x="798" y="-206" font-family="Helvetica,sans-Serif" font-size="10.00">in_dquote_exp</text>
</a>
</g>
</g>
<!-- Node7&#45;&gt;Node8 -->
<g id="edge7_Node000007_Node000008" class="edge">
<title>Node7&#45;&gt;Node8</title>
<g id="a_edge7_Node000007_Node000008"><a xlink:title=" ">
<path fill="none" stroke="#63b8ff" d="M718.25,-208.5C726.69,-208.5 735.27,-208.5 743.52,-208.5"/>
<polygon fill="#63b8ff" stroke="#63b8ff" points="743.74,-212 753.74,-208.5 743.74,-205 743.74,-212"/>
</a>
</g>
</g>
<!-- Node9 -->
<g id="Node000009" class="node">
<title>Node9</title>
<g id="a_Node000009"><a xlink:href="expand_8c.html#a46b3549565fede625ad04072f2654aa4" target="_top" xlink:title=" ">
<polygon fill="white" stroke="#666666" points="965,-218 878,-218 878,-199 965,-199 965,-218"/>
<text text-anchor="middle" x="921.5" y="-206" font-family="Helvetica,sans-Serif" font-size="10.00">is_expandable</text>
</a>
</g>
</g>
<!-- Node8&#45;&gt;Node9 -->
<g id="edge8_Node000008_Node000009" class="edge">
<title>Node8&#45;&gt;Node9</title>
<g id="a_edge8_Node000008_Node000009"><a xlink:title=" ">
<path fill="none" stroke="#63b8ff" d="M842.18,-208.5C850.42,-208.5 859.14,-208.5 867.64,-208.5"/>
<polygon fill="#63b8ff" stroke="#63b8ff" points="867.87,-212 877.87,-208.5 867.87,-205 867.87,-212"/>
</a>
</g>
</g>
<!-- Node8&#45;&gt;Node10 -->
<g id="edge9_Node000008_Node000010" class="edge">
<title>Node8&#45;&gt;Node10</title>
<g id="a_edge9_Node000008_Node000010"><a xlink:title=" ">
<path fill="none" stroke="#63b8ff" d="M829.66,-198.91C844.91,-194.14 863.55,-188.31 879.97,-183.18"/>
<polygon fill="#63b8ff" stroke="#63b8ff" points="881.35,-186.41 889.85,-180.09 879.26,-179.73 881.35,-186.41"/>
</a>
</g>
</g>
<!-- Node10&#45;&gt;Node11 -->
<g id="edge10_Node000010_Node000011" class="edge">
<title>Node10&#45;&gt;Node11</title>
<g id="a_edge10_Node000010_Node000011"><a xlink:title=" ">
<path fill="none" stroke="#63b8ff" d="M946.69,-180.12C952.89,-183.05 959.4,-186.56 965,-190.5 983.51,-203.51 983.85,-211.74 1001,-226.5 1010.06,-234.3 1020.61,-242.26 1029.78,-248.86"/>
<polygon fill="#63b8ff" stroke="#63b8ff" points="1027.89,-251.81 1038.07,-254.73 1031.93,-246.09 1027.89,-251.81"/>
</a>
</g>
</g>
<!-- Node10&#45;&gt;Node12 -->
<g id="edge11_Node000010_Node000012" class="edge">
<title>Node10&#45;&gt;Node12</title>
<g id="a_edge11_Node000010_Node000012"><a xlink:title=" ">
<path fill="none" stroke="#63b8ff" d="M932.27,-160.58C954.31,-138.2 1008.09,-83.6 1035.63,-55.63"/>
<polygon fill="#63b8ff" stroke="#63b8ff" points="1038.45,-57.76 1042.97,-48.18 1033.46,-52.85 1038.45,-57.76"/>
</a>
</g>
</g>
<!-- Node16 -->
<g id="Node000016" class="node">
<title>Node16</title>
<g id="a_Node000016"><a xlink:href="expand_8c.html#ac1225d88933658edb6e51e4ed8f003c3" target="_top" xlink:title=" ">
<polygon fill="white" stroke="#666666" points="1090,-180 1017,-180 1017,-161 1090,-161 1090,-180"/>
<text text-anchor="middle" x="1053.5" y="-168" font-family="Helvetica,sans-Serif" font-size="10.00">val_append</text>
</a>
</g>
</g>
<!-- Node10&#45;&gt;Node16 -->
<g id="edge16_Node000010_Node000016" class="edge">
<title>Node10&#45;&gt;Node16</title>
<g id="a_edge16_Node000010_Node000016"><a xlink:title=" ">
<path fill="none" stroke="#63b8ff" d="M958.71,-170.5C973.63,-170.5 991.07,-170.5 1006.85,-170.5"/>
<polygon fill="#63b8ff" stroke="#63b8ff" points="1006.93,-174 1016.93,-170.5 1006.93,-167 1006.93,-174"/>
</a>
</g>
</g>
<!-- Node17 -->
<g id="Node000017" class="node">
<title>Node17</title>
<g id="a_Node000017"><a xlink:href="expand_8c.html#aa0106a12d15398cad9ca20f96f1eb374" target="_top" xlink:title=" ">
<polygon fill="white" stroke="#666666" points="1097.5,-143 1009.5,-143 1009.5,-124 1097.5,-124 1097.5,-143"/>
<text text-anchor="middle" x="1053.5" y="-131" font-family="Helvetica,sans-Serif" font-size="10.00">var_exp_brack</text>
</a>
</g>
</g>
<!-- Node10&#45;&gt;Node17 -->
<g id="edge17_Node000010_Node000017" class="edge">
<title>Node10&#45;&gt;Node17</title>
<g id="a_edge17_Node000010_Node000017"><a xlink:title=" ">
<path fill="none" stroke="#63b8ff" d="M955.98,-160.97C972.08,-156.39 991.58,-150.84 1008.83,-145.93"/>
<polygon fill="#63b8ff" stroke="#63b8ff" points="1010.02,-149.23 1018.68,-143.12 1008.11,-142.5 1010.02,-149.23"/>
</a>
</g>
</g>
<!-- Node18 -->
<g id="Node000018" class="node">
<title>Node18</title>
<g id="a_Node000018"><a xlink:href="expand_8c.html#a5785fb584914d075e9a5d933e903823c" target="_top" xlink:title=" ">
<polygon fill="white" stroke="#666666" points="1106,-217 1001,-217 1001,-198 1106,-198 1106,-217"/>
<text text-anchor="middle" x="1053.5" y="-205" font-family="Helvetica,sans-Serif" font-size="10.00">var_exp_no_brack</text>
</a>
</g>
</g>
<!-- Node10&#45;&gt;Node18 -->
<g id="edge18_Node000010_Node000018" class="edge">
<title>Node10&#45;&gt;Node18</title>
<g id="a_edge18_Node000010_Node000018"><a xlink:title=" ">
<path fill="none" stroke="#63b8ff" d="M955.98,-180.03C972.08,-184.61 991.58,-190.16 1008.83,-195.07"/>
<polygon fill="#63b8ff" stroke="#63b8ff" points="1008.11,-198.5 1018.68,-197.88 1010.02,-191.77 1008.11,-198.5"/>
</a>
</g>
</g>
<!-- Node12&#45;&gt;Node12 -->
<g id="edge12_Node000012_Node000012" class="edge">
<title>Node12&#45;&gt;Node12</title>
<g id="a_edge12_Node000012_Node000012"><a xlink:title=" ">
<path fill="none" stroke="#63b8ff" d="M1035.93,-48.08C1027.38,-56.73 1033.24,-66 1053.5,-66 1066.16,-66 1073.2,-62.38 1074.61,-57.55"/>
<polygon fill="#63b8ff" stroke="#63b8ff" points="1077.85,-56.22 1071.07,-48.08 1071.29,-58.68 1077.85,-56.22"/>
</a>
</g>
</g>
<!-- Node12&#45;&gt;Node13 -->
<g id="edge13_Node000012_Node000013" class="edge">
<title>Node12&#45;&gt;Node13</title>
<g id="a_edge13_Node000012_Node000013"><a xlink:title=" ">
<path fill="none" stroke="#63b8ff" d="M1077.47,-48.01C1095.34,-55.41 1120.24,-65.72 1139.4,-73.66"/>
<polygon fill="#63b8ff" stroke="#63b8ff" points="1138.26,-76.97 1148.83,-77.56 1140.93,-70.5 1138.26,-76.97"/>
</a>
</g>
</g>
<!-- Node14 -->
<g id="Node000014" class="node">
<title>Node14</title>
<g id="a_Node000014"><a xlink:href="hashmap_8c.html#a5b2c78a0a08d606dfbf21fe636373e6e" target="_top" xlink:title=" ">
<polygon fill="white" stroke="#666666" points="1194.5,-48 1143.5,-48 1143.5,-29 1194.5,-29 1194.5,-48"/>
<text text-anchor="middle" x="1169" y="-36" font-family="Helvetica,sans-Serif" font-size="10.00">special</text>
</a>
</g>
</g>
<!-- Node12&#45;&gt;Node14 -->
<g id="edge14_Node000012_Node000014" class="edge">
<title>Node12&#45;&gt;Node14</title>
<g id="a_edge14_Node000012_Node000014"><a xlink:title=" ">
<path fill="none" stroke="#63b8ff" d="M1080.25,-38.5C1095.85,-38.5 1115.96,-38.5 1132.99,-38.5"/>
<polygon fill="#63b8ff" stroke="#63b8ff" points="1133.13,-42 1143.13,-38.5 1133.13,-35 1133.13,-42"/>
</a>
</g>
</g>
<!-- Node15 -->
<g id="Node000015" class="node">
<title>Node15</title>
<g id="a_Node000015"><a xlink:href="itoa_8c.html#a43f392ec16afbe6cdb1ee6d1f1347f99" target="_top" xlink:title="Convert int to string.">
<polygon fill="white" stroke="#666666" points="1267,-48 1232,-48 1232,-29 1267,-29 1267,-48"/>
<text text-anchor="middle" x="1249.5" y="-36" font-family="Helvetica,sans-Serif" font-size="10.00">itoa</text>
</a>
</g>
</g>
<!-- Node14&#45;&gt;Node15 -->
<g id="edge15_Node000014_Node000015" class="edge">
<title>Node14&#45;&gt;Node15</title>
<g id="a_edge15_Node000014_Node000015"><a xlink:title=" ">
<path fill="none" stroke="#63b8ff" d="M1194.84,-38.5C1203.4,-38.5 1213.02,-38.5 1221.72,-38.5"/>
<polygon fill="#63b8ff" stroke="#63b8ff" points="1221.76,-42 1231.76,-38.5 1221.76,-35 1221.76,-42"/>
</a>
</g>
</g>
<!-- Node19 -->
<g id="Node000019" class="node">
<title>Node19</title>
<g id="a_Node000019"><a xlink:href="expand_8c.html#a66cc7be396f0ef502a888b56eee2f4bf" target="_top" xlink:title=" ">
<polygon fill="white" stroke="#666666" points="1196,-217 1142,-217 1142,-198 1196,-198 1196,-217"/>
<text text-anchor="middle" x="1169" y="-205" font-family="Helvetica,sans-Serif" font-size="10.00">is_word</text>
</a>
</g>
</g>
<!-- Node18&#45;&gt;Node19 -->
<g id="edge19_Node000018_Node000019" class="edge">
<title>Node18&#45;&gt;Node19</title>
<g id="a_edge19_Node000018_Node000019"><a xlink:title=" ">
<path fill="none" stroke="#63b8ff" d="M1106.27,-207.5C1114.8,-207.5 1123.49,-207.5 1131.55,-207.5"/>
<polygon fill="#63b8ff" stroke="#63b8ff" points="1131.72,-211 1141.72,-207.5 1131.72,-204 1131.72,-211"/>
</a>
</g>
</g>
</g>
</svg>
