<?xml version="1.0" encoding="UTF-8" standalone="no"?>
<!DOCTYPE svg PUBLIC "-//W3C//DTD SVG 1.1//EN"
 "http://www.w3.org/Graphics/SVG/1.1/DTD/svg11.dtd">
<!-- Generated by graphviz version 2.43.0 (0)
 -->
<!-- Title: get_var Pages: 1 -->
<svg width="1924pt" height="538pt"
 viewBox="0.00 0.00 1924.00 538.00" xmlns="http://www.w3.org/2000/svg" xmlns:xlink="http://www.w3.org/1999/xlink">
<g id="graph0" class="graph" transform="scale(1 1) rotate(0) translate(4 534)">
<title>get_var</title>
<!-- Node1 -->
<g id="Node000001" class="node">
<title>Node1</title>
<g id="a_Node000001"><a xlink:title="Get the variable from the dictionnary.">
<polygon fill="#999999" stroke="#666666" points="1916,-444.5 1863,-444.5 1863,-425.5 1916,-425.5 1916,-444.5"/>
<text text-anchor="middle" x="1889.5" y="-432.5" font-family="Helvetica,sans-Serif" font-size="10.00">get_var</text>
</a>
</g>
</g>
<!-- Node1&#45;&gt;Node1 -->
<g id="edge35_Node000001_Node000001" class="edge">
<title>Node1&#45;&gt;Node1</title>
<g id="a_edge35_Node000001_Node000001"><a xlink:title=" ">
<path fill="none" stroke="#63b8ff" d="M1907.55,-454.41C1906.13,-459.06 1900.11,-462.5 1889.5,-462.5 1872.08,-462.5 1867.05,-453.23 1874.4,-444.58"/>
<polygon fill="#63b8ff" stroke="#63b8ff" points="1910.83,-453.16 1904.6,-444.58 1904.12,-455.17 1910.83,-453.16"/>
</a>
</g>
</g>
<!-- Node2 -->
<g id="Node000002" class="node">
<title>Node2</title>
<g id="a_Node000002"><a xlink:href="dot_8c.html#a713938d3c6ee343132c429642048bcf6" target="_top" xlink:title="Execute the dot builtin cmd.">
<polygon fill="white" stroke="#666666" points="834.5,-463.5 790.5,-463.5 790.5,-444.5 834.5,-444.5 834.5,-463.5"/>
<text text-anchor="middle" x="812.5" y="-451.5" font-family="Helvetica,sans-Serif" font-size="10.00">dot_b</text>
</a>
</g>
</g>
<!-- Node1&#45;&gt;Node2 -->
<g id="edge1_Node000001_Node000002" class="edge">
<title>Node1&#45;&gt;Node2</title>
<g id="a_edge1_Node000001_Node000002"><a xlink:title=" ">
<path fill="none" stroke="#63b8ff" d="M1857.96,-448.49C1816.96,-465.34 1741.46,-492 1674,-492 1674,-492 1674,-492 1071,-492 982.43,-492 878.54,-469.73 834.71,-459.28"/>
<polygon fill="#63b8ff" stroke="#63b8ff" points="1859.51,-451.64 1867.38,-444.54 1856.8,-445.18 1859.51,-451.64"/>
</a>
</g>
</g>
<!-- Node14 -->
<g id="Node000014" class="node">
<title>Node14</title>
<g id="a_Node000014"><a xlink:href="exec_8c.html#a23babf893bbcd2f6126698a1a19b169f" target="_top" xlink:title="Execute funct with given arguments.">
<polygon fill="white" stroke="#666666" points="202,-497.5 137,-497.5 137,-478.5 202,-478.5 202,-497.5"/>
<text text-anchor="middle" x="169.5" y="-485.5" font-family="Helvetica,sans-Serif" font-size="10.00">exec_func</text>
</a>
</g>
</g>
<!-- Node1&#45;&gt;Node14 -->
<g id="edge29_Node000001_Node000014" class="edge">
<title>Node1&#45;&gt;Node14</title>
<g id="a_edge29_Node000001_Node000014"><a xlink:title=" ">
<path fill="none" stroke="#63b8ff" d="M1871.67,-451.8C1860,-462.62 1843.62,-476.25 1827,-485 1764.27,-518 1744.88,-530 1674,-530 1674,-530 1674,-530 387.5,-530 319.58,-530 241.85,-509.92 200.34,-497.53"/>
<polygon fill="#63b8ff" stroke="#63b8ff" points="1874.14,-454.29 1878.95,-444.85 1869.3,-449.23 1874.14,-454.29"/>
</a>
</g>
</g>
<!-- Node19 -->
<g id="Node000019" class="node">
<title>Node19</title>
<g id="a_Node000019"><a xlink:href="export_8c.html#a8b18baf315f49dfc9d40e9a05a8eaa24" target="_top" xlink:title="Execute export builtin cmd.">
<polygon fill="white" stroke="#666666" points="983,-463.5 924,-463.5 924,-444.5 983,-444.5 983,-463.5"/>
<text text-anchor="middle" x="953.5" y="-451.5" font-family="Helvetica,sans-Serif" font-size="10.00">export_b</text>
</a>
</g>
</g>
<!-- Node1&#45;&gt;Node19 -->
<g id="edge30_Node000001_Node000019" class="edge">
<title>Node1&#45;&gt;Node19</title>
<g id="a_edge30_Node000001_Node000019"><a xlink:title=" ">
<path fill="none" stroke="#63b8ff" d="M1852.68,-440.12C1810.17,-445.75 1737.07,-454 1674,-454 1674,-454 1674,-454 1177.5,-454 1107.62,-454 1025.42,-454 983.01,-454"/>
<polygon fill="#63b8ff" stroke="#63b8ff" points="1853.37,-443.56 1862.81,-438.75 1852.43,-436.62 1853.37,-443.56"/>
</a>
</g>
</g>
<!-- Node20 -->
<g id="Node000020" class="node">
<title>Node20</title>
<g id="a_Node000020"><a xlink:href="cd_8c.html#a5da9da23a18f984a482a5dec3bf3b37f" target="_top" xlink:title="Find the target path for cd command.">
<polygon fill="white" stroke="#666666" points="1704,-425.5 1642,-425.5 1642,-406.5 1704,-406.5 1704,-425.5"/>
<text text-anchor="middle" x="1673" y="-413.5" font-family="Helvetica,sans-Serif" font-size="10.00">find_path</text>
</a>
</g>
</g>
<!-- Node1&#45;&gt;Node20 -->
<g id="edge32_Node000001_Node000020" class="edge">
<title>Node1&#45;&gt;Node20</title>
<g id="a_edge32_Node000001_Node000020"><a xlink:title=" ">
<path fill="none" stroke="#63b8ff" d="M1852.64,-431.82C1811.02,-428.14 1743.1,-422.12 1704.1,-418.67"/>
<polygon fill="#63b8ff" stroke="#63b8ff" points="1852.36,-435.31 1862.63,-432.71 1852.97,-428.34 1852.36,-435.31"/>
</a>
</g>
</g>
<!-- Node22 -->
<g id="Node000022" class="node">
<title>Node22</title>
<g id="a_Node000022"><a xlink:href="cd_8c.html#a9eb5212e3fb105823c28e343ce5ca946" target="_top" xlink:title="Update PWD and OLDPWD vars after cd.">
<polygon fill="white" stroke="#666666" points="991.5,-387.5 915.5,-387.5 915.5,-368.5 991.5,-368.5 991.5,-387.5"/>
<text text-anchor="middle" x="953.5" y="-375.5" font-family="Helvetica,sans-Serif" font-size="10.00">update_pwd</text>
</a>
</g>
</g>
<!-- Node1&#45;&gt;Node22 -->
<g id="edge36_Node000001_Node000022" class="edge">
<title>Node1&#45;&gt;Node22</title>
<g id="a_edge36_Node000001_Node000022"><a xlink:title=" ">
<path fill="none" stroke="#63b8ff" d="M1857.96,-421.51C1816.96,-404.66 1741.46,-378 1674,-378 1674,-378 1674,-378 1177.5,-378 1112.07,-378 1035.84,-378 991.59,-378"/>
<polygon fill="#63b8ff" stroke="#63b8ff" points="1856.8,-424.82 1867.38,-425.46 1859.51,-418.36 1856.8,-424.82"/>
</a>
</g>
</g>
<!-- Node23 -->
<g id="Node000023" class="node">
<title>Node23</title>
<g id="a_Node000023"><a xlink:href="expand_8c.html#a0a337c3a6b2595b2b8c03e171c9559ba" target="_top" xlink:title=" ">
<polygon fill="white" stroke="#666666" points="1827,-311.5 1753,-311.5 1753,-292.5 1827,-292.5 1827,-311.5"/>
<text text-anchor="middle" x="1790" y="-299.5" font-family="Helvetica,sans-Serif" font-size="10.00">var_expand</text>
</a>
</g>
</g>
<!-- Node1&#45;&gt;Node23 -->
<g id="edge38_Node000001_Node000023" class="edge">
<title>Node1&#45;&gt;Node23</title>
<g id="a_edge38_Node000001_Node000023"><a xlink:title=" ">
<path fill="none" stroke="#63b8ff" d="M1875.46,-417.21C1854.63,-388.8 1814.56,-334.14 1798.21,-311.84"/>
<polygon fill="#63b8ff" stroke="#63b8ff" points="1872.75,-419.44 1881.49,-425.43 1878.4,-415.3 1872.75,-419.44"/>
</a>
</g>
</g>
<!-- Node3 -->
<g id="Node000003" class="node">
<title>Node3</title>
<g id="a_Node000003"><a xlink:href="exec_8c.html#abaeb177587c7eec6a064b35bb8399cae" target="_top" xlink:title="Execute builtin cmd with given args.">
<polygon fill="white" stroke="#666666" points="726,-387.5 651,-387.5 651,-368.5 726,-368.5 726,-387.5"/>
<text text-anchor="middle" x="688.5" y="-375.5" font-family="Helvetica,sans-Serif" font-size="10.00">exec_builtin</text>
</a>
</g>
</g>
<!-- Node2&#45;&gt;Node3 -->
<g id="edge2_Node000002_Node000003" class="edge">
<title>Node2&#45;&gt;Node3</title>
<g id="a_edge2_Node000002_Node000003"><a xlink:title=" ">
<path fill="none" stroke="#63b8ff" d="M781.09,-440.5C774.65,-437.3 767.99,-433.73 762,-430 744.79,-419.3 742.48,-413.8 726,-402 719.09,-397.06 711.24,-391.84 704.6,-387.54"/>
<polygon fill="#63b8ff" stroke="#63b8ff" points="779.74,-443.73 790.27,-444.9 782.76,-437.42 779.74,-443.73"/>
</a>
</g>
</g>
<!-- Node4 -->
<g id="Node000004" class="node">
<title>Node4</title>
<g id="a_Node000004"><a xlink:href="exec_8c.html#a287d81b4658832f192750310e2925917" target="_top" xlink:title="Execute the builtin command with given args.">
<polygon fill="white" stroke="#666666" points="615,-387.5 565,-387.5 565,-368.5 615,-368.5 615,-387.5"/>
<text text-anchor="middle" x="590" y="-375.5" font-family="Helvetica,sans-Serif" font-size="10.00">exec_b</text>
</a>
</g>
</g>
<!-- Node3&#45;&gt;Node4 -->
<g id="edge3_Node000003_Node000004" class="edge">
<title>Node3&#45;&gt;Node4</title>
<g id="a_edge3_Node000003_Node000004"><a xlink:title=" ">
<path fill="none" stroke="#63b8ff" d="M640.51,-378C631.71,-378 622.86,-378 615.12,-378"/>
<polygon fill="#63b8ff" stroke="#63b8ff" points="640.74,-381.5 650.74,-378 640.74,-374.5 640.74,-381.5"/>
</a>
</g>
</g>
<!-- Node5 -->
<g id="Node000005" class="node">
<title>Node5</title>
<g id="a_Node000005"><a xlink:href="exec_8c.html#ae65edaa99b26b49d60c451157d38b34a" target="_top" xlink:title="Execute les commandes avec les args donnes.">
<polygon fill="white" stroke="#666666" points="529,-330.5 464,-330.5 464,-311.5 529,-311.5 529,-330.5"/>
<text text-anchor="middle" x="496.5" y="-318.5" font-family="Helvetica,sans-Serif" font-size="10.00">exec_cmd</text>
</a>
</g>
</g>
<!-- Node4&#45;&gt;Node5 -->
<g id="edge4_Node000004_Node000005" class="edge">
<title>Node4&#45;&gt;Node5</title>
<g id="a_edge4_Node000004_Node000005"><a xlink:title=" ">
<path fill="none" stroke="#63b8ff" d="M564.89,-362.98C548.38,-352.7 527,-339.38 512.79,-330.53"/>
<polygon fill="#63b8ff" stroke="#63b8ff" points="563.14,-366.01 573.48,-368.33 566.84,-360.07 563.14,-366.01"/>
</a>
</g>
</g>
<!-- Node6 -->
<g id="Node000006" class="node">
<title>Node6</title>
<g id="a_Node000006"><a xlink:href="ast__run_8c.html#aeb6878a59c6907e5669fc3cc428913d9" target="_top" xlink:title=" ">
<polygon fill="white" stroke="#666666" points="428,-320.5 349,-320.5 349,-301.5 428,-301.5 428,-320.5"/>
<text text-anchor="middle" x="388.5" y="-308.5" font-family="Helvetica,sans-Serif" font-size="10.00">ast_run_cmd</text>
</a>
</g>
</g>
<!-- Node5&#45;&gt;Node6 -->
<g id="edge5_Node000005_Node000006" class="edge">
<title>Node5&#45;&gt;Node6</title>
<g id="a_edge5_Node000005_Node000006"><a xlink:title=" ">
<path fill="none" stroke="#63b8ff" d="M453.92,-317.08C445.45,-316.28 436.58,-315.44 428.21,-314.65"/>
<polygon fill="#63b8ff" stroke="#63b8ff" points="453.7,-320.57 463.98,-318.03 454.36,-313.6 453.7,-320.57"/>
</a>
</g>
</g>
<!-- Node7 -->
<g id="Node000007" class="node">
<title>Node7</title>
<g id="a_Node000007"><a xlink:href="ast_8c.html#a572345b2707780bbbc5bbaacdca9c372" target="_top" xlink:title=" ">
<polygon fill="white" stroke="#666666" points="313,-309.5 260,-309.5 260,-290.5 313,-290.5 313,-309.5"/>
<text text-anchor="middle" x="286.5" y="-297.5" font-family="Helvetica,sans-Serif" font-size="10.00">run_ast</text>
</a>
</g>
</g>
<!-- Node6&#45;&gt;Node7 -->
<g id="edge6_Node000006_Node000007" class="edge">
<title>Node6&#45;&gt;Node7</title>
<g id="a_edge6_Node000006_Node000007"><a xlink:title=" ">
<path fill="none" stroke="#63b8ff" d="M338.86,-305.65C329.95,-304.67 320.99,-303.68 313.1,-302.82"/>
<polygon fill="#63b8ff" stroke="#63b8ff" points="338.51,-309.13 348.84,-306.75 339.28,-302.17 338.51,-309.13"/>
</a>
</g>
</g>
<!-- Node8 -->
<g id="Node000008" class="node">
<title>Node8</title>
<g id="a_Node000008"><a xlink:href="ast__run_8c.html#a8a01fec616135007fc5b3968a101901b" target="_top" xlink:title=" ">
<polygon fill="white" stroke="#666666" points="215,-420.5 124,-420.5 124,-401.5 215,-401.5 215,-420.5"/>
<text text-anchor="middle" x="169.5" y="-408.5" font-family="Helvetica,sans-Serif" font-size="10.00">ast_run_and_or</text>
</a>
</g>
</g>
<!-- Node7&#45;&gt;Node8 -->
<g id="edge7_Node000007_Node000008" class="edge">
<title>Node7&#45;&gt;Node8</title>
<g id="a_edge7_Node000007_Node000008"><a xlink:title=" ">
<path fill="none" stroke="#63b8ff" d="M274.24,-318.71C263.95,-337.79 246.87,-366.42 224,-384 212.66,-392.72 196.85,-397.35 185.36,-401.39"/>
<polygon fill="#63b8ff" stroke="#63b8ff" points="277.41,-320.19 278.99,-309.71 271.22,-316.92 277.41,-320.19"/>
</a>
</g>
</g>
<!-- Node9 -->
<g id="Node000009" class="node">
<title>Node9</title>
<g id="a_Node000009"><a xlink:href="ast__run_8c.html#a9d83d4834a61ffe21eb77838d70ae173" target="_top" xlink:title=" ">
<polygon fill="white" stroke="#666666" points="205,-67.5 134,-67.5 134,-48.5 205,-48.5 205,-67.5"/>
<text text-anchor="middle" x="169.5" y="-55.5" font-family="Helvetica,sans-Serif" font-size="10.00">ast_run_for</text>
</a>
</g>
</g>
<!-- Node7&#45;&gt;Node9 -->
<g id="edge9_Node000007_Node000009" class="edge">
<title>Node7&#45;&gt;Node9</title>
<g id="a_edge9_Node000007_Node000009"><a xlink:title=" ">
<path fill="none" stroke="#63b8ff" d="M284.34,-280.01C280.91,-239.26 268.14,-146.71 224,-86 218.75,-78.78 211.65,-72.5 204.34,-67.52"/>
<polygon fill="#63b8ff" stroke="#63b8ff" points="280.85,-280.35 285.07,-290.07 287.83,-279.84 280.85,-280.35"/>
</a>
</g>
</g>
<!-- Node10 -->
<g id="Node000010" class="node">
<title>Node10</title>
<g id="a_Node000010"><a xlink:href="ast__run_8c.html#a0a7138b1f2608ea36211c9b78988c248" target="_top" xlink:title=" ">
<polygon fill="white" stroke="#666666" points="202,-383.5 137,-383.5 137,-364.5 202,-364.5 202,-383.5"/>
<text text-anchor="middle" x="169.5" y="-371.5" font-family="Helvetica,sans-Serif" font-size="10.00">ast_run_if</text>
</a>
</g>
</g>
<!-- Node7&#45;&gt;Node10 -->
<g id="edge11_Node000007_Node000010" class="edge">
<title>Node7&#45;&gt;Node10</title>
<g id="a_edge11_Node000007_Node000010"><a xlink:title=" ">
<path fill="none" stroke="#63b8ff" d="M262.9,-316.6C252,-326.58 238.22,-338.64 224,-347 210.82,-354.75 193.84,-359.74 182.58,-364.49"/>
<polygon fill="#63b8ff" stroke="#63b8ff" points="265.32,-319.13 270.29,-309.78 260.57,-313.99 265.32,-319.13"/>
</a>
</g>
</g>
<!-- Node11 -->
<g id="Node000011" class="node">
<title>Node11</title>
<g id="a_Node000011"><a xlink:href="ast__run_8c.html#ae25cd3ced8abafd76110dba8852a6b87" target="_top" xlink:title=" ">
<polygon fill="white" stroke="#666666" points="206,-328.5 133,-328.5 133,-309.5 206,-309.5 206,-328.5"/>
<text text-anchor="middle" x="169.5" y="-316.5" font-family="Helvetica,sans-Serif" font-size="10.00">ast_run_list</text>
</a>
</g>
</g>
<!-- Node7&#45;&gt;Node11 -->
<g id="edge13_Node000007_Node000011" class="edge">
<title>Node7&#45;&gt;Node11</title>
<g id="a_edge13_Node000007_Node000011"><a xlink:title=" ">
<path fill="none" stroke="#63b8ff" d="M249.82,-299.6C231.79,-301.79 210.4,-305.56 194.38,-309.46"/>
<polygon fill="#63b8ff" stroke="#63b8ff" points="250.41,-303.05 259.98,-298.5 249.66,-296.09 250.41,-303.05"/>
</a>
</g>
</g>
<!-- Node12 -->
<g id="Node000012" class="node">
<title>Node12</title>
<g id="a_Node000012"><a xlink:href="ast__run_8c.html#a536f37ba9bffcd2099fef668656181e0" target="_top" xlink:title=" ">
<polygon fill="white" stroke="#666666" points="209,-291.5 130,-291.5 130,-272.5 209,-272.5 209,-291.5"/>
<text text-anchor="middle" x="169.5" y="-279.5" font-family="Helvetica,sans-Serif" font-size="10.00">ast_run_loop</text>
</a>
</g>
</g>
<!-- Node7&#45;&gt;Node12 -->
<g id="edge16_Node000007_Node000012" class="edge">
<title>Node7&#45;&gt;Node12</title>
<g id="a_edge16_Node000007_Node000012"><a xlink:title=" ">
<path fill="none" stroke="#63b8ff" d="M250.77,-288.31C237.64,-285.65 222.62,-283.25 209.16,-281.63"/>
<polygon fill="#63b8ff" stroke="#63b8ff" points="250.32,-291.79 260.83,-290.48 251.79,-284.95 250.32,-291.79"/>
</a>
</g>
</g>
<!-- Node13 -->
<g id="Node000013" class="node">
<title>Node13</title>
<g id="a_Node000013"><a xlink:href="ast__run_8c.html#aa3e6a973e744d748ee415840596beb53" target="_top" xlink:title=" ">
<polygon fill="white" stroke="#666666" points="224,-254.5 115,-254.5 115,-235.5 224,-235.5 224,-254.5"/>
<text text-anchor="middle" x="169.5" y="-242.5" font-family="Helvetica,sans-Serif" font-size="10.00">ast_run_shell_redir</text>
</a>
</g>
</g>
<!-- Node7&#45;&gt;Node13 -->
<g id="edge18_Node000007_Node000013" class="edge">
<title>Node7&#45;&gt;Node13</title>
<g id="a_edge18_Node000007_Node000013"><a xlink:title=" ">
<path fill="none" stroke="#63b8ff" d="M271.7,-283.38C259.66,-273.53 241.5,-262.15 224.5,-254.23"/>
<polygon fill="#63b8ff" stroke="#63b8ff" points="269.51,-286.11 279.29,-290.2 274.2,-280.91 269.51,-286.11"/>
</a>
</g>
</g>
<!-- Node7&#45;&gt;Node14 -->
<g id="edge20_Node000007_Node000014" class="edge">
<title>Node7&#45;&gt;Node14</title>
<g id="a_edge20_Node000007_Node000014"><a xlink:title=" ">
<path fill="none" stroke="#63b8ff" d="M283.44,-319.93C278.86,-354.38 264.78,-425.35 224,-467 218,-473.13 209.99,-477.51 202,-480.63"/>
<polygon fill="#63b8ff" stroke="#63b8ff" points="286.94,-320.09 284.65,-309.75 279.99,-319.26 286.94,-320.09"/>
</a>
</g>
</g>
<!-- Node15 -->
<g id="Node000015" class="node">
<title>Node15</title>
<g id="a_Node000015"><a xlink:href="exec_8c.html#ab743cb88e12e9b922050925fd2075e36" target="_top" xlink:title="Execute a pipeline of commands.">
<polygon fill="white" stroke="#666666" points="202,-160.5 137,-160.5 137,-141.5 202,-141.5 202,-160.5"/>
<text text-anchor="middle" x="169.5" y="-148.5" font-family="Helvetica,sans-Serif" font-size="10.00">exec_pipe</text>
</a>
</g>
</g>
<!-- Node7&#45;&gt;Node15 -->
<g id="edge22_Node000007_Node000015" class="edge">
<title>Node7&#45;&gt;Node15</title>
<g id="a_edge22_Node000007_Node000015"><a xlink:title=" ">
<path fill="none" stroke="#63b8ff" d="M277.41,-281.2C267.13,-258.67 247.83,-220.54 224,-193 212.87,-180.14 197.34,-168.46 185.87,-160.7"/>
<polygon fill="#63b8ff" stroke="#63b8ff" points="274.22,-282.64 281.48,-290.35 280.61,-279.8 274.22,-282.64"/>
</a>
</g>
</g>
<!-- Node17 -->
<g id="Node000017" class="node">
<title>Node17</title>
<g id="a_Node000017"><a xlink:href="42sh_8c.html#a3c04138a5bfe5d72780bb7e82a18e627" target="_top" xlink:title=" ">
<polygon fill="white" stroke="#666666" points="190,-123.5 149,-123.5 149,-104.5 190,-104.5 190,-123.5"/>
<text text-anchor="middle" x="169.5" y="-111.5" font-family="Helvetica,sans-Serif" font-size="10.00">main</text>
</a>
</g>
</g>
<!-- Node7&#45;&gt;Node17 -->
<g id="edge26_Node000007_Node000017" class="edge">
<title>Node7&#45;&gt;Node17</title>
<g id="a_edge26_Node000007_Node000017"><a xlink:title=" ">
<path fill="none" stroke="#63b8ff" d="M283.75,-280.23C279.61,-245.44 266.18,-173.08 224,-132 214.94,-123.18 201.43,-118.68 190.25,-116.38"/>
<polygon fill="#63b8ff" stroke="#63b8ff" points="280.3,-280.91 284.82,-290.49 287.26,-280.18 280.3,-280.91"/>
</a>
</g>
</g>
<!-- Node18 -->
<g id="Node000018" class="node">
<title>Node18</title>
<g id="a_Node000018"><a xlink:href="dot_8c.html#a17477ee2b0f1b8b9306566c990d15b35" target="_top" xlink:title="Main loop of dot builtin.">
<polygon fill="white" stroke="#666666" points="203.5,-457.5 135.5,-457.5 135.5,-438.5 203.5,-438.5 203.5,-457.5"/>
<text text-anchor="middle" x="169.5" y="-445.5" font-family="Helvetica,sans-Serif" font-size="10.00">main_loop</text>
</a>
</g>
</g>
<!-- Node7&#45;&gt;Node18 -->
<g id="edge27_Node000007_Node000018" class="edge">
<title>Node7&#45;&gt;Node18</title>
<g id="a_edge27_Node000007_Node000018"><a xlink:title=" ">
<path fill="none" stroke="#63b8ff" d="M281.35,-319.63C274.36,-347.95 257.6,-400.12 224,-430 218.21,-435.14 210.9,-438.83 203.56,-441.46"/>
<polygon fill="#63b8ff" stroke="#63b8ff" points="284.8,-320.25 283.63,-309.72 277.98,-318.68 284.8,-320.25"/>
</a>
</g>
</g>
<!-- Node8&#45;&gt;Node7 -->
<g id="edge8_Node000008_Node000007" class="edge">
<title>Node8&#45;&gt;Node7</title>
<g id="a_edge8_Node000008_Node000007"><a xlink:title=" ">
<path fill="none" stroke="#63b8ff" d="M223.74,-402.2C223.83,-402.13 223.92,-402.07 224,-402 256.22,-377.22 276.96,-330.51 283.38,-309.56"/>
<polygon fill="#63b8ff" stroke="#63b8ff" points="221.8,-399.28 215.19,-407.57 225.52,-405.21 221.8,-399.28"/>
</a>
</g>
</g>
<!-- Node9&#45;&gt;Node7 -->
<g id="edge10_Node000009_Node000007" class="edge">
<title>Node9&#45;&gt;Node7</title>
<g id="a_edge10_Node000009_Node000007"><a xlink:title=" ">
<path fill="none" stroke="#63b8ff" d="M187.66,-73.48C199.48,-81.28 214.67,-91.17 224,-104 268.57,-165.31 281.16,-259.08 284.44,-290.1"/>
<polygon fill="#63b8ff" stroke="#63b8ff" points="189.32,-70.38 179.08,-67.66 185.39,-76.17 189.32,-70.38"/>
</a>
</g>
</g>
<!-- Node10&#45;&gt;Node7 -->
<g id="edge12_Node000010_Node000007" class="edge">
<title>Node10&#45;&gt;Node7</title>
<g id="a_edge12_Node000010_Node000007"><a xlink:title=" ">
<path fill="none" stroke="#63b8ff" d="M211.52,-371.12C215.85,-369.35 220.09,-367.3 224,-365 248.65,-350.51 271.96,-324.93 281.26,-309.93"/>
<polygon fill="#63b8ff" stroke="#63b8ff" points="210.24,-367.87 202.01,-374.54 212.6,-374.46 210.24,-367.87"/>
</a>
</g>
</g>
<!-- Node11&#45;&gt;Node7 -->
<g id="edge15_Node000011_Node000007" class="edge">
<title>Node11&#45;&gt;Node7</title>
<g id="a_edge15_Node000011_Node000007"><a xlink:title=" ">
<path fill="none" stroke="#63b8ff" d="M216.11,-318.08C231.7,-315.85 248.5,-312.74 261.67,-309.53"/>
<polygon fill="#63b8ff" stroke="#63b8ff" points="215.55,-314.63 206.09,-319.41 216.47,-321.57 215.55,-314.63"/>
</a>
</g>
</g>
<!-- Node11&#45;&gt;Node11 -->
<g id="edge14_Node000011_Node000011" class="edge">
<title>Node11&#45;&gt;Node11</title>
<g id="a_edge14_Node000011_Node000011"><a xlink:title=" ">
<path fill="none" stroke="#63b8ff" d="M190.98,-338.05C189.55,-342.88 182.39,-346.5 169.5,-346.5 148.88,-346.5 142.92,-337.23 151.62,-328.58"/>
<polygon fill="#63b8ff" stroke="#63b8ff" points="194.2,-336.69 187.38,-328.58 187.66,-339.17 194.2,-336.69"/>
</a>
</g>
</g>
<!-- Node12&#45;&gt;Node7 -->
<g id="edge17_Node000012_Node000007" class="edge">
<title>Node12&#45;&gt;Node7</title>
<g id="a_edge17_Node000012_Node000007"><a xlink:title=" ">
<path fill="none" stroke="#63b8ff" d="M205.09,-293.66C222.74,-297.24 243.83,-300.36 259.98,-301.73"/>
<polygon fill="#63b8ff" stroke="#63b8ff" points="205.68,-290.21 195.16,-291.52 204.2,-297.05 205.68,-290.21"/>
</a>
</g>
</g>
<!-- Node13&#45;&gt;Node7 -->
<g id="edge19_Node000013_Node000007" class="edge">
<title>Node13&#45;&gt;Node7</title>
<g id="a_edge19_Node000013_Node000007"><a xlink:title=" ">
<path fill="none" stroke="#63b8ff" d="M190.34,-258.58C200.59,-262.69 213.19,-267 224,-272 236.21,-277.65 249.07,-285.12 259.85,-291.19"/>
<polygon fill="#63b8ff" stroke="#63b8ff" points="191.58,-255.31 181.01,-254.52 188.78,-261.73 191.58,-255.31"/>
</a>
</g>
</g>
<!-- Node14&#45;&gt;Node5 -->
<g id="edge21_Node000014_Node000005" class="edge">
<title>Node14&#45;&gt;Node5</title>
<g id="a_edge21_Node000014_Node000005"><a xlink:title=" ">
<path fill="none" stroke="#63b8ff" d="M212.36,-486.78C241.62,-484.62 281.02,-479.05 313,-465 389.85,-431.23 462.3,-357.27 486.76,-330.73"/>
<polygon fill="#63b8ff" stroke="#63b8ff" points="211.83,-483.3 202.07,-487.43 212.28,-490.29 211.83,-483.3"/>
</a>
</g>
</g>
<!-- Node15&#45;&gt;Node15 -->
<g id="edge25_Node000015_Node000015" class="edge">
<title>Node15&#45;&gt;Node15</title>
<g id="a_edge25_Node000015_Node000015"><a xlink:title=" ">
<path fill="none" stroke="#63b8ff" d="M190.98,-170.05C189.55,-174.88 182.39,-178.5 169.5,-178.5 148.88,-178.5 142.92,-169.23 151.62,-160.58"/>
<polygon fill="#63b8ff" stroke="#63b8ff" points="194.2,-168.69 187.38,-160.58 187.66,-171.17 194.2,-168.69"/>
</a>
</g>
</g>
<!-- Node16 -->
<g id="Node000016" class="node">
<title>Node16</title>
<g id="a_Node000016"><a xlink:href="ast__run_8c.html#a24d0223822f7b635628199085c3283be" target="_top" xlink:title=" ">
<polygon fill="white" stroke="#666666" points="79,-188.5 0,-188.5 0,-169.5 79,-169.5 79,-188.5"/>
<text text-anchor="middle" x="39.5" y="-176.5" font-family="Helvetica,sans-Serif" font-size="10.00">ast_run_pipe</text>
</a>
</g>
</g>
<!-- Node15&#45;&gt;Node16 -->
<g id="edge23_Node000015_Node000016" class="edge">
<title>Node15&#45;&gt;Node16</title>
<g id="a_edge23_Node000015_Node000016"><a xlink:title=" ">
<path fill="none" stroke="#63b8ff" d="M127.06,-160.06C111.65,-163.44 94.23,-167.25 79.08,-170.56"/>
<polygon fill="#63b8ff" stroke="#63b8ff" points="127.84,-163.48 136.86,-157.92 126.34,-156.64 127.84,-163.48"/>
</a>
</g>
</g>
<!-- Node16&#45;&gt;Node7 -->
<g id="edge24_Node000016_Node000007" class="edge">
<title>Node16&#45;&gt;Node7</title>
<g id="a_edge24_Node000016_Node000007"><a xlink:title=" ">
<path fill="none" stroke="#63b8ff" d="M89.12,-183.17C128.12,-188.37 182.93,-200.02 224,-226 250.4,-242.7 271.05,-274.49 280.26,-290.41"/>
<polygon fill="#63b8ff" stroke="#63b8ff" points="89.42,-179.68 79.07,-181.92 88.56,-186.62 89.42,-179.68"/>
</a>
</g>
</g>
<!-- Node18&#45;&gt;Node2 -->
<g id="edge28_Node000018_Node000002" class="edge">
<title>Node18&#45;&gt;Node2</title>
<g id="a_edge28_Node000018_Node000002"><a xlink:title=" ">
<path fill="none" stroke="#63b8ff" d="M213.89,-448.41C339.25,-449.58 698.79,-452.94 790.17,-453.8"/>
<polygon fill="#63b8ff" stroke="#63b8ff" points="213.92,-444.91 203.89,-448.31 213.85,-451.91 213.92,-444.91"/>
</a>
</g>
</g>
<!-- Node19&#45;&gt;Node3 -->
<g id="edge31_Node000019_Node000003" class="edge">
<title>Node19&#45;&gt;Node3</title>
<g id="a_edge31_Node000019_Node000003"><a xlink:title=" ">
<path fill="none" stroke="#63b8ff" d="M914.07,-442.89C862.41,-427.97 771.43,-401.68 722.64,-387.58"/>
<polygon fill="#63b8ff" stroke="#63b8ff" points="913.28,-446.31 923.85,-445.72 915.22,-439.58 913.28,-446.31"/>
</a>
</g>
</g>
<!-- Node21 -->
<g id="Node000021" class="node">
<title>Node21</title>
<g id="a_Node000021"><a xlink:href="cd_8c.html#a592b884dd32e14e084c461b3372632b4" target="_top" xlink:title="Execute the cd builtin cmd.">
<polygon fill="white" stroke="#666666" points="832,-387.5 793,-387.5 793,-368.5 832,-368.5 832,-387.5"/>
<text text-anchor="middle" x="812.5" y="-375.5" font-family="Helvetica,sans-Serif" font-size="10.00">cd_b</text>
</a>
</g>
</g>
<!-- Node20&#45;&gt;Node21 -->
<g id="edge33_Node000020_Node000021" class="edge">
<title>Node20&#45;&gt;Node21</title>
<g id="a_edge33_Node000020_Node000021"><a xlink:title=" ">
<path fill="none" stroke="#63b8ff" d="M1631.69,-416C1576.64,-416 1474.85,-416 1388,-416 1388,-416 1388,-416 1071,-416 980.62,-416 874.29,-392.81 832.1,-382.66"/>
<polygon fill="#63b8ff" stroke="#63b8ff" points="1631.74,-419.5 1641.74,-416 1631.74,-412.5 1631.74,-419.5"/>
</a>
</g>
</g>
<!-- Node21&#45;&gt;Node3 -->
<g id="edge34_Node000021_Node000003" class="edge">
<title>Node21&#45;&gt;Node3</title>
<g id="a_edge34_Node000021_Node000003"><a xlink:title=" ">
<path fill="none" stroke="#63b8ff" d="M782.66,-378C765.84,-378 744.46,-378 726.42,-378"/>
<polygon fill="#63b8ff" stroke="#63b8ff" points="782.97,-381.5 792.97,-378 782.97,-374.5 782.97,-381.5"/>
</a>
</g>
</g>
<!-- Node22&#45;&gt;Node21 -->
<g id="edge37_Node000022_Node000021" class="edge">
<title>Node22&#45;&gt;Node21</title>
<g id="a_edge37_Node000022_Node000021"><a xlink:title=" ">
<path fill="none" stroke="#63b8ff" d="M905.17,-378C880.09,-378 850.71,-378 832.1,-378"/>
<polygon fill="#63b8ff" stroke="#63b8ff" points="905.25,-381.5 915.25,-378 905.25,-374.5 905.25,-381.5"/>
</a>
</g>
</g>
<!-- Node24 -->
<g id="Node000024" class="node">
<title>Node24</title>
<g id="a_Node000024"><a xlink:href="expand_8c.html#a492ca861a96ee6319b97b4b1d6ba9835" target="_top" xlink:title=" ">
<polygon fill="white" stroke="#666666" points="1428,-273.5 1346,-273.5 1346,-254.5 1428,-254.5 1428,-273.5"/>
<text text-anchor="middle" x="1387" y="-261.5" font-family="Helvetica,sans-Serif" font-size="10.00">expand_word</text>
</a>
</g>
</g>
<!-- Node23&#45;&gt;Node24 -->
<g id="edge39_Node000023_Node000024" class="edge">
<title>Node23&#45;&gt;Node24</title>
<g id="a_edge39_Node000023_Node000024"><a xlink:title=" ">
<path fill="none" stroke="#63b8ff" d="M1742.66,-301.63C1679.38,-300.57 1562.53,-296.59 1464,-282 1450.32,-279.97 1435.47,-276.71 1422.57,-273.51"/>
<polygon fill="#63b8ff" stroke="#63b8ff" points="1742.67,-305.13 1752.72,-301.79 1742.77,-298.14 1742.67,-305.13"/>
</a>
</g>
</g>
<!-- Node36 -->
<g id="Node000036" class="node">
<title>Node36</title>
<g id="a_Node000036"><a xlink:href="expand_8c.html#a4a10ac07faa08df14e0a438c5feace6b" target="_top" xlink:title=" ">
<polygon fill="white" stroke="#666666" points="1717,-273.5 1629,-273.5 1629,-254.5 1717,-254.5 1717,-273.5"/>
<text text-anchor="middle" x="1673" y="-261.5" font-family="Helvetica,sans-Serif" font-size="10.00">in_dquote_exp</text>
</a>
</g>
</g>
<!-- Node23&#45;&gt;Node36 -->
<g id="edge65_Node000023_Node000036" class="edge">
<title>Node23&#45;&gt;Node36</title>
<g id="a_edge65_Node000023_Node000036"><a xlink:title=" ">
<path fill="none" stroke="#63b8ff" d="M1750.18,-289.17C1734.75,-284.08 1717.31,-278.31 1703.01,-273.59"/>
<polygon fill="#63b8ff" stroke="#63b8ff" points="1749.39,-292.6 1759.98,-292.41 1751.58,-285.95 1749.39,-292.6"/>
</a>
</g>
</g>
<!-- Node25 -->
<g id="Node000025" class="node">
<title>Node25</title>
<g id="a_Node000025"><a xlink:href="expand_8c.html#ae22ff4719527d6b2b8bca3e43f576837" target="_top" xlink:title=" ">
<polygon fill="white" stroke="#666666" points="1310,-235.5 1257,-235.5 1257,-216.5 1310,-216.5 1310,-235.5"/>
<text text-anchor="middle" x="1283.5" y="-223.5" font-family="Helvetica,sans-Serif" font-size="10.00">expand</text>
</a>
</g>
</g>
<!-- Node24&#45;&gt;Node25 -->
<g id="edge40_Node000024_Node000025" class="edge">
<title>Node24&#45;&gt;Node25</title>
<g id="a_edge40_Node000024_Node000025"><a xlink:title=" ">
<path fill="none" stroke="#63b8ff" d="M1350.96,-250.88C1337.54,-245.86 1322.48,-240.22 1310.1,-235.59"/>
<polygon fill="#63b8ff" stroke="#63b8ff" points="1349.79,-254.18 1360.39,-254.41 1352.25,-247.63 1349.79,-254.18"/>
</a>
</g>
</g>
<!-- Node25&#45;&gt;Node5 -->
<g id="edge42_Node000025_Node000005" class="edge">
<title>Node25&#45;&gt;Node5</title>
<g id="a_edge42_Node000025_Node000005"><a xlink:title=" ">
<path fill="none" stroke="#63b8ff" d="M1265.51,-243.02C1231.89,-274.81 1153.16,-340 1073,-340 1073,-340 1073,-340 687.5,-340 631.48,-340 566.62,-331.72 529.01,-326.09"/>
<polygon fill="#63b8ff" stroke="#63b8ff" points="1268.31,-245.19 1273.06,-235.72 1263.44,-240.16 1268.31,-245.19"/>
</a>
</g>
</g>
<!-- Node25&#45;&gt;Node9 -->
<g id="edge41_Node000025_Node000009" class="edge">
<title>Node25&#45;&gt;Node9</title>
<g id="a_edge41_Node000025_Node000009"><a xlink:title=" ">
<path fill="none" stroke="#63b8ff" d="M1280.23,-206.51C1275.34,-172.82 1260.79,-103.33 1221,-62 1171.54,-10.62 1144.32,0 1073,0 1073,0 1073,0 387.5,0 313.41,0 229.76,-31.95 191.56,-48.42"/>
<polygon fill="#63b8ff" stroke="#63b8ff" points="1276.77,-207.02 1281.55,-216.47 1283.71,-206.1 1276.77,-207.02"/>
</a>
</g>
</g>
<!-- Node25&#45;&gt;Node14 -->
<g id="edge43_Node000025_Node000014" class="edge">
<title>Node25&#45;&gt;Node14</title>
<g id="a_edge43_Node000025_Node000014"><a xlink:title=" ">
<path fill="none" stroke="#63b8ff" d="M1269.83,-207.84C1240.31,-167.91 1162.64,-76 1073,-76 1073,-76 1073,-76 495.5,-76 283.94,-76 389.97,-335.8 224,-467 217.58,-472.07 209.79,-476.05 202.15,-479.12"/>
<polygon fill="#63b8ff" stroke="#63b8ff" points="1267.14,-210.1 1275.83,-216.16 1272.82,-206 1267.14,-210.1"/>
</a>
</g>
</g>
<!-- Node26 -->
<g id="Node000026" class="node">
<title>Node26</title>
<g id="a_Node000026"><a xlink:href="hashmap_8c.html#aca86cd9ca85ac2e41fbb5c9e86ad6d6f" target="_top" xlink:title=" ">
<polygon fill="white" stroke="#666666" points="1221,-235.5 1136,-235.5 1136,-216.5 1221,-216.5 1221,-235.5"/>
<text text-anchor="middle" x="1178.5" y="-223.5" font-family="Helvetica,sans-Serif" font-size="10.00">expand_value</text>
</a>
</g>
</g>
<!-- Node25&#45;&gt;Node26 -->
<g id="edge44_Node000025_Node000026" class="edge">
<title>Node25&#45;&gt;Node26</title>
<g id="a_edge44_Node000025_Node000026"><a xlink:title=" ">
<path fill="none" stroke="#63b8ff" d="M1246.76,-226C1238.55,-226 1229.75,-226 1221.31,-226"/>
<polygon fill="#63b8ff" stroke="#63b8ff" points="1246.77,-229.5 1256.77,-226 1246.77,-222.5 1246.77,-229.5"/>
</a>
</g>
</g>
<!-- Node27 -->
<g id="Node000027" class="node">
<title>Node27</title>
<g id="a_Node000027"><a xlink:href="hashmap_8c.html#a3bf95c887f7eac3eb074725515feba49" target="_top" xlink:title="Add a variable to the dictionnary.">
<polygon fill="white" stroke="#666666" points="1100,-235.5 1044,-235.5 1044,-216.5 1100,-216.5 1100,-235.5"/>
<text text-anchor="middle" x="1072" y="-223.5" font-family="Helvetica,sans-Serif" font-size="10.00">add_var</text>
</a>
</g>
</g>
<!-- Node26&#45;&gt;Node27 -->
<g id="edge45_Node000026_Node000027" class="edge">
<title>Node26&#45;&gt;Node27</title>
<g id="a_edge45_Node000026_Node000027"><a xlink:title=" ">
<path fill="none" stroke="#63b8ff" d="M1125.88,-226C1116.95,-226 1107.99,-226 1100.05,-226"/>
<polygon fill="#63b8ff" stroke="#63b8ff" points="1125.9,-229.5 1135.9,-226 1125.9,-222.5 1125.9,-229.5"/>
</a>
</g>
</g>
<!-- Node27&#45;&gt;Node9 -->
<g id="edge54_Node000027_Node000009" class="edge">
<title>Node27&#45;&gt;Node9</title>
<g id="a_edge54_Node000027_Node000009"><a xlink:title=" ">
<path fill="none" stroke="#63b8ff" d="M1066.91,-206.46C1059.89,-177.79 1042.82,-124.56 1008,-95 939.32,-36.71 903.58,-38 813.5,-38 813.5,-38 813.5,-38 387.5,-38 322.99,-38 248.16,-46.87 205.36,-52.8"/>
<polygon fill="#63b8ff" stroke="#63b8ff" points="1063.56,-207.49 1069.19,-216.46 1070.38,-205.93 1063.56,-207.49"/>
</a>
</g>
</g>
<!-- Node27&#45;&gt;Node19 -->
<g id="edge59_Node000027_Node000019" class="edge">
<title>Node27&#45;&gt;Node19</title>
<g id="a_edge59_Node000027_Node000019"><a xlink:title=" ">
<path fill="none" stroke="#63b8ff" d="M1066.5,-245.67C1058.35,-278.71 1039.07,-346.7 1008,-397 996.44,-415.71 978.09,-433.56 966.17,-444.15"/>
<polygon fill="#63b8ff" stroke="#63b8ff" points="1069.92,-246.42 1068.83,-235.88 1063.11,-244.79 1069.92,-246.42"/>
</a>
</g>
</g>
<!-- Node27&#45;&gt;Node22 -->
<g id="edge64_Node000027_Node000022" class="edge">
<title>Node27&#45;&gt;Node22</title>
<g id="a_edge64_Node000027_Node000022"><a xlink:title=" ">
<path fill="none" stroke="#63b8ff" d="M1059.16,-244.03C1046.87,-262.48 1026.84,-291.79 1008,-316 993.16,-335.07 974.43,-356.16 963.53,-368.17"/>
<polygon fill="#63b8ff" stroke="#63b8ff" points="1062.09,-245.96 1064.69,-235.69 1056.25,-242.09 1062.09,-245.96"/>
</a>
</g>
</g>
<!-- Node28 -->
<g id="Node000028" class="node">
<title>Node28</title>
<g id="a_Node000028"><a xlink:href="io_8c.html#ac8404f84d9b2f3f16fe4d24de44d6050" target="_top" xlink:title="Helper: Ajoute un arg au dictionnaire de variables.">
<polygon fill="white" stroke="#666666" points="1008,-197.5 899,-197.5 899,-178.5 1008,-178.5 1008,-197.5"/>
<text text-anchor="middle" x="953.5" y="-185.5" font-family="Helvetica,sans-Serif" font-size="10.00">add_positional_arg</text>
</a>
</g>
</g>
<!-- Node27&#45;&gt;Node28 -->
<g id="edge46_Node000027_Node000028" class="edge">
<title>Node27&#45;&gt;Node28</title>
<g id="a_edge46_Node000027_Node000028"><a xlink:title=" ">
<path fill="none" stroke="#63b8ff" d="M1034.24,-214.01C1017.98,-208.71 999.12,-202.55 983.82,-197.56"/>
<polygon fill="#63b8ff" stroke="#63b8ff" points="1033.39,-217.41 1043.98,-217.19 1035.56,-210.76 1033.39,-217.41"/>
</a>
</g>
</g>
<!-- Node30 -->
<g id="Node000030" class="node">
<title>Node30</title>
<g id="a_Node000030"><a xlink:href="hashmap_8c.html#a6ea7c10f5ac3ee3ad1986f24e1b83863" target="_top" xlink:title=" ">
<polygon fill="white" stroke="#666666" points="990.5,-123.5 916.5,-123.5 916.5,-104.5 990.5,-104.5 990.5,-123.5"/>
<text text-anchor="middle" x="953.5" y="-111.5" font-family="Helvetica,sans-Serif" font-size="10.00">add_special</text>
</a>
</g>
</g>
<!-- Node27&#45;&gt;Node30 -->
<g id="edge49_Node000027_Node000030" class="edge">
<title>Node27&#45;&gt;Node30</title>
<g id="a_edge49_Node000027_Node000030"><a xlink:title=" ">
<path fill="none" stroke="#63b8ff" d="M1063.01,-207.26C1053.07,-186.09 1034.16,-151.99 1008,-132 1002.86,-128.07 996.82,-124.97 990.67,-122.54"/>
<polygon fill="#63b8ff" stroke="#63b8ff" points="1059.87,-208.81 1067.16,-216.49 1066.25,-205.94 1059.87,-208.81"/>
</a>
</g>
</g>
<!-- Node32 -->
<g id="Node000032" class="node">
<title>Node32</title>
<g id="a_Node000032"><a xlink:href="io_8c.html#aa3aea4ea03b25f3d2e5449741816dbb8" target="_top" xlink:title="Helper &#45;&gt; add number of args to dictionnary.">
<polygon fill="white" stroke="#666666" points="983,-160.5 924,-160.5 924,-141.5 983,-141.5 983,-160.5"/>
<text text-anchor="middle" x="953.5" y="-148.5" font-family="Helvetica,sans-Serif" font-size="10.00">arg_num</text>
</a>
</g>
</g>
<!-- Node27&#45;&gt;Node32 -->
<g id="edge52_Node000027_Node000032" class="edge">
<title>Node27&#45;&gt;Node32</title>
<g id="a_edge52_Node000027_Node000032"><a xlink:title=" ">
<path fill="none" stroke="#63b8ff" d="M1055.58,-208.65C1043.66,-196.14 1026.16,-179.64 1008,-169 1000.39,-164.54 991.52,-160.99 983.21,-158.27"/>
<polygon fill="#63b8ff" stroke="#63b8ff" points="1053.2,-211.23 1062.57,-216.2 1058.34,-206.48 1053.2,-211.23"/>
</a>
</g>
</g>
<!-- Node33 -->
<g id="Node000033" class="node">
<title>Node33</title>
<g id="a_Node000033"><a xlink:href="exec_8c.html#a9707f3708c634be49a10356313da4d30" target="_top" xlink:title="Execute the command with given arguments.">
<polygon fill="white" stroke="#666666" points="832,-311.5 793,-311.5 793,-292.5 832,-292.5 832,-311.5"/>
<text text-anchor="middle" x="812.5" y="-299.5" font-family="Helvetica,sans-Serif" font-size="10.00">exec</text>
</a>
</g>
</g>
<!-- Node27&#45;&gt;Node33 -->
<g id="edge55_Node000027_Node000033" class="edge">
<title>Node27&#45;&gt;Node33</title>
<g id="a_edge55_Node000027_Node000033"><a xlink:title=" ">
<path fill="none" stroke="#63b8ff" d="M1056.94,-243.36C1045.3,-256.39 1027.56,-273.39 1008,-282 948.03,-308.39 867.94,-306.36 832.15,-303.76"/>
<polygon fill="#63b8ff" stroke="#63b8ff" points="1059.82,-245.38 1063.66,-235.51 1054.5,-240.83 1059.82,-245.38"/>
</a>
</g>
</g>
<!-- Node34 -->
<g id="Node000034" class="node">
<title>Node34</title>
<g id="a_Node000034"><a xlink:href="exec_8c.html#a60ea263265f67ff588c7de955c83bcec" target="_top" xlink:title="Exec assignments in cmd.">
<polygon fill="white" stroke="#666666" points="863,-235.5 762,-235.5 762,-216.5 863,-216.5 863,-235.5"/>
<text text-anchor="middle" x="812.5" y="-223.5" font-family="Helvetica,sans-Serif" font-size="10.00">exec_assignment</text>
</a>
</g>
</g>
<!-- Node27&#45;&gt;Node34 -->
<g id="edge57_Node000027_Node000034" class="edge">
<title>Node27&#45;&gt;Node34</title>
<g id="a_edge57_Node000027_Node000034"><a xlink:title=" ">
<path fill="none" stroke="#63b8ff" d="M1033.73,-226C988.73,-226 912.9,-226 863.02,-226"/>
<polygon fill="#63b8ff" stroke="#63b8ff" points="1033.93,-229.5 1043.93,-226 1033.93,-222.5 1033.93,-229.5"/>
</a>
</g>
</g>
<!-- Node35 -->
<g id="Node000035" class="node">
<title>Node35</title>
<g id="a_Node000035"><a xlink:href="exec_8c.html#a10741ea1c82bec65aa88b283c4a68e5b" target="_top" xlink:title="Update special var &quot;?&quot; with given status.">
<polygon fill="white" stroke="#666666" points="990.5,-273.5 916.5,-273.5 916.5,-254.5 990.5,-254.5 990.5,-273.5"/>
<text text-anchor="middle" x="953.5" y="-261.5" font-family="Helvetica,sans-Serif" font-size="10.00">update_exit</text>
</a>
</g>
</g>
<!-- Node27&#45;&gt;Node35 -->
<g id="edge60_Node000027_Node000035" class="edge">
<title>Node27&#45;&gt;Node35</title>
<g id="a_edge60_Node000027_Node000035"><a xlink:title=" ">
<path fill="none" stroke="#63b8ff" d="M1034.24,-237.99C1017.98,-243.29 999.12,-249.45 983.82,-254.44"/>
<polygon fill="#63b8ff" stroke="#63b8ff" points="1035.56,-241.24 1043.98,-234.81 1033.39,-234.59 1035.56,-241.24"/>
</a>
</g>
</g>
<!-- Node29 -->
<g id="Node000029" class="node">
<title>Node29</title>
<g id="a_Node000029"><a xlink:href="io_8c.html#a8346ebcdde79020ca792f3d4d2d93ec0" target="_top" xlink:title="Gère options scripts et arguments.">
<polygon fill="white" stroke="#666666" points="839,-161.5 786,-161.5 786,-142.5 839,-142.5 839,-161.5"/>
<text text-anchor="middle" x="812.5" y="-149.5" font-family="Helvetica,sans-Serif" font-size="10.00">arg_file</text>
</a>
</g>
</g>
<!-- Node28&#45;&gt;Node29 -->
<g id="edge47_Node000028_Node000029" class="edge">
<title>Node28&#45;&gt;Node29</title>
<g id="a_edge47_Node000028_Node000029"><a xlink:title=" ">
<path fill="none" stroke="#63b8ff" d="M905.68,-175.87C883.44,-170.11 857.73,-163.45 839.11,-158.63"/>
<polygon fill="#63b8ff" stroke="#63b8ff" points="905.06,-179.33 915.62,-178.45 906.81,-172.55 905.06,-179.33"/>
</a>
</g>
</g>
<!-- Node29&#45;&gt;Node17 -->
<g id="edge48_Node000029_Node000017" class="edge">
<title>Node29&#45;&gt;Node17</title>
<g id="a_edge48_Node000029_Node000017"><a xlink:title=" ">
<path fill="none" stroke="#63b8ff" d="M775.59,-152C731.95,-152 656.07,-152 591,-152 591,-152 591,-152 387.5,-152 313.68,-152 227.83,-130.4 190.05,-119.77"/>
<polygon fill="#63b8ff" stroke="#63b8ff" points="775.7,-155.5 785.7,-152 775.7,-148.5 775.7,-155.5"/>
</a>
</g>
</g>
<!-- Node31 -->
<g id="Node000031" class="node">
<title>Node31</title>
<g id="a_Node000031"><a xlink:href="hashmap_8c.html#a5b305fb96c9d0ce57bb51cc0e2c434ac" target="_top" xlink:title="Initialise the dictionnary and adds special variables from the get go.">
<polygon fill="white" stroke="#666666" points="716.5,-123.5 660.5,-123.5 660.5,-104.5 716.5,-104.5 716.5,-123.5"/>
<text text-anchor="middle" x="688.5" y="-111.5" font-family="Helvetica,sans-Serif" font-size="10.00">init_dict</text>
</a>
</g>
</g>
<!-- Node30&#45;&gt;Node31 -->
<g id="edge50_Node000030_Node000031" class="edge">
<title>Node30&#45;&gt;Node31</title>
<g id="a_edge50_Node000030_Node000031"><a xlink:title=" ">
<path fill="none" stroke="#63b8ff" d="M906.32,-114C851.39,-114 761.52,-114 716.7,-114"/>
<polygon fill="#63b8ff" stroke="#63b8ff" points="906.48,-117.5 916.48,-114 906.48,-110.5 906.48,-117.5"/>
</a>
</g>
</g>
<!-- Node31&#45;&gt;Node17 -->
<g id="edge51_Node000031_Node000017" class="edge">
<title>Node31&#45;&gt;Node17</title>
<g id="a_edge51_Node000031_Node000017"><a xlink:title=" ">
<path fill="none" stroke="#63b8ff" d="M650.28,-114C611.97,-114 550.57,-114 497.5,-114 497.5,-114 497.5,-114 387.5,-114 314.79,-114 228.38,-114 190.25,-114"/>
<polygon fill="#63b8ff" stroke="#63b8ff" points="650.44,-117.5 660.44,-114 650.44,-110.5 650.44,-117.5"/>
</a>
</g>
</g>
<!-- Node32&#45;&gt;Node29 -->
<g id="edge53_Node000032_Node000029" class="edge">
<title>Node32&#45;&gt;Node29</title>
<g id="a_edge53_Node000032_Node000029"><a xlink:title=" ">
<path fill="none" stroke="#63b8ff" d="M913.62,-151.28C889.93,-151.45 860.31,-151.66 839.45,-151.81"/>
<polygon fill="#63b8ff" stroke="#63b8ff" points="913.72,-154.78 923.7,-151.21 913.67,-147.78 913.72,-154.78"/>
</a>
</g>
</g>
<!-- Node33&#45;&gt;Node5 -->
<g id="edge56_Node000033_Node000005" class="edge">
<title>Node33&#45;&gt;Node5</title>
<g id="a_edge56_Node000033_Node000005"><a xlink:title=" ">
<path fill="none" stroke="#63b8ff" d="M782.71,-303.74C723.85,-307.3 590.15,-315.39 529.04,-319.09"/>
<polygon fill="#63b8ff" stroke="#63b8ff" points="783.03,-307.23 792.8,-303.13 782.61,-300.24 783.03,-307.23"/>
</a>
</g>
</g>
<!-- Node34&#45;&gt;Node5 -->
<g id="edge58_Node000034_Node000005" class="edge">
<title>Node34&#45;&gt;Node5</title>
<g id="a_edge58_Node000034_Node000005"><a xlink:title=" ">
<path fill="none" stroke="#63b8ff" d="M751.8,-230.84C721.2,-234.34 683.62,-240.24 651,-250 598.68,-265.66 541.36,-296.04 513.92,-311.49"/>
<polygon fill="#63b8ff" stroke="#63b8ff" points="752.33,-234.31 761.89,-229.74 751.57,-227.35 752.33,-234.31"/>
</a>
</g>
</g>
<!-- Node35&#45;&gt;Node4 -->
<g id="edge63_Node000035_Node000004" class="edge">
<title>Node35&#45;&gt;Node4</title>
<g id="a_edge63_Node000035_Node000004"><a xlink:title=" ">
<path fill="none" stroke="#63b8ff" d="M906.11,-263.42C866.87,-264.14 809.61,-268.1 762,-283 698.15,-302.98 631.31,-348.47 603.89,-368.37"/>
<polygon fill="#63b8ff" stroke="#63b8ff" points="906.22,-266.91 916.17,-263.29 906.13,-259.92 906.22,-266.91"/>
</a>
</g>
</g>
<!-- Node35&#45;&gt;Node33 -->
<g id="edge61_Node000035_Node000033" class="edge">
<title>Node35&#45;&gt;Node33</title>
<g id="a_edge61_Node000035_Node000033"><a xlink:title=" ">
<path fill="none" stroke="#63b8ff" d="M907.58,-276.28C882.09,-283.25 851.54,-291.6 832.32,-296.86"/>
<polygon fill="#63b8ff" stroke="#63b8ff" points="908.7,-279.6 917.42,-273.59 906.86,-272.85 908.7,-279.6"/>
</a>
</g>
</g>
<!-- Node35&#45;&gt;Node34 -->
<g id="edge62_Node000035_Node000034" class="edge">
<title>Node35&#45;&gt;Node34</title>
<g id="a_edge62_Node000035_Node000034"><a xlink:title=" ">
<path fill="none" stroke="#63b8ff" d="M907.7,-251.75C888.55,-246.52 866.51,-240.49 848.56,-235.59"/>
<polygon fill="#63b8ff" stroke="#63b8ff" points="906.86,-255.15 917.42,-254.41 908.7,-248.4 906.86,-255.15"/>
</a>
</g>
</g>
<!-- Node37 -->
<g id="Node000037" class="node">
<title>Node37</title>
<g id="a_Node000037"><a xlink:href="expand_8c.html#a6d4728fd992669e4bb35624d37972179" target="_top" xlink:title=" ">
<polygon fill="white" stroke="#666666" points="1593,-273.5 1464,-273.5 1464,-254.5 1593,-254.5 1593,-273.5"/>
<text text-anchor="middle" x="1528.5" y="-261.5" font-family="Helvetica,sans-Serif" font-size="10.00">double_quotes_expand</text>
</a>
</g>
</g>
<!-- Node36&#45;&gt;Node37 -->
<g id="edge66_Node000036_Node000037" class="edge">
<title>Node36&#45;&gt;Node37</title>
<g id="a_edge66_Node000036_Node000037"><a xlink:title=" ">
<path fill="none" stroke="#63b8ff" d="M1618.61,-264C1610.34,-264 1601.73,-264 1593.26,-264"/>
<polygon fill="#63b8ff" stroke="#63b8ff" points="1618.86,-267.5 1628.86,-264 1618.86,-260.5 1618.86,-267.5"/>
</a>
</g>
</g>
<!-- Node37&#45;&gt;Node24 -->
<g id="edge67_Node000037_Node000024" class="edge">
<title>Node37&#45;&gt;Node24</title>
<g id="a_edge67_Node000037_Node000024"><a xlink:title=" ">
<path fill="none" stroke="#63b8ff" d="M1453.66,-264C1444.97,-264 1436.36,-264 1428.38,-264"/>
<polygon fill="#63b8ff" stroke="#63b8ff" points="1453.87,-267.5 1463.87,-264 1453.87,-260.5 1453.87,-267.5"/>
</a>
</g>
</g>
</g>
</svg>
