<?xml version="1.0" encoding="UTF-8" standalone="no"?>
<!DOCTYPE svg PUBLIC "-//W3C//DTD SVG 1.1//EN"
 "http://www.w3.org/Graphics/SVG/1.1/DTD/svg11.dtd">
<!-- Generated by graphviz version 2.43.0 (0)
 -->
<!-- Title: expand_value Pages: 1 -->
<svg width="1014pt" height="203pt"
 viewBox="0.00 0.00 1014.00 203.00" xmlns="http://www.w3.org/2000/svg" xmlns:xlink="http://www.w3.org/1999/xlink">
<g id="graph0" class="graph" transform="scale(1 1) rotate(0) translate(4 199)">
<title>expand_value</title>
<!-- Node1 -->
<g id="Node000001" class="node">
<title>Node1</title>
<g id="a_Node000001"><a xlink:title=" ">
<polygon fill="#999999" stroke="#666666" points="85,-74 0,-74 0,-55 85,-55 85,-74"/>
<text text-anchor="middle" x="42.5" y="-62" font-family="Helvetica,sans-Serif" font-size="10.00">expand_value</text>
</a>
</g>
</g>
<!-- Node2 -->
<g id="Node000002" class="node">
<title>Node2</title>
<g id="a_Node000002"><a xlink:href="expand_8c.html#ae22ff4719527d6b2b8bca3e43f576837" target="_top" xlink:title=" ">
<polygon fill="white" stroke="#666666" points="174,-74 121,-74 121,-55 174,-55 174,-74"/>
<text text-anchor="middle" x="147.5" y="-62" font-family="Helvetica,sans-Serif" font-size="10.00">expand</text>
</a>
</g>
</g>
<!-- Node1&#45;&gt;Node2 -->
<g id="edge1_Node000001_Node000002" class="edge">
<title>Node1&#45;&gt;Node2</title>
<g id="a_edge1_Node000001_Node000002"><a xlink:title=" ">
<path fill="none" stroke="#63b8ff" d="M85.1,-64.5C93.58,-64.5 102.43,-64.5 110.69,-64.5"/>
<polygon fill="#63b8ff" stroke="#63b8ff" points="110.75,-68 120.75,-64.5 110.75,-61 110.75,-68"/>
</a>
</g>
</g>
<!-- Node3 -->
<g id="Node000003" class="node">
<title>Node3</title>
<g id="a_Node000003"><a xlink:href="expand_8c.html#a492ca861a96ee6319b97b4b1d6ba9835" target="_top" xlink:title=" ">
<polygon fill="white" stroke="#666666" points="292,-121 210,-121 210,-102 292,-102 292,-121"/>
<text text-anchor="middle" x="251" y="-109" font-family="Helvetica,sans-Serif" font-size="10.00">expand_word</text>
</a>
</g>
</g>
<!-- Node2&#45;&gt;Node3 -->
<g id="edge2_Node000002_Node000003" class="edge">
<title>Node2&#45;&gt;Node3</title>
<g id="a_edge2_Node000002_Node000003"><a xlink:title=" ">
<path fill="none" stroke="#63b8ff" d="M169.04,-74.01C183.66,-80.78 203.55,-89.99 219.95,-97.59"/>
<polygon fill="#63b8ff" stroke="#63b8ff" points="218.6,-100.82 229.14,-101.84 221.54,-94.46 218.6,-100.82"/>
</a>
</g>
</g>
<!-- Node9 -->
<g id="Node000009" class="node">
<title>Node9</title>
<g id="a_Node000009"><a xlink:href="expand_8c.html#aaf941edbfdd3ac08d813ff01acc1f963" target="_top" xlink:title=" ">
<polygon fill="white" stroke="#666666" points="819,-19 766,-19 766,0 819,0 819,-19"/>
<text text-anchor="middle" x="792.5" y="-7" font-family="Helvetica,sans-Serif" font-size="10.00">free_ex</text>
</a>
</g>
</g>
<!-- Node2&#45;&gt;Node9 -->
<g id="edge20_Node000002_Node000009" class="edge">
<title>Node2&#45;&gt;Node9</title>
<g id="a_edge20_Node000002_Node000009"><a xlink:title=" ">
<path fill="none" stroke="#63b8ff" d="M174.19,-57.79C218.3,-46.88 311.44,-26.5 391.5,-26.5 391.5,-26.5 391.5,-26.5 538,-26.5 615.87,-26.5 706.9,-18.41 755.9,-13.4"/>
<polygon fill="#63b8ff" stroke="#63b8ff" points="756.41,-16.86 765.99,-12.35 755.68,-9.9 756.41,-16.86"/>
</a>
</g>
</g>
<!-- Node4 -->
<g id="Node000004" class="node">
<title>Node4</title>
<g id="a_Node000004"><a xlink:href="expand_8c.html#a97a675ffacb4b71f4f3b4a30749d9f66" target="_top" xlink:title=" ">
<polygon fill="white" stroke="#666666" points="432,-158 353,-158 353,-139 432,-139 432,-158"/>
<text text-anchor="middle" x="392.5" y="-146" font-family="Helvetica,sans-Serif" font-size="10.00">append_char</text>
</a>
</g>
</g>
<!-- Node3&#45;&gt;Node4 -->
<g id="edge3_Node000003_Node000004" class="edge">
<title>Node3&#45;&gt;Node4</title>
<g id="a_edge3_Node000003_Node000004"><a xlink:title=" ">
<path fill="none" stroke="#63b8ff" d="M287.92,-121.03C305.44,-125.67 326.72,-131.32 345.42,-136.28"/>
<polygon fill="#63b8ff" stroke="#63b8ff" points="344.65,-139.69 355.21,-138.88 346.44,-132.93 344.65,-139.69"/>
</a>
</g>
</g>
<!-- Node5 -->
<g id="Node000005" class="node">
<title>Node5</title>
<g id="a_Node000005"><a xlink:href="expand_8c.html#a6d4728fd992669e4bb35624d37972179" target="_top" xlink:title=" ">
<polygon fill="white" stroke="#666666" points="457,-121 328,-121 328,-102 457,-102 457,-121"/>
<text text-anchor="middle" x="392.5" y="-109" font-family="Helvetica,sans-Serif" font-size="10.00">double_quotes_expand</text>
</a>
</g>
</g>
<!-- Node3&#45;&gt;Node5 -->
<g id="edge4_Node000003_Node000005" class="edge">
<title>Node3&#45;&gt;Node5</title>
<g id="a_edge4_Node000003_Node000005"><a xlink:title=" ">
<path fill="none" stroke="#63b8ff" d="M292.35,-111.5C300.33,-111.5 308.94,-111.5 317.64,-111.5"/>
<polygon fill="#63b8ff" stroke="#63b8ff" points="317.85,-115 327.85,-111.5 317.85,-108 317.85,-115"/>
</a>
</g>
</g>
<!-- Node8 -->
<g id="Node000008" class="node">
<title>Node8</title>
<g id="a_Node000008"><a xlink:href="expand_8c.html#a0a337c3a6b2595b2b8c03e171c9559ba" target="_top" xlink:title=" ">
<polygon fill="white" stroke="#666666" points="697.5,-88 623.5,-88 623.5,-69 697.5,-69 697.5,-88"/>
<text text-anchor="middle" x="660.5" y="-76" font-family="Helvetica,sans-Serif" font-size="10.00">var_expand</text>
</a>
</g>
</g>
<!-- Node3&#45;&gt;Node8 -->
<g id="edge19_Node000003_Node000008" class="edge">
<title>Node3&#45;&gt;Node8</title>
<g id="a_edge19_Node000003_Node000008"><a xlink:title=" ">
<path fill="none" stroke="#63b8ff" d="M286.17,-101.97C299.16,-98.72 314.17,-95.43 328,-93.5 429.07,-79.37 548.99,-77.61 613.28,-77.87"/>
<polygon fill="#63b8ff" stroke="#63b8ff" points="613.47,-81.37 623.49,-77.93 613.51,-74.37 613.47,-81.37"/>
</a>
</g>
</g>
<!-- Node18 -->
<g id="Node000018" class="node">
<title>Node18</title>
<g id="a_Node000018"><a xlink:href="expand_8c.html#ad45c8055962fa36940e109b04b7e562e" target="_top" xlink:title=" ">
<polygon fill="white" stroke="#666666" points="452.5,-195 332.5,-195 332.5,-176 452.5,-176 452.5,-195"/>
<text text-anchor="middle" x="392.5" y="-183" font-family="Helvetica,sans-Serif" font-size="10.00">single_quote_expand</text>
</a>
</g>
</g>
<!-- Node3&#45;&gt;Node18 -->
<g id="edge18_Node000003_Node000018" class="edge">
<title>Node3&#45;&gt;Node18</title>
<g id="a_edge18_Node000003_Node000018"><a xlink:title=" ">
<path fill="none" stroke="#63b8ff" d="M262.52,-121.19C276.48,-133.59 302.39,-154.95 328,-167.5 331.82,-169.37 335.87,-171.08 340,-172.63"/>
<polygon fill="#63b8ff" stroke="#63b8ff" points="339.11,-176.03 349.71,-175.97 341.39,-169.41 339.11,-176.03"/>
</a>
</g>
</g>
<!-- Node6 -->
<g id="Node000006" class="node">
<title>Node6</title>
<g id="a_Node000006"><a xlink:href="expand_8c.html#a4a10ac07faa08df14e0a438c5feace6b" target="_top" xlink:title=" ">
<polygon fill="white" stroke="#666666" points="581,-121 493,-121 493,-102 581,-102 581,-121"/>
<text text-anchor="middle" x="537" y="-109" font-family="Helvetica,sans-Serif" font-size="10.00">in_dquote_exp</text>
</a>
</g>
</g>
<!-- Node5&#45;&gt;Node6 -->
<g id="edge5_Node000005_Node000006" class="edge">
<title>Node5&#45;&gt;Node6</title>
<g id="a_edge5_Node000005_Node000006"><a xlink:title=" ">
<path fill="none" stroke="#63b8ff" d="M457.25,-111.5C465.69,-111.5 474.27,-111.5 482.52,-111.5"/>
<polygon fill="#63b8ff" stroke="#63b8ff" points="482.74,-115 492.74,-111.5 482.74,-108 482.74,-115"/>
</a>
</g>
</g>
<!-- Node7 -->
<g id="Node000007" class="node">
<title>Node7</title>
<g id="a_Node000007"><a xlink:href="expand_8c.html#a46b3549565fede625ad04072f2654aa4" target="_top" xlink:title=" ">
<polygon fill="white" stroke="#666666" points="704,-125 617,-125 617,-106 704,-106 704,-125"/>
<text text-anchor="middle" x="660.5" y="-113" font-family="Helvetica,sans-Serif" font-size="10.00">is_expandable</text>
</a>
</g>
</g>
<!-- Node6&#45;&gt;Node7 -->
<g id="edge6_Node000006_Node000007" class="edge">
<title>Node6&#45;&gt;Node7</title>
<g id="a_edge6_Node000006_Node000007"><a xlink:title=" ">
<path fill="none" stroke="#63b8ff" d="M581.18,-112.92C589.42,-113.19 598.14,-113.48 606.64,-113.76"/>
<polygon fill="#63b8ff" stroke="#63b8ff" points="606.76,-117.27 616.87,-114.1 606.99,-110.27 606.76,-117.27"/>
</a>
</g>
</g>
<!-- Node6&#45;&gt;Node8 -->
<g id="edge7_Node000006_Node000008" class="edge">
<title>Node6&#45;&gt;Node8</title>
<g id="a_edge7_Node000006_Node000008"><a xlink:title=" ">
<path fill="none" stroke="#63b8ff" d="M573.14,-101.96C586.11,-98.43 600.99,-94.39 614.7,-90.67"/>
<polygon fill="#63b8ff" stroke="#63b8ff" points="615.7,-94.02 624.44,-88.02 613.87,-87.27 615.7,-94.02"/>
</a>
</g>
</g>
<!-- Node8&#45;&gt;Node9 -->
<g id="edge8_Node000008_Node000009" class="edge">
<title>Node8&#45;&gt;Node9</title>
<g id="a_edge8_Node000008_Node000009"><a xlink:title=" ">
<path fill="none" stroke="#63b8ff" d="M674.26,-68.83C689.34,-57.73 715.49,-39.53 740,-27.5 745.1,-25 750.64,-22.68 756.13,-20.59"/>
<polygon fill="#63b8ff" stroke="#63b8ff" points="757.63,-23.78 765.86,-17.11 755.27,-17.19 757.63,-23.78"/>
</a>
</g>
</g>
<!-- Node10 -->
<g id="Node000010" class="node">
<title>Node10</title>
<g id="a_Node000010"><a xlink:href="hashmap_8c.html#aa54a9eed65359c74557f0f55c9ca3dd3" target="_top" xlink:title="Get the variable from the dictionnary.">
<polygon fill="white" stroke="#666666" points="819,-130 766,-130 766,-111 819,-111 819,-130"/>
<text text-anchor="middle" x="792.5" y="-118" font-family="Helvetica,sans-Serif" font-size="10.00">get_var</text>
</a>
</g>
</g>
<!-- Node8&#45;&gt;Node10 -->
<g id="edge9_Node000008_Node000010" class="edge">
<title>Node8&#45;&gt;Node10</title>
<g id="a_edge9_Node000008_Node000010"><a xlink:title=" ">
<path fill="none" stroke="#63b8ff" d="M691,-88.03C710.31,-94.27 735.66,-102.46 756.06,-109.05"/>
<polygon fill="#63b8ff" stroke="#63b8ff" points="755.04,-112.4 765.64,-112.14 757.2,-105.74 755.04,-112.4"/>
</a>
</g>
</g>
<!-- Node14 -->
<g id="Node000014" class="node">
<title>Node14</title>
<g id="a_Node000014"><a xlink:href="expand_8c.html#ac1225d88933658edb6e51e4ed8f003c3" target="_top" xlink:title=" ">
<polygon fill="white" stroke="#666666" points="829,-93 756,-93 756,-74 829,-74 829,-93"/>
<text text-anchor="middle" x="792.5" y="-81" font-family="Helvetica,sans-Serif" font-size="10.00">val_append</text>
</a>
</g>
</g>
<!-- Node8&#45;&gt;Node14 -->
<g id="edge14_Node000008_Node000014" class="edge">
<title>Node8&#45;&gt;Node14</title>
<g id="a_edge14_Node000008_Node000014"><a xlink:title=" ">
<path fill="none" stroke="#63b8ff" d="M697.71,-79.89C712.63,-80.47 730.07,-81.14 745.85,-81.74"/>
<polygon fill="#63b8ff" stroke="#63b8ff" points="745.8,-85.24 755.93,-82.13 746.07,-78.25 745.8,-85.24"/>
</a>
</g>
</g>
<!-- Node15 -->
<g id="Node000015" class="node">
<title>Node15</title>
<g id="a_Node000015"><a xlink:href="expand_8c.html#aa0106a12d15398cad9ca20f96f1eb374" target="_top" xlink:title=" ">
<polygon fill="white" stroke="#666666" points="836.5,-56 748.5,-56 748.5,-37 836.5,-37 836.5,-56"/>
<text text-anchor="middle" x="792.5" y="-44" font-family="Helvetica,sans-Serif" font-size="10.00">var_exp_brack</text>
</a>
</g>
</g>
<!-- Node8&#45;&gt;Node15 -->
<g id="edge15_Node000008_Node000015" class="edge">
<title>Node8&#45;&gt;Node15</title>
<g id="a_edge15_Node000008_Node000015"><a xlink:title=" ">
<path fill="none" stroke="#63b8ff" d="M697.71,-69.59C711.63,-66.16 727.75,-62.19 742.67,-58.52"/>
<polygon fill="#63b8ff" stroke="#63b8ff" points="743.88,-61.83 752.75,-56.04 742.21,-55.03 743.88,-61.83"/>
</a>
</g>
</g>
<!-- Node16 -->
<g id="Node000016" class="node">
<title>Node16</title>
<g id="a_Node000016"><a xlink:href="expand_8c.html#a5785fb584914d075e9a5d933e903823c" target="_top" xlink:title=" ">
<polygon fill="white" stroke="#666666" points="845,-185 740,-185 740,-166 845,-166 845,-185"/>
<text text-anchor="middle" x="792.5" y="-173" font-family="Helvetica,sans-Serif" font-size="10.00">var_exp_no_brack</text>
</a>
</g>
</g>
<!-- Node8&#45;&gt;Node16 -->
<g id="edge16_Node000008_Node000016" class="edge">
<title>Node8&#45;&gt;Node16</title>
<g id="a_edge16_Node000008_Node000016"><a xlink:title=" ">
<path fill="none" stroke="#63b8ff" d="M689.5,-88.07C694.67,-90.63 699.77,-93.75 704,-97.5 727.27,-118.13 715.88,-137.87 740,-157.5 741.57,-158.78 743.24,-159.97 744.97,-161.08"/>
<polygon fill="#63b8ff" stroke="#63b8ff" points="743.64,-164.33 754.11,-165.96 746.94,-158.16 743.64,-164.33"/>
</a>
</g>
</g>
<!-- Node10&#45;&gt;Node10 -->
<g id="edge10_Node000010_Node000010" class="edge">
<title>Node10&#45;&gt;Node10</title>
<g id="a_edge10_Node000010_Node000010"><a xlink:title=" ">
<path fill="none" stroke="#63b8ff" d="M774.93,-130.08C766.38,-138.73 772.24,-148 792.5,-148 805.16,-148 812.2,-144.38 813.61,-139.55"/>
<polygon fill="#63b8ff" stroke="#63b8ff" points="816.85,-138.22 810.07,-130.08 810.29,-140.68 816.85,-138.22"/>
</a>
</g>
</g>
<!-- Node11 -->
<g id="Node000011" class="node">
<title>Node11</title>
<g id="a_Node000011"><a xlink:href="hash_8c.html#ac74a7e29e54c223be6213463974d6154" target="_top" xlink:title=" ">
<polygon fill="white" stroke="#666666" points="928,-139 888,-139 888,-120 928,-120 928,-139"/>
<text text-anchor="middle" x="908" y="-127" font-family="Helvetica,sans-Serif" font-size="10.00">hash</text>
</a>
</g>
</g>
<!-- Node10&#45;&gt;Node11 -->
<g id="edge11_Node000010_Node000011" class="edge">
<title>Node10&#45;&gt;Node11</title>
<g id="a_edge11_Node000010_Node000011"><a xlink:title=" ">
<path fill="none" stroke="#63b8ff" d="M819.25,-122.54C836.64,-123.92 859.63,-125.74 877.71,-127.18"/>
<polygon fill="#63b8ff" stroke="#63b8ff" points="877.47,-130.67 887.71,-127.97 878.02,-123.69 877.47,-130.67"/>
</a>
</g>
</g>
<!-- Node12 -->
<g id="Node000012" class="node">
<title>Node12</title>
<g id="a_Node000012"><a xlink:href="hashmap_8c.html#a5b2c78a0a08d606dfbf21fe636373e6e" target="_top" xlink:title=" ">
<polygon fill="white" stroke="#666666" points="933.5,-102 882.5,-102 882.5,-83 933.5,-83 933.5,-102"/>
<text text-anchor="middle" x="908" y="-90" font-family="Helvetica,sans-Serif" font-size="10.00">special</text>
</a>
</g>
</g>
<!-- Node10&#45;&gt;Node12 -->
<g id="edge12_Node000010_Node000012" class="edge">
<title>Node10&#45;&gt;Node12</title>
<g id="a_edge12_Node000010_Node000012"><a xlink:title=" ">
<path fill="none" stroke="#63b8ff" d="M819.25,-114.15C834.85,-110.3 854.96,-105.34 871.99,-101.14"/>
<polygon fill="#63b8ff" stroke="#63b8ff" points="873.26,-104.43 882.13,-98.64 871.58,-97.63 873.26,-104.43"/>
</a>
</g>
</g>
<!-- Node13 -->
<g id="Node000013" class="node">
<title>Node13</title>
<g id="a_Node000013"><a xlink:href="itoa_8c.html#a43f392ec16afbe6cdb1ee6d1f1347f99" target="_top" xlink:title="Convert int to string.">
<polygon fill="white" stroke="#666666" points="1006,-102 971,-102 971,-83 1006,-83 1006,-102"/>
<text text-anchor="middle" x="988.5" y="-90" font-family="Helvetica,sans-Serif" font-size="10.00">itoa</text>
</a>
</g>
</g>
<!-- Node12&#45;&gt;Node13 -->
<g id="edge13_Node000012_Node000013" class="edge">
<title>Node12&#45;&gt;Node13</title>
<g id="a_edge13_Node000012_Node000013"><a xlink:title=" ">
<path fill="none" stroke="#63b8ff" d="M933.84,-92.5C942.4,-92.5 952.02,-92.5 960.72,-92.5"/>
<polygon fill="#63b8ff" stroke="#63b8ff" points="960.76,-96 970.76,-92.5 960.76,-89 960.76,-96"/>
</a>
</g>
</g>
<!-- Node17 -->
<g id="Node000017" class="node">
<title>Node17</title>
<g id="a_Node000017"><a xlink:href="expand_8c.html#a66cc7be396f0ef502a888b56eee2f4bf" target="_top" xlink:title=" ">
<polygon fill="white" stroke="#666666" points="935,-185 881,-185 881,-166 935,-166 935,-185"/>
<text text-anchor="middle" x="908" y="-173" font-family="Helvetica,sans-Serif" font-size="10.00">is_word</text>
</a>
</g>
</g>
<!-- Node16&#45;&gt;Node17 -->
<g id="edge17_Node000016_Node000017" class="edge">
<title>Node16&#45;&gt;Node17</title>
<g id="a_edge17_Node000016_Node000017"><a xlink:title=" ">
<path fill="none" stroke="#63b8ff" d="M845.27,-175.5C853.8,-175.5 862.49,-175.5 870.55,-175.5"/>
<polygon fill="#63b8ff" stroke="#63b8ff" points="870.72,-179 880.72,-175.5 870.72,-172 870.72,-179"/>
</a>
</g>
</g>
</g>
</svg>
