<?xml version="1.0" encoding="UTF-8" standalone="no"?>
<!DOCTYPE svg PUBLIC "-//W3C//DTD SVG 1.1//EN"
 "http://www.w3.org/Graphics/SVG/1.1/DTD/svg11.dtd">
<!-- Generated by graphviz version 2.43.0 (0)
 -->
<!-- Title: add_var_arg Pages: 1 -->
<svg width="948pt" height="427pt"
 viewBox="0.00 0.00 948.00 426.50" xmlns="http://www.w3.org/2000/svg" xmlns:xlink="http://www.w3.org/1999/xlink">
<g id="graph0" class="graph" transform="scale(1 1) rotate(0) translate(4 422.5)">
<title>add_var_arg</title>
<!-- Node1 -->
<g id="Node000001" class="node">
<title>Node1</title>
<g id="a_Node000001"><a xlink:title="Add a variable with multiple arguments to the dictionnary.">
<polygon fill="#999999" stroke="#666666" points="940,-214.5 863,-214.5 863,-195.5 940,-195.5 940,-214.5"/>
<text text-anchor="middle" x="901.5" y="-202.5" font-family="Helvetica,sans-Serif" font-size="10.00">add_var_arg</text>
</a>
</g>
</g>
<!-- Node2 -->
<g id="Node000002" class="node">
<title>Node2</title>
<g id="a_Node000002"><a xlink:href="io_8c.html#a8346ebcdde79020ca792f3d4d2d93ec0" target="_top" xlink:title="Gère options scripts et arguments.">
<polygon fill="white" stroke="#666666" points="720,-360.5 667,-360.5 667,-341.5 720,-341.5 720,-360.5"/>
<text text-anchor="middle" x="693.5" y="-348.5" font-family="Helvetica,sans-Serif" font-size="10.00">arg_file</text>
</a>
</g>
</g>
<!-- Node1&#45;&gt;Node2 -->
<g id="edge1_Node000001_Node000002" class="edge">
<title>Node1&#45;&gt;Node2</title>
<g id="a_edge1_Node000001_Node000002"><a xlink:title=" ">
<path fill="none" stroke="#63b8ff" d="M878.7,-220.45C836.11,-250.63 742.97,-316.65 708.07,-341.39"/>
<polygon fill="#63b8ff" stroke="#63b8ff" points="880.85,-223.22 886.98,-214.58 876.8,-217.51 880.85,-223.22"/>
</a>
</g>
</g>
<!-- Node4 -->
<g id="Node000004" class="node">
<title>Node4</title>
<g id="a_Node000004"><a xlink:href="exec_8c.html#a23babf893bbcd2f6126698a1a19b169f" target="_top" xlink:title="Execute funct with given arguments.">
<polygon fill="white" stroke="#666666" points="827,-195.5 762,-195.5 762,-176.5 827,-176.5 827,-195.5"/>
<text text-anchor="middle" x="794.5" y="-183.5" font-family="Helvetica,sans-Serif" font-size="10.00">exec_func</text>
</a>
</g>
</g>
<!-- Node1&#45;&gt;Node4 -->
<g id="edge3_Node000001_Node000004" class="edge">
<title>Node1&#45;&gt;Node4</title>
<g id="a_edge3_Node000001_Node000004"><a xlink:title=" ">
<path fill="none" stroke="#63b8ff" d="M852.86,-196.38C844.2,-194.81 835.37,-193.21 827.3,-191.75"/>
<polygon fill="#63b8ff" stroke="#63b8ff" points="852.43,-199.86 862.89,-198.19 853.67,-192.97 852.43,-199.86"/>
</a>
</g>
</g>
<!-- Node3 -->
<g id="Node000003" class="node">
<title>Node3</title>
<g id="a_Node000003"><a xlink:href="42sh_8c.html#a3c04138a5bfe5d72780bb7e82a18e627" target="_top" xlink:title=" ">
<polygon fill="white" stroke="#666666" points="387,-418.5 346,-418.5 346,-399.5 387,-399.5 387,-418.5"/>
<text text-anchor="middle" x="366.5" y="-406.5" font-family="Helvetica,sans-Serif" font-size="10.00">main</text>
</a>
</g>
</g>
<!-- Node2&#45;&gt;Node3 -->
<g id="edge2_Node000002_Node000003" class="edge">
<title>Node2&#45;&gt;Node3</title>
<g id="a_edge2_Node000002_Node000003"><a xlink:title=" ">
<path fill="none" stroke="#63b8ff" d="M657.14,-357.31C588.86,-369.5 440.89,-395.9 387.35,-405.46"/>
<polygon fill="#63b8ff" stroke="#63b8ff" points="657.77,-360.75 667,-355.55 656.54,-353.86 657.77,-360.75"/>
</a>
</g>
</g>
<!-- Node5 -->
<g id="Node000005" class="node">
<title>Node5</title>
<g id="a_Node000005"><a xlink:href="exec_8c.html#ae65edaa99b26b49d60c451157d38b34a" target="_top" xlink:title="Execute les commandes avec les args donnes.">
<polygon fill="white" stroke="#666666" points="726,-157.5 661,-157.5 661,-138.5 726,-138.5 726,-157.5"/>
<text text-anchor="middle" x="693.5" y="-145.5" font-family="Helvetica,sans-Serif" font-size="10.00">exec_cmd</text>
</a>
</g>
</g>
<!-- Node4&#45;&gt;Node5 -->
<g id="edge4_Node000004_Node000005" class="edge">
<title>Node4&#45;&gt;Node5</title>
<g id="a_edge4_Node000004_Node000005"><a xlink:title=" ">
<path fill="none" stroke="#63b8ff" d="M758.94,-172.74C745.95,-167.75 731.43,-162.18 719.47,-157.59"/>
<polygon fill="#63b8ff" stroke="#63b8ff" points="757.93,-176.1 768.52,-176.41 760.44,-169.56 757.93,-176.1"/>
</a>
</g>
</g>
<!-- Node6 -->
<g id="Node000006" class="node">
<title>Node6</title>
<g id="a_Node000006"><a xlink:href="ast__run_8c.html#aeb6878a59c6907e5669fc3cc428913d9" target="_top" xlink:title=" ">
<polygon fill="white" stroke="#666666" points="625,-157.5 546,-157.5 546,-138.5 625,-138.5 625,-157.5"/>
<text text-anchor="middle" x="585.5" y="-145.5" font-family="Helvetica,sans-Serif" font-size="10.00">ast_run_cmd</text>
</a>
</g>
</g>
<!-- Node5&#45;&gt;Node6 -->
<g id="edge5_Node000005_Node000006" class="edge">
<title>Node5&#45;&gt;Node6</title>
<g id="a_edge5_Node000005_Node000006"><a xlink:title=" ">
<path fill="none" stroke="#63b8ff" d="M650.92,-148C642.45,-148 633.58,-148 625.21,-148"/>
<polygon fill="#63b8ff" stroke="#63b8ff" points="650.98,-151.5 660.98,-148 650.98,-144.5 650.98,-151.5"/>
</a>
</g>
</g>
<!-- Node7 -->
<g id="Node000007" class="node">
<title>Node7</title>
<g id="a_Node000007"><a xlink:href="ast_8c.html#a572345b2707780bbbc5bbaacdca9c372" target="_top" xlink:title=" ">
<polygon fill="white" stroke="#666666" points="510,-189.5 457,-189.5 457,-170.5 510,-170.5 510,-189.5"/>
<text text-anchor="middle" x="483.5" y="-177.5" font-family="Helvetica,sans-Serif" font-size="10.00">run_ast</text>
</a>
</g>
</g>
<!-- Node6&#45;&gt;Node7 -->
<g id="edge6_Node000006_Node000007" class="edge">
<title>Node6&#45;&gt;Node7</title>
<g id="a_edge6_Node000006_Node000007"><a xlink:title=" ">
<path fill="none" stroke="#63b8ff" d="M545.16,-160.59C533.42,-164.35 520.85,-168.37 510.22,-171.77"/>
<polygon fill="#63b8ff" stroke="#63b8ff" points="546.31,-163.9 554.77,-157.51 544.18,-157.23 546.31,-163.9"/>
</a>
</g>
</g>
<!-- Node7&#45;&gt;Node3 -->
<g id="edge25_Node000007_Node000003" class="edge">
<title>Node7&#45;&gt;Node3</title>
<g id="a_edge25_Node000007_Node000003"><a xlink:title=" ">
<path fill="none" stroke="#63b8ff" d="M481.84,-199.98C479.48,-239.92 468.84,-330.49 421,-385 412.2,-395.02 398.4,-401.07 387.02,-404.59"/>
<polygon fill="#63b8ff" stroke="#63b8ff" points="485.34,-200.07 482.31,-189.92 478.34,-199.74 485.34,-200.07"/>
</a>
</g>
</g>
<!-- Node7&#45;&gt;Node4 -->
<g id="edge20_Node000007_Node000004" class="edge">
<title>Node7&#45;&gt;Node4</title>
<g id="a_edge20_Node000007_Node000004"><a xlink:title=" ">
<path fill="none" stroke="#63b8ff" d="M520.38,-180.7C581.3,-181.88 703.99,-184.26 761.88,-185.39"/>
<polygon fill="#63b8ff" stroke="#63b8ff" points="520.17,-177.19 510.1,-180.5 520.03,-184.19 520.17,-177.19"/>
</a>
</g>
</g>
<!-- Node8 -->
<g id="Node000008" class="node">
<title>Node8</title>
<g id="a_Node000008"><a xlink:href="ast__run_8c.html#a8a01fec616135007fc5b3968a101901b" target="_top" xlink:title=" ">
<polygon fill="white" stroke="#666666" points="412,-250.5 321,-250.5 321,-231.5 412,-231.5 412,-250.5"/>
<text text-anchor="middle" x="366.5" y="-238.5" font-family="Helvetica,sans-Serif" font-size="10.00">ast_run_and_or</text>
</a>
</g>
</g>
<!-- Node7&#45;&gt;Node8 -->
<g id="edge7_Node000007_Node000008" class="edge">
<title>Node7&#45;&gt;Node8</title>
<g id="a_edge7_Node000007_Node000008"><a xlink:title=" ">
<path fill="none" stroke="#63b8ff" d="M452.01,-195.29C442.44,-201.66 431.6,-208.65 421,-214 407,-221.06 389.6,-226.33 378.52,-231.48"/>
<polygon fill="#63b8ff" stroke="#63b8ff" points="454.04,-198.14 460.4,-189.67 450.15,-192.32 454.04,-198.14"/>
</a>
</g>
</g>
<!-- Node9 -->
<g id="Node000009" class="node">
<title>Node9</title>
<g id="a_Node000009"><a xlink:href="ast__run_8c.html#a9d83d4834a61ffe21eb77838d70ae173" target="_top" xlink:title=" ">
<polygon fill="white" stroke="#666666" points="402,-213.5 331,-213.5 331,-194.5 402,-194.5 402,-213.5"/>
<text text-anchor="middle" x="366.5" y="-201.5" font-family="Helvetica,sans-Serif" font-size="10.00">ast_run_for</text>
</a>
</g>
</g>
<!-- Node7&#45;&gt;Node9 -->
<g id="edge9_Node000007_Node000009" class="edge">
<title>Node7&#45;&gt;Node9</title>
<g id="a_edge9_Node000007_Node000009"><a xlink:title=" ">
<path fill="none" stroke="#63b8ff" d="M446.98,-181.12C427.6,-184.32 404.32,-189.51 387.97,-194.42"/>
<polygon fill="#63b8ff" stroke="#63b8ff" points="447.62,-184.57 456.98,-179.61 446.57,-177.64 447.62,-184.57"/>
</a>
</g>
</g>
<!-- Node10 -->
<g id="Node000010" class="node">
<title>Node10</title>
<g id="a_Node000010"><a xlink:href="ast__run_8c.html#a0a7138b1f2608ea36211c9b78988c248" target="_top" xlink:title=" ">
<polygon fill="white" stroke="#666666" points="399,-176.5 334,-176.5 334,-157.5 399,-157.5 399,-176.5"/>
<text text-anchor="middle" x="366.5" y="-164.5" font-family="Helvetica,sans-Serif" font-size="10.00">ast_run_if</text>
</a>
</g>
</g>
<!-- Node7&#45;&gt;Node10 -->
<g id="edge11_Node000007_Node000010" class="edge">
<title>Node7&#45;&gt;Node10</title>
<g id="a_edge11_Node000007_Node000010"><a xlink:title=" ">
<path fill="none" stroke="#63b8ff" d="M446.86,-169.67C431.59,-167.28 413.9,-165.35 399.11,-164.47"/>
<polygon fill="#63b8ff" stroke="#63b8ff" points="446.53,-173.17 456.98,-171.39 447.71,-166.27 446.53,-173.17"/>
</a>
</g>
</g>
<!-- Node11 -->
<g id="Node000011" class="node">
<title>Node11</title>
<g id="a_Node000011"><a xlink:href="ast__run_8c.html#ae25cd3ced8abafd76110dba8852a6b87" target="_top" xlink:title=" ">
<polygon fill="white" stroke="#666666" points="403,-121.5 330,-121.5 330,-102.5 403,-102.5 403,-121.5"/>
<text text-anchor="middle" x="366.5" y="-109.5" font-family="Helvetica,sans-Serif" font-size="10.00">ast_run_list</text>
</a>
</g>
</g>
<!-- Node7&#45;&gt;Node11 -->
<g id="edge13_Node000007_Node000011" class="edge">
<title>Node7&#45;&gt;Node11</title>
<g id="a_edge13_Node000007_Node000011"><a xlink:title=" ">
<path fill="none" stroke="#63b8ff" d="M464.56,-164.33C445.48,-151.06 415.13,-132.88 393.45,-121.59"/>
<polygon fill="#63b8ff" stroke="#63b8ff" points="462.54,-167.19 472.7,-170.22 466.65,-161.52 462.54,-167.19"/>
</a>
</g>
</g>
<!-- Node12 -->
<g id="Node000012" class="node">
<title>Node12</title>
<g id="a_Node000012"><a xlink:href="ast__run_8c.html#a536f37ba9bffcd2099fef668656181e0" target="_top" xlink:title=" ">
<polygon fill="white" stroke="#666666" points="406,-84.5 327,-84.5 327,-65.5 406,-65.5 406,-84.5"/>
<text text-anchor="middle" x="366.5" y="-72.5" font-family="Helvetica,sans-Serif" font-size="10.00">ast_run_loop</text>
</a>
</g>
</g>
<!-- Node7&#45;&gt;Node12 -->
<g id="edge16_Node000007_Node000012" class="edge">
<title>Node7&#45;&gt;Node12</title>
<g id="a_edge16_Node000007_Node000012"><a xlink:title=" ">
<path fill="none" stroke="#63b8ff" d="M476.45,-160.77C467.17,-138.65 447.64,-103.84 421,-84 416.52,-80.66 411.38,-77.92 406.1,-75.77"/>
<polygon fill="#63b8ff" stroke="#63b8ff" points="473.23,-162.14 480.08,-170.22 479.76,-159.63 473.23,-162.14"/>
</a>
</g>
</g>
<!-- Node13 -->
<g id="Node000013" class="node">
<title>Node13</title>
<g id="a_Node000013"><a xlink:href="ast__run_8c.html#aa3e6a973e744d748ee415840596beb53" target="_top" xlink:title=" ">
<polygon fill="white" stroke="#666666" points="421,-47.5 312,-47.5 312,-28.5 421,-28.5 421,-47.5"/>
<text text-anchor="middle" x="366.5" y="-35.5" font-family="Helvetica,sans-Serif" font-size="10.00">ast_run_shell_redir</text>
</a>
</g>
</g>
<!-- Node7&#45;&gt;Node13 -->
<g id="edge18_Node000007_Node000013" class="edge">
<title>Node7&#45;&gt;Node13</title>
<g id="a_edge18_Node000007_Node000013"><a xlink:title=" ">
<path fill="none" stroke="#63b8ff" d="M479.28,-160.53C472.78,-131.33 455.69,-77.61 421.46,-47.4"/>
<polygon fill="#63b8ff" stroke="#63b8ff" points="475.87,-161.31 481.27,-170.42 482.73,-159.93 475.87,-161.31"/>
</a>
</g>
</g>
<!-- Node14 -->
<g id="Node000014" class="node">
<title>Node14</title>
<g id="a_Node000014"><a xlink:href="exec_8c.html#ab743cb88e12e9b922050925fd2075e36" target="_top" xlink:title="Execute a pipeline of commands.">
<polygon fill="white" stroke="#666666" points="399,-324.5 334,-324.5 334,-305.5 399,-305.5 399,-324.5"/>
<text text-anchor="middle" x="366.5" y="-312.5" font-family="Helvetica,sans-Serif" font-size="10.00">exec_pipe</text>
</a>
</g>
</g>
<!-- Node7&#45;&gt;Node14 -->
<g id="edge21_Node000007_Node000014" class="edge">
<title>Node7&#45;&gt;Node14</title>
<g id="a_edge21_Node000007_Node000014"><a xlink:title=" ">
<path fill="none" stroke="#63b8ff" d="M477.23,-199.52C469.26,-225.39 451.72,-270.82 421,-297 414.73,-302.34 406.82,-306.11 399.01,-308.77"/>
<polygon fill="#63b8ff" stroke="#63b8ff" points="480.64,-200.32 480.07,-189.74 473.92,-198.37 480.64,-200.32"/>
</a>
</g>
</g>
<!-- Node16 -->
<g id="Node000016" class="node">
<title>Node16</title>
<g id="a_Node000016"><a xlink:href="dot_8c.html#a17477ee2b0f1b8b9306566c990d15b35" target="_top" xlink:title="Main loop of dot builtin.">
<polygon fill="white" stroke="#666666" points="400.5,-287.5 332.5,-287.5 332.5,-268.5 400.5,-268.5 400.5,-287.5"/>
<text text-anchor="middle" x="366.5" y="-275.5" font-family="Helvetica,sans-Serif" font-size="10.00">main_loop</text>
</a>
</g>
</g>
<!-- Node7&#45;&gt;Node16 -->
<g id="edge26_Node000007_Node000016" class="edge">
<title>Node7&#45;&gt;Node16</title>
<g id="a_edge26_Node000007_Node000016"><a xlink:title=" ">
<path fill="none" stroke="#63b8ff" d="M472.56,-198.62C462.01,-216.72 443.74,-243.77 421,-260 414.94,-264.33 407.76,-267.67 400.66,-270.24"/>
<polygon fill="#63b8ff" stroke="#63b8ff" points="475.77,-200.05 477.6,-189.62 469.66,-196.63 475.77,-200.05"/>
</a>
</g>
</g>
<!-- Node8&#45;&gt;Node7 -->
<g id="edge8_Node000008_Node000007" class="edge">
<title>Node8&#45;&gt;Node7</title>
<g id="a_edge8_Node000008_Node000007"><a xlink:title=" ">
<path fill="none" stroke="#63b8ff" d="M421.49,-231.26C447.95,-217.03 467.81,-200.92 477.08,-189.81"/>
<polygon fill="#63b8ff" stroke="#63b8ff" points="419.56,-228.31 412.27,-236 422.76,-234.54 419.56,-228.31"/>
</a>
</g>
</g>
<!-- Node9&#45;&gt;Node7 -->
<g id="edge10_Node000009_Node000007" class="edge">
<title>Node9&#45;&gt;Node7</title>
<g id="a_edge10_Node000009_Node000007"><a xlink:title=" ">
<path fill="none" stroke="#63b8ff" d="M411.97,-201.31C429.3,-198.12 448.3,-193.72 462.21,-189.53"/>
<polygon fill="#63b8ff" stroke="#63b8ff" points="411.27,-197.88 402.01,-203.04 412.47,-204.78 411.27,-197.88"/>
</a>
</g>
</g>
<!-- Node10&#45;&gt;Node7 -->
<g id="edge12_Node000010_Node000007" class="edge">
<title>Node10&#45;&gt;Node7</title>
<g id="a_edge12_Node000010_Node000007"><a xlink:title=" ">
<path fill="none" stroke="#63b8ff" d="M408.55,-178.14C424.71,-180.47 442.76,-182.25 456.98,-182.83"/>
<polygon fill="#63b8ff" stroke="#63b8ff" points="408.69,-174.62 398.27,-176.53 407.61,-181.53 408.69,-174.62"/>
</a>
</g>
</g>
<!-- Node11&#45;&gt;Node7 -->
<g id="edge15_Node000011_Node000007" class="edge">
<title>Node11&#45;&gt;Node7</title>
<g id="a_edge15_Node000011_Node000007"><a xlink:title=" ">
<path fill="none" stroke="#63b8ff" d="M385.14,-127.46C404.32,-140.84 435.16,-159.3 456.98,-170.63"/>
<polygon fill="#63b8ff" stroke="#63b8ff" points="387.13,-124.58 376.99,-121.54 383.02,-130.24 387.13,-124.58"/>
</a>
</g>
</g>
<!-- Node11&#45;&gt;Node11 -->
<g id="edge14_Node000011_Node000011" class="edge">
<title>Node11&#45;&gt;Node11</title>
<g id="a_edge14_Node000011_Node000011"><a xlink:title=" ">
<path fill="none" stroke="#63b8ff" d="M387.98,-131.05C386.55,-135.88 379.39,-139.5 366.5,-139.5 345.88,-139.5 339.92,-130.23 348.62,-121.58"/>
<polygon fill="#63b8ff" stroke="#63b8ff" points="391.2,-129.69 384.38,-121.58 384.66,-132.17 391.2,-129.69"/>
</a>
</g>
</g>
<!-- Node12&#45;&gt;Node7 -->
<g id="edge17_Node000012_Node000007" class="edge">
<title>Node12&#45;&gt;Node7</title>
<g id="a_edge17_Node000012_Node000007"><a xlink:title=" ">
<path fill="none" stroke="#63b8ff" d="M391.46,-87.9C401.29,-91.35 412.37,-95.57 421,-102 446.52,-121 465.51,-153.74 475.22,-170.45"/>
<polygon fill="#63b8ff" stroke="#63b8ff" points="392.41,-84.53 381.82,-84.54 390.11,-91.14 392.41,-84.53"/>
</a>
</g>
</g>
<!-- Node13&#45;&gt;Node7 -->
<g id="edge19_Node000013_Node000007" class="edge">
<title>Node13&#45;&gt;Node7</title>
<g id="a_edge19_Node000013_Node000007"><a xlink:title=" ">
<path fill="none" stroke="#63b8ff" d="M393.18,-50.68C402.78,-53.96 413.22,-58.21 421,-65 455.22,-94.86 472.43,-148.22 479.1,-170.48"/>
<polygon fill="#63b8ff" stroke="#63b8ff" points="394.23,-47.34 383.64,-47.55 392.05,-53.99 394.23,-47.34"/>
</a>
</g>
</g>
<!-- Node14&#45;&gt;Node14 -->
<g id="edge24_Node000014_Node000014" class="edge">
<title>Node14&#45;&gt;Node14</title>
<g id="a_edge24_Node000014_Node000014"><a xlink:title=" ">
<path fill="none" stroke="#63b8ff" d="M387.98,-334.05C386.55,-338.88 379.39,-342.5 366.5,-342.5 345.88,-342.5 339.92,-333.23 348.62,-324.58"/>
<polygon fill="#63b8ff" stroke="#63b8ff" points="391.2,-332.69 384.38,-324.58 384.66,-335.17 391.2,-332.69"/>
</a>
</g>
</g>
<!-- Node15 -->
<g id="Node000015" class="node">
<title>Node15</title>
<g id="a_Node000015"><a xlink:href="ast__run_8c.html#a24d0223822f7b635628199085c3283be" target="_top" xlink:title=" ">
<polygon fill="white" stroke="#666666" points="276,-352.5 197,-352.5 197,-333.5 276,-333.5 276,-352.5"/>
<text text-anchor="middle" x="236.5" y="-340.5" font-family="Helvetica,sans-Serif" font-size="10.00">ast_run_pipe</text>
</a>
</g>
</g>
<!-- Node14&#45;&gt;Node15 -->
<g id="edge22_Node000014_Node000015" class="edge">
<title>Node14&#45;&gt;Node15</title>
<g id="a_edge22_Node000014_Node000015"><a xlink:title=" ">
<path fill="none" stroke="#63b8ff" d="M324.06,-324.06C308.65,-327.44 291.23,-331.25 276.08,-334.56"/>
<polygon fill="#63b8ff" stroke="#63b8ff" points="324.84,-327.48 333.86,-321.92 323.34,-320.64 324.84,-327.48"/>
</a>
</g>
</g>
<!-- Node15&#45;&gt;Node7 -->
<g id="edge23_Node000015_Node000007" class="edge">
<title>Node15&#45;&gt;Node7</title>
<g id="a_edge23_Node000015_Node000007"><a xlink:title=" ">
<path fill="none" stroke="#63b8ff" d="M270.57,-355.89C310.15,-368.98 376.62,-383.26 421,-352 476.22,-313.1 482.13,-219.86 482.55,-189.64"/>
<polygon fill="#63b8ff" stroke="#63b8ff" points="271.48,-352.5 260.88,-352.53 269.19,-359.12 271.48,-352.5"/>
</a>
</g>
</g>
<!-- Node17 -->
<g id="Node000017" class="node">
<title>Node17</title>
<g id="a_Node000017"><a xlink:href="dot_8c.html#a713938d3c6ee343132c429642048bcf6" target="_top" xlink:title="Execute the dot builtin cmd.">
<polygon fill="white" stroke="#666666" points="258.5,-246.5 214.5,-246.5 214.5,-227.5 258.5,-227.5 258.5,-246.5"/>
<text text-anchor="middle" x="236.5" y="-234.5" font-family="Helvetica,sans-Serif" font-size="10.00">dot_b</text>
</a>
</g>
</g>
<!-- Node16&#45;&gt;Node17 -->
<g id="edge27_Node000016_Node000017" class="edge">
<title>Node16&#45;&gt;Node17</title>
<g id="a_edge27_Node000016_Node000017"><a xlink:title=" ">
<path fill="none" stroke="#63b8ff" d="M326.27,-265.44C303.99,-258.3 276.97,-249.64 258.64,-243.77"/>
<polygon fill="#63b8ff" stroke="#63b8ff" points="325.22,-268.77 335.81,-268.49 327.36,-262.11 325.22,-268.77"/>
</a>
</g>
</g>
<!-- Node18 -->
<g id="Node000018" class="node">
<title>Node18</title>
<g id="a_Node000018"><a xlink:href="exec_8c.html#abaeb177587c7eec6a064b35bb8399cae" target="_top" xlink:title="Execute builtin cmd with given args.">
<polygon fill="white" stroke="#666666" points="161,-197.5 86,-197.5 86,-178.5 161,-178.5 161,-197.5"/>
<text text-anchor="middle" x="123.5" y="-185.5" font-family="Helvetica,sans-Serif" font-size="10.00">exec_builtin</text>
</a>
</g>
</g>
<!-- Node17&#45;&gt;Node18 -->
<g id="edge28_Node000017_Node000018" class="edge">
<title>Node17&#45;&gt;Node18</title>
<g id="a_edge28_Node000017_Node000018"><a xlink:title=" ">
<path fill="none" stroke="#63b8ff" d="M205.12,-223.59C186.5,-215.37 163.11,-205.04 146.32,-197.63"/>
<polygon fill="#63b8ff" stroke="#63b8ff" points="203.8,-226.83 214.36,-227.67 206.63,-220.43 203.8,-226.83"/>
</a>
</g>
</g>
<!-- Node19 -->
<g id="Node000019" class="node">
<title>Node19</title>
<g id="a_Node000019"><a xlink:href="exec_8c.html#a287d81b4658832f192750310e2925917" target="_top" xlink:title="Execute the builtin command with given args.">
<polygon fill="white" stroke="#666666" points="50,-148.5 0,-148.5 0,-129.5 50,-129.5 50,-148.5"/>
<text text-anchor="middle" x="25" y="-136.5" font-family="Helvetica,sans-Serif" font-size="10.00">exec_b</text>
</a>
</g>
</g>
<!-- Node18&#45;&gt;Node19 -->
<g id="edge29_Node000018_Node000019" class="edge">
<title>Node18&#45;&gt;Node19</title>
<g id="a_edge29_Node000018_Node000019"><a xlink:title=" ">
<path fill="none" stroke="#63b8ff" d="M94.11,-173.58C78.29,-165.55 59.03,-155.77 45.03,-148.66"/>
<polygon fill="#63b8ff" stroke="#63b8ff" points="92.93,-176.91 103.43,-178.32 96.1,-170.67 92.93,-176.91"/>
</a>
</g>
</g>
<!-- Node19&#45;&gt;Node5 -->
<g id="edge30_Node000019_Node000005" class="edge">
<title>Node19&#45;&gt;Node5</title>
<g id="a_edge30_Node000019_Node000005"><a xlink:title=" ">
<path fill="none" stroke="#63b8ff" d="M39.59,-121.42C70.19,-84.03 148.62,0 235.5,0 484.5,0 484.5,0 484.5,0 580.23,0 662.49,-105.36 685.86,-138.29"/>
<polygon fill="#63b8ff" stroke="#63b8ff" points="36.69,-119.45 33.18,-129.45 42.16,-123.82 36.69,-119.45"/>
</a>
</g>
</g>
</g>
</svg>
