<?xml version="1.0" encoding="UTF-8" standalone="no"?>
<!DOCTYPE svg PUBLIC "-//W3C//DTD SVG 1.1//EN"
 "http://www.w3.org/Graphics/SVG/1.1/DTD/svg11.dtd">
<!-- Generated by graphviz version 2.43.0 (0)
 -->
<!-- Title: src/expand/hashmap.c Pages: 1 -->
<svg width="720pt" height="247pt"
 viewBox="0.00 0.00 719.83 247.00" xmlns="http://www.w3.org/2000/svg" xmlns:xlink="http://www.w3.org/1999/xlink">
<g id="graph0" class="graph" transform="scale(1 1) rotate(0) translate(4 243)">
<title>src/expand/hashmap.c</title>
<!-- Node1 -->
<g id="Node000001" class="node">
<title>Node1</title>
<g id="a_Node000001"><a xlink:title=" ">
<polygon fill="#999999" stroke="#666666" points="430,-239 304,-239 304,-220 430,-220 430,-239"/>
<text text-anchor="middle" x="367" y="-227" font-family="Helvetica,sans-Serif" font-size="10.00">src/expand/hashmap.c</text>
</a>
</g>
</g>
<!-- Node2 -->
<g id="Node000002" class="node">
<title>Node2</title>
<g id="a_Node000002"><a xlink:title=" ">
<polygon fill="#e0e0e0" stroke="#999999" points="46,-184 0,-184 0,-165 46,-165 46,-184"/>
<text text-anchor="middle" x="23" y="-172" font-family="Helvetica,sans-Serif" font-size="10.00">pwd.h</text>
</a>
</g>
</g>
<!-- Node1&#45;&gt;Node2 -->
<g id="edge1_Node000001_Node000002" class="edge">
<title>Node1&#45;&gt;Node2</title>
<g id="a_edge1_Node000001_Node000002"><a xlink:title=" ">
<path fill="none" stroke="#63b8ff" d="M303.88,-221.71C242.81,-214.64 147.51,-202.3 56.3,-184.06"/>
<polygon fill="#63b8ff" stroke="#63b8ff" points="56.84,-180.6 46.34,-182.04 55.45,-187.46 56.84,-180.6"/>
</a>
</g>
</g>
<!-- Node3 -->
<g id="Node000003" class="node">
<title>Node3</title>
<g id="a_Node000003"><a xlink:title=" ">
<polygon fill="#e0e0e0" stroke="#999999" points="120,-184 64,-184 64,-165 120,-165 120,-184"/>
<text text-anchor="middle" x="92" y="-172" font-family="Helvetica,sans-Serif" font-size="10.00">stddef.h</text>
</a>
</g>
</g>
<!-- Node1&#45;&gt;Node3 -->
<g id="edge2_Node000001_Node000003" class="edge">
<title>Node1&#45;&gt;Node3</title>
<g id="a_edge2_Node000001_Node000003"><a xlink:title=" ">
<path fill="none" stroke="#63b8ff" d="M321.43,-219.95C274.44,-211.1 199.06,-196.8 134,-184 132.73,-183.75 131.43,-183.49 130.13,-183.23"/>
<polygon fill="#63b8ff" stroke="#63b8ff" points="130.5,-179.74 120.01,-181.21 129.13,-186.6 130.5,-179.74"/>
</a>
</g>
</g>
<!-- Node4 -->
<g id="Node000004" class="node">
<title>Node4</title>
<g id="a_Node000004"><a xlink:title=" ">
<polygon fill="#e0e0e0" stroke="#999999" points="642,-19 592,-19 592,0 642,0 642,-19"/>
<text text-anchor="middle" x="617" y="-7" font-family="Helvetica,sans-Serif" font-size="10.00">stdio.h</text>
</a>
</g>
</g>
<!-- Node1&#45;&gt;Node4 -->
<g id="edge3_Node000001_Node000004" class="edge">
<title>Node1&#45;&gt;Node4</title>
<g id="a_edge3_Node000001_Node000004"><a xlink:title=" ">
<path fill="none" stroke="#63b8ff" d="M430.27,-229.44C516.45,-229.22 663.93,-222.95 698,-184 741.15,-134.66 669.77,-58.39 634.69,-25.95"/>
<polygon fill="#63b8ff" stroke="#63b8ff" points="636.8,-23.14 627.03,-19.03 632.11,-28.33 636.8,-23.14"/>
</a>
</g>
</g>
<!-- Node5 -->
<g id="Node000005" class="node">
<title>Node5</title>
<g id="a_Node000005"><a xlink:title=" ">
<polygon fill="#e0e0e0" stroke="#999999" points="208.5,-129 155.5,-129 155.5,-110 208.5,-110 208.5,-129"/>
<text text-anchor="middle" x="182" y="-117" font-family="Helvetica,sans-Serif" font-size="10.00">stdlib.h</text>
</a>
</g>
</g>
<!-- Node1&#45;&gt;Node5 -->
<g id="edge4_Node000001_Node000005" class="edge">
<title>Node1&#45;&gt;Node5</title>
<g id="a_edge4_Node000001_Node000005"><a xlink:title=" ">
<path fill="none" stroke="#63b8ff" d="M303.94,-222.97C251.92,-216.94 184,-205.19 167,-184 156.52,-170.93 163.15,-151.77 170.62,-137.92"/>
<polygon fill="#63b8ff" stroke="#63b8ff" points="173.64,-139.7 175.73,-129.32 167.62,-136.13 173.64,-139.7"/>
</a>
</g>
</g>
<!-- Node6 -->
<g id="Node000006" class="node">
<title>Node6</title>
<g id="a_Node000006"><a xlink:title=" ">
<polygon fill="#e0e0e0" stroke="#999999" points="324.5,-184 271.5,-184 271.5,-165 324.5,-165 324.5,-184"/>
<text text-anchor="middle" x="298" y="-172" font-family="Helvetica,sans-Serif" font-size="10.00">string.h</text>
</a>
</g>
</g>
<!-- Node1&#45;&gt;Node6 -->
<g id="edge5_Node000001_Node000006" class="edge">
<title>Node1&#45;&gt;Node6</title>
<g id="a_edge5_Node000001_Node000006"><a xlink:title=" ">
<path fill="none" stroke="#63b8ff" d="M355.91,-219.98C345.51,-212 329.74,-199.88 317.28,-190.31"/>
<polygon fill="#63b8ff" stroke="#63b8ff" points="319.35,-187.49 309.29,-184.17 315.09,-193.04 319.35,-187.49"/>
</a>
</g>
</g>
<!-- Node7 -->
<g id="Node000007" class="node">
<title>Node7</title>
<g id="a_Node000007"><a xlink:title=" ">
<polygon fill="#e0e0e0" stroke="#999999" points="391,-184 343,-184 343,-165 391,-165 391,-184"/>
<text text-anchor="middle" x="367" y="-172" font-family="Helvetica,sans-Serif" font-size="10.00">time.h</text>
</a>
</g>
</g>
<!-- Node1&#45;&gt;Node7 -->
<g id="edge6_Node000001_Node000007" class="edge">
<title>Node1&#45;&gt;Node7</title>
<g id="a_edge6_Node000001_Node000007"><a xlink:title=" ">
<path fill="none" stroke="#63b8ff" d="M367,-219.75C367,-212.8 367,-202.85 367,-194.13"/>
<polygon fill="#63b8ff" stroke="#63b8ff" points="370.5,-194.09 367,-184.09 363.5,-194.09 370.5,-194.09"/>
</a>
</g>
</g>
<!-- Node8 -->
<g id="Node000008" class="node">
<title>Node8</title>
<g id="a_Node000008"><a xlink:title=" ">
<polygon fill="#e0e0e0" stroke="#999999" points="465,-184 409,-184 409,-165 465,-165 465,-184"/>
<text text-anchor="middle" x="437" y="-172" font-family="Helvetica,sans-Serif" font-size="10.00">unistd.h</text>
</a>
</g>
</g>
<!-- Node1&#45;&gt;Node8 -->
<g id="edge7_Node000001_Node000008" class="edge">
<title>Node1&#45;&gt;Node8</title>
<g id="a_edge7_Node000001_Node000008"><a xlink:title=" ">
<path fill="none" stroke="#63b8ff" d="M378.25,-219.98C388.8,-212 404.8,-199.88 417.44,-190.31"/>
<polygon fill="#63b8ff" stroke="#63b8ff" points="419.69,-193 425.55,-184.17 415.46,-187.42 419.69,-193"/>
</a>
</g>
</g>
<!-- Node9 -->
<g id="Node000009" class="node">
<title>Node9</title>
<g id="a_Node000009"><a xlink:href="ast_8h.html" target="_top" xlink:title=" ">
<polygon fill="white" stroke="#666666" points="551,-184 483,-184 483,-165 551,-165 551,-184"/>
<text text-anchor="middle" x="517" y="-172" font-family="Helvetica,sans-Serif" font-size="10.00">../ast/ast.h</text>
</a>
</g>
</g>
<!-- Node1&#45;&gt;Node9 -->
<g id="edge8_Node000001_Node000009" class="edge">
<title>Node1&#45;&gt;Node9</title>
<g id="a_edge8_Node000001_Node000009"><a xlink:title=" ">
<path fill="none" stroke="#63b8ff" d="M391.1,-219.98C415.88,-211.23 454.7,-197.51 482.69,-187.62"/>
<polygon fill="#63b8ff" stroke="#63b8ff" points="484.2,-190.8 492.46,-184.17 481.87,-184.2 484.2,-190.8"/>
</a>
</g>
</g>
<!-- Node10 -->
<g id="Node000010" class="node">
<title>Node10</title>
<g id="a_Node000010"><a xlink:href="expand_8h.html" target="_top" xlink:title=" ">
<polygon fill="white" stroke="#666666" points="655,-129 545,-129 545,-110 655,-110 655,-129"/>
<text text-anchor="middle" x="600" y="-117" font-family="Helvetica,sans-Serif" font-size="10.00">../expand/expand.h</text>
</a>
</g>
</g>
<!-- Node1&#45;&gt;Node10 -->
<g id="edge18_Node000001_Node000010" class="edge">
<title>Node1&#45;&gt;Node10</title>
<g id="a_edge18_Node000001_Node000010"><a xlink:title=" ">
<path fill="none" stroke="#63b8ff" d="M430.23,-226.09C470.55,-221.79 522.16,-210.88 560,-184 575.73,-172.83 586.64,-153.34 593.05,-138.89"/>
<polygon fill="#63b8ff" stroke="#63b8ff" points="596.37,-140.03 596.93,-129.45 589.89,-137.37 596.37,-140.03"/>
</a>
</g>
</g>
<!-- Node14 -->
<g id="Node000014" class="node">
<title>Node14</title>
<g id="a_Node000014"><a xlink:href="hash_8h.html" target="_top" xlink:title=" ">
<polygon fill="white" stroke="#666666" points="689,-184 607,-184 607,-165 689,-165 689,-184"/>
<text text-anchor="middle" x="648" y="-172" font-family="Helvetica,sans-Serif" font-size="10.00">../utils/hash.h</text>
</a>
</g>
</g>
<!-- Node1&#45;&gt;Node14 -->
<g id="edge15_Node000001_Node000014" class="edge">
<title>Node1&#45;&gt;Node14</title>
<g id="a_edge15_Node000001_Node000014"><a xlink:title=" ">
<path fill="none" stroke="#63b8ff" d="M412.15,-219.98C462.58,-210.47 544.04,-195.11 596.8,-185.16"/>
<polygon fill="#63b8ff" stroke="#63b8ff" points="597.45,-188.6 606.63,-183.3 596.15,-181.72 597.45,-188.6"/>
</a>
</g>
</g>
<!-- Node15 -->
<g id="Node000015" class="node">
<title>Node15</title>
<g id="a_Node000015"><a xlink:href="itoa_8h.html" target="_top" xlink:title=" ">
<polygon fill="white" stroke="#666666" points="253.5,-184 176.5,-184 176.5,-165 253.5,-165 253.5,-184"/>
<text text-anchor="middle" x="215" y="-172" font-family="Helvetica,sans-Serif" font-size="10.00">../utils/itoa.h</text>
</a>
</g>
</g>
<!-- Node1&#45;&gt;Node15 -->
<g id="edge16_Node000001_Node000015" class="edge">
<title>Node1&#45;&gt;Node15</title>
<g id="a_edge16_Node000001_Node000015"><a xlink:title=" ">
<path fill="none" stroke="#63b8ff" d="M342.58,-219.98C317.28,-211.16 277.55,-197.31 249.14,-187.41"/>
<polygon fill="#63b8ff" stroke="#63b8ff" points="250.21,-184.07 239.61,-184.08 247.9,-190.68 250.21,-184.07"/>
</a>
</g>
</g>
<!-- Node9&#45;&gt;Node10 -->
<g id="edge9_Node000009_Node000010" class="edge">
<title>Node9&#45;&gt;Node10</title>
<g id="a_edge9_Node000009_Node000010"><a xlink:title=" ">
<path fill="none" stroke="#63b8ff" d="M530.34,-164.98C543.09,-156.84 562.55,-144.41 577.67,-134.76"/>
<polygon fill="#63b8ff" stroke="#63b8ff" points="579.88,-137.5 586.42,-129.17 576.11,-131.6 579.88,-137.5"/>
</a>
</g>
</g>
<!-- Node12 -->
<g id="Node000012" class="node">
<title>Node12</title>
<g id="a_Node000012"><a xlink:href="redir_8h.html" target="_top" xlink:title=" ">
<polygon fill="white" stroke="#666666" points="489,-129 409,-129 409,-110 489,-110 489,-129"/>
<text text-anchor="middle" x="449" y="-117" font-family="Helvetica,sans-Serif" font-size="10.00">../utils/redir.h</text>
</a>
</g>
</g>
<!-- Node9&#45;&gt;Node12 -->
<g id="edge11_Node000009_Node000012" class="edge">
<title>Node9&#45;&gt;Node12</title>
<g id="a_edge11_Node000009_Node000012"><a xlink:title=" ">
<path fill="none" stroke="#63b8ff" d="M506.07,-164.98C495.92,-157.07 480.58,-145.11 468.35,-135.58"/>
<polygon fill="#63b8ff" stroke="#63b8ff" points="470.16,-132.56 460.12,-129.17 465.86,-138.08 470.16,-132.56"/>
</a>
</g>
</g>
<!-- Node13 -->
<g id="Node000013" class="node">
<title>Node13</title>
<g id="a_Node000013"><a xlink:href="token_8h.html" target="_top" xlink:title=" ">
<polygon fill="white" stroke="#666666" points="543.5,-74 490.5,-74 490.5,-55 543.5,-55 543.5,-74"/>
<text text-anchor="middle" x="517" y="-62" font-family="Helvetica,sans-Serif" font-size="10.00">token.h</text>
</a>
</g>
</g>
<!-- Node9&#45;&gt;Node13 -->
<g id="edge14_Node000009_Node000013" class="edge">
<title>Node9&#45;&gt;Node13</title>
<g id="a_edge14_Node000009_Node000013"><a xlink:title=" ">
<path fill="none" stroke="#63b8ff" d="M517,-164.66C517,-147.17 517,-107.8 517,-84.27"/>
<polygon fill="#63b8ff" stroke="#63b8ff" points="520.5,-84.16 517,-74.16 513.5,-84.16 520.5,-84.16"/>
</a>
</g>
</g>
<!-- Node11 -->
<g id="Node000011" class="node">
<title>Node11</title>
<g id="a_Node000011"><a xlink:href="hashmap_8h.html" target="_top" xlink:title=" ">
<polygon fill="white" stroke="#666666" points="635.5,-74 564.5,-74 564.5,-55 635.5,-55 635.5,-74"/>
<text text-anchor="middle" x="600" y="-62" font-family="Helvetica,sans-Serif" font-size="10.00">hashmap.h</text>
</a>
</g>
</g>
<!-- Node10&#45;&gt;Node11 -->
<g id="edge10_Node000010_Node000011" class="edge">
<title>Node10&#45;&gt;Node11</title>
<g id="a_edge10_Node000010_Node000011"><a xlink:title=" ">
<path fill="none" stroke="#63b8ff" d="M600,-109.75C600,-102.8 600,-92.85 600,-84.13"/>
<polygon fill="#63b8ff" stroke="#63b8ff" points="603.5,-84.09 600,-74.09 596.5,-84.09 603.5,-84.09"/>
</a>
</g>
</g>
<!-- Node12&#45;&gt;Node13 -->
<g id="edge12_Node000012_Node000013" class="edge">
<title>Node12&#45;&gt;Node13</title>
<g id="a_edge12_Node000012_Node000013"><a xlink:title=" ">
<path fill="none" stroke="#63b8ff" d="M459.93,-109.98C470.08,-102.07 485.42,-90.11 497.65,-80.58"/>
<polygon fill="#63b8ff" stroke="#63b8ff" points="500.14,-83.08 505.88,-74.17 495.84,-77.56 500.14,-83.08"/>
</a>
</g>
</g>
<!-- Node13&#45;&gt;Node4 -->
<g id="edge13_Node000013_Node000004" class="edge">
<title>Node13&#45;&gt;Node4</title>
<g id="a_edge13_Node000013_Node000004"><a xlink:title=" ">
<path fill="none" stroke="#63b8ff" d="M533.07,-54.98C548.86,-46.61 573.22,-33.7 591.63,-23.95"/>
<polygon fill="#63b8ff" stroke="#63b8ff" points="593.44,-26.95 600.64,-19.17 590.17,-20.76 593.44,-26.95"/>
</a>
</g>
</g>
<!-- Node15&#45;&gt;Node5 -->
<g id="edge17_Node000015_Node000005" class="edge">
<title>Node15&#45;&gt;Node5</title>
<g id="a_edge17_Node000015_Node000005"><a xlink:title=" ">
<path fill="none" stroke="#63b8ff" d="M209.55,-164.75C204.99,-157.42 198.33,-146.73 192.71,-137.7"/>
<polygon fill="#63b8ff" stroke="#63b8ff" points="195.6,-135.73 187.35,-129.09 189.66,-139.43 195.6,-135.73"/>
</a>
</g>
</g>
</g>
</svg>
