<?xml version="1.0" encoding="UTF-8" standalone="no"?>
<!DOCTYPE svg PUBLIC "-//W3C//DTD SVG 1.1//EN"
 "http://www.w3.org/Graphics/SVG/1.1/DTD/svg11.dtd">
<!-- Generated by graphviz version 2.43.0 (0)
 -->
<!-- Title: free_var Pages: 1 -->
<svg width="1041pt" height="427pt"
 viewBox="0.00 0.00 1041.00 426.50" xmlns="http://www.w3.org/2000/svg" xmlns:xlink="http://www.w3.org/1999/xlink">
<g id="graph0" class="graph" transform="scale(1 1) rotate(0) translate(4 422.5)">
<title>free_var</title>
<!-- Node1 -->
<g id="Node000001" class="node">
<title>Node1</title>
<g id="a_Node000001"><a xlink:title=" ">
<polygon fill="#999999" stroke="#666666" points="1033,-38 976,-38 976,-19 1033,-19 1033,-38"/>
<text text-anchor="middle" x="1004.5" y="-26" font-family="Helvetica,sans-Serif" font-size="10.00">free_var</text>
</a>
</g>
</g>
<!-- Node2 -->
<g id="Node000002" class="node">
<title>Node2</title>
<g id="a_Node000002"><a xlink:href="hashmap_8c.html#a56e02b52f3d8eb984445f8e2a9685593" target="_top" xlink:title="Add a variable with multiple arguments to the dictionnary.">
<polygon fill="white" stroke="#666666" points="940,-57 863,-57 863,-38 940,-38 940,-57"/>
<text text-anchor="middle" x="901.5" y="-45" font-family="Helvetica,sans-Serif" font-size="10.00">add_var_arg</text>
</a>
</g>
</g>
<!-- Node1&#45;&gt;Node2 -->
<g id="edge1_Node000001_Node000002" class="edge">
<title>Node1&#45;&gt;Node2</title>
<g id="a_edge1_Node000001_Node000002"><a xlink:title=" ">
<path fill="none" stroke="#63b8ff" d="M965.99,-35.56C957.6,-37.14 948.69,-38.81 940.29,-40.39"/>
<polygon fill="#63b8ff" stroke="#63b8ff" points="966.72,-38.98 975.9,-33.69 965.43,-32.1 966.72,-38.98"/>
</a>
</g>
</g>
<!-- Node21 -->
<g id="Node000021" class="node">
<title>Node21</title>
<g id="a_Node000021"><a xlink:href="hashmap_8c.html#a9670074178ef0a8341259bb31d8019cd" target="_top" xlink:title=" ">
<polygon fill="white" stroke="#666666" points="723,-19 664,-19 664,0 723,0 723,-19"/>
<text text-anchor="middle" x="693.5" y="-7" font-family="Helvetica,sans-Serif" font-size="10.00">free_dict</text>
</a>
</g>
</g>
<!-- Node1&#45;&gt;Node21 -->
<g id="edge32_Node000001_Node000021" class="edge">
<title>Node1&#45;&gt;Node21</title>
<g id="a_edge32_Node000001_Node000021"><a xlink:title=" ">
<path fill="none" stroke="#63b8ff" d="M965.57,-26.17C902.89,-22.31 779.08,-14.7 723.14,-11.26"/>
<polygon fill="#63b8ff" stroke="#63b8ff" points="965.61,-29.68 975.81,-26.8 966.04,-22.69 965.61,-29.68"/>
</a>
</g>
</g>
<!-- Node3 -->
<g id="Node000003" class="node">
<title>Node3</title>
<g id="a_Node000003"><a xlink:href="io_8c.html#a8346ebcdde79020ca792f3d4d2d93ec0" target="_top" xlink:title="Gère options scripts et arguments.">
<polygon fill="white" stroke="#666666" points="612,-57 559,-57 559,-38 612,-38 612,-57"/>
<text text-anchor="middle" x="585.5" y="-45" font-family="Helvetica,sans-Serif" font-size="10.00">arg_file</text>
</a>
</g>
</g>
<!-- Node2&#45;&gt;Node3 -->
<g id="edge2_Node000002_Node000003" class="edge">
<title>Node2&#45;&gt;Node3</title>
<g id="a_edge2_Node000002_Node000003"><a xlink:title=" ">
<path fill="none" stroke="#63b8ff" d="M852.6,-47.5C785.24,-47.5 664.89,-47.5 612.29,-47.5"/>
<polygon fill="#63b8ff" stroke="#63b8ff" points="852.94,-51 862.94,-47.5 852.94,-44 852.94,-51"/>
</a>
</g>
</g>
<!-- Node5 -->
<g id="Node000005" class="node">
<title>Node5</title>
<g id="a_Node000005"><a xlink:href="exec_8c.html#a23babf893bbcd2f6126698a1a19b169f" target="_top" xlink:title="Execute funct with given arguments.">
<polygon fill="white" stroke="#666666" points="827,-205 762,-205 762,-186 827,-186 827,-205"/>
<text text-anchor="middle" x="794.5" y="-193" font-family="Helvetica,sans-Serif" font-size="10.00">exec_func</text>
</a>
</g>
</g>
<!-- Node2&#45;&gt;Node5 -->
<g id="edge4_Node000002_Node000005" class="edge">
<title>Node2&#45;&gt;Node5</title>
<g id="a_edge4_Node000002_Node000005"><a xlink:title=" ">
<path fill="none" stroke="#63b8ff" d="M887.69,-65.55C865.24,-97.21 819.51,-161.65 802.28,-185.95"/>
<polygon fill="#63b8ff" stroke="#63b8ff" points="890.68,-67.39 893.61,-57.21 884.97,-63.34 890.68,-67.39"/>
</a>
</g>
</g>
<!-- Node4 -->
<g id="Node000004" class="node">
<title>Node4</title>
<g id="a_Node000004"><a xlink:href="42sh_8c.html#a3c04138a5bfe5d72780bb7e82a18e627" target="_top" xlink:title=" ">
<polygon fill="white" stroke="#666666" points="387,-19 346,-19 346,0 387,0 387,-19"/>
<text text-anchor="middle" x="366.5" y="-7" font-family="Helvetica,sans-Serif" font-size="10.00">main</text>
</a>
</g>
</g>
<!-- Node3&#45;&gt;Node4 -->
<g id="edge3_Node000003_Node000004" class="edge">
<title>Node3&#45;&gt;Node4</title>
<g id="a_edge3_Node000003_Node000004"><a xlink:title=" ">
<path fill="none" stroke="#63b8ff" d="M548.87,-41.26C502.67,-33.17 423.7,-19.34 387.14,-12.94"/>
<polygon fill="#63b8ff" stroke="#63b8ff" points="548.3,-44.71 558.76,-42.99 549.51,-37.82 548.3,-44.71"/>
</a>
</g>
</g>
<!-- Node6 -->
<g id="Node000006" class="node">
<title>Node6</title>
<g id="a_Node000006"><a xlink:href="exec_8c.html#ae65edaa99b26b49d60c451157d38b34a" target="_top" xlink:title="Execute les commandes avec les args donnes.">
<polygon fill="white" stroke="#666666" points="726,-243 661,-243 661,-224 726,-224 726,-243"/>
<text text-anchor="middle" x="693.5" y="-231" font-family="Helvetica,sans-Serif" font-size="10.00">exec_cmd</text>
</a>
</g>
</g>
<!-- Node5&#45;&gt;Node6 -->
<g id="edge5_Node000005_Node000006" class="edge">
<title>Node5&#45;&gt;Node6</title>
<g id="a_edge5_Node000005_Node000006"><a xlink:title=" ">
<path fill="none" stroke="#63b8ff" d="M758.94,-208.76C745.95,-213.75 731.43,-219.32 719.47,-223.91"/>
<polygon fill="#63b8ff" stroke="#63b8ff" points="760.44,-211.94 768.52,-205.09 757.93,-205.4 760.44,-211.94"/>
</a>
</g>
</g>
<!-- Node7 -->
<g id="Node000007" class="node">
<title>Node7</title>
<g id="a_Node000007"><a xlink:href="ast__run_8c.html#aeb6878a59c6907e5669fc3cc428913d9" target="_top" xlink:title=" ">
<polygon fill="white" stroke="#666666" points="625,-243 546,-243 546,-224 625,-224 625,-243"/>
<text text-anchor="middle" x="585.5" y="-231" font-family="Helvetica,sans-Serif" font-size="10.00">ast_run_cmd</text>
</a>
</g>
</g>
<!-- Node6&#45;&gt;Node7 -->
<g id="edge6_Node000006_Node000007" class="edge">
<title>Node6&#45;&gt;Node7</title>
<g id="a_edge6_Node000006_Node000007"><a xlink:title=" ">
<path fill="none" stroke="#63b8ff" d="M650.92,-233.5C642.45,-233.5 633.58,-233.5 625.21,-233.5"/>
<polygon fill="#63b8ff" stroke="#63b8ff" points="650.98,-237 660.98,-233.5 650.98,-230 650.98,-237"/>
</a>
</g>
</g>
<!-- Node8 -->
<g id="Node000008" class="node">
<title>Node8</title>
<g id="a_Node000008"><a xlink:href="ast_8c.html#a572345b2707780bbbc5bbaacdca9c372" target="_top" xlink:title=" ">
<polygon fill="white" stroke="#666666" points="510,-224 457,-224 457,-205 510,-205 510,-224"/>
<text text-anchor="middle" x="483.5" y="-212" font-family="Helvetica,sans-Serif" font-size="10.00">run_ast</text>
</a>
</g>
</g>
<!-- Node7&#45;&gt;Node8 -->
<g id="edge7_Node000007_Node000008" class="edge">
<title>Node7&#45;&gt;Node8</title>
<g id="a_edge7_Node000007_Node000008"><a xlink:title=" ">
<path fill="none" stroke="#63b8ff" d="M535.86,-224.26C526.95,-222.57 517.99,-220.86 510.1,-219.36"/>
<polygon fill="#63b8ff" stroke="#63b8ff" points="535.36,-227.73 545.84,-226.15 536.67,-220.85 535.36,-227.73"/>
</a>
</g>
</g>
<!-- Node8&#45;&gt;Node4 -->
<g id="edge26_Node000008_Node000004" class="edge">
<title>Node8&#45;&gt;Node4</title>
<g id="a_edge26_Node000008_Node000004"><a xlink:title=" ">
<path fill="none" stroke="#63b8ff" d="M480.89,-194.66C476.94,-158.3 463.73,-80.46 421,-33.5 412.09,-23.71 398.44,-17.68 387.15,-14.11"/>
<polygon fill="#63b8ff" stroke="#63b8ff" points="477.43,-195.29 481.87,-204.91 484.4,-194.62 477.43,-195.29"/>
</a>
</g>
</g>
<!-- Node8&#45;&gt;Node5 -->
<g id="edge21_Node000008_Node000005" class="edge">
<title>Node8&#45;&gt;Node5</title>
<g id="a_edge21_Node000008_Node000005"><a xlink:title=" ">
<path fill="none" stroke="#63b8ff" d="M520.38,-212.29C581.3,-208.55 703.99,-201 761.88,-197.44"/>
<polygon fill="#63b8ff" stroke="#63b8ff" points="519.87,-208.82 510.1,-212.93 520.3,-215.81 519.87,-208.82"/>
</a>
</g>
</g>
<!-- Node9 -->
<g id="Node000009" class="node">
<title>Node9</title>
<g id="a_Node000009"><a xlink:href="ast__run_8c.html#a8a01fec616135007fc5b3968a101901b" target="_top" xlink:title=" ">
<polygon fill="white" stroke="#666666" points="412,-353 321,-353 321,-334 412,-334 412,-353"/>
<text text-anchor="middle" x="366.5" y="-341" font-family="Helvetica,sans-Serif" font-size="10.00">ast_run_and_or</text>
</a>
</g>
</g>
<!-- Node8&#45;&gt;Node9 -->
<g id="edge8_Node000008_Node000009" class="edge">
<title>Node8&#45;&gt;Node9</title>
<g id="a_edge8_Node000008_Node000009"><a xlink:title=" ">
<path fill="none" stroke="#63b8ff" d="M474.39,-233.49C465.24,-256.42 448.01,-294 421,-316.5 410.16,-325.53 394.59,-330.1 383.04,-333.97"/>
<polygon fill="#63b8ff" stroke="#63b8ff" points="477.68,-234.67 478.03,-224.09 471.16,-232.15 477.68,-234.67"/>
</a>
</g>
</g>
<!-- Node10 -->
<g id="Node000010" class="node">
<title>Node10</title>
<g id="a_Node000010"><a xlink:href="ast__run_8c.html#a9d83d4834a61ffe21eb77838d70ae173" target="_top" xlink:title=" ">
<polygon fill="white" stroke="#666666" points="402,-316 331,-316 331,-297 402,-297 402,-316"/>
<text text-anchor="middle" x="366.5" y="-304" font-family="Helvetica,sans-Serif" font-size="10.00">ast_run_for</text>
</a>
</g>
</g>
<!-- Node8&#45;&gt;Node10 -->
<g id="edge10_Node000008_Node000010" class="edge">
<title>Node8&#45;&gt;Node10</title>
<g id="a_edge10_Node000008_Node000010"><a xlink:title=" ">
<path fill="none" stroke="#63b8ff" d="M466.53,-232.52C455.48,-247.12 439.48,-266.83 421,-279.5 408.88,-287.81 392.59,-292.56 381.19,-296.88"/>
<polygon fill="#63b8ff" stroke="#63b8ff" points="469.56,-234.3 472.74,-224.2 463.95,-230.11 469.56,-234.3"/>
</a>
</g>
</g>
<!-- Node11 -->
<g id="Node000011" class="node">
<title>Node11</title>
<g id="a_Node000011"><a xlink:href="ast__run_8c.html#a0a7138b1f2608ea36211c9b78988c248" target="_top" xlink:title=" ">
<polygon fill="white" stroke="#666666" points="399,-279 334,-279 334,-260 399,-260 399,-279"/>
<text text-anchor="middle" x="366.5" y="-267" font-family="Helvetica,sans-Serif" font-size="10.00">ast_run_if</text>
</a>
</g>
</g>
<!-- Node8&#45;&gt;Node11 -->
<g id="edge12_Node000008_Node000011" class="edge">
<title>Node8&#45;&gt;Node11</title>
<g id="a_edge12_Node000008_Node000011"><a xlink:title=" ">
<path fill="none" stroke="#63b8ff" d="M447.87,-228.39C439.29,-233.22 429.97,-238.35 421,-242.5 406.59,-249.16 388.99,-254.6 378.01,-259.98"/>
<polygon fill="#63b8ff" stroke="#63b8ff" points="449.86,-231.28 456.85,-223.31 446.42,-225.19 449.86,-231.28"/>
</a>
</g>
</g>
<!-- Node12 -->
<g id="Node000012" class="node">
<title>Node12</title>
<g id="a_Node000012"><a xlink:href="ast__run_8c.html#ae25cd3ced8abafd76110dba8852a6b87" target="_top" xlink:title=" ">
<polygon fill="white" stroke="#666666" points="403,-224 330,-224 330,-205 403,-205 403,-224"/>
<text text-anchor="middle" x="366.5" y="-212" font-family="Helvetica,sans-Serif" font-size="10.00">ast_run_list</text>
</a>
</g>
</g>
<!-- Node8&#45;&gt;Node12 -->
<g id="edge14_Node000008_Node000012" class="edge">
<title>Node8&#45;&gt;Node12</title>
<g id="a_edge14_Node000008_Node000012"><a xlink:title=" ">
<path fill="none" stroke="#63b8ff" d="M446.87,-208.2C433.05,-207.6 417.26,-207.6 403.42,-208.19"/>
<polygon fill="#63b8ff" stroke="#63b8ff" points="446.79,-211.71 456.98,-208.78 447.19,-204.72 446.79,-211.71"/>
</a>
</g>
</g>
<!-- Node13 -->
<g id="Node000013" class="node">
<title>Node13</title>
<g id="a_Node000013"><a xlink:href="ast__run_8c.html#a536f37ba9bffcd2099fef668656181e0" target="_top" xlink:title=" ">
<polygon fill="white" stroke="#666666" points="406,-187 327,-187 327,-168 406,-168 406,-187"/>
<text text-anchor="middle" x="366.5" y="-175" font-family="Helvetica,sans-Serif" font-size="10.00">ast_run_loop</text>
</a>
</g>
</g>
<!-- Node8&#45;&gt;Node13 -->
<g id="edge17_Node000008_Node000013" class="edge">
<title>Node8&#45;&gt;Node13</title>
<g id="a_edge17_Node000008_Node000013"><a xlink:title=" ">
<path fill="none" stroke="#63b8ff" d="M457.88,-200.92C442.86,-194.96 423.34,-188.43 406.29,-183.56"/>
<polygon fill="#63b8ff" stroke="#63b8ff" points="456.89,-204.3 467.47,-204.93 459.59,-197.85 456.89,-204.3"/>
</a>
</g>
</g>
<!-- Node14 -->
<g id="Node000014" class="node">
<title>Node14</title>
<g id="a_Node000014"><a xlink:href="ast__run_8c.html#aa3e6a973e744d748ee415840596beb53" target="_top" xlink:title=" ">
<polygon fill="white" stroke="#666666" points="421,-150 312,-150 312,-131 421,-131 421,-150"/>
<text text-anchor="middle" x="366.5" y="-138" font-family="Helvetica,sans-Serif" font-size="10.00">ast_run_shell_redir</text>
</a>
</g>
</g>
<!-- Node8&#45;&gt;Node14 -->
<g id="edge19_Node000008_Node000014" class="edge">
<title>Node8&#45;&gt;Node14</title>
<g id="a_edge19_Node000008_Node000014"><a xlink:title=" ">
<path fill="none" stroke="#63b8ff" d="M472.2,-196.3C460.75,-181.68 441.2,-162.48 421,-150.5 420.75,-150.35 420.49,-150.2 420.23,-150.05"/>
<polygon fill="#63b8ff" stroke="#63b8ff" points="469.55,-198.61 478.22,-204.7 475.24,-194.53 469.55,-198.61"/>
</a>
</g>
</g>
<!-- Node15 -->
<g id="Node000015" class="node">
<title>Node15</title>
<g id="a_Node000015"><a xlink:href="exec_8c.html#ab743cb88e12e9b922050925fd2075e36" target="_top" xlink:title="Execute a pipeline of commands.">
<polygon fill="white" stroke="#666666" points="399,-95 334,-95 334,-76 399,-76 399,-95"/>
<text text-anchor="middle" x="366.5" y="-83" font-family="Helvetica,sans-Serif" font-size="10.00">exec_pipe</text>
</a>
</g>
</g>
<!-- Node8&#45;&gt;Node15 -->
<g id="edge22_Node000008_Node000015" class="edge">
<title>Node8&#45;&gt;Node15</title>
<g id="a_edge22_Node000008_Node000015"><a xlink:title=" ">
<path fill="none" stroke="#63b8ff" d="M472.82,-195.88C461.99,-176.16 443.02,-144.87 421,-122.5 410.23,-111.55 395.8,-101.8 384.64,-95.05"/>
<polygon fill="#63b8ff" stroke="#63b8ff" points="469.79,-197.62 477.6,-204.78 475.96,-194.31 469.79,-197.62"/>
</a>
</g>
</g>
<!-- Node17 -->
<g id="Node000017" class="node">
<title>Node17</title>
<g id="a_Node000017"><a xlink:href="dot_8c.html#a17477ee2b0f1b8b9306566c990d15b35" target="_top" xlink:title="Main loop of dot builtin.">
<polygon fill="white" stroke="#666666" points="400.5,-390 332.5,-390 332.5,-371 400.5,-371 400.5,-390"/>
<text text-anchor="middle" x="366.5" y="-378" font-family="Helvetica,sans-Serif" font-size="10.00">main_loop</text>
</a>
</g>
</g>
<!-- Node8&#45;&gt;Node17 -->
<g id="edge27_Node000008_Node000017" class="edge">
<title>Node8&#45;&gt;Node17</title>
<g id="a_edge27_Node000008_Node000017"><a xlink:title=" ">
<path fill="none" stroke="#63b8ff" d="M479.56,-234.56C473.89,-266.16 458.51,-327.51 421,-362.5 415.34,-367.78 408.08,-371.52 400.74,-374.16"/>
<polygon fill="#63b8ff" stroke="#63b8ff" points="483.07,-234.81 481.23,-224.37 476.16,-233.67 483.07,-234.81"/>
</a>
</g>
</g>
<!-- Node9&#45;&gt;Node8 -->
<g id="edge9_Node000009_Node000008" class="edge">
<title>Node9&#45;&gt;Node8</title>
<g id="a_edge9_Node000009_Node000008"><a xlink:title=" ">
<path fill="none" stroke="#63b8ff" d="M420.49,-334.92C420.66,-334.78 420.83,-334.64 421,-334.5 457.05,-304.46 475.69,-247.57 480.93,-224.12"/>
<polygon fill="#63b8ff" stroke="#63b8ff" points="418.54,-332.02 412.12,-340.45 422.39,-337.86 418.54,-332.02"/>
</a>
</g>
</g>
<!-- Node10&#45;&gt;Node8 -->
<g id="edge11_Node000010_Node000008" class="edge">
<title>Node10&#45;&gt;Node8</title>
<g id="a_edge11_Node000010_Node000008"><a xlink:title=" ">
<path fill="none" stroke="#63b8ff" d="M411.65,-302.87C414.92,-301.29 418.08,-299.5 421,-297.5 449.24,-278.14 471.69,-242.33 479.51,-224.21"/>
<polygon fill="#63b8ff" stroke="#63b8ff" points="410.14,-299.71 402.23,-306.76 412.81,-306.18 410.14,-299.71"/>
</a>
</g>
</g>
<!-- Node11&#45;&gt;Node8 -->
<g id="edge13_Node000011_Node000008" class="edge">
<title>Node11&#45;&gt;Node8</title>
<g id="a_edge13_Node000011_Node000008"><a xlink:title=" ">
<path fill="none" stroke="#63b8ff" d="M408.79,-265.58C412.96,-264.02 417.1,-262.3 421,-260.5 442.26,-250.67 465.46,-235.32 476.29,-224.3"/>
<polygon fill="#63b8ff" stroke="#63b8ff" points="407.4,-262.35 399.06,-268.89 409.66,-268.98 407.4,-262.35"/>
</a>
</g>
</g>
<!-- Node12&#45;&gt;Node8 -->
<g id="edge16_Node000012_Node000008" class="edge">
<title>Node12&#45;&gt;Node8</title>
<g id="a_edge16_Node000012_Node000008"><a xlink:title=" ">
<path fill="none" stroke="#63b8ff" d="M413.46,-221.13C428.29,-221.45 444.18,-221.14 456.98,-220.22"/>
<polygon fill="#63b8ff" stroke="#63b8ff" points="413.52,-217.63 403.42,-220.81 413.3,-224.62 413.52,-217.63"/>
</a>
</g>
</g>
<!-- Node12&#45;&gt;Node12 -->
<g id="edge15_Node000012_Node000012" class="edge">
<title>Node12&#45;&gt;Node12</title>
<g id="a_edge15_Node000012_Node000012"><a xlink:title=" ">
<path fill="none" stroke="#63b8ff" d="M387.98,-233.55C386.55,-238.38 379.39,-242 366.5,-242 345.88,-242 339.92,-232.73 348.62,-224.08"/>
<polygon fill="#63b8ff" stroke="#63b8ff" points="391.2,-232.19 384.38,-224.08 384.66,-234.67 391.2,-232.19"/>
</a>
</g>
</g>
<!-- Node13&#45;&gt;Node8 -->
<g id="edge18_Node000013_Node000008" class="edge">
<title>Node13&#45;&gt;Node8</title>
<g id="a_edge18_Node000013_Node000008"><a xlink:title=" ">
<path fill="none" stroke="#63b8ff" d="M391.64,-190.89C410.79,-198.52 437.48,-207.14 456.98,-212.01"/>
<polygon fill="#63b8ff" stroke="#63b8ff" points="392.97,-187.65 382.4,-187.01 390.27,-194.1 392.97,-187.65"/>
</a>
</g>
</g>
<!-- Node14&#45;&gt;Node8 -->
<g id="edge20_Node000014_Node000008" class="edge">
<title>Node14&#45;&gt;Node8</title>
<g id="a_edge20_Node000014_Node000008"><a xlink:title=" ">
<path fill="none" stroke="#63b8ff" d="M388.53,-154.01C398.75,-158.03 410.95,-162.54 421,-168.5 438.25,-178.73 455.02,-194.22 466.69,-204.69"/>
<polygon fill="#63b8ff" stroke="#63b8ff" points="389.71,-150.71 379.13,-150.11 387.03,-157.17 389.71,-150.71"/>
</a>
</g>
</g>
<!-- Node15&#45;&gt;Node15 -->
<g id="edge25_Node000015_Node000015" class="edge">
<title>Node15&#45;&gt;Node15</title>
<g id="a_edge25_Node000015_Node000015"><a xlink:title=" ">
<path fill="none" stroke="#63b8ff" d="M387.98,-104.55C386.55,-109.38 379.39,-113 366.5,-113 345.88,-113 339.92,-103.73 348.62,-95.08"/>
<polygon fill="#63b8ff" stroke="#63b8ff" points="391.2,-103.19 384.38,-95.08 384.66,-105.67 391.2,-103.19"/>
</a>
</g>
</g>
<!-- Node16 -->
<g id="Node000016" class="node">
<title>Node16</title>
<g id="a_Node000016"><a xlink:href="ast__run_8c.html#a24d0223822f7b635628199085c3283be" target="_top" xlink:title=" ">
<polygon fill="white" stroke="#666666" points="276,-76 197,-76 197,-57 276,-57 276,-76"/>
<text text-anchor="middle" x="236.5" y="-64" font-family="Helvetica,sans-Serif" font-size="10.00">ast_run_pipe</text>
</a>
</g>
</g>
<!-- Node15&#45;&gt;Node16 -->
<g id="edge23_Node000015_Node000016" class="edge">
<title>Node15&#45;&gt;Node16</title>
<g id="a_edge23_Node000015_Node000016"><a xlink:title=" ">
<path fill="none" stroke="#63b8ff" d="M323.62,-79.28C308.32,-77.01 291.09,-74.45 276.08,-72.23"/>
<polygon fill="#63b8ff" stroke="#63b8ff" points="323.45,-82.8 333.86,-80.8 324.48,-75.87 323.45,-82.8"/>
</a>
</g>
</g>
<!-- Node16&#45;&gt;Node8 -->
<g id="edge24_Node000016_Node000008" class="edge">
<title>Node16&#45;&gt;Node8</title>
<g id="a_edge24_Node000016_Node000008"><a xlink:title=" ">
<path fill="none" stroke="#63b8ff" d="M277.97,-54.49C317.82,-45.24 378.71,-38.27 421,-66.5 469.37,-98.78 479.75,-177 481.93,-204.63"/>
<polygon fill="#63b8ff" stroke="#63b8ff" points="276.93,-51.14 268.06,-56.94 278.61,-57.94 276.93,-51.14"/>
</a>
</g>
</g>
<!-- Node18 -->
<g id="Node000018" class="node">
<title>Node18</title>
<g id="a_Node000018"><a xlink:href="dot_8c.html#a713938d3c6ee343132c429642048bcf6" target="_top" xlink:title="Execute the dot builtin cmd.">
<polygon fill="white" stroke="#666666" points="258.5,-390 214.5,-390 214.5,-371 258.5,-371 258.5,-390"/>
<text text-anchor="middle" x="236.5" y="-378" font-family="Helvetica,sans-Serif" font-size="10.00">dot_b</text>
</a>
</g>
</g>
<!-- Node17&#45;&gt;Node18 -->
<g id="edge28_Node000017_Node000018" class="edge">
<title>Node17&#45;&gt;Node18</title>
<g id="a_edge28_Node000017_Node000018"><a xlink:title=" ">
<path fill="none" stroke="#63b8ff" d="M322.02,-380.5C300.61,-380.5 275.78,-380.5 258.6,-380.5"/>
<polygon fill="#63b8ff" stroke="#63b8ff" points="322.2,-384 332.2,-380.5 322.2,-377 322.2,-384"/>
</a>
</g>
</g>
<!-- Node19 -->
<g id="Node000019" class="node">
<title>Node19</title>
<g id="a_Node000019"><a xlink:href="exec_8c.html#abaeb177587c7eec6a064b35bb8399cae" target="_top" xlink:title="Execute builtin cmd with given args.">
<polygon fill="white" stroke="#666666" points="161,-390 86,-390 86,-371 161,-371 161,-390"/>
<text text-anchor="middle" x="123.5" y="-378" font-family="Helvetica,sans-Serif" font-size="10.00">exec_builtin</text>
</a>
</g>
</g>
<!-- Node18&#45;&gt;Node19 -->
<g id="edge29_Node000018_Node000019" class="edge">
<title>Node18&#45;&gt;Node19</title>
<g id="a_edge29_Node000018_Node000019"><a xlink:title=" ">
<path fill="none" stroke="#63b8ff" d="M204.23,-380.5C190.88,-380.5 175.2,-380.5 161.3,-380.5"/>
<polygon fill="#63b8ff" stroke="#63b8ff" points="204.36,-384 214.36,-380.5 204.36,-377 204.36,-384"/>
</a>
</g>
</g>
<!-- Node20 -->
<g id="Node000020" class="node">
<title>Node20</title>
<g id="a_Node000020"><a xlink:href="exec_8c.html#a287d81b4658832f192750310e2925917" target="_top" xlink:title="Execute the builtin command with given args.">
<polygon fill="white" stroke="#666666" points="50,-409 0,-409 0,-390 50,-390 50,-409"/>
<text text-anchor="middle" x="25" y="-397" font-family="Helvetica,sans-Serif" font-size="10.00">exec_b</text>
</a>
</g>
</g>
<!-- Node19&#45;&gt;Node20 -->
<g id="edge30_Node000019_Node000020" class="edge">
<title>Node19&#45;&gt;Node20</title>
<g id="a_edge30_Node000019_Node000020"><a xlink:title=" ">
<path fill="none" stroke="#63b8ff" d="M75.8,-389.7C66.9,-391.45 57.94,-393.21 50.12,-394.75"/>
<polygon fill="#63b8ff" stroke="#63b8ff" points="76.61,-393.1 85.74,-387.74 75.25,-386.24 76.61,-393.1"/>
</a>
</g>
</g>
<!-- Node20&#45;&gt;Node6 -->
<g id="edge31_Node000020_Node000006" class="edge">
<title>Node20&#45;&gt;Node6</title>
<g id="a_edge31_Node000020_Node000006"><a xlink:title=" ">
<path fill="none" stroke="#63b8ff" d="M60.22,-404.52C101.63,-410.15 173.51,-418.5 235.5,-418.5 484.5,-418.5 484.5,-418.5 484.5,-418.5 591.06,-418.5 668.37,-281.25 687.76,-243.19"/>
<polygon fill="#63b8ff" stroke="#63b8ff" points="60.52,-401.03 50.13,-403.12 59.55,-407.96 60.52,-401.03"/>
</a>
</g>
</g>
<!-- Node21&#45;&gt;Node4 -->
<g id="edge33_Node000021_Node000004" class="edge">
<title>Node21&#45;&gt;Node4</title>
<g id="a_edge33_Node000021_Node000004"><a xlink:title=" ">
<path fill="none" stroke="#63b8ff" d="M653.82,-9.5C584.14,-9.5 439.88,-9.5 387.26,-9.5"/>
<polygon fill="#63b8ff" stroke="#63b8ff" points="653.94,-13 663.94,-9.5 653.94,-6 653.94,-13"/>
</a>
</g>
</g>
</g>
</svg>
