<?xml version="1.0" encoding="UTF-8" standalone="no"?>
<!DOCTYPE svg PUBLIC "-//W3C//DTD SVG 1.1//EN"
 "http://www.w3.org/Graphics/SVG/1.1/DTD/svg11.dtd">
<!-- Generated by graphviz version 2.43.0 (0)
 -->
<!-- Title: free_func Pages: 1 -->
<svg width="311pt" height="304pt"
 viewBox="0.00 0.00 311.00 304.00" xmlns="http://www.w3.org/2000/svg" xmlns:xlink="http://www.w3.org/1999/xlink">
<g id="graph0" class="graph" transform="scale(1 1) rotate(0) translate(4 300)">
<title>free_func</title>
<!-- Node1 -->
<g id="Node000001" class="node">
<title>Node1</title>
<g id="a_Node000001"><a xlink:title=" ">
<polygon fill="#999999" stroke="#666666" points="62,-130 0,-130 0,-111 62,-111 62,-130"/>
<text text-anchor="middle" x="31" y="-118" font-family="Helvetica,sans-Serif" font-size="10.00">free_func</text>
</a>
</g>
</g>
<!-- Node2 -->
<g id="Node000002" class="node">
<title>Node2</title>
<g id="a_Node000002"><a xlink:href="ast_8c.html#adbd51ee24d251e4506b1163864d7fd64" target="_top" xlink:title=" ">
<polygon fill="white" stroke="#666666" points="154,-130 98,-130 98,-111 154,-111 154,-130"/>
<text text-anchor="middle" x="126" y="-118" font-family="Helvetica,sans-Serif" font-size="10.00">free_ast</text>
</a>
</g>
</g>
<!-- Node1&#45;&gt;Node2 -->
<g id="edge1_Node000001_Node000002" class="edge">
<title>Node1&#45;&gt;Node2</title>
<g id="a_edge1_Node000001_Node000002"><a xlink:title=" ">
<path fill="none" stroke="#63b8ff" d="M62.19,-120.5C70.34,-120.5 79.25,-120.5 87.73,-120.5"/>
<polygon fill="#63b8ff" stroke="#63b8ff" points="87.78,-124 97.78,-120.5 87.78,-117 87.78,-124"/>
</a>
</g>
</g>
<!-- Node3 -->
<g id="Node000003" class="node">
<title>Node3</title>
<g id="a_Node000003"><a xlink:href="ast__free_8c.html#a80edc240f8b3b576efc19e8465449822" target="_top" xlink:title=" ">
<polygon fill="white" stroke="#666666" points="294,-296 199,-296 199,-277 294,-277 294,-296"/>
<text text-anchor="middle" x="246.5" y="-284" font-family="Helvetica,sans-Serif" font-size="10.00">ast_free_and_or</text>
</a>
</g>
</g>
<!-- Node2&#45;&gt;Node3 -->
<g id="edge2_Node000002_Node000003" class="edge">
<title>Node2&#45;&gt;Node3</title>
<g id="a_edge2_Node000002_Node000003"><a xlink:title=" ">
<path fill="none" stroke="#63b8ff" d="M129.1,-130.03C134.14,-155.43 149.62,-222.55 190,-259.5 197.65,-266.5 208.07,-270.78 217.81,-273.98"/>
<polygon fill="#63b8ff" stroke="#63b8ff" points="216.98,-277.38 227.57,-276.98 219.04,-270.69 216.98,-277.38"/>
</a>
</g>
</g>
<!-- Node4 -->
<g id="Node000004" class="node">
<title>Node4</title>
<g id="a_Node000004"><a xlink:href="ast__free_8c.html#a9330029530c792a2570859c41fea1f87" target="_top" xlink:title=" ">
<polygon fill="white" stroke="#666666" points="288,-259 205,-259 205,-240 288,-240 288,-259"/>
<text text-anchor="middle" x="246.5" y="-247" font-family="Helvetica,sans-Serif" font-size="10.00">ast_free_cmd</text>
</a>
</g>
</g>
<!-- Node2&#45;&gt;Node4 -->
<g id="edge4_Node000002_Node000004" class="edge">
<title>Node2&#45;&gt;Node4</title>
<g id="a_edge4_Node000002_Node000004"><a xlink:title=" ">
<path fill="none" stroke="#63b8ff" d="M129.79,-130.09C136.52,-151.5 155.65,-203.49 190,-231.5 191.79,-232.96 193.69,-234.3 195.68,-235.53"/>
<polygon fill="#63b8ff" stroke="#63b8ff" points="194.36,-238.79 204.86,-240.27 197.58,-232.57 194.36,-238.79"/>
</a>
</g>
</g>
<!-- Node5 -->
<g id="Node000005" class="node">
<title>Node5</title>
<g id="a_Node000005"><a xlink:href="ast__free_8c.html#a2093aa16119809b1788e3544ccacb07a" target="_top" xlink:title=" ">
<polygon fill="white" stroke="#666666" points="284,-222 209,-222 209,-203 284,-203 284,-222"/>
<text text-anchor="middle" x="246.5" y="-210" font-family="Helvetica,sans-Serif" font-size="10.00">ast_free_for</text>
</a>
</g>
</g>
<!-- Node2&#45;&gt;Node5 -->
<g id="edge5_Node000002_Node000005" class="edge">
<title>Node2&#45;&gt;Node5</title>
<g id="a_edge5_Node000002_Node000005"><a xlink:title=" ">
<path fill="none" stroke="#63b8ff" d="M137.06,-130.24C148.09,-144.71 167.28,-170.3 190,-185.5 199.47,-191.84 211.34,-196.08 221.66,-199.61"/>
<polygon fill="#63b8ff" stroke="#63b8ff" points="220.73,-202.99 231.33,-202.95 223.02,-196.38 220.73,-202.99"/>
</a>
</g>
</g>
<!-- Node6 -->
<g id="Node000006" class="node">
<title>Node6</title>
<g id="a_Node000006"><a xlink:href="ast__free_8c.html#abfce6009bf2f91da322878514d9209c0" target="_top" xlink:title=" ">
<polygon fill="white" stroke="#666666" points="280.5,-185 212.5,-185 212.5,-166 280.5,-166 280.5,-185"/>
<text text-anchor="middle" x="246.5" y="-173" font-family="Helvetica,sans-Serif" font-size="10.00">ast_free_if</text>
</a>
</g>
</g>
<!-- Node2&#45;&gt;Node6 -->
<g id="edge7_Node000002_Node000006" class="edge">
<title>Node2&#45;&gt;Node6</title>
<g id="a_edge7_Node000002_Node000006"><a xlink:title=" ">
<path fill="none" stroke="#63b8ff" d="M154.22,-129.86C165.07,-135.84 177.85,-143.04 190,-148.5 201.2,-153.53 214.24,-157.84 224.87,-161.93"/>
<polygon fill="#63b8ff" stroke="#63b8ff" points="223.6,-165.19 234.18,-165.8 226.29,-158.73 223.6,-165.19"/>
</a>
</g>
</g>
<!-- Node7 -->
<g id="Node000007" class="node">
<title>Node7</title>
<g id="a_Node000007"><a xlink:href="ast__free_8c.html#a654d27b37151693d221d215450efe6bb" target="_top" xlink:title=" ">
<polygon fill="white" stroke="#666666" points="285,-130 208,-130 208,-111 285,-111 285,-130"/>
<text text-anchor="middle" x="246.5" y="-118" font-family="Helvetica,sans-Serif" font-size="10.00">ast_free_list</text>
</a>
</g>
</g>
<!-- Node2&#45;&gt;Node7 -->
<g id="edge9_Node000002_Node000007" class="edge">
<title>Node2&#45;&gt;Node7</title>
<g id="a_edge9_Node000002_Node000007"><a xlink:title=" ">
<path fill="none" stroke="#63b8ff" d="M154.19,-114.72C167.07,-113.85 182.84,-113.57 197.63,-113.86"/>
<polygon fill="#63b8ff" stroke="#63b8ff" points="197.57,-117.36 207.66,-114.16 197.77,-110.36 197.57,-117.36"/>
</a>
</g>
</g>
<!-- Node8 -->
<g id="Node000008" class="node">
<title>Node8</title>
<g id="a_Node000008"><a xlink:href="ast__free_8c.html#a09f3dd857c6d405a4e1b2e3109a1d3df" target="_top" xlink:title=" ">
<polygon fill="white" stroke="#666666" points="288,-93 205,-93 205,-74 288,-74 288,-93"/>
<text text-anchor="middle" x="246.5" y="-81" font-family="Helvetica,sans-Serif" font-size="10.00">ast_free_loop</text>
</a>
</g>
</g>
<!-- Node2&#45;&gt;Node8 -->
<g id="edge12_Node000002_Node000008" class="edge">
<title>Node2&#45;&gt;Node8</title>
<g id="a_edge12_Node000002_Node000008"><a xlink:title=" ">
<path fill="none" stroke="#63b8ff" d="M142.49,-110.93C155.9,-105.16 176.07,-98.21 195.01,-92.58"/>
<polygon fill="#63b8ff" stroke="#63b8ff" points="196.12,-95.9 204.76,-89.77 194.18,-89.18 196.12,-95.9"/>
</a>
</g>
</g>
<!-- Node9 -->
<g id="Node000009" class="node">
<title>Node9</title>
<g id="a_Node000009"><a xlink:href="ast__free_8c.html#a50c5d556b19bcd99345d42797422afbc" target="_top" xlink:title=" ">
<polygon fill="white" stroke="#666666" points="288,-56 205,-56 205,-37 288,-37 288,-56"/>
<text text-anchor="middle" x="246.5" y="-44" font-family="Helvetica,sans-Serif" font-size="10.00">ast_free_pipe</text>
</a>
</g>
</g>
<!-- Node2&#45;&gt;Node9 -->
<g id="edge14_Node000002_Node000009" class="edge">
<title>Node2&#45;&gt;Node9</title>
<g id="a_edge14_Node000002_Node000009"><a xlink:title=" ">
<path fill="none" stroke="#63b8ff" d="M131.4,-110.69C141.03,-95.92 165.11,-70.88 190,-56.5 191.75,-55.49 193.57,-54.52 195.43,-53.59"/>
<polygon fill="#63b8ff" stroke="#63b8ff" points="197.23,-56.62 204.97,-49.38 194.41,-50.22 197.23,-56.62"/>
</a>
</g>
</g>
<!-- Node10 -->
<g id="Node000010" class="node">
<title>Node10</title>
<g id="a_Node000010"><a xlink:href="ast__free_8c.html#a6e033482de30aca56f1b66190b9a481c" target="_top" xlink:title=" ">
<polygon fill="white" stroke="#666666" points="303,-19 190,-19 190,0 303,0 303,-19"/>
<text text-anchor="middle" x="246.5" y="-7" font-family="Helvetica,sans-Serif" font-size="10.00">ast_free_shell_redir</text>
</a>
</g>
</g>
<!-- Node2&#45;&gt;Node10 -->
<g id="edge16_Node000002_Node000010" class="edge">
<title>Node2&#45;&gt;Node10</title>
<g id="a_edge16_Node000002_Node000010"><a xlink:title=" ">
<path fill="none" stroke="#63b8ff" d="M129.33,-110.71C135.62,-91.53 154.35,-51.34 182.67,-25.65"/>
<polygon fill="#63b8ff" stroke="#63b8ff" points="185.05,-28.22 190.49,-19.13 180.57,-22.84 185.05,-28.22"/>
</a>
</g>
</g>
<!-- Node3&#45;&gt;Node2 -->
<g id="edge3_Node000003_Node000002" class="edge">
<title>Node3&#45;&gt;Node2</title>
<g id="a_edge3_Node000003_Node000002"><a xlink:title=" ">
<path fill="none" stroke="#63b8ff" d="M198.94,-283.9C195.72,-282.09 192.69,-279.96 190,-277.5 149.65,-240.58 134.16,-173.52 129.12,-140.02"/>
<polygon fill="#63b8ff" stroke="#63b8ff" points="132.58,-139.49 127.78,-130.04 125.64,-140.42 132.58,-139.49"/>
</a>
</g>
</g>
<!-- Node5&#45;&gt;Node2 -->
<g id="edge6_Node000005_Node000002" class="edge">
<title>Node5&#45;&gt;Node2</title>
<g id="a_edge6_Node000005_Node000002"><a xlink:title=" ">
<path fill="none" stroke="#63b8ff" d="M208.93,-212.66C202.32,-210.4 195.73,-207.33 190,-203.5 165.52,-187.12 145.13,-158.67 134.64,-139.37"/>
<polygon fill="#63b8ff" stroke="#63b8ff" points="137.67,-137.62 130.08,-130.23 131.41,-140.74 137.67,-137.62"/>
</a>
</g>
</g>
<!-- Node6&#45;&gt;Node2 -->
<g id="edge8_Node000006_Node000002" class="edge">
<title>Node6&#45;&gt;Node2</title>
<g id="a_edge8_Node000006_Node000002"><a xlink:title=" ">
<path fill="none" stroke="#63b8ff" d="M212.48,-174.85C204.97,-172.6 197.11,-169.7 190,-166.5 172.5,-158.63 153.68,-147.14 141.21,-137.2"/>
<polygon fill="#63b8ff" stroke="#63b8ff" points="143.19,-134.28 133.37,-130.31 138.57,-139.54 143.19,-134.28"/>
</a>
</g>
</g>
<!-- Node7&#45;&gt;Node2 -->
<g id="edge11_Node000007_Node000002" class="edge">
<title>Node7&#45;&gt;Node2</title>
<g id="a_edge11_Node000007_Node000002"><a xlink:title=" ">
<path fill="none" stroke="#63b8ff" d="M207.66,-126.84C193.81,-127.39 178.14,-127.39 164.33,-126.82"/>
<polygon fill="#63b8ff" stroke="#63b8ff" points="164.36,-123.32 154.19,-126.28 163.99,-130.31 164.36,-123.32"/>
</a>
</g>
</g>
<!-- Node7&#45;&gt;Node7 -->
<g id="edge10_Node000007_Node000007" class="edge">
<title>Node7&#45;&gt;Node7</title>
<g id="a_edge10_Node000007_Node000007"><a xlink:title=" ">
<path fill="none" stroke="#63b8ff" d="M228,-130.08C219.01,-138.73 225.17,-148 246.5,-148 259.83,-148 267.24,-144.38 268.72,-139.55"/>
<polygon fill="#63b8ff" stroke="#63b8ff" points="271.91,-138.11 265,-130.08 265.4,-140.67 271.91,-138.11"/>
</a>
</g>
</g>
<!-- Node8&#45;&gt;Node2 -->
<g id="edge13_Node000008_Node000002" class="edge">
<title>Node8&#45;&gt;Node2</title>
<g id="a_edge13_Node000008_Node000002"><a xlink:title=" ">
<path fill="none" stroke="#63b8ff" d="M230.05,-93.05C213.38,-100.23 186.25,-109.23 164.01,-115.25"/>
<polygon fill="#63b8ff" stroke="#63b8ff" points="162.99,-111.9 154.19,-117.79 164.74,-118.68 162.99,-111.9"/>
</a>
</g>
</g>
<!-- Node9&#45;&gt;Node2 -->
<g id="edge15_Node000009_Node000002" class="edge">
<title>Node9&#45;&gt;Node2</title>
<g id="a_edge15_Node000009_Node000002"><a xlink:title=" ">
<path fill="none" stroke="#63b8ff" d="M233.45,-56.07C221.81,-61.1 203.93,-66.45 190,-74.5 175.73,-82.74 161.74,-94.48 150.58,-104.21"/>
<polygon fill="#63b8ff" stroke="#63b8ff" points="148.2,-101.65 142.99,-110.87 152.81,-106.91 148.2,-101.65"/>
</a>
</g>
</g>
<!-- Node10&#45;&gt;Node2 -->
<g id="edge17_Node000010_Node000002" class="edge">
<title>Node10&#45;&gt;Node2</title>
<g id="a_edge17_Node000010_Node000002"><a xlink:title=" ">
<path fill="none" stroke="#63b8ff" d="M231.09,-19.01C219.12,-23.32 202.16,-28.25 190,-37.5 167.04,-54.96 149.46,-83.27 138.78,-102.1"/>
<polygon fill="#63b8ff" stroke="#63b8ff" points="135.64,-100.54 133.83,-110.98 141.76,-103.95 135.64,-100.54"/>
</a>
</g>
</g>
</g>
</svg>
