<?xml version="1.0" encoding="UTF-8" standalone="no"?>
<!DOCTYPE svg PUBLIC "-//W3C//DTD SVG 1.1//EN"
 "http://www.w3.org/Graphics/SVG/1.1/DTD/svg11.dtd">
<!-- Generated by graphviz version 2.43.0 (0)
 -->
<!-- Title: init_dict Pages: 1 -->
<svg width="1351pt" height="260pt"
 viewBox="0.00 0.00 1351.00 259.50" xmlns="http://www.w3.org/2000/svg" xmlns:xlink="http://www.w3.org/1999/xlink">
<g id="graph0" class="graph" transform="scale(1 1) rotate(0) translate(4 255.5)">
<title>init_dict</title>
<!-- Node1 -->
<g id="Node000001" class="node">
<title>Node1</title>
<g id="a_Node000001"><a xlink:title="Initialise the dictionnary and adds special variables from the get go.">
<polygon fill="#999999" stroke="#666666" points="56,-28.5 0,-28.5 0,-9.5 56,-9.5 56,-28.5"/>
<text text-anchor="middle" x="28" y="-16.5" font-family="Helvetica,sans-Serif" font-size="10.00">init_dict</text>
</a>
</g>
</g>
<!-- Node2 -->
<g id="Node000002" class="node">
<title>Node2</title>
<g id="a_Node000002"><a xlink:href="hashmap_8c.html#a6ea7c10f5ac3ee3ad1986f24e1b83863" target="_top" xlink:title=" ">
<polygon fill="white" stroke="#666666" points="166,-47.5 92,-47.5 92,-28.5 166,-28.5 166,-47.5"/>
<text text-anchor="middle" x="129" y="-35.5" font-family="Helvetica,sans-Serif" font-size="10.00">add_special</text>
</a>
</g>
</g>
<!-- Node1&#45;&gt;Node2 -->
<g id="edge1_Node000001_Node000002" class="edge">
<title>Node1&#45;&gt;Node2</title>
<g id="a_edge1_Node000001_Node000002"><a xlink:title=" ">
<path fill="none" stroke="#63b8ff" d="M56.05,-24.19C64.04,-25.72 73.01,-27.45 81.85,-29.14"/>
<polygon fill="#63b8ff" stroke="#63b8ff" points="81.22,-32.59 91.7,-31.03 82.54,-25.71 81.22,-32.59"/>
</a>
</g>
</g>
<!-- Node16 -->
<g id="Node000016" class="node">
<title>Node16</title>
<g id="a_Node000016"><a xlink:href="itoa_8c.html#a43f392ec16afbe6cdb1ee6d1f1347f99" target="_top" xlink:title="Convert int to string.">
<polygon fill="white" stroke="#666666" points="1343,-65.5 1308,-65.5 1308,-46.5 1343,-46.5 1343,-65.5"/>
<text text-anchor="middle" x="1325.5" y="-53.5" font-family="Helvetica,sans-Serif" font-size="10.00">itoa</text>
</a>
</g>
</g>
<!-- Node1&#45;&gt;Node16 -->
<g id="edge26_Node000001_Node000016" class="edge">
<title>Node1&#45;&gt;Node16</title>
<g id="a_edge26_Node000001_Node000016"><a xlink:title=" ">
<path fill="none" stroke="#63b8ff" d="M56.1,-14.78C94.48,-9.19 166.92,0 229,0 229,0 229,0 1130.5,0 1194.7,0 1211.45,-7.68 1272,-29 1281.27,-32.26 1290.96,-36.87 1299.46,-41.36"/>
<polygon fill="#63b8ff" stroke="#63b8ff" points="1298.01,-44.56 1308.46,-46.3 1301.38,-38.42 1298.01,-44.56"/>
</a>
</g>
</g>
<!-- Node3 -->
<g id="Node000003" class="node">
<title>Node3</title>
<g id="a_Node000003"><a xlink:href="hashmap_8c.html#a3bf95c887f7eac3eb074725515feba49" target="_top" xlink:title="Add a variable to the dictionnary.">
<polygon fill="white" stroke="#666666" points="258,-66.5 202,-66.5 202,-47.5 258,-47.5 258,-66.5"/>
<text text-anchor="middle" x="230" y="-54.5" font-family="Helvetica,sans-Serif" font-size="10.00">add_var</text>
</a>
</g>
</g>
<!-- Node2&#45;&gt;Node3 -->
<g id="edge2_Node000002_Node000003" class="edge">
<title>Node2&#45;&gt;Node3</title>
<g id="a_edge2_Node000002_Node000003"><a xlink:title=" ">
<path fill="none" stroke="#63b8ff" d="M166.02,-44.91C174.43,-46.53 183.41,-48.25 191.86,-49.87"/>
<polygon fill="#63b8ff" stroke="#63b8ff" points="191.37,-53.34 201.85,-51.79 192.69,-46.47 191.37,-53.34"/>
</a>
</g>
</g>
<!-- Node4 -->
<g id="Node000004" class="node">
<title>Node4</title>
<g id="a_Node000004"><a xlink:href="hashmap_8c.html#aca86cd9ca85ac2e41fbb5c9e86ad6d6f" target="_top" xlink:title=" ">
<polygon fill="white" stroke="#666666" points="400.5,-85.5 315.5,-85.5 315.5,-66.5 400.5,-66.5 400.5,-85.5"/>
<text text-anchor="middle" x="358" y="-73.5" font-family="Helvetica,sans-Serif" font-size="10.00">expand_value</text>
</a>
</g>
</g>
<!-- Node3&#45;&gt;Node4 -->
<g id="edge3_Node000003_Node000004" class="edge">
<title>Node3&#45;&gt;Node4</title>
<g id="a_edge3_Node000003_Node000004"><a xlink:title=" ">
<path fill="none" stroke="#63b8ff" d="M258.03,-61.08C271.8,-63.15 289.03,-65.75 305.22,-68.19"/>
<polygon fill="#63b8ff" stroke="#63b8ff" points="304.73,-71.66 315.14,-69.69 305.77,-64.74 304.73,-71.66"/>
</a>
</g>
</g>
<!-- Node14 -->
<g id="Node000014" class="node">
<title>Node14</title>
<g id="a_Node000014"><a xlink:href="hash_8c.html#ac74a7e29e54c223be6213463974d6154" target="_top" xlink:title=" ">
<polygon fill="white" stroke="#666666" points="1265,-57.5 1225,-57.5 1225,-38.5 1265,-38.5 1265,-57.5"/>
<text text-anchor="middle" x="1245" y="-45.5" font-family="Helvetica,sans-Serif" font-size="10.00">hash</text>
</a>
</g>
</g>
<!-- Node3&#45;&gt;Node14 -->
<g id="edge24_Node000003_Node000014" class="edge">
<title>Node3&#45;&gt;Node14</title>
<g id="a_edge24_Node000003_Node000014"><a xlink:title=" ">
<path fill="none" stroke="#63b8ff" d="M258.23,-53.6C304.46,-48.14 401.29,-38 483.5,-38 483.5,-38 483.5,-38 998.5,-38 1076.69,-38 1168.78,-43.13 1214.77,-46.04"/>
<polygon fill="#63b8ff" stroke="#63b8ff" points="1214.71,-49.54 1224.91,-46.69 1215.16,-42.56 1214.71,-49.54"/>
</a>
</g>
</g>
<!-- Node22 -->
<g id="Node000022" class="node">
<title>Node22</title>
<g id="a_Node000022"><a xlink:href="hashmap_8c.html#a5bcdd565d2ba5876c5ef1685625cdcfa" target="_top" xlink:title=" ">
<polygon fill="white" stroke="#666666" points="422,-122.5 294,-122.5 294,-103.5 422,-103.5 422,-122.5"/>
<text text-anchor="middle" x="358" y="-110.5" font-family="Helvetica,sans-Serif" font-size="10.00">update_or_append_var</text>
</a>
</g>
</g>
<!-- Node3&#45;&gt;Node22 -->
<g id="edge25_Node000003_Node000022" class="edge">
<title>Node3&#45;&gt;Node22</title>
<g id="a_edge25_Node000003_Node000022"><a xlink:title=" ">
<path fill="none" stroke="#63b8ff" d="M245,-66.54C257.44,-74.68 276.33,-86.28 294,-94 299.3,-96.32 304.96,-98.46 310.64,-100.4"/>
<polygon fill="#63b8ff" stroke="#63b8ff" points="309.56,-103.73 320.16,-103.49 311.73,-97.08 309.56,-103.73"/>
</a>
</g>
</g>
<!-- Node5 -->
<g id="Node000005" class="node">
<title>Node5</title>
<g id="a_Node000005"><a xlink:href="expand_8c.html#ae22ff4719527d6b2b8bca3e43f576837" target="_top" xlink:title=" ">
<polygon fill="white" stroke="#666666" points="511,-85.5 458,-85.5 458,-66.5 511,-66.5 511,-85.5"/>
<text text-anchor="middle" x="484.5" y="-73.5" font-family="Helvetica,sans-Serif" font-size="10.00">expand</text>
</a>
</g>
</g>
<!-- Node4&#45;&gt;Node5 -->
<g id="edge4_Node000004_Node000005" class="edge">
<title>Node4&#45;&gt;Node5</title>
<g id="a_edge4_Node000004_Node000005"><a xlink:title=" ">
<path fill="none" stroke="#63b8ff" d="M400.8,-76C416.04,-76 433.11,-76 447.77,-76"/>
<polygon fill="#63b8ff" stroke="#63b8ff" points="447.96,-79.5 457.96,-76 447.96,-72.5 447.96,-79.5"/>
</a>
</g>
</g>
<!-- Node6 -->
<g id="Node000006" class="node">
<title>Node6</title>
<g id="a_Node000006"><a xlink:href="expand_8c.html#a492ca861a96ee6319b97b4b1d6ba9835" target="_top" xlink:title=" ">
<polygon fill="white" stroke="#666666" points="629,-160.5 547,-160.5 547,-141.5 629,-141.5 629,-160.5"/>
<text text-anchor="middle" x="588" y="-148.5" font-family="Helvetica,sans-Serif" font-size="10.00">expand_word</text>
</a>
</g>
</g>
<!-- Node5&#45;&gt;Node6 -->
<g id="edge5_Node000005_Node000006" class="edge">
<title>Node5&#45;&gt;Node6</title>
<g id="a_edge5_Node000005_Node000006"><a xlink:title=" ">
<path fill="none" stroke="#63b8ff" d="M498.77,-85.8C515.81,-98.39 545.58,-120.4 565.78,-135.32"/>
<polygon fill="#63b8ff" stroke="#63b8ff" points="563.93,-138.3 574.05,-141.43 568.09,-132.67 563.93,-138.3"/>
</a>
</g>
</g>
<!-- Node12 -->
<g id="Node000012" class="node">
<title>Node12</title>
<g id="a_Node000012"><a xlink:href="expand_8c.html#aaf941edbfdd3ac08d813ff01acc1f963" target="_top" xlink:title=" ">
<polygon fill="white" stroke="#666666" points="1156,-85.5 1103,-85.5 1103,-66.5 1156,-66.5 1156,-85.5"/>
<text text-anchor="middle" x="1129.5" y="-73.5" font-family="Helvetica,sans-Serif" font-size="10.00">free_ex</text>
</a>
</g>
</g>
<!-- Node5&#45;&gt;Node12 -->
<g id="edge23_Node000005_Node000012" class="edge">
<title>Node5&#45;&gt;Node12</title>
<g id="a_edge23_Node000005_Node000012"><a xlink:title=" ">
<path fill="none" stroke="#63b8ff" d="M511.04,-76C555.31,-76 649.19,-76 728.5,-76 728.5,-76 728.5,-76 875,-76 952.7,-76 1043.79,-76 1092.85,-76"/>
<polygon fill="#63b8ff" stroke="#63b8ff" points="1092.95,-79.5 1102.95,-76 1092.95,-72.5 1092.95,-79.5"/>
</a>
</g>
</g>
<!-- Node7 -->
<g id="Node000007" class="node">
<title>Node7</title>
<g id="a_Node000007"><a xlink:href="expand_8c.html#a97a675ffacb4b71f4f3b4a30749d9f66" target="_top" xlink:title=" ">
<polygon fill="white" stroke="#666666" points="769,-123.5 690,-123.5 690,-104.5 769,-104.5 769,-123.5"/>
<text text-anchor="middle" x="729.5" y="-111.5" font-family="Helvetica,sans-Serif" font-size="10.00">append_char</text>
</a>
</g>
</g>
<!-- Node6&#45;&gt;Node7 -->
<g id="edge6_Node000006_Node000007" class="edge">
<title>Node6&#45;&gt;Node7</title>
<g id="a_edge6_Node000006_Node000007"><a xlink:title=" ">
<path fill="none" stroke="#63b8ff" d="M624.92,-141.47C642.44,-136.83 663.72,-131.18 682.42,-126.22"/>
<polygon fill="#63b8ff" stroke="#63b8ff" points="683.44,-129.57 692.21,-123.62 681.65,-122.81 683.44,-129.57"/>
</a>
</g>
</g>
<!-- Node8 -->
<g id="Node000008" class="node">
<title>Node8</title>
<g id="a_Node000008"><a xlink:href="expand_8c.html#a6d4728fd992669e4bb35624d37972179" target="_top" xlink:title=" ">
<polygon fill="white" stroke="#666666" points="794,-236.5 665,-236.5 665,-217.5 794,-217.5 794,-236.5"/>
<text text-anchor="middle" x="729.5" y="-224.5" font-family="Helvetica,sans-Serif" font-size="10.00">double_quotes_expand</text>
</a>
</g>
</g>
<!-- Node6&#45;&gt;Node8 -->
<g id="edge7_Node000006_Node000008" class="edge">
<title>Node6&#45;&gt;Node8</title>
<g id="a_edge7_Node000006_Node000008"><a xlink:title=" ">
<path fill="none" stroke="#63b8ff" d="M601.07,-160.61C615.6,-171.85 641.04,-190.51 665,-203 672.66,-207 681.14,-210.67 689.34,-213.88"/>
<polygon fill="#63b8ff" stroke="#63b8ff" points="688.19,-217.19 698.78,-217.43 690.65,-210.63 688.19,-217.19"/>
</a>
</g>
</g>
<!-- Node11 -->
<g id="Node000011" class="node">
<title>Node11</title>
<g id="a_Node000011"><a xlink:href="expand_8c.html#a0a337c3a6b2595b2b8c03e171c9559ba" target="_top" xlink:title=" ">
<polygon fill="white" stroke="#666666" points="1034.5,-198.5 960.5,-198.5 960.5,-179.5 1034.5,-179.5 1034.5,-198.5"/>
<text text-anchor="middle" x="997.5" y="-186.5" font-family="Helvetica,sans-Serif" font-size="10.00">var_expand</text>
</a>
</g>
</g>
<!-- Node6&#45;&gt;Node11 -->
<g id="edge22_Node000006_Node000011" class="edge">
<title>Node6&#45;&gt;Node11</title>
<g id="a_edge22_Node000006_Node000011"><a xlink:title=" ">
<path fill="none" stroke="#63b8ff" d="M623.56,-160.51C636.47,-163.71 651.32,-166.98 665,-169 766.04,-183.9 885.97,-187.76 950.27,-188.72"/>
<polygon fill="#63b8ff" stroke="#63b8ff" points="950.44,-192.22 960.48,-188.85 950.53,-185.22 950.44,-192.22"/>
</a>
</g>
</g>
<!-- Node21 -->
<g id="Node000021" class="node">
<title>Node21</title>
<g id="a_Node000021"><a xlink:href="expand_8c.html#ad45c8055962fa36940e109b04b7e562e" target="_top" xlink:title=" ">
<polygon fill="white" stroke="#666666" points="789.5,-160.5 669.5,-160.5 669.5,-141.5 789.5,-141.5 789.5,-160.5"/>
<text text-anchor="middle" x="729.5" y="-148.5" font-family="Helvetica,sans-Serif" font-size="10.00">single_quote_expand</text>
</a>
</g>
</g>
<!-- Node6&#45;&gt;Node21 -->
<g id="edge21_Node000006_Node000021" class="edge">
<title>Node6&#45;&gt;Node21</title>
<g id="a_edge21_Node000006_Node000021"><a xlink:title=" ">
<path fill="none" stroke="#63b8ff" d="M629.35,-151C638.7,-151 648.92,-151 659.13,-151"/>
<polygon fill="#63b8ff" stroke="#63b8ff" points="659.3,-154.5 669.3,-151 659.3,-147.5 659.3,-154.5"/>
</a>
</g>
</g>
<!-- Node9 -->
<g id="Node000009" class="node">
<title>Node9</title>
<g id="a_Node000009"><a xlink:href="expand_8c.html#a4a10ac07faa08df14e0a438c5feace6b" target="_top" xlink:title=" ">
<polygon fill="white" stroke="#666666" points="918,-236.5 830,-236.5 830,-217.5 918,-217.5 918,-236.5"/>
<text text-anchor="middle" x="874" y="-224.5" font-family="Helvetica,sans-Serif" font-size="10.00">in_dquote_exp</text>
</a>
</g>
</g>
<!-- Node8&#45;&gt;Node9 -->
<g id="edge8_Node000008_Node000009" class="edge">
<title>Node8&#45;&gt;Node9</title>
<g id="a_edge8_Node000008_Node000009"><a xlink:title=" ">
<path fill="none" stroke="#63b8ff" d="M794.25,-227C802.69,-227 811.27,-227 819.52,-227"/>
<polygon fill="#63b8ff" stroke="#63b8ff" points="819.74,-230.5 829.74,-227 819.74,-223.5 819.74,-230.5"/>
</a>
</g>
</g>
<!-- Node10 -->
<g id="Node000010" class="node">
<title>Node10</title>
<g id="a_Node000010"><a xlink:href="expand_8c.html#a46b3549565fede625ad04072f2654aa4" target="_top" xlink:title=" ">
<polygon fill="white" stroke="#666666" points="1041,-236.5 954,-236.5 954,-217.5 1041,-217.5 1041,-236.5"/>
<text text-anchor="middle" x="997.5" y="-224.5" font-family="Helvetica,sans-Serif" font-size="10.00">is_expandable</text>
</a>
</g>
</g>
<!-- Node9&#45;&gt;Node10 -->
<g id="edge9_Node000009_Node000010" class="edge">
<title>Node9&#45;&gt;Node10</title>
<g id="a_edge9_Node000009_Node000010"><a xlink:title=" ">
<path fill="none" stroke="#63b8ff" d="M918.18,-227C926.42,-227 935.14,-227 943.64,-227"/>
<polygon fill="#63b8ff" stroke="#63b8ff" points="943.87,-230.5 953.87,-227 943.87,-223.5 943.87,-230.5"/>
</a>
</g>
</g>
<!-- Node9&#45;&gt;Node11 -->
<g id="edge10_Node000009_Node000011" class="edge">
<title>Node9&#45;&gt;Node11</title>
<g id="a_edge10_Node000009_Node000011"><a xlink:title=" ">
<path fill="none" stroke="#63b8ff" d="M905.66,-217.41C920.91,-212.64 939.55,-206.81 955.97,-201.68"/>
<polygon fill="#63b8ff" stroke="#63b8ff" points="957.35,-204.91 965.85,-198.59 955.26,-198.23 957.35,-204.91"/>
</a>
</g>
</g>
<!-- Node11&#45;&gt;Node12 -->
<g id="edge11_Node000011_Node000012" class="edge">
<title>Node11&#45;&gt;Node12</title>
<g id="a_edge11_Node000011_Node000012"><a xlink:title=" ">
<path fill="none" stroke="#63b8ff" d="M1003.92,-179.45C1015.14,-160.48 1042.76,-117.84 1077,-94 1081.93,-90.57 1087.58,-87.73 1093.29,-85.41"/>
<polygon fill="#63b8ff" stroke="#63b8ff" points="1094.61,-88.65 1102.83,-81.96 1092.24,-82.06 1094.61,-88.65"/>
</a>
</g>
</g>
<!-- Node13 -->
<g id="Node000013" class="node">
<title>Node13</title>
<g id="a_Node000013"><a xlink:href="hashmap_8c.html#aa54a9eed65359c74557f0f55c9ca3dd3" target="_top" xlink:title="Get the variable from the dictionnary.">
<polygon fill="white" stroke="#666666" points="1156,-122.5 1103,-122.5 1103,-103.5 1156,-103.5 1156,-122.5"/>
<text text-anchor="middle" x="1129.5" y="-110.5" font-family="Helvetica,sans-Serif" font-size="10.00">get_var</text>
</a>
</g>
</g>
<!-- Node11&#45;&gt;Node13 -->
<g id="edge12_Node000011_Node000013" class="edge">
<title>Node11&#45;&gt;Node13</title>
<g id="a_edge12_Node000011_Node000013"><a xlink:title=" ">
<path fill="none" stroke="#63b8ff" d="M1014.96,-179.37C1037.24,-166.35 1077.17,-143.01 1103.25,-127.76"/>
<polygon fill="#63b8ff" stroke="#63b8ff" points="1105.3,-130.62 1112.17,-122.55 1101.77,-124.57 1105.3,-130.62"/>
</a>
</g>
</g>
<!-- Node17 -->
<g id="Node000017" class="node">
<title>Node17</title>
<g id="a_Node000017"><a xlink:href="expand_8c.html#ac1225d88933658edb6e51e4ed8f003c3" target="_top" xlink:title=" ">
<polygon fill="white" stroke="#666666" points="1166,-251.5 1093,-251.5 1093,-232.5 1166,-232.5 1166,-251.5"/>
<text text-anchor="middle" x="1129.5" y="-239.5" font-family="Helvetica,sans-Serif" font-size="10.00">val_append</text>
</a>
</g>
</g>
<!-- Node11&#45;&gt;Node17 -->
<g id="edge17_Node000011_Node000017" class="edge">
<title>Node11&#45;&gt;Node17</title>
<g id="a_edge17_Node000011_Node000017"><a xlink:title=" ">
<path fill="none" stroke="#63b8ff" d="M1018.63,-198.53C1034.38,-205.85 1056.89,-216.02 1077,-224 1081.22,-225.68 1085.67,-227.36 1090.12,-228.98"/>
<polygon fill="#63b8ff" stroke="#63b8ff" points="1089.15,-232.35 1099.74,-232.42 1091.5,-225.76 1089.15,-232.35"/>
</a>
</g>
</g>
<!-- Node18 -->
<g id="Node000018" class="node">
<title>Node18</title>
<g id="a_Node000018"><a xlink:href="expand_8c.html#aa0106a12d15398cad9ca20f96f1eb374" target="_top" xlink:title=" ">
<polygon fill="white" stroke="#666666" points="1173.5,-214.5 1085.5,-214.5 1085.5,-195.5 1173.5,-195.5 1173.5,-214.5"/>
<text text-anchor="middle" x="1129.5" y="-202.5" font-family="Helvetica,sans-Serif" font-size="10.00">var_exp_brack</text>
</a>
</g>
</g>
<!-- Node11&#45;&gt;Node18 -->
<g id="edge18_Node000011_Node000018" class="edge">
<title>Node11&#45;&gt;Node18</title>
<g id="a_edge18_Node000011_Node000018"><a xlink:title=" ">
<path fill="none" stroke="#63b8ff" d="M1034.71,-193.46C1047.16,-194.99 1061.38,-196.74 1074.92,-198.41"/>
<polygon fill="#63b8ff" stroke="#63b8ff" points="1074.75,-201.91 1085.1,-199.66 1075.6,-194.96 1074.75,-201.91"/>
</a>
</g>
</g>
<!-- Node19 -->
<g id="Node000019" class="node">
<title>Node19</title>
<g id="a_Node000019"><a xlink:href="expand_8c.html#a5785fb584914d075e9a5d933e903823c" target="_top" xlink:title=" ">
<polygon fill="white" stroke="#666666" points="1182,-177.5 1077,-177.5 1077,-158.5 1182,-158.5 1182,-177.5"/>
<text text-anchor="middle" x="1129.5" y="-165.5" font-family="Helvetica,sans-Serif" font-size="10.00">var_exp_no_brack</text>
</a>
</g>
</g>
<!-- Node11&#45;&gt;Node19 -->
<g id="edge19_Node000011_Node000019" class="edge">
<title>Node11&#45;&gt;Node19</title>
<g id="a_edge19_Node000011_Node000019"><a xlink:title=" ">
<path fill="none" stroke="#63b8ff" d="M1034.71,-183.15C1044.72,-181.53 1055.87,-179.73 1066.89,-177.95"/>
<polygon fill="#63b8ff" stroke="#63b8ff" points="1067.62,-181.38 1076.94,-176.33 1066.51,-174.47 1067.62,-181.38"/>
</a>
</g>
</g>
<!-- Node13&#45;&gt;Node13 -->
<g id="edge13_Node000013_Node000013" class="edge">
<title>Node13&#45;&gt;Node13</title>
<g id="a_edge13_Node000013_Node000013"><a xlink:title=" ">
<path fill="none" stroke="#63b8ff" d="M1111.93,-122.58C1103.38,-131.23 1109.24,-140.5 1129.5,-140.5 1142.16,-140.5 1149.2,-136.88 1150.61,-132.05"/>
<polygon fill="#63b8ff" stroke="#63b8ff" points="1153.85,-130.72 1147.07,-122.58 1147.29,-133.18 1153.85,-130.72"/>
</a>
</g>
</g>
<!-- Node13&#45;&gt;Node14 -->
<g id="edge14_Node000013_Node000014" class="edge">
<title>Node13&#45;&gt;Node14</title>
<g id="a_edge14_Node000013_Node000014"><a xlink:title=" ">
<path fill="none" stroke="#63b8ff" d="M1156.01,-105.21C1164.51,-102.19 1173.87,-98.4 1182,-94 1197.56,-85.58 1213.55,-73.62 1225.4,-64"/>
<polygon fill="#63b8ff" stroke="#63b8ff" points="1227.77,-66.58 1233.22,-57.5 1223.3,-61.2 1227.77,-66.58"/>
</a>
</g>
</g>
<!-- Node15 -->
<g id="Node000015" class="node">
<title>Node15</title>
<g id="a_Node000015"><a xlink:href="hashmap_8c.html#a5b2c78a0a08d606dfbf21fe636373e6e" target="_top" xlink:title=" ">
<polygon fill="white" stroke="#666666" points="1270.5,-103.5 1219.5,-103.5 1219.5,-84.5 1270.5,-84.5 1270.5,-103.5"/>
<text text-anchor="middle" x="1245" y="-91.5" font-family="Helvetica,sans-Serif" font-size="10.00">special</text>
</a>
</g>
</g>
<!-- Node13&#45;&gt;Node15 -->
<g id="edge15_Node000013_Node000015" class="edge">
<title>Node13&#45;&gt;Node15</title>
<g id="a_edge15_Node000013_Node000015"><a xlink:title=" ">
<path fill="none" stroke="#63b8ff" d="M1156.25,-108.69C1171.85,-106.08 1191.96,-102.71 1208.99,-99.86"/>
<polygon fill="#63b8ff" stroke="#63b8ff" points="1209.84,-103.27 1219.13,-98.16 1208.69,-96.36 1209.84,-103.27"/>
</a>
</g>
</g>
<!-- Node15&#45;&gt;Node16 -->
<g id="edge16_Node000015_Node000016" class="edge">
<title>Node15&#45;&gt;Node16</title>
<g id="a_edge16_Node000015_Node000016"><a xlink:title=" ">
<path fill="none" stroke="#63b8ff" d="M1265.81,-84.41C1275.75,-79.6 1287.93,-73.7 1298.6,-68.54"/>
<polygon fill="#63b8ff" stroke="#63b8ff" points="1300.41,-71.55 1307.88,-64.04 1297.36,-65.25 1300.41,-71.55"/>
</a>
</g>
</g>
<!-- Node20 -->
<g id="Node000020" class="node">
<title>Node20</title>
<g id="a_Node000020"><a xlink:href="expand_8c.html#a66cc7be396f0ef502a888b56eee2f4bf" target="_top" xlink:title=" ">
<polygon fill="white" stroke="#666666" points="1272,-177.5 1218,-177.5 1218,-158.5 1272,-158.5 1272,-177.5"/>
<text text-anchor="middle" x="1245" y="-165.5" font-family="Helvetica,sans-Serif" font-size="10.00">is_word</text>
</a>
</g>
</g>
<!-- Node19&#45;&gt;Node20 -->
<g id="edge20_Node000019_Node000020" class="edge">
<title>Node19&#45;&gt;Node20</title>
<g id="a_edge20_Node000019_Node000020"><a xlink:title=" ">
<path fill="none" stroke="#63b8ff" d="M1182.27,-168C1190.8,-168 1199.49,-168 1207.55,-168"/>
<polygon fill="#63b8ff" stroke="#63b8ff" points="1207.72,-171.5 1217.72,-168 1207.72,-164.5 1207.72,-171.5"/>
</a>
</g>
</g>
</g>
</svg>
