<?xml version="1.0" encoding="UTF-8" standalone="no"?>
<!DOCTYPE svg PUBLIC "-//W3C//DTD SVG 1.1//EN"
 "http://www.w3.org/Graphics/SVG/1.1/DTD/svg11.dtd">
<!-- Generated by graphviz version 2.43.0 (0)
 -->
<!-- Title: get_var Pages: 1 -->
<svg width="219pt" height="64pt"
 viewBox="0.00 0.00 219.00 64.00" xmlns="http://www.w3.org/2000/svg" xmlns:xlink="http://www.w3.org/1999/xlink">
<g id="graph0" class="graph" transform="scale(1 1) rotate(0) translate(4 60)">
<title>get_var</title>
<!-- Node1 -->
<g id="Node000001" class="node">
<title>Node1</title>
<g id="a_Node000001"><a xlink:title="Get the variable from the dictionnary.">
<polygon fill="#999999" stroke="#666666" points="53,-37 0,-37 0,-18 53,-18 53,-37"/>
<text text-anchor="middle" x="26.5" y="-25" font-family="Helvetica,sans-Serif" font-size="10.00">get_var</text>
</a>
</g>
</g>
<!-- Node1&#45;&gt;Node1 -->
<g id="edge1_Node000001_Node000001" class="edge">
<title>Node1&#45;&gt;Node1</title>
<g id="a_edge1_Node000001_Node000001"><a xlink:title=" ">
<path fill="none" stroke="#63b8ff" d="M12.94,-37.08C6.34,-45.73 10.86,-55 26.5,-55 36.03,-55 41.43,-51.56 42.71,-46.91"/>
<polygon fill="#63b8ff" stroke="#63b8ff" points="46.04,-45.83 40.06,-37.08 39.28,-47.65 46.04,-45.83"/>
</a>
</g>
</g>
<!-- Node2 -->
<g id="Node000002" class="node">
<title>Node2</title>
<g id="a_Node000002"><a xlink:href="hash_8c.html#ac74a7e29e54c223be6213463974d6154" target="_top" xlink:title=" ">
<polygon fill="white" stroke="#666666" points="134.5,-56 94.5,-56 94.5,-37 134.5,-37 134.5,-56"/>
<text text-anchor="middle" x="114.5" y="-44" font-family="Helvetica,sans-Serif" font-size="10.00">hash</text>
</a>
</g>
</g>
<!-- Node1&#45;&gt;Node2 -->
<g id="edge2_Node000001_Node000002" class="edge">
<title>Node1&#45;&gt;Node2</title>
<g id="a_edge2_Node000001_Node000002"><a xlink:title=" ">
<path fill="none" stroke="#63b8ff" d="M53.3,-33.2C63.07,-35.36 74.26,-37.83 84.31,-40.05"/>
<polygon fill="#63b8ff" stroke="#63b8ff" points="83.76,-43.51 94.28,-42.25 85.27,-36.68 83.76,-43.51"/>
</a>
</g>
</g>
<!-- Node3 -->
<g id="Node000003" class="node">
<title>Node3</title>
<g id="a_Node000003"><a xlink:href="hashmap_8c.html#a5b2c78a0a08d606dfbf21fe636373e6e" target="_top" xlink:title=" ">
<polygon fill="white" stroke="#666666" points="140,-19 89,-19 89,0 140,0 140,-19"/>
<text text-anchor="middle" x="114.5" y="-7" font-family="Helvetica,sans-Serif" font-size="10.00">special</text>
</a>
</g>
</g>
<!-- Node1&#45;&gt;Node3 -->
<g id="edge3_Node000001_Node000003" class="edge">
<title>Node1&#45;&gt;Node3</title>
<g id="a_edge3_Node000001_Node000003"><a xlink:title=" ">
<path fill="none" stroke="#63b8ff" d="M53.3,-22.1C61.41,-20.4 70.5,-18.5 79.1,-16.7"/>
<polygon fill="#63b8ff" stroke="#63b8ff" points="79.82,-20.12 88.9,-14.65 78.39,-13.27 79.82,-20.12"/>
</a>
</g>
</g>
<!-- Node4 -->
<g id="Node000004" class="node">
<title>Node4</title>
<g id="a_Node000004"><a xlink:href="itoa_8c.html#a43f392ec16afbe6cdb1ee6d1f1347f99" target="_top" xlink:title="Convert int to string.">
<polygon fill="white" stroke="#666666" points="211,-19 176,-19 176,0 211,0 211,-19"/>
<text text-anchor="middle" x="193.5" y="-7" font-family="Helvetica,sans-Serif" font-size="10.00">itoa</text>
</a>
</g>
</g>
<!-- Node3&#45;&gt;Node4 -->
<g id="edge4_Node000003_Node000004" class="edge">
<title>Node3&#45;&gt;Node4</title>
<g id="a_edge4_Node000003_Node000004"><a xlink:title=" ">
<path fill="none" stroke="#63b8ff" d="M140.29,-9.5C148.36,-9.5 157.35,-9.5 165.57,-9.5"/>
<polygon fill="#63b8ff" stroke="#63b8ff" points="165.79,-13 175.79,-9.5 165.79,-6 165.79,-13"/>
</a>
</g>
</g>
</g>
</svg>
