<?xml version="1.0" encoding="UTF-8" standalone="no"?>
<!DOCTYPE svg PUBLIC "-//W3C//DTD SVG 1.1//EN"
 "http://www.w3.org/Graphics/SVG/1.1/DTD/svg11.dtd">
<!-- Generated by graphviz version 2.43.0 (0)
 -->
<!-- Title: add_var_arg Pages: 1 -->
<svg width="209pt" height="101pt"
 viewBox="0.00 0.00 209.00 101.00" xmlns="http://www.w3.org/2000/svg" xmlns:xlink="http://www.w3.org/1999/xlink">
<g id="graph0" class="graph" transform="scale(1 1) rotate(0) translate(4 97)">
<title>add_var_arg</title>
<!-- Node1 -->
<g id="Node000001" class="node">
<title>Node1</title>
<g id="a_Node000001"><a xlink:title="Add a variable with multiple arguments to the dictionnary.">
<polygon fill="#999999" stroke="#666666" points="77,-56 0,-56 0,-37 77,-37 77,-56"/>
<text text-anchor="middle" x="38.5" y="-44" font-family="Helvetica,sans-Serif" font-size="10.00">add_var_arg</text>
</a>
</g>
</g>
<!-- Node2 -->
<g id="Node000002" class="node">
<title>Node2</title>
<g id="a_Node000002"><a xlink:href="hashmap_8c.html#ae5069e0cc454eb644b895a3d32f3802b" target="_top" xlink:title=" ">
<polygon fill="white" stroke="#666666" points="201,-93 113,-93 113,-74 201,-74 201,-93"/>
<text text-anchor="middle" x="157" y="-81" font-family="Helvetica,sans-Serif" font-size="10.00">dup_val_to_elt</text>
</a>
</g>
</g>
<!-- Node1&#45;&gt;Node2 -->
<g id="edge1_Node000001_Node000002" class="edge">
<title>Node1&#45;&gt;Node2</title>
<g id="a_edge1_Node000001_Node000002"><a xlink:title=" ">
<path fill="none" stroke="#63b8ff" d="M69.5,-56.03C83.66,-60.52 100.75,-65.95 116,-70.8"/>
<polygon fill="#63b8ff" stroke="#63b8ff" points="115.1,-74.18 125.7,-73.88 117.22,-67.51 115.1,-74.18"/>
</a>
</g>
</g>
<!-- Node3 -->
<g id="Node000003" class="node">
<title>Node3</title>
<g id="a_Node000003"><a xlink:href="hashmap_8c.html#a9c916e726c920c9129bbd014333bd932" target="_top" xlink:title=" ">
<polygon fill="white" stroke="#666666" points="185.5,-56 128.5,-56 128.5,-37 185.5,-37 185.5,-56"/>
<text text-anchor="middle" x="157" y="-44" font-family="Helvetica,sans-Serif" font-size="10.00">free_var</text>
</a>
</g>
</g>
<!-- Node1&#45;&gt;Node3 -->
<g id="edge2_Node000001_Node000003" class="edge">
<title>Node1&#45;&gt;Node3</title>
<g id="a_edge2_Node000001_Node000003"><a xlink:title=" ">
<path fill="none" stroke="#63b8ff" d="M77,-46.5C90.12,-46.5 104.86,-46.5 118.02,-46.5"/>
<polygon fill="#63b8ff" stroke="#63b8ff" points="118.18,-50 128.18,-46.5 118.18,-43 118.18,-50"/>
</a>
</g>
</g>
<!-- Node4 -->
<g id="Node000004" class="node">
<title>Node4</title>
<g id="a_Node000004"><a xlink:href="hash_8c.html#ac74a7e29e54c223be6213463974d6154" target="_top" xlink:title=" ">
<polygon fill="white" stroke="#666666" points="177,-19 137,-19 137,0 177,0 177,-19"/>
<text text-anchor="middle" x="157" y="-7" font-family="Helvetica,sans-Serif" font-size="10.00">hash</text>
</a>
</g>
</g>
<!-- Node1&#45;&gt;Node4 -->
<g id="edge3_Node000001_Node000004" class="edge">
<title>Node1&#45;&gt;Node4</title>
<g id="a_edge3_Node000001_Node000004"><a xlink:title=" ">
<path fill="none" stroke="#63b8ff" d="M69.5,-36.97C87.2,-31.35 109.48,-24.27 127,-18.71"/>
<polygon fill="#63b8ff" stroke="#63b8ff" points="128.22,-21.99 136.7,-15.63 126.1,-15.32 128.22,-21.99"/>
</a>
</g>
</g>
</g>
</svg>
