<?xml version="1.0" encoding="UTF-8" standalone="no"?>
<!DOCTYPE svg PUBLIC "-//W3C//DTD SVG 1.1//EN"
 "http://www.w3.org/Graphics/SVG/1.1/DTD/svg11.dtd">
<!-- Generated by graphviz version 2.43.0 (0)
 -->
<!-- Title: add_func Pages: 1 -->
<svg width="310pt" height="304pt"
 viewBox="0.00 0.00 310.00 304.00" xmlns="http://www.w3.org/2000/svg" xmlns:xlink="http://www.w3.org/1999/xlink">
<g id="graph0" class="graph" transform="scale(1 1) rotate(0) translate(4 300)">
<title>add_func</title>
<!-- Node1 -->
<g id="Node000001" class="node">
<title>Node1</title>
<g id="a_Node000001"><a xlink:title="Add a function to the dictionnary.">
<polygon fill="#999999" stroke="#666666" points="61,-111 0,-111 0,-92 61,-92 61,-111"/>
<text text-anchor="middle" x="30.5" y="-99" font-family="Helvetica,sans-Serif" font-size="10.00">add_func</text>
</a>
</g>
</g>
<!-- Node2 -->
<g id="Node000002" class="node">
<title>Node2</title>
<g id="a_Node000002"><a xlink:href="ast_8c.html#adbd51ee24d251e4506b1163864d7fd64" target="_top" xlink:title=" ">
<polygon fill="white" stroke="#666666" points="153,-130 97,-130 97,-111 153,-111 153,-130"/>
<text text-anchor="middle" x="125" y="-118" font-family="Helvetica,sans-Serif" font-size="10.00">free_ast</text>
</a>
</g>
</g>
<!-- Node1&#45;&gt;Node2 -->
<g id="edge1_Node000001_Node000002" class="edge">
<title>Node1&#45;&gt;Node2</title>
<g id="a_edge1_Node000001_Node000002"><a xlink:title=" ">
<path fill="none" stroke="#63b8ff" d="M61.02,-107.56C69.31,-109.27 78.42,-111.14 87.08,-112.92"/>
<polygon fill="#63b8ff" stroke="#63b8ff" points="86.45,-116.36 96.95,-114.94 87.86,-109.5 86.45,-116.36"/>
</a>
</g>
</g>
<!-- Node11 -->
<g id="Node000011" class="node">
<title>Node11</title>
<g id="a_Node000011"><a xlink:href="hash_8c.html#ac74a7e29e54c223be6213463974d6154" target="_top" xlink:title=" ">
<polygon fill="white" stroke="#666666" points="145,-93 105,-93 105,-74 145,-74 145,-93"/>
<text text-anchor="middle" x="125" y="-81" font-family="Helvetica,sans-Serif" font-size="10.00">hash</text>
</a>
</g>
</g>
<!-- Node1&#45;&gt;Node11 -->
<g id="edge18_Node000001_Node000011" class="edge">
<title>Node1&#45;&gt;Node11</title>
<g id="a_edge18_Node000001_Node000011"><a xlink:title=" ">
<path fill="none" stroke="#63b8ff" d="M61.02,-95.76C71.92,-93.63 84.25,-91.23 95.09,-89.12"/>
<polygon fill="#63b8ff" stroke="#63b8ff" points="95.79,-92.55 104.94,-87.21 94.45,-85.68 95.79,-92.55"/>
</a>
</g>
</g>
<!-- Node3 -->
<g id="Node000003" class="node">
<title>Node3</title>
<g id="a_Node000003"><a xlink:href="ast__free_8c.html#a80edc240f8b3b576efc19e8465449822" target="_top" xlink:title=" ">
<polygon fill="white" stroke="#666666" points="293,-296 198,-296 198,-277 293,-277 293,-296"/>
<text text-anchor="middle" x="245.5" y="-284" font-family="Helvetica,sans-Serif" font-size="10.00">ast_free_and_or</text>
</a>
</g>
</g>
<!-- Node2&#45;&gt;Node3 -->
<g id="edge2_Node000002_Node000003" class="edge">
<title>Node2&#45;&gt;Node3</title>
<g id="a_edge2_Node000002_Node000003"><a xlink:title=" ">
<path fill="none" stroke="#63b8ff" d="M128.1,-130.03C133.14,-155.43 148.62,-222.55 189,-259.5 196.65,-266.5 207.07,-270.78 216.81,-273.98"/>
<polygon fill="#63b8ff" stroke="#63b8ff" points="215.98,-277.38 226.57,-276.98 218.04,-270.69 215.98,-277.38"/>
</a>
</g>
</g>
<!-- Node4 -->
<g id="Node000004" class="node">
<title>Node4</title>
<g id="a_Node000004"><a xlink:href="ast__free_8c.html#a9330029530c792a2570859c41fea1f87" target="_top" xlink:title=" ">
<polygon fill="white" stroke="#666666" points="287,-259 204,-259 204,-240 287,-240 287,-259"/>
<text text-anchor="middle" x="245.5" y="-247" font-family="Helvetica,sans-Serif" font-size="10.00">ast_free_cmd</text>
</a>
</g>
</g>
<!-- Node2&#45;&gt;Node4 -->
<g id="edge4_Node000002_Node000004" class="edge">
<title>Node2&#45;&gt;Node4</title>
<g id="a_edge4_Node000002_Node000004"><a xlink:title=" ">
<path fill="none" stroke="#63b8ff" d="M128.79,-130.09C135.52,-151.5 154.65,-203.49 189,-231.5 190.79,-232.96 192.69,-234.3 194.68,-235.53"/>
<polygon fill="#63b8ff" stroke="#63b8ff" points="193.36,-238.79 203.86,-240.27 196.58,-232.57 193.36,-238.79"/>
</a>
</g>
</g>
<!-- Node5 -->
<g id="Node000005" class="node">
<title>Node5</title>
<g id="a_Node000005"><a xlink:href="ast__free_8c.html#a2093aa16119809b1788e3544ccacb07a" target="_top" xlink:title=" ">
<polygon fill="white" stroke="#666666" points="283,-222 208,-222 208,-203 283,-203 283,-222"/>
<text text-anchor="middle" x="245.5" y="-210" font-family="Helvetica,sans-Serif" font-size="10.00">ast_free_for</text>
</a>
</g>
</g>
<!-- Node2&#45;&gt;Node5 -->
<g id="edge5_Node000002_Node000005" class="edge">
<title>Node2&#45;&gt;Node5</title>
<g id="a_edge5_Node000002_Node000005"><a xlink:title=" ">
<path fill="none" stroke="#63b8ff" d="M136.06,-130.24C147.09,-144.71 166.28,-170.3 189,-185.5 198.47,-191.84 210.34,-196.08 220.66,-199.61"/>
<polygon fill="#63b8ff" stroke="#63b8ff" points="219.73,-202.99 230.33,-202.95 222.02,-196.38 219.73,-202.99"/>
</a>
</g>
</g>
<!-- Node6 -->
<g id="Node000006" class="node">
<title>Node6</title>
<g id="a_Node000006"><a xlink:href="ast__free_8c.html#abfce6009bf2f91da322878514d9209c0" target="_top" xlink:title=" ">
<polygon fill="white" stroke="#666666" points="279.5,-185 211.5,-185 211.5,-166 279.5,-166 279.5,-185"/>
<text text-anchor="middle" x="245.5" y="-173" font-family="Helvetica,sans-Serif" font-size="10.00">ast_free_if</text>
</a>
</g>
</g>
<!-- Node2&#45;&gt;Node6 -->
<g id="edge7_Node000002_Node000006" class="edge">
<title>Node2&#45;&gt;Node6</title>
<g id="a_edge7_Node000002_Node000006"><a xlink:title=" ">
<path fill="none" stroke="#63b8ff" d="M153.22,-129.86C164.07,-135.84 176.85,-143.04 189,-148.5 200.2,-153.53 213.24,-157.84 223.87,-161.93"/>
<polygon fill="#63b8ff" stroke="#63b8ff" points="222.6,-165.19 233.18,-165.8 225.29,-158.73 222.6,-165.19"/>
</a>
</g>
</g>
<!-- Node7 -->
<g id="Node000007" class="node">
<title>Node7</title>
<g id="a_Node000007"><a xlink:href="ast__free_8c.html#a654d27b37151693d221d215450efe6bb" target="_top" xlink:title=" ">
<polygon fill="white" stroke="#666666" points="284,-130 207,-130 207,-111 284,-111 284,-130"/>
<text text-anchor="middle" x="245.5" y="-118" font-family="Helvetica,sans-Serif" font-size="10.00">ast_free_list</text>
</a>
</g>
</g>
<!-- Node2&#45;&gt;Node7 -->
<g id="edge9_Node000002_Node000007" class="edge">
<title>Node2&#45;&gt;Node7</title>
<g id="a_edge9_Node000002_Node000007"><a xlink:title=" ">
<path fill="none" stroke="#63b8ff" d="M153.19,-114.72C166.07,-113.85 181.84,-113.57 196.63,-113.86"/>
<polygon fill="#63b8ff" stroke="#63b8ff" points="196.57,-117.36 206.66,-114.16 196.77,-110.36 196.57,-117.36"/>
</a>
</g>
</g>
<!-- Node8 -->
<g id="Node000008" class="node">
<title>Node8</title>
<g id="a_Node000008"><a xlink:href="ast__free_8c.html#a09f3dd857c6d405a4e1b2e3109a1d3df" target="_top" xlink:title=" ">
<polygon fill="white" stroke="#666666" points="287,-93 204,-93 204,-74 287,-74 287,-93"/>
<text text-anchor="middle" x="245.5" y="-81" font-family="Helvetica,sans-Serif" font-size="10.00">ast_free_loop</text>
</a>
</g>
</g>
<!-- Node2&#45;&gt;Node8 -->
<g id="edge12_Node000002_Node000008" class="edge">
<title>Node2&#45;&gt;Node8</title>
<g id="a_edge12_Node000002_Node000008"><a xlink:title=" ">
<path fill="none" stroke="#63b8ff" d="M141.49,-110.93C154.9,-105.16 175.07,-98.21 194.01,-92.58"/>
<polygon fill="#63b8ff" stroke="#63b8ff" points="195.12,-95.9 203.76,-89.77 193.18,-89.18 195.12,-95.9"/>
</a>
</g>
</g>
<!-- Node9 -->
<g id="Node000009" class="node">
<title>Node9</title>
<g id="a_Node000009"><a xlink:href="ast__free_8c.html#a50c5d556b19bcd99345d42797422afbc" target="_top" xlink:title=" ">
<polygon fill="white" stroke="#666666" points="287,-56 204,-56 204,-37 287,-37 287,-56"/>
<text text-anchor="middle" x="245.5" y="-44" font-family="Helvetica,sans-Serif" font-size="10.00">ast_free_pipe</text>
</a>
</g>
</g>
<!-- Node2&#45;&gt;Node9 -->
<g id="edge14_Node000002_Node000009" class="edge">
<title>Node2&#45;&gt;Node9</title>
<g id="a_edge14_Node000002_Node000009"><a xlink:title=" ">
<path fill="none" stroke="#63b8ff" d="M131.2,-110.85C136.81,-105.13 145.9,-99.41 153,-93.5 170.64,-78.83 169.62,-68.77 189,-56.5 190.71,-55.42 192.49,-54.39 194.32,-53.41"/>
<polygon fill="#63b8ff" stroke="#63b8ff" points="196.16,-56.42 203.75,-49.03 193.21,-50.07 196.16,-56.42"/>
</a>
</g>
</g>
<!-- Node10 -->
<g id="Node000010" class="node">
<title>Node10</title>
<g id="a_Node000010"><a xlink:href="ast__free_8c.html#a6e033482de30aca56f1b66190b9a481c" target="_top" xlink:title=" ">
<polygon fill="white" stroke="#666666" points="302,-19 189,-19 189,0 302,0 302,-19"/>
<text text-anchor="middle" x="245.5" y="-7" font-family="Helvetica,sans-Serif" font-size="10.00">ast_free_shell_redir</text>
</a>
</g>
</g>
<!-- Node2&#45;&gt;Node10 -->
<g id="edge16_Node000002_Node000010" class="edge">
<title>Node2&#45;&gt;Node10</title>
<g id="a_edge16_Node000002_Node000010"><a xlink:title=" ">
<path fill="none" stroke="#63b8ff" d="M132.04,-110.87C138.01,-105.62 147.07,-100.29 153,-93.5 174.71,-68.64 164.24,-48.12 182.46,-26.25"/>
<polygon fill="#63b8ff" stroke="#63b8ff" points="184.97,-28.69 189.46,-19.1 179.96,-23.8 184.97,-28.69"/>
</a>
</g>
</g>
<!-- Node3&#45;&gt;Node2 -->
<g id="edge3_Node000003_Node000002" class="edge">
<title>Node3&#45;&gt;Node2</title>
<g id="a_edge3_Node000003_Node000002"><a xlink:title=" ">
<path fill="none" stroke="#63b8ff" d="M197.94,-283.9C194.72,-282.09 191.69,-279.96 189,-277.5 148.65,-240.58 133.16,-173.52 128.12,-140.02"/>
<polygon fill="#63b8ff" stroke="#63b8ff" points="131.58,-139.49 126.78,-130.04 124.64,-140.42 131.58,-139.49"/>
</a>
</g>
</g>
<!-- Node5&#45;&gt;Node2 -->
<g id="edge6_Node000005_Node000002" class="edge">
<title>Node5&#45;&gt;Node2</title>
<g id="a_edge6_Node000005_Node000002"><a xlink:title=" ">
<path fill="none" stroke="#63b8ff" d="M207.93,-212.66C201.32,-210.4 194.73,-207.33 189,-203.5 164.52,-187.12 144.13,-158.67 133.64,-139.37"/>
<polygon fill="#63b8ff" stroke="#63b8ff" points="136.67,-137.62 129.08,-130.23 130.41,-140.74 136.67,-137.62"/>
</a>
</g>
</g>
<!-- Node6&#45;&gt;Node2 -->
<g id="edge8_Node000006_Node000002" class="edge">
<title>Node6&#45;&gt;Node2</title>
<g id="a_edge8_Node000006_Node000002"><a xlink:title=" ">
<path fill="none" stroke="#63b8ff" d="M211.48,-174.85C203.97,-172.6 196.11,-169.7 189,-166.5 171.5,-158.63 152.68,-147.14 140.21,-137.2"/>
<polygon fill="#63b8ff" stroke="#63b8ff" points="142.19,-134.28 132.37,-130.31 137.57,-139.54 142.19,-134.28"/>
</a>
</g>
</g>
<!-- Node7&#45;&gt;Node2 -->
<g id="edge11_Node000007_Node000002" class="edge">
<title>Node7&#45;&gt;Node2</title>
<g id="a_edge11_Node000007_Node000002"><a xlink:title=" ">
<path fill="none" stroke="#63b8ff" d="M206.66,-126.84C192.81,-127.39 177.14,-127.39 163.33,-126.82"/>
<polygon fill="#63b8ff" stroke="#63b8ff" points="163.36,-123.32 153.19,-126.28 162.99,-130.31 163.36,-123.32"/>
</a>
</g>
</g>
<!-- Node7&#45;&gt;Node7 -->
<g id="edge10_Node000007_Node000007" class="edge">
<title>Node7&#45;&gt;Node7</title>
<g id="a_edge10_Node000007_Node000007"><a xlink:title=" ">
<path fill="none" stroke="#63b8ff" d="M227,-130.08C218.01,-138.73 224.17,-148 245.5,-148 258.83,-148 266.24,-144.38 267.72,-139.55"/>
<polygon fill="#63b8ff" stroke="#63b8ff" points="270.91,-138.11 264,-130.08 264.4,-140.67 270.91,-138.11"/>
</a>
</g>
</g>
<!-- Node8&#45;&gt;Node2 -->
<g id="edge13_Node000008_Node000002" class="edge">
<title>Node8&#45;&gt;Node2</title>
<g id="a_edge13_Node000008_Node000002"><a xlink:title=" ">
<path fill="none" stroke="#63b8ff" d="M229.05,-93.05C212.38,-100.23 185.25,-109.23 163.01,-115.25"/>
<polygon fill="#63b8ff" stroke="#63b8ff" points="161.99,-111.9 153.19,-117.79 163.74,-118.68 161.99,-111.9"/>
</a>
</g>
</g>
<!-- Node9&#45;&gt;Node2 -->
<g id="edge15_Node000009_Node000002" class="edge">
<title>Node9&#45;&gt;Node2</title>
<g id="a_edge15_Node000009_Node000002"><a xlink:title=" ">
<path fill="none" stroke="#63b8ff" d="M231.85,-56.01C220.1,-60.8 202.42,-66 189,-74.5 172.8,-84.76 170.86,-93.47 160.2,-104.75"/>
<polygon fill="#63b8ff" stroke="#63b8ff" points="157.66,-102.33 152.74,-111.72 162.44,-107.45 157.66,-102.33"/>
</a>
</g>
</g>
<!-- Node10&#45;&gt;Node2 -->
<g id="edge17_Node000010_Node000002" class="edge">
<title>Node10&#45;&gt;Node2</title>
<g id="a_edge17_Node000010_Node000002"><a xlink:title=" ">
<path fill="none" stroke="#63b8ff" d="M228.24,-19.05C216.17,-22.99 199.99,-27.79 189,-37.5 164.27,-59.36 174.45,-79.59 158.83,-103.76"/>
<polygon fill="#63b8ff" stroke="#63b8ff" points="156.02,-101.67 152.78,-111.75 161.6,-105.89 156.02,-101.67"/>
</a>
</g>
</g>
</g>
</svg>
