<?xml version="1.0" encoding="UTF-8" standalone="no"?>
<!DOCTYPE svg PUBLIC "-//W3C//DTD SVG 1.1//EN"
 "http://www.w3.org/Graphics/SVG/1.1/DTD/svg11.dtd">
<!-- Generated by graphviz version 2.43.0 (0)
 -->
<!-- Title: add_special Pages: 1 -->
<svg width="1259pt" height="269pt"
 viewBox="0.00 0.00 1259.00 269.00" xmlns="http://www.w3.org/2000/svg" xmlns:xlink="http://www.w3.org/1999/xlink">
<g id="graph0" class="graph" transform="scale(1 1) rotate(0) translate(4 265)">
<title>add_special</title>
<!-- Node1 -->
<g id="Node000001" class="node">
<title>Node1</title>
<g id="a_Node000001"><a xlink:title=" ">
<polygon fill="#999999" stroke="#666666" points="74,-57 0,-57 0,-38 74,-38 74,-57"/>
<text text-anchor="middle" x="37" y="-45" font-family="Helvetica,sans-Serif" font-size="10.00">add_special</text>
</a>
</g>
</g>
<!-- Node2 -->
<g id="Node000002" class="node">
<title>Node2</title>
<g id="a_Node000002"><a xlink:href="hashmap_8c.html#a3bf95c887f7eac3eb074725515feba49" target="_top" xlink:title="Add a variable to the dictionnary.">
<polygon fill="white" stroke="#666666" points="166,-57 110,-57 110,-38 166,-38 166,-57"/>
<text text-anchor="middle" x="138" y="-45" font-family="Helvetica,sans-Serif" font-size="10.00">add_var</text>
</a>
</g>
</g>
<!-- Node1&#45;&gt;Node2 -->
<g id="edge1_Node000001_Node000002" class="edge">
<title>Node1&#45;&gt;Node2</title>
<g id="a_edge1_Node000001_Node000002"><a xlink:title=" ">
<path fill="none" stroke="#63b8ff" d="M74.02,-47.5C82.34,-47.5 91.21,-47.5 99.59,-47.5"/>
<polygon fill="#63b8ff" stroke="#63b8ff" points="99.85,-51 109.85,-47.5 99.85,-44 99.85,-51"/>
</a>
</g>
</g>
<!-- Node3 -->
<g id="Node000003" class="node">
<title>Node3</title>
<g id="a_Node000003"><a xlink:href="hashmap_8c.html#aca86cd9ca85ac2e41fbb5c9e86ad6d6f" target="_top" xlink:title=" ">
<polygon fill="white" stroke="#666666" points="308.5,-122 223.5,-122 223.5,-103 308.5,-103 308.5,-122"/>
<text text-anchor="middle" x="266" y="-110" font-family="Helvetica,sans-Serif" font-size="10.00">expand_value</text>
</a>
</g>
</g>
<!-- Node2&#45;&gt;Node3 -->
<g id="edge2_Node000002_Node000003" class="edge">
<title>Node2&#45;&gt;Node3</title>
<g id="a_edge2_Node000002_Node000003"><a xlink:title=" ">
<path fill="none" stroke="#63b8ff" d="M157.59,-57.09C178.62,-67.94 213.09,-85.72 237.29,-98.21"/>
<polygon fill="#63b8ff" stroke="#63b8ff" points="235.84,-101.4 246.33,-102.87 239.05,-95.17 235.84,-101.4"/>
</a>
</g>
</g>
<!-- Node13 -->
<g id="Node000013" class="node">
<title>Node13</title>
<g id="a_Node000013"><a xlink:href="hash_8c.html#ac74a7e29e54c223be6213463974d6154" target="_top" xlink:title=" ">
<polygon fill="white" stroke="#666666" points="1173,-76 1133,-76 1133,-57 1173,-57 1173,-76"/>
<text text-anchor="middle" x="1153" y="-64" font-family="Helvetica,sans-Serif" font-size="10.00">hash</text>
</a>
</g>
</g>
<!-- Node2&#45;&gt;Node13 -->
<g id="edge23_Node000002_Node000013" class="edge">
<title>Node2&#45;&gt;Node13</title>
<g id="a_edge23_Node000002_Node000013"><a xlink:title=" ">
<path fill="none" stroke="#63b8ff" d="M166.28,-47.5C212.58,-47.5 309.53,-47.5 391.5,-47.5 391.5,-47.5 391.5,-47.5 906.5,-47.5 984.86,-47.5 1076.87,-57.24 1122.81,-62.77"/>
<polygon fill="#63b8ff" stroke="#63b8ff" points="1122.59,-66.27 1132.94,-64.02 1123.44,-59.32 1122.59,-66.27"/>
</a>
</g>
</g>
<!-- Node21 -->
<g id="Node000021" class="node">
<title>Node21</title>
<g id="a_Node000021"><a xlink:href="hashmap_8c.html#a5bcdd565d2ba5876c5ef1685625cdcfa" target="_top" xlink:title=" ">
<polygon fill="white" stroke="#666666" points="330,-19 202,-19 202,0 330,0 330,-19"/>
<text text-anchor="middle" x="266" y="-7" font-family="Helvetica,sans-Serif" font-size="10.00">update_or_append_var</text>
</a>
</g>
</g>
<!-- Node2&#45;&gt;Node21 -->
<g id="edge24_Node000002_Node000021" class="edge">
<title>Node2&#45;&gt;Node21</title>
<g id="a_edge24_Node000002_Node000021"><a xlink:title=" ">
<path fill="none" stroke="#63b8ff" d="M166.03,-39.35C182.78,-34.3 204.63,-27.71 223.54,-22"/>
<polygon fill="#63b8ff" stroke="#63b8ff" points="224.55,-25.36 233.11,-19.12 222.53,-18.65 224.55,-25.36"/>
</a>
</g>
</g>
<!-- Node4 -->
<g id="Node000004" class="node">
<title>Node4</title>
<g id="a_Node000004"><a xlink:href="expand_8c.html#ae22ff4719527d6b2b8bca3e43f576837" target="_top" xlink:title=" ">
<polygon fill="white" stroke="#666666" points="419,-167 366,-167 366,-148 419,-148 419,-167"/>
<text text-anchor="middle" x="392.5" y="-155" font-family="Helvetica,sans-Serif" font-size="10.00">expand</text>
</a>
</g>
</g>
<!-- Node3&#45;&gt;Node4 -->
<g id="edge3_Node000003_Node000004" class="edge">
<title>Node3&#45;&gt;Node4</title>
<g id="a_edge3_Node000003_Node000004"><a xlink:title=" ">
<path fill="none" stroke="#63b8ff" d="M293.4,-122.04C311.81,-128.69 336.55,-137.64 356.58,-144.88"/>
<polygon fill="#63b8ff" stroke="#63b8ff" points="355.39,-148.17 365.99,-148.28 357.77,-141.59 355.39,-148.17"/>
</a>
</g>
</g>
<!-- Node5 -->
<g id="Node000005" class="node">
<title>Node5</title>
<g id="a_Node000005"><a xlink:href="expand_8c.html#a492ca861a96ee6319b97b4b1d6ba9835" target="_top" xlink:title=" ">
<polygon fill="white" stroke="#666666" points="537,-167 455,-167 455,-148 537,-148 537,-167"/>
<text text-anchor="middle" x="496" y="-155" font-family="Helvetica,sans-Serif" font-size="10.00">expand_word</text>
</a>
</g>
</g>
<!-- Node4&#45;&gt;Node5 -->
<g id="edge4_Node000004_Node000005" class="edge">
<title>Node4&#45;&gt;Node5</title>
<g id="a_edge4_Node000004_Node000005"><a xlink:title=" ">
<path fill="none" stroke="#63b8ff" d="M419.11,-157.5C426.88,-157.5 435.7,-157.5 444.5,-157.5"/>
<polygon fill="#63b8ff" stroke="#63b8ff" points="444.78,-161 454.78,-157.5 444.78,-154 444.78,-161"/>
</a>
</g>
</g>
<!-- Node11 -->
<g id="Node000011" class="node">
<title>Node11</title>
<g id="a_Node000011"><a xlink:href="expand_8c.html#aaf941edbfdd3ac08d813ff01acc1f963" target="_top" xlink:title=" ">
<polygon fill="white" stroke="#666666" points="1064,-261 1011,-261 1011,-242 1064,-242 1064,-261"/>
<text text-anchor="middle" x="1037.5" y="-249" font-family="Helvetica,sans-Serif" font-size="10.00">free_ex</text>
</a>
</g>
</g>
<!-- Node4&#45;&gt;Node11 -->
<g id="edge22_Node000004_Node000011" class="edge">
<title>Node4&#45;&gt;Node11</title>
<g id="a_edge22_Node000004_Node000011"><a xlink:title=" ">
<path fill="none" stroke="#63b8ff" d="M407.29,-167.03C443.24,-190.93 543.54,-251.5 636.5,-251.5 636.5,-251.5 636.5,-251.5 783,-251.5 860.7,-251.5 951.79,-251.5 1000.85,-251.5"/>
<polygon fill="#63b8ff" stroke="#63b8ff" points="1000.95,-255 1010.95,-251.5 1000.95,-248 1000.95,-255"/>
</a>
</g>
</g>
<!-- Node6 -->
<g id="Node000006" class="node">
<title>Node6</title>
<g id="a_Node000006"><a xlink:href="expand_8c.html#a97a675ffacb4b71f4f3b4a30749d9f66" target="_top" xlink:title=" ">
<polygon fill="white" stroke="#666666" points="677,-186 598,-186 598,-167 677,-167 677,-186"/>
<text text-anchor="middle" x="637.5" y="-174" font-family="Helvetica,sans-Serif" font-size="10.00">append_char</text>
</a>
</g>
</g>
<!-- Node5&#45;&gt;Node6 -->
<g id="edge5_Node000005_Node000006" class="edge">
<title>Node5&#45;&gt;Node6</title>
<g id="a_edge5_Node000005_Node000006"><a xlink:title=" ">
<path fill="none" stroke="#63b8ff" d="M537.35,-163C553.08,-165.14 571.24,-167.61 587.7,-169.85"/>
<polygon fill="#63b8ff" stroke="#63b8ff" points="587.3,-173.33 597.68,-171.21 588.25,-166.4 587.3,-173.33"/>
</a>
</g>
</g>
<!-- Node7 -->
<g id="Node000007" class="node">
<title>Node7</title>
<g id="a_Node000007"><a xlink:href="expand_8c.html#a6d4728fd992669e4bb35624d37972179" target="_top" xlink:title=" ">
<polygon fill="white" stroke="#666666" points="702,-149 573,-149 573,-130 702,-130 702,-149"/>
<text text-anchor="middle" x="637.5" y="-137" font-family="Helvetica,sans-Serif" font-size="10.00">double_quotes_expand</text>
</a>
</g>
</g>
<!-- Node5&#45;&gt;Node7 -->
<g id="edge6_Node000005_Node000007" class="edge">
<title>Node5&#45;&gt;Node7</title>
<g id="a_edge6_Node000005_Node000007"><a xlink:title=" ">
<path fill="none" stroke="#63b8ff" d="M537.35,-152.29C545.42,-151.25 554.13,-150.13 562.92,-148.99"/>
<polygon fill="#63b8ff" stroke="#63b8ff" points="563.38,-152.46 572.85,-147.71 562.49,-145.52 563.38,-152.46"/>
</a>
</g>
</g>
<!-- Node10 -->
<g id="Node000010" class="node">
<title>Node10</title>
<g id="a_Node000010"><a xlink:href="expand_8c.html#a0a337c3a6b2595b2b8c03e171c9559ba" target="_top" xlink:title=" ">
<polygon fill="white" stroke="#666666" points="942.5,-140 868.5,-140 868.5,-121 942.5,-121 942.5,-140"/>
<text text-anchor="middle" x="905.5" y="-128" font-family="Helvetica,sans-Serif" font-size="10.00">var_expand</text>
</a>
</g>
</g>
<!-- Node5&#45;&gt;Node10 -->
<g id="edge21_Node000005_Node000010" class="edge">
<title>Node5&#45;&gt;Node10</title>
<g id="a_edge21_Node000005_Node000010"><a xlink:title=" ">
<path fill="none" stroke="#63b8ff" d="M511.99,-147.94C526.82,-139.09 550.49,-126.56 573,-121.5 672.71,-99.08 793.52,-112.08 858.23,-122.16"/>
<polygon fill="#63b8ff" stroke="#63b8ff" points="857.7,-125.62 868.13,-123.74 858.81,-118.7 857.7,-125.62"/>
</a>
</g>
</g>
<!-- Node20 -->
<g id="Node000020" class="node">
<title>Node20</title>
<g id="a_Node000020"><a xlink:href="expand_8c.html#ad45c8055962fa36940e109b04b7e562e" target="_top" xlink:title=" ">
<polygon fill="white" stroke="#666666" points="697.5,-223 577.5,-223 577.5,-204 697.5,-204 697.5,-223"/>
<text text-anchor="middle" x="637.5" y="-211" font-family="Helvetica,sans-Serif" font-size="10.00">single_quote_expand</text>
</a>
</g>
</g>
<!-- Node5&#45;&gt;Node20 -->
<g id="edge20_Node000005_Node000020" class="edge">
<title>Node5&#45;&gt;Node20</title>
<g id="a_edge20_Node000005_Node000020"><a xlink:title=" ">
<path fill="none" stroke="#63b8ff" d="M513.79,-167.04C528.92,-175.36 551.96,-187.34 573,-195.5 578.07,-197.47 583.45,-199.33 588.85,-201.05"/>
<polygon fill="#63b8ff" stroke="#63b8ff" points="587.92,-204.42 598.51,-203.99 589.96,-197.73 587.92,-204.42"/>
</a>
</g>
</g>
<!-- Node8 -->
<g id="Node000008" class="node">
<title>Node8</title>
<g id="a_Node000008"><a xlink:href="expand_8c.html#a4a10ac07faa08df14e0a438c5feace6b" target="_top" xlink:title=" ">
<polygon fill="white" stroke="#666666" points="826,-149 738,-149 738,-130 826,-130 826,-149"/>
<text text-anchor="middle" x="782" y="-137" font-family="Helvetica,sans-Serif" font-size="10.00">in_dquote_exp</text>
</a>
</g>
</g>
<!-- Node7&#45;&gt;Node8 -->
<g id="edge7_Node000007_Node000008" class="edge">
<title>Node7&#45;&gt;Node8</title>
<g id="a_edge7_Node000007_Node000008"><a xlink:title=" ">
<path fill="none" stroke="#63b8ff" d="M702.25,-139.5C710.69,-139.5 719.27,-139.5 727.52,-139.5"/>
<polygon fill="#63b8ff" stroke="#63b8ff" points="727.74,-143 737.74,-139.5 727.74,-136 727.74,-143"/>
</a>
</g>
</g>
<!-- Node9 -->
<g id="Node000009" class="node">
<title>Node9</title>
<g id="a_Node000009"><a xlink:href="expand_8c.html#a46b3549565fede625ad04072f2654aa4" target="_top" xlink:title=" ">
<polygon fill="white" stroke="#666666" points="949,-177 862,-177 862,-158 949,-158 949,-177"/>
<text text-anchor="middle" x="905.5" y="-165" font-family="Helvetica,sans-Serif" font-size="10.00">is_expandable</text>
</a>
</g>
</g>
<!-- Node8&#45;&gt;Node9 -->
<g id="edge8_Node000008_Node000009" class="edge">
<title>Node8&#45;&gt;Node9</title>
<g id="a_edge8_Node000008_Node000009"><a xlink:title=" ">
<path fill="none" stroke="#63b8ff" d="M824.47,-149.06C833.76,-151.2 843.72,-153.49 853.34,-155.71"/>
<polygon fill="#63b8ff" stroke="#63b8ff" points="852.68,-159.15 863.21,-157.99 854.25,-152.33 852.68,-159.15"/>
</a>
</g>
</g>
<!-- Node8&#45;&gt;Node10 -->
<g id="edge9_Node000008_Node000010" class="edge">
<title>Node8&#45;&gt;Node10</title>
<g id="a_edge9_Node000008_Node000010"><a xlink:title=" ">
<path fill="none" stroke="#63b8ff" d="M826.18,-136.3C836.51,-135.54 847.59,-134.72 858.06,-133.94"/>
<polygon fill="#63b8ff" stroke="#63b8ff" points="858.57,-137.41 868.29,-133.18 858.05,-130.43 858.57,-137.41"/>
</a>
</g>
</g>
<!-- Node10&#45;&gt;Node11 -->
<g id="edge10_Node000010_Node000011" class="edge">
<title>Node10&#45;&gt;Node11</title>
<g id="a_edge10_Node000010_Node000011"><a xlink:title=" ">
<path fill="none" stroke="#63b8ff" d="M935.8,-140.08C940.62,-142.59 945.26,-145.7 949,-149.5 977.5,-178.44 955.31,-205.78 985,-233.5 989.68,-237.87 995.48,-241.19 1001.48,-243.7"/>
<polygon fill="#63b8ff" stroke="#63b8ff" points="1000.35,-247.01 1010.94,-247.03 1002.67,-240.41 1000.35,-247.01"/>
</a>
</g>
</g>
<!-- Node12 -->
<g id="Node000012" class="node">
<title>Node12</title>
<g id="a_Node000012"><a xlink:href="hashmap_8c.html#aa54a9eed65359c74557f0f55c9ca3dd3" target="_top" xlink:title="Get the variable from the dictionnary.">
<polygon fill="white" stroke="#666666" points="1064,-132 1011,-132 1011,-113 1064,-113 1064,-132"/>
<text text-anchor="middle" x="1037.5" y="-120" font-family="Helvetica,sans-Serif" font-size="10.00">get_var</text>
</a>
</g>
</g>
<!-- Node10&#45;&gt;Node12 -->
<g id="edge11_Node000010_Node000012" class="edge">
<title>Node10&#45;&gt;Node12</title>
<g id="a_edge11_Node000010_Node000012"><a xlink:title=" ">
<path fill="none" stroke="#63b8ff" d="M942.71,-128.27C960.8,-127.16 982.61,-125.82 1000.65,-124.71"/>
<polygon fill="#63b8ff" stroke="#63b8ff" points="1001.01,-128.19 1010.78,-124.08 1000.58,-121.2 1001.01,-128.19"/>
</a>
</g>
</g>
<!-- Node16 -->
<g id="Node000016" class="node">
<title>Node16</title>
<g id="a_Node000016"><a xlink:href="expand_8c.html#ac1225d88933658edb6e51e4ed8f003c3" target="_top" xlink:title=" ">
<polygon fill="white" stroke="#666666" points="1074,-95 1001,-95 1001,-76 1074,-76 1074,-95"/>
<text text-anchor="middle" x="1037.5" y="-83" font-family="Helvetica,sans-Serif" font-size="10.00">val_append</text>
</a>
</g>
</g>
<!-- Node10&#45;&gt;Node16 -->
<g id="edge16_Node000010_Node000016" class="edge">
<title>Node10&#45;&gt;Node16</title>
<g id="a_edge16_Node000010_Node000016"><a xlink:title=" ">
<path fill="none" stroke="#63b8ff" d="M934.07,-120.96C953.11,-114.36 978.66,-105.52 999.48,-98.31"/>
<polygon fill="#63b8ff" stroke="#63b8ff" points="1000.67,-101.61 1008.97,-95.03 998.38,-94.99 1000.67,-101.61"/>
</a>
</g>
</g>
<!-- Node17 -->
<g id="Node000017" class="node">
<title>Node17</title>
<g id="a_Node000017"><a xlink:href="expand_8c.html#aa0106a12d15398cad9ca20f96f1eb374" target="_top" xlink:title=" ">
<polygon fill="white" stroke="#666666" points="1081.5,-224 993.5,-224 993.5,-205 1081.5,-205 1081.5,-224"/>
<text text-anchor="middle" x="1037.5" y="-212" font-family="Helvetica,sans-Serif" font-size="10.00">var_exp_brack</text>
</a>
</g>
</g>
<!-- Node10&#45;&gt;Node17 -->
<g id="edge17_Node000010_Node000017" class="edge">
<title>Node10&#45;&gt;Node17</title>
<g id="a_edge17_Node000010_Node000017"><a xlink:title=" ">
<path fill="none" stroke="#63b8ff" d="M933.28,-140.03C938.78,-142.64 944.31,-145.79 949,-149.5 969.64,-165.81 963.69,-181.07 985,-196.5 987.05,-197.98 989.23,-199.35 991.49,-200.61"/>
<polygon fill="#63b8ff" stroke="#63b8ff" points="990,-203.78 1000.52,-204.98 993.04,-197.48 990,-203.78"/>
</a>
</g>
</g>
<!-- Node18 -->
<g id="Node000018" class="node">
<title>Node18</title>
<g id="a_Node000018"><a xlink:href="expand_8c.html#a5785fb584914d075e9a5d933e903823c" target="_top" xlink:title=" ">
<polygon fill="white" stroke="#666666" points="1090,-187 985,-187 985,-168 1090,-168 1090,-187"/>
<text text-anchor="middle" x="1037.5" y="-175" font-family="Helvetica,sans-Serif" font-size="10.00">var_exp_no_brack</text>
</a>
</g>
</g>
<!-- Node10&#45;&gt;Node18 -->
<g id="edge18_Node000010_Node000018" class="edge">
<title>Node10&#45;&gt;Node18</title>
<g id="a_edge18_Node000010_Node000018"><a xlink:title=" ">
<path fill="none" stroke="#63b8ff" d="M931.91,-140.02C947.26,-145.73 967.23,-153.11 985,-159.5 989.6,-161.15 994.45,-162.87 999.25,-164.57"/>
<polygon fill="#63b8ff" stroke="#63b8ff" points="998.34,-167.96 1008.94,-167.97 1000.66,-161.35 998.34,-167.96"/>
</a>
</g>
</g>
<!-- Node12&#45;&gt;Node12 -->
<g id="edge12_Node000012_Node000012" class="edge">
<title>Node12&#45;&gt;Node12</title>
<g id="a_edge12_Node000012_Node000012"><a xlink:title=" ">
<path fill="none" stroke="#63b8ff" d="M1019.93,-132.08C1011.38,-140.73 1017.24,-150 1037.5,-150 1050.16,-150 1057.2,-146.38 1058.61,-141.55"/>
<polygon fill="#63b8ff" stroke="#63b8ff" points="1061.85,-140.22 1055.07,-132.08 1055.29,-142.68 1061.85,-140.22"/>
</a>
</g>
</g>
<!-- Node12&#45;&gt;Node13 -->
<g id="edge13_Node000012_Node000013" class="edge">
<title>Node12&#45;&gt;Node13</title>
<g id="a_edge13_Node000012_Node000013"><a xlink:title=" ">
<path fill="none" stroke="#63b8ff" d="M1064.08,-114.76C1072.49,-111.9 1081.79,-108.4 1090,-104.5 1103.68,-98.01 1118.15,-89.26 1129.67,-81.79"/>
<polygon fill="#63b8ff" stroke="#63b8ff" points="1131.79,-84.58 1138.2,-76.15 1127.93,-78.75 1131.79,-84.58"/>
</a>
</g>
</g>
<!-- Node14 -->
<g id="Node000014" class="node">
<title>Node14</title>
<g id="a_Node000014"><a xlink:href="hashmap_8c.html#a5b2c78a0a08d606dfbf21fe636373e6e" target="_top" xlink:title=" ">
<polygon fill="white" stroke="#666666" points="1178.5,-132 1127.5,-132 1127.5,-113 1178.5,-113 1178.5,-132"/>
<text text-anchor="middle" x="1153" y="-120" font-family="Helvetica,sans-Serif" font-size="10.00">special</text>
</a>
</g>
</g>
<!-- Node12&#45;&gt;Node14 -->
<g id="edge14_Node000012_Node000014" class="edge">
<title>Node12&#45;&gt;Node14</title>
<g id="a_edge14_Node000012_Node000014"><a xlink:title=" ">
<path fill="none" stroke="#63b8ff" d="M1064.25,-122.5C1079.85,-122.5 1099.96,-122.5 1116.99,-122.5"/>
<polygon fill="#63b8ff" stroke="#63b8ff" points="1117.13,-126 1127.13,-122.5 1117.13,-119 1117.13,-126"/>
</a>
</g>
</g>
<!-- Node15 -->
<g id="Node000015" class="node">
<title>Node15</title>
<g id="a_Node000015"><a xlink:href="itoa_8c.html#a43f392ec16afbe6cdb1ee6d1f1347f99" target="_top" xlink:title="Convert int to string.">
<polygon fill="white" stroke="#666666" points="1251,-132 1216,-132 1216,-113 1251,-113 1251,-132"/>
<text text-anchor="middle" x="1233.5" y="-120" font-family="Helvetica,sans-Serif" font-size="10.00">itoa</text>
</a>
</g>
</g>
<!-- Node14&#45;&gt;Node15 -->
<g id="edge15_Node000014_Node000015" class="edge">
<title>Node14&#45;&gt;Node15</title>
<g id="a_edge15_Node000014_Node000015"><a xlink:title=" ">
<path fill="none" stroke="#63b8ff" d="M1178.84,-122.5C1187.4,-122.5 1197.02,-122.5 1205.72,-122.5"/>
<polygon fill="#63b8ff" stroke="#63b8ff" points="1205.76,-126 1215.76,-122.5 1205.76,-119 1205.76,-126"/>
</a>
</g>
</g>
<!-- Node19 -->
<g id="Node000019" class="node">
<title>Node19</title>
<g id="a_Node000019"><a xlink:href="expand_8c.html#a66cc7be396f0ef502a888b56eee2f4bf" target="_top" xlink:title=" ">
<polygon fill="white" stroke="#666666" points="1180,-187 1126,-187 1126,-168 1180,-168 1180,-187"/>
<text text-anchor="middle" x="1153" y="-175" font-family="Helvetica,sans-Serif" font-size="10.00">is_word</text>
</a>
</g>
</g>
<!-- Node18&#45;&gt;Node19 -->
<g id="edge19_Node000018_Node000019" class="edge">
<title>Node18&#45;&gt;Node19</title>
<g id="a_edge19_Node000018_Node000019"><a xlink:title=" ">
<path fill="none" stroke="#63b8ff" d="M1090.27,-177.5C1098.8,-177.5 1107.49,-177.5 1115.55,-177.5"/>
<polygon fill="#63b8ff" stroke="#63b8ff" points="1115.72,-181 1125.72,-177.5 1115.72,-174 1115.72,-181"/>
</a>
</g>
</g>
</g>
</svg>
