<?xml version="1.0" encoding="UTF-8" standalone="no"?>
<!DOCTYPE svg PUBLIC "-//W3C//DTD SVG 1.1//EN"
 "http://www.w3.org/Graphics/SVG/1.1/DTD/svg11.dtd">
<!-- Generated by graphviz version 2.43.0 (0)
 -->
<!-- Title: free_dict Pages: 1 -->
<svg width="406pt" height="304pt"
 viewBox="0.00 0.00 406.00 304.00" xmlns="http://www.w3.org/2000/svg" xmlns:xlink="http://www.w3.org/1999/xlink">
<g id="graph0" class="graph" transform="scale(1 1) rotate(0) translate(4 300)">
<title>free_dict</title>
<!-- Node1 -->
<g id="Node000001" class="node">
<title>Node1</title>
<g id="a_Node000001"><a xlink:title=" ">
<polygon fill="#999999" stroke="#666666" points="59,-111 0,-111 0,-92 59,-92 59,-111"/>
<text text-anchor="middle" x="29.5" y="-99" font-family="Helvetica,sans-Serif" font-size="10.00">free_dict</text>
</a>
</g>
</g>
<!-- Node2 -->
<g id="Node000002" class="node">
<title>Node2</title>
<g id="a_Node000002"><a xlink:href="hashmap_8c.html#a299c00b116943c9e28b3d60e2cc38260" target="_top" xlink:title=" ">
<polygon fill="white" stroke="#666666" points="157,-130 95,-130 95,-111 157,-111 157,-130"/>
<text text-anchor="middle" x="126" y="-118" font-family="Helvetica,sans-Serif" font-size="10.00">free_func</text>
</a>
</g>
</g>
<!-- Node1&#45;&gt;Node2 -->
<g id="edge1_Node000001_Node000002" class="edge">
<title>Node1&#45;&gt;Node2</title>
<g id="a_edge1_Node000001_Node000002"><a xlink:title=" ">
<path fill="none" stroke="#63b8ff" d="M59.11,-107.25C67.23,-108.89 76.23,-110.69 84.9,-112.44"/>
<polygon fill="#63b8ff" stroke="#63b8ff" points="84.35,-115.9 94.85,-114.44 85.73,-109.04 84.35,-115.9"/>
</a>
</g>
</g>
<!-- Node12 -->
<g id="Node000012" class="node">
<title>Node12</title>
<g id="a_Node000012"><a xlink:href="hashmap_8c.html#a9c916e726c920c9129bbd014333bd932" target="_top" xlink:title=" ">
<polygon fill="white" stroke="#666666" points="154.5,-93 97.5,-93 97.5,-74 154.5,-74 154.5,-93"/>
<text text-anchor="middle" x="126" y="-81" font-family="Helvetica,sans-Serif" font-size="10.00">free_var</text>
</a>
</g>
</g>
<!-- Node1&#45;&gt;Node12 -->
<g id="edge19_Node000001_Node000012" class="edge">
<title>Node1&#45;&gt;Node12</title>
<g id="a_edge19_Node000001_Node000012"><a xlink:title=" ">
<path fill="none" stroke="#63b8ff" d="M59.11,-96.05C68.05,-94.35 78.04,-92.44 87.49,-90.64"/>
<polygon fill="#63b8ff" stroke="#63b8ff" points="88.29,-94.06 97.46,-88.75 86.98,-87.18 88.29,-94.06"/>
</a>
</g>
</g>
<!-- Node3 -->
<g id="Node000003" class="node">
<title>Node3</title>
<g id="a_Node000003"><a xlink:href="ast_8c.html#adbd51ee24d251e4506b1163864d7fd64" target="_top" xlink:title=" ">
<polygon fill="white" stroke="#666666" points="249,-130 193,-130 193,-111 249,-111 249,-130"/>
<text text-anchor="middle" x="221" y="-118" font-family="Helvetica,sans-Serif" font-size="10.00">free_ast</text>
</a>
</g>
</g>
<!-- Node2&#45;&gt;Node3 -->
<g id="edge2_Node000002_Node000003" class="edge">
<title>Node2&#45;&gt;Node3</title>
<g id="a_edge2_Node000002_Node000003"><a xlink:title=" ">
<path fill="none" stroke="#63b8ff" d="M157.19,-120.5C165.34,-120.5 174.25,-120.5 182.73,-120.5"/>
<polygon fill="#63b8ff" stroke="#63b8ff" points="182.78,-124 192.78,-120.5 182.78,-117 182.78,-124"/>
</a>
</g>
</g>
<!-- Node4 -->
<g id="Node000004" class="node">
<title>Node4</title>
<g id="a_Node000004"><a xlink:href="ast__free_8c.html#a80edc240f8b3b576efc19e8465449822" target="_top" xlink:title=" ">
<polygon fill="white" stroke="#666666" points="389,-296 294,-296 294,-277 389,-277 389,-296"/>
<text text-anchor="middle" x="341.5" y="-284" font-family="Helvetica,sans-Serif" font-size="10.00">ast_free_and_or</text>
</a>
</g>
</g>
<!-- Node3&#45;&gt;Node4 -->
<g id="edge3_Node000003_Node000004" class="edge">
<title>Node3&#45;&gt;Node4</title>
<g id="a_edge3_Node000003_Node000004"><a xlink:title=" ">
<path fill="none" stroke="#63b8ff" d="M224.1,-130.03C229.14,-155.43 244.62,-222.55 285,-259.5 292.65,-266.5 303.07,-270.78 312.81,-273.98"/>
<polygon fill="#63b8ff" stroke="#63b8ff" points="311.98,-277.38 322.57,-276.98 314.04,-270.69 311.98,-277.38"/>
</a>
</g>
</g>
<!-- Node5 -->
<g id="Node000005" class="node">
<title>Node5</title>
<g id="a_Node000005"><a xlink:href="ast__free_8c.html#a9330029530c792a2570859c41fea1f87" target="_top" xlink:title=" ">
<polygon fill="white" stroke="#666666" points="383,-259 300,-259 300,-240 383,-240 383,-259"/>
<text text-anchor="middle" x="341.5" y="-247" font-family="Helvetica,sans-Serif" font-size="10.00">ast_free_cmd</text>
</a>
</g>
</g>
<!-- Node3&#45;&gt;Node5 -->
<g id="edge5_Node000003_Node000005" class="edge">
<title>Node3&#45;&gt;Node5</title>
<g id="a_edge5_Node000003_Node000005"><a xlink:title=" ">
<path fill="none" stroke="#63b8ff" d="M224.79,-130.09C231.52,-151.5 250.65,-203.49 285,-231.5 286.79,-232.96 288.69,-234.3 290.68,-235.53"/>
<polygon fill="#63b8ff" stroke="#63b8ff" points="289.36,-238.79 299.86,-240.27 292.58,-232.57 289.36,-238.79"/>
</a>
</g>
</g>
<!-- Node6 -->
<g id="Node000006" class="node">
<title>Node6</title>
<g id="a_Node000006"><a xlink:href="ast__free_8c.html#a2093aa16119809b1788e3544ccacb07a" target="_top" xlink:title=" ">
<polygon fill="white" stroke="#666666" points="379,-222 304,-222 304,-203 379,-203 379,-222"/>
<text text-anchor="middle" x="341.5" y="-210" font-family="Helvetica,sans-Serif" font-size="10.00">ast_free_for</text>
</a>
</g>
</g>
<!-- Node3&#45;&gt;Node6 -->
<g id="edge6_Node000003_Node000006" class="edge">
<title>Node3&#45;&gt;Node6</title>
<g id="a_edge6_Node000003_Node000006"><a xlink:title=" ">
<path fill="none" stroke="#63b8ff" d="M232.06,-130.24C243.09,-144.71 262.28,-170.3 285,-185.5 294.47,-191.84 306.34,-196.08 316.66,-199.61"/>
<polygon fill="#63b8ff" stroke="#63b8ff" points="315.73,-202.99 326.33,-202.95 318.02,-196.38 315.73,-202.99"/>
</a>
</g>
</g>
<!-- Node7 -->
<g id="Node000007" class="node">
<title>Node7</title>
<g id="a_Node000007"><a xlink:href="ast__free_8c.html#abfce6009bf2f91da322878514d9209c0" target="_top" xlink:title=" ">
<polygon fill="white" stroke="#666666" points="375.5,-185 307.5,-185 307.5,-166 375.5,-166 375.5,-185"/>
<text text-anchor="middle" x="341.5" y="-173" font-family="Helvetica,sans-Serif" font-size="10.00">ast_free_if</text>
</a>
</g>
</g>
<!-- Node3&#45;&gt;Node7 -->
<g id="edge8_Node000003_Node000007" class="edge">
<title>Node3&#45;&gt;Node7</title>
<g id="a_edge8_Node000003_Node000007"><a xlink:title=" ">
<path fill="none" stroke="#63b8ff" d="M249.22,-129.86C260.07,-135.84 272.85,-143.04 285,-148.5 296.2,-153.53 309.24,-157.84 319.87,-161.93"/>
<polygon fill="#63b8ff" stroke="#63b8ff" points="318.6,-165.19 329.18,-165.8 321.29,-158.73 318.6,-165.19"/>
</a>
</g>
</g>
<!-- Node8 -->
<g id="Node000008" class="node">
<title>Node8</title>
<g id="a_Node000008"><a xlink:href="ast__free_8c.html#a654d27b37151693d221d215450efe6bb" target="_top" xlink:title=" ">
<polygon fill="white" stroke="#666666" points="380,-130 303,-130 303,-111 380,-111 380,-130"/>
<text text-anchor="middle" x="341.5" y="-118" font-family="Helvetica,sans-Serif" font-size="10.00">ast_free_list</text>
</a>
</g>
</g>
<!-- Node3&#45;&gt;Node8 -->
<g id="edge10_Node000003_Node000008" class="edge">
<title>Node3&#45;&gt;Node8</title>
<g id="a_edge10_Node000003_Node000008"><a xlink:title=" ">
<path fill="none" stroke="#63b8ff" d="M249.19,-114.72C262.07,-113.85 277.84,-113.57 292.63,-113.86"/>
<polygon fill="#63b8ff" stroke="#63b8ff" points="292.57,-117.36 302.66,-114.16 292.77,-110.36 292.57,-117.36"/>
</a>
</g>
</g>
<!-- Node9 -->
<g id="Node000009" class="node">
<title>Node9</title>
<g id="a_Node000009"><a xlink:href="ast__free_8c.html#a09f3dd857c6d405a4e1b2e3109a1d3df" target="_top" xlink:title=" ">
<polygon fill="white" stroke="#666666" points="383,-93 300,-93 300,-74 383,-74 383,-93"/>
<text text-anchor="middle" x="341.5" y="-81" font-family="Helvetica,sans-Serif" font-size="10.00">ast_free_loop</text>
</a>
</g>
</g>
<!-- Node3&#45;&gt;Node9 -->
<g id="edge13_Node000003_Node000009" class="edge">
<title>Node3&#45;&gt;Node9</title>
<g id="a_edge13_Node000003_Node000009"><a xlink:title=" ">
<path fill="none" stroke="#63b8ff" d="M237.49,-110.93C250.9,-105.16 271.07,-98.21 290.01,-92.58"/>
<polygon fill="#63b8ff" stroke="#63b8ff" points="291.12,-95.9 299.76,-89.77 289.18,-89.18 291.12,-95.9"/>
</a>
</g>
</g>
<!-- Node10 -->
<g id="Node000010" class="node">
<title>Node10</title>
<g id="a_Node000010"><a xlink:href="ast__free_8c.html#a50c5d556b19bcd99345d42797422afbc" target="_top" xlink:title=" ">
<polygon fill="white" stroke="#666666" points="383,-56 300,-56 300,-37 383,-37 383,-56"/>
<text text-anchor="middle" x="341.5" y="-44" font-family="Helvetica,sans-Serif" font-size="10.00">ast_free_pipe</text>
</a>
</g>
</g>
<!-- Node3&#45;&gt;Node10 -->
<g id="edge15_Node000003_Node000010" class="edge">
<title>Node3&#45;&gt;Node10</title>
<g id="a_edge15_Node000003_Node000010"><a xlink:title=" ">
<path fill="none" stroke="#63b8ff" d="M226.4,-110.69C236.03,-95.92 260.11,-70.88 285,-56.5 286.75,-55.49 288.57,-54.52 290.43,-53.59"/>
<polygon fill="#63b8ff" stroke="#63b8ff" points="292.23,-56.62 299.97,-49.38 289.41,-50.22 292.23,-56.62"/>
</a>
</g>
</g>
<!-- Node11 -->
<g id="Node000011" class="node">
<title>Node11</title>
<g id="a_Node000011"><a xlink:href="ast__free_8c.html#a6e033482de30aca56f1b66190b9a481c" target="_top" xlink:title=" ">
<polygon fill="white" stroke="#666666" points="398,-19 285,-19 285,0 398,0 398,-19"/>
<text text-anchor="middle" x="341.5" y="-7" font-family="Helvetica,sans-Serif" font-size="10.00">ast_free_shell_redir</text>
</a>
</g>
</g>
<!-- Node3&#45;&gt;Node11 -->
<g id="edge17_Node000003_Node000011" class="edge">
<title>Node3&#45;&gt;Node11</title>
<g id="a_edge17_Node000003_Node000011"><a xlink:title=" ">
<path fill="none" stroke="#63b8ff" d="M224.33,-110.71C230.62,-91.53 249.35,-51.34 277.67,-25.65"/>
<polygon fill="#63b8ff" stroke="#63b8ff" points="280.05,-28.22 285.49,-19.13 275.57,-22.84 280.05,-28.22"/>
</a>
</g>
</g>
<!-- Node4&#45;&gt;Node3 -->
<g id="edge4_Node000004_Node000003" class="edge">
<title>Node4&#45;&gt;Node3</title>
<g id="a_edge4_Node000004_Node000003"><a xlink:title=" ">
<path fill="none" stroke="#63b8ff" d="M293.94,-283.9C290.72,-282.09 287.69,-279.96 285,-277.5 244.65,-240.58 229.16,-173.52 224.12,-140.02"/>
<polygon fill="#63b8ff" stroke="#63b8ff" points="227.58,-139.49 222.78,-130.04 220.64,-140.42 227.58,-139.49"/>
</a>
</g>
</g>
<!-- Node6&#45;&gt;Node3 -->
<g id="edge7_Node000006_Node000003" class="edge">
<title>Node6&#45;&gt;Node3</title>
<g id="a_edge7_Node000006_Node000003"><a xlink:title=" ">
<path fill="none" stroke="#63b8ff" d="M303.93,-212.66C297.32,-210.4 290.73,-207.33 285,-203.5 260.52,-187.12 240.13,-158.67 229.64,-139.37"/>
<polygon fill="#63b8ff" stroke="#63b8ff" points="232.67,-137.62 225.08,-130.23 226.41,-140.74 232.67,-137.62"/>
</a>
</g>
</g>
<!-- Node7&#45;&gt;Node3 -->
<g id="edge9_Node000007_Node000003" class="edge">
<title>Node7&#45;&gt;Node3</title>
<g id="a_edge9_Node000007_Node000003"><a xlink:title=" ">
<path fill="none" stroke="#63b8ff" d="M307.48,-174.85C299.97,-172.6 292.11,-169.7 285,-166.5 267.5,-158.63 248.68,-147.14 236.21,-137.2"/>
<polygon fill="#63b8ff" stroke="#63b8ff" points="238.19,-134.28 228.37,-130.31 233.57,-139.54 238.19,-134.28"/>
</a>
</g>
</g>
<!-- Node8&#45;&gt;Node3 -->
<g id="edge12_Node000008_Node000003" class="edge">
<title>Node8&#45;&gt;Node3</title>
<g id="a_edge12_Node000008_Node000003"><a xlink:title=" ">
<path fill="none" stroke="#63b8ff" d="M302.66,-126.84C288.81,-127.39 273.14,-127.39 259.33,-126.82"/>
<polygon fill="#63b8ff" stroke="#63b8ff" points="259.36,-123.32 249.19,-126.28 258.99,-130.31 259.36,-123.32"/>
</a>
</g>
</g>
<!-- Node8&#45;&gt;Node8 -->
<g id="edge11_Node000008_Node000008" class="edge">
<title>Node8&#45;&gt;Node8</title>
<g id="a_edge11_Node000008_Node000008"><a xlink:title=" ">
<path fill="none" stroke="#63b8ff" d="M323,-130.08C314.01,-138.73 320.17,-148 341.5,-148 354.83,-148 362.24,-144.38 363.72,-139.55"/>
<polygon fill="#63b8ff" stroke="#63b8ff" points="366.91,-138.11 360,-130.08 360.4,-140.67 366.91,-138.11"/>
</a>
</g>
</g>
<!-- Node9&#45;&gt;Node3 -->
<g id="edge14_Node000009_Node000003" class="edge">
<title>Node9&#45;&gt;Node3</title>
<g id="a_edge14_Node000009_Node000003"><a xlink:title=" ">
<path fill="none" stroke="#63b8ff" d="M325.05,-93.05C308.38,-100.23 281.25,-109.23 259.01,-115.25"/>
<polygon fill="#63b8ff" stroke="#63b8ff" points="257.99,-111.9 249.19,-117.79 259.74,-118.68 257.99,-111.9"/>
</a>
</g>
</g>
<!-- Node10&#45;&gt;Node3 -->
<g id="edge16_Node000010_Node000003" class="edge">
<title>Node10&#45;&gt;Node3</title>
<g id="a_edge16_Node000010_Node000003"><a xlink:title=" ">
<path fill="none" stroke="#63b8ff" d="M328.45,-56.07C316.81,-61.1 298.93,-66.45 285,-74.5 270.73,-82.74 256.74,-94.48 245.58,-104.21"/>
<polygon fill="#63b8ff" stroke="#63b8ff" points="243.2,-101.65 237.99,-110.87 247.81,-106.91 243.2,-101.65"/>
</a>
</g>
</g>
<!-- Node11&#45;&gt;Node3 -->
<g id="edge18_Node000011_Node000003" class="edge">
<title>Node11&#45;&gt;Node3</title>
<g id="a_edge18_Node000011_Node000003"><a xlink:title=" ">
<path fill="none" stroke="#63b8ff" d="M326.09,-19.01C314.12,-23.32 297.16,-28.25 285,-37.5 262.04,-54.96 244.46,-83.27 233.78,-102.1"/>
<polygon fill="#63b8ff" stroke="#63b8ff" points="230.64,-100.54 228.83,-110.98 236.76,-103.95 230.64,-100.54"/>
</a>
</g>
</g>
</g>
</svg>
