<?xml version="1.0" encoding="UTF-8" standalone="no"?>
<!DOCTYPE svg PUBLIC "-//W3C//DTD SVG 1.1//EN"
 "http://www.w3.org/Graphics/SVG/1.1/DTD/svg11.dtd">
<!-- Generated by graphviz version 2.43.0 (0)
 -->
<!-- Title: add_special Pages: 1 -->
<svg width="251pt" height="27pt"
 viewBox="0.00 0.00 251.00 27.00" xmlns="http://www.w3.org/2000/svg" xmlns:xlink="http://www.w3.org/1999/xlink">
<g id="graph0" class="graph" transform="scale(1 1) rotate(0) translate(4 23)">
<title>add_special</title>
<!-- Node1 -->
<g id="Node000001" class="node">
<title>Node1</title>
<g id="a_Node000001"><a xlink:title=" ">
<polygon fill="#999999" stroke="#666666" points="243,-19 169,-19 169,0 243,0 243,-19"/>
<text text-anchor="middle" x="206" y="-7" font-family="Helvetica,sans-Serif" font-size="10.00">add_special</text>
</a>
</g>
</g>
<!-- Node2 -->
<g id="Node000002" class="node">
<title>Node2</title>
<g id="a_Node000002"><a xlink:href="hashmap_8c.html#a5b305fb96c9d0ce57bb51cc0e2c434ac" target="_top" xlink:title="Initialise the dictionnary and adds special variables from the get go.">
<polygon fill="white" stroke="#666666" points="133,-19 77,-19 77,0 133,0 133,-19"/>
<text text-anchor="middle" x="105" y="-7" font-family="Helvetica,sans-Serif" font-size="10.00">init_dict</text>
</a>
</g>
</g>
<!-- Node1&#45;&gt;Node2 -->
<g id="edge1_Node000001_Node000002" class="edge">
<title>Node1&#45;&gt;Node2</title>
<g id="a_edge1_Node000001_Node000002"><a xlink:title=" ">
<path fill="none" stroke="#63b8ff" d="M158.8,-9.5C150.02,-9.5 141.09,-9.5 133.15,-9.5"/>
<polygon fill="#63b8ff" stroke="#63b8ff" points="158.98,-13 168.98,-9.5 158.98,-6 158.98,-13"/>
</a>
</g>
</g>
<!-- Node3 -->
<g id="Node000003" class="node">
<title>Node3</title>
<g id="a_Node000003"><a xlink:href="42sh_8c.html#a3c04138a5bfe5d72780bb7e82a18e627" target="_top" xlink:title=" ">
<polygon fill="white" stroke="#666666" points="41,-19 0,-19 0,0 41,0 41,-19"/>
<text text-anchor="middle" x="20.5" y="-7" font-family="Helvetica,sans-Serif" font-size="10.00">main</text>
</a>
</g>
</g>
<!-- Node2&#45;&gt;Node3 -->
<g id="edge2_Node000002_Node000003" class="edge">
<title>Node2&#45;&gt;Node3</title>
<g id="a_edge2_Node000002_Node000003"><a xlink:title=" ">
<path fill="none" stroke="#63b8ff" d="M66.84,-9.5C58.02,-9.5 48.94,-9.5 41.25,-9.5"/>
<polygon fill="#63b8ff" stroke="#63b8ff" points="66.99,-13 76.99,-9.5 66.99,-6 66.99,-13"/>
</a>
</g>
</g>
</g>
</svg>
