<?xml version="1.0" encoding="UTF-8" standalone="no"?>
<!DOCTYPE svg PUBLIC "-//W3C//DTD SVG 1.1//EN"
 "http://www.w3.org/Graphics/SVG/1.1/DTD/svg11.dtd">
<!-- Generated by graphviz version 2.43.0 (0)
 -->
<!-- Title: add_var Pages: 1 -->
<svg width="1149pt" height="269pt"
 viewBox="0.00 0.00 1149.00 269.00" xmlns="http://www.w3.org/2000/svg" xmlns:xlink="http://www.w3.org/1999/xlink">
<g id="graph0" class="graph" transform="scale(1 1) rotate(0) translate(4 265)">
<title>add_var</title>
<!-- Node1 -->
<g id="Node000001" class="node">
<title>Node1</title>
<g id="a_Node000001"><a xlink:title="Add a variable to the dictionnary.">
<polygon fill="#999999" stroke="#666666" points="56,-57 0,-57 0,-38 56,-38 56,-57"/>
<text text-anchor="middle" x="28" y="-45" font-family="Helvetica,sans-Serif" font-size="10.00">add_var</text>
</a>
</g>
</g>
<!-- Node2 -->
<g id="Node000002" class="node">
<title>Node2</title>
<g id="a_Node000002"><a xlink:href="hashmap_8c.html#aca86cd9ca85ac2e41fbb5c9e86ad6d6f" target="_top" xlink:title=" ">
<polygon fill="white" stroke="#666666" points="198.5,-122 113.5,-122 113.5,-103 198.5,-103 198.5,-122"/>
<text text-anchor="middle" x="156" y="-110" font-family="Helvetica,sans-Serif" font-size="10.00">expand_value</text>
</a>
</g>
</g>
<!-- Node1&#45;&gt;Node2 -->
<g id="edge1_Node000001_Node000002" class="edge">
<title>Node1&#45;&gt;Node2</title>
<g id="a_edge1_Node000001_Node000002"><a xlink:title=" ">
<path fill="none" stroke="#63b8ff" d="M47.59,-57.09C68.62,-67.94 103.09,-85.72 127.29,-98.21"/>
<polygon fill="#63b8ff" stroke="#63b8ff" points="125.84,-101.4 136.33,-102.87 129.05,-95.17 125.84,-101.4"/>
</a>
</g>
</g>
<!-- Node12 -->
<g id="Node000012" class="node">
<title>Node12</title>
<g id="a_Node000012"><a xlink:href="hash_8c.html#ac74a7e29e54c223be6213463974d6154" target="_top" xlink:title=" ">
<polygon fill="white" stroke="#666666" points="1063,-76 1023,-76 1023,-57 1063,-57 1063,-76"/>
<text text-anchor="middle" x="1043" y="-64" font-family="Helvetica,sans-Serif" font-size="10.00">hash</text>
</a>
</g>
</g>
<!-- Node1&#45;&gt;Node12 -->
<g id="edge22_Node000001_Node000012" class="edge">
<title>Node1&#45;&gt;Node12</title>
<g id="a_edge22_Node000001_Node000012"><a xlink:title=" ">
<path fill="none" stroke="#63b8ff" d="M56.28,-47.5C102.58,-47.5 199.53,-47.5 281.5,-47.5 281.5,-47.5 281.5,-47.5 796.5,-47.5 874.86,-47.5 966.87,-57.24 1012.81,-62.77"/>
<polygon fill="#63b8ff" stroke="#63b8ff" points="1012.59,-66.27 1022.94,-64.02 1013.44,-59.32 1012.59,-66.27"/>
</a>
</g>
</g>
<!-- Node20 -->
<g id="Node000020" class="node">
<title>Node20</title>
<g id="a_Node000020"><a xlink:href="hashmap_8c.html#a5bcdd565d2ba5876c5ef1685625cdcfa" target="_top" xlink:title=" ">
<polygon fill="white" stroke="#666666" points="220,-19 92,-19 92,0 220,0 220,-19"/>
<text text-anchor="middle" x="156" y="-7" font-family="Helvetica,sans-Serif" font-size="10.00">update_or_append_var</text>
</a>
</g>
</g>
<!-- Node1&#45;&gt;Node20 -->
<g id="edge23_Node000001_Node000020" class="edge">
<title>Node1&#45;&gt;Node20</title>
<g id="a_edge23_Node000001_Node000020"><a xlink:title=" ">
<path fill="none" stroke="#63b8ff" d="M56.03,-39.35C72.78,-34.3 94.63,-27.71 113.54,-22"/>
<polygon fill="#63b8ff" stroke="#63b8ff" points="114.55,-25.36 123.11,-19.12 112.53,-18.65 114.55,-25.36"/>
</a>
</g>
</g>
<!-- Node3 -->
<g id="Node000003" class="node">
<title>Node3</title>
<g id="a_Node000003"><a xlink:href="expand_8c.html#ae22ff4719527d6b2b8bca3e43f576837" target="_top" xlink:title=" ">
<polygon fill="white" stroke="#666666" points="309,-167 256,-167 256,-148 309,-148 309,-167"/>
<text text-anchor="middle" x="282.5" y="-155" font-family="Helvetica,sans-Serif" font-size="10.00">expand</text>
</a>
</g>
</g>
<!-- Node2&#45;&gt;Node3 -->
<g id="edge2_Node000002_Node000003" class="edge">
<title>Node2&#45;&gt;Node3</title>
<g id="a_edge2_Node000002_Node000003"><a xlink:title=" ">
<path fill="none" stroke="#63b8ff" d="M183.4,-122.04C201.81,-128.69 226.55,-137.64 246.58,-144.88"/>
<polygon fill="#63b8ff" stroke="#63b8ff" points="245.39,-148.17 255.99,-148.28 247.77,-141.59 245.39,-148.17"/>
</a>
</g>
</g>
<!-- Node4 -->
<g id="Node000004" class="node">
<title>Node4</title>
<g id="a_Node000004"><a xlink:href="expand_8c.html#a492ca861a96ee6319b97b4b1d6ba9835" target="_top" xlink:title=" ">
<polygon fill="white" stroke="#666666" points="427,-167 345,-167 345,-148 427,-148 427,-167"/>
<text text-anchor="middle" x="386" y="-155" font-family="Helvetica,sans-Serif" font-size="10.00">expand_word</text>
</a>
</g>
</g>
<!-- Node3&#45;&gt;Node4 -->
<g id="edge3_Node000003_Node000004" class="edge">
<title>Node3&#45;&gt;Node4</title>
<g id="a_edge3_Node000003_Node000004"><a xlink:title=" ">
<path fill="none" stroke="#63b8ff" d="M309.11,-157.5C316.88,-157.5 325.7,-157.5 334.5,-157.5"/>
<polygon fill="#63b8ff" stroke="#63b8ff" points="334.78,-161 344.78,-157.5 334.78,-154 334.78,-161"/>
</a>
</g>
</g>
<!-- Node10 -->
<g id="Node000010" class="node">
<title>Node10</title>
<g id="a_Node000010"><a xlink:href="expand_8c.html#aaf941edbfdd3ac08d813ff01acc1f963" target="_top" xlink:title=" ">
<polygon fill="white" stroke="#666666" points="954,-261 901,-261 901,-242 954,-242 954,-261"/>
<text text-anchor="middle" x="927.5" y="-249" font-family="Helvetica,sans-Serif" font-size="10.00">free_ex</text>
</a>
</g>
</g>
<!-- Node3&#45;&gt;Node10 -->
<g id="edge21_Node000003_Node000010" class="edge">
<title>Node3&#45;&gt;Node10</title>
<g id="a_edge21_Node000003_Node000010"><a xlink:title=" ">
<path fill="none" stroke="#63b8ff" d="M297.29,-167.03C333.24,-190.93 433.54,-251.5 526.5,-251.5 526.5,-251.5 526.5,-251.5 673,-251.5 750.7,-251.5 841.79,-251.5 890.85,-251.5"/>
<polygon fill="#63b8ff" stroke="#63b8ff" points="890.95,-255 900.95,-251.5 890.95,-248 890.95,-255"/>
</a>
</g>
</g>
<!-- Node5 -->
<g id="Node000005" class="node">
<title>Node5</title>
<g id="a_Node000005"><a xlink:href="expand_8c.html#a97a675ffacb4b71f4f3b4a30749d9f66" target="_top" xlink:title=" ">
<polygon fill="white" stroke="#666666" points="567,-186 488,-186 488,-167 567,-167 567,-186"/>
<text text-anchor="middle" x="527.5" y="-174" font-family="Helvetica,sans-Serif" font-size="10.00">append_char</text>
</a>
</g>
</g>
<!-- Node4&#45;&gt;Node5 -->
<g id="edge4_Node000004_Node000005" class="edge">
<title>Node4&#45;&gt;Node5</title>
<g id="a_edge4_Node000004_Node000005"><a xlink:title=" ">
<path fill="none" stroke="#63b8ff" d="M427.35,-163C443.08,-165.14 461.24,-167.61 477.7,-169.85"/>
<polygon fill="#63b8ff" stroke="#63b8ff" points="477.3,-173.33 487.68,-171.21 478.25,-166.4 477.3,-173.33"/>
</a>
</g>
</g>
<!-- Node6 -->
<g id="Node000006" class="node">
<title>Node6</title>
<g id="a_Node000006"><a xlink:href="expand_8c.html#a6d4728fd992669e4bb35624d37972179" target="_top" xlink:title=" ">
<polygon fill="white" stroke="#666666" points="592,-149 463,-149 463,-130 592,-130 592,-149"/>
<text text-anchor="middle" x="527.5" y="-137" font-family="Helvetica,sans-Serif" font-size="10.00">double_quotes_expand</text>
</a>
</g>
</g>
<!-- Node4&#45;&gt;Node6 -->
<g id="edge5_Node000004_Node000006" class="edge">
<title>Node4&#45;&gt;Node6</title>
<g id="a_edge5_Node000004_Node000006"><a xlink:title=" ">
<path fill="none" stroke="#63b8ff" d="M427.35,-152.29C435.42,-151.25 444.13,-150.13 452.92,-148.99"/>
<polygon fill="#63b8ff" stroke="#63b8ff" points="453.38,-152.46 462.85,-147.71 452.49,-145.52 453.38,-152.46"/>
</a>
</g>
</g>
<!-- Node9 -->
<g id="Node000009" class="node">
<title>Node9</title>
<g id="a_Node000009"><a xlink:href="expand_8c.html#a0a337c3a6b2595b2b8c03e171c9559ba" target="_top" xlink:title=" ">
<polygon fill="white" stroke="#666666" points="832.5,-140 758.5,-140 758.5,-121 832.5,-121 832.5,-140"/>
<text text-anchor="middle" x="795.5" y="-128" font-family="Helvetica,sans-Serif" font-size="10.00">var_expand</text>
</a>
</g>
</g>
<!-- Node4&#45;&gt;Node9 -->
<g id="edge20_Node000004_Node000009" class="edge">
<title>Node4&#45;&gt;Node9</title>
<g id="a_edge20_Node000004_Node000009"><a xlink:title=" ">
<path fill="none" stroke="#63b8ff" d="M401.99,-147.94C416.82,-139.09 440.49,-126.56 463,-121.5 562.71,-99.08 683.52,-112.08 748.23,-122.16"/>
<polygon fill="#63b8ff" stroke="#63b8ff" points="747.7,-125.62 758.13,-123.74 748.81,-118.7 747.7,-125.62"/>
</a>
</g>
</g>
<!-- Node19 -->
<g id="Node000019" class="node">
<title>Node19</title>
<g id="a_Node000019"><a xlink:href="expand_8c.html#ad45c8055962fa36940e109b04b7e562e" target="_top" xlink:title=" ">
<polygon fill="white" stroke="#666666" points="587.5,-223 467.5,-223 467.5,-204 587.5,-204 587.5,-223"/>
<text text-anchor="middle" x="527.5" y="-211" font-family="Helvetica,sans-Serif" font-size="10.00">single_quote_expand</text>
</a>
</g>
</g>
<!-- Node4&#45;&gt;Node19 -->
<g id="edge19_Node000004_Node000019" class="edge">
<title>Node4&#45;&gt;Node19</title>
<g id="a_edge19_Node000004_Node000019"><a xlink:title=" ">
<path fill="none" stroke="#63b8ff" d="M403.79,-167.04C418.92,-175.36 441.96,-187.34 463,-195.5 468.07,-197.47 473.45,-199.33 478.85,-201.05"/>
<polygon fill="#63b8ff" stroke="#63b8ff" points="477.92,-204.42 488.51,-203.99 479.96,-197.73 477.92,-204.42"/>
</a>
</g>
</g>
<!-- Node7 -->
<g id="Node000007" class="node">
<title>Node7</title>
<g id="a_Node000007"><a xlink:href="expand_8c.html#a4a10ac07faa08df14e0a438c5feace6b" target="_top" xlink:title=" ">
<polygon fill="white" stroke="#666666" points="716,-149 628,-149 628,-130 716,-130 716,-149"/>
<text text-anchor="middle" x="672" y="-137" font-family="Helvetica,sans-Serif" font-size="10.00">in_dquote_exp</text>
</a>
</g>
</g>
<!-- Node6&#45;&gt;Node7 -->
<g id="edge6_Node000006_Node000007" class="edge">
<title>Node6&#45;&gt;Node7</title>
<g id="a_edge6_Node000006_Node000007"><a xlink:title=" ">
<path fill="none" stroke="#63b8ff" d="M592.25,-139.5C600.69,-139.5 609.27,-139.5 617.52,-139.5"/>
<polygon fill="#63b8ff" stroke="#63b8ff" points="617.74,-143 627.74,-139.5 617.74,-136 617.74,-143"/>
</a>
</g>
</g>
<!-- Node8 -->
<g id="Node000008" class="node">
<title>Node8</title>
<g id="a_Node000008"><a xlink:href="expand_8c.html#a46b3549565fede625ad04072f2654aa4" target="_top" xlink:title=" ">
<polygon fill="white" stroke="#666666" points="839,-177 752,-177 752,-158 839,-158 839,-177"/>
<text text-anchor="middle" x="795.5" y="-165" font-family="Helvetica,sans-Serif" font-size="10.00">is_expandable</text>
</a>
</g>
</g>
<!-- Node7&#45;&gt;Node8 -->
<g id="edge7_Node000007_Node000008" class="edge">
<title>Node7&#45;&gt;Node8</title>
<g id="a_edge7_Node000007_Node000008"><a xlink:title=" ">
<path fill="none" stroke="#63b8ff" d="M714.47,-149.06C723.76,-151.2 733.72,-153.49 743.34,-155.71"/>
<polygon fill="#63b8ff" stroke="#63b8ff" points="742.68,-159.15 753.21,-157.99 744.25,-152.33 742.68,-159.15"/>
</a>
</g>
</g>
<!-- Node7&#45;&gt;Node9 -->
<g id="edge8_Node000007_Node000009" class="edge">
<title>Node7&#45;&gt;Node9</title>
<g id="a_edge8_Node000007_Node000009"><a xlink:title=" ">
<path fill="none" stroke="#63b8ff" d="M716.18,-136.3C726.51,-135.54 737.59,-134.72 748.06,-133.94"/>
<polygon fill="#63b8ff" stroke="#63b8ff" points="748.57,-137.41 758.29,-133.18 748.05,-130.43 748.57,-137.41"/>
</a>
</g>
</g>
<!-- Node9&#45;&gt;Node10 -->
<g id="edge9_Node000009_Node000010" class="edge">
<title>Node9&#45;&gt;Node10</title>
<g id="a_edge9_Node000009_Node000010"><a xlink:title=" ">
<path fill="none" stroke="#63b8ff" d="M825.8,-140.08C830.62,-142.59 835.26,-145.7 839,-149.5 867.5,-178.44 845.31,-205.78 875,-233.5 879.68,-237.87 885.48,-241.19 891.48,-243.7"/>
<polygon fill="#63b8ff" stroke="#63b8ff" points="890.35,-247.01 900.94,-247.03 892.67,-240.41 890.35,-247.01"/>
</a>
</g>
</g>
<!-- Node11 -->
<g id="Node000011" class="node">
<title>Node11</title>
<g id="a_Node000011"><a xlink:href="hashmap_8c.html#aa54a9eed65359c74557f0f55c9ca3dd3" target="_top" xlink:title="Get the variable from the dictionnary.">
<polygon fill="white" stroke="#666666" points="954,-132 901,-132 901,-113 954,-113 954,-132"/>
<text text-anchor="middle" x="927.5" y="-120" font-family="Helvetica,sans-Serif" font-size="10.00">get_var</text>
</a>
</g>
</g>
<!-- Node9&#45;&gt;Node11 -->
<g id="edge10_Node000009_Node000011" class="edge">
<title>Node9&#45;&gt;Node11</title>
<g id="a_edge10_Node000009_Node000011"><a xlink:title=" ">
<path fill="none" stroke="#63b8ff" d="M832.71,-128.27C850.8,-127.16 872.61,-125.82 890.65,-124.71"/>
<polygon fill="#63b8ff" stroke="#63b8ff" points="891.01,-128.19 900.78,-124.08 890.58,-121.2 891.01,-128.19"/>
</a>
</g>
</g>
<!-- Node15 -->
<g id="Node000015" class="node">
<title>Node15</title>
<g id="a_Node000015"><a xlink:href="expand_8c.html#ac1225d88933658edb6e51e4ed8f003c3" target="_top" xlink:title=" ">
<polygon fill="white" stroke="#666666" points="964,-95 891,-95 891,-76 964,-76 964,-95"/>
<text text-anchor="middle" x="927.5" y="-83" font-family="Helvetica,sans-Serif" font-size="10.00">val_append</text>
</a>
</g>
</g>
<!-- Node9&#45;&gt;Node15 -->
<g id="edge15_Node000009_Node000015" class="edge">
<title>Node9&#45;&gt;Node15</title>
<g id="a_edge15_Node000009_Node000015"><a xlink:title=" ">
<path fill="none" stroke="#63b8ff" d="M824.07,-120.96C843.11,-114.36 868.66,-105.52 889.48,-98.31"/>
<polygon fill="#63b8ff" stroke="#63b8ff" points="890.67,-101.61 898.97,-95.03 888.38,-94.99 890.67,-101.61"/>
</a>
</g>
</g>
<!-- Node16 -->
<g id="Node000016" class="node">
<title>Node16</title>
<g id="a_Node000016"><a xlink:href="expand_8c.html#aa0106a12d15398cad9ca20f96f1eb374" target="_top" xlink:title=" ">
<polygon fill="white" stroke="#666666" points="971.5,-224 883.5,-224 883.5,-205 971.5,-205 971.5,-224"/>
<text text-anchor="middle" x="927.5" y="-212" font-family="Helvetica,sans-Serif" font-size="10.00">var_exp_brack</text>
</a>
</g>
</g>
<!-- Node9&#45;&gt;Node16 -->
<g id="edge16_Node000009_Node000016" class="edge">
<title>Node9&#45;&gt;Node16</title>
<g id="a_edge16_Node000009_Node000016"><a xlink:title=" ">
<path fill="none" stroke="#63b8ff" d="M823.28,-140.03C828.78,-142.64 834.31,-145.79 839,-149.5 859.64,-165.81 853.69,-181.07 875,-196.5 877.05,-197.98 879.23,-199.35 881.49,-200.61"/>
<polygon fill="#63b8ff" stroke="#63b8ff" points="880,-203.78 890.52,-204.98 883.04,-197.48 880,-203.78"/>
</a>
</g>
</g>
<!-- Node17 -->
<g id="Node000017" class="node">
<title>Node17</title>
<g id="a_Node000017"><a xlink:href="expand_8c.html#a5785fb584914d075e9a5d933e903823c" target="_top" xlink:title=" ">
<polygon fill="white" stroke="#666666" points="980,-187 875,-187 875,-168 980,-168 980,-187"/>
<text text-anchor="middle" x="927.5" y="-175" font-family="Helvetica,sans-Serif" font-size="10.00">var_exp_no_brack</text>
</a>
</g>
</g>
<!-- Node9&#45;&gt;Node17 -->
<g id="edge17_Node000009_Node000017" class="edge">
<title>Node9&#45;&gt;Node17</title>
<g id="a_edge17_Node000009_Node000017"><a xlink:title=" ">
<path fill="none" stroke="#63b8ff" d="M821.91,-140.02C837.26,-145.73 857.23,-153.11 875,-159.5 879.6,-161.15 884.45,-162.87 889.25,-164.57"/>
<polygon fill="#63b8ff" stroke="#63b8ff" points="888.34,-167.96 898.94,-167.97 890.66,-161.35 888.34,-167.96"/>
</a>
</g>
</g>
<!-- Node11&#45;&gt;Node11 -->
<g id="edge11_Node000011_Node000011" class="edge">
<title>Node11&#45;&gt;Node11</title>
<g id="a_edge11_Node000011_Node000011"><a xlink:title=" ">
<path fill="none" stroke="#63b8ff" d="M909.93,-132.08C901.38,-140.73 907.24,-150 927.5,-150 940.16,-150 947.2,-146.38 948.61,-141.55"/>
<polygon fill="#63b8ff" stroke="#63b8ff" points="951.85,-140.22 945.07,-132.08 945.29,-142.68 951.85,-140.22"/>
</a>
</g>
</g>
<!-- Node11&#45;&gt;Node12 -->
<g id="edge12_Node000011_Node000012" class="edge">
<title>Node11&#45;&gt;Node12</title>
<g id="a_edge12_Node000011_Node000012"><a xlink:title=" ">
<path fill="none" stroke="#63b8ff" d="M954.08,-114.76C962.49,-111.9 971.79,-108.4 980,-104.5 993.68,-98.01 1008.15,-89.26 1019.67,-81.79"/>
<polygon fill="#63b8ff" stroke="#63b8ff" points="1021.79,-84.58 1028.2,-76.15 1017.93,-78.75 1021.79,-84.58"/>
</a>
</g>
</g>
<!-- Node13 -->
<g id="Node000013" class="node">
<title>Node13</title>
<g id="a_Node000013"><a xlink:href="hashmap_8c.html#a5b2c78a0a08d606dfbf21fe636373e6e" target="_top" xlink:title=" ">
<polygon fill="white" stroke="#666666" points="1068.5,-132 1017.5,-132 1017.5,-113 1068.5,-113 1068.5,-132"/>
<text text-anchor="middle" x="1043" y="-120" font-family="Helvetica,sans-Serif" font-size="10.00">special</text>
</a>
</g>
</g>
<!-- Node11&#45;&gt;Node13 -->
<g id="edge13_Node000011_Node000013" class="edge">
<title>Node11&#45;&gt;Node13</title>
<g id="a_edge13_Node000011_Node000013"><a xlink:title=" ">
<path fill="none" stroke="#63b8ff" d="M954.25,-122.5C969.85,-122.5 989.96,-122.5 1006.99,-122.5"/>
<polygon fill="#63b8ff" stroke="#63b8ff" points="1007.13,-126 1017.13,-122.5 1007.13,-119 1007.13,-126"/>
</a>
</g>
</g>
<!-- Node14 -->
<g id="Node000014" class="node">
<title>Node14</title>
<g id="a_Node000014"><a xlink:href="itoa_8c.html#a43f392ec16afbe6cdb1ee6d1f1347f99" target="_top" xlink:title="Convert int to string.">
<polygon fill="white" stroke="#666666" points="1141,-132 1106,-132 1106,-113 1141,-113 1141,-132"/>
<text text-anchor="middle" x="1123.5" y="-120" font-family="Helvetica,sans-Serif" font-size="10.00">itoa</text>
</a>
</g>
</g>
<!-- Node13&#45;&gt;Node14 -->
<g id="edge14_Node000013_Node000014" class="edge">
<title>Node13&#45;&gt;Node14</title>
<g id="a_edge14_Node000013_Node000014"><a xlink:title=" ">
<path fill="none" stroke="#63b8ff" d="M1068.84,-122.5C1077.4,-122.5 1087.02,-122.5 1095.72,-122.5"/>
<polygon fill="#63b8ff" stroke="#63b8ff" points="1095.76,-126 1105.76,-122.5 1095.76,-119 1095.76,-126"/>
</a>
</g>
</g>
<!-- Node18 -->
<g id="Node000018" class="node">
<title>Node18</title>
<g id="a_Node000018"><a xlink:href="expand_8c.html#a66cc7be396f0ef502a888b56eee2f4bf" target="_top" xlink:title=" ">
<polygon fill="white" stroke="#666666" points="1070,-187 1016,-187 1016,-168 1070,-168 1070,-187"/>
<text text-anchor="middle" x="1043" y="-175" font-family="Helvetica,sans-Serif" font-size="10.00">is_word</text>
</a>
</g>
</g>
<!-- Node17&#45;&gt;Node18 -->
<g id="edge18_Node000017_Node000018" class="edge">
<title>Node17&#45;&gt;Node18</title>
<g id="a_edge18_Node000017_Node000018"><a xlink:title=" ">
<path fill="none" stroke="#63b8ff" d="M980.27,-177.5C988.8,-177.5 997.49,-177.5 1005.55,-177.5"/>
<polygon fill="#63b8ff" stroke="#63b8ff" points="1005.72,-181 1015.72,-177.5 1005.72,-174 1005.72,-181"/>
</a>
</g>
</g>
</g>
</svg>
