<?xml version="1.0" encoding="UTF-8" standalone="no"?>
<!DOCTYPE svg PUBLIC "-//W3C//DTD SVG 1.1//EN"
 "http://www.w3.org/Graphics/SVG/1.1/DTD/svg11.dtd">
<!-- Generated by graphviz version 2.43.0 (0)
 -->
<!-- Title: src/expand/hashmap.h Pages: 1 -->
<svg width="1626pt" height="302pt"
 viewBox="0.00 0.00 1625.50 302.00" xmlns="http://www.w3.org/2000/svg" xmlns:xlink="http://www.w3.org/1999/xlink">
<g id="graph0" class="graph" transform="scale(1 1) rotate(0) translate(4 298)">
<title>src/expand/hashmap.h</title>
<!-- Node1 -->
<g id="Node000001" class="node">
<title>Node1</title>
<g id="a_Node000001"><a xlink:title=" ">
<polygon fill="#999999" stroke="#666666" points="1028,-294 901,-294 901,-275 1028,-275 1028,-294"/>
<text text-anchor="middle" x="964.5" y="-282" font-family="Helvetica,sans-Serif" font-size="10.00">src/expand/hashmap.h</text>
</a>
</g>
</g>
<!-- Node2 -->
<g id="Node000002" class="node">
<title>Node2</title>
<g id="a_Node000002"><a xlink:href="unset_8h.html" target="_top" xlink:title=" ">
<polygon fill="white" stroke="#666666" points="887.5,-239 783.5,-239 783.5,-220 887.5,-220 887.5,-239"/>
<text text-anchor="middle" x="835.5" y="-227" font-family="Helvetica,sans-Serif" font-size="10.00">src/builtin/unset.h</text>
</a>
</g>
</g>
<!-- Node1&#45;&gt;Node2 -->
<g id="edge1_Node000001_Node000002" class="edge">
<title>Node1&#45;&gt;Node2</title>
<g id="a_edge1_Node000001_Node000002"><a xlink:title=" ">
<path fill="none" stroke="#63b8ff" d="M934.46,-271.16C910.58,-261.35 877.78,-247.87 856.6,-239.17"/>
<polygon fill="#63b8ff" stroke="#63b8ff" points="933.19,-274.42 943.77,-274.98 935.85,-267.95 933.19,-274.42"/>
</a>
</g>
</g>
<!-- Node5 -->
<g id="Node000005" class="node">
<title>Node5</title>
<g id="a_Node000005"><a xlink:href="expand_8h.html" target="_top" xlink:title=" ">
<polygon fill="white" stroke="#666666" points="1023.5,-239 905.5,-239 905.5,-220 1023.5,-220 1023.5,-239"/>
<text text-anchor="middle" x="964.5" y="-227" font-family="Helvetica,sans-Serif" font-size="10.00">src/expand/expand.h</text>
</a>
</g>
</g>
<!-- Node1&#45;&gt;Node5 -->
<g id="edge4_Node000001_Node000005" class="edge">
<title>Node1&#45;&gt;Node5</title>
<g id="a_edge4_Node000001_Node000005"><a xlink:title=" ">
<path fill="none" stroke="#63b8ff" d="M964.5,-264.66C964.5,-255.93 964.5,-245.99 964.5,-239.09"/>
<polygon fill="#63b8ff" stroke="#63b8ff" points="961,-264.75 964.5,-274.75 968,-264.75 961,-264.75"/>
</a>
</g>
</g>
<!-- Node14 -->
<g id="Node000014" class="node">
<title>Node14</title>
<g id="a_Node000014"><a xlink:href="parser__commands_8c.html" target="_top" xlink:title=" ">
<polygon fill="white" stroke="#666666" points="1389.5,-19 1223.5,-19 1223.5,0 1389.5,0 1389.5,-19"/>
<text text-anchor="middle" x="1306.5" y="-7" font-family="Helvetica,sans-Serif" font-size="10.00">src/parser/parser_commands.c</text>
</a>
</g>
</g>
<!-- Node1&#45;&gt;Node14 -->
<g id="edge52_Node000001_Node000014" class="edge">
<title>Node1&#45;&gt;Node14</title>
<g id="a_edge52_Node000001_Node000014"><a xlink:title=" ">
<path fill="none" stroke="#63b8ff" d="M1038.14,-276.74C1144.76,-264.89 1329.5,-235.68 1329.5,-175.5 1329.5,-175.5 1329.5,-175.5 1329.5,-118.5 1329.5,-80.73 1315.88,-37.14 1309.6,-19.05"/>
<polygon fill="#63b8ff" stroke="#63b8ff" points="1037.64,-273.28 1028.08,-277.84 1038.4,-280.24 1037.64,-273.28"/>
</a>
</g>
</g>
<!-- Node3 -->
<g id="Node000003" class="node">
<title>Node3</title>
<g id="a_Node000003"><a xlink:href="unset_8c.html" target="_top" xlink:title=" ">
<polygon fill="white" stroke="#666666" points="103,-184 0,-184 0,-165 103,-165 103,-184"/>
<text text-anchor="middle" x="51.5" y="-172" font-family="Helvetica,sans-Serif" font-size="10.00">src/builtin/unset.c</text>
</a>
</g>
</g>
<!-- Node2&#45;&gt;Node3 -->
<g id="edge2_Node000002_Node000003" class="edge">
<title>Node2&#45;&gt;Node3</title>
<g id="a_edge2_Node000002_Node000003"><a xlink:title=" ">
<path fill="none" stroke="#63b8ff" d="M773.02,-226.02C648.24,-220.76 359.36,-207.04 117.5,-184 112.9,-183.56 108.13,-183.05 103.34,-182.51"/>
<polygon fill="#63b8ff" stroke="#63b8ff" points="773.02,-229.52 783.16,-226.44 773.31,-222.53 773.02,-229.52"/>
</a>
</g>
</g>
<!-- Node4 -->
<g id="Node000004" class="node">
<title>Node4</title>
<g id="a_Node000004"><a xlink:href="exec_8c.html" target="_top" xlink:title=" ">
<polygon fill="white" stroke="#666666" points="1136.5,-74 1046.5,-74 1046.5,-55 1136.5,-55 1136.5,-74"/>
<text text-anchor="middle" x="1091.5" y="-62" font-family="Helvetica,sans-Serif" font-size="10.00">src/exec/exec.c</text>
</a>
</g>
</g>
<!-- Node2&#45;&gt;Node4 -->
<g id="edge3_Node000002_Node000004" class="edge">
<title>Node2&#45;&gt;Node4</title>
<g id="a_edge3_Node000002_Node000004"><a xlink:title=" ">
<path fill="none" stroke="#63b8ff" d="M844.31,-210.66C858.15,-184.52 887.48,-136.1 926.5,-110 962.5,-85.91 1011.11,-74.83 1046.23,-69.75"/>
<polygon fill="#63b8ff" stroke="#63b8ff" points="841.08,-209.29 839.63,-219.79 847.31,-212.48 841.08,-209.29"/>
</a>
</g>
</g>
<!-- Node6 -->
<g id="Node000006" class="node">
<title>Node6</title>
<g id="a_Node000006"><a xlink:href="42sh_8c.html" target="_top" xlink:title=" ">
<polygon fill="white" stroke="#666666" points="429,-74 364,-74 364,-55 429,-55 429,-74"/>
<text text-anchor="middle" x="396.5" y="-62" font-family="Helvetica,sans-Serif" font-size="10.00">src/42sh.c</text>
</a>
</g>
</g>
<!-- Node5&#45;&gt;Node6 -->
<g id="edge5_Node000005_Node000006" class="edge">
<title>Node5&#45;&gt;Node6</title>
<g id="a_edge5_Node000005_Node000006"><a xlink:title=" ">
<path fill="none" stroke="#63b8ff" d="M894.94,-220.16C780.66,-214.61 244.81,-235.27 188.5,-184 164.04,-161.73 159.6,-135.64 180.5,-110 203.24,-82.1 309.07,-71.18 363.69,-67.35"/>
<polygon fill="#63b8ff" stroke="#63b8ff" points="894.98,-223.67 905.19,-220.83 895.44,-216.68 894.98,-223.67"/>
</a>
</g>
</g>
<!-- Node7 -->
<g id="Node000007" class="node">
<title>Node7</title>
<g id="a_Node000007"><a xlink:href="ast_8h.html" target="_top" xlink:title=" ">
<polygon fill="white" stroke="#666666" points="722.5,-184 646.5,-184 646.5,-165 722.5,-165 722.5,-184"/>
<text text-anchor="middle" x="684.5" y="-172" font-family="Helvetica,sans-Serif" font-size="10.00">src/ast/ast.h</text>
</a>
</g>
</g>
<!-- Node5&#45;&gt;Node7 -->
<g id="edge6_Node000005_Node000007" class="edge">
<title>Node5&#45;&gt;Node7</title>
<g id="a_edge6_Node000005_Node000007"><a xlink:title=" ">
<path fill="none" stroke="#63b8ff" d="M909.56,-218.1C854.41,-207.66 770.9,-191.85 722.63,-182.72"/>
<polygon fill="#63b8ff" stroke="#63b8ff" points="909.04,-221.56 919.51,-219.98 910.34,-214.69 909.04,-221.56"/>
</a>
</g>
</g>
<!-- Node18 -->
<g id="Node000018" class="node">
<title>Node18</title>
<g id="a_Node000018"><a xlink:href="exec_8h.html" target="_top" xlink:title=" ">
<polygon fill="white" stroke="#666666" points="1137,-129 1046,-129 1046,-110 1137,-110 1137,-129"/>
<text text-anchor="middle" x="1091.5" y="-117" font-family="Helvetica,sans-Serif" font-size="10.00">src/exec/exec.h</text>
</a>
</g>
</g>
<!-- Node5&#45;&gt;Node18 -->
<g id="edge46_Node000005_Node000018" class="edge">
<title>Node5&#45;&gt;Node18</title>
<g id="a_edge46_Node000005_Node000018"><a xlink:title=" ">
<path fill="none" stroke="#63b8ff" d="M982.84,-212.91C1009.97,-189.83 1059.91,-147.37 1081.32,-129.16"/>
<polygon fill="#63b8ff" stroke="#63b8ff" points="980.24,-210.52 974.89,-219.66 984.78,-215.85 980.24,-210.52"/>
</a>
</g>
</g>
<!-- Node19 -->
<g id="Node000019" class="node">
<title>Node19</title>
<g id="a_Node000019"><a xlink:href="expand_8c.html" target="_top" xlink:title=" ">
<polygon fill="white" stroke="#666666" points="396,-129 279,-129 279,-110 396,-110 396,-129"/>
<text text-anchor="middle" x="337.5" y="-117" font-family="Helvetica,sans-Serif" font-size="10.00">src/expand/expand.c</text>
</a>
</g>
</g>
<!-- Node5&#45;&gt;Node19 -->
<g id="edge47_Node000005_Node000019" class="edge">
<title>Node5&#45;&gt;Node19</title>
<g id="a_edge47_Node000005_Node000019"><a xlink:title=" ">
<path fill="none" stroke="#63b8ff" d="M895.14,-219.67C814.27,-209.26 685.54,-192.34 637.5,-184 541.77,-167.38 430.07,-142.18 373.82,-129.09"/>
<polygon fill="#63b8ff" stroke="#63b8ff" points="894.88,-223.16 905.25,-220.97 895.77,-216.22 894.88,-223.16"/>
</a>
</g>
</g>
<!-- Node20 -->
<g id="Node000020" class="node">
<title>Node20</title>
<g id="a_Node000020"><a xlink:href="hashmap_8c.html" target="_top" xlink:title=" ">
<polygon fill="white" stroke="#666666" points="879.5,-129 753.5,-129 753.5,-110 879.5,-110 879.5,-129"/>
<text text-anchor="middle" x="816.5" y="-117" font-family="Helvetica,sans-Serif" font-size="10.00">src/expand/hashmap.c</text>
</a>
</g>
</g>
<!-- Node5&#45;&gt;Node20 -->
<g id="edge48_Node000005_Node000020" class="edge">
<title>Node5&#45;&gt;Node20</title>
<g id="a_edge48_Node000005_Node000020"><a xlink:title=" ">
<path fill="none" stroke="#63b8ff" d="M944.24,-213.71C912.91,-190.85 853.69,-147.64 828.42,-129.2"/>
<polygon fill="#63b8ff" stroke="#63b8ff" points="942.5,-216.78 952.64,-219.84 946.62,-211.12 942.5,-216.78"/>
</a>
</g>
</g>
<!-- Node28 -->
<g id="Node000028" class="node">
<title>Node28</title>
<g id="a_Node000028"><a xlink:href="cd_8h.html" target="_top" xlink:title=" ">
<polygon fill="white" stroke="#666666" points="1445.5,-184 1357.5,-184 1357.5,-165 1445.5,-165 1445.5,-184"/>
<text text-anchor="middle" x="1401.5" y="-172" font-family="Helvetica,sans-Serif" font-size="10.00">src/builtin/cd.h</text>
</a>
</g>
</g>
<!-- Node5&#45;&gt;Node28 -->
<g id="edge37_Node000005_Node000028" class="edge">
<title>Node5&#45;&gt;Node28</title>
<g id="a_edge37_Node000005_Node000028"><a xlink:title=" ">
<path fill="none" stroke="#63b8ff" d="M1033.82,-220.09C1124.66,-209.08 1281.34,-190.07 1357.45,-180.84"/>
<polygon fill="#63b8ff" stroke="#63b8ff" points="1033.4,-216.62 1023.89,-221.3 1034.24,-223.57 1033.4,-216.62"/>
</a>
</g>
</g>
<!-- Node30 -->
<g id="Node000030" class="node">
<title>Node30</title>
<g id="a_Node000030"><a xlink:href="dot_8h.html" target="_top" xlink:title=" ">
<polygon fill="white" stroke="#666666" points="1027.5,-129 935.5,-129 935.5,-110 1027.5,-110 1027.5,-129"/>
<text text-anchor="middle" x="981.5" y="-117" font-family="Helvetica,sans-Serif" font-size="10.00">src/builtin/dot.h</text>
</a>
</g>
</g>
<!-- Node5&#45;&gt;Node30 -->
<g id="edge40_Node000005_Node000030" class="edge">
<title>Node5&#45;&gt;Node30</title>
<g id="a_edge40_Node000005_Node000030"><a xlink:title=" ">
<path fill="none" stroke="#63b8ff" d="M967.49,-209.48C971.21,-185.84 977.41,-146.5 980.14,-129.16"/>
<polygon fill="#63b8ff" stroke="#63b8ff" points="963.99,-209.24 965.89,-219.66 970.9,-210.33 963.99,-209.24"/>
</a>
</g>
</g>
<!-- Node31 -->
<g id="Node000031" class="node">
<title>Node31</title>
<g id="a_Node000031"><a xlink:href="export_8h.html" target="_top" xlink:title=" ">
<polygon fill="white" stroke="#666666" points="1219.5,-184 1111.5,-184 1111.5,-165 1219.5,-165 1219.5,-184"/>
<text text-anchor="middle" x="1165.5" y="-172" font-family="Helvetica,sans-Serif" font-size="10.00">src/builtin/export.h</text>
</a>
</g>
</g>
<!-- Node5&#45;&gt;Node31 -->
<g id="edge43_Node000005_Node000031" class="edge">
<title>Node5&#45;&gt;Node31</title>
<g id="a_edge43_Node000005_Node000031"><a xlink:title=" ">
<path fill="none" stroke="#63b8ff" d="M1006.93,-217.31C1044.54,-207.39 1098.67,-193.12 1132.95,-184.08"/>
<polygon fill="#63b8ff" stroke="#63b8ff" points="1005.57,-214.05 996.79,-219.98 1007.36,-220.82 1005.57,-214.05"/>
</a>
</g>
</g>
<!-- Node33 -->
<g id="Node000033" class="node">
<title>Node33</title>
<g id="a_Node000033"><a xlink:href="io_8h.html" target="_top" xlink:title=" ">
<polygon fill="white" stroke="#666666" points="261.5,-184 197.5,-184 197.5,-165 261.5,-165 261.5,-184"/>
<text text-anchor="middle" x="229.5" y="-172" font-family="Helvetica,sans-Serif" font-size="10.00">src/io/io.h</text>
</a>
</g>
</g>
<!-- Node5&#45;&gt;Node33 -->
<g id="edge49_Node000005_Node000033" class="edge">
<title>Node5&#45;&gt;Node33</title>
<g id="a_edge49_Node000005_Node000033"><a xlink:title=" ">
<path fill="none" stroke="#63b8ff" d="M895.19,-219.93C645.29,-196.28 357.11,-181.54 261.83,-176.99"/>
<polygon fill="#63b8ff" stroke="#63b8ff" points="894.9,-223.42 905.18,-220.88 895.56,-216.45 894.9,-223.42"/>
</a>
</g>
</g>
<!-- Node7&#45;&gt;Node6 -->
<g id="edge7_Node000007_Node000006" class="edge">
<title>Node7&#45;&gt;Node6</title>
<g id="a_edge7_Node000007_Node000006"><a xlink:title=" ">
<path fill="none" stroke="#63b8ff" d="M635.99,-168.69C575.4,-161.96 475.85,-148.37 444.5,-129 422.63,-115.49 407.2,-88.09 400.4,-74.12"/>
<polygon fill="#63b8ff" stroke="#63b8ff" points="635.78,-172.18 646.1,-169.78 636.53,-165.22 635.78,-172.18"/>
</a>
</g>
</g>
<!-- Node8 -->
<g id="Node000008" class="node">
<title>Node8</title>
<g id="a_Node000008"><a xlink:href="ast__aux_8h.html" target="_top" xlink:title=" ">
<polygon fill="white" stroke="#666666" points="985,-74 886,-74 886,-55 985,-55 985,-74"/>
<text text-anchor="middle" x="935.5" y="-62" font-family="Helvetica,sans-Serif" font-size="10.00">src/ast/ast_aux.h</text>
</a>
</g>
</g>
<!-- Node7&#45;&gt;Node8 -->
<g id="edge8_Node000007_Node000008" class="edge">
<title>Node7&#45;&gt;Node8</title>
<g id="a_edge8_Node000007_Node000008"><a xlink:title=" ">
<path fill="none" stroke="#63b8ff" d="M696.18,-156.37C707.02,-141.81 724.46,-121.51 744.5,-110 788.34,-84.82 845.59,-73.88 885.94,-69.13"/>
<polygon fill="#63b8ff" stroke="#63b8ff" points="693.3,-154.39 690.33,-164.55 698.99,-158.46 693.3,-154.39"/>
</a>
</g>
</g>
<!-- Node7&#45;&gt;Node18 -->
<g id="edge18_Node000007_Node000018" class="edge">
<title>Node7&#45;&gt;Node18</title>
<g id="a_edge18_Node000007_Node000018"><a xlink:title=" ">
<path fill="none" stroke="#63b8ff" d="M732.53,-167.85C800.35,-159.78 928,-144.24 1036.5,-129 1039.56,-128.57 1042.72,-128.11 1045.9,-127.65"/>
<polygon fill="#63b8ff" stroke="#63b8ff" points="732.09,-164.38 722.57,-169.04 732.91,-171.33 732.09,-164.38"/>
</a>
</g>
</g>
<!-- Node7&#45;&gt;Node19 -->
<g id="edge21_Node000007_Node000019" class="edge">
<title>Node7&#45;&gt;Node19</title>
<g id="a_edge21_Node000007_Node000019"><a xlink:title=" ">
<path fill="none" stroke="#63b8ff" d="M636.2,-166.12C572.52,-156.4 460.69,-139.32 393.41,-129.04"/>
<polygon fill="#63b8ff" stroke="#63b8ff" points="635.96,-169.63 646.37,-167.68 637.02,-162.71 635.96,-169.63"/>
</a>
</g>
</g>
<!-- Node7&#45;&gt;Node20 -->
<g id="edge22_Node000007_Node000020" class="edge">
<title>Node7&#45;&gt;Node20</title>
<g id="a_edge22_Node000007_Node000020"><a xlink:title=" ">
<path fill="none" stroke="#63b8ff" d="M715.23,-161.16C739.67,-151.35 773.24,-137.87 794.91,-129.17"/>
<polygon fill="#63b8ff" stroke="#63b8ff" points="713.68,-158.01 705.71,-164.98 716.29,-164.51 713.68,-158.01"/>
</a>
</g>
</g>
<!-- Node21 -->
<g id="Node000021" class="node">
<title>Node21</title>
<g id="a_Node000021"><a xlink:href="parser_8h.html" target="_top" xlink:title=" ">
<polygon fill="white" stroke="#666666" points="697,-129 590,-129 590,-110 697,-110 697,-129"/>
<text text-anchor="middle" x="643.5" y="-117" font-family="Helvetica,sans-Serif" font-size="10.00">src/parser/parser.h</text>
</a>
</g>
</g>
<!-- Node7&#45;&gt;Node21 -->
<g id="edge23_Node000007_Node000021" class="edge">
<title>Node7&#45;&gt;Node21</title>
<g id="a_edge23_Node000007_Node000021"><a xlink:title=" ">
<path fill="none" stroke="#63b8ff" d="M671.48,-156.67C664.38,-147.5 655.9,-136.52 650.14,-129.09"/>
<polygon fill="#63b8ff" stroke="#63b8ff" points="668.84,-158.98 677.73,-164.75 674.38,-154.7 668.84,-158.98"/>
</a>
</g>
</g>
<!-- Node26 -->
<g id="Node000026" class="node">
<title>Node26</title>
<g id="a_Node000026"><a xlink:href="prettyprint_8h.html" target="_top" xlink:title=" ">
<polygon fill="white" stroke="#666666" points="572,-129 453,-129 453,-110 572,-110 572,-129"/>
<text text-anchor="middle" x="512.5" y="-117" font-family="Helvetica,sans-Serif" font-size="10.00">src/utils/prettyprint.h</text>
</a>
</g>
</g>
<!-- Node7&#45;&gt;Node26 -->
<g id="edge34_Node000007_Node000026" class="edge">
<title>Node7&#45;&gt;Node26</title>
<g id="a_edge34_Node000007_Node000026"><a xlink:title=" ">
<path fill="none" stroke="#63b8ff" d="M646.94,-161.93C614.82,-152.03 569.31,-138.01 540.35,-129.08"/>
<polygon fill="#63b8ff" stroke="#63b8ff" points="646.28,-165.38 656.87,-164.98 648.34,-158.69 646.28,-165.38"/>
</a>
</g>
</g>
<!-- Node9 -->
<g id="Node000009" class="node">
<title>Node9</title>
<g id="a_Node000009"><a xlink:href="ast_8c.html" target="_top" xlink:title=" ">
<polygon fill="white" stroke="#666666" points="1087,-19 1012,-19 1012,0 1087,0 1087,-19"/>
<text text-anchor="middle" x="1049.5" y="-7" font-family="Helvetica,sans-Serif" font-size="10.00">src/ast/ast.c</text>
</a>
</g>
</g>
<!-- Node8&#45;&gt;Node9 -->
<g id="edge9_Node000008_Node000009" class="edge">
<title>Node8&#45;&gt;Node9</title>
<g id="a_edge9_Node000008_Node000009"><a xlink:title=" ">
<path fill="none" stroke="#63b8ff" d="M962.89,-50.77C983.92,-40.99 1012.39,-27.75 1030.85,-19.17"/>
<polygon fill="#63b8ff" stroke="#63b8ff" points="961.41,-47.6 953.82,-54.98 964.36,-53.94 961.41,-47.6"/>
</a>
</g>
</g>
<!-- Node10 -->
<g id="Node000010" class="node">
<title>Node10</title>
<g id="a_Node000010"><a xlink:href="ast__free_8c.html" target="_top" xlink:title=" ">
<polygon fill="white" stroke="#666666" points="1205.5,-19 1105.5,-19 1105.5,0 1205.5,0 1205.5,-19"/>
<text text-anchor="middle" x="1155.5" y="-7" font-family="Helvetica,sans-Serif" font-size="10.00">src/ast/ast_free.c</text>
</a>
</g>
</g>
<!-- Node8&#45;&gt;Node10 -->
<g id="edge10_Node000008_Node000010" class="edge">
<title>Node8&#45;&gt;Node10</title>
<g id="a_edge10_Node000008_Node000010"><a xlink:title=" ">
<path fill="none" stroke="#63b8ff" d="M980.63,-52.63C1021.84,-42.7 1081.95,-28.22 1119.88,-19.08"/>
<polygon fill="#63b8ff" stroke="#63b8ff" points="979.75,-49.24 970.85,-54.98 981.39,-56.05 979.75,-49.24"/>
</a>
</g>
</g>
<!-- Node11 -->
<g id="Node000011" class="node">
<title>Node11</title>
<g id="a_Node000011"><a xlink:href="ast__init_8c.html" target="_top" xlink:title=" ">
<polygon fill="white" stroke="#666666" points="1503.5,-19 1407.5,-19 1407.5,0 1503.5,0 1503.5,-19"/>
<text text-anchor="middle" x="1455.5" y="-7" font-family="Helvetica,sans-Serif" font-size="10.00">src/ast/ast_init.c</text>
</a>
</g>
</g>
<!-- Node8&#45;&gt;Node11 -->
<g id="edge11_Node000008_Node000011" class="edge">
<title>Node8&#45;&gt;Node11</title>
<g id="a_edge11_Node000008_Node000011"><a xlink:title=" ">
<path fill="none" stroke="#63b8ff" d="M995.35,-58.14C1102.26,-48.5 1322.02,-28.37 1398.5,-19 1401.38,-18.65 1404.34,-18.27 1407.32,-17.87"/>
<polygon fill="#63b8ff" stroke="#63b8ff" points="995.01,-54.66 985.36,-59.04 995.64,-61.63 995.01,-54.66"/>
</a>
</g>
</g>
<!-- Node12 -->
<g id="Node000012" class="node">
<title>Node12</title>
<g id="a_Node000012"><a xlink:href="ast__run_8c.html" target="_top" xlink:title=" ">
<polygon fill="white" stroke="#666666" points="1617.5,-19 1521.5,-19 1521.5,0 1617.5,0 1617.5,-19"/>
<text text-anchor="middle" x="1569.5" y="-7" font-family="Helvetica,sans-Serif" font-size="10.00">src/ast/ast_run.c</text>
</a>
</g>
</g>
<!-- Node8&#45;&gt;Node12 -->
<g id="edge12_Node000008_Node000012" class="edge">
<title>Node8&#45;&gt;Node12</title>
<g id="a_edge12_Node000008_Node000012"><a xlink:title=" ">
<path fill="none" stroke="#63b8ff" d="M995.01,-58.47C1008.95,-57.31 1023.74,-56.09 1037.5,-55 1248.55,-38.21 1302.11,-42.63 1512.5,-19 1515.38,-18.68 1518.34,-18.32 1521.33,-17.93"/>
<polygon fill="#63b8ff" stroke="#63b8ff" points="994.71,-54.98 985.04,-59.3 995.3,-61.95 994.71,-54.98"/>
</a>
</g>
</g>
<!-- Node13 -->
<g id="Node000013" class="node">
<title>Node13</title>
<g id="a_Node000013"><a xlink:href="parser_8c.html" target="_top" xlink:title=" ">
<polygon fill="white" stroke="#666666" points="669.5,-19 563.5,-19 563.5,0 669.5,0 669.5,-19"/>
<text text-anchor="middle" x="616.5" y="-7" font-family="Helvetica,sans-Serif" font-size="10.00">src/parser/parser.c</text>
</a>
</g>
</g>
<!-- Node8&#45;&gt;Node13 -->
<g id="edge13_Node000008_Node000013" class="edge">
<title>Node8&#45;&gt;Node13</title>
<g id="a_edge13_Node000008_Node000013"><a xlink:title=" ">
<path fill="none" stroke="#63b8ff" d="M875.59,-53.55C815.68,-43.59 724.53,-28.45 667.84,-19.03"/>
<polygon fill="#63b8ff" stroke="#63b8ff" points="875.22,-57.03 885.66,-55.22 876.37,-50.13 875.22,-57.03"/>
</a>
</g>
</g>
<!-- Node8&#45;&gt;Node14 -->
<g id="edge14_Node000008_Node000014" class="edge">
<title>Node8&#45;&gt;Node14</title>
<g id="a_edge14_Node000008_Node000014"><a xlink:title=" ">
<path fill="none" stroke="#63b8ff" d="M995.44,-54.94C1064.6,-45.06 1177.63,-28.91 1246.71,-19.04"/>
<polygon fill="#63b8ff" stroke="#63b8ff" points="994.55,-51.53 985.15,-56.41 995.54,-58.46 994.55,-51.53"/>
</a>
</g>
</g>
<!-- Node15 -->
<g id="Node000015" class="node">
<title>Node15</title>
<g id="a_Node000015"><a xlink:href="parser__lists_8c.html" target="_top" xlink:title=" ">
<polygon fill="white" stroke="#666666" points="819.5,-19 687.5,-19 687.5,0 819.5,0 819.5,-19"/>
<text text-anchor="middle" x="753.5" y="-7" font-family="Helvetica,sans-Serif" font-size="10.00">src/parser/parser_lists.c</text>
</a>
</g>
</g>
<!-- Node8&#45;&gt;Node15 -->
<g id="edge15_Node000008_Node000015" class="edge">
<title>Node8&#45;&gt;Node15</title>
<g id="a_edge15_Node000008_Node000015"><a xlink:title=" ">
<path fill="none" stroke="#63b8ff" d="M896.64,-52.18C862.6,-42.27 813.88,-28.08 782.97,-19.08"/>
<polygon fill="#63b8ff" stroke="#63b8ff" points="895.68,-55.55 906.26,-54.98 897.64,-48.83 895.68,-55.55"/>
</a>
</g>
</g>
<!-- Node16 -->
<g id="Node000016" class="node">
<title>Node16</title>
<g id="a_Node000016"><a xlink:href="parser__pipelines_8c.html" target="_top" xlink:title=" ">
<polygon fill="white" stroke="#666666" points="993.5,-19 837.5,-19 837.5,0 993.5,0 993.5,-19"/>
<text text-anchor="middle" x="915.5" y="-7" font-family="Helvetica,sans-Serif" font-size="10.00">src/parser/parser_pipelines.c</text>
</a>
</g>
</g>
<!-- Node8&#45;&gt;Node16 -->
<g id="edge16_Node000008_Node000016" class="edge">
<title>Node8&#45;&gt;Node16</title>
<g id="a_edge16_Node000008_Node000016"><a xlink:title=" ">
<path fill="none" stroke="#63b8ff" d="M928.61,-45.24C925.26,-36.37 921.4,-26.14 918.74,-19.09"/>
<polygon fill="#63b8ff" stroke="#63b8ff" points="925.39,-46.63 932.2,-54.75 931.94,-44.16 925.39,-46.63"/>
</a>
</g>
</g>
<!-- Node17 -->
<g id="Node000017" class="node">
<title>Node17</title>
<g id="a_Node000017"><a xlink:href="parser__rules_8c.html" target="_top" xlink:title=" ">
<polygon fill="white" stroke="#666666" points="545.5,-19 409.5,-19 409.5,0 545.5,0 545.5,-19"/>
<text text-anchor="middle" x="477.5" y="-7" font-family="Helvetica,sans-Serif" font-size="10.00">src/parser/parser_rules.c</text>
</a>
</g>
</g>
<!-- Node8&#45;&gt;Node17 -->
<g id="edge17_Node000008_Node000017" class="edge">
<title>Node8&#45;&gt;Node17</title>
<g id="a_edge17_Node000008_Node000017"><a xlink:title=" ">
<path fill="none" stroke="#63b8ff" d="M875.6,-56.57C790.58,-46.73 635.3,-28.76 545.87,-18.41"/>
<polygon fill="#63b8ff" stroke="#63b8ff" points="875.28,-60.05 885.61,-57.73 876.08,-53.1 875.28,-60.05"/>
</a>
</g>
</g>
<!-- Node18&#45;&gt;Node4 -->
<g id="edge20_Node000018_Node000004" class="edge">
<title>Node18&#45;&gt;Node4</title>
<g id="a_edge20_Node000018_Node000004"><a xlink:title=" ">
<path fill="none" stroke="#63b8ff" d="M1091.5,-99.66C1091.5,-90.93 1091.5,-80.99 1091.5,-74.09"/>
<polygon fill="#63b8ff" stroke="#63b8ff" points="1088,-99.75 1091.5,-109.75 1095,-99.75 1088,-99.75"/>
</a>
</g>
</g>
<!-- Node18&#45;&gt;Node12 -->
<g id="edge19_Node000018_Node000012" class="edge">
<title>Node18&#45;&gt;Node12</title>
<g id="a_edge19_Node000018_Node000012"><a xlink:title=" ">
<path fill="none" stroke="#63b8ff" d="M1139.32,-107.69C1234.37,-86.22 1445.3,-38.56 1531.59,-19.07"/>
<polygon fill="#63b8ff" stroke="#63b8ff" points="1138.39,-104.32 1129.41,-109.94 1139.93,-111.15 1138.39,-104.32"/>
</a>
</g>
</g>
<!-- Node21&#45;&gt;Node6 -->
<g id="edge24_Node000021_Node000006" class="edge">
<title>Node21&#45;&gt;Node6</title>
<g id="a_edge24_Node000021_Node000006"><a xlink:title=" ">
<path fill="none" stroke="#63b8ff" d="M593.76,-107.83C544.81,-97.32 471.47,-81.59 429.37,-72.55"/>
<polygon fill="#63b8ff" stroke="#63b8ff" points="593.3,-111.31 603.82,-109.98 594.77,-104.46 593.3,-111.31"/>
</a>
</g>
</g>
<!-- Node22 -->
<g id="Node000022" class="node">
<title>Node22</title>
<g id="a_Node000022"><a xlink:href="dot_8c.html" target="_top" xlink:title=" ">
<polygon fill="white" stroke="#666666" points="842.5,-74 750.5,-74 750.5,-55 842.5,-55 842.5,-74"/>
<text text-anchor="middle" x="796.5" y="-62" font-family="Helvetica,sans-Serif" font-size="10.00">src/builtin/dot.c</text>
</a>
</g>
</g>
<!-- Node21&#45;&gt;Node22 -->
<g id="edge25_Node000021_Node000022" class="edge">
<title>Node21&#45;&gt;Node22</title>
<g id="a_edge25_Node000021_Node000022"><a xlink:title=" ">
<path fill="none" stroke="#63b8ff" d="M677.65,-106.67C706.18,-96.79 746.19,-82.93 771.73,-74.08"/>
<polygon fill="#63b8ff" stroke="#63b8ff" points="676.39,-103.4 668.08,-109.98 678.68,-110.02 676.39,-103.4"/>
</a>
</g>
</g>
<!-- Node23 -->
<g id="Node000023" class="node">
<title>Node23</title>
<g id="a_Node000023"><a xlink:href="parser__aux_8h.html" target="_top" xlink:title=" ">
<polygon fill="white" stroke="#666666" points="715,-74 584,-74 584,-55 715,-55 715,-74"/>
<text text-anchor="middle" x="649.5" y="-62" font-family="Helvetica,sans-Serif" font-size="10.00">src/parser/parser_aux.h</text>
</a>
</g>
</g>
<!-- Node21&#45;&gt;Node23 -->
<g id="edge26_Node000021_Node000023" class="edge">
<title>Node21&#45;&gt;Node23</title>
<g id="a_edge26_Node000021_Node000023"><a xlink:title=" ">
<path fill="none" stroke="#63b8ff" d="M645.63,-99.66C646.62,-90.93 647.75,-80.99 648.53,-74.09"/>
<polygon fill="#63b8ff" stroke="#63b8ff" points="642.14,-99.42 644.49,-109.75 649.09,-100.21 642.14,-99.42"/>
</a>
</g>
</g>
<!-- Node23&#45;&gt;Node13 -->
<g id="edge27_Node000023_Node000013" class="edge">
<title>Node23&#45;&gt;Node13</title>
<g id="a_edge27_Node000023_Node000013"><a xlink:title=" ">
<path fill="none" stroke="#63b8ff" d="M638.67,-46.1C633.03,-37.04 626.38,-26.37 621.85,-19.09"/>
<polygon fill="#63b8ff" stroke="#63b8ff" points="635.79,-48.11 644.05,-54.75 641.74,-44.41 635.79,-48.11"/>
</a>
</g>
</g>
<!-- Node23&#45;&gt;Node14 -->
<g id="edge28_Node000023_Node000014" class="edge">
<title>Node23&#45;&gt;Node14</title>
<g id="a_edge28_Node000023_Node000014"><a xlink:title=" ">
<path fill="none" stroke="#63b8ff" d="M725.65,-56.37C731.01,-55.9 736.34,-55.43 741.5,-55 951.59,-37.3 1004.41,-36.7 1214.5,-19 1217.38,-18.76 1220.3,-18.51 1223.26,-18.25"/>
<polygon fill="#63b8ff" stroke="#63b8ff" points="724.97,-52.91 715.32,-57.29 725.59,-59.89 724.97,-52.91"/>
</a>
</g>
</g>
<!-- Node23&#45;&gt;Node15 -->
<g id="edge29_Node000023_Node000015" class="edge">
<title>Node23&#45;&gt;Node15</title>
<g id="a_edge29_Node000023_Node000015"><a xlink:title=" ">
<path fill="none" stroke="#63b8ff" d="M675.27,-50.37C694.37,-40.63 719.87,-27.64 736.49,-19.17"/>
<polygon fill="#63b8ff" stroke="#63b8ff" points="673.53,-47.33 666.21,-54.98 676.71,-53.56 673.53,-47.33"/>
</a>
</g>
</g>
<!-- Node23&#45;&gt;Node16 -->
<g id="edge30_Node000023_Node000016" class="edge">
<title>Node23&#45;&gt;Node16</title>
<g id="a_edge30_Node000023_Node000016"><a xlink:title=" ">
<path fill="none" stroke="#63b8ff" d="M702.18,-53C752.05,-43.07 825.99,-28.33 872.43,-19.08"/>
<polygon fill="#63b8ff" stroke="#63b8ff" points="701.36,-49.6 692.24,-54.98 702.73,-56.46 701.36,-49.6"/>
</a>
</g>
</g>
<!-- Node23&#45;&gt;Node17 -->
<g id="edge32_Node000023_Node000017" class="edge">
<title>Node23&#45;&gt;Node17</title>
<g id="a_edge32_Node000023_Node000017"><a xlink:title=" ">
<path fill="none" stroke="#63b8ff" d="M611.94,-51.93C579.82,-42.03 534.31,-28.01 505.35,-19.08"/>
<polygon fill="#63b8ff" stroke="#63b8ff" points="611.28,-55.38 621.87,-54.98 613.34,-48.69 611.28,-55.38"/>
</a>
</g>
</g>
<!-- Node24 -->
<g id="Node000024" class="node">
<title>Node24</title>
<g id="a_Node000024"><a xlink:href="parser__redirections_8c.html" target="_top" xlink:title=" ">
<polygon fill="white" stroke="#666666" points="391.5,-19 221.5,-19 221.5,0 391.5,0 391.5,-19"/>
<text text-anchor="middle" x="306.5" y="-7" font-family="Helvetica,sans-Serif" font-size="10.00">src/parser/parser_redirections.c</text>
</a>
</g>
</g>
<!-- Node23&#45;&gt;Node24 -->
<g id="edge31_Node000023_Node000024" class="edge">
<title>Node23&#45;&gt;Node24</title>
<g id="a_edge31_Node000023_Node000024"><a xlink:title=" ">
<path fill="none" stroke="#63b8ff" d="M584.35,-53.43C519.95,-43.48 422.48,-28.42 361.76,-19.04"/>
<polygon fill="#63b8ff" stroke="#63b8ff" points="583.97,-56.92 594.39,-54.98 585.04,-50 583.97,-56.92"/>
</a>
</g>
</g>
<!-- Node25 -->
<g id="Node000025" class="node">
<title>Node25</title>
<g id="a_Node000025"><a xlink:href="parser__utils_8c.html" target="_top" xlink:title=" ">
<polygon fill="white" stroke="#666666" points="203,-19 70,-19 70,0 203,0 203,-19"/>
<text text-anchor="middle" x="136.5" y="-7" font-family="Helvetica,sans-Serif" font-size="10.00">src/parser/parser_utils.c</text>
</a>
</g>
</g>
<!-- Node23&#45;&gt;Node25 -->
<g id="edge33_Node000023_Node000025" class="edge">
<title>Node23&#45;&gt;Node25</title>
<g id="a_edge33_Node000023_Node000025"><a xlink:title=" ">
<path fill="none" stroke="#63b8ff" d="M573.36,-54.89C412.02,-37.81 369.99,-35.64 212.5,-19 209.46,-18.68 206.36,-18.35 203.22,-18.01"/>
<polygon fill="#63b8ff" stroke="#63b8ff" points="573.34,-58.41 583.66,-55.99 574.08,-51.45 573.34,-58.41"/>
</a>
</g>
</g>
<!-- Node26&#45;&gt;Node6 -->
<g id="edge35_Node000026_Node000006" class="edge">
<title>Node26&#45;&gt;Node6</title>
<g id="a_edge35_Node000026_Node000006"><a xlink:title=" ">
<path fill="none" stroke="#63b8ff" d="M484.63,-105.77C463.23,-95.99 434.26,-82.75 415.48,-74.17"/>
<polygon fill="#63b8ff" stroke="#63b8ff" points="483.31,-109.01 493.86,-109.98 486.22,-102.65 483.31,-109.01"/>
</a>
</g>
</g>
<!-- Node27 -->
<g id="Node000027" class="node">
<title>Node27</title>
<g id="a_Node000027"><a xlink:href="prettyprint_8c.html" target="_top" xlink:title=" ">
<polygon fill="white" stroke="#666666" points="565.5,-74 447.5,-74 447.5,-55 565.5,-55 565.5,-74"/>
<text text-anchor="middle" x="506.5" y="-62" font-family="Helvetica,sans-Serif" font-size="10.00">src/utils/prettyprint.c</text>
</a>
</g>
</g>
<!-- Node26&#45;&gt;Node27 -->
<g id="edge36_Node000026_Node000027" class="edge">
<title>Node26&#45;&gt;Node27</title>
<g id="a_edge36_Node000026_Node000027"><a xlink:title=" ">
<path fill="none" stroke="#63b8ff" d="M510.37,-99.66C509.38,-90.93 508.25,-80.99 507.47,-74.09"/>
<polygon fill="#63b8ff" stroke="#63b8ff" points="506.91,-100.21 511.51,-109.75 513.86,-99.42 506.91,-100.21"/>
</a>
</g>
</g>
<!-- Node28&#45;&gt;Node4 -->
<g id="edge39_Node000028_Node000004" class="edge">
<title>Node28&#45;&gt;Node4</title>
<g id="a_edge39_Node000028_Node000004"><a xlink:title=" ">
<path fill="none" stroke="#63b8ff" d="M1384.04,-158.01C1366.63,-143.4 1338.5,-122 1310.5,-110 1253.44,-85.55 1182.16,-74.28 1136.72,-69.26"/>
<polygon fill="#63b8ff" stroke="#63b8ff" points="1381.82,-160.71 1391.69,-164.57 1386.38,-155.4 1381.82,-160.71"/>
</a>
</g>
</g>
<!-- Node29 -->
<g id="Node000029" class="node">
<title>Node29</title>
<g id="a_Node000029"><a xlink:href="cd_8c.html" target="_top" xlink:title=" ">
<polygon fill="white" stroke="#666666" points="1483,-129 1396,-129 1396,-110 1483,-110 1483,-129"/>
<text text-anchor="middle" x="1439.5" y="-117" font-family="Helvetica,sans-Serif" font-size="10.00">src/builtin/cd.c</text>
</a>
</g>
</g>
<!-- Node28&#45;&gt;Node29 -->
<g id="edge38_Node000028_Node000029" class="edge">
<title>Node28&#45;&gt;Node29</title>
<g id="a_edge38_Node000028_Node000029"><a xlink:title=" ">
<path fill="none" stroke="#63b8ff" d="M1413.77,-156.39C1420.31,-147.27 1428.07,-136.45 1433.34,-129.09"/>
<polygon fill="#63b8ff" stroke="#63b8ff" points="1410.76,-154.58 1407.77,-164.75 1416.45,-158.66 1410.76,-154.58"/>
</a>
</g>
</g>
<!-- Node30&#45;&gt;Node4 -->
<g id="edge42_Node000030_Node000004" class="edge">
<title>Node30&#45;&gt;Node4</title>
<g id="a_edge42_Node000030_Node000004"><a xlink:title=" ">
<path fill="none" stroke="#63b8ff" d="M1008.2,-105.63C1028.47,-95.87 1055.77,-82.71 1073.51,-74.17"/>
<polygon fill="#63b8ff" stroke="#63b8ff" points="1006.66,-102.49 999.17,-109.98 1009.7,-108.8 1006.66,-102.49"/>
</a>
</g>
</g>
<!-- Node30&#45;&gt;Node22 -->
<g id="edge41_Node000030_Node000022" class="edge">
<title>Node30&#45;&gt;Node22</title>
<g id="a_edge41_Node000030_Node000022"><a xlink:title=" ">
<path fill="none" stroke="#63b8ff" d="M942,-107.18C907.4,-97.27 857.87,-83.08 826.46,-74.08"/>
<polygon fill="#63b8ff" stroke="#63b8ff" points="941.2,-110.6 951.78,-109.98 943.13,-103.87 941.2,-110.6"/>
</a>
</g>
</g>
<!-- Node31&#45;&gt;Node4 -->
<g id="edge45_Node000031_Node000004" class="edge">
<title>Node31&#45;&gt;Node4</title>
<g id="a_edge45_Node000031_Node000004"><a xlink:title=" ">
<path fill="none" stroke="#63b8ff" d="M1162.89,-154.62C1160.36,-141.28 1155.51,-123.44 1146.5,-110 1136.24,-94.7 1119.12,-82.05 1106.7,-74.2"/>
<polygon fill="#63b8ff" stroke="#63b8ff" points="1159.45,-155.28 1164.52,-164.58 1166.36,-154.15 1159.45,-155.28"/>
</a>
</g>
</g>
<!-- Node32 -->
<g id="Node000032" class="node">
<title>Node32</title>
<g id="a_Node000032"><a xlink:href="export_8c.html" target="_top" xlink:title=" ">
<polygon fill="white" stroke="#666666" points="1301,-129 1194,-129 1194,-110 1301,-110 1301,-129"/>
<text text-anchor="middle" x="1247.5" y="-117" font-family="Helvetica,sans-Serif" font-size="10.00">src/builtin/export.c</text>
</a>
</g>
</g>
<!-- Node31&#45;&gt;Node32 -->
<g id="edge44_Node000031_Node000032" class="edge">
<title>Node31&#45;&gt;Node32</title>
<g id="a_edge44_Node000031_Node000032"><a xlink:title=" ">
<path fill="none" stroke="#63b8ff" d="M1187.28,-159.42C1202.16,-149.81 1221.41,-137.37 1234.09,-129.17"/>
<polygon fill="#63b8ff" stroke="#63b8ff" points="1185.17,-156.62 1178.67,-164.98 1188.97,-162.5 1185.17,-156.62"/>
</a>
</g>
</g>
<!-- Node33&#45;&gt;Node6 -->
<g id="edge50_Node000033_Node000006" class="edge">
<title>Node33&#45;&gt;Node6</title>
<g id="a_edge50_Node000033_Node000006"><a xlink:title=" ">
<path fill="none" stroke="#63b8ff" d="M208.89,-158.59C193.05,-145.32 175.85,-125.64 188.5,-110 210.15,-83.22 310.65,-71.84 363.62,-67.64"/>
<polygon fill="#63b8ff" stroke="#63b8ff" points="206.86,-161.45 216.88,-164.89 211.19,-155.95 206.86,-161.45"/>
</a>
</g>
</g>
<!-- Node34 -->
<g id="Node000034" class="node">
<title>Node34</title>
<g id="a_Node000034"><a xlink:href="io_8c.html" target="_top" xlink:title=" ">
<polygon fill="white" stroke="#666666" points="261,-129 198,-129 198,-110 261,-110 261,-129"/>
<text text-anchor="middle" x="229.5" y="-117" font-family="Helvetica,sans-Serif" font-size="10.00">src/io/io.c</text>
</a>
</g>
</g>
<!-- Node33&#45;&gt;Node34 -->
<g id="edge51_Node000033_Node000034" class="edge">
<title>Node33&#45;&gt;Node34</title>
<g id="a_edge51_Node000033_Node000034"><a xlink:title=" ">
<path fill="none" stroke="#63b8ff" d="M229.5,-154.66C229.5,-145.93 229.5,-135.99 229.5,-129.09"/>
<polygon fill="#63b8ff" stroke="#63b8ff" points="226,-154.75 229.5,-164.75 233,-154.75 226,-154.75"/>
</a>
</g>
</g>
</g>
</svg>
