<?xml version="1.0" encoding="UTF-8" standalone="no"?>
<!DOCTYPE svg PUBLIC "-//W3C//DTD SVG 1.1//EN"
 "http://www.w3.org/Graphics/SVG/1.1/DTD/svg11.dtd">
<!-- Generated by graphviz version 2.43.0 (0)
 -->
<!-- Title: expand_value Pages: 1 -->
<svg width="1140pt" height="628pt"
 viewBox="0.00 0.00 1140.00 628.01" xmlns="http://www.w3.org/2000/svg" xmlns:xlink="http://www.w3.org/1999/xlink">
<g id="graph0" class="graph" transform="scale(1 1) rotate(0) translate(4 624.01)">
<title>expand_value</title>
<!-- Node1 -->
<g id="Node000001" class="node">
<title>Node1</title>
<g id="a_Node000001"><a xlink:title=" ">
<polygon fill="#999999" stroke="#666666" points="1132,-171.01 1047,-171.01 1047,-152.01 1132,-152.01 1132,-171.01"/>
<text text-anchor="middle" x="1089.5" y="-159.01" font-family="Helvetica,sans-Serif" font-size="10.00">expand_value</text>
</a>
</g>
</g>
<!-- Node2 -->
<g id="Node000002" class="node">
<title>Node2</title>
<g id="a_Node000002"><a xlink:href="hashmap_8c.html#a3bf95c887f7eac3eb074725515feba49" target="_top" xlink:title="Add a variable to the dictionnary.">
<polygon fill="white" stroke="#666666" points="1011,-171.01 955,-171.01 955,-152.01 1011,-152.01 1011,-171.01"/>
<text text-anchor="middle" x="983" y="-159.01" font-family="Helvetica,sans-Serif" font-size="10.00">add_var</text>
</a>
</g>
</g>
<!-- Node1&#45;&gt;Node2 -->
<g id="edge1_Node000001_Node000002" class="edge">
<title>Node1&#45;&gt;Node2</title>
<g id="a_edge1_Node000001_Node000002"><a xlink:title=" ">
<path fill="none" stroke="#63b8ff" d="M1036.88,-161.51C1027.95,-161.51 1018.99,-161.51 1011.05,-161.51"/>
<polygon fill="#63b8ff" stroke="#63b8ff" points="1036.9,-165.01 1046.9,-161.51 1036.9,-158.01 1036.9,-165.01"/>
</a>
</g>
</g>
<!-- Node3 -->
<g id="Node000003" class="node">
<title>Node3</title>
<g id="a_Node000003"><a xlink:href="io_8c.html#ac8404f84d9b2f3f16fe4d24de44d6050" target="_top" xlink:title="Helper: Ajoute un arg au dictionnaire de variables.">
<polygon fill="white" stroke="#666666" points="919,-420.01 810,-420.01 810,-401.01 919,-401.01 919,-420.01"/>
<text text-anchor="middle" x="864.5" y="-408.01" font-family="Helvetica,sans-Serif" font-size="10.00">add_positional_arg</text>
</a>
</g>
</g>
<!-- Node2&#45;&gt;Node3 -->
<g id="edge2_Node000002_Node000003" class="edge">
<title>Node2&#45;&gt;Node3</title>
<g id="a_edge2_Node000002_Node000003"><a xlink:title=" ">
<path fill="none" stroke="#63b8ff" d="M982.46,-181.4C982.39,-225.46 975.94,-332.15 919,-392.51 915.77,-395.93 911.87,-398.7 907.67,-400.95"/>
<polygon fill="#63b8ff" stroke="#63b8ff" points="985.96,-181.36 982.37,-171.39 978.96,-181.42 985.96,-181.36"/>
</a>
</g>
</g>
<!-- Node6 -->
<g id="Node000006" class="node">
<title>Node6</title>
<g id="a_Node000006"><a xlink:href="hashmap_8c.html#a6ea7c10f5ac3ee3ad1986f24e1b83863" target="_top" xlink:title=" ">
<polygon fill="white" stroke="#666666" points="901.5,-383.01 827.5,-383.01 827.5,-364.01 901.5,-364.01 901.5,-383.01"/>
<text text-anchor="middle" x="864.5" y="-371.01" font-family="Helvetica,sans-Serif" font-size="10.00">add_special</text>
</a>
</g>
</g>
<!-- Node2&#45;&gt;Node6 -->
<g id="edge5_Node000002_Node000006" class="edge">
<title>Node2&#45;&gt;Node6</title>
<g id="a_edge5_Node000002_Node000006"><a xlink:title=" ">
<path fill="none" stroke="#63b8ff" d="M981.1,-181.41C978.29,-220.01 966.71,-305.56 919,-354.51 914.18,-359.45 908,-363.11 901.56,-365.82"/>
<polygon fill="#63b8ff" stroke="#63b8ff" points="984.62,-181.22 981.72,-171.03 977.63,-180.8 984.62,-181.22"/>
</a>
</g>
</g>
<!-- Node8 -->
<g id="Node000008" class="node">
<title>Node8</title>
<g id="a_Node000008"><a xlink:href="io_8c.html#aa3aea4ea03b25f3d2e5449741816dbb8" target="_top" xlink:title="Helper &#45;&gt; add number of args to dictionnary.">
<polygon fill="white" stroke="#666666" points="894,-457.01 835,-457.01 835,-438.01 894,-438.01 894,-457.01"/>
<text text-anchor="middle" x="864.5" y="-445.01" font-family="Helvetica,sans-Serif" font-size="10.00">arg_num</text>
</a>
</g>
</g>
<!-- Node2&#45;&gt;Node8 -->
<g id="edge8_Node000002_Node000008" class="edge">
<title>Node2&#45;&gt;Node8</title>
<g id="a_edge8_Node000002_Node000008"><a xlink:title=" ">
<path fill="none" stroke="#63b8ff" d="M979.86,-181.11C973.45,-236.48 952.72,-392.48 919,-429.51 912.53,-436.61 903.18,-440.91 894.09,-443.52"/>
<polygon fill="#63b8ff" stroke="#63b8ff" points="983.34,-181.5 980.98,-171.17 976.38,-180.71 983.34,-181.5"/>
</a>
</g>
</g>
<!-- Node9 -->
<g id="Node000009" class="node">
<title>Node9</title>
<g id="a_Node000009"><a xlink:href="ast__run_8c.html#a9d83d4834a61ffe21eb77838d70ae173" target="_top" xlink:title=" ">
<polygon fill="white" stroke="#666666" points="900,-346.01 829,-346.01 829,-327.01 900,-327.01 900,-346.01"/>
<text text-anchor="middle" x="864.5" y="-334.01" font-family="Helvetica,sans-Serif" font-size="10.00">ast_run_for</text>
</a>
</g>
</g>
<!-- Node2&#45;&gt;Node9 -->
<g id="edge10_Node000002_Node000009" class="edge">
<title>Node2&#45;&gt;Node9</title>
<g id="a_edge10_Node000002_Node000009"><a xlink:title=" ">
<path fill="none" stroke="#63b8ff" d="M969.76,-179.89C945.25,-216.72 890.86,-298.41 872.05,-326.66"/>
<polygon fill="#63b8ff" stroke="#63b8ff" points="972.94,-181.43 975.57,-171.17 967.12,-177.55 972.94,-181.43"/>
</a>
</g>
</g>
<!-- Node25 -->
<g id="Node000025" class="node">
<title>Node25</title>
<g id="a_Node000025"><a xlink:href="exec_8c.html#a9707f3708c634be49a10356313da4d30" target="_top" xlink:title="Execute the command with given arguments.">
<polygon fill="white" stroke="#666666" points="743,-95.01 704,-95.01 704,-76.01 743,-76.01 743,-95.01"/>
<text text-anchor="middle" x="723.5" y="-83.01" font-family="Helvetica,sans-Serif" font-size="10.00">exec</text>
</a>
</g>
</g>
<!-- Node2&#45;&gt;Node25 -->
<g id="edge38_Node000002_Node000025" class="edge">
<title>Node2&#45;&gt;Node25</title>
<g id="a_edge38_Node000002_Node000025"><a xlink:title=" ">
<path fill="none" stroke="#63b8ff" d="M966.5,-144.34C954.71,-132.47 937.42,-117.43 919,-109.51 858.68,-83.55 778.76,-83.09 743.08,-84.44"/>
<polygon fill="#63b8ff" stroke="#63b8ff" points="964.29,-147.1 973.73,-151.92 969.36,-142.27 964.29,-147.1"/>
</a>
</g>
</g>
<!-- Node26 -->
<g id="Node000026" class="node">
<title>Node26</title>
<g id="a_Node000026"><a xlink:href="exec_8c.html#a60ea263265f67ff588c7de955c83bcec" target="_top" xlink:title="Exec assignments in cmd.">
<polygon fill="white" stroke="#666666" points="774,-19.01 673,-19.01 673,-0.01 774,-0.01 774,-19.01"/>
<text text-anchor="middle" x="723.5" y="-7.01" font-family="Helvetica,sans-Serif" font-size="10.00">exec_assignment</text>
</a>
</g>
</g>
<!-- Node2&#45;&gt;Node26 -->
<g id="edge40_Node000002_Node000026" class="edge">
<title>Node2&#45;&gt;Node26</title>
<g id="a_edge40_Node000002_Node000026"><a xlink:title=" ">
<path fill="none" stroke="#63b8ff" d="M978.85,-141.63C972.95,-111.6 957.18,-55.36 919,-28.51 876.95,1.06 816.56,2.29 774.25,-1.64"/>
<polygon fill="#63b8ff" stroke="#63b8ff" points="975.45,-142.51 980.66,-151.73 982.34,-141.28 975.45,-142.51"/>
</a>
</g>
</g>
<!-- Node27 -->
<g id="Node000027" class="node">
<title>Node27</title>
<g id="a_Node000027"><a xlink:href="export_8c.html#a8b18baf315f49dfc9d40e9a05a8eaa24" target="_top" xlink:title="Execute export builtin cmd.">
<polygon fill="white" stroke="#666666" points="482,-133.01 423,-133.01 423,-114.01 482,-114.01 482,-133.01"/>
<text text-anchor="middle" x="452.5" y="-121.01" font-family="Helvetica,sans-Serif" font-size="10.00">export_b</text>
</a>
</g>
</g>
<!-- Node2&#45;&gt;Node27 -->
<g id="edge42_Node000002_Node000027" class="edge">
<title>Node2&#45;&gt;Node27</title>
<g id="a_edge42_Node000002_Node000027"><a xlink:title=" ">
<path fill="none" stroke="#63b8ff" d="M946.12,-148.99C937.35,-146.4 927.92,-144.01 919,-142.51 755.49,-114.97 555.35,-119.35 482.1,-122.19"/>
<polygon fill="#63b8ff" stroke="#63b8ff" points="945.1,-152.33 955.68,-151.95 947.17,-145.65 945.1,-152.33"/>
</a>
</g>
</g>
<!-- Node28 -->
<g id="Node000028" class="node">
<title>Node28</title>
<g id="a_Node000028"><a xlink:href="exec_8c.html#a10741ea1c82bec65aa88b283c4a68e5b" target="_top" xlink:title="Update special var &quot;?&quot; with given status.">
<polygon fill="white" stroke="#666666" points="901.5,-57.01 827.5,-57.01 827.5,-38.01 901.5,-38.01 901.5,-57.01"/>
<text text-anchor="middle" x="864.5" y="-45.01" font-family="Helvetica,sans-Serif" font-size="10.00">update_exit</text>
</a>
</g>
</g>
<!-- Node2&#45;&gt;Node28 -->
<g id="edge44_Node000002_Node000028" class="edge">
<title>Node2&#45;&gt;Node28</title>
<g id="a_edge44_Node000002_Node000028"><a xlink:title=" ">
<path fill="none" stroke="#63b8ff" d="M972.83,-142.81C962.24,-122.87 943.14,-91.47 919,-71.51 911.78,-65.54 902.84,-60.76 894.35,-57.09"/>
<polygon fill="#63b8ff" stroke="#63b8ff" points="969.77,-144.52 977.45,-151.82 976,-141.33 969.77,-144.52"/>
</a>
</g>
</g>
<!-- Node29 -->
<g id="Node000029" class="node">
<title>Node29</title>
<g id="a_Node000029"><a xlink:href="cd_8c.html#a9eb5212e3fb105823c28e343ce5ca946" target="_top" xlink:title="Update PWD and OLDPWD vars after cd.">
<polygon fill="white" stroke="#666666" points="902.5,-171.01 826.5,-171.01 826.5,-152.01 902.5,-152.01 902.5,-171.01"/>
<text text-anchor="middle" x="864.5" y="-159.01" font-family="Helvetica,sans-Serif" font-size="10.00">update_pwd</text>
</a>
</g>
</g>
<!-- Node2&#45;&gt;Node29 -->
<g id="edge48_Node000002_Node000029" class="edge">
<title>Node2&#45;&gt;Node29</title>
<g id="a_edge48_Node000002_Node000029"><a xlink:title=" ">
<path fill="none" stroke="#63b8ff" d="M944.61,-161.51C931.14,-161.51 915.96,-161.51 902.52,-161.51"/>
<polygon fill="#63b8ff" stroke="#63b8ff" points="944.98,-165.01 954.98,-161.51 944.98,-158.01 944.98,-165.01"/>
</a>
</g>
</g>
<!-- Node4 -->
<g id="Node000004" class="node">
<title>Node4</title>
<g id="a_Node000004"><a xlink:href="io_8c.html#a8346ebcdde79020ca792f3d4d2d93ec0" target="_top" xlink:title="Gère options scripts et arguments.">
<polygon fill="white" stroke="#666666" points="750,-457.01 697,-457.01 697,-438.01 750,-438.01 750,-457.01"/>
<text text-anchor="middle" x="723.5" y="-445.01" font-family="Helvetica,sans-Serif" font-size="10.00">arg_file</text>
</a>
</g>
</g>
<!-- Node3&#45;&gt;Node4 -->
<g id="edge3_Node000003_Node000004" class="edge">
<title>Node3&#45;&gt;Node4</title>
<g id="a_edge3_Node000003_Node000004"><a xlink:title=" ">
<path fill="none" stroke="#63b8ff" d="M817.98,-422.62C795.44,-428.62 769.06,-435.65 750.08,-440.7"/>
<polygon fill="#63b8ff" stroke="#63b8ff" points="818.94,-425.99 827.7,-420.04 817.14,-419.23 818.94,-425.99"/>
</a>
</g>
</g>
<!-- Node5 -->
<g id="Node000005" class="node">
<title>Node5</title>
<g id="a_Node000005"><a xlink:href="42sh_8c.html#a3c04138a5bfe5d72780bb7e82a18e627" target="_top" xlink:title=" ">
<polygon fill="white" stroke="#666666" points="603,-620.01 562,-620.01 562,-601.01 603,-601.01 603,-620.01"/>
<text text-anchor="middle" x="582.5" y="-608.01" font-family="Helvetica,sans-Serif" font-size="10.00">main</text>
</a>
</g>
</g>
<!-- Node4&#45;&gt;Node5 -->
<g id="edge4_Node000004_Node000005" class="edge">
<title>Node4&#45;&gt;Node5</title>
<g id="a_edge4_Node000004_Node000005"><a xlink:title=" ">
<path fill="none" stroke="#63b8ff" d="M716.14,-466.84C704.99,-497.79 679.03,-558.43 637,-592.51 627.33,-600.35 614.09,-604.84 603.2,-607.37"/>
<polygon fill="#63b8ff" stroke="#63b8ff" points="719.5,-467.82 719.47,-457.22 712.89,-465.53 719.5,-467.82"/>
</a>
</g>
</g>
<!-- Node7 -->
<g id="Node000007" class="node">
<title>Node7</title>
<g id="a_Node000007"><a xlink:href="hashmap_8c.html#a5b305fb96c9d0ce57bb51cc0e2c434ac" target="_top" xlink:title="Initialise the dictionnary and adds special variables from the get go.">
<polygon fill="white" stroke="#666666" points="751.5,-411.01 695.5,-411.01 695.5,-392.01 751.5,-392.01 751.5,-411.01"/>
<text text-anchor="middle" x="723.5" y="-399.01" font-family="Helvetica,sans-Serif" font-size="10.00">init_dict</text>
</a>
</g>
</g>
<!-- Node6&#45;&gt;Node7 -->
<g id="edge6_Node000006_Node000007" class="edge">
<title>Node6&#45;&gt;Node7</title>
<g id="a_edge6_Node000006_Node000007"><a xlink:title=" ">
<path fill="none" stroke="#63b8ff" d="M817.3,-382.81C795.55,-387.2 770.34,-392.27 751.69,-396.03"/>
<polygon fill="#63b8ff" stroke="#63b8ff" points="818.23,-386.2 827.34,-380.79 816.85,-379.34 818.23,-386.2"/>
</a>
</g>
</g>
<!-- Node7&#45;&gt;Node5 -->
<g id="edge7_Node000007_Node000005" class="edge">
<title>Node7&#45;&gt;Node5</title>
<g id="a_edge7_Node000007_Node000005"><a xlink:title=" ">
<path fill="none" stroke="#63b8ff" d="M687.65,-416.18C682.09,-419.83 676.89,-424.25 673,-429.51 628.89,-489.16 686.58,-537.31 637,-592.51 628.42,-602.06 614.61,-606.55 603.17,-608.66"/>
<polygon fill="#63b8ff" stroke="#63b8ff" points="689.63,-419.08 696.56,-411.05 686.14,-413.01 689.63,-419.08"/>
</a>
</g>
</g>
<!-- Node8&#45;&gt;Node4 -->
<g id="edge9_Node000008_Node000004" class="edge">
<title>Node8&#45;&gt;Node4</title>
<g id="a_edge9_Node000008_Node000004"><a xlink:title=" ">
<path fill="none" stroke="#63b8ff" d="M824.62,-447.51C800.93,-447.51 771.31,-447.51 750.45,-447.51"/>
<polygon fill="#63b8ff" stroke="#63b8ff" points="824.7,-451.01 834.7,-447.51 824.7,-444.01 824.7,-451.01"/>
</a>
</g>
</g>
<!-- Node10 -->
<g id="Node000010" class="node">
<title>Node10</title>
<g id="a_Node000010"><a xlink:href="ast_8c.html#a572345b2707780bbbc5bbaacdca9c372" target="_top" xlink:title=" ">
<polygon fill="white" stroke="#666666" points="750,-356.01 697,-356.01 697,-337.01 750,-337.01 750,-356.01"/>
<text text-anchor="middle" x="723.5" y="-344.01" font-family="Helvetica,sans-Serif" font-size="10.00">run_ast</text>
</a>
</g>
</g>
<!-- Node9&#45;&gt;Node10 -->
<g id="edge11_Node000009_Node000010" class="edge">
<title>Node9&#45;&gt;Node10</title>
<g id="a_edge11_Node000009_Node000010"><a xlink:title=" ">
<path fill="none" stroke="#63b8ff" d="M818.68,-333.38C795.97,-334.26 769.22,-336.51 750.05,-339.3"/>
<polygon fill="#63b8ff" stroke="#63b8ff" points="818.89,-336.87 828.78,-333.07 818.68,-329.88 818.89,-336.87"/>
</a>
</g>
</g>
<!-- Node10&#45;&gt;Node5 -->
<g id="edge32_Node000010_Node000005" class="edge">
<title>Node10&#45;&gt;Node5</title>
<g id="a_edge32_Node000010_Node000005"><a xlink:title=" ">
<path fill="none" stroke="#63b8ff" d="M694.71,-361.69C686.52,-367.48 678.33,-374.82 673,-383.51 623.75,-463.88 698.33,-520.93 637,-592.51 628.58,-602.33 614.62,-606.81 603.07,-608.84"/>
<polygon fill="#63b8ff" stroke="#63b8ff" points="696.65,-364.61 703.13,-356.23 692.84,-358.73 696.65,-364.61"/>
</a>
</g>
</g>
<!-- Node10&#45;&gt;Node9 -->
<g id="edge14_Node000010_Node000009" class="edge">
<title>Node10&#45;&gt;Node9</title>
<g id="a_edge14_Node000010_Node000009"><a xlink:title=" ">
<path fill="none" stroke="#63b8ff" d="M760.21,-349.92C781.3,-349.44 807.87,-347.52 828.78,-344.94"/>
<polygon fill="#63b8ff" stroke="#63b8ff" points="760.01,-346.43 750.05,-350.04 760.08,-353.43 760.01,-346.43"/>
</a>
</g>
</g>
<!-- Node11 -->
<g id="Node000011" class="node">
<title>Node11</title>
<g id="a_Node000011"><a xlink:href="ast__run_8c.html#a8a01fec616135007fc5b3968a101901b" target="_top" xlink:title=" ">
<polygon fill="white" stroke="#666666" points="628,-375.01 537,-375.01 537,-356.01 628,-356.01 628,-375.01"/>
<text text-anchor="middle" x="582.5" y="-363.01" font-family="Helvetica,sans-Serif" font-size="10.00">ast_run_and_or</text>
</a>
</g>
</g>
<!-- Node10&#45;&gt;Node11 -->
<g id="edge12_Node000010_Node000011" class="edge">
<title>Node10&#45;&gt;Node11</title>
<g id="a_edge12_Node000010_Node000011"><a xlink:title=" ">
<path fill="none" stroke="#63b8ff" d="M686.61,-345.42C663.59,-347.44 634.09,-351.6 612.54,-355.93"/>
<polygon fill="#63b8ff" stroke="#63b8ff" points="686.98,-348.9 696.68,-344.65 686.44,-341.92 686.98,-348.9"/>
</a>
</g>
</g>
<!-- Node12 -->
<g id="Node000012" class="node">
<title>Node12</title>
<g id="a_Node000012"><a xlink:href="ast__run_8c.html#a0a7138b1f2608ea36211c9b78988c248" target="_top" xlink:title=" ">
<polygon fill="white" stroke="#666666" points="615,-338.01 550,-338.01 550,-319.01 615,-319.01 615,-338.01"/>
<text text-anchor="middle" x="582.5" y="-326.01" font-family="Helvetica,sans-Serif" font-size="10.00">ast_run_if</text>
</a>
</g>
</g>
<!-- Node10&#45;&gt;Node12 -->
<g id="edge15_Node000010_Node000012" class="edge">
<title>Node10&#45;&gt;Node12</title>
<g id="a_edge15_Node000010_Node000012"><a xlink:title=" ">
<path fill="none" stroke="#63b8ff" d="M686.66,-335.88C664.5,-331.92 636.33,-328.35 615.03,-326.83"/>
<polygon fill="#63b8ff" stroke="#63b8ff" points="686.2,-339.35 696.68,-337.78 687.51,-332.48 686.2,-339.35"/>
</a>
</g>
</g>
<!-- Node13 -->
<g id="Node000013" class="node">
<title>Node13</title>
<g id="a_Node000013"><a xlink:href="ast__run_8c.html#ae25cd3ced8abafd76110dba8852a6b87" target="_top" xlink:title=" ">
<polygon fill="white" stroke="#666666" points="619,-283.01 546,-283.01 546,-264.01 619,-264.01 619,-283.01"/>
<text text-anchor="middle" x="582.5" y="-271.01" font-family="Helvetica,sans-Serif" font-size="10.00">ast_run_list</text>
</a>
</g>
</g>
<!-- Node10&#45;&gt;Node13 -->
<g id="edge17_Node000010_Node000013" class="edge">
<title>Node10&#45;&gt;Node13</title>
<g id="a_edge17_Node000010_Node000013"><a xlink:title=" ">
<path fill="none" stroke="#63b8ff" d="M703.14,-331.49C679.54,-316.84 639.47,-295.55 612.26,-283.02"/>
<polygon fill="#63b8ff" stroke="#63b8ff" points="701.29,-334.47 711.59,-336.94 705.08,-328.58 701.29,-334.47"/>
</a>
</g>
</g>
<!-- Node14 -->
<g id="Node000014" class="node">
<title>Node14</title>
<g id="a_Node000014"><a xlink:href="ast__run_8c.html#a536f37ba9bffcd2099fef668656181e0" target="_top" xlink:title=" ">
<polygon fill="white" stroke="#666666" points="622,-246.01 543,-246.01 543,-227.01 622,-227.01 622,-246.01"/>
<text text-anchor="middle" x="582.5" y="-234.01" font-family="Helvetica,sans-Serif" font-size="10.00">ast_run_loop</text>
</a>
</g>
</g>
<!-- Node10&#45;&gt;Node14 -->
<g id="edge20_Node000010_Node000014" class="edge">
<title>Node10&#45;&gt;Node14</title>
<g id="a_edge20_Node000010_Node000014"><a xlink:title=" ">
<path fill="none" stroke="#63b8ff" d="M713.76,-327.85C699.77,-304.81 670.5,-267.14 637,-245.51 632.47,-242.59 627.42,-240.09 622.28,-238.06"/>
<polygon fill="#63b8ff" stroke="#63b8ff" points="710.81,-329.76 718.78,-336.74 716.91,-326.31 710.81,-329.76"/>
</a>
</g>
</g>
<!-- Node15 -->
<g id="Node000015" class="node">
<title>Node15</title>
<g id="a_Node000015"><a xlink:href="ast__run_8c.html#aa3e6a973e744d748ee415840596beb53" target="_top" xlink:title=" ">
<polygon fill="white" stroke="#666666" points="637,-583.01 528,-583.01 528,-564.01 637,-564.01 637,-583.01"/>
<text text-anchor="middle" x="582.5" y="-571.01" font-family="Helvetica,sans-Serif" font-size="10.00">ast_run_shell_redir</text>
</a>
</g>
</g>
<!-- Node10&#45;&gt;Node15 -->
<g id="edge22_Node000010_Node000015" class="edge">
<title>Node10&#45;&gt;Node15</title>
<g id="a_edge22_Node000010_Node000015"><a xlink:title=" ">
<path fill="none" stroke="#63b8ff" d="M688.72,-357.74C682.73,-362.43 677.11,-368.12 673,-374.51 632.18,-438.02 684.55,-481.87 637,-540.51 627.13,-552.69 609.77,-558.9 597.51,-563.87"/>
<polygon fill="#63b8ff" stroke="#63b8ff" points="690.78,-360.57 696.99,-351.98 686.79,-354.82 690.78,-360.57"/>
</a>
</g>
</g>
<!-- Node16 -->
<g id="Node000016" class="node">
<title>Node16</title>
<g id="a_Node000016"><a xlink:href="exec_8c.html#a23babf893bbcd2f6126698a1a19b169f" target="_top" xlink:title="Execute funct with given arguments.">
<polygon fill="white" stroke="#666666" points="372,-292.01 307,-292.01 307,-273.01 372,-273.01 372,-292.01"/>
<text text-anchor="middle" x="339.5" y="-280.01" font-family="Helvetica,sans-Serif" font-size="10.00">exec_func</text>
</a>
</g>
</g>
<!-- Node10&#45;&gt;Node16 -->
<g id="edge24_Node000010_Node000016" class="edge">
<title>Node10&#45;&gt;Node16</title>
<g id="a_edge24_Node000010_Node000016"><a xlink:title=" ">
<path fill="none" stroke="#63b8ff" d="M697.48,-360.98C680.92,-369.7 658.39,-379.97 637,-384.51 589.61,-394.57 574.95,-396.45 528,-384.51 455.81,-366.14 381.39,-313.74 352.75,-292.07"/>
<polygon fill="#63b8ff" stroke="#63b8ff" points="699.37,-363.93 706.48,-356.08 696.03,-357.79 699.37,-363.93"/>
</a>
</g>
</g>
<!-- Node19 -->
<g id="Node000019" class="node">
<title>Node19</title>
<g id="a_Node000019"><a xlink:href="exec_8c.html#ab743cb88e12e9b922050925fd2075e36" target="_top" xlink:title="Execute a pipeline of commands.">
<polygon fill="white" stroke="#666666" points="615,-451.01 550,-451.01 550,-432.01 615,-432.01 615,-451.01"/>
<text text-anchor="middle" x="582.5" y="-439.01" font-family="Helvetica,sans-Serif" font-size="10.00">exec_pipe</text>
</a>
</g>
</g>
<!-- Node10&#45;&gt;Node19 -->
<g id="edge28_Node000010_Node000019" class="edge">
<title>Node10&#45;&gt;Node19</title>
<g id="a_edge28_Node000010_Node000019"><a xlink:title=" ">
<path fill="none" stroke="#63b8ff" d="M700.52,-362.1C691.78,-368.51 681.74,-376.15 673,-383.51 656.16,-397.68 655.3,-405.28 637,-417.51 628.54,-423.17 618.52,-428.07 609.46,-431.94"/>
<polygon fill="#63b8ff" stroke="#63b8ff" points="702.69,-364.85 708.73,-356.15 698.58,-359.18 702.69,-364.85"/>
</a>
</g>
</g>
<!-- Node21 -->
<g id="Node000021" class="node">
<title>Node21</title>
<g id="a_Node000021"><a xlink:href="dot_8c.html#a17477ee2b0f1b8b9306566c990d15b35" target="_top" xlink:title="Main loop of dot builtin.">
<polygon fill="white" stroke="#666666" points="616.5,-209.01 548.5,-209.01 548.5,-190.01 616.5,-190.01 616.5,-209.01"/>
<text text-anchor="middle" x="582.5" y="-197.01" font-family="Helvetica,sans-Serif" font-size="10.00">main_loop</text>
</a>
</g>
</g>
<!-- Node10&#45;&gt;Node21 -->
<g id="edge33_Node000010_Node000021" class="edge">
<title>Node10&#45;&gt;Node21</title>
<g id="a_edge33_Node000010_Node000021"><a xlink:title=" ">
<path fill="none" stroke="#63b8ff" d="M714.69,-327.36C702.31,-299.29 675.54,-247.12 637,-217.51 631.02,-212.91 623.79,-209.45 616.61,-206.86"/>
<polygon fill="#63b8ff" stroke="#63b8ff" points="711.59,-329.01 718.73,-336.84 718.03,-326.26 711.59,-329.01"/>
</a>
</g>
</g>
<!-- Node11&#45;&gt;Node10 -->
<g id="edge13_Node000011_Node000010" class="edge">
<title>Node11&#45;&gt;Node10</title>
<g id="a_edge13_Node000011_Node000010"><a xlink:title=" ">
<path fill="none" stroke="#63b8ff" d="M638.09,-364.66C658.28,-362.28 680.23,-358.87 696.68,-355.43"/>
<polygon fill="#63b8ff" stroke="#63b8ff" points="637.6,-361.19 628.04,-365.77 638.37,-368.15 637.6,-361.19"/>
</a>
</g>
</g>
<!-- Node12&#45;&gt;Node10 -->
<g id="edge16_Node000012_Node000010" class="edge">
<title>Node12&#45;&gt;Node10</title>
<g id="a_edge16_Node000012_Node000010"><a xlink:title=" ">
<path fill="none" stroke="#63b8ff" d="M623.57,-339.88C647.11,-343.89 676.16,-347.39 696.68,-348.55"/>
<polygon fill="#63b8ff" stroke="#63b8ff" points="623.99,-336.4 613.53,-338.07 622.75,-343.29 623.99,-336.4"/>
</a>
</g>
</g>
<!-- Node13&#45;&gt;Node10 -->
<g id="edge19_Node000013_Node000010" class="edge">
<title>Node13&#45;&gt;Node10</title>
<g id="a_edge19_Node000013_Node000010"><a xlink:title=" ">
<path fill="none" stroke="#63b8ff" d="M602.95,-288.58C627.42,-303.77 669.53,-326.06 696.68,-338.34"/>
<polygon fill="#63b8ff" stroke="#63b8ff" points="604.8,-285.61 594.5,-283.14 601.02,-291.5 604.8,-285.61"/>
</a>
</g>
</g>
<!-- Node13&#45;&gt;Node13 -->
<g id="edge18_Node000013_Node000013" class="edge">
<title>Node13&#45;&gt;Node13</title>
<g id="a_edge18_Node000013_Node000013"><a xlink:title=" ">
<path fill="none" stroke="#63b8ff" d="M606.68,-292.2C605.36,-297.21 597.3,-301.01 582.5,-301.01 559.39,-301.01 552.72,-291.74 562.46,-283.09"/>
<polygon fill="#63b8ff" stroke="#63b8ff" points="609.86,-290.74 602.54,-283.09 603.49,-293.64 609.86,-290.74"/>
</a>
</g>
</g>
<!-- Node14&#45;&gt;Node10 -->
<g id="edge21_Node000014_Node000010" class="edge">
<title>Node14&#45;&gt;Node10</title>
<g id="a_edge21_Node000014_Node000010"><a xlink:title=" ">
<path fill="none" stroke="#63b8ff" d="M606.27,-249.71C616.22,-253.31 627.71,-257.51 637,-263.51 668.87,-284.09 696.92,-319.19 711.61,-336.75"/>
<polygon fill="#63b8ff" stroke="#63b8ff" points="607.21,-246.32 596.62,-246.12 604.78,-252.88 607.21,-246.32"/>
</a>
</g>
</g>
<!-- Node15&#45;&gt;Node10 -->
<g id="edge23_Node000015_Node000010" class="edge">
<title>Node15&#45;&gt;Node10</title>
<g id="a_edge23_Node000015_Node000010"><a xlink:title=" ">
<path fill="none" stroke="#63b8ff" d="M638.11,-555.64C680.22,-496.07 633.94,-453.29 673,-392.51 683.33,-376.44 703.22,-364.83 714.39,-356.22"/>
<polygon fill="#63b8ff" stroke="#63b8ff" points="635.19,-553.7 631.89,-563.77 640.74,-557.96 635.19,-553.7"/>
</a>
</g>
</g>
<!-- Node17 -->
<g id="Node000017" class="node">
<title>Node17</title>
<g id="a_Node000017"><a xlink:href="exec_8c.html#ae65edaa99b26b49d60c451157d38b34a" target="_top" xlink:title="Execute les commandes avec les args donnes.">
<polygon fill="white" stroke="#666666" points="180,-95.01 115,-95.01 115,-76.01 180,-76.01 180,-95.01"/>
<text text-anchor="middle" x="147.5" y="-83.01" font-family="Helvetica,sans-Serif" font-size="10.00">exec_cmd</text>
</a>
</g>
</g>
<!-- Node16&#45;&gt;Node17 -->
<g id="edge25_Node000016_Node000017" class="edge">
<title>Node16&#45;&gt;Node17</title>
<g id="a_edge25_Node000016_Node000017"><a xlink:title=" ">
<path fill="none" stroke="#63b8ff" d="M322.25,-265.66C283.86,-225.86 188.49,-126.97 158.02,-95.38"/>
<polygon fill="#63b8ff" stroke="#63b8ff" points="319.87,-268.24 329.34,-273.01 324.91,-263.38 319.87,-268.24"/>
</a>
</g>
</g>
<!-- Node18 -->
<g id="Node000018" class="node">
<title>Node18</title>
<g id="a_Node000018"><a xlink:href="ast__run_8c.html#aeb6878a59c6907e5669fc3cc428913d9" target="_top" xlink:title=" ">
<polygon fill="white" stroke="#666666" points="79,-320.01 0,-320.01 0,-301.01 79,-301.01 79,-320.01"/>
<text text-anchor="middle" x="39.5" y="-308.01" font-family="Helvetica,sans-Serif" font-size="10.00">ast_run_cmd</text>
</a>
</g>
</g>
<!-- Node17&#45;&gt;Node18 -->
<g id="edge26_Node000017_Node000018" class="edge">
<title>Node17&#45;&gt;Node18</title>
<g id="a_edge26_Node000017_Node000018"><a xlink:title=" ">
<path fill="none" stroke="#63b8ff" d="M137.64,-104.31C116.03,-150.18 61.18,-266.6 45.04,-300.88"/>
<polygon fill="#63b8ff" stroke="#63b8ff" points="140.85,-105.71 141.95,-95.18 134.52,-102.73 140.85,-105.71"/>
</a>
</g>
</g>
<!-- Node18&#45;&gt;Node10 -->
<g id="edge27_Node000018_Node000010" class="edge">
<title>Node18&#45;&gt;Node10</title>
<g id="a_edge27_Node000018_Node000010"><a xlink:title=" ">
<path fill="none" stroke="#63b8ff" d="M46.89,-329.69C66.35,-384.1 130.37,-535.51 240,-535.51 453.5,-535.51 453.5,-535.51 453.5,-535.51 536.44,-535.51 575.13,-556.76 637,-501.51 677.9,-464.99 641.48,-428.37 673,-383.51 681.02,-372.1 693.66,-362.73 704.16,-356.28"/>
<polygon fill="#63b8ff" stroke="#63b8ff" points="50.17,-328.48 43.59,-320.18 43.56,-330.77 50.17,-328.48"/>
</a>
</g>
</g>
<!-- Node19&#45;&gt;Node19 -->
<g id="edge31_Node000019_Node000019" class="edge">
<title>Node19&#45;&gt;Node19</title>
<g id="a_edge31_Node000019_Node000019"><a xlink:title=" ">
<path fill="none" stroke="#63b8ff" d="M606.68,-460.2C605.36,-465.21 597.3,-469.01 582.5,-469.01 559.39,-469.01 552.72,-459.74 562.46,-451.09"/>
<polygon fill="#63b8ff" stroke="#63b8ff" points="609.86,-458.74 602.54,-451.09 603.49,-461.64 609.86,-458.74"/>
</a>
</g>
</g>
<!-- Node20 -->
<g id="Node000020" class="node">
<title>Node20</title>
<g id="a_Node000020"><a xlink:href="ast__run_8c.html#a24d0223822f7b635628199085c3283be" target="_top" xlink:title=" ">
<polygon fill="white" stroke="#666666" points="492,-479.01 413,-479.01 413,-460.01 492,-460.01 492,-479.01"/>
<text text-anchor="middle" x="452.5" y="-467.01" font-family="Helvetica,sans-Serif" font-size="10.00">ast_run_pipe</text>
</a>
</g>
</g>
<!-- Node19&#45;&gt;Node20 -->
<g id="edge29_Node000019_Node000020" class="edge">
<title>Node19&#45;&gt;Node20</title>
<g id="a_edge29_Node000019_Node000020"><a xlink:title=" ">
<path fill="none" stroke="#63b8ff" d="M540.06,-450.57C524.65,-453.94 507.23,-457.75 492.08,-461.07"/>
<polygon fill="#63b8ff" stroke="#63b8ff" points="540.84,-453.99 549.86,-448.43 539.34,-447.15 540.84,-453.99"/>
</a>
</g>
</g>
<!-- Node20&#45;&gt;Node10 -->
<g id="edge30_Node000020_Node000010" class="edge">
<title>Node20&#45;&gt;Node10</title>
<g id="a_edge30_Node000020_Node000010"><a xlink:title=" ">
<path fill="none" stroke="#63b8ff" d="M486.8,-482.37C526.31,-495.28 592.45,-509.27 637,-478.51 674.16,-452.85 645.83,-419.57 673,-383.51 681.52,-372.2 694.42,-362.71 704.91,-356.18"/>
<polygon fill="#63b8ff" stroke="#63b8ff" points="487.71,-478.98 477.11,-479.05 485.44,-485.6 487.71,-478.98"/>
</a>
</g>
</g>
<!-- Node22 -->
<g id="Node000022" class="node">
<title>Node22</title>
<g id="a_Node000022"><a xlink:href="dot_8c.html#a713938d3c6ee343132c429642048bcf6" target="_top" xlink:title="Execute the dot builtin cmd.">
<polygon fill="white" stroke="#666666" points="474.5,-208.01 430.5,-208.01 430.5,-189.01 474.5,-189.01 474.5,-208.01"/>
<text text-anchor="middle" x="452.5" y="-196.01" font-family="Helvetica,sans-Serif" font-size="10.00">dot_b</text>
</a>
</g>
</g>
<!-- Node21&#45;&gt;Node22 -->
<g id="edge34_Node000021_Node000022" class="edge">
<title>Node21&#45;&gt;Node22</title>
<g id="a_edge34_Node000021_Node000022"><a xlink:title=" ">
<path fill="none" stroke="#63b8ff" d="M538.02,-199.17C516.61,-199 491.78,-198.81 474.6,-198.67"/>
<polygon fill="#63b8ff" stroke="#63b8ff" points="538.18,-202.67 548.2,-199.25 538.23,-195.67 538.18,-202.67"/>
</a>
</g>
</g>
<!-- Node23 -->
<g id="Node000023" class="node">
<title>Node23</title>
<g id="a_Node000023"><a xlink:href="exec_8c.html#abaeb177587c7eec6a064b35bb8399cae" target="_top" xlink:title="Execute builtin cmd with given args.">
<polygon fill="white" stroke="#666666" points="377,-151.01 302,-151.01 302,-132.01 377,-132.01 377,-151.01"/>
<text text-anchor="middle" x="339.5" y="-139.01" font-family="Helvetica,sans-Serif" font-size="10.00">exec_builtin</text>
</a>
</g>
</g>
<!-- Node22&#45;&gt;Node23 -->
<g id="edge35_Node000022_Node000023" class="edge">
<title>Node22&#45;&gt;Node23</title>
<g id="a_edge35_Node000022_Node000023"><a xlink:title=" ">
<path fill="none" stroke="#63b8ff" d="M423.89,-184.33C403.7,-173.96 376.85,-160.17 359.14,-151.08"/>
<polygon fill="#63b8ff" stroke="#63b8ff" points="422.43,-187.51 432.92,-188.97 425.62,-181.29 422.43,-187.51"/>
</a>
</g>
</g>
<!-- Node24 -->
<g id="Node000024" class="node">
<title>Node24</title>
<g id="a_Node000024"><a xlink:href="exec_8c.html#a287d81b4658832f192750310e2925917" target="_top" xlink:title="Execute the builtin command with given args.">
<polygon fill="white" stroke="#666666" points="266,-57.01 216,-57.01 216,-38.01 266,-38.01 266,-57.01"/>
<text text-anchor="middle" x="241" y="-45.01" font-family="Helvetica,sans-Serif" font-size="10.00">exec_b</text>
</a>
</g>
</g>
<!-- Node23&#45;&gt;Node24 -->
<g id="edge36_Node000023_Node000024" class="edge">
<title>Node23&#45;&gt;Node24</title>
<g id="a_edge36_Node000023_Node000024"><a xlink:title=" ">
<path fill="none" stroke="#63b8ff" d="M321.2,-124.66C300.93,-104.91 268.04,-72.88 251.77,-57.02"/>
<polygon fill="#63b8ff" stroke="#63b8ff" points="318.93,-127.33 328.54,-131.8 323.82,-122.32 318.93,-127.33"/>
</a>
</g>
</g>
<!-- Node24&#45;&gt;Node17 -->
<g id="edge37_Node000024_Node000017" class="edge">
<title>Node24&#45;&gt;Node17</title>
<g id="a_edge37_Node000024_Node000017"><a xlink:title=" ">
<path fill="none" stroke="#63b8ff" d="M207.35,-61.07C195.52,-65.98 182.42,-71.42 171.58,-75.92"/>
<polygon fill="#63b8ff" stroke="#63b8ff" points="209.02,-64.17 216.91,-57.1 206.33,-57.7 209.02,-64.17"/>
</a>
</g>
</g>
<!-- Node25&#45;&gt;Node17 -->
<g id="edge39_Node000025_Node000017" class="edge">
<title>Node25&#45;&gt;Node17</title>
<g id="a_edge39_Node000025_Node000017"><a xlink:title=" ">
<path fill="none" stroke="#63b8ff" d="M693.7,-85.51C644.48,-85.51 540.99,-85.51 453.5,-85.51 453.5,-85.51 453.5,-85.51 338.5,-85.51 282.75,-85.51 217.81,-85.51 180.1,-85.51"/>
<polygon fill="#63b8ff" stroke="#63b8ff" points="693.91,-89.01 703.91,-85.51 693.91,-82.01 693.91,-89.01"/>
</a>
</g>
</g>
<!-- Node26&#45;&gt;Node17 -->
<g id="edge41_Node000026_Node000017" class="edge">
<title>Node26&#45;&gt;Node17</title>
<g id="a_edge41_Node000026_Node000017"><a xlink:title=" ">
<path fill="none" stroke="#63b8ff" d="M662.74,-9.51C608.23,-9.51 525.45,-9.51 453.5,-9.51 453.5,-9.51 453.5,-9.51 338.5,-9.51 283.4,-9.51 266.14,-5.66 216,-28.51 191.44,-39.7 168.74,-62.45 156.96,-75.57"/>
<polygon fill="#63b8ff" stroke="#63b8ff" points="662.92,-13.01 672.92,-9.51 662.92,-6.01 662.92,-13.01"/>
</a>
</g>
</g>
<!-- Node27&#45;&gt;Node23 -->
<g id="edge43_Node000027_Node000023" class="edge">
<title>Node27&#45;&gt;Node23</title>
<g id="a_edge43_Node000027_Node000023"><a xlink:title=" ">
<path fill="none" stroke="#63b8ff" d="M412.73,-129.79C401.26,-131.66 388.73,-133.69 377.37,-135.53"/>
<polygon fill="#63b8ff" stroke="#63b8ff" points="413.6,-133.2 422.91,-128.14 412.48,-126.29 413.6,-133.2"/>
</a>
</g>
</g>
<!-- Node28&#45;&gt;Node24 -->
<g id="edge47_Node000028_Node000024" class="edge">
<title>Node28&#45;&gt;Node24</title>
<g id="a_edge47_Node000028_Node000024"><a xlink:title=" ">
<path fill="none" stroke="#63b8ff" d="M817.03,-47.51C761.48,-47.51 665.7,-47.51 583.5,-47.51 583.5,-47.51 583.5,-47.51 451.5,-47.51 384.39,-47.51 305.2,-47.51 266.19,-47.51"/>
<polygon fill="#63b8ff" stroke="#63b8ff" points="817.25,-51.01 827.25,-47.51 817.25,-44.01 817.25,-51.01"/>
</a>
</g>
</g>
<!-- Node28&#45;&gt;Node25 -->
<g id="edge45_Node000028_Node000025" class="edge">
<title>Node28&#45;&gt;Node25</title>
<g id="a_edge45_Node000028_Node000025"><a xlink:title=" ">
<path fill="none" stroke="#63b8ff" d="M818.58,-59.79C793.09,-66.76 762.54,-75.11 743.32,-80.36"/>
<polygon fill="#63b8ff" stroke="#63b8ff" points="819.7,-63.11 828.42,-57.1 817.86,-56.36 819.7,-63.11"/>
</a>
</g>
</g>
<!-- Node28&#45;&gt;Node26 -->
<g id="edge46_Node000028_Node000026" class="edge">
<title>Node28&#45;&gt;Node26</title>
<g id="a_edge46_Node000028_Node000026"><a xlink:title=" ">
<path fill="none" stroke="#63b8ff" d="M818.7,-35.26C799.55,-30.02 777.51,-24 759.56,-19.09"/>
<polygon fill="#63b8ff" stroke="#63b8ff" points="817.86,-38.66 828.42,-37.92 819.7,-31.91 817.86,-38.66"/>
</a>
</g>
</g>
<!-- Node30 -->
<g id="Node000030" class="node">
<title>Node30</title>
<g id="a_Node000030"><a xlink:href="cd_8c.html#a592b884dd32e14e084c461b3372632b4" target="_top" xlink:title="Execute the cd builtin cmd.">
<polygon fill="white" stroke="#666666" points="472,-170.01 433,-170.01 433,-151.01 472,-151.01 472,-170.01"/>
<text text-anchor="middle" x="452.5" y="-158.01" font-family="Helvetica,sans-Serif" font-size="10.00">cd_b</text>
</a>
</g>
</g>
<!-- Node29&#45;&gt;Node30 -->
<g id="edge49_Node000029_Node000030" class="edge">
<title>Node29&#45;&gt;Node30</title>
<g id="a_edge49_Node000029_Node000030"><a xlink:title=" ">
<path fill="none" stroke="#63b8ff" d="M816.17,-161.39C725.94,-161.17 532.87,-160.7 472.17,-160.55"/>
<polygon fill="#63b8ff" stroke="#63b8ff" points="816.38,-164.89 826.39,-161.42 816.4,-157.89 816.38,-164.89"/>
</a>
</g>
</g>
<!-- Node30&#45;&gt;Node23 -->
<g id="edge50_Node000030_Node000023" class="edge">
<title>Node30&#45;&gt;Node23</title>
<g id="a_edge50_Node000030_Node000023"><a xlink:title=" ">
<path fill="none" stroke="#63b8ff" d="M422.92,-155.62C408.96,-153.23 392.01,-150.33 377.12,-147.78"/>
<polygon fill="#63b8ff" stroke="#63b8ff" points="422.47,-159.09 432.92,-157.33 423.65,-152.19 422.47,-159.09"/>
</a>
</g>
</g>
</g>
</svg>
