<?xml version="1.0" encoding="UTF-8" standalone="no"?>
<!DOCTYPE svg PUBLIC "-//W3C//DTD SVG 1.1//EN"
 "http://www.w3.org/Graphics/SVG/1.1/DTD/svg11.dtd">
<!-- Generated by graphviz version 2.43.0 (0)
 -->
<!-- Title: arg_file Pages: 1 -->
<svg width="1415pt" height="326pt"
 viewBox="0.00 0.00 1415.00 326.45" xmlns="http://www.w3.org/2000/svg" xmlns:xlink="http://www.w3.org/1999/xlink">
<g id="graph0" class="graph" transform="scale(1 1) rotate(0) translate(4 322.45)">
<title>arg_file</title>
<!-- Node1 -->
<g id="Node000001" class="node">
<title>Node1</title>
<g id="a_Node000001"><a xlink:title="Gère options scripts et arguments.">
<polygon fill="#999999" stroke="#666666" points="53,-194.5 0,-194.5 0,-175.5 53,-175.5 53,-194.5"/>
<text text-anchor="middle" x="26.5" y="-182.5" font-family="Helvetica,sans-Serif" font-size="10.00">arg_file</text>
</a>
</g>
</g>
<!-- Node2 -->
<g id="Node000002" class="node">
<title>Node2</title>
<g id="a_Node000002"><a xlink:href="io_8c.html#ac8404f84d9b2f3f16fe4d24de44d6050" target="_top" xlink:title="Helper: Ajoute un arg au dictionnaire de variables.">
<polygon fill="white" stroke="#666666" points="198,-213.5 89,-213.5 89,-194.5 198,-194.5 198,-213.5"/>
<text text-anchor="middle" x="143.5" y="-201.5" font-family="Helvetica,sans-Serif" font-size="10.00">add_positional_arg</text>
</a>
</g>
</g>
<!-- Node1&#45;&gt;Node2 -->
<g id="edge1_Node000001_Node000002" class="edge">
<title>Node1&#45;&gt;Node2</title>
<g id="a_edge1_Node000001_Node000002"><a xlink:title=" ">
<path fill="none" stroke="#63b8ff" d="M53.02,-189.22C60.8,-190.5 69.72,-191.97 78.84,-193.48"/>
<polygon fill="#63b8ff" stroke="#63b8ff" points="78.35,-196.95 88.79,-195.13 79.49,-190.04 78.35,-196.95"/>
</a>
</g>
</g>
<!-- Node23 -->
<g id="Node000023" class="node">
<title>Node23</title>
<g id="a_Node000023"><a xlink:href="hashmap_8c.html#a56e02b52f3d8eb984445f8e2a9685593" target="_top" xlink:title="Add a variable with multiple arguments to the dictionnary.">
<polygon fill="white" stroke="#666666" points="182,-270.5 105,-270.5 105,-251.5 182,-251.5 182,-270.5"/>
<text text-anchor="middle" x="143.5" y="-258.5" font-family="Helvetica,sans-Serif" font-size="10.00">add_var_arg</text>
</a>
</g>
</g>
<!-- Node1&#45;&gt;Node23 -->
<g id="edge27_Node000001_Node000023" class="edge">
<title>Node1&#45;&gt;Node23</title>
<g id="a_edge27_Node000001_Node000023"><a xlink:title=" ">
<path fill="none" stroke="#63b8ff" d="M42.06,-194.63C61.59,-207.53 96.47,-230.58 119.55,-245.83"/>
<polygon fill="#63b8ff" stroke="#63b8ff" points="117.78,-248.86 128.05,-251.45 121.64,-243.02 117.78,-248.86"/>
</a>
</g>
</g>
<!-- Node26 -->
<g id="Node000026" class="node">
<title>Node26</title>
<g id="a_Node000026"><a xlink:href="io_8c.html#aa3aea4ea03b25f3d2e5449741816dbb8" target="_top" xlink:title="Helper &#45;&gt; add number of args to dictionnary.">
<polygon fill="white" stroke="#666666" points="173,-176.5 114,-176.5 114,-157.5 173,-157.5 173,-176.5"/>
<text text-anchor="middle" x="143.5" y="-164.5" font-family="Helvetica,sans-Serif" font-size="10.00">arg_num</text>
</a>
</g>
</g>
<!-- Node1&#45;&gt;Node26 -->
<g id="edge31_Node000001_Node000026" class="edge">
<title>Node1&#45;&gt;Node26</title>
<g id="a_edge31_Node000001_Node000026"><a xlink:title=" ">
<path fill="none" stroke="#63b8ff" d="M53.02,-181.01C67.93,-178.67 87.04,-175.68 103.76,-173.06"/>
<polygon fill="#63b8ff" stroke="#63b8ff" points="104.48,-176.49 113.81,-171.49 103.39,-169.58 104.48,-176.49"/>
</a>
</g>
</g>
<!-- Node27 -->
<g id="Node000027" class="node">
<title>Node27</title>
<g id="a_Node000027"><a xlink:href="io_8c.html#a0fe1d869cb0c7b9f660e26f5343d6db3" target="_top" xlink:title=" ">
<polygon fill="white" stroke="#666666" points="186.5,-139.5 100.5,-139.5 100.5,-120.5 186.5,-120.5 186.5,-139.5"/>
<text text-anchor="middle" x="143.5" y="-127.5" font-family="Helvetica,sans-Serif" font-size="10.00">stdin_to_mem</text>
</a>
</g>
</g>
<!-- Node1&#45;&gt;Node27 -->
<g id="edge34_Node000001_Node000027" class="edge">
<title>Node1&#45;&gt;Node27</title>
<g id="a_edge34_Node000001_Node000027"><a xlink:title=" ">
<path fill="none" stroke="#63b8ff" d="M41.67,-175.26C53.84,-167.2 72.03,-155.84 89,-148 92.8,-146.24 96.83,-144.57 100.89,-143"/>
<polygon fill="#63b8ff" stroke="#63b8ff" points="102.18,-146.26 110.37,-139.55 99.78,-139.68 102.18,-146.26"/>
</a>
</g>
</g>
<!-- Node3 -->
<g id="Node000003" class="node">
<title>Node3</title>
<g id="a_Node000003"><a xlink:href="hashmap_8c.html#a3bf95c887f7eac3eb074725515feba49" target="_top" xlink:title="Add a variable to the dictionnary.">
<polygon fill="white" stroke="#666666" points="306,-176.5 250,-176.5 250,-157.5 306,-157.5 306,-176.5"/>
<text text-anchor="middle" x="278" y="-164.5" font-family="Helvetica,sans-Serif" font-size="10.00">add_var</text>
</a>
</g>
</g>
<!-- Node2&#45;&gt;Node3 -->
<g id="edge2_Node000002_Node000003" class="edge">
<title>Node2&#45;&gt;Node3</title>
<g id="a_edge2_Node000002_Node000003"><a xlink:title=" ">
<path fill="none" stroke="#63b8ff" d="M178.62,-194.47C197.43,-189.22 220.79,-182.7 240.03,-177.32"/>
<polygon fill="#63b8ff" stroke="#63b8ff" points="240.98,-180.69 249.67,-174.63 239.09,-173.95 240.98,-180.69"/>
</a>
</g>
</g>
<!-- Node16 -->
<g id="Node000016" class="node">
<title>Node16</title>
<g id="a_Node000016"><a xlink:href="itoa_8c.html#a43f392ec16afbe6cdb1ee6d1f1347f99" target="_top" xlink:title="Convert int to string.">
<polygon fill="white" stroke="#666666" points="1407,-195.5 1372,-195.5 1372,-176.5 1407,-176.5 1407,-195.5"/>
<text text-anchor="middle" x="1389.5" y="-183.5" font-family="Helvetica,sans-Serif" font-size="10.00">itoa</text>
</a>
</g>
</g>
<!-- Node2&#45;&gt;Node16 -->
<g id="edge26_Node000002_Node000016" class="edge">
<title>Node2&#45;&gt;Node16</title>
<g id="a_edge26_Node000002_Node000016"><a xlink:title=" ">
<path fill="none" stroke="#63b8ff" d="M198.35,-208.65C233.67,-212.13 280.77,-217.56 322,-225 423.52,-243.32 444.34,-280 547.5,-280 547.5,-280 547.5,-280 939,-280 1115.65,-280 1181.31,-346.3 1336,-261 1358.09,-248.82 1372.97,-222.91 1381.09,-204.98"/>
<polygon fill="#63b8ff" stroke="#63b8ff" points="1384.32,-206.32 1385,-195.74 1377.88,-203.59 1384.32,-206.32"/>
</a>
</g>
</g>
<!-- Node4 -->
<g id="Node000004" class="node">
<title>Node4</title>
<g id="a_Node000004"><a xlink:href="hashmap_8c.html#aca86cd9ca85ac2e41fbb5c9e86ad6d6f" target="_top" xlink:title=" ">
<polygon fill="white" stroke="#666666" points="464.5,-134.5 379.5,-134.5 379.5,-115.5 464.5,-115.5 464.5,-134.5"/>
<text text-anchor="middle" x="422" y="-122.5" font-family="Helvetica,sans-Serif" font-size="10.00">expand_value</text>
</a>
</g>
</g>
<!-- Node3&#45;&gt;Node4 -->
<g id="edge3_Node000003_Node000004" class="edge">
<title>Node3&#45;&gt;Node4</title>
<g id="a_edge3_Node000003_Node000004"><a xlink:title=" ">
<path fill="none" stroke="#63b8ff" d="M306.04,-159C326.67,-152.9 355.47,-144.38 379.08,-137.4"/>
<polygon fill="#63b8ff" stroke="#63b8ff" points="380.24,-140.71 388.84,-134.51 378.25,-133.99 380.24,-140.71"/>
</a>
</g>
</g>
<!-- Node14 -->
<g id="Node000014" class="node">
<title>Node14</title>
<g id="a_Node000014"><a xlink:href="hash_8c.html#ac74a7e29e54c223be6213463974d6154" target="_top" xlink:title=" ">
<polygon fill="white" stroke="#666666" points="1329,-251.5 1289,-251.5 1289,-232.5 1329,-232.5 1329,-251.5"/>
<text text-anchor="middle" x="1309" y="-239.5" font-family="Helvetica,sans-Serif" font-size="10.00">hash</text>
</a>
</g>
</g>
<!-- Node3&#45;&gt;Node14 -->
<g id="edge24_Node000003_Node000014" class="edge">
<title>Node3&#45;&gt;Node14</title>
<g id="a_edge24_Node000003_Node000014"><a xlink:title=" ">
<path fill="none" stroke="#63b8ff" d="M299.01,-176.65C342.91,-196.91 451.43,-242 547.5,-242 547.5,-242 547.5,-242 1062.5,-242 1140.63,-242 1232.74,-242 1278.75,-242"/>
<polygon fill="#63b8ff" stroke="#63b8ff" points="1278.9,-245.5 1288.9,-242 1278.9,-238.5 1278.9,-245.5"/>
</a>
</g>
</g>
<!-- Node22 -->
<g id="Node000022" class="node">
<title>Node22</title>
<g id="a_Node000022"><a xlink:href="hashmap_8c.html#a5bcdd565d2ba5876c5ef1685625cdcfa" target="_top" xlink:title=" ">
<polygon fill="white" stroke="#666666" points="486,-176.5 358,-176.5 358,-157.5 486,-157.5 486,-176.5"/>
<text text-anchor="middle" x="422" y="-164.5" font-family="Helvetica,sans-Serif" font-size="10.00">update_or_append_var</text>
</a>
</g>
</g>
<!-- Node3&#45;&gt;Node22 -->
<g id="edge25_Node000003_Node000022" class="edge">
<title>Node3&#45;&gt;Node22</title>
<g id="a_edge25_Node000003_Node000022"><a xlink:title=" ">
<path fill="none" stroke="#63b8ff" d="M306.04,-167C318.01,-167 332.72,-167 347.57,-167"/>
<polygon fill="#63b8ff" stroke="#63b8ff" points="347.84,-170.5 357.84,-167 347.84,-163.5 347.84,-170.5"/>
</a>
</g>
</g>
<!-- Node5 -->
<g id="Node000005" class="node">
<title>Node5</title>
<g id="a_Node000005"><a xlink:href="expand_8c.html#ae22ff4719527d6b2b8bca3e43f576837" target="_top" xlink:title=" ">
<polygon fill="white" stroke="#666666" points="575,-126.5 522,-126.5 522,-107.5 575,-107.5 575,-126.5"/>
<text text-anchor="middle" x="548.5" y="-114.5" font-family="Helvetica,sans-Serif" font-size="10.00">expand</text>
</a>
</g>
</g>
<!-- Node4&#45;&gt;Node5 -->
<g id="edge4_Node000004_Node000005" class="edge">
<title>Node4&#45;&gt;Node5</title>
<g id="a_edge4_Node000004_Node000005"><a xlink:title=" ">
<path fill="none" stroke="#63b8ff" d="M464.8,-122.31C480.04,-121.33 497.11,-120.24 511.77,-119.3"/>
<polygon fill="#63b8ff" stroke="#63b8ff" points="512.2,-122.78 521.96,-118.64 511.75,-115.79 512.2,-122.78"/>
</a>
</g>
</g>
<!-- Node6 -->
<g id="Node000006" class="node">
<title>Node6</title>
<g id="a_Node000006"><a xlink:href="expand_8c.html#a492ca861a96ee6319b97b4b1d6ba9835" target="_top" xlink:title=" ">
<polygon fill="white" stroke="#666666" points="693,-126.5 611,-126.5 611,-107.5 693,-107.5 693,-126.5"/>
<text text-anchor="middle" x="652" y="-114.5" font-family="Helvetica,sans-Serif" font-size="10.00">expand_word</text>
</a>
</g>
</g>
<!-- Node5&#45;&gt;Node6 -->
<g id="edge5_Node000005_Node000006" class="edge">
<title>Node5&#45;&gt;Node6</title>
<g id="a_edge5_Node000005_Node000006"><a xlink:title=" ">
<path fill="none" stroke="#63b8ff" d="M575.11,-117C582.88,-117 591.7,-117 600.5,-117"/>
<polygon fill="#63b8ff" stroke="#63b8ff" points="600.78,-120.5 610.78,-117 600.78,-113.5 600.78,-120.5"/>
</a>
</g>
</g>
<!-- Node12 -->
<g id="Node000012" class="node">
<title>Node12</title>
<g id="a_Node000012"><a xlink:href="expand_8c.html#aaf941edbfdd3ac08d813ff01acc1f963" target="_top" xlink:title=" ">
<polygon fill="white" stroke="#666666" points="1220,-47.5 1167,-47.5 1167,-28.5 1220,-28.5 1220,-47.5"/>
<text text-anchor="middle" x="1193.5" y="-35.5" font-family="Helvetica,sans-Serif" font-size="10.00">free_ex</text>
</a>
</g>
</g>
<!-- Node5&#45;&gt;Node12 -->
<g id="edge23_Node000005_Node000012" class="edge">
<title>Node5&#45;&gt;Node12</title>
<g id="a_edge23_Node000005_Node000012"><a xlink:title=" ">
<path fill="none" stroke="#63b8ff" d="M566.27,-107.47C604.88,-86.46 703.56,-38 792.5,-38 792.5,-38 792.5,-38 939,-38 1016.7,-38 1107.79,-38 1156.85,-38"/>
<polygon fill="#63b8ff" stroke="#63b8ff" points="1156.95,-41.5 1166.95,-38 1156.95,-34.5 1156.95,-41.5"/>
</a>
</g>
</g>
<!-- Node7 -->
<g id="Node000007" class="node">
<title>Node7</title>
<g id="a_Node000007"><a xlink:href="expand_8c.html#a97a675ffacb4b71f4f3b4a30749d9f66" target="_top" xlink:title=" ">
<polygon fill="white" stroke="#666666" points="833,-198.5 754,-198.5 754,-179.5 833,-179.5 833,-198.5"/>
<text text-anchor="middle" x="793.5" y="-186.5" font-family="Helvetica,sans-Serif" font-size="10.00">append_char</text>
</a>
</g>
</g>
<!-- Node6&#45;&gt;Node7 -->
<g id="edge6_Node000006_Node000007" class="edge">
<title>Node6&#45;&gt;Node7</title>
<g id="a_edge6_Node000006_Node000007"><a xlink:title=" ">
<path fill="none" stroke="#63b8ff" d="M666.25,-126.53C681.04,-136.89 705.95,-153.51 729,-165 736.88,-168.93 745.58,-172.61 753.94,-175.85"/>
<polygon fill="#63b8ff" stroke="#63b8ff" points="752.93,-179.21 763.53,-179.45 755.39,-172.66 752.93,-179.21"/>
</a>
</g>
</g>
<!-- Node8 -->
<g id="Node000008" class="node">
<title>Node8</title>
<g id="a_Node000008"><a xlink:href="expand_8c.html#a6d4728fd992669e4bb35624d37972179" target="_top" xlink:title=" ">
<polygon fill="white" stroke="#666666" points="858,-122.5 729,-122.5 729,-103.5 858,-103.5 858,-122.5"/>
<text text-anchor="middle" x="793.5" y="-110.5" font-family="Helvetica,sans-Serif" font-size="10.00">double_quotes_expand</text>
</a>
</g>
</g>
<!-- Node6&#45;&gt;Node8 -->
<g id="edge7_Node000006_Node000008" class="edge">
<title>Node6&#45;&gt;Node8</title>
<g id="a_edge7_Node000006_Node000008"><a xlink:title=" ">
<path fill="none" stroke="#63b8ff" d="M693.35,-115.84C701.33,-115.61 709.94,-115.37 718.64,-115.12"/>
<polygon fill="#63b8ff" stroke="#63b8ff" points="718.96,-118.61 728.85,-114.83 718.75,-111.61 718.96,-118.61"/>
</a>
</g>
</g>
<!-- Node11 -->
<g id="Node000011" class="node">
<title>Node11</title>
<g id="a_Node000011"><a xlink:href="expand_8c.html#a0a337c3a6b2595b2b8c03e171c9559ba" target="_top" xlink:title=" ">
<polygon fill="white" stroke="#666666" points="1098.5,-140.5 1024.5,-140.5 1024.5,-121.5 1098.5,-121.5 1098.5,-140.5"/>
<text text-anchor="middle" x="1061.5" y="-128.5" font-family="Helvetica,sans-Serif" font-size="10.00">var_expand</text>
</a>
</g>
</g>
<!-- Node6&#45;&gt;Node11 -->
<g id="edge22_Node000006_Node000011" class="edge">
<title>Node6&#45;&gt;Node11</title>
<g id="a_edge22_Node000006_Node000011"><a xlink:title=" ">
<path fill="none" stroke="#63b8ff" d="M693.04,-125.79C704.59,-127.94 717.24,-129.93 729,-131 830.25,-140.25 949.63,-136.73 1013.89,-133.66"/>
<polygon fill="#63b8ff" stroke="#63b8ff" points="1014.29,-137.15 1024.1,-133.16 1013.94,-130.16 1014.29,-137.15"/>
</a>
</g>
</g>
<!-- Node21 -->
<g id="Node000021" class="node">
<title>Node21</title>
<g id="a_Node000021"><a xlink:href="expand_8c.html#ad45c8055962fa36940e109b04b7e562e" target="_top" xlink:title=" ">
<polygon fill="white" stroke="#666666" points="853.5,-85.5 733.5,-85.5 733.5,-66.5 853.5,-66.5 853.5,-85.5"/>
<text text-anchor="middle" x="793.5" y="-73.5" font-family="Helvetica,sans-Serif" font-size="10.00">single_quote_expand</text>
</a>
</g>
</g>
<!-- Node6&#45;&gt;Node21 -->
<g id="edge21_Node000006_Node000021" class="edge">
<title>Node6&#45;&gt;Node21</title>
<g id="a_edge21_Node000006_Node000021"><a xlink:title=" ">
<path fill="none" stroke="#63b8ff" d="M684.02,-107.48C697.78,-103.29 714.18,-98.34 729,-94 735.43,-92.12 742.23,-90.15 748.9,-88.25"/>
<polygon fill="#63b8ff" stroke="#63b8ff" points="749.86,-91.61 758.52,-85.51 747.95,-84.88 749.86,-91.61"/>
</a>
</g>
</g>
<!-- Node9 -->
<g id="Node000009" class="node">
<title>Node9</title>
<g id="a_Node000009"><a xlink:href="expand_8c.html#a4a10ac07faa08df14e0a438c5feace6b" target="_top" xlink:title=" ">
<polygon fill="white" stroke="#666666" points="982,-122.5 894,-122.5 894,-103.5 982,-103.5 982,-122.5"/>
<text text-anchor="middle" x="938" y="-110.5" font-family="Helvetica,sans-Serif" font-size="10.00">in_dquote_exp</text>
</a>
</g>
</g>
<!-- Node8&#45;&gt;Node9 -->
<g id="edge8_Node000008_Node000009" class="edge">
<title>Node8&#45;&gt;Node9</title>
<g id="a_edge8_Node000008_Node000009"><a xlink:title=" ">
<path fill="none" stroke="#63b8ff" d="M858.25,-113C866.69,-113 875.27,-113 883.52,-113"/>
<polygon fill="#63b8ff" stroke="#63b8ff" points="883.74,-116.5 893.74,-113 883.74,-109.5 883.74,-116.5"/>
</a>
</g>
</g>
<!-- Node10 -->
<g id="Node000010" class="node">
<title>Node10</title>
<g id="a_Node000010"><a xlink:href="expand_8c.html#a46b3549565fede625ad04072f2654aa4" target="_top" xlink:title=" ">
<polygon fill="white" stroke="#666666" points="1105,-103.5 1018,-103.5 1018,-84.5 1105,-84.5 1105,-103.5"/>
<text text-anchor="middle" x="1061.5" y="-91.5" font-family="Helvetica,sans-Serif" font-size="10.00">is_expandable</text>
</a>
</g>
</g>
<!-- Node9&#45;&gt;Node10 -->
<g id="edge9_Node000009_Node000010" class="edge">
<title>Node9&#45;&gt;Node10</title>
<g id="a_edge9_Node000009_Node000010"><a xlink:title=" ">
<path fill="none" stroke="#63b8ff" d="M982.18,-106.25C990.51,-104.94 999.33,-103.57 1007.92,-102.22"/>
<polygon fill="#63b8ff" stroke="#63b8ff" points="1008.53,-105.67 1017.87,-100.67 1007.45,-98.75 1008.53,-105.67"/>
</a>
</g>
</g>
<!-- Node9&#45;&gt;Node11 -->
<g id="edge10_Node000009_Node000011" class="edge">
<title>Node9&#45;&gt;Node11</title>
<g id="a_edge10_Node000009_Node000011"><a xlink:title=" ">
<path fill="none" stroke="#63b8ff" d="M982.18,-119.4C992.62,-120.94 1003.82,-122.6 1014.39,-124.17"/>
<polygon fill="#63b8ff" stroke="#63b8ff" points="1013.88,-127.63 1024.29,-125.63 1014.91,-120.71 1013.88,-127.63"/>
</a>
</g>
</g>
<!-- Node11&#45;&gt;Node12 -->
<g id="edge11_Node000011_Node000012" class="edge">
<title>Node11&#45;&gt;Node12</title>
<g id="a_edge11_Node000011_Node000012"><a xlink:title=" ">
<path fill="none" stroke="#63b8ff" d="M1090.41,-121.32C1095.59,-118.78 1100.71,-115.69 1105,-112 1127.44,-92.71 1117.77,-74.32 1141,-56 1145.81,-52.2 1151.48,-49.18 1157.27,-46.77"/>
<polygon fill="#63b8ff" stroke="#63b8ff" points="1158.75,-49.96 1166.98,-43.29 1156.39,-43.37 1158.75,-49.96"/>
</a>
</g>
</g>
<!-- Node13 -->
<g id="Node000013" class="node">
<title>Node13</title>
<g id="a_Node000013"><a xlink:href="hashmap_8c.html#aa54a9eed65359c74557f0f55c9ca3dd3" target="_top" xlink:title="Get the variable from the dictionnary.">
<polygon fill="white" stroke="#666666" points="1220,-195.5 1167,-195.5 1167,-176.5 1220,-176.5 1220,-195.5"/>
<text text-anchor="middle" x="1193.5" y="-183.5" font-family="Helvetica,sans-Serif" font-size="10.00">get_var</text>
</a>
</g>
</g>
<!-- Node11&#45;&gt;Node13 -->
<g id="edge12_Node000011_Node000013" class="edge">
<title>Node11&#45;&gt;Node13</title>
<g id="a_edge12_Node000011_Node000013"><a xlink:title=" ">
<path fill="none" stroke="#63b8ff" d="M1081.29,-140.53C1097.04,-148.36 1120.22,-159.5 1141,-168 1146.2,-170.13 1151.77,-172.24 1157.24,-174.22"/>
<polygon fill="#63b8ff" stroke="#63b8ff" points="1156.3,-177.6 1166.89,-177.64 1158.63,-171.01 1156.3,-177.6"/>
</a>
</g>
</g>
<!-- Node17 -->
<g id="Node000017" class="node">
<title>Node17</title>
<g id="a_Node000017"><a xlink:href="expand_8c.html#ac1225d88933658edb6e51e4ed8f003c3" target="_top" xlink:title=" ">
<polygon fill="white" stroke="#666666" points="1230,-84.5 1157,-84.5 1157,-65.5 1230,-65.5 1230,-84.5"/>
<text text-anchor="middle" x="1193.5" y="-72.5" font-family="Helvetica,sans-Serif" font-size="10.00">val_append</text>
</a>
</g>
</g>
<!-- Node11&#45;&gt;Node17 -->
<g id="edge17_Node000011_Node000017" class="edge">
<title>Node11&#45;&gt;Node17</title>
<g id="a_edge17_Node000011_Node000017"><a xlink:title=" ">
<path fill="none" stroke="#63b8ff" d="M1084.68,-121.41C1091.27,-118.48 1098.46,-115.18 1105,-112 1121.27,-104.08 1124.41,-100.23 1141,-93 1144.91,-91.3 1149.03,-89.64 1153.18,-88.06"/>
<polygon fill="#63b8ff" stroke="#63b8ff" points="1154.61,-91.26 1162.79,-84.53 1152.2,-84.69 1154.61,-91.26"/>
</a>
</g>
</g>
<!-- Node18 -->
<g id="Node000018" class="node">
<title>Node18</title>
<g id="a_Node000018"><a xlink:href="expand_8c.html#aa0106a12d15398cad9ca20f96f1eb374" target="_top" xlink:title=" ">
<polygon fill="white" stroke="#666666" points="1237.5,-158.5 1149.5,-158.5 1149.5,-139.5 1237.5,-139.5 1237.5,-158.5"/>
<text text-anchor="middle" x="1193.5" y="-146.5" font-family="Helvetica,sans-Serif" font-size="10.00">var_exp_brack</text>
</a>
</g>
</g>
<!-- Node11&#45;&gt;Node18 -->
<g id="edge18_Node000011_Node000018" class="edge">
<title>Node11&#45;&gt;Node18</title>
<g id="a_edge18_Node000011_Node000018"><a xlink:title=" ">
<path fill="none" stroke="#63b8ff" d="M1098.71,-136.01C1111.16,-137.74 1125.38,-139.71 1138.92,-141.58"/>
<polygon fill="#63b8ff" stroke="#63b8ff" points="1138.71,-145.09 1149.1,-142.99 1139.67,-138.15 1138.71,-145.09"/>
</a>
</g>
</g>
<!-- Node19 -->
<g id="Node000019" class="node">
<title>Node19</title>
<g id="a_Node000019"><a xlink:href="expand_8c.html#a5785fb584914d075e9a5d933e903823c" target="_top" xlink:title=" ">
<polygon fill="white" stroke="#666666" points="1246,-121.5 1141,-121.5 1141,-102.5 1246,-102.5 1246,-121.5"/>
<text text-anchor="middle" x="1193.5" y="-109.5" font-family="Helvetica,sans-Serif" font-size="10.00">var_exp_no_brack</text>
</a>
</g>
</g>
<!-- Node11&#45;&gt;Node19 -->
<g id="edge19_Node000011_Node000019" class="edge">
<title>Node11&#45;&gt;Node19</title>
<g id="a_edge19_Node000011_Node000019"><a xlink:title=" ">
<path fill="none" stroke="#63b8ff" d="M1098.71,-125.71C1108.72,-124.24 1119.87,-122.62 1130.89,-121"/>
<polygon fill="#63b8ff" stroke="#63b8ff" points="1131.55,-124.45 1140.94,-119.54 1130.54,-117.52 1131.55,-124.45"/>
</a>
</g>
</g>
<!-- Node13&#45;&gt;Node13 -->
<g id="edge13_Node000013_Node000013" class="edge">
<title>Node13&#45;&gt;Node13</title>
<g id="a_edge13_Node000013_Node000013"><a xlink:title=" ">
<path fill="none" stroke="#63b8ff" d="M1175.93,-195.58C1167.38,-204.23 1173.24,-213.5 1193.5,-213.5 1206.16,-213.5 1213.2,-209.88 1214.61,-205.05"/>
<polygon fill="#63b8ff" stroke="#63b8ff" points="1217.85,-203.72 1211.07,-195.58 1211.29,-206.18 1217.85,-203.72"/>
</a>
</g>
</g>
<!-- Node13&#45;&gt;Node14 -->
<g id="edge14_Node000013_Node000014" class="edge">
<title>Node13&#45;&gt;Node14</title>
<g id="a_edge14_Node000013_Node000014"><a xlink:title=" ">
<path fill="none" stroke="#63b8ff" d="M1214.01,-195.63C1232.07,-204.54 1259.13,-217.89 1279.58,-227.98"/>
<polygon fill="#63b8ff" stroke="#63b8ff" points="1278.23,-231.21 1288.74,-232.5 1281.32,-224.94 1278.23,-231.21"/>
</a>
</g>
</g>
<!-- Node15 -->
<g id="Node000015" class="node">
<title>Node15</title>
<g id="a_Node000015"><a xlink:href="hashmap_8c.html#a5b2c78a0a08d606dfbf21fe636373e6e" target="_top" xlink:title=" ">
<polygon fill="white" stroke="#666666" points="1334.5,-195.5 1283.5,-195.5 1283.5,-176.5 1334.5,-176.5 1334.5,-195.5"/>
<text text-anchor="middle" x="1309" y="-183.5" font-family="Helvetica,sans-Serif" font-size="10.00">special</text>
</a>
</g>
</g>
<!-- Node13&#45;&gt;Node15 -->
<g id="edge15_Node000013_Node000015" class="edge">
<title>Node13&#45;&gt;Node15</title>
<g id="a_edge15_Node000013_Node000015"><a xlink:title=" ">
<path fill="none" stroke="#63b8ff" d="M1220.25,-186C1235.85,-186 1255.96,-186 1272.99,-186"/>
<polygon fill="#63b8ff" stroke="#63b8ff" points="1273.13,-189.5 1283.13,-186 1273.13,-182.5 1273.13,-189.5"/>
</a>
</g>
</g>
<!-- Node15&#45;&gt;Node16 -->
<g id="edge16_Node000015_Node000016" class="edge">
<title>Node15&#45;&gt;Node16</title>
<g id="a_edge16_Node000015_Node000016"><a xlink:title=" ">
<path fill="none" stroke="#63b8ff" d="M1334.84,-186C1343.4,-186 1353.02,-186 1361.72,-186"/>
<polygon fill="#63b8ff" stroke="#63b8ff" points="1361.76,-189.5 1371.76,-186 1361.76,-182.5 1361.76,-189.5"/>
</a>
</g>
</g>
<!-- Node20 -->
<g id="Node000020" class="node">
<title>Node20</title>
<g id="a_Node000020"><a xlink:href="expand_8c.html#a66cc7be396f0ef502a888b56eee2f4bf" target="_top" xlink:title=" ">
<polygon fill="white" stroke="#666666" points="1336,-121.5 1282,-121.5 1282,-102.5 1336,-102.5 1336,-121.5"/>
<text text-anchor="middle" x="1309" y="-109.5" font-family="Helvetica,sans-Serif" font-size="10.00">is_word</text>
</a>
</g>
</g>
<!-- Node19&#45;&gt;Node20 -->
<g id="edge20_Node000019_Node000020" class="edge">
<title>Node19&#45;&gt;Node20</title>
<g id="a_edge20_Node000019_Node000020"><a xlink:title=" ">
<path fill="none" stroke="#63b8ff" d="M1246.27,-112C1254.8,-112 1263.49,-112 1271.55,-112"/>
<polygon fill="#63b8ff" stroke="#63b8ff" points="1271.72,-115.5 1281.72,-112 1271.72,-108.5 1271.72,-115.5"/>
</a>
</g>
</g>
<!-- Node23&#45;&gt;Node14 -->
<g id="edge30_Node000023_Node000014" class="edge">
<title>Node23&#45;&gt;Node14</title>
<g id="a_edge30_Node000023_Node000014"><a xlink:title=" ">
<path fill="none" stroke="#63b8ff" d="M162.45,-270.53C180.13,-279.45 208.17,-292.37 234,-299 314.91,-319.78 337.46,-318 421,-318 421,-318 421,-318 939,-318 1067.92,-318 1217.05,-272.95 1278.86,-252.22"/>
<polygon fill="#63b8ff" stroke="#63b8ff" points="1280.35,-255.41 1288.69,-248.88 1278.09,-248.78 1280.35,-255.41"/>
</a>
</g>
</g>
<!-- Node24 -->
<g id="Node000024" class="node">
<title>Node24</title>
<g id="a_Node000024"><a xlink:href="hashmap_8c.html#ae5069e0cc454eb644b895a3d32f3802b" target="_top" xlink:title=" ">
<polygon fill="white" stroke="#666666" points="322,-289.5 234,-289.5 234,-270.5 322,-270.5 322,-289.5"/>
<text text-anchor="middle" x="278" y="-277.5" font-family="Helvetica,sans-Serif" font-size="10.00">dup_val_to_elt</text>
</a>
</g>
</g>
<!-- Node23&#45;&gt;Node24 -->
<g id="edge28_Node000023_Node000024" class="edge">
<title>Node23&#45;&gt;Node24</title>
<g id="a_edge28_Node000023_Node000024"><a xlink:title=" ">
<path fill="none" stroke="#63b8ff" d="M182.11,-266.39C195.04,-268.25 209.77,-270.36 223.71,-272.36"/>
<polygon fill="#63b8ff" stroke="#63b8ff" points="223.28,-275.83 233.68,-273.79 224.28,-268.9 223.28,-275.83"/>
</a>
</g>
</g>
<!-- Node25 -->
<g id="Node000025" class="node">
<title>Node25</title>
<g id="a_Node000025"><a xlink:href="hashmap_8c.html#a9c916e726c920c9129bbd014333bd932" target="_top" xlink:title=" ">
<polygon fill="white" stroke="#666666" points="306.5,-252.5 249.5,-252.5 249.5,-233.5 306.5,-233.5 306.5,-252.5"/>
<text text-anchor="middle" x="278" y="-240.5" font-family="Helvetica,sans-Serif" font-size="10.00">free_var</text>
</a>
</g>
</g>
<!-- Node23&#45;&gt;Node25 -->
<g id="edge29_Node000023_Node000025" class="edge">
<title>Node23&#45;&gt;Node25</title>
<g id="a_edge29_Node000023_Node000025"><a xlink:title=" ">
<path fill="none" stroke="#63b8ff" d="M182.11,-255.89C200.02,-253.46 221.39,-250.55 239.31,-248.12"/>
<polygon fill="#63b8ff" stroke="#63b8ff" points="239.97,-251.56 249.41,-246.75 239.02,-244.63 239.97,-251.56"/>
</a>
</g>
</g>
<!-- Node26&#45;&gt;Node3 -->
<g id="edge32_Node000026_Node000003" class="edge">
<title>Node26&#45;&gt;Node3</title>
<g id="a_edge32_Node000026_Node000003"><a xlink:title=" ">
<path fill="none" stroke="#63b8ff" d="M173.25,-167C192.65,-167 218.46,-167 239.47,-167"/>
<polygon fill="#63b8ff" stroke="#63b8ff" points="239.66,-170.5 249.66,-167 239.66,-163.5 239.66,-170.5"/>
</a>
</g>
</g>
<!-- Node26&#45;&gt;Node16 -->
<g id="edge33_Node000026_Node000016" class="edge">
<title>Node26&#45;&gt;Node16</title>
<g id="a_edge33_Node000026_Node000016"><a xlink:title=" ">
<path fill="none" stroke="#63b8ff" d="M173.08,-158.3C181.3,-155.41 190.15,-151.92 198,-148 304.4,-94.81 302.05,0 421,0 421,0 421,0 1194.5,0 1290.35,0 1357.29,-119.77 1380,-167.09"/>
<polygon fill="#63b8ff" stroke="#63b8ff" points="1376.88,-168.68 1384.28,-176.26 1383.22,-165.72 1376.88,-168.68"/>
</a>
</g>
</g>
</g>
</svg>
