<?xml version="1.0" encoding="UTF-8" standalone="no"?>
<!DOCTYPE svg PUBLIC "-//W3C//DTD SVG 1.1//EN"
 "http://www.w3.org/Graphics/SVG/1.1/DTD/svg11.dtd">
<!-- Generated by graphviz version 2.43.0 (0)
 -->
<!-- Title: arg_num Pages: 1 -->
<svg width="1244pt" height="260pt"
 viewBox="0.00 0.00 1244.00 259.50" xmlns="http://www.w3.org/2000/svg" xmlns:xlink="http://www.w3.org/1999/xlink">
<g id="graph0" class="graph" transform="scale(1 1) rotate(0) translate(4 255.5)">
<title>arg_num</title>
<!-- Node1 -->
<g id="Node000001" class="node">
<title>Node1</title>
<g id="a_Node000001"><a xlink:title="Helper &#45;&gt; add number of args to dictionnary.">
<polygon fill="#999999" stroke="#666666" points="59,-28.5 0,-28.5 0,-9.5 59,-9.5 59,-28.5"/>
<text text-anchor="middle" x="29.5" y="-16.5" font-family="Helvetica,sans-Serif" font-size="10.00">arg_num</text>
</a>
</g>
</g>
<!-- Node2 -->
<g id="Node000002" class="node">
<title>Node2</title>
<g id="a_Node000002"><a xlink:href="hashmap_8c.html#a3bf95c887f7eac3eb074725515feba49" target="_top" xlink:title="Add a variable to the dictionnary.">
<polygon fill="white" stroke="#666666" points="151,-66.5 95,-66.5 95,-47.5 151,-47.5 151,-66.5"/>
<text text-anchor="middle" x="123" y="-54.5" font-family="Helvetica,sans-Serif" font-size="10.00">add_var</text>
</a>
</g>
</g>
<!-- Node1&#45;&gt;Node2 -->
<g id="edge1_Node000001_Node000002" class="edge">
<title>Node1&#45;&gt;Node2</title>
<g id="a_edge1_Node000001_Node000002"><a xlink:title=" ">
<path fill="none" stroke="#63b8ff" d="M53.59,-28.59C64.43,-33.09 77.53,-38.53 89.36,-43.44"/>
<polygon fill="#63b8ff" stroke="#63b8ff" points="88.34,-46.81 98.92,-47.41 91.03,-40.35 88.34,-46.81"/>
</a>
</g>
</g>
<!-- Node15 -->
<g id="Node000015" class="node">
<title>Node15</title>
<g id="a_Node000015"><a xlink:href="itoa_8c.html#a43f392ec16afbe6cdb1ee6d1f1347f99" target="_top" xlink:title="Convert int to string.">
<polygon fill="white" stroke="#666666" points="1236,-65.5 1201,-65.5 1201,-46.5 1236,-46.5 1236,-65.5"/>
<text text-anchor="middle" x="1218.5" y="-53.5" font-family="Helvetica,sans-Serif" font-size="10.00">itoa</text>
</a>
</g>
</g>
<!-- Node1&#45;&gt;Node15 -->
<g id="edge25_Node000001_Node000015" class="edge">
<title>Node1&#45;&gt;Node15</title>
<g id="a_edge25_Node000001_Node000015"><a xlink:title=" ">
<path fill="none" stroke="#63b8ff" d="M59.19,-14.92C101.05,-9.34 181.34,0 250,0 250,0 250,0 1023.5,0 1087.7,0 1104.45,-7.68 1165,-29 1174.27,-32.26 1183.96,-36.87 1192.46,-41.36"/>
<polygon fill="#63b8ff" stroke="#63b8ff" points="1191.01,-44.56 1201.46,-46.3 1194.38,-38.42 1191.01,-44.56"/>
</a>
</g>
</g>
<!-- Node3 -->
<g id="Node000003" class="node">
<title>Node3</title>
<g id="a_Node000003"><a xlink:href="hashmap_8c.html#aca86cd9ca85ac2e41fbb5c9e86ad6d6f" target="_top" xlink:title=" ">
<polygon fill="white" stroke="#666666" points="293.5,-85.5 208.5,-85.5 208.5,-66.5 293.5,-66.5 293.5,-85.5"/>
<text text-anchor="middle" x="251" y="-73.5" font-family="Helvetica,sans-Serif" font-size="10.00">expand_value</text>
</a>
</g>
</g>
<!-- Node2&#45;&gt;Node3 -->
<g id="edge2_Node000002_Node000003" class="edge">
<title>Node2&#45;&gt;Node3</title>
<g id="a_edge2_Node000002_Node000003"><a xlink:title=" ">
<path fill="none" stroke="#63b8ff" d="M151.03,-61.08C164.8,-63.15 182.03,-65.75 198.22,-68.19"/>
<polygon fill="#63b8ff" stroke="#63b8ff" points="197.73,-71.66 208.14,-69.69 198.77,-64.74 197.73,-71.66"/>
</a>
</g>
</g>
<!-- Node13 -->
<g id="Node000013" class="node">
<title>Node13</title>
<g id="a_Node000013"><a xlink:href="hash_8c.html#ac74a7e29e54c223be6213463974d6154" target="_top" xlink:title=" ">
<polygon fill="white" stroke="#666666" points="1158,-57.5 1118,-57.5 1118,-38.5 1158,-38.5 1158,-57.5"/>
<text text-anchor="middle" x="1138" y="-45.5" font-family="Helvetica,sans-Serif" font-size="10.00">hash</text>
</a>
</g>
</g>
<!-- Node2&#45;&gt;Node13 -->
<g id="edge23_Node000002_Node000013" class="edge">
<title>Node2&#45;&gt;Node13</title>
<g id="a_edge23_Node000002_Node000013"><a xlink:title=" ">
<path fill="none" stroke="#63b8ff" d="M151.23,-53.6C197.46,-48.14 294.29,-38 376.5,-38 376.5,-38 376.5,-38 891.5,-38 969.69,-38 1061.78,-43.13 1107.77,-46.04"/>
<polygon fill="#63b8ff" stroke="#63b8ff" points="1107.71,-49.54 1117.91,-46.69 1108.16,-42.56 1107.71,-49.54"/>
</a>
</g>
</g>
<!-- Node21 -->
<g id="Node000021" class="node">
<title>Node21</title>
<g id="a_Node000021"><a xlink:href="hashmap_8c.html#a5bcdd565d2ba5876c5ef1685625cdcfa" target="_top" xlink:title=" ">
<polygon fill="white" stroke="#666666" points="315,-122.5 187,-122.5 187,-103.5 315,-103.5 315,-122.5"/>
<text text-anchor="middle" x="251" y="-110.5" font-family="Helvetica,sans-Serif" font-size="10.00">update_or_append_var</text>
</a>
</g>
</g>
<!-- Node2&#45;&gt;Node21 -->
<g id="edge24_Node000002_Node000021" class="edge">
<title>Node2&#45;&gt;Node21</title>
<g id="a_edge24_Node000002_Node000021"><a xlink:title=" ">
<path fill="none" stroke="#63b8ff" d="M138,-66.54C150.44,-74.68 169.33,-86.28 187,-94 192.3,-96.32 197.96,-98.46 203.64,-100.4"/>
<polygon fill="#63b8ff" stroke="#63b8ff" points="202.56,-103.73 213.16,-103.49 204.73,-97.08 202.56,-103.73"/>
</a>
</g>
</g>
<!-- Node4 -->
<g id="Node000004" class="node">
<title>Node4</title>
<g id="a_Node000004"><a xlink:href="expand_8c.html#ae22ff4719527d6b2b8bca3e43f576837" target="_top" xlink:title=" ">
<polygon fill="white" stroke="#666666" points="404,-85.5 351,-85.5 351,-66.5 404,-66.5 404,-85.5"/>
<text text-anchor="middle" x="377.5" y="-73.5" font-family="Helvetica,sans-Serif" font-size="10.00">expand</text>
</a>
</g>
</g>
<!-- Node3&#45;&gt;Node4 -->
<g id="edge3_Node000003_Node000004" class="edge">
<title>Node3&#45;&gt;Node4</title>
<g id="a_edge3_Node000003_Node000004"><a xlink:title=" ">
<path fill="none" stroke="#63b8ff" d="M293.8,-76C309.04,-76 326.11,-76 340.77,-76"/>
<polygon fill="#63b8ff" stroke="#63b8ff" points="340.96,-79.5 350.96,-76 340.96,-72.5 340.96,-79.5"/>
</a>
</g>
</g>
<!-- Node5 -->
<g id="Node000005" class="node">
<title>Node5</title>
<g id="a_Node000005"><a xlink:href="expand_8c.html#a492ca861a96ee6319b97b4b1d6ba9835" target="_top" xlink:title=" ">
<polygon fill="white" stroke="#666666" points="522,-160.5 440,-160.5 440,-141.5 522,-141.5 522,-160.5"/>
<text text-anchor="middle" x="481" y="-148.5" font-family="Helvetica,sans-Serif" font-size="10.00">expand_word</text>
</a>
</g>
</g>
<!-- Node4&#45;&gt;Node5 -->
<g id="edge4_Node000004_Node000005" class="edge">
<title>Node4&#45;&gt;Node5</title>
<g id="a_edge4_Node000004_Node000005"><a xlink:title=" ">
<path fill="none" stroke="#63b8ff" d="M391.77,-85.8C408.81,-98.39 438.58,-120.4 458.78,-135.32"/>
<polygon fill="#63b8ff" stroke="#63b8ff" points="456.93,-138.3 467.05,-141.43 461.09,-132.67 456.93,-138.3"/>
</a>
</g>
</g>
<!-- Node11 -->
<g id="Node000011" class="node">
<title>Node11</title>
<g id="a_Node000011"><a xlink:href="expand_8c.html#aaf941edbfdd3ac08d813ff01acc1f963" target="_top" xlink:title=" ">
<polygon fill="white" stroke="#666666" points="1049,-85.5 996,-85.5 996,-66.5 1049,-66.5 1049,-85.5"/>
<text text-anchor="middle" x="1022.5" y="-73.5" font-family="Helvetica,sans-Serif" font-size="10.00">free_ex</text>
</a>
</g>
</g>
<!-- Node4&#45;&gt;Node11 -->
<g id="edge22_Node000004_Node000011" class="edge">
<title>Node4&#45;&gt;Node11</title>
<g id="a_edge22_Node000004_Node000011"><a xlink:title=" ">
<path fill="none" stroke="#63b8ff" d="M404.04,-76C448.31,-76 542.19,-76 621.5,-76 621.5,-76 621.5,-76 768,-76 845.7,-76 936.79,-76 985.85,-76"/>
<polygon fill="#63b8ff" stroke="#63b8ff" points="985.95,-79.5 995.95,-76 985.95,-72.5 985.95,-79.5"/>
</a>
</g>
</g>
<!-- Node6 -->
<g id="Node000006" class="node">
<title>Node6</title>
<g id="a_Node000006"><a xlink:href="expand_8c.html#a97a675ffacb4b71f4f3b4a30749d9f66" target="_top" xlink:title=" ">
<polygon fill="white" stroke="#666666" points="662,-123.5 583,-123.5 583,-104.5 662,-104.5 662,-123.5"/>
<text text-anchor="middle" x="622.5" y="-111.5" font-family="Helvetica,sans-Serif" font-size="10.00">append_char</text>
</a>
</g>
</g>
<!-- Node5&#45;&gt;Node6 -->
<g id="edge5_Node000005_Node000006" class="edge">
<title>Node5&#45;&gt;Node6</title>
<g id="a_edge5_Node000005_Node000006"><a xlink:title=" ">
<path fill="none" stroke="#63b8ff" d="M517.92,-141.47C535.44,-136.83 556.72,-131.18 575.42,-126.22"/>
<polygon fill="#63b8ff" stroke="#63b8ff" points="576.44,-129.57 585.21,-123.62 574.65,-122.81 576.44,-129.57"/>
</a>
</g>
</g>
<!-- Node7 -->
<g id="Node000007" class="node">
<title>Node7</title>
<g id="a_Node000007"><a xlink:href="expand_8c.html#a6d4728fd992669e4bb35624d37972179" target="_top" xlink:title=" ">
<polygon fill="white" stroke="#666666" points="687,-236.5 558,-236.5 558,-217.5 687,-217.5 687,-236.5"/>
<text text-anchor="middle" x="622.5" y="-224.5" font-family="Helvetica,sans-Serif" font-size="10.00">double_quotes_expand</text>
</a>
</g>
</g>
<!-- Node5&#45;&gt;Node7 -->
<g id="edge6_Node000005_Node000007" class="edge">
<title>Node5&#45;&gt;Node7</title>
<g id="a_edge6_Node000005_Node000007"><a xlink:title=" ">
<path fill="none" stroke="#63b8ff" d="M494.07,-160.61C508.6,-171.85 534.04,-190.51 558,-203 565.66,-207 574.14,-210.67 582.34,-213.88"/>
<polygon fill="#63b8ff" stroke="#63b8ff" points="581.19,-217.19 591.78,-217.43 583.65,-210.63 581.19,-217.19"/>
</a>
</g>
</g>
<!-- Node10 -->
<g id="Node000010" class="node">
<title>Node10</title>
<g id="a_Node000010"><a xlink:href="expand_8c.html#a0a337c3a6b2595b2b8c03e171c9559ba" target="_top" xlink:title=" ">
<polygon fill="white" stroke="#666666" points="927.5,-198.5 853.5,-198.5 853.5,-179.5 927.5,-179.5 927.5,-198.5"/>
<text text-anchor="middle" x="890.5" y="-186.5" font-family="Helvetica,sans-Serif" font-size="10.00">var_expand</text>
</a>
</g>
</g>
<!-- Node5&#45;&gt;Node10 -->
<g id="edge21_Node000005_Node000010" class="edge">
<title>Node5&#45;&gt;Node10</title>
<g id="a_edge21_Node000005_Node000010"><a xlink:title=" ">
<path fill="none" stroke="#63b8ff" d="M516.56,-160.51C529.47,-163.71 544.32,-166.98 558,-169 659.04,-183.9 778.97,-187.76 843.27,-188.72"/>
<polygon fill="#63b8ff" stroke="#63b8ff" points="843.44,-192.22 853.48,-188.85 843.53,-185.22 843.44,-192.22"/>
</a>
</g>
</g>
<!-- Node20 -->
<g id="Node000020" class="node">
<title>Node20</title>
<g id="a_Node000020"><a xlink:href="expand_8c.html#ad45c8055962fa36940e109b04b7e562e" target="_top" xlink:title=" ">
<polygon fill="white" stroke="#666666" points="682.5,-160.5 562.5,-160.5 562.5,-141.5 682.5,-141.5 682.5,-160.5"/>
<text text-anchor="middle" x="622.5" y="-148.5" font-family="Helvetica,sans-Serif" font-size="10.00">single_quote_expand</text>
</a>
</g>
</g>
<!-- Node5&#45;&gt;Node20 -->
<g id="edge20_Node000005_Node000020" class="edge">
<title>Node5&#45;&gt;Node20</title>
<g id="a_edge20_Node000005_Node000020"><a xlink:title=" ">
<path fill="none" stroke="#63b8ff" d="M522.35,-151C531.7,-151 541.92,-151 552.13,-151"/>
<polygon fill="#63b8ff" stroke="#63b8ff" points="552.3,-154.5 562.3,-151 552.3,-147.5 552.3,-154.5"/>
</a>
</g>
</g>
<!-- Node8 -->
<g id="Node000008" class="node">
<title>Node8</title>
<g id="a_Node000008"><a xlink:href="expand_8c.html#a4a10ac07faa08df14e0a438c5feace6b" target="_top" xlink:title=" ">
<polygon fill="white" stroke="#666666" points="811,-236.5 723,-236.5 723,-217.5 811,-217.5 811,-236.5"/>
<text text-anchor="middle" x="767" y="-224.5" font-family="Helvetica,sans-Serif" font-size="10.00">in_dquote_exp</text>
</a>
</g>
</g>
<!-- Node7&#45;&gt;Node8 -->
<g id="edge7_Node000007_Node000008" class="edge">
<title>Node7&#45;&gt;Node8</title>
<g id="a_edge7_Node000007_Node000008"><a xlink:title=" ">
<path fill="none" stroke="#63b8ff" d="M687.25,-227C695.69,-227 704.27,-227 712.52,-227"/>
<polygon fill="#63b8ff" stroke="#63b8ff" points="712.74,-230.5 722.74,-227 712.74,-223.5 712.74,-230.5"/>
</a>
</g>
</g>
<!-- Node9 -->
<g id="Node000009" class="node">
<title>Node9</title>
<g id="a_Node000009"><a xlink:href="expand_8c.html#a46b3549565fede625ad04072f2654aa4" target="_top" xlink:title=" ">
<polygon fill="white" stroke="#666666" points="934,-236.5 847,-236.5 847,-217.5 934,-217.5 934,-236.5"/>
<text text-anchor="middle" x="890.5" y="-224.5" font-family="Helvetica,sans-Serif" font-size="10.00">is_expandable</text>
</a>
</g>
</g>
<!-- Node8&#45;&gt;Node9 -->
<g id="edge8_Node000008_Node000009" class="edge">
<title>Node8&#45;&gt;Node9</title>
<g id="a_edge8_Node000008_Node000009"><a xlink:title=" ">
<path fill="none" stroke="#63b8ff" d="M811.18,-227C819.42,-227 828.14,-227 836.64,-227"/>
<polygon fill="#63b8ff" stroke="#63b8ff" points="836.87,-230.5 846.87,-227 836.87,-223.5 836.87,-230.5"/>
</a>
</g>
</g>
<!-- Node8&#45;&gt;Node10 -->
<g id="edge9_Node000008_Node000010" class="edge">
<title>Node8&#45;&gt;Node10</title>
<g id="a_edge9_Node000008_Node000010"><a xlink:title=" ">
<path fill="none" stroke="#63b8ff" d="M798.66,-217.41C813.91,-212.64 832.55,-206.81 848.97,-201.68"/>
<polygon fill="#63b8ff" stroke="#63b8ff" points="850.35,-204.91 858.85,-198.59 848.26,-198.23 850.35,-204.91"/>
</a>
</g>
</g>
<!-- Node10&#45;&gt;Node11 -->
<g id="edge10_Node000010_Node000011" class="edge">
<title>Node10&#45;&gt;Node11</title>
<g id="a_edge10_Node000010_Node000011"><a xlink:title=" ">
<path fill="none" stroke="#63b8ff" d="M896.92,-179.45C908.14,-160.48 935.76,-117.84 970,-94 974.93,-90.57 980.58,-87.73 986.29,-85.41"/>
<polygon fill="#63b8ff" stroke="#63b8ff" points="987.61,-88.65 995.83,-81.96 985.24,-82.06 987.61,-88.65"/>
</a>
</g>
</g>
<!-- Node12 -->
<g id="Node000012" class="node">
<title>Node12</title>
<g id="a_Node000012"><a xlink:href="hashmap_8c.html#aa54a9eed65359c74557f0f55c9ca3dd3" target="_top" xlink:title="Get the variable from the dictionnary.">
<polygon fill="white" stroke="#666666" points="1049,-122.5 996,-122.5 996,-103.5 1049,-103.5 1049,-122.5"/>
<text text-anchor="middle" x="1022.5" y="-110.5" font-family="Helvetica,sans-Serif" font-size="10.00">get_var</text>
</a>
</g>
</g>
<!-- Node10&#45;&gt;Node12 -->
<g id="edge11_Node000010_Node000012" class="edge">
<title>Node10&#45;&gt;Node12</title>
<g id="a_edge11_Node000010_Node000012"><a xlink:title=" ">
<path fill="none" stroke="#63b8ff" d="M907.96,-179.37C930.24,-166.35 970.17,-143.01 996.25,-127.76"/>
<polygon fill="#63b8ff" stroke="#63b8ff" points="998.3,-130.62 1005.17,-122.55 994.77,-124.57 998.3,-130.62"/>
</a>
</g>
</g>
<!-- Node16 -->
<g id="Node000016" class="node">
<title>Node16</title>
<g id="a_Node000016"><a xlink:href="expand_8c.html#ac1225d88933658edb6e51e4ed8f003c3" target="_top" xlink:title=" ">
<polygon fill="white" stroke="#666666" points="1059,-251.5 986,-251.5 986,-232.5 1059,-232.5 1059,-251.5"/>
<text text-anchor="middle" x="1022.5" y="-239.5" font-family="Helvetica,sans-Serif" font-size="10.00">val_append</text>
</a>
</g>
</g>
<!-- Node10&#45;&gt;Node16 -->
<g id="edge16_Node000010_Node000016" class="edge">
<title>Node10&#45;&gt;Node16</title>
<g id="a_edge16_Node000010_Node000016"><a xlink:title=" ">
<path fill="none" stroke="#63b8ff" d="M911.63,-198.53C927.38,-205.85 949.89,-216.02 970,-224 974.22,-225.68 978.67,-227.36 983.12,-228.98"/>
<polygon fill="#63b8ff" stroke="#63b8ff" points="982.15,-232.35 992.74,-232.42 984.5,-225.76 982.15,-232.35"/>
</a>
</g>
</g>
<!-- Node17 -->
<g id="Node000017" class="node">
<title>Node17</title>
<g id="a_Node000017"><a xlink:href="expand_8c.html#aa0106a12d15398cad9ca20f96f1eb374" target="_top" xlink:title=" ">
<polygon fill="white" stroke="#666666" points="1066.5,-214.5 978.5,-214.5 978.5,-195.5 1066.5,-195.5 1066.5,-214.5"/>
<text text-anchor="middle" x="1022.5" y="-202.5" font-family="Helvetica,sans-Serif" font-size="10.00">var_exp_brack</text>
</a>
</g>
</g>
<!-- Node10&#45;&gt;Node17 -->
<g id="edge17_Node000010_Node000017" class="edge">
<title>Node10&#45;&gt;Node17</title>
<g id="a_edge17_Node000010_Node000017"><a xlink:title=" ">
<path fill="none" stroke="#63b8ff" d="M927.71,-193.46C940.16,-194.99 954.38,-196.74 967.92,-198.41"/>
<polygon fill="#63b8ff" stroke="#63b8ff" points="967.75,-201.91 978.1,-199.66 968.6,-194.96 967.75,-201.91"/>
</a>
</g>
</g>
<!-- Node18 -->
<g id="Node000018" class="node">
<title>Node18</title>
<g id="a_Node000018"><a xlink:href="expand_8c.html#a5785fb584914d075e9a5d933e903823c" target="_top" xlink:title=" ">
<polygon fill="white" stroke="#666666" points="1075,-177.5 970,-177.5 970,-158.5 1075,-158.5 1075,-177.5"/>
<text text-anchor="middle" x="1022.5" y="-165.5" font-family="Helvetica,sans-Serif" font-size="10.00">var_exp_no_brack</text>
</a>
</g>
</g>
<!-- Node10&#45;&gt;Node18 -->
<g id="edge18_Node000010_Node000018" class="edge">
<title>Node10&#45;&gt;Node18</title>
<g id="a_edge18_Node000010_Node000018"><a xlink:title=" ">
<path fill="none" stroke="#63b8ff" d="M927.71,-183.15C937.72,-181.53 948.87,-179.73 959.89,-177.95"/>
<polygon fill="#63b8ff" stroke="#63b8ff" points="960.62,-181.38 969.94,-176.33 959.51,-174.47 960.62,-181.38"/>
</a>
</g>
</g>
<!-- Node12&#45;&gt;Node12 -->
<g id="edge12_Node000012_Node000012" class="edge">
<title>Node12&#45;&gt;Node12</title>
<g id="a_edge12_Node000012_Node000012"><a xlink:title=" ">
<path fill="none" stroke="#63b8ff" d="M1004.93,-122.58C996.38,-131.23 1002.24,-140.5 1022.5,-140.5 1035.16,-140.5 1042.2,-136.88 1043.61,-132.05"/>
<polygon fill="#63b8ff" stroke="#63b8ff" points="1046.85,-130.72 1040.07,-122.58 1040.29,-133.18 1046.85,-130.72"/>
</a>
</g>
</g>
<!-- Node12&#45;&gt;Node13 -->
<g id="edge13_Node000012_Node000013" class="edge">
<title>Node12&#45;&gt;Node13</title>
<g id="a_edge13_Node000012_Node000013"><a xlink:title=" ">
<path fill="none" stroke="#63b8ff" d="M1049.01,-105.21C1057.51,-102.19 1066.87,-98.4 1075,-94 1090.56,-85.58 1106.55,-73.62 1118.4,-64"/>
<polygon fill="#63b8ff" stroke="#63b8ff" points="1120.77,-66.58 1126.22,-57.5 1116.3,-61.2 1120.77,-66.58"/>
</a>
</g>
</g>
<!-- Node14 -->
<g id="Node000014" class="node">
<title>Node14</title>
<g id="a_Node000014"><a xlink:href="hashmap_8c.html#a5b2c78a0a08d606dfbf21fe636373e6e" target="_top" xlink:title=" ">
<polygon fill="white" stroke="#666666" points="1163.5,-103.5 1112.5,-103.5 1112.5,-84.5 1163.5,-84.5 1163.5,-103.5"/>
<text text-anchor="middle" x="1138" y="-91.5" font-family="Helvetica,sans-Serif" font-size="10.00">special</text>
</a>
</g>
</g>
<!-- Node12&#45;&gt;Node14 -->
<g id="edge14_Node000012_Node000014" class="edge">
<title>Node12&#45;&gt;Node14</title>
<g id="a_edge14_Node000012_Node000014"><a xlink:title=" ">
<path fill="none" stroke="#63b8ff" d="M1049.25,-108.69C1064.85,-106.08 1084.96,-102.71 1101.99,-99.86"/>
<polygon fill="#63b8ff" stroke="#63b8ff" points="1102.84,-103.27 1112.13,-98.16 1101.69,-96.36 1102.84,-103.27"/>
</a>
</g>
</g>
<!-- Node14&#45;&gt;Node15 -->
<g id="edge15_Node000014_Node000015" class="edge">
<title>Node14&#45;&gt;Node15</title>
<g id="a_edge15_Node000014_Node000015"><a xlink:title=" ">
<path fill="none" stroke="#63b8ff" d="M1158.81,-84.41C1168.75,-79.6 1180.93,-73.7 1191.6,-68.54"/>
<polygon fill="#63b8ff" stroke="#63b8ff" points="1193.41,-71.55 1200.88,-64.04 1190.36,-65.25 1193.41,-71.55"/>
</a>
</g>
</g>
<!-- Node19 -->
<g id="Node000019" class="node">
<title>Node19</title>
<g id="a_Node000019"><a xlink:href="expand_8c.html#a66cc7be396f0ef502a888b56eee2f4bf" target="_top" xlink:title=" ">
<polygon fill="white" stroke="#666666" points="1165,-177.5 1111,-177.5 1111,-158.5 1165,-158.5 1165,-177.5"/>
<text text-anchor="middle" x="1138" y="-165.5" font-family="Helvetica,sans-Serif" font-size="10.00">is_word</text>
</a>
</g>
</g>
<!-- Node18&#45;&gt;Node19 -->
<g id="edge19_Node000018_Node000019" class="edge">
<title>Node18&#45;&gt;Node19</title>
<g id="a_edge19_Node000018_Node000019"><a xlink:title=" ">
<path fill="none" stroke="#63b8ff" d="M1075.27,-168C1083.8,-168 1092.49,-168 1100.55,-168"/>
<polygon fill="#63b8ff" stroke="#63b8ff" points="1100.72,-171.5 1110.72,-168 1100.72,-164.5 1100.72,-171.5"/>
</a>
</g>
</g>
</g>
</svg>
