<?xml version="1.0" encoding="UTF-8" standalone="no"?>
<!DOCTYPE svg PUBLIC "-//W3C//DTD SVG 1.1//EN"
 "http://www.w3.org/Graphics/SVG/1.1/DTD/svg11.dtd">
<!-- Generated by graphviz version 2.43.0 (0)
 -->
<!-- Title: add_positional_arg Pages: 1 -->
<svg width="1294pt" height="260pt"
 viewBox="0.00 0.00 1294.00 259.50" xmlns="http://www.w3.org/2000/svg" xmlns:xlink="http://www.w3.org/1999/xlink">
<g id="graph0" class="graph" transform="scale(1 1) rotate(0) translate(4 255.5)">
<title>add_positional_arg</title>
<!-- Node1 -->
<g id="Node000001" class="node">
<title>Node1</title>
<g id="a_Node000001"><a xlink:title="Helper: Ajoute un arg au dictionnaire de variables.">
<polygon fill="#999999" stroke="#666666" points="109,-28.5 0,-28.5 0,-9.5 109,-9.5 109,-28.5"/>
<text text-anchor="middle" x="54.5" y="-16.5" font-family="Helvetica,sans-Serif" font-size="10.00">add_positional_arg</text>
</a>
</g>
</g>
<!-- Node2 -->
<g id="Node000002" class="node">
<title>Node2</title>
<g id="a_Node000002"><a xlink:href="hashmap_8c.html#a3bf95c887f7eac3eb074725515feba49" target="_top" xlink:title="Add a variable to the dictionnary.">
<polygon fill="white" stroke="#666666" points="201,-66.5 145,-66.5 145,-47.5 201,-47.5 201,-66.5"/>
<text text-anchor="middle" x="173" y="-54.5" font-family="Helvetica,sans-Serif" font-size="10.00">add_var</text>
</a>
</g>
</g>
<!-- Node1&#45;&gt;Node2 -->
<g id="edge1_Node000001_Node000002" class="edge">
<title>Node1&#45;&gt;Node2</title>
<g id="a_edge1_Node000001_Node000002"><a xlink:title=" ">
<path fill="none" stroke="#63b8ff" d="M84.9,-28.59C100.08,-33.54 118.76,-39.64 134.93,-44.91"/>
<polygon fill="#63b8ff" stroke="#63b8ff" points="134.02,-48.29 144.61,-48.07 136.19,-41.64 134.02,-48.29"/>
</a>
</g>
</g>
<!-- Node15 -->
<g id="Node000015" class="node">
<title>Node15</title>
<g id="a_Node000015"><a xlink:href="itoa_8c.html#a43f392ec16afbe6cdb1ee6d1f1347f99" target="_top" xlink:title="Convert int to string.">
<polygon fill="white" stroke="#666666" points="1286,-65.5 1251,-65.5 1251,-46.5 1286,-46.5 1286,-65.5"/>
<text text-anchor="middle" x="1268.5" y="-53.5" font-family="Helvetica,sans-Serif" font-size="10.00">itoa</text>
</a>
</g>
</g>
<!-- Node1&#45;&gt;Node15 -->
<g id="edge25_Node000001_Node000015" class="edge">
<title>Node1&#45;&gt;Node15</title>
<g id="a_edge25_Node000001_Node000015"><a xlink:title=" ">
<path fill="none" stroke="#63b8ff" d="M109.31,-12.41C158.78,-6.92 234.22,0 300,0 300,0 300,0 1073.5,0 1137.7,0 1154.45,-7.68 1215,-29 1224.27,-32.26 1233.96,-36.87 1242.46,-41.36"/>
<polygon fill="#63b8ff" stroke="#63b8ff" points="1241.01,-44.56 1251.46,-46.3 1244.38,-38.42 1241.01,-44.56"/>
</a>
</g>
</g>
<!-- Node3 -->
<g id="Node000003" class="node">
<title>Node3</title>
<g id="a_Node000003"><a xlink:href="hashmap_8c.html#aca86cd9ca85ac2e41fbb5c9e86ad6d6f" target="_top" xlink:title=" ">
<polygon fill="white" stroke="#666666" points="343.5,-85.5 258.5,-85.5 258.5,-66.5 343.5,-66.5 343.5,-85.5"/>
<text text-anchor="middle" x="301" y="-73.5" font-family="Helvetica,sans-Serif" font-size="10.00">expand_value</text>
</a>
</g>
</g>
<!-- Node2&#45;&gt;Node3 -->
<g id="edge2_Node000002_Node000003" class="edge">
<title>Node2&#45;&gt;Node3</title>
<g id="a_edge2_Node000002_Node000003"><a xlink:title=" ">
<path fill="none" stroke="#63b8ff" d="M201.03,-61.08C214.8,-63.15 232.03,-65.75 248.22,-68.19"/>
<polygon fill="#63b8ff" stroke="#63b8ff" points="247.73,-71.66 258.14,-69.69 248.77,-64.74 247.73,-71.66"/>
</a>
</g>
</g>
<!-- Node13 -->
<g id="Node000013" class="node">
<title>Node13</title>
<g id="a_Node000013"><a xlink:href="hash_8c.html#ac74a7e29e54c223be6213463974d6154" target="_top" xlink:title=" ">
<polygon fill="white" stroke="#666666" points="1208,-57.5 1168,-57.5 1168,-38.5 1208,-38.5 1208,-57.5"/>
<text text-anchor="middle" x="1188" y="-45.5" font-family="Helvetica,sans-Serif" font-size="10.00">hash</text>
</a>
</g>
</g>
<!-- Node2&#45;&gt;Node13 -->
<g id="edge23_Node000002_Node000013" class="edge">
<title>Node2&#45;&gt;Node13</title>
<g id="a_edge23_Node000002_Node000013"><a xlink:title=" ">
<path fill="none" stroke="#63b8ff" d="M201.23,-53.6C247.46,-48.14 344.29,-38 426.5,-38 426.5,-38 426.5,-38 941.5,-38 1019.69,-38 1111.78,-43.13 1157.77,-46.04"/>
<polygon fill="#63b8ff" stroke="#63b8ff" points="1157.71,-49.54 1167.91,-46.69 1158.16,-42.56 1157.71,-49.54"/>
</a>
</g>
</g>
<!-- Node21 -->
<g id="Node000021" class="node">
<title>Node21</title>
<g id="a_Node000021"><a xlink:href="hashmap_8c.html#a5bcdd565d2ba5876c5ef1685625cdcfa" target="_top" xlink:title=" ">
<polygon fill="white" stroke="#666666" points="365,-122.5 237,-122.5 237,-103.5 365,-103.5 365,-122.5"/>
<text text-anchor="middle" x="301" y="-110.5" font-family="Helvetica,sans-Serif" font-size="10.00">update_or_append_var</text>
</a>
</g>
</g>
<!-- Node2&#45;&gt;Node21 -->
<g id="edge24_Node000002_Node000021" class="edge">
<title>Node2&#45;&gt;Node21</title>
<g id="a_edge24_Node000002_Node000021"><a xlink:title=" ">
<path fill="none" stroke="#63b8ff" d="M188,-66.54C200.44,-74.68 219.33,-86.28 237,-94 242.3,-96.32 247.96,-98.46 253.64,-100.4"/>
<polygon fill="#63b8ff" stroke="#63b8ff" points="252.56,-103.73 263.16,-103.49 254.73,-97.08 252.56,-103.73"/>
</a>
</g>
</g>
<!-- Node4 -->
<g id="Node000004" class="node">
<title>Node4</title>
<g id="a_Node000004"><a xlink:href="expand_8c.html#ae22ff4719527d6b2b8bca3e43f576837" target="_top" xlink:title=" ">
<polygon fill="white" stroke="#666666" points="454,-85.5 401,-85.5 401,-66.5 454,-66.5 454,-85.5"/>
<text text-anchor="middle" x="427.5" y="-73.5" font-family="Helvetica,sans-Serif" font-size="10.00">expand</text>
</a>
</g>
</g>
<!-- Node3&#45;&gt;Node4 -->
<g id="edge3_Node000003_Node000004" class="edge">
<title>Node3&#45;&gt;Node4</title>
<g id="a_edge3_Node000003_Node000004"><a xlink:title=" ">
<path fill="none" stroke="#63b8ff" d="M343.8,-76C359.04,-76 376.11,-76 390.77,-76"/>
<polygon fill="#63b8ff" stroke="#63b8ff" points="390.96,-79.5 400.96,-76 390.96,-72.5 390.96,-79.5"/>
</a>
</g>
</g>
<!-- Node5 -->
<g id="Node000005" class="node">
<title>Node5</title>
<g id="a_Node000005"><a xlink:href="expand_8c.html#a492ca861a96ee6319b97b4b1d6ba9835" target="_top" xlink:title=" ">
<polygon fill="white" stroke="#666666" points="572,-160.5 490,-160.5 490,-141.5 572,-141.5 572,-160.5"/>
<text text-anchor="middle" x="531" y="-148.5" font-family="Helvetica,sans-Serif" font-size="10.00">expand_word</text>
</a>
</g>
</g>
<!-- Node4&#45;&gt;Node5 -->
<g id="edge4_Node000004_Node000005" class="edge">
<title>Node4&#45;&gt;Node5</title>
<g id="a_edge4_Node000004_Node000005"><a xlink:title=" ">
<path fill="none" stroke="#63b8ff" d="M441.77,-85.8C458.81,-98.39 488.58,-120.4 508.78,-135.32"/>
<polygon fill="#63b8ff" stroke="#63b8ff" points="506.93,-138.3 517.05,-141.43 511.09,-132.67 506.93,-138.3"/>
</a>
</g>
</g>
<!-- Node11 -->
<g id="Node000011" class="node">
<title>Node11</title>
<g id="a_Node000011"><a xlink:href="expand_8c.html#aaf941edbfdd3ac08d813ff01acc1f963" target="_top" xlink:title=" ">
<polygon fill="white" stroke="#666666" points="1099,-85.5 1046,-85.5 1046,-66.5 1099,-66.5 1099,-85.5"/>
<text text-anchor="middle" x="1072.5" y="-73.5" font-family="Helvetica,sans-Serif" font-size="10.00">free_ex</text>
</a>
</g>
</g>
<!-- Node4&#45;&gt;Node11 -->
<g id="edge22_Node000004_Node000011" class="edge">
<title>Node4&#45;&gt;Node11</title>
<g id="a_edge22_Node000004_Node000011"><a xlink:title=" ">
<path fill="none" stroke="#63b8ff" d="M454.04,-76C498.31,-76 592.19,-76 671.5,-76 671.5,-76 671.5,-76 818,-76 895.7,-76 986.79,-76 1035.85,-76"/>
<polygon fill="#63b8ff" stroke="#63b8ff" points="1035.95,-79.5 1045.95,-76 1035.95,-72.5 1035.95,-79.5"/>
</a>
</g>
</g>
<!-- Node6 -->
<g id="Node000006" class="node">
<title>Node6</title>
<g id="a_Node000006"><a xlink:href="expand_8c.html#a97a675ffacb4b71f4f3b4a30749d9f66" target="_top" xlink:title=" ">
<polygon fill="white" stroke="#666666" points="712,-123.5 633,-123.5 633,-104.5 712,-104.5 712,-123.5"/>
<text text-anchor="middle" x="672.5" y="-111.5" font-family="Helvetica,sans-Serif" font-size="10.00">append_char</text>
</a>
</g>
</g>
<!-- Node5&#45;&gt;Node6 -->
<g id="edge5_Node000005_Node000006" class="edge">
<title>Node5&#45;&gt;Node6</title>
<g id="a_edge5_Node000005_Node000006"><a xlink:title=" ">
<path fill="none" stroke="#63b8ff" d="M567.92,-141.47C585.44,-136.83 606.72,-131.18 625.42,-126.22"/>
<polygon fill="#63b8ff" stroke="#63b8ff" points="626.44,-129.57 635.21,-123.62 624.65,-122.81 626.44,-129.57"/>
</a>
</g>
</g>
<!-- Node7 -->
<g id="Node000007" class="node">
<title>Node7</title>
<g id="a_Node000007"><a xlink:href="expand_8c.html#a6d4728fd992669e4bb35624d37972179" target="_top" xlink:title=" ">
<polygon fill="white" stroke="#666666" points="737,-236.5 608,-236.5 608,-217.5 737,-217.5 737,-236.5"/>
<text text-anchor="middle" x="672.5" y="-224.5" font-family="Helvetica,sans-Serif" font-size="10.00">double_quotes_expand</text>
</a>
</g>
</g>
<!-- Node5&#45;&gt;Node7 -->
<g id="edge6_Node000005_Node000007" class="edge">
<title>Node5&#45;&gt;Node7</title>
<g id="a_edge6_Node000005_Node000007"><a xlink:title=" ">
<path fill="none" stroke="#63b8ff" d="M544.07,-160.61C558.6,-171.85 584.04,-190.51 608,-203 615.66,-207 624.14,-210.67 632.34,-213.88"/>
<polygon fill="#63b8ff" stroke="#63b8ff" points="631.19,-217.19 641.78,-217.43 633.65,-210.63 631.19,-217.19"/>
</a>
</g>
</g>
<!-- Node10 -->
<g id="Node000010" class="node">
<title>Node10</title>
<g id="a_Node000010"><a xlink:href="expand_8c.html#a0a337c3a6b2595b2b8c03e171c9559ba" target="_top" xlink:title=" ">
<polygon fill="white" stroke="#666666" points="977.5,-198.5 903.5,-198.5 903.5,-179.5 977.5,-179.5 977.5,-198.5"/>
<text text-anchor="middle" x="940.5" y="-186.5" font-family="Helvetica,sans-Serif" font-size="10.00">var_expand</text>
</a>
</g>
</g>
<!-- Node5&#45;&gt;Node10 -->
<g id="edge21_Node000005_Node000010" class="edge">
<title>Node5&#45;&gt;Node10</title>
<g id="a_edge21_Node000005_Node000010"><a xlink:title=" ">
<path fill="none" stroke="#63b8ff" d="M566.56,-160.51C579.47,-163.71 594.32,-166.98 608,-169 709.04,-183.9 828.97,-187.76 893.27,-188.72"/>
<polygon fill="#63b8ff" stroke="#63b8ff" points="893.44,-192.22 903.48,-188.85 893.53,-185.22 893.44,-192.22"/>
</a>
</g>
</g>
<!-- Node20 -->
<g id="Node000020" class="node">
<title>Node20</title>
<g id="a_Node000020"><a xlink:href="expand_8c.html#ad45c8055962fa36940e109b04b7e562e" target="_top" xlink:title=" ">
<polygon fill="white" stroke="#666666" points="732.5,-160.5 612.5,-160.5 612.5,-141.5 732.5,-141.5 732.5,-160.5"/>
<text text-anchor="middle" x="672.5" y="-148.5" font-family="Helvetica,sans-Serif" font-size="10.00">single_quote_expand</text>
</a>
</g>
</g>
<!-- Node5&#45;&gt;Node20 -->
<g id="edge20_Node000005_Node000020" class="edge">
<title>Node5&#45;&gt;Node20</title>
<g id="a_edge20_Node000005_Node000020"><a xlink:title=" ">
<path fill="none" stroke="#63b8ff" d="M572.35,-151C581.7,-151 591.92,-151 602.13,-151"/>
<polygon fill="#63b8ff" stroke="#63b8ff" points="602.3,-154.5 612.3,-151 602.3,-147.5 602.3,-154.5"/>
</a>
</g>
</g>
<!-- Node8 -->
<g id="Node000008" class="node">
<title>Node8</title>
<g id="a_Node000008"><a xlink:href="expand_8c.html#a4a10ac07faa08df14e0a438c5feace6b" target="_top" xlink:title=" ">
<polygon fill="white" stroke="#666666" points="861,-236.5 773,-236.5 773,-217.5 861,-217.5 861,-236.5"/>
<text text-anchor="middle" x="817" y="-224.5" font-family="Helvetica,sans-Serif" font-size="10.00">in_dquote_exp</text>
</a>
</g>
</g>
<!-- Node7&#45;&gt;Node8 -->
<g id="edge7_Node000007_Node000008" class="edge">
<title>Node7&#45;&gt;Node8</title>
<g id="a_edge7_Node000007_Node000008"><a xlink:title=" ">
<path fill="none" stroke="#63b8ff" d="M737.25,-227C745.69,-227 754.27,-227 762.52,-227"/>
<polygon fill="#63b8ff" stroke="#63b8ff" points="762.74,-230.5 772.74,-227 762.74,-223.5 762.74,-230.5"/>
</a>
</g>
</g>
<!-- Node9 -->
<g id="Node000009" class="node">
<title>Node9</title>
<g id="a_Node000009"><a xlink:href="expand_8c.html#a46b3549565fede625ad04072f2654aa4" target="_top" xlink:title=" ">
<polygon fill="white" stroke="#666666" points="984,-236.5 897,-236.5 897,-217.5 984,-217.5 984,-236.5"/>
<text text-anchor="middle" x="940.5" y="-224.5" font-family="Helvetica,sans-Serif" font-size="10.00">is_expandable</text>
</a>
</g>
</g>
<!-- Node8&#45;&gt;Node9 -->
<g id="edge8_Node000008_Node000009" class="edge">
<title>Node8&#45;&gt;Node9</title>
<g id="a_edge8_Node000008_Node000009"><a xlink:title=" ">
<path fill="none" stroke="#63b8ff" d="M861.18,-227C869.42,-227 878.14,-227 886.64,-227"/>
<polygon fill="#63b8ff" stroke="#63b8ff" points="886.87,-230.5 896.87,-227 886.87,-223.5 886.87,-230.5"/>
</a>
</g>
</g>
<!-- Node8&#45;&gt;Node10 -->
<g id="edge9_Node000008_Node000010" class="edge">
<title>Node8&#45;&gt;Node10</title>
<g id="a_edge9_Node000008_Node000010"><a xlink:title=" ">
<path fill="none" stroke="#63b8ff" d="M848.66,-217.41C863.91,-212.64 882.55,-206.81 898.97,-201.68"/>
<polygon fill="#63b8ff" stroke="#63b8ff" points="900.35,-204.91 908.85,-198.59 898.26,-198.23 900.35,-204.91"/>
</a>
</g>
</g>
<!-- Node10&#45;&gt;Node11 -->
<g id="edge10_Node000010_Node000011" class="edge">
<title>Node10&#45;&gt;Node11</title>
<g id="a_edge10_Node000010_Node000011"><a xlink:title=" ">
<path fill="none" stroke="#63b8ff" d="M946.92,-179.45C958.14,-160.48 985.76,-117.84 1020,-94 1024.93,-90.57 1030.58,-87.73 1036.29,-85.41"/>
<polygon fill="#63b8ff" stroke="#63b8ff" points="1037.61,-88.65 1045.83,-81.96 1035.24,-82.06 1037.61,-88.65"/>
</a>
</g>
</g>
<!-- Node12 -->
<g id="Node000012" class="node">
<title>Node12</title>
<g id="a_Node000012"><a xlink:href="hashmap_8c.html#aa54a9eed65359c74557f0f55c9ca3dd3" target="_top" xlink:title="Get the variable from the dictionnary.">
<polygon fill="white" stroke="#666666" points="1099,-122.5 1046,-122.5 1046,-103.5 1099,-103.5 1099,-122.5"/>
<text text-anchor="middle" x="1072.5" y="-110.5" font-family="Helvetica,sans-Serif" font-size="10.00">get_var</text>
</a>
</g>
</g>
<!-- Node10&#45;&gt;Node12 -->
<g id="edge11_Node000010_Node000012" class="edge">
<title>Node10&#45;&gt;Node12</title>
<g id="a_edge11_Node000010_Node000012"><a xlink:title=" ">
<path fill="none" stroke="#63b8ff" d="M957.96,-179.37C980.24,-166.35 1020.17,-143.01 1046.25,-127.76"/>
<polygon fill="#63b8ff" stroke="#63b8ff" points="1048.3,-130.62 1055.17,-122.55 1044.77,-124.57 1048.3,-130.62"/>
</a>
</g>
</g>
<!-- Node16 -->
<g id="Node000016" class="node">
<title>Node16</title>
<g id="a_Node000016"><a xlink:href="expand_8c.html#ac1225d88933658edb6e51e4ed8f003c3" target="_top" xlink:title=" ">
<polygon fill="white" stroke="#666666" points="1109,-251.5 1036,-251.5 1036,-232.5 1109,-232.5 1109,-251.5"/>
<text text-anchor="middle" x="1072.5" y="-239.5" font-family="Helvetica,sans-Serif" font-size="10.00">val_append</text>
</a>
</g>
</g>
<!-- Node10&#45;&gt;Node16 -->
<g id="edge16_Node000010_Node000016" class="edge">
<title>Node10&#45;&gt;Node16</title>
<g id="a_edge16_Node000010_Node000016"><a xlink:title=" ">
<path fill="none" stroke="#63b8ff" d="M961.63,-198.53C977.38,-205.85 999.89,-216.02 1020,-224 1024.22,-225.68 1028.67,-227.36 1033.12,-228.98"/>
<polygon fill="#63b8ff" stroke="#63b8ff" points="1032.15,-232.35 1042.74,-232.42 1034.5,-225.76 1032.15,-232.35"/>
</a>
</g>
</g>
<!-- Node17 -->
<g id="Node000017" class="node">
<title>Node17</title>
<g id="a_Node000017"><a xlink:href="expand_8c.html#aa0106a12d15398cad9ca20f96f1eb374" target="_top" xlink:title=" ">
<polygon fill="white" stroke="#666666" points="1116.5,-214.5 1028.5,-214.5 1028.5,-195.5 1116.5,-195.5 1116.5,-214.5"/>
<text text-anchor="middle" x="1072.5" y="-202.5" font-family="Helvetica,sans-Serif" font-size="10.00">var_exp_brack</text>
</a>
</g>
</g>
<!-- Node10&#45;&gt;Node17 -->
<g id="edge17_Node000010_Node000017" class="edge">
<title>Node10&#45;&gt;Node17</title>
<g id="a_edge17_Node000010_Node000017"><a xlink:title=" ">
<path fill="none" stroke="#63b8ff" d="M977.71,-193.46C990.16,-194.99 1004.38,-196.74 1017.92,-198.41"/>
<polygon fill="#63b8ff" stroke="#63b8ff" points="1017.75,-201.91 1028.1,-199.66 1018.6,-194.96 1017.75,-201.91"/>
</a>
</g>
</g>
<!-- Node18 -->
<g id="Node000018" class="node">
<title>Node18</title>
<g id="a_Node000018"><a xlink:href="expand_8c.html#a5785fb584914d075e9a5d933e903823c" target="_top" xlink:title=" ">
<polygon fill="white" stroke="#666666" points="1125,-177.5 1020,-177.5 1020,-158.5 1125,-158.5 1125,-177.5"/>
<text text-anchor="middle" x="1072.5" y="-165.5" font-family="Helvetica,sans-Serif" font-size="10.00">var_exp_no_brack</text>
</a>
</g>
</g>
<!-- Node10&#45;&gt;Node18 -->
<g id="edge18_Node000010_Node000018" class="edge">
<title>Node10&#45;&gt;Node18</title>
<g id="a_edge18_Node000010_Node000018"><a xlink:title=" ">
<path fill="none" stroke="#63b8ff" d="M977.71,-183.15C987.72,-181.53 998.87,-179.73 1009.89,-177.95"/>
<polygon fill="#63b8ff" stroke="#63b8ff" points="1010.62,-181.38 1019.94,-176.33 1009.51,-174.47 1010.62,-181.38"/>
</a>
</g>
</g>
<!-- Node12&#45;&gt;Node12 -->
<g id="edge12_Node000012_Node000012" class="edge">
<title>Node12&#45;&gt;Node12</title>
<g id="a_edge12_Node000012_Node000012"><a xlink:title=" ">
<path fill="none" stroke="#63b8ff" d="M1054.93,-122.58C1046.38,-131.23 1052.24,-140.5 1072.5,-140.5 1085.16,-140.5 1092.2,-136.88 1093.61,-132.05"/>
<polygon fill="#63b8ff" stroke="#63b8ff" points="1096.85,-130.72 1090.07,-122.58 1090.29,-133.18 1096.85,-130.72"/>
</a>
</g>
</g>
<!-- Node12&#45;&gt;Node13 -->
<g id="edge13_Node000012_Node000013" class="edge">
<title>Node12&#45;&gt;Node13</title>
<g id="a_edge13_Node000012_Node000013"><a xlink:title=" ">
<path fill="none" stroke="#63b8ff" d="M1099.01,-105.21C1107.51,-102.19 1116.87,-98.4 1125,-94 1140.56,-85.58 1156.55,-73.62 1168.4,-64"/>
<polygon fill="#63b8ff" stroke="#63b8ff" points="1170.77,-66.58 1176.22,-57.5 1166.3,-61.2 1170.77,-66.58"/>
</a>
</g>
</g>
<!-- Node14 -->
<g id="Node000014" class="node">
<title>Node14</title>
<g id="a_Node000014"><a xlink:href="hashmap_8c.html#a5b2c78a0a08d606dfbf21fe636373e6e" target="_top" xlink:title=" ">
<polygon fill="white" stroke="#666666" points="1213.5,-103.5 1162.5,-103.5 1162.5,-84.5 1213.5,-84.5 1213.5,-103.5"/>
<text text-anchor="middle" x="1188" y="-91.5" font-family="Helvetica,sans-Serif" font-size="10.00">special</text>
</a>
</g>
</g>
<!-- Node12&#45;&gt;Node14 -->
<g id="edge14_Node000012_Node000014" class="edge">
<title>Node12&#45;&gt;Node14</title>
<g id="a_edge14_Node000012_Node000014"><a xlink:title=" ">
<path fill="none" stroke="#63b8ff" d="M1099.25,-108.69C1114.85,-106.08 1134.96,-102.71 1151.99,-99.86"/>
<polygon fill="#63b8ff" stroke="#63b8ff" points="1152.84,-103.27 1162.13,-98.16 1151.69,-96.36 1152.84,-103.27"/>
</a>
</g>
</g>
<!-- Node14&#45;&gt;Node15 -->
<g id="edge15_Node000014_Node000015" class="edge">
<title>Node14&#45;&gt;Node15</title>
<g id="a_edge15_Node000014_Node000015"><a xlink:title=" ">
<path fill="none" stroke="#63b8ff" d="M1208.81,-84.41C1218.75,-79.6 1230.93,-73.7 1241.6,-68.54"/>
<polygon fill="#63b8ff" stroke="#63b8ff" points="1243.41,-71.55 1250.88,-64.04 1240.36,-65.25 1243.41,-71.55"/>
</a>
</g>
</g>
<!-- Node19 -->
<g id="Node000019" class="node">
<title>Node19</title>
<g id="a_Node000019"><a xlink:href="expand_8c.html#a66cc7be396f0ef502a888b56eee2f4bf" target="_top" xlink:title=" ">
<polygon fill="white" stroke="#666666" points="1215,-177.5 1161,-177.5 1161,-158.5 1215,-158.5 1215,-177.5"/>
<text text-anchor="middle" x="1188" y="-165.5" font-family="Helvetica,sans-Serif" font-size="10.00">is_word</text>
</a>
</g>
</g>
<!-- Node18&#45;&gt;Node19 -->
<g id="edge19_Node000018_Node000019" class="edge">
<title>Node18&#45;&gt;Node19</title>
<g id="a_edge19_Node000018_Node000019"><a xlink:title=" ">
<path fill="none" stroke="#63b8ff" d="M1125.27,-168C1133.8,-168 1142.49,-168 1150.55,-168"/>
<polygon fill="#63b8ff" stroke="#63b8ff" points="1150.72,-171.5 1160.72,-168 1150.72,-164.5 1150.72,-171.5"/>
</a>
</g>
</g>
</g>
</svg>
