<?xml version="1.0" encoding="UTF-8" standalone="no"?>
<!DOCTYPE svg PUBLIC "-//W3C//DTD SVG 1.1//EN"
 "http://www.w3.org/Graphics/SVG/1.1/DTD/svg11.dtd">
<!-- Generated by graphviz version 2.43.0 (0)
 -->
<!-- Title: itoa Pages: 1 -->
<svg width="2082pt" height="587pt"
 viewBox="0.00 0.00 2082.00 586.50" xmlns="http://www.w3.org/2000/svg" xmlns:xlink="http://www.w3.org/1999/xlink">
<g id="graph0" class="graph" transform="scale(1 1) rotate(0) translate(4 582.5)">
<title>itoa</title>
<!-- Node1 -->
<g id="Node000001" class="node">
<title>Node1</title>
<g id="a_Node000001"><a xlink:title="Convert int to string.">
<polygon fill="#999999" stroke="#666666" points="2074,-503.5 2039,-503.5 2039,-484.5 2074,-484.5 2074,-503.5"/>
<text text-anchor="middle" x="2056.5" y="-491.5" font-family="Helvetica,sans-Serif" font-size="10.00">itoa</text>
</a>
</g>
</g>
<!-- Node2 -->
<g id="Node000002" class="node">
<title>Node2</title>
<g id="a_Node000002"><a xlink:href="io_8c.html#ac8404f84d9b2f3f16fe4d24de44d6050" target="_top" xlink:title="Helper: Ajoute un arg au dictionnaire de variables.">
<polygon fill="white" stroke="#666666" points="1008,-578.5 899,-578.5 899,-559.5 1008,-559.5 1008,-578.5"/>
<text text-anchor="middle" x="953.5" y="-566.5" font-family="Helvetica,sans-Serif" font-size="10.00">add_positional_arg</text>
</a>
</g>
</g>
<!-- Node1&#45;&gt;Node2 -->
<g id="edge1_Node000001_Node000002" class="edge">
<title>Node1&#45;&gt;Node2</title>
<g id="a_edge1_Node000001_Node000002"><a xlink:title=" ">
<path fill="none" stroke="#63b8ff" d="M2035.69,-509.99C2006,-532.28 1947.38,-570 1890.5,-570 1890.5,-570 1890.5,-570 1177.5,-570 1119.62,-570 1053.29,-569.66 1008.12,-569.38"/>
<polygon fill="#63b8ff" stroke="#63b8ff" points="2038.16,-512.51 2043.94,-503.63 2033.88,-506.96 2038.16,-512.51"/>
</a>
</g>
</g>
<!-- Node5 -->
<g id="Node000005" class="node">
<title>Node5</title>
<g id="a_Node000005"><a xlink:href="io_8c.html#aa3aea4ea03b25f3d2e5449741816dbb8" target="_top" xlink:title="Helper &#45;&gt; add number of args to dictionnary.">
<polygon fill="white" stroke="#666666" points="983,-541.5 924,-541.5 924,-522.5 983,-522.5 983,-541.5"/>
<text text-anchor="middle" x="953.5" y="-529.5" font-family="Helvetica,sans-Serif" font-size="10.00">arg_num</text>
</a>
</g>
</g>
<!-- Node1&#45;&gt;Node5 -->
<g id="edge4_Node000001_Node000005" class="edge">
<title>Node1&#45;&gt;Node5</title>
<g id="a_edge4_Node000001_Node000005"><a xlink:title=" ">
<path fill="none" stroke="#63b8ff" d="M2029.38,-503.88C1997.2,-515.14 1940.63,-532 1890.5,-532 1890.5,-532 1890.5,-532 1177.5,-532 1107.62,-532 1025.42,-532 983.01,-532"/>
<polygon fill="#63b8ff" stroke="#63b8ff" points="2030.7,-507.12 2038.93,-500.45 2028.33,-500.53 2030.7,-507.12"/>
</a>
</g>
</g>
<!-- Node6 -->
<g id="Node000006" class="node">
<title>Node6</title>
<g id="a_Node000006"><a xlink:href="hashmap_8c.html#a5b305fb96c9d0ce57bb51cc0e2c434ac" target="_top" xlink:title="Initialise the dictionnary and adds special variables from the get go.">
<polygon fill="white" stroke="#666666" points="840.5,-496.5 784.5,-496.5 784.5,-477.5 840.5,-477.5 840.5,-496.5"/>
<text text-anchor="middle" x="812.5" y="-484.5" font-family="Helvetica,sans-Serif" font-size="10.00">init_dict</text>
</a>
</g>
</g>
<!-- Node1&#45;&gt;Node6 -->
<g id="edge6_Node000001_Node000006" class="edge">
<title>Node1&#45;&gt;Node6</title>
<g id="a_edge6_Node000001_Node000006"><a xlink:title=" ">
<path fill="none" stroke="#63b8ff" d="M2028.52,-494C1995.85,-494 1939.14,-494 1890.5,-494 1890.5,-494 1890.5,-494 1071,-494 986.92,-494 887.46,-490.22 840.56,-488.22"/>
<polygon fill="#63b8ff" stroke="#63b8ff" points="2028.64,-497.5 2038.64,-494 2028.64,-490.5 2028.64,-497.5"/>
</a>
</g>
</g>
<!-- Node7 -->
<g id="Node000007" class="node">
<title>Node7</title>
<g id="a_Node000007"><a xlink:href="hashmap_8c.html#a5b2c78a0a08d606dfbf21fe636373e6e" target="_top" xlink:title=" ">
<polygon fill="white" stroke="#666666" points="2003,-199.5 1952,-199.5 1952,-180.5 2003,-180.5 2003,-199.5"/>
<text text-anchor="middle" x="1977.5" y="-187.5" font-family="Helvetica,sans-Serif" font-size="10.00">special</text>
</a>
</g>
</g>
<!-- Node1&#45;&gt;Node7 -->
<g id="edge8_Node000001_Node000007" class="edge">
<title>Node1&#45;&gt;Node7</title>
<g id="a_edge8_Node000001_Node000007"><a xlink:title=" ">
<path fill="none" stroke="#63b8ff" d="M2050.52,-474.35C2035.62,-415.52 1991.74,-242.26 1980.93,-199.58"/>
<polygon fill="#63b8ff" stroke="#63b8ff" points="2047.18,-475.4 2053.03,-484.23 2053.96,-473.68 2047.18,-475.4"/>
</a>
</g>
</g>
<!-- Node37 -->
<g id="Node000037" class="node">
<title>Node37</title>
<g id="a_Node000037"><a xlink:href="exec_8c.html#a10741ea1c82bec65aa88b283c4a68e5b" target="_top" xlink:title="Update special var &quot;?&quot; with given status.">
<polygon fill="white" stroke="#666666" points="990.5,-313.5 916.5,-313.5 916.5,-294.5 990.5,-294.5 990.5,-313.5"/>
<text text-anchor="middle" x="953.5" y="-301.5" font-family="Helvetica,sans-Serif" font-size="10.00">update_exit</text>
</a>
</g>
</g>
<!-- Node1&#45;&gt;Node37 -->
<g id="edge73_Node000001_Node000037" class="edge">
<title>Node1&#45;&gt;Node37</title>
<g id="a_edge73_Node000001_Node000037"><a xlink:title=" ">
<path fill="none" stroke="#63b8ff" d="M2049.24,-474.71C2032.22,-426.39 1980.26,-304 1890.5,-304 1890.5,-304 1890.5,-304 1177.5,-304 1111.68,-304 1034.94,-304 990.81,-304"/>
<polygon fill="#63b8ff" stroke="#63b8ff" points="2045.98,-475.97 2052.5,-484.32 2052.6,-473.72 2045.98,-475.97"/>
</a>
</g>
</g>
<!-- Node3 -->
<g id="Node000003" class="node">
<title>Node3</title>
<g id="a_Node000003"><a xlink:href="io_8c.html#a8346ebcdde79020ca792f3d4d2d93ec0" target="_top" xlink:title="Gère options scripts et arguments.">
<polygon fill="white" stroke="#666666" points="839,-541.5 786,-541.5 786,-522.5 839,-522.5 839,-541.5"/>
<text text-anchor="middle" x="812.5" y="-529.5" font-family="Helvetica,sans-Serif" font-size="10.00">arg_file</text>
</a>
</g>
</g>
<!-- Node2&#45;&gt;Node3 -->
<g id="edge2_Node000002_Node000003" class="edge">
<title>Node2&#45;&gt;Node3</title>
<g id="a_edge2_Node000002_Node000003"><a xlink:title=" ">
<path fill="none" stroke="#63b8ff" d="M906.98,-556.88C884.44,-550.88 858.06,-543.86 839.08,-538.81"/>
<polygon fill="#63b8ff" stroke="#63b8ff" points="906.14,-560.28 916.7,-559.47 907.94,-553.52 906.14,-560.28"/>
</a>
</g>
</g>
<!-- Node4 -->
<g id="Node000004" class="node">
<title>Node4</title>
<g id="a_Node000004"><a xlink:href="42sh_8c.html#a3c04138a5bfe5d72780bb7e82a18e627" target="_top" xlink:title=" ">
<polygon fill="white" stroke="#666666" points="190,-496.5 149,-496.5 149,-477.5 190,-477.5 190,-496.5"/>
<text text-anchor="middle" x="169.5" y="-484.5" font-family="Helvetica,sans-Serif" font-size="10.00">main</text>
</a>
</g>
</g>
<!-- Node3&#45;&gt;Node4 -->
<g id="edge3_Node000003_Node000004" class="edge">
<title>Node3&#45;&gt;Node4</title>
<g id="a_edge3_Node000003_Node000004"><a xlink:title=" ">
<path fill="none" stroke="#63b8ff" d="M775.59,-530.69C731.96,-529.2 656.09,-527 591,-527 591,-527 591,-527 387.5,-527 313.56,-527 227.77,-504.27 190.02,-493.08"/>
<polygon fill="#63b8ff" stroke="#63b8ff" points="775.59,-534.19 785.7,-531.04 775.83,-527.19 775.59,-534.19"/>
</a>
</g>
</g>
<!-- Node5&#45;&gt;Node3 -->
<g id="edge5_Node000005_Node000003" class="edge">
<title>Node5&#45;&gt;Node3</title>
<g id="a_edge5_Node000005_Node000003"><a xlink:title=" ">
<path fill="none" stroke="#63b8ff" d="M913.62,-532C889.93,-532 860.31,-532 839.45,-532"/>
<polygon fill="#63b8ff" stroke="#63b8ff" points="913.7,-535.5 923.7,-532 913.7,-528.5 913.7,-535.5"/>
</a>
</g>
</g>
<!-- Node6&#45;&gt;Node4 -->
<g id="edge7_Node000006_Node000004" class="edge">
<title>Node6&#45;&gt;Node4</title>
<g id="a_edge7_Node000006_Node000004"><a xlink:title=" ">
<path fill="none" stroke="#63b8ff" d="M774.15,-487C730.3,-487 655.36,-487 591,-487 591,-487 591,-487 387.5,-487 314.79,-487 228.38,-487 190.25,-487"/>
<polygon fill="#63b8ff" stroke="#63b8ff" points="774.34,-490.5 784.34,-487 774.34,-483.5 774.34,-490.5"/>
</a>
</g>
</g>
<!-- Node8 -->
<g id="Node000008" class="node">
<title>Node8</title>
<g id="a_Node000008"><a xlink:href="hashmap_8c.html#aa54a9eed65359c74557f0f55c9ca3dd3" target="_top" xlink:title="Get the variable from the dictionnary.">
<polygon fill="white" stroke="#666666" points="1916,-123.5 1863,-123.5 1863,-104.5 1916,-104.5 1916,-123.5"/>
<text text-anchor="middle" x="1889.5" y="-111.5" font-family="Helvetica,sans-Serif" font-size="10.00">get_var</text>
</a>
</g>
</g>
<!-- Node7&#45;&gt;Node8 -->
<g id="edge9_Node000007_Node000008" class="edge">
<title>Node7&#45;&gt;Node8</title>
<g id="a_edge9_Node000007_Node000008"><a xlink:title=" ">
<path fill="none" stroke="#63b8ff" d="M1957.84,-173.51C1940.56,-158.24 1915.47,-136.07 1901.3,-123.55"/>
<polygon fill="#63b8ff" stroke="#63b8ff" points="1955.8,-176.38 1965.61,-180.37 1960.43,-171.13 1955.8,-176.38"/>
</a>
</g>
</g>
<!-- Node8&#45;&gt;Node8 -->
<g id="edge44_Node000008_Node000008" class="edge">
<title>Node8&#45;&gt;Node8</title>
<g id="a_edge44_Node000008_Node000008"><a xlink:title=" ">
<path fill="none" stroke="#63b8ff" d="M1905.71,-133.41C1904.43,-138.06 1899.03,-141.5 1889.5,-141.5 1873.86,-141.5 1869.34,-132.23 1875.94,-123.58"/>
<polygon fill="#63b8ff" stroke="#63b8ff" points="1909.04,-132.33 1903.06,-123.58 1902.28,-134.15 1909.04,-132.33"/>
</a>
</g>
</g>
<!-- Node9 -->
<g id="Node000009" class="node">
<title>Node9</title>
<g id="a_Node000009"><a xlink:href="dot_8c.html#a713938d3c6ee343132c429642048bcf6" target="_top" xlink:title="Execute the dot builtin cmd.">
<polygon fill="white" stroke="#666666" points="834.5,-47.5 790.5,-47.5 790.5,-28.5 834.5,-28.5 834.5,-47.5"/>
<text text-anchor="middle" x="812.5" y="-35.5" font-family="Helvetica,sans-Serif" font-size="10.00">dot_b</text>
</a>
</g>
</g>
<!-- Node8&#45;&gt;Node9 -->
<g id="edge10_Node000008_Node000009" class="edge">
<title>Node8&#45;&gt;Node9</title>
<g id="a_edge10_Node000008_Node000009"><a xlink:title=" ">
<path fill="none" stroke="#63b8ff" d="M1864.05,-99.15C1825.23,-77.03 1746.48,-38 1674,-38 1674,-38 1674,-38 1071,-38 983.15,-38 878.45,-38 834.53,-38"/>
<polygon fill="#63b8ff" stroke="#63b8ff" points="1862.62,-102.37 1873.03,-104.37 1866.14,-96.32 1862.62,-102.37"/>
</a>
</g>
</g>
<!-- Node21 -->
<g id="Node000021" class="node">
<title>Node21</title>
<g id="a_Node000021"><a xlink:href="exec_8c.html#a23babf893bbcd2f6126698a1a19b169f" target="_top" xlink:title="Execute funct with given arguments.">
<polygon fill="white" stroke="#666666" points="202,-83.5 137,-83.5 137,-64.5 202,-64.5 202,-83.5"/>
<text text-anchor="middle" x="169.5" y="-71.5" font-family="Helvetica,sans-Serif" font-size="10.00">exec_func</text>
</a>
</g>
</g>
<!-- Node8&#45;&gt;Node21 -->
<g id="edge38_Node000008_Node000021" class="edge">
<title>Node8&#45;&gt;Node21</title>
<g id="a_edge38_Node000008_Node000021"><a xlink:title=" ">
<path fill="none" stroke="#63b8ff" d="M1876.06,-95.77C1864.87,-80.67 1847.12,-59.7 1827,-47 1766.85,-9.03 1745.14,0 1674,0 1674,0 1674,0 387.5,0 308.49,0 221.54,-44.49 186.47,-64.48"/>
<polygon fill="#63b8ff" stroke="#63b8ff" points="1873.48,-98.19 1882.15,-104.29 1879.18,-94.12 1873.48,-98.19"/>
</a>
</g>
</g>
<!-- Node25 -->
<g id="Node000025" class="node">
<title>Node25</title>
<g id="a_Node000025"><a xlink:href="export_8c.html#a8b18baf315f49dfc9d40e9a05a8eaa24" target="_top" xlink:title="Execute export builtin cmd.">
<polygon fill="white" stroke="#666666" points="983,-237.5 924,-237.5 924,-218.5 983,-218.5 983,-237.5"/>
<text text-anchor="middle" x="953.5" y="-225.5" font-family="Helvetica,sans-Serif" font-size="10.00">export_b</text>
</a>
</g>
</g>
<!-- Node8&#45;&gt;Node25 -->
<g id="edge39_Node000008_Node000025" class="edge">
<title>Node8&#45;&gt;Node25</title>
<g id="a_edge39_Node000008_Node000025"><a xlink:title=" ">
<path fill="none" stroke="#63b8ff" d="M1852.86,-124.26C1810.58,-135.52 1737.76,-152 1674,-152 1674,-152 1674,-152 1177.5,-152 1172.41,-152 1040.48,-197.92 981.99,-218.37"/>
<polygon fill="#63b8ff" stroke="#63b8ff" points="1853.94,-127.6 1862.68,-121.6 1852.11,-120.84 1853.94,-127.6"/>
</a>
</g>
</g>
<!-- Node26 -->
<g id="Node000026" class="node">
<title>Node26</title>
<g id="a_Node000026"><a xlink:href="cd_8c.html#a5da9da23a18f984a482a5dec3bf3b37f" target="_top" xlink:title="Find the target path for cd command.">
<polygon fill="white" stroke="#666666" points="1704,-85.5 1642,-85.5 1642,-66.5 1704,-66.5 1704,-85.5"/>
<text text-anchor="middle" x="1673" y="-73.5" font-family="Helvetica,sans-Serif" font-size="10.00">find_path</text>
</a>
</g>
</g>
<!-- Node8&#45;&gt;Node26 -->
<g id="edge41_Node000008_Node000026" class="edge">
<title>Node8&#45;&gt;Node26</title>
<g id="a_edge41_Node000008_Node000026"><a xlink:title=" ">
<path fill="none" stroke="#63b8ff" d="M1852.88,-105.46C1844.42,-103.55 1835.41,-101.61 1827,-100 1784.49,-91.84 1734.93,-84.45 1704.01,-80.09"/>
<polygon fill="#63b8ff" stroke="#63b8ff" points="1852.32,-108.92 1862.85,-107.75 1853.89,-102.1 1852.32,-108.92"/>
</a>
</g>
</g>
<!-- Node28 -->
<g id="Node000028" class="node">
<title>Node28</title>
<g id="a_Node000028"><a xlink:href="cd_8c.html#a9eb5212e3fb105823c28e343ce5ca946" target="_top" xlink:title="Update PWD and OLDPWD vars after cd.">
<polygon fill="white" stroke="#666666" points="991.5,-199.5 915.5,-199.5 915.5,-180.5 991.5,-180.5 991.5,-199.5"/>
<text text-anchor="middle" x="953.5" y="-187.5" font-family="Helvetica,sans-Serif" font-size="10.00">update_pwd</text>
</a>
</g>
</g>
<!-- Node8&#45;&gt;Node28 -->
<g id="edge45_Node000008_Node000028" class="edge">
<title>Node8&#45;&gt;Node28</title>
<g id="a_edge45_Node000008_Node000028"><a xlink:title=" ">
<path fill="none" stroke="#63b8ff" d="M1852.6,-114C1810,-114 1736.82,-114 1674,-114 1674,-114 1674,-114 1177.5,-114 1117.22,-114 1100.59,-117.21 1044,-138 1014.99,-148.66 984.56,-168.47 967.71,-180.32"/>
<polygon fill="#63b8ff" stroke="#63b8ff" points="1852.75,-117.5 1862.75,-114 1852.75,-110.5 1852.75,-117.5"/>
</a>
</g>
</g>
<!-- Node29 -->
<g id="Node000029" class="node">
<title>Node29</title>
<g id="a_Node000029"><a xlink:href="expand_8c.html#a0a337c3a6b2595b2b8c03e171c9559ba" target="_top" xlink:title=" ">
<polygon fill="white" stroke="#666666" points="1827,-199.5 1753,-199.5 1753,-180.5 1827,-180.5 1827,-199.5"/>
<text text-anchor="middle" x="1790" y="-187.5" font-family="Helvetica,sans-Serif" font-size="10.00">var_expand</text>
</a>
</g>
</g>
<!-- Node8&#45;&gt;Node29 -->
<g id="edge47_Node000008_Node000029" class="edge">
<title>Node8&#45;&gt;Node29</title>
<g id="a_edge47_Node000008_Node000029"><a xlink:title=" ">
<path fill="none" stroke="#63b8ff" d="M1870.35,-130.29C1858.33,-140.84 1842.07,-154.66 1827,-166 1820.4,-170.97 1812.82,-176.1 1806.33,-180.33"/>
<polygon fill="#63b8ff" stroke="#63b8ff" points="1872.75,-132.84 1877.92,-123.59 1868.11,-127.6 1872.75,-132.84"/>
</a>
</g>
</g>
<!-- Node10 -->
<g id="Node000010" class="node">
<title>Node10</title>
<g id="a_Node000010"><a xlink:href="exec_8c.html#abaeb177587c7eec6a064b35bb8399cae" target="_top" xlink:title="Execute builtin cmd with given args.">
<polygon fill="white" stroke="#666666" points="726,-218.5 651,-218.5 651,-199.5 726,-199.5 726,-218.5"/>
<text text-anchor="middle" x="688.5" y="-206.5" font-family="Helvetica,sans-Serif" font-size="10.00">exec_builtin</text>
</a>
</g>
</g>
<!-- Node9&#45;&gt;Node10 -->
<g id="edge11_Node000009_Node000010" class="edge">
<title>Node9&#45;&gt;Node10</title>
<g id="a_edge11_Node000009_Node000010"><a xlink:title=" ">
<path fill="none" stroke="#63b8ff" d="M798.47,-56.27C772.68,-92.41 715.95,-171.93 696.33,-199.42"/>
<polygon fill="#63b8ff" stroke="#63b8ff" points="801.63,-57.86 804.59,-47.68 795.93,-53.79 801.63,-57.86"/>
</a>
</g>
</g>
<!-- Node11 -->
<g id="Node000011" class="node">
<title>Node11</title>
<g id="a_Node000011"><a xlink:href="exec_8c.html#a287d81b4658832f192750310e2925917" target="_top" xlink:title="Execute the builtin command with given args.">
<polygon fill="white" stroke="#666666" points="615,-275.5 565,-275.5 565,-256.5 615,-256.5 615,-275.5"/>
<text text-anchor="middle" x="590" y="-263.5" font-family="Helvetica,sans-Serif" font-size="10.00">exec_b</text>
</a>
</g>
</g>
<!-- Node10&#45;&gt;Node11 -->
<g id="edge12_Node000010_Node000011" class="edge">
<title>Node10&#45;&gt;Node11</title>
<g id="a_edge12_Node000010_Node000011"><a xlink:title=" ">
<path fill="none" stroke="#63b8ff" d="M662.07,-224.02C644.66,-234.3 622.11,-247.62 607.13,-256.47"/>
<polygon fill="#63b8ff" stroke="#63b8ff" points="664.3,-226.77 671.13,-218.67 660.74,-220.74 664.3,-226.77"/>
</a>
</g>
</g>
<!-- Node12 -->
<g id="Node000012" class="node">
<title>Node12</title>
<g id="a_Node000012"><a xlink:href="exec_8c.html#ae65edaa99b26b49d60c451157d38b34a" target="_top" xlink:title="Execute les commandes avec les args donnes.">
<polygon fill="white" stroke="#666666" points="529,-276.5 464,-276.5 464,-257.5 529,-257.5 529,-276.5"/>
<text text-anchor="middle" x="496.5" y="-264.5" font-family="Helvetica,sans-Serif" font-size="10.00">exec_cmd</text>
</a>
</g>
</g>
<!-- Node11&#45;&gt;Node12 -->
<g id="edge13_Node000011_Node000012" class="edge">
<title>Node11&#45;&gt;Node12</title>
<g id="a_edge13_Node000011_Node000012"><a xlink:title=" ">
<path fill="none" stroke="#63b8ff" d="M554.77,-266.37C546.42,-266.47 537.53,-266.56 529.3,-266.65"/>
<polygon fill="#63b8ff" stroke="#63b8ff" points="555,-269.87 564.96,-266.26 554.92,-262.87 555,-269.87"/>
</a>
</g>
</g>
<!-- Node13 -->
<g id="Node000013" class="node">
<title>Node13</title>
<g id="a_Node000013"><a xlink:href="ast__run_8c.html#aeb6878a59c6907e5669fc3cc428913d9" target="_top" xlink:title=" ">
<polygon fill="white" stroke="#666666" points="428,-277.5 349,-277.5 349,-258.5 428,-258.5 428,-277.5"/>
<text text-anchor="middle" x="388.5" y="-265.5" font-family="Helvetica,sans-Serif" font-size="10.00">ast_run_cmd</text>
</a>
</g>
</g>
<!-- Node12&#45;&gt;Node13 -->
<g id="edge14_Node000012_Node000013" class="edge">
<title>Node12&#45;&gt;Node13</title>
<g id="a_edge14_Node000012_Node000013"><a xlink:title=" ">
<path fill="none" stroke="#63b8ff" d="M453.92,-267.39C445.45,-267.47 436.58,-267.56 428.21,-267.63"/>
<polygon fill="#63b8ff" stroke="#63b8ff" points="454.02,-270.89 463.98,-267.3 453.95,-263.89 454.02,-270.89"/>
</a>
</g>
</g>
<!-- Node14 -->
<g id="Node000014" class="node">
<title>Node14</title>
<g id="a_Node000014"><a xlink:href="ast_8c.html#a572345b2707780bbbc5bbaacdca9c372" target="_top" xlink:title=" ">
<polygon fill="white" stroke="#666666" points="313,-280.5 260,-280.5 260,-261.5 313,-261.5 313,-280.5"/>
<text text-anchor="middle" x="286.5" y="-268.5" font-family="Helvetica,sans-Serif" font-size="10.00">run_ast</text>
</a>
</g>
</g>
<!-- Node13&#45;&gt;Node14 -->
<g id="edge15_Node000013_Node000014" class="edge">
<title>Node13&#45;&gt;Node14</title>
<g id="a_edge15_Node000013_Node000014"><a xlink:title=" ">
<path fill="none" stroke="#63b8ff" d="M338.58,-269.47C329.76,-269.73 320.9,-270 313.1,-270.23"/>
<polygon fill="#63b8ff" stroke="#63b8ff" points="338.95,-272.96 348.84,-269.16 338.74,-265.96 338.95,-272.96"/>
</a>
</g>
</g>
<!-- Node14&#45;&gt;Node4 -->
<g id="edge35_Node000014_Node000004" class="edge">
<title>Node14&#45;&gt;Node4</title>
<g id="a_edge35_Node000014_Node000004"><a xlink:title=" ">
<path fill="none" stroke="#63b8ff" d="M284.45,-291.16C281.4,-329.53 269.6,-413.72 224,-464 215.17,-473.74 201.51,-479.51 190.21,-482.84"/>
<polygon fill="#63b8ff" stroke="#63b8ff" points="287.96,-291.02 285.14,-280.81 280.98,-290.55 287.96,-291.02"/>
</a>
</g>
</g>
<!-- Node15 -->
<g id="Node000015" class="node">
<title>Node15</title>
<g id="a_Node000015"><a xlink:href="ast__run_8c.html#a8a01fec616135007fc5b3968a101901b" target="_top" xlink:title=" ">
<polygon fill="white" stroke="#666666" points="215,-323.5 124,-323.5 124,-304.5 215,-304.5 215,-323.5"/>
<text text-anchor="middle" x="169.5" y="-311.5" font-family="Helvetica,sans-Serif" font-size="10.00">ast_run_and_or</text>
</a>
</g>
</g>
<!-- Node14&#45;&gt;Node15 -->
<g id="edge16_Node000014_Node000015" class="edge">
<title>Node14&#45;&gt;Node15</title>
<g id="a_edge16_Node000014_Node000015"><a xlink:title=" ">
<path fill="none" stroke="#63b8ff" d="M250.5,-276.94C241.87,-280.16 232.64,-283.8 224,-287 208.75,-292.66 190.78,-298.55 180.03,-304.44"/>
<polygon fill="#63b8ff" stroke="#63b8ff" points="251.69,-280.23 259.9,-273.53 249.31,-273.64 251.69,-280.23"/>
</a>
</g>
</g>
<!-- Node16 -->
<g id="Node000016" class="node">
<title>Node16</title>
<g id="a_Node000016"><a xlink:href="ast__run_8c.html#a9d83d4834a61ffe21eb77838d70ae173" target="_top" xlink:title=" ">
<polygon fill="white" stroke="#666666" points="205,-454.5 134,-454.5 134,-435.5 205,-435.5 205,-454.5"/>
<text text-anchor="middle" x="169.5" y="-442.5" font-family="Helvetica,sans-Serif" font-size="10.00">ast_run_for</text>
</a>
</g>
</g>
<!-- Node14&#45;&gt;Node16 -->
<g id="edge18_Node000014_Node000016" class="edge">
<title>Node14&#45;&gt;Node16</title>
<g id="a_edge18_Node000014_Node000016"><a xlink:title=" ">
<path fill="none" stroke="#63b8ff" d="M280.97,-290.87C274.03,-320.87 257.85,-377.03 224,-412 212.81,-423.56 195.06,-429.99 183.1,-435.34"/>
<polygon fill="#63b8ff" stroke="#63b8ff" points="284.46,-291.27 283.19,-280.75 277.63,-289.77 284.46,-291.27"/>
</a>
</g>
</g>
<!-- Node17 -->
<g id="Node000017" class="node">
<title>Node17</title>
<g id="a_Node000017"><a xlink:href="ast__run_8c.html#a0a7138b1f2608ea36211c9b78988c248" target="_top" xlink:title=" ">
<polygon fill="white" stroke="#666666" points="202,-286.5 137,-286.5 137,-267.5 202,-267.5 202,-286.5"/>
<text text-anchor="middle" x="169.5" y="-274.5" font-family="Helvetica,sans-Serif" font-size="10.00">ast_run_if</text>
</a>
</g>
</g>
<!-- Node14&#45;&gt;Node17 -->
<g id="edge20_Node000014_Node000017" class="edge">
<title>Node14&#45;&gt;Node17</title>
<g id="a_edge20_Node000014_Node000017"><a xlink:title=" ">
<path fill="none" stroke="#63b8ff" d="M249.86,-266.56C234.59,-266.7 216.9,-267.68 202.11,-269.25"/>
<polygon fill="#63b8ff" stroke="#63b8ff" points="249.96,-270.06 259.98,-266.61 249.99,-263.06 249.96,-270.06"/>
</a>
</g>
</g>
<!-- Node18 -->
<g id="Node000018" class="node">
<title>Node18</title>
<g id="a_Node000018"><a xlink:href="ast__run_8c.html#ae25cd3ced8abafd76110dba8852a6b87" target="_top" xlink:title=" ">
<polygon fill="white" stroke="#666666" points="206,-231.5 133,-231.5 133,-212.5 206,-212.5 206,-231.5"/>
<text text-anchor="middle" x="169.5" y="-219.5" font-family="Helvetica,sans-Serif" font-size="10.00">ast_run_list</text>
</a>
</g>
</g>
<!-- Node14&#45;&gt;Node18 -->
<g id="edge22_Node000014_Node000018" class="edge">
<title>Node14&#45;&gt;Node18</title>
<g id="a_edge22_Node000014_Node000018"><a xlink:title=" ">
<path fill="none" stroke="#63b8ff" d="M264,-256.44C247.75,-248.09 225.09,-238.14 206.15,-230.89"/>
<polygon fill="#63b8ff" stroke="#63b8ff" points="262.73,-259.73 273.19,-261.39 266.05,-253.57 262.73,-259.73"/>
</a>
</g>
</g>
<!-- Node19 -->
<g id="Node000019" class="node">
<title>Node19</title>
<g id="a_Node000019"><a xlink:href="ast__run_8c.html#a536f37ba9bffcd2099fef668656181e0" target="_top" xlink:title=" ">
<polygon fill="white" stroke="#666666" points="209,-194.5 130,-194.5 130,-175.5 209,-175.5 209,-194.5"/>
<text text-anchor="middle" x="169.5" y="-182.5" font-family="Helvetica,sans-Serif" font-size="10.00">ast_run_loop</text>
</a>
</g>
</g>
<!-- Node14&#45;&gt;Node19 -->
<g id="edge25_Node000014_Node000019" class="edge">
<title>Node14&#45;&gt;Node19</title>
<g id="a_edge25_Node000014_Node000019"><a xlink:title=" ">
<path fill="none" stroke="#63b8ff" d="M277,-252.18C266.26,-234.63 246.44,-209.85 224,-195 219.4,-191.95 214.25,-189.33 209.01,-187.19"/>
<polygon fill="#63b8ff" stroke="#63b8ff" points="274.05,-254.08 282,-261.09 280.16,-250.65 274.05,-254.08"/>
</a>
</g>
</g>
<!-- Node20 -->
<g id="Node000020" class="node">
<title>Node20</title>
<g id="a_Node000020"><a xlink:href="ast__run_8c.html#aa3e6a973e744d748ee415840596beb53" target="_top" xlink:title=" ">
<polygon fill="white" stroke="#666666" points="224,-157.5 115,-157.5 115,-138.5 224,-138.5 224,-157.5"/>
<text text-anchor="middle" x="169.5" y="-145.5" font-family="Helvetica,sans-Serif" font-size="10.00">ast_run_shell_redir</text>
</a>
</g>
</g>
<!-- Node14&#45;&gt;Node20 -->
<g id="edge27_Node000014_Node000020" class="edge">
<title>Node14&#45;&gt;Node20</title>
<g id="a_edge27_Node000014_Node000020"><a xlink:title=" ">
<path fill="none" stroke="#63b8ff" d="M280.91,-251.73C272.83,-226.23 254.03,-182.74 224,-158 223.85,-157.87 223.69,-157.75 223.54,-157.63"/>
<polygon fill="#63b8ff" stroke="#63b8ff" points="277.58,-252.82 283.72,-261.46 284.31,-250.88 277.58,-252.82"/>
</a>
</g>
</g>
<!-- Node14&#45;&gt;Node21 -->
<g id="edge29_Node000014_Node000021" class="edge">
<title>Node14&#45;&gt;Node21</title>
<g id="a_edge29_Node000014_Node000021"><a xlink:title=" ">
<path fill="none" stroke="#63b8ff" d="M284.25,-250.97C280.88,-214.35 268.59,-136.31 224,-92 218.02,-86.06 210.02,-82.08 202.03,-79.41"/>
<polygon fill="#63b8ff" stroke="#63b8ff" points="280.78,-251.61 285.05,-261.31 287.76,-251.06 280.78,-251.61"/>
</a>
</g>
</g>
<!-- Node22 -->
<g id="Node000022" class="node">
<title>Node22</title>
<g id="a_Node000022"><a xlink:href="exec_8c.html#ab743cb88e12e9b922050925fd2075e36" target="_top" xlink:title="Execute a pipeline of commands.">
<polygon fill="white" stroke="#666666" points="202,-360.5 137,-360.5 137,-341.5 202,-341.5 202,-360.5"/>
<text text-anchor="middle" x="169.5" y="-348.5" font-family="Helvetica,sans-Serif" font-size="10.00">exec_pipe</text>
</a>
</g>
</g>
<!-- Node14&#45;&gt;Node22 -->
<g id="edge31_Node000014_Node000022" class="edge">
<title>Node14&#45;&gt;Node22</title>
<g id="a_edge31_Node000014_Node000022"><a xlink:title=" ">
<path fill="none" stroke="#63b8ff" d="M271.93,-288.63C260.48,-302.42 242.97,-321.19 224,-333 217.35,-337.14 209.63,-340.46 202.16,-343.05"/>
<polygon fill="#63b8ff" stroke="#63b8ff" points="274.69,-290.77 278.23,-280.79 269.24,-286.39 274.69,-290.77"/>
</a>
</g>
</g>
<!-- Node24 -->
<g id="Node000024" class="node">
<title>Node24</title>
<g id="a_Node000024"><a xlink:href="dot_8c.html#a17477ee2b0f1b8b9306566c990d15b35" target="_top" xlink:title="Main loop of dot builtin.">
<polygon fill="white" stroke="#666666" points="203.5,-120.5 135.5,-120.5 135.5,-101.5 203.5,-101.5 203.5,-120.5"/>
<text text-anchor="middle" x="169.5" y="-108.5" font-family="Helvetica,sans-Serif" font-size="10.00">main_loop</text>
</a>
</g>
</g>
<!-- Node14&#45;&gt;Node24 -->
<g id="edge36_Node000014_Node000024" class="edge">
<title>Node14&#45;&gt;Node24</title>
<g id="a_edge36_Node000014_Node000024"><a xlink:title=" ">
<path fill="none" stroke="#63b8ff" d="M282.04,-251.11C275.75,-220.85 259.68,-163.27 224,-130 218.3,-124.69 211.03,-120.85 203.69,-118.07"/>
<polygon fill="#63b8ff" stroke="#63b8ff" points="278.66,-252.1 283.98,-261.26 285.54,-250.78 278.66,-252.1"/>
</a>
</g>
</g>
<!-- Node15&#45;&gt;Node14 -->
<g id="edge17_Node000015_Node000014" class="edge">
<title>Node15&#45;&gt;Node14</title>
<g id="a_edge17_Node000015_Node000014"><a xlink:title=" ">
<path fill="none" stroke="#63b8ff" d="M224.83,-304.58C248.3,-295.7 266.83,-287.62 277.21,-280.54"/>
<polygon fill="#63b8ff" stroke="#63b8ff" points="223.38,-301.39 215.24,-308.16 225.83,-307.95 223.38,-301.39"/>
</a>
</g>
</g>
<!-- Node16&#45;&gt;Node14 -->
<g id="edge19_Node000016_Node000014" class="edge">
<title>Node16&#45;&gt;Node14</title>
<g id="a_edge19_Node000016_Node000014"><a xlink:title=" ">
<path fill="none" stroke="#63b8ff" d="M214.02,-438.06C217.65,-435.73 221.05,-433.04 224,-430 266.48,-386.11 281.13,-308.85 284.61,-280.85"/>
<polygon fill="#63b8ff" stroke="#63b8ff" points="212.34,-434.99 205.23,-442.85 215.69,-441.14 212.34,-434.99"/>
</a>
</g>
</g>
<!-- Node17&#45;&gt;Node14 -->
<g id="edge21_Node000017_Node000014" class="edge">
<title>Node17&#45;&gt;Node14</title>
<g id="a_edge21_Node000017_Node000014"><a xlink:title=" ">
<path fill="none" stroke="#63b8ff" d="M212.29,-281.34C228.26,-280.98 245.97,-279.79 259.98,-278.05"/>
<polygon fill="#63b8ff" stroke="#63b8ff" points="212.07,-277.84 202.11,-281.45 212.15,-284.84 212.07,-277.84"/>
</a>
</g>
</g>
<!-- Node18&#45;&gt;Node14 -->
<g id="edge24_Node000018_Node000014" class="edge">
<title>Node18&#45;&gt;Node14</title>
<g id="a_edge24_Node000018_Node000014"><a xlink:title=" ">
<path fill="none" stroke="#63b8ff" d="M191.77,-236.44C211.05,-246.36 239.49,-258.59 259.98,-265.85"/>
<polygon fill="#63b8ff" stroke="#63b8ff" points="193.34,-233.31 182.87,-231.65 190.02,-239.47 193.34,-233.31"/>
</a>
</g>
</g>
<!-- Node18&#45;&gt;Node18 -->
<g id="edge23_Node000018_Node000018" class="edge">
<title>Node18&#45;&gt;Node18</title>
<g id="a_edge23_Node000018_Node000018"><a xlink:title=" ">
<path fill="none" stroke="#63b8ff" d="M190.98,-241.05C189.55,-245.88 182.39,-249.5 169.5,-249.5 148.88,-249.5 142.92,-240.23 151.62,-231.58"/>
<polygon fill="#63b8ff" stroke="#63b8ff" points="194.2,-239.69 187.38,-231.58 187.66,-242.17 194.2,-239.69"/>
</a>
</g>
</g>
<!-- Node19&#45;&gt;Node14 -->
<g id="edge26_Node000019_Node000014" class="edge">
<title>Node19&#45;&gt;Node14</title>
<g id="a_edge26_Node000019_Node000014"><a xlink:title=" ">
<path fill="none" stroke="#63b8ff" d="M192.18,-198.23C202.38,-202.12 214.38,-206.63 224,-213 244.41,-226.51 262.65,-248.22 273.86,-261.25"/>
<polygon fill="#63b8ff" stroke="#63b8ff" points="193.33,-194.92 182.74,-194.51 190.76,-201.43 193.33,-194.92"/>
</a>
</g>
</g>
<!-- Node20&#45;&gt;Node14 -->
<g id="edge28_Node000020_Node000014" class="edge">
<title>Node20&#45;&gt;Node14</title>
<g id="a_edge28_Node000020_Node000014"><a xlink:title=" ">
<path fill="none" stroke="#63b8ff" d="M194.73,-161.07C204.61,-164.64 215.64,-169.12 224,-176 253.31,-200.14 271.91,-242.13 280.3,-261.49"/>
<polygon fill="#63b8ff" stroke="#63b8ff" points="195.61,-157.66 185.02,-157.6 193.26,-164.26 195.61,-157.66"/>
</a>
</g>
</g>
<!-- Node21&#45;&gt;Node12 -->
<g id="edge30_Node000021_Node000012" class="edge">
<title>Node21&#45;&gt;Node12</title>
<g id="a_edge30_Node000021_Node000012"><a xlink:title=" ">
<path fill="none" stroke="#63b8ff" d="M211.84,-86.75C216.01,-88.38 220.13,-90.14 224,-92 330.62,-143.31 445.92,-228.92 483.17,-257.44"/>
<polygon fill="#63b8ff" stroke="#63b8ff" points="212.73,-83.35 202.14,-83.2 210.32,-89.92 212.73,-83.35"/>
</a>
</g>
</g>
<!-- Node22&#45;&gt;Node22 -->
<g id="edge34_Node000022_Node000022" class="edge">
<title>Node22&#45;&gt;Node22</title>
<g id="a_edge34_Node000022_Node000022"><a xlink:title=" ">
<path fill="none" stroke="#63b8ff" d="M190.98,-370.05C189.55,-374.88 182.39,-378.5 169.5,-378.5 148.88,-378.5 142.92,-369.23 151.62,-360.58"/>
<polygon fill="#63b8ff" stroke="#63b8ff" points="194.2,-368.69 187.38,-360.58 187.66,-371.17 194.2,-368.69"/>
</a>
</g>
</g>
<!-- Node23 -->
<g id="Node000023" class="node">
<title>Node23</title>
<g id="a_Node000023"><a xlink:href="ast__run_8c.html#a24d0223822f7b635628199085c3283be" target="_top" xlink:title=" ">
<polygon fill="white" stroke="#666666" points="79,-388.5 0,-388.5 0,-369.5 79,-369.5 79,-388.5"/>
<text text-anchor="middle" x="39.5" y="-376.5" font-family="Helvetica,sans-Serif" font-size="10.00">ast_run_pipe</text>
</a>
</g>
</g>
<!-- Node22&#45;&gt;Node23 -->
<g id="edge32_Node000022_Node000023" class="edge">
<title>Node22&#45;&gt;Node23</title>
<g id="a_edge32_Node000022_Node000023"><a xlink:title=" ">
<path fill="none" stroke="#63b8ff" d="M127.06,-360.06C111.65,-363.44 94.23,-367.25 79.08,-370.56"/>
<polygon fill="#63b8ff" stroke="#63b8ff" points="127.84,-363.48 136.86,-357.92 126.34,-356.64 127.84,-363.48"/>
</a>
</g>
</g>
<!-- Node23&#45;&gt;Node14 -->
<g id="edge33_Node000023_Node000014" class="edge">
<title>Node23&#45;&gt;Node14</title>
<g id="a_edge33_Node000023_Node000014"><a xlink:title=" ">
<path fill="none" stroke="#63b8ff" d="M75.43,-391.6C114.59,-403.39 178.54,-415.46 224,-388 264.07,-363.79 279.33,-303.87 283.88,-280.52"/>
<polygon fill="#63b8ff" stroke="#63b8ff" points="76.39,-388.23 65.8,-388.55 74.28,-394.9 76.39,-388.23"/>
</a>
</g>
</g>
<!-- Node24&#45;&gt;Node9 -->
<g id="edge37_Node000024_Node000009" class="edge">
<title>Node24&#45;&gt;Node9</title>
<g id="a_edge37_Node000024_Node000009"><a xlink:title=" ">
<path fill="none" stroke="#63b8ff" d="M213.71,-98.81C288.82,-78.04 440.68,-38 495.5,-38 591,-38 591,-38 591,-38 664.12,-38 750.87,-38 790.21,-38"/>
<polygon fill="#63b8ff" stroke="#63b8ff" points="212.33,-95.56 203.64,-101.61 214.21,-102.3 212.33,-95.56"/>
</a>
</g>
</g>
<!-- Node25&#45;&gt;Node10 -->
<g id="edge40_Node000025_Node000010" class="edge">
<title>Node25&#45;&gt;Node10</title>
<g id="a_edge40_Node000025_Node000010"><a xlink:title=" ">
<path fill="none" stroke="#63b8ff" d="M913.66,-225.19C863.13,-221.54 775.49,-215.21 726.09,-211.64"/>
<polygon fill="#63b8ff" stroke="#63b8ff" points="913.63,-228.7 923.85,-225.93 914.13,-221.72 913.63,-228.7"/>
</a>
</g>
</g>
<!-- Node27 -->
<g id="Node000027" class="node">
<title>Node27</title>
<g id="a_Node000027"><a xlink:href="cd_8c.html#a592b884dd32e14e084c461b3372632b4" target="_top" xlink:title="Execute the cd builtin cmd.">
<polygon fill="white" stroke="#666666" points="832,-199.5 793,-199.5 793,-180.5 832,-180.5 832,-199.5"/>
<text text-anchor="middle" x="812.5" y="-187.5" font-family="Helvetica,sans-Serif" font-size="10.00">cd_b</text>
</a>
</g>
</g>
<!-- Node26&#45;&gt;Node27 -->
<g id="edge42_Node000026_Node000027" class="edge">
<title>Node26&#45;&gt;Node27</title>
<g id="a_edge42_Node000026_Node000027"><a xlink:title=" ">
<path fill="none" stroke="#63b8ff" d="M1631.69,-76C1576.64,-76 1474.85,-76 1388,-76 1388,-76 1388,-76 1177.5,-76 1038.1,-76 881.84,-153.08 830.7,-180.48"/>
<polygon fill="#63b8ff" stroke="#63b8ff" points="1631.74,-79.5 1641.74,-76 1631.74,-72.5 1631.74,-79.5"/>
</a>
</g>
</g>
<!-- Node27&#45;&gt;Node10 -->
<g id="edge43_Node000027_Node000010" class="edge">
<title>Node27&#45;&gt;Node10</title>
<g id="a_edge43_Node000027_Node000010"><a xlink:title=" ">
<path fill="none" stroke="#63b8ff" d="M782.66,-194.49C765.84,-197.11 744.46,-200.44 726.42,-203.25"/>
<polygon fill="#63b8ff" stroke="#63b8ff" points="783.63,-197.88 792.97,-192.89 782.55,-190.97 783.63,-197.88"/>
</a>
</g>
</g>
<!-- Node28&#45;&gt;Node27 -->
<g id="edge46_Node000028_Node000027" class="edge">
<title>Node28&#45;&gt;Node27</title>
<g id="a_edge46_Node000028_Node000027"><a xlink:title=" ">
<path fill="none" stroke="#63b8ff" d="M905.17,-190C880.09,-190 850.71,-190 832.1,-190"/>
<polygon fill="#63b8ff" stroke="#63b8ff" points="905.25,-193.5 915.25,-190 905.25,-186.5 905.25,-193.5"/>
</a>
</g>
</g>
<!-- Node30 -->
<g id="Node000030" class="node">
<title>Node30</title>
<g id="a_Node000030"><a xlink:href="expand_8c.html#a492ca861a96ee6319b97b4b1d6ba9835" target="_top" xlink:title=" ">
<polygon fill="white" stroke="#666666" points="1428,-237.5 1346,-237.5 1346,-218.5 1428,-218.5 1428,-237.5"/>
<text text-anchor="middle" x="1387" y="-225.5" font-family="Helvetica,sans-Serif" font-size="10.00">expand_word</text>
</a>
</g>
</g>
<!-- Node29&#45;&gt;Node30 -->
<g id="edge48_Node000029_Node000030" class="edge">
<title>Node29&#45;&gt;Node30</title>
<g id="a_edge48_Node000029_Node000030"><a xlink:title=" ">
<path fill="none" stroke="#63b8ff" d="M1748.56,-202.19C1738.35,-204.85 1727.34,-207.35 1717,-209 1613.74,-225.44 1490.25,-228.09 1428.03,-228.26"/>
<polygon fill="#63b8ff" stroke="#63b8ff" points="1749.72,-205.5 1758.46,-199.51 1747.89,-198.75 1749.72,-205.5"/>
</a>
</g>
</g>
<!-- Node38 -->
<g id="Node000038" class="node">
<title>Node38</title>
<g id="a_Node000038"><a xlink:href="expand_8c.html#a4a10ac07faa08df14e0a438c5feace6b" target="_top" xlink:title=" ">
<polygon fill="white" stroke="#666666" points="1717,-199.5 1629,-199.5 1629,-180.5 1717,-180.5 1717,-199.5"/>
<text text-anchor="middle" x="1673" y="-187.5" font-family="Helvetica,sans-Serif" font-size="10.00">in_dquote_exp</text>
</a>
</g>
</g>
<!-- Node29&#45;&gt;Node38 -->
<g id="edge70_Node000029_Node000038" class="edge">
<title>Node29&#45;&gt;Node38</title>
<g id="a_edge70_Node000029_Node000038"><a xlink:title=" ">
<path fill="none" stroke="#63b8ff" d="M1742.83,-190C1734.37,-190 1725.57,-190 1717.2,-190"/>
<polygon fill="#63b8ff" stroke="#63b8ff" points="1742.93,-193.5 1752.93,-190 1742.93,-186.5 1742.93,-193.5"/>
</a>
</g>
</g>
<!-- Node31 -->
<g id="Node000031" class="node">
<title>Node31</title>
<g id="a_Node000031"><a xlink:href="expand_8c.html#ae22ff4719527d6b2b8bca3e43f576837" target="_top" xlink:title=" ">
<polygon fill="white" stroke="#666666" points="1310,-237.5 1257,-237.5 1257,-218.5 1310,-218.5 1310,-237.5"/>
<text text-anchor="middle" x="1283.5" y="-225.5" font-family="Helvetica,sans-Serif" font-size="10.00">expand</text>
</a>
</g>
</g>
<!-- Node30&#45;&gt;Node31 -->
<g id="edge49_Node000030_Node000031" class="edge">
<title>Node30&#45;&gt;Node31</title>
<g id="a_edge49_Node000030_Node000031"><a xlink:title=" ">
<path fill="none" stroke="#63b8ff" d="M1335.85,-228C1326.89,-228 1317.91,-228 1310.03,-228"/>
<polygon fill="#63b8ff" stroke="#63b8ff" points="1335.88,-231.5 1345.88,-228 1335.88,-224.5 1335.88,-231.5"/>
</a>
</g>
</g>
<!-- Node31&#45;&gt;Node12 -->
<g id="edge51_Node000031_Node000012" class="edge">
<title>Node31&#45;&gt;Node12</title>
<g id="a_edge51_Node000031_Node000012"><a xlink:title=" ">
<path fill="none" stroke="#63b8ff" d="M1246.6,-231.07C1198.36,-233.74 1110.96,-233.38 1044,-204 1024.4,-195.4 1027.59,-180.62 1008,-172 928.46,-137 900.4,-152 813.5,-152 813.5,-152 813.5,-152 687.5,-152 606.53,-152 530.55,-229.38 505.86,-257.2"/>
<polygon fill="#63b8ff" stroke="#63b8ff" points="1247.08,-234.54 1256.84,-230.42 1246.64,-227.56 1247.08,-234.54"/>
</a>
</g>
</g>
<!-- Node31&#45;&gt;Node16 -->
<g id="edge50_Node000031_Node000016" class="edge">
<title>Node31&#45;&gt;Node16</title>
<g id="a_edge50_Node000031_Node000016"><a xlink:title=" ">
<path fill="none" stroke="#63b8ff" d="M1273.34,-246.69C1248.4,-294.58 1174.31,-418 1073,-418 1073,-418 1073,-418 387.5,-418 322.77,-418 248.01,-429.98 205.29,-437.98"/>
<polygon fill="#63b8ff" stroke="#63b8ff" points="1276.5,-248.18 1277.91,-237.68 1270.26,-245.02 1276.5,-248.18"/>
</a>
</g>
</g>
<!-- Node31&#45;&gt;Node21 -->
<g id="edge52_Node000031_Node000021" class="edge">
<title>Node31&#45;&gt;Node21</title>
<g id="a_edge52_Node000031_Node000021"><a xlink:title=" ">
<path fill="none" stroke="#63b8ff" d="M1257.26,-213.56C1188.45,-175.62 990.89,-76 813.5,-76 813.5,-76 813.5,-76 387.5,-76 321.57,-76 244.37,-75.07 202.12,-74.47"/>
<polygon fill="#63b8ff" stroke="#63b8ff" points="1255.66,-216.68 1266.09,-218.49 1259.06,-210.57 1255.66,-216.68"/>
</a>
</g>
</g>
<!-- Node32 -->
<g id="Node000032" class="node">
<title>Node32</title>
<g id="a_Node000032"><a xlink:href="hashmap_8c.html#aca86cd9ca85ac2e41fbb5c9e86ad6d6f" target="_top" xlink:title=" ">
<polygon fill="white" stroke="#666666" points="1221,-275.5 1136,-275.5 1136,-256.5 1221,-256.5 1221,-275.5"/>
<text text-anchor="middle" x="1178.5" y="-263.5" font-family="Helvetica,sans-Serif" font-size="10.00">expand_value</text>
</a>
</g>
</g>
<!-- Node31&#45;&gt;Node32 -->
<g id="edge53_Node000031_Node000032" class="edge">
<title>Node31&#45;&gt;Node32</title>
<g id="a_edge53_Node000031_Node000032"><a xlink:title=" ">
<path fill="none" stroke="#63b8ff" d="M1247.13,-241.05C1233.38,-246.12 1217.92,-251.83 1205.25,-256.5"/>
<polygon fill="#63b8ff" stroke="#63b8ff" points="1248.6,-244.24 1256.77,-237.49 1246.18,-237.67 1248.6,-244.24"/>
</a>
</g>
</g>
<!-- Node33 -->
<g id="Node000033" class="node">
<title>Node33</title>
<g id="a_Node000033"><a xlink:href="hashmap_8c.html#a3bf95c887f7eac3eb074725515feba49" target="_top" xlink:title="Add a variable to the dictionnary.">
<polygon fill="white" stroke="#666666" points="1100,-351.5 1044,-351.5 1044,-332.5 1100,-332.5 1100,-351.5"/>
<text text-anchor="middle" x="1072" y="-339.5" font-family="Helvetica,sans-Serif" font-size="10.00">add_var</text>
</a>
</g>
</g>
<!-- Node32&#45;&gt;Node33 -->
<g id="edge54_Node000032_Node000033" class="edge">
<title>Node32&#45;&gt;Node33</title>
<g id="a_edge54_Node000032_Node000033"><a xlink:title=" ">
<path fill="none" stroke="#63b8ff" d="M1155.96,-281.67C1134.94,-296.95 1103.66,-319.7 1086.13,-332.45"/>
<polygon fill="#63b8ff" stroke="#63b8ff" points="1158.24,-284.34 1164.27,-275.63 1154.12,-278.68 1158.24,-284.34"/>
</a>
</g>
</g>
<!-- Node33&#45;&gt;Node2 -->
<g id="edge55_Node000033_Node000002" class="edge">
<title>Node33&#45;&gt;Node2</title>
<g id="a_edge55_Node000033_Node000002"><a xlink:title=" ">
<path fill="none" stroke="#63b8ff" d="M1070.77,-361.94C1069.21,-402.98 1059.82,-497.51 1008,-551 1004.66,-554.45 1000.64,-557.24 996.32,-559.49"/>
<polygon fill="#63b8ff" stroke="#63b8ff" points="1074.27,-361.95 1071.03,-351.86 1067.27,-361.77 1074.27,-361.95"/>
</a>
</g>
</g>
<!-- Node33&#45;&gt;Node5 -->
<g id="edge58_Node000033_Node000005" class="edge">
<title>Node33&#45;&gt;Node5</title>
<g id="a_edge58_Node000033_Node000005"><a xlink:title=" ">
<path fill="none" stroke="#63b8ff" d="M1064.07,-361.26C1053.96,-388.05 1033.54,-437.51 1008,-475 995.47,-493.39 977.04,-511.61 965.41,-522.33"/>
<polygon fill="#63b8ff" stroke="#63b8ff" points="1067.47,-362.16 1067.65,-351.56 1060.9,-359.73 1067.47,-362.16"/>
</a>
</g>
</g>
<!-- Node33&#45;&gt;Node16 -->
<g id="edge59_Node000033_Node000016" class="edge">
<title>Node33&#45;&gt;Node16</title>
<g id="a_edge59_Node000033_Node000016"><a xlink:title=" ">
<path fill="none" stroke="#63b8ff" d="M1033.77,-351C983.92,-362.23 892.6,-380 813.5,-380 813.5,-380 813.5,-380 387.5,-380 329.84,-380 314.95,-386.53 260,-404 234.1,-412.23 205.85,-426.06 188.16,-435.35"/>
<polygon fill="#63b8ff" stroke="#63b8ff" points="1034.79,-354.35 1043.76,-348.71 1033.23,-347.53 1034.79,-354.35"/>
</a>
</g>
</g>
<!-- Node33&#45;&gt;Node25 -->
<g id="edge64_Node000033_Node000025" class="edge">
<title>Node33&#45;&gt;Node25</title>
<g id="a_edge64_Node000033_Node000025"><a xlink:title=" ">
<path fill="none" stroke="#63b8ff" d="M1061.83,-323.3C1051.24,-303.36 1032.14,-271.96 1008,-252 1000.7,-245.97 991.65,-241.15 983.07,-237.46"/>
<polygon fill="#63b8ff" stroke="#63b8ff" points="1058.77,-325.01 1066.45,-332.31 1065,-321.82 1058.77,-325.01"/>
</a>
</g>
</g>
<!-- Node33&#45;&gt;Node28 -->
<g id="edge69_Node000033_Node000028" class="edge">
<title>Node33&#45;&gt;Node28</title>
<g id="a_edge69_Node000033_Node000028"><a xlink:title=" ">
<path fill="none" stroke="#63b8ff" d="M1066.56,-322.21C1059.18,-293.65 1041.72,-240.89 1008,-210 1003.25,-205.65 997.46,-202.21 991.47,-199.52"/>
<polygon fill="#63b8ff" stroke="#63b8ff" points="1063.23,-323.31 1068.99,-332.2 1070.03,-321.66 1063.23,-323.31"/>
</a>
</g>
</g>
<!-- Node34 -->
<g id="Node000034" class="node">
<title>Node34</title>
<g id="a_Node000034"><a xlink:href="hashmap_8c.html#a6ea7c10f5ac3ee3ad1986f24e1b83863" target="_top" xlink:title=" ">
<polygon fill="white" stroke="#666666" points="990.5,-465.5 916.5,-465.5 916.5,-446.5 990.5,-446.5 990.5,-465.5"/>
<text text-anchor="middle" x="953.5" y="-453.5" font-family="Helvetica,sans-Serif" font-size="10.00">add_special</text>
</a>
</g>
</g>
<!-- Node33&#45;&gt;Node34 -->
<g id="edge56_Node000033_Node000034" class="edge">
<title>Node33&#45;&gt;Node34</title>
<g id="a_edge56_Node000033_Node000034"><a xlink:title=" ">
<path fill="none" stroke="#63b8ff" d="M1053.8,-358.83C1029.06,-383.04 984.25,-426.89 964.41,-446.31"/>
<polygon fill="#63b8ff" stroke="#63b8ff" points="1056.37,-361.22 1061.07,-351.72 1051.47,-356.21 1056.37,-361.22"/>
</a>
</g>
</g>
<!-- Node35 -->
<g id="Node000035" class="node">
<title>Node35</title>
<g id="a_Node000035"><a xlink:href="exec_8c.html#a9707f3708c634be49a10356313da4d30" target="_top" xlink:title="Execute the command with given arguments.">
<polygon fill="white" stroke="#666666" points="832,-275.5 793,-275.5 793,-256.5 832,-256.5 832,-275.5"/>
<text text-anchor="middle" x="812.5" y="-263.5" font-family="Helvetica,sans-Serif" font-size="10.00">exec</text>
</a>
</g>
</g>
<!-- Node33&#45;&gt;Node35 -->
<g id="edge60_Node000033_Node000035" class="edge">
<title>Node33&#45;&gt;Node35</title>
<g id="a_edge60_Node000033_Node000035"><a xlink:title=" ">
<path fill="none" stroke="#63b8ff" d="M1056.94,-324.64C1045.3,-311.61 1027.56,-294.61 1008,-286 948.03,-259.61 867.94,-261.64 832.15,-264.24"/>
<polygon fill="#63b8ff" stroke="#63b8ff" points="1054.5,-327.17 1063.66,-332.49 1059.82,-322.62 1054.5,-327.17"/>
</a>
</g>
</g>
<!-- Node36 -->
<g id="Node000036" class="node">
<title>Node36</title>
<g id="a_Node000036"><a xlink:href="exec_8c.html#a60ea263265f67ff588c7de955c83bcec" target="_top" xlink:title="Exec assignments in cmd.">
<polygon fill="white" stroke="#666666" points="863,-351.5 762,-351.5 762,-332.5 863,-332.5 863,-351.5"/>
<text text-anchor="middle" x="812.5" y="-339.5" font-family="Helvetica,sans-Serif" font-size="10.00">exec_assignment</text>
</a>
</g>
</g>
<!-- Node33&#45;&gt;Node36 -->
<g id="edge62_Node000033_Node000036" class="edge">
<title>Node33&#45;&gt;Node36</title>
<g id="a_edge62_Node000033_Node000036"><a xlink:title=" ">
<path fill="none" stroke="#63b8ff" d="M1033.73,-342C988.73,-342 912.9,-342 863.02,-342"/>
<polygon fill="#63b8ff" stroke="#63b8ff" points="1033.93,-345.5 1043.93,-342 1033.93,-338.5 1033.93,-345.5"/>
</a>
</g>
</g>
<!-- Node33&#45;&gt;Node37 -->
<g id="edge65_Node000033_Node000037" class="edge">
<title>Node33&#45;&gt;Node37</title>
<g id="a_edge65_Node000033_Node000037"><a xlink:title=" ">
<path fill="none" stroke="#63b8ff" d="M1034.24,-330.01C1017.98,-324.71 999.12,-318.55 983.82,-313.56"/>
<polygon fill="#63b8ff" stroke="#63b8ff" points="1033.39,-333.41 1043.98,-333.19 1035.56,-326.76 1033.39,-333.41"/>
</a>
</g>
</g>
<!-- Node34&#45;&gt;Node6 -->
<g id="edge57_Node000034_Node000006" class="edge">
<title>Node34&#45;&gt;Node6</title>
<g id="a_edge57_Node000034_Node000006"><a xlink:title=" ">
<path fill="none" stroke="#63b8ff" d="M906.3,-466.3C884.55,-471.16 859.34,-476.78 840.69,-480.94"/>
<polygon fill="#63b8ff" stroke="#63b8ff" points="907.34,-469.66 916.34,-464.06 905.82,-462.82 907.34,-469.66"/>
</a>
</g>
</g>
<!-- Node35&#45;&gt;Node12 -->
<g id="edge61_Node000035_Node000012" class="edge">
<title>Node35&#45;&gt;Node12</title>
<g id="a_edge61_Node000035_Node000012"><a xlink:title=" ">
<path fill="none" stroke="#63b8ff" d="M783.02,-272.01C737.02,-280.86 643.57,-295.3 565,-285 552.25,-283.33 538.49,-279.96 526.74,-276.58"/>
<polygon fill="#63b8ff" stroke="#63b8ff" points="783.75,-275.43 792.88,-270.06 782.39,-268.57 783.75,-275.43"/>
</a>
</g>
</g>
<!-- Node36&#45;&gt;Node12 -->
<g id="edge63_Node000036_Node000012" class="edge">
<title>Node36&#45;&gt;Node12</title>
<g id="a_edge63_Node000036_Node000012"><a xlink:title=" ">
<path fill="none" stroke="#63b8ff" d="M751.75,-336.65C701.11,-330.98 627.04,-319.99 565,-300 546.63,-294.08 526.94,-283.97 513.59,-276.5"/>
<polygon fill="#63b8ff" stroke="#63b8ff" points="751.55,-340.15 761.87,-337.75 752.3,-333.19 751.55,-340.15"/>
</a>
</g>
</g>
<!-- Node37&#45;&gt;Node11 -->
<g id="edge68_Node000037_Node000011" class="edge">
<title>Node37&#45;&gt;Node11</title>
<g id="a_edge68_Node000037_Node000011"><a xlink:title=" ">
<path fill="none" stroke="#63b8ff" d="M905.93,-299.5C867.35,-295.74 811.1,-290.18 762,-285 709.57,-279.47 648.15,-272.54 615.06,-268.76"/>
<polygon fill="#63b8ff" stroke="#63b8ff" points="906.03,-303.03 916.32,-300.51 906.71,-296.06 906.03,-303.03"/>
</a>
</g>
</g>
<!-- Node37&#45;&gt;Node35 -->
<g id="edge66_Node000037_Node000035" class="edge">
<title>Node37&#45;&gt;Node35</title>
<g id="a_edge66_Node000037_Node000035"><a xlink:title=" ">
<path fill="none" stroke="#63b8ff" d="M907.58,-291.72C882.09,-284.75 851.54,-276.4 832.32,-271.14"/>
<polygon fill="#63b8ff" stroke="#63b8ff" points="906.86,-295.15 917.42,-294.41 908.7,-288.4 906.86,-295.15"/>
</a>
</g>
</g>
<!-- Node37&#45;&gt;Node36 -->
<g id="edge67_Node000037_Node000036" class="edge">
<title>Node37&#45;&gt;Node36</title>
<g id="a_edge67_Node000037_Node000036"><a xlink:title=" ">
<path fill="none" stroke="#63b8ff" d="M907.7,-316.25C888.55,-321.48 866.51,-327.51 848.56,-332.41"/>
<polygon fill="#63b8ff" stroke="#63b8ff" points="908.7,-319.6 917.42,-313.59 906.86,-312.85 908.7,-319.6"/>
</a>
</g>
</g>
<!-- Node39 -->
<g id="Node000039" class="node">
<title>Node39</title>
<g id="a_Node000039"><a xlink:href="expand_8c.html#a6d4728fd992669e4bb35624d37972179" target="_top" xlink:title=" ">
<polygon fill="white" stroke="#666666" points="1593,-199.5 1464,-199.5 1464,-180.5 1593,-180.5 1593,-199.5"/>
<text text-anchor="middle" x="1528.5" y="-187.5" font-family="Helvetica,sans-Serif" font-size="10.00">double_quotes_expand</text>
</a>
</g>
</g>
<!-- Node38&#45;&gt;Node39 -->
<g id="edge71_Node000038_Node000039" class="edge">
<title>Node38&#45;&gt;Node39</title>
<g id="a_edge71_Node000038_Node000039"><a xlink:title=" ">
<path fill="none" stroke="#63b8ff" d="M1618.61,-190C1610.34,-190 1601.73,-190 1593.26,-190"/>
<polygon fill="#63b8ff" stroke="#63b8ff" points="1618.86,-193.5 1628.86,-190 1618.86,-186.5 1618.86,-193.5"/>
</a>
</g>
</g>
<!-- Node39&#45;&gt;Node30 -->
<g id="edge72_Node000039_Node000030" class="edge">
<title>Node39&#45;&gt;Node30</title>
<g id="a_edge72_Node000039_Node000030"><a xlink:title=" ">
<path fill="none" stroke="#63b8ff" d="M1482.54,-202.25C1463.32,-207.48 1441.2,-213.51 1423.19,-218.41"/>
<polygon fill="#63b8ff" stroke="#63b8ff" points="1483.57,-205.59 1492.3,-199.59 1481.73,-198.84 1483.57,-205.59"/>
</a>
</g>
</g>
</g>
</svg>
