<?xml version="1.0" encoding="UTF-8" standalone="no"?>
<!DOCTYPE svg PUBLIC "-//W3C//DTD SVG 1.1//EN"
 "http://www.w3.org/Graphics/SVG/1.1/DTD/svg11.dtd">
<!-- Generated by graphviz version 2.43.0 (0)
 -->
<!-- Title: src/utils/itoa.h Pages: 1 -->
<svg width="428pt" height="137pt"
 viewBox="0.00 0.00 427.50 137.00" xmlns="http://www.w3.org/2000/svg" xmlns:xlink="http://www.w3.org/1999/xlink">
<g id="graph0" class="graph" transform="scale(1 1) rotate(0) translate(4 133)">
<title>src/utils/itoa.h</title>
<!-- Node1 -->
<g id="Node000001" class="node">
<title>Node1</title>
<g id="a_Node000001"><a xlink:title=" ">
<polygon fill="#999999" stroke="#666666" points="270,-129 184,-129 184,-110 270,-110 270,-129"/>
<text text-anchor="middle" x="227" y="-117" font-family="Helvetica,sans-Serif" font-size="10.00">src/utils/itoa.h</text>
</a>
</g>
</g>
<!-- Node2 -->
<g id="Node000002" class="node">
<title>Node2</title>
<g id="a_Node000002"><a xlink:href="exec_8c.html" target="_top" xlink:title=" ">
<polygon fill="white" stroke="#666666" points="90,-74 0,-74 0,-55 90,-55 90,-74"/>
<text text-anchor="middle" x="45" y="-62" font-family="Helvetica,sans-Serif" font-size="10.00">src/exec/exec.c</text>
</a>
</g>
</g>
<!-- Node1&#45;&gt;Node2 -->
<g id="edge1_Node000001_Node000002" class="edge">
<title>Node1&#45;&gt;Node2</title>
<g id="a_edge1_Node000001_Node000002"><a xlink:title=" ">
<path fill="none" stroke="#63b8ff" d="M188.14,-107.18C154.1,-97.27 105.38,-83.08 74.47,-74.08"/>
<polygon fill="#63b8ff" stroke="#63b8ff" points="187.18,-110.55 197.76,-109.98 189.14,-103.83 187.18,-110.55"/>
</a>
</g>
</g>
<!-- Node3 -->
<g id="Node000003" class="node">
<title>Node3</title>
<g id="a_Node000003"><a xlink:href="hashmap_8c.html" target="_top" xlink:title=" ">
<polygon fill="white" stroke="#666666" points="234,-74 108,-74 108,-55 234,-55 234,-74"/>
<text text-anchor="middle" x="171" y="-62" font-family="Helvetica,sans-Serif" font-size="10.00">src/expand/hashmap.c</text>
</a>
</g>
</g>
<!-- Node1&#45;&gt;Node3 -->
<g id="edge2_Node000001_Node000003" class="edge">
<title>Node1&#45;&gt;Node3</title>
<g id="a_edge2_Node000001_Node000003"><a xlink:title=" ">
<path fill="none" stroke="#63b8ff" d="M210.67,-103.04C200.74,-93.64 188.41,-81.98 180.16,-74.17"/>
<polygon fill="#63b8ff" stroke="#63b8ff" points="208.33,-105.65 218,-109.98 213.15,-100.57 208.33,-105.65"/>
</a>
</g>
</g>
<!-- Node4 -->
<g id="Node000004" class="node">
<title>Node4</title>
<g id="a_Node000004"><a xlink:href="io_8h.html" target="_top" xlink:title=" ">
<polygon fill="white" stroke="#666666" points="316,-74 252,-74 252,-55 316,-55 316,-74"/>
<text text-anchor="middle" x="284" y="-62" font-family="Helvetica,sans-Serif" font-size="10.00">src/io/io.h</text>
</a>
</g>
</g>
<!-- Node1&#45;&gt;Node4 -->
<g id="edge3_Node000001_Node000004" class="edge">
<title>Node1&#45;&gt;Node4</title>
<g id="a_edge3_Node000001_Node000004"><a xlink:title=" ">
<path fill="none" stroke="#63b8ff" d="M243.62,-103.04C253.73,-93.64 266.28,-81.98 274.68,-74.17"/>
<polygon fill="#63b8ff" stroke="#63b8ff" points="241.1,-100.61 236.16,-109.98 245.86,-105.74 241.1,-100.61"/>
</a>
</g>
</g>
<!-- Node7 -->
<g id="Node000007" class="node">
<title>Node7</title>
<g id="a_Node000007"><a xlink:href="itoa_8c.html" target="_top" xlink:title=" ">
<polygon fill="white" stroke="#666666" points="419.5,-74 334.5,-74 334.5,-55 419.5,-55 419.5,-74"/>
<text text-anchor="middle" x="377" y="-62" font-family="Helvetica,sans-Serif" font-size="10.00">src/utils/itoa.c</text>
</a>
</g>
</g>
<!-- Node1&#45;&gt;Node7 -->
<g id="edge6_Node000001_Node000007" class="edge">
<title>Node1&#45;&gt;Node7</title>
<g id="a_edge6_Node000001_Node000007"><a xlink:title=" ">
<path fill="none" stroke="#63b8ff" d="M260.82,-106.55C288.68,-96.71 327.51,-82.98 352.46,-74.17"/>
<polygon fill="#63b8ff" stroke="#63b8ff" points="259.36,-103.35 251.1,-109.98 261.69,-109.95 259.36,-103.35"/>
</a>
</g>
</g>
<!-- Node5 -->
<g id="Node000005" class="node">
<title>Node5</title>
<g id="a_Node000005"><a xlink:href="42sh_8c.html" target="_top" xlink:title=" ">
<polygon fill="white" stroke="#666666" points="275.5,-19 210.5,-19 210.5,0 275.5,0 275.5,-19"/>
<text text-anchor="middle" x="243" y="-7" font-family="Helvetica,sans-Serif" font-size="10.00">src/42sh.c</text>
</a>
</g>
</g>
<!-- Node4&#45;&gt;Node5 -->
<g id="edge4_Node000004_Node000005" class="edge">
<title>Node4&#45;&gt;Node5</title>
<g id="a_edge4_Node000004_Node000005"><a xlink:title=" ">
<path fill="none" stroke="#63b8ff" d="M270.98,-46.67C263.88,-37.5 255.4,-26.52 249.64,-19.09"/>
<polygon fill="#63b8ff" stroke="#63b8ff" points="268.34,-48.98 277.23,-54.75 273.88,-44.7 268.34,-48.98"/>
</a>
</g>
</g>
<!-- Node6 -->
<g id="Node000006" class="node">
<title>Node6</title>
<g id="a_Node000006"><a xlink:href="io_8c.html" target="_top" xlink:title=" ">
<polygon fill="white" stroke="#666666" points="356.5,-19 293.5,-19 293.5,0 356.5,0 356.5,-19"/>
<text text-anchor="middle" x="325" y="-7" font-family="Helvetica,sans-Serif" font-size="10.00">src/io/io.c</text>
</a>
</g>
</g>
<!-- Node4&#45;&gt;Node6 -->
<g id="edge5_Node000004_Node000006" class="edge">
<title>Node4&#45;&gt;Node6</title>
<g id="a_edge5_Node000004_Node000006"><a xlink:title=" ">
<path fill="none" stroke="#63b8ff" d="M297.02,-46.67C304.12,-37.5 312.6,-26.52 318.36,-19.09"/>
<polygon fill="#63b8ff" stroke="#63b8ff" points="294.12,-44.7 290.77,-54.75 299.66,-48.98 294.12,-44.7"/>
</a>
</g>
</g>
</g>
</svg>
