<?xml version="1.0" encoding="UTF-8" standalone="no"?>
<!DOCTYPE svg PUBLIC "-//W3C//DTD SVG 1.1//EN"
 "http://www.w3.org/Graphics/SVG/1.1/DTD/svg11.dtd">
<!-- Generated by graphviz version 2.43.0 (0)
 -->
<!-- Title: sub_switch_delim Pages: 1 -->
<svg width="614pt" height="364pt"
 viewBox="0.00 0.00 614.00 364.00" xmlns="http://www.w3.org/2000/svg" xmlns:xlink="http://www.w3.org/1999/xlink">
<g id="graph0" class="graph" transform="scale(1 1) rotate(0) translate(4 360)">
<title>sub_switch_delim</title>
<!-- Node1 -->
<g id="Node000001" class="node">
<title>Node1</title>
<g id="a_Node000001"><a xlink:title="Gestion des délimiteurs.">
<polygon fill="#999999" stroke="#666666" points="104,-224 0,-224 0,-205 104,-205 104,-224"/>
<text text-anchor="middle" x="52" y="-212" font-family="Helvetica,sans-Serif" font-size="10.00">sub_switch_delim</text>
</a>
</g>
</g>
<!-- Node2 -->
<g id="Node000002" class="node">
<title>Node2</title>
<g id="a_Node000002"><a xlink:href="lexer__tokens_8c.html#ae59c383936dadf54742b836a5bd2a70b" target="_top" xlink:title=" ">
<polygon fill="white" stroke="#666666" points="391.5,-356 319.5,-356 319.5,-337 391.5,-337 391.5,-356"/>
<text text-anchor="middle" x="355.5" y="-344" font-family="Helvetica,sans-Serif" font-size="10.00">check_type</text>
</a>
</g>
</g>
<!-- Node1&#45;&gt;Node2 -->
<g id="edge1_Node000001_Node000002" class="edge">
<title>Node1&#45;&gt;Node2</title>
<g id="a_edge1_Node000001_Node000002"><a xlink:title=" ">
<path fill="none" stroke="#63b8ff" d="M59.94,-224.04C73.32,-241.69 104.51,-279.39 140,-298.5 193.77,-327.46 264.14,-338.97 309.34,-343.53"/>
<polygon fill="#63b8ff" stroke="#63b8ff" points="309.14,-347.03 319.42,-344.47 309.79,-340.06 309.14,-347.03"/>
</a>
</g>
</g>
<!-- Node3 -->
<g id="Node000003" class="node">
<title>Node3</title>
<g id="a_Node000003"><a xlink:href="lexer__handlers_8c.html#a9cdc56179aaccddb64447a4d56698992" target="_top" xlink:title=" ">
<polygon fill="white" stroke="#666666" points="248,-243 144,-243 144,-224 248,-224 248,-243"/>
<text text-anchor="middle" x="196" y="-231" font-family="Helvetica,sans-Serif" font-size="10.00">handle_backslash</text>
</a>
</g>
</g>
<!-- Node1&#45;&gt;Node3 -->
<g id="edge2_Node000001_Node000003" class="edge">
<title>Node1&#45;&gt;Node3</title>
<g id="a_edge2_Node000001_Node000003"><a xlink:title=" ">
<path fill="none" stroke="#63b8ff" d="M104.27,-221.36C113.82,-222.64 123.89,-223.98 133.7,-225.3"/>
<polygon fill="#63b8ff" stroke="#63b8ff" points="133.43,-228.79 143.81,-226.65 134.36,-221.86 133.43,-228.79"/>
</a>
</g>
</g>
<!-- Node5 -->
<g id="Node000005" class="node">
<title>Node5</title>
<g id="a_Node000005"><a xlink:href="lexer__handlers_8c.html#a8c5df02ee3ff790dc6256318b3dd132f" target="_top" xlink:title="Crée un token de type OPENING_BRACKET ou CLOSING_BRACKET si possible.">
<polygon fill="white" stroke="#666666" points="241.5,-167 150.5,-167 150.5,-148 241.5,-148 241.5,-167"/>
<text text-anchor="middle" x="196" y="-155" font-family="Helvetica,sans-Serif" font-size="10.00">handle_bracket</text>
</a>
</g>
</g>
<!-- Node1&#45;&gt;Node5 -->
<g id="edge4_Node000001_Node000005" class="edge">
<title>Node1&#45;&gt;Node5</title>
<g id="a_edge4_Node000001_Node000005"><a xlink:title=" ">
<path fill="none" stroke="#63b8ff" d="M73.55,-204.97C91.06,-196.99 116.97,-185.49 140,-176.5 145.23,-174.46 150.79,-172.4 156.28,-170.44"/>
<polygon fill="#63b8ff" stroke="#63b8ff" points="157.73,-173.64 166.01,-167.03 155.42,-167.04 157.73,-173.64"/>
</a>
</g>
</g>
<!-- Node8 -->
<g id="Node000008" class="node">
<title>Node8</title>
<g id="a_Node000008"><a xlink:href="lexer__handlers_8c.html#a579ccaa49e18cca908ce2409b06b5825" target="_top" xlink:title=" ">
<polygon fill="white" stroke="#666666" points="245.5,-75 146.5,-75 146.5,-56 245.5,-56 245.5,-75"/>
<text text-anchor="middle" x="196" y="-63" font-family="Helvetica,sans-Serif" font-size="10.00">handle_delimiter</text>
</a>
</g>
</g>
<!-- Node1&#45;&gt;Node8 -->
<g id="edge9_Node000001_Node000008" class="edge">
<title>Node1&#45;&gt;Node8</title>
<g id="a_edge9_Node000001_Node000008"><a xlink:title=" ">
<path fill="none" stroke="#63b8ff" d="M62.32,-204.72C85.99,-179.88 148.7,-114.08 178.64,-82.66"/>
<polygon fill="#63b8ff" stroke="#63b8ff" points="181.47,-84.77 185.83,-75.12 176.4,-79.94 181.47,-84.77"/>
</a>
</g>
</g>
<!-- Node12 -->
<g id="Node000012" class="node">
<title>Node12</title>
<g id="a_Node000012"><a xlink:href="lexer__handlers_8c.html#a3122df83e320b8f4658097885f266c59" target="_top" xlink:title="Crée un token de type FUNCTION si possible.">
<polygon fill="white" stroke="#666666" points="252,-205 140,-205 140,-186 252,-186 252,-205"/>
<text text-anchor="middle" x="196" y="-193" font-family="Helvetica,sans-Serif" font-size="10.00">handle_parenthesis</text>
</a>
</g>
</g>
<!-- Node1&#45;&gt;Node12 -->
<g id="edge16_Node000001_Node000012" class="edge">
<title>Node1&#45;&gt;Node12</title>
<g id="a_edge16_Node000001_Node000012"><a xlink:title=" ">
<path fill="none" stroke="#63b8ff" d="M104.27,-207.64C112.6,-206.53 121.33,-205.36 129.95,-204.2"/>
<polygon fill="#63b8ff" stroke="#63b8ff" points="130.52,-207.66 139.97,-202.86 129.6,-200.72 130.52,-207.66"/>
</a>
</g>
</g>
<!-- Node13 -->
<g id="Node000013" class="node">
<title>Node13</title>
<g id="a_Node000013"><a xlink:href="lexer_8c.html#a55722ded9ba13bad6ac777b3d0f13481" target="_top" xlink:title="Gestion des opérateurs.">
<polygon fill="white" stroke="#666666" points="240,-290 152,-290 152,-271 240,-271 240,-290"/>
<text text-anchor="middle" x="196" y="-278" font-family="Helvetica,sans-Serif" font-size="10.00">sub_switch_op</text>
</a>
</g>
</g>
<!-- Node1&#45;&gt;Node13 -->
<g id="edge18_Node000001_Node000013" class="edge">
<title>Node1&#45;&gt;Node13</title>
<g id="a_edge18_Node000001_Node000013"><a xlink:title=" ">
<path fill="none" stroke="#63b8ff" d="M73.65,-224.1C97.73,-235.29 137.74,-253.88 165.19,-266.64"/>
<polygon fill="#63b8ff" stroke="#63b8ff" points="163.78,-269.85 174.33,-270.89 166.73,-263.5 163.78,-269.85"/>
</a>
</g>
</g>
<!-- Node4 -->
<g id="Node000004" class="node">
<title>Node4</title>
<g id="a_Node000004"><a xlink:href="dot_8c.html#a36f9e0f75603ec6472a90c595e3bba79" target="_top" xlink:title="Concat path and string with &#39;/&#39; between.">
<polygon fill="white" stroke="#666666" points="511,-167 462,-167 462,-148 511,-148 511,-167"/>
<text text-anchor="middle" x="486.5" y="-155" font-family="Helvetica,sans-Serif" font-size="10.00">concat</text>
</a>
</g>
</g>
<!-- Node3&#45;&gt;Node4 -->
<g id="edge3_Node000003_Node000004" class="edge">
<title>Node3&#45;&gt;Node4</title>
<g id="a_edge3_Node000003_Node000004"><a xlink:title=" ">
<path fill="none" stroke="#63b8ff" d="M248.35,-231.31C295.19,-227.93 365.63,-219.33 423,-197.5 438.35,-191.66 453.91,-181.71 465.67,-173.2"/>
<polygon fill="#63b8ff" stroke="#63b8ff" points="467.95,-175.86 473.85,-167.06 463.75,-170.26 467.95,-175.86"/>
</a>
</g>
</g>
<!-- Node6 -->
<g id="Node000006" class="node">
<title>Node6</title>
<g id="a_Node000006"><a xlink:href="lexer__handlers_8c.html#af0bc509a05ea8f1f639745c3db1edff0" target="_top" xlink:title=" ">
<polygon fill="white" stroke="#666666" points="421,-130 290,-130 290,-111 421,-111 421,-130"/>
<text text-anchor="middle" x="355.5" y="-118" font-family="Helvetica,sans-Serif" font-size="10.00">handle_closing_bracket</text>
</a>
</g>
</g>
<!-- Node5&#45;&gt;Node6 -->
<g id="edge5_Node000005_Node000006" class="edge">
<title>Node5&#45;&gt;Node6</title>
<g id="a_edge5_Node000005_Node000006"><a xlink:title=" ">
<path fill="none" stroke="#63b8ff" d="M237.56,-147.97C257.78,-143.22 282.44,-137.43 303.88,-132.39"/>
<polygon fill="#63b8ff" stroke="#63b8ff" points="304.87,-135.75 313.8,-130.06 303.27,-128.94 304.87,-135.75"/>
</a>
</g>
</g>
<!-- Node7 -->
<g id="Node000007" class="node">
<title>Node7</title>
<g id="a_Node000007"><a xlink:href="lexer__handlers_8c.html#ac6741237800ed58a7ea25d1b02c4ada3" target="_top" xlink:title=" ">
<polygon fill="white" stroke="#666666" points="423,-167 288,-167 288,-148 423,-148 423,-167"/>
<text text-anchor="middle" x="355.5" y="-155" font-family="Helvetica,sans-Serif" font-size="10.00">handle_opening_bracket</text>
</a>
</g>
</g>
<!-- Node5&#45;&gt;Node7 -->
<g id="edge7_Node000005_Node000007" class="edge">
<title>Node5&#45;&gt;Node7</title>
<g id="a_edge7_Node000005_Node000007"><a xlink:title=" ">
<path fill="none" stroke="#63b8ff" d="M241.71,-157.5C252.94,-157.5 265.31,-157.5 277.61,-157.5"/>
<polygon fill="#63b8ff" stroke="#63b8ff" points="277.91,-161 287.91,-157.5 277.91,-154 277.91,-161"/>
</a>
</g>
</g>
<!-- Node6&#45;&gt;Node4 -->
<g id="edge6_Node000006_Node000004" class="edge">
<title>Node6&#45;&gt;Node4</title>
<g id="a_edge6_Node000006_Node000004"><a xlink:title=" ">
<path fill="none" stroke="#63b8ff" d="M392.45,-130.01C402.36,-132.7 413.11,-135.66 423,-138.5 432.45,-141.21 442.66,-144.27 452.04,-147.12"/>
<polygon fill="#63b8ff" stroke="#63b8ff" points="451.22,-150.53 461.81,-150.11 453.27,-143.84 451.22,-150.53"/>
</a>
</g>
</g>
<!-- Node7&#45;&gt;Node4 -->
<g id="edge8_Node000007_Node000004" class="edge">
<title>Node7&#45;&gt;Node4</title>
<g id="a_edge8_Node000007_Node000004"><a xlink:title=" ">
<path fill="none" stroke="#63b8ff" d="M423.27,-157.5C433.14,-157.5 442.95,-157.5 451.76,-157.5"/>
<polygon fill="#63b8ff" stroke="#63b8ff" points="451.94,-161 461.94,-157.5 451.94,-154 451.94,-161"/>
</a>
</g>
</g>
<!-- Node9 -->
<g id="Node000009" class="node">
<title>Node9</title>
<g id="a_Node000009"><a xlink:href="lexer__handlers_8c.html#a2ed09a62089d61b6a2928dcbcc623e7f" target="_top" xlink:title=" ">
<polygon fill="white" stroke="#666666" points="396.5,-56 314.5,-56 314.5,-37 396.5,-37 396.5,-56"/>
<text text-anchor="middle" x="355.5" y="-44" font-family="Helvetica,sans-Serif" font-size="10.00">handle_blank</text>
</a>
</g>
</g>
<!-- Node8&#45;&gt;Node9 -->
<g id="edge10_Node000008_Node000009" class="edge">
<title>Node8&#45;&gt;Node9</title>
<g id="a_edge10_Node000008_Node000009"><a xlink:title=" ">
<path fill="none" stroke="#63b8ff" d="M245.54,-59.64C264.15,-57.4 285.41,-54.83 304.18,-52.57"/>
<polygon fill="#63b8ff" stroke="#63b8ff" points="304.81,-56.02 314.32,-51.35 303.97,-49.07 304.81,-56.02"/>
</a>
</g>
</g>
<!-- Node10 -->
<g id="Node000010" class="node">
<title>Node10</title>
<g id="a_Node000010"><a xlink:href="lexer__handlers_8c.html#aa69ff9b0e657615d22e4220657378e92" target="_top" xlink:title=" ">
<polygon fill="white" stroke="#666666" points="402,-19 309,-19 309,0 402,0 402,-19"/>
<text text-anchor="middle" x="355.5" y="-7" font-family="Helvetica,sans-Serif" font-size="10.00">handle_newline</text>
</a>
</g>
</g>
<!-- Node8&#45;&gt;Node10 -->
<g id="edge12_Node000008_Node000010" class="edge">
<title>Node8&#45;&gt;Node10</title>
<g id="a_edge12_Node000008_Node000010"><a xlink:title=" ">
<path fill="none" stroke="#63b8ff" d="M217.66,-55.96C235.92,-47.75 263.38,-35.93 288,-27.5 293.87,-25.49 300.08,-23.56 306.27,-21.75"/>
<polygon fill="#63b8ff" stroke="#63b8ff" points="307.24,-25.11 315.91,-19.03 305.33,-18.38 307.24,-25.11"/>
</a>
</g>
</g>
<!-- Node11 -->
<g id="Node000011" class="node">
<title>Node11</title>
<g id="a_Node000011"><a xlink:href="lexer__handlers_8c.html#afa8aa1a23dd8c155bcfb4145f2099aaf" target="_top" xlink:title=" ">
<polygon fill="white" stroke="#666666" points="408,-93 303,-93 303,-74 408,-74 408,-93"/>
<text text-anchor="middle" x="355.5" y="-81" font-family="Helvetica,sans-Serif" font-size="10.00">handle_semicolon</text>
</a>
</g>
</g>
<!-- Node8&#45;&gt;Node11 -->
<g id="edge14_Node000008_Node000011" class="edge">
<title>Node8&#45;&gt;Node11</title>
<g id="a_edge14_Node000008_Node000011"><a xlink:title=" ">
<path fill="none" stroke="#63b8ff" d="M245.54,-71.05C260.44,-72.75 277.05,-74.65 292.71,-76.44"/>
<polygon fill="#63b8ff" stroke="#63b8ff" points="292.51,-79.94 302.84,-77.6 293.3,-72.98 292.51,-79.94"/>
</a>
</g>
</g>
<!-- Node9&#45;&gt;Node4 -->
<g id="edge11_Node000009_Node000004" class="edge">
<title>Node9&#45;&gt;Node4</title>
<g id="a_edge11_Node000009_Node000004"><a xlink:title=" ">
<path fill="none" stroke="#63b8ff" d="M396.55,-52.42C405.81,-55.08 415.22,-58.93 423,-64.5 449.5,-83.49 468.09,-117.47 477.77,-138.67"/>
<polygon fill="#63b8ff" stroke="#63b8ff" points="474.6,-140.17 481.8,-147.94 481.02,-137.37 474.6,-140.17"/>
</a>
</g>
</g>
<!-- Node10&#45;&gt;Node4 -->
<g id="edge13_Node000010_Node000004" class="edge">
<title>Node10&#45;&gt;Node4</title>
<g id="a_edge13_Node000010_Node000004"><a xlink:title=" ">
<path fill="none" stroke="#63b8ff" d="M402.33,-16.31C409.79,-18.92 417.02,-22.53 423,-27.5 457.85,-56.47 474.66,-109.45 481.52,-138.01"/>
<polygon fill="#63b8ff" stroke="#63b8ff" points="478.15,-138.99 483.75,-147.98 484.99,-137.46 478.15,-138.99"/>
</a>
</g>
</g>
<!-- Node11&#45;&gt;Node4 -->
<g id="edge15_Node000011_Node000004" class="edge">
<title>Node11&#45;&gt;Node4</title>
<g id="a_edge15_Node000011_Node000004"><a xlink:title=" ">
<path fill="none" stroke="#63b8ff" d="M403.01,-93.09C409.92,-95.36 416.8,-98.13 423,-101.5 441.27,-111.42 458.6,-127.69 470.35,-140.14"/>
<polygon fill="#63b8ff" stroke="#63b8ff" points="467.9,-142.64 477.23,-147.67 473.07,-137.92 467.9,-142.64"/>
</a>
</g>
</g>
<!-- Node12&#45;&gt;Node4 -->
<g id="edge17_Node000012_Node000004" class="edge">
<title>Node12&#45;&gt;Node4</title>
<g id="a_edge17_Node000012_Node000004"><a xlink:title=" ">
<path fill="none" stroke="#63b8ff" d="M252.2,-193.58C298.21,-191.27 365.3,-186.26 423,-175.5 432.54,-173.72 442.71,-171.11 452.02,-168.42"/>
<polygon fill="#63b8ff" stroke="#63b8ff" points="453.15,-171.74 461.72,-165.52 451.13,-165.04 453.15,-171.74"/>
</a>
</g>
</g>
<!-- Node13&#45;&gt;Node2 -->
<g id="edge19_Node000013_Node000002" class="edge">
<title>Node13&#45;&gt;Node2</title>
<g id="a_edge19_Node000013_Node000002"><a xlink:title=" ">
<path fill="none" stroke="#63b8ff" d="M212.6,-290.1C230.34,-300.68 260.41,-317.64 288,-328.5 294.81,-331.18 302.16,-333.61 309.41,-335.75"/>
<polygon fill="#63b8ff" stroke="#63b8ff" points="308.6,-339.15 319.17,-338.49 310.49,-332.42 308.6,-339.15"/>
</a>
</g>
</g>
<!-- Node13&#45;&gt;Node4 -->
<g id="edge20_Node000013_Node000004" class="edge">
<title>Node13&#45;&gt;Node4</title>
<g id="a_edge20_Node000013_Node000004"><a xlink:title=" ">
<path fill="none" stroke="#63b8ff" d="M240.22,-277.78C287.93,-273.12 365.55,-260.52 423,-226.5 444.39,-213.83 462.64,-191.48 473.8,-175.65"/>
<polygon fill="#63b8ff" stroke="#63b8ff" points="476.81,-177.45 479.52,-167.21 471.01,-173.52 476.81,-177.45"/>
</a>
</g>
</g>
<!-- Node14 -->
<g id="Node000014" class="node">
<title>Node14</title>
<g id="a_Node000014"><a xlink:href="lexer__handlers_8c.html#a1320ab2067e73a5de0d576175ad3d363" target="_top" xlink:title=" ">
<polygon fill="white" stroke="#666666" points="382.5,-319 328.5,-319 328.5,-300 382.5,-300 382.5,-319"/>
<text text-anchor="middle" x="355.5" y="-307" font-family="Helvetica,sans-Serif" font-size="10.00">new_op</text>
</a>
</g>
</g>
<!-- Node13&#45;&gt;Node14 -->
<g id="edge21_Node000013_Node000014" class="edge">
<title>Node13&#45;&gt;Node14</title>
<g id="a_edge21_Node000013_Node000014"><a xlink:title=" ">
<path fill="none" stroke="#63b8ff" d="M240.04,-288.42C264.63,-292.95 295.12,-298.57 318.45,-302.86"/>
<polygon fill="#63b8ff" stroke="#63b8ff" points="317.82,-306.31 328.29,-304.67 319.09,-299.42 317.82,-306.31"/>
</a>
</g>
</g>
<!-- Node14&#45;&gt;Node4 -->
<g id="edge22_Node000014_Node000004" class="edge">
<title>Node14&#45;&gt;Node4</title>
<g id="a_edge22_Node000014_Node000004"><a xlink:title=" ">
<path fill="none" stroke="#63b8ff" d="M382.6,-304.96C395.97,-301.52 411.76,-295.58 423,-285.5 456.14,-255.75 473.59,-204.51 481.02,-176.74"/>
<polygon fill="#63b8ff" stroke="#63b8ff" points="484.41,-177.58 483.46,-167.03 477.63,-175.87 484.41,-177.58"/>
</a>
</g>
</g>
<!-- Node15 -->
<g id="Node000015" class="node">
<title>Node15</title>
<g id="a_Node000015"><a xlink:href="lexer__utils_8c.html#ad3b801c5fcc7cb2d760cb161bf5038a0" target="_top" xlink:title=" ">
<polygon fill="white" stroke="#666666" points="514,-319 459,-319 459,-300 514,-300 514,-319"/>
<text text-anchor="middle" x="486.5" y="-307" font-family="Helvetica,sans-Serif" font-size="10.00">valid_io</text>
</a>
</g>
</g>
<!-- Node14&#45;&gt;Node15 -->
<g id="edge23_Node000014_Node000015" class="edge">
<title>Node14&#45;&gt;Node15</title>
<g id="a_edge23_Node000014_Node000015"><a xlink:title=" ">
<path fill="none" stroke="#63b8ff" d="M382.61,-309.5C401.63,-309.5 427.65,-309.5 448.77,-309.5"/>
<polygon fill="#63b8ff" stroke="#63b8ff" points="448.99,-313 458.99,-309.5 448.99,-306 448.99,-313"/>
</a>
</g>
</g>
<!-- Node16 -->
<g id="Node000016" class="node">
<title>Node16</title>
<g id="a_Node000016"><a xlink:href="lexer__utils_8c.html#a8fa30988b9ccc705850dfee0220bf34a" target="_top" xlink:title=" ">
<polygon fill="white" stroke="#666666" points="606,-319 550,-319 550,-300 606,-300 606,-319"/>
<text text-anchor="middle" x="578" y="-307" font-family="Helvetica,sans-Serif" font-size="10.00">all_digit</text>
</a>
</g>
</g>
<!-- Node15&#45;&gt;Node16 -->
<g id="edge24_Node000015_Node000016" class="edge">
<title>Node15&#45;&gt;Node16</title>
<g id="a_edge24_Node000015_Node000016"><a xlink:title=" ">
<path fill="none" stroke="#63b8ff" d="M514.35,-309.5C522.33,-309.5 531.22,-309.5 539.74,-309.5"/>
<polygon fill="#63b8ff" stroke="#63b8ff" points="539.86,-313 549.86,-309.5 539.86,-306 539.86,-313"/>
</a>
</g>
</g>
</g>
</svg>
