<?xml version="1.0" encoding="UTF-8" standalone="no"?>
<!DOCTYPE svg PUBLIC "-//W3C//DTD SVG 1.1//EN"
 "http://www.w3.org/Graphics/SVG/1.1/DTD/svg11.dtd">
<!-- Generated by graphviz version 2.43.0 (0)
 -->
<!-- Title: src/lexer/lexer_aux.h Pages: 1 -->
<svg width="144pt" height="192pt"
 viewBox="0.00 0.00 144.00 192.00" xmlns="http://www.w3.org/2000/svg" xmlns:xlink="http://www.w3.org/1999/xlink">
<g id="graph0" class="graph" transform="scale(1 1) rotate(0) translate(4 188)">
<title>src/lexer/lexer_aux.h</title>
<!-- Node1 -->
<g id="Node000001" class="node">
<title>Node1</title>
<g id="a_Node000001"><a xlink:title=" ">
<polygon fill="#999999" stroke="#666666" points="117,-184 0,-184 0,-165 117,-165 117,-184"/>
<text text-anchor="middle" x="58.5" y="-172" font-family="Helvetica,sans-Serif" font-size="10.00">src/lexer/lexer_aux.h</text>
</a>
</g>
</g>
<!-- Node2 -->
<g id="Node000002" class="node">
<title>Node2</title>
<g id="a_Node000002"><a xlink:title=" ">
<polygon fill="#e0e0e0" stroke="#999999" points="100.5,-19 50.5,-19 50.5,0 100.5,0 100.5,-19"/>
<text text-anchor="middle" x="75.5" y="-7" font-family="Helvetica,sans-Serif" font-size="10.00">stdio.h</text>
</a>
</g>
</g>
<!-- Node1&#45;&gt;Node2 -->
<g id="edge1_Node000001_Node000002" class="edge">
<title>Node1&#45;&gt;Node2</title>
<g id="a_edge1_Node000001_Node000002"><a xlink:title=" ">
<path fill="none" stroke="#63b8ff" d="M51.85,-164.86C37.33,-144.88 5.47,-94.17 23.5,-55 29.25,-42.52 40.41,-32.24 50.92,-24.71"/>
<polygon fill="#63b8ff" stroke="#63b8ff" points="53.07,-27.49 59.47,-19.05 49.2,-21.65 53.07,-27.49"/>
</a>
</g>
</g>
<!-- Node3 -->
<g id="Node000003" class="node">
<title>Node3</title>
<g id="a_Node000003"><a xlink:href="token_8h.html" target="_top" xlink:title=" ">
<polygon fill="white" stroke="#666666" points="118.5,-74 32.5,-74 32.5,-55 118.5,-55 118.5,-74"/>
<text text-anchor="middle" x="75.5" y="-62" font-family="Helvetica,sans-Serif" font-size="10.00">../utils/token.h</text>
</a>
</g>
</g>
<!-- Node1&#45;&gt;Node3 -->
<g id="edge2_Node000001_Node000003" class="edge">
<title>Node1&#45;&gt;Node3</title>
<g id="a_edge2_Node000001_Node000003"><a xlink:title=" ">
<path fill="none" stroke="#63b8ff" d="M59.89,-164.66C62.64,-147.17 68.84,-107.8 72.54,-84.27"/>
<polygon fill="#63b8ff" stroke="#63b8ff" points="76.04,-84.58 74.14,-74.16 69.12,-83.49 76.04,-84.58"/>
</a>
</g>
</g>
<!-- Node4 -->
<g id="Node000004" class="node">
<title>Node4</title>
<g id="a_Node000004"><a xlink:href="lexer_8h.html" target="_top" xlink:title=" ">
<polygon fill="white" stroke="#666666" points="136,-129 87,-129 87,-110 136,-110 136,-129"/>
<text text-anchor="middle" x="111.5" y="-117" font-family="Helvetica,sans-Serif" font-size="10.00">lexer.h</text>
</a>
</g>
</g>
<!-- Node1&#45;&gt;Node4 -->
<g id="edge4_Node000001_Node000004" class="edge">
<title>Node1&#45;&gt;Node4</title>
<g id="a_edge4_Node000001_Node000004"><a xlink:title=" ">
<path fill="none" stroke="#63b8ff" d="M67.25,-164.75C74.97,-157.03 86.4,-145.6 95.72,-136.28"/>
<polygon fill="#63b8ff" stroke="#63b8ff" points="98.31,-138.64 102.91,-129.09 93.36,-133.69 98.31,-138.64"/>
</a>
</g>
</g>
<!-- Node3&#45;&gt;Node2 -->
<g id="edge3_Node000003_Node000002" class="edge">
<title>Node3&#45;&gt;Node2</title>
<g id="a_edge3_Node000003_Node000002"><a xlink:title=" ">
<path fill="none" stroke="#63b8ff" d="M75.5,-54.75C75.5,-47.8 75.5,-37.85 75.5,-29.13"/>
<polygon fill="#63b8ff" stroke="#63b8ff" points="79,-29.09 75.5,-19.09 72,-29.09 79,-29.09"/>
</a>
</g>
</g>
<!-- Node4&#45;&gt;Node2 -->
<g id="edge5_Node000004_Node000002" class="edge">
<title>Node4&#45;&gt;Node2</title>
<g id="a_edge5_Node000004_Node000002"><a xlink:title=" ">
<path fill="none" stroke="#63b8ff" d="M117.16,-109.95C124.67,-97.43 136.06,-73.59 127.5,-55 121.75,-42.52 110.59,-32.24 100.08,-24.71"/>
<polygon fill="#63b8ff" stroke="#63b8ff" points="101.8,-21.65 91.53,-19.05 97.93,-27.49 101.8,-21.65"/>
</a>
</g>
</g>
<!-- Node4&#45;&gt;Node3 -->
<g id="edge6_Node000004_Node000003" class="edge">
<title>Node4&#45;&gt;Node3</title>
<g id="a_edge6_Node000004_Node000003"><a xlink:title=" ">
<path fill="none" stroke="#63b8ff" d="M105.56,-109.75C100.52,-102.34 93.16,-91.5 86.99,-82.41"/>
<polygon fill="#63b8ff" stroke="#63b8ff" points="89.85,-80.39 81.33,-74.09 84.06,-84.33 89.85,-80.39"/>
</a>
</g>
</g>
</g>
</svg>
