<?xml version="1.0" encoding="UTF-8" standalone="no"?>
<!DOCTYPE svg PUBLIC "-//W3C//DTD SVG 1.1//EN"
 "http://www.w3.org/Graphics/SVG/1.1/DTD/svg11.dtd">
<!-- Generated by graphviz version 2.43.0 (0)
 -->
<!-- Title: lexer Pages: 1 -->
<svg width="798pt" height="645pt"
 viewBox="0.00 0.00 798.00 645.29" xmlns="http://www.w3.org/2000/svg" xmlns:xlink="http://www.w3.org/1999/xlink">
<g id="graph0" class="graph" transform="scale(1 1) rotate(0) translate(4 641.29)">
<title>lexer</title>
<!-- Node1 -->
<g id="Node000001" class="node">
<title>Node1</title>
<g id="a_Node000001"><a xlink:title="Transforme le FILE en token.">
<polygon fill="#999999" stroke="#666666" points="41,-432 0,-432 0,-413 41,-413 41,-432"/>
<text text-anchor="middle" x="20.5" y="-420" font-family="Helvetica,sans-Serif" font-size="10.00">lexer</text>
</a>
</g>
</g>
<!-- Node2 -->
<g id="Node000002" class="node">
<title>Node2</title>
<g id="a_Node000002"><a xlink:href="lexer__tokens_8c.html#ae59c383936dadf54742b836a5bd2a70b" target="_top" xlink:title=" ">
<polygon fill="white" stroke="#666666" points="575.5,-469 503.5,-469 503.5,-450 575.5,-450 575.5,-469"/>
<text text-anchor="middle" x="539.5" y="-457" font-family="Helvetica,sans-Serif" font-size="10.00">check_type</text>
</a>
</g>
</g>
<!-- Node1&#45;&gt;Node2 -->
<g id="edge1_Node000001_Node000002" class="edge">
<title>Node1&#45;&gt;Node2</title>
<g id="a_edge1_Node000001_Node000002"><a xlink:title=" ">
<path fill="none" stroke="#63b8ff" d="M32.56,-432.24C43.19,-441.06 60.11,-453.68 77,-460.5 121.72,-478.54 135.94,-474.49 184,-478.5 294.77,-487.75 425.41,-474.54 492.95,-465.92"/>
<polygon fill="#63b8ff" stroke="#63b8ff" points="493.77,-469.34 503.23,-464.58 492.86,-462.4 493.77,-469.34"/>
</a>
</g>
</g>
<!-- Node3 -->
<g id="Node000003" class="node">
<title>Node3</title>
<g id="a_Node000003"><a xlink:href="lexer__tokens_8c.html#af41b4fb75a0f3ece50d1c55cf5ad55bd" target="_top" xlink:title=" ">
<polygon fill="white" stroke="#666666" points="146,-414 79,-414 79,-395 146,-395 146,-414"/>
<text text-anchor="middle" x="112.5" y="-402" font-family="Helvetica,sans-Serif" font-size="10.00">end_token</text>
</a>
</g>
</g>
<!-- Node1&#45;&gt;Node3 -->
<g id="edge2_Node000001_Node000003" class="edge">
<title>Node1&#45;&gt;Node3</title>
<g id="a_edge2_Node000001_Node000003"><a xlink:title=" ">
<path fill="none" stroke="#63b8ff" d="M41.03,-418.59C49.24,-416.95 59.14,-414.97 68.89,-413.02"/>
<polygon fill="#63b8ff" stroke="#63b8ff" points="69.8,-416.41 78.91,-411.02 68.42,-409.55 69.8,-416.41"/>
</a>
</g>
</g>
<!-- Node4 -->
<g id="Node000004" class="node">
<title>Node4</title>
<g id="a_Node000004"><a xlink:href="token_8c.html#a491cb915cd703d12b24d7c6adc0412cc" target="_top" xlink:title=" ">
<polygon fill="white" stroke="#666666" points="146.5,-377 78.5,-377 78.5,-358 146.5,-358 146.5,-377"/>
<text text-anchor="middle" x="112.5" y="-365" font-family="Helvetica,sans-Serif" font-size="10.00">free_token</text>
</a>
</g>
</g>
<!-- Node1&#45;&gt;Node4 -->
<g id="edge3_Node000001_Node000004" class="edge">
<title>Node1&#45;&gt;Node4</title>
<g id="a_edge3_Node000001_Node000004"><a xlink:title=" ">
<path fill="none" stroke="#63b8ff" d="M35.93,-412.74C47.02,-405.32 62.81,-394.99 77,-386.5 79.48,-385.02 82.07,-383.51 84.68,-382.02"/>
<polygon fill="#63b8ff" stroke="#63b8ff" points="86.43,-385.05 93.45,-377.12 83.02,-378.94 86.43,-385.05"/>
</a>
</g>
</g>
<!-- Node5 -->
<g id="Node000005" class="node">
<title>Node5</title>
<g id="a_Node000005"><a xlink:href="token_8c.html#a4f0f028b792947862bc2364f30f3d3d2" target="_top" xlink:title="Init struct token.">
<polygon fill="white" stroke="#666666" points="145,-340 80,-340 80,-321 145,-321 145,-340"/>
<text text-anchor="middle" x="112.5" y="-328" font-family="Helvetica,sans-Serif" font-size="10.00">init_token</text>
</a>
</g>
</g>
<!-- Node1&#45;&gt;Node5 -->
<g id="edge4_Node000001_Node000005" class="edge">
<title>Node1&#45;&gt;Node5</title>
<g id="a_edge4_Node000001_Node000005"><a xlink:title=" ">
<path fill="none" stroke="#63b8ff" d="M26.94,-412.97C35.85,-397.98 54.82,-368.64 77,-349.5 78.68,-348.05 80.49,-346.66 82.37,-345.34"/>
<polygon fill="#63b8ff" stroke="#63b8ff" points="84.25,-348.29 90.87,-340.03 80.54,-342.36 84.25,-348.29"/>
</a>
</g>
</g>
<!-- Node6 -->
<g id="Node000006" class="node">
<title>Node6</title>
<g id="a_Node000006"><a xlink:href="lexer__operators_8c.html#a274e606313b69e42745e7278ed244bc8" target="_top" xlink:title="Handle a possible operator.">
<polygon fill="white" stroke="#666666" points="273,-616 199,-616 199,-597 273,-597 273,-616"/>
<text text-anchor="middle" x="236" y="-604" font-family="Helvetica,sans-Serif" font-size="10.00">manage_op</text>
</a>
</g>
</g>
<!-- Node1&#45;&gt;Node6 -->
<g id="edge5_Node000001_Node000006" class="edge">
<title>Node1&#45;&gt;Node6</title>
<g id="a_edge5_Node000001_Node000006"><a xlink:title=" ">
<path fill="none" stroke="#63b8ff" d="M22.63,-432.35C26.02,-457.26 38.36,-523.28 77,-558.5 107.63,-586.42 154.04,-598.11 188.65,-603"/>
<polygon fill="#63b8ff" stroke="#63b8ff" points="188.62,-606.53 198.98,-604.31 189.5,-599.58 188.62,-606.53"/>
</a>
</g>
</g>
<!-- Node8 -->
<g id="Node000008" class="node">
<title>Node8</title>
<g id="a_Node000008"><a xlink:href="lexer__operators_8c.html#a0758cae1bae4276754a185e231ad4760" target="_top" xlink:title="Handle different redirections.">
<polygon fill="white" stroke="#666666" points="422,-583 338,-583 338,-564 422,-564 422,-583"/>
<text text-anchor="middle" x="380" y="-571" font-family="Helvetica,sans-Serif" font-size="10.00">manage_redir</text>
</a>
</g>
</g>
<!-- Node1&#45;&gt;Node8 -->
<g id="edge7_Node000001_Node000008" class="edge">
<title>Node1&#45;&gt;Node8</title>
<g id="a_edge7_Node000001_Node000008"><a xlink:title=" ">
<path fill="none" stroke="#63b8ff" d="M24.59,-432.08C31.08,-450.62 48,-491.33 77,-511.5 152.75,-564.2 263.44,-574.04 327.65,-574.84"/>
<polygon fill="#63b8ff" stroke="#63b8ff" points="327.91,-578.34 337.93,-574.9 327.95,-571.34 327.91,-578.34"/>
</a>
</g>
</g>
<!-- Node9 -->
<g id="Node000009" class="node">
<title>Node9</title>
<g id="a_Node000009"><a xlink:href="lexer_8c.html#a14a1affa5f1ee7d92339872bcd3cc602" target="_top" xlink:title="identique a la fonction lexer">
<polygon fill="white" stroke="#666666" points="148,-451 77,-451 77,-432 148,-432 148,-451"/>
<text text-anchor="middle" x="112.5" y="-439" font-family="Helvetica,sans-Serif" font-size="10.00">sub_switch</text>
</a>
</g>
</g>
<!-- Node1&#45;&gt;Node9 -->
<g id="edge9_Node000001_Node000009" class="edge">
<title>Node1&#45;&gt;Node9</title>
<g id="a_edge9_Node000001_Node000009"><a xlink:title=" ">
<path fill="none" stroke="#63b8ff" d="M41.03,-426.62C48.7,-428.24 57.84,-430.17 66.95,-432.1"/>
<polygon fill="#63b8ff" stroke="#63b8ff" points="66.26,-435.53 76.77,-434.17 67.7,-428.68 66.26,-435.53"/>
</a>
</g>
</g>
<!-- Node26 -->
<g id="Node000026" class="node">
<title>Node26</title>
<g id="a_Node000026"><a xlink:href="lexer__tokens_8c.html#a78b2b413e7059cf4c7579a83bf767d13" target="_top" xlink:title=" ">
<polygon fill="white" stroke="#666666" points="148,-56 77,-56 77,-37 148,-37 148,-56"/>
<text text-anchor="middle" x="112.5" y="-44" font-family="Helvetica,sans-Serif" font-size="10.00">verif_token</text>
</a>
</g>
</g>
<!-- Node1&#45;&gt;Node26 -->
<g id="edge40_Node000001_Node000026" class="edge">
<title>Node1&#45;&gt;Node26</title>
<g id="a_edge40_Node000001_Node000026"><a xlink:title=" ">
<path fill="none" stroke="#63b8ff" d="M23.82,-412.83C35.75,-362.96 90.42,-134.57 106.83,-66.01"/>
<polygon fill="#63b8ff" stroke="#63b8ff" points="110.28,-66.65 109.2,-56.11 103.47,-65.02 110.28,-66.65"/>
</a>
</g>
</g>
<!-- Node7 -->
<g id="Node000007" class="node">
<title>Node7</title>
<g id="a_Node000007"><a xlink:href="dot_8c.html#a36f9e0f75603ec6472a90c595e3bba79" target="_top" xlink:title="Concat path and string with &#39;/&#39; between.">
<polygon fill="white" stroke="#666666" points="695,-338 646,-338 646,-319 695,-319 695,-338"/>
<text text-anchor="middle" x="670.5" y="-326" font-family="Helvetica,sans-Serif" font-size="10.00">concat</text>
</a>
</g>
</g>
<!-- Node6&#45;&gt;Node7 -->
<g id="edge6_Node000006_Node000007" class="edge">
<title>Node6&#45;&gt;Node7</title>
<g id="a_edge6_Node000006_Node000007"><a xlink:title=" ">
<path fill="none" stroke="#63b8ff" d="M270.06,-616.02C341.34,-634.33 510.82,-665.65 607,-581.5 667.42,-528.64 621.74,-481.91 643,-404.5 648.41,-384.79 656.29,-362.8 662.05,-347.56"/>
<polygon fill="#63b8ff" stroke="#63b8ff" points="665.33,-348.79 665.64,-338.2 658.79,-346.29 665.33,-348.79"/>
</a>
</g>
</g>
<!-- Node8&#45;&gt;Node7 -->
<g id="edge8_Node000008_Node000007" class="edge">
<title>Node8&#45;&gt;Node7</title>
<g id="a_edge8_Node000008_Node000007"><a xlink:title=" ">
<path fill="none" stroke="#63b8ff" d="M422.37,-581.98C472.38,-589.64 556.12,-593.82 607,-549.5 657.07,-505.89 624.05,-468.14 643,-404.5 648.83,-384.91 656.65,-362.9 662.28,-347.63"/>
<polygon fill="#63b8ff" stroke="#63b8ff" points="665.57,-348.84 665.78,-338.24 659.01,-346.39 665.57,-348.84"/>
</a>
</g>
</g>
<!-- Node9&#45;&gt;Node7 -->
<g id="edge10_Node000009_Node000007" class="edge">
<title>Node9&#45;&gt;Node7</title>
<g id="a_edge10_Node000009_Node000007"><a xlink:title=" ">
<path fill="none" stroke="#63b8ff" d="M137.99,-431.96C141.73,-429.64 145.26,-426.84 148,-423.5 184.36,-379.1 158.32,-350.82 184,-299.5 230.29,-206.97 231.42,-159.69 324,-113.5 353.68,-98.69 585.93,-101.38 607,-117.5 637.97,-141.2 659.29,-261.27 666.66,-308.94"/>
<polygon fill="#63b8ff" stroke="#63b8ff" points="663.21,-309.56 668.16,-318.93 670.13,-308.52 663.21,-309.56"/>
</a>
</g>
</g>
<!-- Node10 -->
<g id="Node000010" class="node">
<title>Node10</title>
<g id="a_Node000010"><a xlink:href="lexer__handlers_8c.html#aaf817088d95d074a2d4e6bfce7799723" target="_top" xlink:title=" ">
<polygon fill="white" stroke="#666666" points="274,-469 198,-469 198,-450 274,-450 274,-469"/>
<text text-anchor="middle" x="236" y="-457" font-family="Helvetica,sans-Serif" font-size="10.00">handle_com</text>
</a>
</g>
</g>
<!-- Node9&#45;&gt;Node10 -->
<g id="edge11_Node000009_Node000010" class="edge">
<title>Node9&#45;&gt;Node10</title>
<g id="a_edge11_Node000009_Node000010"><a xlink:title=" ">
<path fill="none" stroke="#63b8ff" d="M148.32,-446.66C160.49,-448.46 174.37,-450.52 187.41,-452.45"/>
<polygon fill="#63b8ff" stroke="#63b8ff" points="187.22,-455.96 197.63,-453.96 188.25,-449.04 187.22,-455.96"/>
</a>
</g>
</g>
<!-- Node11 -->
<g id="Node000011" class="node">
<title>Node11</title>
<g id="a_Node000011"><a xlink:href="lexer__handlers_8c.html#aa76e470a78c6e91c7db6cce558b1a768" target="_top" xlink:title=" ">
<polygon fill="white" stroke="#666666" points="277.5,-432 194.5,-432 194.5,-413 277.5,-413 277.5,-432"/>
<text text-anchor="middle" x="236" y="-420" font-family="Helvetica,sans-Serif" font-size="10.00">handle_quote</text>
</a>
</g>
</g>
<!-- Node9&#45;&gt;Node11 -->
<g id="edge13_Node000009_Node000011" class="edge">
<title>Node9&#45;&gt;Node11</title>
<g id="a_edge13_Node000009_Node000011"><a xlink:title=" ">
<path fill="none" stroke="#63b8ff" d="M148.32,-436.06C159.49,-434.31 172.11,-432.33 184.19,-430.45"/>
<polygon fill="#63b8ff" stroke="#63b8ff" points="184.83,-433.89 194.16,-428.89 183.74,-426.97 184.83,-433.89"/>
</a>
</g>
</g>
<!-- Node12 -->
<g id="Node000012" class="node">
<title>Node12</title>
<g id="a_Node000012"><a xlink:href="lexer_8c.html#a65b9b0626e01e0653ddcae13e7c6a709" target="_top" xlink:title="Gestion des délimiteurs.">
<polygon fill="white" stroke="#666666" points="288,-328 184,-328 184,-309 288,-309 288,-328"/>
<text text-anchor="middle" x="236" y="-316" font-family="Helvetica,sans-Serif" font-size="10.00">sub_switch_delim</text>
</a>
</g>
</g>
<!-- Node9&#45;&gt;Node12 -->
<g id="edge15_Node000009_Node000012" class="edge">
<title>Node9&#45;&gt;Node12</title>
<g id="a_edge15_Node000009_Node000012"><a xlink:title=" ">
<path fill="none" stroke="#63b8ff" d="M135.12,-431.91C139.59,-429.47 144.11,-426.64 148,-423.5 179.57,-397.97 207.89,-359.53 223.14,-336.92"/>
<polygon fill="#63b8ff" stroke="#63b8ff" points="226.25,-338.56 228.85,-328.29 220.41,-334.7 226.25,-338.56"/>
</a>
</g>
</g>
<!-- Node10&#45;&gt;Node7 -->
<g id="edge12_Node000010_Node000007" class="edge">
<title>Node10&#45;&gt;Node7</title>
<g id="a_edge12_Node000010_Node000007"><a xlink:title=" ">
<path fill="none" stroke="#63b8ff" d="M255.26,-469.01C312.94,-497.6 494.13,-576.1 607,-497.5 610.23,-495.25 647.06,-391.95 662.62,-347.98"/>
<polygon fill="#63b8ff" stroke="#63b8ff" points="665.98,-349 666.01,-338.4 659.38,-346.67 665.98,-349"/>
</a>
</g>
</g>
<!-- Node11&#45;&gt;Node7 -->
<g id="edge14_Node000011_Node000007" class="edge">
<title>Node11&#45;&gt;Node7</title>
<g id="a_edge14_Node000011_Node000007"><a xlink:title=" ">
<path fill="none" stroke="#63b8ff" d="M266.61,-432.06C344.17,-456.31 551.12,-515.75 607,-478.5 618.53,-470.81 649.19,-386.53 662.81,-347.78"/>
<polygon fill="#63b8ff" stroke="#63b8ff" points="666.18,-348.76 666.18,-338.16 659.57,-346.45 666.18,-348.76"/>
</a>
</g>
</g>
<!-- Node12&#45;&gt;Node2 -->
<g id="edge16_Node000012_Node000002" class="edge">
<title>Node12&#45;&gt;Node2</title>
<g id="a_edge16_Node000012_Node000002"><a xlink:title=" ">
<path fill="none" stroke="#63b8ff" d="M244.22,-328.18C257.84,-345.73 289.08,-382.79 324,-402.5 377.7,-432.81 448.09,-447.5 493.31,-454.25"/>
<polygon fill="#63b8ff" stroke="#63b8ff" points="493.01,-457.74 503.4,-455.69 493.99,-450.81 493.01,-457.74"/>
</a>
</g>
</g>
<!-- Node13 -->
<g id="Node000013" class="node">
<title>Node13</title>
<g id="a_Node000013"><a xlink:href="lexer__handlers_8c.html#a9cdc56179aaccddb64447a4d56698992" target="_top" xlink:title=" ">
<polygon fill="white" stroke="#666666" points="432,-142 328,-142 328,-123 432,-123 432,-142"/>
<text text-anchor="middle" x="380" y="-130" font-family="Helvetica,sans-Serif" font-size="10.00">handle_backslash</text>
</a>
</g>
</g>
<!-- Node12&#45;&gt;Node13 -->
<g id="edge17_Node000012_Node000013" class="edge">
<title>Node12&#45;&gt;Node13</title>
<g id="a_edge17_Node000012_Node000013"><a xlink:title=" ">
<path fill="none" stroke="#63b8ff" d="M242.55,-308.94C255.56,-286.83 289.55,-230.84 324,-188.5 335.35,-174.55 349.61,-160.1 360.77,-149.38"/>
<polygon fill="#63b8ff" stroke="#63b8ff" points="363.41,-151.7 368.26,-142.28 358.59,-146.62 363.41,-151.7"/>
</a>
</g>
</g>
<!-- Node14 -->
<g id="Node000014" class="node">
<title>Node14</title>
<g id="a_Node000014"><a xlink:href="lexer__handlers_8c.html#a8c5df02ee3ff790dc6256318b3dd132f" target="_top" xlink:title="Crée un token de type OPENING_BRACKET ou CLOSING_BRACKET si possible.">
<polygon fill="white" stroke="#666666" points="425.5,-328 334.5,-328 334.5,-309 425.5,-309 425.5,-328"/>
<text text-anchor="middle" x="380" y="-316" font-family="Helvetica,sans-Serif" font-size="10.00">handle_bracket</text>
</a>
</g>
</g>
<!-- Node12&#45;&gt;Node14 -->
<g id="edge19_Node000012_Node000014" class="edge">
<title>Node12&#45;&gt;Node14</title>
<g id="a_edge19_Node000012_Node000014"><a xlink:title=" ">
<path fill="none" stroke="#63b8ff" d="M288.27,-318.5C299.94,-318.5 312.39,-318.5 324.2,-318.5"/>
<polygon fill="#63b8ff" stroke="#63b8ff" points="324.39,-322 334.39,-318.5 324.39,-315 324.39,-322"/>
</a>
</g>
</g>
<!-- Node17 -->
<g id="Node000017" class="node">
<title>Node17</title>
<g id="a_Node000017"><a xlink:href="lexer__handlers_8c.html#a579ccaa49e18cca908ce2409b06b5825" target="_top" xlink:title=" ">
<polygon fill="white" stroke="#666666" points="429.5,-273 330.5,-273 330.5,-254 429.5,-254 429.5,-273"/>
<text text-anchor="middle" x="380" y="-261" font-family="Helvetica,sans-Serif" font-size="10.00">handle_delimiter</text>
</a>
</g>
</g>
<!-- Node12&#45;&gt;Node17 -->
<g id="edge24_Node000012_Node000017" class="edge">
<title>Node12&#45;&gt;Node17</title>
<g id="a_edge24_Node000012_Node000017"><a xlink:title=" ">
<path fill="none" stroke="#63b8ff" d="M261.73,-308.92C284.7,-300.02 319.12,-286.69 344.73,-276.77"/>
<polygon fill="#63b8ff" stroke="#63b8ff" points="346.01,-280.03 354.07,-273.16 343.48,-273.5 346.01,-280.03"/>
</a>
</g>
</g>
<!-- Node21 -->
<g id="Node000021" class="node">
<title>Node21</title>
<g id="a_Node000021"><a xlink:href="lexer__handlers_8c.html#a3122df83e320b8f4658097885f266c59" target="_top" xlink:title="Crée un token de type FUNCTION si possible.">
<polygon fill="white" stroke="#666666" points="436,-217 324,-217 324,-198 436,-198 436,-217"/>
<text text-anchor="middle" x="380" y="-205" font-family="Helvetica,sans-Serif" font-size="10.00">handle_parenthesis</text>
</a>
</g>
</g>
<!-- Node12&#45;&gt;Node21 -->
<g id="edge31_Node000012_Node000021" class="edge">
<title>Node12&#45;&gt;Node21</title>
<g id="a_edge31_Node000012_Node000021"><a xlink:title=" ">
<path fill="none" stroke="#63b8ff" d="M247.4,-308.99C263.4,-294.5 295.24,-266.3 324,-244.5 333.97,-236.94 345.39,-229.13 355.23,-222.64"/>
<polygon fill="#63b8ff" stroke="#63b8ff" points="357.27,-225.49 363.74,-217.11 353.45,-219.63 357.27,-225.49"/>
</a>
</g>
</g>
<!-- Node22 -->
<g id="Node000022" class="node">
<title>Node22</title>
<g id="a_Node000022"><a xlink:href="lexer_8c.html#a55722ded9ba13bad6ac777b3d0f13481" target="_top" xlink:title="Gestion des opérateurs.">
<polygon fill="white" stroke="#666666" points="424,-393 336,-393 336,-374 424,-374 424,-393"/>
<text text-anchor="middle" x="380" y="-381" font-family="Helvetica,sans-Serif" font-size="10.00">sub_switch_op</text>
</a>
</g>
</g>
<!-- Node12&#45;&gt;Node22 -->
<g id="edge33_Node000012_Node000022" class="edge">
<title>Node12&#45;&gt;Node22</title>
<g id="a_edge33_Node000012_Node000022"><a xlink:title=" ">
<path fill="none" stroke="#63b8ff" d="M257.95,-328.09C281.97,-339.08 321.53,-357.19 348.85,-369.7"/>
<polygon fill="#63b8ff" stroke="#63b8ff" points="347.41,-372.89 357.96,-373.87 350.33,-366.53 347.41,-372.89"/>
</a>
</g>
</g>
<!-- Node13&#45;&gt;Node7 -->
<g id="edge18_Node000013_Node000007" class="edge">
<title>Node13&#45;&gt;Node7</title>
<g id="a_edge18_Node000013_Node000007"><a xlink:title=" ">
<path fill="none" stroke="#63b8ff" d="M432,-123.63C481.91,-117.94 557.44,-117.71 607,-156.5 654.86,-193.96 666.09,-271.48 668.71,-308.27"/>
<polygon fill="#63b8ff" stroke="#63b8ff" points="665.24,-308.89 669.3,-318.68 672.23,-308.5 665.24,-308.89"/>
</a>
</g>
</g>
<!-- Node15 -->
<g id="Node000015" class="node">
<title>Node15</title>
<g id="a_Node000015"><a xlink:href="lexer__handlers_8c.html#af0bc509a05ea8f1f639745c3db1edff0" target="_top" xlink:title=" ">
<polygon fill="white" stroke="#666666" points="605,-356 474,-356 474,-337 605,-337 605,-356"/>
<text text-anchor="middle" x="539.5" y="-344" font-family="Helvetica,sans-Serif" font-size="10.00">handle_closing_bracket</text>
</a>
</g>
</g>
<!-- Node14&#45;&gt;Node15 -->
<g id="edge20_Node000014_Node000015" class="edge">
<title>Node14&#45;&gt;Node15</title>
<g id="a_edge20_Node000014_Node000015"><a xlink:title=" ">
<path fill="none" stroke="#63b8ff" d="M425.71,-326.45C441,-329.17 458.41,-332.26 474.9,-335.19"/>
<polygon fill="#63b8ff" stroke="#63b8ff" points="474.56,-338.69 485.02,-336.99 475.78,-331.8 474.56,-338.69"/>
</a>
</g>
</g>
<!-- Node16 -->
<g id="Node000016" class="node">
<title>Node16</title>
<g id="a_Node000016"><a xlink:href="lexer__handlers_8c.html#ac6741237800ed58a7ea25d1b02c4ada3" target="_top" xlink:title=" ">
<polygon fill="white" stroke="#666666" points="607,-319 472,-319 472,-300 607,-300 607,-319"/>
<text text-anchor="middle" x="539.5" y="-307" font-family="Helvetica,sans-Serif" font-size="10.00">handle_opening_bracket</text>
</a>
</g>
</g>
<!-- Node14&#45;&gt;Node16 -->
<g id="edge22_Node000014_Node000016" class="edge">
<title>Node14&#45;&gt;Node16</title>
<g id="a_edge22_Node000014_Node000016"><a xlink:title=" ">
<path fill="none" stroke="#63b8ff" d="M425.71,-315.95C436.94,-315.3 449.31,-314.6 461.61,-313.89"/>
<polygon fill="#63b8ff" stroke="#63b8ff" points="462.13,-317.37 471.91,-313.3 461.73,-310.38 462.13,-317.37"/>
</a>
</g>
</g>
<!-- Node15&#45;&gt;Node7 -->
<g id="edge21_Node000015_Node000007" class="edge">
<title>Node15&#45;&gt;Node7</title>
<g id="a_edge21_Node000015_Node000007"><a xlink:title=" ">
<path fill="none" stroke="#63b8ff" d="M605.38,-337.45C615.86,-335.98 626.33,-334.52 635.68,-333.22"/>
<polygon fill="#63b8ff" stroke="#63b8ff" points="636.28,-336.67 645.7,-331.82 635.32,-329.74 636.28,-336.67"/>
</a>
</g>
</g>
<!-- Node16&#45;&gt;Node7 -->
<g id="edge23_Node000016_Node000007" class="edge">
<title>Node16&#45;&gt;Node7</title>
<g id="a_edge23_Node000016_Node000007"><a xlink:title=" ">
<path fill="none" stroke="#63b8ff" d="M605.38,-319.06C615.86,-320.6 626.33,-322.14 635.68,-323.52"/>
<polygon fill="#63b8ff" stroke="#63b8ff" points="635.3,-327 645.7,-325 636.32,-320.08 635.3,-327"/>
</a>
</g>
</g>
<!-- Node18 -->
<g id="Node000018" class="node">
<title>Node18</title>
<g id="a_Node000018"><a xlink:href="lexer__handlers_8c.html#a2ed09a62089d61b6a2928dcbcc623e7f" target="_top" xlink:title=" ">
<polygon fill="white" stroke="#666666" points="580.5,-245 498.5,-245 498.5,-226 580.5,-226 580.5,-245"/>
<text text-anchor="middle" x="539.5" y="-233" font-family="Helvetica,sans-Serif" font-size="10.00">handle_blank</text>
</a>
</g>
</g>
<!-- Node17&#45;&gt;Node18 -->
<g id="edge25_Node000017_Node000018" class="edge">
<title>Node17&#45;&gt;Node18</title>
<g id="a_edge25_Node000017_Node000018"><a xlink:title=" ">
<path fill="none" stroke="#63b8ff" d="M429.54,-254.87C448.23,-251.55 469.61,-247.75 488.44,-244.4"/>
<polygon fill="#63b8ff" stroke="#63b8ff" points="489.09,-247.84 498.32,-242.64 487.86,-240.95 489.09,-247.84"/>
</a>
</g>
</g>
<!-- Node19 -->
<g id="Node000019" class="node">
<title>Node19</title>
<g id="a_Node000019"><a xlink:href="lexer__handlers_8c.html#aa69ff9b0e657615d22e4220657378e92" target="_top" xlink:title=" ">
<polygon fill="white" stroke="#666666" points="586,-208 493,-208 493,-189 586,-189 586,-208"/>
<text text-anchor="middle" x="539.5" y="-196" font-family="Helvetica,sans-Serif" font-size="10.00">handle_newline</text>
</a>
</g>
</g>
<!-- Node17&#45;&gt;Node19 -->
<g id="edge27_Node000017_Node000019" class="edge">
<title>Node17&#45;&gt;Node19</title>
<g id="a_edge27_Node000017_Node000019"><a xlink:title=" ">
<path fill="none" stroke="#63b8ff" d="M396.95,-253.93C414.75,-243.58 444.65,-227.12 472,-216.5 477.09,-214.52 482.47,-212.68 487.89,-210.99"/>
<polygon fill="#63b8ff" stroke="#63b8ff" points="489.03,-214.3 497.61,-208.1 487.03,-207.59 489.03,-214.3"/>
</a>
</g>
</g>
<!-- Node20 -->
<g id="Node000020" class="node">
<title>Node20</title>
<g id="a_Node000020"><a xlink:href="lexer__handlers_8c.html#afa8aa1a23dd8c155bcfb4145f2099aaf" target="_top" xlink:title=" ">
<polygon fill="white" stroke="#666666" points="592,-282 487,-282 487,-263 592,-263 592,-282"/>
<text text-anchor="middle" x="539.5" y="-270" font-family="Helvetica,sans-Serif" font-size="10.00">handle_semicolon</text>
</a>
</g>
</g>
<!-- Node17&#45;&gt;Node20 -->
<g id="edge29_Node000017_Node000020" class="edge">
<title>Node17&#45;&gt;Node20</title>
<g id="a_edge29_Node000017_Node000020"><a xlink:title=" ">
<path fill="none" stroke="#63b8ff" d="M429.54,-266.27C444.44,-267.13 461.05,-268.07 476.71,-268.97"/>
<polygon fill="#63b8ff" stroke="#63b8ff" points="476.66,-272.47 486.84,-269.55 477.06,-265.48 476.66,-272.47"/>
</a>
</g>
</g>
<!-- Node18&#45;&gt;Node7 -->
<g id="edge26_Node000018_Node000007" class="edge">
<title>Node18&#45;&gt;Node7</title>
<g id="a_edge26_Node000018_Node000007"><a xlink:title=" ">
<path fill="none" stroke="#63b8ff" d="M580.5,-242.1C589.67,-244.73 599.05,-248.4 607,-253.5 629.51,-267.94 648.02,-293.07 658.9,-310.23"/>
<polygon fill="#63b8ff" stroke="#63b8ff" points="655.95,-312.1 664.14,-318.82 661.92,-308.46 655.95,-312.1"/>
</a>
</g>
</g>
<!-- Node19&#45;&gt;Node7 -->
<g id="edge28_Node000019_Node000007" class="edge">
<title>Node19&#45;&gt;Node7</title>
<g id="a_edge28_Node000019_Node000007"><a xlink:title=" ">
<path fill="none" stroke="#63b8ff" d="M586.08,-205.62C593.57,-208.2 600.87,-211.71 607,-216.5 637.57,-240.38 655.48,-283.63 663.8,-308.82"/>
<polygon fill="#63b8ff" stroke="#63b8ff" points="660.56,-310.19 666.87,-318.7 667.25,-308.11 660.56,-310.19"/>
</a>
</g>
</g>
<!-- Node20&#45;&gt;Node7 -->
<g id="edge30_Node000020_Node000007" class="edge">
<title>Node20&#45;&gt;Node7</title>
<g id="a_edge30_Node000020_Node000007"><a xlink:title=" ">
<path fill="none" stroke="#63b8ff" d="M582.97,-282.07C591.09,-284.44 599.42,-287.25 607,-290.5 621.18,-296.58 635.98,-305.45 647.62,-313.09"/>
<polygon fill="#63b8ff" stroke="#63b8ff" points="645.95,-316.19 656.2,-318.88 649.87,-310.39 645.95,-316.19"/>
</a>
</g>
</g>
<!-- Node21&#45;&gt;Node7 -->
<g id="edge32_Node000021_Node000007" class="edge">
<title>Node21&#45;&gt;Node7</title>
<g id="a_edge32_Node000021_Node000007"><a xlink:title=" ">
<path fill="none" stroke="#63b8ff" d="M398.95,-197.93C439.75,-177.64 540.99,-135.61 607,-179.5 650.88,-208.68 664.02,-275.26 667.9,-308.65"/>
<polygon fill="#63b8ff" stroke="#63b8ff" points="664.45,-309.35 668.92,-318.96 671.42,-308.66 664.45,-309.35"/>
</a>
</g>
</g>
<!-- Node22&#45;&gt;Node2 -->
<g id="edge34_Node000022_Node000002" class="edge">
<title>Node22&#45;&gt;Node2</title>
<g id="a_edge34_Node000022_Node000002"><a xlink:title=" ">
<path fill="none" stroke="#63b8ff" d="M407.98,-393.09C417.22,-396.93 427.4,-401.81 436,-407.5 454.36,-419.64 452.8,-430.74 472,-441.5 478.68,-445.24 486.17,-448.23 493.65,-450.62"/>
<polygon fill="#63b8ff" stroke="#63b8ff" points="492.83,-454.03 503.41,-453.42 494.77,-447.3 492.83,-454.03"/>
</a>
</g>
</g>
<!-- Node22&#45;&gt;Node7 -->
<g id="edge35_Node000022_Node000007" class="edge">
<title>Node22&#45;&gt;Node7</title>
<g id="a_edge35_Node000022_Node000007"><a xlink:title=" ">
<path fill="none" stroke="#63b8ff" d="M424.17,-385.77C470.48,-386.9 545.65,-384.95 607,-365.5 621.8,-360.81 636.81,-352.08 648.42,-344.27"/>
<polygon fill="#63b8ff" stroke="#63b8ff" points="650.75,-346.91 656.92,-338.31 646.73,-341.18 650.75,-346.91"/>
</a>
</g>
</g>
<!-- Node23 -->
<g id="Node000023" class="node">
<title>Node23</title>
<g id="a_Node000023"><a xlink:href="lexer__handlers_8c.html#a1320ab2067e73a5de0d576175ad3d363" target="_top" xlink:title=" ">
<polygon fill="white" stroke="#666666" points="566.5,-432 512.5,-432 512.5,-413 566.5,-413 566.5,-432"/>
<text text-anchor="middle" x="539.5" y="-420" font-family="Helvetica,sans-Serif" font-size="10.00">new_op</text>
</a>
</g>
</g>
<!-- Node22&#45;&gt;Node23 -->
<g id="edge36_Node000022_Node000023" class="edge">
<title>Node22&#45;&gt;Node23</title>
<g id="a_edge36_Node000022_Node000023"><a xlink:title=" ">
<path fill="none" stroke="#63b8ff" d="M419.53,-393.04C444.82,-399.3 477.68,-407.44 502.46,-413.58"/>
<polygon fill="#63b8ff" stroke="#63b8ff" points="501.65,-416.98 512.2,-415.99 503.33,-410.19 501.65,-416.98"/>
</a>
</g>
</g>
<!-- Node23&#45;&gt;Node7 -->
<g id="edge37_Node000023_Node000007" class="edge">
<title>Node23&#45;&gt;Node7</title>
<g id="a_edge37_Node000023_Node000007"><a xlink:title=" ">
<path fill="none" stroke="#63b8ff" d="M566.53,-416.36C579.42,-412.53 594.8,-406.75 607,-398.5 627.76,-384.47 646.14,-362.03 657.5,-346.35"/>
<polygon fill="#63b8ff" stroke="#63b8ff" points="660.47,-348.21 663.34,-338.01 654.74,-344.19 660.47,-348.21"/>
</a>
</g>
</g>
<!-- Node24 -->
<g id="Node000024" class="node">
<title>Node24</title>
<g id="a_Node000024"><a xlink:href="lexer__utils_8c.html#ad3b801c5fcc7cb2d760cb161bf5038a0" target="_top" xlink:title=" ">
<polygon fill="white" stroke="#666666" points="698,-432 643,-432 643,-413 698,-413 698,-432"/>
<text text-anchor="middle" x="670.5" y="-420" font-family="Helvetica,sans-Serif" font-size="10.00">valid_io</text>
</a>
</g>
</g>
<!-- Node23&#45;&gt;Node24 -->
<g id="edge38_Node000023_Node000024" class="edge">
<title>Node23&#45;&gt;Node24</title>
<g id="a_edge38_Node000023_Node000024"><a xlink:title=" ">
<path fill="none" stroke="#63b8ff" d="M566.61,-422.5C585.63,-422.5 611.65,-422.5 632.77,-422.5"/>
<polygon fill="#63b8ff" stroke="#63b8ff" points="632.99,-426 642.99,-422.5 632.99,-419 632.99,-426"/>
</a>
</g>
</g>
<!-- Node25 -->
<g id="Node000025" class="node">
<title>Node25</title>
<g id="a_Node000025"><a xlink:href="lexer__utils_8c.html#a8fa30988b9ccc705850dfee0220bf34a" target="_top" xlink:title=" ">
<polygon fill="white" stroke="#666666" points="790,-432 734,-432 734,-413 790,-413 790,-432"/>
<text text-anchor="middle" x="762" y="-420" font-family="Helvetica,sans-Serif" font-size="10.00">all_digit</text>
</a>
</g>
</g>
<!-- Node24&#45;&gt;Node25 -->
<g id="edge39_Node000024_Node000025" class="edge">
<title>Node24&#45;&gt;Node25</title>
<g id="a_edge39_Node000024_Node000025"><a xlink:title=" ">
<path fill="none" stroke="#63b8ff" d="M698.35,-422.5C706.33,-422.5 715.22,-422.5 723.74,-422.5"/>
<polygon fill="#63b8ff" stroke="#63b8ff" points="723.86,-426 733.86,-422.5 723.86,-419 723.86,-426"/>
</a>
</g>
</g>
<!-- Node27 -->
<g id="Node000027" class="node">
<title>Node27</title>
<g id="a_Node000027"><a xlink:href="lexer__tokens_8c.html#ab8c1bbfef4c1716c7557658824823316" target="_top" xlink:title=" ">
<polygon fill="white" stroke="#666666" points="277.5,-19 194.5,-19 194.5,0 277.5,0 277.5,-19"/>
<text text-anchor="middle" x="236" y="-7" font-family="Helvetica,sans-Serif" font-size="10.00">verif_token_if</text>
</a>
</g>
</g>
<!-- Node26&#45;&gt;Node27 -->
<g id="edge41_Node000026_Node000027" class="edge">
<title>Node26&#45;&gt;Node27</title>
<g id="a_edge41_Node000026_Node000027"><a xlink:title=" ">
<path fill="none" stroke="#63b8ff" d="M144.79,-36.97C159.7,-32.43 177.72,-26.94 193.73,-22.07"/>
<polygon fill="#63b8ff" stroke="#63b8ff" points="194.85,-25.39 203.39,-19.12 192.81,-18.69 194.85,-25.39"/>
</a>
</g>
</g>
<!-- Node28 -->
<g id="Node000028" class="node">
<title>Node28</title>
<g id="a_Node000028"><a xlink:href="lexer__tokens_8c.html#a74242b2210e1f957abbecfde13ff30d4" target="_top" xlink:title=" ">
<polygon fill="white" stroke="#666666" points="285,-56 187,-56 187,-37 285,-37 285,-56"/>
<text text-anchor="middle" x="236" y="-44" font-family="Helvetica,sans-Serif" font-size="10.00">verif_token_loop</text>
</a>
</g>
</g>
<!-- Node26&#45;&gt;Node28 -->
<g id="edge42_Node000026_Node000028" class="edge">
<title>Node26&#45;&gt;Node28</title>
<g id="a_edge42_Node000026_Node000028"><a xlink:title=" ">
<path fill="none" stroke="#63b8ff" d="M148.32,-46.5C157.16,-46.5 166.92,-46.5 176.59,-46.5"/>
<polygon fill="#63b8ff" stroke="#63b8ff" points="176.6,-50 186.6,-46.5 176.6,-43 176.6,-50"/>
</a>
</g>
</g>
</g>
</svg>
