<?xml version="1.0" encoding="UTF-8" standalone="no"?>
<!DOCTYPE svg PUBLIC "-//W3C//DTD SVG 1.1//EN"
 "http://www.w3.org/Graphics/SVG/1.1/DTD/svg11.dtd">
<!-- Generated by graphviz version 2.43.0 (0)
 -->
<!-- Title: sub_switch Pages: 1 -->
<svg width="721pt" height="505pt"
 viewBox="0.00 0.00 721.00 504.65" xmlns="http://www.w3.org/2000/svg" xmlns:xlink="http://www.w3.org/1999/xlink">
<g id="graph0" class="graph" transform="scale(1 1) rotate(0) translate(4 500.65)">
<title>sub_switch</title>
<!-- Node1 -->
<g id="Node000001" class="node">
<title>Node1</title>
<g id="a_Node000001"><a xlink:title="identique a la fonction lexer">
<polygon fill="#999999" stroke="#666666" points="71,-413 0,-413 0,-394 71,-394 71,-413"/>
<text text-anchor="middle" x="35.5" y="-401" font-family="Helvetica,sans-Serif" font-size="10.00">sub_switch</text>
</a>
</g>
</g>
<!-- Node2 -->
<g id="Node000002" class="node">
<title>Node2</title>
<g id="a_Node000002"><a xlink:href="dot_8c.html#a36f9e0f75603ec6472a90c595e3bba79" target="_top" xlink:title="Concat path and string with &#39;/&#39; between.">
<polygon fill="white" stroke="#666666" points="618,-262 569,-262 569,-243 618,-243 618,-262"/>
<text text-anchor="middle" x="593.5" y="-250" font-family="Helvetica,sans-Serif" font-size="10.00">concat</text>
</a>
</g>
</g>
<!-- Node1&#45;&gt;Node2 -->
<g id="edge1_Node000001_Node000002" class="edge">
<title>Node1&#45;&gt;Node2</title>
<g id="a_edge1_Node000001_Node000002"><a xlink:title=" ">
<path fill="none" stroke="#63b8ff" d="M49.75,-413.07C63.36,-422.29 85.53,-435.67 107,-441.5 288.58,-490.78 383.12,-542.09 530,-424.5 577.45,-386.52 588.88,-309.26 591.63,-272.63"/>
<polygon fill="#63b8ff" stroke="#63b8ff" points="595.15,-272.46 592.26,-262.27 588.16,-272.04 595.15,-272.46"/>
</a>
</g>
</g>
<!-- Node3 -->
<g id="Node000003" class="node">
<title>Node3</title>
<g id="a_Node000003"><a xlink:href="lexer__handlers_8c.html#aaf817088d95d074a2d4e6bfce7799723" target="_top" xlink:title=" ">
<polygon fill="white" stroke="#666666" points="197,-432 121,-432 121,-413 197,-413 197,-432"/>
<text text-anchor="middle" x="159" y="-420" font-family="Helvetica,sans-Serif" font-size="10.00">handle_com</text>
</a>
</g>
</g>
<!-- Node1&#45;&gt;Node3 -->
<g id="edge2_Node000001_Node000003" class="edge">
<title>Node1&#45;&gt;Node3</title>
<g id="a_edge2_Node000001_Node000003"><a xlink:title=" ">
<path fill="none" stroke="#63b8ff" d="M71.32,-408.94C83.49,-410.85 97.37,-413.02 110.41,-415.06"/>
<polygon fill="#63b8ff" stroke="#63b8ff" points="110.21,-418.57 120.63,-416.66 111.29,-411.65 110.21,-418.57"/>
</a>
</g>
</g>
<!-- Node4 -->
<g id="Node000004" class="node">
<title>Node4</title>
<g id="a_Node000004"><a xlink:href="lexer__handlers_8c.html#aa76e470a78c6e91c7db6cce558b1a768" target="_top" xlink:title=" ">
<polygon fill="white" stroke="#666666" points="200.5,-394 117.5,-394 117.5,-375 200.5,-375 200.5,-394"/>
<text text-anchor="middle" x="159" y="-382" font-family="Helvetica,sans-Serif" font-size="10.00">handle_quote</text>
</a>
</g>
</g>
<!-- Node1&#45;&gt;Node4 -->
<g id="edge4_Node000001_Node000004" class="edge">
<title>Node1&#45;&gt;Node4</title>
<g id="a_edge4_Node000001_Node000004"><a xlink:title=" ">
<path fill="none" stroke="#63b8ff" d="M71.32,-398.06C82.49,-396.31 95.11,-394.33 107.19,-392.45"/>
<polygon fill="#63b8ff" stroke="#63b8ff" points="107.83,-395.89 117.16,-390.89 106.74,-388.97 107.83,-395.89"/>
</a>
</g>
</g>
<!-- Node5 -->
<g id="Node000005" class="node">
<title>Node5</title>
<g id="a_Node000005"><a xlink:href="lexer_8c.html#a65b9b0626e01e0653ddcae13e7c6a709" target="_top" xlink:title="Gestion des délimiteurs.">
<polygon fill="white" stroke="#666666" points="211,-207 107,-207 107,-188 211,-188 211,-207"/>
<text text-anchor="middle" x="159" y="-195" font-family="Helvetica,sans-Serif" font-size="10.00">sub_switch_delim</text>
</a>
</g>
</g>
<!-- Node1&#45;&gt;Node5 -->
<g id="edge6_Node000001_Node000005" class="edge">
<title>Node1&#45;&gt;Node5</title>
<g id="a_edge6_Node000001_Node000005"><a xlink:title=" ">
<path fill="none" stroke="#63b8ff" d="M42.2,-393.84C61.09,-361.81 121.88,-258.74 146.99,-216.16"/>
<polygon fill="#63b8ff" stroke="#63b8ff" points="150.11,-217.77 152.17,-207.38 144.08,-214.21 150.11,-217.77"/>
</a>
</g>
</g>
<!-- Node3&#45;&gt;Node2 -->
<g id="edge3_Node000003_Node000002" class="edge">
<title>Node3&#45;&gt;Node2</title>
<g id="a_edge3_Node000003_Node000002"><a xlink:title=" ">
<path fill="none" stroke="#63b8ff" d="M197.1,-430.12C269.01,-442.66 429.13,-459.45 530,-385.5 567.58,-357.95 583.35,-302 589.3,-272.21"/>
<polygon fill="#63b8ff" stroke="#63b8ff" points="592.78,-272.65 591.13,-262.18 585.89,-271.39 592.78,-272.65"/>
</a>
</g>
</g>
<!-- Node4&#45;&gt;Node2 -->
<g id="edge5_Node000004_Node000002" class="edge">
<title>Node4&#45;&gt;Node2</title>
<g id="a_edge5_Node000004_Node000002"><a xlink:title=" ">
<path fill="none" stroke="#63b8ff" d="M200.51,-391.65C272.63,-402.15 425.48,-414.2 530,-350.5 559.45,-332.55 577.44,-294.88 586.14,-271.83"/>
<polygon fill="#63b8ff" stroke="#63b8ff" points="589.54,-272.7 589.58,-262.11 582.94,-270.37 589.54,-272.7"/>
</a>
</g>
</g>
<!-- Node6 -->
<g id="Node000006" class="node">
<title>Node6</title>
<g id="a_Node000006"><a xlink:href="lexer__tokens_8c.html#ae59c383936dadf54742b836a5bd2a70b" target="_top" xlink:title=" ">
<polygon fill="white" stroke="#666666" points="498.5,-19 426.5,-19 426.5,0 498.5,0 498.5,-19"/>
<text text-anchor="middle" x="462.5" y="-7" font-family="Helvetica,sans-Serif" font-size="10.00">check_type</text>
</a>
</g>
</g>
<!-- Node5&#45;&gt;Node6 -->
<g id="edge7_Node000005_Node000006" class="edge">
<title>Node5&#45;&gt;Node6</title>
<g id="a_edge7_Node000005_Node000006"><a xlink:title=" ">
<path fill="none" stroke="#63b8ff" d="M162.51,-187.83C170.08,-160.72 195.44,-83.56 247,-47.5 297.14,-12.44 369.56,-6.51 416.08,-6.9"/>
<polygon fill="#63b8ff" stroke="#63b8ff" points="416.11,-10.4 426.17,-7.09 416.24,-3.41 416.11,-10.4"/>
</a>
</g>
</g>
<!-- Node7 -->
<g id="Node000007" class="node">
<title>Node7</title>
<g id="a_Node000007"><a xlink:href="lexer__handlers_8c.html#a9cdc56179aaccddb64447a4d56698992" target="_top" xlink:title=" ">
<polygon fill="white" stroke="#666666" points="355,-337 251,-337 251,-318 355,-318 355,-337"/>
<text text-anchor="middle" x="303" y="-325" font-family="Helvetica,sans-Serif" font-size="10.00">handle_backslash</text>
</a>
</g>
</g>
<!-- Node5&#45;&gt;Node7 -->
<g id="edge8_Node000005_Node000007" class="edge">
<title>Node5&#45;&gt;Node7</title>
<g id="a_edge8_Node000005_Node000007"><a xlink:title=" ">
<path fill="none" stroke="#63b8ff" d="M167.76,-207.15C182.24,-224.83 214.85,-263.12 247,-290.5 256.26,-298.38 267.24,-306.06 276.95,-312.36"/>
<polygon fill="#63b8ff" stroke="#63b8ff" points="275.1,-315.33 285.42,-317.73 278.85,-309.42 275.1,-315.33"/>
</a>
</g>
</g>
<!-- Node8 -->
<g id="Node000008" class="node">
<title>Node8</title>
<g id="a_Node000008"><a xlink:href="lexer__handlers_8c.html#a8c5df02ee3ff790dc6256318b3dd132f" target="_top" xlink:title="Crée un token de type OPENING_BRACKET ou CLOSING_BRACKET si possible.">
<polygon fill="white" stroke="#666666" points="348.5,-281 257.5,-281 257.5,-262 348.5,-262 348.5,-281"/>
<text text-anchor="middle" x="303" y="-269" font-family="Helvetica,sans-Serif" font-size="10.00">handle_bracket</text>
</a>
</g>
</g>
<!-- Node5&#45;&gt;Node8 -->
<g id="edge10_Node000005_Node000008" class="edge">
<title>Node5&#45;&gt;Node8</title>
<g id="a_edge10_Node000005_Node000008"><a xlink:title=" ">
<path fill="none" stroke="#63b8ff" d="M178.27,-207.02C202.64,-219.72 245.97,-242.3 274.35,-257.09"/>
<polygon fill="#63b8ff" stroke="#63b8ff" points="272.86,-260.26 283.35,-261.78 276.1,-254.05 272.86,-260.26"/>
</a>
</g>
</g>
<!-- Node11 -->
<g id="Node000011" class="node">
<title>Node11</title>
<g id="a_Node000011"><a xlink:href="lexer__handlers_8c.html#a579ccaa49e18cca908ce2409b06b5825" target="_top" xlink:title=" ">
<polygon fill="white" stroke="#666666" points="352.5,-207 253.5,-207 253.5,-188 352.5,-188 352.5,-207"/>
<text text-anchor="middle" x="303" y="-195" font-family="Helvetica,sans-Serif" font-size="10.00">handle_delimiter</text>
</a>
</g>
</g>
<!-- Node5&#45;&gt;Node11 -->
<g id="edge15_Node000005_Node000011" class="edge">
<title>Node5&#45;&gt;Node11</title>
<g id="a_edge15_Node000005_Node000011"><a xlink:title=" ">
<path fill="none" stroke="#63b8ff" d="M211.27,-197.5C221.62,-197.5 232.58,-197.5 243.17,-197.5"/>
<polygon fill="#63b8ff" stroke="#63b8ff" points="243.18,-201 253.18,-197.5 243.18,-194 243.18,-201"/>
</a>
</g>
</g>
<!-- Node15 -->
<g id="Node000015" class="node">
<title>Node15</title>
<g id="a_Node000015"><a xlink:href="lexer__handlers_8c.html#a3122df83e320b8f4658097885f266c59" target="_top" xlink:title="Crée un token de type FUNCTION si possible.">
<polygon fill="white" stroke="#666666" points="359,-151 247,-151 247,-132 359,-132 359,-151"/>
<text text-anchor="middle" x="303" y="-139" font-family="Helvetica,sans-Serif" font-size="10.00">handle_parenthesis</text>
</a>
</g>
</g>
<!-- Node5&#45;&gt;Node15 -->
<g id="edge22_Node000005_Node000015" class="edge">
<title>Node5&#45;&gt;Node15</title>
<g id="a_edge22_Node000005_Node000015"><a xlink:title=" ">
<path fill="none" stroke="#63b8ff" d="M184.41,-187.87C207.61,-178.72 242.7,-164.88 268.51,-154.71"/>
<polygon fill="#63b8ff" stroke="#63b8ff" points="269.89,-157.93 277.91,-151 267.32,-151.41 269.89,-157.93"/>
</a>
</g>
</g>
<!-- Node16 -->
<g id="Node000016" class="node">
<title>Node16</title>
<g id="a_Node000016"><a xlink:href="lexer_8c.html#a55722ded9ba13bad6ac777b3d0f13481" target="_top" xlink:title="Gestion des opérateurs.">
<polygon fill="white" stroke="#666666" points="347,-76 259,-76 259,-57 347,-57 347,-76"/>
<text text-anchor="middle" x="303" y="-64" font-family="Helvetica,sans-Serif" font-size="10.00">sub_switch_op</text>
</a>
</g>
</g>
<!-- Node5&#45;&gt;Node16 -->
<g id="edge24_Node000005_Node000016" class="edge">
<title>Node5&#45;&gt;Node16</title>
<g id="a_edge24_Node000005_Node000016"><a xlink:title=" ">
<path fill="none" stroke="#63b8ff" d="M170.67,-187.65C194.85,-165.35 253.99,-110.79 283.96,-83.14"/>
<polygon fill="#63b8ff" stroke="#63b8ff" points="286.61,-85.46 291.59,-76.1 281.87,-80.31 286.61,-85.46"/>
</a>
</g>
</g>
<!-- Node7&#45;&gt;Node2 -->
<g id="edge9_Node000007_Node000002" class="edge">
<title>Node7&#45;&gt;Node2</title>
<g id="a_edge9_Node000007_Node000002"><a xlink:title=" ">
<path fill="none" stroke="#63b8ff" d="M342.93,-337.08C389.75,-346.51 469.6,-355.79 530,-327.5 554.61,-315.97 572.9,-289.47 583.15,-271.27"/>
<polygon fill="#63b8ff" stroke="#63b8ff" points="586.39,-272.63 587.99,-262.16 580.21,-269.34 586.39,-272.63"/>
</a>
</g>
</g>
<!-- Node9 -->
<g id="Node000009" class="node">
<title>Node9</title>
<g id="a_Node000009"><a xlink:href="lexer__handlers_8c.html#af0bc509a05ea8f1f639745c3db1edff0" target="_top" xlink:title=" ">
<polygon fill="white" stroke="#666666" points="528,-318 397,-318 397,-299 528,-299 528,-318"/>
<text text-anchor="middle" x="462.5" y="-306" font-family="Helvetica,sans-Serif" font-size="10.00">handle_closing_bracket</text>
</a>
</g>
</g>
<!-- Node8&#45;&gt;Node9 -->
<g id="edge11_Node000008_Node000009" class="edge">
<title>Node8&#45;&gt;Node9</title>
<g id="a_edge11_Node000008_Node000009"><a xlink:title=" ">
<path fill="none" stroke="#63b8ff" d="M344.56,-281.03C364.78,-285.78 389.44,-291.57 410.88,-296.61"/>
<polygon fill="#63b8ff" stroke="#63b8ff" points="410.27,-300.06 420.8,-298.94 411.87,-293.25 410.27,-300.06"/>
</a>
</g>
</g>
<!-- Node10 -->
<g id="Node000010" class="node">
<title>Node10</title>
<g id="a_Node000010"><a xlink:href="lexer__handlers_8c.html#ac6741237800ed58a7ea25d1b02c4ada3" target="_top" xlink:title=" ">
<polygon fill="white" stroke="#666666" points="530,-281 395,-281 395,-262 530,-262 530,-281"/>
<text text-anchor="middle" x="462.5" y="-269" font-family="Helvetica,sans-Serif" font-size="10.00">handle_opening_bracket</text>
</a>
</g>
</g>
<!-- Node8&#45;&gt;Node10 -->
<g id="edge13_Node000008_Node000010" class="edge">
<title>Node8&#45;&gt;Node10</title>
<g id="a_edge13_Node000008_Node000010"><a xlink:title=" ">
<path fill="none" stroke="#63b8ff" d="M348.71,-271.5C359.94,-271.5 372.31,-271.5 384.61,-271.5"/>
<polygon fill="#63b8ff" stroke="#63b8ff" points="384.91,-275 394.91,-271.5 384.91,-268 384.91,-275"/>
</a>
</g>
</g>
<!-- Node9&#45;&gt;Node2 -->
<g id="edge12_Node000009_Node000002" class="edge">
<title>Node9&#45;&gt;Node2</title>
<g id="a_edge12_Node000009_Node000002"><a xlink:title=" ">
<path fill="none" stroke="#63b8ff" d="M505.97,-298.93C514.09,-296.56 522.42,-293.75 530,-290.5 544.18,-284.42 558.98,-275.55 570.62,-267.91"/>
<polygon fill="#63b8ff" stroke="#63b8ff" points="572.87,-270.61 579.2,-262.12 568.95,-264.81 572.87,-270.61"/>
</a>
</g>
</g>
<!-- Node10&#45;&gt;Node2 -->
<g id="edge14_Node000010_Node000002" class="edge">
<title>Node10&#45;&gt;Node2</title>
<g id="a_edge14_Node000010_Node000002"><a xlink:title=" ">
<path fill="none" stroke="#63b8ff" d="M528.38,-261.94C538.86,-260.4 549.33,-258.86 558.68,-257.48"/>
<polygon fill="#63b8ff" stroke="#63b8ff" points="559.32,-260.92 568.7,-256 558.3,-254 559.32,-260.92"/>
</a>
</g>
</g>
<!-- Node12 -->
<g id="Node000012" class="node">
<title>Node12</title>
<g id="a_Node000012"><a xlink:href="lexer__handlers_8c.html#a2ed09a62089d61b6a2928dcbcc623e7f" target="_top" xlink:title=" ">
<polygon fill="white" stroke="#666666" points="503.5,-244 421.5,-244 421.5,-225 503.5,-225 503.5,-244"/>
<text text-anchor="middle" x="462.5" y="-232" font-family="Helvetica,sans-Serif" font-size="10.00">handle_blank</text>
</a>
</g>
</g>
<!-- Node11&#45;&gt;Node12 -->
<g id="edge16_Node000011_Node000012" class="edge">
<title>Node11&#45;&gt;Node12</title>
<g id="a_edge16_Node000011_Node000012"><a xlink:title=" ">
<path fill="none" stroke="#63b8ff" d="M344.56,-207.03C364.94,-211.82 389.82,-217.66 411.39,-222.73"/>
<polygon fill="#63b8ff" stroke="#63b8ff" points="410.81,-226.19 421.35,-225.07 412.42,-219.37 410.81,-226.19"/>
</a>
</g>
</g>
<!-- Node13 -->
<g id="Node000013" class="node">
<title>Node13</title>
<g id="a_Node000013"><a xlink:href="lexer__handlers_8c.html#aa69ff9b0e657615d22e4220657378e92" target="_top" xlink:title=" ">
<polygon fill="white" stroke="#666666" points="509,-207 416,-207 416,-188 509,-188 509,-207"/>
<text text-anchor="middle" x="462.5" y="-195" font-family="Helvetica,sans-Serif" font-size="10.00">handle_newline</text>
</a>
</g>
</g>
<!-- Node11&#45;&gt;Node13 -->
<g id="edge18_Node000011_Node000013" class="edge">
<title>Node11&#45;&gt;Node13</title>
<g id="a_edge18_Node000011_Node000013"><a xlink:title=" ">
<path fill="none" stroke="#63b8ff" d="M352.54,-197.5C369.39,-197.5 388.41,-197.5 405.79,-197.5"/>
<polygon fill="#63b8ff" stroke="#63b8ff" points="405.81,-201 415.81,-197.5 405.81,-194 405.81,-201"/>
</a>
</g>
</g>
<!-- Node14 -->
<g id="Node000014" class="node">
<title>Node14</title>
<g id="a_Node000014"><a xlink:href="lexer__handlers_8c.html#afa8aa1a23dd8c155bcfb4145f2099aaf" target="_top" xlink:title=" ">
<polygon fill="white" stroke="#666666" points="515,-170 410,-170 410,-151 515,-151 515,-170"/>
<text text-anchor="middle" x="462.5" y="-158" font-family="Helvetica,sans-Serif" font-size="10.00">handle_semicolon</text>
</a>
</g>
</g>
<!-- Node11&#45;&gt;Node14 -->
<g id="edge20_Node000011_Node000014" class="edge">
<title>Node11&#45;&gt;Node14</title>
<g id="a_edge20_Node000011_Node000014"><a xlink:title=" ">
<path fill="none" stroke="#63b8ff" d="M344.56,-187.97C364.78,-183.22 389.44,-177.43 410.88,-172.39"/>
<polygon fill="#63b8ff" stroke="#63b8ff" points="411.87,-175.75 420.8,-170.06 410.27,-168.94 411.87,-175.75"/>
</a>
</g>
</g>
<!-- Node12&#45;&gt;Node2 -->
<g id="edge17_Node000012_Node000002" class="edge">
<title>Node12&#45;&gt;Node2</title>
<g id="a_edge17_Node000012_Node000002"><a xlink:title=" ">
<path fill="none" stroke="#63b8ff" d="M503.61,-240.1C521.37,-242.58 542.03,-245.46 558.96,-247.82"/>
<polygon fill="#63b8ff" stroke="#63b8ff" points="558.57,-251.3 568.95,-249.21 559.53,-244.37 558.57,-251.3"/>
</a>
</g>
</g>
<!-- Node13&#45;&gt;Node2 -->
<g id="edge19_Node000013_Node000002" class="edge">
<title>Node13&#45;&gt;Node2</title>
<g id="a_edge19_Node000013_Node000002"><a xlink:title=" ">
<path fill="none" stroke="#63b8ff" d="M503.08,-207.09C512.08,-209.74 521.49,-212.9 530,-216.5 543.65,-222.28 558.04,-230.41 569.56,-237.48"/>
<polygon fill="#63b8ff" stroke="#63b8ff" points="567.79,-240.5 578.12,-242.86 571.52,-234.58 567.79,-240.5"/>
</a>
</g>
</g>
<!-- Node14&#45;&gt;Node2 -->
<g id="edge21_Node000014_Node000002" class="edge">
<title>Node14&#45;&gt;Node2</title>
<g id="a_edge21_Node000014_Node000002"><a xlink:title=" ">
<path fill="none" stroke="#63b8ff" d="M510.09,-170.02C517.06,-172.5 523.94,-175.61 530,-179.5 551.83,-193.51 570.2,-217.43 581.26,-234.05"/>
<polygon fill="#63b8ff" stroke="#63b8ff" points="578.56,-236.33 586.89,-242.87 584.46,-232.56 578.56,-236.33"/>
</a>
</g>
</g>
<!-- Node15&#45;&gt;Node2 -->
<g id="edge23_Node000015_Node000002" class="edge">
<title>Node15&#45;&gt;Node2</title>
<g id="a_edge23_Node000015_Node000002"><a xlink:title=" ">
<path fill="none" stroke="#63b8ff" d="M336.98,-132C383.52,-120.6 469.55,-107.14 530,-142.5 563.51,-162.1 580.54,-207.07 587.87,-233.04"/>
<polygon fill="#63b8ff" stroke="#63b8ff" points="584.53,-234.08 590.44,-242.87 591.3,-232.31 584.53,-234.08"/>
</a>
</g>
</g>
<!-- Node16&#45;&gt;Node2 -->
<g id="edge26_Node000016_Node000002" class="edge">
<title>Node16&#45;&gt;Node2</title>
<g id="a_edge26_Node000016_Node000002"><a xlink:title=" ">
<path fill="none" stroke="#63b8ff" d="M347.13,-65.14C396.55,-65.82 477.46,-74.11 530,-116.5 566.94,-146.3 582.99,-202.82 589.15,-232.75"/>
<polygon fill="#63b8ff" stroke="#63b8ff" points="585.75,-233.63 591.05,-242.81 592.63,-232.33 585.75,-233.63"/>
</a>
</g>
</g>
<!-- Node16&#45;&gt;Node6 -->
<g id="edge25_Node000016_Node000006" class="edge">
<title>Node16&#45;&gt;Node6</title>
<g id="a_edge25_Node000016_Node000006"><a xlink:title=" ">
<path fill="none" stroke="#63b8ff" d="M323.92,-57C342.15,-48.54 370,-36.19 395,-27.5 401.91,-25.1 409.32,-22.81 416.59,-20.73"/>
<polygon fill="#63b8ff" stroke="#63b8ff" points="417.66,-24.07 426.36,-18.02 415.79,-17.32 417.66,-24.07"/>
</a>
</g>
</g>
<!-- Node17 -->
<g id="Node000017" class="node">
<title>Node17</title>
<g id="a_Node000017"><a xlink:href="lexer__handlers_8c.html#a1320ab2067e73a5de0d576175ad3d363" target="_top" xlink:title=" ">
<polygon fill="white" stroke="#666666" points="489.5,-56 435.5,-56 435.5,-37 489.5,-37 489.5,-56"/>
<text text-anchor="middle" x="462.5" y="-44" font-family="Helvetica,sans-Serif" font-size="10.00">new_op</text>
</a>
</g>
</g>
<!-- Node16&#45;&gt;Node17 -->
<g id="edge27_Node000016_Node000017" class="edge">
<title>Node16&#45;&gt;Node17</title>
<g id="a_edge27_Node000016_Node000017"><a xlink:title=" ">
<path fill="none" stroke="#63b8ff" d="M347.04,-61.03C371.52,-57.93 401.85,-54.07 425.14,-51.12"/>
<polygon fill="#63b8ff" stroke="#63b8ff" points="425.81,-54.56 435.29,-49.83 424.93,-47.62 425.81,-54.56"/>
</a>
</g>
</g>
<!-- Node17&#45;&gt;Node2 -->
<g id="edge28_Node000017_Node000002" class="edge">
<title>Node17&#45;&gt;Node2</title>
<g id="a_edge28_Node000017_Node000002"><a xlink:title=" ">
<path fill="none" stroke="#63b8ff" d="M489.79,-50.41C503.39,-53.68 519.32,-59.65 530,-70.5 575.03,-116.24 587.67,-195.83 591.18,-232.7"/>
<polygon fill="#63b8ff" stroke="#63b8ff" points="587.69,-233.01 592,-242.69 594.67,-232.44 587.69,-233.01"/>
</a>
</g>
</g>
<!-- Node18 -->
<g id="Node000018" class="node">
<title>Node18</title>
<g id="a_Node000018"><a xlink:href="lexer__utils_8c.html#ad3b801c5fcc7cb2d760cb161bf5038a0" target="_top" xlink:title=" ">
<polygon fill="white" stroke="#666666" points="621,-56 566,-56 566,-37 621,-37 621,-56"/>
<text text-anchor="middle" x="593.5" y="-44" font-family="Helvetica,sans-Serif" font-size="10.00">valid_io</text>
</a>
</g>
</g>
<!-- Node17&#45;&gt;Node18 -->
<g id="edge29_Node000017_Node000018" class="edge">
<title>Node17&#45;&gt;Node18</title>
<g id="a_edge29_Node000017_Node000018"><a xlink:title=" ">
<path fill="none" stroke="#63b8ff" d="M489.61,-46.5C508.63,-46.5 534.65,-46.5 555.77,-46.5"/>
<polygon fill="#63b8ff" stroke="#63b8ff" points="555.99,-50 565.99,-46.5 555.99,-43 555.99,-50"/>
</a>
</g>
</g>
<!-- Node19 -->
<g id="Node000019" class="node">
<title>Node19</title>
<g id="a_Node000019"><a xlink:href="lexer__utils_8c.html#a8fa30988b9ccc705850dfee0220bf34a" target="_top" xlink:title=" ">
<polygon fill="white" stroke="#666666" points="713,-56 657,-56 657,-37 713,-37 713,-56"/>
<text text-anchor="middle" x="685" y="-44" font-family="Helvetica,sans-Serif" font-size="10.00">all_digit</text>
</a>
</g>
</g>
<!-- Node18&#45;&gt;Node19 -->
<g id="edge30_Node000018_Node000019" class="edge">
<title>Node18&#45;&gt;Node19</title>
<g id="a_edge30_Node000018_Node000019"><a xlink:title=" ">
<path fill="none" stroke="#63b8ff" d="M621.35,-46.5C629.33,-46.5 638.22,-46.5 646.74,-46.5"/>
<polygon fill="#63b8ff" stroke="#63b8ff" points="646.86,-50 656.86,-46.5 646.86,-43 646.86,-50"/>
</a>
</g>
</g>
</g>
</svg>
