<?xml version="1.0" encoding="UTF-8" standalone="no"?>
<!DOCTYPE svg PUBLIC "-//W3C//DTD SVG 1.1//EN"
 "http://www.w3.org/Graphics/SVG/1.1/DTD/svg11.dtd">
<!-- Generated by graphviz version 2.43.0 (0)
 -->
<!-- Title: src/lexer/lexer_utils.c Pages: 1 -->
<svg width="410pt" height="247pt"
 viewBox="0.00 0.00 410.00 247.00" xmlns="http://www.w3.org/2000/svg" xmlns:xlink="http://www.w3.org/1999/xlink">
<g id="graph0" class="graph" transform="scale(1 1) rotate(0) translate(4 243)">
<title>src/lexer/lexer_utils.c</title>
<!-- Node1 -->
<g id="Node000001" class="node">
<title>Node1</title>
<g id="a_Node000001"><a xlink:title=" ">
<polygon fill="#999999" stroke="#666666" points="228,-239 109,-239 109,-220 228,-220 228,-239"/>
<text text-anchor="middle" x="168.5" y="-227" font-family="Helvetica,sans-Serif" font-size="10.00">src/lexer/lexer_utils.c</text>
</a>
</g>
</g>
<!-- Node2 -->
<g id="Node000002" class="node">
<title>Node2</title>
<g id="a_Node000002"><a xlink:title=" ">
<polygon fill="#e0e0e0" stroke="#999999" points="53,-184 0,-184 0,-165 53,-165 53,-184"/>
<text text-anchor="middle" x="26.5" y="-172" font-family="Helvetica,sans-Serif" font-size="10.00">limits.h</text>
</a>
</g>
</g>
<!-- Node1&#45;&gt;Node2 -->
<g id="edge1_Node000001_Node000002" class="edge">
<title>Node1&#45;&gt;Node2</title>
<g id="a_edge1_Node000001_Node000002"><a xlink:title=" ">
<path fill="none" stroke="#63b8ff" d="M145.69,-219.98C122.33,-211.27 85.8,-197.63 59.33,-187.75"/>
<polygon fill="#63b8ff" stroke="#63b8ff" points="60.32,-184.39 49.73,-184.17 57.87,-190.95 60.32,-184.39"/>
</a>
</g>
</g>
<!-- Node3 -->
<g id="Node000003" class="node">
<title>Node3</title>
<g id="a_Node000003"><a xlink:title=" ">
<polygon fill="#e0e0e0" stroke="#999999" points="124,-184 71,-184 71,-165 124,-165 124,-184"/>
<text text-anchor="middle" x="97.5" y="-172" font-family="Helvetica,sans-Serif" font-size="10.00">stdlib.h</text>
</a>
</g>
</g>
<!-- Node1&#45;&gt;Node3 -->
<g id="edge2_Node000001_Node000003" class="edge">
<title>Node1&#45;&gt;Node3</title>
<g id="a_edge2_Node000001_Node000003"><a xlink:title=" ">
<path fill="none" stroke="#63b8ff" d="M157.09,-219.98C146.39,-212 130.16,-199.88 117.34,-190.31"/>
<polygon fill="#63b8ff" stroke="#63b8ff" points="119.22,-187.35 109.11,-184.17 115.03,-192.96 119.22,-187.35"/>
</a>
</g>
</g>
<!-- Node4 -->
<g id="Node000004" class="node">
<title>Node4</title>
<g id="a_Node000004"><a xlink:title=" ">
<polygon fill="#e0e0e0" stroke="#999999" points="195,-184 142,-184 142,-165 195,-165 195,-184"/>
<text text-anchor="middle" x="168.5" y="-172" font-family="Helvetica,sans-Serif" font-size="10.00">string.h</text>
</a>
</g>
</g>
<!-- Node1&#45;&gt;Node4 -->
<g id="edge3_Node000001_Node000004" class="edge">
<title>Node1&#45;&gt;Node4</title>
<g id="a_edge3_Node000001_Node000004"><a xlink:title=" ">
<path fill="none" stroke="#63b8ff" d="M168.5,-219.75C168.5,-212.8 168.5,-202.85 168.5,-194.13"/>
<polygon fill="#63b8ff" stroke="#63b8ff" points="172,-194.09 168.5,-184.09 165,-194.09 172,-194.09"/>
</a>
</g>
</g>
<!-- Node5 -->
<g id="Node000005" class="node">
<title>Node5</title>
<g id="a_Node000005"><a xlink:title=" ">
<polygon fill="#e0e0e0" stroke="#999999" points="269.5,-184 213.5,-184 213.5,-165 269.5,-165 269.5,-184"/>
<text text-anchor="middle" x="241.5" y="-172" font-family="Helvetica,sans-Serif" font-size="10.00">unistd.h</text>
</a>
</g>
</g>
<!-- Node1&#45;&gt;Node5 -->
<g id="edge4_Node000001_Node000005" class="edge">
<title>Node1&#45;&gt;Node5</title>
<g id="a_edge4_Node000001_Node000005"><a xlink:title=" ">
<path fill="none" stroke="#63b8ff" d="M180.23,-219.98C191.23,-212 207.92,-199.88 221.1,-190.31"/>
<polygon fill="#63b8ff" stroke="#63b8ff" points="223.52,-192.88 229.56,-184.17 219.41,-187.21 223.52,-192.88"/>
</a>
</g>
</g>
<!-- Node6 -->
<g id="Node000006" class="node">
<title>Node6</title>
<g id="a_Node000006"><a xlink:href="lexer__aux_8h.html" target="_top" xlink:title=" ">
<polygon fill="white" stroke="#666666" points="361,-184 288,-184 288,-165 361,-165 361,-184"/>
<text text-anchor="middle" x="324.5" y="-172" font-family="Helvetica,sans-Serif" font-size="10.00">lexer_aux.h</text>
</a>
</g>
</g>
<!-- Node1&#45;&gt;Node6 -->
<g id="edge5_Node000001_Node000006" class="edge">
<title>Node1&#45;&gt;Node6</title>
<g id="a_edge5_Node000001_Node000006"><a xlink:title=" ">
<path fill="none" stroke="#63b8ff" d="M193.56,-219.98C219.53,-211.16 260.31,-197.31 289.46,-187.41"/>
<polygon fill="#63b8ff" stroke="#63b8ff" points="290.9,-190.61 299.24,-184.08 288.65,-183.99 290.9,-190.61"/>
</a>
</g>
</g>
<!-- Node7 -->
<g id="Node000007" class="node">
<title>Node7</title>
<g id="a_Node000007"><a xlink:title=" ">
<polygon fill="#e0e0e0" stroke="#999999" points="366.5,-19 316.5,-19 316.5,0 366.5,0 366.5,-19"/>
<text text-anchor="middle" x="341.5" y="-7" font-family="Helvetica,sans-Serif" font-size="10.00">stdio.h</text>
</a>
</g>
</g>
<!-- Node6&#45;&gt;Node7 -->
<g id="edge6_Node000006_Node000007" class="edge">
<title>Node6&#45;&gt;Node7</title>
<g id="a_edge6_Node000006_Node000007"><a xlink:title=" ">
<path fill="none" stroke="#63b8ff" d="M317.85,-164.86C303.33,-144.88 271.47,-94.17 289.5,-55 295.25,-42.52 306.41,-32.24 316.92,-24.71"/>
<polygon fill="#63b8ff" stroke="#63b8ff" points="319.07,-27.49 325.47,-19.05 315.2,-21.65 319.07,-27.49"/>
</a>
</g>
</g>
<!-- Node8 -->
<g id="Node000008" class="node">
<title>Node8</title>
<g id="a_Node000008"><a xlink:href="token_8h.html" target="_top" xlink:title=" ">
<polygon fill="white" stroke="#666666" points="384.5,-74 298.5,-74 298.5,-55 384.5,-55 384.5,-74"/>
<text text-anchor="middle" x="341.5" y="-62" font-family="Helvetica,sans-Serif" font-size="10.00">../utils/token.h</text>
</a>
</g>
</g>
<!-- Node6&#45;&gt;Node8 -->
<g id="edge7_Node000006_Node000008" class="edge">
<title>Node6&#45;&gt;Node8</title>
<g id="a_edge7_Node000006_Node000008"><a xlink:title=" ">
<path fill="none" stroke="#63b8ff" d="M325.89,-164.66C328.64,-147.17 334.84,-107.8 338.54,-84.27"/>
<polygon fill="#63b8ff" stroke="#63b8ff" points="342.04,-84.58 340.14,-74.16 335.12,-83.49 342.04,-84.58"/>
</a>
</g>
</g>
<!-- Node9 -->
<g id="Node000009" class="node">
<title>Node9</title>
<g id="a_Node000009"><a xlink:href="lexer_8h.html" target="_top" xlink:title=" ">
<polygon fill="white" stroke="#666666" points="402,-129 353,-129 353,-110 402,-110 402,-129"/>
<text text-anchor="middle" x="377.5" y="-117" font-family="Helvetica,sans-Serif" font-size="10.00">lexer.h</text>
</a>
</g>
</g>
<!-- Node6&#45;&gt;Node9 -->
<g id="edge9_Node000006_Node000009" class="edge">
<title>Node6&#45;&gt;Node9</title>
<g id="a_edge9_Node000006_Node000009"><a xlink:title=" ">
<path fill="none" stroke="#63b8ff" d="M333.25,-164.75C340.97,-157.03 352.4,-145.6 361.72,-136.28"/>
<polygon fill="#63b8ff" stroke="#63b8ff" points="364.31,-138.64 368.91,-129.09 359.36,-133.69 364.31,-138.64"/>
</a>
</g>
</g>
<!-- Node8&#45;&gt;Node7 -->
<g id="edge8_Node000008_Node000007" class="edge">
<title>Node8&#45;&gt;Node7</title>
<g id="a_edge8_Node000008_Node000007"><a xlink:title=" ">
<path fill="none" stroke="#63b8ff" d="M341.5,-54.75C341.5,-47.8 341.5,-37.85 341.5,-29.13"/>
<polygon fill="#63b8ff" stroke="#63b8ff" points="345,-29.09 341.5,-19.09 338,-29.09 345,-29.09"/>
</a>
</g>
</g>
<!-- Node9&#45;&gt;Node7 -->
<g id="edge10_Node000009_Node000007" class="edge">
<title>Node9&#45;&gt;Node7</title>
<g id="a_edge10_Node000009_Node000007"><a xlink:title=" ">
<path fill="none" stroke="#63b8ff" d="M383.16,-109.95C390.67,-97.43 402.06,-73.59 393.5,-55 387.75,-42.52 376.59,-32.24 366.08,-24.71"/>
<polygon fill="#63b8ff" stroke="#63b8ff" points="367.8,-21.65 357.53,-19.05 363.93,-27.49 367.8,-21.65"/>
</a>
</g>
</g>
<!-- Node9&#45;&gt;Node8 -->
<g id="edge11_Node000009_Node000008" class="edge">
<title>Node9&#45;&gt;Node8</title>
<g id="a_edge11_Node000009_Node000008"><a xlink:title=" ">
<path fill="none" stroke="#63b8ff" d="M371.56,-109.75C366.52,-102.34 359.16,-91.5 352.99,-82.41"/>
<polygon fill="#63b8ff" stroke="#63b8ff" points="355.85,-80.39 347.33,-74.09 350.06,-84.33 355.85,-80.39"/>
</a>
</g>
</g>
</g>
</svg>
