<?xml version="1.0" encoding="UTF-8" standalone="no"?>
<!DOCTYPE svg PUBLIC "-//W3C//DTD SVG 1.1//EN"
 "http://www.w3.org/Graphics/SVG/1.1/DTD/svg11.dtd">
<!-- Generated by graphviz version 2.43.0 (0)
 -->
<!-- Title: src/lexer/lexer_aux.h Pages: 1 -->
<svg width="708pt" height="82pt"
 viewBox="0.00 0.00 707.50 82.00" xmlns="http://www.w3.org/2000/svg" xmlns:xlink="http://www.w3.org/1999/xlink">
<g id="graph0" class="graph" transform="scale(1 1) rotate(0) translate(4 78)">
<title>src/lexer/lexer_aux.h</title>
<!-- Node1 -->
<g id="Node000001" class="node">
<title>Node1</title>
<g id="a_Node000001"><a xlink:title=" ">
<polygon fill="#999999" stroke="#666666" points="399.5,-74 282.5,-74 282.5,-55 399.5,-55 399.5,-74"/>
<text text-anchor="middle" x="341" y="-62" font-family="Helvetica,sans-Serif" font-size="10.00">src/lexer/lexer_aux.h</text>
</a>
</g>
</g>
<!-- Node2 -->
<g id="Node000002" class="node">
<title>Node2</title>
<g id="a_Node000002"><a xlink:href="lexer_8c.html" target="_top" xlink:title=" ">
<polygon fill="white" stroke="#666666" points="92,-19 0,-19 0,0 92,0 92,-19"/>
<text text-anchor="middle" x="46" y="-7" font-family="Helvetica,sans-Serif" font-size="10.00">src/lexer/lexer.c</text>
</a>
</g>
</g>
<!-- Node1&#45;&gt;Node2 -->
<g id="edge1_Node000001_Node000002" class="edge">
<title>Node1&#45;&gt;Node2</title>
<g id="a_edge1_Node000001_Node000002"><a xlink:title=" ">
<path fill="none" stroke="#63b8ff" d="M283.52,-53.17C227.69,-43.14 143.99,-28.11 92.31,-18.82"/>
<polygon fill="#63b8ff" stroke="#63b8ff" points="283.14,-56.66 293.6,-54.98 284.38,-49.77 283.14,-56.66"/>
</a>
</g>
</g>
<!-- Node3 -->
<g id="Node000003" class="node">
<title>Node3</title>
<g id="a_Node000003"><a xlink:href="lexer__handlers_8c.html" target="_top" xlink:title=" ">
<polygon fill="white" stroke="#666666" points="250,-19 110,-19 110,0 250,0 250,-19"/>
<text text-anchor="middle" x="180" y="-7" font-family="Helvetica,sans-Serif" font-size="10.00">src/lexer/lexer_handlers.c</text>
</a>
</g>
</g>
<!-- Node1&#45;&gt;Node3 -->
<g id="edge2_Node000001_Node000003" class="edge">
<title>Node1&#45;&gt;Node3</title>
<g id="a_edge2_Node000001_Node000003"><a xlink:title=" ">
<path fill="none" stroke="#63b8ff" d="M305.45,-51.8C275.41,-41.91 233.06,-27.97 206.07,-19.08"/>
<polygon fill="#63b8ff" stroke="#63b8ff" points="304.54,-55.18 315.13,-54.98 306.73,-48.53 304.54,-55.18"/>
</a>
</g>
</g>
<!-- Node4 -->
<g id="Node000004" class="node">
<title>Node4</title>
<g id="a_Node000004"><a xlink:href="lexer__operators_8c.html" target="_top" xlink:title=" ">
<polygon fill="white" stroke="#666666" points="413.5,-19 268.5,-19 268.5,0 413.5,0 413.5,-19"/>
<text text-anchor="middle" x="341" y="-7" font-family="Helvetica,sans-Serif" font-size="10.00">src/lexer/lexer_operators.c</text>
</a>
</g>
</g>
<!-- Node1&#45;&gt;Node4 -->
<g id="edge3_Node000001_Node000004" class="edge">
<title>Node1&#45;&gt;Node4</title>
<g id="a_edge3_Node000001_Node000004"><a xlink:title=" ">
<path fill="none" stroke="#63b8ff" d="M341,-44.66C341,-35.93 341,-25.99 341,-19.09"/>
<polygon fill="#63b8ff" stroke="#63b8ff" points="337.5,-44.75 341,-54.75 344.5,-44.75 337.5,-44.75"/>
</a>
</g>
</g>
<!-- Node5 -->
<g id="Node000005" class="node">
<title>Node5</title>
<g id="a_Node000005"><a xlink:href="lexer__tokens_8c.html" target="_top" xlink:title=" ">
<polygon fill="white" stroke="#666666" points="562.5,-19 431.5,-19 431.5,0 562.5,0 562.5,-19"/>
<text text-anchor="middle" x="497" y="-7" font-family="Helvetica,sans-Serif" font-size="10.00">src/lexer/lexer_tokens.c</text>
</a>
</g>
</g>
<!-- Node1&#45;&gt;Node5 -->
<g id="edge4_Node000001_Node000005" class="edge">
<title>Node1&#45;&gt;Node5</title>
<g id="a_edge4_Node000001_Node000005"><a xlink:title=" ">
<path fill="none" stroke="#63b8ff" d="M375.82,-51.67C404.91,-41.79 445.7,-27.93 471.74,-19.08"/>
<polygon fill="#63b8ff" stroke="#63b8ff" points="374.41,-48.45 366.06,-54.98 376.66,-55.08 374.41,-48.45"/>
</a>
</g>
</g>
<!-- Node6 -->
<g id="Node000006" class="node">
<title>Node6</title>
<g id="a_Node000006"><a xlink:href="lexer__utils_8c.html" target="_top" xlink:title=" ">
<polygon fill="white" stroke="#666666" points="699.5,-19 580.5,-19 580.5,0 699.5,0 699.5,-19"/>
<text text-anchor="middle" x="640" y="-7" font-family="Helvetica,sans-Serif" font-size="10.00">src/lexer/lexer_utils.c</text>
</a>
</g>
</g>
<!-- Node1&#45;&gt;Node6 -->
<g id="edge5_Node000001_Node000006" class="edge">
<title>Node1&#45;&gt;Node6</title>
<g id="a_edge5_Node000001_Node000006"><a xlink:title=" ">
<path fill="none" stroke="#63b8ff" d="M399.17,-53.19C455.23,-43.25 539.06,-28.39 591.58,-19.08"/>
<polygon fill="#63b8ff" stroke="#63b8ff" points="398.28,-49.79 389.04,-54.98 399.5,-56.69 398.28,-49.79"/>
</a>
</g>
</g>
</g>
</svg>
