<?xml version="1.0" encoding="UTF-8" standalone="no"?>
<!DOCTYPE svg PUBLIC "-//W3C//DTD SVG 1.1//EN"
 "http://www.w3.org/Graphics/SVG/1.1/DTD/svg11.dtd">
<!-- Generated by graphviz version 2.43.0 (0)
 -->
<!-- Title: src/lexer/lexer_tokens.c Pages: 1 -->
<svg width="218pt" height="247pt"
 viewBox="0.00 0.00 218.00 247.00" xmlns="http://www.w3.org/2000/svg" xmlns:xlink="http://www.w3.org/1999/xlink">
<g id="graph0" class="graph" transform="scale(1 1) rotate(0) translate(4 243)">
<title>src/lexer/lexer_tokens.c</title>
<!-- Node1 -->
<g id="Node000001" class="node">
<title>Node1</title>
<g id="a_Node000001"><a xlink:title=" ">
<polygon fill="#999999" stroke="#666666" points="131,-239 0,-239 0,-220 131,-220 131,-239"/>
<text text-anchor="middle" x="65.5" y="-227" font-family="Helvetica,sans-Serif" font-size="10.00">src/lexer/lexer_tokens.c</text>
</a>
</g>
</g>
<!-- Node2 -->
<g id="Node000002" class="node">
<title>Node2</title>
<g id="a_Node000002"><a xlink:title=" ">
<polygon fill="#e0e0e0" stroke="#999999" points="121.5,-19 71.5,-19 71.5,0 121.5,0 121.5,-19"/>
<text text-anchor="middle" x="96.5" y="-7" font-family="Helvetica,sans-Serif" font-size="10.00">stdio.h</text>
</a>
</g>
</g>
<!-- Node1&#45;&gt;Node2 -->
<g id="edge1_Node000001_Node000002" class="edge">
<title>Node1&#45;&gt;Node2</title>
<g id="a_edge1_Node000001_Node000002"><a xlink:title=" ">
<path fill="none" stroke="#63b8ff" d="M55.34,-219.81C46.6,-211.6 34.6,-198.43 29.5,-184 26.68,-176.04 27.84,-173.28 29.5,-165 40.05,-112.41 69.89,-55.84 85.95,-28.01"/>
<polygon fill="#63b8ff" stroke="#63b8ff" points="89.13,-29.51 91.19,-19.12 83.1,-25.96 89.13,-29.51"/>
</a>
</g>
</g>
<!-- Node3 -->
<g id="Node000003" class="node">
<title>Node3</title>
<g id="a_Node000003"><a xlink:title=" ">
<polygon fill="#e0e0e0" stroke="#999999" points="92,-184 39,-184 39,-165 92,-165 92,-184"/>
<text text-anchor="middle" x="65.5" y="-172" font-family="Helvetica,sans-Serif" font-size="10.00">string.h</text>
</a>
</g>
</g>
<!-- Node1&#45;&gt;Node3 -->
<g id="edge2_Node000001_Node000003" class="edge">
<title>Node1&#45;&gt;Node3</title>
<g id="a_edge2_Node000001_Node000003"><a xlink:title=" ">
<path fill="none" stroke="#63b8ff" d="M65.5,-219.75C65.5,-212.8 65.5,-202.85 65.5,-194.13"/>
<polygon fill="#63b8ff" stroke="#63b8ff" points="69,-194.09 65.5,-184.09 62,-194.09 69,-194.09"/>
</a>
</g>
</g>
<!-- Node4 -->
<g id="Node000004" class="node">
<title>Node4</title>
<g id="a_Node000004"><a xlink:href="lexer__aux_8h.html" target="_top" xlink:title=" ">
<polygon fill="white" stroke="#666666" points="183,-184 110,-184 110,-165 183,-165 183,-184"/>
<text text-anchor="middle" x="146.5" y="-172" font-family="Helvetica,sans-Serif" font-size="10.00">lexer_aux.h</text>
</a>
</g>
</g>
<!-- Node1&#45;&gt;Node4 -->
<g id="edge3_Node000001_Node000004" class="edge">
<title>Node1&#45;&gt;Node4</title>
<g id="a_edge3_Node000001_Node000004"><a xlink:title=" ">
<path fill="none" stroke="#63b8ff" d="M78.51,-219.98C90.96,-211.84 109.96,-199.41 124.71,-189.76"/>
<polygon fill="#63b8ff" stroke="#63b8ff" points="126.8,-192.57 133.25,-184.17 122.96,-186.72 126.8,-192.57"/>
</a>
</g>
</g>
<!-- Node4&#45;&gt;Node2 -->
<g id="edge4_Node000004_Node000002" class="edge">
<title>Node4&#45;&gt;Node2</title>
<g id="a_edge4_Node000004_Node000002"><a xlink:title=" ">
<path fill="none" stroke="#63b8ff" d="M138.11,-164.85C123.04,-148.64 91.93,-111.91 80.5,-74 75.89,-58.71 81.16,-41.09 86.85,-28.29"/>
<polygon fill="#63b8ff" stroke="#63b8ff" points="90.05,-29.71 91.32,-19.2 83.77,-26.62 90.05,-29.71"/>
</a>
</g>
</g>
<!-- Node5 -->
<g id="Node000005" class="node">
<title>Node5</title>
<g id="a_Node000005"><a xlink:href="token_8h.html" target="_top" xlink:title=" ">
<polygon fill="white" stroke="#666666" points="175.5,-74 89.5,-74 89.5,-55 175.5,-55 175.5,-74"/>
<text text-anchor="middle" x="132.5" y="-62" font-family="Helvetica,sans-Serif" font-size="10.00">../utils/token.h</text>
</a>
</g>
</g>
<!-- Node4&#45;&gt;Node5 -->
<g id="edge5_Node000004_Node000005" class="edge">
<title>Node4&#45;&gt;Node5</title>
<g id="a_edge5_Node000004_Node000005"><a xlink:title=" ">
<path fill="none" stroke="#63b8ff" d="M145.35,-164.66C143.09,-147.17 137.98,-107.8 134.93,-84.27"/>
<polygon fill="#63b8ff" stroke="#63b8ff" points="138.38,-83.63 133.62,-74.16 131.44,-84.53 138.38,-83.63"/>
</a>
</g>
</g>
<!-- Node6 -->
<g id="Node000006" class="node">
<title>Node6</title>
<g id="a_Node000006"><a xlink:href="lexer_8h.html" target="_top" xlink:title=" ">
<polygon fill="white" stroke="#666666" points="210,-129 161,-129 161,-110 210,-110 210,-129"/>
<text text-anchor="middle" x="185.5" y="-117" font-family="Helvetica,sans-Serif" font-size="10.00">lexer.h</text>
</a>
</g>
</g>
<!-- Node4&#45;&gt;Node6 -->
<g id="edge7_Node000004_Node000006" class="edge">
<title>Node4&#45;&gt;Node6</title>
<g id="a_edge7_Node000004_Node000006"><a xlink:title=" ">
<path fill="none" stroke="#63b8ff" d="M152.94,-164.75C158.39,-157.34 166.36,-146.5 173.06,-137.41"/>
<polygon fill="#63b8ff" stroke="#63b8ff" points="176.07,-139.22 179.18,-129.09 170.43,-135.07 176.07,-139.22"/>
</a>
</g>
</g>
<!-- Node5&#45;&gt;Node2 -->
<g id="edge6_Node000005_Node000002" class="edge">
<title>Node5&#45;&gt;Node2</title>
<g id="a_edge6_Node000005_Node000002"><a xlink:title=" ">
<path fill="none" stroke="#63b8ff" d="M126.56,-54.75C121.52,-47.34 114.16,-36.5 107.99,-27.41"/>
<polygon fill="#63b8ff" stroke="#63b8ff" points="110.85,-25.39 102.33,-19.09 105.06,-29.33 110.85,-25.39"/>
</a>
</g>
</g>
<!-- Node6&#45;&gt;Node2 -->
<g id="edge8_Node000006_Node000002" class="edge">
<title>Node6&#45;&gt;Node2</title>
<g id="a_edge8_Node000006_Node000002"><a xlink:title=" ">
<path fill="none" stroke="#63b8ff" d="M187.97,-109.91C191.16,-96.93 195.15,-72.01 184.5,-55 172.82,-36.34 150.67,-25.2 131.52,-18.73"/>
<polygon fill="#63b8ff" stroke="#63b8ff" points="132.43,-15.35 121.85,-15.76 130.38,-22.04 132.43,-15.35"/>
</a>
</g>
</g>
<!-- Node6&#45;&gt;Node5 -->
<g id="edge9_Node000006_Node000005" class="edge">
<title>Node6&#45;&gt;Node5</title>
<g id="a_edge9_Node000006_Node000005"><a xlink:title=" ">
<path fill="none" stroke="#63b8ff" d="M176.75,-109.75C169.03,-102.03 157.6,-90.6 148.28,-81.28"/>
<polygon fill="#63b8ff" stroke="#63b8ff" points="150.64,-78.69 141.09,-74.09 145.69,-83.64 150.64,-78.69"/>
</a>
</g>
</g>
</g>
</svg>
