<?xml version="1.0" encoding="UTF-8" standalone="no"?>
<!DOCTYPE svg PUBLIC "-//W3C//DTD SVG 1.1//EN"
 "http://www.w3.org/Graphics/SVG/1.1/DTD/svg11.dtd">
<!-- Generated by graphviz version 2.43.0 (0)
 -->
<!-- Title: src/lexer/lexer.c Pages: 1 -->
<svg width="249pt" height="247pt"
 viewBox="0.00 0.00 249.25 247.00" xmlns="http://www.w3.org/2000/svg" xmlns:xlink="http://www.w3.org/1999/xlink">
<g id="graph0" class="graph" transform="scale(1 1) rotate(0) translate(4 243)">
<title>src/lexer/lexer.c</title>
<!-- Node1 -->
<g id="Node000001" class="node">
<title>Node1</title>
<g id="a_Node000001"><a xlink:title=" ">
<polygon fill="#999999" stroke="#666666" points="119.75,-239 27.75,-239 27.75,-220 119.75,-220 119.75,-239"/>
<text text-anchor="middle" x="73.75" y="-227" font-family="Helvetica,sans-Serif" font-size="10.00">src/lexer/lexer.c</text>
</a>
</g>
</g>
<!-- Node2 -->
<g id="Node000002" class="node">
<title>Node2</title>
<g id="a_Node000002"><a xlink:title=" ">
<polygon fill="#e0e0e0" stroke="#999999" points="152.75,-19 102.75,-19 102.75,0 152.75,0 152.75,-19"/>
<text text-anchor="middle" x="127.75" y="-7" font-family="Helvetica,sans-Serif" font-size="10.00">stdio.h</text>
</a>
</g>
</g>
<!-- Node1&#45;&gt;Node2 -->
<g id="edge1_Node000001_Node000002" class="edge">
<title>Node1&#45;&gt;Node2</title>
<g id="a_edge1_Node000001_Node000002"><a xlink:title=" ">
<path fill="none" stroke="#63b8ff" d="M48.24,-219.9C32.05,-212.96 12.4,-201.44 2.75,-184 -1.34,-176.61 -0.07,-172.96 2.75,-165 24.01,-104.9 79.7,-51.08 109.04,-25.77"/>
<polygon fill="#63b8ff" stroke="#63b8ff" points="111.52,-28.26 116.9,-19.13 107,-22.91 111.52,-28.26"/>
</a>
</g>
</g>
<!-- Node3 -->
<g id="Node000003" class="node">
<title>Node3</title>
<g id="a_Node000003"><a xlink:title=" ">
<polygon fill="#e0e0e0" stroke="#999999" points="65.25,-184 12.25,-184 12.25,-165 65.25,-165 65.25,-184"/>
<text text-anchor="middle" x="38.75" y="-172" font-family="Helvetica,sans-Serif" font-size="10.00">stdlib.h</text>
</a>
</g>
</g>
<!-- Node1&#45;&gt;Node3 -->
<g id="edge2_Node000001_Node000003" class="edge">
<title>Node1&#45;&gt;Node3</title>
<g id="a_edge2_Node000001_Node000003"><a xlink:title=" ">
<path fill="none" stroke="#63b8ff" d="M67.97,-219.75C63.13,-212.42 56.07,-201.73 50.1,-192.7"/>
<polygon fill="#63b8ff" stroke="#63b8ff" points="52.85,-190.5 44.42,-184.09 47.01,-194.36 52.85,-190.5"/>
</a>
</g>
</g>
<!-- Node4 -->
<g id="Node000004" class="node">
<title>Node4</title>
<g id="a_Node000004"><a xlink:title=" ">
<polygon fill="#e0e0e0" stroke="#999999" points="136.25,-184 83.25,-184 83.25,-165 136.25,-165 136.25,-184"/>
<text text-anchor="middle" x="109.75" y="-172" font-family="Helvetica,sans-Serif" font-size="10.00">string.h</text>
</a>
</g>
</g>
<!-- Node1&#45;&gt;Node4 -->
<g id="edge3_Node000001_Node000004" class="edge">
<title>Node1&#45;&gt;Node4</title>
<g id="a_edge3_Node000001_Node000004"><a xlink:title=" ">
<path fill="none" stroke="#63b8ff" d="M79.69,-219.75C84.73,-212.34 92.09,-201.5 98.26,-192.41"/>
<polygon fill="#63b8ff" stroke="#63b8ff" points="101.19,-194.33 103.91,-184.09 95.4,-190.39 101.19,-194.33"/>
</a>
</g>
</g>
<!-- Node5 -->
<g id="Node000005" class="node">
<title>Node5</title>
<g id="a_Node000005"><a xlink:href="lexer__aux_8h.html" target="_top" xlink:title=" ">
<polygon fill="white" stroke="#666666" points="227.25,-184 154.25,-184 154.25,-165 227.25,-165 227.25,-184"/>
<text text-anchor="middle" x="190.75" y="-172" font-family="Helvetica,sans-Serif" font-size="10.00">lexer_aux.h</text>
</a>
</g>
</g>
<!-- Node1&#45;&gt;Node5 -->
<g id="edge4_Node000001_Node000005" class="edge">
<title>Node1&#45;&gt;Node5</title>
<g id="a_edge4_Node000001_Node000005"><a xlink:title=" ">
<path fill="none" stroke="#63b8ff" d="M92.55,-219.98C111.37,-211.46 140.57,-198.23 162.24,-188.41"/>
<polygon fill="#63b8ff" stroke="#63b8ff" points="163.94,-191.48 171.61,-184.17 161.06,-185.11 163.94,-191.48"/>
</a>
</g>
</g>
<!-- Node5&#45;&gt;Node2 -->
<g id="edge5_Node000005_Node000002" class="edge">
<title>Node5&#45;&gt;Node2</title>
<g id="a_edge5_Node000005_Node000002"><a xlink:title=" ">
<path fill="none" stroke="#63b8ff" d="M180.46,-164.96C162.38,-149.21 125.55,-113.57 111.75,-74 106.49,-58.92 111.82,-41.28 117.7,-28.42"/>
<polygon fill="#63b8ff" stroke="#63b8ff" points="120.94,-29.77 122.34,-19.27 114.69,-26.6 120.94,-29.77"/>
</a>
</g>
</g>
<!-- Node6 -->
<g id="Node000006" class="node">
<title>Node6</title>
<g id="a_Node000006"><a xlink:href="token_8h.html" target="_top" xlink:title=" ">
<polygon fill="white" stroke="#666666" points="206.75,-74 120.75,-74 120.75,-55 206.75,-55 206.75,-74"/>
<text text-anchor="middle" x="163.75" y="-62" font-family="Helvetica,sans-Serif" font-size="10.00">../utils/token.h</text>
</a>
</g>
</g>
<!-- Node5&#45;&gt;Node6 -->
<g id="edge6_Node000005_Node000006" class="edge">
<title>Node5&#45;&gt;Node6</title>
<g id="a_edge6_Node000005_Node000006"><a xlink:title=" ">
<path fill="none" stroke="#63b8ff" d="M188.54,-164.66C184.15,-147.09 174.24,-107.45 168.36,-83.95"/>
<polygon fill="#63b8ff" stroke="#63b8ff" points="171.73,-83.01 165.91,-74.16 164.94,-84.71 171.73,-83.01"/>
</a>
</g>
</g>
<!-- Node7 -->
<g id="Node000007" class="node">
<title>Node7</title>
<g id="a_Node000007"><a xlink:href="lexer_8h.html" target="_top" xlink:title=" ">
<polygon fill="white" stroke="#666666" points="241.25,-129 192.25,-129 192.25,-110 241.25,-110 241.25,-129"/>
<text text-anchor="middle" x="216.75" y="-117" font-family="Helvetica,sans-Serif" font-size="10.00">lexer.h</text>
</a>
</g>
</g>
<!-- Node5&#45;&gt;Node7 -->
<g id="edge8_Node000005_Node000007" class="edge">
<title>Node5&#45;&gt;Node7</title>
<g id="a_edge8_Node000005_Node000007"><a xlink:title=" ">
<path fill="none" stroke="#63b8ff" d="M195.04,-164.75C198.56,-157.57 203.66,-147.18 208.03,-138.27"/>
<polygon fill="#63b8ff" stroke="#63b8ff" points="211.27,-139.61 212.54,-129.09 204.99,-136.53 211.27,-139.61"/>
</a>
</g>
</g>
<!-- Node6&#45;&gt;Node2 -->
<g id="edge7_Node000006_Node000002" class="edge">
<title>Node6&#45;&gt;Node2</title>
<g id="a_edge7_Node000006_Node000002"><a xlink:title=" ">
<path fill="none" stroke="#63b8ff" d="M157.8,-54.75C152.77,-47.34 145.41,-36.5 139.24,-27.41"/>
<polygon fill="#63b8ff" stroke="#63b8ff" points="142.1,-25.39 133.58,-19.09 136.31,-29.33 142.1,-25.39"/>
</a>
</g>
</g>
<!-- Node7&#45;&gt;Node2 -->
<g id="edge9_Node000007_Node000002" class="edge">
<title>Node7&#45;&gt;Node2</title>
<g id="a_edge9_Node000007_Node000002"><a xlink:title=" ">
<path fill="none" stroke="#63b8ff" d="M219.21,-109.91C222.41,-96.93 226.39,-72.01 215.75,-55 204.07,-36.34 181.92,-25.2 162.77,-18.73"/>
<polygon fill="#63b8ff" stroke="#63b8ff" points="163.68,-15.35 153.1,-15.76 161.63,-22.04 163.68,-15.35"/>
</a>
</g>
</g>
<!-- Node7&#45;&gt;Node6 -->
<g id="edge10_Node000007_Node000006" class="edge">
<title>Node7&#45;&gt;Node6</title>
<g id="a_edge10_Node000007_Node000006"><a xlink:title=" ">
<path fill="none" stroke="#63b8ff" d="M208,-109.75C200.28,-102.03 188.84,-90.6 179.53,-81.28"/>
<polygon fill="#63b8ff" stroke="#63b8ff" points="181.88,-78.69 172.34,-74.09 176.93,-83.64 181.88,-78.69"/>
</a>
</g>
</g>
</g>
</svg>
