<?xml version="1.0" encoding="UTF-8" standalone="no"?>
<!DOCTYPE svg PUBLIC "-//W3C//DTD SVG 1.1//EN"
 "http://www.w3.org/Graphics/SVG/1.1/DTD/svg11.dtd">
<!-- Generated by graphviz version 2.43.0 (0)
 -->
<!-- Title: src/lexer/lexer_operators.c Pages: 1 -->
<svg width="213pt" height="247pt"
 viewBox="0.00 0.00 213.29 247.00" xmlns="http://www.w3.org/2000/svg" xmlns:xlink="http://www.w3.org/1999/xlink">
<g id="graph0" class="graph" transform="scale(1 1) rotate(0) translate(4 243)">
<title>src/lexer/lexer_operators.c</title>
<!-- Node1 -->
<g id="Node000001" class="node">
<title>Node1</title>
<g id="a_Node000001"><a xlink:title=" ">
<polygon fill="#999999" stroke="#666666" points="145,-239 0,-239 0,-220 145,-220 145,-239"/>
<text text-anchor="middle" x="72.5" y="-227" font-family="Helvetica,sans-Serif" font-size="10.00">src/lexer/lexer_operators.c</text>
</a>
</g>
</g>
<!-- Node2 -->
<g id="Node000002" class="node">
<title>Node2</title>
<g id="a_Node000002"><a xlink:title=" ">
<polygon fill="#e0e0e0" stroke="#999999" points="138.5,-19 88.5,-19 88.5,0 138.5,0 138.5,-19"/>
<text text-anchor="middle" x="113.5" y="-7" font-family="Helvetica,sans-Serif" font-size="10.00">stdio.h</text>
</a>
</g>
</g>
<!-- Node1&#45;&gt;Node2 -->
<g id="edge1_Node000001_Node000002" class="edge">
<title>Node1&#45;&gt;Node2</title>
<g id="a_edge1_Node000001_Node000002"><a xlink:title=" ">
<path fill="none" stroke="#63b8ff" d="M70.04,-219.87C66.87,-207.66 62.04,-184.62 64.5,-165 70.77,-114.94 75.43,-102.47 92.5,-55 95.75,-45.96 100.2,-36.27 104.17,-28.25"/>
<polygon fill="#63b8ff" stroke="#63b8ff" points="107.38,-29.65 108.81,-19.15 101.14,-26.47 107.38,-29.65"/>
</a>
</g>
</g>
<!-- Node3 -->
<g id="Node000003" class="node">
<title>Node3</title>
<g id="a_Node000003"><a xlink:href="lexer__aux_8h.html" target="_top" xlink:title=" ">
<polygon fill="white" stroke="#666666" points="147,-184 74,-184 74,-165 147,-165 147,-184"/>
<text text-anchor="middle" x="110.5" y="-172" font-family="Helvetica,sans-Serif" font-size="10.00">lexer_aux.h</text>
</a>
</g>
</g>
<!-- Node1&#45;&gt;Node3 -->
<g id="edge2_Node000001_Node000003" class="edge">
<title>Node1&#45;&gt;Node3</title>
<g id="a_edge2_Node000001_Node000003"><a xlink:title=" ">
<path fill="none" stroke="#63b8ff" d="M78.77,-219.75C84.09,-212.34 91.86,-201.5 98.38,-192.41"/>
<polygon fill="#63b8ff" stroke="#63b8ff" points="101.36,-194.26 104.34,-184.09 95.67,-190.18 101.36,-194.26"/>
</a>
</g>
</g>
<!-- Node3&#45;&gt;Node2 -->
<g id="edge3_Node000003_Node000002" class="edge">
<title>Node3&#45;&gt;Node2</title>
<g id="a_edge3_Node000003_Node000002"><a xlink:title=" ">
<path fill="none" stroke="#63b8ff" d="M107.89,-164.82C102.32,-145.17 90.39,-95.78 97.5,-55 99.07,-46 102.3,-36.42 105.44,-28.46"/>
<polygon fill="#63b8ff" stroke="#63b8ff" points="108.72,-29.69 109.39,-19.12 102.27,-26.97 108.72,-29.69"/>
</a>
</g>
</g>
<!-- Node4 -->
<g id="Node000004" class="node">
<title>Node4</title>
<g id="a_Node000004"><a xlink:href="token_8h.html" target="_top" xlink:title=" ">
<polygon fill="white" stroke="#666666" points="192.5,-74 106.5,-74 106.5,-55 192.5,-55 192.5,-74"/>
<text text-anchor="middle" x="149.5" y="-62" font-family="Helvetica,sans-Serif" font-size="10.00">../utils/token.h</text>
</a>
</g>
</g>
<!-- Node3&#45;&gt;Node4 -->
<g id="edge4_Node000003_Node000004" class="edge">
<title>Node3&#45;&gt;Node4</title>
<g id="a_edge4_Node000003_Node000004"><a xlink:title=" ">
<path fill="none" stroke="#63b8ff" d="M113.69,-164.66C120.07,-147.01 134.48,-107.09 142.95,-83.64"/>
<polygon fill="#63b8ff" stroke="#63b8ff" points="146.27,-84.75 146.37,-74.16 139.68,-82.38 146.27,-84.75"/>
</a>
</g>
</g>
<!-- Node5 -->
<g id="Node000005" class="node">
<title>Node5</title>
<g id="a_Node000005"><a xlink:href="lexer_8h.html" target="_top" xlink:title=" ">
<polygon fill="white" stroke="#666666" points="194,-129 145,-129 145,-110 194,-110 194,-129"/>
<text text-anchor="middle" x="169.5" y="-117" font-family="Helvetica,sans-Serif" font-size="10.00">lexer.h</text>
</a>
</g>
</g>
<!-- Node3&#45;&gt;Node5 -->
<g id="edge6_Node000003_Node000005" class="edge">
<title>Node3&#45;&gt;Node5</title>
<g id="a_edge6_Node000003_Node000005"><a xlink:title=" ">
<path fill="none" stroke="#63b8ff" d="M119.98,-164.98C128.7,-157.15 141.84,-145.34 152.4,-135.86"/>
<polygon fill="#63b8ff" stroke="#63b8ff" points="154.75,-138.46 159.85,-129.17 150.07,-133.25 154.75,-138.46"/>
</a>
</g>
</g>
<!-- Node4&#45;&gt;Node2 -->
<g id="edge5_Node000004_Node000002" class="edge">
<title>Node4&#45;&gt;Node2</title>
<g id="a_edge5_Node000004_Node000002"><a xlink:title=" ">
<path fill="none" stroke="#63b8ff" d="M143.56,-54.75C138.52,-47.34 131.16,-36.5 124.99,-27.41"/>
<polygon fill="#63b8ff" stroke="#63b8ff" points="127.85,-25.39 119.33,-19.09 122.06,-29.33 127.85,-25.39"/>
</a>
</g>
</g>
<!-- Node5&#45;&gt;Node2 -->
<g id="edge7_Node000005_Node000002" class="edge">
<title>Node5&#45;&gt;Node2</title>
<g id="a_edge7_Node000005_Node000002"><a xlink:title=" ">
<path fill="none" stroke="#63b8ff" d="M179.81,-109.62C193.04,-97.11 213.01,-73.72 201.5,-55 189.89,-36.12 167.53,-24.96 148.25,-18.53"/>
<polygon fill="#63b8ff" stroke="#63b8ff" points="149.11,-15.14 138.52,-15.59 147.08,-21.84 149.11,-15.14"/>
</a>
</g>
</g>
<!-- Node5&#45;&gt;Node4 -->
<g id="edge8_Node000005_Node000004" class="edge">
<title>Node5&#45;&gt;Node4</title>
<g id="a_edge8_Node000005_Node000004"><a xlink:title=" ">
<path fill="none" stroke="#63b8ff" d="M166.2,-109.75C163.52,-102.65 159.65,-92.4 156.31,-83.56"/>
<polygon fill="#63b8ff" stroke="#63b8ff" points="159.55,-82.21 152.74,-74.09 153,-84.68 159.55,-82.21"/>
</a>
</g>
</g>
</g>
</svg>
