<?xml version="1.0" encoding="UTF-8" standalone="no"?>
<!DOCTYPE svg PUBLIC "-//W3C//DTD SVG 1.1//EN"
 "http://www.w3.org/Graphics/SVG/1.1/DTD/svg11.dtd">
<!-- Generated by graphviz version 2.43.0 (0)
 -->
<!-- Title: src/lexer/lexer_handlers.c Pages: 1 -->
<svg width="223pt" height="247pt"
 viewBox="0.00 0.00 222.50 247.00" xmlns="http://www.w3.org/2000/svg" xmlns:xlink="http://www.w3.org/1999/xlink">
<g id="graph0" class="graph" transform="scale(1 1) rotate(0) translate(4 243)">
<title>src/lexer/lexer_handlers.c</title>
<!-- Node1 -->
<g id="Node000001" class="node">
<title>Node1</title>
<g id="a_Node000001"><a xlink:title=" ">
<polygon fill="#999999" stroke="#666666" points="140,-239 0,-239 0,-220 140,-220 140,-239"/>
<text text-anchor="middle" x="70" y="-227" font-family="Helvetica,sans-Serif" font-size="10.00">src/lexer/lexer_handlers.c</text>
</a>
</g>
</g>
<!-- Node2 -->
<g id="Node000002" class="node">
<title>Node2</title>
<g id="a_Node000002"><a xlink:title=" ">
<polygon fill="#e0e0e0" stroke="#999999" points="126,-19 76,-19 76,0 126,0 126,-19"/>
<text text-anchor="middle" x="101" y="-7" font-family="Helvetica,sans-Serif" font-size="10.00">stdio.h</text>
</a>
</g>
</g>
<!-- Node1&#45;&gt;Node2 -->
<g id="edge1_Node000001_Node000002" class="edge">
<title>Node1&#45;&gt;Node2</title>
<g id="a_edge1_Node000001_Node000002"><a xlink:title=" ">
<path fill="none" stroke="#63b8ff" d="M59.84,-219.81C51.1,-211.6 39.1,-198.43 34,-184 31.18,-176.04 32.34,-173.28 34,-165 44.55,-112.41 74.39,-55.84 90.45,-28.01"/>
<polygon fill="#63b8ff" stroke="#63b8ff" points="93.63,-29.51 95.69,-19.12 87.6,-25.96 93.63,-29.51"/>
</a>
</g>
</g>
<!-- Node3 -->
<g id="Node000003" class="node">
<title>Node3</title>
<g id="a_Node000003"><a xlink:title=" ">
<polygon fill="#e0e0e0" stroke="#999999" points="96.5,-184 43.5,-184 43.5,-165 96.5,-165 96.5,-184"/>
<text text-anchor="middle" x="70" y="-172" font-family="Helvetica,sans-Serif" font-size="10.00">string.h</text>
</a>
</g>
</g>
<!-- Node1&#45;&gt;Node3 -->
<g id="edge2_Node000001_Node000003" class="edge">
<title>Node1&#45;&gt;Node3</title>
<g id="a_edge2_Node000001_Node000003"><a xlink:title=" ">
<path fill="none" stroke="#63b8ff" d="M70,-219.75C70,-212.8 70,-202.85 70,-194.13"/>
<polygon fill="#63b8ff" stroke="#63b8ff" points="73.5,-194.09 70,-184.09 66.5,-194.09 73.5,-194.09"/>
</a>
</g>
</g>
<!-- Node4 -->
<g id="Node000004" class="node">
<title>Node4</title>
<g id="a_Node000004"><a xlink:href="lexer__aux_8h.html" target="_top" xlink:title=" ">
<polygon fill="white" stroke="#666666" points="187.5,-184 114.5,-184 114.5,-165 187.5,-165 187.5,-184"/>
<text text-anchor="middle" x="151" y="-172" font-family="Helvetica,sans-Serif" font-size="10.00">lexer_aux.h</text>
</a>
</g>
</g>
<!-- Node1&#45;&gt;Node4 -->
<g id="edge3_Node000001_Node000004" class="edge">
<title>Node1&#45;&gt;Node4</title>
<g id="a_edge3_Node000001_Node000004"><a xlink:title=" ">
<path fill="none" stroke="#63b8ff" d="M83.01,-219.98C95.46,-211.84 114.46,-199.41 129.21,-189.76"/>
<polygon fill="#63b8ff" stroke="#63b8ff" points="131.3,-192.57 137.75,-184.17 127.46,-186.72 131.3,-192.57"/>
</a>
</g>
</g>
<!-- Node4&#45;&gt;Node2 -->
<g id="edge4_Node000004_Node000002" class="edge">
<title>Node4&#45;&gt;Node2</title>
<g id="a_edge4_Node000004_Node000002"><a xlink:title=" ">
<path fill="none" stroke="#63b8ff" d="M142.61,-164.85C127.54,-148.64 96.43,-111.91 85,-74 80.39,-58.71 85.66,-41.09 91.35,-28.29"/>
<polygon fill="#63b8ff" stroke="#63b8ff" points="94.55,-29.71 95.82,-19.2 88.27,-26.62 94.55,-29.71"/>
</a>
</g>
</g>
<!-- Node5 -->
<g id="Node000005" class="node">
<title>Node5</title>
<g id="a_Node000005"><a xlink:href="token_8h.html" target="_top" xlink:title=" ">
<polygon fill="white" stroke="#666666" points="180,-74 94,-74 94,-55 180,-55 180,-74"/>
<text text-anchor="middle" x="137" y="-62" font-family="Helvetica,sans-Serif" font-size="10.00">../utils/token.h</text>
</a>
</g>
</g>
<!-- Node4&#45;&gt;Node5 -->
<g id="edge5_Node000004_Node000005" class="edge">
<title>Node4&#45;&gt;Node5</title>
<g id="a_edge5_Node000004_Node000005"><a xlink:title=" ">
<path fill="none" stroke="#63b8ff" d="M149.85,-164.66C147.59,-147.17 142.48,-107.8 139.43,-84.27"/>
<polygon fill="#63b8ff" stroke="#63b8ff" points="142.88,-83.63 138.12,-74.16 135.94,-84.53 142.88,-83.63"/>
</a>
</g>
</g>
<!-- Node6 -->
<g id="Node000006" class="node">
<title>Node6</title>
<g id="a_Node000006"><a xlink:href="lexer_8h.html" target="_top" xlink:title=" ">
<polygon fill="white" stroke="#666666" points="214.5,-129 165.5,-129 165.5,-110 214.5,-110 214.5,-129"/>
<text text-anchor="middle" x="190" y="-117" font-family="Helvetica,sans-Serif" font-size="10.00">lexer.h</text>
</a>
</g>
</g>
<!-- Node4&#45;&gt;Node6 -->
<g id="edge7_Node000004_Node000006" class="edge">
<title>Node4&#45;&gt;Node6</title>
<g id="a_edge7_Node000004_Node000006"><a xlink:title=" ">
<path fill="none" stroke="#63b8ff" d="M157.44,-164.75C162.89,-157.34 170.86,-146.5 177.56,-137.41"/>
<polygon fill="#63b8ff" stroke="#63b8ff" points="180.57,-139.22 183.68,-129.09 174.93,-135.07 180.57,-139.22"/>
</a>
</g>
</g>
<!-- Node5&#45;&gt;Node2 -->
<g id="edge6_Node000005_Node000002" class="edge">
<title>Node5&#45;&gt;Node2</title>
<g id="a_edge6_Node000005_Node000002"><a xlink:title=" ">
<path fill="none" stroke="#63b8ff" d="M131.06,-54.75C126.02,-47.34 118.66,-36.5 112.49,-27.41"/>
<polygon fill="#63b8ff" stroke="#63b8ff" points="115.35,-25.39 106.83,-19.09 109.56,-29.33 115.35,-25.39"/>
</a>
</g>
</g>
<!-- Node6&#45;&gt;Node2 -->
<g id="edge8_Node000006_Node000002" class="edge">
<title>Node6&#45;&gt;Node2</title>
<g id="a_edge8_Node000006_Node000002"><a xlink:title=" ">
<path fill="none" stroke="#63b8ff" d="M192.47,-109.91C195.66,-96.93 199.65,-72.01 189,-55 177.32,-36.34 155.17,-25.2 136.02,-18.73"/>
<polygon fill="#63b8ff" stroke="#63b8ff" points="136.93,-15.35 126.35,-15.76 134.88,-22.04 136.93,-15.35"/>
</a>
</g>
</g>
<!-- Node6&#45;&gt;Node5 -->
<g id="edge9_Node000006_Node000005" class="edge">
<title>Node6&#45;&gt;Node5</title>
<g id="a_edge9_Node000006_Node000005"><a xlink:title=" ">
<path fill="none" stroke="#63b8ff" d="M181.25,-109.75C173.53,-102.03 162.1,-90.6 152.78,-81.28"/>
<polygon fill="#63b8ff" stroke="#63b8ff" points="155.14,-78.69 145.59,-74.09 150.19,-83.64 155.14,-78.69"/>
</a>
</g>
</g>
</g>
</svg>
