<?xml version="1.0" encoding="UTF-8" standalone="no"?>
<!DOCTYPE svg PUBLIC "-//W3C//DTD SVG 1.1//EN"
 "http://www.w3.org/Graphics/SVG/1.1/DTD/svg11.dtd">
<!-- Generated by graphviz version 2.43.0 (0)
 -->
<!-- Title: src/lexer/lexer.h Pages: 1 -->
<svg width="1834pt" height="137pt"
 viewBox="0.00 0.00 1833.50 137.00" xmlns="http://www.w3.org/2000/svg" xmlns:xlink="http://www.w3.org/1999/xlink">
<g id="graph0" class="graph" transform="scale(1 1) rotate(0) translate(4 133)">
<title>src/lexer/lexer.h</title>
<!-- Node1 -->
<g id="Node000001" class="node">
<title>Node1</title>
<g id="a_Node000001"><a xlink:title=" ">
<polygon fill="#999999" stroke="#666666" points="465.5,-129 372.5,-129 372.5,-110 465.5,-110 465.5,-129"/>
<text text-anchor="middle" x="419" y="-117" font-family="Helvetica,sans-Serif" font-size="10.00">src/lexer/lexer.h</text>
</a>
</g>
</g>
<!-- Node2 -->
<g id="Node000002" class="node">
<title>Node2</title>
<g id="a_Node000002"><a xlink:href="dot_8c.html" target="_top" xlink:title=" ">
<polygon fill="white" stroke="#666666" points="342,-74 250,-74 250,-55 342,-55 342,-74"/>
<text text-anchor="middle" x="296" y="-62" font-family="Helvetica,sans-Serif" font-size="10.00">src/builtin/dot.c</text>
</a>
</g>
</g>
<!-- Node1&#45;&gt;Node2 -->
<g id="edge1_Node000001_Node000002" class="edge">
<title>Node1&#45;&gt;Node2</title>
<g id="a_edge1_Node000001_Node000002"><a xlink:title=" ">
<path fill="none" stroke="#63b8ff" d="M389.75,-105.9C367.03,-96.11 336.13,-82.79 316.12,-74.17"/>
<polygon fill="#63b8ff" stroke="#63b8ff" points="388.67,-109.24 399.24,-109.98 391.44,-102.81 388.67,-109.24"/>
</a>
</g>
</g>
<!-- Node3 -->
<g id="Node000003" class="node">
<title>Node3</title>
<g id="a_Node000003"><a xlink:href="lexer__aux_8h.html" target="_top" xlink:title=" ">
<polygon fill="white" stroke="#666666" points="477.5,-74 360.5,-74 360.5,-55 477.5,-55 477.5,-74"/>
<text text-anchor="middle" x="419" y="-62" font-family="Helvetica,sans-Serif" font-size="10.00">src/lexer/lexer_aux.h</text>
</a>
</g>
</g>
<!-- Node1&#45;&gt;Node3 -->
<g id="edge2_Node000001_Node000003" class="edge">
<title>Node1&#45;&gt;Node3</title>
<g id="a_edge2_Node000001_Node000003"><a xlink:title=" ">
<path fill="none" stroke="#63b8ff" d="M419,-99.66C419,-90.93 419,-80.99 419,-74.09"/>
<polygon fill="#63b8ff" stroke="#63b8ff" points="415.5,-99.75 419,-109.75 422.5,-99.75 415.5,-99.75"/>
</a>
</g>
</g>
<!-- Node9 -->
<g id="Node000009" class="node">
<title>Node9</title>
<g id="a_Node000009"><a xlink:href="parser__aux_8h.html" target="_top" xlink:title=" ">
<polygon fill="white" stroke="#666666" points="1238.5,-74 1107.5,-74 1107.5,-55 1238.5,-55 1238.5,-74"/>
<text text-anchor="middle" x="1173" y="-62" font-family="Helvetica,sans-Serif" font-size="10.00">src/parser/parser_aux.h</text>
</a>
</g>
</g>
<!-- Node1&#45;&gt;Node9 -->
<g id="edge8_Node000001_Node000009" class="edge">
<title>Node1&#45;&gt;Node9</title>
<g id="a_edge8_Node000001_Node000009"><a xlink:title=" ">
<path fill="none" stroke="#63b8ff" d="M475.88,-114.5C613.04,-104.86 961.4,-80.37 1107.23,-70.12"/>
<polygon fill="#63b8ff" stroke="#63b8ff" points="475.33,-111.03 465.6,-115.22 475.82,-118.01 475.33,-111.03"/>
</a>
</g>
</g>
<!-- Node4 -->
<g id="Node000004" class="node">
<title>Node4</title>
<g id="a_Node000004"><a xlink:href="lexer_8c.html" target="_top" xlink:title=" ">
<polygon fill="white" stroke="#666666" points="92,-19 0,-19 0,0 92,0 92,-19"/>
<text text-anchor="middle" x="46" y="-7" font-family="Helvetica,sans-Serif" font-size="10.00">src/lexer/lexer.c</text>
</a>
</g>
</g>
<!-- Node3&#45;&gt;Node4 -->
<g id="edge3_Node000003_Node000004" class="edge">
<title>Node3&#45;&gt;Node4</title>
<g id="a_edge3_Node000003_Node000004"><a xlink:title=" ">
<path fill="none" stroke="#63b8ff" d="M350.32,-54.18C285.88,-45.36 186.86,-31.64 101,-19 98.13,-18.58 95.18,-18.14 92.21,-17.69"/>
<polygon fill="#63b8ff" stroke="#63b8ff" points="349.97,-57.66 360.35,-55.55 350.92,-50.73 349.97,-57.66"/>
</a>
</g>
</g>
<!-- Node5 -->
<g id="Node000005" class="node">
<title>Node5</title>
<g id="a_Node000005"><a xlink:href="lexer__handlers_8c.html" target="_top" xlink:title=" ">
<polygon fill="white" stroke="#666666" points="250,-19 110,-19 110,0 250,0 250,-19"/>
<text text-anchor="middle" x="180" y="-7" font-family="Helvetica,sans-Serif" font-size="10.00">src/lexer/lexer_handlers.c</text>
</a>
</g>
</g>
<!-- Node3&#45;&gt;Node5 -->
<g id="edge4_Node000003_Node000005" class="edge">
<title>Node3&#45;&gt;Node5</title>
<g id="a_edge4_Node000003_Node000005"><a xlink:title=" ">
<path fill="none" stroke="#63b8ff" d="M370.82,-52.82C326.03,-42.88 260.16,-28.28 218.7,-19.08"/>
<polygon fill="#63b8ff" stroke="#63b8ff" points="370.08,-56.24 380.6,-54.98 371.6,-49.4 370.08,-56.24"/>
</a>
</g>
</g>
<!-- Node6 -->
<g id="Node000006" class="node">
<title>Node6</title>
<g id="a_Node000006"><a xlink:href="lexer__operators_8c.html" target="_top" xlink:title=" ">
<polygon fill="white" stroke="#666666" points="413.5,-19 268.5,-19 268.5,0 413.5,0 413.5,-19"/>
<text text-anchor="middle" x="341" y="-7" font-family="Helvetica,sans-Serif" font-size="10.00">src/lexer/lexer_operators.c</text>
</a>
</g>
</g>
<!-- Node3&#45;&gt;Node6 -->
<g id="edge5_Node000003_Node000006" class="edge">
<title>Node3&#45;&gt;Node6</title>
<g id="a_edge5_Node000003_Node000006"><a xlink:title=" ">
<path fill="none" stroke="#63b8ff" d="M397.88,-49.15C383.79,-39.57 365.71,-27.29 353.76,-19.17"/>
<polygon fill="#63b8ff" stroke="#63b8ff" points="396.23,-52.26 406.47,-54.98 400.16,-46.47 396.23,-52.26"/>
</a>
</g>
</g>
<!-- Node7 -->
<g id="Node000007" class="node">
<title>Node7</title>
<g id="a_Node000007"><a xlink:href="lexer__tokens_8c.html" target="_top" xlink:title=" ">
<polygon fill="white" stroke="#666666" points="562.5,-19 431.5,-19 431.5,0 562.5,0 562.5,-19"/>
<text text-anchor="middle" x="497" y="-7" font-family="Helvetica,sans-Serif" font-size="10.00">src/lexer/lexer_tokens.c</text>
</a>
</g>
</g>
<!-- Node3&#45;&gt;Node7 -->
<g id="edge6_Node000003_Node000007" class="edge">
<title>Node3&#45;&gt;Node7</title>
<g id="a_edge6_Node000003_Node000007"><a xlink:title=" ">
<path fill="none" stroke="#63b8ff" d="M440.12,-49.15C454.21,-39.57 472.29,-27.29 484.24,-19.17"/>
<polygon fill="#63b8ff" stroke="#63b8ff" points="437.84,-46.47 431.53,-54.98 441.77,-52.26 437.84,-46.47"/>
</a>
</g>
</g>
<!-- Node8 -->
<g id="Node000008" class="node">
<title>Node8</title>
<g id="a_Node000008"><a xlink:href="lexer__utils_8c.html" target="_top" xlink:title=" ">
<polygon fill="white" stroke="#666666" points="699.5,-19 580.5,-19 580.5,0 699.5,0 699.5,-19"/>
<text text-anchor="middle" x="640" y="-7" font-family="Helvetica,sans-Serif" font-size="10.00">src/lexer/lexer_utils.c</text>
</a>
</g>
</g>
<!-- Node3&#45;&gt;Node8 -->
<g id="edge7_Node000003_Node000008" class="edge">
<title>Node3&#45;&gt;Node8</title>
<g id="a_edge7_Node000003_Node000008"><a xlink:title=" ">
<path fill="none" stroke="#63b8ff" d="M464.34,-52.63C505.74,-42.7 566.12,-28.22 604.21,-19.08"/>
<polygon fill="#63b8ff" stroke="#63b8ff" points="463.42,-49.25 454.51,-54.98 465.05,-56.06 463.42,-49.25"/>
</a>
</g>
</g>
<!-- Node10 -->
<g id="Node000010" class="node">
<title>Node10</title>
<g id="a_Node000010"><a xlink:href="parser_8c.html" target="_top" xlink:title=" ">
<polygon fill="white" stroke="#666666" points="824,-19 718,-19 718,0 824,0 824,-19"/>
<text text-anchor="middle" x="771" y="-7" font-family="Helvetica,sans-Serif" font-size="10.00">src/parser/parser.c</text>
</a>
</g>
</g>
<!-- Node9&#45;&gt;Node10 -->
<g id="edge9_Node000009_Node000010" class="edge">
<title>Node9&#45;&gt;Node10</title>
<g id="a_edge9_Node000009_Node000010"><a xlink:title=" ">
<path fill="none" stroke="#63b8ff" d="M1097.16,-53.71C1028.25,-44.78 923.78,-31.16 833,-19 830.09,-18.61 827.11,-18.21 824.1,-17.8"/>
<polygon fill="#63b8ff" stroke="#63b8ff" points="1097.12,-57.23 1107.49,-55.05 1098.02,-50.29 1097.12,-57.23"/>
</a>
</g>
</g>
<!-- Node11 -->
<g id="Node000011" class="node">
<title>Node11</title>
<g id="a_Node000011"><a xlink:href="parser__commands_8c.html" target="_top" xlink:title=" ">
<polygon fill="white" stroke="#666666" points="1008,-19 842,-19 842,0 1008,0 1008,-19"/>
<text text-anchor="middle" x="925" y="-7" font-family="Helvetica,sans-Serif" font-size="10.00">src/parser/parser_commands.c</text>
</a>
</g>
</g>
<!-- Node9&#45;&gt;Node11 -->
<g id="edge10_Node000009_Node000011" class="edge">
<title>Node9&#45;&gt;Node11</title>
<g id="a_edge10_Node000009_Node000011"><a xlink:title=" ">
<path fill="none" stroke="#63b8ff" d="M1123.3,-52.88C1076.82,-42.94 1008.27,-28.3 965.16,-19.08"/>
<polygon fill="#63b8ff" stroke="#63b8ff" points="1122.64,-56.32 1133.15,-54.98 1124.11,-49.47 1122.64,-56.32"/>
</a>
</g>
</g>
<!-- Node12 -->
<g id="Node000012" class="node">
<title>Node12</title>
<g id="a_Node000012"><a xlink:href="parser__lists_8c.html" target="_top" xlink:title=" ">
<polygon fill="white" stroke="#666666" points="1158,-19 1026,-19 1026,0 1158,0 1158,-19"/>
<text text-anchor="middle" x="1092" y="-7" font-family="Helvetica,sans-Serif" font-size="10.00">src/parser/parser_lists.c</text>
</a>
</g>
</g>
<!-- Node9&#45;&gt;Node12 -->
<g id="edge11_Node000009_Node000012" class="edge">
<title>Node9&#45;&gt;Node12</title>
<g id="a_edge11_Node000009_Node000012"><a xlink:title=" ">
<path fill="none" stroke="#63b8ff" d="M1151.49,-49.42C1136.79,-39.81 1117.78,-27.37 1105.25,-19.17"/>
<polygon fill="#63b8ff" stroke="#63b8ff" points="1149.7,-52.44 1159.99,-54.98 1153.53,-46.58 1149.7,-52.44"/>
</a>
</g>
</g>
<!-- Node13 -->
<g id="Node000013" class="node">
<title>Node13</title>
<g id="a_Node000013"><a xlink:href="parser__pipelines_8c.html" target="_top" xlink:title=" ">
<polygon fill="white" stroke="#666666" points="1332,-19 1176,-19 1176,0 1332,0 1332,-19"/>
<text text-anchor="middle" x="1254" y="-7" font-family="Helvetica,sans-Serif" font-size="10.00">src/parser/parser_pipelines.c</text>
</a>
</g>
</g>
<!-- Node9&#45;&gt;Node13 -->
<g id="edge12_Node000009_Node000013" class="edge">
<title>Node9&#45;&gt;Node13</title>
<g id="a_edge12_Node000009_Node000013"><a xlink:title=" ">
<path fill="none" stroke="#63b8ff" d="M1194.51,-49.42C1209.21,-39.81 1228.22,-27.37 1240.75,-19.17"/>
<polygon fill="#63b8ff" stroke="#63b8ff" points="1192.47,-46.58 1186.01,-54.98 1196.3,-52.44 1192.47,-46.58"/>
</a>
</g>
</g>
<!-- Node14 -->
<g id="Node000014" class="node">
<title>Node14</title>
<g id="a_Node000014"><a xlink:href="parser__redirections_8c.html" target="_top" xlink:title=" ">
<polygon fill="white" stroke="#666666" points="1520,-19 1350,-19 1350,0 1520,0 1520,-19"/>
<text text-anchor="middle" x="1435" y="-7" font-family="Helvetica,sans-Serif" font-size="10.00">src/parser/parser_redirections.c</text>
</a>
</g>
</g>
<!-- Node9&#45;&gt;Node14 -->
<g id="edge13_Node000009_Node000014" class="edge">
<title>Node9&#45;&gt;Node14</title>
<g id="a_edge13_Node000009_Node000014"><a xlink:title=" ">
<path fill="none" stroke="#63b8ff" d="M1225.2,-52.94C1274.31,-43.01 1346.93,-28.31 1392.58,-19.08"/>
<polygon fill="#63b8ff" stroke="#63b8ff" points="1224.2,-49.57 1215.09,-54.98 1225.59,-56.43 1224.2,-49.57"/>
</a>
</g>
</g>
<!-- Node15 -->
<g id="Node000015" class="node">
<title>Node15</title>
<g id="a_Node000015"><a xlink:href="parser__rules_8c.html" target="_top" xlink:title=" ">
<polygon fill="white" stroke="#666666" points="1674,-19 1538,-19 1538,0 1674,0 1674,-19"/>
<text text-anchor="middle" x="1606" y="-7" font-family="Helvetica,sans-Serif" font-size="10.00">src/parser/parser_rules.c</text>
</a>
</g>
</g>
<!-- Node9&#45;&gt;Node15 -->
<g id="edge14_Node000009_Node000015" class="edge">
<title>Node9&#45;&gt;Node15</title>
<g id="a_edge14_Node000009_Node000015"><a xlink:title=" ">
<path fill="none" stroke="#63b8ff" d="M1248.98,-54.2C1330.65,-44.2 1459.31,-28.46 1537.83,-18.84"/>
<polygon fill="#63b8ff" stroke="#63b8ff" points="1248.26,-50.76 1238.76,-55.45 1249.11,-57.71 1248.26,-50.76"/>
</a>
</g>
</g>
<!-- Node16 -->
<g id="Node000016" class="node">
<title>Node16</title>
<g id="a_Node000016"><a xlink:href="parser__utils_8c.html" target="_top" xlink:title=" ">
<polygon fill="white" stroke="#666666" points="1825.5,-19 1692.5,-19 1692.5,0 1825.5,0 1825.5,-19"/>
<text text-anchor="middle" x="1759" y="-7" font-family="Helvetica,sans-Serif" font-size="10.00">src/parser/parser_utils.c</text>
</a>
</g>
</g>
<!-- Node9&#45;&gt;Node16 -->
<g id="edge15_Node000009_Node000016" class="edge">
<title>Node9&#45;&gt;Node16</title>
<g id="a_edge15_Node000009_Node000016"><a xlink:title=" ">
<path fill="none" stroke="#63b8ff" d="M1248.63,-57.48C1348.26,-49.42 1528.88,-34.34 1683,-19 1686.04,-18.7 1689.14,-18.38 1692.28,-18.05"/>
<polygon fill="#63b8ff" stroke="#63b8ff" points="1248.35,-53.99 1238.66,-58.28 1248.91,-60.97 1248.35,-53.99"/>
</a>
</g>
</g>
</g>
</svg>
