<?xml version="1.0" encoding="UTF-8" standalone="no"?>
<!DOCTYPE svg PUBLIC "-//W3C//DTD SVG 1.1//EN"
 "http://www.w3.org/Graphics/SVG/1.1/DTD/svg11.dtd">
<!-- Generated by graphviz version 2.43.0 (0)
 -->
<!-- Title: peek Pages: 1 -->
<svg width="875pt" height="645pt"
 viewBox="0.00 0.00 875.00 645.29" xmlns="http://www.w3.org/2000/svg" xmlns:xlink="http://www.w3.org/1999/xlink">
<g id="graph0" class="graph" transform="scale(1 1) rotate(0) translate(4 641.29)">
<title>peek</title>
<!-- Node1 -->
<g id="Node000001" class="node">
<title>Node1</title>
<g id="a_Node000001"><a xlink:title="Peek on the lexer to see the current token.">
<polygon fill="#999999" stroke="#666666" points="41,-432 0,-432 0,-413 41,-413 41,-432"/>
<text text-anchor="middle" x="20.5" y="-420" font-family="Helvetica,sans-Serif" font-size="10.00">peek</text>
</a>
</g>
</g>
<!-- Node2 -->
<g id="Node000002" class="node">
<title>Node2</title>
<g id="a_Node000002"><a xlink:href="lexer_8c.html#ab0a076d4847ef2557a4e8d2e0852092d" target="_top" xlink:title="Transforme le FILE en token.">
<polygon fill="white" stroke="#666666" points="118,-432 77,-432 77,-413 118,-413 118,-432"/>
<text text-anchor="middle" x="97.5" y="-420" font-family="Helvetica,sans-Serif" font-size="10.00">lexer</text>
</a>
</g>
</g>
<!-- Node1&#45;&gt;Node2 -->
<g id="edge1_Node000001_Node000002" class="edge">
<title>Node1&#45;&gt;Node2</title>
<g id="a_edge1_Node000001_Node000002"><a xlink:title=" ">
<path fill="none" stroke="#63b8ff" d="M41.21,-422.5C49.04,-422.5 58.23,-422.5 66.84,-422.5"/>
<polygon fill="#63b8ff" stroke="#63b8ff" points="66.93,-426 76.93,-422.5 66.93,-419 66.93,-426"/>
</a>
</g>
</g>
<!-- Node3 -->
<g id="Node000003" class="node">
<title>Node3</title>
<g id="a_Node000003"><a xlink:href="lexer__tokens_8c.html#ae59c383936dadf54742b836a5bd2a70b" target="_top" xlink:title=" ">
<polygon fill="white" stroke="#666666" points="652.5,-469 580.5,-469 580.5,-450 652.5,-450 652.5,-469"/>
<text text-anchor="middle" x="616.5" y="-457" font-family="Helvetica,sans-Serif" font-size="10.00">check_type</text>
</a>
</g>
</g>
<!-- Node2&#45;&gt;Node3 -->
<g id="edge2_Node000002_Node000003" class="edge">
<title>Node2&#45;&gt;Node3</title>
<g id="a_edge2_Node000002_Node000003"><a xlink:title=" ">
<path fill="none" stroke="#63b8ff" d="M109.56,-432.24C120.19,-441.06 137.11,-453.68 154,-460.5 198.72,-478.54 212.94,-474.49 261,-478.5 371.77,-487.75 502.41,-474.54 569.95,-465.92"/>
<polygon fill="#63b8ff" stroke="#63b8ff" points="570.77,-469.34 580.23,-464.58 569.86,-462.4 570.77,-469.34"/>
</a>
</g>
</g>
<!-- Node4 -->
<g id="Node000004" class="node">
<title>Node4</title>
<g id="a_Node000004"><a xlink:href="lexer__tokens_8c.html#af41b4fb75a0f3ece50d1c55cf5ad55bd" target="_top" xlink:title=" ">
<polygon fill="white" stroke="#666666" points="223,-414 156,-414 156,-395 223,-395 223,-414"/>
<text text-anchor="middle" x="189.5" y="-402" font-family="Helvetica,sans-Serif" font-size="10.00">end_token</text>
</a>
</g>
</g>
<!-- Node2&#45;&gt;Node4 -->
<g id="edge3_Node000002_Node000004" class="edge">
<title>Node2&#45;&gt;Node4</title>
<g id="a_edge3_Node000002_Node000004"><a xlink:title=" ">
<path fill="none" stroke="#63b8ff" d="M118.03,-418.59C126.24,-416.95 136.14,-414.97 145.89,-413.02"/>
<polygon fill="#63b8ff" stroke="#63b8ff" points="146.8,-416.41 155.91,-411.02 145.42,-409.55 146.8,-416.41"/>
</a>
</g>
</g>
<!-- Node5 -->
<g id="Node000005" class="node">
<title>Node5</title>
<g id="a_Node000005"><a xlink:href="token_8c.html#a491cb915cd703d12b24d7c6adc0412cc" target="_top" xlink:title=" ">
<polygon fill="white" stroke="#666666" points="223.5,-377 155.5,-377 155.5,-358 223.5,-358 223.5,-377"/>
<text text-anchor="middle" x="189.5" y="-365" font-family="Helvetica,sans-Serif" font-size="10.00">free_token</text>
</a>
</g>
</g>
<!-- Node2&#45;&gt;Node5 -->
<g id="edge4_Node000002_Node000005" class="edge">
<title>Node2&#45;&gt;Node5</title>
<g id="a_edge4_Node000002_Node000005"><a xlink:title=" ">
<path fill="none" stroke="#63b8ff" d="M112.93,-412.74C124.02,-405.32 139.81,-394.99 154,-386.5 156.48,-385.02 159.07,-383.51 161.68,-382.02"/>
<polygon fill="#63b8ff" stroke="#63b8ff" points="163.43,-385.05 170.45,-377.12 160.02,-378.94 163.43,-385.05"/>
</a>
</g>
</g>
<!-- Node6 -->
<g id="Node000006" class="node">
<title>Node6</title>
<g id="a_Node000006"><a xlink:href="token_8c.html#a4f0f028b792947862bc2364f30f3d3d2" target="_top" xlink:title="Init struct token.">
<polygon fill="white" stroke="#666666" points="222,-340 157,-340 157,-321 222,-321 222,-340"/>
<text text-anchor="middle" x="189.5" y="-328" font-family="Helvetica,sans-Serif" font-size="10.00">init_token</text>
</a>
</g>
</g>
<!-- Node2&#45;&gt;Node6 -->
<g id="edge5_Node000002_Node000006" class="edge">
<title>Node2&#45;&gt;Node6</title>
<g id="a_edge5_Node000002_Node000006"><a xlink:title=" ">
<path fill="none" stroke="#63b8ff" d="M103.94,-412.97C112.85,-397.98 131.82,-368.64 154,-349.5 155.68,-348.05 157.49,-346.66 159.37,-345.34"/>
<polygon fill="#63b8ff" stroke="#63b8ff" points="161.25,-348.29 167.87,-340.03 157.54,-342.36 161.25,-348.29"/>
</a>
</g>
</g>
<!-- Node7 -->
<g id="Node000007" class="node">
<title>Node7</title>
<g id="a_Node000007"><a xlink:href="lexer__operators_8c.html#a274e606313b69e42745e7278ed244bc8" target="_top" xlink:title="Handle a possible operator.">
<polygon fill="white" stroke="#666666" points="350,-616 276,-616 276,-597 350,-597 350,-616"/>
<text text-anchor="middle" x="313" y="-604" font-family="Helvetica,sans-Serif" font-size="10.00">manage_op</text>
</a>
</g>
</g>
<!-- Node2&#45;&gt;Node7 -->
<g id="edge6_Node000002_Node000007" class="edge">
<title>Node2&#45;&gt;Node7</title>
<g id="a_edge6_Node000002_Node000007"><a xlink:title=" ">
<path fill="none" stroke="#63b8ff" d="M99.63,-432.35C103.02,-457.26 115.36,-523.28 154,-558.5 184.63,-586.42 231.04,-598.11 265.65,-603"/>
<polygon fill="#63b8ff" stroke="#63b8ff" points="265.62,-606.53 275.98,-604.31 266.5,-599.58 265.62,-606.53"/>
</a>
</g>
</g>
<!-- Node9 -->
<g id="Node000009" class="node">
<title>Node9</title>
<g id="a_Node000009"><a xlink:href="lexer__operators_8c.html#a0758cae1bae4276754a185e231ad4760" target="_top" xlink:title="Handle different redirections.">
<polygon fill="white" stroke="#666666" points="499,-583 415,-583 415,-564 499,-564 499,-583"/>
<text text-anchor="middle" x="457" y="-571" font-family="Helvetica,sans-Serif" font-size="10.00">manage_redir</text>
</a>
</g>
</g>
<!-- Node2&#45;&gt;Node9 -->
<g id="edge8_Node000002_Node000009" class="edge">
<title>Node2&#45;&gt;Node9</title>
<g id="a_edge8_Node000002_Node000009"><a xlink:title=" ">
<path fill="none" stroke="#63b8ff" d="M101.59,-432.08C108.08,-450.62 125,-491.33 154,-511.5 229.75,-564.2 340.44,-574.04 404.65,-574.84"/>
<polygon fill="#63b8ff" stroke="#63b8ff" points="404.91,-578.34 414.93,-574.9 404.95,-571.34 404.91,-578.34"/>
</a>
</g>
</g>
<!-- Node10 -->
<g id="Node000010" class="node">
<title>Node10</title>
<g id="a_Node000010"><a xlink:href="lexer_8c.html#a14a1affa5f1ee7d92339872bcd3cc602" target="_top" xlink:title="identique a la fonction lexer">
<polygon fill="white" stroke="#666666" points="225,-451 154,-451 154,-432 225,-432 225,-451"/>
<text text-anchor="middle" x="189.5" y="-439" font-family="Helvetica,sans-Serif" font-size="10.00">sub_switch</text>
</a>
</g>
</g>
<!-- Node2&#45;&gt;Node10 -->
<g id="edge10_Node000002_Node000010" class="edge">
<title>Node2&#45;&gt;Node10</title>
<g id="a_edge10_Node000002_Node000010"><a xlink:title=" ">
<path fill="none" stroke="#63b8ff" d="M118.03,-426.62C125.7,-428.24 134.84,-430.17 143.95,-432.1"/>
<polygon fill="#63b8ff" stroke="#63b8ff" points="143.26,-435.53 153.77,-434.17 144.7,-428.68 143.26,-435.53"/>
</a>
</g>
</g>
<!-- Node27 -->
<g id="Node000027" class="node">
<title>Node27</title>
<g id="a_Node000027"><a xlink:href="lexer__tokens_8c.html#a78b2b413e7059cf4c7579a83bf767d13" target="_top" xlink:title=" ">
<polygon fill="white" stroke="#666666" points="225,-56 154,-56 154,-37 225,-37 225,-56"/>
<text text-anchor="middle" x="189.5" y="-44" font-family="Helvetica,sans-Serif" font-size="10.00">verif_token</text>
</a>
</g>
</g>
<!-- Node2&#45;&gt;Node27 -->
<g id="edge41_Node000002_Node000027" class="edge">
<title>Node2&#45;&gt;Node27</title>
<g id="a_edge41_Node000002_Node000027"><a xlink:title=" ">
<path fill="none" stroke="#63b8ff" d="M100.82,-412.83C112.75,-362.96 167.42,-134.57 183.83,-66.01"/>
<polygon fill="#63b8ff" stroke="#63b8ff" points="187.28,-66.65 186.2,-56.11 180.47,-65.02 187.28,-66.65"/>
</a>
</g>
</g>
<!-- Node8 -->
<g id="Node000008" class="node">
<title>Node8</title>
<g id="a_Node000008"><a xlink:href="dot_8c.html#a36f9e0f75603ec6472a90c595e3bba79" target="_top" xlink:title="Concat path and string with &#39;/&#39; between.">
<polygon fill="white" stroke="#666666" points="772,-338 723,-338 723,-319 772,-319 772,-338"/>
<text text-anchor="middle" x="747.5" y="-326" font-family="Helvetica,sans-Serif" font-size="10.00">concat</text>
</a>
</g>
</g>
<!-- Node7&#45;&gt;Node8 -->
<g id="edge7_Node000007_Node000008" class="edge">
<title>Node7&#45;&gt;Node8</title>
<g id="a_edge7_Node000007_Node000008"><a xlink:title=" ">
<path fill="none" stroke="#63b8ff" d="M347.06,-616.02C418.34,-634.33 587.82,-665.65 684,-581.5 744.42,-528.64 698.74,-481.91 720,-404.5 725.41,-384.79 733.29,-362.8 739.05,-347.56"/>
<polygon fill="#63b8ff" stroke="#63b8ff" points="742.33,-348.79 742.64,-338.2 735.79,-346.29 742.33,-348.79"/>
</a>
</g>
</g>
<!-- Node9&#45;&gt;Node8 -->
<g id="edge9_Node000009_Node000008" class="edge">
<title>Node9&#45;&gt;Node8</title>
<g id="a_edge9_Node000009_Node000008"><a xlink:title=" ">
<path fill="none" stroke="#63b8ff" d="M499.37,-581.98C549.38,-589.64 633.12,-593.82 684,-549.5 734.07,-505.89 701.05,-468.14 720,-404.5 725.83,-384.91 733.65,-362.9 739.28,-347.63"/>
<polygon fill="#63b8ff" stroke="#63b8ff" points="742.57,-348.84 742.78,-338.24 736.01,-346.39 742.57,-348.84"/>
</a>
</g>
</g>
<!-- Node10&#45;&gt;Node8 -->
<g id="edge11_Node000010_Node000008" class="edge">
<title>Node10&#45;&gt;Node8</title>
<g id="a_edge11_Node000010_Node000008"><a xlink:title=" ">
<path fill="none" stroke="#63b8ff" d="M214.99,-431.96C218.73,-429.64 222.26,-426.84 225,-423.5 261.36,-379.1 235.32,-350.82 261,-299.5 307.29,-206.97 308.42,-159.69 401,-113.5 430.68,-98.69 662.93,-101.38 684,-117.5 714.97,-141.2 736.29,-261.27 743.66,-308.94"/>
<polygon fill="#63b8ff" stroke="#63b8ff" points="740.21,-309.56 745.16,-318.93 747.13,-308.52 740.21,-309.56"/>
</a>
</g>
</g>
<!-- Node11 -->
<g id="Node000011" class="node">
<title>Node11</title>
<g id="a_Node000011"><a xlink:href="lexer__handlers_8c.html#aaf817088d95d074a2d4e6bfce7799723" target="_top" xlink:title=" ">
<polygon fill="white" stroke="#666666" points="351,-469 275,-469 275,-450 351,-450 351,-469"/>
<text text-anchor="middle" x="313" y="-457" font-family="Helvetica,sans-Serif" font-size="10.00">handle_com</text>
</a>
</g>
</g>
<!-- Node10&#45;&gt;Node11 -->
<g id="edge12_Node000010_Node000011" class="edge">
<title>Node10&#45;&gt;Node11</title>
<g id="a_edge12_Node000010_Node000011"><a xlink:title=" ">
<path fill="none" stroke="#63b8ff" d="M225.32,-446.66C237.49,-448.46 251.37,-450.52 264.41,-452.45"/>
<polygon fill="#63b8ff" stroke="#63b8ff" points="264.22,-455.96 274.63,-453.96 265.25,-449.04 264.22,-455.96"/>
</a>
</g>
</g>
<!-- Node12 -->
<g id="Node000012" class="node">
<title>Node12</title>
<g id="a_Node000012"><a xlink:href="lexer__handlers_8c.html#aa76e470a78c6e91c7db6cce558b1a768" target="_top" xlink:title=" ">
<polygon fill="white" stroke="#666666" points="354.5,-432 271.5,-432 271.5,-413 354.5,-413 354.5,-432"/>
<text text-anchor="middle" x="313" y="-420" font-family="Helvetica,sans-Serif" font-size="10.00">handle_quote</text>
</a>
</g>
</g>
<!-- Node10&#45;&gt;Node12 -->
<g id="edge14_Node000010_Node000012" class="edge">
<title>Node10&#45;&gt;Node12</title>
<g id="a_edge14_Node000010_Node000012"><a xlink:title=" ">
<path fill="none" stroke="#63b8ff" d="M225.32,-436.06C236.49,-434.31 249.11,-432.33 261.19,-430.45"/>
<polygon fill="#63b8ff" stroke="#63b8ff" points="261.83,-433.89 271.16,-428.89 260.74,-426.97 261.83,-433.89"/>
</a>
</g>
</g>
<!-- Node13 -->
<g id="Node000013" class="node">
<title>Node13</title>
<g id="a_Node000013"><a xlink:href="lexer_8c.html#a65b9b0626e01e0653ddcae13e7c6a709" target="_top" xlink:title="Gestion des délimiteurs.">
<polygon fill="white" stroke="#666666" points="365,-328 261,-328 261,-309 365,-309 365,-328"/>
<text text-anchor="middle" x="313" y="-316" font-family="Helvetica,sans-Serif" font-size="10.00">sub_switch_delim</text>
</a>
</g>
</g>
<!-- Node10&#45;&gt;Node13 -->
<g id="edge16_Node000010_Node000013" class="edge">
<title>Node10&#45;&gt;Node13</title>
<g id="a_edge16_Node000010_Node000013"><a xlink:title=" ">
<path fill="none" stroke="#63b8ff" d="M212.12,-431.91C216.59,-429.47 221.11,-426.64 225,-423.5 256.57,-397.97 284.89,-359.53 300.14,-336.92"/>
<polygon fill="#63b8ff" stroke="#63b8ff" points="303.25,-338.56 305.85,-328.29 297.41,-334.7 303.25,-338.56"/>
</a>
</g>
</g>
<!-- Node11&#45;&gt;Node8 -->
<g id="edge13_Node000011_Node000008" class="edge">
<title>Node11&#45;&gt;Node8</title>
<g id="a_edge13_Node000011_Node000008"><a xlink:title=" ">
<path fill="none" stroke="#63b8ff" d="M332.26,-469.01C389.94,-497.6 571.13,-576.1 684,-497.5 687.23,-495.25 724.06,-391.95 739.62,-347.98"/>
<polygon fill="#63b8ff" stroke="#63b8ff" points="742.98,-349 743.01,-338.4 736.38,-346.67 742.98,-349"/>
</a>
</g>
</g>
<!-- Node12&#45;&gt;Node8 -->
<g id="edge15_Node000012_Node000008" class="edge">
<title>Node12&#45;&gt;Node8</title>
<g id="a_edge15_Node000012_Node000008"><a xlink:title=" ">
<path fill="none" stroke="#63b8ff" d="M343.61,-432.06C421.17,-456.31 628.12,-515.75 684,-478.5 695.53,-470.81 726.19,-386.53 739.81,-347.78"/>
<polygon fill="#63b8ff" stroke="#63b8ff" points="743.18,-348.76 743.18,-338.16 736.57,-346.45 743.18,-348.76"/>
</a>
</g>
</g>
<!-- Node13&#45;&gt;Node3 -->
<g id="edge17_Node000013_Node000003" class="edge">
<title>Node13&#45;&gt;Node3</title>
<g id="a_edge17_Node000013_Node000003"><a xlink:title=" ">
<path fill="none" stroke="#63b8ff" d="M321.22,-328.18C334.84,-345.73 366.08,-382.79 401,-402.5 454.7,-432.81 525.09,-447.5 570.31,-454.25"/>
<polygon fill="#63b8ff" stroke="#63b8ff" points="570.01,-457.74 580.4,-455.69 570.99,-450.81 570.01,-457.74"/>
</a>
</g>
</g>
<!-- Node14 -->
<g id="Node000014" class="node">
<title>Node14</title>
<g id="a_Node000014"><a xlink:href="lexer__handlers_8c.html#a9cdc56179aaccddb64447a4d56698992" target="_top" xlink:title=" ">
<polygon fill="white" stroke="#666666" points="509,-142 405,-142 405,-123 509,-123 509,-142"/>
<text text-anchor="middle" x="457" y="-130" font-family="Helvetica,sans-Serif" font-size="10.00">handle_backslash</text>
</a>
</g>
</g>
<!-- Node13&#45;&gt;Node14 -->
<g id="edge18_Node000013_Node000014" class="edge">
<title>Node13&#45;&gt;Node14</title>
<g id="a_edge18_Node000013_Node000014"><a xlink:title=" ">
<path fill="none" stroke="#63b8ff" d="M319.55,-308.94C332.56,-286.83 366.55,-230.84 401,-188.5 412.35,-174.55 426.61,-160.1 437.77,-149.38"/>
<polygon fill="#63b8ff" stroke="#63b8ff" points="440.41,-151.7 445.26,-142.28 435.59,-146.62 440.41,-151.7"/>
</a>
</g>
</g>
<!-- Node15 -->
<g id="Node000015" class="node">
<title>Node15</title>
<g id="a_Node000015"><a xlink:href="lexer__handlers_8c.html#a8c5df02ee3ff790dc6256318b3dd132f" target="_top" xlink:title="Crée un token de type OPENING_BRACKET ou CLOSING_BRACKET si possible.">
<polygon fill="white" stroke="#666666" points="502.5,-328 411.5,-328 411.5,-309 502.5,-309 502.5,-328"/>
<text text-anchor="middle" x="457" y="-316" font-family="Helvetica,sans-Serif" font-size="10.00">handle_bracket</text>
</a>
</g>
</g>
<!-- Node13&#45;&gt;Node15 -->
<g id="edge20_Node000013_Node000015" class="edge">
<title>Node13&#45;&gt;Node15</title>
<g id="a_edge20_Node000013_Node000015"><a xlink:title=" ">
<path fill="none" stroke="#63b8ff" d="M365.27,-318.5C376.94,-318.5 389.39,-318.5 401.2,-318.5"/>
<polygon fill="#63b8ff" stroke="#63b8ff" points="401.39,-322 411.39,-318.5 401.39,-315 401.39,-322"/>
</a>
</g>
</g>
<!-- Node18 -->
<g id="Node000018" class="node">
<title>Node18</title>
<g id="a_Node000018"><a xlink:href="lexer__handlers_8c.html#a579ccaa49e18cca908ce2409b06b5825" target="_top" xlink:title=" ">
<polygon fill="white" stroke="#666666" points="506.5,-273 407.5,-273 407.5,-254 506.5,-254 506.5,-273"/>
<text text-anchor="middle" x="457" y="-261" font-family="Helvetica,sans-Serif" font-size="10.00">handle_delimiter</text>
</a>
</g>
</g>
<!-- Node13&#45;&gt;Node18 -->
<g id="edge25_Node000013_Node000018" class="edge">
<title>Node13&#45;&gt;Node18</title>
<g id="a_edge25_Node000013_Node000018"><a xlink:title=" ">
<path fill="none" stroke="#63b8ff" d="M338.73,-308.92C361.7,-300.02 396.12,-286.69 421.73,-276.77"/>
<polygon fill="#63b8ff" stroke="#63b8ff" points="423.01,-280.03 431.07,-273.16 420.48,-273.5 423.01,-280.03"/>
</a>
</g>
</g>
<!-- Node22 -->
<g id="Node000022" class="node">
<title>Node22</title>
<g id="a_Node000022"><a xlink:href="lexer__handlers_8c.html#a3122df83e320b8f4658097885f266c59" target="_top" xlink:title="Crée un token de type FUNCTION si possible.">
<polygon fill="white" stroke="#666666" points="513,-217 401,-217 401,-198 513,-198 513,-217"/>
<text text-anchor="middle" x="457" y="-205" font-family="Helvetica,sans-Serif" font-size="10.00">handle_parenthesis</text>
</a>
</g>
</g>
<!-- Node13&#45;&gt;Node22 -->
<g id="edge32_Node000013_Node000022" class="edge">
<title>Node13&#45;&gt;Node22</title>
<g id="a_edge32_Node000013_Node000022"><a xlink:title=" ">
<path fill="none" stroke="#63b8ff" d="M324.4,-308.99C340.4,-294.5 372.24,-266.3 401,-244.5 410.97,-236.94 422.39,-229.13 432.23,-222.64"/>
<polygon fill="#63b8ff" stroke="#63b8ff" points="434.27,-225.49 440.74,-217.11 430.45,-219.63 434.27,-225.49"/>
</a>
</g>
</g>
<!-- Node23 -->
<g id="Node000023" class="node">
<title>Node23</title>
<g id="a_Node000023"><a xlink:href="lexer_8c.html#a55722ded9ba13bad6ac777b3d0f13481" target="_top" xlink:title="Gestion des opérateurs.">
<polygon fill="white" stroke="#666666" points="501,-393 413,-393 413,-374 501,-374 501,-393"/>
<text text-anchor="middle" x="457" y="-381" font-family="Helvetica,sans-Serif" font-size="10.00">sub_switch_op</text>
</a>
</g>
</g>
<!-- Node13&#45;&gt;Node23 -->
<g id="edge34_Node000013_Node000023" class="edge">
<title>Node13&#45;&gt;Node23</title>
<g id="a_edge34_Node000013_Node000023"><a xlink:title=" ">
<path fill="none" stroke="#63b8ff" d="M334.95,-328.09C358.97,-339.08 398.53,-357.19 425.85,-369.7"/>
<polygon fill="#63b8ff" stroke="#63b8ff" points="424.41,-372.89 434.96,-373.87 427.33,-366.53 424.41,-372.89"/>
</a>
</g>
</g>
<!-- Node14&#45;&gt;Node8 -->
<g id="edge19_Node000014_Node000008" class="edge">
<title>Node14&#45;&gt;Node8</title>
<g id="a_edge19_Node000014_Node000008"><a xlink:title=" ">
<path fill="none" stroke="#63b8ff" d="M509,-123.63C558.91,-117.94 634.44,-117.71 684,-156.5 731.86,-193.96 743.09,-271.48 745.71,-308.27"/>
<polygon fill="#63b8ff" stroke="#63b8ff" points="742.24,-308.89 746.3,-318.68 749.23,-308.5 742.24,-308.89"/>
</a>
</g>
</g>
<!-- Node16 -->
<g id="Node000016" class="node">
<title>Node16</title>
<g id="a_Node000016"><a xlink:href="lexer__handlers_8c.html#af0bc509a05ea8f1f639745c3db1edff0" target="_top" xlink:title=" ">
<polygon fill="white" stroke="#666666" points="682,-356 551,-356 551,-337 682,-337 682,-356"/>
<text text-anchor="middle" x="616.5" y="-344" font-family="Helvetica,sans-Serif" font-size="10.00">handle_closing_bracket</text>
</a>
</g>
</g>
<!-- Node15&#45;&gt;Node16 -->
<g id="edge21_Node000015_Node000016" class="edge">
<title>Node15&#45;&gt;Node16</title>
<g id="a_edge21_Node000015_Node000016"><a xlink:title=" ">
<path fill="none" stroke="#63b8ff" d="M502.71,-326.45C518,-329.17 535.41,-332.26 551.9,-335.19"/>
<polygon fill="#63b8ff" stroke="#63b8ff" points="551.56,-338.69 562.02,-336.99 552.78,-331.8 551.56,-338.69"/>
</a>
</g>
</g>
<!-- Node17 -->
<g id="Node000017" class="node">
<title>Node17</title>
<g id="a_Node000017"><a xlink:href="lexer__handlers_8c.html#ac6741237800ed58a7ea25d1b02c4ada3" target="_top" xlink:title=" ">
<polygon fill="white" stroke="#666666" points="684,-319 549,-319 549,-300 684,-300 684,-319"/>
<text text-anchor="middle" x="616.5" y="-307" font-family="Helvetica,sans-Serif" font-size="10.00">handle_opening_bracket</text>
</a>
</g>
</g>
<!-- Node15&#45;&gt;Node17 -->
<g id="edge23_Node000015_Node000017" class="edge">
<title>Node15&#45;&gt;Node17</title>
<g id="a_edge23_Node000015_Node000017"><a xlink:title=" ">
<path fill="none" stroke="#63b8ff" d="M502.71,-315.95C513.94,-315.3 526.31,-314.6 538.61,-313.89"/>
<polygon fill="#63b8ff" stroke="#63b8ff" points="539.13,-317.37 548.91,-313.3 538.73,-310.38 539.13,-317.37"/>
</a>
</g>
</g>
<!-- Node16&#45;&gt;Node8 -->
<g id="edge22_Node000016_Node000008" class="edge">
<title>Node16&#45;&gt;Node8</title>
<g id="a_edge22_Node000016_Node000008"><a xlink:title=" ">
<path fill="none" stroke="#63b8ff" d="M682.38,-337.45C692.86,-335.98 703.33,-334.52 712.68,-333.22"/>
<polygon fill="#63b8ff" stroke="#63b8ff" points="713.28,-336.67 722.7,-331.82 712.32,-329.74 713.28,-336.67"/>
</a>
</g>
</g>
<!-- Node17&#45;&gt;Node8 -->
<g id="edge24_Node000017_Node000008" class="edge">
<title>Node17&#45;&gt;Node8</title>
<g id="a_edge24_Node000017_Node000008"><a xlink:title=" ">
<path fill="none" stroke="#63b8ff" d="M682.38,-319.06C692.86,-320.6 703.33,-322.14 712.68,-323.52"/>
<polygon fill="#63b8ff" stroke="#63b8ff" points="712.3,-327 722.7,-325 713.32,-320.08 712.3,-327"/>
</a>
</g>
</g>
<!-- Node19 -->
<g id="Node000019" class="node">
<title>Node19</title>
<g id="a_Node000019"><a xlink:href="lexer__handlers_8c.html#a2ed09a62089d61b6a2928dcbcc623e7f" target="_top" xlink:title=" ">
<polygon fill="white" stroke="#666666" points="657.5,-245 575.5,-245 575.5,-226 657.5,-226 657.5,-245"/>
<text text-anchor="middle" x="616.5" y="-233" font-family="Helvetica,sans-Serif" font-size="10.00">handle_blank</text>
</a>
</g>
</g>
<!-- Node18&#45;&gt;Node19 -->
<g id="edge26_Node000018_Node000019" class="edge">
<title>Node18&#45;&gt;Node19</title>
<g id="a_edge26_Node000018_Node000019"><a xlink:title=" ">
<path fill="none" stroke="#63b8ff" d="M506.54,-254.87C525.23,-251.55 546.61,-247.75 565.44,-244.4"/>
<polygon fill="#63b8ff" stroke="#63b8ff" points="566.09,-247.84 575.32,-242.64 564.86,-240.95 566.09,-247.84"/>
</a>
</g>
</g>
<!-- Node20 -->
<g id="Node000020" class="node">
<title>Node20</title>
<g id="a_Node000020"><a xlink:href="lexer__handlers_8c.html#aa69ff9b0e657615d22e4220657378e92" target="_top" xlink:title=" ">
<polygon fill="white" stroke="#666666" points="663,-208 570,-208 570,-189 663,-189 663,-208"/>
<text text-anchor="middle" x="616.5" y="-196" font-family="Helvetica,sans-Serif" font-size="10.00">handle_newline</text>
</a>
</g>
</g>
<!-- Node18&#45;&gt;Node20 -->
<g id="edge28_Node000018_Node000020" class="edge">
<title>Node18&#45;&gt;Node20</title>
<g id="a_edge28_Node000018_Node000020"><a xlink:title=" ">
<path fill="none" stroke="#63b8ff" d="M473.95,-253.93C491.75,-243.58 521.65,-227.12 549,-216.5 554.09,-214.52 559.47,-212.68 564.89,-210.99"/>
<polygon fill="#63b8ff" stroke="#63b8ff" points="566.03,-214.3 574.61,-208.1 564.03,-207.59 566.03,-214.3"/>
</a>
</g>
</g>
<!-- Node21 -->
<g id="Node000021" class="node">
<title>Node21</title>
<g id="a_Node000021"><a xlink:href="lexer__handlers_8c.html#afa8aa1a23dd8c155bcfb4145f2099aaf" target="_top" xlink:title=" ">
<polygon fill="white" stroke="#666666" points="669,-282 564,-282 564,-263 669,-263 669,-282"/>
<text text-anchor="middle" x="616.5" y="-270" font-family="Helvetica,sans-Serif" font-size="10.00">handle_semicolon</text>
</a>
</g>
</g>
<!-- Node18&#45;&gt;Node21 -->
<g id="edge30_Node000018_Node000021" class="edge">
<title>Node18&#45;&gt;Node21</title>
<g id="a_edge30_Node000018_Node000021"><a xlink:title=" ">
<path fill="none" stroke="#63b8ff" d="M506.54,-266.27C521.44,-267.13 538.05,-268.07 553.71,-268.97"/>
<polygon fill="#63b8ff" stroke="#63b8ff" points="553.66,-272.47 563.84,-269.55 554.06,-265.48 553.66,-272.47"/>
</a>
</g>
</g>
<!-- Node19&#45;&gt;Node8 -->
<g id="edge27_Node000019_Node000008" class="edge">
<title>Node19&#45;&gt;Node8</title>
<g id="a_edge27_Node000019_Node000008"><a xlink:title=" ">
<path fill="none" stroke="#63b8ff" d="M657.5,-242.1C666.67,-244.73 676.05,-248.4 684,-253.5 706.51,-267.94 725.02,-293.07 735.9,-310.23"/>
<polygon fill="#63b8ff" stroke="#63b8ff" points="732.95,-312.1 741.14,-318.82 738.92,-308.46 732.95,-312.1"/>
</a>
</g>
</g>
<!-- Node20&#45;&gt;Node8 -->
<g id="edge29_Node000020_Node000008" class="edge">
<title>Node20&#45;&gt;Node8</title>
<g id="a_edge29_Node000020_Node000008"><a xlink:title=" ">
<path fill="none" stroke="#63b8ff" d="M663.08,-205.62C670.57,-208.2 677.87,-211.71 684,-216.5 714.57,-240.38 732.48,-283.63 740.8,-308.82"/>
<polygon fill="#63b8ff" stroke="#63b8ff" points="737.56,-310.19 743.87,-318.7 744.25,-308.11 737.56,-310.19"/>
</a>
</g>
</g>
<!-- Node21&#45;&gt;Node8 -->
<g id="edge31_Node000021_Node000008" class="edge">
<title>Node21&#45;&gt;Node8</title>
<g id="a_edge31_Node000021_Node000008"><a xlink:title=" ">
<path fill="none" stroke="#63b8ff" d="M659.97,-282.07C668.09,-284.44 676.42,-287.25 684,-290.5 698.18,-296.58 712.98,-305.45 724.62,-313.09"/>
<polygon fill="#63b8ff" stroke="#63b8ff" points="722.95,-316.19 733.2,-318.88 726.87,-310.39 722.95,-316.19"/>
</a>
</g>
</g>
<!-- Node22&#45;&gt;Node8 -->
<g id="edge33_Node000022_Node000008" class="edge">
<title>Node22&#45;&gt;Node8</title>
<g id="a_edge33_Node000022_Node000008"><a xlink:title=" ">
<path fill="none" stroke="#63b8ff" d="M475.95,-197.93C516.75,-177.64 617.99,-135.61 684,-179.5 727.88,-208.68 741.02,-275.26 744.9,-308.65"/>
<polygon fill="#63b8ff" stroke="#63b8ff" points="741.45,-309.35 745.92,-318.96 748.42,-308.66 741.45,-309.35"/>
</a>
</g>
</g>
<!-- Node23&#45;&gt;Node3 -->
<g id="edge35_Node000023_Node000003" class="edge">
<title>Node23&#45;&gt;Node3</title>
<g id="a_edge35_Node000023_Node000003"><a xlink:title=" ">
<path fill="none" stroke="#63b8ff" d="M484.98,-393.09C494.22,-396.93 504.4,-401.81 513,-407.5 531.36,-419.64 529.8,-430.74 549,-441.5 555.68,-445.24 563.17,-448.23 570.65,-450.62"/>
<polygon fill="#63b8ff" stroke="#63b8ff" points="569.83,-454.03 580.41,-453.42 571.77,-447.3 569.83,-454.03"/>
</a>
</g>
</g>
<!-- Node23&#45;&gt;Node8 -->
<g id="edge36_Node000023_Node000008" class="edge">
<title>Node23&#45;&gt;Node8</title>
<g id="a_edge36_Node000023_Node000008"><a xlink:title=" ">
<path fill="none" stroke="#63b8ff" d="M501.17,-385.77C547.48,-386.9 622.65,-384.95 684,-365.5 698.8,-360.81 713.81,-352.08 725.42,-344.27"/>
<polygon fill="#63b8ff" stroke="#63b8ff" points="727.75,-346.91 733.92,-338.31 723.73,-341.18 727.75,-346.91"/>
</a>
</g>
</g>
<!-- Node24 -->
<g id="Node000024" class="node">
<title>Node24</title>
<g id="a_Node000024"><a xlink:href="lexer__handlers_8c.html#a1320ab2067e73a5de0d576175ad3d363" target="_top" xlink:title=" ">
<polygon fill="white" stroke="#666666" points="643.5,-432 589.5,-432 589.5,-413 643.5,-413 643.5,-432"/>
<text text-anchor="middle" x="616.5" y="-420" font-family="Helvetica,sans-Serif" font-size="10.00">new_op</text>
</a>
</g>
</g>
<!-- Node23&#45;&gt;Node24 -->
<g id="edge37_Node000023_Node000024" class="edge">
<title>Node23&#45;&gt;Node24</title>
<g id="a_edge37_Node000023_Node000024"><a xlink:title=" ">
<path fill="none" stroke="#63b8ff" d="M496.53,-393.04C521.82,-399.3 554.68,-407.44 579.46,-413.58"/>
<polygon fill="#63b8ff" stroke="#63b8ff" points="578.65,-416.98 589.2,-415.99 580.33,-410.19 578.65,-416.98"/>
</a>
</g>
</g>
<!-- Node24&#45;&gt;Node8 -->
<g id="edge38_Node000024_Node000008" class="edge">
<title>Node24&#45;&gt;Node8</title>
<g id="a_edge38_Node000024_Node000008"><a xlink:title=" ">
<path fill="none" stroke="#63b8ff" d="M643.53,-416.36C656.42,-412.53 671.8,-406.75 684,-398.5 704.76,-384.47 723.14,-362.03 734.5,-346.35"/>
<polygon fill="#63b8ff" stroke="#63b8ff" points="737.47,-348.21 740.34,-338.01 731.74,-344.19 737.47,-348.21"/>
</a>
</g>
</g>
<!-- Node25 -->
<g id="Node000025" class="node">
<title>Node25</title>
<g id="a_Node000025"><a xlink:href="lexer__utils_8c.html#ad3b801c5fcc7cb2d760cb161bf5038a0" target="_top" xlink:title=" ">
<polygon fill="white" stroke="#666666" points="775,-432 720,-432 720,-413 775,-413 775,-432"/>
<text text-anchor="middle" x="747.5" y="-420" font-family="Helvetica,sans-Serif" font-size="10.00">valid_io</text>
</a>
</g>
</g>
<!-- Node24&#45;&gt;Node25 -->
<g id="edge39_Node000024_Node000025" class="edge">
<title>Node24&#45;&gt;Node25</title>
<g id="a_edge39_Node000024_Node000025"><a xlink:title=" ">
<path fill="none" stroke="#63b8ff" d="M643.61,-422.5C662.63,-422.5 688.65,-422.5 709.77,-422.5"/>
<polygon fill="#63b8ff" stroke="#63b8ff" points="709.99,-426 719.99,-422.5 709.99,-419 709.99,-426"/>
</a>
</g>
</g>
<!-- Node26 -->
<g id="Node000026" class="node">
<title>Node26</title>
<g id="a_Node000026"><a xlink:href="lexer__utils_8c.html#a8fa30988b9ccc705850dfee0220bf34a" target="_top" xlink:title=" ">
<polygon fill="white" stroke="#666666" points="867,-432 811,-432 811,-413 867,-413 867,-432"/>
<text text-anchor="middle" x="839" y="-420" font-family="Helvetica,sans-Serif" font-size="10.00">all_digit</text>
</a>
</g>
</g>
<!-- Node25&#45;&gt;Node26 -->
<g id="edge40_Node000025_Node000026" class="edge">
<title>Node25&#45;&gt;Node26</title>
<g id="a_edge40_Node000025_Node000026"><a xlink:title=" ">
<path fill="none" stroke="#63b8ff" d="M775.35,-422.5C783.33,-422.5 792.22,-422.5 800.74,-422.5"/>
<polygon fill="#63b8ff" stroke="#63b8ff" points="800.86,-426 810.86,-422.5 800.86,-419 800.86,-426"/>
</a>
</g>
</g>
<!-- Node28 -->
<g id="Node000028" class="node">
<title>Node28</title>
<g id="a_Node000028"><a xlink:href="lexer__tokens_8c.html#ab8c1bbfef4c1716c7557658824823316" target="_top" xlink:title=" ">
<polygon fill="white" stroke="#666666" points="354.5,-19 271.5,-19 271.5,0 354.5,0 354.5,-19"/>
<text text-anchor="middle" x="313" y="-7" font-family="Helvetica,sans-Serif" font-size="10.00">verif_token_if</text>
</a>
</g>
</g>
<!-- Node27&#45;&gt;Node28 -->
<g id="edge42_Node000027_Node000028" class="edge">
<title>Node27&#45;&gt;Node28</title>
<g id="a_edge42_Node000027_Node000028"><a xlink:title=" ">
<path fill="none" stroke="#63b8ff" d="M221.79,-36.97C236.7,-32.43 254.72,-26.94 270.73,-22.07"/>
<polygon fill="#63b8ff" stroke="#63b8ff" points="271.85,-25.39 280.39,-19.12 269.81,-18.69 271.85,-25.39"/>
</a>
</g>
</g>
<!-- Node29 -->
<g id="Node000029" class="node">
<title>Node29</title>
<g id="a_Node000029"><a xlink:href="lexer__tokens_8c.html#a74242b2210e1f957abbecfde13ff30d4" target="_top" xlink:title=" ">
<polygon fill="white" stroke="#666666" points="362,-56 264,-56 264,-37 362,-37 362,-56"/>
<text text-anchor="middle" x="313" y="-44" font-family="Helvetica,sans-Serif" font-size="10.00">verif_token_loop</text>
</a>
</g>
</g>
<!-- Node27&#45;&gt;Node29 -->
<g id="edge43_Node000027_Node000029" class="edge">
<title>Node27&#45;&gt;Node29</title>
<g id="a_edge43_Node000027_Node000029"><a xlink:title=" ">
<path fill="none" stroke="#63b8ff" d="M225.32,-46.5C234.16,-46.5 243.92,-46.5 253.59,-46.5"/>
<polygon fill="#63b8ff" stroke="#63b8ff" points="253.6,-50 263.6,-46.5 253.6,-43 253.6,-50"/>
</a>
</g>
</g>
</g>
</svg>
