<?xml version="1.0" encoding="UTF-8" standalone="no"?>
<!DOCTYPE svg PUBLIC "-//W3C//DTD SVG 1.1//EN"
 "http://www.w3.org/Graphics/SVG/1.1/DTD/svg11.dtd">
<!-- Generated by graphviz version 2.43.0 (0)
 -->
<!-- Title: parser_redir_shell Pages: 1 -->
<svg width="1158pt" height="704pt"
 viewBox="0.00 0.00 1158.00 704.00" xmlns="http://www.w3.org/2000/svg" xmlns:xlink="http://www.w3.org/1999/xlink">
<g id="graph0" class="graph" transform="scale(1 1) rotate(0) translate(4 700)">
<title>parser_redir_shell</title>
<!-- Node1 -->
<g id="Node000001" class="node">
<title>Node1</title>
<g id="a_Node000001"><a xlink:title="Parse a redirection in a shell command context.">
<polygon fill="#999999" stroke="#666666" points="104,-583 0,-583 0,-564 104,-564 104,-583"/>
<text text-anchor="middle" x="52" y="-571" font-family="Helvetica,sans-Serif" font-size="10.00">parser_redir_shell</text>
</a>
</g>
</g>
<!-- Node2 -->
<g id="Node000002" class="node">
<title>Node2</title>
<g id="a_Node000002"><a xlink:href="parser__utils_8c.html#a850bf7ce4f8841d46020a022c0ab32fc" target="_top" xlink:title="Free a discarded token.">
<polygon fill="white" stroke="#666666" points="324,-684 240,-684 240,-665 324,-665 324,-684"/>
<text text-anchor="middle" x="282" y="-672" font-family="Helvetica,sans-Serif" font-size="10.00">discard_token</text>
</a>
</g>
</g>
<!-- Node1&#45;&gt;Node2 -->
<g id="edge1_Node000001_Node000002" class="edge">
<title>Node1&#45;&gt;Node2</title>
<g id="a_edge1_Node000001_Node000002"><a xlink:title=" ">
<path fill="none" stroke="#63b8ff" d="M66.64,-583.11C83.34,-594.57 112.77,-613.76 140,-626.5 171.32,-641.16 208.4,-653.6 236.67,-662.14"/>
<polygon fill="#63b8ff" stroke="#63b8ff" points="235.69,-665.5 246.28,-665 237.69,-658.79 235.69,-665.5"/>
</a>
</g>
</g>
<!-- Node4 -->
<g id="Node000004" class="node">
<title>Node4</title>
<g id="a_Node000004"><a xlink:href="redir_8c.html#a66e1b4443235f9dead4bef79426a867e" target="_top" xlink:title="Free redir struct.">
<polygon fill="white" stroke="#666666" points="204,-565 140,-565 140,-546 204,-546 204,-565"/>
<text text-anchor="middle" x="172" y="-553" font-family="Helvetica,sans-Serif" font-size="10.00">free_redir</text>
</a>
</g>
</g>
<!-- Node1&#45;&gt;Node4 -->
<g id="edge3_Node000001_Node000004" class="edge">
<title>Node1&#45;&gt;Node4</title>
<g id="a_edge3_Node000001_Node000004"><a xlink:title=" ">
<path fill="none" stroke="#63b8ff" d="M104.07,-565.71C112.75,-564.39 121.66,-563.03 130.04,-561.75"/>
<polygon fill="#63b8ff" stroke="#63b8ff" points="130.58,-565.21 139.94,-560.24 129.52,-558.29 130.58,-565.21"/>
</a>
</g>
</g>
<!-- Node5 -->
<g id="Node000005" class="node">
<title>Node5</title>
<g id="a_Node000005"><a xlink:href="redir_8c.html#aae807d41dfdf4158c698f5eb4cf7aa41" target="_top" xlink:title="Init redir struct.">
<polygon fill="white" stroke="#666666" points="202,-528 142,-528 142,-509 202,-509 202,-528"/>
<text text-anchor="middle" x="172" y="-516" font-family="Helvetica,sans-Serif" font-size="10.00">init_redir</text>
</a>
</g>
</g>
<!-- Node1&#45;&gt;Node5 -->
<g id="edge4_Node000001_Node000005" class="edge">
<title>Node1&#45;&gt;Node5</title>
<g id="a_edge4_Node000001_Node000005"><a xlink:title=" ">
<path fill="none" stroke="#63b8ff" d="M73.55,-563.92C92.22,-555.22 119.98,-542.28 141.1,-532.43"/>
<polygon fill="#63b8ff" stroke="#63b8ff" points="142.7,-535.55 150.29,-528.16 139.74,-529.21 142.7,-535.55"/>
</a>
</g>
</g>
<!-- Node6 -->
<g id="Node000006" class="node">
<title>Node6</title>
<g id="a_Node000006"><a xlink:href="parser__utils_8c.html#ad91e883ddb1e91cde4e34a0f00e009ce" target="_top" xlink:title=" ">
<polygon fill="white" stroke="#666666" points="198.5,-491 145.5,-491 145.5,-472 198.5,-472 198.5,-491"/>
<text text-anchor="middle" x="172" y="-479" font-family="Helvetica,sans-Serif" font-size="10.00">is_redir</text>
</a>
</g>
</g>
<!-- Node1&#45;&gt;Node6 -->
<g id="edge5_Node000001_Node000006" class="edge">
<title>Node1&#45;&gt;Node6</title>
<g id="a_edge5_Node000001_Node000006"><a xlink:title=" ">
<path fill="none" stroke="#63b8ff" d="M62.96,-563.99C78.65,-549.26 110.37,-520.45 140,-499.5 141.43,-498.49 142.93,-497.48 144.45,-496.49"/>
<polygon fill="#63b8ff" stroke="#63b8ff" points="146.59,-499.28 153.28,-491.06 142.93,-493.31 146.59,-499.28"/>
</a>
</g>
</g>
<!-- Node7 -->
<g id="Node000007" class="node">
<title>Node7</title>
<g id="a_Node000007"><a xlink:href="parser__utils_8c.html#a0f885603168edee811b2b6880a9bf598" target="_top" xlink:title="Peek on the lexer to see the current token.">
<polygon fill="white" stroke="#666666" points="302.5,-602 261.5,-602 261.5,-583 302.5,-583 302.5,-602"/>
<text text-anchor="middle" x="282" y="-590" font-family="Helvetica,sans-Serif" font-size="10.00">peek</text>
</a>
</g>
</g>
<!-- Node1&#45;&gt;Node7 -->
<g id="edge6_Node000001_Node000007" class="edge">
<title>Node1&#45;&gt;Node7</title>
<g id="a_edge6_Node000001_Node000007"><a xlink:title=" ">
<path fill="none" stroke="#63b8ff" d="M69.99,-583.17C87.06,-592.28 114.43,-605.29 140,-610.5 178.12,-618.27 222.76,-609.64 251.43,-601.87"/>
<polygon fill="#63b8ff" stroke="#63b8ff" points="252.58,-605.18 261.23,-599.08 250.66,-598.45 252.58,-605.18"/>
</a>
</g>
</g>
<!-- Node35 -->
<g id="Node000035" class="node">
<title>Node35</title>
<g id="a_Node000035"><a xlink:href="parser__utils_8c.html#a2231147ddff6c3f7ee8c218a9273465e" target="_top" xlink:title="Pop the current token from lex.">
<polygon fill="white" stroke="#666666" points="189.5,-602 154.5,-602 154.5,-583 189.5,-583 189.5,-602"/>
<text text-anchor="middle" x="172" y="-590" font-family="Helvetica,sans-Serif" font-size="10.00">pop</text>
</a>
</g>
</g>
<!-- Node1&#45;&gt;Node35 -->
<g id="edge50_Node000001_Node000035" class="edge">
<title>Node1&#45;&gt;Node35</title>
<g id="a_edge50_Node000001_Node000035"><a xlink:title=" ">
<path fill="none" stroke="#63b8ff" d="M104.07,-581.72C117.9,-583.95 132.32,-586.27 144.22,-588.19"/>
<polygon fill="#63b8ff" stroke="#63b8ff" points="143.92,-591.68 154.35,-589.82 145.03,-584.77 143.92,-591.68"/>
</a>
</g>
</g>
<!-- Node3 -->
<g id="Node000003" class="node">
<title>Node3</title>
<g id="a_Node000003"><a xlink:href="token_8c.html#a491cb915cd703d12b24d7c6adc0412cc" target="_top" xlink:title=" ">
<polygon fill="white" stroke="#666666" points="506.5,-696 438.5,-696 438.5,-677 506.5,-677 506.5,-696"/>
<text text-anchor="middle" x="472.5" y="-684" font-family="Helvetica,sans-Serif" font-size="10.00">free_token</text>
</a>
</g>
</g>
<!-- Node2&#45;&gt;Node3 -->
<g id="edge2_Node000002_Node000003" class="edge">
<title>Node2&#45;&gt;Node3</title>
<g id="a_edge2_Node000002_Node000003"><a xlink:title=" ">
<path fill="none" stroke="#63b8ff" d="M324.37,-677.13C355.14,-679.09 397.02,-681.76 428.23,-683.75"/>
<polygon fill="#63b8ff" stroke="#63b8ff" points="428.18,-687.25 438.38,-684.39 428.62,-680.26 428.18,-687.25"/>
</a>
</g>
</g>
<!-- Node8 -->
<g id="Node000008" class="node">
<title>Node8</title>
<g id="a_Node000008"><a xlink:href="lexer_8c.html#ab0a076d4847ef2557a4e8d2e0852092d" target="_top" xlink:title="Transforme le FILE en token.">
<polygon fill="white" stroke="#666666" points="401,-585 360,-585 360,-566 401,-566 401,-585"/>
<text text-anchor="middle" x="380.5" y="-573" font-family="Helvetica,sans-Serif" font-size="10.00">lexer</text>
</a>
</g>
</g>
<!-- Node7&#45;&gt;Node8 -->
<g id="edge7_Node000007_Node000008" class="edge">
<title>Node7&#45;&gt;Node8</title>
<g id="a_edge7_Node000007_Node000008"><a xlink:title=" ">
<path fill="none" stroke="#63b8ff" d="M302.53,-589.06C316.04,-586.68 334.28,-583.47 349.61,-580.76"/>
<polygon fill="#63b8ff" stroke="#63b8ff" points="350.43,-584.18 359.67,-578.99 349.21,-577.28 350.43,-584.18"/>
</a>
</g>
</g>
<!-- Node8&#45;&gt;Node3 -->
<g id="edge10_Node000008_Node000003" class="edge">
<title>Node8&#45;&gt;Node3</title>
<g id="a_edge10_Node000008_Node000003"><a xlink:title=" ">
<path fill="none" stroke="#63b8ff" d="M385.33,-585.22C392.87,-603.34 411.18,-642.68 437,-667.5 438.4,-668.85 439.92,-670.14 441.52,-671.35"/>
<polygon fill="#63b8ff" stroke="#63b8ff" points="439.6,-674.28 449.87,-676.87 443.46,-668.44 439.6,-674.28"/>
</a>
</g>
</g>
<!-- Node9 -->
<g id="Node000009" class="node">
<title>Node9</title>
<g id="a_Node000009"><a xlink:href="lexer__tokens_8c.html#ae59c383936dadf54742b836a5bd2a70b" target="_top" xlink:title=" ">
<polygon fill="white" stroke="#666666" points="935.5,-95 863.5,-95 863.5,-76 935.5,-76 935.5,-95"/>
<text text-anchor="middle" x="899.5" y="-83" font-family="Helvetica,sans-Serif" font-size="10.00">check_type</text>
</a>
</g>
</g>
<!-- Node8&#45;&gt;Node9 -->
<g id="edge8_Node000008_Node000009" class="edge">
<title>Node8&#45;&gt;Node9</title>
<g id="a_edge8_Node000008_Node000009"><a xlink:title=" ">
<path fill="none" stroke="#63b8ff" d="M382.86,-565.8C390.11,-517.65 428.2,-301.66 544,-179.5 626,-93 777.63,-82.74 853.21,-83.47"/>
<polygon fill="#63b8ff" stroke="#63b8ff" points="853.3,-86.98 863.36,-83.64 853.42,-79.98 853.3,-86.98"/>
</a>
</g>
</g>
<!-- Node10 -->
<g id="Node000010" class="node">
<title>Node10</title>
<g id="a_Node000010"><a xlink:href="lexer__tokens_8c.html#af41b4fb75a0f3ece50d1c55cf5ad55bd" target="_top" xlink:title=" ">
<polygon fill="white" stroke="#666666" points="506,-659 439,-659 439,-640 506,-640 506,-659"/>
<text text-anchor="middle" x="472.5" y="-647" font-family="Helvetica,sans-Serif" font-size="10.00">end_token</text>
</a>
</g>
</g>
<!-- Node8&#45;&gt;Node10 -->
<g id="edge9_Node000008_Node000010" class="edge">
<title>Node8&#45;&gt;Node10</title>
<g id="a_edge9_Node000008_Node000010"><a xlink:title=" ">
<path fill="none" stroke="#63b8ff" d="M389.83,-585.27C400.12,-596.97 418.53,-616.69 437,-630.5 438.87,-631.9 440.85,-633.26 442.89,-634.57"/>
<polygon fill="#63b8ff" stroke="#63b8ff" points="441.55,-637.85 451.93,-639.95 445.13,-631.83 441.55,-637.85"/>
</a>
</g>
</g>
<!-- Node11 -->
<g id="Node000011" class="node">
<title>Node11</title>
<g id="a_Node000011"><a xlink:href="token_8c.html#a4f0f028b792947862bc2364f30f3d3d2" target="_top" xlink:title="Init struct token.">
<polygon fill="white" stroke="#666666" points="505,-622 440,-622 440,-603 505,-603 505,-622"/>
<text text-anchor="middle" x="472.5" y="-610" font-family="Helvetica,sans-Serif" font-size="10.00">init_token</text>
</a>
</g>
</g>
<!-- Node8&#45;&gt;Node11 -->
<g id="edge11_Node000008_Node000011" class="edge">
<title>Node8&#45;&gt;Node11</title>
<g id="a_edge11_Node000008_Node000011"><a xlink:title=" ">
<path fill="none" stroke="#63b8ff" d="M401.03,-583.53C412.07,-588.07 426.16,-593.86 438.84,-599.07"/>
<polygon fill="#63b8ff" stroke="#63b8ff" points="437.6,-602.35 448.18,-602.91 440.26,-595.87 437.6,-602.35"/>
</a>
</g>
</g>
<!-- Node12 -->
<g id="Node000012" class="node">
<title>Node12</title>
<g id="a_Node000012"><a xlink:href="lexer__operators_8c.html#a274e606313b69e42745e7278ed244bc8" target="_top" xlink:title="Handle a possible operator.">
<polygon fill="white" stroke="#666666" points="633,-547 559,-547 559,-528 633,-528 633,-547"/>
<text text-anchor="middle" x="596" y="-535" font-family="Helvetica,sans-Serif" font-size="10.00">manage_op</text>
</a>
</g>
</g>
<!-- Node8&#45;&gt;Node12 -->
<g id="edge12_Node000008_Node000012" class="edge">
<title>Node8&#45;&gt;Node12</title>
<g id="a_edge12_Node000008_Node000012"><a xlink:title=" ">
<path fill="none" stroke="#63b8ff" d="M401.24,-567.61C411.72,-563.71 424.89,-559.27 437,-556.5 474.02,-548.04 516.84,-543.18 548.56,-540.5"/>
<polygon fill="#63b8ff" stroke="#63b8ff" points="549.17,-543.97 558.86,-539.68 548.61,-536.99 549.17,-543.97"/>
</a>
</g>
</g>
<!-- Node14 -->
<g id="Node000014" class="node">
<title>Node14</title>
<g id="a_Node000014"><a xlink:href="lexer__operators_8c.html#a0758cae1bae4276754a185e231ad4760" target="_top" xlink:title="Handle different redirections.">
<polygon fill="white" stroke="#666666" points="782,-509 698,-509 698,-490 782,-490 782,-509"/>
<text text-anchor="middle" x="740" y="-497" font-family="Helvetica,sans-Serif" font-size="10.00">manage_redir</text>
</a>
</g>
</g>
<!-- Node8&#45;&gt;Node14 -->
<g id="edge14_Node000008_Node000014" class="edge">
<title>Node8&#45;&gt;Node14</title>
<g id="a_edge14_Node000008_Node000014"><a xlink:title=" ">
<path fill="none" stroke="#63b8ff" d="M394.51,-565.77C405.35,-558.11 421.47,-547.71 437,-541.5 520.39,-508.13 625.92,-500.54 687.59,-499.22"/>
<polygon fill="#63b8ff" stroke="#63b8ff" points="687.91,-502.72 697.85,-499.05 687.79,-495.72 687.91,-502.72"/>
</a>
</g>
</g>
<!-- Node15 -->
<g id="Node000015" class="node">
<title>Node15</title>
<g id="a_Node000015"><a xlink:href="lexer_8c.html#a14a1affa5f1ee7d92339872bcd3cc602" target="_top" xlink:title="identique a la fonction lexer">
<polygon fill="white" stroke="#666666" points="508,-433 437,-433 437,-414 508,-414 508,-433"/>
<text text-anchor="middle" x="472.5" y="-421" font-family="Helvetica,sans-Serif" font-size="10.00">sub_switch</text>
</a>
</g>
</g>
<!-- Node8&#45;&gt;Node15 -->
<g id="edge16_Node000008_Node000015" class="edge">
<title>Node8&#45;&gt;Node15</title>
<g id="a_edge16_Node000008_Node000015"><a xlink:title=" ">
<path fill="none" stroke="#63b8ff" d="M387.13,-565.99C401.78,-541.25 441.27,-474.55 460.58,-441.94"/>
<polygon fill="#63b8ff" stroke="#63b8ff" points="463.79,-443.39 465.87,-433 457.77,-439.83 463.79,-443.39"/>
</a>
</g>
</g>
<!-- Node32 -->
<g id="Node000032" class="node">
<title>Node32</title>
<g id="a_Node000032"><a xlink:href="lexer__tokens_8c.html#a78b2b413e7059cf4c7579a83bf767d13" target="_top" xlink:title=" ">
<polygon fill="white" stroke="#666666" points="508,-585 437,-585 437,-566 508,-566 508,-585"/>
<text text-anchor="middle" x="472.5" y="-573" font-family="Helvetica,sans-Serif" font-size="10.00">verif_token</text>
</a>
</g>
</g>
<!-- Node8&#45;&gt;Node32 -->
<g id="edge47_Node000008_Node000032" class="edge">
<title>Node8&#45;&gt;Node32</title>
<g id="a_edge47_Node000008_Node000032"><a xlink:title=" ">
<path fill="none" stroke="#63b8ff" d="M401.03,-575.5C408.62,-575.5 417.64,-575.5 426.66,-575.5"/>
<polygon fill="#63b8ff" stroke="#63b8ff" points="426.77,-579 436.77,-575.5 426.77,-572 426.77,-579"/>
</a>
</g>
</g>
<!-- Node13 -->
<g id="Node000013" class="node">
<title>Node13</title>
<g id="a_Node000013"><a xlink:href="dot_8c.html#a36f9e0f75603ec6472a90c595e3bba79" target="_top" xlink:title="Concat path and string with &#39;/&#39; between.">
<polygon fill="white" stroke="#666666" points="1055,-301 1006,-301 1006,-282 1055,-282 1055,-301"/>
<text text-anchor="middle" x="1030.5" y="-289" font-family="Helvetica,sans-Serif" font-size="10.00">concat</text>
</a>
</g>
</g>
<!-- Node12&#45;&gt;Node13 -->
<g id="edge13_Node000012_Node000013" class="edge">
<title>Node12&#45;&gt;Node13</title>
<g id="a_edge13_Node000012_Node000013"><a xlink:title=" ">
<path fill="none" stroke="#63b8ff" d="M633.16,-546.68C705.52,-562.74 869.55,-587.11 967,-507.5 997.86,-482.29 1019.24,-359.94 1026.64,-311.4"/>
<polygon fill="#63b8ff" stroke="#63b8ff" points="1030.15,-311.64 1028.15,-301.24 1023.22,-310.62 1030.15,-311.64"/>
</a>
</g>
</g>
<!-- Node14&#45;&gt;Node13 -->
<g id="edge15_Node000014_Node000013" class="edge">
<title>Node14&#45;&gt;Node13</title>
<g id="a_edge15_Node000014_Node000013"><a xlink:title=" ">
<path fill="none" stroke="#63b8ff" d="M782.21,-507.32C831.66,-514.21 914.46,-517.52 967,-475.5 1018.1,-434.64 1027.64,-350.09 1029.27,-311.49"/>
<polygon fill="#63b8ff" stroke="#63b8ff" points="1032.78,-311.18 1029.56,-301.09 1025.78,-310.99 1032.78,-311.18"/>
</a>
</g>
</g>
<!-- Node15&#45;&gt;Node13 -->
<g id="edge17_Node000015_Node000013" class="edge">
<title>Node15&#45;&gt;Node13</title>
<g id="a_edge17_Node000015_Node000013"><a xlink:title=" ">
<path fill="none" stroke="#63b8ff" d="M505.15,-433.07C517.2,-436.32 531.13,-439.6 544,-441.5 637.01,-455.22 890.42,-488.05 967,-433.5 1007.64,-404.55 1022.19,-343.14 1027.13,-311.41"/>
<polygon fill="#63b8ff" stroke="#63b8ff" points="1030.64,-311.56 1028.54,-301.18 1023.71,-310.6 1030.64,-311.56"/>
</a>
</g>
</g>
<!-- Node16 -->
<g id="Node000016" class="node">
<title>Node16</title>
<g id="a_Node000016"><a xlink:href="lexer__handlers_8c.html#aaf817088d95d074a2d4e6bfce7799723" target="_top" xlink:title=" ">
<polygon fill="white" stroke="#666666" points="634,-433 558,-433 558,-414 634,-414 634,-433"/>
<text text-anchor="middle" x="596" y="-421" font-family="Helvetica,sans-Serif" font-size="10.00">handle_com</text>
</a>
</g>
</g>
<!-- Node15&#45;&gt;Node16 -->
<g id="edge18_Node000015_Node000016" class="edge">
<title>Node15&#45;&gt;Node16</title>
<g id="a_edge18_Node000015_Node000016"><a xlink:title=" ">
<path fill="none" stroke="#63b8ff" d="M508.32,-423.5C520.49,-423.5 534.37,-423.5 547.41,-423.5"/>
<polygon fill="#63b8ff" stroke="#63b8ff" points="547.63,-427 557.63,-423.5 547.63,-420 547.63,-427"/>
</a>
</g>
</g>
<!-- Node17 -->
<g id="Node000017" class="node">
<title>Node17</title>
<g id="a_Node000017"><a xlink:href="lexer__handlers_8c.html#aa76e470a78c6e91c7db6cce558b1a768" target="_top" xlink:title=" ">
<polygon fill="white" stroke="#666666" points="637.5,-395 554.5,-395 554.5,-376 637.5,-376 637.5,-395"/>
<text text-anchor="middle" x="596" y="-383" font-family="Helvetica,sans-Serif" font-size="10.00">handle_quote</text>
</a>
</g>
</g>
<!-- Node15&#45;&gt;Node17 -->
<g id="edge20_Node000015_Node000017" class="edge">
<title>Node15&#45;&gt;Node17</title>
<g id="a_edge20_Node000015_Node000017"><a xlink:title=" ">
<path fill="none" stroke="#63b8ff" d="M504.16,-413.91C519.41,-409.14 538.05,-403.31 554.47,-398.18"/>
<polygon fill="#63b8ff" stroke="#63b8ff" points="555.85,-401.41 564.35,-395.09 553.76,-394.73 555.85,-401.41"/>
</a>
</g>
</g>
<!-- Node18 -->
<g id="Node000018" class="node">
<title>Node18</title>
<g id="a_Node000018"><a xlink:href="lexer_8c.html#a65b9b0626e01e0653ddcae13e7c6a709" target="_top" xlink:title="Gestion des délimiteurs.">
<polygon fill="white" stroke="#666666" points="648,-208 544,-208 544,-189 648,-189 648,-208"/>
<text text-anchor="middle" x="596" y="-196" font-family="Helvetica,sans-Serif" font-size="10.00">sub_switch_delim</text>
</a>
</g>
</g>
<!-- Node15&#45;&gt;Node18 -->
<g id="edge22_Node000015_Node000018" class="edge">
<title>Node15&#45;&gt;Node18</title>
<g id="a_edge22_Node000015_Node000018"><a xlink:title=" ">
<path fill="none" stroke="#63b8ff" d="M478.72,-413.83C497.3,-379.43 560.39,-262.59 585.03,-216.96"/>
<polygon fill="#63b8ff" stroke="#63b8ff" points="588.13,-218.59 589.8,-208.13 581.97,-215.27 588.13,-218.59"/>
</a>
</g>
</g>
<!-- Node16&#45;&gt;Node13 -->
<g id="edge19_Node000016_Node000013" class="edge">
<title>Node16&#45;&gt;Node13</title>
<g id="a_edge19_Node000016_Node000013"><a xlink:title=" ">
<path fill="none" stroke="#63b8ff" d="M634.27,-431.48C705.09,-444.51 861.45,-462.81 967,-397.5 998.65,-377.92 1016.17,-335.89 1024.13,-311.05"/>
<polygon fill="#63b8ff" stroke="#63b8ff" points="1027.54,-311.85 1027.05,-301.27 1020.83,-309.85 1027.54,-311.85"/>
</a>
</g>
</g>
<!-- Node17&#45;&gt;Node13 -->
<g id="edge21_Node000017_Node000013" class="edge">
<title>Node17&#45;&gt;Node13</title>
<g id="a_edge21_Node000017_Node000013"><a xlink:title=" ">
<path fill="none" stroke="#63b8ff" d="M637.68,-393.28C708.75,-404.79 858.29,-419.59 967,-365.5 991.01,-353.55 1009.36,-327.78 1019.78,-310.03"/>
<polygon fill="#63b8ff" stroke="#63b8ff" points="1022.93,-311.58 1024.74,-301.14 1016.82,-308.17 1022.93,-311.58"/>
</a>
</g>
</g>
<!-- Node18&#45;&gt;Node9 -->
<g id="edge23_Node000018_Node000009" class="edge">
<title>Node18&#45;&gt;Node9</title>
<g id="a_edge23_Node000018_Node000009"><a xlink:title=" ">
<path fill="none" stroke="#63b8ff" d="M609.26,-188.83C625.49,-176.46 655.41,-155.13 684,-142.5 739.92,-117.81 808.91,-101.83 853.29,-93.25"/>
<polygon fill="#63b8ff" stroke="#63b8ff" points="854.02,-96.67 863.2,-91.38 852.72,-89.79 854.02,-96.67"/>
</a>
</g>
</g>
<!-- Node19 -->
<g id="Node000019" class="node">
<title>Node19</title>
<g id="a_Node000019"><a xlink:href="lexer__handlers_8c.html#a9cdc56179aaccddb64447a4d56698992" target="_top" xlink:title=" ">
<polygon fill="white" stroke="#666666" points="792,-171 688,-171 688,-152 792,-152 792,-171"/>
<text text-anchor="middle" x="740" y="-159" font-family="Helvetica,sans-Serif" font-size="10.00">handle_backslash</text>
</a>
</g>
</g>
<!-- Node18&#45;&gt;Node19 -->
<g id="edge24_Node000018_Node000019" class="edge">
<title>Node18&#45;&gt;Node19</title>
<g id="a_edge24_Node000018_Node000019"><a xlink:title=" ">
<path fill="none" stroke="#63b8ff" d="M633.57,-188.97C651.48,-184.3 673.26,-178.63 692.35,-173.65"/>
<polygon fill="#63b8ff" stroke="#63b8ff" points="693.27,-177.03 702.06,-171.12 691.5,-170.26 693.27,-177.03"/>
</a>
</g>
</g>
<!-- Node20 -->
<g id="Node000020" class="node">
<title>Node20</title>
<g id="a_Node000020"><a xlink:href="lexer__handlers_8c.html#a8c5df02ee3ff790dc6256318b3dd132f" target="_top" xlink:title="Crée un token de type OPENING_BRACKET ou CLOSING_BRACKET si possible.">
<polygon fill="white" stroke="#666666" points="785.5,-320 694.5,-320 694.5,-301 785.5,-301 785.5,-320"/>
<text text-anchor="middle" x="740" y="-308" font-family="Helvetica,sans-Serif" font-size="10.00">handle_bracket</text>
</a>
</g>
</g>
<!-- Node18&#45;&gt;Node20 -->
<g id="edge26_Node000018_Node000020" class="edge">
<title>Node18&#45;&gt;Node20</title>
<g id="a_edge26_Node000018_Node000020"><a xlink:title=" ">
<path fill="none" stroke="#63b8ff" d="M609.11,-208.05C633.52,-227.31 688.89,-270.98 718.85,-294.61"/>
<polygon fill="#63b8ff" stroke="#63b8ff" points="716.9,-297.53 726.92,-300.98 721.24,-292.03 716.9,-297.53"/>
</a>
</g>
</g>
<!-- Node23 -->
<g id="Node000023" class="node">
<title>Node23</title>
<g id="a_Node000023"><a xlink:href="lexer__handlers_8c.html#a579ccaa49e18cca908ce2409b06b5825" target="_top" xlink:title=" ">
<polygon fill="white" stroke="#666666" points="789.5,-246 690.5,-246 690.5,-227 789.5,-227 789.5,-246"/>
<text text-anchor="middle" x="740" y="-234" font-family="Helvetica,sans-Serif" font-size="10.00">handle_delimiter</text>
</a>
</g>
</g>
<!-- Node18&#45;&gt;Node23 -->
<g id="edge31_Node000018_Node000023" class="edge">
<title>Node18&#45;&gt;Node23</title>
<g id="a_edge31_Node000018_Node000023"><a xlink:title=" ">
<path fill="none" stroke="#63b8ff" d="M632.83,-208.09C651.16,-212.99 673.68,-219.02 693.25,-224.26"/>
<polygon fill="#63b8ff" stroke="#63b8ff" points="692.61,-227.71 703.18,-226.91 694.42,-220.95 692.61,-227.71"/>
</a>
</g>
</g>
<!-- Node27 -->
<g id="Node000027" class="node">
<title>Node27</title>
<g id="a_Node000027"><a xlink:href="lexer__handlers_8c.html#a3122df83e320b8f4658097885f266c59" target="_top" xlink:title="Crée un token de type FUNCTION si possible.">
<polygon fill="white" stroke="#666666" points="796,-208 684,-208 684,-189 796,-189 796,-208"/>
<text text-anchor="middle" x="740" y="-196" font-family="Helvetica,sans-Serif" font-size="10.00">handle_parenthesis</text>
</a>
</g>
</g>
<!-- Node18&#45;&gt;Node27 -->
<g id="edge38_Node000018_Node000027" class="edge">
<title>Node18&#45;&gt;Node27</title>
<g id="a_edge38_Node000018_Node000027"><a xlink:title=" ">
<path fill="none" stroke="#63b8ff" d="M648.27,-198.5C656.6,-198.5 665.33,-198.5 673.95,-198.5"/>
<polygon fill="#63b8ff" stroke="#63b8ff" points="673.97,-202 683.97,-198.5 673.97,-195 673.97,-202"/>
</a>
</g>
</g>
<!-- Node28 -->
<g id="Node000028" class="node">
<title>Node28</title>
<g id="a_Node000028"><a xlink:href="lexer_8c.html#a55722ded9ba13bad6ac777b3d0f13481" target="_top" xlink:title="Gestion des opérateurs.">
<polygon fill="white" stroke="#666666" points="784,-57 696,-57 696,-38 784,-38 784,-57"/>
<text text-anchor="middle" x="740" y="-45" font-family="Helvetica,sans-Serif" font-size="10.00">sub_switch_op</text>
</a>
</g>
</g>
<!-- Node18&#45;&gt;Node28 -->
<g id="edge40_Node000018_Node000028" class="edge">
<title>Node18&#45;&gt;Node28</title>
<g id="a_edge40_Node000018_Node000028"><a xlink:title=" ">
<path fill="none" stroke="#63b8ff" d="M606.32,-188.59C629.99,-163.42 692.7,-96.73 722.64,-64.89"/>
<polygon fill="#63b8ff" stroke="#63b8ff" points="725.53,-66.93 729.83,-57.25 720.43,-62.13 725.53,-66.93"/>
</a>
</g>
</g>
<!-- Node19&#45;&gt;Node13 -->
<g id="edge25_Node000019_Node000013" class="edge">
<title>Node19&#45;&gt;Node13</title>
<g id="a_edge25_Node000019_Node000013"><a xlink:title=" ">
<path fill="none" stroke="#63b8ff" d="M772.35,-151.96C818.81,-139.82 906.91,-124.65 967,-162.5 1005.47,-186.72 1020.86,-242.06 1026.52,-271.77"/>
<polygon fill="#63b8ff" stroke="#63b8ff" points="1023.1,-272.52 1028.24,-281.79 1030,-271.34 1023.1,-272.52"/>
</a>
</g>
</g>
<!-- Node21 -->
<g id="Node000021" class="node">
<title>Node21</title>
<g id="a_Node000021"><a xlink:href="lexer__handlers_8c.html#af0bc509a05ea8f1f639745c3db1edff0" target="_top" xlink:title=" ">
<polygon fill="white" stroke="#666666" points="965,-357 834,-357 834,-338 965,-338 965,-357"/>
<text text-anchor="middle" x="899.5" y="-345" font-family="Helvetica,sans-Serif" font-size="10.00">handle_closing_bracket</text>
</a>
</g>
</g>
<!-- Node20&#45;&gt;Node21 -->
<g id="edge27_Node000020_Node000021" class="edge">
<title>Node20&#45;&gt;Node21</title>
<g id="a_edge27_Node000020_Node000021"><a xlink:title=" ">
<path fill="none" stroke="#63b8ff" d="M781.56,-320.03C801.78,-324.78 826.44,-330.57 847.88,-335.61"/>
<polygon fill="#63b8ff" stroke="#63b8ff" points="847.27,-339.06 857.8,-337.94 848.87,-332.25 847.27,-339.06"/>
</a>
</g>
</g>
<!-- Node22 -->
<g id="Node000022" class="node">
<title>Node22</title>
<g id="a_Node000022"><a xlink:href="lexer__handlers_8c.html#ac6741237800ed58a7ea25d1b02c4ada3" target="_top" xlink:title=" ">
<polygon fill="white" stroke="#666666" points="967,-320 832,-320 832,-301 967,-301 967,-320"/>
<text text-anchor="middle" x="899.5" y="-308" font-family="Helvetica,sans-Serif" font-size="10.00">handle_opening_bracket</text>
</a>
</g>
</g>
<!-- Node20&#45;&gt;Node22 -->
<g id="edge29_Node000020_Node000022" class="edge">
<title>Node20&#45;&gt;Node22</title>
<g id="a_edge29_Node000020_Node000022"><a xlink:title=" ">
<path fill="none" stroke="#63b8ff" d="M785.71,-310.5C796.94,-310.5 809.31,-310.5 821.61,-310.5"/>
<polygon fill="#63b8ff" stroke="#63b8ff" points="821.91,-314 831.91,-310.5 821.91,-307 821.91,-314"/>
</a>
</g>
</g>
<!-- Node21&#45;&gt;Node13 -->
<g id="edge28_Node000021_Node000013" class="edge">
<title>Node21&#45;&gt;Node13</title>
<g id="a_edge28_Node000021_Node000013"><a xlink:title=" ">
<path fill="none" stroke="#63b8ff" d="M940.11,-337.98C949.11,-335.33 958.51,-332.15 967,-328.5 980.89,-322.52 995.49,-314.02 1007.07,-306.68"/>
<polygon fill="#63b8ff" stroke="#63b8ff" points="1009.17,-309.49 1015.65,-301.11 1005.36,-303.62 1009.17,-309.49"/>
</a>
</g>
</g>
<!-- Node22&#45;&gt;Node13 -->
<g id="edge30_Node000022_Node000013" class="edge">
<title>Node22&#45;&gt;Node13</title>
<g id="a_edge30_Node000022_Node000013"><a xlink:title=" ">
<path fill="none" stroke="#63b8ff" d="M965.38,-300.94C975.86,-299.4 986.33,-297.86 995.68,-296.48"/>
<polygon fill="#63b8ff" stroke="#63b8ff" points="996.32,-299.92 1005.7,-295 995.3,-293 996.32,-299.92"/>
</a>
</g>
</g>
<!-- Node24 -->
<g id="Node000024" class="node">
<title>Node24</title>
<g id="a_Node000024"><a xlink:href="lexer__handlers_8c.html#a2ed09a62089d61b6a2928dcbcc623e7f" target="_top" xlink:title=" ">
<polygon fill="white" stroke="#666666" points="940.5,-209 858.5,-209 858.5,-190 940.5,-190 940.5,-209"/>
<text text-anchor="middle" x="899.5" y="-197" font-family="Helvetica,sans-Serif" font-size="10.00">handle_blank</text>
</a>
</g>
</g>
<!-- Node23&#45;&gt;Node24 -->
<g id="edge32_Node000023_Node000024" class="edge">
<title>Node23&#45;&gt;Node24</title>
<g id="a_edge32_Node000023_Node000024"><a xlink:title=" ">
<path fill="none" stroke="#63b8ff" d="M781.56,-226.97C801.94,-222.18 826.82,-216.34 848.39,-211.27"/>
<polygon fill="#63b8ff" stroke="#63b8ff" points="849.42,-214.63 858.35,-208.93 847.81,-207.81 849.42,-214.63"/>
</a>
</g>
</g>
<!-- Node25 -->
<g id="Node000025" class="node">
<title>Node25</title>
<g id="a_Node000025"><a xlink:href="lexer__handlers_8c.html#aa69ff9b0e657615d22e4220657378e92" target="_top" xlink:title=" ">
<polygon fill="white" stroke="#666666" points="946,-283 853,-283 853,-264 946,-264 946,-283"/>
<text text-anchor="middle" x="899.5" y="-271" font-family="Helvetica,sans-Serif" font-size="10.00">handle_newline</text>
</a>
</g>
</g>
<!-- Node23&#45;&gt;Node25 -->
<g id="edge34_Node000023_Node000025" class="edge">
<title>Node23&#45;&gt;Node25</title>
<g id="a_edge34_Node000023_Node000025"><a xlink:title=" ">
<path fill="none" stroke="#63b8ff" d="M781.56,-246.03C801.78,-250.78 826.44,-256.57 847.88,-261.61"/>
<polygon fill="#63b8ff" stroke="#63b8ff" points="847.27,-265.06 857.8,-263.94 848.87,-258.25 847.27,-265.06"/>
</a>
</g>
</g>
<!-- Node26 -->
<g id="Node000026" class="node">
<title>Node26</title>
<g id="a_Node000026"><a xlink:href="lexer__handlers_8c.html#afa8aa1a23dd8c155bcfb4145f2099aaf" target="_top" xlink:title=" ">
<polygon fill="white" stroke="#666666" points="952,-246 847,-246 847,-227 952,-227 952,-246"/>
<text text-anchor="middle" x="899.5" y="-234" font-family="Helvetica,sans-Serif" font-size="10.00">handle_semicolon</text>
</a>
</g>
</g>
<!-- Node23&#45;&gt;Node26 -->
<g id="edge36_Node000023_Node000026" class="edge">
<title>Node23&#45;&gt;Node26</title>
<g id="a_edge36_Node000023_Node000026"><a xlink:title=" ">
<path fill="none" stroke="#63b8ff" d="M789.54,-236.5C804.44,-236.5 821.05,-236.5 836.71,-236.5"/>
<polygon fill="#63b8ff" stroke="#63b8ff" points="836.84,-240 846.84,-236.5 836.84,-233 836.84,-240"/>
</a>
</g>
</g>
<!-- Node24&#45;&gt;Node13 -->
<g id="edge33_Node000024_Node000013" class="edge">
<title>Node24&#45;&gt;Node13</title>
<g id="a_edge33_Node000024_Node000013"><a xlink:title=" ">
<path fill="none" stroke="#63b8ff" d="M940.83,-206.24C949.88,-208.86 959.13,-212.49 967,-217.5 989.18,-231.62 1007.57,-256.09 1018.54,-273"/>
<polygon fill="#63b8ff" stroke="#63b8ff" points="1015.85,-275.31 1024.11,-281.95 1021.8,-271.61 1015.85,-275.31"/>
</a>
</g>
</g>
<!-- Node25&#45;&gt;Node13 -->
<g id="edge35_Node000025_Node000013" class="edge">
<title>Node25&#45;&gt;Node13</title>
<g id="a_edge35_Node000025_Node000013"><a xlink:title=" ">
<path fill="none" stroke="#63b8ff" d="M946.34,-279.9C962.7,-282.18 980.81,-284.71 995.94,-286.82"/>
<polygon fill="#63b8ff" stroke="#63b8ff" points="995.5,-290.29 1005.88,-288.2 996.46,-283.36 995.5,-290.29"/>
</a>
</g>
</g>
<!-- Node26&#45;&gt;Node13 -->
<g id="edge37_Node000026_Node000013" class="edge">
<title>Node26&#45;&gt;Node13</title>
<g id="a_edge37_Node000026_Node000013"><a xlink:title=" ">
<path fill="none" stroke="#63b8ff" d="M942.59,-246.04C950.82,-248.42 959.29,-251.24 967,-254.5 980.93,-260.38 995.53,-268.87 1007.11,-276.24"/>
<polygon fill="#63b8ff" stroke="#63b8ff" points="1005.39,-279.3 1015.68,-281.83 1009.22,-273.44 1005.39,-279.3"/>
</a>
</g>
</g>
<!-- Node27&#45;&gt;Node13 -->
<g id="edge39_Node000027_Node000013" class="edge">
<title>Node27&#45;&gt;Node13</title>
<g id="a_edge39_Node000027_Node000013"><a xlink:title=" ">
<path fill="none" stroke="#63b8ff" d="M780.62,-188.92C796.49,-185.54 815.01,-182.16 832,-180.5 891.71,-174.65 915.2,-150.22 967,-180.5 1000.75,-200.23 1017.69,-245.63 1024.94,-271.85"/>
<polygon fill="#63b8ff" stroke="#63b8ff" points="1021.61,-272.95 1027.48,-281.78 1028.39,-271.22 1021.61,-272.95"/>
</a>
</g>
</g>
<!-- Node28&#45;&gt;Node9 -->
<g id="edge41_Node000028_Node000009" class="edge">
<title>Node28&#45;&gt;Node9</title>
<g id="a_edge41_Node000028_Node000009"><a xlink:title=" ">
<path fill="none" stroke="#63b8ff" d="M780.74,-57.09C802.89,-62.43 830.55,-69.1 853.49,-74.64"/>
<polygon fill="#63b8ff" stroke="#63b8ff" points="852.79,-78.07 863.33,-77.01 854.43,-71.27 852.79,-78.07"/>
</a>
</g>
</g>
<!-- Node28&#45;&gt;Node13 -->
<g id="edge42_Node000028_Node000013" class="edge">
<title>Node28&#45;&gt;Node13</title>
<g id="a_edge42_Node000028_Node000013"><a xlink:title=" ">
<path fill="none" stroke="#63b8ff" d="M783.37,-37.96C833.19,-29.4 915.61,-23.92 967,-66.5 999.08,-93.07 1019.93,-221.96 1026.91,-271.79"/>
<polygon fill="#63b8ff" stroke="#63b8ff" points="1023.47,-272.47 1028.28,-281.9 1030.4,-271.52 1023.47,-272.47"/>
</a>
</g>
</g>
<!-- Node29 -->
<g id="Node000029" class="node">
<title>Node29</title>
<g id="a_Node000029"><a xlink:href="lexer__handlers_8c.html#a1320ab2067e73a5de0d576175ad3d363" target="_top" xlink:title=" ">
<polygon fill="white" stroke="#666666" points="926.5,-19 872.5,-19 872.5,0 926.5,0 926.5,-19"/>
<text text-anchor="middle" x="899.5" y="-7" font-family="Helvetica,sans-Serif" font-size="10.00">new_op</text>
</a>
</g>
</g>
<!-- Node28&#45;&gt;Node29 -->
<g id="edge43_Node000028_Node000029" class="edge">
<title>Node28&#45;&gt;Node29</title>
<g id="a_edge43_Node000028_Node000029"><a xlink:title=" ">
<path fill="none" stroke="#63b8ff" d="M780.74,-37.91C805.78,-31.87 837.86,-24.13 862.21,-18.26"/>
<polygon fill="#63b8ff" stroke="#63b8ff" points="863.23,-21.61 872.13,-15.86 861.58,-14.81 863.23,-21.61"/>
</a>
</g>
</g>
<!-- Node29&#45;&gt;Node13 -->
<g id="edge44_Node000029_Node000013" class="edge">
<title>Node29&#45;&gt;Node13</title>
<g id="a_edge44_Node000029_Node000013"><a xlink:title=" ">
<path fill="none" stroke="#63b8ff" d="M926.54,-12.87C940.4,-15.99 956.67,-21.99 967,-33.5 999.1,-69.3 1020.39,-218.14 1027.17,-271.97"/>
<polygon fill="#63b8ff" stroke="#63b8ff" points="1023.7,-272.44 1028.4,-281.94 1030.65,-271.58 1023.7,-272.44"/>
</a>
</g>
</g>
<!-- Node30 -->
<g id="Node000030" class="node">
<title>Node30</title>
<g id="a_Node000030"><a xlink:href="lexer__utils_8c.html#ad3b801c5fcc7cb2d760cb161bf5038a0" target="_top" xlink:title=" ">
<polygon fill="white" stroke="#666666" points="1058,-19 1003,-19 1003,0 1058,0 1058,-19"/>
<text text-anchor="middle" x="1030.5" y="-7" font-family="Helvetica,sans-Serif" font-size="10.00">valid_io</text>
</a>
</g>
</g>
<!-- Node29&#45;&gt;Node30 -->
<g id="edge45_Node000029_Node000030" class="edge">
<title>Node29&#45;&gt;Node30</title>
<g id="a_edge45_Node000029_Node000030"><a xlink:title=" ">
<path fill="none" stroke="#63b8ff" d="M926.61,-9.5C945.63,-9.5 971.65,-9.5 992.77,-9.5"/>
<polygon fill="#63b8ff" stroke="#63b8ff" points="992.99,-13 1002.99,-9.5 992.99,-6 992.99,-13"/>
</a>
</g>
</g>
<!-- Node31 -->
<g id="Node000031" class="node">
<title>Node31</title>
<g id="a_Node000031"><a xlink:href="lexer__utils_8c.html#a8fa30988b9ccc705850dfee0220bf34a" target="_top" xlink:title=" ">
<polygon fill="white" stroke="#666666" points="1150,-19 1094,-19 1094,0 1150,0 1150,-19"/>
<text text-anchor="middle" x="1122" y="-7" font-family="Helvetica,sans-Serif" font-size="10.00">all_digit</text>
</a>
</g>
</g>
<!-- Node30&#45;&gt;Node31 -->
<g id="edge46_Node000030_Node000031" class="edge">
<title>Node30&#45;&gt;Node31</title>
<g id="a_edge46_Node000030_Node000031"><a xlink:title=" ">
<path fill="none" stroke="#63b8ff" d="M1058.35,-9.5C1066.33,-9.5 1075.22,-9.5 1083.74,-9.5"/>
<polygon fill="#63b8ff" stroke="#63b8ff" points="1083.86,-13 1093.86,-9.5 1083.86,-6 1083.86,-13"/>
</a>
</g>
</g>
<!-- Node33 -->
<g id="Node000033" class="node">
<title>Node33</title>
<g id="a_Node000033"><a xlink:href="lexer__tokens_8c.html#ab8c1bbfef4c1716c7557658824823316" target="_top" xlink:title=" ">
<polygon fill="white" stroke="#666666" points="637.5,-585 554.5,-585 554.5,-566 637.5,-566 637.5,-585"/>
<text text-anchor="middle" x="596" y="-573" font-family="Helvetica,sans-Serif" font-size="10.00">verif_token_if</text>
</a>
</g>
</g>
<!-- Node32&#45;&gt;Node33 -->
<g id="edge48_Node000032_Node000033" class="edge">
<title>Node32&#45;&gt;Node33</title>
<g id="a_edge48_Node000032_Node000033"><a xlink:title=" ">
<path fill="none" stroke="#63b8ff" d="M508.32,-575.5C519.38,-575.5 531.86,-575.5 543.83,-575.5"/>
<polygon fill="#63b8ff" stroke="#63b8ff" points="544.16,-579 554.16,-575.5 544.16,-572 544.16,-579"/>
</a>
</g>
</g>
<!-- Node34 -->
<g id="Node000034" class="node">
<title>Node34</title>
<g id="a_Node000034"><a xlink:href="lexer__tokens_8c.html#a74242b2210e1f957abbecfde13ff30d4" target="_top" xlink:title=" ">
<polygon fill="white" stroke="#666666" points="645,-622 547,-622 547,-603 645,-603 645,-622"/>
<text text-anchor="middle" x="596" y="-610" font-family="Helvetica,sans-Serif" font-size="10.00">verif_token_loop</text>
</a>
</g>
</g>
<!-- Node32&#45;&gt;Node34 -->
<g id="edge49_Node000032_Node000034" class="edge">
<title>Node32&#45;&gt;Node34</title>
<g id="a_edge49_Node000032_Node000034"><a xlink:title=" ">
<path fill="none" stroke="#63b8ff" d="M504.79,-585.03C519.7,-589.57 537.72,-595.06 553.73,-599.93"/>
<polygon fill="#63b8ff" stroke="#63b8ff" points="552.81,-603.31 563.39,-602.88 554.85,-596.61 552.81,-603.31"/>
</a>
</g>
</g>
<!-- Node35&#45;&gt;Node7 -->
<g id="edge51_Node000035_Node000007" class="edge">
<title>Node35&#45;&gt;Node7</title>
<g id="a_edge51_Node000035_Node000007"><a xlink:title=" ">
<path fill="none" stroke="#63b8ff" d="M189.88,-592.5C206.27,-592.5 231.51,-592.5 251.27,-592.5"/>
<polygon fill="#63b8ff" stroke="#63b8ff" points="251.32,-596 261.32,-592.5 251.32,-589 251.32,-596"/>
</a>
</g>
</g>
</g>
</svg>
