<?xml version="1.0" encoding="UTF-8" standalone="no"?>
<!DOCTYPE svg PUBLIC "-//W3C//DTD SVG 1.1//EN"
 "http://www.w3.org/Graphics/SVG/1.1/DTD/svg11.dtd">
<!-- Generated by graphviz version 2.43.0 (0)
 -->
<!-- Title: src/parser/parser_redirections.c Pages: 1 -->
<svg width="371pt" height="357pt"
 viewBox="0.00 0.00 371.04 357.00" xmlns="http://www.w3.org/2000/svg" xmlns:xlink="http://www.w3.org/1999/xlink">
<g id="graph0" class="graph" transform="scale(1 1) rotate(0) translate(4 353)">
<title>src/parser/parser_redirections.c</title>
<!-- Node1 -->
<g id="Node000001" class="node">
<title>Node1</title>
<g id="a_Node000001"><a xlink:title=" ">
<polygon fill="#999999" stroke="#666666" points="220.04,-349 50.04,-349 50.04,-330 220.04,-330 220.04,-349"/>
<text text-anchor="middle" x="135.04" y="-337" font-family="Helvetica,sans-Serif" font-size="10.00">src/parser/parser_redirections.c</text>
</a>
</g>
</g>
<!-- Node2 -->
<g id="Node000002" class="node">
<title>Node2</title>
<g id="a_Node000002"><a xlink:title=" ">
<polygon fill="#e0e0e0" stroke="#999999" points="76.54,-294 23.54,-294 23.54,-275 76.54,-275 76.54,-294"/>
<text text-anchor="middle" x="50.04" y="-282" font-family="Helvetica,sans-Serif" font-size="10.00">stdlib.h</text>
</a>
</g>
</g>
<!-- Node1&#45;&gt;Node2 -->
<g id="edge1_Node000001_Node000002" class="edge">
<title>Node1&#45;&gt;Node2</title>
<g id="a_edge1_Node000001_Node000002"><a xlink:title=" ">
<path fill="none" stroke="#63b8ff" d="M121.38,-329.98C108.2,-321.77 88.01,-309.18 72.47,-299.49"/>
<polygon fill="#63b8ff" stroke="#63b8ff" points="74.28,-296.49 63.95,-294.17 70.58,-302.43 74.28,-296.49"/>
</a>
</g>
</g>
<!-- Node3 -->
<g id="Node000003" class="node">
<title>Node3</title>
<g id="a_Node000003"><a xlink:href="redir_8h.html" target="_top" xlink:title=" ">
<polygon fill="white" stroke="#666666" points="363.04,-129 283.04,-129 283.04,-110 363.04,-110 363.04,-129"/>
<text text-anchor="middle" x="323.04" y="-117" font-family="Helvetica,sans-Serif" font-size="10.00">../utils/redir.h</text>
</a>
</g>
</g>
<!-- Node1&#45;&gt;Node3 -->
<g id="edge2_Node000001_Node000003" class="edge">
<title>Node1&#45;&gt;Node3</title>
<g id="a_edge2_Node000001_Node000003"><a xlink:title=" ">
<path fill="none" stroke="#63b8ff" d="M145.62,-329.75C155.85,-321.08 171.6,-307.23 184.04,-294 234.81,-239.99 287.63,-169.38 310.85,-137.46"/>
<polygon fill="#63b8ff" stroke="#63b8ff" points="313.81,-139.35 316.84,-129.2 308.14,-135.25 313.81,-139.35"/>
</a>
</g>
</g>
<!-- Node6 -->
<g id="Node000006" class="node">
<title>Node6</title>
<g id="a_Node000006"><a xlink:href="parser__aux_8h.html" target="_top" xlink:title=" ">
<polygon fill="white" stroke="#666666" points="175.04,-294 95.04,-294 95.04,-275 175.04,-275 175.04,-294"/>
<text text-anchor="middle" x="135.04" y="-282" font-family="Helvetica,sans-Serif" font-size="10.00">parser_aux.h</text>
</a>
</g>
</g>
<!-- Node1&#45;&gt;Node6 -->
<g id="edge5_Node000001_Node000006" class="edge">
<title>Node1&#45;&gt;Node6</title>
<g id="a_edge5_Node000001_Node000006"><a xlink:title=" ">
<path fill="none" stroke="#63b8ff" d="M135.04,-329.75C135.04,-322.8 135.04,-312.85 135.04,-304.13"/>
<polygon fill="#63b8ff" stroke="#63b8ff" points="138.54,-304.09 135.04,-294.09 131.54,-304.09 138.54,-304.09"/>
</a>
</g>
</g>
<!-- Node4 -->
<g id="Node000004" class="node">
<title>Node4</title>
<g id="a_Node000004"><a xlink:href="token_8h.html" target="_top" xlink:title=" ">
<polygon fill="white" stroke="#666666" points="279.54,-74 226.54,-74 226.54,-55 279.54,-55 279.54,-74"/>
<text text-anchor="middle" x="253.04" y="-62" font-family="Helvetica,sans-Serif" font-size="10.00">token.h</text>
</a>
</g>
</g>
<!-- Node3&#45;&gt;Node4 -->
<g id="edge3_Node000003_Node000004" class="edge">
<title>Node3&#45;&gt;Node4</title>
<g id="a_edge3_Node000003_Node000004"><a xlink:title=" ">
<path fill="none" stroke="#63b8ff" d="M311.79,-109.98C301.24,-102 285.24,-89.88 272.6,-80.31"/>
<polygon fill="#63b8ff" stroke="#63b8ff" points="274.58,-77.42 264.49,-74.17 270.35,-83 274.58,-77.42"/>
</a>
</g>
</g>
<!-- Node5 -->
<g id="Node000005" class="node">
<title>Node5</title>
<g id="a_Node000005"><a xlink:title=" ">
<polygon fill="#e0e0e0" stroke="#999999" points="81.04,-19 31.04,-19 31.04,0 81.04,0 81.04,-19"/>
<text text-anchor="middle" x="56.04" y="-7" font-family="Helvetica,sans-Serif" font-size="10.00">stdio.h</text>
</a>
</g>
</g>
<!-- Node4&#45;&gt;Node5 -->
<g id="edge4_Node000004_Node000005" class="edge">
<title>Node4&#45;&gt;Node5</title>
<g id="a_edge4_Node000004_Node000005"><a xlink:title=" ">
<path fill="none" stroke="#63b8ff" d="M226.47,-56.35C191.48,-46.94 129.84,-30.36 91.07,-19.92"/>
<polygon fill="#63b8ff" stroke="#63b8ff" points="91.82,-16.5 81.25,-17.28 90,-23.26 91.82,-16.5"/>
</a>
</g>
</g>
<!-- Node7 -->
<g id="Node000007" class="node">
<title>Node7</title>
<g id="a_Node000007"><a xlink:title=" ">
<polygon fill="#e0e0e0" stroke="#999999" points="200.04,-239 144.04,-239 144.04,-220 200.04,-220 200.04,-239"/>
<text text-anchor="middle" x="172.04" y="-227" font-family="Helvetica,sans-Serif" font-size="10.00">stddef.h</text>
</a>
</g>
</g>
<!-- Node6&#45;&gt;Node7 -->
<g id="edge6_Node000006_Node000007" class="edge">
<title>Node6&#45;&gt;Node7</title>
<g id="a_edge6_Node000006_Node000007"><a xlink:title=" ">
<path fill="none" stroke="#63b8ff" d="M141.15,-274.75C146.32,-267.34 153.89,-256.5 160.23,-247.41"/>
<polygon fill="#63b8ff" stroke="#63b8ff" points="163.19,-249.29 166.04,-239.09 157.45,-245.29 163.19,-249.29"/>
</a>
</g>
</g>
<!-- Node8 -->
<g id="Node000008" class="node">
<title>Node8</title>
<g id="a_Node000008"><a xlink:href="lexer_8h.html" target="_top" xlink:title=" ">
<polygon fill="white" stroke="#666666" points="98.54,-129 13.54,-129 13.54,-110 98.54,-110 98.54,-129"/>
<text text-anchor="middle" x="56.04" y="-117" font-family="Helvetica,sans-Serif" font-size="10.00">../lexer/lexer.h</text>
</a>
</g>
</g>
<!-- Node6&#45;&gt;Node8 -->
<g id="edge7_Node000006_Node000008" class="edge">
<title>Node6&#45;&gt;Node8</title>
<g id="a_edge7_Node000006_Node000008"><a xlink:title=" ">
<path fill="none" stroke="#63b8ff" d="M108.37,-274.89C91.68,-267.99 71.45,-256.53 61.04,-239 42.53,-207.83 47.12,-163.49 51.78,-138.84"/>
<polygon fill="#63b8ff" stroke="#63b8ff" points="55.22,-139.52 53.85,-129.01 48.37,-138.08 55.22,-139.52"/>
</a>
</g>
</g>
<!-- Node9 -->
<g id="Node000009" class="node">
<title>Node9</title>
<g id="a_Node000009"><a xlink:href="parser_8h.html" target="_top" xlink:title=" ">
<polygon fill="white" stroke="#666666" points="126.04,-239 70.04,-239 70.04,-220 126.04,-220 126.04,-239"/>
<text text-anchor="middle" x="98.04" y="-227" font-family="Helvetica,sans-Serif" font-size="10.00">parser.h</text>
</a>
</g>
</g>
<!-- Node6&#45;&gt;Node9 -->
<g id="edge10_Node000006_Node000009" class="edge">
<title>Node6&#45;&gt;Node9</title>
<g id="a_edge10_Node000006_Node000009"><a xlink:title=" ">
<path fill="none" stroke="#63b8ff" d="M128.93,-274.75C123.76,-267.34 116.19,-256.5 109.85,-247.41"/>
<polygon fill="#63b8ff" stroke="#63b8ff" points="112.63,-245.29 104.04,-239.09 106.89,-249.29 112.63,-245.29"/>
</a>
</g>
</g>
<!-- Node8&#45;&gt;Node4 -->
<g id="edge9_Node000008_Node000004" class="edge">
<title>Node8&#45;&gt;Node4</title>
<g id="a_edge9_Node000008_Node000004"><a xlink:title=" ">
<path fill="none" stroke="#63b8ff" d="M87.69,-109.98C122.89,-100.52 179.64,-85.25 216.64,-75.29"/>
<polygon fill="#63b8ff" stroke="#63b8ff" points="217.77,-78.61 226.52,-72.63 215.95,-71.85 217.77,-78.61"/>
</a>
</g>
</g>
<!-- Node8&#45;&gt;Node5 -->
<g id="edge8_Node000008_Node000005" class="edge">
<title>Node8&#45;&gt;Node5</title>
<g id="a_edge8_Node000008_Node000005"><a xlink:title=" ">
<path fill="none" stroke="#63b8ff" d="M56.04,-109.66C56.04,-92.17 56.04,-52.8 56.04,-29.27"/>
<polygon fill="#63b8ff" stroke="#63b8ff" points="59.54,-29.16 56.04,-19.16 52.54,-29.16 59.54,-29.16"/>
</a>
</g>
</g>
<!-- Node9&#45;&gt;Node5 -->
<g id="edge11_Node000009_Node000005" class="edge">
<title>Node9&#45;&gt;Node5</title>
<g id="a_edge11_Node000009_Node000005"><a xlink:title=" ">
<path fill="none" stroke="#63b8ff" d="M85.16,-219.96C63.51,-204.72 20.55,-170.51 4.04,-129 -10.75,-91.81 20.22,-49.01 40.43,-26.4"/>
<polygon fill="#63b8ff" stroke="#63b8ff" points="43.03,-28.74 47.28,-19.04 37.91,-23.97 43.03,-28.74"/>
</a>
</g>
</g>
<!-- Node10 -->
<g id="Node000010" class="node">
<title>Node10</title>
<g id="a_Node000010"><a xlink:href="ast_8h.html" target="_top" xlink:title=" ">
<polygon fill="white" stroke="#666666" points="233.04,-184 165.04,-184 165.04,-165 233.04,-165 233.04,-184"/>
<text text-anchor="middle" x="199.04" y="-172" font-family="Helvetica,sans-Serif" font-size="10.00">../ast/ast.h</text>
</a>
</g>
</g>
<!-- Node9&#45;&gt;Node10 -->
<g id="edge12_Node000009_Node000010" class="edge">
<title>Node9&#45;&gt;Node10</title>
<g id="a_edge12_Node000009_Node000010"><a xlink:title=" ">
<path fill="none" stroke="#63b8ff" d="M114.27,-219.98C130.22,-211.61 154.82,-198.7 173.42,-188.95"/>
<polygon fill="#63b8ff" stroke="#63b8ff" points="175.29,-191.92 182.52,-184.17 172.04,-185.72 175.29,-191.92"/>
</a>
</g>
</g>
<!-- Node10&#45;&gt;Node3 -->
<g id="edge15_Node000010_Node000003" class="edge">
<title>Node10&#45;&gt;Node3</title>
<g id="a_edge15_Node000010_Node000003"><a xlink:title=" ">
<path fill="none" stroke="#63b8ff" d="M218.96,-164.98C239.09,-156.38 270.42,-142.99 293.45,-133.15"/>
<polygon fill="#63b8ff" stroke="#63b8ff" points="294.94,-136.32 302.75,-129.17 292.18,-129.88 294.94,-136.32"/>
</a>
</g>
</g>
<!-- Node10&#45;&gt;Node4 -->
<g id="edge16_Node000010_Node000004" class="edge">
<title>Node10&#45;&gt;Node4</title>
<g id="a_edge16_Node000010_Node000004"><a xlink:title=" ">
<path fill="none" stroke="#63b8ff" d="M208.27,-164.81C216.67,-156.4 228.84,-142.92 236.04,-129 243.34,-114.89 247.73,-97.35 250.21,-84.28"/>
<polygon fill="#63b8ff" stroke="#63b8ff" points="253.71,-84.59 251.93,-74.14 246.81,-83.42 253.71,-84.59"/>
</a>
</g>
</g>
<!-- Node11 -->
<g id="Node000011" class="node">
<title>Node11</title>
<g id="a_Node000011"><a xlink:href="expand_8h.html" target="_top" xlink:title=" ">
<polygon fill="white" stroke="#666666" points="227.04,-129 117.04,-129 117.04,-110 227.04,-110 227.04,-129"/>
<text text-anchor="middle" x="172.04" y="-117" font-family="Helvetica,sans-Serif" font-size="10.00">../expand/expand.h</text>
</a>
</g>
</g>
<!-- Node10&#45;&gt;Node11 -->
<g id="edge13_Node000010_Node000011" class="edge">
<title>Node10&#45;&gt;Node11</title>
<g id="a_edge13_Node000010_Node000011"><a xlink:title=" ">
<path fill="none" stroke="#63b8ff" d="M194.58,-164.75C190.93,-157.57 185.63,-147.18 181.09,-138.27"/>
<polygon fill="#63b8ff" stroke="#63b8ff" points="184.07,-136.41 176.42,-129.09 177.84,-139.59 184.07,-136.41"/>
</a>
</g>
</g>
<!-- Node12 -->
<g id="Node000012" class="node">
<title>Node12</title>
<g id="a_Node000012"><a xlink:href="hashmap_8h.html" target="_top" xlink:title=" ">
<polygon fill="white" stroke="#666666" points="207.54,-74 136.54,-74 136.54,-55 207.54,-55 207.54,-74"/>
<text text-anchor="middle" x="172.04" y="-62" font-family="Helvetica,sans-Serif" font-size="10.00">hashmap.h</text>
</a>
</g>
</g>
<!-- Node11&#45;&gt;Node12 -->
<g id="edge14_Node000011_Node000012" class="edge">
<title>Node11&#45;&gt;Node12</title>
<g id="a_edge14_Node000011_Node000012"><a xlink:title=" ">
<path fill="none" stroke="#63b8ff" d="M172.04,-109.75C172.04,-102.8 172.04,-92.85 172.04,-84.13"/>
<polygon fill="#63b8ff" stroke="#63b8ff" points="175.54,-84.09 172.04,-74.09 168.54,-84.09 175.54,-84.09"/>
</a>
</g>
</g>
</g>
</svg>
