<?xml version="1.0" encoding="UTF-8" standalone="no"?>
<!DOCTYPE svg PUBLIC "-//W3C//DTD SVG 1.1//EN"
 "http://www.w3.org/Graphics/SVG/1.1/DTD/svg11.dtd">
<!-- Generated by graphviz version 2.43.0 (0)
 -->
<!-- Title: parser_pipeline Pages: 1 -->
<svg width="1695pt" height="602pt"
 viewBox="0.00 0.00 1695.00 601.50" xmlns="http://www.w3.org/2000/svg" xmlns:xlink="http://www.w3.org/1999/xlink">
<g id="graph0" class="graph" transform="scale(1 1) rotate(0) translate(4 597.5)">
<title>parser_pipeline</title>
<!-- Node1 -->
<g id="Node000001" class="node">
<title>Node1</title>
<g id="a_Node000001"><a xlink:title="Parse and_or blocks separated by &#39;|&#39; (pipes)">
<polygon fill="#999999" stroke="#666666" points="1687,-85.5 1595,-85.5 1595,-66.5 1687,-66.5 1687,-85.5"/>
<text text-anchor="middle" x="1641" y="-73.5" font-family="Helvetica,sans-Serif" font-size="10.00">parser_pipeline</text>
</a>
</g>
</g>
<!-- Node2 -->
<g id="Node000002" class="node">
<title>Node2</title>
<g id="a_Node000002"><a xlink:href="parser__pipelines_8c.html#a85ca4872d7efdb8b0cd643037ccd5763" target="_top" xlink:title="Parse and_or blocks separated by &#39;&amp;&amp;&#39; or &#39;||&#39;.">
<polygon fill="white" stroke="#666666" points="1559,-161.5 1473,-161.5 1473,-142.5 1559,-142.5 1559,-161.5"/>
<text text-anchor="middle" x="1516" y="-149.5" font-family="Helvetica,sans-Serif" font-size="10.00">parser_and_or</text>
</a>
</g>
</g>
<!-- Node1&#45;&gt;Node2 -->
<g id="edge1_Node000001_Node000002" class="edge">
<title>Node1&#45;&gt;Node2</title>
<g id="a_edge1_Node000001_Node000002"><a xlink:title=" ">
<path fill="none" stroke="#63b8ff" d="M1615.63,-91.06C1590.9,-106.34 1553.36,-129.53 1532.45,-142.45"/>
<polygon fill="#63b8ff" stroke="#63b8ff" points="1617.75,-93.86 1624.42,-85.63 1614.08,-87.9 1617.75,-93.86"/>
</a>
</g>
</g>
<!-- Node3 -->
<g id="Node000003" class="node">
<title>Node3</title>
<g id="a_Node000003"><a xlink:href="parser__lists_8c.html#aae7a5d6760b83c1a37b0369f82a20500" target="_top" xlink:title="Absorb a chain of and_or separeted by &#39;;&#39; or &#39; &#39;.">
<polygon fill="white" stroke="#666666" points="1437,-161.5 1313,-161.5 1313,-142.5 1437,-142.5 1437,-161.5"/>
<text text-anchor="middle" x="1375" y="-149.5" font-family="Helvetica,sans-Serif" font-size="10.00">parser_compound_list</text>
</a>
</g>
</g>
<!-- Node2&#45;&gt;Node3 -->
<g id="edge2_Node000002_Node000003" class="edge">
<title>Node2&#45;&gt;Node3</title>
<g id="a_edge2_Node000002_Node000003"><a xlink:title=" ">
<path fill="none" stroke="#63b8ff" d="M1462.9,-152C1454.5,-152 1445.75,-152 1437.17,-152"/>
<polygon fill="#63b8ff" stroke="#63b8ff" points="1462.92,-155.5 1472.92,-152 1462.92,-148.5 1462.92,-155.5"/>
</a>
</g>
</g>
<!-- Node14 -->
<g id="Node000014" class="node">
<title>Node14</title>
<g id="a_Node000014"><a xlink:href="parser__lists_8c.html#a7b9812922acfb4eba24e65d40bd99001" target="_top" xlink:title="Parse list block into sub and_or block(s) separated by semi&#45;colons.">
<polygon fill="white" stroke="#666666" points="1409,-255.5 1341,-255.5 1341,-236.5 1409,-236.5 1409,-255.5"/>
<text text-anchor="middle" x="1375" y="-243.5" font-family="Helvetica,sans-Serif" font-size="10.00">parser_list</text>
</a>
</g>
</g>
<!-- Node2&#45;&gt;Node14 -->
<g id="edge22_Node000002_Node000014" class="edge">
<title>Node2&#45;&gt;Node14</title>
<g id="a_edge22_Node000002_Node000014"><a xlink:title=" ">
<path fill="none" stroke="#63b8ff" d="M1492.28,-167.37C1463.34,-186.94 1414.2,-220.17 1390.13,-236.44"/>
<polygon fill="#63b8ff" stroke="#63b8ff" points="1494.58,-170.03 1500.91,-161.53 1490.66,-164.23 1494.58,-170.03"/>
</a>
</g>
</g>
<!-- Node4 -->
<g id="Node000004" class="node">
<title>Node4</title>
<g id="a_Node000004"><a xlink:href="parser__rules_8c.html#a799f84e24df3eff653f7c0696e348572" target="_top" xlink:title="Parse an elif block when called.">
<polygon fill="white" stroke="#666666" points="1259.5,-237.5 1191.5,-237.5 1191.5,-218.5 1259.5,-218.5 1259.5,-237.5"/>
<text text-anchor="middle" x="1225.5" y="-225.5" font-family="Helvetica,sans-Serif" font-size="10.00">parser_elif</text>
</a>
</g>
</g>
<!-- Node3&#45;&gt;Node4 -->
<g id="edge3_Node000003_Node000004" class="edge">
<title>Node3&#45;&gt;Node4</title>
<g id="a_edge3_Node000003_Node000004"><a xlink:title=" ">
<path fill="none" stroke="#63b8ff" d="M1347.75,-166.52C1328.33,-177.14 1301.18,-191.78 1277,-204 1267.3,-208.9 1256.42,-214.11 1247.25,-218.42"/>
<polygon fill="#63b8ff" stroke="#63b8ff" points="1349.53,-169.53 1356.61,-161.65 1346.16,-163.4 1349.53,-169.53"/>
</a>
</g>
</g>
<!-- Node5 -->
<g id="Node000005" class="node">
<title>Node5</title>
<g id="a_Node000005"><a xlink:href="parser__rules_8c.html#adf5258219dad4f79fdbc7786eb925699" target="_top" xlink:title="Define which parser to use depending on the context.">
<polygon fill="white" stroke="#666666" points="1130.5,-237.5 1020.5,-237.5 1020.5,-218.5 1130.5,-218.5 1130.5,-237.5"/>
<text text-anchor="middle" x="1075.5" y="-225.5" font-family="Helvetica,sans-Serif" font-size="10.00">parser_else_clause</text>
</a>
</g>
</g>
<!-- Node3&#45;&gt;Node5 -->
<g id="edge12_Node000003_Node000005" class="edge">
<title>Node3&#45;&gt;Node5</title>
<g id="a_edge12_Node000003_Node000005"><a xlink:title=" ">
<path fill="none" stroke="#63b8ff" d="M1326.81,-164.06C1267.8,-179.13 1168,-204.63 1113.96,-218.43"/>
<polygon fill="#63b8ff" stroke="#63b8ff" points="1327.8,-167.41 1336.62,-161.55 1326.07,-160.63 1327.8,-167.41"/>
</a>
</g>
</g>
<!-- Node6 -->
<g id="Node000006" class="node">
<title>Node6</title>
<g id="a_Node000006"><a xlink:href="parser__rules_8c.html#abf9e27d14e7a1c314285114bead78817" target="_top" xlink:title="Handle a &#39;if&#39; block by calling corresponding parser at each step.">
<polygon fill="white" stroke="#666666" points="973.5,-237.5 890.5,-237.5 890.5,-218.5 973.5,-218.5 973.5,-237.5"/>
<text text-anchor="middle" x="932" y="-225.5" font-family="Helvetica,sans-Serif" font-size="10.00">parser_rule_if</text>
</a>
</g>
</g>
<!-- Node3&#45;&gt;Node6 -->
<g id="edge17_Node000003_Node000006" class="edge">
<title>Node3&#45;&gt;Node6</title>
<g id="a_edge17_Node000003_Node000006"><a xlink:title=" ">
<path fill="none" stroke="#63b8ff" d="M1362.17,-170.03C1346.05,-192.75 1314.82,-230.68 1277,-246 1168.08,-290.12 1023.69,-255.9 962.46,-237.61"/>
<polygon fill="#63b8ff" stroke="#63b8ff" points="1365.18,-171.83 1367.95,-161.6 1359.4,-167.87 1365.18,-171.83"/>
</a>
</g>
</g>
<!-- Node10 -->
<g id="Node000010" class="node">
<title>Node10</title>
<g id="a_Node000010"><a xlink:href="parser__rules_8c.html#afb9701776de31af668314b48a0b54636" target="_top" xlink:title="Handle a command block enclosed in brackets.">
<polygon fill="white" stroke="#666666" points="1138,-172 1013,-172 1013,-142 1138,-142 1138,-172"/>
<text text-anchor="start" x="1021" y="-160" font-family="Helvetica,sans-Serif" font-size="10.00">parser_rule_command</text>
<text text-anchor="middle" x="1075.5" y="-149" font-family="Helvetica,sans-Serif" font-size="10.00">_block</text>
</a>
</g>
</g>
<!-- Node3&#45;&gt;Node10 -->
<g id="edge13_Node000003_Node000010" class="edge">
<title>Node3&#45;&gt;Node10</title>
<g id="a_edge13_Node000003_Node000010"><a xlink:title=" ">
<path fill="none" stroke="#63b8ff" d="M1302.6,-153.2C1252.45,-154.04 1186.06,-155.16 1138.21,-155.96"/>
<polygon fill="#63b8ff" stroke="#63b8ff" points="1302.78,-156.7 1312.72,-153.03 1302.66,-149.7 1302.78,-156.7"/>
</a>
</g>
</g>
<!-- Node11 -->
<g id="Node000011" class="node">
<title>Node11</title>
<g id="a_Node000011"><a xlink:href="parser__rules_8c.html#a55dc38591d3749d39ca3f38f8a2a26dd" target="_top" xlink:title="Handle a for block by calling corresponding parser at each step.">
<polygon fill="white" stroke="#666666" points="977,-123.5 887,-123.5 887,-104.5 977,-104.5 977,-123.5"/>
<text text-anchor="middle" x="932" y="-111.5" font-family="Helvetica,sans-Serif" font-size="10.00">parser_rule_for</text>
</a>
</g>
</g>
<!-- Node3&#45;&gt;Node11 -->
<g id="edge15_Node000003_Node000011" class="edge">
<title>Node3&#45;&gt;Node11</title>
<g id="a_edge15_Node000003_Node000011"><a xlink:title=" ">
<path fill="none" stroke="#63b8ff" d="M1302.62,-145.85C1210.61,-137.92 1053.43,-124.38 977.14,-117.8"/>
<polygon fill="#63b8ff" stroke="#63b8ff" points="1302.42,-149.34 1312.68,-146.72 1303.02,-142.37 1302.42,-149.34"/>
</a>
</g>
</g>
<!-- Node12 -->
<g id="Node000012" class="node">
<title>Node12</title>
<g id="a_Node000012"><a xlink:href="parser__rules_8c.html#abf1c3edda1bb73d8c86028687922ce95" target="_top" xlink:title="Handle a &#39;until&#39; block by calling corresponding parser at each step.">
<polygon fill="white" stroke="#666666" points="1124.5,-85.5 1026.5,-85.5 1026.5,-66.5 1124.5,-66.5 1124.5,-85.5"/>
<text text-anchor="middle" x="1075.5" y="-73.5" font-family="Helvetica,sans-Serif" font-size="10.00">parser_rule_until</text>
</a>
</g>
</g>
<!-- Node3&#45;&gt;Node12 -->
<g id="edge18_Node000003_Node000012" class="edge">
<title>Node3&#45;&gt;Node12</title>
<g id="a_edge18_Node000003_Node000012"><a xlink:title=" ">
<path fill="none" stroke="#63b8ff" d="M1351.76,-136.96C1332.76,-124.89 1304.25,-108.6 1277,-100 1226.52,-84.07 1165.83,-78.58 1124.54,-76.76"/>
<polygon fill="#63b8ff" stroke="#63b8ff" points="1349.99,-139.98 1360.28,-142.49 1353.8,-134.11 1349.99,-139.98"/>
</a>
</g>
</g>
<!-- Node13 -->
<g id="Node000013" class="node">
<title>Node13</title>
<g id="a_Node000013"><a xlink:href="parser__rules_8c.html#aa6719ad356821f03ad45b1ac0a57d3bd" target="_top" xlink:title="Handle a &#39;while&#39; block by calling corresponding parser at each step.">
<polygon fill="white" stroke="#666666" points="1277,-47.5 1174,-47.5 1174,-28.5 1277,-28.5 1277,-47.5"/>
<text text-anchor="middle" x="1225.5" y="-35.5" font-family="Helvetica,sans-Serif" font-size="10.00">parser_rule_while</text>
</a>
</g>
</g>
<!-- Node3&#45;&gt;Node13 -->
<g id="edge20_Node000003_Node000013" class="edge">
<title>Node3&#45;&gt;Node13</title>
<g id="a_edge20_Node000003_Node000013"><a xlink:title=" ">
<path fill="none" stroke="#63b8ff" d="M1358.53,-134.78C1340.4,-115.32 1308.78,-83.55 1277,-62 1268.8,-56.44 1259.12,-51.5 1250.44,-47.57"/>
<polygon fill="#63b8ff" stroke="#63b8ff" points="1356.1,-137.3 1365.44,-142.3 1361.26,-132.57 1356.1,-137.3"/>
</a>
</g>
</g>
<!-- Node4&#45;&gt;Node5 -->
<g id="edge4_Node000004_Node000005" class="edge">
<title>Node4&#45;&gt;Node5</title>
<g id="a_edge4_Node000004_Node000005"><a xlink:title=" ">
<path fill="none" stroke="#63b8ff" d="M1181.23,-221.8C1165.36,-221.2 1147.21,-221.09 1130.52,-221.47"/>
<polygon fill="#63b8ff" stroke="#63b8ff" points="1181.14,-225.3 1191.29,-222.26 1181.46,-218.3 1181.14,-225.3"/>
</a>
</g>
</g>
<!-- Node5&#45;&gt;Node4 -->
<g id="edge5_Node000005_Node000004" class="edge">
<title>Node5&#45;&gt;Node4</title>
<g id="a_edge5_Node000005_Node000004"><a xlink:title=" ">
<path fill="none" stroke="#63b8ff" d="M1140.68,-234.7C1158.13,-234.89 1176.32,-234.57 1191.29,-233.74"/>
<polygon fill="#63b8ff" stroke="#63b8ff" points="1140.57,-231.19 1130.52,-234.53 1140.46,-238.19 1140.57,-231.19"/>
</a>
</g>
</g>
<!-- Node5&#45;&gt;Node6 -->
<g id="edge6_Node000005_Node000006" class="edge">
<title>Node5&#45;&gt;Node6</title>
<g id="a_edge6_Node000005_Node000006"><a xlink:title=" ">
<path fill="none" stroke="#63b8ff" d="M1009.94,-228C997.63,-228 985.06,-228 973.75,-228"/>
<polygon fill="#63b8ff" stroke="#63b8ff" points="1010.2,-231.5 1020.2,-228 1010.2,-224.5 1010.2,-231.5"/>
</a>
</g>
</g>
<!-- Node7 -->
<g id="Node000007" class="node">
<title>Node7</title>
<g id="a_Node000007"><a xlink:href="parser__commands_8c.html#ad98fbb958a265134e775b69579e28835" target="_top" xlink:title="Handle a shell command block by calling corresponding parser at each step.">
<polygon fill="white" stroke="#666666" points="851,-104.5 721,-104.5 721,-85.5 851,-85.5 851,-104.5"/>
<text text-anchor="middle" x="786" y="-92.5" font-family="Helvetica,sans-Serif" font-size="10.00">parser_shell_command</text>
</a>
</g>
</g>
<!-- Node6&#45;&gt;Node7 -->
<g id="edge7_Node000006_Node000007" class="edge">
<title>Node6&#45;&gt;Node7</title>
<g id="a_edge7_Node000006_Node000007"><a xlink:title=" ">
<path fill="none" stroke="#63b8ff" d="M912.92,-211.3C882.53,-183.23 822.11,-127.43 797.65,-104.84"/>
<polygon fill="#63b8ff" stroke="#63b8ff" points="910.92,-214.22 920.64,-218.43 915.67,-209.08 910.92,-214.22"/>
</a>
</g>
</g>
<!-- Node8 -->
<g id="Node000008" class="node">
<title>Node8</title>
<g id="a_Node000008"><a xlink:href="parser__commands_8c.html#aa7191f56bd8e70874c5c381e52186807" target="_top" xlink:title="Parse a command which can be either a simple command or a shell command.">
<polygon fill="white" stroke="#666666" points="565,-66.5 464,-66.5 464,-47.5 565,-47.5 565,-66.5"/>
<text text-anchor="middle" x="514.5" y="-54.5" font-family="Helvetica,sans-Serif" font-size="10.00">parser_command</text>
</a>
</g>
</g>
<!-- Node7&#45;&gt;Node8 -->
<g id="edge8_Node000007_Node000008" class="edge">
<title>Node7&#45;&gt;Node8</title>
<g id="a_edge8_Node000007_Node000008"><a xlink:title=" ">
<path fill="none" stroke="#63b8ff" d="M728.68,-83.52C714.47,-80.84 699.2,-78.14 685,-76 644.89,-69.95 599.16,-64.93 565.32,-61.58"/>
<polygon fill="#63b8ff" stroke="#63b8ff" points="728.34,-87.02 738.82,-85.47 729.66,-80.15 728.34,-87.02"/>
</a>
</g>
</g>
<!-- Node9 -->
<g id="Node000009" class="node">
<title>Node9</title>
<g id="a_Node000009"><a xlink:href="parser__commands_8c.html#a14408e6904da17fc6899bba03f7a5f5a" target="_top" xlink:title="Handle a function definition and add it to the dictionnary.">
<polygon fill="white" stroke="#666666" points="685,-104.5 601,-104.5 601,-85.5 685,-85.5 685,-104.5"/>
<text text-anchor="middle" x="643" y="-92.5" font-family="Helvetica,sans-Serif" font-size="10.00">parser_fundef</text>
</a>
</g>
</g>
<!-- Node7&#45;&gt;Node9 -->
<g id="edge10_Node000007_Node000009" class="edge">
<title>Node7&#45;&gt;Node9</title>
<g id="a_edge10_Node000007_Node000009"><a xlink:title=" ">
<path fill="none" stroke="#63b8ff" d="M710.49,-95C701.81,-95 693.21,-95 685.21,-95"/>
<polygon fill="#63b8ff" stroke="#63b8ff" points="710.69,-98.5 720.69,-95 710.69,-91.5 710.69,-98.5"/>
</a>
</g>
</g>
<!-- Node8&#45;&gt;Node1 -->
<g id="edge9_Node000008_Node000001" class="edge">
<title>Node8&#45;&gt;Node1</title>
<g id="a_edge9_Node000008_Node000001"><a xlink:title=" ">
<path fill="none" stroke="#63b8ff" d="M551.9,-44.25C603.21,-27.45 700.04,0 785,0 1376,0 1376,0 1376,0 1470.91,0 1577.79,-45.92 1620.68,-66.37"/>
<polygon fill="#63b8ff" stroke="#63b8ff" points="550.65,-40.98 542.26,-47.46 552.86,-47.62 550.65,-40.98"/>
</a>
</g>
</g>
<!-- Node9&#45;&gt;Node8 -->
<g id="edge11_Node000009_Node000008" class="edge">
<title>Node9&#45;&gt;Node8</title>
<g id="a_edge11_Node000009_Node000008"><a xlink:title=" ">
<path fill="none" stroke="#63b8ff" d="M600.27,-82.46C583.06,-77.3 563.44,-71.4 547.41,-66.59"/>
<polygon fill="#63b8ff" stroke="#63b8ff" points="599.49,-85.89 610.08,-85.41 601.51,-79.18 599.49,-85.89"/>
</a>
</g>
</g>
<!-- Node10&#45;&gt;Node7 -->
<g id="edge14_Node000010_Node000007" class="edge">
<title>Node10&#45;&gt;Node7</title>
<g id="a_edge14_Node000010_Node000007"><a xlink:title=" ">
<path fill="none" stroke="#63b8ff" d="M1002.45,-151.17C967.29,-147.37 924.57,-141.33 887,-132 859.15,-125.08 828.37,-112.98 808.41,-104.5"/>
<polygon fill="#63b8ff" stroke="#63b8ff" points="1002.32,-154.67 1012.63,-152.23 1003.05,-147.71 1002.32,-154.67"/>
</a>
</g>
</g>
<!-- Node11&#45;&gt;Node7 -->
<g id="edge16_Node000011_Node000007" class="edge">
<title>Node11&#45;&gt;Node7</title>
<g id="a_edge16_Node000011_Node000007"><a xlink:title=" ">
<path fill="none" stroke="#63b8ff" d="M876.64,-106.83C868.3,-105.73 859.62,-104.58 851.08,-103.46"/>
<polygon fill="#63b8ff" stroke="#63b8ff" points="876.25,-110.31 886.62,-108.14 877.16,-103.37 876.25,-110.31"/>
</a>
</g>
</g>
<!-- Node12&#45;&gt;Node7 -->
<g id="edge19_Node000012_Node000007" class="edge">
<title>Node12&#45;&gt;Node7</title>
<g id="a_edge19_Node000012_Node000007"><a xlink:title=" ">
<path fill="none" stroke="#63b8ff" d="M1016.18,-79.85C968.31,-83.02 900.61,-87.49 851.21,-90.76"/>
<polygon fill="#63b8ff" stroke="#63b8ff" points="1016.63,-83.33 1026.38,-79.18 1016.17,-76.35 1016.63,-83.33"/>
</a>
</g>
</g>
<!-- Node13&#45;&gt;Node7 -->
<g id="edge21_Node000013_Node000007" class="edge">
<title>Node13&#45;&gt;Node7</title>
<g id="a_edge21_Node000013_Node000007"><a xlink:title=" ">
<path fill="none" stroke="#63b8ff" d="M1163.81,-42.21C1121.46,-45.45 1063.67,-50.47 1013,-57 952.23,-64.83 882.79,-76.99 837.1,-85.44"/>
<polygon fill="#63b8ff" stroke="#63b8ff" points="1164.25,-45.68 1173.96,-41.44 1163.72,-38.7 1164.25,-45.68"/>
</a>
</g>
</g>
<!-- Node15 -->
<g id="Node000015" class="node">
<title>Node15</title>
<g id="a_Node000015"><a xlink:href="parser_8c.html#a620dffcc9a167cdee6e67de1191e5277" target="_top" xlink:title="Parse the input of our shell into list.">
<polygon fill="white" stroke="#666666" points="1249,-313.5 1202,-313.5 1202,-294.5 1249,-294.5 1249,-313.5"/>
<text text-anchor="middle" x="1225.5" y="-301.5" font-family="Helvetica,sans-Serif" font-size="10.00">parser</text>
</a>
</g>
</g>
<!-- Node14&#45;&gt;Node15 -->
<g id="edge23_Node000014_Node000015" class="edge">
<title>Node14&#45;&gt;Node15</title>
<g id="a_edge23_Node000014_Node000015"><a xlink:title=" ">
<path fill="none" stroke="#63b8ff" d="M1340.3,-259.25C1312.49,-270.19 1273.78,-285.41 1249.44,-294.98"/>
<polygon fill="#63b8ff" stroke="#63b8ff" points="1341.62,-262.49 1349.64,-255.58 1339.06,-255.98 1341.62,-262.49"/>
</a>
</g>
</g>
<!-- Node16 -->
<g id="Node000016" class="node">
<title>Node16</title>
<g id="a_Node000016"><a xlink:href="42sh_8c.html#a3c04138a5bfe5d72780bb7e82a18e627" target="_top" xlink:title=" ">
<polygon fill="white" stroke="#666666" points="190,-222.5 149,-222.5 149,-203.5 190,-203.5 190,-222.5"/>
<text text-anchor="middle" x="169.5" y="-210.5" font-family="Helvetica,sans-Serif" font-size="10.00">main</text>
</a>
</g>
</g>
<!-- Node15&#45;&gt;Node16 -->
<g id="edge24_Node000015_Node000016" class="edge">
<title>Node15&#45;&gt;Node16</title>
<g id="a_edge24_Node000015_Node000016"><a xlink:title=" ">
<path fill="none" stroke="#63b8ff" d="M1191.48,-304C1137.45,-304 1026.74,-304 933,-304 933,-304 933,-304 387.5,-304 307.92,-304 298.13,-259.94 224,-231 212.95,-226.69 200.4,-222.43 190.23,-219.14"/>
<polygon fill="#63b8ff" stroke="#63b8ff" points="1191.82,-307.5 1201.82,-304 1191.82,-300.5 1191.82,-307.5"/>
</a>
</g>
</g>
<!-- Node17 -->
<g id="Node000017" class="node">
<title>Node17</title>
<g id="a_Node000017"><a xlink:href="dot_8c.html#a17477ee2b0f1b8b9306566c990d15b35" target="_top" xlink:title="Main loop of dot builtin.">
<polygon fill="white" stroke="#666666" points="1109.5,-396.5 1041.5,-396.5 1041.5,-377.5 1109.5,-377.5 1109.5,-396.5"/>
<text text-anchor="middle" x="1075.5" y="-384.5" font-family="Helvetica,sans-Serif" font-size="10.00">main_loop</text>
</a>
</g>
</g>
<!-- Node15&#45;&gt;Node17 -->
<g id="edge25_Node000015_Node000017" class="edge">
<title>Node15&#45;&gt;Node17</title>
<g id="a_edge25_Node000015_Node000017"><a xlink:title=" ">
<path fill="none" stroke="#63b8ff" d="M1198.44,-318.61C1168.3,-335.52 1119.51,-362.88 1093.74,-377.33"/>
<polygon fill="#63b8ff" stroke="#63b8ff" points="1200.51,-321.47 1207.52,-313.52 1197.09,-315.36 1200.51,-321.47"/>
</a>
</g>
</g>
<!-- Node18 -->
<g id="Node000018" class="node">
<title>Node18</title>
<g id="a_Node000018"><a xlink:href="dot_8c.html#a713938d3c6ee343132c429642048bcf6" target="_top" xlink:title="Execute the dot builtin cmd.">
<polygon fill="white" stroke="#666666" points="954,-434.5 910,-434.5 910,-415.5 954,-415.5 954,-434.5"/>
<text text-anchor="middle" x="932" y="-422.5" font-family="Helvetica,sans-Serif" font-size="10.00">dot_b</text>
</a>
</g>
</g>
<!-- Node17&#45;&gt;Node18 -->
<g id="edge26_Node000017_Node000018" class="edge">
<title>Node17&#45;&gt;Node18</title>
<g id="a_edge26_Node000017_Node000018"><a xlink:title=" ">
<path fill="none" stroke="#63b8ff" d="M1031.46,-398.56C1005.84,-405.44 974.46,-413.87 954.11,-419.33"/>
<polygon fill="#63b8ff" stroke="#63b8ff" points="1032.57,-401.88 1041.32,-395.91 1030.76,-395.12 1032.57,-401.88"/>
</a>
</g>
</g>
<!-- Node19 -->
<g id="Node000019" class="node">
<title>Node19</title>
<g id="a_Node000019"><a xlink:href="exec_8c.html#abaeb177587c7eec6a064b35bb8399cae" target="_top" xlink:title="Execute builtin cmd with given args.">
<polygon fill="white" stroke="#666666" points="823.5,-434.5 748.5,-434.5 748.5,-415.5 823.5,-415.5 823.5,-434.5"/>
<text text-anchor="middle" x="786" y="-422.5" font-family="Helvetica,sans-Serif" font-size="10.00">exec_builtin</text>
</a>
</g>
</g>
<!-- Node18&#45;&gt;Node19 -->
<g id="edge27_Node000018_Node000019" class="edge">
<title>Node18&#45;&gt;Node19</title>
<g id="a_edge27_Node000018_Node000019"><a xlink:title=" ">
<path fill="none" stroke="#63b8ff" d="M899.47,-425C877.14,-425 847.12,-425 823.71,-425"/>
<polygon fill="#63b8ff" stroke="#63b8ff" points="899.75,-428.5 909.75,-425 899.75,-421.5 899.75,-428.5"/>
</a>
</g>
</g>
<!-- Node20 -->
<g id="Node000020" class="node">
<title>Node20</title>
<g id="a_Node000020"><a xlink:href="exec_8c.html#a287d81b4658832f192750310e2925917" target="_top" xlink:title="Execute the builtin command with given args.">
<polygon fill="white" stroke="#666666" points="668,-434.5 618,-434.5 618,-415.5 668,-415.5 668,-434.5"/>
<text text-anchor="middle" x="643" y="-422.5" font-family="Helvetica,sans-Serif" font-size="10.00">exec_b</text>
</a>
</g>
</g>
<!-- Node19&#45;&gt;Node20 -->
<g id="edge28_Node000019_Node000020" class="edge">
<title>Node19&#45;&gt;Node20</title>
<g id="a_edge28_Node000019_Node000020"><a xlink:title=" ">
<path fill="none" stroke="#63b8ff" d="M738.2,-425C714.72,-425 687.28,-425 668.09,-425"/>
<polygon fill="#63b8ff" stroke="#63b8ff" points="738.32,-428.5 748.32,-425 738.32,-421.5 738.32,-428.5"/>
</a>
</g>
</g>
<!-- Node21 -->
<g id="Node000021" class="node">
<title>Node21</title>
<g id="a_Node000021"><a xlink:href="exec_8c.html#ae65edaa99b26b49d60c451157d38b34a" target="_top" xlink:title="Execute les commandes avec les args donnes.">
<polygon fill="white" stroke="#666666" points="547,-434.5 482,-434.5 482,-415.5 547,-415.5 547,-434.5"/>
<text text-anchor="middle" x="514.5" y="-422.5" font-family="Helvetica,sans-Serif" font-size="10.00">exec_cmd</text>
</a>
</g>
</g>
<!-- Node20&#45;&gt;Node21 -->
<g id="edge29_Node000020_Node000021" class="edge">
<title>Node20&#45;&gt;Node21</title>
<g id="a_edge29_Node000020_Node000021"><a xlink:title=" ">
<path fill="none" stroke="#63b8ff" d="M607.66,-425C588.8,-425 565.58,-425 547.16,-425"/>
<polygon fill="#63b8ff" stroke="#63b8ff" points="607.91,-428.5 617.91,-425 607.91,-421.5 607.91,-428.5"/>
</a>
</g>
</g>
<!-- Node22 -->
<g id="Node000022" class="node">
<title>Node22</title>
<g id="a_Node000022"><a xlink:href="ast__run_8c.html#aeb6878a59c6907e5669fc3cc428913d9" target="_top" xlink:title=" ">
<polygon fill="white" stroke="#666666" points="428,-434.5 349,-434.5 349,-415.5 428,-415.5 428,-434.5"/>
<text text-anchor="middle" x="388.5" y="-422.5" font-family="Helvetica,sans-Serif" font-size="10.00">ast_run_cmd</text>
</a>
</g>
</g>
<!-- Node21&#45;&gt;Node22 -->
<g id="edge30_Node000021_Node000022" class="edge">
<title>Node21&#45;&gt;Node22</title>
<g id="a_edge30_Node000021_Node000022"><a xlink:title=" ">
<path fill="none" stroke="#63b8ff" d="M471.51,-425C457.48,-425 441.91,-425 428.14,-425"/>
<polygon fill="#63b8ff" stroke="#63b8ff" points="471.89,-428.5 481.89,-425 471.89,-421.5 471.89,-428.5"/>
</a>
</g>
</g>
<!-- Node23 -->
<g id="Node000023" class="node">
<title>Node23</title>
<g id="a_Node000023"><a xlink:href="ast_8c.html#a572345b2707780bbbc5bbaacdca9c372" target="_top" xlink:title=" ">
<polygon fill="white" stroke="#666666" points="313,-415.5 260,-415.5 260,-396.5 313,-396.5 313,-415.5"/>
<text text-anchor="middle" x="286.5" y="-403.5" font-family="Helvetica,sans-Serif" font-size="10.00">run_ast</text>
</a>
</g>
</g>
<!-- Node22&#45;&gt;Node23 -->
<g id="edge31_Node000022_Node000023" class="edge">
<title>Node22&#45;&gt;Node23</title>
<g id="a_edge31_Node000022_Node000023"><a xlink:title=" ">
<path fill="none" stroke="#63b8ff" d="M338.86,-415.76C329.95,-414.07 320.99,-412.36 313.1,-410.86"/>
<polygon fill="#63b8ff" stroke="#63b8ff" points="338.36,-419.23 348.84,-417.65 339.67,-412.35 338.36,-419.23"/>
</a>
</g>
</g>
<!-- Node23&#45;&gt;Node16 -->
<g id="edge51_Node000023_Node000016" class="edge">
<title>Node23&#45;&gt;Node16</title>
<g id="a_edge51_Node000023_Node000016"><a xlink:title=" ">
<path fill="none" stroke="#63b8ff" d="M279.79,-386.79C266.85,-343.73 235.52,-242.36 224,-231 214.93,-222.05 201.28,-217.55 190.03,-215.29"/>
<polygon fill="#63b8ff" stroke="#63b8ff" points="276.44,-387.81 282.66,-396.39 283.15,-385.81 276.44,-387.81"/>
</a>
</g>
</g>
<!-- Node23&#45;&gt;Node17 -->
<g id="edge52_Node000023_Node000017" class="edge">
<title>Node23&#45;&gt;Node17</title>
<g id="a_edge52_Node000023_Node000017"><a xlink:title=" ">
<path fill="none" stroke="#63b8ff" d="M323.22,-401.13C367.7,-395.5 446.06,-387 513.5,-387 787,-387 787,-387 787,-387 879.09,-387 987.77,-387 1041.3,-387"/>
<polygon fill="#63b8ff" stroke="#63b8ff" points="322.67,-397.68 313.2,-402.43 323.57,-404.62 322.67,-397.68"/>
</a>
</g>
</g>
<!-- Node24 -->
<g id="Node000024" class="node">
<title>Node24</title>
<g id="a_Node000024"><a xlink:href="ast__run_8c.html#a8a01fec616135007fc5b3968a101901b" target="_top" xlink:title=" ">
<polygon fill="white" stroke="#666666" points="215,-517.5 124,-517.5 124,-498.5 215,-498.5 215,-517.5"/>
<text text-anchor="middle" x="169.5" y="-505.5" font-family="Helvetica,sans-Serif" font-size="10.00">ast_run_and_or</text>
</a>
</g>
</g>
<!-- Node23&#45;&gt;Node24 -->
<g id="edge32_Node000023_Node000024" class="edge">
<title>Node23&#45;&gt;Node24</title>
<g id="a_edge32_Node000023_Node000024"><a xlink:title=" ">
<path fill="none" stroke="#63b8ff" d="M269.68,-423.96C255.52,-443.59 235.32,-472.72 224,-481 212.3,-489.56 196.24,-494.24 184.78,-498.4"/>
<polygon fill="#63b8ff" stroke="#63b8ff" points="272.63,-425.85 275.7,-415.71 266.97,-421.72 272.63,-425.85"/>
</a>
</g>
</g>
<!-- Node25 -->
<g id="Node000025" class="node">
<title>Node25</title>
<g id="a_Node000025"><a xlink:href="ast__run_8c.html#a9d83d4834a61ffe21eb77838d70ae173" target="_top" xlink:title=" ">
<polygon fill="white" stroke="#666666" points="205,-480.5 134,-480.5 134,-461.5 205,-461.5 205,-480.5"/>
<text text-anchor="middle" x="169.5" y="-468.5" font-family="Helvetica,sans-Serif" font-size="10.00">ast_run_for</text>
</a>
</g>
</g>
<!-- Node23&#45;&gt;Node25 -->
<g id="edge34_Node000023_Node000025" class="edge">
<title>Node23&#45;&gt;Node25</title>
<g id="a_edge34_Node000023_Node000025"><a xlink:title=" ">
<path fill="none" stroke="#63b8ff" d="M258.04,-421.6C247.85,-429.14 235.87,-437.69 224,-444 210.33,-451.27 193.15,-456.42 182.01,-461.42"/>
<polygon fill="#63b8ff" stroke="#63b8ff" points="260.21,-424.35 266.14,-415.57 256.03,-418.73 260.21,-424.35"/>
</a>
</g>
</g>
<!-- Node26 -->
<g id="Node000026" class="node">
<title>Node26</title>
<g id="a_Node000026"><a xlink:href="ast__run_8c.html#a0a7138b1f2608ea36211c9b78988c248" target="_top" xlink:title=" ">
<polygon fill="white" stroke="#666666" points="202,-443.5 137,-443.5 137,-424.5 202,-424.5 202,-443.5"/>
<text text-anchor="middle" x="169.5" y="-431.5" font-family="Helvetica,sans-Serif" font-size="10.00">ast_run_if</text>
</a>
</g>
</g>
<!-- Node23&#45;&gt;Node26 -->
<g id="edge36_Node000023_Node000026" class="edge">
<title>Node23&#45;&gt;Node26</title>
<g id="a_edge36_Node000023_Node000026"><a xlink:title=" ">
<path fill="none" stroke="#63b8ff" d="M250.13,-408.33C229.86,-412.37 205.25,-418.76 188.81,-424.45"/>
<polygon fill="#63b8ff" stroke="#63b8ff" points="250.79,-411.77 259.98,-406.49 249.51,-404.88 250.79,-411.77"/>
</a>
</g>
</g>
<!-- Node27 -->
<g id="Node000027" class="node">
<title>Node27</title>
<g id="a_Node000027"><a xlink:href="ast__run_8c.html#ae25cd3ced8abafd76110dba8852a6b87" target="_top" xlink:title=" ">
<polygon fill="white" stroke="#666666" points="206,-388.5 133,-388.5 133,-369.5 206,-369.5 206,-388.5"/>
<text text-anchor="middle" x="169.5" y="-376.5" font-family="Helvetica,sans-Serif" font-size="10.00">ast_run_list</text>
</a>
</g>
</g>
<!-- Node23&#45;&gt;Node27 -->
<g id="edge38_Node000023_Node000027" class="edge">
<title>Node23&#45;&gt;Node27</title>
<g id="a_edge38_Node000023_Node000027"><a xlink:title=" ">
<path fill="none" stroke="#63b8ff" d="M256.86,-393.35C241.59,-388.81 222.66,-384.24 206.41,-381.12"/>
<polygon fill="#63b8ff" stroke="#63b8ff" points="256.18,-396.8 266.77,-396.46 258.28,-390.12 256.18,-396.8"/>
</a>
</g>
</g>
<!-- Node28 -->
<g id="Node000028" class="node">
<title>Node28</title>
<g id="a_Node000028"><a xlink:href="ast__run_8c.html#a536f37ba9bffcd2099fef668656181e0" target="_top" xlink:title=" ">
<polygon fill="white" stroke="#666666" points="209,-351.5 130,-351.5 130,-332.5 209,-332.5 209,-351.5"/>
<text text-anchor="middle" x="169.5" y="-339.5" font-family="Helvetica,sans-Serif" font-size="10.00">ast_run_loop</text>
</a>
</g>
</g>
<!-- Node23&#45;&gt;Node28 -->
<g id="edge41_Node000023_Node000028" class="edge">
<title>Node23&#45;&gt;Node28</title>
<g id="a_edge41_Node000023_Node000028"><a xlink:title=" ">
<path fill="none" stroke="#63b8ff" d="M273.82,-388.63C261.98,-376.24 242.79,-360.86 224,-351 219.31,-348.54 214.23,-346.32 209.11,-344.43"/>
<polygon fill="#63b8ff" stroke="#63b8ff" points="271.25,-391 280.46,-396.24 276.53,-386.41 271.25,-391"/>
</a>
</g>
</g>
<!-- Node29 -->
<g id="Node000029" class="node">
<title>Node29</title>
<g id="a_Node000029"><a xlink:href="ast__run_8c.html#aa3e6a973e744d748ee415840596beb53" target="_top" xlink:title=" ">
<polygon fill="white" stroke="#666666" points="224,-314.5 115,-314.5 115,-295.5 224,-295.5 224,-314.5"/>
<text text-anchor="middle" x="169.5" y="-302.5" font-family="Helvetica,sans-Serif" font-size="10.00">ast_run_shell_redir</text>
</a>
</g>
</g>
<!-- Node23&#45;&gt;Node29 -->
<g id="edge43_Node000023_Node000029" class="edge">
<title>Node23&#45;&gt;Node29</title>
<g id="a_edge43_Node000023_Node000029"><a xlink:title=" ">
<path fill="none" stroke="#63b8ff" d="M279.18,-387.14C269.7,-365.98 250.12,-333.17 224.35,-314.26"/>
<polygon fill="#63b8ff" stroke="#63b8ff" points="275.98,-388.56 283.01,-396.48 282.45,-385.9 275.98,-388.56"/>
</a>
</g>
</g>
<!-- Node30 -->
<g id="Node000030" class="node">
<title>Node30</title>
<g id="a_Node000030"><a xlink:href="exec_8c.html#a23babf893bbcd2f6126698a1a19b169f" target="_top" xlink:title="Execute funct with given arguments.">
<polygon fill="white" stroke="#666666" points="202,-593.5 137,-593.5 137,-574.5 202,-574.5 202,-593.5"/>
<text text-anchor="middle" x="169.5" y="-581.5" font-family="Helvetica,sans-Serif" font-size="10.00">exec_func</text>
</a>
</g>
</g>
<!-- Node23&#45;&gt;Node30 -->
<g id="edge45_Node000023_Node000030" class="edge">
<title>Node23&#45;&gt;Node30</title>
<g id="a_edge45_Node000023_Node000030"><a xlink:title=" ">
<path fill="none" stroke="#63b8ff" d="M273.51,-424.17C268.89,-431.66 263.82,-440.55 260,-449 238.64,-496.26 258.64,-521.4 224,-560 218.15,-566.52 210.2,-571.36 202.21,-574.93"/>
<polygon fill="#63b8ff" stroke="#63b8ff" points="276.57,-425.89 278.98,-415.57 270.66,-422.13 276.57,-425.89"/>
</a>
</g>
</g>
<!-- Node31 -->
<g id="Node000031" class="node">
<title>Node31</title>
<g id="a_Node000031"><a xlink:href="exec_8c.html#ab743cb88e12e9b922050925fd2075e36" target="_top" xlink:title="Execute a pipeline of commands.">
<polygon fill="white" stroke="#666666" points="202,-259.5 137,-259.5 137,-240.5 202,-240.5 202,-259.5"/>
<text text-anchor="middle" x="169.5" y="-247.5" font-family="Helvetica,sans-Serif" font-size="10.00">exec_pipe</text>
</a>
</g>
</g>
<!-- Node23&#45;&gt;Node31 -->
<g id="edge47_Node000023_Node000031" class="edge">
<title>Node23&#45;&gt;Node31</title>
<g id="a_edge47_Node000023_Node000031"><a xlink:title=" ">
<path fill="none" stroke="#63b8ff" d="M279.09,-386.76C269.95,-361.46 251.2,-316.64 224,-286 214.26,-275.03 200.48,-265.86 189.35,-259.52"/>
<polygon fill="#63b8ff" stroke="#63b8ff" points="275.83,-388.02 282.42,-396.31 282.44,-385.72 275.83,-388.02"/>
</a>
</g>
</g>
<!-- Node24&#45;&gt;Node23 -->
<g id="edge33_Node000024_Node000023" class="edge">
<title>Node24&#45;&gt;Node23</title>
<g id="a_edge33_Node000024_Node000023"><a xlink:title=" ">
<path fill="none" stroke="#63b8ff" d="M223.74,-499.19C223.83,-499.13 223.91,-499.06 224,-499 239.39,-487.74 271.19,-437.98 281.89,-415.79"/>
<polygon fill="#63b8ff" stroke="#63b8ff" points="221.83,-496.25 215.08,-504.42 225.45,-502.24 221.83,-496.25"/>
</a>
</g>
</g>
<!-- Node25&#45;&gt;Node23 -->
<g id="edge35_Node000025_Node000023" class="edge">
<title>Node25&#45;&gt;Node23</title>
<g id="a_edge35_Node000025_Node000023"><a xlink:title=" ">
<path fill="none" stroke="#63b8ff" d="M214.78,-466.38C217.95,-465.03 221.06,-463.56 224,-462 247.02,-449.76 270.47,-429.08 280.48,-415.87"/>
<polygon fill="#63b8ff" stroke="#63b8ff" points="213.27,-463.21 205.16,-470.03 215.75,-469.75 213.27,-463.21"/>
</a>
</g>
</g>
<!-- Node26&#45;&gt;Node23 -->
<g id="edge37_Node000026_Node000023" class="edge">
<title>Node26&#45;&gt;Node23</title>
<g id="a_edge37_Node000026_Node000023"><a xlink:title=" ">
<path fill="none" stroke="#63b8ff" d="M212.02,-430.4C230.98,-426.36 252.46,-420.66 267.28,-415.53"/>
<polygon fill="#63b8ff" stroke="#63b8ff" points="211.2,-427 202.09,-432.41 212.58,-433.86 211.2,-427"/>
</a>
</g>
</g>
<!-- Node27&#45;&gt;Node23 -->
<g id="edge40_Node000027_Node000023" class="edge">
<title>Node27&#45;&gt;Node23</title>
<g id="a_edge40_Node000027_Node000023"><a xlink:title=" ">
<path fill="none" stroke="#63b8ff" d="M198.9,-391.58C217.61,-397.15 241.89,-402.79 259.98,-405.73"/>
<polygon fill="#63b8ff" stroke="#63b8ff" points="199.75,-388.18 189.16,-388.51 197.65,-394.86 199.75,-388.18"/>
</a>
</g>
</g>
<!-- Node27&#45;&gt;Node27 -->
<g id="edge39_Node000027_Node000027" class="edge">
<title>Node27&#45;&gt;Node27</title>
<g id="a_edge39_Node000027_Node000027"><a xlink:title=" ">
<path fill="none" stroke="#63b8ff" d="M190.98,-398.05C189.55,-402.88 182.39,-406.5 169.5,-406.5 148.88,-406.5 142.92,-397.23 151.62,-388.58"/>
<polygon fill="#63b8ff" stroke="#63b8ff" points="194.2,-396.69 187.38,-388.58 187.66,-399.17 194.2,-396.69"/>
</a>
</g>
</g>
<!-- Node28&#45;&gt;Node23 -->
<g id="edge42_Node000028_Node000023" class="edge">
<title>Node28&#45;&gt;Node23</title>
<g id="a_edge42_Node000028_Node000023"><a xlink:title=" ">
<path fill="none" stroke="#63b8ff" d="M191.32,-355.44C201.49,-359.35 213.72,-363.6 224,-369 238.88,-376.81 254.01,-388.07 265.54,-396.43"/>
<polygon fill="#63b8ff" stroke="#63b8ff" points="192.57,-352.17 181.99,-351.61 189.92,-358.64 192.57,-352.17"/>
</a>
</g>
</g>
<!-- Node29&#45;&gt;Node23 -->
<g id="edge44_Node000029_Node000023" class="edge">
<title>Node29&#45;&gt;Node23</title>
<g id="a_edge44_Node000029_Node000023"><a xlink:title=" ">
<path fill="none" stroke="#63b8ff" d="M194.39,-318C204.21,-321.46 215.29,-325.67 224,-332 248.51,-349.83 267.46,-380.29 277.51,-396.35"/>
<polygon fill="#63b8ff" stroke="#63b8ff" points="195.36,-314.63 184.77,-314.61 193.04,-321.23 195.36,-314.63"/>
</a>
</g>
</g>
<!-- Node30&#45;&gt;Node21 -->
<g id="edge46_Node000030_Node000021" class="edge">
<title>Node30&#45;&gt;Node21</title>
<g id="a_edge46_Node000030_Node000021"><a xlink:title=" ">
<path fill="none" stroke="#63b8ff" d="M200.57,-570.06C268.92,-538.38 434.56,-461.59 492.82,-434.59"/>
<polygon fill="#63b8ff" stroke="#63b8ff" points="198.81,-567.02 191.21,-574.4 201.76,-573.37 198.81,-567.02"/>
</a>
</g>
</g>
<!-- Node31&#45;&gt;Node31 -->
<g id="edge50_Node000031_Node000031" class="edge">
<title>Node31&#45;&gt;Node31</title>
<g id="a_edge50_Node000031_Node000031"><a xlink:title=" ">
<path fill="none" stroke="#63b8ff" d="M190.98,-269.05C189.55,-273.88 182.39,-277.5 169.5,-277.5 148.88,-277.5 142.92,-268.23 151.62,-259.58"/>
<polygon fill="#63b8ff" stroke="#63b8ff" points="194.2,-267.69 187.38,-259.58 187.66,-270.17 194.2,-267.69"/>
</a>
</g>
</g>
<!-- Node32 -->
<g id="Node000032" class="node">
<title>Node32</title>
<g id="a_Node000032"><a xlink:href="ast__run_8c.html#a24d0223822f7b635628199085c3283be" target="_top" xlink:title=" ">
<polygon fill="white" stroke="#666666" points="79,-407.5 0,-407.5 0,-388.5 79,-388.5 79,-407.5"/>
<text text-anchor="middle" x="39.5" y="-395.5" font-family="Helvetica,sans-Serif" font-size="10.00">ast_run_pipe</text>
</a>
</g>
</g>
<!-- Node31&#45;&gt;Node32 -->
<g id="edge48_Node000031_Node000032" class="edge">
<title>Node31&#45;&gt;Node32</title>
<g id="a_edge48_Node000031_Node000032"><a xlink:title=" ">
<path fill="none" stroke="#63b8ff" d="M141.63,-265.15C132.59,-270.98 122.82,-278.14 115,-286 82.39,-318.78 55.66,-367.85 45.22,-388.41"/>
<polygon fill="#63b8ff" stroke="#63b8ff" points="143.66,-268.01 150.34,-259.78 139.99,-262.05 143.66,-268.01"/>
</a>
</g>
</g>
<!-- Node32&#45;&gt;Node23 -->
<g id="edge49_Node000032_Node000023" class="edge">
<title>Node32&#45;&gt;Node23</title>
<g id="a_edge49_Node000032_Node000023"><a xlink:title=" ">
<path fill="none" stroke="#63b8ff" d="M45.16,-417.49C53.45,-447.3 73.91,-503.28 115,-527 156.96,-551.22 183.19,-553.11 224,-527 256.16,-506.42 242.24,-482.8 260,-449 266.14,-437.32 273.98,-424.35 279.33,-415.74"/>
<polygon fill="#63b8ff" stroke="#63b8ff" points="48.54,-416.59 42.64,-407.79 41.77,-418.35 48.54,-416.59"/>
</a>
</g>
</g>
</g>
</svg>
