<?xml version="1.0" encoding="UTF-8" standalone="no"?>
<!DOCTYPE svg PUBLIC "-//W3C//DTD SVG 1.1//EN"
 "http://www.w3.org/Graphics/SVG/1.1/DTD/svg11.dtd">
<!-- Generated by graphviz version 2.43.0 (0)
 -->
<!-- Title: parser_else_clause Pages: 1 -->
<svg width="2177pt" height="506pt"
 viewBox="0.00 0.00 2177.00 506.00" xmlns="http://www.w3.org/2000/svg" xmlns:xlink="http://www.w3.org/1999/xlink">
<g id="graph0" class="graph" transform="scale(1 1) rotate(0) translate(4 502)">
<title>parser_else_clause</title>
<!-- Node1 -->
<g id="Node000001" class="node">
<title>Node1</title>
<g id="a_Node000001"><a xlink:title="Define which parser to use depending on the context.">
<polygon fill="#999999" stroke="#666666" points="2169,-474 2059,-474 2059,-455 2169,-455 2169,-474"/>
<text text-anchor="middle" x="2114" y="-462" font-family="Helvetica,sans-Serif" font-size="10.00">parser_else_clause</text>
</a>
</g>
</g>
<!-- Node2 -->
<g id="Node000002" class="node">
<title>Node2</title>
<g id="a_Node000002"><a xlink:href="parser__rules_8c.html#a799f84e24df3eff653f7c0696e348572" target="_top" xlink:title="Parse an elif block when called.">
<polygon fill="white" stroke="#666666" points="1042.5,-498 974.5,-498 974.5,-479 1042.5,-479 1042.5,-498"/>
<text text-anchor="middle" x="1008.5" y="-486" font-family="Helvetica,sans-Serif" font-size="10.00">parser_elif</text>
</a>
</g>
</g>
<!-- Node1&#45;&gt;Node2 -->
<g id="edge1_Node000001_Node000002" class="edge">
<title>Node1&#45;&gt;Node2</title>
<g id="a_edge1_Node000001_Node000002"><a xlink:title=" ">
<path fill="none" stroke="#63b8ff" d="M2049,-466.16C1993.76,-471.17 1911.78,-479.5 1840,-479.5 1840,-479.5 1840,-479.5 1309,-479.5 1212.29,-479.5 1098.01,-479.5 1042.74,-482.95"/>
<polygon fill="#63b8ff" stroke="#63b8ff" points="2049.35,-469.64 2058.99,-465.27 2048.72,-462.67 2049.35,-469.64"/>
</a>
</g>
</g>
<!-- Node3 -->
<g id="Node000003" class="node">
<title>Node3</title>
<g id="a_Node000003"><a xlink:href="parser__rules_8c.html#abf9e27d14e7a1c314285114bead78817" target="_top" xlink:title="Handle a &#39;if&#39; block by calling corresponding parser at each step.">
<polygon fill="white" stroke="#666666" points="2023,-413 1940,-413 1940,-394 2023,-394 2023,-413"/>
<text text-anchor="middle" x="1981.5" y="-401" font-family="Helvetica,sans-Serif" font-size="10.00">parser_rule_if</text>
</a>
</g>
</g>
<!-- Node1&#45;&gt;Node3 -->
<g id="edge3_Node000001_Node000003" class="edge">
<title>Node1&#45;&gt;Node3</title>
<g id="a_edge3_Node000001_Node000003"><a xlink:title=" ">
<path fill="none" stroke="#63b8ff" d="M2083.43,-450.68C2058.95,-439.24 2024.81,-423.28 2003.18,-413.17"/>
<polygon fill="#63b8ff" stroke="#63b8ff" points="2082.07,-453.9 2092.61,-454.97 2085.03,-447.56 2082.07,-453.9"/>
</a>
</g>
</g>
<!-- Node2&#45;&gt;Node1 -->
<g id="edge2_Node000002_Node000001" class="edge">
<title>Node2&#45;&gt;Node1</title>
<g id="a_edge2_Node000002_Node000001"><a xlink:title=" ">
<path fill="none" stroke="#63b8ff" d="M1053.05,-494.62C1111.34,-497.5 1217.95,-497.5 1309,-497.5 1840,-497.5 1840,-497.5 1840,-497.5 1929.69,-497.5 2035.31,-484.49 2084.78,-474.03"/>
<polygon fill="#63b8ff" stroke="#63b8ff" points="1052.92,-491.11 1042.74,-494.05 1052.53,-498.1 1052.92,-491.11"/>
</a>
</g>
</g>
<!-- Node4 -->
<g id="Node000004" class="node">
<title>Node4</title>
<g id="a_Node000004"><a xlink:href="parser__commands_8c.html#ad98fbb958a265134e775b69579e28835" target="_top" xlink:title="Handle a shell command block by calling corresponding parser at each step.">
<polygon fill="white" stroke="#666666" points="1904,-299 1774,-299 1774,-280 1904,-280 1904,-299"/>
<text text-anchor="middle" x="1839" y="-287" font-family="Helvetica,sans-Serif" font-size="10.00">parser_shell_command</text>
</a>
</g>
</g>
<!-- Node3&#45;&gt;Node4 -->
<g id="edge4_Node000003_Node000004" class="edge">
<title>Node3&#45;&gt;Node4</title>
<g id="a_edge4_Node000003_Node000004"><a xlink:title=" ">
<path fill="none" stroke="#63b8ff" d="M1960.52,-387.29C1930.86,-363.23 1876.08,-318.78 1851.95,-299.19"/>
<polygon fill="#63b8ff" stroke="#63b8ff" points="1958.55,-390.2 1968.52,-393.78 1962.96,-384.76 1958.55,-390.2"/>
</a>
</g>
</g>
<!-- Node5 -->
<g id="Node000005" class="node">
<title>Node5</title>
<g id="a_Node000005"><a xlink:href="parser__commands_8c.html#aa7191f56bd8e70874c5c381e52186807" target="_top" xlink:title="Parse a command which can be either a simple command or a shell command.">
<polygon fill="white" stroke="#666666" points="1618,-290 1517,-290 1517,-271 1618,-271 1618,-290"/>
<text text-anchor="middle" x="1567.5" y="-278" font-family="Helvetica,sans-Serif" font-size="10.00">parser_command</text>
</a>
</g>
</g>
<!-- Node4&#45;&gt;Node5 -->
<g id="edge5_Node000004_Node000005" class="edge">
<title>Node4&#45;&gt;Node5</title>
<g id="a_edge5_Node000004_Node000005"><a xlink:title=" ">
<path fill="none" stroke="#63b8ff" d="M1787.33,-277.96C1771.61,-274.9 1754.16,-272.02 1738,-270.5 1700.83,-267 1691.27,-268.33 1654,-270.5 1642.36,-271.18 1629.88,-272.37 1618.15,-273.7"/>
<polygon fill="#63b8ff" stroke="#63b8ff" points="1786.88,-281.44 1797.38,-279.99 1788.27,-274.58 1786.88,-281.44"/>
</a>
</g>
</g>
<!-- Node32 -->
<g id="Node000032" class="node">
<title>Node32</title>
<g id="a_Node000032"><a xlink:href="parser__commands_8c.html#a14408e6904da17fc6899bba03f7a5f5a" target="_top" xlink:title="Handle a function definition and add it to the dictionnary.">
<polygon fill="white" stroke="#666666" points="1738,-299 1654,-299 1654,-280 1738,-280 1738,-299"/>
<text text-anchor="middle" x="1696" y="-287" font-family="Helvetica,sans-Serif" font-size="10.00">parser_fundef</text>
</a>
</g>
</g>
<!-- Node4&#45;&gt;Node32 -->
<g id="edge51_Node000004_Node000032" class="edge">
<title>Node4&#45;&gt;Node32</title>
<g id="a_edge51_Node000004_Node000032"><a xlink:title=" ">
<path fill="none" stroke="#63b8ff" d="M1763.49,-289.5C1754.81,-289.5 1746.21,-289.5 1738.21,-289.5"/>
<polygon fill="#63b8ff" stroke="#63b8ff" points="1763.69,-293 1773.69,-289.5 1763.69,-286 1763.69,-293"/>
</a>
</g>
</g>
<!-- Node6 -->
<g id="Node000006" class="node">
<title>Node6</title>
<g id="a_Node000006"><a xlink:href="parser__pipelines_8c.html#a06068cdf8924fb28f414f419d84a5eae" target="_top" xlink:title="Parse and_or blocks separated by &#39;|&#39; (pipes)">
<polygon fill="white" stroke="#666666" points="1481,-290 1389,-290 1389,-271 1481,-271 1481,-290"/>
<text text-anchor="middle" x="1435" y="-278" font-family="Helvetica,sans-Serif" font-size="10.00">parser_pipeline</text>
</a>
</g>
</g>
<!-- Node5&#45;&gt;Node6 -->
<g id="edge6_Node000005_Node000006" class="edge">
<title>Node5&#45;&gt;Node6</title>
<g id="a_edge6_Node000005_Node000006"><a xlink:title=" ">
<path fill="none" stroke="#63b8ff" d="M1506.53,-280.5C1498.05,-280.5 1489.44,-280.5 1481.29,-280.5"/>
<polygon fill="#63b8ff" stroke="#63b8ff" points="1506.79,-284 1516.79,-280.5 1506.79,-277 1506.79,-284"/>
</a>
</g>
</g>
<!-- Node7 -->
<g id="Node000007" class="node">
<title>Node7</title>
<g id="a_Node000007"><a xlink:href="parser__pipelines_8c.html#a85ca4872d7efdb8b0cd643037ccd5763" target="_top" xlink:title="Parse and_or blocks separated by &#39;&amp;&amp;&#39; or &#39;||&#39;.">
<polygon fill="white" stroke="#666666" points="1353,-290 1267,-290 1267,-271 1353,-271 1353,-290"/>
<text text-anchor="middle" x="1310" y="-278" font-family="Helvetica,sans-Serif" font-size="10.00">parser_and_or</text>
</a>
</g>
</g>
<!-- Node6&#45;&gt;Node7 -->
<g id="edge7_Node000006_Node000007" class="edge">
<title>Node6&#45;&gt;Node7</title>
<g id="a_edge7_Node000006_Node000007"><a xlink:title=" ">
<path fill="none" stroke="#63b8ff" d="M1378.62,-280.5C1370.1,-280.5 1361.41,-280.5 1353.24,-280.5"/>
<polygon fill="#63b8ff" stroke="#63b8ff" points="1378.9,-284 1388.9,-280.5 1378.9,-277 1378.9,-284"/>
</a>
</g>
</g>
<!-- Node8 -->
<g id="Node000008" class="node">
<title>Node8</title>
<g id="a_Node000008"><a xlink:href="parser__lists_8c.html#aae7a5d6760b83c1a37b0369f82a20500" target="_top" xlink:title="Absorb a chain of and_or separeted by &#39;;&#39; or &#39; &#39;.">
<polygon fill="white" stroke="#666666" points="1231,-375 1107,-375 1107,-356 1231,-356 1231,-375"/>
<text text-anchor="middle" x="1169" y="-363" font-family="Helvetica,sans-Serif" font-size="10.00">parser_compound_list</text>
</a>
</g>
</g>
<!-- Node7&#45;&gt;Node8 -->
<g id="edge8_Node000007_Node000008" class="edge">
<title>Node7&#45;&gt;Node8</title>
<g id="a_edge8_Node000007_Node000008"><a xlink:title=" ">
<path fill="none" stroke="#63b8ff" d="M1284.77,-295.31C1256.34,-312.7 1210.02,-341.03 1185.83,-355.82"/>
<polygon fill="#63b8ff" stroke="#63b8ff" points="1286.62,-298.29 1293.33,-290.09 1282.97,-292.32 1286.62,-298.29"/>
</a>
</g>
</g>
<!-- Node13 -->
<g id="Node000013" class="node">
<title>Node13</title>
<g id="a_Node000013"><a xlink:href="parser__lists_8c.html#a7b9812922acfb4eba24e65d40bd99001" target="_top" xlink:title="Parse list block into sub and_or block(s) separated by semi&#45;colons.">
<polygon fill="white" stroke="#666666" points="1203,-280 1135,-280 1135,-261 1203,-261 1203,-280"/>
<text text-anchor="middle" x="1169" y="-268" font-family="Helvetica,sans-Serif" font-size="10.00">parser_list</text>
</a>
</g>
</g>
<!-- Node7&#45;&gt;Node13 -->
<g id="edge20_Node000007_Node000013" class="edge">
<title>Node7&#45;&gt;Node13</title>
<g id="a_edge20_Node000007_Node000013"><a xlink:title=" ">
<path fill="none" stroke="#63b8ff" d="M1256.84,-276.75C1238.83,-275.45 1219.17,-274.04 1203.12,-272.88"/>
<polygon fill="#63b8ff" stroke="#63b8ff" points="1256.69,-280.25 1266.92,-277.47 1257.2,-273.26 1256.69,-280.25"/>
</a>
</g>
</g>
<!-- Node8&#45;&gt;Node1 -->
<g id="edge10_Node000008_Node000001" class="edge">
<title>Node8&#45;&gt;Node1</title>
<g id="a_edge10_Node000008_Node000001"><a xlink:title=" ">
<path fill="none" stroke="#63b8ff" d="M1198.39,-379.38C1245.94,-401.31 1345.2,-441.5 1434,-441.5 1840,-441.5 1840,-441.5 1840,-441.5 1916.22,-441.5 2003.99,-450.51 2058.98,-457.25"/>
<polygon fill="#63b8ff" stroke="#63b8ff" points="1199.86,-376.2 1189.32,-375.13 1196.89,-382.54 1199.86,-376.2"/>
</a>
</g>
</g>
<!-- Node8&#45;&gt;Node2 -->
<g id="edge9_Node000008_Node000002" class="edge">
<title>Node8&#45;&gt;Node2</title>
<g id="a_edge9_Node000008_Node000002"><a xlink:title=" ">
<path fill="none" stroke="#63b8ff" d="M1147.42,-381.47C1114.02,-407.39 1049.02,-457.83 1021.88,-478.89"/>
<polygon fill="#63b8ff" stroke="#63b8ff" points="1149.81,-384.05 1155.56,-375.15 1145.52,-378.52 1149.81,-384.05"/>
</a>
</g>
</g>
<!-- Node8&#45;&gt;Node3 -->
<g id="edge15_Node000008_Node000003" class="edge">
<title>Node8&#45;&gt;Node3</title>
<g id="a_edge15_Node000008_Node000003"><a xlink:title=" ">
<path fill="none" stroke="#63b8ff" d="M1220.71,-377.19C1273.63,-388.36 1359.18,-403.5 1434,-403.5 1697,-403.5 1697,-403.5 1697,-403.5 1783.38,-403.5 1884.56,-403.5 1939.66,-403.5"/>
<polygon fill="#63b8ff" stroke="#63b8ff" points="1221.4,-373.76 1210.89,-375.09 1219.94,-380.61 1221.4,-373.76"/>
</a>
</g>
</g>
<!-- Node9 -->
<g id="Node000009" class="node">
<title>Node9</title>
<g id="a_Node000009"><a xlink:href="parser__rules_8c.html#afb9701776de31af668314b48a0b54636" target="_top" xlink:title="Handle a command block enclosed in brackets.">
<polygon fill="white" stroke="#666666" points="1071,-375.5 946,-375.5 946,-345.5 1071,-345.5 1071,-375.5"/>
<text text-anchor="start" x="954" y="-363.5" font-family="Helvetica,sans-Serif" font-size="10.00">parser_rule_command</text>
<text text-anchor="middle" x="1008.5" y="-352.5" font-family="Helvetica,sans-Serif" font-size="10.00">_block</text>
</a>
</g>
</g>
<!-- Node8&#45;&gt;Node9 -->
<g id="edge11_Node000008_Node000009" class="edge">
<title>Node8&#45;&gt;Node9</title>
<g id="a_edge11_Node000008_Node000009"><a xlink:title=" ">
<path fill="none" stroke="#63b8ff" d="M1096.49,-363.24C1088.03,-362.98 1079.45,-362.71 1071.14,-362.44"/>
<polygon fill="#63b8ff" stroke="#63b8ff" points="1096.61,-366.75 1106.72,-363.57 1096.84,-359.75 1096.61,-366.75"/>
</a>
</g>
</g>
<!-- Node10 -->
<g id="Node000010" class="node">
<title>Node10</title>
<g id="a_Node000010"><a xlink:href="parser__rules_8c.html#a55dc38591d3749d39ca3f38f8a2a26dd" target="_top" xlink:title="Handle a for block by calling corresponding parser at each step.">
<polygon fill="white" stroke="#666666" points="1053.5,-327 963.5,-327 963.5,-308 1053.5,-308 1053.5,-327"/>
<text text-anchor="middle" x="1008.5" y="-315" font-family="Helvetica,sans-Serif" font-size="10.00">parser_rule_for</text>
</a>
</g>
</g>
<!-- Node8&#45;&gt;Node10 -->
<g id="edge13_Node000008_Node000010" class="edge">
<title>Node8&#45;&gt;Node10</title>
<g id="a_edge13_Node000008_Node000010"><a xlink:title=" ">
<path fill="none" stroke="#63b8ff" d="M1126.48,-352.92C1099.78,-344.84 1065.64,-334.5 1041.14,-327.08"/>
<polygon fill="#63b8ff" stroke="#63b8ff" points="1125.72,-356.35 1136.31,-355.9 1127.75,-349.65 1125.72,-356.35"/>
</a>
</g>
</g>
<!-- Node11 -->
<g id="Node000011" class="node">
<title>Node11</title>
<g id="a_Node000011"><a xlink:href="parser__rules_8c.html#abf1c3edda1bb73d8c86028687922ce95" target="_top" xlink:title="Handle a &#39;until&#39; block by calling corresponding parser at each step.">
<polygon fill="white" stroke="#666666" points="1057.5,-413 959.5,-413 959.5,-394 1057.5,-394 1057.5,-413"/>
<text text-anchor="middle" x="1008.5" y="-401" font-family="Helvetica,sans-Serif" font-size="10.00">parser_rule_until</text>
</a>
</g>
</g>
<!-- Node8&#45;&gt;Node11 -->
<g id="edge16_Node000008_Node000011" class="edge">
<title>Node8&#45;&gt;Node11</title>
<g id="a_edge16_Node000008_Node000011"><a xlink:title=" ">
<path fill="none" stroke="#63b8ff" d="M1118.08,-377.47C1095.87,-382.79 1070.08,-388.98 1049.21,-393.98"/>
<polygon fill="#63b8ff" stroke="#63b8ff" points="1119.1,-380.82 1128,-375.09 1117.46,-374.02 1119.1,-380.82"/>
</a>
</g>
</g>
<!-- Node12 -->
<g id="Node000012" class="node">
<title>Node12</title>
<g id="a_Node000012"><a xlink:href="parser__rules_8c.html#aa6719ad356821f03ad45b1ac0a57d3bd" target="_top" xlink:title="Handle a &#39;while&#39; block by calling corresponding parser at each step.">
<polygon fill="white" stroke="#666666" points="1060,-290 957,-290 957,-271 1060,-271 1060,-290"/>
<text text-anchor="middle" x="1008.5" y="-278" font-family="Helvetica,sans-Serif" font-size="10.00">parser_rule_while</text>
</a>
</g>
</g>
<!-- Node8&#45;&gt;Node12 -->
<g id="edge18_Node000008_Node000012" class="edge">
<title>Node8&#45;&gt;Node12</title>
<g id="a_edge18_Node000008_Node000012"><a xlink:title=" ">
<path fill="none" stroke="#63b8ff" d="M1149.01,-349.63C1130.24,-334.62 1100.16,-312.39 1071,-298.5 1064.17,-295.25 1056.63,-292.45 1049.24,-290.1"/>
<polygon fill="#63b8ff" stroke="#63b8ff" points="1146.83,-352.37 1156.8,-355.96 1151.25,-346.93 1146.83,-352.37"/>
</a>
</g>
</g>
<!-- Node9&#45;&gt;Node4 -->
<g id="edge12_Node000009_Node000004" class="edge">
<title>Node9&#45;&gt;Node4</title>
<g id="a_edge12_Node000009_Node000004"><a xlink:title=" ">
<path fill="none" stroke="#63b8ff" d="M1081.44,-348.09C1141.96,-338.73 1230.87,-327.5 1309,-327.5 1568.5,-327.5 1568.5,-327.5 1568.5,-327.5 1649.77,-327.5 1743.49,-310.35 1796.24,-299.09"/>
<polygon fill="#63b8ff" stroke="#63b8ff" points="1080.57,-344.69 1071.23,-349.69 1081.65,-351.6 1080.57,-344.69"/>
</a>
</g>
</g>
<!-- Node10&#45;&gt;Node4 -->
<g id="edge14_Node000010_Node000004" class="edge">
<title>Node10&#45;&gt;Node4</title>
<g id="a_edge14_Node000010_Node000004"><a xlink:title=" ">
<path fill="none" stroke="#63b8ff" d="M1061.94,-303.85C1065.11,-302.25 1068.16,-300.48 1071,-298.5 1092.59,-283.46 1084.59,-265.29 1107,-251.5 1184.81,-203.63 1217.65,-213.5 1309,-213.5 1568.5,-213.5 1568.5,-213.5 1568.5,-213.5 1665.24,-213.5 1774.43,-259.42 1818.26,-279.87"/>
<polygon fill="#63b8ff" stroke="#63b8ff" points="1060.52,-300.65 1052.77,-307.88 1063.34,-307.06 1060.52,-300.65"/>
</a>
</g>
</g>
<!-- Node11&#45;&gt;Node4 -->
<g id="edge17_Node000011_Node000004" class="edge">
<title>Node11&#45;&gt;Node4</title>
<g id="a_edge17_Node000011_Node000004"><a xlink:title=" ">
<path fill="none" stroke="#63b8ff" d="M1068.01,-398.23C1183.9,-387.79 1431.73,-365.5 1434,-365.5 1568.5,-365.5 1568.5,-365.5 1568.5,-365.5 1665.24,-365.5 1774.43,-319.58 1818.26,-299.13"/>
<polygon fill="#63b8ff" stroke="#63b8ff" points="1067.53,-394.76 1057.88,-399.14 1068.16,-401.73 1067.53,-394.76"/>
</a>
</g>
</g>
<!-- Node12&#45;&gt;Node4 -->
<g id="edge19_Node000012_Node000004" class="edge">
<title>Node12&#45;&gt;Node4</title>
<g id="a_edge19_Node000012_Node000004"><a xlink:title=" ">
<path fill="none" stroke="#63b8ff" d="M1063.65,-266.47C1066.23,-264.98 1068.7,-263.33 1071,-261.5 1095.93,-241.66 1080.37,-217 1107,-199.5 1182.55,-149.84 1218.59,-175.5 1309,-175.5 1568.5,-175.5 1568.5,-175.5 1568.5,-175.5 1644.58,-175.5 1669.06,-167.32 1738,-199.5 1779.27,-218.77 1815.69,-260.9 1830.7,-279.89"/>
<polygon fill="#63b8ff" stroke="#63b8ff" points="1061.93,-263.42 1054.49,-270.97 1065.01,-269.7 1061.93,-263.42"/>
</a>
</g>
</g>
<!-- Node14 -->
<g id="Node000014" class="node">
<title>Node14</title>
<g id="a_Node000014"><a xlink:href="parser_8c.html#a620dffcc9a167cdee6e67de1191e5277" target="_top" xlink:title="Parse the input of our shell into list.">
<polygon fill="white" stroke="#666666" points="1032,-253 985,-253 985,-234 1032,-234 1032,-253"/>
<text text-anchor="middle" x="1008.5" y="-241" font-family="Helvetica,sans-Serif" font-size="10.00">parser</text>
</a>
</g>
</g>
<!-- Node13&#45;&gt;Node14 -->
<g id="edge21_Node000013_Node000014" class="edge">
<title>Node13&#45;&gt;Node14</title>
<g id="a_edge21_Node000013_Node000014"><a xlink:title=" ">
<path fill="none" stroke="#63b8ff" d="M1124.63,-263.11C1094.85,-258.04 1056.49,-251.5 1032.44,-247.41"/>
<polygon fill="#63b8ff" stroke="#63b8ff" points="1124.33,-266.61 1134.77,-264.84 1125.5,-259.71 1124.33,-266.61"/>
</a>
</g>
</g>
<!-- Node15 -->
<g id="Node000015" class="node">
<title>Node15</title>
<g id="a_Node000015"><a xlink:href="42sh_8c.html#a3c04138a5bfe5d72780bb7e82a18e627" target="_top" xlink:title=" ">
<polygon fill="white" stroke="#666666" points="190,-390 149,-390 149,-371 190,-371 190,-390"/>
<text text-anchor="middle" x="169.5" y="-378" font-family="Helvetica,sans-Serif" font-size="10.00">main</text>
</a>
</g>
</g>
<!-- Node14&#45;&gt;Node15 -->
<g id="edge22_Node000014_Node000015" class="edge">
<title>Node14&#45;&gt;Node15</title>
<g id="a_edge22_Node000014_Node000015"><a xlink:title=" ">
<path fill="none" stroke="#63b8ff" d="M974.94,-250.19C931.73,-258.47 852.98,-271.5 785,-271.5 785,-271.5 785,-271.5 387.5,-271.5 304.55,-271.5 299.66,-327.51 224,-361.5 213.03,-366.43 200.37,-370.97 190.11,-374.38"/>
<polygon fill="#63b8ff" stroke="#63b8ff" points="975.73,-253.6 984.88,-248.25 974.39,-246.73 975.73,-253.6"/>
</a>
</g>
</g>
<!-- Node16 -->
<g id="Node000016" class="node">
<title>Node16</title>
<g id="a_Node000016"><a xlink:href="dot_8c.html#a17477ee2b0f1b8b9306566c990d15b35" target="_top" xlink:title="Main loop of dot builtin.">
<polygon fill="white" stroke="#666666" points="910,-234 842,-234 842,-215 910,-215 910,-234"/>
<text text-anchor="middle" x="876" y="-222" font-family="Helvetica,sans-Serif" font-size="10.00">main_loop</text>
</a>
</g>
</g>
<!-- Node14&#45;&gt;Node16 -->
<g id="edge23_Node000014_Node000016" class="edge">
<title>Node14&#45;&gt;Node16</title>
<g id="a_edge23_Node000014_Node000016"><a xlink:title=" ">
<path fill="none" stroke="#63b8ff" d="M974.72,-238.73C955.02,-235.86 930.02,-232.22 910.24,-229.34"/>
<polygon fill="#63b8ff" stroke="#63b8ff" points="974.37,-242.21 984.77,-240.19 975.38,-235.29 974.37,-242.21"/>
</a>
</g>
</g>
<!-- Node17 -->
<g id="Node000017" class="node">
<title>Node17</title>
<g id="a_Node000017"><a xlink:href="dot_8c.html#a713938d3c6ee343132c429642048bcf6" target="_top" xlink:title="Execute the dot builtin cmd.">
<polygon fill="white" stroke="#666666" points="806,-196 762,-196 762,-177 806,-177 806,-196"/>
<text text-anchor="middle" x="784" y="-184" font-family="Helvetica,sans-Serif" font-size="10.00">dot_b</text>
</a>
</g>
</g>
<!-- Node16&#45;&gt;Node17 -->
<g id="edge24_Node000016_Node000017" class="edge">
<title>Node16&#45;&gt;Node17</title>
<g id="a_edge24_Node000016_Node000017"><a xlink:title=" ">
<path fill="none" stroke="#63b8ff" d="M842.88,-210.94C830.68,-205.79 817.1,-200.05 806.16,-195.43"/>
<polygon fill="#63b8ff" stroke="#63b8ff" points="841.72,-214.25 852.29,-214.91 844.44,-207.8 841.72,-214.25"/>
</a>
</g>
</g>
<!-- Node18 -->
<g id="Node000018" class="node">
<title>Node18</title>
<g id="a_Node000018"><a xlink:href="exec_8c.html#abaeb177587c7eec6a064b35bb8399cae" target="_top" xlink:title="Execute builtin cmd with given args.">
<polygon fill="white" stroke="#666666" points="726,-196 651,-196 651,-177 726,-177 726,-196"/>
<text text-anchor="middle" x="688.5" y="-184" font-family="Helvetica,sans-Serif" font-size="10.00">exec_builtin</text>
</a>
</g>
</g>
<!-- Node17&#45;&gt;Node18 -->
<g id="edge25_Node000017_Node000018" class="edge">
<title>Node17&#45;&gt;Node18</title>
<g id="a_edge25_Node000017_Node000018"><a xlink:title=" ">
<path fill="none" stroke="#63b8ff" d="M751.53,-186.5C743.35,-186.5 734.47,-186.5 726.05,-186.5"/>
<polygon fill="#63b8ff" stroke="#63b8ff" points="751.78,-190 761.78,-186.5 751.78,-183 751.78,-190"/>
</a>
</g>
</g>
<!-- Node19 -->
<g id="Node000019" class="node">
<title>Node19</title>
<g id="a_Node000019"><a xlink:href="exec_8c.html#a287d81b4658832f192750310e2925917" target="_top" xlink:title="Execute the builtin command with given args.">
<polygon fill="white" stroke="#666666" points="615,-196 565,-196 565,-177 615,-177 615,-196"/>
<text text-anchor="middle" x="590" y="-184" font-family="Helvetica,sans-Serif" font-size="10.00">exec_b</text>
</a>
</g>
</g>
<!-- Node18&#45;&gt;Node19 -->
<g id="edge26_Node000018_Node000019" class="edge">
<title>Node18&#45;&gt;Node19</title>
<g id="a_edge26_Node000018_Node000019"><a xlink:title=" ">
<path fill="none" stroke="#63b8ff" d="M640.51,-186.5C631.71,-186.5 622.86,-186.5 615.12,-186.5"/>
<polygon fill="#63b8ff" stroke="#63b8ff" points="640.74,-190 650.74,-186.5 640.74,-183 640.74,-190"/>
</a>
</g>
</g>
<!-- Node20 -->
<g id="Node000020" class="node">
<title>Node20</title>
<g id="a_Node000020"><a xlink:href="exec_8c.html#ae65edaa99b26b49d60c451157d38b34a" target="_top" xlink:title="Execute les commandes avec les args donnes.">
<polygon fill="white" stroke="#666666" points="529,-196 464,-196 464,-177 529,-177 529,-196"/>
<text text-anchor="middle" x="496.5" y="-184" font-family="Helvetica,sans-Serif" font-size="10.00">exec_cmd</text>
</a>
</g>
</g>
<!-- Node19&#45;&gt;Node20 -->
<g id="edge27_Node000019_Node000020" class="edge">
<title>Node19&#45;&gt;Node20</title>
<g id="a_edge27_Node000019_Node000020"><a xlink:title=" ">
<path fill="none" stroke="#63b8ff" d="M554.77,-186.5C546.42,-186.5 537.53,-186.5 529.3,-186.5"/>
<polygon fill="#63b8ff" stroke="#63b8ff" points="554.96,-190 564.96,-186.5 554.96,-183 554.96,-190"/>
</a>
</g>
</g>
<!-- Node21 -->
<g id="Node000021" class="node">
<title>Node21</title>
<g id="a_Node000021"><a xlink:href="ast__run_8c.html#aeb6878a59c6907e5669fc3cc428913d9" target="_top" xlink:title=" ">
<polygon fill="white" stroke="#666666" points="428,-196 349,-196 349,-177 428,-177 428,-196"/>
<text text-anchor="middle" x="388.5" y="-184" font-family="Helvetica,sans-Serif" font-size="10.00">ast_run_cmd</text>
</a>
</g>
</g>
<!-- Node20&#45;&gt;Node21 -->
<g id="edge28_Node000020_Node000021" class="edge">
<title>Node20&#45;&gt;Node21</title>
<g id="a_edge28_Node000020_Node000021"><a xlink:title=" ">
<path fill="none" stroke="#63b8ff" d="M453.92,-186.5C445.45,-186.5 436.58,-186.5 428.21,-186.5"/>
<polygon fill="#63b8ff" stroke="#63b8ff" points="453.98,-190 463.98,-186.5 453.98,-183 453.98,-190"/>
</a>
</g>
</g>
<!-- Node22 -->
<g id="Node000022" class="node">
<title>Node22</title>
<g id="a_Node000022"><a xlink:href="ast_8c.html#a572345b2707780bbbc5bbaacdca9c372" target="_top" xlink:title=" ">
<polygon fill="white" stroke="#666666" points="313,-224 260,-224 260,-205 313,-205 313,-224"/>
<text text-anchor="middle" x="286.5" y="-212" font-family="Helvetica,sans-Serif" font-size="10.00">run_ast</text>
</a>
</g>
</g>
<!-- Node21&#45;&gt;Node22 -->
<g id="edge29_Node000021_Node000022" class="edge">
<title>Node21&#45;&gt;Node22</title>
<g id="a_edge29_Node000021_Node000022"><a xlink:title=" ">
<path fill="none" stroke="#63b8ff" d="M343.6,-198.79C333.24,-201.69 322.53,-204.69 313.27,-207.28"/>
<polygon fill="#63b8ff" stroke="#63b8ff" points="344.68,-202.12 353.37,-196.06 342.79,-195.38 344.68,-202.12"/>
</a>
</g>
</g>
<!-- Node22&#45;&gt;Node15 -->
<g id="edge49_Node000022_Node000015" class="edge">
<title>Node22&#45;&gt;Node15</title>
<g id="a_edge49_Node000022_Node000015"><a xlink:title=" ">
<path fill="none" stroke="#63b8ff" d="M273.6,-232.71C268.99,-240.2 263.9,-249.09 260,-257.5 239.42,-301.87 258.45,-326.78 224,-361.5 214.98,-370.6 201.32,-375.35 190.06,-377.83"/>
<polygon fill="#63b8ff" stroke="#63b8ff" points="276.65,-234.42 279.04,-224.1 270.74,-230.68 276.65,-234.42"/>
</a>
</g>
</g>
<!-- Node22&#45;&gt;Node16 -->
<g id="edge50_Node000022_Node000016" class="edge">
<title>Node22&#45;&gt;Node16</title>
<g id="a_edge50_Node000022_Node000016"><a xlink:title=" ">
<path fill="none" stroke="#63b8ff" d="M323.23,-217.26C364.65,-220.22 434.97,-224.5 495.5,-224.5 689.5,-224.5 689.5,-224.5 689.5,-224.5 742.8,-224.5 804.71,-224.5 841.83,-224.5"/>
<polygon fill="#63b8ff" stroke="#63b8ff" points="323.33,-213.76 313.1,-216.52 322.82,-220.74 323.33,-213.76"/>
</a>
</g>
</g>
<!-- Node23 -->
<g id="Node000023" class="node">
<title>Node23</title>
<g id="a_Node000023"><a xlink:href="ast__run_8c.html#a8a01fec616135007fc5b3968a101901b" target="_top" xlink:title=" ">
<polygon fill="white" stroke="#666666" points="215,-93 124,-93 124,-74 215,-74 215,-93"/>
<text text-anchor="middle" x="169.5" y="-81" font-family="Helvetica,sans-Serif" font-size="10.00">ast_run_and_or</text>
</a>
</g>
</g>
<!-- Node22&#45;&gt;Node23 -->
<g id="edge30_Node000022_Node000023" class="edge">
<title>Node22&#45;&gt;Node23</title>
<g id="a_edge30_Node000022_Node000023"><a xlink:title=" ">
<path fill="none" stroke="#63b8ff" d="M280.78,-195.12C272.52,-169.37 253.47,-125.17 224,-98.5 221.28,-96.04 218.27,-93.8 215.1,-91.79"/>
<polygon fill="#63b8ff" stroke="#63b8ff" points="277.48,-196.31 283.66,-204.92 284.2,-194.33 277.48,-196.31"/>
</a>
</g>
</g>
<!-- Node24 -->
<g id="Node000024" class="node">
<title>Node24</title>
<g id="a_Node000024"><a xlink:href="ast__run_8c.html#a9d83d4834a61ffe21eb77838d70ae173" target="_top" xlink:title=" ">
<polygon fill="white" stroke="#666666" points="205,-56 134,-56 134,-37 205,-37 205,-56"/>
<text text-anchor="middle" x="169.5" y="-44" font-family="Helvetica,sans-Serif" font-size="10.00">ast_run_for</text>
</a>
</g>
</g>
<!-- Node22&#45;&gt;Node24 -->
<g id="edge32_Node000022_Node000024" class="edge">
<title>Node22&#45;&gt;Node24</title>
<g id="a_edge32_Node000022_Node000024"><a xlink:title=" ">
<path fill="none" stroke="#63b8ff" d="M283.57,-194.83C278.89,-161.02 264.22,-93.2 224,-55.5 218.71,-50.54 212.01,-46.94 205.15,-44.55"/>
<polygon fill="#63b8ff" stroke="#63b8ff" points="280.11,-195.39 284.8,-204.9 287.06,-194.55 280.11,-195.39"/>
</a>
</g>
</g>
<!-- Node25 -->
<g id="Node000025" class="node">
<title>Node25</title>
<g id="a_Node000025"><a xlink:href="ast__run_8c.html#a0a7138b1f2608ea36211c9b78988c248" target="_top" xlink:title=" ">
<polygon fill="white" stroke="#666666" points="202,-353 137,-353 137,-334 202,-334 202,-353"/>
<text text-anchor="middle" x="169.5" y="-341" font-family="Helvetica,sans-Serif" font-size="10.00">ast_run_if</text>
</a>
</g>
</g>
<!-- Node22&#45;&gt;Node25 -->
<g id="edge34_Node000022_Node000025" class="edge">
<title>Node22&#45;&gt;Node25</title>
<g id="a_edge34_Node000022_Node000025"><a xlink:title=" ">
<path fill="none" stroke="#63b8ff" d="M269.24,-232.7C266.13,-237.8 262.93,-243.3 260,-248.5 243.37,-277.93 249.65,-293.48 224,-315.5 213.08,-324.87 197.22,-329.74 185.6,-333.85"/>
<polygon fill="#63b8ff" stroke="#63b8ff" points="272.28,-234.43 274.66,-224.11 266.36,-230.7 272.28,-234.43"/>
</a>
</g>
</g>
<!-- Node26 -->
<g id="Node000026" class="node">
<title>Node26</title>
<g id="a_Node000026"><a xlink:href="ast__run_8c.html#ae25cd3ced8abafd76110dba8852a6b87" target="_top" xlink:title=" ">
<polygon fill="white" stroke="#666666" points="206,-298 133,-298 133,-279 206,-279 206,-298"/>
<text text-anchor="middle" x="169.5" y="-286" font-family="Helvetica,sans-Serif" font-size="10.00">ast_run_list</text>
</a>
</g>
</g>
<!-- Node22&#45;&gt;Node26 -->
<g id="edge36_Node000022_Node000026" class="edge">
<title>Node22&#45;&gt;Node26</title>
<g id="a_edge36_Node000022_Node000026"><a xlink:title=" ">
<path fill="none" stroke="#63b8ff" d="M261.98,-231.23C251.19,-240.85 237.74,-252.35 224,-260.5 210.61,-268.45 193.37,-273.82 182.13,-278.89"/>
<polygon fill="#63b8ff" stroke="#63b8ff" points="264.58,-233.6 269.69,-224.31 259.91,-228.39 264.58,-233.6"/>
</a>
</g>
</g>
<!-- Node27 -->
<g id="Node000027" class="node">
<title>Node27</title>
<g id="a_Node000027"><a xlink:href="ast__run_8c.html#a536f37ba9bffcd2099fef668656181e0" target="_top" xlink:title=" ">
<polygon fill="white" stroke="#666666" points="209,-261 130,-261 130,-242 209,-242 209,-261"/>
<text text-anchor="middle" x="169.5" y="-249" font-family="Helvetica,sans-Serif" font-size="10.00">ast_run_loop</text>
</a>
</g>
</g>
<!-- Node22&#45;&gt;Node27 -->
<g id="edge39_Node000022_Node000027" class="edge">
<title>Node22&#45;&gt;Node27</title>
<g id="a_edge39_Node000022_Node000027"><a xlink:title=" ">
<path fill="none" stroke="#63b8ff" d="M250.09,-219.61C228.37,-225.64 201.69,-234.75 185.4,-241.99"/>
<polygon fill="#63b8ff" stroke="#63b8ff" points="251.21,-222.93 259.98,-216.99 249.42,-216.16 251.21,-222.93"/>
</a>
</g>
</g>
<!-- Node28 -->
<g id="Node000028" class="node">
<title>Node28</title>
<g id="a_Node000028"><a xlink:href="ast__run_8c.html#aa3e6a973e744d748ee415840596beb53" target="_top" xlink:title=" ">
<polygon fill="white" stroke="#666666" points="224,-224 115,-224 115,-205 224,-205 224,-224"/>
<text text-anchor="middle" x="169.5" y="-212" font-family="Helvetica,sans-Serif" font-size="10.00">ast_run_shell_redir</text>
</a>
</g>
</g>
<!-- Node22&#45;&gt;Node28 -->
<g id="edge41_Node000022_Node000028" class="edge">
<title>Node22&#45;&gt;Node28</title>
<g id="a_edge41_Node000022_Node000028"><a xlink:title=" ">
<path fill="none" stroke="#63b8ff" d="M249.78,-208.2C241.67,-207.85 232.88,-207.7 224.21,-207.76"/>
<polygon fill="#63b8ff" stroke="#63b8ff" points="249.8,-211.71 259.98,-208.78 250.19,-204.72 249.8,-211.71"/>
</a>
</g>
</g>
<!-- Node29 -->
<g id="Node000029" class="node">
<title>Node29</title>
<g id="a_Node000029"><a xlink:href="exec_8c.html#a23babf893bbcd2f6126698a1a19b169f" target="_top" xlink:title="Execute funct with given arguments.">
<polygon fill="white" stroke="#666666" points="202,-19 137,-19 137,0 202,0 202,-19"/>
<text text-anchor="middle" x="169.5" y="-7" font-family="Helvetica,sans-Serif" font-size="10.00">exec_func</text>
</a>
</g>
</g>
<!-- Node22&#45;&gt;Node29 -->
<g id="edge43_Node000022_Node000029" class="edge">
<title>Node22&#45;&gt;Node29</title>
<g id="a_edge43_Node000022_Node000029"><a xlink:title=" ">
<path fill="none" stroke="#63b8ff" d="M281.36,-194.81C271.98,-151.87 248.04,-51.7 224,-27.5 218.06,-21.52 210.07,-17.53 202.09,-14.86"/>
<polygon fill="#63b8ff" stroke="#63b8ff" points="277.95,-195.59 283.47,-204.63 284.8,-194.12 277.95,-195.59"/>
</a>
</g>
</g>
<!-- Node30 -->
<g id="Node000030" class="node">
<title>Node30</title>
<g id="a_Node000030"><a xlink:href="exec_8c.html#ab743cb88e12e9b922050925fd2075e36" target="_top" xlink:title="Execute a pipeline of commands.">
<polygon fill="white" stroke="#666666" points="202,-169 137,-169 137,-150 202,-150 202,-169"/>
<text text-anchor="middle" x="169.5" y="-157" font-family="Helvetica,sans-Serif" font-size="10.00">exec_pipe</text>
</a>
</g>
</g>
<!-- Node22&#45;&gt;Node30 -->
<g id="edge45_Node000022_Node000030" class="edge">
<title>Node22&#45;&gt;Node30</title>
<g id="a_edge45_Node000022_Node000030"><a xlink:title=" ">
<path fill="none" stroke="#63b8ff" d="M256.26,-200.52C235.75,-190.71 208.85,-177.84 190.69,-169.16"/>
<polygon fill="#63b8ff" stroke="#63b8ff" points="254.94,-203.76 265.47,-204.92 257.96,-197.45 254.94,-203.76"/>
</a>
</g>
</g>
<!-- Node23&#45;&gt;Node22 -->
<g id="edge31_Node000023_Node000022" class="edge">
<title>Node23&#45;&gt;Node22</title>
<g id="a_edge31_Node000023_Node000022"><a xlink:title=" ">
<path fill="none" stroke="#63b8ff" d="M191.03,-97.28C201.79,-102.13 214.64,-108.03 224,-116.5 252.76,-142.52 271.59,-185.23 280.16,-204.85"/>
<polygon fill="#63b8ff" stroke="#63b8ff" points="192.44,-94.08 181.9,-93.08 189.52,-100.44 192.44,-94.08"/>
</a>
</g>
</g>
<!-- Node24&#45;&gt;Node22 -->
<g id="edge33_Node000024_Node000022" class="edge">
<title>Node24&#45;&gt;Node22</title>
<g id="a_edge33_Node000024_Node000022"><a xlink:title=" ">
<path fill="none" stroke="#63b8ff" d="M197.55,-59.28C206.86,-62.47 216.75,-66.71 224,-73.5 264.25,-111.23 278.92,-179.11 283.58,-204.82"/>
<polygon fill="#63b8ff" stroke="#63b8ff" points="198.42,-55.88 187.83,-56.14 196.28,-62.54 198.42,-55.88"/>
</a>
</g>
</g>
<!-- Node25&#45;&gt;Node22 -->
<g id="edge35_Node000025_Node000022" class="edge">
<title>Node25&#45;&gt;Node22</title>
<g id="a_edge35_Node000025_Node000022"><a xlink:title=" ">
<path fill="none" stroke="#63b8ff" d="M211.61,-341.47C216.07,-339.31 220.31,-336.66 224,-333.5 249.65,-311.48 243.37,-295.93 260,-266.5 268.11,-252.14 278.23,-235.41 282.91,-224.06"/>
<polygon fill="#63b8ff" stroke="#63b8ff" points="210.26,-338.23 202.27,-345.19 212.86,-344.74 210.26,-338.23"/>
</a>
</g>
</g>
<!-- Node26&#45;&gt;Node22 -->
<g id="edge38_Node000026_Node000022" class="edge">
<title>Node26&#45;&gt;Node22</title>
<g id="a_edge38_Node000026_Node000022"><a xlink:title=" ">
<path fill="none" stroke="#63b8ff" d="M215.61,-282.93C218.51,-281.56 221.33,-280.08 224,-278.5 248.39,-264.03 271.84,-239.04 281.22,-224.3"/>
<polygon fill="#63b8ff" stroke="#63b8ff" points="214.08,-279.78 206.2,-286.86 216.78,-286.23 214.08,-279.78"/>
</a>
</g>
</g>
<!-- Node26&#45;&gt;Node26 -->
<g id="edge37_Node000026_Node000026" class="edge">
<title>Node26&#45;&gt;Node26</title>
<g id="a_edge37_Node000026_Node000026"><a xlink:title=" ">
<path fill="none" stroke="#63b8ff" d="M190.98,-307.55C189.55,-312.38 182.39,-316 169.5,-316 148.88,-316 142.92,-306.73 151.62,-298.08"/>
<polygon fill="#63b8ff" stroke="#63b8ff" points="194.2,-306.19 187.38,-298.08 187.66,-308.67 194.2,-306.19"/>
</a>
</g>
</g>
<!-- Node27&#45;&gt;Node22 -->
<g id="edge40_Node000027_Node000022" class="edge">
<title>Node27&#45;&gt;Node22</title>
<g id="a_edge40_Node000027_Node000022"><a xlink:title=" ">
<path fill="none" stroke="#63b8ff" d="M219.1,-242.54C237.6,-236.89 257.36,-229.89 270.47,-224.07"/>
<polygon fill="#63b8ff" stroke="#63b8ff" points="217.89,-239.25 209.29,-245.44 219.87,-245.96 217.89,-239.25"/>
</a>
</g>
</g>
<!-- Node28&#45;&gt;Node22 -->
<g id="edge42_Node000028_Node000022" class="edge">
<title>Node28&#45;&gt;Node22</title>
<g id="a_edge42_Node000028_Node000022"><a xlink:title=" ">
<path fill="none" stroke="#63b8ff" d="M234.45,-221.21C243.47,-221.11 252.29,-220.78 259.98,-220.22"/>
<polygon fill="#63b8ff" stroke="#63b8ff" points="234.2,-217.71 224.21,-221.24 234.22,-224.71 234.2,-217.71"/>
</a>
</g>
</g>
<!-- Node29&#45;&gt;Node20 -->
<g id="edge44_Node000029_Node000020" class="edge">
<title>Node29&#45;&gt;Node20</title>
<g id="a_edge44_Node000029_Node000020"><a xlink:title=" ">
<path fill="none" stroke="#63b8ff" d="M211.76,-22.43C215.94,-24.02 220.09,-25.72 224,-27.5 327.66,-74.68 442.56,-150.48 481.63,-176.98"/>
<polygon fill="#63b8ff" stroke="#63b8ff" points="212.63,-19.02 202.04,-18.91 210.25,-25.6 212.63,-19.02"/>
</a>
</g>
</g>
<!-- Node30&#45;&gt;Node30 -->
<g id="edge48_Node000030_Node000030" class="edge">
<title>Node30&#45;&gt;Node30</title>
<g id="a_edge48_Node000030_Node000030"><a xlink:title=" ">
<path fill="none" stroke="#63b8ff" d="M190.98,-178.55C189.55,-183.38 182.39,-187 169.5,-187 148.88,-187 142.92,-177.73 151.62,-169.08"/>
<polygon fill="#63b8ff" stroke="#63b8ff" points="194.2,-177.19 187.38,-169.08 187.66,-179.67 194.2,-177.19"/>
</a>
</g>
</g>
<!-- Node31 -->
<g id="Node000031" class="node">
<title>Node31</title>
<g id="a_Node000031"><a xlink:href="ast__run_8c.html#a24d0223822f7b635628199085c3283be" target="_top" xlink:title=" ">
<polygon fill="white" stroke="#666666" points="79,-150 0,-150 0,-131 79,-131 79,-150"/>
<text text-anchor="middle" x="39.5" y="-138" font-family="Helvetica,sans-Serif" font-size="10.00">ast_run_pipe</text>
</a>
</g>
</g>
<!-- Node30&#45;&gt;Node31 -->
<g id="edge46_Node000030_Node000031" class="edge">
<title>Node30&#45;&gt;Node31</title>
<g id="a_edge46_Node000030_Node000031"><a xlink:title=" ">
<path fill="none" stroke="#63b8ff" d="M126.62,-153.28C111.32,-151.01 94.09,-148.45 79.08,-146.23"/>
<polygon fill="#63b8ff" stroke="#63b8ff" points="126.45,-156.8 136.86,-154.8 127.48,-149.87 126.45,-156.8"/>
</a>
</g>
</g>
<!-- Node31&#45;&gt;Node22 -->
<g id="edge47_Node000031_Node000022" class="edge">
<title>Node31&#45;&gt;Node22</title>
<g id="a_edge47_Node000031_Node000022"><a xlink:title=" ">
<path fill="none" stroke="#63b8ff" d="M89.01,-129.67C127.48,-123.56 181.64,-120.63 224,-140.5 252.73,-153.98 272.69,-188.21 281.07,-204.97"/>
<polygon fill="#63b8ff" stroke="#63b8ff" points="88.36,-126.23 79.09,-131.37 89.54,-133.13 88.36,-126.23"/>
</a>
</g>
</g>
<!-- Node32&#45;&gt;Node5 -->
<g id="edge52_Node000032_Node000005" class="edge">
<title>Node32&#45;&gt;Node5</title>
<g id="a_edge52_Node000032_Node000005"><a xlink:title=" ">
<path fill="none" stroke="#63b8ff" d="M1643.81,-285.86C1635.36,-285.26 1626.61,-284.63 1618.2,-284.04"/>
<polygon fill="#63b8ff" stroke="#63b8ff" points="1643.71,-289.36 1653.93,-286.58 1644.2,-282.38 1643.71,-289.36"/>
</a>
</g>
</g>
</g>
</svg>
