<?xml version="1.0" encoding="UTF-8" standalone="no"?>
<!DOCTYPE svg PUBLIC "-//W3C//DTD SVG 1.1//EN"
 "http://www.w3.org/Graphics/SVG/1.1/DTD/svg11.dtd">
<!-- Generated by graphviz version 2.43.0 (0)
 -->
<!-- Title: src/parser/parser_rules.c Pages: 1 -->
<svg width="411pt" height="357pt"
 viewBox="0.00 0.00 411.00 357.00" xmlns="http://www.w3.org/2000/svg" xmlns:xlink="http://www.w3.org/1999/xlink">
<g id="graph0" class="graph" transform="scale(1 1) rotate(0) translate(4 353)">
<title>src/parser/parser_rules.c</title>
<!-- Node1 -->
<g id="Node000001" class="node">
<title>Node1</title>
<g id="a_Node000001"><a xlink:title=" ">
<polygon fill="#999999" stroke="#666666" points="192.5,-349 56.5,-349 56.5,-330 192.5,-330 192.5,-349"/>
<text text-anchor="middle" x="124.5" y="-337" font-family="Helvetica,sans-Serif" font-size="10.00">src/parser/parser_rules.c</text>
</a>
</g>
</g>
<!-- Node2 -->
<g id="Node000002" class="node">
<title>Node2</title>
<g id="a_Node000002"><a xlink:title=" ">
<polygon fill="#e0e0e0" stroke="#999999" points="53,-294 0,-294 0,-275 53,-275 53,-294"/>
<text text-anchor="middle" x="26.5" y="-282" font-family="Helvetica,sans-Serif" font-size="10.00">stdlib.h</text>
</a>
</g>
</g>
<!-- Node1&#45;&gt;Node2 -->
<g id="edge1_Node000001_Node000002" class="edge">
<title>Node1&#45;&gt;Node2</title>
<g id="a_edge1_Node000001_Node000002"><a xlink:title=" ">
<path fill="none" stroke="#63b8ff" d="M108.75,-329.98C93.27,-321.61 69.41,-308.7 51.36,-298.95"/>
<polygon fill="#63b8ff" stroke="#63b8ff" points="52.99,-295.85 42.53,-294.17 49.66,-302.01 52.99,-295.85"/>
</a>
</g>
</g>
<!-- Node3 -->
<g id="Node000003" class="node">
<title>Node3</title>
<g id="a_Node000003"><a xlink:title=" ">
<polygon fill="#e0e0e0" stroke="#999999" points="124,-294 71,-294 71,-275 124,-275 124,-294"/>
<text text-anchor="middle" x="97.5" y="-282" font-family="Helvetica,sans-Serif" font-size="10.00">string.h</text>
</a>
</g>
</g>
<!-- Node1&#45;&gt;Node3 -->
<g id="edge2_Node000001_Node000003" class="edge">
<title>Node1&#45;&gt;Node3</title>
<g id="a_edge2_Node000001_Node000003"><a xlink:title=" ">
<path fill="none" stroke="#63b8ff" d="M120.04,-329.75C116.38,-322.57 111.09,-312.18 106.55,-303.27"/>
<polygon fill="#63b8ff" stroke="#63b8ff" points="109.53,-301.41 101.88,-294.09 103.3,-304.59 109.53,-301.41"/>
</a>
</g>
</g>
<!-- Node4 -->
<g id="Node000004" class="node">
<title>Node4</title>
<g id="a_Node000004"><a xlink:href="ast__aux_8h.html" target="_top" xlink:title=" ">
<polygon fill="white" stroke="#666666" points="173,-239 82,-239 82,-220 173,-220 173,-239"/>
<text text-anchor="middle" x="127.5" y="-227" font-family="Helvetica,sans-Serif" font-size="10.00">../ast/ast_aux.h</text>
</a>
</g>
</g>
<!-- Node1&#45;&gt;Node4 -->
<g id="edge3_Node000001_Node000004" class="edge">
<title>Node1&#45;&gt;Node4</title>
<g id="a_edge3_Node000001_Node000004"><a xlink:title=" ">
<path fill="none" stroke="#63b8ff" d="M126.56,-329.7C128.54,-320.77 131.38,-306.51 132.5,-294 133.84,-278.99 132.33,-261.96 130.64,-249.32"/>
<polygon fill="#63b8ff" stroke="#63b8ff" points="134.05,-248.5 129.1,-239.13 127.13,-249.54 134.05,-248.5"/>
</a>
</g>
</g>
<!-- Node11 -->
<g id="Node000011" class="node">
<title>Node11</title>
<g id="a_Node000011"><a xlink:href="parser__aux_8h.html" target="_top" xlink:title=" ">
<polygon fill="white" stroke="#666666" points="309.5,-294 229.5,-294 229.5,-275 309.5,-275 309.5,-294"/>
<text text-anchor="middle" x="269.5" y="-282" font-family="Helvetica,sans-Serif" font-size="10.00">parser_aux.h</text>
</a>
</g>
</g>
<!-- Node1&#45;&gt;Node11 -->
<g id="edge11_Node000001_Node000011" class="edge">
<title>Node1&#45;&gt;Node11</title>
<g id="a_edge11_Node000001_Node000011"><a xlink:title=" ">
<path fill="none" stroke="#63b8ff" d="M147.8,-329.98C171.75,-321.23 209.28,-307.51 236.33,-297.62"/>
<polygon fill="#63b8ff" stroke="#63b8ff" points="237.59,-300.89 245.78,-294.17 235.19,-294.32 237.59,-300.89"/>
</a>
</g>
</g>
<!-- Node5 -->
<g id="Node000005" class="node">
<title>Node5</title>
<g id="a_Node000005"><a xlink:href="ast_8h.html" target="_top" xlink:title=" ">
<polygon fill="white" stroke="#666666" points="174,-184 133,-184 133,-165 174,-165 174,-184"/>
<text text-anchor="middle" x="153.5" y="-172" font-family="Helvetica,sans-Serif" font-size="10.00">ast.h</text>
</a>
</g>
</g>
<!-- Node4&#45;&gt;Node5 -->
<g id="edge4_Node000004_Node000005" class="edge">
<title>Node4&#45;&gt;Node5</title>
<g id="a_edge4_Node000004_Node000005"><a xlink:title=" ">
<path fill="none" stroke="#63b8ff" d="M131.79,-219.75C135.31,-212.57 140.41,-202.18 144.78,-193.27"/>
<polygon fill="#63b8ff" stroke="#63b8ff" points="148.02,-194.61 149.29,-184.09 141.74,-191.53 148.02,-194.61"/>
</a>
</g>
</g>
<!-- Node6 -->
<g id="Node000006" class="node">
<title>Node6</title>
<g id="a_Node000006"><a xlink:href="expand_8h.html" target="_top" xlink:title=" ">
<polygon fill="white" stroke="#666666" points="125.5,-129 15.5,-129 15.5,-110 125.5,-110 125.5,-129"/>
<text text-anchor="middle" x="70.5" y="-117" font-family="Helvetica,sans-Serif" font-size="10.00">../expand/expand.h</text>
</a>
</g>
</g>
<!-- Node5&#45;&gt;Node6 -->
<g id="edge5_Node000005_Node000006" class="edge">
<title>Node5&#45;&gt;Node6</title>
<g id="a_edge5_Node000005_Node000006"><a xlink:title=" ">
<path fill="none" stroke="#63b8ff" d="M140.16,-164.98C127.41,-156.84 107.95,-144.41 92.83,-134.76"/>
<polygon fill="#63b8ff" stroke="#63b8ff" points="94.39,-131.6 84.08,-129.17 90.62,-137.5 94.39,-131.6"/>
</a>
</g>
</g>
<!-- Node8 -->
<g id="Node000008" class="node">
<title>Node8</title>
<g id="a_Node000008"><a xlink:href="redir_8h.html" target="_top" xlink:title=" ">
<polygon fill="white" stroke="#666666" points="261.5,-129 181.5,-129 181.5,-110 261.5,-110 261.5,-129"/>
<text text-anchor="middle" x="221.5" y="-117" font-family="Helvetica,sans-Serif" font-size="10.00">../utils/redir.h</text>
</a>
</g>
</g>
<!-- Node5&#45;&gt;Node8 -->
<g id="edge7_Node000005_Node000008" class="edge">
<title>Node5&#45;&gt;Node8</title>
<g id="a_edge7_Node000005_Node000008"><a xlink:title=" ">
<path fill="none" stroke="#63b8ff" d="M164.43,-164.98C174.58,-157.07 189.92,-145.11 202.15,-135.58"/>
<polygon fill="#63b8ff" stroke="#63b8ff" points="204.64,-138.08 210.38,-129.17 200.34,-132.56 204.64,-138.08"/>
</a>
</g>
</g>
<!-- Node9 -->
<g id="Node000009" class="node">
<title>Node9</title>
<g id="a_Node000009"><a xlink:href="token_8h.html" target="_top" xlink:title=" ">
<polygon fill="white" stroke="#666666" points="255,-74 202,-74 202,-55 255,-55 255,-74"/>
<text text-anchor="middle" x="228.5" y="-62" font-family="Helvetica,sans-Serif" font-size="10.00">token.h</text>
</a>
</g>
</g>
<!-- Node5&#45;&gt;Node9 -->
<g id="edge10_Node000005_Node000009" class="edge">
<title>Node5&#45;&gt;Node9</title>
<g id="a_edge10_Node000005_Node000009"><a xlink:title=" ">
<path fill="none" stroke="#63b8ff" d="M154.4,-165C156.11,-152.12 160.76,-127.34 172.5,-110 180.74,-97.83 193.33,-87.4 204.49,-79.7"/>
<polygon fill="#63b8ff" stroke="#63b8ff" points="206.56,-82.53 213.02,-74.14 202.73,-76.67 206.56,-82.53"/>
</a>
</g>
</g>
<!-- Node7 -->
<g id="Node000007" class="node">
<title>Node7</title>
<g id="a_Node000007"><a xlink:href="hashmap_8h.html" target="_top" xlink:title=" ">
<polygon fill="white" stroke="#666666" points="106,-74 35,-74 35,-55 106,-55 106,-74"/>
<text text-anchor="middle" x="70.5" y="-62" font-family="Helvetica,sans-Serif" font-size="10.00">hashmap.h</text>
</a>
</g>
</g>
<!-- Node6&#45;&gt;Node7 -->
<g id="edge6_Node000006_Node000007" class="edge">
<title>Node6&#45;&gt;Node7</title>
<g id="a_edge6_Node000006_Node000007"><a xlink:title=" ">
<path fill="none" stroke="#63b8ff" d="M70.5,-109.75C70.5,-102.8 70.5,-92.85 70.5,-84.13"/>
<polygon fill="#63b8ff" stroke="#63b8ff" points="74,-84.09 70.5,-74.09 67,-84.09 74,-84.09"/>
</a>
</g>
</g>
<!-- Node8&#45;&gt;Node9 -->
<g id="edge8_Node000008_Node000009" class="edge">
<title>Node8&#45;&gt;Node9</title>
<g id="a_edge8_Node000008_Node000009"><a xlink:title=" ">
<path fill="none" stroke="#63b8ff" d="M222.66,-109.75C223.57,-102.8 224.89,-92.85 226.04,-84.13"/>
<polygon fill="#63b8ff" stroke="#63b8ff" points="229.53,-84.46 227.37,-74.09 222.59,-83.54 229.53,-84.46"/>
</a>
</g>
</g>
<!-- Node10 -->
<g id="Node000010" class="node">
<title>Node10</title>
<g id="a_Node000010"><a xlink:title=" ">
<polygon fill="#e0e0e0" stroke="#999999" points="314.5,-19 264.5,-19 264.5,0 314.5,0 314.5,-19"/>
<text text-anchor="middle" x="289.5" y="-7" font-family="Helvetica,sans-Serif" font-size="10.00">stdio.h</text>
</a>
</g>
</g>
<!-- Node9&#45;&gt;Node10 -->
<g id="edge9_Node000009_Node000010" class="edge">
<title>Node9&#45;&gt;Node10</title>
<g id="a_edge9_Node000009_Node000010"><a xlink:title=" ">
<path fill="none" stroke="#63b8ff" d="M238.3,-54.98C247.32,-47.15 260.91,-35.34 271.82,-25.86"/>
<polygon fill="#63b8ff" stroke="#63b8ff" points="274.27,-28.37 279.52,-19.17 269.68,-23.09 274.27,-28.37"/>
</a>
</g>
</g>
<!-- Node12 -->
<g id="Node000012" class="node">
<title>Node12</title>
<g id="a_Node000012"><a xlink:title=" ">
<polygon fill="#e0e0e0" stroke="#999999" points="247.5,-239 191.5,-239 191.5,-220 247.5,-220 247.5,-239"/>
<text text-anchor="middle" x="219.5" y="-227" font-family="Helvetica,sans-Serif" font-size="10.00">stddef.h</text>
</a>
</g>
</g>
<!-- Node11&#45;&gt;Node12 -->
<g id="edge12_Node000011_Node000012" class="edge">
<title>Node11&#45;&gt;Node12</title>
<g id="a_edge12_Node000011_Node000012"><a xlink:title=" ">
<path fill="none" stroke="#63b8ff" d="M261.24,-274.75C254.04,-267.11 243.39,-255.82 234.65,-246.56"/>
<polygon fill="#63b8ff" stroke="#63b8ff" points="237.01,-243.96 227.6,-239.09 231.92,-248.76 237.01,-243.96"/>
</a>
</g>
</g>
<!-- Node13 -->
<g id="Node000013" class="node">
<title>Node13</title>
<g id="a_Node000013"><a xlink:href="lexer_8h.html" target="_top" xlink:title=" ">
<polygon fill="white" stroke="#666666" points="403,-129 318,-129 318,-110 403,-110 403,-129"/>
<text text-anchor="middle" x="360.5" y="-117" font-family="Helvetica,sans-Serif" font-size="10.00">../lexer/lexer.h</text>
</a>
</g>
</g>
<!-- Node11&#45;&gt;Node13 -->
<g id="edge13_Node000011_Node000013" class="edge">
<title>Node11&#45;&gt;Node13</title>
<g id="a_edge13_Node000011_Node000013"><a xlink:title=" ">
<path fill="none" stroke="#63b8ff" d="M287.39,-274.85C301.2,-267.27 319.71,-254.97 330.5,-239 351.32,-208.18 357.7,-164.03 359.64,-139.24"/>
<polygon fill="#63b8ff" stroke="#63b8ff" points="363.15,-139.24 360.28,-129.04 356.16,-138.81 363.15,-139.24"/>
</a>
</g>
</g>
<!-- Node14 -->
<g id="Node000014" class="node">
<title>Node14</title>
<g id="a_Node000014"><a xlink:href="parser_8h.html" target="_top" xlink:title=" ">
<polygon fill="white" stroke="#666666" points="321.5,-239 265.5,-239 265.5,-220 321.5,-220 321.5,-239"/>
<text text-anchor="middle" x="293.5" y="-227" font-family="Helvetica,sans-Serif" font-size="10.00">parser.h</text>
</a>
</g>
</g>
<!-- Node11&#45;&gt;Node14 -->
<g id="edge16_Node000011_Node000014" class="edge">
<title>Node11&#45;&gt;Node14</title>
<g id="a_edge16_Node000011_Node000014"><a xlink:title=" ">
<path fill="none" stroke="#63b8ff" d="M273.46,-274.75C276.71,-267.57 281.42,-257.18 285.45,-248.27"/>
<polygon fill="#63b8ff" stroke="#63b8ff" points="288.67,-249.64 289.61,-239.09 282.3,-246.75 288.67,-249.64"/>
</a>
</g>
</g>
<!-- Node13&#45;&gt;Node9 -->
<g id="edge15_Node000013_Node000009" class="edge">
<title>Node13&#45;&gt;Node9</title>
<g id="a_edge15_Node000013_Node000009"><a xlink:title=" ">
<path fill="none" stroke="#63b8ff" d="M339.29,-109.98C317.77,-101.34 284.22,-87.87 259.67,-78.02"/>
<polygon fill="#63b8ff" stroke="#63b8ff" points="260.68,-74.65 250.09,-74.17 258.07,-81.14 260.68,-74.65"/>
</a>
</g>
</g>
<!-- Node13&#45;&gt;Node10 -->
<g id="edge14_Node000013_Node000010" class="edge">
<title>Node13&#45;&gt;Node10</title>
<g id="a_edge14_Node000013_Node000010"><a xlink:title=" ">
<path fill="none" stroke="#63b8ff" d="M354.69,-109.66C342.93,-91.77 316.13,-51 300.8,-27.69"/>
<polygon fill="#63b8ff" stroke="#63b8ff" points="303.61,-25.59 295.19,-19.16 297.76,-29.44 303.61,-25.59"/>
</a>
</g>
</g>
<!-- Node14&#45;&gt;Node5 -->
<g id="edge18_Node000014_Node000005" class="edge">
<title>Node14&#45;&gt;Node5</title>
<g id="a_edge18_Node000014_Node000005"><a xlink:title=" ">
<path fill="none" stroke="#63b8ff" d="M271.01,-219.98C247.29,-211.01 209.8,-196.82 183.57,-186.88"/>
<polygon fill="#63b8ff" stroke="#63b8ff" points="184.7,-183.57 174.11,-183.3 182.23,-190.12 184.7,-183.57"/>
</a>
</g>
</g>
<!-- Node14&#45;&gt;Node10 -->
<g id="edge17_Node000014_Node000010" class="edge">
<title>Node14&#45;&gt;Node10</title>
<g id="a_edge17_Node000014_Node000010"><a xlink:title=" ">
<path fill="none" stroke="#63b8ff" d="M293.34,-219.95C292.76,-187.95 290.68,-74.68 289.85,-29.4"/>
<polygon fill="#63b8ff" stroke="#63b8ff" points="293.34,-29.16 289.66,-19.22 286.34,-29.29 293.34,-29.16"/>
</a>
</g>
</g>
</g>
</svg>
