<?xml version="1.0" encoding="UTF-8" standalone="no"?>
<!DOCTYPE svg PUBLIC "-//W3C//DTD SVG 1.1//EN"
 "http://www.w3.org/Graphics/SVG/1.1/DTD/svg11.dtd">
<!-- Generated by graphviz version 2.43.0 (0)
 -->
<!-- Title: parser_elif Pages: 1 -->
<svg width="2281pt" height="446pt"
 viewBox="0.00 0.00 2281.00 445.77" xmlns="http://www.w3.org/2000/svg" xmlns:xlink="http://www.w3.org/1999/xlink">
<g id="graph0" class="graph" transform="scale(1 1) rotate(0) translate(4 441.77)">
<title>parser_elif</title>
<!-- Node1 -->
<g id="Node000001" class="node">
<title>Node1</title>
<g id="a_Node000001"><a xlink:title="Parse an elif block when called.">
<polygon fill="#999999" stroke="#666666" points="2273,-174 2205,-174 2205,-155 2273,-155 2273,-174"/>
<text text-anchor="middle" x="2239" y="-162" font-family="Helvetica,sans-Serif" font-size="10.00">parser_elif</text>
</a>
</g>
</g>
<!-- Node2 -->
<g id="Node000002" class="node">
<title>Node2</title>
<g id="a_Node000002"><a xlink:href="parser__rules_8c.html#adf5258219dad4f79fdbc7786eb925699" target="_top" xlink:title="Define which parser to use depending on the context.">
<polygon fill="white" stroke="#666666" points="2169,-174 2059,-174 2059,-155 2169,-155 2169,-174"/>
<text text-anchor="middle" x="2114" y="-162" font-family="Helvetica,sans-Serif" font-size="10.00">parser_else_clause</text>
</a>
</g>
</g>
<!-- Node1&#45;&gt;Node2 -->
<g id="edge1_Node000001_Node000002" class="edge">
<title>Node1&#45;&gt;Node2</title>
<g id="a_edge1_Node000001_Node000002"><a xlink:title=" ">
<path fill="none" stroke="#63b8ff" d="M2194.6,-158.02C2186.38,-157.77 2177.68,-157.69 2169.18,-157.79"/>
<polygon fill="#63b8ff" stroke="#63b8ff" points="2194.58,-161.52 2204.71,-158.43 2194.86,-154.52 2194.58,-161.52"/>
</a>
</g>
</g>
<!-- Node2&#45;&gt;Node1 -->
<g id="edge2_Node000002_Node000001" class="edge">
<title>Node2&#45;&gt;Node1</title>
<g id="a_edge2_Node000002_Node000001"><a xlink:title=" ">
<path fill="none" stroke="#63b8ff" d="M2179.43,-171.24C2188.18,-171.2 2196.84,-170.98 2204.71,-170.57"/>
<polygon fill="#63b8ff" stroke="#63b8ff" points="2179.19,-167.74 2169.18,-171.21 2179.17,-174.74 2179.19,-167.74"/>
</a>
</g>
</g>
<!-- Node3 -->
<g id="Node000003" class="node">
<title>Node3</title>
<g id="a_Node000003"><a xlink:href="parser__rules_8c.html#abf9e27d14e7a1c314285114bead78817" target="_top" xlink:title="Handle a &#39;if&#39; block by calling corresponding parser at each step.">
<polygon fill="white" stroke="#666666" points="2023,-212 1940,-212 1940,-193 2023,-193 2023,-212"/>
<text text-anchor="middle" x="1981.5" y="-200" font-family="Helvetica,sans-Serif" font-size="10.00">parser_rule_if</text>
</a>
</g>
</g>
<!-- Node2&#45;&gt;Node3 -->
<g id="edge3_Node000002_Node000003" class="edge">
<title>Node2&#45;&gt;Node3</title>
<g id="a_edge3_Node000002_Node000003"><a xlink:title=" ">
<path fill="none" stroke="#63b8ff" d="M2070.45,-176.89C2052.58,-182.09 2032.11,-188.05 2015.42,-192.91"/>
<polygon fill="#63b8ff" stroke="#63b8ff" points="2071.45,-180.25 2080.07,-174.09 2069.49,-173.52 2071.45,-180.25"/>
</a>
</g>
</g>
<!-- Node4 -->
<g id="Node000004" class="node">
<title>Node4</title>
<g id="a_Node000004"><a xlink:href="parser__commands_8c.html#ad98fbb958a265134e775b69579e28835" target="_top" xlink:title="Handle a shell command block by calling corresponding parser at each step.">
<polygon fill="white" stroke="#666666" points="1904,-326 1774,-326 1774,-307 1904,-307 1904,-326"/>
<text text-anchor="middle" x="1839" y="-314" font-family="Helvetica,sans-Serif" font-size="10.00">parser_shell_command</text>
</a>
</g>
</g>
<!-- Node3&#45;&gt;Node4 -->
<g id="edge4_Node000003_Node000004" class="edge">
<title>Node3&#45;&gt;Node4</title>
<g id="a_edge4_Node000003_Node000004"><a xlink:title=" ">
<path fill="none" stroke="#63b8ff" d="M1960.52,-218.71C1930.86,-242.77 1876.08,-287.22 1851.95,-306.81"/>
<polygon fill="#63b8ff" stroke="#63b8ff" points="1962.96,-221.24 1968.52,-212.22 1958.55,-215.8 1962.96,-221.24"/>
</a>
</g>
</g>
<!-- Node5 -->
<g id="Node000005" class="node">
<title>Node5</title>
<g id="a_Node000005"><a xlink:href="parser__commands_8c.html#aa7191f56bd8e70874c5c381e52186807" target="_top" xlink:title="Parse a command which can be either a simple command or a shell command.">
<polygon fill="white" stroke="#666666" points="1618,-345 1517,-345 1517,-326 1618,-326 1618,-345"/>
<text text-anchor="middle" x="1567.5" y="-333" font-family="Helvetica,sans-Serif" font-size="10.00">parser_command</text>
</a>
</g>
</g>
<!-- Node4&#45;&gt;Node5 -->
<g id="edge5_Node000004_Node000005" class="edge">
<title>Node4&#45;&gt;Node5</title>
<g id="a_edge5_Node000004_Node000005"><a xlink:title=" ">
<path fill="none" stroke="#63b8ff" d="M1787.33,-328.04C1771.61,-331.1 1754.16,-333.98 1738,-335.5 1697.86,-339.28 1652.14,-339.01 1618.31,-337.95"/>
<polygon fill="#63b8ff" stroke="#63b8ff" points="1788.27,-331.42 1797.38,-326.01 1786.88,-324.56 1788.27,-331.42"/>
</a>
</g>
</g>
<!-- Node32 -->
<g id="Node000032" class="node">
<title>Node32</title>
<g id="a_Node000032"><a xlink:href="parser__commands_8c.html#a14408e6904da17fc6899bba03f7a5f5a" target="_top" xlink:title="Handle a function definition and add it to the dictionnary.">
<polygon fill="white" stroke="#666666" points="1738,-326 1654,-326 1654,-307 1738,-307 1738,-326"/>
<text text-anchor="middle" x="1696" y="-314" font-family="Helvetica,sans-Serif" font-size="10.00">parser_fundef</text>
</a>
</g>
</g>
<!-- Node4&#45;&gt;Node32 -->
<g id="edge51_Node000004_Node000032" class="edge">
<title>Node4&#45;&gt;Node32</title>
<g id="a_edge51_Node000004_Node000032"><a xlink:title=" ">
<path fill="none" stroke="#63b8ff" d="M1763.49,-316.5C1754.81,-316.5 1746.21,-316.5 1738.21,-316.5"/>
<polygon fill="#63b8ff" stroke="#63b8ff" points="1763.69,-320 1773.69,-316.5 1763.69,-313 1763.69,-320"/>
</a>
</g>
</g>
<!-- Node6 -->
<g id="Node000006" class="node">
<title>Node6</title>
<g id="a_Node000006"><a xlink:href="parser__pipelines_8c.html#a06068cdf8924fb28f414f419d84a5eae" target="_top" xlink:title="Parse and_or blocks separated by &#39;|&#39; (pipes)">
<polygon fill="white" stroke="#666666" points="1481,-345 1389,-345 1389,-326 1481,-326 1481,-345"/>
<text text-anchor="middle" x="1435" y="-333" font-family="Helvetica,sans-Serif" font-size="10.00">parser_pipeline</text>
</a>
</g>
</g>
<!-- Node5&#45;&gt;Node6 -->
<g id="edge6_Node000005_Node000006" class="edge">
<title>Node5&#45;&gt;Node6</title>
<g id="a_edge6_Node000005_Node000006"><a xlink:title=" ">
<path fill="none" stroke="#63b8ff" d="M1506.53,-335.5C1498.05,-335.5 1489.44,-335.5 1481.29,-335.5"/>
<polygon fill="#63b8ff" stroke="#63b8ff" points="1506.79,-339 1516.79,-335.5 1506.79,-332 1506.79,-339"/>
</a>
</g>
</g>
<!-- Node7 -->
<g id="Node000007" class="node">
<title>Node7</title>
<g id="a_Node000007"><a xlink:href="parser__pipelines_8c.html#a85ca4872d7efdb8b0cd643037ccd5763" target="_top" xlink:title="Parse and_or blocks separated by &#39;&amp;&amp;&#39; or &#39;||&#39;.">
<polygon fill="white" stroke="#666666" points="1353,-345 1267,-345 1267,-326 1353,-326 1353,-345"/>
<text text-anchor="middle" x="1310" y="-333" font-family="Helvetica,sans-Serif" font-size="10.00">parser_and_or</text>
</a>
</g>
</g>
<!-- Node6&#45;&gt;Node7 -->
<g id="edge7_Node000006_Node000007" class="edge">
<title>Node6&#45;&gt;Node7</title>
<g id="a_edge7_Node000006_Node000007"><a xlink:title=" ">
<path fill="none" stroke="#63b8ff" d="M1378.62,-335.5C1370.1,-335.5 1361.41,-335.5 1353.24,-335.5"/>
<polygon fill="#63b8ff" stroke="#63b8ff" points="1378.9,-339 1388.9,-335.5 1378.9,-332 1378.9,-339"/>
</a>
</g>
</g>
<!-- Node8 -->
<g id="Node000008" class="node">
<title>Node8</title>
<g id="a_Node000008"><a xlink:href="parser__lists_8c.html#aae7a5d6760b83c1a37b0369f82a20500" target="_top" xlink:title="Absorb a chain of and_or separeted by &#39;;&#39; or &#39; &#39;.">
<polygon fill="white" stroke="#666666" points="1231,-250 1107,-250 1107,-231 1231,-231 1231,-250"/>
<text text-anchor="middle" x="1169" y="-238" font-family="Helvetica,sans-Serif" font-size="10.00">parser_compound_list</text>
</a>
</g>
</g>
<!-- Node7&#45;&gt;Node8 -->
<g id="edge8_Node000007_Node000008" class="edge">
<title>Node7&#45;&gt;Node8</title>
<g id="a_edge8_Node000007_Node000008"><a xlink:title=" ">
<path fill="none" stroke="#63b8ff" d="M1286.28,-319.97C1257.34,-300.19 1208.2,-266.61 1184.13,-250.16"/>
<polygon fill="#63b8ff" stroke="#63b8ff" points="1284.68,-323.12 1294.91,-325.87 1288.63,-317.34 1284.68,-323.12"/>
</a>
</g>
</g>
<!-- Node13 -->
<g id="Node000013" class="node">
<title>Node13</title>
<g id="a_Node000013"><a xlink:href="parser__lists_8c.html#a7b9812922acfb4eba24e65d40bd99001" target="_top" xlink:title="Parse list block into sub and_or block(s) separated by semi&#45;colons.">
<polygon fill="white" stroke="#666666" points="1203,-354 1135,-354 1135,-335 1203,-335 1203,-354"/>
<text text-anchor="middle" x="1169" y="-342" font-family="Helvetica,sans-Serif" font-size="10.00">parser_list</text>
</a>
</g>
</g>
<!-- Node7&#45;&gt;Node13 -->
<g id="edge20_Node000007_Node000013" class="edge">
<title>Node7&#45;&gt;Node13</title>
<g id="a_edge20_Node000007_Node000013"><a xlink:title=" ">
<path fill="none" stroke="#63b8ff" d="M1256.84,-338.88C1238.83,-340.04 1219.17,-341.32 1203.12,-342.36"/>
<polygon fill="#63b8ff" stroke="#63b8ff" points="1257.17,-342.36 1266.92,-338.22 1256.71,-335.38 1257.17,-342.36"/>
</a>
</g>
</g>
<!-- Node8&#45;&gt;Node1 -->
<g id="edge9_Node000008_Node000001" class="edge">
<title>Node8&#45;&gt;Node1</title>
<g id="a_edge9_Node000008_Node000001"><a xlink:title=" ">
<path fill="none" stroke="#63b8ff" d="M1188.17,-224.21C1206.74,-208.36 1237.04,-184.66 1267,-170.5 1336.4,-137.71 1357.24,-126.5 1434,-126.5 1982.5,-126.5 1982.5,-126.5 1982.5,-126.5 2065.82,-126.5 2087.11,-130.16 2169,-145.5 2181.82,-147.9 2195.74,-151.53 2207.69,-154.97"/>
<polygon fill="#63b8ff" stroke="#63b8ff" points="1185.75,-221.67 1180.5,-230.88 1190.35,-226.95 1185.75,-221.67"/>
</a>
</g>
</g>
<!-- Node8&#45;&gt;Node2 -->
<g id="edge10_Node000008_Node000002" class="edge">
<title>Node8&#45;&gt;Node2</title>
<g id="a_edge10_Node000008_Node000002"><a xlink:title=" ">
<path fill="none" stroke="#63b8ff" d="M1198.39,-226.62C1245.94,-204.69 1345.2,-164.5 1434,-164.5 1840,-164.5 1840,-164.5 1840,-164.5 1915.95,-164.5 2003.79,-164.5 2058.87,-164.5"/>
<polygon fill="#63b8ff" stroke="#63b8ff" points="1196.89,-223.46 1189.32,-230.87 1199.86,-229.8 1196.89,-223.46"/>
</a>
</g>
</g>
<!-- Node8&#45;&gt;Node3 -->
<g id="edge15_Node000008_Node000003" class="edge">
<title>Node8&#45;&gt;Node3</title>
<g id="a_edge15_Node000008_Node000003"><a xlink:title=" ">
<path fill="none" stroke="#63b8ff" d="M1220.71,-228.81C1273.63,-217.64 1359.18,-202.5 1434,-202.5 1697,-202.5 1697,-202.5 1697,-202.5 1783.38,-202.5 1884.56,-202.5 1939.66,-202.5"/>
<polygon fill="#63b8ff" stroke="#63b8ff" points="1219.94,-225.39 1210.89,-230.91 1221.4,-232.24 1219.94,-225.39"/>
</a>
</g>
</g>
<!-- Node9 -->
<g id="Node000009" class="node">
<title>Node9</title>
<g id="a_Node000009"><a xlink:href="parser__rules_8c.html#afb9701776de31af668314b48a0b54636" target="_top" xlink:title="Handle a command block enclosed in brackets.">
<polygon fill="white" stroke="#666666" points="1071,-217.5 946,-217.5 946,-187.5 1071,-187.5 1071,-217.5"/>
<text text-anchor="start" x="954" y="-205.5" font-family="Helvetica,sans-Serif" font-size="10.00">parser_rule_command</text>
<text text-anchor="middle" x="1008.5" y="-194.5" font-family="Helvetica,sans-Serif" font-size="10.00">_block</text>
</a>
</g>
</g>
<!-- Node8&#45;&gt;Node9 -->
<g id="edge11_Node000008_Node000009" class="edge">
<title>Node8&#45;&gt;Node9</title>
<g id="a_edge11_Node000008_Node000009"><a xlink:title=" ">
<path fill="none" stroke="#63b8ff" d="M1117.99,-228.51C1103.1,-224.94 1086.62,-220.99 1071.09,-217.27"/>
<polygon fill="#63b8ff" stroke="#63b8ff" points="1117.46,-231.98 1128,-230.91 1119.1,-225.18 1117.46,-231.98"/>
</a>
</g>
</g>
<!-- Node10 -->
<g id="Node000010" class="node">
<title>Node10</title>
<g id="a_Node000010"><a xlink:href="parser__rules_8c.html#a55dc38591d3749d39ca3f38f8a2a26dd" target="_top" xlink:title="Handle a for block by calling corresponding parser at each step.">
<polygon fill="white" stroke="#666666" points="1053.5,-329 963.5,-329 963.5,-310 1053.5,-310 1053.5,-329"/>
<text text-anchor="middle" x="1008.5" y="-317" font-family="Helvetica,sans-Serif" font-size="10.00">parser_rule_for</text>
</a>
</g>
</g>
<!-- Node8&#45;&gt;Node10 -->
<g id="edge13_Node000008_Node000010" class="edge">
<title>Node8&#45;&gt;Node10</title>
<g id="a_edge13_Node000008_Node000010"><a xlink:title=" ">
<path fill="none" stroke="#63b8ff" d="M1146.93,-256.16C1127.9,-269.71 1098.72,-289.02 1071,-301.5 1063.8,-304.74 1055.86,-307.57 1048.15,-309.97"/>
<polygon fill="#63b8ff" stroke="#63b8ff" points="1149.11,-258.91 1155.16,-250.21 1145.01,-253.24 1149.11,-258.91"/>
</a>
</g>
</g>
<!-- Node11 -->
<g id="Node000011" class="node">
<title>Node11</title>
<g id="a_Node000011"><a xlink:href="parser__rules_8c.html#abf1c3edda1bb73d8c86028687922ce95" target="_top" xlink:title="Handle a &#39;until&#39; block by calling corresponding parser at each step.">
<polygon fill="white" stroke="#666666" points="1057.5,-292 959.5,-292 959.5,-273 1057.5,-273 1057.5,-292"/>
<text text-anchor="middle" x="1008.5" y="-280" font-family="Helvetica,sans-Serif" font-size="10.00">parser_rule_until</text>
</a>
</g>
</g>
<!-- Node8&#45;&gt;Node11 -->
<g id="edge16_Node000008_Node000011" class="edge">
<title>Node8&#45;&gt;Node11</title>
<g id="a_edge16_Node000008_Node000011"><a xlink:title=" ">
<path fill="none" stroke="#63b8ff" d="M1122.29,-252.61C1097.91,-259.07 1068.34,-266.91 1045.6,-272.93"/>
<polygon fill="#63b8ff" stroke="#63b8ff" points="1123.26,-255.98 1132.03,-250.03 1121.47,-249.21 1123.26,-255.98"/>
</a>
</g>
</g>
<!-- Node12 -->
<g id="Node000012" class="node">
<title>Node12</title>
<g id="a_Node000012"><a xlink:href="parser__rules_8c.html#aa6719ad356821f03ad45b1ac0a57d3bd" target="_top" xlink:title="Handle a &#39;while&#39; block by calling corresponding parser at each step.">
<polygon fill="white" stroke="#666666" points="1060,-255 957,-255 957,-236 1060,-236 1060,-255"/>
<text text-anchor="middle" x="1008.5" y="-243" font-family="Helvetica,sans-Serif" font-size="10.00">parser_rule_while</text>
</a>
</g>
</g>
<!-- Node8&#45;&gt;Node12 -->
<g id="edge18_Node000008_Node000012" class="edge">
<title>Node8&#45;&gt;Node12</title>
<g id="a_edge18_Node000008_Node000012"><a xlink:title=" ">
<path fill="none" stroke="#63b8ff" d="M1096.49,-242.76C1084.21,-243.14 1071.68,-243.54 1060.09,-243.9"/>
<polygon fill="#63b8ff" stroke="#63b8ff" points="1096.84,-246.25 1106.72,-242.43 1096.61,-239.25 1096.84,-246.25"/>
</a>
</g>
</g>
<!-- Node9&#45;&gt;Node4 -->
<g id="edge12_Node000009_Node000004" class="edge">
<title>Node9&#45;&gt;Node4</title>
<g id="a_edge12_Node000009_Node000004"><a xlink:title=" ">
<path fill="none" stroke="#63b8ff" d="M1081.54,-208.99C1202.09,-219.84 1431.82,-240.5 1434,-240.5 1568.5,-240.5 1568.5,-240.5 1568.5,-240.5 1665.24,-240.5 1774.43,-286.42 1818.26,-306.87"/>
<polygon fill="#63b8ff" stroke="#63b8ff" points="1081.56,-205.48 1071.29,-208.07 1080.93,-212.45 1081.56,-205.48"/>
</a>
</g>
</g>
<!-- Node10&#45;&gt;Node4 -->
<g id="edge14_Node000010_Node000004" class="edge">
<title>Node10&#45;&gt;Node4</title>
<g id="a_edge14_Node000010_Node000004"><a xlink:title=" ">
<path fill="none" stroke="#63b8ff" d="M1062.78,-332.86C1065.69,-334.53 1068.46,-336.4 1071,-338.5 1097.34,-360.31 1078.8,-387.16 1107,-406.5 1181.56,-457.63 1218.59,-430.5 1309,-430.5 1568.5,-430.5 1568.5,-430.5 1568.5,-430.5 1644.58,-430.5 1669.06,-438.68 1738,-406.5 1779.27,-387.23 1815.69,-345.1 1830.7,-326.11"/>
<polygon fill="#63b8ff" stroke="#63b8ff" points="1064.21,-329.67 1053.69,-328.47 1061.16,-335.97 1064.21,-329.67"/>
</a>
</g>
</g>
<!-- Node11&#45;&gt;Node4 -->
<g id="edge17_Node000011_Node000004" class="edge">
<title>Node11&#45;&gt;Node4</title>
<g id="a_edge17_Node000011_Node000004"><a xlink:title=" ">
<path fill="none" stroke="#63b8ff" d="M1063.65,-296.53C1066.23,-298.02 1068.7,-299.67 1071,-301.5 1095.93,-321.34 1080.59,-345.68 1107,-363.5 1182.18,-414.24 1218.3,-392.5 1309,-392.5 1568.5,-392.5 1568.5,-392.5 1568.5,-392.5 1665.24,-392.5 1774.43,-346.58 1818.26,-326.13"/>
<polygon fill="#63b8ff" stroke="#63b8ff" points="1065.01,-293.3 1054.49,-292.03 1061.93,-299.58 1065.01,-293.3"/>
</a>
</g>
</g>
<!-- Node12&#45;&gt;Node4 -->
<g id="edge19_Node000012_Node000004" class="edge">
<title>Node12&#45;&gt;Node4</title>
<g id="a_edge19_Node000012_Node000004"><a xlink:title=" ">
<path fill="none" stroke="#63b8ff" d="M1070.3,-256.16C1130.66,-265.8 1225.92,-278.5 1309,-278.5 1568.5,-278.5 1568.5,-278.5 1568.5,-278.5 1649.77,-278.5 1743.49,-295.65 1796.24,-306.91"/>
<polygon fill="#63b8ff" stroke="#63b8ff" points="1070.62,-252.66 1060.19,-254.52 1069.5,-259.57 1070.62,-252.66"/>
</a>
</g>
</g>
<!-- Node14 -->
<g id="Node000014" class="node">
<title>Node14</title>
<g id="a_Node000014"><a xlink:href="parser_8c.html#a620dffcc9a167cdee6e67de1191e5277" target="_top" xlink:title="Parse the input of our shell into list.">
<polygon fill="white" stroke="#666666" points="1032,-366 985,-366 985,-347 1032,-347 1032,-366"/>
<text text-anchor="middle" x="1008.5" y="-354" font-family="Helvetica,sans-Serif" font-size="10.00">parser</text>
</a>
</g>
</g>
<!-- Node13&#45;&gt;Node14 -->
<g id="edge21_Node000013_Node000014" class="edge">
<title>Node13&#45;&gt;Node14</title>
<g id="a_edge21_Node000013_Node000014"><a xlink:title=" ">
<path fill="none" stroke="#63b8ff" d="M1124.63,-347.78C1094.85,-350.04 1056.49,-352.94 1032.44,-354.76"/>
<polygon fill="#63b8ff" stroke="#63b8ff" points="1125.07,-351.26 1134.77,-347.02 1124.54,-344.28 1125.07,-351.26"/>
</a>
</g>
</g>
<!-- Node15 -->
<g id="Node000015" class="node">
<title>Node15</title>
<g id="a_Node000015"><a xlink:href="42sh_8c.html#a3c04138a5bfe5d72780bb7e82a18e627" target="_top" xlink:title=" ">
<polygon fill="white" stroke="#666666" points="190,-390 149,-390 149,-371 190,-371 190,-390"/>
<text text-anchor="middle" x="169.5" y="-378" font-family="Helvetica,sans-Serif" font-size="10.00">main</text>
</a>
</g>
</g>
<!-- Node14&#45;&gt;Node15 -->
<g id="edge22_Node000014_Node000015" class="edge">
<title>Node14&#45;&gt;Node15</title>
<g id="a_edge22_Node000014_Node000015"><a xlink:title=" ">
<path fill="none" stroke="#63b8ff" d="M974.86,-361.28C931.57,-367.2 852.72,-376.5 785,-376.5 785,-376.5 785,-376.5 387.5,-376.5 314.78,-376.5 228.37,-378.77 190.24,-379.89"/>
<polygon fill="#63b8ff" stroke="#63b8ff" points="975.4,-364.74 984.82,-359.89 974.43,-357.81 975.4,-364.74"/>
</a>
</g>
</g>
<!-- Node16 -->
<g id="Node000016" class="node">
<title>Node16</title>
<g id="a_Node000016"><a xlink:href="dot_8c.html#a17477ee2b0f1b8b9306566c990d15b35" target="_top" xlink:title="Main loop of dot builtin.">
<polygon fill="white" stroke="#666666" points="910,-323 842,-323 842,-304 910,-304 910,-323"/>
<text text-anchor="middle" x="876" y="-311" font-family="Helvetica,sans-Serif" font-size="10.00">main_loop</text>
</a>
</g>
</g>
<!-- Node14&#45;&gt;Node16 -->
<g id="edge23_Node000014_Node000016" class="edge">
<title>Node14&#45;&gt;Node16</title>
<g id="a_edge23_Node000014_Node000016"><a xlink:title=" ">
<path fill="none" stroke="#63b8ff" d="M975.1,-347.43C965.68,-344.68 955.4,-341.57 946,-338.5 931.35,-333.71 915.13,-327.86 902.1,-323.03"/>
<polygon fill="#63b8ff" stroke="#63b8ff" points="974.33,-350.85 984.9,-350.25 976.26,-344.12 974.33,-350.85"/>
</a>
</g>
</g>
<!-- Node17 -->
<g id="Node000017" class="node">
<title>Node17</title>
<g id="a_Node000017"><a xlink:href="dot_8c.html#a713938d3c6ee343132c429642048bcf6" target="_top" xlink:title="Execute the dot builtin cmd.">
<polygon fill="white" stroke="#666666" points="806,-323 762,-323 762,-304 806,-304 806,-323"/>
<text text-anchor="middle" x="784" y="-311" font-family="Helvetica,sans-Serif" font-size="10.00">dot_b</text>
</a>
</g>
</g>
<!-- Node16&#45;&gt;Node17 -->
<g id="edge24_Node000016_Node000017" class="edge">
<title>Node16&#45;&gt;Node17</title>
<g id="a_edge24_Node000016_Node000017"><a xlink:title=" ">
<path fill="none" stroke="#63b8ff" d="M831.72,-313.5C822.86,-313.5 813.9,-313.5 806.24,-313.5"/>
<polygon fill="#63b8ff" stroke="#63b8ff" points="832,-317 842,-313.5 832,-310 832,-317"/>
</a>
</g>
</g>
<!-- Node18 -->
<g id="Node000018" class="node">
<title>Node18</title>
<g id="a_Node000018"><a xlink:href="exec_8c.html#abaeb177587c7eec6a064b35bb8399cae" target="_top" xlink:title="Execute builtin cmd with given args.">
<polygon fill="white" stroke="#666666" points="726,-323 651,-323 651,-304 726,-304 726,-323"/>
<text text-anchor="middle" x="688.5" y="-311" font-family="Helvetica,sans-Serif" font-size="10.00">exec_builtin</text>
</a>
</g>
</g>
<!-- Node17&#45;&gt;Node18 -->
<g id="edge25_Node000017_Node000018" class="edge">
<title>Node17&#45;&gt;Node18</title>
<g id="a_edge25_Node000017_Node000018"><a xlink:title=" ">
<path fill="none" stroke="#63b8ff" d="M751.53,-313.5C743.35,-313.5 734.47,-313.5 726.05,-313.5"/>
<polygon fill="#63b8ff" stroke="#63b8ff" points="751.78,-317 761.78,-313.5 751.78,-310 751.78,-317"/>
</a>
</g>
</g>
<!-- Node19 -->
<g id="Node000019" class="node">
<title>Node19</title>
<g id="a_Node000019"><a xlink:href="exec_8c.html#a287d81b4658832f192750310e2925917" target="_top" xlink:title="Execute the builtin command with given args.">
<polygon fill="white" stroke="#666666" points="615,-323 565,-323 565,-304 615,-304 615,-323"/>
<text text-anchor="middle" x="590" y="-311" font-family="Helvetica,sans-Serif" font-size="10.00">exec_b</text>
</a>
</g>
</g>
<!-- Node18&#45;&gt;Node19 -->
<g id="edge26_Node000018_Node000019" class="edge">
<title>Node18&#45;&gt;Node19</title>
<g id="a_edge26_Node000018_Node000019"><a xlink:title=" ">
<path fill="none" stroke="#63b8ff" d="M640.51,-313.5C631.71,-313.5 622.86,-313.5 615.12,-313.5"/>
<polygon fill="#63b8ff" stroke="#63b8ff" points="640.74,-317 650.74,-313.5 640.74,-310 640.74,-317"/>
</a>
</g>
</g>
<!-- Node20 -->
<g id="Node000020" class="node">
<title>Node20</title>
<g id="a_Node000020"><a xlink:href="exec_8c.html#ae65edaa99b26b49d60c451157d38b34a" target="_top" xlink:title="Execute les commandes avec les args donnes.">
<polygon fill="white" stroke="#666666" points="529,-323 464,-323 464,-304 529,-304 529,-323"/>
<text text-anchor="middle" x="496.5" y="-311" font-family="Helvetica,sans-Serif" font-size="10.00">exec_cmd</text>
</a>
</g>
</g>
<!-- Node19&#45;&gt;Node20 -->
<g id="edge27_Node000019_Node000020" class="edge">
<title>Node19&#45;&gt;Node20</title>
<g id="a_edge27_Node000019_Node000020"><a xlink:title=" ">
<path fill="none" stroke="#63b8ff" d="M554.77,-313.5C546.42,-313.5 537.53,-313.5 529.3,-313.5"/>
<polygon fill="#63b8ff" stroke="#63b8ff" points="554.96,-317 564.96,-313.5 554.96,-310 554.96,-317"/>
</a>
</g>
</g>
<!-- Node21 -->
<g id="Node000021" class="node">
<title>Node21</title>
<g id="a_Node000021"><a xlink:href="ast__run_8c.html#aeb6878a59c6907e5669fc3cc428913d9" target="_top" xlink:title=" ">
<polygon fill="white" stroke="#666666" points="428,-300 349,-300 349,-281 428,-281 428,-300"/>
<text text-anchor="middle" x="388.5" y="-288" font-family="Helvetica,sans-Serif" font-size="10.00">ast_run_cmd</text>
</a>
</g>
</g>
<!-- Node20&#45;&gt;Node21 -->
<g id="edge28_Node000020_Node000021" class="edge">
<title>Node20&#45;&gt;Node21</title>
<g id="a_edge28_Node000020_Node000021"><a xlink:title=" ">
<path fill="none" stroke="#63b8ff" d="M454.2,-304.54C445.65,-302.68 436.67,-300.73 428.21,-298.9"/>
<polygon fill="#63b8ff" stroke="#63b8ff" points="453.47,-307.96 463.98,-306.66 454.95,-301.12 453.47,-307.96"/>
</a>
</g>
</g>
<!-- Node22 -->
<g id="Node000022" class="node">
<title>Node22</title>
<g id="a_Node000022"><a xlink:href="ast_8c.html#a572345b2707780bbbc5bbaacdca9c372" target="_top" xlink:title=" ">
<polygon fill="white" stroke="#666666" points="313,-221 260,-221 260,-202 313,-202 313,-221"/>
<text text-anchor="middle" x="286.5" y="-209" font-family="Helvetica,sans-Serif" font-size="10.00">run_ast</text>
</a>
</g>
</g>
<!-- Node21&#45;&gt;Node22 -->
<g id="edge29_Node000021_Node000022" class="edge">
<title>Node21&#45;&gt;Node22</title>
<g id="a_edge29_Node000021_Node000022"><a xlink:title=" ">
<path fill="none" stroke="#63b8ff" d="M367.23,-274.49C346.92,-258.44 316.32,-234.27 299.55,-221.02"/>
<polygon fill="#63b8ff" stroke="#63b8ff" points="365.22,-277.36 375.24,-280.81 369.56,-271.87 365.22,-277.36"/>
</a>
</g>
</g>
<!-- Node22&#45;&gt;Node15 -->
<g id="edge49_Node000022_Node000015" class="edge">
<title>Node22&#45;&gt;Node15</title>
<g id="a_edge49_Node000022_Node000015"><a xlink:title=" ">
<path fill="none" stroke="#63b8ff" d="M282.83,-231.08C277.46,-263.03 262.38,-326.44 224,-362.5 214.79,-371.16 201.27,-375.66 190.13,-378"/>
<polygon fill="#63b8ff" stroke="#63b8ff" points="286.29,-231.6 284.35,-221.18 279.37,-230.54 286.29,-231.6"/>
</a>
</g>
</g>
<!-- Node22&#45;&gt;Node16 -->
<g id="edge50_Node000022_Node000016" class="edge">
<title>Node22&#45;&gt;Node16</title>
<g id="a_edge50_Node000022_Node000016"><a xlink:title=" ">
<path fill="none" stroke="#63b8ff" d="M323.15,-218.98C364.43,-226.97 434.57,-238.5 495.5,-238.5 689.5,-238.5 689.5,-238.5 689.5,-238.5 758.28,-238.5 831.63,-283.37 861.34,-303.7"/>
<polygon fill="#63b8ff" stroke="#63b8ff" points="323.79,-215.53 313.3,-217.03 322.43,-222.4 323.79,-215.53"/>
</a>
</g>
</g>
<!-- Node23 -->
<g id="Node000023" class="node">
<title>Node23</title>
<g id="a_Node000023"><a xlink:href="ast__run_8c.html#a8a01fec616135007fc5b3968a101901b" target="_top" xlink:title=" ">
<polygon fill="white" stroke="#666666" points="215,-277 124,-277 124,-258 215,-258 215,-277"/>
<text text-anchor="middle" x="169.5" y="-265" font-family="Helvetica,sans-Serif" font-size="10.00">ast_run_and_or</text>
</a>
</g>
</g>
<!-- Node22&#45;&gt;Node23 -->
<g id="edge30_Node000022_Node000023" class="edge">
<title>Node22&#45;&gt;Node23</title>
<g id="a_edge30_Node000022_Node000023"><a xlink:title=" ">
<path fill="none" stroke="#63b8ff" d="M251.2,-225.88C242.54,-230.9 233.11,-236.22 224,-240.5 209.81,-247.16 192.46,-252.53 181.44,-257.81"/>
<polygon fill="#63b8ff" stroke="#63b8ff" points="253.02,-228.87 259.9,-220.82 249.5,-222.82 253.02,-228.87"/>
</a>
</g>
</g>
<!-- Node24 -->
<g id="Node000024" class="node">
<title>Node24</title>
<g id="a_Node000024"><a xlink:href="ast__run_8c.html#a9d83d4834a61ffe21eb77838d70ae173" target="_top" xlink:title=" ">
<polygon fill="white" stroke="#666666" points="205,-240 134,-240 134,-221 205,-221 205,-240"/>
<text text-anchor="middle" x="169.5" y="-228" font-family="Helvetica,sans-Serif" font-size="10.00">ast_run_for</text>
</a>
</g>
</g>
<!-- Node22&#45;&gt;Node24 -->
<g id="edge32_Node000022_Node000024" class="edge">
<title>Node22&#45;&gt;Node24</title>
<g id="a_edge32_Node000022_Node000024"><a xlink:title=" ">
<path fill="none" stroke="#63b8ff" d="M249.82,-211.1C231.79,-213.29 210.4,-217.06 194.38,-220.96"/>
<polygon fill="#63b8ff" stroke="#63b8ff" points="250.41,-214.55 259.98,-210 249.66,-207.59 250.41,-214.55"/>
</a>
</g>
</g>
<!-- Node25 -->
<g id="Node000025" class="node">
<title>Node25</title>
<g id="a_Node000025"><a xlink:href="ast__run_8c.html#a0a7138b1f2608ea36211c9b78988c248" target="_top" xlink:title=" ">
<polygon fill="white" stroke="#666666" points="202,-203 137,-203 137,-184 202,-184 202,-203"/>
<text text-anchor="middle" x="169.5" y="-191" font-family="Helvetica,sans-Serif" font-size="10.00">ast_run_if</text>
</a>
</g>
</g>
<!-- Node22&#45;&gt;Node25 -->
<g id="edge34_Node000022_Node000025" class="edge">
<title>Node22&#45;&gt;Node25</title>
<g id="a_edge34_Node000022_Node000025"><a xlink:title=" ">
<path fill="none" stroke="#63b8ff" d="M250.63,-199.78C235.19,-196.66 217.17,-193.9 202.14,-192.35"/>
<polygon fill="#63b8ff" stroke="#63b8ff" points="250.32,-203.29 260.83,-201.98 251.79,-196.45 250.32,-203.29"/>
</a>
</g>
</g>
<!-- Node26 -->
<g id="Node000026" class="node">
<title>Node26</title>
<g id="a_Node000026"><a xlink:href="ast__run_8c.html#ae25cd3ced8abafd76110dba8852a6b87" target="_top" xlink:title=" ">
<polygon fill="white" stroke="#666666" points="206,-148 133,-148 133,-129 206,-129 206,-148"/>
<text text-anchor="middle" x="169.5" y="-136" font-family="Helvetica,sans-Serif" font-size="10.00">ast_run_list</text>
</a>
</g>
</g>
<!-- Node22&#45;&gt;Node26 -->
<g id="edge36_Node000022_Node000026" class="edge">
<title>Node22&#45;&gt;Node26</title>
<g id="a_edge36_Node000022_Node000026"><a xlink:title=" ">
<path fill="none" stroke="#63b8ff" d="M268.46,-195.72C248.89,-181.15 216.64,-160.47 194.53,-148.14"/>
<polygon fill="#63b8ff" stroke="#63b8ff" points="266.43,-198.57 276.48,-201.93 270.71,-193.04 266.43,-198.57"/>
</a>
</g>
</g>
<!-- Node27 -->
<g id="Node000027" class="node">
<title>Node27</title>
<g id="a_Node000027"><a xlink:href="ast__run_8c.html#a536f37ba9bffcd2099fef668656181e0" target="_top" xlink:title=" ">
<polygon fill="white" stroke="#666666" points="209,-111 130,-111 130,-92 209,-92 209,-111"/>
<text text-anchor="middle" x="169.5" y="-99" font-family="Helvetica,sans-Serif" font-size="10.00">ast_run_loop</text>
</a>
</g>
</g>
<!-- Node22&#45;&gt;Node27 -->
<g id="edge39_Node000022_Node000027" class="edge">
<title>Node22&#45;&gt;Node27</title>
<g id="a_edge39_Node000022_Node000027"><a xlink:title=" ">
<path fill="none" stroke="#63b8ff" d="M280.03,-192.48C271.16,-169.33 251.79,-131.76 224,-110.5 219.56,-107.11 214.45,-104.33 209.18,-102.17"/>
<polygon fill="#63b8ff" stroke="#63b8ff" points="276.75,-193.72 283.36,-202 283.36,-191.4 276.75,-193.72"/>
</a>
</g>
</g>
<!-- Node28 -->
<g id="Node000028" class="node">
<title>Node28</title>
<g id="a_Node000028"><a xlink:href="ast__run_8c.html#aa3e6a973e744d748ee415840596beb53" target="_top" xlink:title=" ">
<polygon fill="white" stroke="#666666" points="224,-74 115,-74 115,-55 224,-55 224,-74"/>
<text text-anchor="middle" x="169.5" y="-62" font-family="Helvetica,sans-Serif" font-size="10.00">ast_run_shell_redir</text>
</a>
</g>
</g>
<!-- Node22&#45;&gt;Node28 -->
<g id="edge41_Node000022_Node000028" class="edge">
<title>Node22&#45;&gt;Node28</title>
<g id="a_edge41_Node000022_Node000028"><a xlink:title=" ">
<path fill="none" stroke="#63b8ff" d="M282.45,-191.47C276.22,-161.25 259.56,-105.39 224.47,-73.92"/>
<polygon fill="#63b8ff" stroke="#63b8ff" points="279.08,-192.49 284.34,-201.69 285.97,-191.22 279.08,-192.49"/>
</a>
</g>
</g>
<!-- Node29 -->
<g id="Node000029" class="node">
<title>Node29</title>
<g id="a_Node000029"><a xlink:href="exec_8c.html#a23babf893bbcd2f6126698a1a19b169f" target="_top" xlink:title="Execute funct with given arguments.">
<polygon fill="white" stroke="#666666" points="202,-353 137,-353 137,-334 202,-334 202,-353"/>
<text text-anchor="middle" x="169.5" y="-341" font-family="Helvetica,sans-Serif" font-size="10.00">exec_func</text>
</a>
</g>
</g>
<!-- Node22&#45;&gt;Node29 -->
<g id="edge43_Node000022_Node000029" class="edge">
<title>Node22&#45;&gt;Node29</title>
<g id="a_edge43_Node000022_Node000029"><a xlink:title=" ">
<path fill="none" stroke="#63b8ff" d="M278.81,-230.82C269.73,-254.51 251.42,-294.59 224,-319.5 217.29,-325.59 208.78,-330.35 200.54,-333.96"/>
<polygon fill="#63b8ff" stroke="#63b8ff" points="282.18,-231.79 282.33,-221.2 275.6,-229.38 282.18,-231.79"/>
</a>
</g>
</g>
<!-- Node30 -->
<g id="Node000030" class="node">
<title>Node30</title>
<g id="a_Node000030"><a xlink:href="exec_8c.html#ab743cb88e12e9b922050925fd2075e36" target="_top" xlink:title="Execute a pipeline of commands.">
<polygon fill="white" stroke="#666666" points="202,-19 137,-19 137,0 202,0 202,-19"/>
<text text-anchor="middle" x="169.5" y="-7" font-family="Helvetica,sans-Serif" font-size="10.00">exec_pipe</text>
</a>
</g>
</g>
<!-- Node22&#45;&gt;Node30 -->
<g id="edge45_Node000022_Node000030" class="edge">
<title>Node22&#45;&gt;Node30</title>
<g id="a_edge45_Node000022_Node000030"><a xlink:title=" ">
<path fill="none" stroke="#63b8ff" d="M282.25,-191.64C275.97,-158.39 259.53,-90.66 224,-45.5 215.14,-34.24 201.76,-25.24 190.6,-19.05"/>
<polygon fill="#63b8ff" stroke="#63b8ff" points="278.87,-192.64 284.06,-201.87 285.76,-191.42 278.87,-192.64"/>
</a>
</g>
</g>
<!-- Node23&#45;&gt;Node22 -->
<g id="edge31_Node000023_Node000022" class="edge">
<title>Node23&#45;&gt;Node22</title>
<g id="a_edge31_Node000023_Node000022"><a xlink:title=" ">
<path fill="none" stroke="#63b8ff" d="M224.22,-258.01C250.21,-245.16 270.09,-231.2 279.65,-221.07"/>
<polygon fill="#63b8ff" stroke="#63b8ff" points="222.7,-254.86 215.18,-262.32 225.71,-261.18 222.7,-254.86"/>
</a>
</g>
</g>
<!-- Node24&#45;&gt;Node22 -->
<g id="edge33_Node000024_Node000022" class="edge">
<title>Node24&#45;&gt;Node22</title>
<g id="a_edge33_Node000024_Node000022"><a xlink:title=" ">
<path fill="none" stroke="#63b8ff" d="M215.35,-229.69C231.15,-227.46 248.29,-224.29 261.67,-221.03"/>
<polygon fill="#63b8ff" stroke="#63b8ff" points="214.67,-226.25 205.21,-231.02 215.58,-233.19 214.67,-226.25"/>
</a>
</g>
</g>
<!-- Node25&#45;&gt;Node22 -->
<g id="edge35_Node000025_Node000022" class="edge">
<title>Node25&#45;&gt;Node22</title>
<g id="a_edge35_Node000025_Node000022"><a xlink:title=" ">
<path fill="none" stroke="#63b8ff" d="M205.09,-205.16C222.74,-208.74 243.83,-211.86 259.98,-213.23"/>
<polygon fill="#63b8ff" stroke="#63b8ff" points="205.68,-201.71 195.16,-203.02 204.2,-208.55 205.68,-201.71"/>
</a>
</g>
</g>
<!-- Node26&#45;&gt;Node22 -->
<g id="edge38_Node000026_Node000022" class="edge">
<title>Node26&#45;&gt;Node22</title>
<g id="a_edge38_Node000026_Node000022"><a xlink:title=" ">
<path fill="none" stroke="#63b8ff" d="M187.49,-154.25C207.12,-168.86 239.54,-189.65 261.67,-201.97"/>
<polygon fill="#63b8ff" stroke="#63b8ff" points="189.51,-151.38 179.46,-148.02 185.22,-156.91 189.51,-151.38"/>
</a>
</g>
</g>
<!-- Node26&#45;&gt;Node26 -->
<g id="edge37_Node000026_Node000026" class="edge">
<title>Node26&#45;&gt;Node26</title>
<g id="a_edge37_Node000026_Node000026"><a xlink:title=" ">
<path fill="none" stroke="#63b8ff" d="M190.98,-157.55C189.55,-162.38 182.39,-166 169.5,-166 148.88,-166 142.92,-156.73 151.62,-148.08"/>
<polygon fill="#63b8ff" stroke="#63b8ff" points="194.2,-156.19 187.38,-148.08 187.66,-158.67 194.2,-156.19"/>
</a>
</g>
</g>
<!-- Node27&#45;&gt;Node22 -->
<g id="edge40_Node000027_Node000022" class="edge">
<title>Node27&#45;&gt;Node22</title>
<g id="a_edge40_Node000027_Node000022"><a xlink:title=" ">
<path fill="none" stroke="#63b8ff" d="M194.94,-114.43C204.69,-117.83 215.57,-122.05 224,-128.5 250.7,-148.93 269.64,-184.42 278.95,-201.96"/>
<polygon fill="#63b8ff" stroke="#63b8ff" points="195.95,-111.08 185.35,-111.13 193.66,-117.7 195.95,-111.08"/>
</a>
</g>
</g>
<!-- Node28&#45;&gt;Node22 -->
<g id="edge42_Node000028_Node000022" class="edge">
<title>Node28&#45;&gt;Node22</title>
<g id="a_edge42_Node000028_Node000022"><a xlink:title=" ">
<path fill="none" stroke="#63b8ff" d="M196.24,-77.12C205.84,-80.39 216.27,-84.65 224,-91.5 259.28,-122.77 276.07,-178.68 282.38,-201.75"/>
<polygon fill="#63b8ff" stroke="#63b8ff" points="197.28,-73.78 186.68,-74 195.11,-80.43 197.28,-73.78"/>
</a>
</g>
</g>
<!-- Node29&#45;&gt;Node20 -->
<g id="edge44_Node000029_Node000020" class="edge">
<title>Node29&#45;&gt;Node20</title>
<g id="a_edge44_Node000029_Node000020"><a xlink:title=" ">
<path fill="none" stroke="#63b8ff" d="M212.42,-339.63C278.34,-333.55 404.77,-321.88 463.75,-316.43"/>
<polygon fill="#63b8ff" stroke="#63b8ff" points="212.02,-336.15 202.38,-340.56 212.66,-343.12 212.02,-336.15"/>
</a>
</g>
</g>
<!-- Node30&#45;&gt;Node30 -->
<g id="edge48_Node000030_Node000030" class="edge">
<title>Node30&#45;&gt;Node30</title>
<g id="a_edge48_Node000030_Node000030"><a xlink:title=" ">
<path fill="none" stroke="#63b8ff" d="M190.98,-28.55C189.55,-33.38 182.39,-37 169.5,-37 148.88,-37 142.92,-27.73 151.62,-19.08"/>
<polygon fill="#63b8ff" stroke="#63b8ff" points="194.2,-27.19 187.38,-19.08 187.66,-29.67 194.2,-27.19"/>
</a>
</g>
</g>
<!-- Node31 -->
<g id="Node000031" class="node">
<title>Node31</title>
<g id="a_Node000031"><a xlink:href="ast__run_8c.html#a24d0223822f7b635628199085c3283be" target="_top" xlink:title=" ">
<polygon fill="white" stroke="#666666" points="79,-167 0,-167 0,-148 79,-148 79,-167"/>
<text text-anchor="middle" x="39.5" y="-155" font-family="Helvetica,sans-Serif" font-size="10.00">ast_run_pipe</text>
</a>
</g>
</g>
<!-- Node30&#45;&gt;Node31 -->
<g id="edge46_Node000030_Node000031" class="edge">
<title>Node30&#45;&gt;Node31</title>
<g id="a_edge46_Node000030_Node000031"><a xlink:title=" ">
<path fill="none" stroke="#63b8ff" d="M141.63,-24.65C132.59,-30.48 122.82,-37.64 115,-45.5 82.39,-78.28 55.66,-127.35 45.22,-147.91"/>
<polygon fill="#63b8ff" stroke="#63b8ff" points="143.66,-27.51 150.34,-19.28 139.99,-21.55 143.66,-27.51"/>
</a>
</g>
</g>
<!-- Node31&#45;&gt;Node22 -->
<g id="edge47_Node000031_Node000022" class="edge">
<title>Node31&#45;&gt;Node22</title>
<g id="a_edge47_Node000031_Node000022"><a xlink:title=" ">
<path fill="none" stroke="#63b8ff" d="M45.16,-176.99C53.45,-206.8 73.91,-262.78 115,-286.5 156.96,-310.72 180.21,-307.22 224,-286.5 252.92,-272.82 272.79,-238.13 281.11,-221.16"/>
<polygon fill="#63b8ff" stroke="#63b8ff" points="48.54,-176.09 42.64,-167.29 41.77,-177.85 48.54,-176.09"/>
</a>
</g>
</g>
<!-- Node32&#45;&gt;Node5 -->
<g id="edge52_Node000032_Node000005" class="edge">
<title>Node32&#45;&gt;Node5</title>
<g id="a_edge52_Node000032_Node000005"><a xlink:title=" ">
<path fill="none" stroke="#63b8ff" d="M1643.81,-324.19C1635.36,-325.46 1626.61,-326.77 1618.2,-328.04"/>
<polygon fill="#63b8ff" stroke="#63b8ff" points="1644.56,-327.62 1653.93,-322.67 1643.52,-320.69 1644.56,-327.62"/>
</a>
</g>
</g>
</g>
</svg>
