<?xml version="1.0" encoding="UTF-8" standalone="no"?>
<!DOCTYPE svg PUBLIC "-//W3C//DTD SVG 1.1//EN"
 "http://www.w3.org/Graphics/SVG/1.1/DTD/svg11.dtd">
<!-- Generated by graphviz version 2.43.0 (0)
 -->
<!-- Title: src/parser/parser_aux.h Pages: 1 -->
<svg width="1116pt" height="82pt"
 viewBox="0.00 0.00 1115.50 82.00" xmlns="http://www.w3.org/2000/svg" xmlns:xlink="http://www.w3.org/1999/xlink">
<g id="graph0" class="graph" transform="scale(1 1) rotate(0) translate(4 78)">
<title>src/parser/parser_aux.h</title>
<!-- Node1 -->
<g id="Node000001" class="node">
<title>Node1</title>
<g id="a_Node000001"><a xlink:title=" ">
<polygon fill="#999999" stroke="#666666" points="601.5,-74 470.5,-74 470.5,-55 601.5,-55 601.5,-74"/>
<text text-anchor="middle" x="536" y="-62" font-family="Helvetica,sans-Serif" font-size="10.00">src/parser/parser_aux.h</text>
</a>
</g>
</g>
<!-- Node2 -->
<g id="Node000002" class="node">
<title>Node2</title>
<g id="a_Node000002"><a xlink:href="parser_8c.html" target="_top" xlink:title=" ">
<polygon fill="white" stroke="#666666" points="106,-19 0,-19 0,0 106,0 106,-19"/>
<text text-anchor="middle" x="53" y="-7" font-family="Helvetica,sans-Serif" font-size="10.00">src/parser/parser.c</text>
</a>
</g>
</g>
<!-- Node1&#45;&gt;Node2 -->
<g id="edge1_Node000001_Node000002" class="edge">
<title>Node1&#45;&gt;Node2</title>
<g id="a_edge1_Node000001_Node000002"><a xlink:title=" ">
<path fill="none" stroke="#63b8ff" d="M460.3,-56.21C375.96,-47.92 235.59,-33.64 115,-19 112.09,-18.65 109.1,-18.27 106.09,-17.89"/>
<polygon fill="#63b8ff" stroke="#63b8ff" points="460,-59.7 470.3,-57.19 460.69,-52.73 460,-59.7"/>
</a>
</g>
</g>
<!-- Node3 -->
<g id="Node000003" class="node">
<title>Node3</title>
<g id="a_Node000003"><a xlink:href="parser__commands_8c.html" target="_top" xlink:title=" ">
<polygon fill="white" stroke="#666666" points="290,-19 124,-19 124,0 290,0 290,-19"/>
<text text-anchor="middle" x="207" y="-7" font-family="Helvetica,sans-Serif" font-size="10.00">src/parser/parser_commands.c</text>
</a>
</g>
</g>
<!-- Node1&#45;&gt;Node3 -->
<g id="edge2_Node000001_Node000003" class="edge">
<title>Node1&#45;&gt;Node3</title>
<g id="a_edge2_Node000001_Node000003"><a xlink:title=" ">
<path fill="none" stroke="#63b8ff" d="M473.13,-53.37C411.35,-43.42 318.13,-28.4 260,-19.04"/>
<polygon fill="#63b8ff" stroke="#63b8ff" points="472.71,-56.85 483.14,-54.98 473.82,-49.94 472.71,-56.85"/>
</a>
</g>
</g>
<!-- Node4 -->
<g id="Node000004" class="node">
<title>Node4</title>
<g id="a_Node000004"><a xlink:href="parser__lists_8c.html" target="_top" xlink:title=" ">
<polygon fill="white" stroke="#666666" points="440,-19 308,-19 308,0 440,0 440,-19"/>
<text text-anchor="middle" x="374" y="-7" font-family="Helvetica,sans-Serif" font-size="10.00">src/parser/parser_lists.c</text>
</a>
</g>
</g>
<!-- Node1&#45;&gt;Node4 -->
<g id="edge3_Node000001_Node000004" class="edge">
<title>Node1&#45;&gt;Node4</title>
<g id="a_edge3_Node000001_Node000004"><a xlink:title=" ">
<path fill="none" stroke="#63b8ff" d="M500.23,-51.8C470,-41.91 427.39,-27.97 400.23,-19.08"/>
<polygon fill="#63b8ff" stroke="#63b8ff" points="499.38,-55.2 509.97,-54.98 501.56,-48.55 499.38,-55.2"/>
</a>
</g>
</g>
<!-- Node5 -->
<g id="Node000005" class="node">
<title>Node5</title>
<g id="a_Node000005"><a xlink:href="parser__pipelines_8c.html" target="_top" xlink:title=" ">
<polygon fill="white" stroke="#666666" points="614,-19 458,-19 458,0 614,0 614,-19"/>
<text text-anchor="middle" x="536" y="-7" font-family="Helvetica,sans-Serif" font-size="10.00">src/parser/parser_pipelines.c</text>
</a>
</g>
</g>
<!-- Node1&#45;&gt;Node5 -->
<g id="edge4_Node000001_Node000005" class="edge">
<title>Node1&#45;&gt;Node5</title>
<g id="a_edge4_Node000001_Node000005"><a xlink:title=" ">
<path fill="none" stroke="#63b8ff" d="M536,-44.66C536,-35.93 536,-25.99 536,-19.09"/>
<polygon fill="#63b8ff" stroke="#63b8ff" points="532.5,-44.75 536,-54.75 539.5,-44.75 532.5,-44.75"/>
</a>
</g>
</g>
<!-- Node6 -->
<g id="Node000006" class="node">
<title>Node6</title>
<g id="a_Node000006"><a xlink:href="parser__redirections_8c.html" target="_top" xlink:title=" ">
<polygon fill="white" stroke="#666666" points="802,-19 632,-19 632,0 802,0 802,-19"/>
<text text-anchor="middle" x="717" y="-7" font-family="Helvetica,sans-Serif" font-size="10.00">src/parser/parser_redirections.c</text>
</a>
</g>
</g>
<!-- Node1&#45;&gt;Node6 -->
<g id="edge5_Node000001_Node000006" class="edge">
<title>Node1&#45;&gt;Node6</title>
<g id="a_edge5_Node000001_Node000006"><a xlink:title=" ">
<path fill="none" stroke="#63b8ff" d="M575.08,-52.06C608.91,-42.15 657.08,-28.04 687.69,-19.08"/>
<polygon fill="#63b8ff" stroke="#63b8ff" points="573.69,-48.82 565.08,-54.98 575.66,-55.53 573.69,-48.82"/>
</a>
</g>
</g>
<!-- Node7 -->
<g id="Node000007" class="node">
<title>Node7</title>
<g id="a_Node000007"><a xlink:href="parser__rules_8c.html" target="_top" xlink:title=" ">
<polygon fill="white" stroke="#666666" points="956,-19 820,-19 820,0 956,0 956,-19"/>
<text text-anchor="middle" x="888" y="-7" font-family="Helvetica,sans-Serif" font-size="10.00">src/parser/parser_rules.c</text>
</a>
</g>
</g>
<!-- Node1&#45;&gt;Node7 -->
<g id="edge6_Node000001_Node000007" class="edge">
<title>Node1&#45;&gt;Node7</title>
<g id="a_edge6_Node000001_Node000007"><a xlink:title=" ">
<path fill="none" stroke="#63b8ff" d="M602.45,-53.49C668.54,-43.54 768.85,-28.44 831.29,-19.04"/>
<polygon fill="#63b8ff" stroke="#63b8ff" points="601.92,-50.03 592.55,-54.98 602.96,-56.96 601.92,-50.03"/>
</a>
</g>
</g>
<!-- Node8 -->
<g id="Node000008" class="node">
<title>Node8</title>
<g id="a_Node000008"><a xlink:href="parser__utils_8c.html" target="_top" xlink:title=" ">
<polygon fill="white" stroke="#666666" points="1107.5,-19 974.5,-19 974.5,0 1107.5,0 1107.5,-19"/>
<text text-anchor="middle" x="1041" y="-7" font-family="Helvetica,sans-Serif" font-size="10.00">src/parser/parser_utils.c</text>
</a>
</g>
</g>
<!-- Node1&#45;&gt;Node8 -->
<g id="edge7_Node000001_Node000008" class="edge">
<title>Node1&#45;&gt;Node8</title>
<g id="a_edge7_Node000001_Node000008"><a xlink:title=" ">
<path fill="none" stroke="#63b8ff" d="M611.96,-55.81C697.72,-47.08 841.42,-32.32 965,-19 968.04,-18.67 971.14,-18.34 974.28,-17.99"/>
<polygon fill="#63b8ff" stroke="#63b8ff" points="611.39,-52.35 601.79,-56.84 612.1,-59.31 611.39,-52.35"/>
</a>
</g>
</g>
</g>
</svg>
