<?xml version="1.0" encoding="UTF-8" standalone="no"?>
<!DOCTYPE svg PUBLIC "-//W3C//DTD SVG 1.1//EN"
 "http://www.w3.org/Graphics/SVG/1.1/DTD/svg11.dtd">
<!-- Generated by graphviz version 2.43.0 (0)
 -->
<!-- Title: src/parser/parser.h Pages: 1 -->
<svg width="269pt" height="247pt"
 viewBox="0.00 0.00 269.41 247.00" xmlns="http://www.w3.org/2000/svg" xmlns:xlink="http://www.w3.org/1999/xlink">
<g id="graph0" class="graph" transform="scale(1 1) rotate(0) translate(4 243)">
<title>src/parser/parser.h</title>
<!-- Node1 -->
<g id="Node000001" class="node">
<title>Node1</title>
<g id="a_Node000001"><a xlink:title=" ">
<polygon fill="#999999" stroke="#666666" points="107,-239 0,-239 0,-220 107,-220 107,-239"/>
<text text-anchor="middle" x="53.5" y="-227" font-family="Helvetica,sans-Serif" font-size="10.00">src/parser/parser.h</text>
</a>
</g>
</g>
<!-- Node2 -->
<g id="Node000002" class="node">
<title>Node2</title>
<g id="a_Node000002"><a xlink:title=" ">
<polygon fill="#e0e0e0" stroke="#999999" points="135.5,-19 85.5,-19 85.5,0 135.5,0 135.5,-19"/>
<text text-anchor="middle" x="110.5" y="-7" font-family="Helvetica,sans-Serif" font-size="10.00">stdio.h</text>
</a>
</g>
</g>
<!-- Node1&#45;&gt;Node2 -->
<g id="edge1_Node000001_Node000002" class="edge">
<title>Node1&#45;&gt;Node2</title>
<g id="a_edge1_Node000001_Node000002"><a xlink:title=" ">
<path fill="none" stroke="#63b8ff" d="M49.81,-219.89C41.9,-200.38 24.57,-151.27 31.5,-110 35.78,-84.49 35.21,-75.86 50.5,-55 59.67,-42.5 73.35,-31.97 85.34,-24.3"/>
<polygon fill="#63b8ff" stroke="#63b8ff" points="87.34,-27.18 94.07,-19 83.71,-21.19 87.34,-27.18"/>
</a>
</g>
</g>
<!-- Node3 -->
<g id="Node000003" class="node">
<title>Node3</title>
<g id="a_Node000003"><a xlink:href="ast_8h.html" target="_top" xlink:title=" ">
<polygon fill="white" stroke="#666666" points="185.5,-184 117.5,-184 117.5,-165 185.5,-165 185.5,-184"/>
<text text-anchor="middle" x="151.5" y="-172" font-family="Helvetica,sans-Serif" font-size="10.00">../ast/ast.h</text>
</a>
</g>
</g>
<!-- Node1&#45;&gt;Node3 -->
<g id="edge2_Node000001_Node000003" class="edge">
<title>Node1&#45;&gt;Node3</title>
<g id="a_edge2_Node000001_Node000003"><a xlink:title=" ">
<path fill="none" stroke="#63b8ff" d="M69.25,-219.98C84.73,-211.61 108.59,-198.7 126.64,-188.95"/>
<polygon fill="#63b8ff" stroke="#63b8ff" points="128.34,-192.01 135.47,-184.17 125.01,-185.85 128.34,-192.01"/>
</a>
</g>
</g>
<!-- Node4 -->
<g id="Node000004" class="node">
<title>Node4</title>
<g id="a_Node000004"><a xlink:href="expand_8h.html" target="_top" xlink:title=" ">
<polygon fill="white" stroke="#666666" points="150.5,-129 40.5,-129 40.5,-110 150.5,-110 150.5,-129"/>
<text text-anchor="middle" x="95.5" y="-117" font-family="Helvetica,sans-Serif" font-size="10.00">../expand/expand.h</text>
</a>
</g>
</g>
<!-- Node3&#45;&gt;Node4 -->
<g id="edge3_Node000003_Node000004" class="edge">
<title>Node3&#45;&gt;Node4</title>
<g id="a_edge3_Node000003_Node000004"><a xlink:title=" ">
<path fill="none" stroke="#63b8ff" d="M142.5,-164.98C134.31,-157.23 121.99,-145.58 112.03,-136.14"/>
<polygon fill="#63b8ff" stroke="#63b8ff" points="114.33,-133.5 104.66,-129.17 109.52,-138.59 114.33,-133.5"/>
</a>
</g>
</g>
<!-- Node6 -->
<g id="Node000006" class="node">
<title>Node6</title>
<g id="a_Node000006"><a xlink:href="redir_8h.html" target="_top" xlink:title=" ">
<polygon fill="white" stroke="#666666" points="248.5,-129 168.5,-129 168.5,-110 248.5,-110 248.5,-129"/>
<text text-anchor="middle" x="208.5" y="-117" font-family="Helvetica,sans-Serif" font-size="10.00">../utils/redir.h</text>
</a>
</g>
</g>
<!-- Node3&#45;&gt;Node6 -->
<g id="edge5_Node000003_Node000006" class="edge">
<title>Node3&#45;&gt;Node6</title>
<g id="a_edge5_Node000003_Node000006"><a xlink:title=" ">
<path fill="none" stroke="#63b8ff" d="M160.66,-164.98C169,-157.23 181.53,-145.58 191.68,-136.14"/>
<polygon fill="#63b8ff" stroke="#63b8ff" points="194.24,-138.54 199.18,-129.17 189.47,-133.42 194.24,-138.54"/>
</a>
</g>
</g>
<!-- Node7 -->
<g id="Node000007" class="node">
<title>Node7</title>
<g id="a_Node000007"><a xlink:href="token_8h.html" target="_top" xlink:title=" ">
<polygon fill="white" stroke="#666666" points="235,-74 182,-74 182,-55 235,-55 235,-74"/>
<text text-anchor="middle" x="208.5" y="-62" font-family="Helvetica,sans-Serif" font-size="10.00">token.h</text>
</a>
</g>
</g>
<!-- Node3&#45;&gt;Node7 -->
<g id="edge8_Node000003_Node000007" class="edge">
<title>Node3&#45;&gt;Node7</title>
<g id="a_edge8_Node000003_Node000007"><a xlink:title=" ">
<path fill="none" stroke="#63b8ff" d="M185.73,-169.09C210.26,-163.95 241.64,-152.85 257.5,-129 269.23,-111.36 249.72,-92.26 231.95,-79.67"/>
<polygon fill="#63b8ff" stroke="#63b8ff" points="233.78,-76.68 223.52,-74.05 229.9,-82.5 233.78,-76.68"/>
</a>
</g>
</g>
<!-- Node5 -->
<g id="Node000005" class="node">
<title>Node5</title>
<g id="a_Node000005"><a xlink:href="hashmap_8h.html" target="_top" xlink:title=" ">
<polygon fill="white" stroke="#666666" points="131,-74 60,-74 60,-55 131,-55 131,-74"/>
<text text-anchor="middle" x="95.5" y="-62" font-family="Helvetica,sans-Serif" font-size="10.00">hashmap.h</text>
</a>
</g>
</g>
<!-- Node4&#45;&gt;Node5 -->
<g id="edge4_Node000004_Node000005" class="edge">
<title>Node4&#45;&gt;Node5</title>
<g id="a_edge4_Node000004_Node000005"><a xlink:title=" ">
<path fill="none" stroke="#63b8ff" d="M95.5,-109.75C95.5,-102.8 95.5,-92.85 95.5,-84.13"/>
<polygon fill="#63b8ff" stroke="#63b8ff" points="99,-84.09 95.5,-74.09 92,-84.09 99,-84.09"/>
</a>
</g>
</g>
<!-- Node6&#45;&gt;Node7 -->
<g id="edge6_Node000006_Node000007" class="edge">
<title>Node6&#45;&gt;Node7</title>
<g id="a_edge6_Node000006_Node000007"><a xlink:title=" ">
<path fill="none" stroke="#63b8ff" d="M208.5,-109.75C208.5,-102.8 208.5,-92.85 208.5,-84.13"/>
<polygon fill="#63b8ff" stroke="#63b8ff" points="212,-84.09 208.5,-74.09 205,-84.09 212,-84.09"/>
</a>
</g>
</g>
<!-- Node7&#45;&gt;Node2 -->
<g id="edge7_Node000007_Node000002" class="edge">
<title>Node7&#45;&gt;Node2</title>
<g id="a_edge7_Node000007_Node000002"><a xlink:title=" ">
<path fill="none" stroke="#63b8ff" d="M192.75,-54.98C177.27,-46.61 153.41,-33.7 135.36,-23.95"/>
<polygon fill="#63b8ff" stroke="#63b8ff" points="136.99,-20.85 126.53,-19.17 133.66,-27.01 136.99,-20.85"/>
</a>
</g>
</g>
</g>
</svg>
