<?xml version="1.0" encoding="UTF-8" standalone="no"?>
<!DOCTYPE svg PUBLIC "-//W3C//DTD SVG 1.1//EN"
 "http://www.w3.org/Graphics/SVG/1.1/DTD/svg11.dtd">
<!-- Generated by graphviz version 2.43.0 (0)
 -->
<!-- Title: parser_fundef Pages: 1 -->
<svg width="1882pt" height="695pt"
 viewBox="0.00 0.00 1882.00 694.50" xmlns="http://www.w3.org/2000/svg" xmlns:xlink="http://www.w3.org/1999/xlink">
<g id="graph0" class="graph" transform="scale(1 1) rotate(0) translate(4 690.5)">
<title>parser_fundef</title>
<!-- Node1 -->
<g id="Node000001" class="node">
<title>Node1</title>
<g id="a_Node000001"><a xlink:title="Handle a function definition and add it to the dictionnary.">
<polygon fill="#999999" stroke="#666666" points="1874,-85.5 1790,-85.5 1790,-66.5 1874,-66.5 1874,-85.5"/>
<text text-anchor="middle" x="1832" y="-73.5" font-family="Helvetica,sans-Serif" font-size="10.00">parser_fundef</text>
</a>
</g>
</g>
<!-- Node2 -->
<g id="Node000002" class="node">
<title>Node2</title>
<g id="a_Node000002"><a xlink:href="parser__commands_8c.html#aa7191f56bd8e70874c5c381e52186807" target="_top" xlink:title="Parse a command which can be either a simple command or a shell command.">
<polygon fill="white" stroke="#666666" points="1754,-218.5 1653,-218.5 1653,-199.5 1754,-199.5 1754,-218.5"/>
<text text-anchor="middle" x="1703.5" y="-206.5" font-family="Helvetica,sans-Serif" font-size="10.00">parser_command</text>
</a>
</g>
</g>
<!-- Node1&#45;&gt;Node2 -->
<g id="edge1_Node000001_Node000002" class="edge">
<title>Node1&#45;&gt;Node2</title>
<g id="a_edge1_Node000001_Node000002"><a xlink:title=" ">
<path fill="none" stroke="#63b8ff" d="M1814.77,-93.06C1787.96,-121.25 1735.25,-176.67 1713.86,-199.16"/>
<polygon fill="#63b8ff" stroke="#63b8ff" points="1817.55,-95.22 1821.9,-85.57 1812.47,-90.4 1817.55,-95.22"/>
</a>
</g>
</g>
<!-- Node3 -->
<g id="Node000003" class="node">
<title>Node3</title>
<g id="a_Node000003"><a xlink:href="parser__pipelines_8c.html#a06068cdf8924fb28f414f419d84a5eae" target="_top" xlink:title="Parse and_or blocks separated by &#39;|&#39; (pipes)">
<polygon fill="white" stroke="#666666" points="1617,-218.5 1525,-218.5 1525,-199.5 1617,-199.5 1617,-218.5"/>
<text text-anchor="middle" x="1571" y="-206.5" font-family="Helvetica,sans-Serif" font-size="10.00">parser_pipeline</text>
</a>
</g>
</g>
<!-- Node2&#45;&gt;Node3 -->
<g id="edge2_Node000002_Node000003" class="edge">
<title>Node2&#45;&gt;Node3</title>
<g id="a_edge2_Node000002_Node000003"><a xlink:title=" ">
<path fill="none" stroke="#63b8ff" d="M1642.53,-209C1634.05,-209 1625.44,-209 1617.29,-209"/>
<polygon fill="#63b8ff" stroke="#63b8ff" points="1642.79,-212.5 1652.79,-209 1642.79,-205.5 1642.79,-212.5"/>
</a>
</g>
</g>
<!-- Node4 -->
<g id="Node000004" class="node">
<title>Node4</title>
<g id="a_Node000004"><a xlink:href="parser__pipelines_8c.html#a85ca4872d7efdb8b0cd643037ccd5763" target="_top" xlink:title="Parse and_or blocks separated by &#39;&amp;&amp;&#39; or &#39;||&#39;.">
<polygon fill="white" stroke="#666666" points="1489,-218.5 1403,-218.5 1403,-199.5 1489,-199.5 1489,-218.5"/>
<text text-anchor="middle" x="1446" y="-206.5" font-family="Helvetica,sans-Serif" font-size="10.00">parser_and_or</text>
</a>
</g>
</g>
<!-- Node3&#45;&gt;Node4 -->
<g id="edge3_Node000003_Node000004" class="edge">
<title>Node3&#45;&gt;Node4</title>
<g id="a_edge3_Node000003_Node000004"><a xlink:title=" ">
<path fill="none" stroke="#63b8ff" d="M1514.62,-209C1506.1,-209 1497.41,-209 1489.24,-209"/>
<polygon fill="#63b8ff" stroke="#63b8ff" points="1514.9,-212.5 1524.9,-209 1514.9,-205.5 1514.9,-212.5"/>
</a>
</g>
</g>
<!-- Node5 -->
<g id="Node000005" class="node">
<title>Node5</title>
<g id="a_Node000005"><a xlink:href="parser__lists_8c.html#aae7a5d6760b83c1a37b0369f82a20500" target="_top" xlink:title="Absorb a chain of and_or separeted by &#39;;&#39; or &#39; &#39;.">
<polygon fill="white" stroke="#666666" points="1367,-180.5 1243,-180.5 1243,-161.5 1367,-161.5 1367,-180.5"/>
<text text-anchor="middle" x="1305" y="-168.5" font-family="Helvetica,sans-Serif" font-size="10.00">parser_compound_list</text>
</a>
</g>
</g>
<!-- Node4&#45;&gt;Node5 -->
<g id="edge4_Node000004_Node000005" class="edge">
<title>Node4&#45;&gt;Node5</title>
<g id="a_edge4_Node000004_Node000005"><a xlink:title=" ">
<path fill="none" stroke="#63b8ff" d="M1400.2,-196.75C1381.05,-191.52 1359.01,-185.49 1341.06,-180.59"/>
<polygon fill="#63b8ff" stroke="#63b8ff" points="1399.36,-200.15 1409.92,-199.41 1401.2,-193.4 1399.36,-200.15"/>
</a>
</g>
</g>
<!-- Node14 -->
<g id="Node000014" class="node">
<title>Node14</title>
<g id="a_Node000014"><a xlink:href="parser__lists_8c.html#a7b9812922acfb4eba24e65d40bd99001" target="_top" xlink:title="Parse list block into sub and_or block(s) separated by semi&#45;colons.">
<polygon fill="white" stroke="#666666" points="1339,-237.5 1271,-237.5 1271,-218.5 1339,-218.5 1339,-237.5"/>
<text text-anchor="middle" x="1305" y="-225.5" font-family="Helvetica,sans-Serif" font-size="10.00">parser_list</text>
</a>
</g>
</g>
<!-- Node4&#45;&gt;Node14 -->
<g id="edge22_Node000004_Node000014" class="edge">
<title>Node4&#45;&gt;Node14</title>
<g id="a_edge22_Node000004_Node000014"><a xlink:title=" ">
<path fill="none" stroke="#63b8ff" d="M1392.84,-216.13C1374.83,-218.59 1355.17,-221.28 1339.12,-223.47"/>
<polygon fill="#63b8ff" stroke="#63b8ff" points="1393.48,-219.57 1402.92,-214.75 1392.54,-212.64 1393.48,-219.57"/>
</a>
</g>
</g>
<!-- Node6 -->
<g id="Node000006" class="node">
<title>Node6</title>
<g id="a_Node000006"><a xlink:href="parser__rules_8c.html#a799f84e24df3eff653f7c0696e348572" target="_top" xlink:title="Parse an elif block when called.">
<polygon fill="white" stroke="#666666" points="1189.5,-123.5 1121.5,-123.5 1121.5,-104.5 1189.5,-104.5 1189.5,-123.5"/>
<text text-anchor="middle" x="1155.5" y="-111.5" font-family="Helvetica,sans-Serif" font-size="10.00">parser_elif</text>
</a>
</g>
</g>
<!-- Node5&#45;&gt;Node6 -->
<g id="edge5_Node000005_Node000006" class="edge">
<title>Node5&#45;&gt;Node6</title>
<g id="a_edge5_Node000005_Node000006"><a xlink:title=" ">
<path fill="none" stroke="#63b8ff" d="M1269.83,-157.8C1242.75,-147.33 1205.55,-132.95 1181.27,-123.57"/>
<polygon fill="#63b8ff" stroke="#63b8ff" points="1268.72,-161.12 1279.31,-161.46 1271.25,-154.59 1268.72,-161.12"/>
</a>
</g>
</g>
<!-- Node7 -->
<g id="Node000007" class="node">
<title>Node7</title>
<g id="a_Node000007"><a xlink:href="parser__rules_8c.html#adf5258219dad4f79fdbc7786eb925699" target="_top" xlink:title="Define which parser to use depending on the context.">
<polygon fill="white" stroke="#666666" points="1060.5,-123.5 950.5,-123.5 950.5,-104.5 1060.5,-104.5 1060.5,-123.5"/>
<text text-anchor="middle" x="1005.5" y="-111.5" font-family="Helvetica,sans-Serif" font-size="10.00">parser_else_clause</text>
</a>
</g>
</g>
<!-- Node5&#45;&gt;Node7 -->
<g id="edge12_Node000005_Node000007" class="edge">
<title>Node5&#45;&gt;Node7</title>
<g id="a_edge12_Node000005_Node000007"><a xlink:title=" ">
<path fill="none" stroke="#63b8ff" d="M1289.03,-153.85C1271.53,-135.23 1240.65,-106.61 1207,-95 1147.67,-74.53 1072.97,-92.1 1033.62,-104.44"/>
<polygon fill="#63b8ff" stroke="#63b8ff" points="1286.56,-156.34 1295.89,-161.37 1291.74,-151.62 1286.56,-156.34"/>
</a>
</g>
</g>
<!-- Node8 -->
<g id="Node000008" class="node">
<title>Node8</title>
<g id="a_Node000008"><a xlink:href="parser__rules_8c.html#abf9e27d14e7a1c314285114bead78817" target="_top" xlink:title="Handle a &#39;if&#39; block by calling corresponding parser at each step.">
<polygon fill="white" stroke="#666666" points="903.5,-161.5 820.5,-161.5 820.5,-142.5 903.5,-142.5 903.5,-161.5"/>
<text text-anchor="middle" x="862" y="-149.5" font-family="Helvetica,sans-Serif" font-size="10.00">parser_rule_if</text>
</a>
</g>
</g>
<!-- Node5&#45;&gt;Node8 -->
<g id="edge17_Node000005_Node000008" class="edge">
<title>Node5&#45;&gt;Node8</title>
<g id="a_edge17_Node000005_Node000008"><a xlink:title=" ">
<path fill="none" stroke="#63b8ff" d="M1232.47,-167.92C1139.06,-163.89 978.67,-156.98 903.77,-153.76"/>
<polygon fill="#63b8ff" stroke="#63b8ff" points="1232.54,-171.42 1242.68,-168.36 1232.84,-164.43 1232.54,-171.42"/>
</a>
</g>
</g>
<!-- Node10 -->
<g id="Node000010" class="node">
<title>Node10</title>
<g id="a_Node000010"><a xlink:href="parser__rules_8c.html#afb9701776de31af668314b48a0b54636" target="_top" xlink:title="Handle a command block enclosed in brackets.">
<polygon fill="white" stroke="#666666" points="1068,-72 943,-72 943,-42 1068,-42 1068,-72"/>
<text text-anchor="start" x="951" y="-60" font-family="Helvetica,sans-Serif" font-size="10.00">parser_rule_command</text>
<text text-anchor="middle" x="1005.5" y="-49" font-family="Helvetica,sans-Serif" font-size="10.00">_block</text>
</a>
</g>
</g>
<!-- Node5&#45;&gt;Node10 -->
<g id="edge13_Node000005_Node000010" class="edge">
<title>Node5&#45;&gt;Node10</title>
<g id="a_edge13_Node000005_Node000010"><a xlink:title=" ">
<path fill="none" stroke="#63b8ff" d="M1290.64,-153.37C1273.7,-132.46 1242.39,-98.37 1207,-82 1163.54,-61.9 1109.42,-56.13 1068.37,-55.12"/>
<polygon fill="#63b8ff" stroke="#63b8ff" points="1288.06,-155.74 1296.99,-161.44 1293.56,-151.41 1288.06,-155.74"/>
</a>
</g>
</g>
<!-- Node11 -->
<g id="Node000011" class="node">
<title>Node11</title>
<g id="a_Node000011"><a xlink:href="parser__rules_8c.html#a55dc38591d3749d39ca3f38f8a2a26dd" target="_top" xlink:title="Handle a for block by calling corresponding parser at each step.">
<polygon fill="white" stroke="#666666" points="907,-275.5 817,-275.5 817,-256.5 907,-256.5 907,-275.5"/>
<text text-anchor="middle" x="862" y="-263.5" font-family="Helvetica,sans-Serif" font-size="10.00">parser_rule_for</text>
</a>
</g>
</g>
<!-- Node5&#45;&gt;Node11 -->
<g id="edge15_Node000005_Node000011" class="edge">
<title>Node5&#45;&gt;Node11</title>
<g id="a_edge15_Node000005_Node000011"><a xlink:title=" ">
<path fill="none" stroke="#63b8ff" d="M1279.76,-186.1C1252.34,-203.13 1210.96,-228.64 1207,-230 1103.91,-265.37 974.08,-268.68 907.25,-267.61"/>
<polygon fill="#63b8ff" stroke="#63b8ff" points="1281.81,-188.95 1288.45,-180.7 1278.11,-183.01 1281.81,-188.95"/>
</a>
</g>
</g>
<!-- Node12 -->
<g id="Node000012" class="node">
<title>Node12</title>
<g id="a_Node000012"><a xlink:href="parser__rules_8c.html#abf1c3edda1bb73d8c86028687922ce95" target="_top" xlink:title="Handle a &#39;until&#39; block by calling corresponding parser at each step.">
<polygon fill="white" stroke="#666666" points="1054.5,-237.5 956.5,-237.5 956.5,-218.5 1054.5,-218.5 1054.5,-237.5"/>
<text text-anchor="middle" x="1005.5" y="-225.5" font-family="Helvetica,sans-Serif" font-size="10.00">parser_rule_until</text>
</a>
</g>
</g>
<!-- Node5&#45;&gt;Node12 -->
<g id="edge18_Node000005_Node000012" class="edge">
<title>Node5&#45;&gt;Node12</title>
<g id="a_edge18_Node000005_Node000012"><a xlink:title=" ">
<path fill="none" stroke="#63b8ff" d="M1274.43,-184.63C1255.54,-192.74 1230.3,-202.5 1207,-208 1155.93,-220.06 1095.87,-224.85 1054.89,-226.76"/>
<polygon fill="#63b8ff" stroke="#63b8ff" points="1275.94,-187.79 1283.69,-180.57 1273.12,-181.38 1275.94,-187.79"/>
</a>
</g>
</g>
<!-- Node13 -->
<g id="Node000013" class="node">
<title>Node13</title>
<g id="a_Node000013"><a xlink:href="parser__rules_8c.html#aa6719ad356821f03ad45b1ac0a57d3bd" target="_top" xlink:title="Handle a &#39;while&#39; block by calling corresponding parser at each step.">
<polygon fill="white" stroke="#666666" points="1207,-199.5 1104,-199.5 1104,-180.5 1207,-180.5 1207,-199.5"/>
<text text-anchor="middle" x="1155.5" y="-187.5" font-family="Helvetica,sans-Serif" font-size="10.00">parser_rule_while</text>
</a>
</g>
</g>
<!-- Node5&#45;&gt;Node13 -->
<g id="edge20_Node000005_Node000013" class="edge">
<title>Node5&#45;&gt;Node13</title>
<g id="a_edge20_Node000005_Node000013"><a xlink:title=" ">
<path fill="none" stroke="#63b8ff" d="M1232.63,-180.19C1223.99,-181.31 1215.31,-182.42 1207.06,-183.49"/>
<polygon fill="#63b8ff" stroke="#63b8ff" points="1233.26,-183.64 1242.73,-178.89 1232.36,-176.7 1233.26,-183.64"/>
</a>
</g>
</g>
<!-- Node6&#45;&gt;Node7 -->
<g id="edge6_Node000006_Node000007" class="edge">
<title>Node6&#45;&gt;Node7</title>
<g id="a_edge6_Node000006_Node000007"><a xlink:title=" ">
<path fill="none" stroke="#63b8ff" d="M1111.23,-107.8C1095.36,-107.2 1077.21,-107.09 1060.52,-107.47"/>
<polygon fill="#63b8ff" stroke="#63b8ff" points="1111.14,-111.3 1121.29,-108.26 1111.46,-104.3 1111.14,-111.3"/>
</a>
</g>
</g>
<!-- Node7&#45;&gt;Node6 -->
<g id="edge7_Node000007_Node000006" class="edge">
<title>Node7&#45;&gt;Node6</title>
<g id="a_edge7_Node000007_Node000006"><a xlink:title=" ">
<path fill="none" stroke="#63b8ff" d="M1070.68,-120.7C1088.13,-120.89 1106.32,-120.57 1121.29,-119.74"/>
<polygon fill="#63b8ff" stroke="#63b8ff" points="1070.57,-117.19 1060.52,-120.53 1070.46,-124.19 1070.57,-117.19"/>
</a>
</g>
</g>
<!-- Node7&#45;&gt;Node8 -->
<g id="edge8_Node000007_Node000008" class="edge">
<title>Node7&#45;&gt;Node8</title>
<g id="a_edge8_Node000007_Node000008"><a xlink:title=" ">
<path fill="none" stroke="#63b8ff" d="M958.9,-126.25C939.39,-131.48 916.96,-137.51 898.7,-142.41"/>
<polygon fill="#63b8ff" stroke="#63b8ff" points="960.04,-129.56 968.79,-123.59 958.23,-122.8 960.04,-129.56"/>
</a>
</g>
</g>
<!-- Node9 -->
<g id="Node000009" class="node">
<title>Node9</title>
<g id="a_Node000009"><a xlink:href="parser__commands_8c.html#ad98fbb958a265134e775b69579e28835" target="_top" xlink:title="Handle a shell command block by calling corresponding parser at each step.">
<polygon fill="white" stroke="#666666" points="781,-199.5 651,-199.5 651,-180.5 781,-180.5 781,-199.5"/>
<text text-anchor="middle" x="716" y="-187.5" font-family="Helvetica,sans-Serif" font-size="10.00">parser_shell_command</text>
</a>
</g>
</g>
<!-- Node8&#45;&gt;Node9 -->
<g id="edge9_Node000008_Node000009" class="edge">
<title>Node8&#45;&gt;Node9</title>
<g id="a_edge9_Node000008_Node000009"><a xlink:title=" ">
<path fill="none" stroke="#63b8ff" d="M814.83,-164.18C794.84,-169.46 771.78,-175.54 753.08,-180.48"/>
<polygon fill="#63b8ff" stroke="#63b8ff" points="815.89,-167.52 824.66,-161.59 814.1,-160.76 815.89,-167.52"/>
</a>
</g>
</g>
<!-- Node9&#45;&gt;Node1 -->
<g id="edge11_Node000009_Node000001" class="edge">
<title>Node9&#45;&gt;Node1</title>
<g id="a_edge11_Node000009_Node000001"><a xlink:title=" ">
<path fill="none" stroke="#63b8ff" d="M730.61,-172.21C768.45,-124.97 880.29,0 1004.5,0 1572,0 1572,0 1572,0 1665.25,0 1770.03,-45.92 1812.07,-66.37"/>
<polygon fill="#63b8ff" stroke="#63b8ff" points="727.67,-170.29 724.24,-180.32 733.17,-174.62 727.67,-170.29"/>
</a>
</g>
</g>
<!-- Node9&#45;&gt;Node2 -->
<g id="edge10_Node000009_Node000002" class="edge">
<title>Node9&#45;&gt;Node2</title>
<g id="a_edge10_Node000009_Node000002"><a xlink:title=" ">
<path fill="none" stroke="#63b8ff" d="M729.86,-207.76C746.99,-229.86 779.51,-266.79 817,-284 893.16,-318.96 920.69,-304 1004.5,-304 1447,-304 1447,-304 1447,-304 1544.25,-304 1650.01,-242.78 1687.95,-218.63"/>
<polygon fill="#63b8ff" stroke="#63b8ff" points="732.5,-205.44 723.69,-199.56 726.91,-209.65 732.5,-205.44"/>
</a>
</g>
</g>
<!-- Node10&#45;&gt;Node9 -->
<g id="edge14_Node000010_Node000009" class="edge">
<title>Node10&#45;&gt;Node9</title>
<g id="a_edge14_Node000010_Node000009"><a xlink:title=" ">
<path fill="none" stroke="#63b8ff" d="M953.48,-75.57C915.32,-89.97 862.16,-111.1 817,-133 786.07,-148 751.56,-168.57 732.25,-180.46"/>
<polygon fill="#63b8ff" stroke="#63b8ff" points="954.71,-78.85 962.85,-72.06 952.26,-72.29 954.71,-78.85"/>
</a>
</g>
</g>
<!-- Node11&#45;&gt;Node9 -->
<g id="edge16_Node000011_Node000009" class="edge">
<title>Node11&#45;&gt;Node9</title>
<g id="a_edge16_Node000011_Node000009"><a xlink:title=" ">
<path fill="none" stroke="#63b8ff" d="M833.61,-251.54C804.68,-236.28 759.9,-212.64 735.09,-199.55"/>
<polygon fill="#63b8ff" stroke="#63b8ff" points="832.28,-254.8 842.76,-256.37 835.55,-248.61 832.28,-254.8"/>
</a>
</g>
</g>
<!-- Node12&#45;&gt;Node9 -->
<g id="edge19_Node000012_Node000009" class="edge">
<title>Node12&#45;&gt;Node9</title>
<g id="a_edge19_Node000012_Node000009"><a xlink:title=" ">
<path fill="none" stroke="#63b8ff" d="M946.2,-220.72C909.18,-216.05 860.26,-209.8 817,-204 805.36,-202.44 792.96,-200.74 781,-199.07"/>
<polygon fill="#63b8ff" stroke="#63b8ff" points="945.95,-224.21 956.31,-221.99 946.82,-217.27 945.95,-224.21"/>
</a>
</g>
</g>
<!-- Node13&#45;&gt;Node9 -->
<g id="edge21_Node000013_Node000009" class="edge">
<title>Node13&#45;&gt;Node9</title>
<g id="a_edge21_Node000013_Node000009"><a xlink:title=" ">
<path fill="none" stroke="#63b8ff" d="M1093.69,-190C1011.43,-190 865.33,-190 781.3,-190"/>
<polygon fill="#63b8ff" stroke="#63b8ff" points="1093.89,-193.5 1103.89,-190 1093.89,-186.5 1093.89,-193.5"/>
</a>
</g>
</g>
<!-- Node15 -->
<g id="Node000015" class="node">
<title>Node15</title>
<g id="a_Node000015"><a xlink:href="parser_8c.html#a620dffcc9a167cdee6e67de1191e5277" target="_top" xlink:title="Parse the input of our shell into list.">
<polygon fill="white" stroke="#666666" points="1179,-351.5 1132,-351.5 1132,-332.5 1179,-332.5 1179,-351.5"/>
<text text-anchor="middle" x="1155.5" y="-339.5" font-family="Helvetica,sans-Serif" font-size="10.00">parser</text>
</a>
</g>
</g>
<!-- Node14&#45;&gt;Node15 -->
<g id="edge23_Node000014_Node000015" class="edge">
<title>Node14&#45;&gt;Node15</title>
<g id="a_edge23_Node000014_Node000015"><a xlink:title=" ">
<path fill="none" stroke="#63b8ff" d="M1283.72,-243.68C1252.77,-267.6 1194.65,-312.51 1169.1,-332.26"/>
<polygon fill="#63b8ff" stroke="#63b8ff" points="1285.91,-246.41 1291.68,-237.52 1281.63,-240.87 1285.91,-246.41"/>
</a>
</g>
</g>
<!-- Node16 -->
<g id="Node000016" class="node">
<title>Node16</title>
<g id="a_Node000016"><a xlink:href="42sh_8c.html#a3c04138a5bfe5d72780bb7e82a18e627" target="_top" xlink:title=" ">
<polygon fill="white" stroke="#666666" points="190,-315.5 149,-315.5 149,-296.5 190,-296.5 190,-315.5"/>
<text text-anchor="middle" x="169.5" y="-303.5" font-family="Helvetica,sans-Serif" font-size="10.00">main</text>
</a>
</g>
</g>
<!-- Node15&#45;&gt;Node16 -->
<g id="edge24_Node000015_Node000016" class="edge">
<title>Node15&#45;&gt;Node16</title>
<g id="a_edge24_Node000015_Node000016"><a xlink:title=" ">
<path fill="none" stroke="#63b8ff" d="M1121.48,-342C1067.45,-342 956.74,-342 863,-342 863,-342 863,-342 387.5,-342 313.8,-342 227.89,-321.54 190.07,-311.47"/>
<polygon fill="#63b8ff" stroke="#63b8ff" points="1121.82,-345.5 1131.82,-342 1121.82,-338.5 1121.82,-345.5"/>
</a>
</g>
</g>
<!-- Node17 -->
<g id="Node000017" class="node">
<title>Node17</title>
<g id="a_Node000017"><a xlink:href="dot_8c.html#a17477ee2b0f1b8b9306566c990d15b35" target="_top" xlink:title="Main loop of dot builtin.">
<polygon fill="white" stroke="#666666" points="1039.5,-445.5 971.5,-445.5 971.5,-426.5 1039.5,-426.5 1039.5,-445.5"/>
<text text-anchor="middle" x="1005.5" y="-433.5" font-family="Helvetica,sans-Serif" font-size="10.00">main_loop</text>
</a>
</g>
</g>
<!-- Node15&#45;&gt;Node17 -->
<g id="edge25_Node000015_Node000017" class="edge">
<title>Node15&#45;&gt;Node17</title>
<g id="a_edge25_Node000015_Node000017"><a xlink:title=" ">
<path fill="none" stroke="#63b8ff" d="M1130.71,-357.11C1099.94,-376.65 1047.28,-410.1 1021.55,-426.44"/>
<polygon fill="#63b8ff" stroke="#63b8ff" points="1132.93,-359.85 1139.49,-351.53 1129.18,-353.94 1132.93,-359.85"/>
</a>
</g>
</g>
<!-- Node18 -->
<g id="Node000018" class="node">
<title>Node18</title>
<g id="a_Node000018"><a xlink:href="dot_8c.html#a713938d3c6ee343132c429642048bcf6" target="_top" xlink:title="Execute the dot builtin cmd.">
<polygon fill="white" stroke="#666666" points="884,-483.5 840,-483.5 840,-464.5 884,-464.5 884,-483.5"/>
<text text-anchor="middle" x="862" y="-471.5" font-family="Helvetica,sans-Serif" font-size="10.00">dot_b</text>
</a>
</g>
</g>
<!-- Node17&#45;&gt;Node18 -->
<g id="edge26_Node000017_Node000018" class="edge">
<title>Node17&#45;&gt;Node18</title>
<g id="a_edge26_Node000017_Node000018"><a xlink:title=" ">
<path fill="none" stroke="#63b8ff" d="M961.46,-447.56C935.84,-454.44 904.46,-462.87 884.11,-468.33"/>
<polygon fill="#63b8ff" stroke="#63b8ff" points="962.57,-450.88 971.32,-444.91 960.76,-444.12 962.57,-450.88"/>
</a>
</g>
</g>
<!-- Node19 -->
<g id="Node000019" class="node">
<title>Node19</title>
<g id="a_Node000019"><a xlink:href="exec_8c.html#abaeb177587c7eec6a064b35bb8399cae" target="_top" xlink:title="Execute builtin cmd with given args.">
<polygon fill="white" stroke="#666666" points="753.5,-483.5 678.5,-483.5 678.5,-464.5 753.5,-464.5 753.5,-483.5"/>
<text text-anchor="middle" x="716" y="-471.5" font-family="Helvetica,sans-Serif" font-size="10.00">exec_builtin</text>
</a>
</g>
</g>
<!-- Node18&#45;&gt;Node19 -->
<g id="edge27_Node000018_Node000019" class="edge">
<title>Node18&#45;&gt;Node19</title>
<g id="a_edge27_Node000018_Node000019"><a xlink:title=" ">
<path fill="none" stroke="#63b8ff" d="M829.47,-474C807.14,-474 777.12,-474 753.71,-474"/>
<polygon fill="#63b8ff" stroke="#63b8ff" points="829.75,-477.5 839.75,-474 829.75,-470.5 829.75,-477.5"/>
</a>
</g>
</g>
<!-- Node20 -->
<g id="Node000020" class="node">
<title>Node20</title>
<g id="a_Node000020"><a xlink:href="exec_8c.html#a287d81b4658832f192750310e2925917" target="_top" xlink:title="Execute the builtin command with given args.">
<polygon fill="white" stroke="#666666" points="615,-483.5 565,-483.5 565,-464.5 615,-464.5 615,-483.5"/>
<text text-anchor="middle" x="590" y="-471.5" font-family="Helvetica,sans-Serif" font-size="10.00">exec_b</text>
</a>
</g>
</g>
<!-- Node19&#45;&gt;Node20 -->
<g id="edge28_Node000019_Node000020" class="edge">
<title>Node19&#45;&gt;Node20</title>
<g id="a_edge28_Node000019_Node000020"><a xlink:title=" ">
<path fill="none" stroke="#63b8ff" d="M668.35,-474C650.24,-474 630.25,-474 615.14,-474"/>
<polygon fill="#63b8ff" stroke="#63b8ff" points="668.47,-477.5 678.47,-474 668.47,-470.5 668.47,-477.5"/>
</a>
</g>
</g>
<!-- Node21 -->
<g id="Node000021" class="node">
<title>Node21</title>
<g id="a_Node000021"><a xlink:href="exec_8c.html#ae65edaa99b26b49d60c451157d38b34a" target="_top" xlink:title="Execute les commandes avec les args donnes.">
<polygon fill="white" stroke="#666666" points="529,-483.5 464,-483.5 464,-464.5 529,-464.5 529,-483.5"/>
<text text-anchor="middle" x="496.5" y="-471.5" font-family="Helvetica,sans-Serif" font-size="10.00">exec_cmd</text>
</a>
</g>
</g>
<!-- Node20&#45;&gt;Node21 -->
<g id="edge29_Node000020_Node000021" class="edge">
<title>Node20&#45;&gt;Node21</title>
<g id="a_edge29_Node000020_Node000021"><a xlink:title=" ">
<path fill="none" stroke="#63b8ff" d="M554.77,-474C546.42,-474 537.53,-474 529.3,-474"/>
<polygon fill="#63b8ff" stroke="#63b8ff" points="554.96,-477.5 564.96,-474 554.96,-470.5 554.96,-477.5"/>
</a>
</g>
</g>
<!-- Node22 -->
<g id="Node000022" class="node">
<title>Node22</title>
<g id="a_Node000022"><a xlink:href="ast__run_8c.html#aeb6878a59c6907e5669fc3cc428913d9" target="_top" xlink:title=" ">
<polygon fill="white" stroke="#666666" points="428,-483.5 349,-483.5 349,-464.5 428,-464.5 428,-483.5"/>
<text text-anchor="middle" x="388.5" y="-471.5" font-family="Helvetica,sans-Serif" font-size="10.00">ast_run_cmd</text>
</a>
</g>
</g>
<!-- Node21&#45;&gt;Node22 -->
<g id="edge30_Node000021_Node000022" class="edge">
<title>Node21&#45;&gt;Node22</title>
<g id="a_edge30_Node000021_Node000022"><a xlink:title=" ">
<path fill="none" stroke="#63b8ff" d="M453.92,-474C445.45,-474 436.58,-474 428.21,-474"/>
<polygon fill="#63b8ff" stroke="#63b8ff" points="453.98,-477.5 463.98,-474 453.98,-470.5 453.98,-477.5"/>
</a>
</g>
</g>
<!-- Node23 -->
<g id="Node000023" class="node">
<title>Node23</title>
<g id="a_Node000023"><a xlink:href="ast_8c.html#a572345b2707780bbbc5bbaacdca9c372" target="_top" xlink:title=" ">
<polygon fill="white" stroke="#666666" points="313,-483.5 260,-483.5 260,-464.5 313,-464.5 313,-483.5"/>
<text text-anchor="middle" x="286.5" y="-471.5" font-family="Helvetica,sans-Serif" font-size="10.00">run_ast</text>
</a>
</g>
</g>
<!-- Node22&#45;&gt;Node23 -->
<g id="edge31_Node000022_Node000023" class="edge">
<title>Node22&#45;&gt;Node23</title>
<g id="a_edge31_Node000022_Node000023"><a xlink:title=" ">
<path fill="none" stroke="#63b8ff" d="M338.58,-474C329.76,-474 320.9,-474 313.1,-474"/>
<polygon fill="#63b8ff" stroke="#63b8ff" points="338.84,-477.5 348.84,-474 338.84,-470.5 338.84,-477.5"/>
</a>
</g>
</g>
<!-- Node23&#45;&gt;Node16 -->
<g id="edge51_Node000023_Node000016" class="edge">
<title>Node23&#45;&gt;Node16</title>
<g id="a_edge51_Node000023_Node000016"><a xlink:title=" ">
<path fill="none" stroke="#63b8ff" d="M282.72,-454.13C277.23,-422.26 262.04,-359.66 224,-324 214.78,-315.35 201.26,-310.85 190.13,-308.51"/>
<polygon fill="#63b8ff" stroke="#63b8ff" points="279.32,-455.04 284.33,-464.38 286.24,-453.96 279.32,-455.04"/>
</a>
</g>
</g>
<!-- Node23&#45;&gt;Node17 -->
<g id="edge52_Node000023_Node000017" class="edge">
<title>Node23&#45;&gt;Node17</title>
<g id="a_edge52_Node000023_Node000017"><a xlink:title=" ">
<path fill="none" stroke="#63b8ff" d="M322.7,-462.72C331.24,-460.25 340.4,-457.84 349,-456 413.27,-442.29 429.78,-436 495.5,-436 717,-436 717,-436 717,-436 809.09,-436 917.77,-436 971.3,-436"/>
<polygon fill="#63b8ff" stroke="#63b8ff" points="321.6,-459.4 313.02,-465.61 323.6,-466.1 321.6,-459.4"/>
</a>
</g>
</g>
<!-- Node24 -->
<g id="Node000024" class="node">
<title>Node24</title>
<g id="a_Node000024"><a xlink:href="ast__run_8c.html#a8a01fec616135007fc5b3968a101901b" target="_top" xlink:title=" ">
<polygon fill="white" stroke="#666666" points="215,-426.5 124,-426.5 124,-407.5 215,-407.5 215,-426.5"/>
<text text-anchor="middle" x="169.5" y="-414.5" font-family="Helvetica,sans-Serif" font-size="10.00">ast_run_and_or</text>
</a>
</g>
</g>
<!-- Node23&#45;&gt;Node24 -->
<g id="edge32_Node000023_Node000024" class="edge">
<title>Node23&#45;&gt;Node24</title>
<g id="a_edge32_Node000023_Node000024"><a xlink:title=" ">
<path fill="none" stroke="#63b8ff" d="M270.14,-458.06C257.8,-449.53 239.94,-439.84 224,-432 220.35,-430.2 216.53,-428.38 212.69,-426.62"/>
<polygon fill="#63b8ff" stroke="#63b8ff" points="268.31,-461.06 278.39,-464.31 272.54,-455.48 268.31,-461.06"/>
</a>
</g>
</g>
<!-- Node25 -->
<g id="Node000025" class="node">
<title>Node25</title>
<g id="a_Node000025"><a xlink:href="ast__run_8c.html#a9d83d4834a61ffe21eb77838d70ae173" target="_top" xlink:title=" ">
<polygon fill="white" stroke="#666666" points="205,-389.5 134,-389.5 134,-370.5 205,-370.5 205,-389.5"/>
<text text-anchor="middle" x="169.5" y="-377.5" font-family="Helvetica,sans-Serif" font-size="10.00">ast_run_for</text>
</a>
</g>
</g>
<!-- Node23&#45;&gt;Node25 -->
<g id="edge34_Node000023_Node000025" class="edge">
<title>Node23&#45;&gt;Node25</title>
<g id="a_edge34_Node000023_Node000025"><a xlink:title=" ">
<path fill="none" stroke="#63b8ff" d="M278.09,-455.05C267.9,-435.63 248.05,-406.9 224,-390 218.36,-386.03 211.8,-382.81 205.25,-380.42"/>
<polygon fill="#63b8ff" stroke="#63b8ff" points="275.02,-456.75 282.51,-464.24 281.33,-453.71 275.02,-456.75"/>
</a>
</g>
</g>
<!-- Node26 -->
<g id="Node000026" class="node">
<title>Node26</title>
<g id="a_Node000026"><a xlink:href="ast__run_8c.html#a0a7138b1f2608ea36211c9b78988c248" target="_top" xlink:title=" ">
<polygon fill="white" stroke="#666666" points="202,-352.5 137,-352.5 137,-333.5 202,-333.5 202,-352.5"/>
<text text-anchor="middle" x="169.5" y="-340.5" font-family="Helvetica,sans-Serif" font-size="10.00">ast_run_if</text>
</a>
</g>
</g>
<!-- Node23&#45;&gt;Node26 -->
<g id="edge36_Node000023_Node000026" class="edge">
<title>Node23&#45;&gt;Node26</title>
<g id="a_edge36_Node000023_Node000026"><a xlink:title=" ">
<path fill="none" stroke="#63b8ff" d="M281.42,-454.43C273.89,-427.36 255.63,-379.91 224,-353 217.77,-347.7 209.95,-343.84 202.24,-341.35"/>
<polygon fill="#63b8ff" stroke="#63b8ff" points="278.08,-455.52 283.92,-464.36 284.87,-453.8 278.08,-455.52"/>
</a>
</g>
</g>
<!-- Node27 -->
<g id="Node000027" class="node">
<title>Node27</title>
<g id="a_Node000027"><a xlink:href="ast__run_8c.html#ae25cd3ced8abafd76110dba8852a6b87" target="_top" xlink:title=" ">
<polygon fill="white" stroke="#666666" points="206,-631.5 133,-631.5 133,-612.5 206,-612.5 206,-631.5"/>
<text text-anchor="middle" x="169.5" y="-619.5" font-family="Helvetica,sans-Serif" font-size="10.00">ast_run_list</text>
</a>
</g>
</g>
<!-- Node23&#45;&gt;Node27 -->
<g id="edge38_Node000023_Node000027" class="edge">
<title>Node23&#45;&gt;Node27</title>
<g id="a_edge38_Node000023_Node000027"><a xlink:title=" ">
<path fill="none" stroke="#63b8ff" d="M279.67,-493.67C271.84,-520.42 255.16,-567.3 224,-595 213.75,-604.12 198.71,-608.64 187.18,-612.35"/>
<polygon fill="#63b8ff" stroke="#63b8ff" points="283.09,-494.43 282.41,-483.86 276.35,-492.55 283.09,-494.43"/>
</a>
</g>
</g>
<!-- Node28 -->
<g id="Node000028" class="node">
<title>Node28</title>
<g id="a_Node000028"><a xlink:href="ast__run_8c.html#a536f37ba9bffcd2099fef668656181e0" target="_top" xlink:title=" ">
<polygon fill="white" stroke="#666666" points="209,-594.5 130,-594.5 130,-575.5 209,-575.5 209,-594.5"/>
<text text-anchor="middle" x="169.5" y="-582.5" font-family="Helvetica,sans-Serif" font-size="10.00">ast_run_loop</text>
</a>
</g>
</g>
<!-- Node23&#45;&gt;Node28 -->
<g id="edge41_Node000023_Node000028" class="edge">
<title>Node23&#45;&gt;Node28</title>
<g id="a_edge41_Node000023_Node000028"><a xlink:title=" ">
<path fill="none" stroke="#63b8ff" d="M274.24,-492.71C263.95,-511.79 246.87,-540.42 224,-558 212.66,-566.72 196.85,-571.35 185.36,-575.39"/>
<polygon fill="#63b8ff" stroke="#63b8ff" points="277.41,-494.19 278.99,-483.71 271.22,-490.92 277.41,-494.19"/>
</a>
</g>
</g>
<!-- Node29 -->
<g id="Node000029" class="node">
<title>Node29</title>
<g id="a_Node000029"><a xlink:href="ast__run_8c.html#aa3e6a973e744d748ee415840596beb53" target="_top" xlink:title=" ">
<polygon fill="white" stroke="#666666" points="224,-557.5 115,-557.5 115,-538.5 224,-538.5 224,-557.5"/>
<text text-anchor="middle" x="169.5" y="-545.5" font-family="Helvetica,sans-Serif" font-size="10.00">ast_run_shell_redir</text>
</a>
</g>
</g>
<!-- Node23&#45;&gt;Node29 -->
<g id="edge43_Node000023_Node000029" class="edge">
<title>Node23&#45;&gt;Node29</title>
<g id="a_edge43_Node000023_Node000029"><a xlink:title=" ">
<path fill="none" stroke="#63b8ff" d="M262.9,-490.6C252,-500.58 238.22,-512.64 224,-521 210.82,-528.75 193.84,-533.74 182.58,-538.49"/>
<polygon fill="#63b8ff" stroke="#63b8ff" points="265.32,-493.13 270.29,-483.78 260.57,-487.99 265.32,-493.13"/>
</a>
</g>
</g>
<!-- Node30 -->
<g id="Node000030" class="node">
<title>Node30</title>
<g id="a_Node000030"><a xlink:href="exec_8c.html#a23babf893bbcd2f6126698a1a19b169f" target="_top" xlink:title="Execute funct with given arguments.">
<polygon fill="white" stroke="#666666" points="202,-686.5 137,-686.5 137,-667.5 202,-667.5 202,-686.5"/>
<text text-anchor="middle" x="169.5" y="-674.5" font-family="Helvetica,sans-Serif" font-size="10.00">exec_func</text>
</a>
</g>
</g>
<!-- Node23&#45;&gt;Node30 -->
<g id="edge45_Node000023_Node000030" class="edge">
<title>Node23&#45;&gt;Node30</title>
<g id="a_edge45_Node000023_Node000030"><a xlink:title=" ">
<path fill="none" stroke="#63b8ff" d="M281.27,-493.75C271.8,-536.39 247.79,-635.12 224,-659 218.05,-664.97 210.06,-668.96 202.07,-671.63"/>
<polygon fill="#63b8ff" stroke="#63b8ff" points="284.74,-494.28 283.46,-483.76 277.9,-492.78 284.74,-494.28"/>
</a>
</g>
</g>
<!-- Node31 -->
<g id="Node000031" class="node">
<title>Node31</title>
<g id="a_Node000031"><a xlink:href="exec_8c.html#ab743cb88e12e9b922050925fd2075e36" target="_top" xlink:title="Execute a pipeline of commands.">
<polygon fill="white" stroke="#666666" points="202,-502.5 137,-502.5 137,-483.5 202,-483.5 202,-502.5"/>
<text text-anchor="middle" x="169.5" y="-490.5" font-family="Helvetica,sans-Serif" font-size="10.00">exec_pipe</text>
</a>
</g>
</g>
<!-- Node23&#45;&gt;Node31 -->
<g id="edge47_Node000023_Node000031" class="edge">
<title>Node23&#45;&gt;Node31</title>
<g id="a_edge47_Node000023_Node000031"><a xlink:title=" ">
<path fill="none" stroke="#63b8ff" d="M249.86,-479.89C234.59,-482.41 216.9,-485.33 202.11,-487.78"/>
<polygon fill="#63b8ff" stroke="#63b8ff" points="250.68,-483.3 259.98,-478.22 249.54,-476.39 250.68,-483.3"/>
</a>
</g>
</g>
<!-- Node24&#45;&gt;Node23 -->
<g id="edge33_Node000024_Node000023" class="edge">
<title>Node24&#45;&gt;Node23</title>
<g id="a_edge33_Node000024_Node000023"><a xlink:title=" ">
<path fill="none" stroke="#63b8ff" d="M187.22,-431.87C197.84,-437.76 211.83,-444.01 224,-450 235.96,-455.88 249,-462.8 259.98,-468.07"/>
<polygon fill="#63b8ff" stroke="#63b8ff" points="188.92,-428.8 178.56,-426.58 185.27,-434.78 188.92,-428.8"/>
</a>
</g>
</g>
<!-- Node25&#45;&gt;Node23 -->
<g id="edge35_Node000025_Node000023" class="edge">
<title>Node25&#45;&gt;Node23</title>
<g id="a_edge35_Node000025_Node000023"><a xlink:title=" ">
<path fill="none" stroke="#63b8ff" d="M192.74,-393.15C202.89,-396.95 214.69,-401.45 224,-408 246.46,-423.78 265.25,-449.87 275.94,-464.42"/>
<polygon fill="#63b8ff" stroke="#63b8ff" points="193.89,-389.84 183.3,-389.53 191.38,-396.37 193.89,-389.84"/>
</a>
</g>
</g>
<!-- Node26&#45;&gt;Node23 -->
<g id="edge37_Node000026_Node000023" class="edge">
<title>Node26&#45;&gt;Node23</title>
<g id="a_edge37_Node000026_Node000023"><a xlink:title=" ">
<path fill="none" stroke="#63b8ff" d="M194.84,-355.94C204.73,-359.49 215.75,-363.98 224,-371 255.09,-397.45 273.26,-443.74 281.02,-464.34"/>
<polygon fill="#63b8ff" stroke="#63b8ff" points="195.69,-352.53 185.1,-352.51 193.37,-359.13 195.69,-352.53"/>
</a>
</g>
</g>
<!-- Node27&#45;&gt;Node23 -->
<g id="edge40_Node000027_Node000023" class="edge">
<title>Node27&#45;&gt;Node23</title>
<g id="a_edge40_Node000027_Node000023"><a xlink:title=" ">
<path fill="none" stroke="#63b8ff" d="M215.26,-619.15C218.39,-617.4 221.36,-615.35 224,-613 264.12,-577.33 280.23,-509.88 284.36,-483.86"/>
<polygon fill="#63b8ff" stroke="#63b8ff" points="213.72,-616.01 206.07,-623.34 216.62,-622.38 213.72,-616.01"/>
</a>
</g>
</g>
<!-- Node27&#45;&gt;Node27 -->
<g id="edge39_Node000027_Node000027" class="edge">
<title>Node27&#45;&gt;Node27</title>
<g id="a_edge39_Node000027_Node000027"><a xlink:title=" ">
<path fill="none" stroke="#63b8ff" d="M190.98,-641.05C189.55,-645.88 182.39,-649.5 169.5,-649.5 148.88,-649.5 142.92,-640.23 151.62,-631.58"/>
<polygon fill="#63b8ff" stroke="#63b8ff" points="194.2,-639.69 187.38,-631.58 187.66,-642.17 194.2,-639.69"/>
</a>
</g>
</g>
<!-- Node28&#45;&gt;Node23 -->
<g id="edge42_Node000028_Node000023" class="edge">
<title>Node28&#45;&gt;Node23</title>
<g id="a_edge42_Node000028_Node000023"><a xlink:title=" ">
<path fill="none" stroke="#63b8ff" d="M218.3,-579.84C220.29,-578.66 222.2,-577.38 224,-576 256.22,-551.22 276.96,-504.51 283.38,-483.56"/>
<polygon fill="#63b8ff" stroke="#63b8ff" points="216.6,-576.78 209.2,-584.35 219.71,-583.05 216.6,-576.78"/>
</a>
</g>
</g>
<!-- Node29&#45;&gt;Node23 -->
<g id="edge44_Node000029_Node000023" class="edge">
<title>Node29&#45;&gt;Node23</title>
<g id="a_edge44_Node000029_Node000023"><a xlink:title=" ">
<path fill="none" stroke="#63b8ff" d="M232.84,-533.31C254.07,-518.49 273.08,-497.12 281.26,-483.93"/>
<polygon fill="#63b8ff" stroke="#63b8ff" points="230.79,-530.47 224.29,-538.83 234.59,-536.35 230.79,-530.47"/>
</a>
</g>
</g>
<!-- Node30&#45;&gt;Node21 -->
<g id="edge46_Node000030_Node000021" class="edge">
<title>Node30&#45;&gt;Node21</title>
<g id="a_edge46_Node000030_Node000021"><a xlink:title=" ">
<path fill="none" stroke="#63b8ff" d="M211.89,-664.35C216.05,-662.7 220.15,-660.91 224,-659 332.28,-605.17 447.41,-513.63 483.79,-483.75"/>
<polygon fill="#63b8ff" stroke="#63b8ff" points="210.37,-661.18 202.2,-667.93 212.79,-667.75 210.37,-661.18"/>
</a>
</g>
</g>
<!-- Node31&#45;&gt;Node31 -->
<g id="edge50_Node000031_Node000031" class="edge">
<title>Node31&#45;&gt;Node31</title>
<g id="a_edge50_Node000031_Node000031"><a xlink:title=" ">
<path fill="none" stroke="#63b8ff" d="M190.98,-512.05C189.55,-516.88 182.39,-520.5 169.5,-520.5 148.88,-520.5 142.92,-511.23 151.62,-502.58"/>
<polygon fill="#63b8ff" stroke="#63b8ff" points="194.2,-510.69 187.38,-502.58 187.66,-513.17 194.2,-510.69"/>
</a>
</g>
</g>
<!-- Node32 -->
<g id="Node000032" class="node">
<title>Node32</title>
<g id="a_Node000032"><a xlink:href="ast__run_8c.html#a24d0223822f7b635628199085c3283be" target="_top" xlink:title=" ">
<polygon fill="white" stroke="#666666" points="79,-483.5 0,-483.5 0,-464.5 79,-464.5 79,-483.5"/>
<text text-anchor="middle" x="39.5" y="-471.5" font-family="Helvetica,sans-Serif" font-size="10.00">ast_run_pipe</text>
</a>
</g>
</g>
<!-- Node31&#45;&gt;Node32 -->
<g id="edge48_Node000031_Node000032" class="edge">
<title>Node31&#45;&gt;Node32</title>
<g id="a_edge48_Node000031_Node000032"><a xlink:title=" ">
<path fill="none" stroke="#63b8ff" d="M126.62,-486.78C111.32,-484.51 94.09,-481.95 79.08,-479.73"/>
<polygon fill="#63b8ff" stroke="#63b8ff" points="126.45,-490.3 136.86,-488.3 127.48,-483.37 126.45,-490.3"/>
</a>
</g>
</g>
<!-- Node32&#45;&gt;Node23 -->
<g id="edge49_Node000032_Node000023" class="edge">
<title>Node32&#45;&gt;Node23</title>
<g id="a_edge49_Node000032_Node000023"><a xlink:title=" ">
<path fill="none" stroke="#63b8ff" d="M89.3,-474C140.62,-474 219.4,-474 259.74,-474"/>
<polygon fill="#63b8ff" stroke="#63b8ff" points="89.11,-470.5 79.11,-474 89.11,-477.5 89.11,-470.5"/>
</a>
</g>
</g>
</g>
</svg>
