<?xml version="1.0" encoding="UTF-8" standalone="no"?>
<!DOCTYPE svg PUBLIC "-//W3C//DTD SVG 1.1//EN"
 "http://www.w3.org/Graphics/SVG/1.1/DTD/svg11.dtd">
<!-- Generated by graphviz version 2.43.0 (0)
 -->
<!-- Title: src/parser/parser_pipelines.c Pages: 1 -->
<svg width="396pt" height="357pt"
 viewBox="0.00 0.00 395.50 357.00" xmlns="http://www.w3.org/2000/svg" xmlns:xlink="http://www.w3.org/1999/xlink">
<g id="graph0" class="graph" transform="scale(1 1) rotate(0) translate(4 353)">
<title>src/parser/parser_pipelines.c</title>
<!-- Node1 -->
<g id="Node000001" class="node">
<title>Node1</title>
<g id="a_Node000001"><a xlink:title=" ">
<polygon fill="#999999" stroke="#666666" points="239,-349 83,-349 83,-330 239,-330 239,-349"/>
<text text-anchor="middle" x="161" y="-337" font-family="Helvetica,sans-Serif" font-size="10.00">src/parser/parser_pipelines.c</text>
</a>
</g>
</g>
<!-- Node2 -->
<g id="Node000002" class="node">
<title>Node2</title>
<g id="a_Node000002"><a xlink:title=" ">
<polygon fill="#e0e0e0" stroke="#999999" points="132.5,-294 79.5,-294 79.5,-275 132.5,-275 132.5,-294"/>
<text text-anchor="middle" x="106" y="-282" font-family="Helvetica,sans-Serif" font-size="10.00">stdlib.h</text>
</a>
</g>
</g>
<!-- Node1&#45;&gt;Node2 -->
<g id="edge1_Node000001_Node000002" class="edge">
<title>Node1&#45;&gt;Node2</title>
<g id="a_edge1_Node000001_Node000002"><a xlink:title=" ">
<path fill="none" stroke="#63b8ff" d="M151.92,-329.75C143.91,-322.03 132.04,-310.6 122.38,-301.28"/>
<polygon fill="#63b8ff" stroke="#63b8ff" points="124.54,-298.51 114.91,-294.09 119.69,-303.55 124.54,-298.51"/>
</a>
</g>
</g>
<!-- Node3 -->
<g id="Node000003" class="node">
<title>Node3</title>
<g id="a_Node000003"><a xlink:href="ast__aux_8h.html" target="_top" xlink:title=" ">
<polygon fill="white" stroke="#666666" points="157.5,-239 66.5,-239 66.5,-220 157.5,-220 157.5,-239"/>
<text text-anchor="middle" x="112" y="-227" font-family="Helvetica,sans-Serif" font-size="10.00">../ast/ast_aux.h</text>
</a>
</g>
</g>
<!-- Node1&#45;&gt;Node3 -->
<g id="edge2_Node000001_Node000003" class="edge">
<title>Node1&#45;&gt;Node3</title>
<g id="a_edge2_Node000001_Node000003"><a xlink:title=" ">
<path fill="none" stroke="#63b8ff" d="M159.01,-329.59C156.02,-317.04 149.79,-293.6 141,-275 136.48,-265.43 130.18,-255.49 124.61,-247.44"/>
<polygon fill="#63b8ff" stroke="#63b8ff" points="127.43,-245.37 118.76,-239.28 121.74,-249.45 127.43,-245.37"/>
</a>
</g>
</g>
<!-- Node10 -->
<g id="Node000010" class="node">
<title>Node10</title>
<g id="a_Node000010"><a xlink:href="parser__aux_8h.html" target="_top" xlink:title=" ">
<polygon fill="white" stroke="#666666" points="281,-294 201,-294 201,-275 281,-275 281,-294"/>
<text text-anchor="middle" x="241" y="-282" font-family="Helvetica,sans-Serif" font-size="10.00">parser_aux.h</text>
</a>
</g>
</g>
<!-- Node1&#45;&gt;Node10 -->
<g id="edge10_Node000001_Node000010" class="edge">
<title>Node1&#45;&gt;Node10</title>
<g id="a_edge10_Node000001_Node000010"><a xlink:title=" ">
<path fill="none" stroke="#63b8ff" d="M173.85,-329.98C186.14,-321.84 204.91,-309.41 219.48,-299.76"/>
<polygon fill="#63b8ff" stroke="#63b8ff" points="221.51,-302.61 227.91,-294.17 217.64,-296.78 221.51,-302.61"/>
</a>
</g>
</g>
<!-- Node4 -->
<g id="Node000004" class="node">
<title>Node4</title>
<g id="a_Node000004"><a xlink:href="ast_8h.html" target="_top" xlink:title=" ">
<polygon fill="white" stroke="#666666" points="158.5,-184 117.5,-184 117.5,-165 158.5,-165 158.5,-184"/>
<text text-anchor="middle" x="138" y="-172" font-family="Helvetica,sans-Serif" font-size="10.00">ast.h</text>
</a>
</g>
</g>
<!-- Node3&#45;&gt;Node4 -->
<g id="edge3_Node000003_Node000004" class="edge">
<title>Node3&#45;&gt;Node4</title>
<g id="a_edge3_Node000003_Node000004"><a xlink:title=" ">
<path fill="none" stroke="#63b8ff" d="M116.29,-219.75C119.81,-212.57 124.91,-202.18 129.28,-193.27"/>
<polygon fill="#63b8ff" stroke="#63b8ff" points="132.52,-194.61 133.79,-184.09 126.24,-191.53 132.52,-194.61"/>
</a>
</g>
</g>
<!-- Node5 -->
<g id="Node000005" class="node">
<title>Node5</title>
<g id="a_Node000005"><a xlink:href="expand_8h.html" target="_top" xlink:title=" ">
<polygon fill="white" stroke="#666666" points="110,-129 0,-129 0,-110 110,-110 110,-129"/>
<text text-anchor="middle" x="55" y="-117" font-family="Helvetica,sans-Serif" font-size="10.00">../expand/expand.h</text>
</a>
</g>
</g>
<!-- Node4&#45;&gt;Node5 -->
<g id="edge4_Node000004_Node000005" class="edge">
<title>Node4&#45;&gt;Node5</title>
<g id="a_edge4_Node000004_Node000005"><a xlink:title=" ">
<path fill="none" stroke="#63b8ff" d="M124.66,-164.98C111.91,-156.84 92.45,-144.41 77.33,-134.76"/>
<polygon fill="#63b8ff" stroke="#63b8ff" points="78.89,-131.6 68.58,-129.17 75.12,-137.5 78.89,-131.6"/>
</a>
</g>
</g>
<!-- Node7 -->
<g id="Node000007" class="node">
<title>Node7</title>
<g id="a_Node000007"><a xlink:href="redir_8h.html" target="_top" xlink:title=" ">
<polygon fill="white" stroke="#666666" points="246,-129 166,-129 166,-110 246,-110 246,-129"/>
<text text-anchor="middle" x="206" y="-117" font-family="Helvetica,sans-Serif" font-size="10.00">../utils/redir.h</text>
</a>
</g>
</g>
<!-- Node4&#45;&gt;Node7 -->
<g id="edge6_Node000004_Node000007" class="edge">
<title>Node4&#45;&gt;Node7</title>
<g id="a_edge6_Node000004_Node000007"><a xlink:title=" ">
<path fill="none" stroke="#63b8ff" d="M148.93,-164.98C159.08,-157.07 174.42,-145.11 186.65,-135.58"/>
<polygon fill="#63b8ff" stroke="#63b8ff" points="189.14,-138.08 194.88,-129.17 184.84,-132.56 189.14,-138.08"/>
</a>
</g>
</g>
<!-- Node8 -->
<g id="Node000008" class="node">
<title>Node8</title>
<g id="a_Node000008"><a xlink:href="token_8h.html" target="_top" xlink:title=" ">
<polygon fill="white" stroke="#666666" points="239.5,-74 186.5,-74 186.5,-55 239.5,-55 239.5,-74"/>
<text text-anchor="middle" x="213" y="-62" font-family="Helvetica,sans-Serif" font-size="10.00">token.h</text>
</a>
</g>
</g>
<!-- Node4&#45;&gt;Node8 -->
<g id="edge9_Node000004_Node000008" class="edge">
<title>Node4&#45;&gt;Node8</title>
<g id="a_edge9_Node000004_Node000008"><a xlink:title=" ">
<path fill="none" stroke="#63b8ff" d="M138.9,-165C140.61,-152.12 145.26,-127.34 157,-110 165.24,-97.83 177.83,-87.4 188.99,-79.7"/>
<polygon fill="#63b8ff" stroke="#63b8ff" points="191.06,-82.53 197.52,-74.14 187.23,-76.67 191.06,-82.53"/>
</a>
</g>
</g>
<!-- Node6 -->
<g id="Node000006" class="node">
<title>Node6</title>
<g id="a_Node000006"><a xlink:href="hashmap_8h.html" target="_top" xlink:title=" ">
<polygon fill="white" stroke="#666666" points="90.5,-74 19.5,-74 19.5,-55 90.5,-55 90.5,-74"/>
<text text-anchor="middle" x="55" y="-62" font-family="Helvetica,sans-Serif" font-size="10.00">hashmap.h</text>
</a>
</g>
</g>
<!-- Node5&#45;&gt;Node6 -->
<g id="edge5_Node000005_Node000006" class="edge">
<title>Node5&#45;&gt;Node6</title>
<g id="a_edge5_Node000005_Node000006"><a xlink:title=" ">
<path fill="none" stroke="#63b8ff" d="M55,-109.75C55,-102.8 55,-92.85 55,-84.13"/>
<polygon fill="#63b8ff" stroke="#63b8ff" points="58.5,-84.09 55,-74.09 51.5,-84.09 58.5,-84.09"/>
</a>
</g>
</g>
<!-- Node7&#45;&gt;Node8 -->
<g id="edge7_Node000007_Node000008" class="edge">
<title>Node7&#45;&gt;Node8</title>
<g id="a_edge7_Node000007_Node000008"><a xlink:title=" ">
<path fill="none" stroke="#63b8ff" d="M207.16,-109.75C208.07,-102.8 209.39,-92.85 210.54,-84.13"/>
<polygon fill="#63b8ff" stroke="#63b8ff" points="214.03,-84.46 211.87,-74.09 207.09,-83.54 214.03,-84.46"/>
</a>
</g>
</g>
<!-- Node9 -->
<g id="Node000009" class="node">
<title>Node9</title>
<g id="a_Node000009"><a xlink:title=" ">
<polygon fill="#e0e0e0" stroke="#999999" points="299,-19 249,-19 249,0 299,0 299,-19"/>
<text text-anchor="middle" x="274" y="-7" font-family="Helvetica,sans-Serif" font-size="10.00">stdio.h</text>
</a>
</g>
</g>
<!-- Node8&#45;&gt;Node9 -->
<g id="edge8_Node000008_Node000009" class="edge">
<title>Node8&#45;&gt;Node9</title>
<g id="a_edge8_Node000008_Node000009"><a xlink:title=" ">
<path fill="none" stroke="#63b8ff" d="M222.8,-54.98C231.82,-47.15 245.41,-35.34 256.32,-25.86"/>
<polygon fill="#63b8ff" stroke="#63b8ff" points="258.77,-28.37 264.02,-19.17 254.18,-23.09 258.77,-28.37"/>
</a>
</g>
</g>
<!-- Node11 -->
<g id="Node000011" class="node">
<title>Node11</title>
<g id="a_Node000011"><a xlink:title=" ">
<polygon fill="#e0e0e0" stroke="#999999" points="232,-239 176,-239 176,-220 232,-220 232,-239"/>
<text text-anchor="middle" x="204" y="-227" font-family="Helvetica,sans-Serif" font-size="10.00">stddef.h</text>
</a>
</g>
</g>
<!-- Node10&#45;&gt;Node11 -->
<g id="edge11_Node000010_Node000011" class="edge">
<title>Node10&#45;&gt;Node11</title>
<g id="a_edge11_Node000010_Node000011"><a xlink:title=" ">
<path fill="none" stroke="#63b8ff" d="M234.89,-274.75C229.72,-267.34 222.15,-256.5 215.81,-247.41"/>
<polygon fill="#63b8ff" stroke="#63b8ff" points="218.59,-245.29 210,-239.09 212.85,-249.29 218.59,-245.29"/>
</a>
</g>
</g>
<!-- Node12 -->
<g id="Node000012" class="node">
<title>Node12</title>
<g id="a_Node000012"><a xlink:href="lexer_8h.html" target="_top" xlink:title=" ">
<polygon fill="white" stroke="#666666" points="387.5,-129 302.5,-129 302.5,-110 387.5,-110 387.5,-129"/>
<text text-anchor="middle" x="345" y="-117" font-family="Helvetica,sans-Serif" font-size="10.00">../lexer/lexer.h</text>
</a>
</g>
</g>
<!-- Node10&#45;&gt;Node12 -->
<g id="edge12_Node000010_Node000012" class="edge">
<title>Node10&#45;&gt;Node12</title>
<g id="a_edge12_Node000010_Node000012"><a xlink:title=" ">
<path fill="none" stroke="#63b8ff" d="M264.75,-274.9C281.23,-267.75 302.4,-255.97 315,-239 337.27,-209 343.1,-164.23 344.57,-139.18"/>
<polygon fill="#63b8ff" stroke="#63b8ff" points="348.06,-139.32 344.98,-129.19 341.07,-139.03 348.06,-139.32"/>
</a>
</g>
</g>
<!-- Node13 -->
<g id="Node000013" class="node">
<title>Node13</title>
<g id="a_Node000013"><a xlink:href="parser_8h.html" target="_top" xlink:title=" ">
<polygon fill="white" stroke="#666666" points="306,-239 250,-239 250,-220 306,-220 306,-239"/>
<text text-anchor="middle" x="278" y="-227" font-family="Helvetica,sans-Serif" font-size="10.00">parser.h</text>
</a>
</g>
</g>
<!-- Node10&#45;&gt;Node13 -->
<g id="edge15_Node000010_Node000013" class="edge">
<title>Node10&#45;&gt;Node13</title>
<g id="a_edge15_Node000010_Node000013"><a xlink:title=" ">
<path fill="none" stroke="#63b8ff" d="M247.11,-274.75C252.28,-267.34 259.85,-256.5 266.19,-247.41"/>
<polygon fill="#63b8ff" stroke="#63b8ff" points="269.15,-249.29 272,-239.09 263.41,-245.29 269.15,-249.29"/>
</a>
</g>
</g>
<!-- Node12&#45;&gt;Node8 -->
<g id="edge14_Node000012_Node000008" class="edge">
<title>Node12&#45;&gt;Node8</title>
<g id="a_edge14_Node000012_Node000008"><a xlink:title=" ">
<path fill="none" stroke="#63b8ff" d="M323.79,-109.98C302.27,-101.34 268.72,-87.87 244.17,-78.02"/>
<polygon fill="#63b8ff" stroke="#63b8ff" points="245.18,-74.65 234.59,-74.17 242.57,-81.14 245.18,-74.65"/>
</a>
</g>
</g>
<!-- Node12&#45;&gt;Node9 -->
<g id="edge13_Node000012_Node000009" class="edge">
<title>Node12&#45;&gt;Node9</title>
<g id="a_edge13_Node000012_Node000009"><a xlink:title=" ">
<path fill="none" stroke="#63b8ff" d="M339.19,-109.66C327.43,-91.77 300.63,-51 285.3,-27.69"/>
<polygon fill="#63b8ff" stroke="#63b8ff" points="288.11,-25.59 279.69,-19.16 282.26,-29.44 288.11,-25.59"/>
</a>
</g>
</g>
<!-- Node13&#45;&gt;Node4 -->
<g id="edge17_Node000013_Node000004" class="edge">
<title>Node13&#45;&gt;Node4</title>
<g id="a_edge17_Node000013_Node000004"><a xlink:title=" ">
<path fill="none" stroke="#63b8ff" d="M255.51,-219.98C231.79,-211.01 194.3,-196.82 168.07,-186.88"/>
<polygon fill="#63b8ff" stroke="#63b8ff" points="169.2,-183.57 158.61,-183.3 166.73,-190.12 169.2,-183.57"/>
</a>
</g>
</g>
<!-- Node13&#45;&gt;Node9 -->
<g id="edge16_Node000013_Node000009" class="edge">
<title>Node13&#45;&gt;Node9</title>
<g id="a_edge16_Node000013_Node000009"><a xlink:title=" ">
<path fill="none" stroke="#63b8ff" d="M277.84,-219.95C277.26,-187.95 275.18,-74.68 274.35,-29.4"/>
<polygon fill="#63b8ff" stroke="#63b8ff" points="277.84,-29.16 274.16,-19.22 270.84,-29.29 277.84,-29.16"/>
</a>
</g>
</g>
</g>
</svg>
