<?xml version="1.0" encoding="UTF-8" standalone="no"?>
<!DOCTYPE svg PUBLIC "-//W3C//DTD SVG 1.1//EN"
 "http://www.w3.org/Graphics/SVG/1.1/DTD/svg11.dtd">
<!-- Generated by graphviz version 2.43.0 (0)
 -->
<!-- Title: parser_rule_command_block Pages: 1 -->
<svg width="2132pt" height="448pt"
 viewBox="0.00 0.00 2132.00 447.50" xmlns="http://www.w3.org/2000/svg" xmlns:xlink="http://www.w3.org/1999/xlink">
<g id="graph0" class="graph" transform="scale(1 1) rotate(0) translate(4 443.5)">
<title>parser_rule_command_block</title>
<!-- Node1 -->
<g id="Node000001" class="node">
<title>Node1</title>
<g id="a_Node000001"><a xlink:title="Handle a command block enclosed in brackets.">
<polygon fill="#999999" stroke="#666666" points="2124,-379.5 1999,-379.5 1999,-349.5 2124,-349.5 2124,-379.5"/>
<text text-anchor="start" x="2007" y="-367.5" font-family="Helvetica,sans-Serif" font-size="10.00">parser_rule_command</text>
<text text-anchor="middle" x="2061.5" y="-356.5" font-family="Helvetica,sans-Serif" font-size="10.00">_block</text>
</a>
</g>
</g>
<!-- Node2 -->
<g id="Node000002" class="node">
<title>Node2</title>
<g id="a_Node000002"><a xlink:href="parser__commands_8c.html#ad98fbb958a265134e775b69579e28835" target="_top" xlink:title="Handle a shell command block by calling corresponding parser at each step.">
<polygon fill="white" stroke="#666666" points="1963,-299 1833,-299 1833,-280 1963,-280 1963,-299"/>
<text text-anchor="middle" x="1898" y="-287" font-family="Helvetica,sans-Serif" font-size="10.00">parser_shell_command</text>
</a>
</g>
</g>
<!-- Node1&#45;&gt;Node2 -->
<g id="edge1_Node000001_Node000002" class="edge">
<title>Node1&#45;&gt;Node2</title>
<g id="a_edge1_Node000001_Node000002"><a xlink:title=" ">
<path fill="none" stroke="#63b8ff" d="M2018.35,-344.93C1986.68,-330.22 1944.64,-310.7 1919.84,-299.18"/>
<polygon fill="#63b8ff" stroke="#63b8ff" points="2017.27,-348.29 2027.82,-349.32 2020.22,-341.94 2017.27,-348.29"/>
</a>
</g>
</g>
<!-- Node3 -->
<g id="Node000003" class="node">
<title>Node3</title>
<g id="a_Node000003"><a xlink:href="parser__commands_8c.html#aa7191f56bd8e70874c5c381e52186807" target="_top" xlink:title="Parse a command which can be either a simple command or a shell command.">
<polygon fill="white" stroke="#666666" points="1677,-250 1576,-250 1576,-231 1677,-231 1677,-250"/>
<text text-anchor="middle" x="1626.5" y="-238" font-family="Helvetica,sans-Serif" font-size="10.00">parser_command</text>
</a>
</g>
</g>
<!-- Node2&#45;&gt;Node3 -->
<g id="edge2_Node000002_Node000003" class="edge">
<title>Node2&#45;&gt;Node3</title>
<g id="a_edge2_Node000002_Node000003"><a xlink:title=" ">
<path fill="none" stroke="#63b8ff" d="M1834.79,-278.19C1786.97,-269.49 1721.78,-257.64 1677.36,-249.57"/>
<polygon fill="#63b8ff" stroke="#63b8ff" points="1834.25,-281.65 1844.72,-279.99 1835.51,-274.76 1834.25,-281.65"/>
</a>
</g>
</g>
<!-- Node32 -->
<g id="Node000032" class="node">
<title>Node32</title>
<g id="a_Node000032"><a xlink:href="parser__commands_8c.html#a14408e6904da17fc6899bba03f7a5f5a" target="_top" xlink:title="Handle a function definition and add it to the dictionnary.">
<polygon fill="white" stroke="#666666" points="1797,-223 1713,-223 1713,-204 1797,-204 1797,-223"/>
<text text-anchor="middle" x="1755" y="-211" font-family="Helvetica,sans-Serif" font-size="10.00">parser_fundef</text>
</a>
</g>
</g>
<!-- Node2&#45;&gt;Node32 -->
<g id="edge51_Node000002_Node000032" class="edge">
<title>Node2&#45;&gt;Node32</title>
<g id="a_edge51_Node000002_Node000032"><a xlink:title=" ">
<path fill="none" stroke="#63b8ff" d="M1870.18,-275.04C1841.86,-259.78 1798,-236.14 1773.71,-223.05"/>
<polygon fill="#63b8ff" stroke="#63b8ff" points="1868.68,-278.21 1879.14,-279.87 1872,-272.05 1868.68,-278.21"/>
</a>
</g>
</g>
<!-- Node4 -->
<g id="Node000004" class="node">
<title>Node4</title>
<g id="a_Node000004"><a xlink:href="parser__pipelines_8c.html#a06068cdf8924fb28f414f419d84a5eae" target="_top" xlink:title="Parse and_or blocks separated by &#39;|&#39; (pipes)">
<polygon fill="white" stroke="#666666" points="1540,-250 1448,-250 1448,-231 1540,-231 1540,-250"/>
<text text-anchor="middle" x="1494" y="-238" font-family="Helvetica,sans-Serif" font-size="10.00">parser_pipeline</text>
</a>
</g>
</g>
<!-- Node3&#45;&gt;Node4 -->
<g id="edge3_Node000003_Node000004" class="edge">
<title>Node3&#45;&gt;Node4</title>
<g id="a_edge3_Node000003_Node000004"><a xlink:title=" ">
<path fill="none" stroke="#63b8ff" d="M1565.53,-240.5C1557.05,-240.5 1548.44,-240.5 1540.29,-240.5"/>
<polygon fill="#63b8ff" stroke="#63b8ff" points="1565.79,-244 1575.79,-240.5 1565.79,-237 1565.79,-244"/>
</a>
</g>
</g>
<!-- Node5 -->
<g id="Node000005" class="node">
<title>Node5</title>
<g id="a_Node000005"><a xlink:href="parser__pipelines_8c.html#a85ca4872d7efdb8b0cd643037ccd5763" target="_top" xlink:title="Parse and_or blocks separated by &#39;&amp;&amp;&#39; or &#39;||&#39;.">
<polygon fill="white" stroke="#666666" points="1412,-250 1326,-250 1326,-231 1412,-231 1412,-250"/>
<text text-anchor="middle" x="1369" y="-238" font-family="Helvetica,sans-Serif" font-size="10.00">parser_and_or</text>
</a>
</g>
</g>
<!-- Node4&#45;&gt;Node5 -->
<g id="edge4_Node000004_Node000005" class="edge">
<title>Node4&#45;&gt;Node5</title>
<g id="a_edge4_Node000004_Node000005"><a xlink:title=" ">
<path fill="none" stroke="#63b8ff" d="M1437.62,-240.5C1429.1,-240.5 1420.41,-240.5 1412.24,-240.5"/>
<polygon fill="#63b8ff" stroke="#63b8ff" points="1437.9,-244 1447.9,-240.5 1437.9,-237 1437.9,-244"/>
</a>
</g>
</g>
<!-- Node6 -->
<g id="Node000006" class="node">
<title>Node6</title>
<g id="a_Node000006"><a xlink:href="parser__lists_8c.html#aae7a5d6760b83c1a37b0369f82a20500" target="_top" xlink:title="Absorb a chain of and_or separeted by &#39;;&#39; or &#39; &#39;.">
<polygon fill="white" stroke="#666666" points="1290,-335 1166,-335 1166,-316 1290,-316 1290,-335"/>
<text text-anchor="middle" x="1228" y="-323" font-family="Helvetica,sans-Serif" font-size="10.00">parser_compound_list</text>
</a>
</g>
</g>
<!-- Node5&#45;&gt;Node6 -->
<g id="edge5_Node000005_Node000006" class="edge">
<title>Node5&#45;&gt;Node6</title>
<g id="a_edge5_Node000005_Node000006"><a xlink:title=" ">
<path fill="none" stroke="#63b8ff" d="M1343.77,-255.31C1315.34,-272.7 1269.02,-301.03 1244.83,-315.82"/>
<polygon fill="#63b8ff" stroke="#63b8ff" points="1345.62,-258.29 1352.33,-250.09 1341.97,-252.32 1345.62,-258.29"/>
</a>
</g>
</g>
<!-- Node13 -->
<g id="Node000013" class="node">
<title>Node13</title>
<g id="a_Node000013"><a xlink:href="parser__lists_8c.html#a7b9812922acfb4eba24e65d40bd99001" target="_top" xlink:title="Parse list block into sub and_or block(s) separated by semi&#45;colons.">
<polygon fill="white" stroke="#666666" points="1262,-241 1194,-241 1194,-222 1262,-222 1262,-241"/>
<text text-anchor="middle" x="1228" y="-229" font-family="Helvetica,sans-Serif" font-size="10.00">parser_list</text>
</a>
</g>
</g>
<!-- Node5&#45;&gt;Node13 -->
<g id="edge20_Node000005_Node000013" class="edge">
<title>Node5&#45;&gt;Node13</title>
<g id="a_edge20_Node000005_Node000013"><a xlink:title=" ">
<path fill="none" stroke="#63b8ff" d="M1315.84,-237.12C1297.83,-235.96 1278.17,-234.68 1262.12,-233.64"/>
<polygon fill="#63b8ff" stroke="#63b8ff" points="1315.71,-240.62 1325.92,-237.78 1316.17,-233.64 1315.71,-240.62"/>
</a>
</g>
</g>
<!-- Node6&#45;&gt;Node1 -->
<g id="edge12_Node000006_Node000001" class="edge">
<title>Node6&#45;&gt;Node1</title>
<g id="a_edge12_Node000006_Node000001"><a xlink:title=" ">
<path fill="none" stroke="#63b8ff" d="M1249.24,-341.1C1291.83,-372.32 1394.89,-439.5 1493,-439.5 1756,-439.5 1756,-439.5 1756,-439.5 1855.09,-439.5 1967.19,-401.59 2023.72,-379.68"/>
<polygon fill="#63b8ff" stroke="#63b8ff" points="1251.2,-338.2 1241.1,-335.02 1247.02,-343.81 1251.2,-338.2"/>
</a>
</g>
</g>
<!-- Node7 -->
<g id="Node000007" class="node">
<title>Node7</title>
<g id="a_Node000007"><a xlink:href="parser__rules_8c.html#a799f84e24df3eff653f7c0696e348572" target="_top" xlink:title="Parse an elif block when called.">
<polygon fill="white" stroke="#666666" points="1112.5,-337 1044.5,-337 1044.5,-318 1112.5,-318 1112.5,-337"/>
<text text-anchor="middle" x="1078.5" y="-325" font-family="Helvetica,sans-Serif" font-size="10.00">parser_elif</text>
</a>
</g>
</g>
<!-- Node6&#45;&gt;Node7 -->
<g id="edge6_Node000006_Node000007" class="edge">
<title>Node6&#45;&gt;Node7</title>
<g id="a_edge6_Node000006_Node000007"><a xlink:title=" ">
<path fill="none" stroke="#63b8ff" d="M1155.41,-326.47C1140.43,-326.67 1125.33,-326.88 1112.59,-327.05"/>
<polygon fill="#63b8ff" stroke="#63b8ff" points="1155.78,-329.97 1165.73,-326.33 1155.68,-322.97 1155.78,-329.97"/>
</a>
</g>
</g>
<!-- Node8 -->
<g id="Node000008" class="node">
<title>Node8</title>
<g id="a_Node000008"><a xlink:href="parser__rules_8c.html#adf5258219dad4f79fdbc7786eb925699" target="_top" xlink:title="Define which parser to use depending on the context.">
<polygon fill="white" stroke="#666666" points="991,-318 881,-318 881,-299 991,-299 991,-318"/>
<text text-anchor="middle" x="936" y="-306" font-family="Helvetica,sans-Serif" font-size="10.00">parser_else_clause</text>
</a>
</g>
</g>
<!-- Node6&#45;&gt;Node8 -->
<g id="edge11_Node000006_Node000008" class="edge">
<title>Node6&#45;&gt;Node8</title>
<g id="a_edge11_Node000006_Node000008"><a xlink:title=" ">
<path fill="none" stroke="#63b8ff" d="M1172.07,-314.17C1158.39,-311.82 1143.71,-309.69 1130,-308.5 1083.27,-304.44 1029.93,-304.82 991.18,-306"/>
<polygon fill="#63b8ff" stroke="#63b8ff" points="1171.84,-317.68 1182.3,-316 1173.07,-310.79 1171.84,-317.68"/>
</a>
</g>
</g>
<!-- Node9 -->
<g id="Node000009" class="node">
<title>Node9</title>
<g id="a_Node000009"><a xlink:href="parser__rules_8c.html#abf9e27d14e7a1c314285114bead78817" target="_top" xlink:title="Handle a &#39;if&#39; block by calling corresponding parser at each step.">
<polygon fill="white" stroke="#666666" points="845,-261 762,-261 762,-242 845,-242 845,-261"/>
<text text-anchor="middle" x="803.5" y="-249" font-family="Helvetica,sans-Serif" font-size="10.00">parser_rule_if</text>
</a>
</g>
</g>
<!-- Node6&#45;&gt;Node9 -->
<g id="edge15_Node000006_Node000009" class="edge">
<title>Node6&#45;&gt;Node9</title>
<g id="a_edge15_Node000006_Node000009"><a xlink:title=" ">
<path fill="none" stroke="#63b8ff" d="M1181.89,-313.44C1165.61,-309.33 1147.05,-304.91 1130,-301.5 1028.11,-281.11 906.83,-264.47 845.05,-256.53"/>
<polygon fill="#63b8ff" stroke="#63b8ff" points="1181.14,-316.86 1191.7,-315.95 1182.88,-310.08 1181.14,-316.86"/>
</a>
</g>
</g>
<!-- Node10 -->
<g id="Node000010" class="node">
<title>Node10</title>
<g id="a_Node000010"><a xlink:href="parser__rules_8c.html#a55dc38591d3749d39ca3f38f8a2a26dd" target="_top" xlink:title="Handle a for block by calling corresponding parser at each step.">
<polygon fill="white" stroke="#666666" points="1123.5,-411 1033.5,-411 1033.5,-392 1123.5,-392 1123.5,-411"/>
<text text-anchor="middle" x="1078.5" y="-399" font-family="Helvetica,sans-Serif" font-size="10.00">parser_rule_for</text>
</a>
</g>
</g>
<!-- Node6&#45;&gt;Node10 -->
<g id="edge13_Node000006_Node000010" class="edge">
<title>Node6&#45;&gt;Node10</title>
<g id="a_edge13_Node000006_Node000010"><a xlink:title=" ">
<path fill="none" stroke="#63b8ff" d="M1204.65,-340.59C1185.43,-353.14 1156.66,-370.93 1130,-383.5 1123.43,-386.6 1116.18,-389.48 1109.27,-391.99"/>
<polygon fill="#63b8ff" stroke="#63b8ff" points="1206.61,-343.49 1213.02,-335.06 1202.75,-337.65 1206.61,-343.49"/>
</a>
</g>
</g>
<!-- Node11 -->
<g id="Node000011" class="node">
<title>Node11</title>
<g id="a_Node000011"><a xlink:href="parser__rules_8c.html#abf1c3edda1bb73d8c86028687922ce95" target="_top" xlink:title="Handle a &#39;until&#39; block by calling corresponding parser at each step.">
<polygon fill="white" stroke="#666666" points="1127.5,-374 1029.5,-374 1029.5,-355 1127.5,-355 1127.5,-374"/>
<text text-anchor="middle" x="1078.5" y="-362" font-family="Helvetica,sans-Serif" font-size="10.00">parser_rule_until</text>
</a>
</g>
</g>
<!-- Node6&#45;&gt;Node11 -->
<g id="edge16_Node000006_Node000011" class="edge">
<title>Node6&#45;&gt;Node11</title>
<g id="a_edge16_Node000006_Node000011"><a xlink:title=" ">
<path fill="none" stroke="#63b8ff" d="M1181.17,-337.62C1160.01,-343.21 1135.25,-349.76 1115.47,-354.99"/>
<polygon fill="#63b8ff" stroke="#63b8ff" points="1182.14,-340.98 1190.92,-335.04 1180.35,-334.21 1182.14,-340.98"/>
</a>
</g>
</g>
<!-- Node12 -->
<g id="Node000012" class="node">
<title>Node12</title>
<g id="a_Node000012"><a xlink:href="parser__rules_8c.html#aa6719ad356821f03ad45b1ac0a57d3bd" target="_top" xlink:title="Handle a &#39;while&#39; block by calling corresponding parser at each step.">
<polygon fill="white" stroke="#666666" points="1130,-223 1027,-223 1027,-204 1130,-204 1130,-223"/>
<text text-anchor="middle" x="1078.5" y="-211" font-family="Helvetica,sans-Serif" font-size="10.00">parser_rule_while</text>
</a>
</g>
</g>
<!-- Node6&#45;&gt;Node12 -->
<g id="edge18_Node000006_Node000012" class="edge">
<title>Node6&#45;&gt;Node12</title>
<g id="a_edge18_Node000006_Node000012"><a xlink:title=" ">
<path fill="none" stroke="#63b8ff" d="M1181.39,-311.66C1175.86,-308.83 1170.56,-305.47 1166,-301.5 1141.39,-280.06 1153.86,-259.77 1130,-237.5 1123.54,-231.47 1115.3,-226.7 1107.35,-223.05"/>
<polygon fill="#63b8ff" stroke="#63b8ff" points="1180.28,-315 1190.84,-315.93 1183.17,-308.62 1180.28,-315"/>
</a>
</g>
</g>
<!-- Node7&#45;&gt;Node8 -->
<g id="edge7_Node000007_Node000008" class="edge">
<title>Node7&#45;&gt;Node8</title>
<g id="a_edge7_Node000007_Node000008"><a xlink:title=" ">
<path fill="none" stroke="#63b8ff" d="M1038.2,-316.05C1023.59,-313.46 1006.76,-311.03 991.06,-309.22"/>
<polygon fill="#63b8ff" stroke="#63b8ff" points="1037.91,-319.56 1048.39,-317.97 1039.21,-312.68 1037.91,-319.56"/>
</a>
</g>
</g>
<!-- Node8&#45;&gt;Node7 -->
<g id="edge8_Node000008_Node000007" class="edge">
<title>Node8&#45;&gt;Node7</title>
<g id="a_edge8_Node000008_Node000007"><a xlink:title=" ">
<path fill="none" stroke="#63b8ff" d="M976.31,-319.95C997.69,-323.75 1023.84,-327.19 1044.2,-328.84"/>
<polygon fill="#63b8ff" stroke="#63b8ff" points="976.72,-316.46 966.25,-318.06 975.43,-323.34 976.72,-316.46"/>
</a>
</g>
</g>
<!-- Node8&#45;&gt;Node9 -->
<g id="edge9_Node000008_Node000009" class="edge">
<title>Node8&#45;&gt;Node9</title>
<g id="a_edge9_Node000008_Node000009"><a xlink:title=" ">
<path fill="none" stroke="#63b8ff" d="M903.82,-294.88C879.95,-284.45 847.61,-270.33 826.41,-261.07"/>
<polygon fill="#63b8ff" stroke="#63b8ff" points="902.59,-298.16 913.16,-298.96 905.39,-291.75 902.59,-298.16"/>
</a>
</g>
</g>
<!-- Node9&#45;&gt;Node2 -->
<g id="edge10_Node000009_Node000002" class="edge">
<title>Node9&#45;&gt;Node2</title>
<g id="a_edge10_Node000009_Node000002"><a xlink:title=" ">
<path fill="none" stroke="#63b8ff" d="M833.91,-237.62C883.15,-215.69 985.91,-175.5 1077.5,-175.5 1627.5,-175.5 1627.5,-175.5 1627.5,-175.5 1703.31,-175.5 1728.28,-162.51 1797,-194.5 1839.77,-214.41 1875.93,-259.93 1890.33,-279.86"/>
<polygon fill="#63b8ff" stroke="#63b8ff" points="832.18,-234.56 824.51,-241.87 835.07,-240.94 832.18,-234.56"/>
</a>
</g>
</g>
<!-- Node10&#45;&gt;Node2 -->
<g id="edge14_Node000010_Node000002" class="edge">
<title>Node10&#45;&gt;Node2</title>
<g id="a_edge14_Node000010_Node000002"><a xlink:title=" ">
<path fill="none" stroke="#63b8ff" d="M1134.03,-401.5C1192.04,-401.5 1286.49,-401.5 1368,-401.5 1627.5,-401.5 1627.5,-401.5 1627.5,-401.5 1705.44,-401.5 1725.99,-388.63 1797,-356.5 1831.65,-340.82 1867.58,-313.57 1885.45,-299.13"/>
<polygon fill="#63b8ff" stroke="#63b8ff" points="1133.98,-398 1123.98,-401.5 1133.98,-405 1133.98,-398"/>
</a>
</g>
</g>
<!-- Node11&#45;&gt;Node2 -->
<g id="edge17_Node000011_Node000002" class="edge">
<title>Node11&#45;&gt;Node2</title>
<g id="a_edge17_Node000011_Node000002"><a xlink:title=" ">
<path fill="none" stroke="#63b8ff" d="M1137.86,-364.18C1196.14,-363.89 1288.27,-363.5 1368,-363.5 1627.5,-363.5 1627.5,-363.5 1627.5,-363.5 1723.81,-363.5 1832.8,-319.01 1876.9,-299.02"/>
<polygon fill="#63b8ff" stroke="#63b8ff" points="1137.72,-360.68 1127.74,-364.23 1137.76,-367.68 1137.72,-360.68"/>
</a>
</g>
</g>
<!-- Node12&#45;&gt;Node2 -->
<g id="edge19_Node000012_Node000002" class="edge">
<title>Node12&#45;&gt;Node2</title>
<g id="a_edge19_Node000012_Node000002"><a xlink:title=" ">
<path fill="none" stroke="#63b8ff" d="M1106.6,-227.57C1123.27,-235.51 1145.32,-244.76 1166,-249.5 1235.42,-265.41 1254.89,-254.57 1326,-258.5 1509.88,-268.66 1727.09,-280.37 1832.77,-286.05"/>
<polygon fill="#63b8ff" stroke="#63b8ff" points="1107.98,-224.35 1097.46,-223.09 1104.9,-230.64 1107.98,-224.35"/>
</a>
</g>
</g>
<!-- Node14 -->
<g id="Node000014" class="node">
<title>Node14</title>
<g id="a_Node000014"><a xlink:href="parser_8c.html#a620dffcc9a167cdee6e67de1191e5277" target="_top" xlink:title="Parse the input of our shell into list.">
<polygon fill="white" stroke="#666666" points="1102,-147 1055,-147 1055,-128 1102,-128 1102,-147"/>
<text text-anchor="middle" x="1078.5" y="-135" font-family="Helvetica,sans-Serif" font-size="10.00">parser</text>
</a>
</g>
</g>
<!-- Node13&#45;&gt;Node14 -->
<g id="edge21_Node000013_Node000014" class="edge">
<title>Node13&#45;&gt;Node14</title>
<g id="a_edge21_Node000013_Node000014"><a xlink:title=" ">
<path fill="none" stroke="#63b8ff" d="M1203.29,-216.39C1172.63,-196.85 1120.14,-163.4 1094.49,-147.06"/>
<polygon fill="#63b8ff" stroke="#63b8ff" points="1201.73,-219.55 1212.05,-221.97 1205.49,-213.64 1201.73,-219.55"/>
</a>
</g>
</g>
<!-- Node15 -->
<g id="Node000015" class="node">
<title>Node15</title>
<g id="a_Node000015"><a xlink:href="42sh_8c.html#a3c04138a5bfe5d72780bb7e82a18e627" target="_top" xlink:title=" ">
<polygon fill="white" stroke="#666666" points="190,-19 149,-19 149,0 190,0 190,-19"/>
<text text-anchor="middle" x="169.5" y="-7" font-family="Helvetica,sans-Serif" font-size="10.00">main</text>
</a>
</g>
</g>
<!-- Node14&#45;&gt;Node15 -->
<g id="edge22_Node000014_Node000015" class="edge">
<title>Node14&#45;&gt;Node15</title>
<g id="a_edge22_Node000014_Node000015"><a xlink:title=" ">
<path fill="none" stroke="#63b8ff" d="M1050.41,-123.41C1002.29,-99.73 898.12,-54.5 804.5,-54.5 804.5,-54.5 804.5,-54.5 387.5,-54.5 313.44,-54.5 228.06,-29.06 190.26,-16.43"/>
<polygon fill="#63b8ff" stroke="#63b8ff" points="1049.03,-126.63 1059.54,-127.98 1052.16,-120.37 1049.03,-126.63"/>
</a>
</g>
</g>
<!-- Node16 -->
<g id="Node000016" class="node">
<title>Node16</title>
<g id="a_Node000016"><a xlink:href="dot_8c.html#a17477ee2b0f1b8b9306566c990d15b35" target="_top" xlink:title="Main loop of dot builtin.">
<polygon fill="white" stroke="#666666" points="970,-147 902,-147 902,-128 970,-128 970,-147"/>
<text text-anchor="middle" x="936" y="-135" font-family="Helvetica,sans-Serif" font-size="10.00">main_loop</text>
</a>
</g>
</g>
<!-- Node14&#45;&gt;Node16 -->
<g id="edge23_Node000014_Node000016" class="edge">
<title>Node14&#45;&gt;Node16</title>
<g id="a_edge23_Node000014_Node000016"><a xlink:title=" ">
<path fill="none" stroke="#63b8ff" d="M1044.88,-137.5C1022.47,-137.5 992.81,-137.5 970.26,-137.5"/>
<polygon fill="#63b8ff" stroke="#63b8ff" points="1044.93,-141 1054.93,-137.5 1044.93,-134 1044.93,-141"/>
</a>
</g>
</g>
<!-- Node17 -->
<g id="Node000017" class="node">
<title>Node17</title>
<g id="a_Node000017"><a xlink:href="dot_8c.html#a713938d3c6ee343132c429642048bcf6" target="_top" xlink:title="Execute the dot builtin cmd.">
<polygon fill="white" stroke="#666666" points="825.5,-185 781.5,-185 781.5,-166 825.5,-166 825.5,-185"/>
<text text-anchor="middle" x="803.5" y="-173" font-family="Helvetica,sans-Serif" font-size="10.00">dot_b</text>
</a>
</g>
</g>
<!-- Node16&#45;&gt;Node17 -->
<g id="edge24_Node000016_Node000017" class="edge">
<title>Node16&#45;&gt;Node17</title>
<g id="a_edge24_Node000016_Node000017"><a xlink:title=" ">
<path fill="none" stroke="#63b8ff" d="M892.43,-149.89C870.04,-156.42 843.57,-164.12 825.57,-169.37"/>
<polygon fill="#63b8ff" stroke="#63b8ff" points="893.45,-153.25 902.07,-147.09 891.49,-146.52 893.45,-153.25"/>
</a>
</g>
</g>
<!-- Node18 -->
<g id="Node000018" class="node">
<title>Node18</title>
<g id="a_Node000018"><a xlink:href="exec_8c.html#abaeb177587c7eec6a064b35bb8399cae" target="_top" xlink:title="Execute builtin cmd with given args.">
<polygon fill="white" stroke="#666666" points="726,-185 651,-185 651,-166 726,-166 726,-185"/>
<text text-anchor="middle" x="688.5" y="-173" font-family="Helvetica,sans-Serif" font-size="10.00">exec_builtin</text>
</a>
</g>
</g>
<!-- Node17&#45;&gt;Node18 -->
<g id="edge25_Node000017_Node000018" class="edge">
<title>Node17&#45;&gt;Node18</title>
<g id="a_edge25_Node000017_Node000018"><a xlink:title=" ">
<path fill="none" stroke="#63b8ff" d="M771.17,-175.5C757.23,-175.5 740.73,-175.5 726.22,-175.5"/>
<polygon fill="#63b8ff" stroke="#63b8ff" points="771.25,-179 781.25,-175.5 771.25,-172 771.25,-179"/>
</a>
</g>
</g>
<!-- Node19 -->
<g id="Node000019" class="node">
<title>Node19</title>
<g id="a_Node000019"><a xlink:href="exec_8c.html#a287d81b4658832f192750310e2925917" target="_top" xlink:title="Execute the builtin command with given args.">
<polygon fill="white" stroke="#666666" points="615,-185 565,-185 565,-166 615,-166 615,-185"/>
<text text-anchor="middle" x="590" y="-173" font-family="Helvetica,sans-Serif" font-size="10.00">exec_b</text>
</a>
</g>
</g>
<!-- Node18&#45;&gt;Node19 -->
<g id="edge26_Node000018_Node000019" class="edge">
<title>Node18&#45;&gt;Node19</title>
<g id="a_edge26_Node000018_Node000019"><a xlink:title=" ">
<path fill="none" stroke="#63b8ff" d="M640.51,-175.5C631.71,-175.5 622.86,-175.5 615.12,-175.5"/>
<polygon fill="#63b8ff" stroke="#63b8ff" points="640.74,-179 650.74,-175.5 640.74,-172 640.74,-179"/>
</a>
</g>
</g>
<!-- Node20 -->
<g id="Node000020" class="node">
<title>Node20</title>
<g id="a_Node000020"><a xlink:href="exec_8c.html#ae65edaa99b26b49d60c451157d38b34a" target="_top" xlink:title="Execute les commandes avec les args donnes.">
<polygon fill="white" stroke="#666666" points="529,-185 464,-185 464,-166 529,-166 529,-185"/>
<text text-anchor="middle" x="496.5" y="-173" font-family="Helvetica,sans-Serif" font-size="10.00">exec_cmd</text>
</a>
</g>
</g>
<!-- Node19&#45;&gt;Node20 -->
<g id="edge27_Node000019_Node000020" class="edge">
<title>Node19&#45;&gt;Node20</title>
<g id="a_edge27_Node000019_Node000020"><a xlink:title=" ">
<path fill="none" stroke="#63b8ff" d="M554.77,-175.5C546.42,-175.5 537.53,-175.5 529.3,-175.5"/>
<polygon fill="#63b8ff" stroke="#63b8ff" points="554.96,-179 564.96,-175.5 554.96,-172 554.96,-179"/>
</a>
</g>
</g>
<!-- Node21 -->
<g id="Node000021" class="node">
<title>Node21</title>
<g id="a_Node000021"><a xlink:href="ast__run_8c.html#aeb6878a59c6907e5669fc3cc428913d9" target="_top" xlink:title=" ">
<polygon fill="white" stroke="#666666" points="428,-185 349,-185 349,-166 428,-166 428,-185"/>
<text text-anchor="middle" x="388.5" y="-173" font-family="Helvetica,sans-Serif" font-size="10.00">ast_run_cmd</text>
</a>
</g>
</g>
<!-- Node20&#45;&gt;Node21 -->
<g id="edge28_Node000020_Node000021" class="edge">
<title>Node20&#45;&gt;Node21</title>
<g id="a_edge28_Node000020_Node000021"><a xlink:title=" ">
<path fill="none" stroke="#63b8ff" d="M453.92,-175.5C445.45,-175.5 436.58,-175.5 428.21,-175.5"/>
<polygon fill="#63b8ff" stroke="#63b8ff" points="453.98,-179 463.98,-175.5 453.98,-172 453.98,-179"/>
</a>
</g>
</g>
<!-- Node22 -->
<g id="Node000022" class="node">
<title>Node22</title>
<g id="a_Node000022"><a xlink:href="ast_8c.html#a572345b2707780bbbc5bbaacdca9c372" target="_top" xlink:title=" ">
<polygon fill="white" stroke="#666666" points="313,-185 260,-185 260,-166 313,-166 313,-185"/>
<text text-anchor="middle" x="286.5" y="-173" font-family="Helvetica,sans-Serif" font-size="10.00">run_ast</text>
</a>
</g>
</g>
<!-- Node21&#45;&gt;Node22 -->
<g id="edge29_Node000021_Node000022" class="edge">
<title>Node21&#45;&gt;Node22</title>
<g id="a_edge29_Node000021_Node000022"><a xlink:title=" ">
<path fill="none" stroke="#63b8ff" d="M338.58,-175.5C329.76,-175.5 320.9,-175.5 313.1,-175.5"/>
<polygon fill="#63b8ff" stroke="#63b8ff" points="338.84,-179 348.84,-175.5 338.84,-172 338.84,-179"/>
</a>
</g>
</g>
<!-- Node22&#45;&gt;Node15 -->
<g id="edge49_Node000022_Node000015" class="edge">
<title>Node22&#45;&gt;Node15</title>
<g id="a_edge49_Node000022_Node000015"><a xlink:title=" ">
<path fill="none" stroke="#63b8ff" d="M282.56,-155.44C276.89,-123.84 261.51,-62.49 224,-27.5 214.76,-18.88 201.24,-14.37 190.11,-12.03"/>
<polygon fill="#63b8ff" stroke="#63b8ff" points="279.16,-156.33 284.23,-165.63 286.07,-155.19 279.16,-156.33"/>
</a>
</g>
</g>
<!-- Node22&#45;&gt;Node16 -->
<g id="edge50_Node000022_Node000016" class="edge">
<title>Node22&#45;&gt;Node16</title>
<g id="a_edge50_Node000022_Node000016"><a xlink:title=" ">
<path fill="none" stroke="#63b8ff" d="M322.89,-163.44C331.37,-160.86 340.45,-158.36 349,-156.5 413.15,-142.54 429.84,-137.5 495.5,-137.5 689.5,-137.5 689.5,-137.5 689.5,-137.5 765.37,-137.5 854.42,-137.5 901.64,-137.5"/>
<polygon fill="#63b8ff" stroke="#63b8ff" points="321.76,-160.12 313.27,-166.46 323.86,-166.8 321.76,-160.12"/>
</a>
</g>
</g>
<!-- Node23 -->
<g id="Node000023" class="node">
<title>Node23</title>
<g id="a_Node000023"><a xlink:href="ast__run_8c.html#a8a01fec616135007fc5b3968a101901b" target="_top" xlink:title=" ">
<polygon fill="white" stroke="#666666" points="215,-185 124,-185 124,-166 215,-166 215,-185"/>
<text text-anchor="middle" x="169.5" y="-173" font-family="Helvetica,sans-Serif" font-size="10.00">ast_run_and_or</text>
</a>
</g>
</g>
<!-- Node22&#45;&gt;Node23 -->
<g id="edge30_Node000022_Node000023" class="edge">
<title>Node22&#45;&gt;Node23</title>
<g id="a_edge30_Node000022_Node000023"><a xlink:title=" ">
<path fill="none" stroke="#63b8ff" d="M249.95,-169.21C239.03,-168.73 226.86,-168.63 215.4,-168.9"/>
<polygon fill="#63b8ff" stroke="#63b8ff" points="249.79,-172.7 259.98,-169.78 250.19,-165.72 249.79,-172.7"/>
</a>
</g>
</g>
<!-- Node24 -->
<g id="Node000024" class="node">
<title>Node24</title>
<g id="a_Node000024"><a xlink:href="ast__run_8c.html#a9d83d4834a61ffe21eb77838d70ae173" target="_top" xlink:title=" ">
<polygon fill="white" stroke="#666666" points="205,-148 134,-148 134,-129 205,-129 205,-148"/>
<text text-anchor="middle" x="169.5" y="-136" font-family="Helvetica,sans-Serif" font-size="10.00">ast_run_for</text>
</a>
</g>
</g>
<!-- Node22&#45;&gt;Node24 -->
<g id="edge32_Node000022_Node000024" class="edge">
<title>Node22&#45;&gt;Node24</title>
<g id="a_edge32_Node000022_Node000024"><a xlink:title=" ">
<path fill="none" stroke="#63b8ff" d="M261.14,-162.03C244.93,-155.58 223.39,-148.44 205.37,-143.46"/>
<polygon fill="#63b8ff" stroke="#63b8ff" points="259.89,-165.3 270.47,-165.93 262.59,-158.84 259.89,-165.3"/>
</a>
</g>
</g>
<!-- Node25 -->
<g id="Node000025" class="node">
<title>Node25</title>
<g id="a_Node000025"><a xlink:href="ast__run_8c.html#a0a7138b1f2608ea36211c9b78988c248" target="_top" xlink:title=" ">
<polygon fill="white" stroke="#666666" points="202,-111 137,-111 137,-92 202,-92 202,-111"/>
<text text-anchor="middle" x="169.5" y="-99" font-family="Helvetica,sans-Serif" font-size="10.00">ast_run_if</text>
</a>
</g>
</g>
<!-- Node22&#45;&gt;Node25 -->
<g id="edge34_Node000022_Node000025" class="edge">
<title>Node22&#45;&gt;Node25</title>
<g id="a_edge34_Node000022_Node000025"><a xlink:title=" ">
<path fill="none" stroke="#63b8ff" d="M275.28,-157.01C263.9,-142.1 244.41,-122.5 224,-110.5 217.24,-106.53 209.48,-103.28 202.01,-100.96"/>
<polygon fill="#63b8ff" stroke="#63b8ff" points="272.66,-159.37 281.26,-165.57 278.41,-155.37 272.66,-159.37"/>
</a>
</g>
</g>
<!-- Node26 -->
<g id="Node000026" class="node">
<title>Node26</title>
<g id="a_Node000026"><a xlink:href="ast__run_8c.html#ae25cd3ced8abafd76110dba8852a6b87" target="_top" xlink:title=" ">
<polygon fill="white" stroke="#666666" points="206,-56 133,-56 133,-37 206,-37 206,-56"/>
<text text-anchor="middle" x="169.5" y="-44" font-family="Helvetica,sans-Serif" font-size="10.00">ast_run_list</text>
</a>
</g>
</g>
<!-- Node22&#45;&gt;Node26 -->
<g id="edge36_Node000022_Node000026" class="edge">
<title>Node22&#45;&gt;Node26</title>
<g id="a_edge36_Node000022_Node000026"><a xlink:title=" ">
<path fill="none" stroke="#63b8ff" d="M278.87,-156.28C268.87,-133.99 248.48,-98.18 224,-73.5 217.53,-66.98 209.72,-60.95 202.09,-56.05"/>
<polygon fill="#63b8ff" stroke="#63b8ff" points="275.74,-157.87 282.82,-165.76 282.21,-155.18 275.74,-157.87"/>
</a>
</g>
</g>
<!-- Node27 -->
<g id="Node000027" class="node">
<title>Node27</title>
<g id="a_Node000027"><a xlink:href="ast__run_8c.html#a536f37ba9bffcd2099fef668656181e0" target="_top" xlink:title=" ">
<polygon fill="white" stroke="#666666" points="209,-353 130,-353 130,-334 209,-334 209,-353"/>
<text text-anchor="middle" x="169.5" y="-341" font-family="Helvetica,sans-Serif" font-size="10.00">ast_run_loop</text>
</a>
</g>
</g>
<!-- Node22&#45;&gt;Node27 -->
<g id="edge39_Node000022_Node000027" class="edge">
<title>Node22&#45;&gt;Node27</title>
<g id="a_edge39_Node000022_Node000027"><a xlink:title=" ">
<path fill="none" stroke="#63b8ff" d="M281.45,-195.17C274.98,-225.3 259.24,-281.98 224,-315.5 213.71,-325.28 198.07,-330.07 186.35,-333.99"/>
<polygon fill="#63b8ff" stroke="#63b8ff" points="284.95,-195.52 283.5,-185.03 278.09,-194.14 284.95,-195.52"/>
</a>
</g>
</g>
<!-- Node28 -->
<g id="Node000028" class="node">
<title>Node28</title>
<g id="a_Node000028"><a xlink:href="ast__run_8c.html#aa3e6a973e744d748ee415840596beb53" target="_top" xlink:title=" ">
<polygon fill="white" stroke="#666666" points="224,-316 115,-316 115,-297 224,-297 224,-316"/>
<text text-anchor="middle" x="169.5" y="-304" font-family="Helvetica,sans-Serif" font-size="10.00">ast_run_shell_redir</text>
</a>
</g>
</g>
<!-- Node22&#45;&gt;Node28 -->
<g id="edge41_Node000022_Node000028" class="edge">
<title>Node22&#45;&gt;Node28</title>
<g id="a_edge41_Node000022_Node000028"><a xlink:title=" ">
<path fill="none" stroke="#63b8ff" d="M277.37,-194.62C268.2,-217.71 250.96,-255.56 224,-278.5 212.89,-287.95 196.74,-292.83 185.1,-296.99"/>
<polygon fill="#63b8ff" stroke="#63b8ff" points="280.69,-195.75 281.02,-185.16 274.16,-193.23 280.69,-195.75"/>
</a>
</g>
</g>
<!-- Node29 -->
<g id="Node000029" class="node">
<title>Node29</title>
<g id="a_Node000029"><a xlink:href="exec_8c.html#a23babf893bbcd2f6126698a1a19b169f" target="_top" xlink:title="Execute funct with given arguments.">
<polygon fill="white" stroke="#666666" points="202,-390 137,-390 137,-371 202,-371 202,-390"/>
<text text-anchor="middle" x="169.5" y="-378" font-family="Helvetica,sans-Serif" font-size="10.00">exec_func</text>
</a>
</g>
</g>
<!-- Node22&#45;&gt;Node29 -->
<g id="edge43_Node000022_Node000029" class="edge">
<title>Node22&#45;&gt;Node29</title>
<g id="a_edge43_Node000022_Node000029"><a xlink:title=" ">
<path fill="none" stroke="#63b8ff" d="M281.26,-195.33C271.75,-238.14 247.69,-337.29 224,-361.5 218.07,-367.56 210.09,-371.69 202.1,-374.51"/>
<polygon fill="#63b8ff" stroke="#63b8ff" points="284.74,-195.82 283.45,-185.3 277.9,-194.32 284.74,-195.82"/>
</a>
</g>
</g>
<!-- Node30 -->
<g id="Node000030" class="node">
<title>Node30</title>
<g id="a_Node000030"><a xlink:href="exec_8c.html#ab743cb88e12e9b922050925fd2075e36" target="_top" xlink:title="Execute a pipeline of commands.">
<polygon fill="white" stroke="#666666" points="202,-261 137,-261 137,-242 202,-242 202,-261"/>
<text text-anchor="middle" x="169.5" y="-249" font-family="Helvetica,sans-Serif" font-size="10.00">exec_pipe</text>
</a>
</g>
</g>
<!-- Node22&#45;&gt;Node30 -->
<g id="edge45_Node000022_Node000030" class="edge">
<title>Node22&#45;&gt;Node30</title>
<g id="a_edge45_Node000022_Node000030"><a xlink:title=" ">
<path fill="none" stroke="#63b8ff" d="M268.37,-192.27C256.56,-203.22 240.15,-217.33 224,-227.5 215.21,-233.03 204.93,-237.96 195.75,-241.9"/>
<polygon fill="#63b8ff" stroke="#63b8ff" points="270.89,-194.69 275.74,-185.27 266.08,-189.62 270.89,-194.69"/>
</a>
</g>
</g>
<!-- Node23&#45;&gt;Node22 -->
<g id="edge31_Node000023_Node000022" class="edge">
<title>Node23&#45;&gt;Node22</title>
<g id="a_edge31_Node000023_Node000022"><a xlink:title=" ">
<path fill="none" stroke="#63b8ff" d="M225.45,-182.24C237.52,-182.3 249.74,-181.96 259.98,-181.22"/>
<polygon fill="#63b8ff" stroke="#63b8ff" points="225.45,-178.74 215.4,-182.1 225.35,-185.74 225.45,-178.74"/>
</a>
</g>
</g>
<!-- Node24&#45;&gt;Node22 -->
<g id="edge33_Node000024_Node000022" class="edge">
<title>Node24&#45;&gt;Node22</title>
<g id="a_edge33_Node000024_Node000022"><a xlink:title=" ">
<path fill="none" stroke="#63b8ff" d="M194.64,-151.89C213.79,-159.52 240.48,-168.14 259.98,-173.01"/>
<polygon fill="#63b8ff" stroke="#63b8ff" points="195.97,-148.65 185.4,-148.01 193.27,-155.1 195.97,-148.65"/>
</a>
</g>
</g>
<!-- Node25&#45;&gt;Node22 -->
<g id="edge35_Node000025_Node000022" class="edge">
<title>Node25&#45;&gt;Node22</title>
<g id="a_edge35_Node000025_Node000022"><a xlink:title=" ">
<path fill="none" stroke="#63b8ff" d="M191.95,-114.66C202.09,-118.43 214.12,-122.69 224,-128.5 241.68,-138.89 258.66,-154.99 270.29,-165.72"/>
<polygon fill="#63b8ff" stroke="#63b8ff" points="193.17,-111.38 182.58,-111.01 190.63,-117.9 193.17,-111.38"/>
</a>
</g>
</g>
<!-- Node26&#45;&gt;Node22 -->
<g id="edge38_Node000026_Node000022" class="edge">
<title>Node26&#45;&gt;Node22</title>
<g id="a_edge38_Node000026_Node000022"><a xlink:title=" ">
<path fill="none" stroke="#63b8ff" d="M186.21,-62.3C197.56,-70.37 212.8,-80.21 224,-91.5 247.45,-115.14 267.15,-148.99 277.55,-165.94"/>
<polygon fill="#63b8ff" stroke="#63b8ff" points="188.2,-59.42 178.09,-56.22 184,-65.02 188.2,-59.42"/>
</a>
</g>
</g>
<!-- Node26&#45;&gt;Node26 -->
<g id="edge37_Node000026_Node000026" class="edge">
<title>Node26&#45;&gt;Node26</title>
<g id="a_edge37_Node000026_Node000026"><a xlink:title=" ">
<path fill="none" stroke="#63b8ff" d="M190.98,-65.55C189.55,-70.38 182.39,-74 169.5,-74 148.88,-74 142.92,-64.73 151.62,-56.08"/>
<polygon fill="#63b8ff" stroke="#63b8ff" points="194.2,-64.19 187.38,-56.08 187.66,-66.67 194.2,-64.19"/>
</a>
</g>
</g>
<!-- Node27&#45;&gt;Node22 -->
<g id="edge40_Node000027_Node000022" class="edge">
<title>Node27&#45;&gt;Node22</title>
<g id="a_edge40_Node000027_Node000022"><a xlink:title=" ">
<path fill="none" stroke="#63b8ff" d="M217.9,-338.36C220.07,-336.9 222.13,-335.28 224,-333.5 268.21,-291.46 281.72,-212.97 284.76,-185.04"/>
<polygon fill="#63b8ff" stroke="#63b8ff" points="216.13,-335.33 209.02,-343.19 219.48,-341.48 216.13,-335.33"/>
</a>
</g>
</g>
<!-- Node28&#45;&gt;Node22 -->
<g id="edge42_Node000028_Node000022" class="edge">
<title>Node28&#45;&gt;Node22</title>
<g id="a_edge42_Node000028_Node000022"><a xlink:title=" ">
<path fill="none" stroke="#63b8ff" d="M230.97,-289.97C262.55,-258 279.03,-207.02 283.92,-185.14"/>
<polygon fill="#63b8ff" stroke="#63b8ff" points="228.49,-287.51 223.55,-296.88 233.25,-292.63 228.49,-287.51"/>
</a>
</g>
</g>
<!-- Node29&#45;&gt;Node20 -->
<g id="edge44_Node000029_Node000020" class="edge">
<title>Node29&#45;&gt;Node20</title>
<g id="a_edge44_Node000029_Node000020"><a xlink:title=" ">
<path fill="none" stroke="#63b8ff" d="M211.21,-367.3C215.6,-365.51 219.94,-363.57 224,-361.5 332.2,-306.41 447.84,-214.62 484.02,-185.01"/>
<polygon fill="#63b8ff" stroke="#63b8ff" points="209.71,-364.13 201.63,-370.98 212.22,-370.66 209.71,-364.13"/>
</a>
</g>
</g>
<!-- Node30&#45;&gt;Node30 -->
<g id="edge48_Node000030_Node000030" class="edge">
<title>Node30&#45;&gt;Node30</title>
<g id="a_edge48_Node000030_Node000030"><a xlink:title=" ">
<path fill="none" stroke="#63b8ff" d="M190.98,-270.55C189.55,-275.38 182.39,-279 169.5,-279 148.88,-279 142.92,-269.73 151.62,-261.08"/>
<polygon fill="#63b8ff" stroke="#63b8ff" points="194.2,-269.19 187.38,-261.08 187.66,-271.67 194.2,-269.19"/>
</a>
</g>
</g>
<!-- Node31 -->
<g id="Node000031" class="node">
<title>Node31</title>
<g id="a_Node000031"><a xlink:href="ast__run_8c.html#a24d0223822f7b635628199085c3283be" target="_top" xlink:title=" ">
<polygon fill="white" stroke="#666666" points="79,-242 0,-242 0,-223 79,-223 79,-242"/>
<text text-anchor="middle" x="39.5" y="-230" font-family="Helvetica,sans-Serif" font-size="10.00">ast_run_pipe</text>
</a>
</g>
</g>
<!-- Node30&#45;&gt;Node31 -->
<g id="edge46_Node000030_Node000031" class="edge">
<title>Node30&#45;&gt;Node31</title>
<g id="a_edge46_Node000030_Node000031"><a xlink:title=" ">
<path fill="none" stroke="#63b8ff" d="M126.62,-245.28C111.32,-243.01 94.09,-240.45 79.08,-238.23"/>
<polygon fill="#63b8ff" stroke="#63b8ff" points="126.45,-248.8 136.86,-246.8 127.48,-241.87 126.45,-248.8"/>
</a>
</g>
</g>
<!-- Node31&#45;&gt;Node22 -->
<g id="edge47_Node000031_Node000022" class="edge">
<title>Node31&#45;&gt;Node22</title>
<g id="a_edge47_Node000031_Node000022"><a xlink:title=" ">
<path fill="none" stroke="#63b8ff" d="M89.05,-223.22C126.17,-215.87 178.54,-204.97 224,-193.5 235.87,-190.51 248.89,-186.76 259.88,-183.47"/>
<polygon fill="#63b8ff" stroke="#63b8ff" points="88.14,-219.83 79,-225.19 89.49,-226.7 88.14,-219.83"/>
</a>
</g>
</g>
<!-- Node32&#45;&gt;Node3 -->
<g id="edge52_Node000032_Node000003" class="edge">
<title>Node32&#45;&gt;Node3</title>
<g id="a_edge52_Node000032_Node000003"><a xlink:title=" ">
<path fill="none" stroke="#63b8ff" d="M1702.96,-224.39C1692.81,-226.56 1682.22,-228.82 1672.3,-230.94"/>
<polygon fill="#63b8ff" stroke="#63b8ff" points="1703.88,-227.78 1712.93,-222.27 1702.42,-220.93 1703.88,-227.78"/>
</a>
</g>
</g>
</g>
</svg>
