<?xml version="1.0" encoding="UTF-8" standalone="no"?>
<!DOCTYPE svg PUBLIC "-//W3C//DTD SVG 1.1//EN"
 "http://www.w3.org/Graphics/SVG/1.1/DTD/svg11.dtd">
<!-- Generated by graphviz version 2.43.0 (0)
 -->
<!-- Title: parser_element Pages: 1 -->
<svg width="1258pt" height="667pt"
 viewBox="0.00 0.00 1258.00 667.00" xmlns="http://www.w3.org/2000/svg" xmlns:xlink="http://www.w3.org/1999/xlink">
<g id="graph0" class="graph" transform="scale(1 1) rotate(0) translate(4 663)">
<title>parser_element</title>
<!-- Node1 -->
<g id="Node000001" class="node">
<title>Node1</title>
<g id="a_Node000001"><a xlink:title="Handle an element in a command: either a word or a redirection.">
<polygon fill="#999999" stroke="#666666" points="93,-319 0,-319 0,-300 93,-300 93,-319"/>
<text text-anchor="middle" x="46.5" y="-307" font-family="Helvetica,sans-Serif" font-size="10.00">parser_element</text>
</a>
</g>
</g>
<!-- Node2 -->
<g id="Node000002" class="node">
<title>Node2</title>
<g id="a_Node000002"><a xlink:href="parser__utils_8c.html#ad91e883ddb1e91cde4e34a0f00e009ce" target="_top" xlink:title=" ">
<polygon fill="white" stroke="#666666" points="298.5,-357 245.5,-357 245.5,-338 298.5,-338 298.5,-357"/>
<text text-anchor="middle" x="272" y="-345" font-family="Helvetica,sans-Serif" font-size="10.00">is_redir</text>
</a>
</g>
</g>
<!-- Node1&#45;&gt;Node2 -->
<g id="edge1_Node000001_Node000002" class="edge">
<title>Node1&#45;&gt;Node2</title>
<g id="a_edge1_Node000001_Node000002"><a xlink:title=" ">
<path fill="none" stroke="#63b8ff" d="M93.27,-317.28C135.29,-324.43 196.71,-334.87 235.24,-341.42"/>
<polygon fill="#63b8ff" stroke="#63b8ff" points="235.02,-344.93 245.46,-343.16 236.19,-338.03 235.02,-344.93"/>
</a>
</g>
</g>
<!-- Node3 -->
<g id="Node000003" class="node">
<title>Node3</title>
<g id="a_Node000003"><a xlink:href="parser__redirections_8c.html#a34130e6d959e97ce9b1c87f1e42973ba" target="_top" xlink:title="Parse a redirection.">
<polygon fill="white" stroke="#666666" points="204,-281 129,-281 129,-262 204,-262 204,-281"/>
<text text-anchor="middle" x="166.5" y="-269" font-family="Helvetica,sans-Serif" font-size="10.00">parser_redir</text>
</a>
</g>
</g>
<!-- Node1&#45;&gt;Node3 -->
<g id="edge2_Node000001_Node000003" class="edge">
<title>Node1&#45;&gt;Node3</title>
<g id="a_edge2_Node000001_Node000003"><a xlink:title=" ">
<path fill="none" stroke="#63b8ff" d="M77.28,-299.91C92.09,-295.14 110.19,-289.31 126.13,-284.18"/>
<polygon fill="#63b8ff" stroke="#63b8ff" points="127.29,-287.48 135.73,-281.09 125.14,-280.82 127.29,-287.48"/>
</a>
</g>
</g>
<!-- Node8 -->
<g id="Node000008" class="node">
<title>Node8</title>
<g id="a_Node000008"><a xlink:href="parser__utils_8c.html#a0f885603168edee811b2b6880a9bf598" target="_top" xlink:title="Peek on the lexer to see the current token.">
<polygon fill="white" stroke="#666666" points="402.5,-340 361.5,-340 361.5,-321 402.5,-321 402.5,-340"/>
<text text-anchor="middle" x="382" y="-328" font-family="Helvetica,sans-Serif" font-size="10.00">peek</text>
</a>
</g>
</g>
<!-- Node1&#45;&gt;Node8 -->
<g id="edge54_Node000001_Node000008" class="edge">
<title>Node1&#45;&gt;Node8</title>
<g id="a_edge54_Node000001_Node000008"><a xlink:title=" ">
<path fill="none" stroke="#63b8ff" d="M65.54,-319.02C107.41,-339.91 214.49,-386.39 304,-366.5 322.67,-362.35 342.17,-353.18 356.88,-345.13"/>
<polygon fill="#63b8ff" stroke="#63b8ff" points="358.83,-348.05 365.79,-340.06 355.37,-341.96 358.83,-348.05"/>
</a>
</g>
</g>
<!-- Node36 -->
<g id="Node000036" class="node">
<title>Node36</title>
<g id="a_Node000036"><a xlink:href="parser__utils_8c.html#a2231147ddff6c3f7ee8c218a9273465e" target="_top" xlink:title="Pop the current token from lex.">
<polygon fill="white" stroke="#666666" points="289.5,-168 254.5,-168 254.5,-149 289.5,-149 289.5,-168"/>
<text text-anchor="middle" x="272" y="-156" font-family="Helvetica,sans-Serif" font-size="10.00">pop</text>
</a>
</g>
</g>
<!-- Node1&#45;&gt;Node36 -->
<g id="edge55_Node000001_Node000036" class="edge">
<title>Node1&#45;&gt;Node36</title>
<g id="a_edge55_Node000001_Node000036"><a xlink:title=" ">
<path fill="none" stroke="#63b8ff" d="M61.31,-299.94C77.49,-288.74 105.13,-269.69 129,-253.5 170.87,-225.11 219.97,-192.39 248.09,-173.7"/>
<polygon fill="#63b8ff" stroke="#63b8ff" points="250.05,-176.6 256.45,-168.15 246.18,-170.77 250.05,-176.6"/>
</a>
</g>
</g>
<!-- Node3&#45;&gt;Node2 -->
<g id="edge7_Node000003_Node000002" class="edge">
<title>Node3&#45;&gt;Node2</title>
<g id="a_edge7_Node000003_Node000002"><a xlink:title=" ">
<path fill="none" stroke="#63b8ff" d="M180.61,-281.13C198.03,-293.92 229.02,-316.67 249.79,-331.93"/>
<polygon fill="#63b8ff" stroke="#63b8ff" points="247.87,-334.86 258,-337.95 252.01,-329.21 247.87,-334.86"/>
</a>
</g>
</g>
<!-- Node4 -->
<g id="Node000004" class="node">
<title>Node4</title>
<g id="a_Node000004"><a xlink:href="parser__utils_8c.html#a850bf7ce4f8841d46020a022c0ab32fc" target="_top" xlink:title="Free a discarded token.">
<polygon fill="white" stroke="#666666" points="424,-164 340,-164 340,-145 424,-145 424,-164"/>
<text text-anchor="middle" x="382" y="-152" font-family="Helvetica,sans-Serif" font-size="10.00">discard_token</text>
</a>
</g>
</g>
<!-- Node3&#45;&gt;Node4 -->
<g id="edge3_Node000003_Node000004" class="edge">
<title>Node3&#45;&gt;Node4</title>
<g id="a_edge3_Node000003_Node000004"><a xlink:title=" ">
<path fill="none" stroke="#63b8ff" d="M178.71,-261.66C192.47,-249.9 216.85,-230.12 240,-216.5 274.07,-196.46 315.79,-178.9 344.98,-167.63"/>
<polygon fill="#63b8ff" stroke="#63b8ff" points="346.27,-170.88 354.37,-164.05 343.78,-164.34 346.27,-170.88"/>
</a>
</g>
</g>
<!-- Node6 -->
<g id="Node000006" class="node">
<title>Node6</title>
<g id="a_Node000006"><a xlink:href="redir_8c.html#a66e1b4443235f9dead4bef79426a867e" target="_top" xlink:title="Free redir struct.">
<polygon fill="white" stroke="#666666" points="304,-244 240,-244 240,-225 304,-225 304,-244"/>
<text text-anchor="middle" x="272" y="-232" font-family="Helvetica,sans-Serif" font-size="10.00">free_redir</text>
</a>
</g>
</g>
<!-- Node3&#45;&gt;Node6 -->
<g id="edge5_Node000003_Node000006" class="edge">
<title>Node3&#45;&gt;Node6</title>
<g id="a_edge5_Node000003_Node000006"><a xlink:title=" ">
<path fill="none" stroke="#63b8ff" d="M194.15,-261.97C206.37,-257.6 221.05,-252.36 234.3,-247.62"/>
<polygon fill="#63b8ff" stroke="#63b8ff" points="235.84,-250.79 244.08,-244.12 233.48,-244.2 235.84,-250.79"/>
</a>
</g>
</g>
<!-- Node7 -->
<g id="Node000007" class="node">
<title>Node7</title>
<g id="a_Node000007"><a xlink:href="redir_8c.html#aae807d41dfdf4158c698f5eb4cf7aa41" target="_top" xlink:title="Init redir struct.">
<polygon fill="white" stroke="#666666" points="302,-281 242,-281 242,-262 302,-262 302,-281"/>
<text text-anchor="middle" x="272" y="-269" font-family="Helvetica,sans-Serif" font-size="10.00">init_redir</text>
</a>
</g>
</g>
<!-- Node3&#45;&gt;Node7 -->
<g id="edge6_Node000003_Node000007" class="edge">
<title>Node3&#45;&gt;Node7</title>
<g id="a_edge6_Node000003_Node000007"><a xlink:title=" ">
<path fill="none" stroke="#63b8ff" d="M204.28,-271.5C213.14,-271.5 222.63,-271.5 231.6,-271.5"/>
<polygon fill="#63b8ff" stroke="#63b8ff" points="231.81,-275 241.81,-271.5 231.81,-268 231.81,-275"/>
</a>
</g>
</g>
<!-- Node3&#45;&gt;Node8 -->
<g id="edge8_Node000003_Node000008" class="edge">
<title>Node3&#45;&gt;Node8</title>
<g id="a_edge8_Node000003_Node000008"><a xlink:title=" ">
<path fill="none" stroke="#63b8ff" d="M202.28,-281.11C243.82,-292.59 312.58,-311.59 351.59,-322.37"/>
<polygon fill="#63b8ff" stroke="#63b8ff" points="350.73,-325.77 361.3,-325.06 352.59,-319.02 350.73,-325.77"/>
</a>
</g>
</g>
<!-- Node3&#45;&gt;Node36 -->
<g id="edge52_Node000003_Node000036" class="edge">
<title>Node3&#45;&gt;Node36</title>
<g id="a_edge52_Node000003_Node000036"><a xlink:title=" ">
<path fill="none" stroke="#63b8ff" d="M174.26,-261.81C186.37,-244.78 213.04,-208.8 240,-182.5 242.8,-179.77 245.89,-177.06 249.02,-174.5"/>
<polygon fill="#63b8ff" stroke="#63b8ff" points="251.44,-177.05 257.17,-168.14 247.13,-171.53 251.44,-177.05"/>
</a>
</g>
</g>
<!-- Node5 -->
<g id="Node000005" class="node">
<title>Node5</title>
<g id="a_Node000005"><a xlink:href="token_8c.html#a491cb915cd703d12b24d7c6adc0412cc" target="_top" xlink:title=" ">
<polygon fill="white" stroke="#666666" points="606.5,-58 538.5,-58 538.5,-39 606.5,-39 606.5,-58"/>
<text text-anchor="middle" x="572.5" y="-46" font-family="Helvetica,sans-Serif" font-size="10.00">free_token</text>
</a>
</g>
</g>
<!-- Node4&#45;&gt;Node5 -->
<g id="edge4_Node000004_Node000005" class="edge">
<title>Node4&#45;&gt;Node5</title>
<g id="a_edge4_Node000004_Node000005"><a xlink:title=" ">
<path fill="none" stroke="#63b8ff" d="M400.06,-144.91C433.2,-126.27 506.46,-85.08 545.62,-63.05"/>
<polygon fill="#63b8ff" stroke="#63b8ff" points="547.34,-66.1 554.34,-58.15 543.91,-60 547.34,-66.1"/>
</a>
</g>
</g>
<!-- Node9 -->
<g id="Node000009" class="node">
<title>Node9</title>
<g id="a_Node000009"><a xlink:href="lexer_8c.html#ab0a076d4847ef2557a4e8d2e0852092d" target="_top" xlink:title="Transforme le FILE en token.">
<polygon fill="white" stroke="#666666" points="501,-509 460,-509 460,-490 501,-490 501,-509"/>
<text text-anchor="middle" x="480.5" y="-497" font-family="Helvetica,sans-Serif" font-size="10.00">lexer</text>
</a>
</g>
</g>
<!-- Node8&#45;&gt;Node9 -->
<g id="edge9_Node000008_Node000009" class="edge">
<title>Node8&#45;&gt;Node9</title>
<g id="a_edge9_Node000008_Node000009"><a xlink:title=" ">
<path fill="none" stroke="#63b8ff" d="M388.46,-340.07C403.92,-367.13 448.14,-444.58 468.72,-480.62"/>
<polygon fill="#63b8ff" stroke="#63b8ff" points="465.86,-482.67 473.85,-489.61 471.94,-479.19 465.86,-482.67"/>
</a>
</g>
</g>
<!-- Node9&#45;&gt;Node5 -->
<g id="edge12_Node000009_Node000005" class="edge">
<title>Node9&#45;&gt;Node5</title>
<g id="a_edge12_Node000009_Node000005"><a xlink:title=" ">
<path fill="none" stroke="#63b8ff" d="M481.71,-489.83C483.09,-433.34 492.25,-146.12 537,-72.5 538.78,-69.57 541.07,-66.91 543.62,-64.51"/>
<polygon fill="#63b8ff" stroke="#63b8ff" points="546.08,-67.03 551.82,-58.13 541.78,-61.51 546.08,-67.03"/>
</a>
</g>
</g>
<!-- Node10 -->
<g id="Node000010" class="node">
<title>Node10</title>
<g id="a_Node000010"><a xlink:href="lexer__tokens_8c.html#ae59c383936dadf54742b836a5bd2a70b" target="_top" xlink:title=" ">
<polygon fill="white" stroke="#666666" points="1035.5,-95 963.5,-95 963.5,-76 1035.5,-76 1035.5,-95"/>
<text text-anchor="middle" x="999.5" y="-83" font-family="Helvetica,sans-Serif" font-size="10.00">check_type</text>
</a>
</g>
</g>
<!-- Node9&#45;&gt;Node10 -->
<g id="edge10_Node000009_Node000010" class="edge">
<title>Node9&#45;&gt;Node10</title>
<g id="a_edge10_Node000009_Node000010"><a xlink:title=" ">
<path fill="none" stroke="#63b8ff" d="M484.12,-489.97C495.95,-448.45 548.01,-281 644,-181.5 693.45,-130.24 715.87,-124.28 784,-103.5 840.59,-86.24 909.22,-83.45 953.35,-83.82"/>
<polygon fill="#63b8ff" stroke="#63b8ff" points="953.43,-87.33 963.48,-83.97 953.53,-80.33 953.43,-87.33"/>
</a>
</g>
</g>
<!-- Node11 -->
<g id="Node000011" class="node">
<title>Node11</title>
<g id="a_Node000011"><a xlink:href="lexer__tokens_8c.html#af41b4fb75a0f3ece50d1c55cf5ad55bd" target="_top" xlink:title=" ">
<polygon fill="white" stroke="#666666" points="606,-659 539,-659 539,-640 606,-640 606,-659"/>
<text text-anchor="middle" x="572.5" y="-647" font-family="Helvetica,sans-Serif" font-size="10.00">end_token</text>
</a>
</g>
</g>
<!-- Node9&#45;&gt;Node11 -->
<g id="edge11_Node000009_Node000011" class="edge">
<title>Node9&#45;&gt;Node11</title>
<g id="a_edge11_Node000009_Node000011"><a xlink:title=" ">
<path fill="none" stroke="#63b8ff" d="M483.19,-509.01C487.8,-532.52 502.66,-594.18 537,-631.5 537.75,-632.32 538.56,-633.11 539.39,-633.87"/>
<polygon fill="#63b8ff" stroke="#63b8ff" points="537.54,-636.85 547.69,-639.89 541.65,-631.18 537.54,-636.85"/>
</a>
</g>
</g>
<!-- Node12 -->
<g id="Node000012" class="node">
<title>Node12</title>
<g id="a_Node000012"><a xlink:href="token_8c.html#a4f0f028b792947862bc2364f30f3d3d2" target="_top" xlink:title="Init struct token.">
<polygon fill="white" stroke="#666666" points="605,-622 540,-622 540,-603 605,-603 605,-622"/>
<text text-anchor="middle" x="572.5" y="-610" font-family="Helvetica,sans-Serif" font-size="10.00">init_token</text>
</a>
</g>
</g>
<!-- Node9&#45;&gt;Node12 -->
<g id="edge13_Node000009_Node000012" class="edge">
<title>Node9&#45;&gt;Node12</title>
<g id="a_edge13_Node000009_Node000012"><a xlink:title=" ">
<path fill="none" stroke="#63b8ff" d="M484.97,-509.02C492.14,-527.56 510.18,-568.93 537,-594.5 538.07,-595.52 539.21,-596.5 540.4,-597.43"/>
<polygon fill="#63b8ff" stroke="#63b8ff" points="538.48,-600.36 548.75,-602.97 542.35,-594.53 538.48,-600.36"/>
</a>
</g>
</g>
<!-- Node13 -->
<g id="Node000013" class="node">
<title>Node13</title>
<g id="a_Node000013"><a xlink:href="lexer__operators_8c.html#a274e606313b69e42745e7278ed244bc8" target="_top" xlink:title="Handle a possible operator.">
<polygon fill="white" stroke="#666666" points="733,-547 659,-547 659,-528 733,-528 733,-547"/>
<text text-anchor="middle" x="696" y="-535" font-family="Helvetica,sans-Serif" font-size="10.00">manage_op</text>
</a>
</g>
</g>
<!-- Node9&#45;&gt;Node13 -->
<g id="edge14_Node000009_Node000013" class="edge">
<title>Node9&#45;&gt;Node13</title>
<g id="a_edge14_Node000009_Node000013"><a xlink:title=" ">
<path fill="none" stroke="#63b8ff" d="M501.17,-504.95C511.74,-507.76 525.02,-511.08 537,-513.5 574.26,-521.01 616.9,-527.36 648.48,-531.63"/>
<polygon fill="#63b8ff" stroke="#63b8ff" points="648.37,-535.15 658.74,-533 649.29,-528.21 648.37,-535.15"/>
</a>
</g>
</g>
<!-- Node15 -->
<g id="Node000015" class="node">
<title>Node15</title>
<g id="a_Node000015"><a xlink:href="lexer__operators_8c.html#a0758cae1bae4276754a185e231ad4760" target="_top" xlink:title="Handle different redirections.">
<polygon fill="white" stroke="#666666" points="882,-509 798,-509 798,-490 882,-490 882,-509"/>
<text text-anchor="middle" x="840" y="-497" font-family="Helvetica,sans-Serif" font-size="10.00">manage_redir</text>
</a>
</g>
</g>
<!-- Node9&#45;&gt;Node15 -->
<g id="edge16_Node000009_Node000015" class="edge">
<title>Node9&#45;&gt;Node15</title>
<g id="a_edge16_Node000009_Node000015"><a xlink:title=" ">
<path fill="none" stroke="#63b8ff" d="M501.23,-499.5C555.3,-499.5 707.18,-499.5 787.58,-499.5"/>
<polygon fill="#63b8ff" stroke="#63b8ff" points="787.97,-503 797.97,-499.5 787.97,-496 787.97,-503"/>
</a>
</g>
</g>
<!-- Node16 -->
<g id="Node000016" class="node">
<title>Node16</title>
<g id="a_Node000016"><a xlink:href="lexer_8c.html#a14a1affa5f1ee7d92339872bcd3cc602" target="_top" xlink:title="identique a la fonction lexer">
<polygon fill="white" stroke="#666666" points="608,-433 537,-433 537,-414 608,-414 608,-433"/>
<text text-anchor="middle" x="572.5" y="-421" font-family="Helvetica,sans-Serif" font-size="10.00">sub_switch</text>
</a>
</g>
</g>
<!-- Node9&#45;&gt;Node16 -->
<g id="edge18_Node000009_Node000016" class="edge">
<title>Node9&#45;&gt;Node16</title>
<g id="a_edge18_Node000009_Node000016"><a xlink:title=" ">
<path fill="none" stroke="#63b8ff" d="M492.9,-489.87C507.78,-477.31 534.04,-455.13 552.08,-439.9"/>
<polygon fill="#63b8ff" stroke="#63b8ff" points="554.81,-442.17 560.19,-433.05 550.3,-436.83 554.81,-442.17"/>
</a>
</g>
</g>
<!-- Node33 -->
<g id="Node000033" class="node">
<title>Node33</title>
<g id="a_Node000033"><a xlink:href="lexer__tokens_8c.html#a78b2b413e7059cf4c7579a83bf767d13" target="_top" xlink:title=" ">
<polygon fill="white" stroke="#666666" points="608,-585 537,-585 537,-566 608,-566 608,-585"/>
<text text-anchor="middle" x="572.5" y="-573" font-family="Helvetica,sans-Serif" font-size="10.00">verif_token</text>
</a>
</g>
</g>
<!-- Node9&#45;&gt;Node33 -->
<g id="edge49_Node000009_Node000033" class="edge">
<title>Node9&#45;&gt;Node33</title>
<g id="a_edge49_Node000009_Node000033"><a xlink:title=" ">
<path fill="none" stroke="#63b8ff" d="M490.94,-509.15C501.68,-519.94 519.96,-537.71 537,-551.5 540.61,-554.42 544.55,-557.37 548.44,-560.15"/>
<polygon fill="#63b8ff" stroke="#63b8ff" points="546.51,-563.08 556.72,-565.91 550.51,-557.33 546.51,-563.08"/>
</a>
</g>
</g>
<!-- Node14 -->
<g id="Node000014" class="node">
<title>Node14</title>
<g id="a_Node000014"><a xlink:href="dot_8c.html#a36f9e0f75603ec6472a90c595e3bba79" target="_top" xlink:title="Concat path and string with &#39;/&#39; between.">
<polygon fill="white" stroke="#666666" points="1155,-301 1106,-301 1106,-282 1155,-282 1155,-301"/>
<text text-anchor="middle" x="1130.5" y="-289" font-family="Helvetica,sans-Serif" font-size="10.00">concat</text>
</a>
</g>
</g>
<!-- Node13&#45;&gt;Node14 -->
<g id="edge15_Node000013_Node000014" class="edge">
<title>Node13&#45;&gt;Node14</title>
<g id="a_edge15_Node000013_Node000014"><a xlink:title=" ">
<path fill="none" stroke="#63b8ff" d="M733.16,-546.56C805.54,-562.36 969.59,-586.2 1067,-506.5 1097.71,-481.38 1119.18,-359.61 1126.62,-311.31"/>
<polygon fill="#63b8ff" stroke="#63b8ff" points="1130.12,-311.6 1128.14,-301.19 1123.2,-310.56 1130.12,-311.6"/>
</a>
</g>
</g>
<!-- Node15&#45;&gt;Node14 -->
<g id="edge17_Node000015_Node000014" class="edge">
<title>Node15&#45;&gt;Node14</title>
<g id="a_edge17_Node000015_Node000014"><a xlink:title=" ">
<path fill="none" stroke="#63b8ff" d="M882.21,-507.32C931.66,-514.21 1014.46,-517.52 1067,-475.5 1118.1,-434.64 1127.64,-350.09 1129.27,-311.49"/>
<polygon fill="#63b8ff" stroke="#63b8ff" points="1132.78,-311.18 1129.56,-301.09 1125.78,-310.99 1132.78,-311.18"/>
</a>
</g>
</g>
<!-- Node16&#45;&gt;Node14 -->
<g id="edge19_Node000016_Node000014" class="edge">
<title>Node16&#45;&gt;Node14</title>
<g id="a_edge19_Node000016_Node000014"><a xlink:title=" ">
<path fill="none" stroke="#63b8ff" d="M603.03,-433.06C615.53,-436.69 630.34,-440.44 644,-442.5 736.98,-456.5 990.5,-487.17 1067,-432.5 1107.36,-403.66 1122.03,-342.72 1127.06,-311.25"/>
<polygon fill="#63b8ff" stroke="#63b8ff" points="1130.57,-311.49 1128.51,-301.1 1123.64,-310.5 1130.57,-311.49"/>
</a>
</g>
</g>
<!-- Node17 -->
<g id="Node000017" class="node">
<title>Node17</title>
<g id="a_Node000017"><a xlink:href="lexer__handlers_8c.html#aaf817088d95d074a2d4e6bfce7799723" target="_top" xlink:title=" ">
<polygon fill="white" stroke="#666666" points="734,-433 658,-433 658,-414 734,-414 734,-433"/>
<text text-anchor="middle" x="696" y="-421" font-family="Helvetica,sans-Serif" font-size="10.00">handle_com</text>
</a>
</g>
</g>
<!-- Node16&#45;&gt;Node17 -->
<g id="edge20_Node000016_Node000017" class="edge">
<title>Node16&#45;&gt;Node17</title>
<g id="a_edge20_Node000016_Node000017"><a xlink:title=" ">
<path fill="none" stroke="#63b8ff" d="M608.32,-423.5C620.49,-423.5 634.37,-423.5 647.41,-423.5"/>
<polygon fill="#63b8ff" stroke="#63b8ff" points="647.63,-427 657.63,-423.5 647.63,-420 647.63,-427"/>
</a>
</g>
</g>
<!-- Node18 -->
<g id="Node000018" class="node">
<title>Node18</title>
<g id="a_Node000018"><a xlink:href="lexer__handlers_8c.html#aa76e470a78c6e91c7db6cce558b1a768" target="_top" xlink:title=" ">
<polygon fill="white" stroke="#666666" points="737.5,-395 654.5,-395 654.5,-376 737.5,-376 737.5,-395"/>
<text text-anchor="middle" x="696" y="-383" font-family="Helvetica,sans-Serif" font-size="10.00">handle_quote</text>
</a>
</g>
</g>
<!-- Node16&#45;&gt;Node18 -->
<g id="edge22_Node000016_Node000018" class="edge">
<title>Node16&#45;&gt;Node18</title>
<g id="a_edge22_Node000016_Node000018"><a xlink:title=" ">
<path fill="none" stroke="#63b8ff" d="M604.16,-413.91C619.41,-409.14 638.05,-403.31 654.47,-398.18"/>
<polygon fill="#63b8ff" stroke="#63b8ff" points="655.85,-401.41 664.35,-395.09 653.76,-394.73 655.85,-401.41"/>
</a>
</g>
</g>
<!-- Node19 -->
<g id="Node000019" class="node">
<title>Node19</title>
<g id="a_Node000019"><a xlink:href="lexer_8c.html#a65b9b0626e01e0653ddcae13e7c6a709" target="_top" xlink:title="Gestion des délimiteurs.">
<polygon fill="white" stroke="#666666" points="748,-209 644,-209 644,-190 748,-190 748,-209"/>
<text text-anchor="middle" x="696" y="-197" font-family="Helvetica,sans-Serif" font-size="10.00">sub_switch_delim</text>
</a>
</g>
</g>
<!-- Node16&#45;&gt;Node19 -->
<g id="edge24_Node000016_Node000019" class="edge">
<title>Node16&#45;&gt;Node19</title>
<g id="a_edge24_Node000016_Node000019"><a xlink:title=" ">
<path fill="none" stroke="#63b8ff" d="M578.72,-413.88C597.3,-379.63 660.39,-263.3 685.03,-217.88"/>
<polygon fill="#63b8ff" stroke="#63b8ff" points="688.11,-219.55 689.8,-209.09 681.95,-216.21 688.11,-219.55"/>
</a>
</g>
</g>
<!-- Node17&#45;&gt;Node14 -->
<g id="edge21_Node000017_Node000014" class="edge">
<title>Node17&#45;&gt;Node14</title>
<g id="a_edge21_Node000017_Node000014"><a xlink:title=" ">
<path fill="none" stroke="#63b8ff" d="M734.27,-431.48C805.09,-444.51 961.45,-462.81 1067,-397.5 1098.65,-377.92 1116.17,-335.89 1124.13,-311.05"/>
<polygon fill="#63b8ff" stroke="#63b8ff" points="1127.54,-311.85 1127.05,-301.27 1120.83,-309.85 1127.54,-311.85"/>
</a>
</g>
</g>
<!-- Node18&#45;&gt;Node14 -->
<g id="edge23_Node000018_Node000014" class="edge">
<title>Node18&#45;&gt;Node14</title>
<g id="a_edge23_Node000018_Node000014"><a xlink:title=" ">
<path fill="none" stroke="#63b8ff" d="M737.7,-393.5C808.81,-405.36 958.41,-420.8 1067,-366.5 1091.3,-354.35 1109.68,-328 1120.02,-310.01"/>
<polygon fill="#63b8ff" stroke="#63b8ff" points="1123.21,-311.47 1124.92,-301.01 1117.06,-308.12 1123.21,-311.47"/>
</a>
</g>
</g>
<!-- Node19&#45;&gt;Node10 -->
<g id="edge25_Node000019_Node000010" class="edge">
<title>Node19&#45;&gt;Node10</title>
<g id="a_edge25_Node000019_Node000010"><a xlink:title=" ">
<path fill="none" stroke="#63b8ff" d="M709.27,-189.85C725.51,-177.5 755.44,-156.19 784,-143.5 839.93,-118.66 908.91,-102.33 953.29,-93.51"/>
<polygon fill="#63b8ff" stroke="#63b8ff" points="954.05,-96.92 963.2,-91.58 952.72,-90.05 954.05,-96.92"/>
</a>
</g>
</g>
<!-- Node20 -->
<g id="Node000020" class="node">
<title>Node20</title>
<g id="a_Node000020"><a xlink:href="lexer__handlers_8c.html#a9cdc56179aaccddb64447a4d56698992" target="_top" xlink:title=" ">
<polygon fill="white" stroke="#666666" points="892,-172 788,-172 788,-153 892,-153 892,-172"/>
<text text-anchor="middle" x="840" y="-160" font-family="Helvetica,sans-Serif" font-size="10.00">handle_backslash</text>
</a>
</g>
</g>
<!-- Node19&#45;&gt;Node20 -->
<g id="edge26_Node000019_Node000020" class="edge">
<title>Node19&#45;&gt;Node20</title>
<g id="a_edge26_Node000019_Node000020"><a xlink:title=" ">
<path fill="none" stroke="#63b8ff" d="M733.57,-189.97C751.48,-185.3 773.26,-179.63 792.35,-174.65"/>
<polygon fill="#63b8ff" stroke="#63b8ff" points="793.27,-178.03 802.06,-172.12 791.5,-171.26 793.27,-178.03"/>
</a>
</g>
</g>
<!-- Node21 -->
<g id="Node000021" class="node">
<title>Node21</title>
<g id="a_Node000021"><a xlink:href="lexer__handlers_8c.html#a8c5df02ee3ff790dc6256318b3dd132f" target="_top" xlink:title="Crée un token de type OPENING_BRACKET ou CLOSING_BRACKET si possible.">
<polygon fill="white" stroke="#666666" points="885.5,-320 794.5,-320 794.5,-301 885.5,-301 885.5,-320"/>
<text text-anchor="middle" x="840" y="-308" font-family="Helvetica,sans-Serif" font-size="10.00">handle_bracket</text>
</a>
</g>
</g>
<!-- Node19&#45;&gt;Node21 -->
<g id="edge28_Node000019_Node000021" class="edge">
<title>Node19&#45;&gt;Node21</title>
<g id="a_edge28_Node000019_Node000021"><a xlink:title=" ">
<path fill="none" stroke="#63b8ff" d="M709.6,-209.35C734.19,-228.57 788.76,-271.23 818.58,-294.53"/>
<polygon fill="#63b8ff" stroke="#63b8ff" points="816.6,-297.43 826.63,-300.83 820.91,-291.91 816.6,-297.43"/>
</a>
</g>
</g>
<!-- Node24 -->
<g id="Node000024" class="node">
<title>Node24</title>
<g id="a_Node000024"><a xlink:href="lexer__handlers_8c.html#a579ccaa49e18cca908ce2409b06b5825" target="_top" xlink:title=" ">
<polygon fill="white" stroke="#666666" points="889.5,-246 790.5,-246 790.5,-227 889.5,-227 889.5,-246"/>
<text text-anchor="middle" x="840" y="-234" font-family="Helvetica,sans-Serif" font-size="10.00">handle_delimiter</text>
</a>
</g>
</g>
<!-- Node19&#45;&gt;Node24 -->
<g id="edge33_Node000019_Node000024" class="edge">
<title>Node19&#45;&gt;Node24</title>
<g id="a_edge33_Node000019_Node000024"><a xlink:title=" ">
<path fill="none" stroke="#63b8ff" d="M733.57,-209.03C751.48,-213.7 773.26,-219.37 792.35,-224.35"/>
<polygon fill="#63b8ff" stroke="#63b8ff" points="791.5,-227.74 802.06,-226.88 793.27,-220.97 791.5,-227.74"/>
</a>
</g>
</g>
<!-- Node28 -->
<g id="Node000028" class="node">
<title>Node28</title>
<g id="a_Node000028"><a xlink:href="lexer__handlers_8c.html#a3122df83e320b8f4658097885f266c59" target="_top" xlink:title="Crée un token de type FUNCTION si possible.">
<polygon fill="white" stroke="#666666" points="896,-209 784,-209 784,-190 896,-190 896,-209"/>
<text text-anchor="middle" x="840" y="-197" font-family="Helvetica,sans-Serif" font-size="10.00">handle_parenthesis</text>
</a>
</g>
</g>
<!-- Node19&#45;&gt;Node28 -->
<g id="edge40_Node000019_Node000028" class="edge">
<title>Node19&#45;&gt;Node28</title>
<g id="a_edge40_Node000019_Node000028"><a xlink:title=" ">
<path fill="none" stroke="#63b8ff" d="M748.27,-199.5C756.6,-199.5 765.33,-199.5 773.95,-199.5"/>
<polygon fill="#63b8ff" stroke="#63b8ff" points="773.97,-203 783.97,-199.5 773.97,-196 773.97,-203"/>
</a>
</g>
</g>
<!-- Node29 -->
<g id="Node000029" class="node">
<title>Node29</title>
<g id="a_Node000029"><a xlink:href="lexer_8c.html#a55722ded9ba13bad6ac777b3d0f13481" target="_top" xlink:title="Gestion des opérateurs.">
<polygon fill="white" stroke="#666666" points="884,-58 796,-58 796,-39 884,-39 884,-58"/>
<text text-anchor="middle" x="840" y="-46" font-family="Helvetica,sans-Serif" font-size="10.00">sub_switch_op</text>
</a>
</g>
</g>
<!-- Node19&#45;&gt;Node29 -->
<g id="edge42_Node000019_Node000029" class="edge">
<title>Node19&#45;&gt;Node29</title>
<g id="a_edge42_Node000019_Node000029"><a xlink:title=" ">
<path fill="none" stroke="#63b8ff" d="M706.32,-189.59C729.99,-164.42 792.7,-97.73 822.64,-65.89"/>
<polygon fill="#63b8ff" stroke="#63b8ff" points="825.53,-67.93 829.83,-58.25 820.43,-63.13 825.53,-67.93"/>
</a>
</g>
</g>
<!-- Node20&#45;&gt;Node14 -->
<g id="edge27_Node000020_Node000014" class="edge">
<title>Node20&#45;&gt;Node14</title>
<g id="a_edge27_Node000020_Node000014"><a xlink:title=" ">
<path fill="none" stroke="#63b8ff" d="M871.57,-152.99C917.79,-140.58 1006.49,-124.58 1067,-162.5 1105.52,-186.64 1120.89,-242.01 1126.53,-271.75"/>
<polygon fill="#63b8ff" stroke="#63b8ff" points="1123.11,-272.51 1128.25,-281.77 1130.01,-271.33 1123.11,-272.51"/>
</a>
</g>
</g>
<!-- Node22 -->
<g id="Node000022" class="node">
<title>Node22</title>
<g id="a_Node000022"><a xlink:href="lexer__handlers_8c.html#af0bc509a05ea8f1f639745c3db1edff0" target="_top" xlink:title=" ">
<polygon fill="white" stroke="#666666" points="1065,-357 934,-357 934,-338 1065,-338 1065,-357"/>
<text text-anchor="middle" x="999.5" y="-345" font-family="Helvetica,sans-Serif" font-size="10.00">handle_closing_bracket</text>
</a>
</g>
</g>
<!-- Node21&#45;&gt;Node22 -->
<g id="edge29_Node000021_Node000022" class="edge">
<title>Node21&#45;&gt;Node22</title>
<g id="a_edge29_Node000021_Node000022"><a xlink:title=" ">
<path fill="none" stroke="#63b8ff" d="M881.56,-320.03C901.78,-324.78 926.44,-330.57 947.88,-335.61"/>
<polygon fill="#63b8ff" stroke="#63b8ff" points="947.27,-339.06 957.8,-337.94 948.87,-332.25 947.27,-339.06"/>
</a>
</g>
</g>
<!-- Node23 -->
<g id="Node000023" class="node">
<title>Node23</title>
<g id="a_Node000023"><a xlink:href="lexer__handlers_8c.html#ac6741237800ed58a7ea25d1b02c4ada3" target="_top" xlink:title=" ">
<polygon fill="white" stroke="#666666" points="1067,-320 932,-320 932,-301 1067,-301 1067,-320"/>
<text text-anchor="middle" x="999.5" y="-308" font-family="Helvetica,sans-Serif" font-size="10.00">handle_opening_bracket</text>
</a>
</g>
</g>
<!-- Node21&#45;&gt;Node23 -->
<g id="edge31_Node000021_Node000023" class="edge">
<title>Node21&#45;&gt;Node23</title>
<g id="a_edge31_Node000021_Node000023"><a xlink:title=" ">
<path fill="none" stroke="#63b8ff" d="M885.71,-310.5C896.94,-310.5 909.31,-310.5 921.61,-310.5"/>
<polygon fill="#63b8ff" stroke="#63b8ff" points="921.91,-314 931.91,-310.5 921.91,-307 921.91,-314"/>
</a>
</g>
</g>
<!-- Node22&#45;&gt;Node14 -->
<g id="edge30_Node000022_Node000014" class="edge">
<title>Node22&#45;&gt;Node14</title>
<g id="a_edge30_Node000022_Node000014"><a xlink:title=" ">
<path fill="none" stroke="#63b8ff" d="M1042.97,-337.93C1051.09,-335.56 1059.42,-332.75 1067,-329.5 1081.18,-323.42 1095.98,-314.55 1107.62,-306.91"/>
<polygon fill="#63b8ff" stroke="#63b8ff" points="1109.87,-309.61 1116.2,-301.12 1105.95,-303.81 1109.87,-309.61"/>
</a>
</g>
</g>
<!-- Node23&#45;&gt;Node14 -->
<g id="edge32_Node000023_Node000014" class="edge">
<title>Node23&#45;&gt;Node14</title>
<g id="a_edge32_Node000023_Node000014"><a xlink:title=" ">
<path fill="none" stroke="#63b8ff" d="M1065.38,-300.94C1075.86,-299.4 1086.33,-297.86 1095.68,-296.48"/>
<polygon fill="#63b8ff" stroke="#63b8ff" points="1096.32,-299.92 1105.7,-295 1095.3,-293 1096.32,-299.92"/>
</a>
</g>
</g>
<!-- Node25 -->
<g id="Node000025" class="node">
<title>Node25</title>
<g id="a_Node000025"><a xlink:href="lexer__handlers_8c.html#a2ed09a62089d61b6a2928dcbcc623e7f" target="_top" xlink:title=" ">
<polygon fill="white" stroke="#666666" points="1040.5,-209 958.5,-209 958.5,-190 1040.5,-190 1040.5,-209"/>
<text text-anchor="middle" x="999.5" y="-197" font-family="Helvetica,sans-Serif" font-size="10.00">handle_blank</text>
</a>
</g>
</g>
<!-- Node24&#45;&gt;Node25 -->
<g id="edge34_Node000024_Node000025" class="edge">
<title>Node24&#45;&gt;Node25</title>
<g id="a_edge34_Node000024_Node000025"><a xlink:title=" ">
<path fill="none" stroke="#63b8ff" d="M881.56,-226.97C901.94,-222.18 926.82,-216.34 948.39,-211.27"/>
<polygon fill="#63b8ff" stroke="#63b8ff" points="949.42,-214.63 958.35,-208.93 947.81,-207.81 949.42,-214.63"/>
</a>
</g>
</g>
<!-- Node26 -->
<g id="Node000026" class="node">
<title>Node26</title>
<g id="a_Node000026"><a xlink:href="lexer__handlers_8c.html#aa69ff9b0e657615d22e4220657378e92" target="_top" xlink:title=" ">
<polygon fill="white" stroke="#666666" points="1046,-283 953,-283 953,-264 1046,-264 1046,-283"/>
<text text-anchor="middle" x="999.5" y="-271" font-family="Helvetica,sans-Serif" font-size="10.00">handle_newline</text>
</a>
</g>
</g>
<!-- Node24&#45;&gt;Node26 -->
<g id="edge36_Node000024_Node000026" class="edge">
<title>Node24&#45;&gt;Node26</title>
<g id="a_edge36_Node000024_Node000026"><a xlink:title=" ">
<path fill="none" stroke="#63b8ff" d="M881.56,-246.03C901.78,-250.78 926.44,-256.57 947.88,-261.61"/>
<polygon fill="#63b8ff" stroke="#63b8ff" points="947.27,-265.06 957.8,-263.94 948.87,-258.25 947.27,-265.06"/>
</a>
</g>
</g>
<!-- Node27 -->
<g id="Node000027" class="node">
<title>Node27</title>
<g id="a_Node000027"><a xlink:href="lexer__handlers_8c.html#afa8aa1a23dd8c155bcfb4145f2099aaf" target="_top" xlink:title=" ">
<polygon fill="white" stroke="#666666" points="1052,-246 947,-246 947,-227 1052,-227 1052,-246"/>
<text text-anchor="middle" x="999.5" y="-234" font-family="Helvetica,sans-Serif" font-size="10.00">handle_semicolon</text>
</a>
</g>
</g>
<!-- Node24&#45;&gt;Node27 -->
<g id="edge38_Node000024_Node000027" class="edge">
<title>Node24&#45;&gt;Node27</title>
<g id="a_edge38_Node000024_Node000027"><a xlink:title=" ">
<path fill="none" stroke="#63b8ff" d="M889.54,-236.5C904.44,-236.5 921.05,-236.5 936.71,-236.5"/>
<polygon fill="#63b8ff" stroke="#63b8ff" points="936.84,-240 946.84,-236.5 936.84,-233 936.84,-240"/>
</a>
</g>
</g>
<!-- Node25&#45;&gt;Node14 -->
<g id="edge35_Node000025_Node000014" class="edge">
<title>Node25&#45;&gt;Node14</title>
<g id="a_edge35_Node000025_Node000014"><a xlink:title=" ">
<path fill="none" stroke="#63b8ff" d="M1040.81,-206.95C1049.87,-209.7 1059.12,-213.44 1067,-218.5 1088.83,-232.51 1107.2,-256.43 1118.26,-273.05"/>
<polygon fill="#63b8ff" stroke="#63b8ff" points="1115.56,-275.33 1123.89,-281.87 1121.46,-271.56 1115.56,-275.33"/>
</a>
</g>
</g>
<!-- Node26&#45;&gt;Node14 -->
<g id="edge37_Node000026_Node000014" class="edge">
<title>Node26&#45;&gt;Node14</title>
<g id="a_edge37_Node000026_Node000014"><a xlink:title=" ">
<path fill="none" stroke="#63b8ff" d="M1046.34,-279.9C1062.7,-282.18 1080.81,-284.71 1095.94,-286.82"/>
<polygon fill="#63b8ff" stroke="#63b8ff" points="1095.5,-290.29 1105.88,-288.2 1096.46,-283.36 1095.5,-290.29"/>
</a>
</g>
</g>
<!-- Node27&#45;&gt;Node14 -->
<g id="edge39_Node000027_Node000014" class="edge">
<title>Node27&#45;&gt;Node14</title>
<g id="a_edge39_Node000027_Node000014"><a xlink:title=" ">
<path fill="none" stroke="#63b8ff" d="M1040.08,-246.09C1049.08,-248.74 1058.49,-251.9 1067,-255.5 1080.65,-261.28 1095.04,-269.41 1106.56,-276.48"/>
<polygon fill="#63b8ff" stroke="#63b8ff" points="1104.79,-279.5 1115.12,-281.86 1108.52,-273.58 1104.79,-279.5"/>
</a>
</g>
</g>
<!-- Node28&#45;&gt;Node14 -->
<g id="edge41_Node000028_Node000014" class="edge">
<title>Node28&#45;&gt;Node14</title>
<g id="a_edge41_Node000028_Node000014"><a xlink:title=" ">
<path fill="none" stroke="#63b8ff" d="M880.62,-189.92C896.49,-186.54 915.01,-183.16 932,-181.5 991.71,-175.65 1015.14,-151.32 1067,-181.5 1100.55,-201.03 1117.57,-246.03 1124.89,-272.02"/>
<polygon fill="#63b8ff" stroke="#63b8ff" points="1121.54,-273.06 1127.45,-281.86 1128.32,-271.3 1121.54,-273.06"/>
</a>
</g>
</g>
<!-- Node29&#45;&gt;Node10 -->
<g id="edge43_Node000029_Node000010" class="edge">
<title>Node29&#45;&gt;Node10</title>
<g id="a_edge43_Node000029_Node000010"><a xlink:title=" ">
<path fill="none" stroke="#63b8ff" d="M881.56,-58.03C903.63,-63.21 930.99,-69.64 953.69,-74.97"/>
<polygon fill="#63b8ff" stroke="#63b8ff" points="952.89,-78.38 963.43,-77.26 954.49,-71.57 952.89,-78.38"/>
</a>
</g>
</g>
<!-- Node29&#45;&gt;Node14 -->
<g id="edge44_Node000029_Node000014" class="edge">
<title>Node29&#45;&gt;Node14</title>
<g id="a_edge44_Node000029_Node000014"><a xlink:title=" ">
<path fill="none" stroke="#63b8ff" d="M882.03,-38.97C931.68,-30.03 1015.08,-23.67 1067,-66.5 1099.14,-93 1119.95,-221.93 1126.91,-271.78"/>
<polygon fill="#63b8ff" stroke="#63b8ff" points="1123.47,-272.46 1128.29,-281.9 1130.41,-271.52 1123.47,-272.46"/>
</a>
</g>
</g>
<!-- Node30 -->
<g id="Node000030" class="node">
<title>Node30</title>
<g id="a_Node000030"><a xlink:href="lexer__handlers_8c.html#a1320ab2067e73a5de0d576175ad3d363" target="_top" xlink:title=" ">
<polygon fill="white" stroke="#666666" points="1026.5,-19 972.5,-19 972.5,0 1026.5,0 1026.5,-19"/>
<text text-anchor="middle" x="999.5" y="-7" font-family="Helvetica,sans-Serif" font-size="10.00">new_op</text>
</a>
</g>
</g>
<!-- Node29&#45;&gt;Node30 -->
<g id="edge45_Node000029_Node000030" class="edge">
<title>Node29&#45;&gt;Node30</title>
<g id="a_edge45_Node000029_Node000030"><a xlink:title=" ">
<path fill="none" stroke="#63b8ff" d="M879.53,-38.96C904.82,-32.7 937.68,-24.56 962.46,-18.42"/>
<polygon fill="#63b8ff" stroke="#63b8ff" points="963.33,-21.81 972.2,-16.01 961.65,-15.02 963.33,-21.81"/>
</a>
</g>
</g>
<!-- Node30&#45;&gt;Node14 -->
<g id="edge46_Node000030_Node000014" class="edge">
<title>Node30&#45;&gt;Node14</title>
<g id="a_edge46_Node000030_Node000014"><a xlink:title=" ">
<path fill="none" stroke="#63b8ff" d="M1026.54,-12.87C1040.4,-15.99 1056.67,-21.99 1067,-33.5 1099.1,-69.3 1120.39,-218.14 1127.17,-271.97"/>
<polygon fill="#63b8ff" stroke="#63b8ff" points="1123.7,-272.44 1128.4,-281.94 1130.65,-271.58 1123.7,-272.44"/>
</a>
</g>
</g>
<!-- Node31 -->
<g id="Node000031" class="node">
<title>Node31</title>
<g id="a_Node000031"><a xlink:href="lexer__utils_8c.html#ad3b801c5fcc7cb2d760cb161bf5038a0" target="_top" xlink:title=" ">
<polygon fill="white" stroke="#666666" points="1158,-19 1103,-19 1103,0 1158,0 1158,-19"/>
<text text-anchor="middle" x="1130.5" y="-7" font-family="Helvetica,sans-Serif" font-size="10.00">valid_io</text>
</a>
</g>
</g>
<!-- Node30&#45;&gt;Node31 -->
<g id="edge47_Node000030_Node000031" class="edge">
<title>Node30&#45;&gt;Node31</title>
<g id="a_edge47_Node000030_Node000031"><a xlink:title=" ">
<path fill="none" stroke="#63b8ff" d="M1026.61,-9.5C1045.63,-9.5 1071.65,-9.5 1092.77,-9.5"/>
<polygon fill="#63b8ff" stroke="#63b8ff" points="1092.99,-13 1102.99,-9.5 1092.99,-6 1092.99,-13"/>
</a>
</g>
</g>
<!-- Node32 -->
<g id="Node000032" class="node">
<title>Node32</title>
<g id="a_Node000032"><a xlink:href="lexer__utils_8c.html#a8fa30988b9ccc705850dfee0220bf34a" target="_top" xlink:title=" ">
<polygon fill="white" stroke="#666666" points="1250,-19 1194,-19 1194,0 1250,0 1250,-19"/>
<text text-anchor="middle" x="1222" y="-7" font-family="Helvetica,sans-Serif" font-size="10.00">all_digit</text>
</a>
</g>
</g>
<!-- Node31&#45;&gt;Node32 -->
<g id="edge48_Node000031_Node000032" class="edge">
<title>Node31&#45;&gt;Node32</title>
<g id="a_edge48_Node000031_Node000032"><a xlink:title=" ">
<path fill="none" stroke="#63b8ff" d="M1158.35,-9.5C1166.33,-9.5 1175.22,-9.5 1183.74,-9.5"/>
<polygon fill="#63b8ff" stroke="#63b8ff" points="1183.86,-13 1193.86,-9.5 1183.86,-6 1183.86,-13"/>
</a>
</g>
</g>
<!-- Node34 -->
<g id="Node000034" class="node">
<title>Node34</title>
<g id="a_Node000034"><a xlink:href="lexer__tokens_8c.html#ab8c1bbfef4c1716c7557658824823316" target="_top" xlink:title=" ">
<polygon fill="white" stroke="#666666" points="737.5,-585 654.5,-585 654.5,-566 737.5,-566 737.5,-585"/>
<text text-anchor="middle" x="696" y="-573" font-family="Helvetica,sans-Serif" font-size="10.00">verif_token_if</text>
</a>
</g>
</g>
<!-- Node33&#45;&gt;Node34 -->
<g id="edge50_Node000033_Node000034" class="edge">
<title>Node33&#45;&gt;Node34</title>
<g id="a_edge50_Node000033_Node000034"><a xlink:title=" ">
<path fill="none" stroke="#63b8ff" d="M608.32,-575.5C619.38,-575.5 631.86,-575.5 643.83,-575.5"/>
<polygon fill="#63b8ff" stroke="#63b8ff" points="644.16,-579 654.16,-575.5 644.16,-572 644.16,-579"/>
</a>
</g>
</g>
<!-- Node35 -->
<g id="Node000035" class="node">
<title>Node35</title>
<g id="a_Node000035"><a xlink:href="lexer__tokens_8c.html#a74242b2210e1f957abbecfde13ff30d4" target="_top" xlink:title=" ">
<polygon fill="white" stroke="#666666" points="745,-622 647,-622 647,-603 745,-603 745,-622"/>
<text text-anchor="middle" x="696" y="-610" font-family="Helvetica,sans-Serif" font-size="10.00">verif_token_loop</text>
</a>
</g>
</g>
<!-- Node33&#45;&gt;Node35 -->
<g id="edge51_Node000033_Node000035" class="edge">
<title>Node33&#45;&gt;Node35</title>
<g id="a_edge51_Node000033_Node000035"><a xlink:title=" ">
<path fill="none" stroke="#63b8ff" d="M604.79,-585.03C619.7,-589.57 637.72,-595.06 653.73,-599.93"/>
<polygon fill="#63b8ff" stroke="#63b8ff" points="652.81,-603.31 663.39,-602.88 654.85,-596.61 652.81,-603.31"/>
</a>
</g>
</g>
<!-- Node36&#45;&gt;Node8 -->
<g id="edge53_Node000036_Node000008" class="edge">
<title>Node36&#45;&gt;Node8</title>
<g id="a_edge53_Node000036_Node000008"><a xlink:title=" ">
<path fill="none" stroke="#63b8ff" d="M279.12,-168.24C296.57,-196.03 346.79,-276.03 369.55,-312.27"/>
<polygon fill="#63b8ff" stroke="#63b8ff" points="366.67,-314.26 374.95,-320.87 372.6,-310.54 366.67,-314.26"/>
</a>
</g>
</g>
</g>
</svg>
