<?xml version="1.0" encoding="UTF-8" standalone="no"?>
<!DOCTYPE svg PUBLIC "-//W3C//DTD SVG 1.1//EN"
 "http://www.w3.org/Graphics/SVG/1.1/DTD/svg11.dtd">
<!-- Generated by graphviz version 2.43.0 (0)
 -->
<!-- Title: parser_redir Pages: 1 -->
<svg width="2212pt" height="461pt"
 viewBox="0.00 0.00 2212.00 460.50" xmlns="http://www.w3.org/2000/svg" xmlns:xlink="http://www.w3.org/1999/xlink">
<g id="graph0" class="graph" transform="scale(1 1) rotate(0) translate(4 456.5)">
<title>parser_redir</title>
<!-- Node1 -->
<g id="Node000001" class="node">
<title>Node1</title>
<g id="a_Node000001"><a xlink:title="Parse a redirection.">
<polygon fill="#999999" stroke="#666666" points="2204,-424 2129,-424 2129,-405 2204,-405 2204,-424"/>
<text text-anchor="middle" x="2166.5" y="-412" font-family="Helvetica,sans-Serif" font-size="10.00">parser_redir</text>
</a>
</g>
</g>
<!-- Node2 -->
<g id="Node000002" class="node">
<title>Node2</title>
<g id="a_Node000002"><a xlink:href="parser__redirections_8c.html#a3c820cbe7e06249f3a043137fafe26e7" target="_top" xlink:title="Handle an element in a command: either a word or a redirection.">
<polygon fill="white" stroke="#666666" points="2093,-443 2000,-443 2000,-424 2093,-424 2093,-443"/>
<text text-anchor="middle" x="2046.5" y="-431" font-family="Helvetica,sans-Serif" font-size="10.00">parser_element</text>
</a>
</g>
</g>
<!-- Node1&#45;&gt;Node2 -->
<g id="edge1_Node000001_Node000002" class="edge">
<title>Node1&#45;&gt;Node2</title>
<g id="a_edge1_Node000001_Node000002"><a xlink:title=" ">
<path fill="none" stroke="#63b8ff" d="M2118.8,-422.02C2110.42,-423.37 2101.69,-424.78 2093.33,-426.12"/>
<polygon fill="#63b8ff" stroke="#63b8ff" points="2119.49,-425.45 2128.81,-420.41 2118.38,-418.54 2119.49,-425.45"/>
</a>
</g>
</g>
<!-- Node36 -->
<g id="Node000036" class="node">
<title>Node36</title>
<g id="a_Node000036"><a xlink:href="parser__redirections_8c.html#af19404319b0e9a74ec8c4c3f6a0cf849" target="_top" xlink:title="Handle a prefix in a command: either an assignment or a redirection.">
<polygon fill="white" stroke="#666666" points="2086.5,-406 2006.5,-406 2006.5,-387 2086.5,-387 2086.5,-406"/>
<text text-anchor="middle" x="2046.5" y="-394" font-family="Helvetica,sans-Serif" font-size="10.00">parser_prefix</text>
</a>
</g>
</g>
<!-- Node1&#45;&gt;Node36 -->
<g id="edge56_Node000001_Node000036" class="edge">
<title>Node1&#45;&gt;Node36</title>
<g id="a_edge56_Node000001_Node000036"><a xlink:title=" ">
<path fill="none" stroke="#63b8ff" d="M2118.81,-407.38C2108.15,-405.75 2096.93,-404.04 2086.62,-402.47"/>
<polygon fill="#63b8ff" stroke="#63b8ff" points="2118.4,-410.86 2128.81,-408.9 2119.45,-403.94 2118.4,-410.86"/>
</a>
</g>
</g>
<!-- Node3 -->
<g id="Node000003" class="node">
<title>Node3</title>
<g id="a_Node000003"><a xlink:href="parser__commands_8c.html#a8de59a4400a37b3e42d6475270cd5425" target="_top" xlink:title="Group words in a command in order to form a list of commands.">
<polygon fill="white" stroke="#666666" points="1964,-424 1824,-424 1824,-405 1964,-405 1964,-424"/>
<text text-anchor="middle" x="1894" y="-412" font-family="Helvetica,sans-Serif" font-size="10.00">parser_simple_command</text>
</a>
</g>
</g>
<!-- Node2&#45;&gt;Node3 -->
<g id="edge2_Node000002_Node000003" class="edge">
<title>Node2&#45;&gt;Node3</title>
<g id="a_edge2_Node000002_Node000003"><a xlink:title=" ">
<path fill="none" stroke="#63b8ff" d="M1989.87,-426.48C1981.45,-425.41 1972.68,-424.31 1964.02,-423.21"/>
<polygon fill="#63b8ff" stroke="#63b8ff" points="1989.58,-429.97 1999.94,-427.75 1990.45,-423.02 1989.58,-429.97"/>
</a>
</g>
</g>
<!-- Node4 -->
<g id="Node000004" class="node">
<title>Node4</title>
<g id="a_Node000004"><a xlink:href="parser__commands_8c.html#aa7191f56bd8e70874c5c381e52186807" target="_top" xlink:title="Parse a command which can be either a simple command or a shell command.">
<polygon fill="white" stroke="#666666" points="1788,-424 1687,-424 1687,-405 1788,-405 1788,-424"/>
<text text-anchor="middle" x="1737.5" y="-412" font-family="Helvetica,sans-Serif" font-size="10.00">parser_command</text>
</a>
</g>
</g>
<!-- Node3&#45;&gt;Node4 -->
<g id="edge3_Node000003_Node000004" class="edge">
<title>Node3&#45;&gt;Node4</title>
<g id="a_edge3_Node000003_Node000004"><a xlink:title=" ">
<path fill="none" stroke="#63b8ff" d="M1813.68,-414.5C1804.98,-414.5 1796.31,-414.5 1788.12,-414.5"/>
<polygon fill="#63b8ff" stroke="#63b8ff" points="1813.88,-418 1823.88,-414.5 1813.88,-411 1813.88,-418"/>
</a>
</g>
</g>
<!-- Node5 -->
<g id="Node000005" class="node">
<title>Node5</title>
<g id="a_Node000005"><a xlink:href="parser__pipelines_8c.html#a06068cdf8924fb28f414f419d84a5eae" target="_top" xlink:title="Parse and_or blocks separated by &#39;|&#39; (pipes)">
<polygon fill="white" stroke="#666666" points="1651,-325 1559,-325 1559,-306 1651,-306 1651,-325"/>
<text text-anchor="middle" x="1605" y="-313" font-family="Helvetica,sans-Serif" font-size="10.00">parser_pipeline</text>
</a>
</g>
</g>
<!-- Node4&#45;&gt;Node5 -->
<g id="edge4_Node000004_Node000005" class="edge">
<title>Node4&#45;&gt;Node5</title>
<g id="a_edge4_Node000004_Node000005"><a xlink:title=" ">
<path fill="none" stroke="#63b8ff" d="M1715.35,-398.45C1687.91,-377.64 1640.93,-342 1618.55,-325.02"/>
<polygon fill="#63b8ff" stroke="#63b8ff" points="1713.43,-401.39 1723.51,-404.65 1717.66,-395.81 1713.43,-401.39"/>
</a>
</g>
</g>
<!-- Node6 -->
<g id="Node000006" class="node">
<title>Node6</title>
<g id="a_Node000006"><a xlink:href="parser__pipelines_8c.html#a85ca4872d7efdb8b0cd643037ccd5763" target="_top" xlink:title="Parse and_or blocks separated by &#39;&amp;&amp;&#39; or &#39;||&#39;.">
<polygon fill="white" stroke="#666666" points="1523,-264 1437,-264 1437,-245 1523,-245 1523,-264"/>
<text text-anchor="middle" x="1480" y="-252" font-family="Helvetica,sans-Serif" font-size="10.00">parser_and_or</text>
</a>
</g>
</g>
<!-- Node5&#45;&gt;Node6 -->
<g id="edge5_Node000005_Node000006" class="edge">
<title>Node5&#45;&gt;Node6</title>
<g id="a_edge5_Node000005_Node000006"><a xlink:title=" ">
<path fill="none" stroke="#63b8ff" d="M1575.82,-301.52C1552.77,-290.09 1520.79,-274.23 1500.49,-264.17"/>
<polygon fill="#63b8ff" stroke="#63b8ff" points="1574.27,-304.66 1584.78,-305.97 1577.38,-298.39 1574.27,-304.66"/>
</a>
</g>
</g>
<!-- Node7 -->
<g id="Node000007" class="node">
<title>Node7</title>
<g id="a_Node000007"><a xlink:href="parser__lists_8c.html#aae7a5d6760b83c1a37b0369f82a20500" target="_top" xlink:title="Absorb a chain of and_or separeted by &#39;;&#39; or &#39; &#39;.">
<polygon fill="white" stroke="#666666" points="1401,-264 1277,-264 1277,-245 1401,-245 1401,-264"/>
<text text-anchor="middle" x="1339" y="-252" font-family="Helvetica,sans-Serif" font-size="10.00">parser_compound_list</text>
</a>
</g>
</g>
<!-- Node6&#45;&gt;Node7 -->
<g id="edge6_Node000006_Node000007" class="edge">
<title>Node6&#45;&gt;Node7</title>
<g id="a_edge6_Node000006_Node000007"><a xlink:title=" ">
<path fill="none" stroke="#63b8ff" d="M1426.9,-254.5C1418.5,-254.5 1409.75,-254.5 1401.17,-254.5"/>
<polygon fill="#63b8ff" stroke="#63b8ff" points="1426.92,-258 1436.92,-254.5 1426.92,-251 1426.92,-258"/>
</a>
</g>
</g>
<!-- Node17 -->
<g id="Node000017" class="node">
<title>Node17</title>
<g id="a_Node000017"><a xlink:href="parser__lists_8c.html#a7b9812922acfb4eba24e65d40bd99001" target="_top" xlink:title="Parse list block into sub and_or block(s) separated by semi&#45;colons.">
<polygon fill="white" stroke="#666666" points="1373,-170 1305,-170 1305,-151 1373,-151 1373,-170"/>
<text text-anchor="middle" x="1339" y="-158" font-family="Helvetica,sans-Serif" font-size="10.00">parser_list</text>
</a>
</g>
</g>
<!-- Node6&#45;&gt;Node17 -->
<g id="edge25_Node000006_Node000017" class="edge">
<title>Node6&#45;&gt;Node17</title>
<g id="a_edge25_Node000006_Node000017"><a xlink:title=" ">
<path fill="none" stroke="#63b8ff" d="M1456.28,-239.13C1427.34,-219.56 1378.2,-186.33 1354.13,-170.06"/>
<polygon fill="#63b8ff" stroke="#63b8ff" points="1454.66,-242.27 1464.91,-244.97 1458.58,-236.47 1454.66,-242.27"/>
</a>
</g>
</g>
<!-- Node8 -->
<g id="Node000008" class="node">
<title>Node8</title>
<g id="a_Node000008"><a xlink:href="parser__rules_8c.html#a799f84e24df3eff653f7c0696e348572" target="_top" xlink:title="Parse an elif block when called.">
<polygon fill="white" stroke="#666666" points="1223.5,-264 1155.5,-264 1155.5,-245 1223.5,-245 1223.5,-264"/>
<text text-anchor="middle" x="1189.5" y="-252" font-family="Helvetica,sans-Serif" font-size="10.00">parser_elif</text>
</a>
</g>
</g>
<!-- Node7&#45;&gt;Node8 -->
<g id="edge7_Node000007_Node000008" class="edge">
<title>Node7&#45;&gt;Node8</title>
<g id="a_edge7_Node000007_Node000008"><a xlink:title=" ">
<path fill="none" stroke="#63b8ff" d="M1266.41,-254.5C1251.43,-254.5 1236.33,-254.5 1223.59,-254.5"/>
<polygon fill="#63b8ff" stroke="#63b8ff" points="1266.73,-258 1276.73,-254.5 1266.73,-251 1266.73,-258"/>
</a>
</g>
</g>
<!-- Node9 -->
<g id="Node000009" class="node">
<title>Node9</title>
<g id="a_Node000009"><a xlink:href="parser__rules_8c.html#adf5258219dad4f79fdbc7786eb925699" target="_top" xlink:title="Define which parser to use depending on the context.">
<polygon fill="white" stroke="#666666" points="1094.5,-262 984.5,-262 984.5,-243 1094.5,-243 1094.5,-262"/>
<text text-anchor="middle" x="1039.5" y="-250" font-family="Helvetica,sans-Serif" font-size="10.00">parser_else_clause</text>
</a>
</g>
</g>
<!-- Node7&#45;&gt;Node9 -->
<g id="edge15_Node000007_Node000009" class="edge">
<title>Node7&#45;&gt;Node9</title>
<g id="a_edge15_Node000007_Node000009"><a xlink:title=" ">
<path fill="none" stroke="#63b8ff" d="M1288.43,-242.87C1273.29,-239.84 1256.54,-237.01 1241,-235.5 1195.44,-231.08 1183.61,-231.55 1138,-235.5 1120.71,-237 1101.89,-239.96 1085.43,-243"/>
<polygon fill="#63b8ff" stroke="#63b8ff" points="1288.11,-246.38 1298.61,-244.99 1289.53,-239.53 1288.11,-246.38"/>
</a>
</g>
</g>
<!-- Node10 -->
<g id="Node000010" class="node">
<title>Node10</title>
<g id="a_Node000010"><a xlink:href="parser__rules_8c.html#abf9e27d14e7a1c314285114bead78817" target="_top" xlink:title="Handle a &#39;if&#39; block by calling corresponding parser at each step.">
<polygon fill="white" stroke="#666666" points="937.5,-262 854.5,-262 854.5,-243 937.5,-243 937.5,-262"/>
<text text-anchor="middle" x="896" y="-250" font-family="Helvetica,sans-Serif" font-size="10.00">parser_rule_if</text>
</a>
</g>
</g>
<!-- Node7&#45;&gt;Node10 -->
<g id="edge20_Node000007_Node000010" class="edge">
<title>Node7&#45;&gt;Node10</title>
<g id="a_edge20_Node000007_Node000010"><a xlink:title=" ">
<path fill="none" stroke="#63b8ff" d="M1300.01,-241.84C1282.29,-236.58 1260.8,-231.11 1241,-228.5 1200.16,-223.12 979.44,-233.18 977,-233.5 961.58,-235.55 944.78,-239.3 930.58,-242.93"/>
<polygon fill="#63b8ff" stroke="#63b8ff" points="1299.37,-245.31 1309.96,-244.89 1301.42,-238.62 1299.37,-245.31"/>
</a>
</g>
</g>
<!-- Node13 -->
<g id="Node000013" class="node">
<title>Node13</title>
<g id="a_Node000013"><a xlink:href="parser__rules_8c.html#afb9701776de31af668314b48a0b54636" target="_top" xlink:title="Handle a command block enclosed in brackets.">
<polygon fill="white" stroke="#666666" points="1102,-348.5 977,-348.5 977,-318.5 1102,-318.5 1102,-348.5"/>
<text text-anchor="start" x="985" y="-336.5" font-family="Helvetica,sans-Serif" font-size="10.00">parser_rule_command</text>
<text text-anchor="middle" x="1039.5" y="-325.5" font-family="Helvetica,sans-Serif" font-size="10.00">_block</text>
</a>
</g>
</g>
<!-- Node7&#45;&gt;Node13 -->
<g id="edge16_Node000007_Node000013" class="edge">
<title>Node7&#45;&gt;Node13</title>
<g id="a_edge16_Node000007_Node000013"><a xlink:title=" ">
<path fill="none" stroke="#63b8ff" d="M1315.4,-269.64C1296.38,-281.63 1268.03,-297.75 1241,-306.5 1195.89,-321.1 1142.6,-327.81 1102.3,-330.89"/>
<polygon fill="#63b8ff" stroke="#63b8ff" points="1317.43,-272.5 1323.94,-264.14 1313.64,-266.62 1317.43,-272.5"/>
</a>
</g>
</g>
<!-- Node14 -->
<g id="Node000014" class="node">
<title>Node14</title>
<g id="a_Node000014"><a xlink:href="parser__rules_8c.html#a55dc38591d3749d39ca3f38f8a2a26dd" target="_top" xlink:title="Handle a for block by calling corresponding parser at each step.">
<polygon fill="white" stroke="#666666" points="941,-303 851,-303 851,-284 941,-284 941,-303"/>
<text text-anchor="middle" x="896" y="-291" font-family="Helvetica,sans-Serif" font-size="10.00">parser_rule_for</text>
</a>
</g>
</g>
<!-- Node7&#45;&gt;Node14 -->
<g id="edge18_Node000007_Node000014" class="edge">
<title>Node7&#45;&gt;Node14</title>
<g id="a_edge18_Node000007_Node000014"><a xlink:title=" ">
<path fill="none" stroke="#63b8ff" d="M1282.62,-265.99C1269.06,-268.46 1254.55,-270.84 1241,-272.5 1133.81,-285.67 1006.76,-290.71 941.14,-292.53"/>
<polygon fill="#63b8ff" stroke="#63b8ff" points="1283.6,-269.36 1292.78,-264.08 1282.3,-262.48 1283.6,-269.36"/>
</a>
</g>
</g>
<!-- Node15 -->
<g id="Node000015" class="node">
<title>Node15</title>
<g id="a_Node000015"><a xlink:href="parser__rules_8c.html#abf1c3edda1bb73d8c86028687922ce95" target="_top" xlink:title="Handle a &#39;until&#39; block by calling corresponding parser at each step.">
<polygon fill="white" stroke="#666666" points="1088.5,-150 990.5,-150 990.5,-131 1088.5,-131 1088.5,-150"/>
<text text-anchor="middle" x="1039.5" y="-138" font-family="Helvetica,sans-Serif" font-size="10.00">parser_rule_until</text>
</a>
</g>
</g>
<!-- Node7&#45;&gt;Node15 -->
<g id="edge21_Node000007_Node000015" class="edge">
<title>Node7&#45;&gt;Node15</title>
<g id="a_edge21_Node000007_Node000015"><a xlink:title=" ">
<path fill="none" stroke="#63b8ff" d="M1324.7,-236.64C1307.82,-215.46 1276.57,-180.97 1241,-164.5 1192.48,-142.04 1130.62,-137.82 1088.53,-138.08"/>
<polygon fill="#63b8ff" stroke="#63b8ff" points="1322.14,-239.05 1331.03,-244.81 1327.67,-234.76 1322.14,-239.05"/>
</a>
</g>
</g>
<!-- Node16 -->
<g id="Node000016" class="node">
<title>Node16</title>
<g id="a_Node000016"><a xlink:href="parser__rules_8c.html#aa6719ad356821f03ad45b1ac0a57d3bd" target="_top" xlink:title="Handle a &#39;while&#39; block by calling corresponding parser at each step.">
<polygon fill="white" stroke="#666666" points="1241,-383 1138,-383 1138,-364 1241,-364 1241,-383"/>
<text text-anchor="middle" x="1189.5" y="-371" font-family="Helvetica,sans-Serif" font-size="10.00">parser_rule_while</text>
</a>
</g>
</g>
<!-- Node7&#45;&gt;Node16 -->
<g id="edge23_Node000007_Node000016" class="edge">
<title>Node7&#45;&gt;Node16</title>
<g id="a_edge23_Node000007_Node000016"><a xlink:title=" ">
<path fill="none" stroke="#63b8ff" d="M1322.32,-271.57C1303.99,-290.93 1272.19,-322.77 1241,-345.5 1231.44,-352.47 1219.96,-358.96 1210.37,-363.94"/>
<polygon fill="#63b8ff" stroke="#63b8ff" points="1325.03,-273.79 1329.31,-264.1 1319.92,-269.01 1325.03,-273.79"/>
</a>
</g>
</g>
<!-- Node8&#45;&gt;Node9 -->
<g id="edge8_Node000008_Node000009" class="edge">
<title>Node8&#45;&gt;Node9</title>
<g id="a_edge8_Node000008_Node000009"><a xlink:title=" ">
<path fill="none" stroke="#63b8ff" d="M1145.23,-247.71C1129.36,-246.9 1111.21,-246.55 1094.52,-246.7"/>
<polygon fill="#63b8ff" stroke="#63b8ff" points="1145.1,-251.21 1155.29,-248.31 1145.51,-244.22 1145.1,-251.21"/>
</a>
</g>
</g>
<!-- Node9&#45;&gt;Node8 -->
<g id="edge9_Node000009_Node000008" class="edge">
<title>Node9&#45;&gt;Node8</title>
<g id="a_edge9_Node000009_Node000008"><a xlink:title=" ">
<path fill="none" stroke="#63b8ff" d="M1104.68,-260.06C1122.13,-260.49 1140.32,-260.42 1155.29,-259.79"/>
<polygon fill="#63b8ff" stroke="#63b8ff" points="1104.62,-256.56 1094.52,-259.76 1104.4,-263.56 1104.62,-256.56"/>
</a>
</g>
</g>
<!-- Node9&#45;&gt;Node10 -->
<g id="edge10_Node000009_Node000010" class="edge">
<title>Node9&#45;&gt;Node10</title>
<g id="a_edge10_Node000009_Node000010"><a xlink:title=" ">
<path fill="none" stroke="#63b8ff" d="M973.94,-252.5C961.63,-252.5 949.06,-252.5 937.75,-252.5"/>
<polygon fill="#63b8ff" stroke="#63b8ff" points="974.2,-256 984.2,-252.5 974.2,-249 974.2,-256"/>
</a>
</g>
</g>
<!-- Node11 -->
<g id="Node000011" class="node">
<title>Node11</title>
<g id="a_Node000011"><a xlink:href="parser__commands_8c.html#ad98fbb958a265134e775b69579e28835" target="_top" xlink:title="Handle a shell command block by calling corresponding parser at each step.">
<polygon fill="white" stroke="#666666" points="815,-343 685,-343 685,-324 815,-324 815,-343"/>
<text text-anchor="middle" x="750" y="-331" font-family="Helvetica,sans-Serif" font-size="10.00">parser_shell_command</text>
</a>
</g>
</g>
<!-- Node10&#45;&gt;Node11 -->
<g id="edge11_Node000010_Node000011" class="edge">
<title>Node10&#45;&gt;Node11</title>
<g id="a_edge11_Node000010_Node000011"><a xlink:title=" ">
<path fill="none" stroke="#63b8ff" d="M865.83,-266.73C860.85,-269.26 855.75,-271.91 851,-274.5 820.55,-291.07 785.87,-312.01 766.4,-323.96"/>
<polygon fill="#63b8ff" stroke="#63b8ff" points="867.76,-269.68 875.14,-262.07 864.63,-263.42 867.76,-269.68"/>
</a>
</g>
</g>
<!-- Node11&#45;&gt;Node4 -->
<g id="edge12_Node000011_Node000004" class="edge">
<title>Node11&#45;&gt;Node4</title>
<g id="a_edge12_Node000011_Node000004"><a xlink:title=" ">
<path fill="none" stroke="#63b8ff" d="M779.77,-347.3C830.69,-370.43 940.58,-414.5 1038.5,-414.5 1481,-414.5 1481,-414.5 1481,-414.5 1552.42,-414.5 1635.06,-414.5 1686.56,-414.5"/>
<polygon fill="#63b8ff" stroke="#63b8ff" points="781.22,-344.12 770.68,-343.11 778.29,-350.48 781.22,-344.12"/>
</a>
</g>
</g>
<!-- Node12 -->
<g id="Node000012" class="node">
<title>Node12</title>
<g id="a_Node000012"><a xlink:href="parser__commands_8c.html#a14408e6904da17fc6899bba03f7a5f5a" target="_top" xlink:title="Handle a function definition and add it to the dictionnary.">
<polygon fill="white" stroke="#666666" points="649,-402 565,-402 565,-383 649,-383 649,-402"/>
<text text-anchor="middle" x="607" y="-390" font-family="Helvetica,sans-Serif" font-size="10.00">parser_fundef</text>
</a>
</g>
</g>
<!-- Node11&#45;&gt;Node12 -->
<g id="edge13_Node000011_Node000012" class="edge">
<title>Node11&#45;&gt;Node12</title>
<g id="a_edge13_Node000011_Node000012"><a xlink:title=" ">
<path fill="none" stroke="#63b8ff" d="M716.54,-347.08C690.36,-358.04 654.2,-373.17 630.96,-382.89"/>
<polygon fill="#63b8ff" stroke="#63b8ff" points="718.16,-350.2 726.03,-343.11 715.46,-343.74 718.16,-350.2"/>
</a>
</g>
</g>
<!-- Node12&#45;&gt;Node4 -->
<g id="edge14_Node000012_Node000004" class="edge">
<title>Node12&#45;&gt;Node4</title>
<g id="a_edge14_Node000012_Node000004"><a xlink:title=" ">
<path fill="none" stroke="#63b8ff" d="M644.72,-405.25C698.82,-422.87 803.42,-452.5 895,-452.5 1481,-452.5 1481,-452.5 1481,-452.5 1558.13,-452.5 1646.96,-435.35 1696.94,-424.09"/>
<polygon fill="#63b8ff" stroke="#63b8ff" points="645.5,-401.82 634.91,-402.01 643.31,-408.47 645.5,-401.82"/>
</a>
</g>
</g>
<!-- Node13&#45;&gt;Node11 -->
<g id="edge17_Node000013_Node000011" class="edge">
<title>Node13&#45;&gt;Node11</title>
<g id="a_edge17_Node000013_Node000011"><a xlink:title=" ">
<path fill="none" stroke="#63b8ff" d="M966.8,-333.5C920.23,-333.5 860.04,-333.5 815.06,-333.5"/>
<polygon fill="#63b8ff" stroke="#63b8ff" points="966.82,-337 976.82,-333.5 966.82,-330 966.82,-337"/>
</a>
</g>
</g>
<!-- Node14&#45;&gt;Node11 -->
<g id="edge19_Node000014_Node000011" class="edge">
<title>Node14&#45;&gt;Node11</title>
<g id="a_edge19_Node000014_Node000011"><a xlink:title=" ">
<path fill="none" stroke="#63b8ff" d="M850.8,-305.78C829.7,-311.64 804.84,-318.54 785.21,-324"/>
<polygon fill="#63b8ff" stroke="#63b8ff" points="851.81,-309.13 860.51,-303.08 849.94,-302.39 851.81,-309.13"/>
</a>
</g>
</g>
<!-- Node15&#45;&gt;Node11 -->
<g id="edge22_Node000015_Node000011" class="edge">
<title>Node15&#45;&gt;Node11</title>
<g id="a_edge22_Node000015_Node000011"><a xlink:title=" ">
<path fill="none" stroke="#63b8ff" d="M1002.28,-153.74C993.89,-157.05 985.06,-160.74 977,-164.5 919.14,-191.49 902.09,-195.21 851,-233.5 812.89,-262.07 775.11,-304.77 759.05,-323.77"/>
<polygon fill="#63b8ff" stroke="#63b8ff" points="1003.78,-156.91 1011.85,-150.04 1001.26,-150.38 1003.78,-156.91"/>
</a>
</g>
</g>
<!-- Node16&#45;&gt;Node11 -->
<g id="edge24_Node000016_Node000011" class="edge">
<title>Node16&#45;&gt;Node11</title>
<g id="a_edge24_Node000016_Node000011"><a xlink:title=" ">
<path fill="none" stroke="#63b8ff" d="M1127.75,-370C1060.09,-365.84 947.54,-358.08 851,-347.5 839.32,-346.22 826.91,-344.65 814.94,-343.03"/>
<polygon fill="#63b8ff" stroke="#63b8ff" points="1127.61,-373.5 1137.8,-370.62 1128.03,-366.51 1127.61,-373.5"/>
</a>
</g>
</g>
<!-- Node18 -->
<g id="Node000018" class="node">
<title>Node18</title>
<g id="a_Node000018"><a xlink:href="parser_8c.html#a620dffcc9a167cdee6e67de1191e5277" target="_top" xlink:title="Parse the input of our shell into list.">
<polygon fill="white" stroke="#666666" points="1213,-112 1166,-112 1166,-93 1213,-93 1213,-112"/>
<text text-anchor="middle" x="1189.5" y="-100" font-family="Helvetica,sans-Serif" font-size="10.00">parser</text>
</a>
</g>
</g>
<!-- Node17&#45;&gt;Node18 -->
<g id="edge26_Node000017_Node000018" class="edge">
<title>Node17&#45;&gt;Node18</title>
<g id="a_edge26_Node000017_Node000018"><a xlink:title=" ">
<path fill="none" stroke="#63b8ff" d="M1304.3,-147.25C1276.49,-136.31 1237.78,-121.09 1213.44,-111.52"/>
<polygon fill="#63b8ff" stroke="#63b8ff" points="1303.06,-150.52 1313.64,-150.92 1305.62,-144.01 1303.06,-150.52"/>
</a>
</g>
</g>
<!-- Node19 -->
<g id="Node000019" class="node">
<title>Node19</title>
<g id="a_Node000019"><a xlink:href="42sh_8c.html#a3c04138a5bfe5d72780bb7e82a18e627" target="_top" xlink:title=" ">
<polygon fill="white" stroke="#666666" points="190,-19 149,-19 149,0 190,0 190,-19"/>
<text text-anchor="middle" x="169.5" y="-7" font-family="Helvetica,sans-Serif" font-size="10.00">main</text>
</a>
</g>
</g>
<!-- Node18&#45;&gt;Node19 -->
<g id="edge27_Node000018_Node000019" class="edge">
<title>Node18&#45;&gt;Node19</title>
<g id="a_edge27_Node000018_Node000019"><a xlink:title=" ">
<path fill="none" stroke="#63b8ff" d="M1161.74,-88.3C1111.4,-62.94 998.51,-12.5 897,-12.5 897,-12.5 897,-12.5 387.5,-12.5 314.78,-12.5 228.37,-10.79 190.25,-9.96"/>
<polygon fill="#63b8ff" stroke="#63b8ff" points="1160.18,-91.43 1170.68,-92.87 1163.37,-85.2 1160.18,-91.43"/>
</a>
</g>
</g>
<!-- Node20 -->
<g id="Node000020" class="node">
<title>Node20</title>
<g id="a_Node000020"><a xlink:href="dot_8c.html#a17477ee2b0f1b8b9306566c990d15b35" target="_top" xlink:title="Main loop of dot builtin.">
<polygon fill="white" stroke="#666666" points="1073.5,-112 1005.5,-112 1005.5,-93 1073.5,-93 1073.5,-112"/>
<text text-anchor="middle" x="1039.5" y="-100" font-family="Helvetica,sans-Serif" font-size="10.00">main_loop</text>
</a>
</g>
</g>
<!-- Node18&#45;&gt;Node20 -->
<g id="edge28_Node000018_Node000020" class="edge">
<title>Node18&#45;&gt;Node20</title>
<g id="a_edge28_Node000018_Node000020"><a xlink:title=" ">
<path fill="none" stroke="#63b8ff" d="M1155.52,-102.5C1131.18,-102.5 1098.18,-102.5 1073.77,-102.5"/>
<polygon fill="#63b8ff" stroke="#63b8ff" points="1155.7,-106 1165.7,-102.5 1155.7,-99 1155.7,-106"/>
</a>
</g>
</g>
<!-- Node21 -->
<g id="Node000021" class="node">
<title>Node21</title>
<g id="a_Node000021"><a xlink:href="dot_8c.html#a713938d3c6ee343132c429642048bcf6" target="_top" xlink:title="Execute the dot builtin cmd.">
<polygon fill="white" stroke="#666666" points="918,-112 874,-112 874,-93 918,-93 918,-112"/>
<text text-anchor="middle" x="896" y="-100" font-family="Helvetica,sans-Serif" font-size="10.00">dot_b</text>
</a>
</g>
</g>
<!-- Node20&#45;&gt;Node21 -->
<g id="edge29_Node000020_Node000021" class="edge">
<title>Node20&#45;&gt;Node21</title>
<g id="a_edge29_Node000020_Node000021"><a xlink:title=" ">
<path fill="none" stroke="#63b8ff" d="M995.12,-102.5C969.56,-102.5 938.37,-102.5 918.11,-102.5"/>
<polygon fill="#63b8ff" stroke="#63b8ff" points="995.32,-106 1005.32,-102.5 995.32,-99 995.32,-106"/>
</a>
</g>
</g>
<!-- Node22 -->
<g id="Node000022" class="node">
<title>Node22</title>
<g id="a_Node000022"><a xlink:href="exec_8c.html#abaeb177587c7eec6a064b35bb8399cae" target="_top" xlink:title="Execute builtin cmd with given args.">
<polygon fill="white" stroke="#666666" points="787.5,-112 712.5,-112 712.5,-93 787.5,-93 787.5,-112"/>
<text text-anchor="middle" x="750" y="-100" font-family="Helvetica,sans-Serif" font-size="10.00">exec_builtin</text>
</a>
</g>
</g>
<!-- Node21&#45;&gt;Node22 -->
<g id="edge30_Node000021_Node000022" class="edge">
<title>Node21&#45;&gt;Node22</title>
<g id="a_edge30_Node000021_Node000022"><a xlink:title=" ">
<path fill="none" stroke="#63b8ff" d="M863.47,-102.5C841.14,-102.5 811.12,-102.5 787.71,-102.5"/>
<polygon fill="#63b8ff" stroke="#63b8ff" points="863.75,-106 873.75,-102.5 863.75,-99 863.75,-106"/>
</a>
</g>
</g>
<!-- Node23 -->
<g id="Node000023" class="node">
<title>Node23</title>
<g id="a_Node000023"><a xlink:href="exec_8c.html#a287d81b4658832f192750310e2925917" target="_top" xlink:title="Execute the builtin command with given args.">
<polygon fill="white" stroke="#666666" points="632,-112 582,-112 582,-93 632,-93 632,-112"/>
<text text-anchor="middle" x="607" y="-100" font-family="Helvetica,sans-Serif" font-size="10.00">exec_b</text>
</a>
</g>
</g>
<!-- Node22&#45;&gt;Node23 -->
<g id="edge31_Node000022_Node000023" class="edge">
<title>Node22&#45;&gt;Node23</title>
<g id="a_edge31_Node000022_Node000023"><a xlink:title=" ">
<path fill="none" stroke="#63b8ff" d="M702.2,-102.5C678.72,-102.5 651.28,-102.5 632.09,-102.5"/>
<polygon fill="#63b8ff" stroke="#63b8ff" points="702.32,-106 712.32,-102.5 702.32,-99 702.32,-106"/>
</a>
</g>
</g>
<!-- Node24 -->
<g id="Node000024" class="node">
<title>Node24</title>
<g id="a_Node000024"><a xlink:href="exec_8c.html#ae65edaa99b26b49d60c451157d38b34a" target="_top" xlink:title="Execute les commandes avec les args donnes.">
<polygon fill="white" stroke="#666666" points="529,-112 464,-112 464,-93 529,-93 529,-112"/>
<text text-anchor="middle" x="496.5" y="-100" font-family="Helvetica,sans-Serif" font-size="10.00">exec_cmd</text>
</a>
</g>
</g>
<!-- Node23&#45;&gt;Node24 -->
<g id="edge32_Node000023_Node000024" class="edge">
<title>Node23&#45;&gt;Node24</title>
<g id="a_edge32_Node000023_Node000024"><a xlink:title=" ">
<path fill="none" stroke="#63b8ff" d="M571.56,-102.5C558.03,-102.5 542.6,-102.5 529.34,-102.5"/>
<polygon fill="#63b8ff" stroke="#63b8ff" points="571.92,-106 581.92,-102.5 571.92,-99 571.92,-106"/>
</a>
</g>
</g>
<!-- Node25 -->
<g id="Node000025" class="node">
<title>Node25</title>
<g id="a_Node000025"><a xlink:href="ast__run_8c.html#aeb6878a59c6907e5669fc3cc428913d9" target="_top" xlink:title=" ">
<polygon fill="white" stroke="#666666" points="428,-119 349,-119 349,-100 428,-100 428,-119"/>
<text text-anchor="middle" x="388.5" y="-107" font-family="Helvetica,sans-Serif" font-size="10.00">ast_run_cmd</text>
</a>
</g>
</g>
<!-- Node24&#45;&gt;Node25 -->
<g id="edge33_Node000024_Node000025" class="edge">
<title>Node24&#45;&gt;Node25</title>
<g id="a_edge33_Node000024_Node000025"><a xlink:title=" ">
<path fill="none" stroke="#63b8ff" d="M453.92,-105.25C445.45,-105.81 436.58,-106.39 428.21,-106.94"/>
<polygon fill="#63b8ff" stroke="#63b8ff" points="454.24,-108.73 463.98,-104.58 453.77,-101.75 454.24,-108.73"/>
</a>
</g>
</g>
<!-- Node26 -->
<g id="Node000026" class="node">
<title>Node26</title>
<g id="a_Node000026"><a xlink:href="ast_8c.html#a572345b2707780bbbc5bbaacdca9c372" target="_top" xlink:title=" ">
<polygon fill="white" stroke="#666666" points="313,-167 260,-167 260,-148 313,-148 313,-167"/>
<text text-anchor="middle" x="286.5" y="-155" font-family="Helvetica,sans-Serif" font-size="10.00">run_ast</text>
</a>
</g>
</g>
<!-- Node25&#45;&gt;Node26 -->
<g id="edge34_Node000025_Node000026" class="edge">
<title>Node25&#45;&gt;Node26</title>
<g id="a_edge34_Node000025_Node000026"><a xlink:title=" ">
<path fill="none" stroke="#63b8ff" d="M358.12,-123.6C341.78,-131.45 321.87,-141 307.37,-147.96"/>
<polygon fill="#63b8ff" stroke="#63b8ff" points="359.76,-126.7 367.26,-119.21 356.73,-120.39 359.76,-126.7"/>
</a>
</g>
</g>
<!-- Node26&#45;&gt;Node19 -->
<g id="edge54_Node000026_Node000019" class="edge">
<title>Node26&#45;&gt;Node19</title>
<g id="a_edge54_Node000026_Node000019"><a xlink:title=" ">
<path fill="none" stroke="#63b8ff" d="M281.35,-137.87C274.36,-109.55 257.6,-57.38 224,-27.5 214.63,-19.17 201.25,-14.67 190.22,-12.25"/>
<polygon fill="#63b8ff" stroke="#63b8ff" points="277.98,-138.82 283.63,-147.78 284.8,-137.25 277.98,-138.82"/>
</a>
</g>
</g>
<!-- Node26&#45;&gt;Node20 -->
<g id="edge55_Node000026_Node000020" class="edge">
<title>Node26&#45;&gt;Node20</title>
<g id="a_edge55_Node000026_Node000020"><a xlink:title=" ">
<path fill="none" stroke="#63b8ff" d="M323.26,-156.95C364.69,-156.36 435.04,-155.5 495.5,-155.5 751,-155.5 751,-155.5 751,-155.5 845.66,-155.5 954.98,-127.37 1007.37,-112.1"/>
<polygon fill="#63b8ff" stroke="#63b8ff" points="323.06,-153.45 313.12,-157.1 323.17,-160.45 323.06,-153.45"/>
</a>
</g>
</g>
<!-- Node27 -->
<g id="Node000027" class="node">
<title>Node27</title>
<g id="a_Node000027"><a xlink:href="ast__run_8c.html#a8a01fec616135007fc5b3968a101901b" target="_top" xlink:title=" ">
<polygon fill="white" stroke="#666666" points="215,-167 124,-167 124,-148 215,-148 215,-167"/>
<text text-anchor="middle" x="169.5" y="-155" font-family="Helvetica,sans-Serif" font-size="10.00">ast_run_and_or</text>
</a>
</g>
</g>
<!-- Node26&#45;&gt;Node27 -->
<g id="edge35_Node000026_Node000027" class="edge">
<title>Node26&#45;&gt;Node27</title>
<g id="a_edge35_Node000026_Node000027"><a xlink:title=" ">
<path fill="none" stroke="#63b8ff" d="M249.95,-151.21C239.03,-150.73 226.86,-150.63 215.4,-150.9"/>
<polygon fill="#63b8ff" stroke="#63b8ff" points="249.79,-154.7 259.98,-151.78 250.19,-147.72 249.79,-154.7"/>
</a>
</g>
</g>
<!-- Node28 -->
<g id="Node000028" class="node">
<title>Node28</title>
<g id="a_Node000028"><a xlink:href="ast__run_8c.html#a9d83d4834a61ffe21eb77838d70ae173" target="_top" xlink:title=" ">
<polygon fill="white" stroke="#666666" points="205,-130 134,-130 134,-111 205,-111 205,-130"/>
<text text-anchor="middle" x="169.5" y="-118" font-family="Helvetica,sans-Serif" font-size="10.00">ast_run_for</text>
</a>
</g>
</g>
<!-- Node26&#45;&gt;Node28 -->
<g id="edge37_Node000026_Node000028" class="edge">
<title>Node26&#45;&gt;Node28</title>
<g id="a_edge37_Node000026_Node000028"><a xlink:title=" ">
<path fill="none" stroke="#63b8ff" d="M261.14,-144.03C244.93,-137.58 223.39,-130.44 205.37,-125.46"/>
<polygon fill="#63b8ff" stroke="#63b8ff" points="259.89,-147.3 270.47,-147.93 262.59,-140.84 259.89,-147.3"/>
</a>
</g>
</g>
<!-- Node29 -->
<g id="Node000029" class="node">
<title>Node29</title>
<g id="a_Node000029"><a xlink:href="ast__run_8c.html#a0a7138b1f2608ea36211c9b78988c248" target="_top" xlink:title=" ">
<polygon fill="white" stroke="#666666" points="202,-93 137,-93 137,-74 202,-74 202,-93"/>
<text text-anchor="middle" x="169.5" y="-81" font-family="Helvetica,sans-Serif" font-size="10.00">ast_run_if</text>
</a>
</g>
</g>
<!-- Node26&#45;&gt;Node29 -->
<g id="edge39_Node000026_Node000029" class="edge">
<title>Node26&#45;&gt;Node29</title>
<g id="a_edge39_Node000026_Node000029"><a xlink:title=" ">
<path fill="none" stroke="#63b8ff" d="M275.28,-139.01C263.9,-124.1 244.41,-104.5 224,-92.5 217.24,-88.53 209.48,-85.28 202.01,-82.96"/>
<polygon fill="#63b8ff" stroke="#63b8ff" points="272.66,-141.37 281.26,-147.57 278.41,-137.37 272.66,-141.37"/>
</a>
</g>
</g>
<!-- Node30 -->
<g id="Node000030" class="node">
<title>Node30</title>
<g id="a_Node000030"><a xlink:href="ast__run_8c.html#ae25cd3ced8abafd76110dba8852a6b87" target="_top" xlink:title=" ">
<polygon fill="white" stroke="#666666" points="206,-372 133,-372 133,-353 206,-353 206,-372"/>
<text text-anchor="middle" x="169.5" y="-360" font-family="Helvetica,sans-Serif" font-size="10.00">ast_run_list</text>
</a>
</g>
</g>
<!-- Node26&#45;&gt;Node30 -->
<g id="edge41_Node000026_Node000030" class="edge">
<title>Node26&#45;&gt;Node30</title>
<g id="a_edge41_Node000026_Node000030"><a xlink:title=" ">
<path fill="none" stroke="#63b8ff" d="M283.98,-177.58C280.27,-213.93 267.57,-289.97 224,-334.5 214.35,-344.36 199.25,-349.12 187.56,-352.88"/>
<polygon fill="#63b8ff" stroke="#63b8ff" points="287.5,-177.53 284.89,-167.26 280.52,-176.91 287.5,-177.53"/>
</a>
</g>
</g>
<!-- Node31 -->
<g id="Node000031" class="node">
<title>Node31</title>
<g id="a_Node000031"><a xlink:href="ast__run_8c.html#a536f37ba9bffcd2099fef668656181e0" target="_top" xlink:title=" ">
<polygon fill="white" stroke="#666666" points="209,-335 130,-335 130,-316 209,-316 209,-335"/>
<text text-anchor="middle" x="169.5" y="-323" font-family="Helvetica,sans-Serif" font-size="10.00">ast_run_loop</text>
</a>
</g>
</g>
<!-- Node26&#45;&gt;Node31 -->
<g id="edge44_Node000026_Node000031" class="edge">
<title>Node26&#45;&gt;Node31</title>
<g id="a_edge44_Node000026_Node000031"><a xlink:title=" ">
<path fill="none" stroke="#63b8ff" d="M281.45,-177.17C274.98,-207.3 259.24,-263.98 224,-297.5 213.71,-307.28 198.07,-312.07 186.35,-315.99"/>
<polygon fill="#63b8ff" stroke="#63b8ff" points="284.95,-177.52 283.5,-167.03 278.09,-176.14 284.95,-177.52"/>
</a>
</g>
</g>
<!-- Node32 -->
<g id="Node000032" class="node">
<title>Node32</title>
<g id="a_Node000032"><a xlink:href="ast__run_8c.html#aa3e6a973e744d748ee415840596beb53" target="_top" xlink:title=" ">
<polygon fill="white" stroke="#666666" points="224,-298 115,-298 115,-279 224,-279 224,-298"/>
<text text-anchor="middle" x="169.5" y="-286" font-family="Helvetica,sans-Serif" font-size="10.00">ast_run_shell_redir</text>
</a>
</g>
</g>
<!-- Node26&#45;&gt;Node32 -->
<g id="edge46_Node000026_Node000032" class="edge">
<title>Node26&#45;&gt;Node32</title>
<g id="a_edge46_Node000026_Node000032"><a xlink:title=" ">
<path fill="none" stroke="#63b8ff" d="M277.37,-176.62C268.2,-199.71 250.96,-237.56 224,-260.5 212.89,-269.95 196.74,-274.83 185.1,-278.99"/>
<polygon fill="#63b8ff" stroke="#63b8ff" points="280.69,-177.75 281.02,-167.16 274.16,-175.23 280.69,-177.75"/>
</a>
</g>
</g>
<!-- Node33 -->
<g id="Node000033" class="node">
<title>Node33</title>
<g id="a_Node000033"><a xlink:href="exec_8c.html#a23babf893bbcd2f6126698a1a19b169f" target="_top" xlink:title="Execute funct with given arguments.">
<polygon fill="white" stroke="#666666" points="202,-56 137,-56 137,-37 202,-37 202,-56"/>
<text text-anchor="middle" x="169.5" y="-44" font-family="Helvetica,sans-Serif" font-size="10.00">exec_func</text>
</a>
</g>
</g>
<!-- Node26&#45;&gt;Node33 -->
<g id="edge48_Node000026_Node000033" class="edge">
<title>Node26&#45;&gt;Node33</title>
<g id="a_edge48_Node000026_Node000033"><a xlink:title=" ">
<path fill="none" stroke="#63b8ff" d="M277.61,-138.63C267.93,-117.66 249.58,-84.17 224,-64.5 217.63,-59.6 209.85,-55.99 202.22,-53.35"/>
<polygon fill="#63b8ff" stroke="#63b8ff" points="274.42,-140.07 281.66,-147.81 280.82,-137.24 274.42,-140.07"/>
</a>
</g>
</g>
<!-- Node34 -->
<g id="Node000034" class="node">
<title>Node34</title>
<g id="a_Node000034"><a xlink:href="exec_8c.html#ab743cb88e12e9b922050925fd2075e36" target="_top" xlink:title="Execute a pipeline of commands.">
<polygon fill="white" stroke="#666666" points="202,-243 137,-243 137,-224 202,-224 202,-243"/>
<text text-anchor="middle" x="169.5" y="-231" font-family="Helvetica,sans-Serif" font-size="10.00">exec_pipe</text>
</a>
</g>
</g>
<!-- Node26&#45;&gt;Node34 -->
<g id="edge50_Node000026_Node000034" class="edge">
<title>Node26&#45;&gt;Node34</title>
<g id="a_edge50_Node000026_Node000034"><a xlink:title=" ">
<path fill="none" stroke="#63b8ff" d="M268.37,-174.27C256.56,-185.22 240.15,-199.33 224,-209.5 215.21,-215.03 204.93,-219.96 195.75,-223.9"/>
<polygon fill="#63b8ff" stroke="#63b8ff" points="270.89,-176.69 275.74,-167.27 266.08,-171.62 270.89,-176.69"/>
</a>
</g>
</g>
<!-- Node27&#45;&gt;Node26 -->
<g id="edge36_Node000027_Node000026" class="edge">
<title>Node27&#45;&gt;Node26</title>
<g id="a_edge36_Node000027_Node000026"><a xlink:title=" ">
<path fill="none" stroke="#63b8ff" d="M225.45,-164.24C237.52,-164.3 249.74,-163.96 259.98,-163.22"/>
<polygon fill="#63b8ff" stroke="#63b8ff" points="225.45,-160.74 215.4,-164.1 225.35,-167.74 225.45,-160.74"/>
</a>
</g>
</g>
<!-- Node28&#45;&gt;Node26 -->
<g id="edge38_Node000028_Node000026" class="edge">
<title>Node28&#45;&gt;Node26</title>
<g id="a_edge38_Node000028_Node000026"><a xlink:title=" ">
<path fill="none" stroke="#63b8ff" d="M194.64,-133.89C213.79,-141.52 240.48,-150.14 259.98,-155.01"/>
<polygon fill="#63b8ff" stroke="#63b8ff" points="195.97,-130.65 185.4,-130.01 193.27,-137.1 195.97,-130.65"/>
</a>
</g>
</g>
<!-- Node29&#45;&gt;Node26 -->
<g id="edge40_Node000029_Node000026" class="edge">
<title>Node29&#45;&gt;Node26</title>
<g id="a_edge40_Node000029_Node000026"><a xlink:title=" ">
<path fill="none" stroke="#63b8ff" d="M191.95,-96.66C202.09,-100.43 214.12,-104.69 224,-110.5 241.68,-120.89 258.66,-136.99 270.29,-147.72"/>
<polygon fill="#63b8ff" stroke="#63b8ff" points="193.17,-93.38 182.58,-93.01 190.63,-99.9 193.17,-93.38"/>
</a>
</g>
</g>
<!-- Node30&#45;&gt;Node26 -->
<g id="edge43_Node000030_Node000026" class="edge">
<title>Node30&#45;&gt;Node26</title>
<g id="a_edge43_Node000030_Node000026"><a xlink:title=" ">
<path fill="none" stroke="#63b8ff" d="M215.47,-359.21C218.58,-357.31 221.48,-355.08 224,-352.5 276.56,-298.77 284.21,-199.19 285.31,-167.18"/>
<polygon fill="#63b8ff" stroke="#63b8ff" points="213.71,-356.18 206.27,-363.72 216.79,-362.46 213.71,-356.18"/>
</a>
</g>
</g>
<!-- Node30&#45;&gt;Node30 -->
<g id="edge42_Node000030_Node000030" class="edge">
<title>Node30&#45;&gt;Node30</title>
<g id="a_edge42_Node000030_Node000030"><a xlink:title=" ">
<path fill="none" stroke="#63b8ff" d="M190.98,-381.55C189.55,-386.38 182.39,-390 169.5,-390 148.88,-390 142.92,-380.73 151.62,-372.08"/>
<polygon fill="#63b8ff" stroke="#63b8ff" points="194.2,-380.19 187.38,-372.08 187.66,-382.67 194.2,-380.19"/>
</a>
</g>
</g>
<!-- Node31&#45;&gt;Node26 -->
<g id="edge45_Node000031_Node000026" class="edge">
<title>Node31&#45;&gt;Node26</title>
<g id="a_edge45_Node000031_Node000026"><a xlink:title=" ">
<path fill="none" stroke="#63b8ff" d="M217.9,-320.36C220.07,-318.9 222.13,-317.28 224,-315.5 268.21,-273.46 281.72,-194.97 284.76,-167.04"/>
<polygon fill="#63b8ff" stroke="#63b8ff" points="216.13,-317.33 209.02,-325.19 219.48,-323.48 216.13,-317.33"/>
</a>
</g>
</g>
<!-- Node32&#45;&gt;Node26 -->
<g id="edge47_Node000032_Node000026" class="edge">
<title>Node32&#45;&gt;Node26</title>
<g id="a_edge47_Node000032_Node000026"><a xlink:title=" ">
<path fill="none" stroke="#63b8ff" d="M230.97,-271.97C262.55,-240 279.03,-189.02 283.92,-167.14"/>
<polygon fill="#63b8ff" stroke="#63b8ff" points="228.49,-269.51 223.55,-278.88 233.25,-274.63 228.49,-269.51"/>
</a>
</g>
</g>
<!-- Node33&#45;&gt;Node24 -->
<g id="edge49_Node000033_Node000024" class="edge">
<title>Node33&#45;&gt;Node24</title>
<g id="a_edge49_Node000033_Node000024"><a xlink:title=" ">
<path fill="none" stroke="#63b8ff" d="M212.2,-53.54C263.14,-62.15 351.93,-77.24 428,-90.5 439.73,-92.54 452.59,-94.82 463.91,-96.84"/>
<polygon fill="#63b8ff" stroke="#63b8ff" points="212.67,-50.07 202.23,-51.85 211.5,-56.97 212.67,-50.07"/>
</a>
</g>
</g>
<!-- Node34&#45;&gt;Node34 -->
<g id="edge53_Node000034_Node000034" class="edge">
<title>Node34&#45;&gt;Node34</title>
<g id="a_edge53_Node000034_Node000034"><a xlink:title=" ">
<path fill="none" stroke="#63b8ff" d="M190.98,-252.55C189.55,-257.38 182.39,-261 169.5,-261 148.88,-261 142.92,-251.73 151.62,-243.08"/>
<polygon fill="#63b8ff" stroke="#63b8ff" points="194.2,-251.19 187.38,-243.08 187.66,-253.67 194.2,-251.19"/>
</a>
</g>
</g>
<!-- Node35 -->
<g id="Node000035" class="node">
<title>Node35</title>
<g id="a_Node000035"><a xlink:href="ast__run_8c.html#a24d0223822f7b635628199085c3283be" target="_top" xlink:title=" ">
<polygon fill="white" stroke="#666666" points="79,-224 0,-224 0,-205 79,-205 79,-224"/>
<text text-anchor="middle" x="39.5" y="-212" font-family="Helvetica,sans-Serif" font-size="10.00">ast_run_pipe</text>
</a>
</g>
</g>
<!-- Node34&#45;&gt;Node35 -->
<g id="edge51_Node000034_Node000035" class="edge">
<title>Node34&#45;&gt;Node35</title>
<g id="a_edge51_Node000034_Node000035"><a xlink:title=" ">
<path fill="none" stroke="#63b8ff" d="M126.62,-227.28C111.32,-225.01 94.09,-222.45 79.08,-220.23"/>
<polygon fill="#63b8ff" stroke="#63b8ff" points="126.45,-230.8 136.86,-228.8 127.48,-223.87 126.45,-230.8"/>
</a>
</g>
</g>
<!-- Node35&#45;&gt;Node26 -->
<g id="edge52_Node000035_Node000026" class="edge">
<title>Node35&#45;&gt;Node26</title>
<g id="a_edge52_Node000035_Node000026"><a xlink:title=" ">
<path fill="none" stroke="#63b8ff" d="M89.05,-205.22C126.17,-197.87 178.54,-186.97 224,-175.5 235.87,-172.51 248.89,-168.76 259.88,-165.47"/>
<polygon fill="#63b8ff" stroke="#63b8ff" points="88.14,-201.83 79,-207.19 89.49,-208.7 88.14,-201.83"/>
</a>
</g>
</g>
<!-- Node36&#45;&gt;Node3 -->
<g id="edge57_Node000036_Node000003" class="edge">
<title>Node36&#45;&gt;Node3</title>
<g id="a_edge57_Node000036_Node000003"><a xlink:title=" ">
<path fill="none" stroke="#63b8ff" d="M1996.37,-402.38C1986.11,-403.6 1975.11,-404.92 1964.27,-406.21"/>
<polygon fill="#63b8ff" stroke="#63b8ff" points="1996.84,-405.85 2006.35,-401.18 1996.01,-398.89 1996.84,-405.85"/>
</a>
</g>
</g>
</g>
</svg>
