<?xml version="1.0" encoding="UTF-8" standalone="no"?>
<!DOCTYPE svg PUBLIC "-//W3C//DTD SVG 1.1//EN"
 "http://www.w3.org/Graphics/SVG/1.1/DTD/svg11.dtd">
<!-- Generated by graphviz version 2.43.0 (0)
 -->
<!-- Title: parser_compound_list Pages: 1 -->
<svg width="2364pt" height="469pt"
 viewBox="0.00 0.00 2364.00 469.00" xmlns="http://www.w3.org/2000/svg" xmlns:xlink="http://www.w3.org/1999/xlink">
<g id="graph0" class="graph" transform="scale(1 1) rotate(0) translate(4 465)">
<title>parser_compound_list</title>
<!-- Node1 -->
<g id="Node000001" class="node">
<title>Node1</title>
<g id="a_Node000001"><a xlink:title="Absorb a chain of and_or separeted by &#39;;&#39; or &#39; &#39;.">
<polygon fill="#999999" stroke="#666666" points="2356,-328 2232,-328 2232,-309 2356,-309 2356,-328"/>
<text text-anchor="middle" x="2294" y="-316" font-family="Helvetica,sans-Serif" font-size="10.00">parser_compound_list</text>
</a>
</g>
</g>
<!-- Node2 -->
<g id="Node000002" class="node">
<title>Node2</title>
<g id="a_Node000002"><a xlink:href="parser__rules_8c.html#a799f84e24df3eff653f7c0696e348572" target="_top" xlink:title="Parse an elif block when called.">
<polygon fill="white" stroke="#666666" points="2178.5,-385 2110.5,-385 2110.5,-366 2178.5,-366 2178.5,-385"/>
<text text-anchor="middle" x="2144.5" y="-373" font-family="Helvetica,sans-Serif" font-size="10.00">parser_elif</text>
</a>
</g>
</g>
<!-- Node1&#45;&gt;Node2 -->
<g id="edge1_Node000001_Node000002" class="edge">
<title>Node1&#45;&gt;Node2</title>
<g id="a_edge1_Node000001_Node000002"><a xlink:title=" ">
<path fill="none" stroke="#63b8ff" d="M2258.83,-331.7C2231.75,-342.17 2194.55,-356.55 2170.27,-365.93"/>
<polygon fill="#63b8ff" stroke="#63b8ff" points="2260.25,-334.91 2268.31,-328.04 2257.72,-328.38 2260.25,-334.91"/>
</a>
</g>
</g>
<!-- Node3 -->
<g id="Node000003" class="node">
<title>Node3</title>
<g id="a_Node000003"><a xlink:href="parser__rules_8c.html#adf5258219dad4f79fdbc7786eb925699" target="_top" xlink:title="Define which parser to use depending on the context.">
<polygon fill="white" stroke="#666666" points="2049.5,-385 1939.5,-385 1939.5,-366 2049.5,-366 2049.5,-385"/>
<text text-anchor="middle" x="1994.5" y="-373" font-family="Helvetica,sans-Serif" font-size="10.00">parser_else_clause</text>
</a>
</g>
</g>
<!-- Node1&#45;&gt;Node3 -->
<g id="edge43_Node000001_Node000003" class="edge">
<title>Node1&#45;&gt;Node3</title>
<g id="a_edge43_Node000001_Node000003"><a xlink:title=" ">
<path fill="none" stroke="#63b8ff" d="M2232.39,-329.94C2192.73,-337.44 2139.77,-347.5 2093,-356.5 2077.08,-359.56 2059.71,-362.94 2044.09,-365.98"/>
<polygon fill="#63b8ff" stroke="#63b8ff" points="2233.26,-333.34 2242.44,-328.04 2231.96,-326.46 2233.26,-333.34"/>
</a>
</g>
</g>
<!-- Node4 -->
<g id="Node000004" class="node">
<title>Node4</title>
<g id="a_Node000004"><a xlink:href="parser__rules_8c.html#abf9e27d14e7a1c314285114bead78817" target="_top" xlink:title="Handle a &#39;if&#39; block by calling corresponding parser at each step.">
<polygon fill="white" stroke="#666666" points="1892.5,-385 1809.5,-385 1809.5,-366 1892.5,-366 1892.5,-385"/>
<text text-anchor="middle" x="1851" y="-373" font-family="Helvetica,sans-Serif" font-size="10.00">parser_rule_if</text>
</a>
</g>
</g>
<!-- Node1&#45;&gt;Node4 -->
<g id="edge48_Node000001_Node000004" class="edge">
<title>Node1&#45;&gt;Node4</title>
<g id="a_edge48_Node000001_Node000004"><a xlink:title=" ">
<path fill="none" stroke="#63b8ff" d="M2278.03,-335.65C2260.53,-354.27 2229.65,-382.89 2196,-394.5 2086.59,-432.26 1946.04,-402.08 1883.94,-385.1"/>
<polygon fill="#63b8ff" stroke="#63b8ff" points="2280.74,-337.88 2284.89,-328.13 2275.56,-333.16 2280.74,-337.88"/>
</a>
</g>
</g>
<!-- Node29 -->
<g id="Node000029" class="node">
<title>Node29</title>
<g id="a_Node000029"><a xlink:href="parser__rules_8c.html#afb9701776de31af668314b48a0b54636" target="_top" xlink:title="Handle a command block enclosed in brackets.">
<polygon fill="white" stroke="#666666" points="2057,-319.5 1932,-319.5 1932,-289.5 2057,-289.5 2057,-319.5"/>
<text text-anchor="start" x="1940" y="-307.5" font-family="Helvetica,sans-Serif" font-size="10.00">parser_rule_command</text>
<text text-anchor="middle" x="1994.5" y="-296.5" font-family="Helvetica,sans-Serif" font-size="10.00">_block</text>
</a>
</g>
</g>
<!-- Node1&#45;&gt;Node29 -->
<g id="edge44_Node000001_Node000029" class="edge">
<title>Node1&#45;&gt;Node29</title>
<g id="a_edge44_Node000001_Node000029"><a xlink:title=" ">
<path fill="none" stroke="#63b8ff" d="M2221.6,-315.14C2171.45,-312.78 2105.06,-309.66 2057.21,-307.4"/>
<polygon fill="#63b8ff" stroke="#63b8ff" points="2221.57,-318.64 2231.72,-315.62 2221.89,-311.65 2221.57,-318.64"/>
</a>
</g>
</g>
<!-- Node30 -->
<g id="Node000030" class="node">
<title>Node30</title>
<g id="a_Node000030"><a xlink:href="parser__rules_8c.html#a55dc38591d3749d39ca3f38f8a2a26dd" target="_top" xlink:title="Handle a for block by calling corresponding parser at each step.">
<polygon fill="white" stroke="#666666" points="1896,-274 1806,-274 1806,-255 1896,-255 1896,-274"/>
<text text-anchor="middle" x="1851" y="-262" font-family="Helvetica,sans-Serif" font-size="10.00">parser_rule_for</text>
</a>
</g>
</g>
<!-- Node1&#45;&gt;Node30 -->
<g id="edge46_Node000001_Node000030" class="edge">
<title>Node1&#45;&gt;Node30</title>
<g id="a_edge46_Node000001_Node000030"><a xlink:title=" ">
<path fill="none" stroke="#63b8ff" d="M2231.48,-307.18C2183.97,-298.78 2116.51,-287.6 2057,-280.5 2001.7,-273.9 1937.67,-269.4 1896.09,-266.9"/>
<polygon fill="#63b8ff" stroke="#63b8ff" points="2231.15,-310.68 2241.61,-308.98 2232.38,-303.78 2231.15,-310.68"/>
</a>
</g>
</g>
<!-- Node31 -->
<g id="Node000031" class="node">
<title>Node31</title>
<g id="a_Node000031"><a xlink:href="parser__rules_8c.html#abf1c3edda1bb73d8c86028687922ce95" target="_top" xlink:title="Handle a &#39;until&#39; block by calling corresponding parser at each step.">
<polygon fill="white" stroke="#666666" points="2043.5,-233 1945.5,-233 1945.5,-214 2043.5,-214 2043.5,-233"/>
<text text-anchor="middle" x="1994.5" y="-221" font-family="Helvetica,sans-Serif" font-size="10.00">parser_rule_until</text>
</a>
</g>
</g>
<!-- Node1&#45;&gt;Node31 -->
<g id="edge49_Node000001_Node000031" class="edge">
<title>Node1&#45;&gt;Node31</title>
<g id="a_edge49_Node000001_Node000031"><a xlink:title=" ">
<path fill="none" stroke="#63b8ff" d="M2276.15,-301.88C2258,-285.09 2227.48,-259.91 2196,-247.5 2146.59,-228.02 2085.44,-223.19 2043.75,-222.5"/>
<polygon fill="#63b8ff" stroke="#63b8ff" points="2273.91,-304.58 2283.57,-308.93 2278.73,-299.5 2273.91,-304.58"/>
</a>
</g>
</g>
<!-- Node32 -->
<g id="Node000032" class="node">
<title>Node32</title>
<g id="a_Node000032"><a xlink:href="parser__rules_8c.html#aa6719ad356821f03ad45b1ac0a57d3bd" target="_top" xlink:title="Handle a &#39;while&#39; block by calling corresponding parser at each step.">
<polygon fill="white" stroke="#666666" points="2196,-461 2093,-461 2093,-442 2196,-442 2196,-461"/>
<text text-anchor="middle" x="2144.5" y="-449" font-family="Helvetica,sans-Serif" font-size="10.00">parser_rule_while</text>
</a>
</g>
</g>
<!-- Node1&#45;&gt;Node32 -->
<g id="edge51_Node000001_Node000032" class="edge">
<title>Node1&#45;&gt;Node32</title>
<g id="a_edge51_Node000001_Node000032"><a xlink:title=" ">
<path fill="none" stroke="#63b8ff" d="M2280.6,-336.42C2263.69,-359.83 2231.42,-400.93 2196,-427.5 2188.31,-433.27 2179.02,-438.16 2170.51,-442"/>
<polygon fill="#63b8ff" stroke="#63b8ff" points="2283.57,-338.3 2286.5,-328.11 2277.86,-334.25 2283.57,-338.3"/>
</a>
</g>
</g>
<!-- Node2&#45;&gt;Node3 -->
<g id="edge2_Node000002_Node000003" class="edge">
<title>Node2&#45;&gt;Node3</title>
<g id="a_edge2_Node000002_Node000003"><a xlink:title=" ">
<path fill="none" stroke="#63b8ff" d="M2100.23,-369.3C2084.36,-368.7 2066.21,-368.59 2049.52,-368.97"/>
<polygon fill="#63b8ff" stroke="#63b8ff" points="2100.14,-372.8 2110.29,-369.76 2100.46,-365.8 2100.14,-372.8"/>
</a>
</g>
</g>
<!-- Node3&#45;&gt;Node2 -->
<g id="edge3_Node000003_Node000002" class="edge">
<title>Node3&#45;&gt;Node2</title>
<g id="a_edge3_Node000003_Node000002"><a xlink:title=" ">
<path fill="none" stroke="#63b8ff" d="M2059.68,-382.2C2077.13,-382.39 2095.32,-382.07 2110.29,-381.24"/>
<polygon fill="#63b8ff" stroke="#63b8ff" points="2059.57,-378.69 2049.52,-382.03 2059.46,-385.69 2059.57,-378.69"/>
</a>
</g>
</g>
<!-- Node3&#45;&gt;Node4 -->
<g id="edge4_Node000003_Node000004" class="edge">
<title>Node3&#45;&gt;Node4</title>
<g id="a_edge4_Node000003_Node000004"><a xlink:title=" ">
<path fill="none" stroke="#63b8ff" d="M1928.94,-375.5C1916.63,-375.5 1904.06,-375.5 1892.75,-375.5"/>
<polygon fill="#63b8ff" stroke="#63b8ff" points="1929.2,-379 1939.2,-375.5 1929.2,-372 1929.2,-379"/>
</a>
</g>
</g>
<!-- Node5 -->
<g id="Node000005" class="node">
<title>Node5</title>
<g id="a_Node000005"><a xlink:href="parser__commands_8c.html#ad98fbb958a265134e775b69579e28835" target="_top" xlink:title="Handle a shell command block by calling corresponding parser at each step.">
<polygon fill="white" stroke="#666666" points="1770,-293 1640,-293 1640,-274 1770,-274 1770,-293"/>
<text text-anchor="middle" x="1705" y="-281" font-family="Helvetica,sans-Serif" font-size="10.00">parser_shell_command</text>
</a>
</g>
</g>
<!-- Node4&#45;&gt;Node5 -->
<g id="edge5_Node000004_Node000005" class="edge">
<title>Node4&#45;&gt;Node5</title>
<g id="a_edge5_Node000004_Node000005"><a xlink:title=" ">
<path fill="none" stroke="#63b8ff" d="M1826.3,-360.36C1796.41,-341.26 1745.93,-309.01 1720.94,-293.04"/>
<polygon fill="#63b8ff" stroke="#63b8ff" points="1824.55,-363.39 1834.86,-365.83 1828.32,-357.49 1824.55,-363.39"/>
</a>
</g>
</g>
<!-- Node6 -->
<g id="Node000006" class="node">
<title>Node6</title>
<g id="a_Node000006"><a xlink:href="parser__commands_8c.html#aa7191f56bd8e70874c5c381e52186807" target="_top" xlink:title="Parse a command which can be either a simple command or a shell command.">
<polygon fill="white" stroke="#666666" points="1484,-255 1383,-255 1383,-236 1484,-236 1484,-255"/>
<text text-anchor="middle" x="1433.5" y="-243" font-family="Helvetica,sans-Serif" font-size="10.00">parser_command</text>
</a>
</g>
</g>
<!-- Node5&#45;&gt;Node6 -->
<g id="edge6_Node000005_Node000006" class="edge">
<title>Node5&#45;&gt;Node6</title>
<g id="a_edge6_Node000005_Node000006"><a xlink:title=" ">
<path fill="none" stroke="#63b8ff" d="M1647.68,-272.02C1633.47,-269.34 1618.2,-266.64 1604,-264.5 1563.89,-258.45 1518.16,-253.43 1484.32,-250.08"/>
<polygon fill="#63b8ff" stroke="#63b8ff" points="1647.34,-275.52 1657.82,-273.97 1648.66,-268.65 1647.34,-275.52"/>
</a>
</g>
</g>
<!-- Node28 -->
<g id="Node000028" class="node">
<title>Node28</title>
<g id="a_Node000028"><a xlink:href="parser__commands_8c.html#a14408e6904da17fc6899bba03f7a5f5a" target="_top" xlink:title="Handle a function definition and add it to the dictionnary.">
<polygon fill="white" stroke="#666666" points="1604,-293 1520,-293 1520,-274 1604,-274 1604,-293"/>
<text text-anchor="middle" x="1562" y="-281" font-family="Helvetica,sans-Serif" font-size="10.00">parser_fundef</text>
</a>
</g>
</g>
<!-- Node5&#45;&gt;Node28 -->
<g id="edge41_Node000005_Node000028" class="edge">
<title>Node5&#45;&gt;Node28</title>
<g id="a_edge41_Node000005_Node000028"><a xlink:title=" ">
<path fill="none" stroke="#63b8ff" d="M1629.49,-283.5C1620.81,-283.5 1612.21,-283.5 1604.21,-283.5"/>
<polygon fill="#63b8ff" stroke="#63b8ff" points="1629.69,-287 1639.69,-283.5 1629.69,-280 1629.69,-287"/>
</a>
</g>
</g>
<!-- Node7 -->
<g id="Node000007" class="node">
<title>Node7</title>
<g id="a_Node000007"><a xlink:href="parser__pipelines_8c.html#a06068cdf8924fb28f414f419d84a5eae" target="_top" xlink:title="Parse and_or blocks separated by &#39;|&#39; (pipes)">
<polygon fill="white" stroke="#666666" points="1347,-254 1255,-254 1255,-235 1347,-235 1347,-254"/>
<text text-anchor="middle" x="1301" y="-242" font-family="Helvetica,sans-Serif" font-size="10.00">parser_pipeline</text>
</a>
</g>
</g>
<!-- Node6&#45;&gt;Node7 -->
<g id="edge7_Node000006_Node000007" class="edge">
<title>Node6&#45;&gt;Node7</title>
<g id="a_edge7_Node000006_Node000007"><a xlink:title=" ">
<path fill="none" stroke="#63b8ff" d="M1372.53,-245.04C1364.05,-244.98 1355.44,-244.91 1347.29,-244.85"/>
<polygon fill="#63b8ff" stroke="#63b8ff" points="1372.76,-248.54 1382.79,-245.12 1372.82,-241.54 1372.76,-248.54"/>
</a>
</g>
</g>
<!-- Node8 -->
<g id="Node000008" class="node">
<title>Node8</title>
<g id="a_Node000008"><a xlink:href="parser__pipelines_8c.html#a85ca4872d7efdb8b0cd643037ccd5763" target="_top" xlink:title="Parse and_or blocks separated by &#39;&amp;&amp;&#39; or &#39;||&#39;.">
<polygon fill="white" stroke="#666666" points="1219,-214 1133,-214 1133,-195 1219,-195 1219,-214"/>
<text text-anchor="middle" x="1176" y="-202" font-family="Helvetica,sans-Serif" font-size="10.00">parser_and_or</text>
</a>
</g>
</g>
<!-- Node7&#45;&gt;Node8 -->
<g id="edge8_Node000007_Node000008" class="edge">
<title>Node7&#45;&gt;Node8</title>
<g id="a_edge8_Node000007_Node000008"><a xlink:title=" ">
<path fill="none" stroke="#63b8ff" d="M1261.02,-231.82C1243.27,-226.05 1222.61,-219.33 1206.22,-214"/>
<polygon fill="#63b8ff" stroke="#63b8ff" points="1259.95,-235.15 1270.54,-234.92 1262.11,-228.5 1259.95,-235.15"/>
</a>
</g>
</g>
<!-- Node8&#45;&gt;Node1 -->
<g id="edge9_Node000008_Node000001" class="edge">
<title>Node8&#45;&gt;Node1</title>
<g id="a_edge9_Node000008_Node000001"><a xlink:title=" ">
<path fill="none" stroke="#63b8ff" d="M1229.66,-198.29C1281.26,-192.75 1362.17,-185.5 1432.5,-185.5 1995.5,-185.5 1995.5,-185.5 1995.5,-185.5 2086.04,-185.5 2115.76,-179.57 2196,-221.5 2237.58,-243.23 2272.61,-288.96 2286.54,-308.88"/>
<polygon fill="#63b8ff" stroke="#63b8ff" points="1228.98,-194.84 1219.42,-199.41 1229.74,-201.8 1228.98,-194.84"/>
</a>
</g>
</g>
<!-- Node9 -->
<g id="Node000009" class="node">
<title>Node9</title>
<g id="a_Node000009"><a xlink:href="parser__lists_8c.html#a7b9812922acfb4eba24e65d40bd99001" target="_top" xlink:title="Parse list block into sub and_or block(s) separated by semi&#45;colons.">
<polygon fill="white" stroke="#666666" points="1097,-214 1029,-214 1029,-195 1097,-195 1097,-214"/>
<text text-anchor="middle" x="1063" y="-202" font-family="Helvetica,sans-Serif" font-size="10.00">parser_list</text>
</a>
</g>
</g>
<!-- Node8&#45;&gt;Node9 -->
<g id="edge10_Node000008_Node000009" class="edge">
<title>Node8&#45;&gt;Node9</title>
<g id="a_edge10_Node000008_Node000009"><a xlink:title=" ">
<path fill="none" stroke="#63b8ff" d="M1122.65,-204.5C1113.98,-204.5 1105.21,-204.5 1097.19,-204.5"/>
<polygon fill="#63b8ff" stroke="#63b8ff" points="1122.72,-208 1132.72,-204.5 1122.72,-201 1122.72,-208"/>
</a>
</g>
</g>
<!-- Node10 -->
<g id="Node000010" class="node">
<title>Node10</title>
<g id="a_Node000010"><a xlink:href="parser_8c.html#a620dffcc9a167cdee6e67de1191e5277" target="_top" xlink:title="Parse the input of our shell into list.">
<polygon fill="white" stroke="#666666" points="993,-214 946,-214 946,-195 993,-195 993,-214"/>
<text text-anchor="middle" x="969.5" y="-202" font-family="Helvetica,sans-Serif" font-size="10.00">parser</text>
</a>
</g>
</g>
<!-- Node9&#45;&gt;Node10 -->
<g id="edge11_Node000009_Node000010" class="edge">
<title>Node9&#45;&gt;Node10</title>
<g id="a_edge11_Node000009_Node000010"><a xlink:title=" ">
<path fill="none" stroke="#63b8ff" d="M1018.73,-204.5C1009.9,-204.5 1000.94,-204.5 993.18,-204.5"/>
<polygon fill="#63b8ff" stroke="#63b8ff" points="1018.97,-208 1028.97,-204.5 1018.97,-201 1018.97,-208"/>
</a>
</g>
</g>
<!-- Node11 -->
<g id="Node000011" class="node">
<title>Node11</title>
<g id="a_Node000011"><a xlink:href="42sh_8c.html#a3c04138a5bfe5d72780bb7e82a18e627" target="_top" xlink:title=" ">
<polygon fill="white" stroke="#666666" points="190,-390 149,-390 149,-371 190,-371 190,-390"/>
<text text-anchor="middle" x="169.5" y="-378" font-family="Helvetica,sans-Serif" font-size="10.00">main</text>
</a>
</g>
</g>
<!-- Node10&#45;&gt;Node11 -->
<g id="edge12_Node000010_Node000011" class="edge">
<title>Node10&#45;&gt;Node11</title>
<g id="a_edge12_Node000010_Node000011"><a xlink:title=" ">
<path fill="none" stroke="#63b8ff" d="M935.71,-212.57C899.18,-220.84 838.24,-232.5 785,-232.5 785,-232.5 785,-232.5 387.5,-232.5 294.94,-232.5 305.02,-316.75 224,-361.5 213.39,-367.36 200.62,-371.98 190.22,-375.19"/>
<polygon fill="#63b8ff" stroke="#63b8ff" points="936.83,-215.9 945.78,-210.23 935.25,-209.08 936.83,-215.9"/>
</a>
</g>
</g>
<!-- Node12 -->
<g id="Node000012" class="node">
<title>Node12</title>
<g id="a_Node000012"><a xlink:href="dot_8c.html#a17477ee2b0f1b8b9306566c990d15b35" target="_top" xlink:title="Main loop of dot builtin.">
<polygon fill="white" stroke="#666666" points="910,-195 842,-195 842,-176 910,-176 910,-195"/>
<text text-anchor="middle" x="876" y="-183" font-family="Helvetica,sans-Serif" font-size="10.00">main_loop</text>
</a>
</g>
</g>
<!-- Node10&#45;&gt;Node12 -->
<g id="edge13_Node000010_Node000012" class="edge">
<title>Node10&#45;&gt;Node12</title>
<g id="a_edge13_Node000010_Node000012"><a xlink:title=" ">
<path fill="none" stroke="#63b8ff" d="M936.02,-197.76C927.6,-196.01 918.52,-194.12 910.07,-192.37"/>
<polygon fill="#63b8ff" stroke="#63b8ff" points="935.38,-201.2 945.88,-199.8 936.8,-194.34 935.38,-201.2"/>
</a>
</g>
</g>
<!-- Node13 -->
<g id="Node000013" class="node">
<title>Node13</title>
<g id="a_Node000013"><a xlink:href="dot_8c.html#a713938d3c6ee343132c429642048bcf6" target="_top" xlink:title="Execute the dot builtin cmd.">
<polygon fill="white" stroke="#666666" points="806,-157 762,-157 762,-138 806,-138 806,-157"/>
<text text-anchor="middle" x="784" y="-145" font-family="Helvetica,sans-Serif" font-size="10.00">dot_b</text>
</a>
</g>
</g>
<!-- Node12&#45;&gt;Node13 -->
<g id="edge14_Node000012_Node000013" class="edge">
<title>Node12&#45;&gt;Node13</title>
<g id="a_edge14_Node000012_Node000013"><a xlink:title=" ">
<path fill="none" stroke="#63b8ff" d="M842.88,-171.94C830.68,-166.79 817.1,-161.05 806.16,-156.43"/>
<polygon fill="#63b8ff" stroke="#63b8ff" points="841.72,-175.25 852.29,-175.91 844.44,-168.8 841.72,-175.25"/>
</a>
</g>
</g>
<!-- Node14 -->
<g id="Node000014" class="node">
<title>Node14</title>
<g id="a_Node000014"><a xlink:href="exec_8c.html#abaeb177587c7eec6a064b35bb8399cae" target="_top" xlink:title="Execute builtin cmd with given args.">
<polygon fill="white" stroke="#666666" points="726,-157 651,-157 651,-138 726,-138 726,-157"/>
<text text-anchor="middle" x="688.5" y="-145" font-family="Helvetica,sans-Serif" font-size="10.00">exec_builtin</text>
</a>
</g>
</g>
<!-- Node13&#45;&gt;Node14 -->
<g id="edge15_Node000013_Node000014" class="edge">
<title>Node13&#45;&gt;Node14</title>
<g id="a_edge15_Node000013_Node000014"><a xlink:title=" ">
<path fill="none" stroke="#63b8ff" d="M751.53,-147.5C743.35,-147.5 734.47,-147.5 726.05,-147.5"/>
<polygon fill="#63b8ff" stroke="#63b8ff" points="751.78,-151 761.78,-147.5 751.78,-144 751.78,-151"/>
</a>
</g>
</g>
<!-- Node15 -->
<g id="Node000015" class="node">
<title>Node15</title>
<g id="a_Node000015"><a xlink:href="exec_8c.html#a287d81b4658832f192750310e2925917" target="_top" xlink:title="Execute the builtin command with given args.">
<polygon fill="white" stroke="#666666" points="615,-157 565,-157 565,-138 615,-138 615,-157"/>
<text text-anchor="middle" x="590" y="-145" font-family="Helvetica,sans-Serif" font-size="10.00">exec_b</text>
</a>
</g>
</g>
<!-- Node14&#45;&gt;Node15 -->
<g id="edge16_Node000014_Node000015" class="edge">
<title>Node14&#45;&gt;Node15</title>
<g id="a_edge16_Node000014_Node000015"><a xlink:title=" ">
<path fill="none" stroke="#63b8ff" d="M640.51,-147.5C631.71,-147.5 622.86,-147.5 615.12,-147.5"/>
<polygon fill="#63b8ff" stroke="#63b8ff" points="640.74,-151 650.74,-147.5 640.74,-144 640.74,-151"/>
</a>
</g>
</g>
<!-- Node16 -->
<g id="Node000016" class="node">
<title>Node16</title>
<g id="a_Node000016"><a xlink:href="exec_8c.html#ae65edaa99b26b49d60c451157d38b34a" target="_top" xlink:title="Execute les commandes avec les args donnes.">
<polygon fill="white" stroke="#666666" points="529,-157 464,-157 464,-138 529,-138 529,-157"/>
<text text-anchor="middle" x="496.5" y="-145" font-family="Helvetica,sans-Serif" font-size="10.00">exec_cmd</text>
</a>
</g>
</g>
<!-- Node15&#45;&gt;Node16 -->
<g id="edge17_Node000015_Node000016" class="edge">
<title>Node15&#45;&gt;Node16</title>
<g id="a_edge17_Node000015_Node000016"><a xlink:title=" ">
<path fill="none" stroke="#63b8ff" d="M554.77,-147.5C546.42,-147.5 537.53,-147.5 529.3,-147.5"/>
<polygon fill="#63b8ff" stroke="#63b8ff" points="554.96,-151 564.96,-147.5 554.96,-144 554.96,-151"/>
</a>
</g>
</g>
<!-- Node17 -->
<g id="Node000017" class="node">
<title>Node17</title>
<g id="a_Node000017"><a xlink:href="ast__run_8c.html#aeb6878a59c6907e5669fc3cc428913d9" target="_top" xlink:title=" ">
<polygon fill="white" stroke="#666666" points="428,-157 349,-157 349,-138 428,-138 428,-157"/>
<text text-anchor="middle" x="388.5" y="-145" font-family="Helvetica,sans-Serif" font-size="10.00">ast_run_cmd</text>
</a>
</g>
</g>
<!-- Node16&#45;&gt;Node17 -->
<g id="edge18_Node000016_Node000017" class="edge">
<title>Node16&#45;&gt;Node17</title>
<g id="a_edge18_Node000016_Node000017"><a xlink:title=" ">
<path fill="none" stroke="#63b8ff" d="M453.92,-147.5C445.45,-147.5 436.58,-147.5 428.21,-147.5"/>
<polygon fill="#63b8ff" stroke="#63b8ff" points="453.98,-151 463.98,-147.5 453.98,-144 453.98,-151"/>
</a>
</g>
</g>
<!-- Node18 -->
<g id="Node000018" class="node">
<title>Node18</title>
<g id="a_Node000018"><a xlink:href="ast_8c.html#a572345b2707780bbbc5bbaacdca9c372" target="_top" xlink:title=" ">
<polygon fill="white" stroke="#666666" points="313,-185 260,-185 260,-166 313,-166 313,-185"/>
<text text-anchor="middle" x="286.5" y="-173" font-family="Helvetica,sans-Serif" font-size="10.00">run_ast</text>
</a>
</g>
</g>
<!-- Node17&#45;&gt;Node18 -->
<g id="edge19_Node000017_Node000018" class="edge">
<title>Node17&#45;&gt;Node18</title>
<g id="a_edge19_Node000017_Node000018"><a xlink:title=" ">
<path fill="none" stroke="#63b8ff" d="M343.6,-159.79C333.24,-162.69 322.53,-165.69 313.27,-168.28"/>
<polygon fill="#63b8ff" stroke="#63b8ff" points="344.68,-163.12 353.37,-157.06 342.79,-156.38 344.68,-163.12"/>
</a>
</g>
</g>
<!-- Node18&#45;&gt;Node11 -->
<g id="edge39_Node000018_Node000011" class="edge">
<title>Node18&#45;&gt;Node11</title>
<g id="a_edge39_Node000018_Node000011"><a xlink:title=" ">
<path fill="none" stroke="#63b8ff" d="M273.04,-193.84C268.43,-201.25 263.49,-210.04 260,-218.5 235.03,-279.09 268.1,-313.02 224,-361.5 215.31,-371.05 201.51,-375.8 190.1,-378.17"/>
<polygon fill="#63b8ff" stroke="#63b8ff" points="276.06,-195.62 278.56,-185.32 270.18,-191.81 276.06,-195.62"/>
</a>
</g>
</g>
<!-- Node18&#45;&gt;Node12 -->
<g id="edge40_Node000018_Node000012" class="edge">
<title>Node18&#45;&gt;Node12</title>
<g id="a_edge40_Node000018_Node000012"><a xlink:title=" ">
<path fill="none" stroke="#63b8ff" d="M323.23,-178.26C364.65,-181.22 434.97,-185.5 495.5,-185.5 689.5,-185.5 689.5,-185.5 689.5,-185.5 742.8,-185.5 804.71,-185.5 841.83,-185.5"/>
<polygon fill="#63b8ff" stroke="#63b8ff" points="323.33,-174.76 313.1,-177.52 322.82,-181.74 323.33,-174.76"/>
</a>
</g>
</g>
<!-- Node19 -->
<g id="Node000019" class="node">
<title>Node19</title>
<g id="a_Node000019"><a xlink:href="ast__run_8c.html#a8a01fec616135007fc5b3968a101901b" target="_top" xlink:title=" ">
<polygon fill="white" stroke="#666666" points="215,-222 124,-222 124,-203 215,-203 215,-222"/>
<text text-anchor="middle" x="169.5" y="-210" font-family="Helvetica,sans-Serif" font-size="10.00">ast_run_and_or</text>
</a>
</g>
</g>
<!-- Node18&#45;&gt;Node19 -->
<g id="edge20_Node000018_Node000019" class="edge">
<title>Node18&#45;&gt;Node19</title>
<g id="a_edge20_Node000018_Node000019"><a xlink:title=" ">
<path fill="none" stroke="#63b8ff" d="M250.09,-180.61C228.37,-186.64 201.69,-195.75 185.4,-202.99"/>
<polygon fill="#63b8ff" stroke="#63b8ff" points="251.21,-183.93 259.98,-177.99 249.42,-177.16 251.21,-183.93"/>
</a>
</g>
</g>
<!-- Node20 -->
<g id="Node000020" class="node">
<title>Node20</title>
<g id="a_Node000020"><a xlink:href="ast__run_8c.html#a9d83d4834a61ffe21eb77838d70ae173" target="_top" xlink:title=" ">
<polygon fill="white" stroke="#666666" points="205,-185 134,-185 134,-166 205,-166 205,-185"/>
<text text-anchor="middle" x="169.5" y="-173" font-family="Helvetica,sans-Serif" font-size="10.00">ast_run_for</text>
</a>
</g>
</g>
<!-- Node18&#45;&gt;Node20 -->
<g id="edge22_Node000018_Node000020" class="edge">
<title>Node18&#45;&gt;Node20</title>
<g id="a_edge22_Node000018_Node000020"><a xlink:title=" ">
<path fill="none" stroke="#63b8ff" d="M249.6,-169.19C235.41,-168.58 219.17,-168.6 205.11,-169.25"/>
<polygon fill="#63b8ff" stroke="#63b8ff" points="249.8,-172.71 259.98,-169.78 250.19,-165.72 249.8,-172.71"/>
</a>
</g>
</g>
<!-- Node21 -->
<g id="Node000021" class="node">
<title>Node21</title>
<g id="a_Node000021"><a xlink:href="ast__run_8c.html#a0a7138b1f2608ea36211c9b78988c248" target="_top" xlink:title=" ">
<polygon fill="white" stroke="#666666" points="202,-148 137,-148 137,-129 202,-129 202,-148"/>
<text text-anchor="middle" x="169.5" y="-136" font-family="Helvetica,sans-Serif" font-size="10.00">ast_run_if</text>
</a>
</g>
</g>
<!-- Node18&#45;&gt;Node21 -->
<g id="edge24_Node000018_Node000021" class="edge">
<title>Node18&#45;&gt;Node21</title>
<g id="a_edge24_Node000018_Node000021"><a xlink:title=" ">
<path fill="none" stroke="#63b8ff" d="M261.1,-162.01C243.88,-155.16 220.65,-147.54 202.03,-142.55"/>
<polygon fill="#63b8ff" stroke="#63b8ff" points="259.89,-165.3 270.47,-165.93 262.59,-158.84 259.89,-165.3"/>
</a>
</g>
</g>
<!-- Node22 -->
<g id="Node000022" class="node">
<title>Node22</title>
<g id="a_Node000022"><a xlink:href="ast__run_8c.html#ae25cd3ced8abafd76110dba8852a6b87" target="_top" xlink:title=" ">
<polygon fill="white" stroke="#666666" points="206,-93 133,-93 133,-74 206,-74 206,-93"/>
<text text-anchor="middle" x="169.5" y="-81" font-family="Helvetica,sans-Serif" font-size="10.00">ast_run_list</text>
</a>
</g>
</g>
<!-- Node18&#45;&gt;Node22 -->
<g id="edge26_Node000018_Node000022" class="edge">
<title>Node18&#45;&gt;Node22</title>
<g id="a_edge26_Node000018_Node000022"><a xlink:title=" ">
<path fill="none" stroke="#63b8ff" d="M274.23,-157.6C262.22,-143.6 242.44,-124.97 224,-110.5 216.25,-104.42 207.51,-98.26 199.37,-93.17"/>
<polygon fill="#63b8ff" stroke="#63b8ff" points="271.65,-159.99 280.62,-165.63 277.13,-155.63 271.65,-159.99"/>
</a>
</g>
</g>
<!-- Node23 -->
<g id="Node000023" class="node">
<title>Node23</title>
<g id="a_Node000023"><a xlink:href="ast__run_8c.html#a536f37ba9bffcd2099fef668656181e0" target="_top" xlink:title=" ">
<polygon fill="white" stroke="#666666" points="209,-56 130,-56 130,-37 209,-37 209,-56"/>
<text text-anchor="middle" x="169.5" y="-44" font-family="Helvetica,sans-Serif" font-size="10.00">ast_run_loop</text>
</a>
</g>
</g>
<!-- Node18&#45;&gt;Node23 -->
<g id="edge29_Node000018_Node000023" class="edge">
<title>Node18&#45;&gt;Node23</title>
<g id="a_edge29_Node000018_Node000023"><a xlink:title=" ">
<path fill="none" stroke="#63b8ff" d="M281.43,-156C273.92,-129.05 255.69,-81.9 224,-55.5 219.63,-51.86 214.5,-48.95 209.17,-46.72"/>
<polygon fill="#63b8ff" stroke="#63b8ff" points="278.08,-157.05 283.93,-165.88 284.87,-155.33 278.08,-157.05"/>
</a>
</g>
</g>
<!-- Node24 -->
<g id="Node000024" class="node">
<title>Node24</title>
<g id="a_Node000024"><a xlink:href="ast__run_8c.html#aa3e6a973e744d748ee415840596beb53" target="_top" xlink:title=" ">
<polygon fill="white" stroke="#666666" points="224,-353 115,-353 115,-334 224,-334 224,-353"/>
<text text-anchor="middle" x="169.5" y="-341" font-family="Helvetica,sans-Serif" font-size="10.00">ast_run_shell_redir</text>
</a>
</g>
</g>
<!-- Node18&#45;&gt;Node24 -->
<g id="edge31_Node000018_Node000024" class="edge">
<title>Node18&#45;&gt;Node24</title>
<g id="a_edge31_Node000018_Node000024"><a xlink:title=" ">
<path fill="none" stroke="#63b8ff" d="M268.37,-193.62C265.38,-198.67 262.45,-204.18 260,-209.5 239.2,-254.7 258.94,-280.08 224,-315.5 214.31,-325.32 199.22,-330.09 187.53,-333.86"/>
<polygon fill="#63b8ff" stroke="#63b8ff" points="271.34,-195.46 273.72,-185.14 265.42,-191.73 271.34,-195.46"/>
</a>
</g>
</g>
<!-- Node25 -->
<g id="Node000025" class="node">
<title>Node25</title>
<g id="a_Node000025"><a xlink:href="exec_8c.html#a23babf893bbcd2f6126698a1a19b169f" target="_top" xlink:title="Execute funct with given arguments.">
<polygon fill="white" stroke="#666666" points="202,-19 137,-19 137,0 202,0 202,-19"/>
<text text-anchor="middle" x="169.5" y="-7" font-family="Helvetica,sans-Serif" font-size="10.00">exec_func</text>
</a>
</g>
</g>
<!-- Node18&#45;&gt;Node25 -->
<g id="edge33_Node000018_Node000025" class="edge">
<title>Node18&#45;&gt;Node25</title>
<g id="a_edge33_Node000018_Node000025"><a xlink:title=" ">
<path fill="none" stroke="#63b8ff" d="M282.56,-155.44C276.89,-123.84 261.51,-62.49 224,-27.5 217.91,-21.82 209.97,-17.92 202.07,-15.26"/>
<polygon fill="#63b8ff" stroke="#63b8ff" points="279.16,-156.33 284.23,-165.63 286.07,-155.19 279.16,-156.33"/>
</a>
</g>
</g>
<!-- Node26 -->
<g id="Node000026" class="node">
<title>Node26</title>
<g id="a_Node000026"><a xlink:href="exec_8c.html#ab743cb88e12e9b922050925fd2075e36" target="_top" xlink:title="Execute a pipeline of commands.">
<polygon fill="white" stroke="#666666" points="202,-298 137,-298 137,-279 202,-279 202,-298"/>
<text text-anchor="middle" x="169.5" y="-286" font-family="Helvetica,sans-Serif" font-size="10.00">exec_pipe</text>
</a>
</g>
</g>
<!-- Node18&#45;&gt;Node26 -->
<g id="edge35_Node000018_Node000026" class="edge">
<title>Node18&#45;&gt;Node26</title>
<g id="a_edge35_Node000018_Node000026"><a xlink:title=" ">
<path fill="none" stroke="#63b8ff" d="M274.3,-194.12C260.25,-217.01 236.51,-254.09 224,-264.5 216.8,-270.49 207.87,-275.27 199.37,-278.95"/>
<polygon fill="#63b8ff" stroke="#63b8ff" points="277.46,-195.67 279.66,-185.3 271.47,-192.03 277.46,-195.67"/>
</a>
</g>
</g>
<!-- Node19&#45;&gt;Node18 -->
<g id="edge21_Node000019_Node000018" class="edge">
<title>Node19&#45;&gt;Node18</title>
<g id="a_edge21_Node000019_Node000018"><a xlink:title=" ">
<path fill="none" stroke="#63b8ff" d="M224.85,-201.75C241.6,-196.46 258.71,-190.29 270.47,-185.07"/>
<polygon fill="#63b8ff" stroke="#63b8ff" points="223.61,-198.48 215.07,-204.76 225.66,-205.17 223.61,-198.48"/>
</a>
</g>
</g>
<!-- Node20&#45;&gt;Node18 -->
<g id="edge23_Node000020_Node000018" class="edge">
<title>Node20&#45;&gt;Node18</title>
<g id="a_edge23_Node000020_Node000018"><a xlink:title=" ">
<path fill="none" stroke="#63b8ff" d="M215.34,-182.1C230.48,-182.46 246.86,-182.17 259.98,-181.22"/>
<polygon fill="#63b8ff" stroke="#63b8ff" points="215.23,-178.6 205.11,-181.75 214.98,-185.59 215.23,-178.6"/>
</a>
</g>
</g>
<!-- Node21&#45;&gt;Node18 -->
<g id="edge25_Node000021_Node000018" class="edge">
<title>Node21&#45;&gt;Node18</title>
<g id="a_edge25_Node000021_Node000018"><a xlink:title=" ">
<path fill="none" stroke="#63b8ff" d="M194.64,-151.89C213.79,-159.52 240.48,-168.14 259.98,-173.01"/>
<polygon fill="#63b8ff" stroke="#63b8ff" points="195.97,-148.65 185.4,-148.01 193.27,-155.1 195.97,-148.65"/>
</a>
</g>
</g>
<!-- Node22&#45;&gt;Node18 -->
<g id="edge28_Node000022_Node000018" class="edge">
<title>Node22&#45;&gt;Node18</title>
<g id="a_edge28_Node000022_Node000018"><a xlink:title=" ">
<path fill="none" stroke="#63b8ff" d="M184.71,-99.61C195.72,-108.23 211.21,-118.46 224,-128.5 239.56,-140.71 256.08,-155.89 268.08,-165.99"/>
<polygon fill="#63b8ff" stroke="#63b8ff" points="186.87,-96.86 176.97,-93.08 182.35,-102.21 186.87,-96.86"/>
</a>
</g>
</g>
<!-- Node22&#45;&gt;Node22 -->
<g id="edge27_Node000022_Node000022" class="edge">
<title>Node22&#45;&gt;Node22</title>
<g id="a_edge27_Node000022_Node000022"><a xlink:title=" ">
<path fill="none" stroke="#63b8ff" d="M190.98,-102.55C189.55,-107.38 182.39,-111 169.5,-111 148.88,-111 142.92,-101.73 151.62,-93.08"/>
<polygon fill="#63b8ff" stroke="#63b8ff" points="194.2,-101.19 187.38,-93.08 187.66,-103.67 194.2,-101.19"/>
</a>
</g>
</g>
<!-- Node23&#45;&gt;Node18 -->
<g id="edge30_Node000023_Node000018" class="edge">
<title>Node23&#45;&gt;Node18</title>
<g id="a_edge30_Node000023_Node000018"><a xlink:title=" ">
<path fill="none" stroke="#63b8ff" d="M195.62,-59.23C205.3,-62.55 215.95,-66.8 224,-73.5 255.14,-99.45 273.29,-145.44 281.03,-165.91"/>
<polygon fill="#63b8ff" stroke="#63b8ff" points="196.63,-55.87 186.04,-56.03 194.42,-62.52 196.63,-55.87"/>
</a>
</g>
</g>
<!-- Node24&#45;&gt;Node18 -->
<g id="edge32_Node000024_Node000018" class="edge">
<title>Node24&#45;&gt;Node18</title>
<g id="a_edge32_Node000024_Node000018"><a xlink:title=" ">
<path fill="none" stroke="#63b8ff" d="M230.58,-326.1C256.23,-294.2 240.74,-269.34 260,-227.5 266.82,-212.68 277.38,-196.44 282.5,-185.29"/>
<polygon fill="#63b8ff" stroke="#63b8ff" points="227.64,-324.13 223.58,-333.92 232.86,-328.8 227.64,-324.13"/>
</a>
</g>
</g>
<!-- Node25&#45;&gt;Node16 -->
<g id="edge34_Node000025_Node000016" class="edge">
<title>Node25&#45;&gt;Node16</title>
<g id="a_edge34_Node000025_Node000016"><a xlink:title=" ">
<path fill="none" stroke="#63b8ff" d="M210.01,-22.34C214.75,-24.01 219.5,-25.75 224,-27.5 319.84,-64.71 431.19,-116.8 475.67,-137.98"/>
<polygon fill="#63b8ff" stroke="#63b8ff" points="210.98,-18.97 200.39,-19.02 208.7,-25.59 210.98,-18.97"/>
</a>
</g>
</g>
<!-- Node26&#45;&gt;Node26 -->
<g id="edge38_Node000026_Node000026" class="edge">
<title>Node26&#45;&gt;Node26</title>
<g id="a_edge38_Node000026_Node000026"><a xlink:title=" ">
<path fill="none" stroke="#63b8ff" d="M190.98,-307.55C189.55,-312.38 182.39,-316 169.5,-316 148.88,-316 142.92,-306.73 151.62,-298.08"/>
<polygon fill="#63b8ff" stroke="#63b8ff" points="194.2,-306.19 187.38,-298.08 187.66,-308.67 194.2,-306.19"/>
</a>
</g>
</g>
<!-- Node27 -->
<g id="Node000027" class="node">
<title>Node27</title>
<g id="a_Node000027"><a xlink:href="ast__run_8c.html#a24d0223822f7b635628199085c3283be" target="_top" xlink:title=" ">
<polygon fill="white" stroke="#666666" points="79,-279 0,-279 0,-260 79,-260 79,-279"/>
<text text-anchor="middle" x="39.5" y="-267" font-family="Helvetica,sans-Serif" font-size="10.00">ast_run_pipe</text>
</a>
</g>
</g>
<!-- Node26&#45;&gt;Node27 -->
<g id="edge36_Node000026_Node000027" class="edge">
<title>Node26&#45;&gt;Node27</title>
<g id="a_edge36_Node000026_Node000027"><a xlink:title=" ">
<path fill="none" stroke="#63b8ff" d="M126.62,-282.28C111.32,-280.01 94.09,-277.45 79.08,-275.23"/>
<polygon fill="#63b8ff" stroke="#63b8ff" points="126.45,-285.8 136.86,-283.8 127.48,-278.87 126.45,-285.8"/>
</a>
</g>
</g>
<!-- Node27&#45;&gt;Node18 -->
<g id="edge37_Node000027_Node000018" class="edge">
<title>Node27&#45;&gt;Node18</title>
<g id="a_edge37_Node000027_Node000018"><a xlink:title=" ">
<path fill="none" stroke="#63b8ff" d="M89.7,-265.99C128.03,-261.65 181.66,-251.99 224,-230.5 246.23,-219.22 266.65,-197.87 277.45,-185.34"/>
<polygon fill="#63b8ff" stroke="#63b8ff" points="88.9,-262.55 79.32,-267.07 89.63,-269.51 88.9,-262.55"/>
</a>
</g>
</g>
<!-- Node28&#45;&gt;Node6 -->
<g id="edge42_Node000028_Node000006" class="edge">
<title>Node28&#45;&gt;Node6</title>
<g id="a_edge42_Node000028_Node000006"><a xlink:title=" ">
<path fill="none" stroke="#63b8ff" d="M1519.27,-270.96C1502.06,-265.8 1482.44,-259.9 1466.41,-255.09"/>
<polygon fill="#63b8ff" stroke="#63b8ff" points="1518.49,-274.39 1529.08,-273.91 1520.51,-267.68 1518.49,-274.39"/>
</a>
</g>
</g>
<!-- Node29&#45;&gt;Node5 -->
<g id="edge45_Node000029_Node000005" class="edge">
<title>Node29&#45;&gt;Node5</title>
<g id="a_edge45_Node000029_Node000005"><a xlink:title=" ">
<path fill="none" stroke="#63b8ff" d="M1921.8,-299.26C1875.23,-295.86 1815.04,-291.46 1770.06,-288.18"/>
<polygon fill="#63b8ff" stroke="#63b8ff" points="1921.6,-302.76 1931.82,-299.99 1922.11,-295.78 1921.6,-302.76"/>
</a>
</g>
</g>
<!-- Node30&#45;&gt;Node5 -->
<g id="edge47_Node000030_Node000005" class="edge">
<title>Node30&#45;&gt;Node5</title>
<g id="a_edge47_Node000030_Node000005"><a xlink:title=" ">
<path fill="none" stroke="#63b8ff" d="M1795.64,-271.67C1787.3,-272.77 1778.62,-273.92 1770.08,-275.04"/>
<polygon fill="#63b8ff" stroke="#63b8ff" points="1796.16,-275.13 1805.62,-270.36 1795.25,-268.19 1796.16,-275.13"/>
</a>
</g>
</g>
<!-- Node31&#45;&gt;Node5 -->
<g id="edge50_Node000031_Node000005" class="edge">
<title>Node31&#45;&gt;Node5</title>
<g id="a_edge50_Node000031_Node000005"><a xlink:title=" ">
<path fill="none" stroke="#63b8ff" d="M1934.94,-226.65C1897.63,-229.57 1848.49,-235.1 1806,-245.5 1777.68,-252.43 1746.48,-265.15 1726.59,-273.96"/>
<polygon fill="#63b8ff" stroke="#63b8ff" points="1935.43,-230.12 1945.14,-225.9 1934.91,-223.14 1935.43,-230.12"/>
</a>
</g>
</g>
<!-- Node32&#45;&gt;Node5 -->
<g id="edge52_Node000032_Node000005" class="edge">
<title>Node32&#45;&gt;Node5</title>
<g id="a_edge52_Node000032_Node000005"><a xlink:title=" ">
<path fill="none" stroke="#63b8ff" d="M2082.7,-453.29C2011.81,-452.78 1893.23,-443.62 1806,-394.5 1760.57,-368.92 1724.83,-315.08 1711.57,-293.13"/>
<polygon fill="#63b8ff" stroke="#63b8ff" points="2082.8,-456.79 2092.81,-453.31 2082.81,-449.79 2082.8,-456.79"/>
</a>
</g>
</g>
</g>
</svg>
