<?xml version="1.0" encoding="UTF-8" standalone="no"?>
<!DOCTYPE svg PUBLIC "-//W3C//DTD SVG 1.1//EN"
 "http://www.w3.org/Graphics/SVG/1.1/DTD/svg11.dtd">
<!-- Generated by graphviz version 2.43.0 (0)
 -->
<!-- Title: parser_prefix Pages: 1 -->
<svg width="1245pt" height="655pt"
 viewBox="0.00 0.00 1245.00 655.03" xmlns="http://www.w3.org/2000/svg" xmlns:xlink="http://www.w3.org/1999/xlink">
<g id="graph0" class="graph" transform="scale(1 1) rotate(0) translate(4 651.03)">
<title>parser_prefix</title>
<!-- Node1 -->
<g id="Node000001" class="node">
<title>Node1</title>
<g id="a_Node000001"><a xlink:title="Handle a prefix in a command: either an assignment or a redirection.">
<polygon fill="#999999" stroke="#666666" points="80,-321 0,-321 0,-302 80,-302 80,-321"/>
<text text-anchor="middle" x="40" y="-309" font-family="Helvetica,sans-Serif" font-size="10.00">parser_prefix</text>
</a>
</g>
</g>
<!-- Node2 -->
<g id="Node000002" class="node">
<title>Node2</title>
<g id="a_Node000002"><a xlink:href="parser__redirections_8c.html#a34130e6d959e97ce9b1c87f1e42973ba" target="_top" xlink:title="Parse a redirection.">
<polygon fill="white" stroke="#666666" points="191,-245 116,-245 116,-226 191,-226 191,-245"/>
<text text-anchor="middle" x="153.5" y="-233" font-family="Helvetica,sans-Serif" font-size="10.00">parser_redir</text>
</a>
</g>
</g>
<!-- Node1&#45;&gt;Node2 -->
<g id="edge1_Node000001_Node000002" class="edge">
<title>Node1&#45;&gt;Node2</title>
<g id="a_edge1_Node000001_Node000002"><a xlink:title=" ">
<path fill="none" stroke="#63b8ff" d="M55.12,-301.87C73.97,-289.03 107.57,-266.12 129.95,-250.87"/>
<polygon fill="#63b8ff" stroke="#63b8ff" points="132.2,-253.57 138.49,-245.05 128.26,-247.79 132.2,-253.57"/>
</a>
</g>
</g>
<!-- Node8 -->
<g id="Node000008" class="node">
<title>Node8</title>
<g id="a_Node000008"><a xlink:href="parser__utils_8c.html#a0f885603168edee811b2b6880a9bf598" target="_top" xlink:title="Peek on the lexer to see the current token.">
<polygon fill="white" stroke="#666666" points="389.5,-340 348.5,-340 348.5,-321 389.5,-321 389.5,-340"/>
<text text-anchor="middle" x="369" y="-328" font-family="Helvetica,sans-Serif" font-size="10.00">peek</text>
</a>
</g>
</g>
<!-- Node1&#45;&gt;Node8 -->
<g id="edge53_Node000001_Node000008" class="edge">
<title>Node1&#45;&gt;Node8</title>
<g id="a_edge53_Node000001_Node000008"><a xlink:title=" ">
<path fill="none" stroke="#63b8ff" d="M80.15,-319.94C91.65,-322.12 104.28,-324.2 116,-325.5 195.89,-334.35 290.88,-333.07 338.16,-331.65"/>
<polygon fill="#63b8ff" stroke="#63b8ff" points="338.44,-335.14 348.32,-331.31 338.21,-328.14 338.44,-335.14"/>
</a>
</g>
</g>
<!-- Node36 -->
<g id="Node000036" class="node">
<title>Node36</title>
<g id="a_Node000036"><a xlink:href="parser__utils_8c.html#a2231147ddff6c3f7ee8c218a9273465e" target="_top" xlink:title="Pop the current token from lex.">
<polygon fill="white" stroke="#666666" points="276.5,-321 241.5,-321 241.5,-302 276.5,-302 276.5,-321"/>
<text text-anchor="middle" x="259" y="-309" font-family="Helvetica,sans-Serif" font-size="10.00">pop</text>
</a>
</g>
</g>
<!-- Node1&#45;&gt;Node36 -->
<g id="edge54_Node000001_Node000036" class="edge">
<title>Node1&#45;&gt;Node36</title>
<g id="a_edge54_Node000001_Node000036"><a xlink:title=" ">
<path fill="none" stroke="#63b8ff" d="M80.05,-311.5C123.69,-311.5 193.21,-311.5 231.14,-311.5"/>
<polygon fill="#63b8ff" stroke="#63b8ff" points="231.4,-315 241.4,-311.5 231.4,-308 231.4,-315"/>
</a>
</g>
</g>
<!-- Node3 -->
<g id="Node000003" class="node">
<title>Node3</title>
<g id="a_Node000003"><a xlink:href="parser__utils_8c.html#a850bf7ce4f8841d46020a022c0ab32fc" target="_top" xlink:title="Free a discarded token.">
<polygon fill="white" stroke="#666666" points="411,-165 327,-165 327,-146 411,-146 411,-165"/>
<text text-anchor="middle" x="369" y="-153" font-family="Helvetica,sans-Serif" font-size="10.00">discard_token</text>
</a>
</g>
</g>
<!-- Node2&#45;&gt;Node3 -->
<g id="edge2_Node000002_Node000003" class="edge">
<title>Node2&#45;&gt;Node3</title>
<g id="a_edge2_Node000002_Node000003"><a xlink:title=" ">
<path fill="none" stroke="#63b8ff" d="M180.25,-225.85C218.43,-211.55 290.12,-184.68 333.02,-168.61"/>
<polygon fill="#63b8ff" stroke="#63b8ff" points="334.35,-171.85 342.49,-165.06 331.9,-165.29 334.35,-171.85"/>
</a>
</g>
</g>
<!-- Node5 -->
<g id="Node000005" class="node">
<title>Node5</title>
<g id="a_Node000005"><a xlink:href="redir_8c.html#a66e1b4443235f9dead4bef79426a867e" target="_top" xlink:title="Free redir struct.">
<polygon fill="white" stroke="#666666" points="291,-132 227,-132 227,-113 291,-113 291,-132"/>
<text text-anchor="middle" x="259" y="-120" font-family="Helvetica,sans-Serif" font-size="10.00">free_redir</text>
</a>
</g>
</g>
<!-- Node2&#45;&gt;Node5 -->
<g id="edge4_Node000002_Node000005" class="edge">
<title>Node2&#45;&gt;Node5</title>
<g id="a_edge4_Node000002_Node000005"><a xlink:title=" ">
<path fill="none" stroke="#63b8ff" d="M160.05,-225.88C171.01,-207.53 196.96,-166.98 227,-140.5 228.11,-139.52 229.28,-138.57 230.49,-137.65"/>
<polygon fill="#63b8ff" stroke="#63b8ff" points="232.49,-140.52 238.84,-132.04 228.58,-134.71 232.49,-140.52"/>
</a>
</g>
</g>
<!-- Node6 -->
<g id="Node000006" class="node">
<title>Node6</title>
<g id="a_Node000006"><a xlink:href="redir_8c.html#aae807d41dfdf4158c698f5eb4cf7aa41" target="_top" xlink:title="Init redir struct.">
<polygon fill="white" stroke="#666666" points="289,-245 229,-245 229,-226 289,-226 289,-245"/>
<text text-anchor="middle" x="259" y="-233" font-family="Helvetica,sans-Serif" font-size="10.00">init_redir</text>
</a>
</g>
</g>
<!-- Node2&#45;&gt;Node6 -->
<g id="edge5_Node000002_Node000006" class="edge">
<title>Node2&#45;&gt;Node6</title>
<g id="a_edge5_Node000002_Node000006"><a xlink:title=" ">
<path fill="none" stroke="#63b8ff" d="M191.28,-235.5C200.14,-235.5 209.63,-235.5 218.6,-235.5"/>
<polygon fill="#63b8ff" stroke="#63b8ff" points="218.81,-239 228.81,-235.5 218.81,-232 218.81,-239"/>
</a>
</g>
</g>
<!-- Node7 -->
<g id="Node000007" class="node">
<title>Node7</title>
<g id="a_Node000007"><a xlink:href="parser__utils_8c.html#ad91e883ddb1e91cde4e34a0f00e009ce" target="_top" xlink:title=" ">
<polygon fill="white" stroke="#666666" points="285.5,-169 232.5,-169 232.5,-150 285.5,-150 285.5,-169"/>
<text text-anchor="middle" x="259" y="-157" font-family="Helvetica,sans-Serif" font-size="10.00">is_redir</text>
</a>
</g>
</g>
<!-- Node2&#45;&gt;Node7 -->
<g id="edge6_Node000002_Node000007" class="edge">
<title>Node2&#45;&gt;Node7</title>
<g id="a_edge6_Node000002_Node000007"><a xlink:title=" ">
<path fill="none" stroke="#63b8ff" d="M167.61,-225.87C185.03,-213.08 216.02,-190.33 236.79,-175.07"/>
<polygon fill="#63b8ff" stroke="#63b8ff" points="239.01,-177.79 245,-169.05 234.87,-172.14 239.01,-177.79"/>
</a>
</g>
</g>
<!-- Node2&#45;&gt;Node8 -->
<g id="edge7_Node000002_Node000008" class="edge">
<title>Node2&#45;&gt;Node8</title>
<g id="a_edge7_Node000002_Node000008"><a xlink:title=" ">
<path fill="none" stroke="#63b8ff" d="M178.86,-245.14C206.32,-256.12 252.2,-274.84 291,-292.5 307.58,-300.05 325.89,-309.05 340.48,-316.4"/>
<polygon fill="#63b8ff" stroke="#63b8ff" points="338.98,-319.56 349.49,-320.95 342.14,-313.32 338.98,-319.56"/>
</a>
</g>
</g>
<!-- Node2&#45;&gt;Node36 -->
<g id="edge51_Node000002_Node000036" class="edge">
<title>Node2&#45;&gt;Node36</title>
<g id="a_edge51_Node000002_Node000036"><a xlink:title=" ">
<path fill="none" stroke="#63b8ff" d="M167.61,-245.13C185.03,-257.92 216.02,-280.67 236.79,-295.93"/>
<polygon fill="#63b8ff" stroke="#63b8ff" points="234.87,-298.86 245,-301.95 239.01,-293.21 234.87,-298.86"/>
</a>
</g>
</g>
<!-- Node4 -->
<g id="Node000004" class="node">
<title>Node4</title>
<g id="a_Node000004"><a xlink:href="token_8c.html#a491cb915cd703d12b24d7c6adc0412cc" target="_top" xlink:title=" ">
<polygon fill="white" stroke="#666666" points="593.5,-58 525.5,-58 525.5,-39 593.5,-39 593.5,-58"/>
<text text-anchor="middle" x="559.5" y="-46" font-family="Helvetica,sans-Serif" font-size="10.00">free_token</text>
</a>
</g>
</g>
<!-- Node3&#45;&gt;Node4 -->
<g id="edge3_Node000003_Node000004" class="edge">
<title>Node3&#45;&gt;Node4</title>
<g id="a_edge3_Node000003_Node000004"><a xlink:title=" ">
<path fill="none" stroke="#63b8ff" d="M387.06,-145.82C420.29,-126.96 493.83,-85.21 532.92,-63.02"/>
<polygon fill="#63b8ff" stroke="#63b8ff" points="534.64,-66.07 541.61,-58.09 531.19,-59.98 534.64,-66.07"/>
</a>
</g>
</g>
<!-- Node9 -->
<g id="Node000009" class="node">
<title>Node9</title>
<g id="a_Node000009"><a xlink:href="lexer_8c.html#ab0a076d4847ef2557a4e8d2e0852092d" target="_top" xlink:title="Transforme le FILE en token.">
<polygon fill="white" stroke="#666666" points="488,-508 447,-508 447,-489 488,-489 488,-508"/>
<text text-anchor="middle" x="467.5" y="-496" font-family="Helvetica,sans-Serif" font-size="10.00">lexer</text>
</a>
</g>
</g>
<!-- Node8&#45;&gt;Node9 -->
<g id="edge8_Node000008_Node000009" class="edge">
<title>Node8&#45;&gt;Node9</title>
<g id="a_edge8_Node000008_Node000009"><a xlink:title=" ">
<path fill="none" stroke="#63b8ff" d="M375.46,-340.01C390.92,-366.92 435.14,-443.9 455.72,-479.73"/>
<polygon fill="#63b8ff" stroke="#63b8ff" points="452.84,-481.74 460.85,-488.67 458.91,-478.26 452.84,-481.74"/>
</a>
</g>
</g>
<!-- Node9&#45;&gt;Node4 -->
<g id="edge11_Node000009_Node000004" class="edge">
<title>Node9&#45;&gt;Node4</title>
<g id="a_edge11_Node000009_Node000004"><a xlink:title=" ">
<path fill="none" stroke="#63b8ff" d="M468.71,-488.85C470.11,-432.49 479.34,-145.95 524,-72.5 525.78,-69.57 528.07,-66.91 530.62,-64.51"/>
<polygon fill="#63b8ff" stroke="#63b8ff" points="533.08,-67.03 538.82,-58.13 528.78,-61.51 533.08,-67.03"/>
</a>
</g>
</g>
<!-- Node10 -->
<g id="Node000010" class="node">
<title>Node10</title>
<g id="a_Node000010"><a xlink:href="lexer__tokens_8c.html#ae59c383936dadf54742b836a5bd2a70b" target="_top" xlink:title=" ">
<polygon fill="white" stroke="#666666" points="1022.5,-95 950.5,-95 950.5,-76 1022.5,-76 1022.5,-95"/>
<text text-anchor="middle" x="986.5" y="-83" font-family="Helvetica,sans-Serif" font-size="10.00">check_type</text>
</a>
</g>
</g>
<!-- Node9&#45;&gt;Node10 -->
<g id="edge9_Node000009_Node000010" class="edge">
<title>Node9&#45;&gt;Node10</title>
<g id="a_edge9_Node000009_Node000010"><a xlink:title=" ">
<path fill="none" stroke="#63b8ff" d="M471.11,-488.96C482.88,-447.38 534.74,-279.74 631,-180.5 680.44,-129.53 703.02,-124.03 771,-103.5 827.63,-86.4 896.25,-83.56 940.37,-83.89"/>
<polygon fill="#63b8ff" stroke="#63b8ff" points="940.45,-87.39 950.49,-84.03 940.54,-80.39 940.45,-87.39"/>
</a>
</g>
</g>
<!-- Node11 -->
<g id="Node000011" class="node">
<title>Node11</title>
<g id="a_Node000011"><a xlink:href="lexer__tokens_8c.html#af41b4fb75a0f3ece50d1c55cf5ad55bd" target="_top" xlink:title=" ">
<polygon fill="white" stroke="#666666" points="593,-620 526,-620 526,-601 593,-601 593,-620"/>
<text text-anchor="middle" x="559.5" y="-608" font-family="Helvetica,sans-Serif" font-size="10.00">end_token</text>
</a>
</g>
</g>
<!-- Node9&#45;&gt;Node11 -->
<g id="edge10_Node000009_Node000011" class="edge">
<title>Node9&#45;&gt;Node11</title>
<g id="a_edge10_Node000009_Node000011"><a xlink:title=" ">
<path fill="none" stroke="#63b8ff" d="M472.11,-508.2C479.4,-526.68 497.47,-567.32 524,-592.5 525.07,-593.52 526.21,-594.49 527.4,-595.42"/>
<polygon fill="#63b8ff" stroke="#63b8ff" points="525.49,-598.36 535.76,-600.96 529.35,-592.52 525.49,-598.36"/>
</a>
</g>
</g>
<!-- Node12 -->
<g id="Node000012" class="node">
<title>Node12</title>
<g id="a_Node000012"><a xlink:href="token_8c.html#a4f0f028b792947862bc2364f30f3d3d2" target="_top" xlink:title="Init struct token.">
<polygon fill="white" stroke="#666666" points="592,-583 527,-583 527,-564 592,-564 592,-583"/>
<text text-anchor="middle" x="559.5" y="-571" font-family="Helvetica,sans-Serif" font-size="10.00">init_token</text>
</a>
</g>
</g>
<!-- Node9&#45;&gt;Node12 -->
<g id="edge12_Node000009_Node000012" class="edge">
<title>Node9&#45;&gt;Node12</title>
<g id="a_edge12_Node000009_Node000012"><a xlink:title=" ">
<path fill="none" stroke="#63b8ff" d="M476.35,-508.3C486.44,-520.46 504.94,-541.32 524,-555.5 525.42,-556.55 526.9,-557.58 528.43,-558.57"/>
<polygon fill="#63b8ff" stroke="#63b8ff" points="527.03,-561.81 537.43,-563.86 530.58,-555.78 527.03,-561.81"/>
</a>
</g>
</g>
<!-- Node13 -->
<g id="Node000013" class="node">
<title>Node13</title>
<g id="a_Node000013"><a xlink:href="lexer__operators_8c.html#a274e606313b69e42745e7278ed244bc8" target="_top" xlink:title="Handle a possible operator.">
<polygon fill="white" stroke="#666666" points="720,-639 646,-639 646,-620 720,-620 720,-639"/>
<text text-anchor="middle" x="683" y="-627" font-family="Helvetica,sans-Serif" font-size="10.00">manage_op</text>
</a>
</g>
</g>
<!-- Node9&#45;&gt;Node13 -->
<g id="edge13_Node000009_Node000013" class="edge">
<title>Node9&#45;&gt;Node13</title>
<g id="a_edge13_Node000009_Node000013"><a xlink:title=" ">
<path fill="none" stroke="#63b8ff" d="M469.17,-508.32C471.49,-533.7 481.58,-601.4 524,-629.5 558.09,-652.08 606.06,-648.36 640.18,-641.32"/>
<polygon fill="#63b8ff" stroke="#63b8ff" points="641.3,-644.65 650.29,-639.05 639.77,-637.82 641.3,-644.65"/>
</a>
</g>
</g>
<!-- Node15 -->
<g id="Node000015" class="node">
<title>Node15</title>
<g id="a_Node000015"><a xlink:href="lexer__operators_8c.html#a0758cae1bae4276754a185e231ad4760" target="_top" xlink:title="Handle different redirections.">
<polygon fill="white" stroke="#666666" points="869,-509 785,-509 785,-490 869,-490 869,-509"/>
<text text-anchor="middle" x="827" y="-497" font-family="Helvetica,sans-Serif" font-size="10.00">manage_redir</text>
</a>
</g>
</g>
<!-- Node9&#45;&gt;Node15 -->
<g id="edge15_Node000009_Node000015" class="edge">
<title>Node9&#45;&gt;Node15</title>
<g id="a_edge15_Node000009_Node000015"><a xlink:title=" ">
<path fill="none" stroke="#63b8ff" d="M488.23,-498.56C542.3,-498.71 694.18,-499.13 774.58,-499.36"/>
<polygon fill="#63b8ff" stroke="#63b8ff" points="774.96,-502.86 784.97,-499.39 774.98,-495.86 774.96,-502.86"/>
</a>
</g>
</g>
<!-- Node16 -->
<g id="Node000016" class="node">
<title>Node16</title>
<g id="a_Node000016"><a xlink:href="lexer_8c.html#a14a1affa5f1ee7d92339872bcd3cc602" target="_top" xlink:title="identique a la fonction lexer">
<polygon fill="white" stroke="#666666" points="595,-432 524,-432 524,-413 595,-413 595,-432"/>
<text text-anchor="middle" x="559.5" y="-420" font-family="Helvetica,sans-Serif" font-size="10.00">sub_switch</text>
</a>
</g>
</g>
<!-- Node9&#45;&gt;Node16 -->
<g id="edge17_Node000009_Node000016" class="edge">
<title>Node9&#45;&gt;Node16</title>
<g id="a_edge17_Node000009_Node000016"><a xlink:title=" ">
<path fill="none" stroke="#63b8ff" d="M479.9,-488.87C494.78,-476.31 521.04,-454.13 539.08,-438.9"/>
<polygon fill="#63b8ff" stroke="#63b8ff" points="541.81,-441.17 547.19,-432.05 537.3,-435.83 541.81,-441.17"/>
</a>
</g>
</g>
<!-- Node33 -->
<g id="Node000033" class="node">
<title>Node33</title>
<g id="a_Node000033"><a xlink:href="lexer__tokens_8c.html#a78b2b413e7059cf4c7579a83bf767d13" target="_top" xlink:title=" ">
<polygon fill="white" stroke="#666666" points="595,-546 524,-546 524,-527 595,-527 595,-546"/>
<text text-anchor="middle" x="559.5" y="-534" font-family="Helvetica,sans-Serif" font-size="10.00">verif_token</text>
</a>
</g>
</g>
<!-- Node9&#45;&gt;Node33 -->
<g id="edge48_Node000009_Node000033" class="edge">
<title>Node9&#45;&gt;Node33</title>
<g id="a_edge48_Node000009_Node000033"><a xlink:title=" ">
<path fill="none" stroke="#63b8ff" d="M488.03,-506.75C499.23,-511.48 513.58,-517.53 526.4,-522.95"/>
<polygon fill="#63b8ff" stroke="#63b8ff" points="525.26,-526.26 535.83,-526.93 527.98,-519.82 525.26,-526.26"/>
</a>
</g>
</g>
<!-- Node14 -->
<g id="Node000014" class="node">
<title>Node14</title>
<g id="a_Node000014"><a xlink:href="dot_8c.html#a36f9e0f75603ec6472a90c595e3bba79" target="_top" xlink:title="Concat path and string with &#39;/&#39; between.">
<polygon fill="white" stroke="#666666" points="1142,-301 1093,-301 1093,-282 1142,-282 1142,-301"/>
<text text-anchor="middle" x="1117.5" y="-289" font-family="Helvetica,sans-Serif" font-size="10.00">concat</text>
</a>
</g>
</g>
<!-- Node13&#45;&gt;Node14 -->
<g id="edge14_Node000013_Node000014" class="edge">
<title>Node13&#45;&gt;Node14</title>
<g id="a_edge14_Node000013_Node000014"><a xlink:title=" ">
<path fill="none" stroke="#63b8ff" d="M720,-628.17C793.55,-623.46 961.87,-602.21 1054,-506.5 1107.23,-451.21 1115.53,-353.32 1116.54,-311.43"/>
<polygon fill="#63b8ff" stroke="#63b8ff" points="1120.04,-311.22 1116.66,-301.18 1113.04,-311.13 1120.04,-311.22"/>
</a>
</g>
</g>
<!-- Node15&#45;&gt;Node14 -->
<g id="edge16_Node000015_Node000014" class="edge">
<title>Node15&#45;&gt;Node14</title>
<g id="a_edge16_Node000015_Node000014"><a xlink:title=" ">
<path fill="none" stroke="#63b8ff" d="M869.21,-507.32C918.66,-514.21 1001.46,-517.52 1054,-475.5 1105.1,-434.64 1114.64,-350.09 1116.27,-311.49"/>
<polygon fill="#63b8ff" stroke="#63b8ff" points="1119.78,-311.18 1116.56,-301.09 1112.78,-310.99 1119.78,-311.18"/>
</a>
</g>
</g>
<!-- Node16&#45;&gt;Node14 -->
<g id="edge18_Node000016_Node000014" class="edge">
<title>Node16&#45;&gt;Node14</title>
<g id="a_edge18_Node000016_Node000014"><a xlink:title=" ">
<path fill="none" stroke="#63b8ff" d="M590.03,-432.02C602.54,-435.64 617.34,-439.39 631,-441.5 723.92,-455.83 977.51,-487.17 1054,-432.5 1094.36,-403.66 1109.03,-342.72 1114.06,-311.25"/>
<polygon fill="#63b8ff" stroke="#63b8ff" points="1117.57,-311.49 1115.51,-301.1 1110.64,-310.5 1117.57,-311.49"/>
</a>
</g>
</g>
<!-- Node17 -->
<g id="Node000017" class="node">
<title>Node17</title>
<g id="a_Node000017"><a xlink:href="lexer__handlers_8c.html#aaf817088d95d074a2d4e6bfce7799723" target="_top" xlink:title=" ">
<polygon fill="white" stroke="#666666" points="721,-432 645,-432 645,-413 721,-413 721,-432"/>
<text text-anchor="middle" x="683" y="-420" font-family="Helvetica,sans-Serif" font-size="10.00">handle_com</text>
</a>
</g>
</g>
<!-- Node16&#45;&gt;Node17 -->
<g id="edge19_Node000016_Node000017" class="edge">
<title>Node16&#45;&gt;Node17</title>
<g id="a_edge19_Node000016_Node000017"><a xlink:title=" ">
<path fill="none" stroke="#63b8ff" d="M595.32,-422.5C607.49,-422.5 621.37,-422.5 634.41,-422.5"/>
<polygon fill="#63b8ff" stroke="#63b8ff" points="634.63,-426 644.63,-422.5 634.63,-419 634.63,-426"/>
</a>
</g>
</g>
<!-- Node18 -->
<g id="Node000018" class="node">
<title>Node18</title>
<g id="a_Node000018"><a xlink:href="lexer__handlers_8c.html#aa76e470a78c6e91c7db6cce558b1a768" target="_top" xlink:title=" ">
<polygon fill="white" stroke="#666666" points="724.5,-395 641.5,-395 641.5,-376 724.5,-376 724.5,-395"/>
<text text-anchor="middle" x="683" y="-383" font-family="Helvetica,sans-Serif" font-size="10.00">handle_quote</text>
</a>
</g>
</g>
<!-- Node16&#45;&gt;Node18 -->
<g id="edge21_Node000016_Node000018" class="edge">
<title>Node16&#45;&gt;Node18</title>
<g id="a_edge21_Node000016_Node000018"><a xlink:title=" ">
<path fill="none" stroke="#63b8ff" d="M591.79,-412.97C606.7,-408.43 624.72,-402.94 640.73,-398.07"/>
<polygon fill="#63b8ff" stroke="#63b8ff" points="641.85,-401.39 650.39,-395.12 639.81,-394.69 641.85,-401.39"/>
</a>
</g>
</g>
<!-- Node19 -->
<g id="Node000019" class="node">
<title>Node19</title>
<g id="a_Node000019"><a xlink:href="lexer_8c.html#a65b9b0626e01e0653ddcae13e7c6a709" target="_top" xlink:title="Gestion des délimiteurs.">
<polygon fill="white" stroke="#666666" points="735,-209 631,-209 631,-190 735,-190 735,-209"/>
<text text-anchor="middle" x="683" y="-197" font-family="Helvetica,sans-Serif" font-size="10.00">sub_switch_delim</text>
</a>
</g>
</g>
<!-- Node16&#45;&gt;Node19 -->
<g id="edge23_Node000016_Node000019" class="edge">
<title>Node16&#45;&gt;Node19</title>
<g id="a_edge23_Node000016_Node000019"><a xlink:title=" ">
<path fill="none" stroke="#63b8ff" d="M565.72,-412.92C584.26,-378.89 647.13,-263.5 671.87,-218.08"/>
<polygon fill="#63b8ff" stroke="#63b8ff" points="675.09,-219.5 676.8,-209.05 668.94,-216.15 675.09,-219.5"/>
</a>
</g>
</g>
<!-- Node17&#45;&gt;Node14 -->
<g id="edge20_Node000017_Node000014" class="edge">
<title>Node17&#45;&gt;Node14</title>
<g id="a_edge20_Node000017_Node000014"><a xlink:title=" ">
<path fill="none" stroke="#63b8ff" d="M721.27,-430.63C792.1,-443.94 948.47,-462.79 1054,-397.5 1085.65,-377.92 1103.17,-335.9 1111.13,-311.05"/>
<polygon fill="#63b8ff" stroke="#63b8ff" points="1114.54,-311.85 1114.05,-301.27 1107.84,-309.85 1114.54,-311.85"/>
</a>
</g>
</g>
<!-- Node18&#45;&gt;Node14 -->
<g id="edge22_Node000018_Node000014" class="edge">
<title>Node18&#45;&gt;Node14</title>
<g id="a_edge22_Node000018_Node000014"><a xlink:title=" ">
<path fill="none" stroke="#63b8ff" d="M724.68,-393.28C795.75,-404.79 945.29,-419.59 1054,-365.5 1078.01,-353.55 1096.36,-327.78 1106.78,-310.03"/>
<polygon fill="#63b8ff" stroke="#63b8ff" points="1109.93,-311.58 1111.74,-301.14 1103.82,-308.17 1109.93,-311.58"/>
</a>
</g>
</g>
<!-- Node19&#45;&gt;Node10 -->
<g id="edge24_Node000019_Node000010" class="edge">
<title>Node19&#45;&gt;Node10</title>
<g id="a_edge24_Node000019_Node000010"><a xlink:title=" ">
<path fill="none" stroke="#63b8ff" d="M696.27,-189.85C712.51,-177.5 742.44,-156.19 771,-143.5 826.93,-118.66 895.91,-102.33 940.29,-93.51"/>
<polygon fill="#63b8ff" stroke="#63b8ff" points="941.05,-96.92 950.2,-91.58 939.72,-90.05 941.05,-96.92"/>
</a>
</g>
</g>
<!-- Node20 -->
<g id="Node000020" class="node">
<title>Node20</title>
<g id="a_Node000020"><a xlink:href="lexer__handlers_8c.html#a9cdc56179aaccddb64447a4d56698992" target="_top" xlink:title=" ">
<polygon fill="white" stroke="#666666" points="879,-172 775,-172 775,-153 879,-153 879,-172"/>
<text text-anchor="middle" x="827" y="-160" font-family="Helvetica,sans-Serif" font-size="10.00">handle_backslash</text>
</a>
</g>
</g>
<!-- Node19&#45;&gt;Node20 -->
<g id="edge25_Node000019_Node000020" class="edge">
<title>Node19&#45;&gt;Node20</title>
<g id="a_edge25_Node000019_Node000020"><a xlink:title=" ">
<path fill="none" stroke="#63b8ff" d="M720.57,-189.97C738.48,-185.3 760.26,-179.63 779.35,-174.65"/>
<polygon fill="#63b8ff" stroke="#63b8ff" points="780.27,-178.03 789.06,-172.12 778.5,-171.26 780.27,-178.03"/>
</a>
</g>
</g>
<!-- Node21 -->
<g id="Node000021" class="node">
<title>Node21</title>
<g id="a_Node000021"><a xlink:href="lexer__handlers_8c.html#a8c5df02ee3ff790dc6256318b3dd132f" target="_top" xlink:title="Crée un token de type OPENING_BRACKET ou CLOSING_BRACKET si possible.">
<polygon fill="white" stroke="#666666" points="872.5,-320 781.5,-320 781.5,-301 872.5,-301 872.5,-320"/>
<text text-anchor="middle" x="827" y="-308" font-family="Helvetica,sans-Serif" font-size="10.00">handle_bracket</text>
</a>
</g>
</g>
<!-- Node19&#45;&gt;Node21 -->
<g id="edge27_Node000019_Node000021" class="edge">
<title>Node19&#45;&gt;Node21</title>
<g id="a_edge27_Node000019_Node000021"><a xlink:title=" ">
<path fill="none" stroke="#63b8ff" d="M696.6,-209.35C721.19,-228.57 775.76,-271.23 805.58,-294.53"/>
<polygon fill="#63b8ff" stroke="#63b8ff" points="803.6,-297.43 813.63,-300.83 807.91,-291.91 803.6,-297.43"/>
</a>
</g>
</g>
<!-- Node24 -->
<g id="Node000024" class="node">
<title>Node24</title>
<g id="a_Node000024"><a xlink:href="lexer__handlers_8c.html#a579ccaa49e18cca908ce2409b06b5825" target="_top" xlink:title=" ">
<polygon fill="white" stroke="#666666" points="876.5,-246 777.5,-246 777.5,-227 876.5,-227 876.5,-246"/>
<text text-anchor="middle" x="827" y="-234" font-family="Helvetica,sans-Serif" font-size="10.00">handle_delimiter</text>
</a>
</g>
</g>
<!-- Node19&#45;&gt;Node24 -->
<g id="edge32_Node000019_Node000024" class="edge">
<title>Node19&#45;&gt;Node24</title>
<g id="a_edge32_Node000019_Node000024"><a xlink:title=" ">
<path fill="none" stroke="#63b8ff" d="M720.57,-209.03C738.48,-213.7 760.26,-219.37 779.35,-224.35"/>
<polygon fill="#63b8ff" stroke="#63b8ff" points="778.5,-227.74 789.06,-226.88 780.27,-220.97 778.5,-227.74"/>
</a>
</g>
</g>
<!-- Node28 -->
<g id="Node000028" class="node">
<title>Node28</title>
<g id="a_Node000028"><a xlink:href="lexer__handlers_8c.html#a3122df83e320b8f4658097885f266c59" target="_top" xlink:title="Crée un token de type FUNCTION si possible.">
<polygon fill="white" stroke="#666666" points="883,-209 771,-209 771,-190 883,-190 883,-209"/>
<text text-anchor="middle" x="827" y="-197" font-family="Helvetica,sans-Serif" font-size="10.00">handle_parenthesis</text>
</a>
</g>
</g>
<!-- Node19&#45;&gt;Node28 -->
<g id="edge39_Node000019_Node000028" class="edge">
<title>Node19&#45;&gt;Node28</title>
<g id="a_edge39_Node000019_Node000028"><a xlink:title=" ">
<path fill="none" stroke="#63b8ff" d="M735.27,-199.5C743.6,-199.5 752.33,-199.5 760.95,-199.5"/>
<polygon fill="#63b8ff" stroke="#63b8ff" points="760.97,-203 770.97,-199.5 760.97,-196 760.97,-203"/>
</a>
</g>
</g>
<!-- Node29 -->
<g id="Node000029" class="node">
<title>Node29</title>
<g id="a_Node000029"><a xlink:href="lexer_8c.html#a55722ded9ba13bad6ac777b3d0f13481" target="_top" xlink:title="Gestion des opérateurs.">
<polygon fill="white" stroke="#666666" points="871,-58 783,-58 783,-39 871,-39 871,-58"/>
<text text-anchor="middle" x="827" y="-46" font-family="Helvetica,sans-Serif" font-size="10.00">sub_switch_op</text>
</a>
</g>
</g>
<!-- Node19&#45;&gt;Node29 -->
<g id="edge41_Node000019_Node000029" class="edge">
<title>Node19&#45;&gt;Node29</title>
<g id="a_edge41_Node000019_Node000029"><a xlink:title=" ">
<path fill="none" stroke="#63b8ff" d="M693.32,-189.59C716.99,-164.42 779.7,-97.73 809.64,-65.89"/>
<polygon fill="#63b8ff" stroke="#63b8ff" points="812.53,-67.93 816.83,-58.25 807.43,-63.13 812.53,-67.93"/>
</a>
</g>
</g>
<!-- Node20&#45;&gt;Node14 -->
<g id="edge26_Node000020_Node000014" class="edge">
<title>Node20&#45;&gt;Node14</title>
<g id="a_edge26_Node000020_Node000014"><a xlink:title=" ">
<path fill="none" stroke="#63b8ff" d="M858.57,-152.99C904.79,-140.58 993.49,-124.58 1054,-162.5 1092.52,-186.64 1107.89,-242.01 1113.53,-271.75"/>
<polygon fill="#63b8ff" stroke="#63b8ff" points="1110.11,-272.51 1115.25,-281.77 1117.01,-271.33 1110.11,-272.51"/>
</a>
</g>
</g>
<!-- Node22 -->
<g id="Node000022" class="node">
<title>Node22</title>
<g id="a_Node000022"><a xlink:href="lexer__handlers_8c.html#af0bc509a05ea8f1f639745c3db1edff0" target="_top" xlink:title=" ">
<polygon fill="white" stroke="#666666" points="1052,-320 921,-320 921,-301 1052,-301 1052,-320"/>
<text text-anchor="middle" x="986.5" y="-308" font-family="Helvetica,sans-Serif" font-size="10.00">handle_closing_bracket</text>
</a>
</g>
</g>
<!-- Node21&#45;&gt;Node22 -->
<g id="edge28_Node000021_Node000022" class="edge">
<title>Node21&#45;&gt;Node22</title>
<g id="a_edge28_Node000021_Node000022"><a xlink:title=" ">
<path fill="none" stroke="#63b8ff" d="M872.71,-310.5C884.55,-310.5 897.66,-310.5 910.64,-310.5"/>
<polygon fill="#63b8ff" stroke="#63b8ff" points="910.98,-314 920.98,-310.5 910.98,-307 910.98,-314"/>
</a>
</g>
</g>
<!-- Node23 -->
<g id="Node000023" class="node">
<title>Node23</title>
<g id="a_Node000023"><a xlink:href="lexer__handlers_8c.html#ac6741237800ed58a7ea25d1b02c4ada3" target="_top" xlink:title=" ">
<polygon fill="white" stroke="#666666" points="1054,-357 919,-357 919,-338 1054,-338 1054,-357"/>
<text text-anchor="middle" x="986.5" y="-345" font-family="Helvetica,sans-Serif" font-size="10.00">handle_opening_bracket</text>
</a>
</g>
</g>
<!-- Node21&#45;&gt;Node23 -->
<g id="edge30_Node000021_Node000023" class="edge">
<title>Node21&#45;&gt;Node23</title>
<g id="a_edge30_Node000021_Node000023"><a xlink:title=" ">
<path fill="none" stroke="#63b8ff" d="M868.56,-320.03C888.78,-324.78 913.44,-330.57 934.88,-335.61"/>
<polygon fill="#63b8ff" stroke="#63b8ff" points="934.27,-339.06 944.8,-337.94 935.87,-332.25 934.27,-339.06"/>
</a>
</g>
</g>
<!-- Node22&#45;&gt;Node14 -->
<g id="edge29_Node000022_Node000014" class="edge">
<title>Node22&#45;&gt;Node14</title>
<g id="a_edge29_Node000022_Node000014"><a xlink:title=" ">
<path fill="none" stroke="#63b8ff" d="M1052.38,-300.94C1062.86,-299.4 1073.33,-297.86 1082.68,-296.48"/>
<polygon fill="#63b8ff" stroke="#63b8ff" points="1083.32,-299.92 1092.7,-295 1082.3,-293 1083.32,-299.92"/>
</a>
</g>
</g>
<!-- Node23&#45;&gt;Node14 -->
<g id="edge31_Node000023_Node000014" class="edge">
<title>Node23&#45;&gt;Node14</title>
<g id="a_edge31_Node000023_Node000014"><a xlink:title=" ">
<path fill="none" stroke="#63b8ff" d="M1027.11,-337.98C1036.11,-335.33 1045.51,-332.15 1054,-328.5 1067.89,-322.52 1082.49,-314.02 1094.07,-306.68"/>
<polygon fill="#63b8ff" stroke="#63b8ff" points="1096.17,-309.49 1102.65,-301.11 1092.36,-303.62 1096.17,-309.49"/>
</a>
</g>
</g>
<!-- Node25 -->
<g id="Node000025" class="node">
<title>Node25</title>
<g id="a_Node000025"><a xlink:href="lexer__handlers_8c.html#a2ed09a62089d61b6a2928dcbcc623e7f" target="_top" xlink:title=" ">
<polygon fill="white" stroke="#666666" points="1027.5,-209 945.5,-209 945.5,-190 1027.5,-190 1027.5,-209"/>
<text text-anchor="middle" x="986.5" y="-197" font-family="Helvetica,sans-Serif" font-size="10.00">handle_blank</text>
</a>
</g>
</g>
<!-- Node24&#45;&gt;Node25 -->
<g id="edge33_Node000024_Node000025" class="edge">
<title>Node24&#45;&gt;Node25</title>
<g id="a_edge33_Node000024_Node000025"><a xlink:title=" ">
<path fill="none" stroke="#63b8ff" d="M868.56,-226.97C888.94,-222.18 913.82,-216.34 935.39,-211.27"/>
<polygon fill="#63b8ff" stroke="#63b8ff" points="936.42,-214.63 945.35,-208.93 934.81,-207.81 936.42,-214.63"/>
</a>
</g>
</g>
<!-- Node26 -->
<g id="Node000026" class="node">
<title>Node26</title>
<g id="a_Node000026"><a xlink:href="lexer__handlers_8c.html#aa69ff9b0e657615d22e4220657378e92" target="_top" xlink:title=" ">
<polygon fill="white" stroke="#666666" points="1033,-283 940,-283 940,-264 1033,-264 1033,-283"/>
<text text-anchor="middle" x="986.5" y="-271" font-family="Helvetica,sans-Serif" font-size="10.00">handle_newline</text>
</a>
</g>
</g>
<!-- Node24&#45;&gt;Node26 -->
<g id="edge35_Node000024_Node000026" class="edge">
<title>Node24&#45;&gt;Node26</title>
<g id="a_edge35_Node000024_Node000026"><a xlink:title=" ">
<path fill="none" stroke="#63b8ff" d="M868.56,-246.03C888.78,-250.78 913.44,-256.57 934.88,-261.61"/>
<polygon fill="#63b8ff" stroke="#63b8ff" points="934.27,-265.06 944.8,-263.94 935.87,-258.25 934.27,-265.06"/>
</a>
</g>
</g>
<!-- Node27 -->
<g id="Node000027" class="node">
<title>Node27</title>
<g id="a_Node000027"><a xlink:href="lexer__handlers_8c.html#afa8aa1a23dd8c155bcfb4145f2099aaf" target="_top" xlink:title=" ">
<polygon fill="white" stroke="#666666" points="1039,-246 934,-246 934,-227 1039,-227 1039,-246"/>
<text text-anchor="middle" x="986.5" y="-234" font-family="Helvetica,sans-Serif" font-size="10.00">handle_semicolon</text>
</a>
</g>
</g>
<!-- Node24&#45;&gt;Node27 -->
<g id="edge37_Node000024_Node000027" class="edge">
<title>Node24&#45;&gt;Node27</title>
<g id="a_edge37_Node000024_Node000027"><a xlink:title=" ">
<path fill="none" stroke="#63b8ff" d="M876.54,-236.5C891.44,-236.5 908.05,-236.5 923.71,-236.5"/>
<polygon fill="#63b8ff" stroke="#63b8ff" points="923.84,-240 933.84,-236.5 923.84,-233 923.84,-240"/>
</a>
</g>
</g>
<!-- Node25&#45;&gt;Node14 -->
<g id="edge34_Node000025_Node000014" class="edge">
<title>Node25&#45;&gt;Node14</title>
<g id="a_edge34_Node000025_Node000014"><a xlink:title=" ">
<path fill="none" stroke="#63b8ff" d="M1027.83,-206.24C1036.88,-208.86 1046.13,-212.49 1054,-217.5 1076.18,-231.62 1094.57,-256.09 1105.54,-273"/>
<polygon fill="#63b8ff" stroke="#63b8ff" points="1102.85,-275.31 1111.11,-281.95 1108.8,-271.61 1102.85,-275.31"/>
</a>
</g>
</g>
<!-- Node26&#45;&gt;Node14 -->
<g id="edge36_Node000026_Node000014" class="edge">
<title>Node26&#45;&gt;Node14</title>
<g id="a_edge36_Node000026_Node000014"><a xlink:title=" ">
<path fill="none" stroke="#63b8ff" d="M1033.34,-279.9C1049.7,-282.18 1067.81,-284.71 1082.94,-286.82"/>
<polygon fill="#63b8ff" stroke="#63b8ff" points="1082.5,-290.29 1092.88,-288.2 1083.46,-283.36 1082.5,-290.29"/>
</a>
</g>
</g>
<!-- Node27&#45;&gt;Node14 -->
<g id="edge38_Node000027_Node000014" class="edge">
<title>Node27&#45;&gt;Node14</title>
<g id="a_edge38_Node000027_Node000014"><a xlink:title=" ">
<path fill="none" stroke="#63b8ff" d="M1029.59,-246.04C1037.82,-248.42 1046.29,-251.24 1054,-254.5 1067.93,-260.38 1082.53,-268.87 1094.11,-276.24"/>
<polygon fill="#63b8ff" stroke="#63b8ff" points="1092.39,-279.3 1102.68,-281.83 1096.22,-273.44 1092.39,-279.3"/>
</a>
</g>
</g>
<!-- Node28&#45;&gt;Node14 -->
<g id="edge40_Node000028_Node000014" class="edge">
<title>Node28&#45;&gt;Node14</title>
<g id="a_edge40_Node000028_Node000014"><a xlink:title=" ">
<path fill="none" stroke="#63b8ff" d="M864.92,-189.99C881.35,-186.23 901.02,-182.36 919,-180.5 978.68,-174.34 1002.2,-150.22 1054,-180.5 1087.75,-200.23 1104.69,-245.63 1111.94,-271.85"/>
<polygon fill="#63b8ff" stroke="#63b8ff" points="1108.61,-272.95 1114.48,-281.78 1115.39,-271.22 1108.61,-272.95"/>
</a>
</g>
</g>
<!-- Node29&#45;&gt;Node10 -->
<g id="edge42_Node000029_Node000010" class="edge">
<title>Node29&#45;&gt;Node10</title>
<g id="a_edge42_Node000029_Node000010"><a xlink:title=" ">
<path fill="none" stroke="#63b8ff" d="M868.56,-58.03C890.63,-63.21 917.99,-69.64 940.69,-74.97"/>
<polygon fill="#63b8ff" stroke="#63b8ff" points="939.89,-78.38 950.43,-77.26 941.49,-71.57 939.89,-78.38"/>
</a>
</g>
</g>
<!-- Node29&#45;&gt;Node14 -->
<g id="edge43_Node000029_Node000014" class="edge">
<title>Node29&#45;&gt;Node14</title>
<g id="a_edge43_Node000029_Node000014"><a xlink:title=" ">
<path fill="none" stroke="#63b8ff" d="M869.03,-38.97C918.68,-30.03 1002.08,-23.67 1054,-66.5 1086.14,-93 1106.95,-221.93 1113.91,-271.78"/>
<polygon fill="#63b8ff" stroke="#63b8ff" points="1110.47,-272.46 1115.29,-281.9 1117.41,-271.52 1110.47,-272.46"/>
</a>
</g>
</g>
<!-- Node30 -->
<g id="Node000030" class="node">
<title>Node30</title>
<g id="a_Node000030"><a xlink:href="lexer__handlers_8c.html#a1320ab2067e73a5de0d576175ad3d363" target="_top" xlink:title=" ">
<polygon fill="white" stroke="#666666" points="1013.5,-19 959.5,-19 959.5,0 1013.5,0 1013.5,-19"/>
<text text-anchor="middle" x="986.5" y="-7" font-family="Helvetica,sans-Serif" font-size="10.00">new_op</text>
</a>
</g>
</g>
<!-- Node29&#45;&gt;Node30 -->
<g id="edge44_Node000029_Node000030" class="edge">
<title>Node29&#45;&gt;Node30</title>
<g id="a_edge44_Node000029_Node000030"><a xlink:title=" ">
<path fill="none" stroke="#63b8ff" d="M866.53,-38.96C891.82,-32.7 924.68,-24.56 949.46,-18.42"/>
<polygon fill="#63b8ff" stroke="#63b8ff" points="950.33,-21.81 959.2,-16.01 948.65,-15.02 950.33,-21.81"/>
</a>
</g>
</g>
<!-- Node30&#45;&gt;Node14 -->
<g id="edge45_Node000030_Node000014" class="edge">
<title>Node30&#45;&gt;Node14</title>
<g id="a_edge45_Node000030_Node000014"><a xlink:title=" ">
<path fill="none" stroke="#63b8ff" d="M1013.54,-12.87C1027.4,-15.99 1043.67,-21.99 1054,-33.5 1086.1,-69.3 1107.39,-218.14 1114.17,-271.97"/>
<polygon fill="#63b8ff" stroke="#63b8ff" points="1110.7,-272.44 1115.4,-281.94 1117.65,-271.58 1110.7,-272.44"/>
</a>
</g>
</g>
<!-- Node31 -->
<g id="Node000031" class="node">
<title>Node31</title>
<g id="a_Node000031"><a xlink:href="lexer__utils_8c.html#ad3b801c5fcc7cb2d760cb161bf5038a0" target="_top" xlink:title=" ">
<polygon fill="white" stroke="#666666" points="1145,-19 1090,-19 1090,0 1145,0 1145,-19"/>
<text text-anchor="middle" x="1117.5" y="-7" font-family="Helvetica,sans-Serif" font-size="10.00">valid_io</text>
</a>
</g>
</g>
<!-- Node30&#45;&gt;Node31 -->
<g id="edge46_Node000030_Node000031" class="edge">
<title>Node30&#45;&gt;Node31</title>
<g id="a_edge46_Node000030_Node000031"><a xlink:title=" ">
<path fill="none" stroke="#63b8ff" d="M1013.61,-9.5C1032.63,-9.5 1058.65,-9.5 1079.77,-9.5"/>
<polygon fill="#63b8ff" stroke="#63b8ff" points="1079.99,-13 1089.99,-9.5 1079.99,-6 1079.99,-13"/>
</a>
</g>
</g>
<!-- Node32 -->
<g id="Node000032" class="node">
<title>Node32</title>
<g id="a_Node000032"><a xlink:href="lexer__utils_8c.html#a8fa30988b9ccc705850dfee0220bf34a" target="_top" xlink:title=" ">
<polygon fill="white" stroke="#666666" points="1237,-19 1181,-19 1181,0 1237,0 1237,-19"/>
<text text-anchor="middle" x="1209" y="-7" font-family="Helvetica,sans-Serif" font-size="10.00">all_digit</text>
</a>
</g>
</g>
<!-- Node31&#45;&gt;Node32 -->
<g id="edge47_Node000031_Node000032" class="edge">
<title>Node31&#45;&gt;Node32</title>
<g id="a_edge47_Node000031_Node000032"><a xlink:title=" ">
<path fill="none" stroke="#63b8ff" d="M1145.35,-9.5C1153.33,-9.5 1162.22,-9.5 1170.74,-9.5"/>
<polygon fill="#63b8ff" stroke="#63b8ff" points="1170.86,-13 1180.86,-9.5 1170.86,-6 1170.86,-13"/>
</a>
</g>
</g>
<!-- Node34 -->
<g id="Node000034" class="node">
<title>Node34</title>
<g id="a_Node000034"><a xlink:href="lexer__tokens_8c.html#ab8c1bbfef4c1716c7557658824823316" target="_top" xlink:title=" ">
<polygon fill="white" stroke="#666666" points="724.5,-546 641.5,-546 641.5,-527 724.5,-527 724.5,-546"/>
<text text-anchor="middle" x="683" y="-534" font-family="Helvetica,sans-Serif" font-size="10.00">verif_token_if</text>
</a>
</g>
</g>
<!-- Node33&#45;&gt;Node34 -->
<g id="edge49_Node000033_Node000034" class="edge">
<title>Node33&#45;&gt;Node34</title>
<g id="a_edge49_Node000033_Node000034"><a xlink:title=" ">
<path fill="none" stroke="#63b8ff" d="M595.32,-536.5C606.38,-536.5 618.86,-536.5 630.83,-536.5"/>
<polygon fill="#63b8ff" stroke="#63b8ff" points="631.16,-540 641.16,-536.5 631.16,-533 631.16,-540"/>
</a>
</g>
</g>
<!-- Node35 -->
<g id="Node000035" class="node">
<title>Node35</title>
<g id="a_Node000035"><a xlink:href="lexer__tokens_8c.html#a74242b2210e1f957abbecfde13ff30d4" target="_top" xlink:title=" ">
<polygon fill="white" stroke="#666666" points="732,-583 634,-583 634,-564 732,-564 732,-583"/>
<text text-anchor="middle" x="683" y="-571" font-family="Helvetica,sans-Serif" font-size="10.00">verif_token_loop</text>
</a>
</g>
</g>
<!-- Node33&#45;&gt;Node35 -->
<g id="edge50_Node000033_Node000035" class="edge">
<title>Node33&#45;&gt;Node35</title>
<g id="a_edge50_Node000033_Node000035"><a xlink:title=" ">
<path fill="none" stroke="#63b8ff" d="M591.79,-546.03C606.7,-550.57 624.72,-556.06 640.73,-560.93"/>
<polygon fill="#63b8ff" stroke="#63b8ff" points="639.81,-564.31 650.39,-563.88 641.85,-557.61 639.81,-564.31"/>
</a>
</g>
</g>
<!-- Node36&#45;&gt;Node8 -->
<g id="edge52_Node000036_Node000008" class="edge">
<title>Node36&#45;&gt;Node8</title>
<g id="a_edge52_Node000036_Node000008"><a xlink:title=" ">
<path fill="none" stroke="#63b8ff" d="M276.88,-314.47C293.27,-317.35 318.51,-321.79 338.27,-325.27"/>
<polygon fill="#63b8ff" stroke="#63b8ff" points="337.86,-328.75 348.32,-327.04 339.07,-321.86 337.86,-328.75"/>
</a>
</g>
</g>
</g>
</svg>
