<?xml version="1.0" encoding="UTF-8" standalone="no"?>
<!DOCTYPE svg PUBLIC "-//W3C//DTD SVG 1.1//EN"
 "http://www.w3.org/Graphics/SVG/1.1/DTD/svg11.dtd">
<!-- Generated by graphviz version 2.43.0 (0)
 -->
<!-- Title: is_redir Pages: 1 -->
<svg width="2301pt" height="633pt"
 viewBox="0.00 0.00 2301.00 633.00" xmlns="http://www.w3.org/2000/svg" xmlns:xlink="http://www.w3.org/1999/xlink">
<g id="graph0" class="graph" transform="scale(1 1) rotate(0) translate(4 629)">
<title>is_redir</title>
<!-- Node1 -->
<g id="Node000001" class="node">
<title>Node1</title>
<g id="a_Node000001"><a xlink:title=" ">
<polygon fill="#999999" stroke="#666666" points="2293,-95 2240,-95 2240,-76 2293,-76 2293,-95"/>
<text text-anchor="middle" x="2266.5" y="-83" font-family="Helvetica,sans-Serif" font-size="10.00">is_redir</text>
</a>
</g>
</g>
<!-- Node2 -->
<g id="Node000002" class="node">
<title>Node2</title>
<g id="a_Node000002"><a xlink:href="parser__redirections_8c.html#a3c820cbe7e06249f3a043137fafe26e7" target="_top" xlink:title="Handle an element in a command: either a word or a redirection.">
<polygon fill="white" stroke="#666666" points="2093,-170 2000,-170 2000,-151 2093,-151 2093,-170"/>
<text text-anchor="middle" x="2046.5" y="-158" font-family="Helvetica,sans-Serif" font-size="10.00">parser_element</text>
</a>
</g>
</g>
<!-- Node1&#45;&gt;Node2 -->
<g id="edge1_Node000001_Node000002" class="edge">
<title>Node1&#45;&gt;Node2</title>
<g id="a_edge1_Node000001_Node000002"><a xlink:title=" ">
<path fill="none" stroke="#63b8ff" d="M2251.89,-103.11C2240.6,-116.33 2223.31,-133.62 2204,-142.5 2169.09,-158.55 2125.36,-162.41 2093,-162.62"/>
<polygon fill="#63b8ff" stroke="#63b8ff" points="2254.79,-105.09 2258.41,-95.14 2249.37,-100.66 2254.79,-105.09"/>
</a>
</g>
</g>
<!-- Node3 -->
<g id="Node000003" class="node">
<title>Node3</title>
<g id="a_Node000003"><a xlink:href="parser__commands_8c.html#a8de59a4400a37b3e42d6475270cd5425" target="_top" xlink:title="Group words in a command in order to form a list of commands.">
<polygon fill="white" stroke="#666666" points="1964,-152 1824,-152 1824,-133 1964,-133 1964,-152"/>
<text text-anchor="middle" x="1894" y="-140" font-family="Helvetica,sans-Serif" font-size="10.00">parser_simple_command</text>
</a>
</g>
</g>
<!-- Node1&#45;&gt;Node3 -->
<g id="edge63_Node000001_Node000003" class="edge">
<title>Node1&#45;&gt;Node3</title>
<g id="a_edge63_Node000001_Node000003"><a xlink:title=" ">
<path fill="none" stroke="#63b8ff" d="M2229.66,-84.96C2178.24,-84.88 2080.81,-87.33 2000,-104.5 1970.04,-110.87 1937.06,-123.85 1916.21,-132.86"/>
<polygon fill="#63b8ff" stroke="#63b8ff" points="2229.9,-88.46 2239.92,-85.01 2229.93,-81.46 2229.9,-88.46"/>
</a>
</g>
</g>
<!-- Node11 -->
<g id="Node000011" class="node">
<title>Node11</title>
<g id="a_Node000011"><a xlink:href="parser__commands_8c.html#ad98fbb958a265134e775b69579e28835" target="_top" xlink:title="Handle a shell command block by calling corresponding parser at each step.">
<polygon fill="white" stroke="#666666" points="815,-181 685,-181 685,-162 815,-162 815,-181"/>
<text text-anchor="middle" x="750" y="-169" font-family="Helvetica,sans-Serif" font-size="10.00">parser_shell_command</text>
</a>
</g>
</g>
<!-- Node1&#45;&gt;Node11 -->
<g id="edge62_Node000001_Node000011" class="edge">
<title>Node1&#45;&gt;Node11</title>
<g id="a_edge62_Node000001_Node000011"><a xlink:title=" ">
<path fill="none" stroke="#63b8ff" d="M2230.24,-75.49C2187.41,-64.23 2112.76,-47.5 2047.5,-47.5 2047.5,-47.5 2047.5,-47.5 1038.5,-47.5 952.37,-47.5 928.57,-59.07 851,-96.5 814.45,-114.14 777.94,-146.03 760.91,-161.94"/>
<polygon fill="#63b8ff" stroke="#63b8ff" points="2229.35,-78.88 2239.91,-78.08 2231.16,-72.11 2229.35,-78.88"/>
</a>
</g>
</g>
<!-- Node36 -->
<g id="Node000036" class="node">
<title>Node36</title>
<g id="a_Node000036"><a xlink:href="parser__redirections_8c.html#a34130e6d959e97ce9b1c87f1e42973ba" target="_top" xlink:title="Parse a redirection.">
<polygon fill="white" stroke="#666666" points="2204,-133 2129,-133 2129,-114 2204,-114 2204,-133"/>
<text text-anchor="middle" x="2166.5" y="-121" font-family="Helvetica,sans-Serif" font-size="10.00">parser_redir</text>
</a>
</g>
</g>
<!-- Node1&#45;&gt;Node36 -->
<g id="edge56_Node000001_Node000036" class="edge">
<title>Node1&#45;&gt;Node36</title>
<g id="a_edge56_Node000001_Node000036"><a xlink:title=" ">
<path fill="none" stroke="#63b8ff" d="M2231.29,-98.76C2218.43,-103.75 2204.06,-109.32 2192.22,-113.91"/>
<polygon fill="#63b8ff" stroke="#63b8ff" points="2232.71,-101.97 2240.77,-95.09 2230.18,-95.44 2232.71,-101.97"/>
</a>
</g>
</g>
<!-- Node38 -->
<g id="Node000038" class="node">
<title>Node38</title>
<g id="a_Node000038"><a xlink:href="parser__redirections_8c.html#af22cbfc55d87c3c1c175bb34c8973359" target="_top" xlink:title="Parse a redirection in a shell command context.">
<polygon fill="white" stroke="#666666" points="1946,-19 1842,-19 1842,0 1946,0 1946,-19"/>
<text text-anchor="middle" x="1894" y="-7" font-family="Helvetica,sans-Serif" font-size="10.00">parser_redir_shell</text>
</a>
</g>
</g>
<!-- Node1&#45;&gt;Node38 -->
<g id="edge60_Node000001_Node000038" class="edge">
<title>Node1&#45;&gt;Node38</title>
<g id="a_edge60_Node000001_Node000038"><a xlink:title=" ">
<path fill="none" stroke="#63b8ff" d="M2250.55,-68.08C2239.13,-56.08 2222.29,-41.01 2204,-33.5 2118.76,1.51 2009.29,0.42 1946.15,-4.14"/>
<polygon fill="#63b8ff" stroke="#63b8ff" points="2248.22,-70.72 2257.54,-75.76 2253.4,-66.01 2248.22,-70.72"/>
</a>
</g>
</g>
<!-- Node2&#45;&gt;Node3 -->
<g id="edge2_Node000002_Node000003" class="edge">
<title>Node2&#45;&gt;Node3</title>
<g id="a_edge2_Node000002_Node000003"><a xlink:title=" ">
<path fill="none" stroke="#63b8ff" d="M1989.87,-153.85C1981.45,-152.84 1972.68,-151.79 1964.02,-150.75"/>
<polygon fill="#63b8ff" stroke="#63b8ff" points="1989.59,-157.34 1999.94,-155.05 1990.42,-150.39 1989.59,-157.34"/>
</a>
</g>
</g>
<!-- Node4 -->
<g id="Node000004" class="node">
<title>Node4</title>
<g id="a_Node000004"><a xlink:href="parser__commands_8c.html#aa7191f56bd8e70874c5c381e52186807" target="_top" xlink:title="Parse a command which can be either a simple command or a shell command.">
<polygon fill="white" stroke="#666666" points="1788,-390 1687,-390 1687,-371 1788,-371 1788,-390"/>
<text text-anchor="middle" x="1737.5" y="-378" font-family="Helvetica,sans-Serif" font-size="10.00">parser_command</text>
</a>
</g>
</g>
<!-- Node3&#45;&gt;Node4 -->
<g id="edge3_Node000003_Node000004" class="edge">
<title>Node3&#45;&gt;Node4</title>
<g id="a_edge3_Node000003_Node000004"><a xlink:title=" ">
<path fill="none" stroke="#63b8ff" d="M1881.14,-160.77C1850.28,-208.32 1768.25,-334.68 1744.83,-370.76"/>
<polygon fill="#63b8ff" stroke="#63b8ff" points="1884.24,-162.42 1886.75,-152.12 1878.37,-158.61 1884.24,-162.42"/>
</a>
</g>
</g>
<!-- Node5 -->
<g id="Node000005" class="node">
<title>Node5</title>
<g id="a_Node000005"><a xlink:href="parser__pipelines_8c.html#a06068cdf8924fb28f414f419d84a5eae" target="_top" xlink:title="Parse and_or blocks separated by &#39;|&#39; (pipes)">
<polygon fill="white" stroke="#666666" points="1651,-409 1559,-409 1559,-390 1651,-390 1651,-409"/>
<text text-anchor="middle" x="1605" y="-397" font-family="Helvetica,sans-Serif" font-size="10.00">parser_pipeline</text>
</a>
</g>
</g>
<!-- Node4&#45;&gt;Node5 -->
<g id="edge4_Node000004_Node000005" class="edge">
<title>Node4&#45;&gt;Node5</title>
<g id="a_edge4_Node000004_Node000005"><a xlink:title=" ">
<path fill="none" stroke="#63b8ff" d="M1676.81,-389.19C1668.23,-390.44 1659.53,-391.71 1651.29,-392.91"/>
<polygon fill="#63b8ff" stroke="#63b8ff" points="1677.4,-392.64 1686.79,-387.74 1676.39,-385.71 1677.4,-392.64"/>
</a>
</g>
</g>
<!-- Node6 -->
<g id="Node000006" class="node">
<title>Node6</title>
<g id="a_Node000006"><a xlink:href="parser__pipelines_8c.html#a85ca4872d7efdb8b0cd643037ccd5763" target="_top" xlink:title="Parse and_or blocks separated by &#39;&amp;&amp;&#39; or &#39;||&#39;.">
<polygon fill="white" stroke="#666666" points="1523,-409 1437,-409 1437,-390 1523,-390 1523,-409"/>
<text text-anchor="middle" x="1480" y="-397" font-family="Helvetica,sans-Serif" font-size="10.00">parser_and_or</text>
</a>
</g>
</g>
<!-- Node5&#45;&gt;Node6 -->
<g id="edge5_Node000005_Node000006" class="edge">
<title>Node5&#45;&gt;Node6</title>
<g id="a_edge5_Node000005_Node000006"><a xlink:title=" ">
<path fill="none" stroke="#63b8ff" d="M1548.62,-399.5C1540.1,-399.5 1531.41,-399.5 1523.24,-399.5"/>
<polygon fill="#63b8ff" stroke="#63b8ff" points="1548.9,-403 1558.9,-399.5 1548.9,-396 1548.9,-403"/>
</a>
</g>
</g>
<!-- Node7 -->
<g id="Node000007" class="node">
<title>Node7</title>
<g id="a_Node000007"><a xlink:href="parser__lists_8c.html#aae7a5d6760b83c1a37b0369f82a20500" target="_top" xlink:title="Absorb a chain of and_or separeted by &#39;;&#39; or &#39; &#39;.">
<polygon fill="white" stroke="#666666" points="1401,-238 1277,-238 1277,-219 1401,-219 1401,-238"/>
<text text-anchor="middle" x="1339" y="-226" font-family="Helvetica,sans-Serif" font-size="10.00">parser_compound_list</text>
</a>
</g>
</g>
<!-- Node6&#45;&gt;Node7 -->
<g id="edge6_Node000006_Node000007" class="edge">
<title>Node6&#45;&gt;Node7</title>
<g id="a_edge6_Node000006_Node000007"><a xlink:title=" ">
<path fill="none" stroke="#63b8ff" d="M1464.53,-381.69C1435.32,-345.77 1370.23,-265.69 1347.79,-238.08"/>
<polygon fill="#63b8ff" stroke="#63b8ff" points="1462.1,-384.26 1471.13,-389.82 1467.54,-379.85 1462.1,-384.26"/>
</a>
</g>
</g>
<!-- Node17 -->
<g id="Node000017" class="node">
<title>Node17</title>
<g id="a_Node000017"><a xlink:href="parser__lists_8c.html#a7b9812922acfb4eba24e65d40bd99001" target="_top" xlink:title="Parse list block into sub and_or block(s) separated by semi&#45;colons.">
<polygon fill="white" stroke="#666666" points="1373,-409 1305,-409 1305,-390 1373,-390 1373,-409"/>
<text text-anchor="middle" x="1339" y="-397" font-family="Helvetica,sans-Serif" font-size="10.00">parser_list</text>
</a>
</g>
</g>
<!-- Node6&#45;&gt;Node17 -->
<g id="edge25_Node000006_Node000017" class="edge">
<title>Node6&#45;&gt;Node17</title>
<g id="a_edge25_Node000006_Node000017"><a xlink:title=" ">
<path fill="none" stroke="#63b8ff" d="M1426.84,-399.5C1408.83,-399.5 1389.17,-399.5 1373.12,-399.5"/>
<polygon fill="#63b8ff" stroke="#63b8ff" points="1426.92,-403 1436.92,-399.5 1426.92,-396 1426.92,-403"/>
</a>
</g>
</g>
<!-- Node8 -->
<g id="Node000008" class="node">
<title>Node8</title>
<g id="a_Node000008"><a xlink:href="parser__rules_8c.html#a799f84e24df3eff653f7c0696e348572" target="_top" xlink:title="Parse an elif block when called.">
<polygon fill="white" stroke="#666666" points="1223.5,-333 1155.5,-333 1155.5,-314 1223.5,-314 1223.5,-333"/>
<text text-anchor="middle" x="1189.5" y="-321" font-family="Helvetica,sans-Serif" font-size="10.00">parser_elif</text>
</a>
</g>
</g>
<!-- Node7&#45;&gt;Node8 -->
<g id="edge7_Node000007_Node000008" class="edge">
<title>Node7&#45;&gt;Node8</title>
<g id="a_edge7_Node000007_Node000008"><a xlink:title=" ">
<path fill="none" stroke="#63b8ff" d="M1318.31,-244.62C1299.23,-259.83 1269.13,-282.72 1241,-299.5 1232.08,-304.82 1221.79,-309.89 1212.84,-313.98"/>
<polygon fill="#63b8ff" stroke="#63b8ff" points="1320.66,-247.23 1326.26,-238.23 1316.27,-241.77 1320.66,-247.23"/>
</a>
</g>
</g>
<!-- Node9 -->
<g id="Node000009" class="node">
<title>Node9</title>
<g id="a_Node000009"><a xlink:href="parser__rules_8c.html#adf5258219dad4f79fdbc7786eb925699" target="_top" xlink:title="Define which parser to use depending on the context.">
<polygon fill="white" stroke="#666666" points="1094.5,-314 984.5,-314 984.5,-295 1094.5,-295 1094.5,-314"/>
<text text-anchor="middle" x="1039.5" y="-302" font-family="Helvetica,sans-Serif" font-size="10.00">parser_else_clause</text>
</a>
</g>
</g>
<!-- Node7&#45;&gt;Node9 -->
<g id="edge15_Node000007_Node000009" class="edge">
<title>Node7&#45;&gt;Node9</title>
<g id="a_edge15_Node000007_Node000009"><a xlink:title=" ">
<path fill="none" stroke="#63b8ff" d="M1303.31,-241.4C1284.95,-247.95 1261.93,-255.72 1241,-261.5 1191.42,-275.2 1133.93,-287.14 1093.25,-294.93"/>
<polygon fill="#63b8ff" stroke="#63b8ff" points="1304.5,-244.69 1312.72,-238 1302.13,-238.1 1304.5,-244.69"/>
</a>
</g>
</g>
<!-- Node10 -->
<g id="Node000010" class="node">
<title>Node10</title>
<g id="a_Node000010"><a xlink:href="parser__rules_8c.html#abf9e27d14e7a1c314285114bead78817" target="_top" xlink:title="Handle a &#39;if&#39; block by calling corresponding parser at each step.">
<polygon fill="white" stroke="#666666" points="937.5,-257 854.5,-257 854.5,-238 937.5,-238 937.5,-257"/>
<text text-anchor="middle" x="896" y="-245" font-family="Helvetica,sans-Serif" font-size="10.00">parser_rule_if</text>
</a>
</g>
</g>
<!-- Node7&#45;&gt;Node10 -->
<g id="edge20_Node000007_Node000010" class="edge">
<title>Node7&#45;&gt;Node10</title>
<g id="a_edge20_Node000007_Node000010"><a xlink:title=" ">
<path fill="none" stroke="#63b8ff" d="M1266.8,-232.26C1258.11,-232.69 1249.35,-233.11 1241,-233.5 1131.29,-238.56 1001.84,-243.57 937.52,-245.99"/>
<polygon fill="#63b8ff" stroke="#63b8ff" points="1267.14,-235.75 1276.95,-231.75 1266.78,-228.75 1267.14,-235.75"/>
</a>
</g>
</g>
<!-- Node13 -->
<g id="Node000013" class="node">
<title>Node13</title>
<g id="a_Node000013"><a xlink:href="parser__rules_8c.html#afb9701776de31af668314b48a0b54636" target="_top" xlink:title="Handle a command block enclosed in brackets.">
<polygon fill="white" stroke="#666666" points="1102,-105.5 977,-105.5 977,-75.5 1102,-75.5 1102,-105.5"/>
<text text-anchor="start" x="985" y="-93.5" font-family="Helvetica,sans-Serif" font-size="10.00">parser_rule_command</text>
<text text-anchor="middle" x="1039.5" y="-82.5" font-family="Helvetica,sans-Serif" font-size="10.00">_block</text>
</a>
</g>
</g>
<!-- Node7&#45;&gt;Node13 -->
<g id="edge16_Node000007_Node000013" class="edge">
<title>Node7&#45;&gt;Node13</title>
<g id="a_edge16_Node000007_Node000013"><a xlink:title=" ">
<path fill="none" stroke="#63b8ff" d="M1328.11,-209.78C1313.12,-183.53 1282.02,-136.51 1241,-114.5 1198.52,-91.71 1143.83,-86.48 1102.31,-86.52"/>
<polygon fill="#63b8ff" stroke="#63b8ff" points="1325.15,-211.67 1333.05,-218.74 1331.28,-208.29 1325.15,-211.67"/>
</a>
</g>
</g>
<!-- Node14 -->
<g id="Node000014" class="node">
<title>Node14</title>
<g id="a_Node000014"><a xlink:href="parser__rules_8c.html#a55dc38591d3749d39ca3f38f8a2a26dd" target="_top" xlink:title="Handle a for block by calling corresponding parser at each step.">
<polygon fill="white" stroke="#666666" points="941,-219 851,-219 851,-200 941,-200 941,-219"/>
<text text-anchor="middle" x="896" y="-207" font-family="Helvetica,sans-Serif" font-size="10.00">parser_rule_for</text>
</a>
</g>
</g>
<!-- Node7&#45;&gt;Node14 -->
<g id="edge18_Node000007_Node000014" class="edge">
<title>Node7&#45;&gt;Node14</title>
<g id="a_edge18_Node000007_Node000014"><a xlink:title=" ">
<path fill="none" stroke="#63b8ff" d="M1266.62,-225.42C1174.61,-221.46 1017.43,-214.69 941.14,-211.4"/>
<polygon fill="#63b8ff" stroke="#63b8ff" points="1266.54,-228.92 1276.68,-225.86 1266.84,-221.93 1266.54,-228.92"/>
</a>
</g>
</g>
<!-- Node15 -->
<g id="Node000015" class="node">
<title>Node15</title>
<g id="a_Node000015"><a xlink:href="parser__rules_8c.html#abf1c3edda1bb73d8c86028687922ce95" target="_top" xlink:title="Handle a &#39;until&#39; block by calling corresponding parser at each step.">
<polygon fill="white" stroke="#666666" points="1088.5,-181 990.5,-181 990.5,-162 1088.5,-162 1088.5,-181"/>
<text text-anchor="middle" x="1039.5" y="-169" font-family="Helvetica,sans-Serif" font-size="10.00">parser_rule_until</text>
</a>
</g>
</g>
<!-- Node7&#45;&gt;Node15 -->
<g id="edge21_Node000007_Node000015" class="edge">
<title>Node7&#45;&gt;Node15</title>
<g id="a_edge21_Node000007_Node000015"><a xlink:title=" ">
<path fill="none" stroke="#63b8ff" d="M1305.03,-215.37C1286.49,-208.47 1262.76,-200.45 1241,-195.5 1189.72,-183.84 1129.7,-177.61 1088.78,-174.44"/>
<polygon fill="#63b8ff" stroke="#63b8ff" points="1303.89,-218.68 1314.48,-218.95 1306.37,-212.13 1303.89,-218.68"/>
</a>
</g>
</g>
<!-- Node16 -->
<g id="Node000016" class="node">
<title>Node16</title>
<g id="a_Node000016"><a xlink:href="parser__rules_8c.html#aa6719ad356821f03ad45b1ac0a57d3bd" target="_top" xlink:title="Handle a &#39;while&#39; block by calling corresponding parser at each step.">
<polygon fill="white" stroke="#666666" points="1241,-143 1138,-143 1138,-124 1241,-124 1241,-143"/>
<text text-anchor="middle" x="1189.5" y="-131" font-family="Helvetica,sans-Serif" font-size="10.00">parser_rule_while</text>
</a>
</g>
</g>
<!-- Node7&#45;&gt;Node16 -->
<g id="edge23_Node000007_Node000016" class="edge">
<title>Node7&#45;&gt;Node16</title>
<g id="a_edge23_Node000007_Node000016"><a xlink:title=" ">
<path fill="none" stroke="#63b8ff" d="M1318.31,-212.38C1299.23,-197.17 1269.13,-174.28 1241,-157.5 1232.08,-152.18 1221.79,-147.11 1212.84,-143.02"/>
<polygon fill="#63b8ff" stroke="#63b8ff" points="1316.27,-215.23 1326.26,-218.77 1320.66,-209.77 1316.27,-215.23"/>
</a>
</g>
</g>
<!-- Node8&#45;&gt;Node9 -->
<g id="edge8_Node000008_Node000009" class="edge">
<title>Node8&#45;&gt;Node9</title>
<g id="a_edge8_Node000008_Node000009"><a xlink:title=" ">
<path fill="none" stroke="#63b8ff" d="M1147.54,-312.13C1131.22,-309.36 1112.2,-306.78 1094.76,-304.93"/>
<polygon fill="#63b8ff" stroke="#63b8ff" points="1147.37,-315.65 1157.83,-313.97 1148.61,-308.76 1147.37,-315.65"/>
</a>
</g>
</g>
<!-- Node9&#45;&gt;Node8 -->
<g id="edge9_Node000009_Node000008" class="edge">
<title>Node9&#45;&gt;Node8</title>
<g id="a_edge9_Node000009_Node000008"><a xlink:title=" ">
<path fill="none" stroke="#63b8ff" d="M1081.03,-315.8C1104.36,-319.77 1133.31,-323.37 1155.29,-324.98"/>
<polygon fill="#63b8ff" stroke="#63b8ff" points="1081.54,-312.33 1071.08,-314.01 1080.31,-319.22 1081.54,-312.33"/>
</a>
</g>
</g>
<!-- Node9&#45;&gt;Node10 -->
<g id="edge10_Node000009_Node000010" class="edge">
<title>Node9&#45;&gt;Node10</title>
<g id="a_edge10_Node000009_Node000010"><a xlink:title=" ">
<path fill="none" stroke="#63b8ff" d="M1005.38,-291.16C979.43,-280.7 943.95,-266.41 920.76,-257.07"/>
<polygon fill="#63b8ff" stroke="#63b8ff" points="1004.23,-294.47 1014.82,-294.96 1006.85,-287.98 1004.23,-294.47"/>
</a>
</g>
</g>
<!-- Node10&#45;&gt;Node11 -->
<g id="edge11_Node000010_Node000011" class="edge">
<title>Node10&#45;&gt;Node11</title>
<g id="a_edge11_Node000010_Node000011"><a xlink:title=" ">
<path fill="none" stroke="#63b8ff" d="M862.17,-233.8C858.37,-232.08 854.58,-230.29 851,-228.5 820.42,-213.24 786.08,-192.94 766.64,-181.13"/>
<polygon fill="#63b8ff" stroke="#63b8ff" points="860.93,-237.08 871.49,-237.92 863.76,-230.67 860.93,-237.08"/>
</a>
</g>
</g>
<!-- Node11&#45;&gt;Node4 -->
<g id="edge12_Node000011_Node000004" class="edge">
<title>Node11&#45;&gt;Node4</title>
<g id="a_edge12_Node000011_Node000004"><a xlink:title=" ">
<path fill="none" stroke="#63b8ff" d="M764.61,-189.29C802.45,-236.53 914.29,-361.5 1038.5,-361.5 1481,-361.5 1481,-361.5 1481,-361.5 1552.61,-361.5 1635.21,-369.01 1686.64,-374.59"/>
<polygon fill="#63b8ff" stroke="#63b8ff" points="767.17,-186.88 758.24,-181.18 761.67,-191.21 767.17,-186.88"/>
</a>
</g>
</g>
<!-- Node12 -->
<g id="Node000012" class="node">
<title>Node12</title>
<g id="a_Node000012"><a xlink:href="parser__commands_8c.html#a14408e6904da17fc6899bba03f7a5f5a" target="_top" xlink:title="Handle a function definition and add it to the dictionnary.">
<polygon fill="white" stroke="#666666" points="649,-314 565,-314 565,-295 649,-295 649,-314"/>
<text text-anchor="middle" x="607" y="-302" font-family="Helvetica,sans-Serif" font-size="10.00">parser_fundef</text>
</a>
</g>
</g>
<!-- Node11&#45;&gt;Node12 -->
<g id="edge13_Node000011_Node000012" class="edge">
<title>Node11&#45;&gt;Node12</title>
<g id="a_edge13_Node000011_Node000012"><a xlink:title=" ">
<path fill="none" stroke="#63b8ff" d="M731.3,-188.2C701.54,-216.27 642.38,-272.07 618.43,-294.66"/>
<polygon fill="#63b8ff" stroke="#63b8ff" points="733.99,-190.47 738.86,-181.07 729.18,-185.38 733.99,-190.47"/>
</a>
</g>
</g>
<!-- Node12&#45;&gt;Node4 -->
<g id="edge14_Node000012_Node000004" class="edge">
<title>Node12&#45;&gt;Node4</title>
<g id="a_edge14_Node000012_Node000004"><a xlink:title=" ">
<path fill="none" stroke="#63b8ff" d="M627.01,-320.48C671.07,-355.82 784.82,-437.5 895,-437.5 1481,-437.5 1481,-437.5 1481,-437.5 1557.03,-437.5 1577.62,-438.39 1651,-418.5 1675.61,-411.83 1702.2,-399.05 1719.07,-390.16"/>
<polygon fill="#63b8ff" stroke="#63b8ff" points="629.11,-317.67 619.15,-314.07 624.69,-323.1 629.11,-317.67"/>
</a>
</g>
</g>
<!-- Node13&#45;&gt;Node11 -->
<g id="edge17_Node000013_Node000011" class="edge">
<title>Node13&#45;&gt;Node11</title>
<g id="a_edge17_Node000013_Node000011"><a xlink:title=" ">
<path fill="none" stroke="#63b8ff" d="M966.68,-96.07C931.22,-100.2 888.18,-107.32 851,-119.5 818.83,-130.04 784.47,-150.08 765.57,-161.97"/>
<polygon fill="#63b8ff" stroke="#63b8ff" points="967.4,-99.51 976.95,-94.93 966.62,-92.55 967.4,-99.51"/>
</a>
</g>
</g>
<!-- Node14&#45;&gt;Node11 -->
<g id="edge19_Node000014_Node000011" class="edge">
<title>Node14&#45;&gt;Node11</title>
<g id="a_edge19_Node000014_Node000011"><a xlink:title=" ">
<path fill="none" stroke="#63b8ff" d="M848.83,-197.32C828.84,-192.04 805.78,-185.96 787.08,-181.02"/>
<polygon fill="#63b8ff" stroke="#63b8ff" points="848.1,-200.74 858.66,-199.91 849.89,-193.98 848.1,-200.74"/>
</a>
</g>
</g>
<!-- Node15&#45;&gt;Node11 -->
<g id="edge22_Node000015_Node000011" class="edge">
<title>Node15&#45;&gt;Node11</title>
<g id="a_edge22_Node000015_Node000011"><a xlink:title=" ">
<path fill="none" stroke="#63b8ff" d="M980.18,-171.5C932.31,-171.5 864.61,-171.5 815.21,-171.5"/>
<polygon fill="#63b8ff" stroke="#63b8ff" points="980.38,-175 990.38,-171.5 980.38,-168 980.38,-175"/>
</a>
</g>
</g>
<!-- Node16&#45;&gt;Node11 -->
<g id="edge24_Node000016_Node000011" class="edge">
<title>Node16&#45;&gt;Node11</title>
<g id="a_edge24_Node000016_Node000011"><a xlink:title=" ">
<path fill="none" stroke="#63b8ff" d="M1127.69,-138.78C1045.43,-145.93 899.33,-158.62 815.3,-165.92"/>
<polygon fill="#63b8ff" stroke="#63b8ff" points="1128.23,-142.25 1137.89,-137.9 1127.62,-135.27 1128.23,-142.25"/>
</a>
</g>
</g>
<!-- Node18 -->
<g id="Node000018" class="node">
<title>Node18</title>
<g id="a_Node000018"><a xlink:href="parser_8c.html#a620dffcc9a167cdee6e67de1191e5277" target="_top" xlink:title="Parse the input of our shell into list.">
<polygon fill="white" stroke="#666666" points="1213,-504 1166,-504 1166,-485 1213,-485 1213,-504"/>
<text text-anchor="middle" x="1189.5" y="-492" font-family="Helvetica,sans-Serif" font-size="10.00">parser</text>
</a>
</g>
</g>
<!-- Node17&#45;&gt;Node18 -->
<g id="edge26_Node000017_Node000018" class="edge">
<title>Node17&#45;&gt;Node18</title>
<g id="a_edge26_Node000017_Node000018"><a xlink:title=" ">
<path fill="none" stroke="#63b8ff" d="M1314.29,-414.77C1283.63,-434.52 1231.14,-468.32 1205.49,-484.84"/>
<polygon fill="#63b8ff" stroke="#63b8ff" points="1316.53,-417.49 1323.05,-409.13 1312.74,-411.6 1316.53,-417.49"/>
</a>
</g>
</g>
<!-- Node19 -->
<g id="Node000019" class="node">
<title>Node19</title>
<g id="a_Node000019"><a xlink:href="42sh_8c.html#a3c04138a5bfe5d72780bb7e82a18e627" target="_top" xlink:title=" ">
<polygon fill="white" stroke="#666666" points="190,-625 149,-625 149,-606 190,-606 190,-625"/>
<text text-anchor="middle" x="169.5" y="-613" font-family="Helvetica,sans-Serif" font-size="10.00">main</text>
</a>
</g>
</g>
<!-- Node18&#45;&gt;Node19 -->
<g id="edge27_Node000018_Node000019" class="edge">
<title>Node18&#45;&gt;Node19</title>
<g id="a_edge27_Node000018_Node000019"><a xlink:title=" ">
<path fill="none" stroke="#63b8ff" d="M1166.49,-509.71C1119.36,-540.76 1004.24,-608.5 897,-608.5 897,-608.5 897,-608.5 387.5,-608.5 314.75,-608.5 228.36,-612.48 190.24,-614.44"/>
<polygon fill="#63b8ff" stroke="#63b8ff" points="1168.63,-512.5 1174.99,-504.02 1164.73,-506.68 1168.63,-512.5"/>
</a>
</g>
</g>
<!-- Node20 -->
<g id="Node000020" class="node">
<title>Node20</title>
<g id="a_Node000020"><a xlink:href="dot_8c.html#a17477ee2b0f1b8b9306566c990d15b35" target="_top" xlink:title="Main loop of dot builtin.">
<polygon fill="white" stroke="#666666" points="1073.5,-504 1005.5,-504 1005.5,-485 1073.5,-485 1073.5,-504"/>
<text text-anchor="middle" x="1039.5" y="-492" font-family="Helvetica,sans-Serif" font-size="10.00">main_loop</text>
</a>
</g>
</g>
<!-- Node18&#45;&gt;Node20 -->
<g id="edge28_Node000018_Node000020" class="edge">
<title>Node18&#45;&gt;Node20</title>
<g id="a_edge28_Node000018_Node000020"><a xlink:title=" ">
<path fill="none" stroke="#63b8ff" d="M1155.52,-494.5C1131.18,-494.5 1098.18,-494.5 1073.77,-494.5"/>
<polygon fill="#63b8ff" stroke="#63b8ff" points="1155.7,-498 1165.7,-494.5 1155.7,-491 1155.7,-498"/>
</a>
</g>
</g>
<!-- Node21 -->
<g id="Node000021" class="node">
<title>Node21</title>
<g id="a_Node000021"><a xlink:href="dot_8c.html#a713938d3c6ee343132c429642048bcf6" target="_top" xlink:title="Execute the dot builtin cmd.">
<polygon fill="white" stroke="#666666" points="918,-523 874,-523 874,-504 918,-504 918,-523"/>
<text text-anchor="middle" x="896" y="-511" font-family="Helvetica,sans-Serif" font-size="10.00">dot_b</text>
</a>
</g>
</g>
<!-- Node20&#45;&gt;Node21 -->
<g id="edge29_Node000020_Node000021" class="edge">
<title>Node20&#45;&gt;Node21</title>
<g id="a_edge29_Node000020_Node000021"><a xlink:title=" ">
<path fill="none" stroke="#63b8ff" d="M995.12,-500.32C969.56,-503.76 938.37,-507.95 918.11,-510.66"/>
<polygon fill="#63b8ff" stroke="#63b8ff" points="995.88,-503.75 1005.32,-498.95 994.95,-496.82 995.88,-503.75"/>
</a>
</g>
</g>
<!-- Node22 -->
<g id="Node000022" class="node">
<title>Node22</title>
<g id="a_Node000022"><a xlink:href="exec_8c.html#abaeb177587c7eec6a064b35bb8399cae" target="_top" xlink:title="Execute builtin cmd with given args.">
<polygon fill="white" stroke="#666666" points="787.5,-523 712.5,-523 712.5,-504 787.5,-504 787.5,-523"/>
<text text-anchor="middle" x="750" y="-511" font-family="Helvetica,sans-Serif" font-size="10.00">exec_builtin</text>
</a>
</g>
</g>
<!-- Node21&#45;&gt;Node22 -->
<g id="edge30_Node000021_Node000022" class="edge">
<title>Node21&#45;&gt;Node22</title>
<g id="a_edge30_Node000021_Node000022"><a xlink:title=" ">
<path fill="none" stroke="#63b8ff" d="M863.47,-513.5C841.14,-513.5 811.12,-513.5 787.71,-513.5"/>
<polygon fill="#63b8ff" stroke="#63b8ff" points="863.75,-517 873.75,-513.5 863.75,-510 863.75,-517"/>
</a>
</g>
</g>
<!-- Node23 -->
<g id="Node000023" class="node">
<title>Node23</title>
<g id="a_Node000023"><a xlink:href="exec_8c.html#a287d81b4658832f192750310e2925917" target="_top" xlink:title="Execute the builtin command with given args.">
<polygon fill="white" stroke="#666666" points="632,-523 582,-523 582,-504 632,-504 632,-523"/>
<text text-anchor="middle" x="607" y="-511" font-family="Helvetica,sans-Serif" font-size="10.00">exec_b</text>
</a>
</g>
</g>
<!-- Node22&#45;&gt;Node23 -->
<g id="edge31_Node000022_Node000023" class="edge">
<title>Node22&#45;&gt;Node23</title>
<g id="a_edge31_Node000022_Node000023"><a xlink:title=" ">
<path fill="none" stroke="#63b8ff" d="M702.2,-513.5C678.72,-513.5 651.28,-513.5 632.09,-513.5"/>
<polygon fill="#63b8ff" stroke="#63b8ff" points="702.32,-517 712.32,-513.5 702.32,-510 702.32,-517"/>
</a>
</g>
</g>
<!-- Node24 -->
<g id="Node000024" class="node">
<title>Node24</title>
<g id="a_Node000024"><a xlink:href="exec_8c.html#ae65edaa99b26b49d60c451157d38b34a" target="_top" xlink:title="Execute les commandes avec les args donnes.">
<polygon fill="white" stroke="#666666" points="529,-523 464,-523 464,-504 529,-504 529,-523"/>
<text text-anchor="middle" x="496.5" y="-511" font-family="Helvetica,sans-Serif" font-size="10.00">exec_cmd</text>
</a>
</g>
</g>
<!-- Node23&#45;&gt;Node24 -->
<g id="edge32_Node000023_Node000024" class="edge">
<title>Node23&#45;&gt;Node24</title>
<g id="a_edge32_Node000023_Node000024"><a xlink:title=" ">
<path fill="none" stroke="#63b8ff" d="M571.56,-513.5C558.03,-513.5 542.6,-513.5 529.34,-513.5"/>
<polygon fill="#63b8ff" stroke="#63b8ff" points="571.92,-517 581.92,-513.5 571.92,-510 571.92,-517"/>
</a>
</g>
</g>
<!-- Node25 -->
<g id="Node000025" class="node">
<title>Node25</title>
<g id="a_Node000025"><a xlink:href="ast__run_8c.html#aeb6878a59c6907e5669fc3cc428913d9" target="_top" xlink:title=" ">
<polygon fill="white" stroke="#666666" points="428,-523 349,-523 349,-504 428,-504 428,-523"/>
<text text-anchor="middle" x="388.5" y="-511" font-family="Helvetica,sans-Serif" font-size="10.00">ast_run_cmd</text>
</a>
</g>
</g>
<!-- Node24&#45;&gt;Node25 -->
<g id="edge33_Node000024_Node000025" class="edge">
<title>Node24&#45;&gt;Node25</title>
<g id="a_edge33_Node000024_Node000025"><a xlink:title=" ">
<path fill="none" stroke="#63b8ff" d="M453.92,-513.5C445.45,-513.5 436.58,-513.5 428.21,-513.5"/>
<polygon fill="#63b8ff" stroke="#63b8ff" points="453.98,-517 463.98,-513.5 453.98,-510 453.98,-517"/>
</a>
</g>
</g>
<!-- Node26 -->
<g id="Node000026" class="node">
<title>Node26</title>
<g id="a_Node000026"><a xlink:href="ast_8c.html#a572345b2707780bbbc5bbaacdca9c372" target="_top" xlink:title=" ">
<polygon fill="white" stroke="#666666" points="313,-459 260,-459 260,-440 313,-440 313,-459"/>
<text text-anchor="middle" x="286.5" y="-447" font-family="Helvetica,sans-Serif" font-size="10.00">run_ast</text>
</a>
</g>
</g>
<!-- Node25&#45;&gt;Node26 -->
<g id="edge34_Node000025_Node000026" class="edge">
<title>Node25&#45;&gt;Node26</title>
<g id="a_edge34_Node000025_Node000026"><a xlink:title=" ">
<path fill="none" stroke="#63b8ff" d="M363.32,-498.52C358.56,-495.55 353.62,-492.44 349,-489.5 332.88,-479.24 314.54,-467.27 302.11,-459.12"/>
<polygon fill="#63b8ff" stroke="#63b8ff" points="361.76,-501.68 372.1,-503.99 365.46,-495.73 361.76,-501.68"/>
</a>
</g>
</g>
<!-- Node26&#45;&gt;Node19 -->
<g id="edge54_Node000026_Node000019" class="edge">
<title>Node26&#45;&gt;Node19</title>
<g id="a_edge54_Node000026_Node000019"><a xlink:title=" ">
<path fill="none" stroke="#63b8ff" d="M282.56,-469.56C276.89,-501.16 261.51,-562.51 224,-597.5 214.76,-606.12 201.24,-610.63 190.11,-612.97"/>
<polygon fill="#63b8ff" stroke="#63b8ff" points="286.07,-469.81 284.23,-459.37 279.16,-468.67 286.07,-469.81"/>
</a>
</g>
</g>
<!-- Node26&#45;&gt;Node20 -->
<g id="edge55_Node000026_Node000020" class="edge">
<title>Node26&#45;&gt;Node20</title>
<g id="a_edge55_Node000026_Node000020"><a xlink:title=" ">
<path fill="none" stroke="#63b8ff" d="M323.17,-456.7C364.46,-464.39 434.61,-475.5 495.5,-475.5 751,-475.5 751,-475.5 751,-475.5 843.29,-475.5 951.88,-485.37 1005.34,-490.88"/>
<polygon fill="#63b8ff" stroke="#63b8ff" points="323.79,-453.25 313.31,-454.82 322.48,-460.13 323.79,-453.25"/>
</a>
</g>
</g>
<!-- Node27 -->
<g id="Node000027" class="node">
<title>Node27</title>
<g id="a_Node000027"><a xlink:href="ast__run_8c.html#a8a01fec616135007fc5b3968a101901b" target="_top" xlink:title=" ">
<polygon fill="white" stroke="#666666" points="215,-328 124,-328 124,-309 215,-309 215,-328"/>
<text text-anchor="middle" x="169.5" y="-316" font-family="Helvetica,sans-Serif" font-size="10.00">ast_run_and_or</text>
</a>
</g>
</g>
<!-- Node26&#45;&gt;Node27 -->
<g id="edge35_Node000026_Node000027" class="edge">
<title>Node26&#45;&gt;Node27</title>
<g id="a_edge35_Node000026_Node000027"><a xlink:title=" ">
<path fill="none" stroke="#63b8ff" d="M280.78,-430.12C272.52,-404.37 253.47,-360.17 224,-333.5 221.28,-331.04 218.27,-328.8 215.1,-326.79"/>
<polygon fill="#63b8ff" stroke="#63b8ff" points="277.48,-431.31 283.66,-439.92 284.2,-429.33 277.48,-431.31"/>
</a>
</g>
</g>
<!-- Node28 -->
<g id="Node000028" class="node">
<title>Node28</title>
<g id="a_Node000028"><a xlink:href="ast__run_8c.html#a9d83d4834a61ffe21eb77838d70ae173" target="_top" xlink:title=" ">
<polygon fill="white" stroke="#666666" points="205,-291 134,-291 134,-272 205,-272 205,-291"/>
<text text-anchor="middle" x="169.5" y="-279" font-family="Helvetica,sans-Serif" font-size="10.00">ast_run_for</text>
</a>
</g>
</g>
<!-- Node26&#45;&gt;Node28 -->
<g id="edge37_Node000026_Node000028" class="edge">
<title>Node26&#45;&gt;Node28</title>
<g id="a_edge37_Node000026_Node000028"><a xlink:title=" ">
<path fill="none" stroke="#63b8ff" d="M283.49,-429.98C278.66,-396.46 263.72,-329.27 224,-291.5 218.71,-286.47 212.01,-282.77 205.16,-280.25"/>
<polygon fill="#63b8ff" stroke="#63b8ff" points="280.02,-430.48 284.76,-439.96 286.97,-429.6 280.02,-430.48"/>
</a>
</g>
</g>
<!-- Node29 -->
<g id="Node000029" class="node">
<title>Node29</title>
<g id="a_Node000029"><a xlink:href="ast__run_8c.html#a0a7138b1f2608ea36211c9b78988c248" target="_top" xlink:title=" ">
<polygon fill="white" stroke="#666666" points="202,-254 137,-254 137,-235 202,-235 202,-254"/>
<text text-anchor="middle" x="169.5" y="-242" font-family="Helvetica,sans-Serif" font-size="10.00">ast_run_if</text>
</a>
</g>
</g>
<!-- Node26&#45;&gt;Node29 -->
<g id="edge39_Node000026_Node000029" class="edge">
<title>Node26&#45;&gt;Node29</title>
<g id="a_edge39_Node000026_Node000029"><a xlink:title=" ">
<path fill="none" stroke="#63b8ff" d="M284.83,-429.64C282.47,-390.29 271.84,-303.4 224,-254.5 218.07,-248.44 210.09,-244.31 202.1,-241.83"/>
<polygon fill="#63b8ff" stroke="#63b8ff" points="281.34,-430 285.31,-439.82 288.33,-429.67 281.34,-430"/>
</a>
</g>
</g>
<!-- Node30 -->
<g id="Node000030" class="node">
<title>Node30</title>
<g id="a_Node000030"><a xlink:href="ast__run_8c.html#ae25cd3ced8abafd76110dba8852a6b87" target="_top" xlink:title=" ">
<polygon fill="white" stroke="#666666" points="206,-533 133,-533 133,-514 206,-514 206,-533"/>
<text text-anchor="middle" x="169.5" y="-521" font-family="Helvetica,sans-Serif" font-size="10.00">ast_run_list</text>
</a>
</g>
</g>
<!-- Node26&#45;&gt;Node30 -->
<g id="edge41_Node000026_Node000030" class="edge">
<title>Node26&#45;&gt;Node30</title>
<g id="a_edge41_Node000026_Node000030"><a xlink:title=" ">
<path fill="none" stroke="#63b8ff" d="M262.9,-466.1C252,-476.08 238.22,-488.14 224,-496.5 210.82,-504.25 193.84,-509.24 182.58,-513.99"/>
<polygon fill="#63b8ff" stroke="#63b8ff" points="265.32,-468.63 270.29,-459.28 260.57,-463.49 265.32,-468.63"/>
</a>
</g>
</g>
<!-- Node31 -->
<g id="Node000031" class="node">
<title>Node31</title>
<g id="a_Node000031"><a xlink:href="ast__run_8c.html#a536f37ba9bffcd2099fef668656181e0" target="_top" xlink:title=" ">
<polygon fill="white" stroke="#666666" points="209,-496 130,-496 130,-477 209,-477 209,-496"/>
<text text-anchor="middle" x="169.5" y="-484" font-family="Helvetica,sans-Serif" font-size="10.00">ast_run_loop</text>
</a>
</g>
</g>
<!-- Node26&#45;&gt;Node31 -->
<g id="edge44_Node000026_Node000031" class="edge">
<title>Node26&#45;&gt;Node31</title>
<g id="a_edge44_Node000026_Node000031"><a xlink:title=" ">
<path fill="none" stroke="#63b8ff" d="M250.09,-454.61C228.37,-460.64 201.69,-469.75 185.4,-476.99"/>
<polygon fill="#63b8ff" stroke="#63b8ff" points="251.21,-457.93 259.98,-451.99 249.42,-451.16 251.21,-457.93"/>
</a>
</g>
</g>
<!-- Node32 -->
<g id="Node000032" class="node">
<title>Node32</title>
<g id="a_Node000032"><a xlink:href="ast__run_8c.html#aa3e6a973e744d748ee415840596beb53" target="_top" xlink:title=" ">
<polygon fill="white" stroke="#666666" points="224,-459 115,-459 115,-440 224,-440 224,-459"/>
<text text-anchor="middle" x="169.5" y="-447" font-family="Helvetica,sans-Serif" font-size="10.00">ast_run_shell_redir</text>
</a>
</g>
</g>
<!-- Node26&#45;&gt;Node32 -->
<g id="edge46_Node000026_Node000032" class="edge">
<title>Node26&#45;&gt;Node32</title>
<g id="a_edge46_Node000026_Node000032"><a xlink:title=" ">
<path fill="none" stroke="#63b8ff" d="M249.78,-443.2C241.67,-442.85 232.88,-442.7 224.21,-442.76"/>
<polygon fill="#63b8ff" stroke="#63b8ff" points="249.8,-446.71 259.98,-443.78 250.19,-439.72 249.8,-446.71"/>
</a>
</g>
</g>
<!-- Node33 -->
<g id="Node000033" class="node">
<title>Node33</title>
<g id="a_Node000033"><a xlink:href="exec_8c.html#a23babf893bbcd2f6126698a1a19b169f" target="_top" xlink:title="Execute funct with given arguments.">
<polygon fill="white" stroke="#666666" points="202,-588 137,-588 137,-569 202,-569 202,-588"/>
<text text-anchor="middle" x="169.5" y="-576" font-family="Helvetica,sans-Serif" font-size="10.00">exec_func</text>
</a>
</g>
</g>
<!-- Node26&#45;&gt;Node33 -->
<g id="edge48_Node000026_Node000033" class="edge">
<title>Node26&#45;&gt;Node33</title>
<g id="a_edge48_Node000026_Node000033"><a xlink:title=" ">
<path fill="none" stroke="#63b8ff" d="M279.71,-468.72C271.32,-493.39 253.49,-535.93 224,-560.5 217.75,-565.71 209.93,-569.43 202.21,-572.08"/>
<polygon fill="#63b8ff" stroke="#63b8ff" points="283.09,-469.65 282.82,-459.06 276.42,-467.51 283.09,-469.65"/>
</a>
</g>
</g>
<!-- Node34 -->
<g id="Node000034" class="node">
<title>Node34</title>
<g id="a_Node000034"><a xlink:href="exec_8c.html#ab743cb88e12e9b922050925fd2075e36" target="_top" xlink:title="Execute a pipeline of commands.">
<polygon fill="white" stroke="#666666" points="202,-404 137,-404 137,-385 202,-385 202,-404"/>
<text text-anchor="middle" x="169.5" y="-392" font-family="Helvetica,sans-Serif" font-size="10.00">exec_pipe</text>
</a>
</g>
</g>
<!-- Node26&#45;&gt;Node34 -->
<g id="edge50_Node000026_Node000034" class="edge">
<title>Node26&#45;&gt;Node34</title>
<g id="a_edge50_Node000026_Node000034"><a xlink:title=" ">
<path fill="none" stroke="#63b8ff" d="M256.26,-435.52C235.75,-425.71 208.85,-412.84 190.69,-404.16"/>
<polygon fill="#63b8ff" stroke="#63b8ff" points="254.94,-438.76 265.47,-439.92 257.96,-432.45 254.94,-438.76"/>
</a>
</g>
</g>
<!-- Node27&#45;&gt;Node26 -->
<g id="edge36_Node000027_Node000026" class="edge">
<title>Node27&#45;&gt;Node26</title>
<g id="a_edge36_Node000027_Node000026"><a xlink:title=" ">
<path fill="none" stroke="#63b8ff" d="M191.03,-332.28C201.79,-337.13 214.64,-343.03 224,-351.5 252.76,-377.52 271.59,-420.23 280.16,-439.85"/>
<polygon fill="#63b8ff" stroke="#63b8ff" points="192.44,-329.08 181.9,-328.08 189.52,-335.44 192.44,-329.08"/>
</a>
</g>
</g>
<!-- Node28&#45;&gt;Node26 -->
<g id="edge38_Node000028_Node000026" class="edge">
<title>Node28&#45;&gt;Node26</title>
<g id="a_edge38_Node000028_Node000026"><a xlink:title=" ">
<path fill="none" stroke="#63b8ff" d="M196.04,-294.29C205.78,-297.73 216.37,-302.24 224,-309.5 263.75,-347.3 278.68,-414.56 283.5,-439.97"/>
<polygon fill="#63b8ff" stroke="#63b8ff" points="196.95,-290.9 186.35,-291.01 194.71,-297.53 196.95,-290.9"/>
</a>
</g>
</g>
<!-- Node29&#45;&gt;Node26 -->
<g id="edge40_Node000029_Node000026" class="edge">
<title>Node29&#45;&gt;Node26</title>
<g id="a_edge40_Node000029_Node000026"><a xlink:title=" ">
<path fill="none" stroke="#63b8ff" d="M197.13,-257.3C206.68,-260.67 216.84,-265.18 224,-272.5 272.28,-321.85 282.66,-409.89 284.89,-439.74"/>
<polygon fill="#63b8ff" stroke="#63b8ff" points="198.15,-253.95 187.56,-254.12 195.94,-260.59 198.15,-253.95"/>
</a>
</g>
</g>
<!-- Node30&#45;&gt;Node26 -->
<g id="edge43_Node000030_Node000026" class="edge">
<title>Node30&#45;&gt;Node26</title>
<g id="a_edge43_Node000030_Node000026"><a xlink:title=" ">
<path fill="none" stroke="#63b8ff" d="M215.63,-518.84C218.53,-517.52 221.34,-516.06 224,-514.5 248.65,-500.01 271.96,-474.43 281.26,-459.43"/>
<polygon fill="#63b8ff" stroke="#63b8ff" points="214.2,-515.65 206.23,-522.64 216.82,-522.14 214.2,-515.65"/>
</a>
</g>
</g>
<!-- Node30&#45;&gt;Node30 -->
<g id="edge42_Node000030_Node000030" class="edge">
<title>Node30&#45;&gt;Node30</title>
<g id="a_edge42_Node000030_Node000030"><a xlink:title=" ">
<path fill="none" stroke="#63b8ff" d="M190.98,-542.55C189.55,-547.38 182.39,-551 169.5,-551 148.88,-551 142.92,-541.73 151.62,-533.08"/>
<polygon fill="#63b8ff" stroke="#63b8ff" points="194.2,-541.19 187.38,-533.08 187.66,-543.67 194.2,-541.19"/>
</a>
</g>
</g>
<!-- Node31&#45;&gt;Node26 -->
<g id="edge45_Node000031_Node000026" class="edge">
<title>Node31&#45;&gt;Node26</title>
<g id="a_edge45_Node000031_Node000026"><a xlink:title=" ">
<path fill="none" stroke="#63b8ff" d="M219.1,-477.54C237.6,-471.89 257.36,-464.89 270.47,-459.07"/>
<polygon fill="#63b8ff" stroke="#63b8ff" points="217.89,-474.25 209.29,-480.44 219.87,-480.96 217.89,-474.25"/>
</a>
</g>
</g>
<!-- Node32&#45;&gt;Node26 -->
<g id="edge47_Node000032_Node000026" class="edge">
<title>Node32&#45;&gt;Node26</title>
<g id="a_edge47_Node000032_Node000026"><a xlink:title=" ">
<path fill="none" stroke="#63b8ff" d="M234.45,-456.21C243.47,-456.11 252.29,-455.78 259.98,-455.22"/>
<polygon fill="#63b8ff" stroke="#63b8ff" points="234.2,-452.71 224.21,-456.24 234.22,-459.71 234.2,-452.71"/>
</a>
</g>
</g>
<!-- Node33&#45;&gt;Node24 -->
<g id="edge49_Node000033_Node000024" class="edge">
<title>Node33&#45;&gt;Node24</title>
<g id="a_edge49_Node000033_Node000024"><a xlink:title=" ">
<path fill="none" stroke="#63b8ff" d="M212.02,-572.36C263.12,-564.51 352.43,-549.84 428,-532.5 439.87,-529.78 452.76,-526.28 464.07,-523.03"/>
<polygon fill="#63b8ff" stroke="#63b8ff" points="211.37,-568.92 202.01,-573.89 212.43,-575.84 211.37,-568.92"/>
</a>
</g>
</g>
<!-- Node34&#45;&gt;Node34 -->
<g id="edge53_Node000034_Node000034" class="edge">
<title>Node34&#45;&gt;Node34</title>
<g id="a_edge53_Node000034_Node000034"><a xlink:title=" ">
<path fill="none" stroke="#63b8ff" d="M190.98,-413.55C189.55,-418.38 182.39,-422 169.5,-422 148.88,-422 142.92,-412.73 151.62,-404.08"/>
<polygon fill="#63b8ff" stroke="#63b8ff" points="194.2,-412.19 187.38,-404.08 187.66,-414.67 194.2,-412.19"/>
</a>
</g>
</g>
<!-- Node35 -->
<g id="Node000035" class="node">
<title>Node35</title>
<g id="a_Node000035"><a xlink:href="ast__run_8c.html#a24d0223822f7b635628199085c3283be" target="_top" xlink:title=" ">
<polygon fill="white" stroke="#666666" points="79,-385 0,-385 0,-366 79,-366 79,-385"/>
<text text-anchor="middle" x="39.5" y="-373" font-family="Helvetica,sans-Serif" font-size="10.00">ast_run_pipe</text>
</a>
</g>
</g>
<!-- Node34&#45;&gt;Node35 -->
<g id="edge51_Node000034_Node000035" class="edge">
<title>Node34&#45;&gt;Node35</title>
<g id="a_edge51_Node000034_Node000035"><a xlink:title=" ">
<path fill="none" stroke="#63b8ff" d="M126.62,-388.28C111.32,-386.01 94.09,-383.45 79.08,-381.23"/>
<polygon fill="#63b8ff" stroke="#63b8ff" points="126.45,-391.8 136.86,-389.8 127.48,-384.87 126.45,-391.8"/>
</a>
</g>
</g>
<!-- Node35&#45;&gt;Node26 -->
<g id="edge52_Node000035_Node000026" class="edge">
<title>Node35&#45;&gt;Node26</title>
<g id="a_edge52_Node000035_Node000026"><a xlink:title=" ">
<path fill="none" stroke="#63b8ff" d="M89,-365.07C127.47,-359.25 181.63,-356.65 224,-376.5 252.36,-389.79 272.37,-423.24 280.9,-439.85"/>
<polygon fill="#63b8ff" stroke="#63b8ff" points="88.39,-361.62 79.09,-366.69 89.52,-368.53 88.39,-361.62"/>
</a>
</g>
</g>
<!-- Node36&#45;&gt;Node2 -->
<g id="edge57_Node000036_Node000002" class="edge">
<title>Node36&#45;&gt;Node2</title>
<g id="a_edge57_Node000036_Node000002"><a xlink:title=" ">
<path fill="none" stroke="#63b8ff" d="M2125.31,-136.1C2109.9,-140.93 2092.58,-146.37 2078.2,-150.88"/>
<polygon fill="#63b8ff" stroke="#63b8ff" points="2126.62,-139.36 2135.11,-133.03 2124.52,-132.68 2126.62,-139.36"/>
</a>
</g>
</g>
<!-- Node37 -->
<g id="Node000037" class="node">
<title>Node37</title>
<g id="a_Node000037"><a xlink:href="parser__redirections_8c.html#af19404319b0e9a74ec8c4c3f6a0cf849" target="_top" xlink:title="Handle a prefix in a command: either an assignment or a redirection.">
<polygon fill="white" stroke="#666666" points="2086.5,-133 2006.5,-133 2006.5,-114 2086.5,-114 2086.5,-133"/>
<text text-anchor="middle" x="2046.5" y="-121" font-family="Helvetica,sans-Serif" font-size="10.00">parser_prefix</text>
</a>
</g>
</g>
<!-- Node36&#45;&gt;Node37 -->
<g id="edge58_Node000036_Node000037" class="edge">
<title>Node36&#45;&gt;Node37</title>
<g id="a_edge58_Node000036_Node000037"><a xlink:title=" ">
<path fill="none" stroke="#63b8ff" d="M2118.81,-123.5C2108.15,-123.5 2096.93,-123.5 2086.62,-123.5"/>
<polygon fill="#63b8ff" stroke="#63b8ff" points="2118.81,-127 2128.81,-123.5 2118.81,-120 2118.81,-127"/>
</a>
</g>
</g>
<!-- Node37&#45;&gt;Node3 -->
<g id="edge59_Node000037_Node000003" class="edge">
<title>Node37&#45;&gt;Node3</title>
<g id="a_edge59_Node000037_Node000003"><a xlink:title=" ">
<path fill="none" stroke="#63b8ff" d="M1996.37,-129.7C1986.11,-131 1975.11,-132.39 1964.27,-133.75"/>
<polygon fill="#63b8ff" stroke="#63b8ff" points="1996.87,-133.17 2006.35,-128.44 1995.99,-126.22 1996.87,-133.17"/>
</a>
</g>
</g>
<!-- Node38&#45;&gt;Node11 -->
<g id="edge61_Node000038_Node000011" class="edge">
<title>Node38&#45;&gt;Node11</title>
<g id="a_edge61_Node000038_Node000011"><a xlink:title=" ">
<path fill="none" stroke="#63b8ff" d="M1831.82,-9.5C1773.72,-9.5 1683.91,-9.5 1606,-9.5 1606,-9.5 1606,-9.5 1038.5,-9.5 954.49,-9.5 923.25,9.37 851,-33.5 798.33,-64.75 765.45,-135.69 754.8,-161.7"/>
<polygon fill="#63b8ff" stroke="#63b8ff" points="1831.93,-13 1841.93,-9.5 1831.93,-6 1831.93,-13"/>
</a>
</g>
</g>
</g>
</svg>
