<?xml version="1.0" encoding="UTF-8" standalone="no"?>
<!DOCTYPE svg PUBLIC "-//W3C//DTD SVG 1.1//EN"
 "http://www.w3.org/Graphics/SVG/1.1/DTD/svg11.dtd">
<!-- Generated by graphviz version 2.43.0 (0)
 -->
<!-- Title: parser_and_or Pages: 1 -->
<svg width="1580pt" height="639pt"
 viewBox="0.00 0.00 1580.00 638.50" xmlns="http://www.w3.org/2000/svg" xmlns:xlink="http://www.w3.org/1999/xlink">
<g id="graph0" class="graph" transform="scale(1 1) rotate(0) translate(4 634.5)">
<title>parser_and_or</title>
<!-- Node1 -->
<g id="Node000001" class="node">
<title>Node1</title>
<g id="a_Node000001"><a xlink:title="Parse and_or blocks separated by &#39;&amp;&amp;&#39; or &#39;||&#39;.">
<polygon fill="#999999" stroke="#666666" points="1572,-354 1486,-354 1486,-335 1572,-335 1572,-354"/>
<text text-anchor="middle" x="1529" y="-342" font-family="Helvetica,sans-Serif" font-size="10.00">parser_and_or</text>
</a>
</g>
</g>
<!-- Node2 -->
<g id="Node000002" class="node">
<title>Node2</title>
<g id="a_Node000002"><a xlink:href="parser__lists_8c.html#aae7a5d6760b83c1a37b0369f82a20500" target="_top" xlink:title="Absorb a chain of and_or separeted by &#39;;&#39; or &#39; &#39;.">
<polygon fill="white" stroke="#666666" points="1450,-487 1326,-487 1326,-468 1450,-468 1450,-487"/>
<text text-anchor="middle" x="1388" y="-475" font-family="Helvetica,sans-Serif" font-size="10.00">parser_compound_list</text>
</a>
</g>
</g>
<!-- Node1&#45;&gt;Node2 -->
<g id="edge1_Node000001_Node000002" class="edge">
<title>Node1&#45;&gt;Node2</title>
<g id="a_edge1_Node000001_Node000002"><a xlink:title=" ">
<path fill="none" stroke="#63b8ff" d="M1510.55,-361.2C1481.21,-389.27 1422.89,-445.07 1399.28,-467.66"/>
<polygon fill="#63b8ff" stroke="#63b8ff" points="1513.2,-363.51 1518,-354.07 1508.36,-358.45 1513.2,-363.51"/>
</a>
</g>
</g>
<!-- Node14 -->
<g id="Node000014" class="node">
<title>Node14</title>
<g id="a_Node000014"><a xlink:href="parser__lists_8c.html#a7b9812922acfb4eba24e65d40bd99001" target="_top" xlink:title="Parse list block into sub and_or block(s) separated by semi&#45;colons.">
<polygon fill="white" stroke="#666666" points="1422,-316 1354,-316 1354,-297 1422,-297 1422,-316"/>
<text text-anchor="middle" x="1388" y="-304" font-family="Helvetica,sans-Serif" font-size="10.00">parser_list</text>
</a>
</g>
</g>
<!-- Node1&#45;&gt;Node14 -->
<g id="edge22_Node000001_Node000014" class="edge">
<title>Node1&#45;&gt;Node14</title>
<g id="a_edge22_Node000001_Node000014"><a xlink:title=" ">
<path fill="none" stroke="#63b8ff" d="M1483.17,-332.24C1463.33,-326.82 1440.41,-320.55 1422.15,-315.56"/>
<polygon fill="#63b8ff" stroke="#63b8ff" points="1482.36,-335.65 1492.92,-334.91 1484.2,-328.9 1482.36,-335.65"/>
</a>
</g>
</g>
<!-- Node3 -->
<g id="Node000003" class="node">
<title>Node3</title>
<g id="a_Node000003"><a xlink:href="parser__rules_8c.html#a799f84e24df3eff653f7c0696e348572" target="_top" xlink:title="Parse an elif block when called.">
<polygon fill="white" stroke="#666666" points="1272.5,-392 1204.5,-392 1204.5,-373 1272.5,-373 1272.5,-392"/>
<text text-anchor="middle" x="1238.5" y="-380" font-family="Helvetica,sans-Serif" font-size="10.00">parser_elif</text>
</a>
</g>
</g>
<!-- Node2&#45;&gt;Node3 -->
<g id="edge2_Node000002_Node000003" class="edge">
<title>Node2&#45;&gt;Node3</title>
<g id="a_edge2_Node000002_Node000003"><a xlink:title=" ">
<path fill="none" stroke="#63b8ff" d="M1367.31,-461.38C1348.23,-446.17 1318.13,-423.28 1290,-406.5 1281.08,-401.18 1270.79,-396.11 1261.84,-392.02"/>
<polygon fill="#63b8ff" stroke="#63b8ff" points="1365.27,-464.23 1375.26,-467.77 1369.66,-458.77 1365.27,-464.23"/>
</a>
</g>
</g>
<!-- Node4 -->
<g id="Node000004" class="node">
<title>Node4</title>
<g id="a_Node000004"><a xlink:href="parser__rules_8c.html#adf5258219dad4f79fdbc7786eb925699" target="_top" xlink:title="Define which parser to use depending on the context.">
<polygon fill="white" stroke="#666666" points="1143.5,-411 1033.5,-411 1033.5,-392 1143.5,-392 1143.5,-411"/>
<text text-anchor="middle" x="1088.5" y="-399" font-family="Helvetica,sans-Serif" font-size="10.00">parser_else_clause</text>
</a>
</g>
</g>
<!-- Node2&#45;&gt;Node4 -->
<g id="edge12_Node000002_Node000004" class="edge">
<title>Node2&#45;&gt;Node4</title>
<g id="a_edge12_Node000002_Node000004"><a xlink:title=" ">
<path fill="none" stroke="#63b8ff" d="M1352.31,-464.6C1333.95,-458.05 1310.93,-450.28 1290,-444.5 1240.42,-430.8 1182.93,-418.86 1142.25,-411.07"/>
<polygon fill="#63b8ff" stroke="#63b8ff" points="1351.13,-467.9 1361.72,-468 1353.5,-461.31 1351.13,-467.9"/>
</a>
</g>
</g>
<!-- Node5 -->
<g id="Node000005" class="node">
<title>Node5</title>
<g id="a_Node000005"><a xlink:href="parser__rules_8c.html#abf9e27d14e7a1c314285114bead78817" target="_top" xlink:title="Handle a &#39;if&#39; block by calling corresponding parser at each step.">
<polygon fill="white" stroke="#666666" points="986.5,-468 903.5,-468 903.5,-449 986.5,-449 986.5,-468"/>
<text text-anchor="middle" x="945" y="-456" font-family="Helvetica,sans-Serif" font-size="10.00">parser_rule_if</text>
</a>
</g>
</g>
<!-- Node2&#45;&gt;Node5 -->
<g id="edge17_Node000002_Node000005" class="edge">
<title>Node2&#45;&gt;Node5</title>
<g id="a_edge17_Node000002_Node000005"><a xlink:title=" ">
<path fill="none" stroke="#63b8ff" d="M1315.47,-474.42C1222.06,-470.39 1061.67,-463.48 986.77,-460.26"/>
<polygon fill="#63b8ff" stroke="#63b8ff" points="1315.54,-477.92 1325.68,-474.86 1315.84,-470.93 1315.54,-477.92"/>
</a>
</g>
</g>
<!-- Node10 -->
<g id="Node000010" class="node">
<title>Node10</title>
<g id="a_Node000010"><a xlink:href="parser__rules_8c.html#afb9701776de31af668314b48a0b54636" target="_top" xlink:title="Handle a command block enclosed in brackets.">
<polygon fill="white" stroke="#666666" points="1151,-630.5 1026,-630.5 1026,-600.5 1151,-600.5 1151,-630.5"/>
<text text-anchor="start" x="1034" y="-618.5" font-family="Helvetica,sans-Serif" font-size="10.00">parser_rule_command</text>
<text text-anchor="middle" x="1088.5" y="-607.5" font-family="Helvetica,sans-Serif" font-size="10.00">_block</text>
</a>
</g>
</g>
<!-- Node2&#45;&gt;Node10 -->
<g id="edge13_Node000002_Node000010" class="edge">
<title>Node2&#45;&gt;Node10</title>
<g id="a_edge13_Node000002_Node000010"><a xlink:title=" ">
<path fill="none" stroke="#63b8ff" d="M1376.39,-495.98C1360.9,-521.06 1329.58,-565.2 1290,-586.5 1247.41,-609.41 1192.73,-616.08 1151.23,-617.34"/>
<polygon fill="#63b8ff" stroke="#63b8ff" points="1379.57,-497.47 1381.7,-487.09 1373.56,-493.88 1379.57,-497.47"/>
</a>
</g>
</g>
<!-- Node11 -->
<g id="Node000011" class="node">
<title>Node11</title>
<g id="a_Node000011"><a xlink:href="parser__rules_8c.html#a55dc38591d3749d39ca3f38f8a2a26dd" target="_top" xlink:title="Handle a for block by calling corresponding parser at each step.">
<polygon fill="white" stroke="#666666" points="990,-582 900,-582 900,-563 990,-563 990,-582"/>
<text text-anchor="middle" x="945" y="-570" font-family="Helvetica,sans-Serif" font-size="10.00">parser_rule_for</text>
</a>
</g>
</g>
<!-- Node2&#45;&gt;Node11 -->
<g id="edge15_Node000002_Node000011" class="edge">
<title>Node2&#45;&gt;Node11</title>
<g id="a_edge15_Node000002_Node000011"><a xlink:title=" ">
<path fill="none" stroke="#63b8ff" d="M1366.92,-493.25C1348.15,-507.09 1318.77,-526.51 1290,-536.5 1186.9,-572.29 1056.8,-575.4 990.01,-574.2"/>
<polygon fill="#63b8ff" stroke="#63b8ff" points="1369.12,-495.98 1375,-487.16 1364.91,-490.39 1369.12,-495.98"/>
</a>
</g>
</g>
<!-- Node12 -->
<g id="Node000012" class="node">
<title>Node12</title>
<g id="a_Node000012"><a xlink:href="parser__rules_8c.html#abf1c3edda1bb73d8c86028687922ce95" target="_top" xlink:title="Handle a &#39;until&#39; block by calling corresponding parser at each step.">
<polygon fill="white" stroke="#666666" points="1137.5,-544 1039.5,-544 1039.5,-525 1137.5,-525 1137.5,-544"/>
<text text-anchor="middle" x="1088.5" y="-532" font-family="Helvetica,sans-Serif" font-size="10.00">parser_rule_until</text>
</a>
</g>
</g>
<!-- Node2&#45;&gt;Node12 -->
<g id="edge18_Node000002_Node000012" class="edge">
<title>Node2&#45;&gt;Node12</title>
<g id="a_edge18_Node000002_Node000012"><a xlink:title=" ">
<path fill="none" stroke="#63b8ff" d="M1358.2,-491.23C1339.26,-499.65 1313.67,-509.86 1290,-515.5 1238.81,-527.7 1178.51,-532.12 1137.51,-533.69"/>
<polygon fill="#63b8ff" stroke="#63b8ff" points="1359.8,-494.35 1367.46,-487.03 1356.91,-487.98 1359.8,-494.35"/>
</a>
</g>
</g>
<!-- Node13 -->
<g id="Node000013" class="node">
<title>Node13</title>
<g id="a_Node000013"><a xlink:href="parser__rules_8c.html#aa6719ad356821f03ad45b1ac0a57d3bd" target="_top" xlink:title="Handle a &#39;while&#39; block by calling corresponding parser at each step.">
<polygon fill="white" stroke="#666666" points="1290,-506 1187,-506 1187,-487 1290,-487 1290,-506"/>
<text text-anchor="middle" x="1238.5" y="-494" font-family="Helvetica,sans-Serif" font-size="10.00">parser_rule_while</text>
</a>
</g>
</g>
<!-- Node2&#45;&gt;Node13 -->
<g id="edge20_Node000002_Node000013" class="edge">
<title>Node2&#45;&gt;Node13</title>
<g id="a_edge20_Node000002_Node000013"><a xlink:title=" ">
<path fill="none" stroke="#63b8ff" d="M1315.63,-486.69C1306.99,-487.81 1298.31,-488.92 1290.06,-489.99"/>
<polygon fill="#63b8ff" stroke="#63b8ff" points="1316.26,-490.14 1325.73,-485.39 1315.36,-483.2 1316.26,-490.14"/>
</a>
</g>
</g>
<!-- Node3&#45;&gt;Node4 -->
<g id="edge3_Node000003_Node000004" class="edge">
<title>Node3&#45;&gt;Node4</title>
<g id="a_edge3_Node000003_Node000004"><a xlink:title=" ">
<path fill="none" stroke="#63b8ff" d="M1194.11,-381.86C1170.35,-384.02 1141.47,-387.94 1120.08,-391.99"/>
<polygon fill="#63b8ff" stroke="#63b8ff" points="1194.61,-385.33 1204.29,-381.02 1194.03,-378.36 1194.61,-385.33"/>
</a>
</g>
</g>
<!-- Node4&#45;&gt;Node3 -->
<g id="edge4_Node000004_Node000003" class="edge">
<title>Node4&#45;&gt;Node3</title>
<g id="a_edge4_Node000004_Node000003"><a xlink:title=" ">
<path fill="none" stroke="#63b8ff" d="M1153.87,-399.93C1172.27,-397.77 1191.47,-394.93 1206.83,-392.03"/>
<polygon fill="#63b8ff" stroke="#63b8ff" points="1153.31,-396.48 1143.76,-401.07 1154.09,-403.43 1153.31,-396.48"/>
</a>
</g>
</g>
<!-- Node4&#45;&gt;Node5 -->
<g id="edge5_Node000004_Node000005" class="edge">
<title>Node4&#45;&gt;Node5</title>
<g id="a_edge5_Node000004_Node000005"><a xlink:title=" ">
<path fill="none" stroke="#63b8ff" d="M1054.38,-414.84C1028.43,-425.3 992.95,-439.59 969.76,-448.93"/>
<polygon fill="#63b8ff" stroke="#63b8ff" points="1055.85,-418.02 1063.82,-411.04 1053.23,-411.53 1055.85,-418.02"/>
</a>
</g>
</g>
<!-- Node6 -->
<g id="Node000006" class="node">
<title>Node6</title>
<g id="a_Node000006"><a xlink:href="parser__commands_8c.html#ad98fbb958a265134e775b69579e28835" target="_top" xlink:title="Handle a shell command block by calling corresponding parser at each step.">
<polygon fill="white" stroke="#666666" points="864,-525 734,-525 734,-506 864,-506 864,-525"/>
<text text-anchor="middle" x="799" y="-513" font-family="Helvetica,sans-Serif" font-size="10.00">parser_shell_command</text>
</a>
</g>
</g>
<!-- Node5&#45;&gt;Node6 -->
<g id="edge6_Node000005_Node000006" class="edge">
<title>Node5&#45;&gt;Node6</title>
<g id="a_edge6_Node000005_Node000006"><a xlink:title=" ">
<path fill="none" stroke="#63b8ff" d="M910.3,-471.84C883.89,-482.3 847.78,-496.59 824.18,-505.93"/>
<polygon fill="#63b8ff" stroke="#63b8ff" points="911.89,-474.98 919.9,-468.04 909.31,-468.47 911.89,-474.98"/>
</a>
</g>
</g>
<!-- Node7 -->
<g id="Node000007" class="node">
<title>Node7</title>
<g id="a_Node000007"><a xlink:href="parser__commands_8c.html#aa7191f56bd8e70874c5c381e52186807" target="_top" xlink:title="Parse a command which can be either a simple command or a shell command.">
<polygon fill="white" stroke="#666666" points="578,-487 477,-487 477,-468 578,-468 578,-487"/>
<text text-anchor="middle" x="527.5" y="-475" font-family="Helvetica,sans-Serif" font-size="10.00">parser_command</text>
</a>
</g>
</g>
<!-- Node6&#45;&gt;Node7 -->
<g id="edge7_Node000006_Node000007" class="edge">
<title>Node6&#45;&gt;Node7</title>
<g id="a_edge7_Node000006_Node000007"><a xlink:title=" ">
<path fill="none" stroke="#63b8ff" d="M723.68,-509.8C690.07,-506.71 649.91,-502.32 614,-496.5 598.54,-493.99 581.68,-490.43 567.05,-487.06"/>
<polygon fill="#63b8ff" stroke="#63b8ff" points="723.62,-513.31 733.89,-510.71 724.25,-506.34 723.62,-513.31"/>
</a>
</g>
</g>
<!-- Node9 -->
<g id="Node000009" class="node">
<title>Node9</title>
<g id="a_Node000009"><a xlink:href="parser__commands_8c.html#a14408e6904da17fc6899bba03f7a5f5a" target="_top" xlink:title="Handle a function definition and add it to the dictionnary.">
<polygon fill="white" stroke="#666666" points="698,-487 614,-487 614,-468 698,-468 698,-487"/>
<text text-anchor="middle" x="656" y="-475" font-family="Helvetica,sans-Serif" font-size="10.00">parser_fundef</text>
</a>
</g>
</g>
<!-- Node6&#45;&gt;Node9 -->
<g id="edge10_Node000006_Node000009" class="edge">
<title>Node6&#45;&gt;Node9</title>
<g id="a_edge10_Node000006_Node000009"><a xlink:title=" ">
<path fill="none" stroke="#63b8ff" d="M752.56,-503.25C733.13,-498.02 710.77,-491.99 692.57,-487.09"/>
<polygon fill="#63b8ff" stroke="#63b8ff" points="751.85,-506.69 762.42,-505.91 753.68,-499.93 751.85,-506.69"/>
</a>
</g>
</g>
<!-- Node8 -->
<g id="Node000008" class="node">
<title>Node8</title>
<g id="a_Node000008"><a xlink:href="parser__pipelines_8c.html#a06068cdf8924fb28f414f419d84a5eae" target="_top" xlink:title="Parse and_or blocks separated by &#39;|&#39; (pipes)">
<polygon fill="white" stroke="#666666" points="441,-430 349,-430 349,-411 441,-411 441,-430"/>
<text text-anchor="middle" x="395" y="-418" font-family="Helvetica,sans-Serif" font-size="10.00">parser_pipeline</text>
</a>
</g>
</g>
<!-- Node7&#45;&gt;Node8 -->
<g id="edge8_Node000007_Node000008" class="edge">
<title>Node7&#45;&gt;Node8</title>
<g id="a_edge8_Node000007_Node000008"><a xlink:title=" ">
<path fill="none" stroke="#63b8ff" d="M495.32,-463.88C471.45,-453.45 439.11,-439.33 417.91,-430.07"/>
<polygon fill="#63b8ff" stroke="#63b8ff" points="494.09,-467.16 504.66,-467.96 496.89,-460.75 494.09,-467.16"/>
</a>
</g>
</g>
<!-- Node8&#45;&gt;Node1 -->
<g id="edge9_Node000008_Node000001" class="edge">
<title>Node8&#45;&gt;Node1</title>
<g id="a_edge9_Node000008_Node000001"><a xlink:title=" ">
<path fill="none" stroke="#63b8ff" d="M424.12,-406.48C470.83,-384.53 567.94,-344.5 655,-344.5 1239.5,-344.5 1239.5,-344.5 1239.5,-344.5 1327.15,-344.5 1429.78,-344.5 1485.95,-344.5"/>
<polygon fill="#63b8ff" stroke="#63b8ff" points="422.45,-403.4 414.93,-410.87 425.46,-409.72 422.45,-403.4"/>
</a>
</g>
</g>
<!-- Node9&#45;&gt;Node7 -->
<g id="edge11_Node000009_Node000007" class="edge">
<title>Node9&#45;&gt;Node7</title>
<g id="a_edge11_Node000009_Node000007"><a xlink:title=" ">
<path fill="none" stroke="#63b8ff" d="M603.81,-477.5C595.36,-477.5 586.61,-477.5 578.2,-477.5"/>
<polygon fill="#63b8ff" stroke="#63b8ff" points="603.93,-481 613.93,-477.5 603.93,-474 603.93,-481"/>
</a>
</g>
</g>
<!-- Node10&#45;&gt;Node6 -->
<g id="edge14_Node000010_Node000006" class="edge">
<title>Node10&#45;&gt;Node6</title>
<g id="a_edge14_Node000010_Node000006"><a xlink:title=" ">
<path fill="none" stroke="#63b8ff" d="M1015.55,-614.99C979.69,-612.59 936.35,-606.38 900,-591.5 861.86,-575.88 825.53,-541.9 809.13,-525.18"/>
<polygon fill="#63b8ff" stroke="#63b8ff" points="1015.75,-618.51 1025.93,-615.59 1016.15,-611.52 1015.75,-618.51"/>
</a>
</g>
</g>
<!-- Node11&#45;&gt;Node6 -->
<g id="edge16_Node000011_Node000006" class="edge">
<title>Node11&#45;&gt;Node6</title>
<g id="a_edge16_Node000011_Node000006"><a xlink:title=" ">
<path fill="none" stroke="#63b8ff" d="M910.3,-559.16C883.89,-548.7 847.78,-534.41 824.18,-525.07"/>
<polygon fill="#63b8ff" stroke="#63b8ff" points="909.31,-562.53 919.9,-562.96 911.89,-556.02 909.31,-562.53"/>
</a>
</g>
</g>
<!-- Node12&#45;&gt;Node6 -->
<g id="edge19_Node000012_Node000006" class="edge">
<title>Node12&#45;&gt;Node6</title>
<g id="a_edge19_Node000012_Node000006"><a xlink:title=" ">
<path fill="none" stroke="#63b8ff" d="M1029.18,-530.65C981.31,-527.48 913.61,-523.01 864.21,-519.74"/>
<polygon fill="#63b8ff" stroke="#63b8ff" points="1029.17,-534.15 1039.38,-531.32 1029.63,-527.17 1029.17,-534.15"/>
</a>
</g>
</g>
<!-- Node13&#45;&gt;Node6 -->
<g id="edge21_Node000013_Node000006" class="edge">
<title>Node13&#45;&gt;Node6</title>
<g id="a_edge21_Node000013_Node000006"><a xlink:title=" ">
<path fill="none" stroke="#63b8ff" d="M1176.69,-499.14C1094.43,-502.71 948.33,-509.06 864.3,-512.71"/>
<polygon fill="#63b8ff" stroke="#63b8ff" points="1177.05,-502.63 1186.89,-498.7 1176.74,-495.64 1177.05,-502.63"/>
</a>
</g>
</g>
<!-- Node15 -->
<g id="Node000015" class="node">
<title>Node15</title>
<g id="a_Node000015"><a xlink:href="parser_8c.html#a620dffcc9a167cdee6e67de1191e5277" target="_top" xlink:title="Parse the input of our shell into list.">
<polygon fill="white" stroke="#666666" points="1262,-316 1215,-316 1215,-297 1262,-297 1262,-316"/>
<text text-anchor="middle" x="1238.5" y="-304" font-family="Helvetica,sans-Serif" font-size="10.00">parser</text>
</a>
</g>
</g>
<!-- Node14&#45;&gt;Node15 -->
<g id="edge23_Node000014_Node000015" class="edge">
<title>Node14&#45;&gt;Node15</title>
<g id="a_edge23_Node000014_Node000015"><a xlink:title=" ">
<path fill="none" stroke="#63b8ff" d="M1343.68,-306.5C1317.07,-306.5 1284.05,-306.5 1262.41,-306.5"/>
<polygon fill="#63b8ff" stroke="#63b8ff" points="1343.9,-310 1353.9,-306.5 1343.9,-303 1343.9,-310"/>
</a>
</g>
</g>
<!-- Node16 -->
<g id="Node000016" class="node">
<title>Node16</title>
<g id="a_Node000016"><a xlink:href="42sh_8c.html#a3c04138a5bfe5d72780bb7e82a18e627" target="_top" xlink:title=" ">
<polygon fill="white" stroke="#666666" points="190,-390 149,-390 149,-371 190,-371 190,-390"/>
<text text-anchor="middle" x="169.5" y="-378" font-family="Helvetica,sans-Serif" font-size="10.00">main</text>
</a>
</g>
</g>
<!-- Node15&#45;&gt;Node16 -->
<g id="edge24_Node000015_Node000016" class="edge">
<title>Node15&#45;&gt;Node16</title>
<g id="a_edge24_Node000015_Node000016"><a xlink:title=" ">
<path fill="none" stroke="#63b8ff" d="M1204.48,-306.5C1150.45,-306.5 1039.74,-306.5 946,-306.5 946,-306.5 946,-306.5 394,-306.5 391.33,-306.5 244.05,-355.82 190.06,-373.93"/>
<polygon fill="#63b8ff" stroke="#63b8ff" points="1204.82,-310 1214.82,-306.5 1204.82,-303 1204.82,-310"/>
</a>
</g>
</g>
<!-- Node17 -->
<g id="Node000017" class="node">
<title>Node17</title>
<g id="a_Node000017"><a xlink:href="dot_8c.html#a17477ee2b0f1b8b9306566c990d15b35" target="_top" xlink:title="Main loop of dot builtin.">
<polygon fill="white" stroke="#666666" points="1122.5,-204 1054.5,-204 1054.5,-185 1122.5,-185 1122.5,-204"/>
<text text-anchor="middle" x="1088.5" y="-192" font-family="Helvetica,sans-Serif" font-size="10.00">main_loop</text>
</a>
</g>
</g>
<!-- Node15&#45;&gt;Node17 -->
<g id="edge25_Node000015_Node000017" class="edge">
<title>Node15&#45;&gt;Node17</title>
<g id="a_edge25_Node000015_Node000017"><a xlink:title=" ">
<path fill="none" stroke="#63b8ff" d="M1216.86,-290.88C1185.71,-267.31 1127.62,-223.35 1102.09,-204.02"/>
<polygon fill="#63b8ff" stroke="#63b8ff" points="1214.8,-293.71 1224.88,-296.95 1219.02,-288.13 1214.8,-293.71"/>
</a>
</g>
</g>
<!-- Node18 -->
<g id="Node000018" class="node">
<title>Node18</title>
<g id="a_Node000018"><a xlink:href="dot_8c.html#a713938d3c6ee343132c429642048bcf6" target="_top" xlink:title="Execute the dot builtin cmd.">
<polygon fill="white" stroke="#666666" points="967,-166 923,-166 923,-147 967,-147 967,-166"/>
<text text-anchor="middle" x="945" y="-154" font-family="Helvetica,sans-Serif" font-size="10.00">dot_b</text>
</a>
</g>
</g>
<!-- Node17&#45;&gt;Node18 -->
<g id="edge26_Node000017_Node000018" class="edge">
<title>Node17&#45;&gt;Node18</title>
<g id="a_edge26_Node000017_Node000018"><a xlink:title=" ">
<path fill="none" stroke="#63b8ff" d="M1044.46,-182.94C1018.84,-176.06 987.46,-167.63 967.11,-162.17"/>
<polygon fill="#63b8ff" stroke="#63b8ff" points="1043.76,-186.38 1054.32,-185.59 1045.57,-179.62 1043.76,-186.38"/>
</a>
</g>
</g>
<!-- Node19 -->
<g id="Node000019" class="node">
<title>Node19</title>
<g id="a_Node000019"><a xlink:href="exec_8c.html#abaeb177587c7eec6a064b35bb8399cae" target="_top" xlink:title="Execute builtin cmd with given args.">
<polygon fill="white" stroke="#666666" points="836.5,-166 761.5,-166 761.5,-147 836.5,-147 836.5,-166"/>
<text text-anchor="middle" x="799" y="-154" font-family="Helvetica,sans-Serif" font-size="10.00">exec_builtin</text>
</a>
</g>
</g>
<!-- Node18&#45;&gt;Node19 -->
<g id="edge27_Node000018_Node000019" class="edge">
<title>Node18&#45;&gt;Node19</title>
<g id="a_edge27_Node000018_Node000019"><a xlink:title=" ">
<path fill="none" stroke="#63b8ff" d="M912.47,-156.5C890.14,-156.5 860.12,-156.5 836.71,-156.5"/>
<polygon fill="#63b8ff" stroke="#63b8ff" points="912.75,-160 922.75,-156.5 912.75,-153 912.75,-160"/>
</a>
</g>
</g>
<!-- Node20 -->
<g id="Node000020" class="node">
<title>Node20</title>
<g id="a_Node000020"><a xlink:href="exec_8c.html#a287d81b4658832f192750310e2925917" target="_top" xlink:title="Execute the builtin command with given args.">
<polygon fill="white" stroke="#666666" points="681,-166 631,-166 631,-147 681,-147 681,-166"/>
<text text-anchor="middle" x="656" y="-154" font-family="Helvetica,sans-Serif" font-size="10.00">exec_b</text>
</a>
</g>
</g>
<!-- Node19&#45;&gt;Node20 -->
<g id="edge28_Node000019_Node000020" class="edge">
<title>Node19&#45;&gt;Node20</title>
<g id="a_edge28_Node000019_Node000020"><a xlink:title=" ">
<path fill="none" stroke="#63b8ff" d="M751.2,-156.5C727.72,-156.5 700.28,-156.5 681.09,-156.5"/>
<polygon fill="#63b8ff" stroke="#63b8ff" points="751.32,-160 761.32,-156.5 751.32,-153 751.32,-160"/>
</a>
</g>
</g>
<!-- Node21 -->
<g id="Node000021" class="node">
<title>Node21</title>
<g id="a_Node000021"><a xlink:href="exec_8c.html#ae65edaa99b26b49d60c451157d38b34a" target="_top" xlink:title="Execute les commandes avec les args donnes.">
<polygon fill="white" stroke="#666666" points="560,-166 495,-166 495,-147 560,-147 560,-166"/>
<text text-anchor="middle" x="527.5" y="-154" font-family="Helvetica,sans-Serif" font-size="10.00">exec_cmd</text>
</a>
</g>
</g>
<!-- Node20&#45;&gt;Node21 -->
<g id="edge29_Node000020_Node000021" class="edge">
<title>Node20&#45;&gt;Node21</title>
<g id="a_edge29_Node000020_Node000021"><a xlink:title=" ">
<path fill="none" stroke="#63b8ff" d="M620.66,-156.5C601.8,-156.5 578.58,-156.5 560.16,-156.5"/>
<polygon fill="#63b8ff" stroke="#63b8ff" points="620.91,-160 630.91,-156.5 620.91,-153 620.91,-160"/>
</a>
</g>
</g>
<!-- Node22 -->
<g id="Node000022" class="node">
<title>Node22</title>
<g id="a_Node000022"><a xlink:href="ast__run_8c.html#aeb6878a59c6907e5669fc3cc428913d9" target="_top" xlink:title=" ">
<polygon fill="white" stroke="#666666" points="434.5,-166 355.5,-166 355.5,-147 434.5,-147 434.5,-166"/>
<text text-anchor="middle" x="395" y="-154" font-family="Helvetica,sans-Serif" font-size="10.00">ast_run_cmd</text>
</a>
</g>
</g>
<!-- Node21&#45;&gt;Node22 -->
<g id="edge30_Node000021_Node000022" class="edge">
<title>Node21&#45;&gt;Node22</title>
<g id="a_edge30_Node000021_Node000022"><a xlink:title=" ">
<path fill="none" stroke="#63b8ff" d="M484.74,-156.5C468.71,-156.5 450.49,-156.5 434.76,-156.5"/>
<polygon fill="#63b8ff" stroke="#63b8ff" points="484.91,-160 494.91,-156.5 484.91,-153 484.91,-160"/>
</a>
</g>
</g>
<!-- Node23 -->
<g id="Node000023" class="node">
<title>Node23</title>
<g id="a_Node000023"><a xlink:href="ast_8c.html#a572345b2707780bbbc5bbaacdca9c372" target="_top" xlink:title=" ">
<polygon fill="white" stroke="#666666" points="313,-185 260,-185 260,-166 313,-166 313,-185"/>
<text text-anchor="middle" x="286.5" y="-173" font-family="Helvetica,sans-Serif" font-size="10.00">run_ast</text>
</a>
</g>
</g>
<!-- Node22&#45;&gt;Node23 -->
<g id="edge31_Node000022_Node000023" class="edge">
<title>Node22&#45;&gt;Node23</title>
<g id="a_edge31_Node000022_Node000023"><a xlink:title=" ">
<path fill="none" stroke="#63b8ff" d="M345.2,-165.21C334.11,-167.18 322.76,-169.21 313.1,-170.93"/>
<polygon fill="#63b8ff" stroke="#63b8ff" points="346.02,-168.62 355.25,-163.41 344.79,-161.72 346.02,-168.62"/>
</a>
</g>
</g>
<!-- Node23&#45;&gt;Node16 -->
<g id="edge51_Node000023_Node000016" class="edge">
<title>Node23&#45;&gt;Node16</title>
<g id="a_edge51_Node000023_Node000016"><a xlink:title=" ">
<path fill="none" stroke="#63b8ff" d="M281.36,-195.19C271.98,-238.13 248.04,-338.3 224,-362.5 215.02,-371.54 201.37,-376.04 190.1,-378.28"/>
<polygon fill="#63b8ff" stroke="#63b8ff" points="284.8,-195.88 283.47,-185.37 277.95,-194.41 284.8,-195.88"/>
</a>
</g>
</g>
<!-- Node23&#45;&gt;Node17 -->
<g id="edge52_Node000023_Node000017" class="edge">
<title>Node23&#45;&gt;Node17</title>
<g id="a_edge52_Node000023_Node000017"><a xlink:title=" ">
<path fill="none" stroke="#63b8ff" d="M323.48,-180.15C370.19,-185.77 454.29,-194.5 526.5,-194.5 800,-194.5 800,-194.5 800,-194.5 892.09,-194.5 1000.77,-194.5 1054.3,-194.5"/>
<polygon fill="#63b8ff" stroke="#63b8ff" points="323.62,-176.64 313.26,-178.9 322.76,-183.59 323.62,-176.64"/>
</a>
</g>
</g>
<!-- Node24 -->
<g id="Node000024" class="node">
<title>Node24</title>
<g id="a_Node000024"><a xlink:href="ast__run_8c.html#a8a01fec616135007fc5b3968a101901b" target="_top" xlink:title=" ">
<polygon fill="white" stroke="#666666" points="215,-222 124,-222 124,-203 215,-203 215,-222"/>
<text text-anchor="middle" x="169.5" y="-210" font-family="Helvetica,sans-Serif" font-size="10.00">ast_run_and_or</text>
</a>
</g>
</g>
<!-- Node23&#45;&gt;Node24 -->
<g id="edge32_Node000023_Node000024" class="edge">
<title>Node23&#45;&gt;Node24</title>
<g id="a_edge32_Node000023_Node000024"><a xlink:title=" ">
<path fill="none" stroke="#63b8ff" d="M250.09,-180.61C228.37,-186.64 201.69,-195.75 185.4,-202.99"/>
<polygon fill="#63b8ff" stroke="#63b8ff" points="251.21,-183.93 259.98,-177.99 249.42,-177.16 251.21,-183.93"/>
</a>
</g>
</g>
<!-- Node25 -->
<g id="Node000025" class="node">
<title>Node25</title>
<g id="a_Node000025"><a xlink:href="ast__run_8c.html#a9d83d4834a61ffe21eb77838d70ae173" target="_top" xlink:title=" ">
<polygon fill="white" stroke="#666666" points="205,-185 134,-185 134,-166 205,-166 205,-185"/>
<text text-anchor="middle" x="169.5" y="-173" font-family="Helvetica,sans-Serif" font-size="10.00">ast_run_for</text>
</a>
</g>
</g>
<!-- Node23&#45;&gt;Node25 -->
<g id="edge34_Node000023_Node000025" class="edge">
<title>Node23&#45;&gt;Node25</title>
<g id="a_edge34_Node000023_Node000025"><a xlink:title=" ">
<path fill="none" stroke="#63b8ff" d="M249.6,-169.19C235.41,-168.58 219.17,-168.6 205.11,-169.25"/>
<polygon fill="#63b8ff" stroke="#63b8ff" points="249.8,-172.71 259.98,-169.78 250.19,-165.72 249.8,-172.71"/>
</a>
</g>
</g>
<!-- Node26 -->
<g id="Node000026" class="node">
<title>Node26</title>
<g id="a_Node000026"><a xlink:href="ast__run_8c.html#a0a7138b1f2608ea36211c9b78988c248" target="_top" xlink:title=" ">
<polygon fill="white" stroke="#666666" points="202,-148 137,-148 137,-129 202,-129 202,-148"/>
<text text-anchor="middle" x="169.5" y="-136" font-family="Helvetica,sans-Serif" font-size="10.00">ast_run_if</text>
</a>
</g>
</g>
<!-- Node23&#45;&gt;Node26 -->
<g id="edge36_Node000023_Node000026" class="edge">
<title>Node23&#45;&gt;Node26</title>
<g id="a_edge36_Node000023_Node000026"><a xlink:title=" ">
<path fill="none" stroke="#63b8ff" d="M261.1,-162.01C243.88,-155.16 220.65,-147.54 202.03,-142.55"/>
<polygon fill="#63b8ff" stroke="#63b8ff" points="259.89,-165.3 270.47,-165.93 262.59,-158.84 259.89,-165.3"/>
</a>
</g>
</g>
<!-- Node27 -->
<g id="Node000027" class="node">
<title>Node27</title>
<g id="a_Node000027"><a xlink:href="ast__run_8c.html#ae25cd3ced8abafd76110dba8852a6b87" target="_top" xlink:title=" ">
<polygon fill="white" stroke="#666666" points="206,-93 133,-93 133,-74 206,-74 206,-93"/>
<text text-anchor="middle" x="169.5" y="-81" font-family="Helvetica,sans-Serif" font-size="10.00">ast_run_list</text>
</a>
</g>
</g>
<!-- Node23&#45;&gt;Node27 -->
<g id="edge38_Node000023_Node000027" class="edge">
<title>Node23&#45;&gt;Node27</title>
<g id="a_edge38_Node000023_Node000027"><a xlink:title=" ">
<path fill="none" stroke="#63b8ff" d="M274.16,-157.87C262.09,-144.14 242.26,-125.89 224,-111.5 215.84,-105.07 206.63,-98.48 198.19,-93.1"/>
<polygon fill="#63b8ff" stroke="#63b8ff" points="271.55,-160.21 280.58,-165.76 276.98,-155.79 271.55,-160.21"/>
</a>
</g>
</g>
<!-- Node28 -->
<g id="Node000028" class="node">
<title>Node28</title>
<g id="a_Node000028"><a xlink:href="ast__run_8c.html#a536f37ba9bffcd2099fef668656181e0" target="_top" xlink:title=" ">
<polygon fill="white" stroke="#666666" points="209,-56 130,-56 130,-37 209,-37 209,-56"/>
<text text-anchor="middle" x="169.5" y="-44" font-family="Helvetica,sans-Serif" font-size="10.00">ast_run_loop</text>
</a>
</g>
</g>
<!-- Node23&#45;&gt;Node28 -->
<g id="edge41_Node000023_Node000028" class="edge">
<title>Node23&#45;&gt;Node28</title>
<g id="a_edge41_Node000023_Node000028"><a xlink:title=" ">
<path fill="none" stroke="#63b8ff" d="M281.34,-156.18C273.71,-129.52 255.3,-82.92 224,-56.5 219.63,-52.81 214.5,-49.82 209.17,-47.5"/>
<polygon fill="#63b8ff" stroke="#63b8ff" points="277.98,-157.17 283.89,-165.96 284.76,-155.4 277.98,-157.17"/>
</a>
</g>
</g>
<!-- Node29 -->
<g id="Node000029" class="node">
<title>Node29</title>
<g id="a_Node000029"><a xlink:href="ast__run_8c.html#aa3e6a973e744d748ee415840596beb53" target="_top" xlink:title=" ">
<polygon fill="white" stroke="#666666" points="224,-353 115,-353 115,-334 224,-334 224,-353"/>
<text text-anchor="middle" x="169.5" y="-341" font-family="Helvetica,sans-Serif" font-size="10.00">ast_run_shell_redir</text>
</a>
</g>
</g>
<!-- Node23&#45;&gt;Node29 -->
<g id="edge43_Node000023_Node000029" class="edge">
<title>Node23&#45;&gt;Node29</title>
<g id="a_edge43_Node000023_Node000029"><a xlink:title=" ">
<path fill="none" stroke="#63b8ff" d="M281.67,-195.03C275.4,-225.38 259.84,-282.9 224,-316.5 214.13,-325.75 199.36,-330.26 187.83,-333.86"/>
<polygon fill="#63b8ff" stroke="#63b8ff" points="285.11,-195.66 283.58,-185.18 278.24,-194.33 285.11,-195.66"/>
</a>
</g>
</g>
<!-- Node30 -->
<g id="Node000030" class="node">
<title>Node30</title>
<g id="a_Node000030"><a xlink:href="exec_8c.html#a23babf893bbcd2f6126698a1a19b169f" target="_top" xlink:title="Execute funct with given arguments.">
<polygon fill="white" stroke="#666666" points="202,-19 137,-19 137,0 202,0 202,-19"/>
<text text-anchor="middle" x="169.5" y="-7" font-family="Helvetica,sans-Serif" font-size="10.00">exec_func</text>
</a>
</g>
</g>
<!-- Node23&#45;&gt;Node30 -->
<g id="edge45_Node000023_Node000030" class="edge">
<title>Node23&#45;&gt;Node30</title>
<g id="a_edge45_Node000023_Node000030"><a xlink:title=" ">
<path fill="none" stroke="#63b8ff" d="M282.56,-155.44C276.89,-123.84 261.51,-62.49 224,-27.5 217.91,-21.82 209.97,-17.92 202.07,-15.26"/>
<polygon fill="#63b8ff" stroke="#63b8ff" points="279.16,-156.33 284.23,-165.63 286.07,-155.19 279.16,-156.33"/>
</a>
</g>
</g>
<!-- Node31 -->
<g id="Node000031" class="node">
<title>Node31</title>
<g id="a_Node000031"><a xlink:href="exec_8c.html#ab743cb88e12e9b922050925fd2075e36" target="_top" xlink:title="Execute a pipeline of commands.">
<polygon fill="white" stroke="#666666" points="202,-298 137,-298 137,-279 202,-279 202,-298"/>
<text text-anchor="middle" x="169.5" y="-286" font-family="Helvetica,sans-Serif" font-size="10.00">exec_pipe</text>
</a>
</g>
</g>
<!-- Node23&#45;&gt;Node31 -->
<g id="edge47_Node000023_Node000031" class="edge">
<title>Node23&#45;&gt;Node31</title>
<g id="a_edge47_Node000023_Node000031"><a xlink:title=" ">
<path fill="none" stroke="#63b8ff" d="M276.46,-194.27C266.15,-214 247.61,-244.86 224,-264.5 216.8,-270.49 207.87,-275.27 199.37,-278.95"/>
<polygon fill="#63b8ff" stroke="#63b8ff" points="279.72,-195.59 281.09,-185.08 273.46,-192.44 279.72,-195.59"/>
</a>
</g>
</g>
<!-- Node24&#45;&gt;Node23 -->
<g id="edge33_Node000024_Node000023" class="edge">
<title>Node24&#45;&gt;Node23</title>
<g id="a_edge33_Node000024_Node000023"><a xlink:title=" ">
<path fill="none" stroke="#63b8ff" d="M224.85,-201.75C241.6,-196.46 258.71,-190.29 270.47,-185.07"/>
<polygon fill="#63b8ff" stroke="#63b8ff" points="223.61,-198.48 215.07,-204.76 225.66,-205.17 223.61,-198.48"/>
</a>
</g>
</g>
<!-- Node25&#45;&gt;Node23 -->
<g id="edge35_Node000025_Node000023" class="edge">
<title>Node25&#45;&gt;Node23</title>
<g id="a_edge35_Node000025_Node000023"><a xlink:title=" ">
<path fill="none" stroke="#63b8ff" d="M215.34,-182.1C230.48,-182.46 246.86,-182.17 259.98,-181.22"/>
<polygon fill="#63b8ff" stroke="#63b8ff" points="215.23,-178.6 205.11,-181.75 214.98,-185.59 215.23,-178.6"/>
</a>
</g>
</g>
<!-- Node26&#45;&gt;Node23 -->
<g id="edge37_Node000026_Node000023" class="edge">
<title>Node26&#45;&gt;Node23</title>
<g id="a_edge37_Node000026_Node000023"><a xlink:title=" ">
<path fill="none" stroke="#63b8ff" d="M194.64,-151.89C213.79,-159.52 240.48,-168.14 259.98,-173.01"/>
<polygon fill="#63b8ff" stroke="#63b8ff" points="195.97,-148.65 185.4,-148.01 193.27,-155.1 195.97,-148.65"/>
</a>
</g>
</g>
<!-- Node27&#45;&gt;Node23 -->
<g id="edge40_Node000027_Node000023" class="edge">
<title>Node27&#45;&gt;Node23</title>
<g id="a_edge40_Node000027_Node000023"><a xlink:title=" ">
<path fill="none" stroke="#63b8ff" d="M184.66,-99.95C195.64,-108.81 211.12,-119.35 224,-129.5 239.19,-141.47 255.46,-156.11 267.45,-165.95"/>
<polygon fill="#63b8ff" stroke="#63b8ff" points="186.78,-97.16 176.94,-93.24 182.19,-102.44 186.78,-97.16"/>
</a>
</g>
</g>
<!-- Node27&#45;&gt;Node27 -->
<g id="edge39_Node000027_Node000027" class="edge">
<title>Node27&#45;&gt;Node27</title>
<g id="a_edge39_Node000027_Node000027"><a xlink:title=" ">
<path fill="none" stroke="#63b8ff" d="M190.98,-102.55C189.55,-107.38 182.39,-111 169.5,-111 148.88,-111 142.92,-101.73 151.62,-93.08"/>
<polygon fill="#63b8ff" stroke="#63b8ff" points="194.2,-101.19 187.38,-93.08 187.66,-103.67 194.2,-101.19"/>
</a>
</g>
</g>
<!-- Node28&#45;&gt;Node23 -->
<g id="edge42_Node000028_Node000023" class="edge">
<title>Node28&#45;&gt;Node23</title>
<g id="a_edge42_Node000028_Node000023"><a xlink:title=" ">
<path fill="none" stroke="#63b8ff" d="M194.81,-59.47C204.7,-63.03 215.73,-67.52 224,-74.5 254.59,-100.33 272.88,-145.44 280.81,-165.78"/>
<polygon fill="#63b8ff" stroke="#63b8ff" points="195.67,-56.06 185.08,-56.03 193.34,-62.66 195.67,-56.06"/>
</a>
</g>
</g>
<!-- Node29&#45;&gt;Node23 -->
<g id="edge44_Node000029_Node000023" class="edge">
<title>Node29&#45;&gt;Node23</title>
<g id="a_edge44_Node000029_Node000023"><a xlink:title=" ">
<path fill="none" stroke="#63b8ff" d="M231.29,-327.04C270.21,-283.74 282.05,-211.68 284.8,-185.1"/>
<polygon fill="#63b8ff" stroke="#63b8ff" points="228.74,-324.65 224.26,-334.25 233.75,-329.54 228.74,-324.65"/>
</a>
</g>
</g>
<!-- Node30&#45;&gt;Node21 -->
<g id="edge46_Node000030_Node000021" class="edge">
<title>Node30&#45;&gt;Node21</title>
<g id="a_edge46_Node000030_Node000021"><a xlink:title=" ">
<path fill="none" stroke="#63b8ff" d="M209.99,-22.39C214.73,-24.06 219.49,-25.78 224,-27.5 331.25,-68.34 456.56,-124.57 505.46,-146.85"/>
<polygon fill="#63b8ff" stroke="#63b8ff" points="210.96,-19.03 200.36,-19.09 208.68,-25.65 210.96,-19.03"/>
</a>
</g>
</g>
<!-- Node31&#45;&gt;Node31 -->
<g id="edge50_Node000031_Node000031" class="edge">
<title>Node31&#45;&gt;Node31</title>
<g id="a_edge50_Node000031_Node000031"><a xlink:title=" ">
<path fill="none" stroke="#63b8ff" d="M190.98,-307.55C189.55,-312.38 182.39,-316 169.5,-316 148.88,-316 142.92,-306.73 151.62,-298.08"/>
<polygon fill="#63b8ff" stroke="#63b8ff" points="194.2,-306.19 187.38,-298.08 187.66,-308.67 194.2,-306.19"/>
</a>
</g>
</g>
<!-- Node32 -->
<g id="Node000032" class="node">
<title>Node32</title>
<g id="a_Node000032"><a xlink:href="ast__run_8c.html#a24d0223822f7b635628199085c3283be" target="_top" xlink:title=" ">
<polygon fill="white" stroke="#666666" points="79,-279 0,-279 0,-260 79,-260 79,-279"/>
<text text-anchor="middle" x="39.5" y="-267" font-family="Helvetica,sans-Serif" font-size="10.00">ast_run_pipe</text>
</a>
</g>
</g>
<!-- Node31&#45;&gt;Node32 -->
<g id="edge48_Node000031_Node000032" class="edge">
<title>Node31&#45;&gt;Node32</title>
<g id="a_edge48_Node000031_Node000032"><a xlink:title=" ">
<path fill="none" stroke="#63b8ff" d="M126.62,-282.28C111.32,-280.01 94.09,-277.45 79.08,-275.23"/>
<polygon fill="#63b8ff" stroke="#63b8ff" points="126.45,-285.8 136.86,-283.8 127.48,-278.87 126.45,-285.8"/>
</a>
</g>
</g>
<!-- Node32&#45;&gt;Node23 -->
<g id="edge49_Node000032_Node000023" class="edge">
<title>Node32&#45;&gt;Node23</title>
<g id="a_edge49_Node000032_Node000023"><a xlink:title=" ">
<path fill="none" stroke="#63b8ff" d="M89.75,-266.41C128.1,-262.37 181.74,-253.04 224,-231.5 246.64,-219.96 267.22,-197.82 277.87,-185.11"/>
<polygon fill="#63b8ff" stroke="#63b8ff" points="88.97,-262.97 79.36,-267.42 89.65,-269.94 88.97,-262.97"/>
</a>
</g>
</g>
</g>
</svg>
