<?xml version="1.0" encoding="UTF-8" standalone="no"?>
<!DOCTYPE svg PUBLIC "-//W3C//DTD SVG 1.1//EN"
 "http://www.w3.org/Graphics/SVG/1.1/DTD/svg11.dtd">
<!-- Generated by graphviz version 2.43.0 (0)
 -->
<!-- Title: parser_rule_for_aux Pages: 1 -->
<svg width="1138pt" height="704pt"
 viewBox="0.00 0.00 1138.00 704.00" xmlns="http://www.w3.org/2000/svg" xmlns:xlink="http://www.w3.org/1999/xlink">
<g id="graph0" class="graph" transform="scale(1 1) rotate(0) translate(4 700)">
<title>parser_rule_for_aux</title>
<!-- Node1 -->
<g id="Node000001" class="node">
<title>Node1</title>
<g id="a_Node000001"><a xlink:title=" ">
<polygon fill="#999999" stroke="#666666" points="113,-640 0,-640 0,-621 113,-621 113,-640"/>
<text text-anchor="middle" x="56.5" y="-628" font-family="Helvetica,sans-Serif" font-size="10.00">parser_rule_for_aux</text>
</a>
</g>
</g>
<!-- Node2 -->
<g id="Node000002" class="node">
<title>Node2</title>
<g id="a_Node000002"><a xlink:href="parser__utils_8c.html#a850bf7ce4f8841d46020a022c0ab32fc" target="_top" xlink:title="Free a discarded token.">
<polygon fill="white" stroke="#666666" points="304,-689 220,-689 220,-670 304,-670 304,-689"/>
<text text-anchor="middle" x="262" y="-677" font-family="Helvetica,sans-Serif" font-size="10.00">discard_token</text>
</a>
</g>
</g>
<!-- Node1&#45;&gt;Node2 -->
<g id="edge1_Node000001_Node000002" class="edge">
<title>Node1&#45;&gt;Node2</title>
<g id="a_edge1_Node000001_Node000002"><a xlink:title=" ">
<path fill="none" stroke="#63b8ff" d="M97.22,-640.06C129.86,-647.92 176.26,-659.1 211.34,-667.54"/>
<polygon fill="#63b8ff" stroke="#63b8ff" points="210.84,-671.02 221.38,-669.96 212.48,-664.22 210.84,-671.02"/>
</a>
</g>
</g>
<!-- Node4 -->
<g id="Node000004" class="node">
<title>Node4</title>
<g id="a_Node000004"><a xlink:href="parser__utils_8c.html#a0f885603168edee811b2b6880a9bf598" target="_top" xlink:title="Peek on the lexer to see the current token.">
<polygon fill="white" stroke="#666666" points="282.5,-602 241.5,-602 241.5,-583 282.5,-583 282.5,-602"/>
<text text-anchor="middle" x="262" y="-590" font-family="Helvetica,sans-Serif" font-size="10.00">peek</text>
</a>
</g>
</g>
<!-- Node1&#45;&gt;Node4 -->
<g id="edge3_Node000001_Node000004" class="edge">
<title>Node1&#45;&gt;Node4</title>
<g id="a_edge3_Node000001_Node000004"><a xlink:title=" ">
<path fill="none" stroke="#63b8ff" d="M101.65,-620.99C116.65,-617.85 133.54,-614.42 149,-611.5 176.77,-606.26 208.55,-600.93 231.14,-597.26"/>
<polygon fill="#63b8ff" stroke="#63b8ff" points="231.82,-600.7 241.13,-595.64 230.7,-593.78 231.82,-600.7"/>
</a>
</g>
</g>
<!-- Node32 -->
<g id="Node000032" class="node">
<title>Node32</title>
<g id="a_Node000032"><a xlink:href="parser__utils_8c.html#a2231147ddff6c3f7ee8c218a9273465e" target="_top" xlink:title="Pop the current token from lex.">
<polygon fill="white" stroke="#666666" points="184,-640 149,-640 149,-621 184,-621 184,-640"/>
<text text-anchor="middle" x="166.5" y="-628" font-family="Helvetica,sans-Serif" font-size="10.00">pop</text>
</a>
</g>
</g>
<!-- Node1&#45;&gt;Node32 -->
<g id="edge47_Node000001_Node000032" class="edge">
<title>Node1&#45;&gt;Node32</title>
<g id="a_edge47_Node000001_Node000032"><a xlink:title=" ">
<path fill="none" stroke="#63b8ff" d="M113.08,-630.5C121.93,-630.5 130.73,-630.5 138.52,-630.5"/>
<polygon fill="#63b8ff" stroke="#63b8ff" points="138.75,-634 148.75,-630.5 138.75,-627 138.75,-634"/>
</a>
</g>
</g>
<!-- Node3 -->
<g id="Node000003" class="node">
<title>Node3</title>
<g id="a_Node000003"><a xlink:href="token_8c.html#a491cb915cd703d12b24d7c6adc0412cc" target="_top" xlink:title=" ">
<polygon fill="white" stroke="#666666" points="486.5,-696 418.5,-696 418.5,-677 486.5,-677 486.5,-696"/>
<text text-anchor="middle" x="452.5" y="-684" font-family="Helvetica,sans-Serif" font-size="10.00">free_token</text>
</a>
</g>
</g>
<!-- Node2&#45;&gt;Node3 -->
<g id="edge2_Node000002_Node000003" class="edge">
<title>Node2&#45;&gt;Node3</title>
<g id="a_edge2_Node000002_Node000003"><a xlink:title=" ">
<path fill="none" stroke="#63b8ff" d="M304.37,-681.04C335.14,-682.18 377.02,-683.73 408.23,-684.89"/>
<polygon fill="#63b8ff" stroke="#63b8ff" points="408.26,-688.4 418.38,-685.27 408.52,-681.4 408.26,-688.4"/>
</a>
</g>
</g>
<!-- Node5 -->
<g id="Node000005" class="node">
<title>Node5</title>
<g id="a_Node000005"><a xlink:href="lexer_8c.html#ab0a076d4847ef2557a4e8d2e0852092d" target="_top" xlink:title="Transforme le FILE en token.">
<polygon fill="white" stroke="#666666" points="381,-585 340,-585 340,-566 381,-566 381,-585"/>
<text text-anchor="middle" x="360.5" y="-573" font-family="Helvetica,sans-Serif" font-size="10.00">lexer</text>
</a>
</g>
</g>
<!-- Node4&#45;&gt;Node5 -->
<g id="edge4_Node000004_Node000005" class="edge">
<title>Node4&#45;&gt;Node5</title>
<g id="a_edge4_Node000004_Node000005"><a xlink:title=" ">
<path fill="none" stroke="#63b8ff" d="M282.53,-589.06C296.04,-586.68 314.28,-583.47 329.61,-580.76"/>
<polygon fill="#63b8ff" stroke="#63b8ff" points="330.43,-584.18 339.67,-578.99 329.21,-577.28 330.43,-584.18"/>
</a>
</g>
</g>
<!-- Node5&#45;&gt;Node3 -->
<g id="edge7_Node000005_Node000003" class="edge">
<title>Node5&#45;&gt;Node3</title>
<g id="a_edge7_Node000005_Node000003"><a xlink:title=" ">
<path fill="none" stroke="#63b8ff" d="M365.33,-585.22C372.87,-603.34 391.18,-642.68 417,-667.5 418.4,-668.85 419.92,-670.14 421.52,-671.35"/>
<polygon fill="#63b8ff" stroke="#63b8ff" points="419.6,-674.28 429.87,-676.87 423.46,-668.44 419.6,-674.28"/>
</a>
</g>
</g>
<!-- Node6 -->
<g id="Node000006" class="node">
<title>Node6</title>
<g id="a_Node000006"><a xlink:href="lexer__tokens_8c.html#ae59c383936dadf54742b836a5bd2a70b" target="_top" xlink:title=" ">
<polygon fill="white" stroke="#666666" points="915.5,-95 843.5,-95 843.5,-76 915.5,-76 915.5,-95"/>
<text text-anchor="middle" x="879.5" y="-83" font-family="Helvetica,sans-Serif" font-size="10.00">check_type</text>
</a>
</g>
</g>
<!-- Node5&#45;&gt;Node6 -->
<g id="edge5_Node000005_Node000006" class="edge">
<title>Node5&#45;&gt;Node6</title>
<g id="a_edge5_Node000005_Node000006"><a xlink:title=" ">
<path fill="none" stroke="#63b8ff" d="M362.86,-565.8C370.11,-517.65 408.2,-301.66 524,-179.5 606,-93 757.63,-82.74 833.21,-83.47"/>
<polygon fill="#63b8ff" stroke="#63b8ff" points="833.3,-86.98 843.36,-83.64 833.42,-79.98 833.3,-86.98"/>
</a>
</g>
</g>
<!-- Node7 -->
<g id="Node000007" class="node">
<title>Node7</title>
<g id="a_Node000007"><a xlink:href="lexer__tokens_8c.html#af41b4fb75a0f3ece50d1c55cf5ad55bd" target="_top" xlink:title=" ">
<polygon fill="white" stroke="#666666" points="486,-659 419,-659 419,-640 486,-640 486,-659"/>
<text text-anchor="middle" x="452.5" y="-647" font-family="Helvetica,sans-Serif" font-size="10.00">end_token</text>
</a>
</g>
</g>
<!-- Node5&#45;&gt;Node7 -->
<g id="edge6_Node000005_Node000007" class="edge">
<title>Node5&#45;&gt;Node7</title>
<g id="a_edge6_Node000005_Node000007"><a xlink:title=" ">
<path fill="none" stroke="#63b8ff" d="M369.83,-585.27C380.12,-596.97 398.53,-616.69 417,-630.5 418.87,-631.9 420.85,-633.26 422.89,-634.57"/>
<polygon fill="#63b8ff" stroke="#63b8ff" points="421.55,-637.85 431.93,-639.95 425.13,-631.83 421.55,-637.85"/>
</a>
</g>
</g>
<!-- Node8 -->
<g id="Node000008" class="node">
<title>Node8</title>
<g id="a_Node000008"><a xlink:href="token_8c.html#a4f0f028b792947862bc2364f30f3d3d2" target="_top" xlink:title="Init struct token.">
<polygon fill="white" stroke="#666666" points="485,-622 420,-622 420,-603 485,-603 485,-622"/>
<text text-anchor="middle" x="452.5" y="-610" font-family="Helvetica,sans-Serif" font-size="10.00">init_token</text>
</a>
</g>
</g>
<!-- Node5&#45;&gt;Node8 -->
<g id="edge8_Node000005_Node000008" class="edge">
<title>Node5&#45;&gt;Node8</title>
<g id="a_edge8_Node000005_Node000008"><a xlink:title=" ">
<path fill="none" stroke="#63b8ff" d="M381.03,-583.53C392.07,-588.07 406.16,-593.86 418.84,-599.07"/>
<polygon fill="#63b8ff" stroke="#63b8ff" points="417.6,-602.35 428.18,-602.91 420.26,-595.87 417.6,-602.35"/>
</a>
</g>
</g>
<!-- Node9 -->
<g id="Node000009" class="node">
<title>Node9</title>
<g id="a_Node000009"><a xlink:href="lexer__operators_8c.html#a274e606313b69e42745e7278ed244bc8" target="_top" xlink:title="Handle a possible operator.">
<polygon fill="white" stroke="#666666" points="613,-547 539,-547 539,-528 613,-528 613,-547"/>
<text text-anchor="middle" x="576" y="-535" font-family="Helvetica,sans-Serif" font-size="10.00">manage_op</text>
</a>
</g>
</g>
<!-- Node5&#45;&gt;Node9 -->
<g id="edge9_Node000005_Node000009" class="edge">
<title>Node5&#45;&gt;Node9</title>
<g id="a_edge9_Node000005_Node000009"><a xlink:title=" ">
<path fill="none" stroke="#63b8ff" d="M381.24,-567.61C391.72,-563.71 404.89,-559.27 417,-556.5 454.02,-548.04 496.84,-543.18 528.56,-540.5"/>
<polygon fill="#63b8ff" stroke="#63b8ff" points="529.17,-543.97 538.86,-539.68 528.61,-536.99 529.17,-543.97"/>
</a>
</g>
</g>
<!-- Node11 -->
<g id="Node000011" class="node">
<title>Node11</title>
<g id="a_Node000011"><a xlink:href="lexer__operators_8c.html#a0758cae1bae4276754a185e231ad4760" target="_top" xlink:title="Handle different redirections.">
<polygon fill="white" stroke="#666666" points="762,-509 678,-509 678,-490 762,-490 762,-509"/>
<text text-anchor="middle" x="720" y="-497" font-family="Helvetica,sans-Serif" font-size="10.00">manage_redir</text>
</a>
</g>
</g>
<!-- Node5&#45;&gt;Node11 -->
<g id="edge11_Node000005_Node000011" class="edge">
<title>Node5&#45;&gt;Node11</title>
<g id="a_edge11_Node000005_Node000011"><a xlink:title=" ">
<path fill="none" stroke="#63b8ff" d="M374.51,-565.77C385.35,-558.11 401.47,-547.71 417,-541.5 500.39,-508.13 605.92,-500.54 667.59,-499.22"/>
<polygon fill="#63b8ff" stroke="#63b8ff" points="667.91,-502.72 677.85,-499.05 667.79,-495.72 667.91,-502.72"/>
</a>
</g>
</g>
<!-- Node12 -->
<g id="Node000012" class="node">
<title>Node12</title>
<g id="a_Node000012"><a xlink:href="lexer_8c.html#a14a1affa5f1ee7d92339872bcd3cc602" target="_top" xlink:title="identique a la fonction lexer">
<polygon fill="white" stroke="#666666" points="488,-433 417,-433 417,-414 488,-414 488,-433"/>
<text text-anchor="middle" x="452.5" y="-421" font-family="Helvetica,sans-Serif" font-size="10.00">sub_switch</text>
</a>
</g>
</g>
<!-- Node5&#45;&gt;Node12 -->
<g id="edge13_Node000005_Node000012" class="edge">
<title>Node5&#45;&gt;Node12</title>
<g id="a_edge13_Node000005_Node000012"><a xlink:title=" ">
<path fill="none" stroke="#63b8ff" d="M367.13,-565.99C381.78,-541.25 421.27,-474.55 440.58,-441.94"/>
<polygon fill="#63b8ff" stroke="#63b8ff" points="443.79,-443.39 445.87,-433 437.77,-439.83 443.79,-443.39"/>
</a>
</g>
</g>
<!-- Node29 -->
<g id="Node000029" class="node">
<title>Node29</title>
<g id="a_Node000029"><a xlink:href="lexer__tokens_8c.html#a78b2b413e7059cf4c7579a83bf767d13" target="_top" xlink:title=" ">
<polygon fill="white" stroke="#666666" points="488,-585 417,-585 417,-566 488,-566 488,-585"/>
<text text-anchor="middle" x="452.5" y="-573" font-family="Helvetica,sans-Serif" font-size="10.00">verif_token</text>
</a>
</g>
</g>
<!-- Node5&#45;&gt;Node29 -->
<g id="edge44_Node000005_Node000029" class="edge">
<title>Node5&#45;&gt;Node29</title>
<g id="a_edge44_Node000005_Node000029"><a xlink:title=" ">
<path fill="none" stroke="#63b8ff" d="M381.03,-575.5C388.62,-575.5 397.64,-575.5 406.66,-575.5"/>
<polygon fill="#63b8ff" stroke="#63b8ff" points="406.77,-579 416.77,-575.5 406.77,-572 406.77,-579"/>
</a>
</g>
</g>
<!-- Node10 -->
<g id="Node000010" class="node">
<title>Node10</title>
<g id="a_Node000010"><a xlink:href="dot_8c.html#a36f9e0f75603ec6472a90c595e3bba79" target="_top" xlink:title="Concat path and string with &#39;/&#39; between.">
<polygon fill="white" stroke="#666666" points="1035,-301 986,-301 986,-282 1035,-282 1035,-301"/>
<text text-anchor="middle" x="1010.5" y="-289" font-family="Helvetica,sans-Serif" font-size="10.00">concat</text>
</a>
</g>
</g>
<!-- Node9&#45;&gt;Node10 -->
<g id="edge10_Node000009_Node000010" class="edge">
<title>Node9&#45;&gt;Node10</title>
<g id="a_edge10_Node000009_Node000010"><a xlink:title=" ">
<path fill="none" stroke="#63b8ff" d="M613.16,-546.68C685.52,-562.74 849.55,-587.11 947,-507.5 977.86,-482.29 999.24,-359.94 1006.64,-311.4"/>
<polygon fill="#63b8ff" stroke="#63b8ff" points="1010.15,-311.64 1008.15,-301.24 1003.22,-310.62 1010.15,-311.64"/>
</a>
</g>
</g>
<!-- Node11&#45;&gt;Node10 -->
<g id="edge12_Node000011_Node000010" class="edge">
<title>Node11&#45;&gt;Node10</title>
<g id="a_edge12_Node000011_Node000010"><a xlink:title=" ">
<path fill="none" stroke="#63b8ff" d="M762.21,-507.32C811.66,-514.21 894.46,-517.52 947,-475.5 998.1,-434.64 1007.64,-350.09 1009.27,-311.49"/>
<polygon fill="#63b8ff" stroke="#63b8ff" points="1012.78,-311.18 1009.56,-301.09 1005.78,-310.99 1012.78,-311.18"/>
</a>
</g>
</g>
<!-- Node12&#45;&gt;Node10 -->
<g id="edge14_Node000012_Node000010" class="edge">
<title>Node12&#45;&gt;Node10</title>
<g id="a_edge14_Node000012_Node000010"><a xlink:title=" ">
<path fill="none" stroke="#63b8ff" d="M485.15,-433.07C497.2,-436.32 511.13,-439.6 524,-441.5 617.01,-455.22 870.42,-488.05 947,-433.5 987.64,-404.55 1002.19,-343.14 1007.13,-311.41"/>
<polygon fill="#63b8ff" stroke="#63b8ff" points="1010.64,-311.56 1008.54,-301.18 1003.71,-310.6 1010.64,-311.56"/>
</a>
</g>
</g>
<!-- Node13 -->
<g id="Node000013" class="node">
<title>Node13</title>
<g id="a_Node000013"><a xlink:href="lexer__handlers_8c.html#aaf817088d95d074a2d4e6bfce7799723" target="_top" xlink:title=" ">
<polygon fill="white" stroke="#666666" points="614,-433 538,-433 538,-414 614,-414 614,-433"/>
<text text-anchor="middle" x="576" y="-421" font-family="Helvetica,sans-Serif" font-size="10.00">handle_com</text>
</a>
</g>
</g>
<!-- Node12&#45;&gt;Node13 -->
<g id="edge15_Node000012_Node000013" class="edge">
<title>Node12&#45;&gt;Node13</title>
<g id="a_edge15_Node000012_Node000013"><a xlink:title=" ">
<path fill="none" stroke="#63b8ff" d="M488.32,-423.5C500.49,-423.5 514.37,-423.5 527.41,-423.5"/>
<polygon fill="#63b8ff" stroke="#63b8ff" points="527.63,-427 537.63,-423.5 527.63,-420 527.63,-427"/>
</a>
</g>
</g>
<!-- Node14 -->
<g id="Node000014" class="node">
<title>Node14</title>
<g id="a_Node000014"><a xlink:href="lexer__handlers_8c.html#aa76e470a78c6e91c7db6cce558b1a768" target="_top" xlink:title=" ">
<polygon fill="white" stroke="#666666" points="617.5,-395 534.5,-395 534.5,-376 617.5,-376 617.5,-395"/>
<text text-anchor="middle" x="576" y="-383" font-family="Helvetica,sans-Serif" font-size="10.00">handle_quote</text>
</a>
</g>
</g>
<!-- Node12&#45;&gt;Node14 -->
<g id="edge17_Node000012_Node000014" class="edge">
<title>Node12&#45;&gt;Node14</title>
<g id="a_edge17_Node000012_Node000014"><a xlink:title=" ">
<path fill="none" stroke="#63b8ff" d="M484.16,-413.91C499.41,-409.14 518.05,-403.31 534.47,-398.18"/>
<polygon fill="#63b8ff" stroke="#63b8ff" points="535.85,-401.41 544.35,-395.09 533.76,-394.73 535.85,-401.41"/>
</a>
</g>
</g>
<!-- Node15 -->
<g id="Node000015" class="node">
<title>Node15</title>
<g id="a_Node000015"><a xlink:href="lexer_8c.html#a65b9b0626e01e0653ddcae13e7c6a709" target="_top" xlink:title="Gestion des délimiteurs.">
<polygon fill="white" stroke="#666666" points="628,-208 524,-208 524,-189 628,-189 628,-208"/>
<text text-anchor="middle" x="576" y="-196" font-family="Helvetica,sans-Serif" font-size="10.00">sub_switch_delim</text>
</a>
</g>
</g>
<!-- Node12&#45;&gt;Node15 -->
<g id="edge19_Node000012_Node000015" class="edge">
<title>Node12&#45;&gt;Node15</title>
<g id="a_edge19_Node000012_Node000015"><a xlink:title=" ">
<path fill="none" stroke="#63b8ff" d="M458.72,-413.83C477.3,-379.43 540.39,-262.59 565.03,-216.96"/>
<polygon fill="#63b8ff" stroke="#63b8ff" points="568.13,-218.59 569.8,-208.13 561.97,-215.27 568.13,-218.59"/>
</a>
</g>
</g>
<!-- Node13&#45;&gt;Node10 -->
<g id="edge16_Node000013_Node000010" class="edge">
<title>Node13&#45;&gt;Node10</title>
<g id="a_edge16_Node000013_Node000010"><a xlink:title=" ">
<path fill="none" stroke="#63b8ff" d="M614.27,-431.48C685.09,-444.51 841.45,-462.81 947,-397.5 978.65,-377.92 996.17,-335.89 1004.13,-311.05"/>
<polygon fill="#63b8ff" stroke="#63b8ff" points="1007.54,-311.85 1007.05,-301.27 1000.83,-309.85 1007.54,-311.85"/>
</a>
</g>
</g>
<!-- Node14&#45;&gt;Node10 -->
<g id="edge18_Node000014_Node000010" class="edge">
<title>Node14&#45;&gt;Node10</title>
<g id="a_edge18_Node000014_Node000010"><a xlink:title=" ">
<path fill="none" stroke="#63b8ff" d="M617.68,-393.28C688.75,-404.79 838.29,-419.59 947,-365.5 971.01,-353.55 989.36,-327.78 999.78,-310.03"/>
<polygon fill="#63b8ff" stroke="#63b8ff" points="1002.93,-311.58 1004.74,-301.14 996.82,-308.17 1002.93,-311.58"/>
</a>
</g>
</g>
<!-- Node15&#45;&gt;Node6 -->
<g id="edge20_Node000015_Node000006" class="edge">
<title>Node15&#45;&gt;Node6</title>
<g id="a_edge20_Node000015_Node000006"><a xlink:title=" ">
<path fill="none" stroke="#63b8ff" d="M589.26,-188.83C605.49,-176.46 635.41,-155.13 664,-142.5 719.92,-117.81 788.91,-101.83 833.29,-93.25"/>
<polygon fill="#63b8ff" stroke="#63b8ff" points="834.02,-96.67 843.2,-91.38 832.72,-89.79 834.02,-96.67"/>
</a>
</g>
</g>
<!-- Node16 -->
<g id="Node000016" class="node">
<title>Node16</title>
<g id="a_Node000016"><a xlink:href="lexer__handlers_8c.html#a9cdc56179aaccddb64447a4d56698992" target="_top" xlink:title=" ">
<polygon fill="white" stroke="#666666" points="772,-171 668,-171 668,-152 772,-152 772,-171"/>
<text text-anchor="middle" x="720" y="-159" font-family="Helvetica,sans-Serif" font-size="10.00">handle_backslash</text>
</a>
</g>
</g>
<!-- Node15&#45;&gt;Node16 -->
<g id="edge21_Node000015_Node000016" class="edge">
<title>Node15&#45;&gt;Node16</title>
<g id="a_edge21_Node000015_Node000016"><a xlink:title=" ">
<path fill="none" stroke="#63b8ff" d="M613.57,-188.97C631.48,-184.3 653.26,-178.63 672.35,-173.65"/>
<polygon fill="#63b8ff" stroke="#63b8ff" points="673.27,-177.03 682.06,-171.12 671.5,-170.26 673.27,-177.03"/>
</a>
</g>
</g>
<!-- Node17 -->
<g id="Node000017" class="node">
<title>Node17</title>
<g id="a_Node000017"><a xlink:href="lexer__handlers_8c.html#a8c5df02ee3ff790dc6256318b3dd132f" target="_top" xlink:title="Crée un token de type OPENING_BRACKET ou CLOSING_BRACKET si possible.">
<polygon fill="white" stroke="#666666" points="765.5,-320 674.5,-320 674.5,-301 765.5,-301 765.5,-320"/>
<text text-anchor="middle" x="720" y="-308" font-family="Helvetica,sans-Serif" font-size="10.00">handle_bracket</text>
</a>
</g>
</g>
<!-- Node15&#45;&gt;Node17 -->
<g id="edge23_Node000015_Node000017" class="edge">
<title>Node15&#45;&gt;Node17</title>
<g id="a_edge23_Node000015_Node000017"><a xlink:title=" ">
<path fill="none" stroke="#63b8ff" d="M589.11,-208.05C613.52,-227.31 668.89,-270.98 698.85,-294.61"/>
<polygon fill="#63b8ff" stroke="#63b8ff" points="696.9,-297.53 706.92,-300.98 701.24,-292.03 696.9,-297.53"/>
</a>
</g>
</g>
<!-- Node20 -->
<g id="Node000020" class="node">
<title>Node20</title>
<g id="a_Node000020"><a xlink:href="lexer__handlers_8c.html#a579ccaa49e18cca908ce2409b06b5825" target="_top" xlink:title=" ">
<polygon fill="white" stroke="#666666" points="769.5,-246 670.5,-246 670.5,-227 769.5,-227 769.5,-246"/>
<text text-anchor="middle" x="720" y="-234" font-family="Helvetica,sans-Serif" font-size="10.00">handle_delimiter</text>
</a>
</g>
</g>
<!-- Node15&#45;&gt;Node20 -->
<g id="edge28_Node000015_Node000020" class="edge">
<title>Node15&#45;&gt;Node20</title>
<g id="a_edge28_Node000015_Node000020"><a xlink:title=" ">
<path fill="none" stroke="#63b8ff" d="M612.83,-208.09C631.16,-212.99 653.68,-219.02 673.25,-224.26"/>
<polygon fill="#63b8ff" stroke="#63b8ff" points="672.61,-227.71 683.18,-226.91 674.42,-220.95 672.61,-227.71"/>
</a>
</g>
</g>
<!-- Node24 -->
<g id="Node000024" class="node">
<title>Node24</title>
<g id="a_Node000024"><a xlink:href="lexer__handlers_8c.html#a3122df83e320b8f4658097885f266c59" target="_top" xlink:title="Crée un token de type FUNCTION si possible.">
<polygon fill="white" stroke="#666666" points="776,-208 664,-208 664,-189 776,-189 776,-208"/>
<text text-anchor="middle" x="720" y="-196" font-family="Helvetica,sans-Serif" font-size="10.00">handle_parenthesis</text>
</a>
</g>
</g>
<!-- Node15&#45;&gt;Node24 -->
<g id="edge35_Node000015_Node000024" class="edge">
<title>Node15&#45;&gt;Node24</title>
<g id="a_edge35_Node000015_Node000024"><a xlink:title=" ">
<path fill="none" stroke="#63b8ff" d="M628.27,-198.5C636.6,-198.5 645.33,-198.5 653.95,-198.5"/>
<polygon fill="#63b8ff" stroke="#63b8ff" points="653.97,-202 663.97,-198.5 653.97,-195 653.97,-202"/>
</a>
</g>
</g>
<!-- Node25 -->
<g id="Node000025" class="node">
<title>Node25</title>
<g id="a_Node000025"><a xlink:href="lexer_8c.html#a55722ded9ba13bad6ac777b3d0f13481" target="_top" xlink:title="Gestion des opérateurs.">
<polygon fill="white" stroke="#666666" points="764,-57 676,-57 676,-38 764,-38 764,-57"/>
<text text-anchor="middle" x="720" y="-45" font-family="Helvetica,sans-Serif" font-size="10.00">sub_switch_op</text>
</a>
</g>
</g>
<!-- Node15&#45;&gt;Node25 -->
<g id="edge37_Node000015_Node000025" class="edge">
<title>Node15&#45;&gt;Node25</title>
<g id="a_edge37_Node000015_Node000025"><a xlink:title=" ">
<path fill="none" stroke="#63b8ff" d="M586.32,-188.59C609.99,-163.42 672.7,-96.73 702.64,-64.89"/>
<polygon fill="#63b8ff" stroke="#63b8ff" points="705.53,-66.93 709.83,-57.25 700.43,-62.13 705.53,-66.93"/>
</a>
</g>
</g>
<!-- Node16&#45;&gt;Node10 -->
<g id="edge22_Node000016_Node000010" class="edge">
<title>Node16&#45;&gt;Node10</title>
<g id="a_edge22_Node000016_Node000010"><a xlink:title=" ">
<path fill="none" stroke="#63b8ff" d="M752.35,-151.96C798.81,-139.82 886.91,-124.65 947,-162.5 985.47,-186.72 1000.86,-242.06 1006.52,-271.77"/>
<polygon fill="#63b8ff" stroke="#63b8ff" points="1003.1,-272.52 1008.24,-281.79 1010,-271.34 1003.1,-272.52"/>
</a>
</g>
</g>
<!-- Node18 -->
<g id="Node000018" class="node">
<title>Node18</title>
<g id="a_Node000018"><a xlink:href="lexer__handlers_8c.html#af0bc509a05ea8f1f639745c3db1edff0" target="_top" xlink:title=" ">
<polygon fill="white" stroke="#666666" points="945,-357 814,-357 814,-338 945,-338 945,-357"/>
<text text-anchor="middle" x="879.5" y="-345" font-family="Helvetica,sans-Serif" font-size="10.00">handle_closing_bracket</text>
</a>
</g>
</g>
<!-- Node17&#45;&gt;Node18 -->
<g id="edge24_Node000017_Node000018" class="edge">
<title>Node17&#45;&gt;Node18</title>
<g id="a_edge24_Node000017_Node000018"><a xlink:title=" ">
<path fill="none" stroke="#63b8ff" d="M761.56,-320.03C781.78,-324.78 806.44,-330.57 827.88,-335.61"/>
<polygon fill="#63b8ff" stroke="#63b8ff" points="827.27,-339.06 837.8,-337.94 828.87,-332.25 827.27,-339.06"/>
</a>
</g>
</g>
<!-- Node19 -->
<g id="Node000019" class="node">
<title>Node19</title>
<g id="a_Node000019"><a xlink:href="lexer__handlers_8c.html#ac6741237800ed58a7ea25d1b02c4ada3" target="_top" xlink:title=" ">
<polygon fill="white" stroke="#666666" points="947,-320 812,-320 812,-301 947,-301 947,-320"/>
<text text-anchor="middle" x="879.5" y="-308" font-family="Helvetica,sans-Serif" font-size="10.00">handle_opening_bracket</text>
</a>
</g>
</g>
<!-- Node17&#45;&gt;Node19 -->
<g id="edge26_Node000017_Node000019" class="edge">
<title>Node17&#45;&gt;Node19</title>
<g id="a_edge26_Node000017_Node000019"><a xlink:title=" ">
<path fill="none" stroke="#63b8ff" d="M765.71,-310.5C776.94,-310.5 789.31,-310.5 801.61,-310.5"/>
<polygon fill="#63b8ff" stroke="#63b8ff" points="801.91,-314 811.91,-310.5 801.91,-307 801.91,-314"/>
</a>
</g>
</g>
<!-- Node18&#45;&gt;Node10 -->
<g id="edge25_Node000018_Node000010" class="edge">
<title>Node18&#45;&gt;Node10</title>
<g id="a_edge25_Node000018_Node000010"><a xlink:title=" ">
<path fill="none" stroke="#63b8ff" d="M920.11,-337.98C929.11,-335.33 938.51,-332.15 947,-328.5 960.89,-322.52 975.49,-314.02 987.07,-306.68"/>
<polygon fill="#63b8ff" stroke="#63b8ff" points="989.17,-309.49 995.65,-301.11 985.36,-303.62 989.17,-309.49"/>
</a>
</g>
</g>
<!-- Node19&#45;&gt;Node10 -->
<g id="edge27_Node000019_Node000010" class="edge">
<title>Node19&#45;&gt;Node10</title>
<g id="a_edge27_Node000019_Node000010"><a xlink:title=" ">
<path fill="none" stroke="#63b8ff" d="M945.38,-300.94C955.86,-299.4 966.33,-297.86 975.68,-296.48"/>
<polygon fill="#63b8ff" stroke="#63b8ff" points="976.32,-299.92 985.7,-295 975.3,-293 976.32,-299.92"/>
</a>
</g>
</g>
<!-- Node21 -->
<g id="Node000021" class="node">
<title>Node21</title>
<g id="a_Node000021"><a xlink:href="lexer__handlers_8c.html#a2ed09a62089d61b6a2928dcbcc623e7f" target="_top" xlink:title=" ">
<polygon fill="white" stroke="#666666" points="920.5,-209 838.5,-209 838.5,-190 920.5,-190 920.5,-209"/>
<text text-anchor="middle" x="879.5" y="-197" font-family="Helvetica,sans-Serif" font-size="10.00">handle_blank</text>
</a>
</g>
</g>
<!-- Node20&#45;&gt;Node21 -->
<g id="edge29_Node000020_Node000021" class="edge">
<title>Node20&#45;&gt;Node21</title>
<g id="a_edge29_Node000020_Node000021"><a xlink:title=" ">
<path fill="none" stroke="#63b8ff" d="M761.56,-226.97C781.94,-222.18 806.82,-216.34 828.39,-211.27"/>
<polygon fill="#63b8ff" stroke="#63b8ff" points="829.42,-214.63 838.35,-208.93 827.81,-207.81 829.42,-214.63"/>
</a>
</g>
</g>
<!-- Node22 -->
<g id="Node000022" class="node">
<title>Node22</title>
<g id="a_Node000022"><a xlink:href="lexer__handlers_8c.html#aa69ff9b0e657615d22e4220657378e92" target="_top" xlink:title=" ">
<polygon fill="white" stroke="#666666" points="926,-283 833,-283 833,-264 926,-264 926,-283"/>
<text text-anchor="middle" x="879.5" y="-271" font-family="Helvetica,sans-Serif" font-size="10.00">handle_newline</text>
</a>
</g>
</g>
<!-- Node20&#45;&gt;Node22 -->
<g id="edge31_Node000020_Node000022" class="edge">
<title>Node20&#45;&gt;Node22</title>
<g id="a_edge31_Node000020_Node000022"><a xlink:title=" ">
<path fill="none" stroke="#63b8ff" d="M761.56,-246.03C781.78,-250.78 806.44,-256.57 827.88,-261.61"/>
<polygon fill="#63b8ff" stroke="#63b8ff" points="827.27,-265.06 837.8,-263.94 828.87,-258.25 827.27,-265.06"/>
</a>
</g>
</g>
<!-- Node23 -->
<g id="Node000023" class="node">
<title>Node23</title>
<g id="a_Node000023"><a xlink:href="lexer__handlers_8c.html#afa8aa1a23dd8c155bcfb4145f2099aaf" target="_top" xlink:title=" ">
<polygon fill="white" stroke="#666666" points="932,-246 827,-246 827,-227 932,-227 932,-246"/>
<text text-anchor="middle" x="879.5" y="-234" font-family="Helvetica,sans-Serif" font-size="10.00">handle_semicolon</text>
</a>
</g>
</g>
<!-- Node20&#45;&gt;Node23 -->
<g id="edge33_Node000020_Node000023" class="edge">
<title>Node20&#45;&gt;Node23</title>
<g id="a_edge33_Node000020_Node000023"><a xlink:title=" ">
<path fill="none" stroke="#63b8ff" d="M769.54,-236.5C784.44,-236.5 801.05,-236.5 816.71,-236.5"/>
<polygon fill="#63b8ff" stroke="#63b8ff" points="816.84,-240 826.84,-236.5 816.84,-233 816.84,-240"/>
</a>
</g>
</g>
<!-- Node21&#45;&gt;Node10 -->
<g id="edge30_Node000021_Node000010" class="edge">
<title>Node21&#45;&gt;Node10</title>
<g id="a_edge30_Node000021_Node000010"><a xlink:title=" ">
<path fill="none" stroke="#63b8ff" d="M920.83,-206.24C929.88,-208.86 939.13,-212.49 947,-217.5 969.18,-231.62 987.57,-256.09 998.54,-273"/>
<polygon fill="#63b8ff" stroke="#63b8ff" points="995.85,-275.31 1004.11,-281.95 1001.8,-271.61 995.85,-275.31"/>
</a>
</g>
</g>
<!-- Node22&#45;&gt;Node10 -->
<g id="edge32_Node000022_Node000010" class="edge">
<title>Node22&#45;&gt;Node10</title>
<g id="a_edge32_Node000022_Node000010"><a xlink:title=" ">
<path fill="none" stroke="#63b8ff" d="M926.34,-279.9C942.7,-282.18 960.81,-284.71 975.94,-286.82"/>
<polygon fill="#63b8ff" stroke="#63b8ff" points="975.5,-290.29 985.88,-288.2 976.46,-283.36 975.5,-290.29"/>
</a>
</g>
</g>
<!-- Node23&#45;&gt;Node10 -->
<g id="edge34_Node000023_Node000010" class="edge">
<title>Node23&#45;&gt;Node10</title>
<g id="a_edge34_Node000023_Node000010"><a xlink:title=" ">
<path fill="none" stroke="#63b8ff" d="M922.59,-246.04C930.82,-248.42 939.29,-251.24 947,-254.5 960.93,-260.38 975.53,-268.87 987.11,-276.24"/>
<polygon fill="#63b8ff" stroke="#63b8ff" points="985.39,-279.3 995.68,-281.83 989.22,-273.44 985.39,-279.3"/>
</a>
</g>
</g>
<!-- Node24&#45;&gt;Node10 -->
<g id="edge36_Node000024_Node000010" class="edge">
<title>Node24&#45;&gt;Node10</title>
<g id="a_edge36_Node000024_Node000010"><a xlink:title=" ">
<path fill="none" stroke="#63b8ff" d="M760.62,-188.92C776.49,-185.54 795.01,-182.16 812,-180.5 871.71,-174.65 895.2,-150.22 947,-180.5 980.75,-200.23 997.69,-245.63 1004.94,-271.85"/>
<polygon fill="#63b8ff" stroke="#63b8ff" points="1001.61,-272.95 1007.48,-281.78 1008.39,-271.22 1001.61,-272.95"/>
</a>
</g>
</g>
<!-- Node25&#45;&gt;Node6 -->
<g id="edge38_Node000025_Node000006" class="edge">
<title>Node25&#45;&gt;Node6</title>
<g id="a_edge38_Node000025_Node000006"><a xlink:title=" ">
<path fill="none" stroke="#63b8ff" d="M760.74,-57.09C782.89,-62.43 810.55,-69.1 833.49,-74.64"/>
<polygon fill="#63b8ff" stroke="#63b8ff" points="832.79,-78.07 843.33,-77.01 834.43,-71.27 832.79,-78.07"/>
</a>
</g>
</g>
<!-- Node25&#45;&gt;Node10 -->
<g id="edge39_Node000025_Node000010" class="edge">
<title>Node25&#45;&gt;Node10</title>
<g id="a_edge39_Node000025_Node000010"><a xlink:title=" ">
<path fill="none" stroke="#63b8ff" d="M763.37,-37.96C813.19,-29.4 895.61,-23.92 947,-66.5 979.08,-93.07 999.93,-221.96 1006.91,-271.79"/>
<polygon fill="#63b8ff" stroke="#63b8ff" points="1003.47,-272.47 1008.28,-281.9 1010.4,-271.52 1003.47,-272.47"/>
</a>
</g>
</g>
<!-- Node26 -->
<g id="Node000026" class="node">
<title>Node26</title>
<g id="a_Node000026"><a xlink:href="lexer__handlers_8c.html#a1320ab2067e73a5de0d576175ad3d363" target="_top" xlink:title=" ">
<polygon fill="white" stroke="#666666" points="906.5,-19 852.5,-19 852.5,0 906.5,0 906.5,-19"/>
<text text-anchor="middle" x="879.5" y="-7" font-family="Helvetica,sans-Serif" font-size="10.00">new_op</text>
</a>
</g>
</g>
<!-- Node25&#45;&gt;Node26 -->
<g id="edge40_Node000025_Node000026" class="edge">
<title>Node25&#45;&gt;Node26</title>
<g id="a_edge40_Node000025_Node000026"><a xlink:title=" ">
<path fill="none" stroke="#63b8ff" d="M760.74,-37.91C785.78,-31.87 817.86,-24.13 842.21,-18.26"/>
<polygon fill="#63b8ff" stroke="#63b8ff" points="843.23,-21.61 852.13,-15.86 841.58,-14.81 843.23,-21.61"/>
</a>
</g>
</g>
<!-- Node26&#45;&gt;Node10 -->
<g id="edge41_Node000026_Node000010" class="edge">
<title>Node26&#45;&gt;Node10</title>
<g id="a_edge41_Node000026_Node000010"><a xlink:title=" ">
<path fill="none" stroke="#63b8ff" d="M906.54,-12.87C920.4,-15.99 936.67,-21.99 947,-33.5 979.1,-69.3 1000.39,-218.14 1007.17,-271.97"/>
<polygon fill="#63b8ff" stroke="#63b8ff" points="1003.7,-272.44 1008.4,-281.94 1010.65,-271.58 1003.7,-272.44"/>
</a>
</g>
</g>
<!-- Node27 -->
<g id="Node000027" class="node">
<title>Node27</title>
<g id="a_Node000027"><a xlink:href="lexer__utils_8c.html#ad3b801c5fcc7cb2d760cb161bf5038a0" target="_top" xlink:title=" ">
<polygon fill="white" stroke="#666666" points="1038,-19 983,-19 983,0 1038,0 1038,-19"/>
<text text-anchor="middle" x="1010.5" y="-7" font-family="Helvetica,sans-Serif" font-size="10.00">valid_io</text>
</a>
</g>
</g>
<!-- Node26&#45;&gt;Node27 -->
<g id="edge42_Node000026_Node000027" class="edge">
<title>Node26&#45;&gt;Node27</title>
<g id="a_edge42_Node000026_Node000027"><a xlink:title=" ">
<path fill="none" stroke="#63b8ff" d="M906.61,-9.5C925.63,-9.5 951.65,-9.5 972.77,-9.5"/>
<polygon fill="#63b8ff" stroke="#63b8ff" points="972.99,-13 982.99,-9.5 972.99,-6 972.99,-13"/>
</a>
</g>
</g>
<!-- Node28 -->
<g id="Node000028" class="node">
<title>Node28</title>
<g id="a_Node000028"><a xlink:href="lexer__utils_8c.html#a8fa30988b9ccc705850dfee0220bf34a" target="_top" xlink:title=" ">
<polygon fill="white" stroke="#666666" points="1130,-19 1074,-19 1074,0 1130,0 1130,-19"/>
<text text-anchor="middle" x="1102" y="-7" font-family="Helvetica,sans-Serif" font-size="10.00">all_digit</text>
</a>
</g>
</g>
<!-- Node27&#45;&gt;Node28 -->
<g id="edge43_Node000027_Node000028" class="edge">
<title>Node27&#45;&gt;Node28</title>
<g id="a_edge43_Node000027_Node000028"><a xlink:title=" ">
<path fill="none" stroke="#63b8ff" d="M1038.35,-9.5C1046.33,-9.5 1055.22,-9.5 1063.74,-9.5"/>
<polygon fill="#63b8ff" stroke="#63b8ff" points="1063.86,-13 1073.86,-9.5 1063.86,-6 1063.86,-13"/>
</a>
</g>
</g>
<!-- Node30 -->
<g id="Node000030" class="node">
<title>Node30</title>
<g id="a_Node000030"><a xlink:href="lexer__tokens_8c.html#ab8c1bbfef4c1716c7557658824823316" target="_top" xlink:title=" ">
<polygon fill="white" stroke="#666666" points="617.5,-585 534.5,-585 534.5,-566 617.5,-566 617.5,-585"/>
<text text-anchor="middle" x="576" y="-573" font-family="Helvetica,sans-Serif" font-size="10.00">verif_token_if</text>
</a>
</g>
</g>
<!-- Node29&#45;&gt;Node30 -->
<g id="edge45_Node000029_Node000030" class="edge">
<title>Node29&#45;&gt;Node30</title>
<g id="a_edge45_Node000029_Node000030"><a xlink:title=" ">
<path fill="none" stroke="#63b8ff" d="M488.32,-575.5C499.38,-575.5 511.86,-575.5 523.83,-575.5"/>
<polygon fill="#63b8ff" stroke="#63b8ff" points="524.16,-579 534.16,-575.5 524.16,-572 524.16,-579"/>
</a>
</g>
</g>
<!-- Node31 -->
<g id="Node000031" class="node">
<title>Node31</title>
<g id="a_Node000031"><a xlink:href="lexer__tokens_8c.html#a74242b2210e1f957abbecfde13ff30d4" target="_top" xlink:title=" ">
<polygon fill="white" stroke="#666666" points="625,-622 527,-622 527,-603 625,-603 625,-622"/>
<text text-anchor="middle" x="576" y="-610" font-family="Helvetica,sans-Serif" font-size="10.00">verif_token_loop</text>
</a>
</g>
</g>
<!-- Node29&#45;&gt;Node31 -->
<g id="edge46_Node000029_Node000031" class="edge">
<title>Node29&#45;&gt;Node31</title>
<g id="a_edge46_Node000029_Node000031"><a xlink:title=" ">
<path fill="none" stroke="#63b8ff" d="M484.79,-585.03C499.7,-589.57 517.72,-595.06 533.73,-599.93"/>
<polygon fill="#63b8ff" stroke="#63b8ff" points="532.81,-603.31 543.39,-602.88 534.85,-596.61 532.81,-603.31"/>
</a>
</g>
</g>
<!-- Node32&#45;&gt;Node4 -->
<g id="edge48_Node000032_Node000004" class="edge">
<title>Node32&#45;&gt;Node4</title>
<g id="a_edge48_Node000032_Node000004"><a xlink:title=" ">
<path fill="none" stroke="#63b8ff" d="M184.22,-623.71C197.44,-618.33 216.22,-610.7 231.9,-604.33"/>
<polygon fill="#63b8ff" stroke="#63b8ff" points="233.24,-607.56 241.19,-600.55 230.6,-601.08 233.24,-607.56"/>
</a>
</g>
</g>
</g>
</svg>
