<?xml version="1.0" encoding="UTF-8" standalone="no"?>
<!DOCTYPE svg PUBLIC "-//W3C//DTD SVG 1.1//EN"
 "http://www.w3.org/Graphics/SVG/1.1/DTD/svg11.dtd">
<!-- Generated by graphviz version 2.43.0 (0)
 -->
<!-- Title: src/parser/parser_commands.c Pages: 1 -->
<svg width="594pt" height="357pt"
 viewBox="0.00 0.00 593.50 357.00" xmlns="http://www.w3.org/2000/svg" xmlns:xlink="http://www.w3.org/1999/xlink">
<g id="graph0" class="graph" transform="scale(1 1) rotate(0) translate(4 353)">
<title>src/parser/parser_commands.c</title>
<!-- Node1 -->
<g id="Node000001" class="node">
<title>Node1</title>
<g id="a_Node000001"><a xlink:title=" ">
<polygon fill="#999999" stroke="#666666" points="235.5,-349 69.5,-349 69.5,-330 235.5,-330 235.5,-349"/>
<text text-anchor="middle" x="152.5" y="-337" font-family="Helvetica,sans-Serif" font-size="10.00">src/parser/parser_commands.c</text>
</a>
</g>
</g>
<!-- Node2 -->
<g id="Node000002" class="node">
<title>Node2</title>
<g id="a_Node000002"><a xlink:title=" ">
<polygon fill="#e0e0e0" stroke="#999999" points="53,-294 0,-294 0,-275 53,-275 53,-294"/>
<text text-anchor="middle" x="26.5" y="-282" font-family="Helvetica,sans-Serif" font-size="10.00">stdlib.h</text>
</a>
</g>
</g>
<!-- Node1&#45;&gt;Node2 -->
<g id="edge1_Node000001_Node000002" class="edge">
<title>Node1&#45;&gt;Node2</title>
<g id="a_edge1_Node000001_Node000002"><a xlink:title=" ">
<path fill="none" stroke="#63b8ff" d="M132.26,-329.98C111.8,-321.38 79.97,-307.99 56.57,-298.15"/>
<polygon fill="#63b8ff" stroke="#63b8ff" points="57.69,-294.82 47.11,-294.17 54.97,-301.27 57.69,-294.82"/>
</a>
</g>
</g>
<!-- Node3 -->
<g id="Node000003" class="node">
<title>Node3</title>
<g id="a_Node000003"><a xlink:title=" ">
<polygon fill="#e0e0e0" stroke="#999999" points="124,-294 71,-294 71,-275 124,-275 124,-294"/>
<text text-anchor="middle" x="97.5" y="-282" font-family="Helvetica,sans-Serif" font-size="10.00">string.h</text>
</a>
</g>
</g>
<!-- Node1&#45;&gt;Node3 -->
<g id="edge2_Node000001_Node000003" class="edge">
<title>Node1&#45;&gt;Node3</title>
<g id="a_edge2_Node000001_Node000003"><a xlink:title=" ">
<path fill="none" stroke="#63b8ff" d="M143.42,-329.75C135.41,-322.03 123.54,-310.6 113.88,-301.28"/>
<polygon fill="#63b8ff" stroke="#63b8ff" points="116.04,-298.51 106.41,-294.09 111.19,-303.55 116.04,-298.51"/>
</a>
</g>
</g>
<!-- Node4 -->
<g id="Node000004" class="node">
<title>Node4</title>
<g id="a_Node000004"><a xlink:href="ast__aux_8h.html" target="_top" xlink:title=" ">
<polygon fill="white" stroke="#666666" points="318,-239 227,-239 227,-220 318,-220 318,-239"/>
<text text-anchor="middle" x="272.5" y="-227" font-family="Helvetica,sans-Serif" font-size="10.00">../ast/ast_aux.h</text>
</a>
</g>
</g>
<!-- Node1&#45;&gt;Node4 -->
<g id="edge3_Node000001_Node000004" class="edge">
<title>Node1&#45;&gt;Node4</title>
<g id="a_edge3_Node000001_Node000004"><a xlink:title=" ">
<path fill="none" stroke="#63b8ff" d="M162.32,-329.66C182.73,-311.3 229.93,-268.81 255.43,-245.87"/>
<polygon fill="#63b8ff" stroke="#63b8ff" points="257.79,-248.45 262.88,-239.16 253.11,-243.25 257.79,-248.45"/>
</a>
</g>
</g>
<!-- Node7 -->
<g id="Node000007" class="node">
<title>Node7</title>
<g id="a_Node000007"><a xlink:href="hashmap_8h.html" target="_top" xlink:title=" ">
<polygon fill="white" stroke="#666666" points="230,-74 159,-74 159,-55 230,-55 230,-74"/>
<text text-anchor="middle" x="194.5" y="-62" font-family="Helvetica,sans-Serif" font-size="10.00">hashmap.h</text>
</a>
</g>
</g>
<!-- Node1&#45;&gt;Node7 -->
<g id="edge11_Node000001_Node000007" class="edge">
<title>Node1&#45;&gt;Node7</title>
<g id="a_edge11_Node000001_Node000007"><a xlink:title=" ">
<path fill="none" stroke="#63b8ff" d="M152.5,-329.82C152.5,-311.48 152.5,-267.44 152.5,-230.5 152.5,-230.5 152.5,-230.5 152.5,-173.5 152.5,-139.46 170.85,-103.24 183.29,-82.59"/>
<polygon fill="#63b8ff" stroke="#63b8ff" points="186.31,-84.35 188.66,-74.02 180.38,-80.63 186.31,-84.35"/>
</a>
</g>
</g>
<!-- Node11 -->
<g id="Node000011" class="node">
<title>Node11</title>
<g id="a_Node000011"><a xlink:href="parser__aux_8h.html" target="_top" xlink:title=" ">
<polygon fill="white" stroke="#666666" points="513.5,-294 433.5,-294 433.5,-275 513.5,-275 513.5,-294"/>
<text text-anchor="middle" x="473.5" y="-282" font-family="Helvetica,sans-Serif" font-size="10.00">parser_aux.h</text>
</a>
</g>
</g>
<!-- Node1&#45;&gt;Node11 -->
<g id="edge12_Node000001_Node000011" class="edge">
<title>Node1&#45;&gt;Node11</title>
<g id="a_edge12_Node000001_Node000011"><a xlink:title=" ">
<path fill="none" stroke="#63b8ff" d="M204.07,-329.98C264.39,-320.03 363.55,-303.65 423.28,-293.79"/>
<polygon fill="#63b8ff" stroke="#63b8ff" points="423.93,-297.23 433.23,-292.15 422.79,-290.32 423.93,-297.23"/>
</a>
</g>
</g>
<!-- Node5 -->
<g id="Node000005" class="node">
<title>Node5</title>
<g id="a_Node000005"><a xlink:href="ast_8h.html" target="_top" xlink:title=" ">
<polygon fill="white" stroke="#666666" points="339,-184 298,-184 298,-165 339,-165 339,-184"/>
<text text-anchor="middle" x="318.5" y="-172" font-family="Helvetica,sans-Serif" font-size="10.00">ast.h</text>
</a>
</g>
</g>
<!-- Node4&#45;&gt;Node5 -->
<g id="edge4_Node000004_Node000005" class="edge">
<title>Node4&#45;&gt;Node5</title>
<g id="a_edge4_Node000004_Node000005"><a xlink:title=" ">
<path fill="none" stroke="#63b8ff" d="M280.1,-219.75C286.66,-212.18 296.32,-201.05 304.31,-191.84"/>
<polygon fill="#63b8ff" stroke="#63b8ff" points="307.13,-193.94 311.05,-184.09 301.85,-189.35 307.13,-193.94"/>
</a>
</g>
</g>
<!-- Node6 -->
<g id="Node000006" class="node">
<title>Node6</title>
<g id="a_Node000006"><a xlink:href="expand_8h.html" target="_top" xlink:title=" ">
<polygon fill="white" stroke="#666666" points="290.5,-129 180.5,-129 180.5,-110 290.5,-110 290.5,-129"/>
<text text-anchor="middle" x="235.5" y="-117" font-family="Helvetica,sans-Serif" font-size="10.00">../expand/expand.h</text>
</a>
</g>
</g>
<!-- Node5&#45;&gt;Node6 -->
<g id="edge5_Node000005_Node000006" class="edge">
<title>Node5&#45;&gt;Node6</title>
<g id="a_edge5_Node000005_Node000006"><a xlink:title=" ">
<path fill="none" stroke="#63b8ff" d="M305.16,-164.98C292.41,-156.84 272.95,-144.41 257.83,-134.76"/>
<polygon fill="#63b8ff" stroke="#63b8ff" points="259.39,-131.6 249.08,-129.17 255.62,-137.5 259.39,-131.6"/>
</a>
</g>
</g>
<!-- Node8 -->
<g id="Node000008" class="node">
<title>Node8</title>
<g id="a_Node000008"><a xlink:href="redir_8h.html" target="_top" xlink:title=" ">
<polygon fill="white" stroke="#666666" points="426.5,-129 346.5,-129 346.5,-110 426.5,-110 426.5,-129"/>
<text text-anchor="middle" x="386.5" y="-117" font-family="Helvetica,sans-Serif" font-size="10.00">../utils/redir.h</text>
</a>
</g>
</g>
<!-- Node5&#45;&gt;Node8 -->
<g id="edge7_Node000005_Node000008" class="edge">
<title>Node5&#45;&gt;Node8</title>
<g id="a_edge7_Node000005_Node000008"><a xlink:title=" ">
<path fill="none" stroke="#63b8ff" d="M329.43,-164.98C339.58,-157.07 354.92,-145.11 367.15,-135.58"/>
<polygon fill="#63b8ff" stroke="#63b8ff" points="369.64,-138.08 375.38,-129.17 365.34,-132.56 369.64,-138.08"/>
</a>
</g>
</g>
<!-- Node9 -->
<g id="Node000009" class="node">
<title>Node9</title>
<g id="a_Node000009"><a xlink:href="token_8h.html" target="_top" xlink:title=" ">
<polygon fill="white" stroke="#666666" points="420,-74 367,-74 367,-55 420,-55 420,-74"/>
<text text-anchor="middle" x="393.5" y="-62" font-family="Helvetica,sans-Serif" font-size="10.00">token.h</text>
</a>
</g>
</g>
<!-- Node5&#45;&gt;Node9 -->
<g id="edge10_Node000005_Node000009" class="edge">
<title>Node5&#45;&gt;Node9</title>
<g id="a_edge10_Node000005_Node000009"><a xlink:title=" ">
<path fill="none" stroke="#63b8ff" d="M319.4,-165C321.11,-152.12 325.76,-127.34 337.5,-110 345.74,-97.83 358.33,-87.4 369.49,-79.7"/>
<polygon fill="#63b8ff" stroke="#63b8ff" points="371.56,-82.53 378.02,-74.14 367.73,-76.67 371.56,-82.53"/>
</a>
</g>
</g>
<!-- Node6&#45;&gt;Node7 -->
<g id="edge6_Node000006_Node000007" class="edge">
<title>Node6&#45;&gt;Node7</title>
<g id="a_edge6_Node000006_Node000007"><a xlink:title=" ">
<path fill="none" stroke="#63b8ff" d="M228.73,-109.75C222.94,-102.26 214.44,-91.28 207.36,-82.13"/>
<polygon fill="#63b8ff" stroke="#63b8ff" points="210.03,-79.86 201.14,-74.09 204.49,-84.14 210.03,-79.86"/>
</a>
</g>
</g>
<!-- Node8&#45;&gt;Node9 -->
<g id="edge8_Node000008_Node000009" class="edge">
<title>Node8&#45;&gt;Node9</title>
<g id="a_edge8_Node000008_Node000009"><a xlink:title=" ">
<path fill="none" stroke="#63b8ff" d="M387.66,-109.75C388.57,-102.8 389.89,-92.85 391.04,-84.13"/>
<polygon fill="#63b8ff" stroke="#63b8ff" points="394.53,-84.46 392.37,-74.09 387.59,-83.54 394.53,-84.46"/>
</a>
</g>
</g>
<!-- Node10 -->
<g id="Node000010" class="node">
<title>Node10</title>
<g id="a_Node000010"><a xlink:title=" ">
<polygon fill="#e0e0e0" stroke="#999999" points="479.5,-19 429.5,-19 429.5,0 479.5,0 479.5,-19"/>
<text text-anchor="middle" x="454.5" y="-7" font-family="Helvetica,sans-Serif" font-size="10.00">stdio.h</text>
</a>
</g>
</g>
<!-- Node9&#45;&gt;Node10 -->
<g id="edge9_Node000009_Node000010" class="edge">
<title>Node9&#45;&gt;Node10</title>
<g id="a_edge9_Node000009_Node000010"><a xlink:title=" ">
<path fill="none" stroke="#63b8ff" d="M403.3,-54.98C412.32,-47.15 425.91,-35.34 436.82,-25.86"/>
<polygon fill="#63b8ff" stroke="#63b8ff" points="439.27,-28.37 444.52,-19.17 434.68,-23.09 439.27,-28.37"/>
</a>
</g>
</g>
<!-- Node12 -->
<g id="Node000012" class="node">
<title>Node12</title>
<g id="a_Node000012"><a xlink:title=" ">
<polygon fill="#e0e0e0" stroke="#999999" points="585.5,-239 529.5,-239 529.5,-220 585.5,-220 585.5,-239"/>
<text text-anchor="middle" x="557.5" y="-227" font-family="Helvetica,sans-Serif" font-size="10.00">stddef.h</text>
</a>
</g>
</g>
<!-- Node11&#45;&gt;Node12 -->
<g id="edge13_Node000011_Node000012" class="edge">
<title>Node11&#45;&gt;Node12</title>
<g id="a_edge13_Node000011_Node000012"><a xlink:title=" ">
<path fill="none" stroke="#63b8ff" d="M487,-274.98C499.9,-266.84 519.6,-254.41 534.9,-244.76"/>
<polygon fill="#63b8ff" stroke="#63b8ff" points="537.17,-247.47 543.76,-239.17 533.43,-241.55 537.17,-247.47"/>
</a>
</g>
</g>
<!-- Node13 -->
<g id="Node000013" class="node">
<title>Node13</title>
<g id="a_Node000013"><a xlink:href="lexer_8h.html" target="_top" xlink:title=" ">
<polygon fill="white" stroke="#666666" points="568,-129 483,-129 483,-110 568,-110 568,-129"/>
<text text-anchor="middle" x="525.5" y="-117" font-family="Helvetica,sans-Serif" font-size="10.00">../lexer/lexer.h</text>
</a>
</g>
</g>
<!-- Node11&#45;&gt;Node13 -->
<g id="edge14_Node000011_Node000013" class="edge">
<title>Node11&#45;&gt;Node13</title>
<g id="a_edge14_Node000011_Node000013"><a xlink:title=" ">
<path fill="none" stroke="#63b8ff" d="M476.3,-274.74C484.44,-249.2 508.3,-174.43 519.52,-139.23"/>
<polygon fill="#63b8ff" stroke="#63b8ff" points="522.99,-139.9 522.69,-129.31 516.32,-137.77 522.99,-139.9"/>
</a>
</g>
</g>
<!-- Node14 -->
<g id="Node000014" class="node">
<title>Node14</title>
<g id="a_Node000014"><a xlink:href="parser_8h.html" target="_top" xlink:title=" ">
<polygon fill="white" stroke="#666666" points="473.5,-239 417.5,-239 417.5,-220 473.5,-220 473.5,-239"/>
<text text-anchor="middle" x="445.5" y="-227" font-family="Helvetica,sans-Serif" font-size="10.00">parser.h</text>
</a>
</g>
</g>
<!-- Node11&#45;&gt;Node14 -->
<g id="edge17_Node000011_Node000014" class="edge">
<title>Node11&#45;&gt;Node14</title>
<g id="a_edge17_Node000011_Node000014"><a xlink:title=" ">
<path fill="none" stroke="#63b8ff" d="M468.88,-274.75C465.04,-267.49 459.48,-256.95 454.74,-247.98"/>
<polygon fill="#63b8ff" stroke="#63b8ff" points="457.8,-246.3 450.04,-239.09 451.61,-249.57 457.8,-246.3"/>
</a>
</g>
</g>
<!-- Node13&#45;&gt;Node9 -->
<g id="edge16_Node000013_Node000009" class="edge">
<title>Node13&#45;&gt;Node9</title>
<g id="a_edge16_Node000013_Node000009"><a xlink:title=" ">
<path fill="none" stroke="#63b8ff" d="M504.29,-109.98C482.77,-101.34 449.22,-87.87 424.67,-78.02"/>
<polygon fill="#63b8ff" stroke="#63b8ff" points="425.68,-74.65 415.09,-74.17 423.07,-81.14 425.68,-74.65"/>
</a>
</g>
</g>
<!-- Node13&#45;&gt;Node10 -->
<g id="edge15_Node000013_Node000010" class="edge">
<title>Node13&#45;&gt;Node10</title>
<g id="a_edge15_Node000013_Node000010"><a xlink:title=" ">
<path fill="none" stroke="#63b8ff" d="M519.69,-109.66C507.93,-91.77 481.13,-51 465.8,-27.69"/>
<polygon fill="#63b8ff" stroke="#63b8ff" points="468.61,-25.59 460.19,-19.16 462.76,-29.44 468.61,-25.59"/>
</a>
</g>
</g>
<!-- Node14&#45;&gt;Node5 -->
<g id="edge19_Node000014_Node000005" class="edge">
<title>Node14&#45;&gt;Node5</title>
<g id="a_edge19_Node000014_Node000005"><a xlink:title=" ">
<path fill="none" stroke="#63b8ff" d="M425.1,-219.98C404.48,-211.38 372.39,-197.99 348.81,-188.15"/>
<polygon fill="#63b8ff" stroke="#63b8ff" points="349.85,-184.79 339.28,-184.17 347.16,-191.25 349.85,-184.79"/>
</a>
</g>
</g>
<!-- Node14&#45;&gt;Node10 -->
<g id="edge18_Node000014_Node000010" class="edge">
<title>Node14&#45;&gt;Node10</title>
<g id="a_edge18_Node000014_Node000010"><a xlink:title=" ">
<path fill="none" stroke="#63b8ff" d="M445.85,-219.95C447.17,-187.95 451.85,-74.68 453.72,-29.4"/>
<polygon fill="#63b8ff" stroke="#63b8ff" points="457.22,-29.36 454.14,-19.22 450.23,-29.07 457.22,-29.36"/>
</a>
</g>
</g>
</g>
</svg>
