<?xml version="1.0" encoding="UTF-8" standalone="no"?>
<!DOCTYPE svg PUBLIC "-//W3C//DTD SVG 1.1//EN"
 "http://www.w3.org/Graphics/SVG/1.1/DTD/svg11.dtd">
<!-- Generated by graphviz version 2.43.0 (0)
 -->
<!-- Title: pop Pages: 1 -->
<svg width="946pt" height="645pt"
 viewBox="0.00 0.00 946.00 645.29" xmlns="http://www.w3.org/2000/svg" xmlns:xlink="http://www.w3.org/1999/xlink">
<g id="graph0" class="graph" transform="scale(1 1) rotate(0) translate(4 641.29)">
<title>pop</title>
<!-- Node1 -->
<g id="Node000001" class="node">
<title>Node1</title>
<g id="a_Node000001"><a xlink:title="Pop the current token from lex.">
<polygon fill="#999999" stroke="#666666" points="35,-432 0,-432 0,-413 35,-413 35,-432"/>
<text text-anchor="middle" x="17.5" y="-420" font-family="Helvetica,sans-Serif" font-size="10.00">pop</text>
</a>
</g>
</g>
<!-- Node2 -->
<g id="Node000002" class="node">
<title>Node2</title>
<g id="a_Node000002"><a xlink:href="parser__utils_8c.html#a0f885603168edee811b2b6880a9bf598" target="_top" xlink:title="Peek on the lexer to see the current token.">
<polygon fill="white" stroke="#666666" points="112,-432 71,-432 71,-413 112,-413 112,-432"/>
<text text-anchor="middle" x="91.5" y="-420" font-family="Helvetica,sans-Serif" font-size="10.00">peek</text>
</a>
</g>
</g>
<!-- Node1&#45;&gt;Node2 -->
<g id="edge1_Node000001_Node000002" class="edge">
<title>Node1&#45;&gt;Node2</title>
<g id="a_edge1_Node000001_Node000002"><a xlink:title=" ">
<path fill="none" stroke="#63b8ff" d="M35.2,-422.5C42.76,-422.5 51.93,-422.5 60.62,-422.5"/>
<polygon fill="#63b8ff" stroke="#63b8ff" points="60.83,-426 70.83,-422.5 60.83,-419 60.83,-426"/>
</a>
</g>
</g>
<!-- Node3 -->
<g id="Node000003" class="node">
<title>Node3</title>
<g id="a_Node000003"><a xlink:href="lexer_8c.html#ab0a076d4847ef2557a4e8d2e0852092d" target="_top" xlink:title="Transforme le FILE en token.">
<polygon fill="white" stroke="#666666" points="189,-432 148,-432 148,-413 189,-413 189,-432"/>
<text text-anchor="middle" x="168.5" y="-420" font-family="Helvetica,sans-Serif" font-size="10.00">lexer</text>
</a>
</g>
</g>
<!-- Node2&#45;&gt;Node3 -->
<g id="edge2_Node000002_Node000003" class="edge">
<title>Node2&#45;&gt;Node3</title>
<g id="a_edge2_Node000002_Node000003"><a xlink:title=" ">
<path fill="none" stroke="#63b8ff" d="M112.21,-422.5C120.04,-422.5 129.23,-422.5 137.84,-422.5"/>
<polygon fill="#63b8ff" stroke="#63b8ff" points="137.93,-426 147.93,-422.5 137.93,-419 137.93,-426"/>
</a>
</g>
</g>
<!-- Node4 -->
<g id="Node000004" class="node">
<title>Node4</title>
<g id="a_Node000004"><a xlink:href="lexer__tokens_8c.html#ae59c383936dadf54742b836a5bd2a70b" target="_top" xlink:title=" ">
<polygon fill="white" stroke="#666666" points="723.5,-469 651.5,-469 651.5,-450 723.5,-450 723.5,-469"/>
<text text-anchor="middle" x="687.5" y="-457" font-family="Helvetica,sans-Serif" font-size="10.00">check_type</text>
</a>
</g>
</g>
<!-- Node3&#45;&gt;Node4 -->
<g id="edge3_Node000003_Node000004" class="edge">
<title>Node3&#45;&gt;Node4</title>
<g id="a_edge3_Node000003_Node000004"><a xlink:title=" ">
<path fill="none" stroke="#63b8ff" d="M180.56,-432.24C191.19,-441.06 208.11,-453.68 225,-460.5 269.72,-478.54 283.94,-474.49 332,-478.5 442.77,-487.75 573.41,-474.54 640.95,-465.92"/>
<polygon fill="#63b8ff" stroke="#63b8ff" points="641.77,-469.34 651.23,-464.58 640.86,-462.4 641.77,-469.34"/>
</a>
</g>
</g>
<!-- Node5 -->
<g id="Node000005" class="node">
<title>Node5</title>
<g id="a_Node000005"><a xlink:href="lexer__tokens_8c.html#af41b4fb75a0f3ece50d1c55cf5ad55bd" target="_top" xlink:title=" ">
<polygon fill="white" stroke="#666666" points="294,-414 227,-414 227,-395 294,-395 294,-414"/>
<text text-anchor="middle" x="260.5" y="-402" font-family="Helvetica,sans-Serif" font-size="10.00">end_token</text>
</a>
</g>
</g>
<!-- Node3&#45;&gt;Node5 -->
<g id="edge4_Node000003_Node000005" class="edge">
<title>Node3&#45;&gt;Node5</title>
<g id="a_edge4_Node000003_Node000005"><a xlink:title=" ">
<path fill="none" stroke="#63b8ff" d="M189.03,-418.59C197.24,-416.95 207.14,-414.97 216.89,-413.02"/>
<polygon fill="#63b8ff" stroke="#63b8ff" points="217.8,-416.41 226.91,-411.02 216.42,-409.55 217.8,-416.41"/>
</a>
</g>
</g>
<!-- Node6 -->
<g id="Node000006" class="node">
<title>Node6</title>
<g id="a_Node000006"><a xlink:href="token_8c.html#a491cb915cd703d12b24d7c6adc0412cc" target="_top" xlink:title=" ">
<polygon fill="white" stroke="#666666" points="294.5,-377 226.5,-377 226.5,-358 294.5,-358 294.5,-377"/>
<text text-anchor="middle" x="260.5" y="-365" font-family="Helvetica,sans-Serif" font-size="10.00">free_token</text>
</a>
</g>
</g>
<!-- Node3&#45;&gt;Node6 -->
<g id="edge5_Node000003_Node000006" class="edge">
<title>Node3&#45;&gt;Node6</title>
<g id="a_edge5_Node000003_Node000006"><a xlink:title=" ">
<path fill="none" stroke="#63b8ff" d="M183.93,-412.74C195.02,-405.32 210.81,-394.99 225,-386.5 227.48,-385.02 230.07,-383.51 232.68,-382.02"/>
<polygon fill="#63b8ff" stroke="#63b8ff" points="234.43,-385.05 241.45,-377.12 231.02,-378.94 234.43,-385.05"/>
</a>
</g>
</g>
<!-- Node7 -->
<g id="Node000007" class="node">
<title>Node7</title>
<g id="a_Node000007"><a xlink:href="token_8c.html#a4f0f028b792947862bc2364f30f3d3d2" target="_top" xlink:title="Init struct token.">
<polygon fill="white" stroke="#666666" points="293,-340 228,-340 228,-321 293,-321 293,-340"/>
<text text-anchor="middle" x="260.5" y="-328" font-family="Helvetica,sans-Serif" font-size="10.00">init_token</text>
</a>
</g>
</g>
<!-- Node3&#45;&gt;Node7 -->
<g id="edge6_Node000003_Node000007" class="edge">
<title>Node3&#45;&gt;Node7</title>
<g id="a_edge6_Node000003_Node000007"><a xlink:title=" ">
<path fill="none" stroke="#63b8ff" d="M174.94,-412.97C183.85,-397.98 202.82,-368.64 225,-349.5 226.68,-348.05 228.49,-346.66 230.37,-345.34"/>
<polygon fill="#63b8ff" stroke="#63b8ff" points="232.25,-348.29 238.87,-340.03 228.54,-342.36 232.25,-348.29"/>
</a>
</g>
</g>
<!-- Node8 -->
<g id="Node000008" class="node">
<title>Node8</title>
<g id="a_Node000008"><a xlink:href="lexer__operators_8c.html#a274e606313b69e42745e7278ed244bc8" target="_top" xlink:title="Handle a possible operator.">
<polygon fill="white" stroke="#666666" points="421,-616 347,-616 347,-597 421,-597 421,-616"/>
<text text-anchor="middle" x="384" y="-604" font-family="Helvetica,sans-Serif" font-size="10.00">manage_op</text>
</a>
</g>
</g>
<!-- Node3&#45;&gt;Node8 -->
<g id="edge7_Node000003_Node000008" class="edge">
<title>Node3&#45;&gt;Node8</title>
<g id="a_edge7_Node000003_Node000008"><a xlink:title=" ">
<path fill="none" stroke="#63b8ff" d="M170.63,-432.35C174.02,-457.26 186.36,-523.28 225,-558.5 255.63,-586.42 302.04,-598.11 336.65,-603"/>
<polygon fill="#63b8ff" stroke="#63b8ff" points="336.62,-606.53 346.98,-604.31 337.5,-599.58 336.62,-606.53"/>
</a>
</g>
</g>
<!-- Node10 -->
<g id="Node000010" class="node">
<title>Node10</title>
<g id="a_Node000010"><a xlink:href="lexer__operators_8c.html#a0758cae1bae4276754a185e231ad4760" target="_top" xlink:title="Handle different redirections.">
<polygon fill="white" stroke="#666666" points="570,-583 486,-583 486,-564 570,-564 570,-583"/>
<text text-anchor="middle" x="528" y="-571" font-family="Helvetica,sans-Serif" font-size="10.00">manage_redir</text>
</a>
</g>
</g>
<!-- Node3&#45;&gt;Node10 -->
<g id="edge9_Node000003_Node000010" class="edge">
<title>Node3&#45;&gt;Node10</title>
<g id="a_edge9_Node000003_Node000010"><a xlink:title=" ">
<path fill="none" stroke="#63b8ff" d="M172.59,-432.08C179.08,-450.62 196,-491.33 225,-511.5 300.75,-564.2 411.44,-574.04 475.65,-574.84"/>
<polygon fill="#63b8ff" stroke="#63b8ff" points="475.91,-578.34 485.93,-574.9 475.95,-571.34 475.91,-578.34"/>
</a>
</g>
</g>
<!-- Node11 -->
<g id="Node000011" class="node">
<title>Node11</title>
<g id="a_Node000011"><a xlink:href="lexer_8c.html#a14a1affa5f1ee7d92339872bcd3cc602" target="_top" xlink:title="identique a la fonction lexer">
<polygon fill="white" stroke="#666666" points="296,-451 225,-451 225,-432 296,-432 296,-451"/>
<text text-anchor="middle" x="260.5" y="-439" font-family="Helvetica,sans-Serif" font-size="10.00">sub_switch</text>
</a>
</g>
</g>
<!-- Node3&#45;&gt;Node11 -->
<g id="edge11_Node000003_Node000011" class="edge">
<title>Node3&#45;&gt;Node11</title>
<g id="a_edge11_Node000003_Node000011"><a xlink:title=" ">
<path fill="none" stroke="#63b8ff" d="M189.03,-426.62C196.7,-428.24 205.84,-430.17 214.95,-432.1"/>
<polygon fill="#63b8ff" stroke="#63b8ff" points="214.26,-435.53 224.77,-434.17 215.7,-428.68 214.26,-435.53"/>
</a>
</g>
</g>
<!-- Node28 -->
<g id="Node000028" class="node">
<title>Node28</title>
<g id="a_Node000028"><a xlink:href="lexer__tokens_8c.html#a78b2b413e7059cf4c7579a83bf767d13" target="_top" xlink:title=" ">
<polygon fill="white" stroke="#666666" points="296,-56 225,-56 225,-37 296,-37 296,-56"/>
<text text-anchor="middle" x="260.5" y="-44" font-family="Helvetica,sans-Serif" font-size="10.00">verif_token</text>
</a>
</g>
</g>
<!-- Node3&#45;&gt;Node28 -->
<g id="edge42_Node000003_Node000028" class="edge">
<title>Node3&#45;&gt;Node28</title>
<g id="a_edge42_Node000003_Node000028"><a xlink:title=" ">
<path fill="none" stroke="#63b8ff" d="M171.82,-412.83C183.75,-362.96 238.42,-134.57 254.83,-66.01"/>
<polygon fill="#63b8ff" stroke="#63b8ff" points="258.28,-66.65 257.2,-56.11 251.47,-65.02 258.28,-66.65"/>
</a>
</g>
</g>
<!-- Node9 -->
<g id="Node000009" class="node">
<title>Node9</title>
<g id="a_Node000009"><a xlink:href="dot_8c.html#a36f9e0f75603ec6472a90c595e3bba79" target="_top" xlink:title="Concat path and string with &#39;/&#39; between.">
<polygon fill="white" stroke="#666666" points="843,-338 794,-338 794,-319 843,-319 843,-338"/>
<text text-anchor="middle" x="818.5" y="-326" font-family="Helvetica,sans-Serif" font-size="10.00">concat</text>
</a>
</g>
</g>
<!-- Node8&#45;&gt;Node9 -->
<g id="edge8_Node000008_Node000009" class="edge">
<title>Node8&#45;&gt;Node9</title>
<g id="a_edge8_Node000008_Node000009"><a xlink:title=" ">
<path fill="none" stroke="#63b8ff" d="M418.06,-616.02C489.34,-634.33 658.82,-665.65 755,-581.5 815.42,-528.64 769.74,-481.91 791,-404.5 796.41,-384.79 804.29,-362.8 810.05,-347.56"/>
<polygon fill="#63b8ff" stroke="#63b8ff" points="813.33,-348.79 813.64,-338.2 806.79,-346.29 813.33,-348.79"/>
</a>
</g>
</g>
<!-- Node10&#45;&gt;Node9 -->
<g id="edge10_Node000010_Node000009" class="edge">
<title>Node10&#45;&gt;Node9</title>
<g id="a_edge10_Node000010_Node000009"><a xlink:title=" ">
<path fill="none" stroke="#63b8ff" d="M570.37,-581.98C620.38,-589.64 704.12,-593.82 755,-549.5 805.07,-505.89 772.05,-468.14 791,-404.5 796.83,-384.91 804.65,-362.9 810.28,-347.63"/>
<polygon fill="#63b8ff" stroke="#63b8ff" points="813.57,-348.84 813.78,-338.24 807.01,-346.39 813.57,-348.84"/>
</a>
</g>
</g>
<!-- Node11&#45;&gt;Node9 -->
<g id="edge12_Node000011_Node000009" class="edge">
<title>Node11&#45;&gt;Node9</title>
<g id="a_edge12_Node000011_Node000009"><a xlink:title=" ">
<path fill="none" stroke="#63b8ff" d="M285.99,-431.96C289.73,-429.64 293.26,-426.84 296,-423.5 332.36,-379.1 306.32,-350.82 332,-299.5 378.29,-206.97 379.42,-159.69 472,-113.5 501.68,-98.69 733.93,-101.38 755,-117.5 785.97,-141.2 807.29,-261.27 814.66,-308.94"/>
<polygon fill="#63b8ff" stroke="#63b8ff" points="811.21,-309.56 816.16,-318.93 818.13,-308.52 811.21,-309.56"/>
</a>
</g>
</g>
<!-- Node12 -->
<g id="Node000012" class="node">
<title>Node12</title>
<g id="a_Node000012"><a xlink:href="lexer__handlers_8c.html#aaf817088d95d074a2d4e6bfce7799723" target="_top" xlink:title=" ">
<polygon fill="white" stroke="#666666" points="422,-469 346,-469 346,-450 422,-450 422,-469"/>
<text text-anchor="middle" x="384" y="-457" font-family="Helvetica,sans-Serif" font-size="10.00">handle_com</text>
</a>
</g>
</g>
<!-- Node11&#45;&gt;Node12 -->
<g id="edge13_Node000011_Node000012" class="edge">
<title>Node11&#45;&gt;Node12</title>
<g id="a_edge13_Node000011_Node000012"><a xlink:title=" ">
<path fill="none" stroke="#63b8ff" d="M296.32,-446.66C308.49,-448.46 322.37,-450.52 335.41,-452.45"/>
<polygon fill="#63b8ff" stroke="#63b8ff" points="335.22,-455.96 345.63,-453.96 336.25,-449.04 335.22,-455.96"/>
</a>
</g>
</g>
<!-- Node13 -->
<g id="Node000013" class="node">
<title>Node13</title>
<g id="a_Node000013"><a xlink:href="lexer__handlers_8c.html#aa76e470a78c6e91c7db6cce558b1a768" target="_top" xlink:title=" ">
<polygon fill="white" stroke="#666666" points="425.5,-432 342.5,-432 342.5,-413 425.5,-413 425.5,-432"/>
<text text-anchor="middle" x="384" y="-420" font-family="Helvetica,sans-Serif" font-size="10.00">handle_quote</text>
</a>
</g>
</g>
<!-- Node11&#45;&gt;Node13 -->
<g id="edge15_Node000011_Node000013" class="edge">
<title>Node11&#45;&gt;Node13</title>
<g id="a_edge15_Node000011_Node000013"><a xlink:title=" ">
<path fill="none" stroke="#63b8ff" d="M296.32,-436.06C307.49,-434.31 320.11,-432.33 332.19,-430.45"/>
<polygon fill="#63b8ff" stroke="#63b8ff" points="332.83,-433.89 342.16,-428.89 331.74,-426.97 332.83,-433.89"/>
</a>
</g>
</g>
<!-- Node14 -->
<g id="Node000014" class="node">
<title>Node14</title>
<g id="a_Node000014"><a xlink:href="lexer_8c.html#a65b9b0626e01e0653ddcae13e7c6a709" target="_top" xlink:title="Gestion des délimiteurs.">
<polygon fill="white" stroke="#666666" points="436,-328 332,-328 332,-309 436,-309 436,-328"/>
<text text-anchor="middle" x="384" y="-316" font-family="Helvetica,sans-Serif" font-size="10.00">sub_switch_delim</text>
</a>
</g>
</g>
<!-- Node11&#45;&gt;Node14 -->
<g id="edge17_Node000011_Node000014" class="edge">
<title>Node11&#45;&gt;Node14</title>
<g id="a_edge17_Node000011_Node000014"><a xlink:title=" ">
<path fill="none" stroke="#63b8ff" d="M283.12,-431.91C287.59,-429.47 292.11,-426.64 296,-423.5 327.57,-397.97 355.89,-359.53 371.14,-336.92"/>
<polygon fill="#63b8ff" stroke="#63b8ff" points="374.25,-338.56 376.85,-328.29 368.41,-334.7 374.25,-338.56"/>
</a>
</g>
</g>
<!-- Node12&#45;&gt;Node9 -->
<g id="edge14_Node000012_Node000009" class="edge">
<title>Node12&#45;&gt;Node9</title>
<g id="a_edge14_Node000012_Node000009"><a xlink:title=" ">
<path fill="none" stroke="#63b8ff" d="M403.26,-469.01C460.94,-497.6 642.13,-576.1 755,-497.5 758.23,-495.25 795.06,-391.95 810.62,-347.98"/>
<polygon fill="#63b8ff" stroke="#63b8ff" points="813.98,-349 814.01,-338.4 807.38,-346.67 813.98,-349"/>
</a>
</g>
</g>
<!-- Node13&#45;&gt;Node9 -->
<g id="edge16_Node000013_Node000009" class="edge">
<title>Node13&#45;&gt;Node9</title>
<g id="a_edge16_Node000013_Node000009"><a xlink:title=" ">
<path fill="none" stroke="#63b8ff" d="M414.61,-432.06C492.17,-456.31 699.12,-515.75 755,-478.5 766.53,-470.81 797.19,-386.53 810.81,-347.78"/>
<polygon fill="#63b8ff" stroke="#63b8ff" points="814.18,-348.76 814.18,-338.16 807.57,-346.45 814.18,-348.76"/>
</a>
</g>
</g>
<!-- Node14&#45;&gt;Node4 -->
<g id="edge18_Node000014_Node000004" class="edge">
<title>Node14&#45;&gt;Node4</title>
<g id="a_edge18_Node000014_Node000004"><a xlink:title=" ">
<path fill="none" stroke="#63b8ff" d="M392.22,-328.18C405.84,-345.73 437.08,-382.79 472,-402.5 525.7,-432.81 596.09,-447.5 641.31,-454.25"/>
<polygon fill="#63b8ff" stroke="#63b8ff" points="641.01,-457.74 651.4,-455.69 641.99,-450.81 641.01,-457.74"/>
</a>
</g>
</g>
<!-- Node15 -->
<g id="Node000015" class="node">
<title>Node15</title>
<g id="a_Node000015"><a xlink:href="lexer__handlers_8c.html#a9cdc56179aaccddb64447a4d56698992" target="_top" xlink:title=" ">
<polygon fill="white" stroke="#666666" points="580,-142 476,-142 476,-123 580,-123 580,-142"/>
<text text-anchor="middle" x="528" y="-130" font-family="Helvetica,sans-Serif" font-size="10.00">handle_backslash</text>
</a>
</g>
</g>
<!-- Node14&#45;&gt;Node15 -->
<g id="edge19_Node000014_Node000015" class="edge">
<title>Node14&#45;&gt;Node15</title>
<g id="a_edge19_Node000014_Node000015"><a xlink:title=" ">
<path fill="none" stroke="#63b8ff" d="M390.55,-308.94C403.56,-286.83 437.55,-230.84 472,-188.5 483.35,-174.55 497.61,-160.1 508.77,-149.38"/>
<polygon fill="#63b8ff" stroke="#63b8ff" points="511.41,-151.7 516.26,-142.28 506.59,-146.62 511.41,-151.7"/>
</a>
</g>
</g>
<!-- Node16 -->
<g id="Node000016" class="node">
<title>Node16</title>
<g id="a_Node000016"><a xlink:href="lexer__handlers_8c.html#a8c5df02ee3ff790dc6256318b3dd132f" target="_top" xlink:title="Crée un token de type OPENING_BRACKET ou CLOSING_BRACKET si possible.">
<polygon fill="white" stroke="#666666" points="573.5,-328 482.5,-328 482.5,-309 573.5,-309 573.5,-328"/>
<text text-anchor="middle" x="528" y="-316" font-family="Helvetica,sans-Serif" font-size="10.00">handle_bracket</text>
</a>
</g>
</g>
<!-- Node14&#45;&gt;Node16 -->
<g id="edge21_Node000014_Node000016" class="edge">
<title>Node14&#45;&gt;Node16</title>
<g id="a_edge21_Node000014_Node000016"><a xlink:title=" ">
<path fill="none" stroke="#63b8ff" d="M436.27,-318.5C447.94,-318.5 460.39,-318.5 472.2,-318.5"/>
<polygon fill="#63b8ff" stroke="#63b8ff" points="472.39,-322 482.39,-318.5 472.39,-315 472.39,-322"/>
</a>
</g>
</g>
<!-- Node19 -->
<g id="Node000019" class="node">
<title>Node19</title>
<g id="a_Node000019"><a xlink:href="lexer__handlers_8c.html#a579ccaa49e18cca908ce2409b06b5825" target="_top" xlink:title=" ">
<polygon fill="white" stroke="#666666" points="577.5,-273 478.5,-273 478.5,-254 577.5,-254 577.5,-273"/>
<text text-anchor="middle" x="528" y="-261" font-family="Helvetica,sans-Serif" font-size="10.00">handle_delimiter</text>
</a>
</g>
</g>
<!-- Node14&#45;&gt;Node19 -->
<g id="edge26_Node000014_Node000019" class="edge">
<title>Node14&#45;&gt;Node19</title>
<g id="a_edge26_Node000014_Node000019"><a xlink:title=" ">
<path fill="none" stroke="#63b8ff" d="M409.73,-308.92C432.7,-300.02 467.12,-286.69 492.73,-276.77"/>
<polygon fill="#63b8ff" stroke="#63b8ff" points="494.01,-280.03 502.07,-273.16 491.48,-273.5 494.01,-280.03"/>
</a>
</g>
</g>
<!-- Node23 -->
<g id="Node000023" class="node">
<title>Node23</title>
<g id="a_Node000023"><a xlink:href="lexer__handlers_8c.html#a3122df83e320b8f4658097885f266c59" target="_top" xlink:title="Crée un token de type FUNCTION si possible.">
<polygon fill="white" stroke="#666666" points="584,-217 472,-217 472,-198 584,-198 584,-217"/>
<text text-anchor="middle" x="528" y="-205" font-family="Helvetica,sans-Serif" font-size="10.00">handle_parenthesis</text>
</a>
</g>
</g>
<!-- Node14&#45;&gt;Node23 -->
<g id="edge33_Node000014_Node000023" class="edge">
<title>Node14&#45;&gt;Node23</title>
<g id="a_edge33_Node000014_Node000023"><a xlink:title=" ">
<path fill="none" stroke="#63b8ff" d="M395.4,-308.99C411.4,-294.5 443.24,-266.3 472,-244.5 481.97,-236.94 493.39,-229.13 503.23,-222.64"/>
<polygon fill="#63b8ff" stroke="#63b8ff" points="505.27,-225.49 511.74,-217.11 501.45,-219.63 505.27,-225.49"/>
</a>
</g>
</g>
<!-- Node24 -->
<g id="Node000024" class="node">
<title>Node24</title>
<g id="a_Node000024"><a xlink:href="lexer_8c.html#a55722ded9ba13bad6ac777b3d0f13481" target="_top" xlink:title="Gestion des opérateurs.">
<polygon fill="white" stroke="#666666" points="572,-393 484,-393 484,-374 572,-374 572,-393"/>
<text text-anchor="middle" x="528" y="-381" font-family="Helvetica,sans-Serif" font-size="10.00">sub_switch_op</text>
</a>
</g>
</g>
<!-- Node14&#45;&gt;Node24 -->
<g id="edge35_Node000014_Node000024" class="edge">
<title>Node14&#45;&gt;Node24</title>
<g id="a_edge35_Node000014_Node000024"><a xlink:title=" ">
<path fill="none" stroke="#63b8ff" d="M405.95,-328.09C429.97,-339.08 469.53,-357.19 496.85,-369.7"/>
<polygon fill="#63b8ff" stroke="#63b8ff" points="495.41,-372.89 505.96,-373.87 498.33,-366.53 495.41,-372.89"/>
</a>
</g>
</g>
<!-- Node15&#45;&gt;Node9 -->
<g id="edge20_Node000015_Node000009" class="edge">
<title>Node15&#45;&gt;Node9</title>
<g id="a_edge20_Node000015_Node000009"><a xlink:title=" ">
<path fill="none" stroke="#63b8ff" d="M580,-123.63C629.91,-117.94 705.44,-117.71 755,-156.5 802.86,-193.96 814.09,-271.48 816.71,-308.27"/>
<polygon fill="#63b8ff" stroke="#63b8ff" points="813.24,-308.89 817.3,-318.68 820.23,-308.5 813.24,-308.89"/>
</a>
</g>
</g>
<!-- Node17 -->
<g id="Node000017" class="node">
<title>Node17</title>
<g id="a_Node000017"><a xlink:href="lexer__handlers_8c.html#af0bc509a05ea8f1f639745c3db1edff0" target="_top" xlink:title=" ">
<polygon fill="white" stroke="#666666" points="753,-356 622,-356 622,-337 753,-337 753,-356"/>
<text text-anchor="middle" x="687.5" y="-344" font-family="Helvetica,sans-Serif" font-size="10.00">handle_closing_bracket</text>
</a>
</g>
</g>
<!-- Node16&#45;&gt;Node17 -->
<g id="edge22_Node000016_Node000017" class="edge">
<title>Node16&#45;&gt;Node17</title>
<g id="a_edge22_Node000016_Node000017"><a xlink:title=" ">
<path fill="none" stroke="#63b8ff" d="M573.71,-326.45C589,-329.17 606.41,-332.26 622.9,-335.19"/>
<polygon fill="#63b8ff" stroke="#63b8ff" points="622.56,-338.69 633.02,-336.99 623.78,-331.8 622.56,-338.69"/>
</a>
</g>
</g>
<!-- Node18 -->
<g id="Node000018" class="node">
<title>Node18</title>
<g id="a_Node000018"><a xlink:href="lexer__handlers_8c.html#ac6741237800ed58a7ea25d1b02c4ada3" target="_top" xlink:title=" ">
<polygon fill="white" stroke="#666666" points="755,-319 620,-319 620,-300 755,-300 755,-319"/>
<text text-anchor="middle" x="687.5" y="-307" font-family="Helvetica,sans-Serif" font-size="10.00">handle_opening_bracket</text>
</a>
</g>
</g>
<!-- Node16&#45;&gt;Node18 -->
<g id="edge24_Node000016_Node000018" class="edge">
<title>Node16&#45;&gt;Node18</title>
<g id="a_edge24_Node000016_Node000018"><a xlink:title=" ">
<path fill="none" stroke="#63b8ff" d="M573.71,-315.95C584.94,-315.3 597.31,-314.6 609.61,-313.89"/>
<polygon fill="#63b8ff" stroke="#63b8ff" points="610.13,-317.37 619.91,-313.3 609.73,-310.38 610.13,-317.37"/>
</a>
</g>
</g>
<!-- Node17&#45;&gt;Node9 -->
<g id="edge23_Node000017_Node000009" class="edge">
<title>Node17&#45;&gt;Node9</title>
<g id="a_edge23_Node000017_Node000009"><a xlink:title=" ">
<path fill="none" stroke="#63b8ff" d="M753.38,-337.45C763.86,-335.98 774.33,-334.52 783.68,-333.22"/>
<polygon fill="#63b8ff" stroke="#63b8ff" points="784.28,-336.67 793.7,-331.82 783.32,-329.74 784.28,-336.67"/>
</a>
</g>
</g>
<!-- Node18&#45;&gt;Node9 -->
<g id="edge25_Node000018_Node000009" class="edge">
<title>Node18&#45;&gt;Node9</title>
<g id="a_edge25_Node000018_Node000009"><a xlink:title=" ">
<path fill="none" stroke="#63b8ff" d="M753.38,-319.06C763.86,-320.6 774.33,-322.14 783.68,-323.52"/>
<polygon fill="#63b8ff" stroke="#63b8ff" points="783.3,-327 793.7,-325 784.32,-320.08 783.3,-327"/>
</a>
</g>
</g>
<!-- Node20 -->
<g id="Node000020" class="node">
<title>Node20</title>
<g id="a_Node000020"><a xlink:href="lexer__handlers_8c.html#a2ed09a62089d61b6a2928dcbcc623e7f" target="_top" xlink:title=" ">
<polygon fill="white" stroke="#666666" points="728.5,-245 646.5,-245 646.5,-226 728.5,-226 728.5,-245"/>
<text text-anchor="middle" x="687.5" y="-233" font-family="Helvetica,sans-Serif" font-size="10.00">handle_blank</text>
</a>
</g>
</g>
<!-- Node19&#45;&gt;Node20 -->
<g id="edge27_Node000019_Node000020" class="edge">
<title>Node19&#45;&gt;Node20</title>
<g id="a_edge27_Node000019_Node000020"><a xlink:title=" ">
<path fill="none" stroke="#63b8ff" d="M577.54,-254.87C596.23,-251.55 617.61,-247.75 636.44,-244.4"/>
<polygon fill="#63b8ff" stroke="#63b8ff" points="637.09,-247.84 646.32,-242.64 635.86,-240.95 637.09,-247.84"/>
</a>
</g>
</g>
<!-- Node21 -->
<g id="Node000021" class="node">
<title>Node21</title>
<g id="a_Node000021"><a xlink:href="lexer__handlers_8c.html#aa69ff9b0e657615d22e4220657378e92" target="_top" xlink:title=" ">
<polygon fill="white" stroke="#666666" points="734,-208 641,-208 641,-189 734,-189 734,-208"/>
<text text-anchor="middle" x="687.5" y="-196" font-family="Helvetica,sans-Serif" font-size="10.00">handle_newline</text>
</a>
</g>
</g>
<!-- Node19&#45;&gt;Node21 -->
<g id="edge29_Node000019_Node000021" class="edge">
<title>Node19&#45;&gt;Node21</title>
<g id="a_edge29_Node000019_Node000021"><a xlink:title=" ">
<path fill="none" stroke="#63b8ff" d="M544.95,-253.93C562.75,-243.58 592.65,-227.12 620,-216.5 625.09,-214.52 630.47,-212.68 635.89,-210.99"/>
<polygon fill="#63b8ff" stroke="#63b8ff" points="637.03,-214.3 645.61,-208.1 635.03,-207.59 637.03,-214.3"/>
</a>
</g>
</g>
<!-- Node22 -->
<g id="Node000022" class="node">
<title>Node22</title>
<g id="a_Node000022"><a xlink:href="lexer__handlers_8c.html#afa8aa1a23dd8c155bcfb4145f2099aaf" target="_top" xlink:title=" ">
<polygon fill="white" stroke="#666666" points="740,-282 635,-282 635,-263 740,-263 740,-282"/>
<text text-anchor="middle" x="687.5" y="-270" font-family="Helvetica,sans-Serif" font-size="10.00">handle_semicolon</text>
</a>
</g>
</g>
<!-- Node19&#45;&gt;Node22 -->
<g id="edge31_Node000019_Node000022" class="edge">
<title>Node19&#45;&gt;Node22</title>
<g id="a_edge31_Node000019_Node000022"><a xlink:title=" ">
<path fill="none" stroke="#63b8ff" d="M577.54,-266.27C592.44,-267.13 609.05,-268.07 624.71,-268.97"/>
<polygon fill="#63b8ff" stroke="#63b8ff" points="624.66,-272.47 634.84,-269.55 625.06,-265.48 624.66,-272.47"/>
</a>
</g>
</g>
<!-- Node20&#45;&gt;Node9 -->
<g id="edge28_Node000020_Node000009" class="edge">
<title>Node20&#45;&gt;Node9</title>
<g id="a_edge28_Node000020_Node000009"><a xlink:title=" ">
<path fill="none" stroke="#63b8ff" d="M728.5,-242.1C737.67,-244.73 747.05,-248.4 755,-253.5 777.51,-267.94 796.02,-293.07 806.9,-310.23"/>
<polygon fill="#63b8ff" stroke="#63b8ff" points="803.95,-312.1 812.14,-318.82 809.92,-308.46 803.95,-312.1"/>
</a>
</g>
</g>
<!-- Node21&#45;&gt;Node9 -->
<g id="edge30_Node000021_Node000009" class="edge">
<title>Node21&#45;&gt;Node9</title>
<g id="a_edge30_Node000021_Node000009"><a xlink:title=" ">
<path fill="none" stroke="#63b8ff" d="M734.08,-205.62C741.57,-208.2 748.87,-211.71 755,-216.5 785.57,-240.38 803.48,-283.63 811.8,-308.82"/>
<polygon fill="#63b8ff" stroke="#63b8ff" points="808.56,-310.19 814.87,-318.7 815.25,-308.11 808.56,-310.19"/>
</a>
</g>
</g>
<!-- Node22&#45;&gt;Node9 -->
<g id="edge32_Node000022_Node000009" class="edge">
<title>Node22&#45;&gt;Node9</title>
<g id="a_edge32_Node000022_Node000009"><a xlink:title=" ">
<path fill="none" stroke="#63b8ff" d="M730.97,-282.07C739.09,-284.44 747.42,-287.25 755,-290.5 769.18,-296.58 783.98,-305.45 795.62,-313.09"/>
<polygon fill="#63b8ff" stroke="#63b8ff" points="793.95,-316.19 804.2,-318.88 797.87,-310.39 793.95,-316.19"/>
</a>
</g>
</g>
<!-- Node23&#45;&gt;Node9 -->
<g id="edge34_Node000023_Node000009" class="edge">
<title>Node23&#45;&gt;Node9</title>
<g id="a_edge34_Node000023_Node000009"><a xlink:title=" ">
<path fill="none" stroke="#63b8ff" d="M546.95,-197.93C587.75,-177.64 688.99,-135.61 755,-179.5 798.88,-208.68 812.02,-275.26 815.9,-308.65"/>
<polygon fill="#63b8ff" stroke="#63b8ff" points="812.45,-309.35 816.92,-318.96 819.42,-308.66 812.45,-309.35"/>
</a>
</g>
</g>
<!-- Node24&#45;&gt;Node4 -->
<g id="edge36_Node000024_Node000004" class="edge">
<title>Node24&#45;&gt;Node4</title>
<g id="a_edge36_Node000024_Node000004"><a xlink:title=" ">
<path fill="none" stroke="#63b8ff" d="M555.98,-393.09C565.22,-396.93 575.4,-401.81 584,-407.5 602.36,-419.64 600.8,-430.74 620,-441.5 626.68,-445.24 634.17,-448.23 641.65,-450.62"/>
<polygon fill="#63b8ff" stroke="#63b8ff" points="640.83,-454.03 651.41,-453.42 642.77,-447.3 640.83,-454.03"/>
</a>
</g>
</g>
<!-- Node24&#45;&gt;Node9 -->
<g id="edge37_Node000024_Node000009" class="edge">
<title>Node24&#45;&gt;Node9</title>
<g id="a_edge37_Node000024_Node000009"><a xlink:title=" ">
<path fill="none" stroke="#63b8ff" d="M572.17,-385.77C618.48,-386.9 693.65,-384.95 755,-365.5 769.8,-360.81 784.81,-352.08 796.42,-344.27"/>
<polygon fill="#63b8ff" stroke="#63b8ff" points="798.75,-346.91 804.92,-338.31 794.73,-341.18 798.75,-346.91"/>
</a>
</g>
</g>
<!-- Node25 -->
<g id="Node000025" class="node">
<title>Node25</title>
<g id="a_Node000025"><a xlink:href="lexer__handlers_8c.html#a1320ab2067e73a5de0d576175ad3d363" target="_top" xlink:title=" ">
<polygon fill="white" stroke="#666666" points="714.5,-432 660.5,-432 660.5,-413 714.5,-413 714.5,-432"/>
<text text-anchor="middle" x="687.5" y="-420" font-family="Helvetica,sans-Serif" font-size="10.00">new_op</text>
</a>
</g>
</g>
<!-- Node24&#45;&gt;Node25 -->
<g id="edge38_Node000024_Node000025" class="edge">
<title>Node24&#45;&gt;Node25</title>
<g id="a_edge38_Node000024_Node000025"><a xlink:title=" ">
<path fill="none" stroke="#63b8ff" d="M567.53,-393.04C592.82,-399.3 625.68,-407.44 650.46,-413.58"/>
<polygon fill="#63b8ff" stroke="#63b8ff" points="649.65,-416.98 660.2,-415.99 651.33,-410.19 649.65,-416.98"/>
</a>
</g>
</g>
<!-- Node25&#45;&gt;Node9 -->
<g id="edge39_Node000025_Node000009" class="edge">
<title>Node25&#45;&gt;Node9</title>
<g id="a_edge39_Node000025_Node000009"><a xlink:title=" ">
<path fill="none" stroke="#63b8ff" d="M714.53,-416.36C727.42,-412.53 742.8,-406.75 755,-398.5 775.76,-384.47 794.14,-362.03 805.5,-346.35"/>
<polygon fill="#63b8ff" stroke="#63b8ff" points="808.47,-348.21 811.34,-338.01 802.74,-344.19 808.47,-348.21"/>
</a>
</g>
</g>
<!-- Node26 -->
<g id="Node000026" class="node">
<title>Node26</title>
<g id="a_Node000026"><a xlink:href="lexer__utils_8c.html#ad3b801c5fcc7cb2d760cb161bf5038a0" target="_top" xlink:title=" ">
<polygon fill="white" stroke="#666666" points="846,-432 791,-432 791,-413 846,-413 846,-432"/>
<text text-anchor="middle" x="818.5" y="-420" font-family="Helvetica,sans-Serif" font-size="10.00">valid_io</text>
</a>
</g>
</g>
<!-- Node25&#45;&gt;Node26 -->
<g id="edge40_Node000025_Node000026" class="edge">
<title>Node25&#45;&gt;Node26</title>
<g id="a_edge40_Node000025_Node000026"><a xlink:title=" ">
<path fill="none" stroke="#63b8ff" d="M714.61,-422.5C733.63,-422.5 759.65,-422.5 780.77,-422.5"/>
<polygon fill="#63b8ff" stroke="#63b8ff" points="780.99,-426 790.99,-422.5 780.99,-419 780.99,-426"/>
</a>
</g>
</g>
<!-- Node27 -->
<g id="Node000027" class="node">
<title>Node27</title>
<g id="a_Node000027"><a xlink:href="lexer__utils_8c.html#a8fa30988b9ccc705850dfee0220bf34a" target="_top" xlink:title=" ">
<polygon fill="white" stroke="#666666" points="938,-432 882,-432 882,-413 938,-413 938,-432"/>
<text text-anchor="middle" x="910" y="-420" font-family="Helvetica,sans-Serif" font-size="10.00">all_digit</text>
</a>
</g>
</g>
<!-- Node26&#45;&gt;Node27 -->
<g id="edge41_Node000026_Node000027" class="edge">
<title>Node26&#45;&gt;Node27</title>
<g id="a_edge41_Node000026_Node000027"><a xlink:title=" ">
<path fill="none" stroke="#63b8ff" d="M846.35,-422.5C854.33,-422.5 863.22,-422.5 871.74,-422.5"/>
<polygon fill="#63b8ff" stroke="#63b8ff" points="871.86,-426 881.86,-422.5 871.86,-419 871.86,-426"/>
</a>
</g>
</g>
<!-- Node29 -->
<g id="Node000029" class="node">
<title>Node29</title>
<g id="a_Node000029"><a xlink:href="lexer__tokens_8c.html#ab8c1bbfef4c1716c7557658824823316" target="_top" xlink:title=" ">
<polygon fill="white" stroke="#666666" points="425.5,-19 342.5,-19 342.5,0 425.5,0 425.5,-19"/>
<text text-anchor="middle" x="384" y="-7" font-family="Helvetica,sans-Serif" font-size="10.00">verif_token_if</text>
</a>
</g>
</g>
<!-- Node28&#45;&gt;Node29 -->
<g id="edge43_Node000028_Node000029" class="edge">
<title>Node28&#45;&gt;Node29</title>
<g id="a_edge43_Node000028_Node000029"><a xlink:title=" ">
<path fill="none" stroke="#63b8ff" d="M292.79,-36.97C307.7,-32.43 325.72,-26.94 341.73,-22.07"/>
<polygon fill="#63b8ff" stroke="#63b8ff" points="342.85,-25.39 351.39,-19.12 340.81,-18.69 342.85,-25.39"/>
</a>
</g>
</g>
<!-- Node30 -->
<g id="Node000030" class="node">
<title>Node30</title>
<g id="a_Node000030"><a xlink:href="lexer__tokens_8c.html#a74242b2210e1f957abbecfde13ff30d4" target="_top" xlink:title=" ">
<polygon fill="white" stroke="#666666" points="433,-56 335,-56 335,-37 433,-37 433,-56"/>
<text text-anchor="middle" x="384" y="-44" font-family="Helvetica,sans-Serif" font-size="10.00">verif_token_loop</text>
</a>
</g>
</g>
<!-- Node28&#45;&gt;Node30 -->
<g id="edge44_Node000028_Node000030" class="edge">
<title>Node28&#45;&gt;Node30</title>
<g id="a_edge44_Node000028_Node000030"><a xlink:title=" ">
<path fill="none" stroke="#63b8ff" d="M296.32,-46.5C305.16,-46.5 314.92,-46.5 324.59,-46.5"/>
<polygon fill="#63b8ff" stroke="#63b8ff" points="324.6,-50 334.6,-46.5 324.6,-43 324.6,-50"/>
</a>
</g>
</g>
</g>
</svg>
