<?xml version="1.0" encoding="UTF-8" standalone="no"?>
<!DOCTYPE svg PUBLIC "-//W3C//DTD SVG 1.1//EN"
 "http://www.w3.org/Graphics/SVG/1.1/DTD/svg11.dtd">
<!-- Generated by graphviz version 2.43.0 (0)
 -->
<!-- Title: parser_redir Pages: 1 -->
<svg width="1129pt" height="704pt"
 viewBox="0.00 0.00 1129.00 704.00" xmlns="http://www.w3.org/2000/svg" xmlns:xlink="http://www.w3.org/1999/xlink">
<g id="graph0" class="graph" transform="scale(1 1) rotate(0) translate(4 700)">
<title>parser_redir</title>
<!-- Node1 -->
<g id="Node000001" class="node">
<title>Node1</title>
<g id="a_Node000001"><a xlink:title="Parse a redirection.">
<polygon fill="#999999" stroke="#666666" points="75,-583 0,-583 0,-564 75,-564 75,-583"/>
<text text-anchor="middle" x="37.5" y="-571" font-family="Helvetica,sans-Serif" font-size="10.00">parser_redir</text>
</a>
</g>
</g>
<!-- Node2 -->
<g id="Node000002" class="node">
<title>Node2</title>
<g id="a_Node000002"><a xlink:href="parser__utils_8c.html#a850bf7ce4f8841d46020a022c0ab32fc" target="_top" xlink:title="Free a discarded token.">
<polygon fill="white" stroke="#666666" points="295,-684 211,-684 211,-665 295,-665 295,-684"/>
<text text-anchor="middle" x="253" y="-672" font-family="Helvetica,sans-Serif" font-size="10.00">discard_token</text>
</a>
</g>
</g>
<!-- Node1&#45;&gt;Node2 -->
<g id="edge1_Node000001_Node000002" class="edge">
<title>Node1&#45;&gt;Node2</title>
<g id="a_edge1_Node000001_Node000002"><a xlink:title=" ">
<path fill="none" stroke="#63b8ff" d="M49.59,-583.28C63.23,-594.91 87.49,-614.27 111,-626.5 140.52,-641.86 176,-653.91 203.98,-662.09"/>
<polygon fill="#63b8ff" stroke="#63b8ff" points="203.34,-665.55 213.92,-664.93 205.27,-658.82 203.34,-665.55"/>
</a>
</g>
</g>
<!-- Node4 -->
<g id="Node000004" class="node">
<title>Node4</title>
<g id="a_Node000004"><a xlink:href="redir_8c.html#a66e1b4443235f9dead4bef79426a867e" target="_top" xlink:title="Free redir struct.">
<polygon fill="white" stroke="#666666" points="175,-565 111,-565 111,-546 175,-546 175,-565"/>
<text text-anchor="middle" x="143" y="-553" font-family="Helvetica,sans-Serif" font-size="10.00">free_redir</text>
</a>
</g>
</g>
<!-- Node1&#45;&gt;Node4 -->
<g id="edge3_Node000001_Node000004" class="edge">
<title>Node1&#45;&gt;Node4</title>
<g id="a_edge3_Node000001_Node000004"><a xlink:title=" ">
<path fill="none" stroke="#63b8ff" d="M75.28,-567.1C83.54,-565.67 92.36,-564.13 100.79,-562.67"/>
<polygon fill="#63b8ff" stroke="#63b8ff" points="101.56,-566.09 110.82,-560.92 100.36,-559.19 101.56,-566.09"/>
</a>
</g>
</g>
<!-- Node5 -->
<g id="Node000005" class="node">
<title>Node5</title>
<g id="a_Node000005"><a xlink:href="redir_8c.html#aae807d41dfdf4158c698f5eb4cf7aa41" target="_top" xlink:title="Init redir struct.">
<polygon fill="white" stroke="#666666" points="173,-528 113,-528 113,-509 173,-509 173,-528"/>
<text text-anchor="middle" x="143" y="-516" font-family="Helvetica,sans-Serif" font-size="10.00">init_redir</text>
</a>
</g>
</g>
<!-- Node1&#45;&gt;Node5 -->
<g id="edge4_Node000001_Node000005" class="edge">
<title>Node1&#45;&gt;Node5</title>
<g id="a_edge4_Node000001_Node000005"><a xlink:title=" ">
<path fill="none" stroke="#63b8ff" d="M56.53,-563.92C72.61,-555.38 96.38,-542.74 114.77,-532.97"/>
<polygon fill="#63b8ff" stroke="#63b8ff" points="116.64,-535.94 123.83,-528.16 113.36,-529.76 116.64,-535.94"/>
</a>
</g>
</g>
<!-- Node6 -->
<g id="Node000006" class="node">
<title>Node6</title>
<g id="a_Node000006"><a xlink:href="parser__utils_8c.html#ad91e883ddb1e91cde4e34a0f00e009ce" target="_top" xlink:title=" ">
<polygon fill="white" stroke="#666666" points="169.5,-491 116.5,-491 116.5,-472 169.5,-472 169.5,-491"/>
<text text-anchor="middle" x="143" y="-479" font-family="Helvetica,sans-Serif" font-size="10.00">is_redir</text>
</a>
</g>
</g>
<!-- Node1&#45;&gt;Node6 -->
<g id="edge5_Node000001_Node000006" class="edge">
<title>Node1&#45;&gt;Node6</title>
<g id="a_edge5_Node000001_Node000006"><a xlink:title=" ">
<path fill="none" stroke="#63b8ff" d="M46.49,-563.81C59.13,-548.84 85.02,-519.7 111,-499.5 112.2,-498.57 113.45,-497.65 114.73,-496.75"/>
<polygon fill="#63b8ff" stroke="#63b8ff" points="116.9,-499.52 123.44,-491.18 113.13,-493.63 116.9,-499.52"/>
</a>
</g>
</g>
<!-- Node7 -->
<g id="Node000007" class="node">
<title>Node7</title>
<g id="a_Node000007"><a xlink:href="parser__utils_8c.html#a0f885603168edee811b2b6880a9bf598" target="_top" xlink:title="Peek on the lexer to see the current token.">
<polygon fill="white" stroke="#666666" points="273.5,-602 232.5,-602 232.5,-583 273.5,-583 273.5,-602"/>
<text text-anchor="middle" x="253" y="-590" font-family="Helvetica,sans-Serif" font-size="10.00">peek</text>
</a>
</g>
</g>
<!-- Node1&#45;&gt;Node7 -->
<g id="edge6_Node000001_Node000007" class="edge">
<title>Node1&#45;&gt;Node7</title>
<g id="a_edge6_Node000001_Node000007"><a xlink:title=" ">
<path fill="none" stroke="#63b8ff" d="M52.43,-583.15C66.48,-592.25 89.15,-605.25 111,-610.5 148.82,-619.59 193.53,-610.66 222.3,-602.46"/>
<polygon fill="#63b8ff" stroke="#63b8ff" points="223.57,-605.73 232.14,-599.5 221.55,-599.03 223.57,-605.73"/>
</a>
</g>
</g>
<!-- Node35 -->
<g id="Node000035" class="node">
<title>Node35</title>
<g id="a_Node000035"><a xlink:href="parser__utils_8c.html#a2231147ddff6c3f7ee8c218a9273465e" target="_top" xlink:title="Pop the current token from lex.">
<polygon fill="white" stroke="#666666" points="160.5,-602 125.5,-602 125.5,-583 160.5,-583 160.5,-602"/>
<text text-anchor="middle" x="143" y="-590" font-family="Helvetica,sans-Serif" font-size="10.00">pop</text>
</a>
</g>
</g>
<!-- Node1&#45;&gt;Node35 -->
<g id="edge50_Node000001_Node000035" class="edge">
<title>Node1&#45;&gt;Node35</title>
<g id="a_edge50_Node000001_Node000035"><a xlink:title=" ">
<path fill="none" stroke="#63b8ff" d="M75.28,-580.25C88.49,-582.68 103.13,-585.36 115.32,-587.6"/>
<polygon fill="#63b8ff" stroke="#63b8ff" points="114.84,-591.07 125.3,-589.44 116.1,-584.19 114.84,-591.07"/>
</a>
</g>
</g>
<!-- Node3 -->
<g id="Node000003" class="node">
<title>Node3</title>
<g id="a_Node000003"><a xlink:href="token_8c.html#a491cb915cd703d12b24d7c6adc0412cc" target="_top" xlink:title=" ">
<polygon fill="white" stroke="#666666" points="477.5,-696 409.5,-696 409.5,-677 477.5,-677 477.5,-696"/>
<text text-anchor="middle" x="443.5" y="-684" font-family="Helvetica,sans-Serif" font-size="10.00">free_token</text>
</a>
</g>
</g>
<!-- Node2&#45;&gt;Node3 -->
<g id="edge2_Node000002_Node000003" class="edge">
<title>Node2&#45;&gt;Node3</title>
<g id="a_edge2_Node000002_Node000003"><a xlink:title=" ">
<path fill="none" stroke="#63b8ff" d="M295.37,-677.13C326.14,-679.09 368.02,-681.76 399.23,-683.75"/>
<polygon fill="#63b8ff" stroke="#63b8ff" points="399.18,-687.25 409.38,-684.39 399.62,-680.26 399.18,-687.25"/>
</a>
</g>
</g>
<!-- Node8 -->
<g id="Node000008" class="node">
<title>Node8</title>
<g id="a_Node000008"><a xlink:href="lexer_8c.html#ab0a076d4847ef2557a4e8d2e0852092d" target="_top" xlink:title="Transforme le FILE en token.">
<polygon fill="white" stroke="#666666" points="372,-585 331,-585 331,-566 372,-566 372,-585"/>
<text text-anchor="middle" x="351.5" y="-573" font-family="Helvetica,sans-Serif" font-size="10.00">lexer</text>
</a>
</g>
</g>
<!-- Node7&#45;&gt;Node8 -->
<g id="edge7_Node000007_Node000008" class="edge">
<title>Node7&#45;&gt;Node8</title>
<g id="a_edge7_Node000007_Node000008"><a xlink:title=" ">
<path fill="none" stroke="#63b8ff" d="M273.53,-589.06C287.04,-586.68 305.28,-583.47 320.61,-580.76"/>
<polygon fill="#63b8ff" stroke="#63b8ff" points="321.43,-584.18 330.67,-578.99 320.21,-577.28 321.43,-584.18"/>
</a>
</g>
</g>
<!-- Node8&#45;&gt;Node3 -->
<g id="edge10_Node000008_Node000003" class="edge">
<title>Node8&#45;&gt;Node3</title>
<g id="a_edge10_Node000008_Node000003"><a xlink:title=" ">
<path fill="none" stroke="#63b8ff" d="M356.33,-585.22C363.87,-603.34 382.18,-642.68 408,-667.5 409.4,-668.85 410.92,-670.14 412.52,-671.35"/>
<polygon fill="#63b8ff" stroke="#63b8ff" points="410.6,-674.28 420.87,-676.87 414.46,-668.44 410.6,-674.28"/>
</a>
</g>
</g>
<!-- Node9 -->
<g id="Node000009" class="node">
<title>Node9</title>
<g id="a_Node000009"><a xlink:href="lexer__tokens_8c.html#ae59c383936dadf54742b836a5bd2a70b" target="_top" xlink:title=" ">
<polygon fill="white" stroke="#666666" points="906.5,-95 834.5,-95 834.5,-76 906.5,-76 906.5,-95"/>
<text text-anchor="middle" x="870.5" y="-83" font-family="Helvetica,sans-Serif" font-size="10.00">check_type</text>
</a>
</g>
</g>
<!-- Node8&#45;&gt;Node9 -->
<g id="edge8_Node000008_Node000009" class="edge">
<title>Node8&#45;&gt;Node9</title>
<g id="a_edge8_Node000008_Node000009"><a xlink:title=" ">
<path fill="none" stroke="#63b8ff" d="M353.86,-565.8C361.11,-517.65 399.2,-301.66 515,-179.5 597,-93 748.63,-82.74 824.21,-83.47"/>
<polygon fill="#63b8ff" stroke="#63b8ff" points="824.3,-86.98 834.36,-83.64 824.42,-79.98 824.3,-86.98"/>
</a>
</g>
</g>
<!-- Node10 -->
<g id="Node000010" class="node">
<title>Node10</title>
<g id="a_Node000010"><a xlink:href="lexer__tokens_8c.html#af41b4fb75a0f3ece50d1c55cf5ad55bd" target="_top" xlink:title=" ">
<polygon fill="white" stroke="#666666" points="477,-659 410,-659 410,-640 477,-640 477,-659"/>
<text text-anchor="middle" x="443.5" y="-647" font-family="Helvetica,sans-Serif" font-size="10.00">end_token</text>
</a>
</g>
</g>
<!-- Node8&#45;&gt;Node10 -->
<g id="edge9_Node000008_Node000010" class="edge">
<title>Node8&#45;&gt;Node10</title>
<g id="a_edge9_Node000008_Node000010"><a xlink:title=" ">
<path fill="none" stroke="#63b8ff" d="M360.83,-585.27C371.12,-596.97 389.53,-616.69 408,-630.5 409.87,-631.9 411.85,-633.26 413.89,-634.57"/>
<polygon fill="#63b8ff" stroke="#63b8ff" points="412.55,-637.85 422.93,-639.95 416.13,-631.83 412.55,-637.85"/>
</a>
</g>
</g>
<!-- Node11 -->
<g id="Node000011" class="node">
<title>Node11</title>
<g id="a_Node000011"><a xlink:href="token_8c.html#a4f0f028b792947862bc2364f30f3d3d2" target="_top" xlink:title="Init struct token.">
<polygon fill="white" stroke="#666666" points="476,-622 411,-622 411,-603 476,-603 476,-622"/>
<text text-anchor="middle" x="443.5" y="-610" font-family="Helvetica,sans-Serif" font-size="10.00">init_token</text>
</a>
</g>
</g>
<!-- Node8&#45;&gt;Node11 -->
<g id="edge11_Node000008_Node000011" class="edge">
<title>Node8&#45;&gt;Node11</title>
<g id="a_edge11_Node000008_Node000011"><a xlink:title=" ">
<path fill="none" stroke="#63b8ff" d="M372.03,-583.53C383.07,-588.07 397.16,-593.86 409.84,-599.07"/>
<polygon fill="#63b8ff" stroke="#63b8ff" points="408.6,-602.35 419.18,-602.91 411.26,-595.87 408.6,-602.35"/>
</a>
</g>
</g>
<!-- Node12 -->
<g id="Node000012" class="node">
<title>Node12</title>
<g id="a_Node000012"><a xlink:href="lexer__operators_8c.html#a274e606313b69e42745e7278ed244bc8" target="_top" xlink:title="Handle a possible operator.">
<polygon fill="white" stroke="#666666" points="604,-547 530,-547 530,-528 604,-528 604,-547"/>
<text text-anchor="middle" x="567" y="-535" font-family="Helvetica,sans-Serif" font-size="10.00">manage_op</text>
</a>
</g>
</g>
<!-- Node8&#45;&gt;Node12 -->
<g id="edge12_Node000008_Node000012" class="edge">
<title>Node8&#45;&gt;Node12</title>
<g id="a_edge12_Node000008_Node000012"><a xlink:title=" ">
<path fill="none" stroke="#63b8ff" d="M372.24,-567.61C382.72,-563.71 395.89,-559.27 408,-556.5 445.02,-548.04 487.84,-543.18 519.56,-540.5"/>
<polygon fill="#63b8ff" stroke="#63b8ff" points="520.17,-543.97 529.86,-539.68 519.61,-536.99 520.17,-543.97"/>
</a>
</g>
</g>
<!-- Node14 -->
<g id="Node000014" class="node">
<title>Node14</title>
<g id="a_Node000014"><a xlink:href="lexer__operators_8c.html#a0758cae1bae4276754a185e231ad4760" target="_top" xlink:title="Handle different redirections.">
<polygon fill="white" stroke="#666666" points="753,-509 669,-509 669,-490 753,-490 753,-509"/>
<text text-anchor="middle" x="711" y="-497" font-family="Helvetica,sans-Serif" font-size="10.00">manage_redir</text>
</a>
</g>
</g>
<!-- Node8&#45;&gt;Node14 -->
<g id="edge14_Node000008_Node000014" class="edge">
<title>Node8&#45;&gt;Node14</title>
<g id="a_edge14_Node000008_Node000014"><a xlink:title=" ">
<path fill="none" stroke="#63b8ff" d="M365.51,-565.77C376.35,-558.11 392.47,-547.71 408,-541.5 491.39,-508.13 596.92,-500.54 658.59,-499.22"/>
<polygon fill="#63b8ff" stroke="#63b8ff" points="658.91,-502.72 668.85,-499.05 658.79,-495.72 658.91,-502.72"/>
</a>
</g>
</g>
<!-- Node15 -->
<g id="Node000015" class="node">
<title>Node15</title>
<g id="a_Node000015"><a xlink:href="lexer_8c.html#a14a1affa5f1ee7d92339872bcd3cc602" target="_top" xlink:title="identique a la fonction lexer">
<polygon fill="white" stroke="#666666" points="479,-433 408,-433 408,-414 479,-414 479,-433"/>
<text text-anchor="middle" x="443.5" y="-421" font-family="Helvetica,sans-Serif" font-size="10.00">sub_switch</text>
</a>
</g>
</g>
<!-- Node8&#45;&gt;Node15 -->
<g id="edge16_Node000008_Node000015" class="edge">
<title>Node8&#45;&gt;Node15</title>
<g id="a_edge16_Node000008_Node000015"><a xlink:title=" ">
<path fill="none" stroke="#63b8ff" d="M358.13,-565.99C372.78,-541.25 412.27,-474.55 431.58,-441.94"/>
<polygon fill="#63b8ff" stroke="#63b8ff" points="434.79,-443.39 436.87,-433 428.77,-439.83 434.79,-443.39"/>
</a>
</g>
</g>
<!-- Node32 -->
<g id="Node000032" class="node">
<title>Node32</title>
<g id="a_Node000032"><a xlink:href="lexer__tokens_8c.html#a78b2b413e7059cf4c7579a83bf767d13" target="_top" xlink:title=" ">
<polygon fill="white" stroke="#666666" points="479,-585 408,-585 408,-566 479,-566 479,-585"/>
<text text-anchor="middle" x="443.5" y="-573" font-family="Helvetica,sans-Serif" font-size="10.00">verif_token</text>
</a>
</g>
</g>
<!-- Node8&#45;&gt;Node32 -->
<g id="edge47_Node000008_Node000032" class="edge">
<title>Node8&#45;&gt;Node32</title>
<g id="a_edge47_Node000008_Node000032"><a xlink:title=" ">
<path fill="none" stroke="#63b8ff" d="M372.03,-575.5C379.62,-575.5 388.64,-575.5 397.66,-575.5"/>
<polygon fill="#63b8ff" stroke="#63b8ff" points="397.77,-579 407.77,-575.5 397.77,-572 397.77,-579"/>
</a>
</g>
</g>
<!-- Node13 -->
<g id="Node000013" class="node">
<title>Node13</title>
<g id="a_Node000013"><a xlink:href="dot_8c.html#a36f9e0f75603ec6472a90c595e3bba79" target="_top" xlink:title="Concat path and string with &#39;/&#39; between.">
<polygon fill="white" stroke="#666666" points="1026,-301 977,-301 977,-282 1026,-282 1026,-301"/>
<text text-anchor="middle" x="1001.5" y="-289" font-family="Helvetica,sans-Serif" font-size="10.00">concat</text>
</a>
</g>
</g>
<!-- Node12&#45;&gt;Node13 -->
<g id="edge13_Node000012_Node000013" class="edge">
<title>Node12&#45;&gt;Node13</title>
<g id="a_edge13_Node000012_Node000013"><a xlink:title=" ">
<path fill="none" stroke="#63b8ff" d="M604.16,-546.68C676.52,-562.74 840.55,-587.11 938,-507.5 968.86,-482.29 990.24,-359.94 997.64,-311.4"/>
<polygon fill="#63b8ff" stroke="#63b8ff" points="1001.15,-311.64 999.15,-301.24 994.22,-310.62 1001.15,-311.64"/>
</a>
</g>
</g>
<!-- Node14&#45;&gt;Node13 -->
<g id="edge15_Node000014_Node000013" class="edge">
<title>Node14&#45;&gt;Node13</title>
<g id="a_edge15_Node000014_Node000013"><a xlink:title=" ">
<path fill="none" stroke="#63b8ff" d="M753.21,-507.32C802.66,-514.21 885.46,-517.52 938,-475.5 989.1,-434.64 998.64,-350.09 1000.27,-311.49"/>
<polygon fill="#63b8ff" stroke="#63b8ff" points="1003.78,-311.18 1000.56,-301.09 996.78,-310.99 1003.78,-311.18"/>
</a>
</g>
</g>
<!-- Node15&#45;&gt;Node13 -->
<g id="edge17_Node000015_Node000013" class="edge">
<title>Node15&#45;&gt;Node13</title>
<g id="a_edge17_Node000015_Node000013"><a xlink:title=" ">
<path fill="none" stroke="#63b8ff" d="M476.15,-433.07C488.2,-436.32 502.13,-439.6 515,-441.5 608.01,-455.22 861.42,-488.05 938,-433.5 978.64,-404.55 993.19,-343.14 998.13,-311.41"/>
<polygon fill="#63b8ff" stroke="#63b8ff" points="1001.64,-311.56 999.54,-301.18 994.71,-310.6 1001.64,-311.56"/>
</a>
</g>
</g>
<!-- Node16 -->
<g id="Node000016" class="node">
<title>Node16</title>
<g id="a_Node000016"><a xlink:href="lexer__handlers_8c.html#aaf817088d95d074a2d4e6bfce7799723" target="_top" xlink:title=" ">
<polygon fill="white" stroke="#666666" points="605,-433 529,-433 529,-414 605,-414 605,-433"/>
<text text-anchor="middle" x="567" y="-421" font-family="Helvetica,sans-Serif" font-size="10.00">handle_com</text>
</a>
</g>
</g>
<!-- Node15&#45;&gt;Node16 -->
<g id="edge18_Node000015_Node000016" class="edge">
<title>Node15&#45;&gt;Node16</title>
<g id="a_edge18_Node000015_Node000016"><a xlink:title=" ">
<path fill="none" stroke="#63b8ff" d="M479.32,-423.5C491.49,-423.5 505.37,-423.5 518.41,-423.5"/>
<polygon fill="#63b8ff" stroke="#63b8ff" points="518.63,-427 528.63,-423.5 518.63,-420 518.63,-427"/>
</a>
</g>
</g>
<!-- Node17 -->
<g id="Node000017" class="node">
<title>Node17</title>
<g id="a_Node000017"><a xlink:href="lexer__handlers_8c.html#aa76e470a78c6e91c7db6cce558b1a768" target="_top" xlink:title=" ">
<polygon fill="white" stroke="#666666" points="608.5,-395 525.5,-395 525.5,-376 608.5,-376 608.5,-395"/>
<text text-anchor="middle" x="567" y="-383" font-family="Helvetica,sans-Serif" font-size="10.00">handle_quote</text>
</a>
</g>
</g>
<!-- Node15&#45;&gt;Node17 -->
<g id="edge20_Node000015_Node000017" class="edge">
<title>Node15&#45;&gt;Node17</title>
<g id="a_edge20_Node000015_Node000017"><a xlink:title=" ">
<path fill="none" stroke="#63b8ff" d="M475.16,-413.91C490.41,-409.14 509.05,-403.31 525.47,-398.18"/>
<polygon fill="#63b8ff" stroke="#63b8ff" points="526.85,-401.41 535.35,-395.09 524.76,-394.73 526.85,-401.41"/>
</a>
</g>
</g>
<!-- Node18 -->
<g id="Node000018" class="node">
<title>Node18</title>
<g id="a_Node000018"><a xlink:href="lexer_8c.html#a65b9b0626e01e0653ddcae13e7c6a709" target="_top" xlink:title="Gestion des délimiteurs.">
<polygon fill="white" stroke="#666666" points="619,-208 515,-208 515,-189 619,-189 619,-208"/>
<text text-anchor="middle" x="567" y="-196" font-family="Helvetica,sans-Serif" font-size="10.00">sub_switch_delim</text>
</a>
</g>
</g>
<!-- Node15&#45;&gt;Node18 -->
<g id="edge22_Node000015_Node000018" class="edge">
<title>Node15&#45;&gt;Node18</title>
<g id="a_edge22_Node000015_Node000018"><a xlink:title=" ">
<path fill="none" stroke="#63b8ff" d="M449.72,-413.83C468.3,-379.43 531.39,-262.59 556.03,-216.96"/>
<polygon fill="#63b8ff" stroke="#63b8ff" points="559.13,-218.59 560.8,-208.13 552.97,-215.27 559.13,-218.59"/>
</a>
</g>
</g>
<!-- Node16&#45;&gt;Node13 -->
<g id="edge19_Node000016_Node000013" class="edge">
<title>Node16&#45;&gt;Node13</title>
<g id="a_edge19_Node000016_Node000013"><a xlink:title=" ">
<path fill="none" stroke="#63b8ff" d="M605.27,-431.48C676.09,-444.51 832.45,-462.81 938,-397.5 969.65,-377.92 987.17,-335.89 995.13,-311.05"/>
<polygon fill="#63b8ff" stroke="#63b8ff" points="998.54,-311.85 998.05,-301.27 991.83,-309.85 998.54,-311.85"/>
</a>
</g>
</g>
<!-- Node17&#45;&gt;Node13 -->
<g id="edge21_Node000017_Node000013" class="edge">
<title>Node17&#45;&gt;Node13</title>
<g id="a_edge21_Node000017_Node000013"><a xlink:title=" ">
<path fill="none" stroke="#63b8ff" d="M608.68,-393.28C679.75,-404.79 829.29,-419.59 938,-365.5 962.01,-353.55 980.36,-327.78 990.78,-310.03"/>
<polygon fill="#63b8ff" stroke="#63b8ff" points="993.93,-311.58 995.74,-301.14 987.82,-308.17 993.93,-311.58"/>
</a>
</g>
</g>
<!-- Node18&#45;&gt;Node9 -->
<g id="edge23_Node000018_Node000009" class="edge">
<title>Node18&#45;&gt;Node9</title>
<g id="a_edge23_Node000018_Node000009"><a xlink:title=" ">
<path fill="none" stroke="#63b8ff" d="M580.26,-188.83C596.49,-176.46 626.41,-155.13 655,-142.5 710.92,-117.81 779.91,-101.83 824.29,-93.25"/>
<polygon fill="#63b8ff" stroke="#63b8ff" points="825.02,-96.67 834.2,-91.38 823.72,-89.79 825.02,-96.67"/>
</a>
</g>
</g>
<!-- Node19 -->
<g id="Node000019" class="node">
<title>Node19</title>
<g id="a_Node000019"><a xlink:href="lexer__handlers_8c.html#a9cdc56179aaccddb64447a4d56698992" target="_top" xlink:title=" ">
<polygon fill="white" stroke="#666666" points="763,-171 659,-171 659,-152 763,-152 763,-171"/>
<text text-anchor="middle" x="711" y="-159" font-family="Helvetica,sans-Serif" font-size="10.00">handle_backslash</text>
</a>
</g>
</g>
<!-- Node18&#45;&gt;Node19 -->
<g id="edge24_Node000018_Node000019" class="edge">
<title>Node18&#45;&gt;Node19</title>
<g id="a_edge24_Node000018_Node000019"><a xlink:title=" ">
<path fill="none" stroke="#63b8ff" d="M604.57,-188.97C622.48,-184.3 644.26,-178.63 663.35,-173.65"/>
<polygon fill="#63b8ff" stroke="#63b8ff" points="664.27,-177.03 673.06,-171.12 662.5,-170.26 664.27,-177.03"/>
</a>
</g>
</g>
<!-- Node20 -->
<g id="Node000020" class="node">
<title>Node20</title>
<g id="a_Node000020"><a xlink:href="lexer__handlers_8c.html#a8c5df02ee3ff790dc6256318b3dd132f" target="_top" xlink:title="Crée un token de type OPENING_BRACKET ou CLOSING_BRACKET si possible.">
<polygon fill="white" stroke="#666666" points="756.5,-320 665.5,-320 665.5,-301 756.5,-301 756.5,-320"/>
<text text-anchor="middle" x="711" y="-308" font-family="Helvetica,sans-Serif" font-size="10.00">handle_bracket</text>
</a>
</g>
</g>
<!-- Node18&#45;&gt;Node20 -->
<g id="edge26_Node000018_Node000020" class="edge">
<title>Node18&#45;&gt;Node20</title>
<g id="a_edge26_Node000018_Node000020"><a xlink:title=" ">
<path fill="none" stroke="#63b8ff" d="M580.11,-208.05C604.52,-227.31 659.89,-270.98 689.85,-294.61"/>
<polygon fill="#63b8ff" stroke="#63b8ff" points="687.9,-297.53 697.92,-300.98 692.24,-292.03 687.9,-297.53"/>
</a>
</g>
</g>
<!-- Node23 -->
<g id="Node000023" class="node">
<title>Node23</title>
<g id="a_Node000023"><a xlink:href="lexer__handlers_8c.html#a579ccaa49e18cca908ce2409b06b5825" target="_top" xlink:title=" ">
<polygon fill="white" stroke="#666666" points="760.5,-246 661.5,-246 661.5,-227 760.5,-227 760.5,-246"/>
<text text-anchor="middle" x="711" y="-234" font-family="Helvetica,sans-Serif" font-size="10.00">handle_delimiter</text>
</a>
</g>
</g>
<!-- Node18&#45;&gt;Node23 -->
<g id="edge31_Node000018_Node000023" class="edge">
<title>Node18&#45;&gt;Node23</title>
<g id="a_edge31_Node000018_Node000023"><a xlink:title=" ">
<path fill="none" stroke="#63b8ff" d="M603.83,-208.09C622.16,-212.99 644.68,-219.02 664.25,-224.26"/>
<polygon fill="#63b8ff" stroke="#63b8ff" points="663.61,-227.71 674.18,-226.91 665.42,-220.95 663.61,-227.71"/>
</a>
</g>
</g>
<!-- Node27 -->
<g id="Node000027" class="node">
<title>Node27</title>
<g id="a_Node000027"><a xlink:href="lexer__handlers_8c.html#a3122df83e320b8f4658097885f266c59" target="_top" xlink:title="Crée un token de type FUNCTION si possible.">
<polygon fill="white" stroke="#666666" points="767,-208 655,-208 655,-189 767,-189 767,-208"/>
<text text-anchor="middle" x="711" y="-196" font-family="Helvetica,sans-Serif" font-size="10.00">handle_parenthesis</text>
</a>
</g>
</g>
<!-- Node18&#45;&gt;Node27 -->
<g id="edge38_Node000018_Node000027" class="edge">
<title>Node18&#45;&gt;Node27</title>
<g id="a_edge38_Node000018_Node000027"><a xlink:title=" ">
<path fill="none" stroke="#63b8ff" d="M619.27,-198.5C627.6,-198.5 636.33,-198.5 644.95,-198.5"/>
<polygon fill="#63b8ff" stroke="#63b8ff" points="644.97,-202 654.97,-198.5 644.97,-195 644.97,-202"/>
</a>
</g>
</g>
<!-- Node28 -->
<g id="Node000028" class="node">
<title>Node28</title>
<g id="a_Node000028"><a xlink:href="lexer_8c.html#a55722ded9ba13bad6ac777b3d0f13481" target="_top" xlink:title="Gestion des opérateurs.">
<polygon fill="white" stroke="#666666" points="755,-57 667,-57 667,-38 755,-38 755,-57"/>
<text text-anchor="middle" x="711" y="-45" font-family="Helvetica,sans-Serif" font-size="10.00">sub_switch_op</text>
</a>
</g>
</g>
<!-- Node18&#45;&gt;Node28 -->
<g id="edge40_Node000018_Node000028" class="edge">
<title>Node18&#45;&gt;Node28</title>
<g id="a_edge40_Node000018_Node000028"><a xlink:title=" ">
<path fill="none" stroke="#63b8ff" d="M577.32,-188.59C600.99,-163.42 663.7,-96.73 693.64,-64.89"/>
<polygon fill="#63b8ff" stroke="#63b8ff" points="696.53,-66.93 700.83,-57.25 691.43,-62.13 696.53,-66.93"/>
</a>
</g>
</g>
<!-- Node19&#45;&gt;Node13 -->
<g id="edge25_Node000019_Node000013" class="edge">
<title>Node19&#45;&gt;Node13</title>
<g id="a_edge25_Node000019_Node000013"><a xlink:title=" ">
<path fill="none" stroke="#63b8ff" d="M743.35,-151.96C789.81,-139.82 877.91,-124.65 938,-162.5 976.47,-186.72 991.86,-242.06 997.52,-271.77"/>
<polygon fill="#63b8ff" stroke="#63b8ff" points="994.1,-272.52 999.24,-281.79 1001,-271.34 994.1,-272.52"/>
</a>
</g>
</g>
<!-- Node21 -->
<g id="Node000021" class="node">
<title>Node21</title>
<g id="a_Node000021"><a xlink:href="lexer__handlers_8c.html#af0bc509a05ea8f1f639745c3db1edff0" target="_top" xlink:title=" ">
<polygon fill="white" stroke="#666666" points="936,-357 805,-357 805,-338 936,-338 936,-357"/>
<text text-anchor="middle" x="870.5" y="-345" font-family="Helvetica,sans-Serif" font-size="10.00">handle_closing_bracket</text>
</a>
</g>
</g>
<!-- Node20&#45;&gt;Node21 -->
<g id="edge27_Node000020_Node000021" class="edge">
<title>Node20&#45;&gt;Node21</title>
<g id="a_edge27_Node000020_Node000021"><a xlink:title=" ">
<path fill="none" stroke="#63b8ff" d="M752.56,-320.03C772.78,-324.78 797.44,-330.57 818.88,-335.61"/>
<polygon fill="#63b8ff" stroke="#63b8ff" points="818.27,-339.06 828.8,-337.94 819.87,-332.25 818.27,-339.06"/>
</a>
</g>
</g>
<!-- Node22 -->
<g id="Node000022" class="node">
<title>Node22</title>
<g id="a_Node000022"><a xlink:href="lexer__handlers_8c.html#ac6741237800ed58a7ea25d1b02c4ada3" target="_top" xlink:title=" ">
<polygon fill="white" stroke="#666666" points="938,-320 803,-320 803,-301 938,-301 938,-320"/>
<text text-anchor="middle" x="870.5" y="-308" font-family="Helvetica,sans-Serif" font-size="10.00">handle_opening_bracket</text>
</a>
</g>
</g>
<!-- Node20&#45;&gt;Node22 -->
<g id="edge29_Node000020_Node000022" class="edge">
<title>Node20&#45;&gt;Node22</title>
<g id="a_edge29_Node000020_Node000022"><a xlink:title=" ">
<path fill="none" stroke="#63b8ff" d="M756.71,-310.5C767.94,-310.5 780.31,-310.5 792.61,-310.5"/>
<polygon fill="#63b8ff" stroke="#63b8ff" points="792.91,-314 802.91,-310.5 792.91,-307 792.91,-314"/>
</a>
</g>
</g>
<!-- Node21&#45;&gt;Node13 -->
<g id="edge28_Node000021_Node000013" class="edge">
<title>Node21&#45;&gt;Node13</title>
<g id="a_edge28_Node000021_Node000013"><a xlink:title=" ">
<path fill="none" stroke="#63b8ff" d="M911.11,-337.98C920.11,-335.33 929.51,-332.15 938,-328.5 951.89,-322.52 966.49,-314.02 978.07,-306.68"/>
<polygon fill="#63b8ff" stroke="#63b8ff" points="980.17,-309.49 986.65,-301.11 976.36,-303.62 980.17,-309.49"/>
</a>
</g>
</g>
<!-- Node22&#45;&gt;Node13 -->
<g id="edge30_Node000022_Node000013" class="edge">
<title>Node22&#45;&gt;Node13</title>
<g id="a_edge30_Node000022_Node000013"><a xlink:title=" ">
<path fill="none" stroke="#63b8ff" d="M936.38,-300.94C946.86,-299.4 957.33,-297.86 966.68,-296.48"/>
<polygon fill="#63b8ff" stroke="#63b8ff" points="967.32,-299.92 976.7,-295 966.3,-293 967.32,-299.92"/>
</a>
</g>
</g>
<!-- Node24 -->
<g id="Node000024" class="node">
<title>Node24</title>
<g id="a_Node000024"><a xlink:href="lexer__handlers_8c.html#a2ed09a62089d61b6a2928dcbcc623e7f" target="_top" xlink:title=" ">
<polygon fill="white" stroke="#666666" points="911.5,-209 829.5,-209 829.5,-190 911.5,-190 911.5,-209"/>
<text text-anchor="middle" x="870.5" y="-197" font-family="Helvetica,sans-Serif" font-size="10.00">handle_blank</text>
</a>
</g>
</g>
<!-- Node23&#45;&gt;Node24 -->
<g id="edge32_Node000023_Node000024" class="edge">
<title>Node23&#45;&gt;Node24</title>
<g id="a_edge32_Node000023_Node000024"><a xlink:title=" ">
<path fill="none" stroke="#63b8ff" d="M752.56,-226.97C772.94,-222.18 797.82,-216.34 819.39,-211.27"/>
<polygon fill="#63b8ff" stroke="#63b8ff" points="820.42,-214.63 829.35,-208.93 818.81,-207.81 820.42,-214.63"/>
</a>
</g>
</g>
<!-- Node25 -->
<g id="Node000025" class="node">
<title>Node25</title>
<g id="a_Node000025"><a xlink:href="lexer__handlers_8c.html#aa69ff9b0e657615d22e4220657378e92" target="_top" xlink:title=" ">
<polygon fill="white" stroke="#666666" points="917,-283 824,-283 824,-264 917,-264 917,-283"/>
<text text-anchor="middle" x="870.5" y="-271" font-family="Helvetica,sans-Serif" font-size="10.00">handle_newline</text>
</a>
</g>
</g>
<!-- Node23&#45;&gt;Node25 -->
<g id="edge34_Node000023_Node000025" class="edge">
<title>Node23&#45;&gt;Node25</title>
<g id="a_edge34_Node000023_Node000025"><a xlink:title=" ">
<path fill="none" stroke="#63b8ff" d="M752.56,-246.03C772.78,-250.78 797.44,-256.57 818.88,-261.61"/>
<polygon fill="#63b8ff" stroke="#63b8ff" points="818.27,-265.06 828.8,-263.94 819.87,-258.25 818.27,-265.06"/>
</a>
</g>
</g>
<!-- Node26 -->
<g id="Node000026" class="node">
<title>Node26</title>
<g id="a_Node000026"><a xlink:href="lexer__handlers_8c.html#afa8aa1a23dd8c155bcfb4145f2099aaf" target="_top" xlink:title=" ">
<polygon fill="white" stroke="#666666" points="923,-246 818,-246 818,-227 923,-227 923,-246"/>
<text text-anchor="middle" x="870.5" y="-234" font-family="Helvetica,sans-Serif" font-size="10.00">handle_semicolon</text>
</a>
</g>
</g>
<!-- Node23&#45;&gt;Node26 -->
<g id="edge36_Node000023_Node000026" class="edge">
<title>Node23&#45;&gt;Node26</title>
<g id="a_edge36_Node000023_Node000026"><a xlink:title=" ">
<path fill="none" stroke="#63b8ff" d="M760.54,-236.5C775.44,-236.5 792.05,-236.5 807.71,-236.5"/>
<polygon fill="#63b8ff" stroke="#63b8ff" points="807.84,-240 817.84,-236.5 807.84,-233 807.84,-240"/>
</a>
</g>
</g>
<!-- Node24&#45;&gt;Node13 -->
<g id="edge33_Node000024_Node000013" class="edge">
<title>Node24&#45;&gt;Node13</title>
<g id="a_edge33_Node000024_Node000013"><a xlink:title=" ">
<path fill="none" stroke="#63b8ff" d="M911.83,-206.24C920.88,-208.86 930.13,-212.49 938,-217.5 960.18,-231.62 978.57,-256.09 989.54,-273"/>
<polygon fill="#63b8ff" stroke="#63b8ff" points="986.85,-275.31 995.11,-281.95 992.8,-271.61 986.85,-275.31"/>
</a>
</g>
</g>
<!-- Node25&#45;&gt;Node13 -->
<g id="edge35_Node000025_Node000013" class="edge">
<title>Node25&#45;&gt;Node13</title>
<g id="a_edge35_Node000025_Node000013"><a xlink:title=" ">
<path fill="none" stroke="#63b8ff" d="M917.34,-279.9C933.7,-282.18 951.81,-284.71 966.94,-286.82"/>
<polygon fill="#63b8ff" stroke="#63b8ff" points="966.5,-290.29 976.88,-288.2 967.46,-283.36 966.5,-290.29"/>
</a>
</g>
</g>
<!-- Node26&#45;&gt;Node13 -->
<g id="edge37_Node000026_Node000013" class="edge">
<title>Node26&#45;&gt;Node13</title>
<g id="a_edge37_Node000026_Node000013"><a xlink:title=" ">
<path fill="none" stroke="#63b8ff" d="M913.59,-246.04C921.82,-248.42 930.29,-251.24 938,-254.5 951.93,-260.38 966.53,-268.87 978.11,-276.24"/>
<polygon fill="#63b8ff" stroke="#63b8ff" points="976.39,-279.3 986.68,-281.83 980.22,-273.44 976.39,-279.3"/>
</a>
</g>
</g>
<!-- Node27&#45;&gt;Node13 -->
<g id="edge39_Node000027_Node000013" class="edge">
<title>Node27&#45;&gt;Node13</title>
<g id="a_edge39_Node000027_Node000013"><a xlink:title=" ">
<path fill="none" stroke="#63b8ff" d="M751.62,-188.92C767.49,-185.54 786.01,-182.16 803,-180.5 862.71,-174.65 886.2,-150.22 938,-180.5 971.75,-200.23 988.69,-245.63 995.94,-271.85"/>
<polygon fill="#63b8ff" stroke="#63b8ff" points="992.61,-272.95 998.48,-281.78 999.39,-271.22 992.61,-272.95"/>
</a>
</g>
</g>
<!-- Node28&#45;&gt;Node9 -->
<g id="edge41_Node000028_Node000009" class="edge">
<title>Node28&#45;&gt;Node9</title>
<g id="a_edge41_Node000028_Node000009"><a xlink:title=" ">
<path fill="none" stroke="#63b8ff" d="M751.74,-57.09C773.89,-62.43 801.55,-69.1 824.49,-74.64"/>
<polygon fill="#63b8ff" stroke="#63b8ff" points="823.79,-78.07 834.33,-77.01 825.43,-71.27 823.79,-78.07"/>
</a>
</g>
</g>
<!-- Node28&#45;&gt;Node13 -->
<g id="edge42_Node000028_Node000013" class="edge">
<title>Node28&#45;&gt;Node13</title>
<g id="a_edge42_Node000028_Node000013"><a xlink:title=" ">
<path fill="none" stroke="#63b8ff" d="M754.37,-37.96C804.19,-29.4 886.61,-23.92 938,-66.5 970.08,-93.07 990.93,-221.96 997.91,-271.79"/>
<polygon fill="#63b8ff" stroke="#63b8ff" points="994.47,-272.47 999.28,-281.9 1001.4,-271.52 994.47,-272.47"/>
</a>
</g>
</g>
<!-- Node29 -->
<g id="Node000029" class="node">
<title>Node29</title>
<g id="a_Node000029"><a xlink:href="lexer__handlers_8c.html#a1320ab2067e73a5de0d576175ad3d363" target="_top" xlink:title=" ">
<polygon fill="white" stroke="#666666" points="897.5,-19 843.5,-19 843.5,0 897.5,0 897.5,-19"/>
<text text-anchor="middle" x="870.5" y="-7" font-family="Helvetica,sans-Serif" font-size="10.00">new_op</text>
</a>
</g>
</g>
<!-- Node28&#45;&gt;Node29 -->
<g id="edge43_Node000028_Node000029" class="edge">
<title>Node28&#45;&gt;Node29</title>
<g id="a_edge43_Node000028_Node000029"><a xlink:title=" ">
<path fill="none" stroke="#63b8ff" d="M751.74,-37.91C776.78,-31.87 808.86,-24.13 833.21,-18.26"/>
<polygon fill="#63b8ff" stroke="#63b8ff" points="834.23,-21.61 843.13,-15.86 832.58,-14.81 834.23,-21.61"/>
</a>
</g>
</g>
<!-- Node29&#45;&gt;Node13 -->
<g id="edge44_Node000029_Node000013" class="edge">
<title>Node29&#45;&gt;Node13</title>
<g id="a_edge44_Node000029_Node000013"><a xlink:title=" ">
<path fill="none" stroke="#63b8ff" d="M897.54,-12.87C911.4,-15.99 927.67,-21.99 938,-33.5 970.1,-69.3 991.39,-218.14 998.17,-271.97"/>
<polygon fill="#63b8ff" stroke="#63b8ff" points="994.7,-272.44 999.4,-281.94 1001.65,-271.58 994.7,-272.44"/>
</a>
</g>
</g>
<!-- Node30 -->
<g id="Node000030" class="node">
<title>Node30</title>
<g id="a_Node000030"><a xlink:href="lexer__utils_8c.html#ad3b801c5fcc7cb2d760cb161bf5038a0" target="_top" xlink:title=" ">
<polygon fill="white" stroke="#666666" points="1029,-19 974,-19 974,0 1029,0 1029,-19"/>
<text text-anchor="middle" x="1001.5" y="-7" font-family="Helvetica,sans-Serif" font-size="10.00">valid_io</text>
</a>
</g>
</g>
<!-- Node29&#45;&gt;Node30 -->
<g id="edge45_Node000029_Node000030" class="edge">
<title>Node29&#45;&gt;Node30</title>
<g id="a_edge45_Node000029_Node000030"><a xlink:title=" ">
<path fill="none" stroke="#63b8ff" d="M897.61,-9.5C916.63,-9.5 942.65,-9.5 963.77,-9.5"/>
<polygon fill="#63b8ff" stroke="#63b8ff" points="963.99,-13 973.99,-9.5 963.99,-6 963.99,-13"/>
</a>
</g>
</g>
<!-- Node31 -->
<g id="Node000031" class="node">
<title>Node31</title>
<g id="a_Node000031"><a xlink:href="lexer__utils_8c.html#a8fa30988b9ccc705850dfee0220bf34a" target="_top" xlink:title=" ">
<polygon fill="white" stroke="#666666" points="1121,-19 1065,-19 1065,0 1121,0 1121,-19"/>
<text text-anchor="middle" x="1093" y="-7" font-family="Helvetica,sans-Serif" font-size="10.00">all_digit</text>
</a>
</g>
</g>
<!-- Node30&#45;&gt;Node31 -->
<g id="edge46_Node000030_Node000031" class="edge">
<title>Node30&#45;&gt;Node31</title>
<g id="a_edge46_Node000030_Node000031"><a xlink:title=" ">
<path fill="none" stroke="#63b8ff" d="M1029.35,-9.5C1037.33,-9.5 1046.22,-9.5 1054.74,-9.5"/>
<polygon fill="#63b8ff" stroke="#63b8ff" points="1054.86,-13 1064.86,-9.5 1054.86,-6 1054.86,-13"/>
</a>
</g>
</g>
<!-- Node33 -->
<g id="Node000033" class="node">
<title>Node33</title>
<g id="a_Node000033"><a xlink:href="lexer__tokens_8c.html#ab8c1bbfef4c1716c7557658824823316" target="_top" xlink:title=" ">
<polygon fill="white" stroke="#666666" points="608.5,-585 525.5,-585 525.5,-566 608.5,-566 608.5,-585"/>
<text text-anchor="middle" x="567" y="-573" font-family="Helvetica,sans-Serif" font-size="10.00">verif_token_if</text>
</a>
</g>
</g>
<!-- Node32&#45;&gt;Node33 -->
<g id="edge48_Node000032_Node000033" class="edge">
<title>Node32&#45;&gt;Node33</title>
<g id="a_edge48_Node000032_Node000033"><a xlink:title=" ">
<path fill="none" stroke="#63b8ff" d="M479.32,-575.5C490.38,-575.5 502.86,-575.5 514.83,-575.5"/>
<polygon fill="#63b8ff" stroke="#63b8ff" points="515.16,-579 525.16,-575.5 515.16,-572 515.16,-579"/>
</a>
</g>
</g>
<!-- Node34 -->
<g id="Node000034" class="node">
<title>Node34</title>
<g id="a_Node000034"><a xlink:href="lexer__tokens_8c.html#a74242b2210e1f957abbecfde13ff30d4" target="_top" xlink:title=" ">
<polygon fill="white" stroke="#666666" points="616,-622 518,-622 518,-603 616,-603 616,-622"/>
<text text-anchor="middle" x="567" y="-610" font-family="Helvetica,sans-Serif" font-size="10.00">verif_token_loop</text>
</a>
</g>
</g>
<!-- Node32&#45;&gt;Node34 -->
<g id="edge49_Node000032_Node000034" class="edge">
<title>Node32&#45;&gt;Node34</title>
<g id="a_edge49_Node000032_Node000034"><a xlink:title=" ">
<path fill="none" stroke="#63b8ff" d="M475.79,-585.03C490.7,-589.57 508.72,-595.06 524.73,-599.93"/>
<polygon fill="#63b8ff" stroke="#63b8ff" points="523.81,-603.31 534.39,-602.88 525.85,-596.61 523.81,-603.31"/>
</a>
</g>
</g>
<!-- Node35&#45;&gt;Node7 -->
<g id="edge51_Node000035_Node000007" class="edge">
<title>Node35&#45;&gt;Node7</title>
<g id="a_edge51_Node000035_Node000007"><a xlink:title=" ">
<path fill="none" stroke="#63b8ff" d="M160.88,-592.5C177.27,-592.5 202.51,-592.5 222.27,-592.5"/>
<polygon fill="#63b8ff" stroke="#63b8ff" points="222.32,-596 232.32,-592.5 222.32,-589 222.32,-596"/>
</a>
</g>
</g>
</g>
</svg>
