<?xml version="1.0" encoding="UTF-8" standalone="no"?>
<!DOCTYPE svg PUBLIC "-//W3C//DTD SVG 1.1//EN"
 "http://www.w3.org/Graphics/SVG/1.1/DTD/svg11.dtd">
<!-- Generated by graphviz version 2.43.0 (0)
 -->
<!-- Title: parser_redir_shell Pages: 1 -->
<svg width="2133pt" height="516pt"
 viewBox="0.00 0.00 2133.00 515.50" xmlns="http://www.w3.org/2000/svg" xmlns:xlink="http://www.w3.org/1999/xlink">
<g id="graph0" class="graph" transform="scale(1 1) rotate(0) translate(4 511.5)">
<title>parser_redir_shell</title>
<!-- Node1 -->
<g id="Node000001" class="node">
<title>Node1</title>
<g id="a_Node000001"><a xlink:title="Parse a redirection in a shell command context.">
<polygon fill="#999999" stroke="#666666" points="2125,-355 2021,-355 2021,-336 2125,-336 2125,-355"/>
<text text-anchor="middle" x="2073" y="-343" font-family="Helvetica,sans-Serif" font-size="10.00">parser_redir_shell</text>
</a>
</g>
</g>
<!-- Node2 -->
<g id="Node000002" class="node">
<title>Node2</title>
<g id="a_Node000002"><a xlink:href="parser__commands_8c.html#ad98fbb958a265134e775b69579e28835" target="_top" xlink:title="Handle a shell command block by calling corresponding parser at each step.">
<polygon fill="white" stroke="#666666" points="1985,-355 1855,-355 1855,-336 1985,-336 1985,-355"/>
<text text-anchor="middle" x="1920" y="-343" font-family="Helvetica,sans-Serif" font-size="10.00">parser_shell_command</text>
</a>
</g>
</g>
<!-- Node1&#45;&gt;Node2 -->
<g id="edge1_Node000001_Node000002" class="edge">
<title>Node1&#45;&gt;Node2</title>
<g id="a_edge1_Node000001_Node000002"><a xlink:title=" ">
<path fill="none" stroke="#63b8ff" d="M2010.76,-345.5C2002.33,-345.5 1993.66,-345.5 1985.19,-345.5"/>
<polygon fill="#63b8ff" stroke="#63b8ff" points="2010.88,-349 2020.88,-345.5 2010.88,-342 2010.88,-349"/>
</a>
</g>
</g>
<!-- Node3 -->
<g id="Node000003" class="node">
<title>Node3</title>
<g id="a_Node000003"><a xlink:href="parser__commands_8c.html#aa7191f56bd8e70874c5c381e52186807" target="_top" xlink:title="Parse a command which can be either a simple command or a shell command.">
<polygon fill="white" stroke="#666666" points="1699,-373 1598,-373 1598,-354 1699,-354 1699,-373"/>
<text text-anchor="middle" x="1648.5" y="-361" font-family="Helvetica,sans-Serif" font-size="10.00">parser_command</text>
</a>
</g>
</g>
<!-- Node2&#45;&gt;Node3 -->
<g id="edge2_Node000002_Node000003" class="edge">
<title>Node2&#45;&gt;Node3</title>
<g id="a_edge2_Node000002_Node000003"><a xlink:title=" ">
<path fill="none" stroke="#63b8ff" d="M1844.8,-350.46C1798.49,-353.55 1740.13,-357.45 1699.32,-360.17"/>
<polygon fill="#63b8ff" stroke="#63b8ff" points="1845.05,-353.95 1854.79,-349.79 1844.58,-346.96 1845.05,-353.95"/>
</a>
</g>
</g>
<!-- Node33 -->
<g id="Node000033" class="node">
<title>Node33</title>
<g id="a_Node000033"><a xlink:href="parser__commands_8c.html#a14408e6904da17fc6899bba03f7a5f5a" target="_top" xlink:title="Handle a function definition and add it to the dictionnary.">
<polygon fill="white" stroke="#666666" points="1819,-393 1735,-393 1735,-374 1819,-374 1819,-393"/>
<text text-anchor="middle" x="1777" y="-381" font-family="Helvetica,sans-Serif" font-size="10.00">parser_fundef</text>
</a>
</g>
</g>
<!-- Node2&#45;&gt;Node33 -->
<g id="edge52_Node000002_Node000033" class="edge">
<title>Node2&#45;&gt;Node33</title>
<g id="a_edge52_Node000002_Node000033"><a xlink:title=" ">
<path fill="none" stroke="#63b8ff" d="M1873.56,-357.75C1854.13,-362.98 1831.77,-369.01 1813.57,-373.91"/>
<polygon fill="#63b8ff" stroke="#63b8ff" points="1874.68,-361.07 1883.42,-355.09 1872.85,-354.31 1874.68,-361.07"/>
</a>
</g>
</g>
<!-- Node4 -->
<g id="Node000004" class="node">
<title>Node4</title>
<g id="a_Node000004"><a xlink:href="parser__pipelines_8c.html#a06068cdf8924fb28f414f419d84a5eae" target="_top" xlink:title="Parse and_or blocks separated by &#39;|&#39; (pipes)">
<polygon fill="white" stroke="#666666" points="1562,-373 1470,-373 1470,-354 1562,-354 1562,-373"/>
<text text-anchor="middle" x="1516" y="-361" font-family="Helvetica,sans-Serif" font-size="10.00">parser_pipeline</text>
</a>
</g>
</g>
<!-- Node3&#45;&gt;Node4 -->
<g id="edge3_Node000003_Node000004" class="edge">
<title>Node3&#45;&gt;Node4</title>
<g id="a_edge3_Node000003_Node000004"><a xlink:title=" ">
<path fill="none" stroke="#63b8ff" d="M1587.53,-363.5C1579.05,-363.5 1570.44,-363.5 1562.29,-363.5"/>
<polygon fill="#63b8ff" stroke="#63b8ff" points="1587.79,-367 1597.79,-363.5 1587.79,-360 1587.79,-367"/>
</a>
</g>
</g>
<!-- Node5 -->
<g id="Node000005" class="node">
<title>Node5</title>
<g id="a_Node000005"><a xlink:href="parser__pipelines_8c.html#a85ca4872d7efdb8b0cd643037ccd5763" target="_top" xlink:title="Parse and_or blocks separated by &#39;&amp;&amp;&#39; or &#39;||&#39;.">
<polygon fill="white" stroke="#666666" points="1434,-373 1348,-373 1348,-354 1434,-354 1434,-373"/>
<text text-anchor="middle" x="1391" y="-361" font-family="Helvetica,sans-Serif" font-size="10.00">parser_and_or</text>
</a>
</g>
</g>
<!-- Node4&#45;&gt;Node5 -->
<g id="edge4_Node000004_Node000005" class="edge">
<title>Node4&#45;&gt;Node5</title>
<g id="a_edge4_Node000004_Node000005"><a xlink:title=" ">
<path fill="none" stroke="#63b8ff" d="M1459.62,-363.5C1451.1,-363.5 1442.41,-363.5 1434.24,-363.5"/>
<polygon fill="#63b8ff" stroke="#63b8ff" points="1459.9,-367 1469.9,-363.5 1459.9,-360 1459.9,-367"/>
</a>
</g>
</g>
<!-- Node6 -->
<g id="Node000006" class="node">
<title>Node6</title>
<g id="a_Node000006"><a xlink:href="parser__lists_8c.html#aae7a5d6760b83c1a37b0369f82a20500" target="_top" xlink:title="Absorb a chain of and_or separeted by &#39;;&#39; or &#39; &#39;.">
<polygon fill="white" stroke="#666666" points="1312,-392 1188,-392 1188,-373 1312,-373 1312,-392"/>
<text text-anchor="middle" x="1250" y="-380" font-family="Helvetica,sans-Serif" font-size="10.00">parser_compound_list</text>
</a>
</g>
</g>
<!-- Node5&#45;&gt;Node6 -->
<g id="edge5_Node000005_Node000006" class="edge">
<title>Node5&#45;&gt;Node6</title>
<g id="a_edge5_Node000005_Node000006"><a xlink:title=" ">
<path fill="none" stroke="#63b8ff" d="M1337.9,-370.62C1329.5,-371.77 1320.75,-372.97 1312.17,-374.14"/>
<polygon fill="#63b8ff" stroke="#63b8ff" points="1338.48,-374.07 1347.92,-369.25 1337.54,-367.14 1338.48,-374.07"/>
</a>
</g>
</g>
<!-- Node14 -->
<g id="Node000014" class="node">
<title>Node14</title>
<g id="a_Node000014"><a xlink:href="parser__lists_8c.html#a7b9812922acfb4eba24e65d40bd99001" target="_top" xlink:title="Parse list block into sub and_or block(s) separated by semi&#45;colons.">
<polygon fill="white" stroke="#666666" points="1284,-355 1216,-355 1216,-336 1284,-336 1284,-355"/>
<text text-anchor="middle" x="1250" y="-343" font-family="Helvetica,sans-Serif" font-size="10.00">parser_list</text>
</a>
</g>
</g>
<!-- Node5&#45;&gt;Node14 -->
<g id="edge21_Node000005_Node000014" class="edge">
<title>Node5&#45;&gt;Node14</title>
<g id="a_edge21_Node000005_Node000014"><a xlink:title=" ">
<path fill="none" stroke="#63b8ff" d="M1337.84,-356.74C1319.83,-354.41 1300.17,-351.87 1284.12,-349.79"/>
<polygon fill="#63b8ff" stroke="#63b8ff" points="1337.55,-360.24 1347.92,-358.05 1338.45,-353.3 1337.55,-360.24"/>
</a>
</g>
</g>
<!-- Node7 -->
<g id="Node000007" class="node">
<title>Node7</title>
<g id="a_Node000007"><a xlink:href="parser__rules_8c.html#a799f84e24df3eff653f7c0696e348572" target="_top" xlink:title="Parse an elif block when called.">
<polygon fill="white" stroke="#666666" points="1123.5,-393 1055.5,-393 1055.5,-374 1123.5,-374 1123.5,-393"/>
<text text-anchor="middle" x="1089.5" y="-381" font-family="Helvetica,sans-Serif" font-size="10.00">parser_elif</text>
</a>
</g>
</g>
<!-- Node6&#45;&gt;Node7 -->
<g id="edge6_Node000006_Node000007" class="edge">
<title>Node6&#45;&gt;Node7</title>
<g id="a_edge6_Node000006_Node000007"><a xlink:title=" ">
<path fill="none" stroke="#63b8ff" d="M1177.66,-382.95C1158.84,-383.07 1139.43,-383.19 1123.71,-383.29"/>
<polygon fill="#63b8ff" stroke="#63b8ff" points="1177.74,-386.45 1187.72,-382.89 1177.7,-379.45 1177.74,-386.45"/>
</a>
</g>
</g>
<!-- Node8 -->
<g id="Node000008" class="node">
<title>Node8</title>
<g id="a_Node000008"><a xlink:href="parser__rules_8c.html#adf5258219dad4f79fdbc7786eb925699" target="_top" xlink:title="Define which parser to use depending on the context.">
<polygon fill="white" stroke="#666666" points="991,-393 881,-393 881,-374 991,-374 991,-393"/>
<text text-anchor="middle" x="936" y="-381" font-family="Helvetica,sans-Serif" font-size="10.00">parser_else_clause</text>
</a>
</g>
</g>
<!-- Node6&#45;&gt;Node8 -->
<g id="edge11_Node000006_Node000008" class="edge">
<title>Node6&#45;&gt;Node8</title>
<g id="a_edge11_Node000006_Node000008"><a xlink:title=" ">
<path fill="none" stroke="#63b8ff" d="M1196.54,-370.95C1182.17,-368.28 1166.55,-365.84 1152,-364.5 1096.68,-359.41 1082.26,-358.73 1027,-364.5 1009.21,-366.36 989.76,-370.23 973.51,-373.99"/>
<polygon fill="#63b8ff" stroke="#63b8ff" points="1196.26,-374.46 1206.74,-372.92 1197.58,-367.59 1196.26,-374.46"/>
</a>
</g>
</g>
<!-- Node9 -->
<g id="Node000009" class="node">
<title>Node9</title>
<g id="a_Node000009"><a xlink:href="parser__rules_8c.html#abf9e27d14e7a1c314285114bead78817" target="_top" xlink:title="Handle a &#39;if&#39; block by calling corresponding parser at each step.">
<polygon fill="white" stroke="#666666" points="845,-431 762,-431 762,-412 845,-412 845,-431"/>
<text text-anchor="middle" x="803.5" y="-419" font-family="Helvetica,sans-Serif" font-size="10.00">parser_rule_if</text>
</a>
</g>
</g>
<!-- Node6&#45;&gt;Node9 -->
<g id="edge16_Node000006_Node000009" class="edge">
<title>Node6&#45;&gt;Node9</title>
<g id="a_edge16_Node000006_Node000009"><a xlink:title=" ">
<path fill="none" stroke="#63b8ff" d="M1199.39,-394.21C1184.26,-397.38 1167.52,-400.49 1152,-402.5 1041.6,-416.82 910.11,-420.37 845.07,-421.23"/>
<polygon fill="#63b8ff" stroke="#63b8ff" points="1200.54,-397.54 1209.58,-392.01 1199.07,-390.7 1200.54,-397.54"/>
</a>
</g>
</g>
<!-- Node10 -->
<g id="Node000010" class="node">
<title>Node10</title>
<g id="a_Node000010"><a xlink:href="parser__rules_8c.html#afb9701776de31af668314b48a0b54636" target="_top" xlink:title="Handle a command block enclosed in brackets.">
<polygon fill="white" stroke="#666666" points="1152,-479.5 1027,-479.5 1027,-449.5 1152,-449.5 1152,-479.5"/>
<text text-anchor="start" x="1035" y="-467.5" font-family="Helvetica,sans-Serif" font-size="10.00">parser_rule_command</text>
<text text-anchor="middle" x="1089.5" y="-456.5" font-family="Helvetica,sans-Serif" font-size="10.00">_block</text>
</a>
</g>
</g>
<!-- Node6&#45;&gt;Node10 -->
<g id="edge12_Node000006_Node000010" class="edge">
<title>Node6&#45;&gt;Node10</title>
<g id="a_edge12_Node000006_Node000010"><a xlink:title=" ">
<path fill="none" stroke="#63b8ff" d="M1223.14,-397.17C1203.73,-408.06 1176.4,-423.09 1152,-435.5 1142.85,-440.15 1132.81,-444.99 1123.55,-449.36"/>
<polygon fill="#63b8ff" stroke="#63b8ff" points="1224.99,-400.15 1231.99,-392.19 1221.56,-394.05 1224.99,-400.15"/>
</a>
</g>
</g>
<!-- Node11 -->
<g id="Node000011" class="node">
<title>Node11</title>
<g id="a_Node000011"><a xlink:href="parser__rules_8c.html#a55dc38591d3749d39ca3f38f8a2a26dd" target="_top" xlink:title="Handle a for block by calling corresponding parser at each step.">
<polygon fill="white" stroke="#666666" points="1134.5,-317 1044.5,-317 1044.5,-298 1134.5,-298 1134.5,-317"/>
<text text-anchor="middle" x="1089.5" y="-305" font-family="Helvetica,sans-Serif" font-size="10.00">parser_rule_for</text>
</a>
</g>
</g>
<!-- Node6&#45;&gt;Node11 -->
<g id="edge14_Node000006_Node000011" class="edge">
<title>Node6&#45;&gt;Node11</title>
<g id="a_edge14_Node000006_Node000011"><a xlink:title=" ">
<path fill="none" stroke="#63b8ff" d="M1199.87,-369.25C1195.76,-367.53 1191.75,-365.62 1188,-363.5 1169.36,-352.97 1170.26,-342.68 1152,-331.5 1142.52,-325.7 1131.39,-320.84 1121.23,-317.06"/>
<polygon fill="#63b8ff" stroke="#63b8ff" points="1198.98,-372.65 1209.57,-372.92 1201.46,-366.11 1198.98,-372.65"/>
</a>
</g>
</g>
<!-- Node12 -->
<g id="Node000012" class="node">
<title>Node12</title>
<g id="a_Node000012"><a xlink:href="parser__rules_8c.html#abf1c3edda1bb73d8c86028687922ce95" target="_top" xlink:title="Handle a &#39;until&#39; block by calling corresponding parser at each step.">
<polygon fill="white" stroke="#666666" points="1138.5,-280 1040.5,-280 1040.5,-261 1138.5,-261 1138.5,-280"/>
<text text-anchor="middle" x="1089.5" y="-268" font-family="Helvetica,sans-Serif" font-size="10.00">parser_rule_until</text>
</a>
</g>
</g>
<!-- Node6&#45;&gt;Node12 -->
<g id="edge17_Node000006_Node000012" class="edge">
<title>Node6&#45;&gt;Node12</title>
<g id="a_edge17_Node000006_Node000012"><a xlink:title=" ">
<path fill="none" stroke="#63b8ff" d="M1194.36,-368.19C1192.12,-366.77 1189.98,-365.21 1188,-363.5 1160.02,-339.33 1180.18,-312.43 1152,-288.5 1148.01,-285.12 1143.42,-282.37 1138.57,-280.14"/>
<polygon fill="#63b8ff" stroke="#63b8ff" points="1192.99,-371.42 1203.46,-372.99 1196.25,-365.23 1192.99,-371.42"/>
</a>
</g>
</g>
<!-- Node13 -->
<g id="Node000013" class="node">
<title>Node13</title>
<g id="a_Node000013"><a xlink:href="parser__rules_8c.html#aa6719ad356821f03ad45b1ac0a57d3bd" target="_top" xlink:title="Handle a &#39;while&#39; block by calling corresponding parser at each step.">
<polygon fill="white" stroke="#666666" points="1141,-206 1038,-206 1038,-187 1141,-187 1141,-206"/>
<text text-anchor="middle" x="1089.5" y="-194" font-family="Helvetica,sans-Serif" font-size="10.00">parser_rule_while</text>
</a>
</g>
</g>
<!-- Node6&#45;&gt;Node13 -->
<g id="edge19_Node000006_Node000013" class="edge">
<title>Node6&#45;&gt;Node13</title>
<g id="a_edge19_Node000006_Node000013"><a xlink:title=" ">
<path fill="none" stroke="#63b8ff" d="M1192.4,-367.55C1190.84,-366.3 1189.37,-364.96 1188,-363.5 1141.41,-313.79 1199.01,-263.81 1152,-214.5 1148.78,-211.12 1144.95,-208.36 1140.82,-206.12"/>
<polygon fill="#63b8ff" stroke="#63b8ff" points="1190.53,-370.5 1200.84,-372.95 1194.3,-364.61 1190.53,-370.5"/>
</a>
</g>
</g>
<!-- Node7&#45;&gt;Node8 -->
<g id="edge7_Node000007_Node000008" class="edge">
<title>Node7&#45;&gt;Node8</title>
<g id="a_edge7_Node000007_Node000008"><a xlink:title=" ">
<path fill="none" stroke="#63b8ff" d="M1045.13,-377.33C1028.27,-376.69 1008.77,-376.58 991.01,-377"/>
<polygon fill="#63b8ff" stroke="#63b8ff" points="1045.1,-380.83 1055.25,-377.8 1045.43,-373.84 1045.1,-380.83"/>
</a>
</g>
</g>
<!-- Node8&#45;&gt;Node7 -->
<g id="edge8_Node000008_Node000007" class="edge">
<title>Node8&#45;&gt;Node7</title>
<g id="a_edge8_Node000008_Node000007"><a xlink:title=" ">
<path fill="none" stroke="#63b8ff" d="M1001.22,-390.18C1019.82,-390.41 1039.38,-390.08 1055.25,-389.2"/>
<polygon fill="#63b8ff" stroke="#63b8ff" points="1001.07,-386.68 991.01,-390 1000.94,-393.68 1001.07,-386.68"/>
</a>
</g>
</g>
<!-- Node8&#45;&gt;Node9 -->
<g id="edge9_Node000008_Node000009" class="edge">
<title>Node8&#45;&gt;Node9</title>
<g id="a_edge9_Node000008_Node000009"><a xlink:title=" ">
<path fill="none" stroke="#63b8ff" d="M892.45,-395.89C874.58,-401.09 854.11,-407.05 837.42,-411.91"/>
<polygon fill="#63b8ff" stroke="#63b8ff" points="893.45,-399.25 902.07,-393.09 891.49,-392.52 893.45,-399.25"/>
</a>
</g>
</g>
<!-- Node9&#45;&gt;Node2 -->
<g id="edge10_Node000009_Node000002" class="edge">
<title>Node9&#45;&gt;Node2</title>
<g id="a_edge10_Node000009_Node000002"><a xlink:title=" ">
<path fill="none" stroke="#63b8ff" d="M831.63,-435.58C881.23,-459.97 990.46,-507.5 1088.5,-507.5 1649.5,-507.5 1649.5,-507.5 1649.5,-507.5 1768.51,-507.5 1880.26,-390.02 1910.82,-355.15"/>
<polygon fill="#63b8ff" stroke="#63b8ff" points="833.04,-432.37 822.53,-431.03 829.91,-438.63 833.04,-432.37"/>
</a>
</g>
</g>
<!-- Node10&#45;&gt;Node2 -->
<g id="edge13_Node000010_Node000002" class="edge">
<title>Node10&#45;&gt;Node2</title>
<g id="a_edge13_Node000010_Node000002"><a xlink:title=" ">
<path fill="none" stroke="#63b8ff" d="M1162.3,-456.63C1222.91,-450.67 1312.02,-443.5 1390,-443.5 1649.5,-443.5 1649.5,-443.5 1649.5,-443.5 1727.01,-443.5 1746.96,-431.08 1819,-402.5 1851.51,-389.6 1886.3,-367.7 1905.06,-355.13"/>
<polygon fill="#63b8ff" stroke="#63b8ff" points="1161.68,-453.18 1152.07,-457.65 1162.37,-460.14 1161.68,-453.18"/>
</a>
</g>
</g>
<!-- Node11&#45;&gt;Node2 -->
<g id="edge15_Node000011_Node000002" class="edge">
<title>Node11&#45;&gt;Node2</title>
<g id="a_edge15_Node000011_Node000002"><a xlink:title=" ">
<path fill="none" stroke="#63b8ff" d="M1144.65,-307.5C1204.64,-307.5 1304.23,-307.5 1390,-307.5 1649.5,-307.5 1649.5,-307.5 1649.5,-307.5 1730.77,-307.5 1824.49,-324.65 1877.24,-335.91"/>
<polygon fill="#63b8ff" stroke="#63b8ff" points="1144.65,-304 1134.65,-307.5 1144.65,-311 1144.65,-304"/>
</a>
</g>
</g>
<!-- Node12&#45;&gt;Node2 -->
<g id="edge18_Node000012_Node000002" class="edge">
<title>Node12&#45;&gt;Node2</title>
<g id="a_edge18_Node000012_Node000002"><a xlink:title=" ">
<path fill="none" stroke="#63b8ff" d="M1148.84,-270.19C1209.2,-269.9 1306.19,-269.5 1390,-269.5 1649.5,-269.5 1649.5,-269.5 1649.5,-269.5 1746.24,-269.5 1855.43,-315.42 1899.26,-335.87"/>
<polygon fill="#63b8ff" stroke="#63b8ff" points="1148.72,-266.69 1138.74,-270.24 1148.76,-273.69 1148.72,-266.69"/>
</a>
</g>
</g>
<!-- Node13&#45;&gt;Node2 -->
<g id="edge20_Node000013_Node000002" class="edge">
<title>Node13&#45;&gt;Node2</title>
<g id="a_edge20_Node000013_Node000002"><a xlink:title=" ">
<path fill="none" stroke="#63b8ff" d="M1151.18,-202.29C1211.64,-207.55 1307.15,-214.5 1390,-214.5 1649.5,-214.5 1649.5,-214.5 1649.5,-214.5 1760.31,-214.5 1873.29,-305.19 1908.12,-335.65"/>
<polygon fill="#63b8ff" stroke="#63b8ff" points="1151.32,-198.79 1141.05,-201.39 1150.71,-205.76 1151.32,-198.79"/>
</a>
</g>
</g>
<!-- Node15 -->
<g id="Node000015" class="node">
<title>Node15</title>
<g id="a_Node000015"><a xlink:href="parser_8c.html#a620dffcc9a167cdee6e67de1191e5277" target="_top" xlink:title="Parse the input of our shell into list.">
<polygon fill="white" stroke="#666666" points="1113,-243 1066,-243 1066,-224 1113,-224 1113,-243"/>
<text text-anchor="middle" x="1089.5" y="-231" font-family="Helvetica,sans-Serif" font-size="10.00">parser</text>
</a>
</g>
</g>
<!-- Node14&#45;&gt;Node15 -->
<g id="edge22_Node000014_Node000015" class="edge">
<title>Node14&#45;&gt;Node15</title>
<g id="a_edge22_Node000014_Node000015"><a xlink:title=" ">
<path fill="none" stroke="#63b8ff" d="M1235.6,-328.11C1218.44,-307 1186.73,-271.72 1152,-251.5 1140.08,-244.56 1125.28,-240.12 1113.18,-237.39"/>
<polygon fill="#63b8ff" stroke="#63b8ff" points="1232.87,-330.3 1241.83,-335.95 1238.35,-325.95 1232.87,-330.3"/>
</a>
</g>
</g>
<!-- Node16 -->
<g id="Node000016" class="node">
<title>Node16</title>
<g id="a_Node000016"><a xlink:href="42sh_8c.html#a3c04138a5bfe5d72780bb7e82a18e627" target="_top" xlink:title=" ">
<polygon fill="white" stroke="#666666" points="190,-390 149,-390 149,-371 190,-371 190,-390"/>
<text text-anchor="middle" x="169.5" y="-378" font-family="Helvetica,sans-Serif" font-size="10.00">main</text>
</a>
</g>
</g>
<!-- Node15&#45;&gt;Node16 -->
<g id="edge23_Node000015_Node000016" class="edge">
<title>Node15&#45;&gt;Node16</title>
<g id="a_edge23_Node000015_Node000016"><a xlink:title=" ">
<path fill="none" stroke="#63b8ff" d="M1055.72,-240.77C1003.05,-251.8 896.18,-271.5 804.5,-271.5 804.5,-271.5 804.5,-271.5 387.5,-271.5 304.55,-271.5 299.66,-327.51 224,-361.5 213.03,-366.43 200.37,-370.97 190.11,-374.38"/>
<polygon fill="#63b8ff" stroke="#63b8ff" points="1056.76,-244.13 1065.81,-238.62 1055.3,-237.28 1056.76,-244.13"/>
</a>
</g>
</g>
<!-- Node17 -->
<g id="Node000017" class="node">
<title>Node17</title>
<g id="a_Node000017"><a xlink:href="dot_8c.html#a17477ee2b0f1b8b9306566c990d15b35" target="_top" xlink:title="Main loop of dot builtin.">
<polygon fill="white" stroke="#666666" points="970,-206 902,-206 902,-187 970,-187 970,-206"/>
<text text-anchor="middle" x="936" y="-194" font-family="Helvetica,sans-Serif" font-size="10.00">main_loop</text>
</a>
</g>
</g>
<!-- Node15&#45;&gt;Node17 -->
<g id="edge24_Node000015_Node000017" class="edge">
<title>Node15&#45;&gt;Node17</title>
<g id="a_edge24_Node000015_Node000017"><a xlink:title=" ">
<path fill="none" stroke="#63b8ff" d="M1055.96,-225.55C1030.66,-219.37 995.7,-210.84 970.23,-204.62"/>
<polygon fill="#63b8ff" stroke="#63b8ff" points="1055.27,-228.99 1065.82,-227.96 1056.93,-222.19 1055.27,-228.99"/>
</a>
</g>
</g>
<!-- Node18 -->
<g id="Node000018" class="node">
<title>Node18</title>
<g id="a_Node000018"><a xlink:href="dot_8c.html#a713938d3c6ee343132c429642048bcf6" target="_top" xlink:title="Execute the dot builtin cmd.">
<polygon fill="white" stroke="#666666" points="825.5,-168 781.5,-168 781.5,-149 825.5,-149 825.5,-168"/>
<text text-anchor="middle" x="803.5" y="-156" font-family="Helvetica,sans-Serif" font-size="10.00">dot_b</text>
</a>
</g>
</g>
<!-- Node17&#45;&gt;Node18 -->
<g id="edge25_Node000017_Node000018" class="edge">
<title>Node17&#45;&gt;Node18</title>
<g id="a_edge25_Node000017_Node000018"><a xlink:title=" ">
<path fill="none" stroke="#63b8ff" d="M892.43,-184.11C870.04,-177.58 843.57,-169.88 825.57,-164.63"/>
<polygon fill="#63b8ff" stroke="#63b8ff" points="891.49,-187.48 902.07,-186.91 893.45,-180.75 891.49,-187.48"/>
</a>
</g>
</g>
<!-- Node19 -->
<g id="Node000019" class="node">
<title>Node19</title>
<g id="a_Node000019"><a xlink:href="exec_8c.html#abaeb177587c7eec6a064b35bb8399cae" target="_top" xlink:title="Execute builtin cmd with given args.">
<polygon fill="white" stroke="#666666" points="726,-168 651,-168 651,-149 726,-149 726,-168"/>
<text text-anchor="middle" x="688.5" y="-156" font-family="Helvetica,sans-Serif" font-size="10.00">exec_builtin</text>
</a>
</g>
</g>
<!-- Node18&#45;&gt;Node19 -->
<g id="edge26_Node000018_Node000019" class="edge">
<title>Node18&#45;&gt;Node19</title>
<g id="a_edge26_Node000018_Node000019"><a xlink:title=" ">
<path fill="none" stroke="#63b8ff" d="M771.17,-158.5C757.23,-158.5 740.73,-158.5 726.22,-158.5"/>
<polygon fill="#63b8ff" stroke="#63b8ff" points="771.25,-162 781.25,-158.5 771.25,-155 771.25,-162"/>
</a>
</g>
</g>
<!-- Node20 -->
<g id="Node000020" class="node">
<title>Node20</title>
<g id="a_Node000020"><a xlink:href="exec_8c.html#a287d81b4658832f192750310e2925917" target="_top" xlink:title="Execute the builtin command with given args.">
<polygon fill="white" stroke="#666666" points="615,-168 565,-168 565,-149 615,-149 615,-168"/>
<text text-anchor="middle" x="590" y="-156" font-family="Helvetica,sans-Serif" font-size="10.00">exec_b</text>
</a>
</g>
</g>
<!-- Node19&#45;&gt;Node20 -->
<g id="edge27_Node000019_Node000020" class="edge">
<title>Node19&#45;&gt;Node20</title>
<g id="a_edge27_Node000019_Node000020"><a xlink:title=" ">
<path fill="none" stroke="#63b8ff" d="M640.51,-158.5C631.71,-158.5 622.86,-158.5 615.12,-158.5"/>
<polygon fill="#63b8ff" stroke="#63b8ff" points="640.74,-162 650.74,-158.5 640.74,-155 640.74,-162"/>
</a>
</g>
</g>
<!-- Node21 -->
<g id="Node000021" class="node">
<title>Node21</title>
<g id="a_Node000021"><a xlink:href="exec_8c.html#ae65edaa99b26b49d60c451157d38b34a" target="_top" xlink:title="Execute les commandes avec les args donnes.">
<polygon fill="white" stroke="#666666" points="529,-168 464,-168 464,-149 529,-149 529,-168"/>
<text text-anchor="middle" x="496.5" y="-156" font-family="Helvetica,sans-Serif" font-size="10.00">exec_cmd</text>
</a>
</g>
</g>
<!-- Node20&#45;&gt;Node21 -->
<g id="edge28_Node000020_Node000021" class="edge">
<title>Node20&#45;&gt;Node21</title>
<g id="a_edge28_Node000020_Node000021"><a xlink:title=" ">
<path fill="none" stroke="#63b8ff" d="M554.77,-158.5C546.42,-158.5 537.53,-158.5 529.3,-158.5"/>
<polygon fill="#63b8ff" stroke="#63b8ff" points="554.96,-162 564.96,-158.5 554.96,-155 554.96,-162"/>
</a>
</g>
</g>
<!-- Node22 -->
<g id="Node000022" class="node">
<title>Node22</title>
<g id="a_Node000022"><a xlink:href="ast__run_8c.html#aeb6878a59c6907e5669fc3cc428913d9" target="_top" xlink:title=" ">
<polygon fill="white" stroke="#666666" points="428,-168 349,-168 349,-149 428,-149 428,-168"/>
<text text-anchor="middle" x="388.5" y="-156" font-family="Helvetica,sans-Serif" font-size="10.00">ast_run_cmd</text>
</a>
</g>
</g>
<!-- Node21&#45;&gt;Node22 -->
<g id="edge29_Node000021_Node000022" class="edge">
<title>Node21&#45;&gt;Node22</title>
<g id="a_edge29_Node000021_Node000022"><a xlink:title=" ">
<path fill="none" stroke="#63b8ff" d="M453.92,-158.5C445.45,-158.5 436.58,-158.5 428.21,-158.5"/>
<polygon fill="#63b8ff" stroke="#63b8ff" points="453.98,-162 463.98,-158.5 453.98,-155 453.98,-162"/>
</a>
</g>
</g>
<!-- Node23 -->
<g id="Node000023" class="node">
<title>Node23</title>
<g id="a_Node000023"><a xlink:href="ast_8c.html#a572345b2707780bbbc5bbaacdca9c372" target="_top" xlink:title=" ">
<polygon fill="white" stroke="#666666" points="313,-187 260,-187 260,-168 313,-168 313,-187"/>
<text text-anchor="middle" x="286.5" y="-175" font-family="Helvetica,sans-Serif" font-size="10.00">run_ast</text>
</a>
</g>
</g>
<!-- Node22&#45;&gt;Node23 -->
<g id="edge30_Node000022_Node000023" class="edge">
<title>Node22&#45;&gt;Node23</title>
<g id="a_edge30_Node000022_Node000023"><a xlink:title=" ">
<path fill="none" stroke="#63b8ff" d="M338.86,-167.74C329.95,-169.43 320.99,-171.14 313.1,-172.64"/>
<polygon fill="#63b8ff" stroke="#63b8ff" points="339.67,-171.15 348.84,-165.85 338.36,-164.27 339.67,-171.15"/>
</a>
</g>
</g>
<!-- Node23&#45;&gt;Node16 -->
<g id="edge50_Node000023_Node000016" class="edge">
<title>Node23&#45;&gt;Node16</title>
<g id="a_edge50_Node000023_Node000016"><a xlink:title=" ">
<path fill="none" stroke="#63b8ff" d="M279.31,-196.74C264.31,-243.3 227.01,-358.43 224,-361.5 215.02,-370.64 201.37,-375.4 190.1,-377.87"/>
<polygon fill="#63b8ff" stroke="#63b8ff" points="282.65,-197.79 282.39,-187.2 275.99,-195.64 282.65,-197.79"/>
</a>
</g>
</g>
<!-- Node23&#45;&gt;Node17 -->
<g id="edge51_Node000023_Node000017" class="edge">
<title>Node23&#45;&gt;Node17</title>
<g id="a_edge51_Node000023_Node000017"><a xlink:title=" ">
<path fill="none" stroke="#63b8ff" d="M323.17,-182.75C364.52,-188.37 434.79,-196.5 495.5,-196.5 689.5,-196.5 689.5,-196.5 689.5,-196.5 765.37,-196.5 854.42,-196.5 901.64,-196.5"/>
<polygon fill="#63b8ff" stroke="#63b8ff" points="323.43,-179.25 313.05,-181.34 322.47,-186.19 323.43,-179.25"/>
</a>
</g>
</g>
<!-- Node24 -->
<g id="Node000024" class="node">
<title>Node24</title>
<g id="a_Node000024"><a xlink:href="ast__run_8c.html#a8a01fec616135007fc5b3968a101901b" target="_top" xlink:title=" ">
<polygon fill="white" stroke="#666666" points="215,-130 124,-130 124,-111 215,-111 215,-130"/>
<text text-anchor="middle" x="169.5" y="-118" font-family="Helvetica,sans-Serif" font-size="10.00">ast_run_and_or</text>
</a>
</g>
</g>
<!-- Node23&#45;&gt;Node24 -->
<g id="edge31_Node000023_Node000024" class="edge">
<title>Node23&#45;&gt;Node24</title>
<g id="a_edge31_Node000023_Node000024"><a xlink:title=" ">
<path fill="none" stroke="#63b8ff" d="M270.14,-161.56C257.8,-153.03 239.94,-143.34 224,-135.5 220.35,-133.7 216.53,-131.88 212.69,-130.12"/>
<polygon fill="#63b8ff" stroke="#63b8ff" points="268.31,-164.56 278.39,-167.81 272.54,-158.98 268.31,-164.56"/>
</a>
</g>
</g>
<!-- Node25 -->
<g id="Node000025" class="node">
<title>Node25</title>
<g id="a_Node000025"><a xlink:href="ast__run_8c.html#a9d83d4834a61ffe21eb77838d70ae173" target="_top" xlink:title=" ">
<polygon fill="white" stroke="#666666" points="205,-93 134,-93 134,-74 205,-74 205,-93"/>
<text text-anchor="middle" x="169.5" y="-81" font-family="Helvetica,sans-Serif" font-size="10.00">ast_run_for</text>
</a>
</g>
</g>
<!-- Node23&#45;&gt;Node25 -->
<g id="edge33_Node000023_Node000025" class="edge">
<title>Node23&#45;&gt;Node25</title>
<g id="a_edge33_Node000023_Node000025"><a xlink:title=" ">
<path fill="none" stroke="#63b8ff" d="M278.32,-158.6C268.27,-138.89 248.45,-109.5 224,-92.5 218.37,-88.58 211.82,-85.46 205.27,-83.18"/>
<polygon fill="#63b8ff" stroke="#63b8ff" points="275.27,-160.32 282.66,-167.91 281.61,-157.37 275.27,-160.32"/>
</a>
</g>
</g>
<!-- Node26 -->
<g id="Node000026" class="node">
<title>Node26</title>
<g id="a_Node000026"><a xlink:href="ast__run_8c.html#a0a7138b1f2608ea36211c9b78988c248" target="_top" xlink:title=" ">
<polygon fill="white" stroke="#666666" points="202,-56 137,-56 137,-37 202,-37 202,-56"/>
<text text-anchor="middle" x="169.5" y="-44" font-family="Helvetica,sans-Serif" font-size="10.00">ast_run_if</text>
</a>
</g>
</g>
<!-- Node23&#45;&gt;Node26 -->
<g id="edge35_Node000023_Node000026" class="edge">
<title>Node23&#45;&gt;Node26</title>
<g id="a_edge35_Node000023_Node000026"><a xlink:title=" ">
<path fill="none" stroke="#63b8ff" d="M281.5,-157.75C274.1,-130.38 256.02,-82.39 224,-55.5 217.77,-50.27 209.96,-46.54 202.24,-44.19"/>
<polygon fill="#63b8ff" stroke="#63b8ff" points="278.18,-158.9 283.96,-167.78 284.98,-157.23 278.18,-158.9"/>
</a>
</g>
</g>
<!-- Node27 -->
<g id="Node000027" class="node">
<title>Node27</title>
<g id="a_Node000027"><a xlink:href="ast__run_8c.html#ae25cd3ced8abafd76110dba8852a6b87" target="_top" xlink:title=" ">
<polygon fill="white" stroke="#666666" points="206,-335 133,-335 133,-316 206,-316 206,-335"/>
<text text-anchor="middle" x="169.5" y="-323" font-family="Helvetica,sans-Serif" font-size="10.00">ast_run_list</text>
</a>
</g>
</g>
<!-- Node23&#45;&gt;Node27 -->
<g id="edge37_Node000023_Node000027" class="edge">
<title>Node23&#45;&gt;Node27</title>
<g id="a_edge37_Node000023_Node000027"><a xlink:title=" ">
<path fill="none" stroke="#63b8ff" d="M279.53,-196.88C271.57,-223.32 254.77,-269.76 224,-297.5 213.31,-307.14 197.41,-311.96 185.72,-316"/>
<polygon fill="#63b8ff" stroke="#63b8ff" points="282.91,-197.77 282.33,-187.19 276.19,-195.82 282.91,-197.77"/>
</a>
</g>
</g>
<!-- Node28 -->
<g id="Node000028" class="node">
<title>Node28</title>
<g id="a_Node000028"><a xlink:href="ast__run_8c.html#a536f37ba9bffcd2099fef668656181e0" target="_top" xlink:title=" ">
<polygon fill="white" stroke="#666666" points="209,-298 130,-298 130,-279 209,-279 209,-298"/>
<text text-anchor="middle" x="169.5" y="-286" font-family="Helvetica,sans-Serif" font-size="10.00">ast_run_loop</text>
</a>
</g>
</g>
<!-- Node23&#45;&gt;Node28 -->
<g id="edge40_Node000023_Node000028" class="edge">
<title>Node23&#45;&gt;Node28</title>
<g id="a_edge40_Node000023_Node000028"><a xlink:title=" ">
<path fill="none" stroke="#63b8ff" d="M273.92,-196.16C263.53,-214.95 246.46,-243.01 224,-260.5 212.33,-269.58 195.97,-274.54 184.42,-278.91"/>
<polygon fill="#63b8ff" stroke="#63b8ff" points="277.04,-197.74 278.73,-187.28 270.89,-194.4 277.04,-197.74"/>
</a>
</g>
</g>
<!-- Node29 -->
<g id="Node000029" class="node">
<title>Node29</title>
<g id="a_Node000029"><a xlink:href="ast__run_8c.html#aa3e6a973e744d748ee415840596beb53" target="_top" xlink:title=" ">
<polygon fill="white" stroke="#666666" points="224,-261 115,-261 115,-242 224,-242 224,-261"/>
<text text-anchor="middle" x="169.5" y="-249" font-family="Helvetica,sans-Serif" font-size="10.00">ast_run_shell_redir</text>
</a>
</g>
</g>
<!-- Node23&#45;&gt;Node29 -->
<g id="edge42_Node000023_Node000029" class="edge">
<title>Node23&#45;&gt;Node29</title>
<g id="a_edge42_Node000023_Node000029"><a xlink:title=" ">
<path fill="none" stroke="#63b8ff" d="M261.98,-194.23C251.19,-203.85 237.74,-215.35 224,-223.5 210.61,-231.45 193.37,-236.82 182.13,-241.89"/>
<polygon fill="#63b8ff" stroke="#63b8ff" points="264.58,-196.6 269.69,-187.31 259.91,-191.39 264.58,-196.6"/>
</a>
</g>
</g>
<!-- Node30 -->
<g id="Node000030" class="node">
<title>Node30</title>
<g id="a_Node000030"><a xlink:href="exec_8c.html#a23babf893bbcd2f6126698a1a19b169f" target="_top" xlink:title="Execute funct with given arguments.">
<polygon fill="white" stroke="#666666" points="202,-19 137,-19 137,0 202,0 202,-19"/>
<text text-anchor="middle" x="169.5" y="-7" font-family="Helvetica,sans-Serif" font-size="10.00">exec_func</text>
</a>
</g>
</g>
<!-- Node23&#45;&gt;Node30 -->
<g id="edge44_Node000023_Node000030" class="edge">
<title>Node23&#45;&gt;Node30</title>
<g id="a_edge44_Node000023_Node000030"><a xlink:title=" ">
<path fill="none" stroke="#63b8ff" d="M282.72,-157.63C277.23,-125.76 262.04,-63.16 224,-27.5 217.92,-21.8 209.98,-17.9 202.09,-15.24"/>
<polygon fill="#63b8ff" stroke="#63b8ff" points="279.32,-158.54 284.33,-167.88 286.24,-157.46 279.32,-158.54"/>
</a>
</g>
</g>
<!-- Node31 -->
<g id="Node000031" class="node">
<title>Node31</title>
<g id="a_Node000031"><a xlink:href="exec_8c.html#ab743cb88e12e9b922050925fd2075e36" target="_top" xlink:title="Execute a pipeline of commands.">
<polygon fill="white" stroke="#666666" points="202,-206 137,-206 137,-187 202,-187 202,-206"/>
<text text-anchor="middle" x="169.5" y="-194" font-family="Helvetica,sans-Serif" font-size="10.00">exec_pipe</text>
</a>
</g>
</g>
<!-- Node23&#45;&gt;Node31 -->
<g id="edge46_Node000023_Node000031" class="edge">
<title>Node23&#45;&gt;Node31</title>
<g id="a_edge46_Node000023_Node000031"><a xlink:title=" ">
<path fill="none" stroke="#63b8ff" d="M249.86,-183.39C234.59,-185.91 216.9,-188.83 202.11,-191.28"/>
<polygon fill="#63b8ff" stroke="#63b8ff" points="250.68,-186.8 259.98,-181.72 249.54,-179.89 250.68,-186.8"/>
</a>
</g>
</g>
<!-- Node24&#45;&gt;Node23 -->
<g id="edge32_Node000024_Node000023" class="edge">
<title>Node24&#45;&gt;Node23</title>
<g id="a_edge32_Node000024_Node000023"><a xlink:title=" ">
<path fill="none" stroke="#63b8ff" d="M187.22,-135.37C197.84,-141.26 211.83,-147.51 224,-153.5 235.96,-159.38 249,-166.3 259.98,-171.57"/>
<polygon fill="#63b8ff" stroke="#63b8ff" points="188.92,-132.3 178.56,-130.08 185.27,-138.28 188.92,-132.3"/>
</a>
</g>
</g>
<!-- Node25&#45;&gt;Node23 -->
<g id="edge34_Node000025_Node000023" class="edge">
<title>Node25&#45;&gt;Node23</title>
<g id="a_edge34_Node000025_Node000023"><a xlink:title=" ">
<path fill="none" stroke="#63b8ff" d="M193.86,-96.54C203.76,-100.06 215.04,-104.27 224,-110.5 246.86,-126.39 265.67,-153.11 276.24,-167.9"/>
<polygon fill="#63b8ff" stroke="#63b8ff" points="194.81,-93.16 184.21,-93.08 192.44,-99.75 194.81,-93.16"/>
</a>
</g>
</g>
<!-- Node26&#45;&gt;Node23 -->
<g id="edge36_Node000026_Node000023" class="edge">
<title>Node26&#45;&gt;Node23</title>
<g id="a_edge36_Node000026_Node000023"><a xlink:title=" ">
<path fill="none" stroke="#63b8ff" d="M195.65,-59.2C205.33,-62.52 215.98,-66.77 224,-73.5 255.64,-100.07 273.67,-147.25 281.23,-167.98"/>
<polygon fill="#63b8ff" stroke="#63b8ff" points="196.65,-55.84 186.05,-56.01 194.44,-62.48 196.65,-55.84"/>
</a>
</g>
</g>
<!-- Node27&#45;&gt;Node23 -->
<g id="edge39_Node000027_Node000023" class="edge">
<title>Node27&#45;&gt;Node23</title>
<g id="a_edge39_Node000027_Node000023"><a xlink:title=" ">
<path fill="none" stroke="#63b8ff" d="M215.26,-321.77C218.4,-319.97 221.36,-317.88 224,-315.5 263.62,-279.78 280.07,-213.07 284.32,-187.29"/>
<polygon fill="#63b8ff" stroke="#63b8ff" points="213.62,-318.68 206.07,-326.12 216.61,-325.01 213.62,-318.68"/>
</a>
</g>
</g>
<!-- Node27&#45;&gt;Node27 -->
<g id="edge38_Node000027_Node000027" class="edge">
<title>Node27&#45;&gt;Node27</title>
<g id="a_edge38_Node000027_Node000027"><a xlink:title=" ">
<path fill="none" stroke="#63b8ff" d="M190.98,-344.55C189.55,-349.38 182.39,-353 169.5,-353 148.88,-353 142.92,-343.73 151.62,-335.08"/>
<polygon fill="#63b8ff" stroke="#63b8ff" points="194.2,-343.19 187.38,-335.08 187.66,-345.67 194.2,-343.19"/>
</a>
</g>
</g>
<!-- Node28&#45;&gt;Node23 -->
<g id="edge41_Node000028_Node000023" class="edge">
<title>Node28&#45;&gt;Node23</title>
<g id="a_edge41_Node000028_Node000023"><a xlink:title=" ">
<path fill="none" stroke="#63b8ff" d="M218.3,-282.41C220.29,-281.21 222.2,-279.9 224,-278.5 255.69,-253.84 276.63,-208.12 283.25,-187.27"/>
<polygon fill="#63b8ff" stroke="#63b8ff" points="216.5,-279.4 209.19,-287.06 219.68,-285.63 216.5,-279.4"/>
</a>
</g>
</g>
<!-- Node29&#45;&gt;Node23 -->
<g id="edge43_Node000029_Node000023" class="edge">
<title>Node29&#45;&gt;Node23</title>
<g id="a_edge43_Node000029_Node000023"><a xlink:title=" ">
<path fill="none" stroke="#63b8ff" d="M231.7,-236.52C253.52,-221.5 272.9,-200.37 281.22,-187.3"/>
<polygon fill="#63b8ff" stroke="#63b8ff" points="229.76,-233.61 223.23,-241.95 233.54,-239.5 229.76,-233.61"/>
</a>
</g>
</g>
<!-- Node30&#45;&gt;Node21 -->
<g id="edge45_Node000030_Node000021" class="edge">
<title>Node30&#45;&gt;Node21</title>
<g id="a_edge45_Node000030_Node000021"><a xlink:title=" ">
<path fill="none" stroke="#63b8ff" d="M210.77,-22.44C215.27,-24.07 219.75,-25.77 224,-27.5 322.14,-67.5 434.9,-126.19 477.74,-148.97"/>
<polygon fill="#63b8ff" stroke="#63b8ff" points="211.61,-19.03 201.02,-19.03 209.3,-25.64 211.61,-19.03"/>
</a>
</g>
</g>
<!-- Node31&#45;&gt;Node31 -->
<g id="edge49_Node000031_Node000031" class="edge">
<title>Node31&#45;&gt;Node31</title>
<g id="a_edge49_Node000031_Node000031"><a xlink:title=" ">
<path fill="none" stroke="#63b8ff" d="M190.98,-215.55C189.55,-220.38 182.39,-224 169.5,-224 148.88,-224 142.92,-214.73 151.62,-206.08"/>
<polygon fill="#63b8ff" stroke="#63b8ff" points="194.2,-214.19 187.38,-206.08 187.66,-216.67 194.2,-214.19"/>
</a>
</g>
</g>
<!-- Node32 -->
<g id="Node000032" class="node">
<title>Node32</title>
<g id="a_Node000032"><a xlink:href="ast__run_8c.html#a24d0223822f7b635628199085c3283be" target="_top" xlink:title=" ">
<polygon fill="white" stroke="#666666" points="79,-187 0,-187 0,-168 79,-168 79,-187"/>
<text text-anchor="middle" x="39.5" y="-175" font-family="Helvetica,sans-Serif" font-size="10.00">ast_run_pipe</text>
</a>
</g>
</g>
<!-- Node31&#45;&gt;Node32 -->
<g id="edge47_Node000031_Node000032" class="edge">
<title>Node31&#45;&gt;Node32</title>
<g id="a_edge47_Node000031_Node000032"><a xlink:title=" ">
<path fill="none" stroke="#63b8ff" d="M126.62,-190.28C111.32,-188.01 94.09,-185.45 79.08,-183.23"/>
<polygon fill="#63b8ff" stroke="#63b8ff" points="126.45,-193.8 136.86,-191.8 127.48,-186.87 126.45,-193.8"/>
</a>
</g>
</g>
<!-- Node32&#45;&gt;Node23 -->
<g id="edge48_Node000032_Node000023" class="edge">
<title>Node32&#45;&gt;Node23</title>
<g id="a_edge48_Node000032_Node000023"><a xlink:title=" ">
<path fill="none" stroke="#63b8ff" d="M89.3,-177.5C140.62,-177.5 219.4,-177.5 259.74,-177.5"/>
<polygon fill="#63b8ff" stroke="#63b8ff" points="89.11,-174 79.11,-177.5 89.11,-181 89.11,-174"/>
</a>
</g>
</g>
<!-- Node33&#45;&gt;Node3 -->
<g id="edge53_Node000033_Node000003" class="edge">
<title>Node33&#45;&gt;Node3</title>
<g id="a_edge53_Node000033_Node000003"><a xlink:title=" ">
<path fill="none" stroke="#63b8ff" d="M1724.81,-375.41C1716.36,-374.07 1707.61,-372.69 1699.2,-371.36"/>
<polygon fill="#63b8ff" stroke="#63b8ff" points="1724.51,-378.9 1734.93,-377.01 1725.6,-371.99 1724.51,-378.9"/>
</a>
</g>
</g>
</g>
</svg>
