<?xml version="1.0" encoding="UTF-8" standalone="no"?>
<!DOCTYPE svg PUBLIC "-//W3C//DTD SVG 1.1//EN"
 "http://www.w3.org/Graphics/SVG/1.1/DTD/svg11.dtd">
<!-- Generated by graphviz version 2.43.0 (0)
 -->
<!-- Title: parser_rule_if Pages: 1 -->
<svg width="2073pt" height="398pt"
 viewBox="0.00 0.00 2073.00 398.00" xmlns="http://www.w3.org/2000/svg" xmlns:xlink="http://www.w3.org/1999/xlink">
<g id="graph0" class="graph" transform="scale(1 1) rotate(0) translate(4 394)">
<title>parser_rule_if</title>
<!-- Node1 -->
<g id="Node000001" class="node">
<title>Node1</title>
<g id="a_Node000001"><a xlink:title="Handle a &#39;if&#39; block by calling corresponding parser at each step.">
<polygon fill="#999999" stroke="#666666" points="2065,-280 1982,-280 1982,-261 2065,-261 2065,-280"/>
<text text-anchor="middle" x="2023.5" y="-268" font-family="Helvetica,sans-Serif" font-size="10.00">parser_rule_if</text>
</a>
</g>
</g>
<!-- Node2 -->
<g id="Node000002" class="node">
<title>Node2</title>
<g id="a_Node000002"><a xlink:href="parser__commands_8c.html#ad98fbb958a265134e775b69579e28835" target="_top" xlink:title="Handle a shell command block by calling corresponding parser at each step.">
<polygon fill="white" stroke="#666666" points="1946,-128 1816,-128 1816,-109 1946,-109 1946,-128"/>
<text text-anchor="middle" x="1881" y="-116" font-family="Helvetica,sans-Serif" font-size="10.00">parser_shell_command</text>
</a>
</g>
</g>
<!-- Node1&#45;&gt;Node2 -->
<g id="edge1_Node000001_Node000002" class="edge">
<title>Node1&#45;&gt;Node2</title>
<g id="a_edge1_Node000001_Node000002"><a xlink:title=" ">
<path fill="none" stroke="#63b8ff" d="M2006.6,-253.3C1976.91,-221.18 1913.94,-153.06 1890.79,-128"/>
<polygon fill="#63b8ff" stroke="#63b8ff" points="2004.35,-256.02 2013.71,-260.99 2009.49,-251.27 2004.35,-256.02"/>
</a>
</g>
</g>
<!-- Node3 -->
<g id="Node000003" class="node">
<title>Node3</title>
<g id="a_Node000003"><a xlink:href="parser__commands_8c.html#aa7191f56bd8e70874c5c381e52186807" target="_top" xlink:title="Parse a command which can be either a simple command or a shell command.">
<polygon fill="white" stroke="#666666" points="1660,-49 1559,-49 1559,-30 1660,-30 1660,-49"/>
<text text-anchor="middle" x="1609.5" y="-37" font-family="Helvetica,sans-Serif" font-size="10.00">parser_command</text>
</a>
</g>
</g>
<!-- Node2&#45;&gt;Node3 -->
<g id="edge2_Node000002_Node000003" class="edge">
<title>Node2&#45;&gt;Node3</title>
<g id="a_edge2_Node000002_Node000003"><a xlink:title=" ">
<path fill="none" stroke="#63b8ff" d="M1867.93,-100.57C1851.28,-77.64 1818.87,-39.02 1780,-23.5 1731.96,-4.32 1670.39,-18.84 1636.24,-29.95"/>
<polygon fill="#63b8ff" stroke="#63b8ff" points="1865.09,-102.62 1873.71,-108.79 1870.82,-98.59 1865.09,-102.62"/>
</a>
</g>
</g>
<!-- Node32 -->
<g id="Node000032" class="node">
<title>Node32</title>
<g id="a_Node000032"><a xlink:href="parser__commands_8c.html#a14408e6904da17fc6899bba03f7a5f5a" target="_top" xlink:title="Handle a function definition and add it to the dictionnary.">
<polygon fill="white" stroke="#666666" points="1780,-52 1696,-52 1696,-33 1780,-33 1780,-52"/>
<text text-anchor="middle" x="1738" y="-40" font-family="Helvetica,sans-Serif" font-size="10.00">parser_fundef</text>
</a>
</g>
</g>
<!-- Node2&#45;&gt;Node32 -->
<g id="edge51_Node000002_Node000032" class="edge">
<title>Node2&#45;&gt;Node32</title>
<g id="a_edge51_Node000002_Node000032"><a xlink:title=" ">
<path fill="none" stroke="#63b8ff" d="M1853.18,-104.04C1824.86,-88.78 1781,-65.14 1756.71,-52.05"/>
<polygon fill="#63b8ff" stroke="#63b8ff" points="1851.68,-107.21 1862.14,-108.87 1855,-101.05 1851.68,-107.21"/>
</a>
</g>
</g>
<!-- Node4 -->
<g id="Node000004" class="node">
<title>Node4</title>
<g id="a_Node000004"><a xlink:href="parser__pipelines_8c.html#a06068cdf8924fb28f414f419d84a5eae" target="_top" xlink:title="Parse and_or blocks separated by &#39;|&#39; (pipes)">
<polygon fill="white" stroke="#666666" points="1523,-49 1431,-49 1431,-30 1523,-30 1523,-49"/>
<text text-anchor="middle" x="1477" y="-37" font-family="Helvetica,sans-Serif" font-size="10.00">parser_pipeline</text>
</a>
</g>
</g>
<!-- Node3&#45;&gt;Node4 -->
<g id="edge3_Node000003_Node000004" class="edge">
<title>Node3&#45;&gt;Node4</title>
<g id="a_edge3_Node000003_Node000004"><a xlink:title=" ">
<path fill="none" stroke="#63b8ff" d="M1548.53,-39.5C1540.05,-39.5 1531.44,-39.5 1523.29,-39.5"/>
<polygon fill="#63b8ff" stroke="#63b8ff" points="1548.79,-43 1558.79,-39.5 1548.79,-36 1548.79,-43"/>
</a>
</g>
</g>
<!-- Node5 -->
<g id="Node000005" class="node">
<title>Node5</title>
<g id="a_Node000005"><a xlink:href="parser__pipelines_8c.html#a85ca4872d7efdb8b0cd643037ccd5763" target="_top" xlink:title="Parse and_or blocks separated by &#39;&amp;&amp;&#39; or &#39;||&#39;.">
<polygon fill="white" stroke="#666666" points="1395,-49 1309,-49 1309,-30 1395,-30 1395,-49"/>
<text text-anchor="middle" x="1352" y="-37" font-family="Helvetica,sans-Serif" font-size="10.00">parser_and_or</text>
</a>
</g>
</g>
<!-- Node4&#45;&gt;Node5 -->
<g id="edge4_Node000004_Node000005" class="edge">
<title>Node4&#45;&gt;Node5</title>
<g id="a_edge4_Node000004_Node000005"><a xlink:title=" ">
<path fill="none" stroke="#63b8ff" d="M1420.62,-39.5C1412.1,-39.5 1403.41,-39.5 1395.24,-39.5"/>
<polygon fill="#63b8ff" stroke="#63b8ff" points="1420.9,-43 1430.9,-39.5 1420.9,-36 1420.9,-43"/>
</a>
</g>
</g>
<!-- Node6 -->
<g id="Node000006" class="node">
<title>Node6</title>
<g id="a_Node000006"><a xlink:href="parser__lists_8c.html#aae7a5d6760b83c1a37b0369f82a20500" target="_top" xlink:title="Absorb a chain of and_or separeted by &#39;;&#39; or &#39; &#39;.">
<polygon fill="white" stroke="#666666" points="1273,-166 1149,-166 1149,-147 1273,-147 1273,-166"/>
<text text-anchor="middle" x="1211" y="-154" font-family="Helvetica,sans-Serif" font-size="10.00">parser_compound_list</text>
</a>
</g>
</g>
<!-- Node5&#45;&gt;Node6 -->
<g id="edge5_Node000005_Node000006" class="edge">
<title>Node5&#45;&gt;Node6</title>
<g id="a_edge5_Node000005_Node000006"><a xlink:title=" ">
<path fill="none" stroke="#63b8ff" d="M1331.74,-55.71C1302.4,-80.41 1247.39,-126.71 1223.53,-146.79"/>
<polygon fill="#63b8ff" stroke="#63b8ff" points="1334.23,-58.19 1339.63,-49.07 1329.72,-52.84 1334.23,-58.19"/>
</a>
</g>
</g>
<!-- Node13 -->
<g id="Node000013" class="node">
<title>Node13</title>
<g id="a_Node000013"><a xlink:href="parser__lists_8c.html#a7b9812922acfb4eba24e65d40bd99001" target="_top" xlink:title="Parse list block into sub and_or block(s) separated by semi&#45;colons.">
<polygon fill="white" stroke="#666666" points="1245,-45 1177,-45 1177,-26 1245,-26 1245,-45"/>
<text text-anchor="middle" x="1211" y="-33" font-family="Helvetica,sans-Serif" font-size="10.00">parser_list</text>
</a>
</g>
</g>
<!-- Node5&#45;&gt;Node13 -->
<g id="edge20_Node000005_Node000013" class="edge">
<title>Node5&#45;&gt;Node13</title>
<g id="a_edge20_Node000005_Node000013"><a xlink:title=" ">
<path fill="none" stroke="#63b8ff" d="M1298.84,-38C1280.83,-37.48 1261.17,-36.92 1245.12,-36.45"/>
<polygon fill="#63b8ff" stroke="#63b8ff" points="1298.82,-41.5 1308.92,-38.29 1299.02,-34.5 1298.82,-41.5"/>
</a>
</g>
</g>
<!-- Node6&#45;&gt;Node1 -->
<g id="edge15_Node000006_Node000001" class="edge">
<title>Node6&#45;&gt;Node1</title>
<g id="a_edge15_Node000006_Node000001"><a xlink:title=" ">
<path fill="none" stroke="#63b8ff" d="M1232.24,-172.1C1274.83,-203.32 1377.89,-270.5 1476,-270.5 1739,-270.5 1739,-270.5 1739,-270.5 1825.38,-270.5 1926.56,-270.5 1981.66,-270.5"/>
<polygon fill="#63b8ff" stroke="#63b8ff" points="1234.2,-169.2 1224.1,-166.02 1230.02,-174.81 1234.2,-169.2"/>
</a>
</g>
</g>
<!-- Node7 -->
<g id="Node000007" class="node">
<title>Node7</title>
<g id="a_Node000007"><a xlink:href="parser__rules_8c.html#a799f84e24df3eff653f7c0696e348572" target="_top" xlink:title="Parse an elif block when called.">
<polygon fill="white" stroke="#666666" points="1084.5,-166 1016.5,-166 1016.5,-147 1084.5,-147 1084.5,-166"/>
<text text-anchor="middle" x="1050.5" y="-154" font-family="Helvetica,sans-Serif" font-size="10.00">parser_elif</text>
</a>
</g>
</g>
<!-- Node6&#45;&gt;Node7 -->
<g id="edge6_Node000006_Node000007" class="edge">
<title>Node6&#45;&gt;Node7</title>
<g id="a_edge6_Node000006_Node000007"><a xlink:title=" ">
<path fill="none" stroke="#63b8ff" d="M1138.66,-156.5C1119.84,-156.5 1100.43,-156.5 1084.71,-156.5"/>
<polygon fill="#63b8ff" stroke="#63b8ff" points="1138.72,-160 1148.72,-156.5 1138.72,-153 1138.72,-160"/>
</a>
</g>
</g>
<!-- Node8 -->
<g id="Node000008" class="node">
<title>Node8</title>
<g id="a_Node000008"><a xlink:href="parser__rules_8c.html#adf5258219dad4f79fdbc7786eb925699" target="_top" xlink:title="Define which parser to use depending on the context.">
<polygon fill="white" stroke="#666666" points="952,-171 842,-171 842,-152 952,-152 952,-171"/>
<text text-anchor="middle" x="897" y="-159" font-family="Helvetica,sans-Serif" font-size="10.00">parser_else_clause</text>
</a>
</g>
</g>
<!-- Node6&#45;&gt;Node8 -->
<g id="edge10_Node000006_Node000008" class="edge">
<title>Node6&#45;&gt;Node8</title>
<g id="a_edge10_Node000006_Node000008"><a xlink:title=" ">
<path fill="none" stroke="#63b8ff" d="M1157.54,-168.05C1143.17,-170.72 1127.55,-173.16 1113,-174.5 1057.68,-179.59 1043.41,-178.48 988,-174.5 976.35,-173.66 963.91,-172.22 952.12,-170.6"/>
<polygon fill="#63b8ff" stroke="#63b8ff" points="1158.58,-171.41 1167.74,-166.08 1157.26,-164.54 1158.58,-171.41"/>
</a>
</g>
</g>
<!-- Node9 -->
<g id="Node000009" class="node">
<title>Node9</title>
<g id="a_Node000009"><a xlink:href="parser__rules_8c.html#afb9701776de31af668314b48a0b54636" target="_top" xlink:title="Handle a command block enclosed in brackets.">
<polygon fill="white" stroke="#666666" points="1113,-128.5 988,-128.5 988,-98.5 1113,-98.5 1113,-128.5"/>
<text text-anchor="start" x="996" y="-116.5" font-family="Helvetica,sans-Serif" font-size="10.00">parser_rule_command</text>
<text text-anchor="middle" x="1050.5" y="-105.5" font-family="Helvetica,sans-Serif" font-size="10.00">_block</text>
</a>
</g>
</g>
<!-- Node6&#45;&gt;Node9 -->
<g id="edge11_Node000006_Node000009" class="edge">
<title>Node6&#45;&gt;Node9</title>
<g id="a_edge11_Node000006_Node000009"><a xlink:title=" ">
<path fill="none" stroke="#63b8ff" d="M1165.09,-144.32C1146.97,-139.4 1125.87,-133.68 1106.81,-128.51"/>
<polygon fill="#63b8ff" stroke="#63b8ff" points="1164.26,-147.72 1174.82,-146.96 1166.09,-140.96 1164.26,-147.72"/>
</a>
</g>
</g>
<!-- Node10 -->
<g id="Node000010" class="node">
<title>Node10</title>
<g id="a_Node000010"><a xlink:href="parser__rules_8c.html#a55dc38591d3749d39ca3f38f8a2a26dd" target="_top" xlink:title="Handle a for block by calling corresponding parser at each step.">
<polygon fill="white" stroke="#666666" points="1095.5,-80 1005.5,-80 1005.5,-61 1095.5,-61 1095.5,-80"/>
<text text-anchor="middle" x="1050.5" y="-68" font-family="Helvetica,sans-Serif" font-size="10.00">parser_rule_for</text>
</a>
</g>
</g>
<!-- Node6&#45;&gt;Node10 -->
<g id="edge13_Node000006_Node000010" class="edge">
<title>Node6&#45;&gt;Node10</title>
<g id="a_edge13_Node000006_Node000010"><a xlink:title=" ">
<path fill="none" stroke="#63b8ff" d="M1190.65,-140.48C1171.82,-125.54 1141.9,-103.53 1113,-89.5 1105.46,-85.84 1097.06,-82.69 1088.95,-80.07"/>
<polygon fill="#63b8ff" stroke="#63b8ff" points="1188.5,-143.23 1198.48,-146.78 1192.89,-137.78 1188.5,-143.23"/>
</a>
</g>
</g>
<!-- Node11 -->
<g id="Node000011" class="node">
<title>Node11</title>
<g id="a_Node000011"><a xlink:href="parser__rules_8c.html#abf1c3edda1bb73d8c86028687922ce95" target="_top" xlink:title="Handle a &#39;until&#39; block by calling corresponding parser at each step.">
<polygon fill="white" stroke="#666666" points="1099.5,-279 1001.5,-279 1001.5,-260 1099.5,-260 1099.5,-279"/>
<text text-anchor="middle" x="1050.5" y="-267" font-family="Helvetica,sans-Serif" font-size="10.00">parser_rule_until</text>
</a>
</g>
</g>
<!-- Node6&#45;&gt;Node11 -->
<g id="edge16_Node000006_Node000011" class="edge">
<title>Node6&#45;&gt;Node11</title>
<g id="a_edge16_Node000006_Node000011"><a xlink:title=" ">
<path fill="none" stroke="#63b8ff" d="M1193.49,-173.33C1168.32,-198.86 1122.28,-245 1113,-250.5 1106.56,-254.32 1099.27,-257.43 1092.03,-259.96"/>
<polygon fill="#63b8ff" stroke="#63b8ff" points="1196.05,-175.72 1200.57,-166.14 1191.06,-170.81 1196.05,-175.72"/>
</a>
</g>
</g>
<!-- Node12 -->
<g id="Node000012" class="node">
<title>Node12</title>
<g id="a_Node000012"><a xlink:href="parser__rules_8c.html#aa6719ad356821f03ad45b1ac0a57d3bd" target="_top" xlink:title="Handle a &#39;while&#39; block by calling corresponding parser at each step.">
<polygon fill="white" stroke="#666666" points="1102,-242 999,-242 999,-223 1102,-223 1102,-242"/>
<text text-anchor="middle" x="1050.5" y="-230" font-family="Helvetica,sans-Serif" font-size="10.00">parser_rule_while</text>
</a>
</g>
</g>
<!-- Node6&#45;&gt;Node12 -->
<g id="edge18_Node000006_Node000012" class="edge">
<title>Node6&#45;&gt;Node12</title>
<g id="a_edge18_Node000006_Node000012"><a xlink:title=" ">
<path fill="none" stroke="#63b8ff" d="M1171.25,-169.81C1163.69,-172.94 1155.95,-176.54 1149,-180.5 1131.39,-190.54 1130.63,-198.49 1113,-208.5 1103.03,-214.16 1091.47,-219.06 1081.08,-222.93"/>
<polygon fill="#63b8ff" stroke="#63b8ff" points="1172.65,-173.02 1180.67,-166.1 1170.08,-166.51 1172.65,-173.02"/>
</a>
</g>
</g>
<!-- Node7&#45;&gt;Node8 -->
<g id="edge7_Node000007_Node000008" class="edge">
<title>Node7&#45;&gt;Node8</title>
<g id="a_edge7_Node000007_Node000008"><a xlink:title=" ">
<path fill="none" stroke="#63b8ff" d="M1006.13,-151.76C989.27,-151.68 969.77,-152.21 952.01,-153.22"/>
<polygon fill="#63b8ff" stroke="#63b8ff" points="1006.21,-155.26 1016.25,-151.9 1006.3,-148.26 1006.21,-155.26"/>
</a>
</g>
</g>
<!-- Node8&#45;&gt;Node1 -->
<g id="edge9_Node000008_Node000001" class="edge">
<title>Node8&#45;&gt;Node1</title>
<g id="a_edge9_Node000008_Node000001"><a xlink:title=" ">
<path fill="none" stroke="#63b8ff" d="M905.41,-180.78C917.69,-209.79 945.23,-263.9 988,-288.5 1073.87,-337.9 1110.93,-308.5 1210,-308.5 1739,-308.5 1739,-308.5 1739,-308.5 1826.15,-308.5 1927.05,-290.64 1981.88,-279.41"/>
<polygon fill="#63b8ff" stroke="#63b8ff" points="908.58,-179.27 901.58,-171.32 902.09,-181.91 908.58,-179.27"/>
</a>
</g>
</g>
<!-- Node8&#45;&gt;Node7 -->
<g id="edge8_Node000008_Node000007" class="edge">
<title>Node8&#45;&gt;Node7</title>
<g id="a_edge8_Node000008_Node000007"><a xlink:title=" ">
<path fill="none" stroke="#63b8ff" d="M962.22,-166.06C980.82,-165.67 1000.38,-164.7 1016.25,-163.3"/>
<polygon fill="#63b8ff" stroke="#63b8ff" points="961.95,-162.56 952.01,-166.21 962.06,-169.56 961.95,-162.56"/>
</a>
</g>
</g>
<!-- Node9&#45;&gt;Node2 -->
<g id="edge12_Node000009_Node000002" class="edge">
<title>Node9&#45;&gt;Node2</title>
<g id="a_edge12_Node000009_Node000002"><a xlink:title=" ">
<path fill="none" stroke="#63b8ff" d="M1123.39,-115.37C1184.06,-116.79 1273.2,-118.5 1351,-118.5 1610.5,-118.5 1610.5,-118.5 1610.5,-118.5 1680.68,-118.5 1761.15,-118.5 1815.75,-118.5"/>
<polygon fill="#63b8ff" stroke="#63b8ff" points="1123.24,-111.87 1113.16,-115.13 1123.07,-118.87 1123.24,-111.87"/>
</a>
</g>
</g>
<!-- Node10&#45;&gt;Node2 -->
<g id="edge14_Node000010_Node000002" class="edge">
<title>Node10&#45;&gt;Node2</title>
<g id="a_edge14_Node000010_Node000002"><a xlink:title=" ">
<path fill="none" stroke="#63b8ff" d="M1105.63,-73.39C1165.61,-76.35 1265.18,-80.5 1351,-80.5 1610.5,-80.5 1610.5,-80.5 1610.5,-80.5 1691.77,-80.5 1785.49,-97.65 1838.24,-108.91"/>
<polygon fill="#63b8ff" stroke="#63b8ff" points="1105.8,-69.9 1095.63,-72.9 1105.45,-76.89 1105.8,-69.9"/>
</a>
</g>
</g>
<!-- Node11&#45;&gt;Node2 -->
<g id="edge17_Node000011_Node000002" class="edge">
<title>Node11&#45;&gt;Node2</title>
<g id="a_edge17_Node000011_Node000002"><a xlink:title=" ">
<path fill="none" stroke="#63b8ff" d="M1109.05,-258.13C1169.16,-247.25 1266.31,-232.5 1351,-232.5 1610.5,-232.5 1610.5,-232.5 1610.5,-232.5 1688.56,-232.5 1709.08,-219.12 1780,-186.5 1814.91,-170.45 1851.01,-142.6 1868.76,-128.02"/>
<polygon fill="#63b8ff" stroke="#63b8ff" points="1108.2,-254.72 1099,-259.97 1109.47,-261.61 1108.2,-254.72"/>
</a>
</g>
</g>
<!-- Node12&#45;&gt;Node2 -->
<g id="edge19_Node000012_Node000002" class="edge">
<title>Node12&#45;&gt;Node2</title>
<g id="a_edge19_Node000012_Node000002"><a xlink:title=" ">
<path fill="none" stroke="#63b8ff" d="M1107.72,-221.06C1167.71,-209.87 1265.66,-194.5 1351,-194.5 1610.5,-194.5 1610.5,-194.5 1610.5,-194.5 1707.24,-194.5 1816.43,-148.58 1860.26,-128.13"/>
<polygon fill="#63b8ff" stroke="#63b8ff" points="1106.88,-217.66 1097.7,-222.96 1108.18,-224.54 1106.88,-217.66"/>
</a>
</g>
</g>
<!-- Node14 -->
<g id="Node000014" class="node">
<title>Node14</title>
<g id="a_Node000014"><a xlink:href="parser_8c.html#a620dffcc9a167cdee6e67de1191e5277" target="_top" xlink:title="Parse the input of our shell into list.">
<polygon fill="white" stroke="#666666" points="1074,-43 1027,-43 1027,-24 1074,-24 1074,-43"/>
<text text-anchor="middle" x="1050.5" y="-31" font-family="Helvetica,sans-Serif" font-size="10.00">parser</text>
</a>
</g>
</g>
<!-- Node13&#45;&gt;Node14 -->
<g id="edge21_Node000013_Node000014" class="edge">
<title>Node13&#45;&gt;Node14</title>
<g id="a_edge21_Node000013_Node000014"><a xlink:title=" ">
<path fill="none" stroke="#63b8ff" d="M1166.63,-34.95C1136.85,-34.58 1098.49,-34.09 1074.44,-33.79"/>
<polygon fill="#63b8ff" stroke="#63b8ff" points="1166.73,-38.45 1176.77,-35.08 1166.82,-31.45 1166.73,-38.45"/>
</a>
</g>
</g>
<!-- Node15 -->
<g id="Node000015" class="node">
<title>Node15</title>
<g id="a_Node000015"><a xlink:href="42sh_8c.html#a3c04138a5bfe5d72780bb7e82a18e627" target="_top" xlink:title=" ">
<polygon fill="white" stroke="#666666" points="190,-19 149,-19 149,0 190,0 190,-19"/>
<text text-anchor="middle" x="169.5" y="-7" font-family="Helvetica,sans-Serif" font-size="10.00">main</text>
</a>
</g>
</g>
<!-- Node14&#45;&gt;Node15 -->
<g id="edge22_Node000014_Node000015" class="edge">
<title>Node14&#45;&gt;Node15</title>
<g id="a_edge22_Node000014_Node000015"><a xlink:title=" ">
<path fill="none" stroke="#63b8ff" d="M1016.72,-29.22C966.8,-23.08 868.69,-12.5 785,-12.5 785,-12.5 785,-12.5 387.5,-12.5 314.78,-12.5 228.37,-10.79 190.25,-9.96"/>
<polygon fill="#63b8ff" stroke="#63b8ff" points="1016.55,-32.72 1026.9,-30.49 1017.42,-25.78 1016.55,-32.72"/>
</a>
</g>
</g>
<!-- Node16 -->
<g id="Node000016" class="node">
<title>Node16</title>
<g id="a_Node000016"><a xlink:href="dot_8c.html#a17477ee2b0f1b8b9306566c990d15b35" target="_top" xlink:title="Main loop of dot builtin.">
<polygon fill="white" stroke="#666666" points="931,-126 863,-126 863,-107 931,-107 931,-126"/>
<text text-anchor="middle" x="897" y="-114" font-family="Helvetica,sans-Serif" font-size="10.00">main_loop</text>
</a>
</g>
</g>
<!-- Node14&#45;&gt;Node16 -->
<g id="edge23_Node000014_Node000016" class="edge">
<title>Node14&#45;&gt;Node16</title>
<g id="a_edge23_Node000014_Node000016"><a xlink:title=" ">
<path fill="none" stroke="#63b8ff" d="M1017.21,-40.72C1007.56,-43.47 997.12,-47.04 988,-51.5 956.67,-66.83 924.65,-92.98 908.58,-106.98"/>
<polygon fill="#63b8ff" stroke="#63b8ff" points="1018.13,-44.1 1026.9,-38.16 1016.34,-37.33 1018.13,-44.1"/>
</a>
</g>
</g>
<!-- Node17 -->
<g id="Node000017" class="node">
<title>Node17</title>
<g id="a_Node000017"><a xlink:href="dot_8c.html#a713938d3c6ee343132c429642048bcf6" target="_top" xlink:title="Execute the dot builtin cmd.">
<polygon fill="white" stroke="#666666" points="806,-126 762,-126 762,-107 806,-107 806,-126"/>
<text text-anchor="middle" x="784" y="-114" font-family="Helvetica,sans-Serif" font-size="10.00">dot_b</text>
</a>
</g>
</g>
<!-- Node16&#45;&gt;Node17 -->
<g id="edge24_Node000016_Node000017" class="edge">
<title>Node16&#45;&gt;Node17</title>
<g id="a_edge24_Node000016_Node000017"><a xlink:title=" ">
<path fill="none" stroke="#63b8ff" d="M852.75,-116.5C836.75,-116.5 819.33,-116.5 806.16,-116.5"/>
<polygon fill="#63b8ff" stroke="#63b8ff" points="853,-120 863,-116.5 853,-113 853,-120"/>
</a>
</g>
</g>
<!-- Node18 -->
<g id="Node000018" class="node">
<title>Node18</title>
<g id="a_Node000018"><a xlink:href="exec_8c.html#abaeb177587c7eec6a064b35bb8399cae" target="_top" xlink:title="Execute builtin cmd with given args.">
<polygon fill="white" stroke="#666666" points="726,-126 651,-126 651,-107 726,-107 726,-126"/>
<text text-anchor="middle" x="688.5" y="-114" font-family="Helvetica,sans-Serif" font-size="10.00">exec_builtin</text>
</a>
</g>
</g>
<!-- Node17&#45;&gt;Node18 -->
<g id="edge25_Node000017_Node000018" class="edge">
<title>Node17&#45;&gt;Node18</title>
<g id="a_edge25_Node000017_Node000018"><a xlink:title=" ">
<path fill="none" stroke="#63b8ff" d="M751.53,-116.5C743.35,-116.5 734.47,-116.5 726.05,-116.5"/>
<polygon fill="#63b8ff" stroke="#63b8ff" points="751.78,-120 761.78,-116.5 751.78,-113 751.78,-120"/>
</a>
</g>
</g>
<!-- Node19 -->
<g id="Node000019" class="node">
<title>Node19</title>
<g id="a_Node000019"><a xlink:href="exec_8c.html#a287d81b4658832f192750310e2925917" target="_top" xlink:title="Execute the builtin command with given args.">
<polygon fill="white" stroke="#666666" points="615,-126 565,-126 565,-107 615,-107 615,-126"/>
<text text-anchor="middle" x="590" y="-114" font-family="Helvetica,sans-Serif" font-size="10.00">exec_b</text>
</a>
</g>
</g>
<!-- Node18&#45;&gt;Node19 -->
<g id="edge26_Node000018_Node000019" class="edge">
<title>Node18&#45;&gt;Node19</title>
<g id="a_edge26_Node000018_Node000019"><a xlink:title=" ">
<path fill="none" stroke="#63b8ff" d="M640.51,-116.5C631.71,-116.5 622.86,-116.5 615.12,-116.5"/>
<polygon fill="#63b8ff" stroke="#63b8ff" points="640.74,-120 650.74,-116.5 640.74,-113 640.74,-120"/>
</a>
</g>
</g>
<!-- Node20 -->
<g id="Node000020" class="node">
<title>Node20</title>
<g id="a_Node000020"><a xlink:href="exec_8c.html#ae65edaa99b26b49d60c451157d38b34a" target="_top" xlink:title="Execute les commandes avec les args donnes.">
<polygon fill="white" stroke="#666666" points="529,-126 464,-126 464,-107 529,-107 529,-126"/>
<text text-anchor="middle" x="496.5" y="-114" font-family="Helvetica,sans-Serif" font-size="10.00">exec_cmd</text>
</a>
</g>
</g>
<!-- Node19&#45;&gt;Node20 -->
<g id="edge27_Node000019_Node000020" class="edge">
<title>Node19&#45;&gt;Node20</title>
<g id="a_edge27_Node000019_Node000020"><a xlink:title=" ">
<path fill="none" stroke="#63b8ff" d="M554.77,-116.5C546.42,-116.5 537.53,-116.5 529.3,-116.5"/>
<polygon fill="#63b8ff" stroke="#63b8ff" points="554.96,-120 564.96,-116.5 554.96,-113 554.96,-120"/>
</a>
</g>
</g>
<!-- Node21 -->
<g id="Node000021" class="node">
<title>Node21</title>
<g id="a_Node000021"><a xlink:href="ast__run_8c.html#aeb6878a59c6907e5669fc3cc428913d9" target="_top" xlink:title=" ">
<polygon fill="white" stroke="#666666" points="428,-128 349,-128 349,-109 428,-109 428,-128"/>
<text text-anchor="middle" x="388.5" y="-116" font-family="Helvetica,sans-Serif" font-size="10.00">ast_run_cmd</text>
</a>
</g>
</g>
<!-- Node20&#45;&gt;Node21 -->
<g id="edge28_Node000020_Node000021" class="edge">
<title>Node20&#45;&gt;Node21</title>
<g id="a_edge28_Node000020_Node000021"><a xlink:title=" ">
<path fill="none" stroke="#63b8ff" d="M453.92,-117.28C445.45,-117.44 436.58,-117.61 428.21,-117.77"/>
<polygon fill="#63b8ff" stroke="#63b8ff" points="454.05,-120.78 463.98,-117.09 453.92,-113.78 454.05,-120.78"/>
</a>
</g>
</g>
<!-- Node22 -->
<g id="Node000022" class="node">
<title>Node22</title>
<g id="a_Node000022"><a xlink:href="ast_8c.html#a572345b2707780bbbc5bbaacdca9c372" target="_top" xlink:title=" ">
<polygon fill="white" stroke="#666666" points="313,-185 260,-185 260,-166 313,-166 313,-185"/>
<text text-anchor="middle" x="286.5" y="-173" font-family="Helvetica,sans-Serif" font-size="10.00">run_ast</text>
</a>
</g>
</g>
<!-- Node21&#45;&gt;Node22 -->
<g id="edge29_Node000021_Node000022" class="edge">
<title>Node21&#45;&gt;Node22</title>
<g id="a_edge29_Node000021_Node000022"><a xlink:title=" ">
<path fill="none" stroke="#63b8ff" d="M361.65,-133.24C343.54,-143.55 319.88,-157.04 304.21,-165.97"/>
<polygon fill="#63b8ff" stroke="#63b8ff" points="363.58,-136.16 370.54,-128.17 360.12,-130.08 363.58,-136.16"/>
</a>
</g>
</g>
<!-- Node22&#45;&gt;Node15 -->
<g id="edge49_Node000022_Node000015" class="edge">
<title>Node22&#45;&gt;Node15</title>
<g id="a_edge49_Node000022_Node000015"><a xlink:title=" ">
<path fill="none" stroke="#63b8ff" d="M282.56,-155.44C276.89,-123.84 261.51,-62.49 224,-27.5 214.76,-18.88 201.24,-14.37 190.11,-12.03"/>
<polygon fill="#63b8ff" stroke="#63b8ff" points="279.16,-156.33 284.23,-165.63 286.07,-155.19 279.16,-156.33"/>
</a>
</g>
</g>
<!-- Node22&#45;&gt;Node16 -->
<g id="edge50_Node000022_Node000016" class="edge">
<title>Node22&#45;&gt;Node16</title>
<g id="a_edge50_Node000022_Node000016"><a xlink:title=" ">
<path fill="none" stroke="#63b8ff" d="M323.24,-173.01C364.66,-170.35 434.98,-166.5 495.5,-166.5 689.5,-166.5 689.5,-166.5 689.5,-166.5 757.56,-166.5 834.77,-140.53 872.6,-126.02"/>
<polygon fill="#63b8ff" stroke="#63b8ff" points="322.85,-169.53 313.1,-173.68 323.31,-176.52 322.85,-169.53"/>
</a>
</g>
</g>
<!-- Node23 -->
<g id="Node000023" class="node">
<title>Node23</title>
<g id="a_Node000023"><a xlink:href="ast__run_8c.html#a8a01fec616135007fc5b3968a101901b" target="_top" xlink:title=" ">
<polygon fill="white" stroke="#666666" points="215,-222 124,-222 124,-203 215,-203 215,-222"/>
<text text-anchor="middle" x="169.5" y="-210" font-family="Helvetica,sans-Serif" font-size="10.00">ast_run_and_or</text>
</a>
</g>
</g>
<!-- Node22&#45;&gt;Node23 -->
<g id="edge30_Node000022_Node000023" class="edge">
<title>Node22&#45;&gt;Node23</title>
<g id="a_edge30_Node000022_Node000023"><a xlink:title=" ">
<path fill="none" stroke="#63b8ff" d="M250.09,-180.61C228.37,-186.64 201.69,-195.75 185.4,-202.99"/>
<polygon fill="#63b8ff" stroke="#63b8ff" points="251.21,-183.93 259.98,-177.99 249.42,-177.16 251.21,-183.93"/>
</a>
</g>
</g>
<!-- Node24 -->
<g id="Node000024" class="node">
<title>Node24</title>
<g id="a_Node000024"><a xlink:href="ast__run_8c.html#a9d83d4834a61ffe21eb77838d70ae173" target="_top" xlink:title=" ">
<polygon fill="white" stroke="#666666" points="205,-185 134,-185 134,-166 205,-166 205,-185"/>
<text text-anchor="middle" x="169.5" y="-173" font-family="Helvetica,sans-Serif" font-size="10.00">ast_run_for</text>
</a>
</g>
</g>
<!-- Node22&#45;&gt;Node24 -->
<g id="edge32_Node000022_Node000024" class="edge">
<title>Node22&#45;&gt;Node24</title>
<g id="a_edge32_Node000022_Node000024"><a xlink:title=" ">
<path fill="none" stroke="#63b8ff" d="M249.6,-169.19C235.41,-168.58 219.17,-168.6 205.11,-169.25"/>
<polygon fill="#63b8ff" stroke="#63b8ff" points="249.8,-172.71 259.98,-169.78 250.19,-165.72 249.8,-172.71"/>
</a>
</g>
</g>
<!-- Node25 -->
<g id="Node000025" class="node">
<title>Node25</title>
<g id="a_Node000025"><a xlink:href="ast__run_8c.html#a0a7138b1f2608ea36211c9b78988c248" target="_top" xlink:title=" ">
<polygon fill="white" stroke="#666666" points="202,-148 137,-148 137,-129 202,-129 202,-148"/>
<text text-anchor="middle" x="169.5" y="-136" font-family="Helvetica,sans-Serif" font-size="10.00">ast_run_if</text>
</a>
</g>
</g>
<!-- Node22&#45;&gt;Node25 -->
<g id="edge34_Node000022_Node000025" class="edge">
<title>Node22&#45;&gt;Node25</title>
<g id="a_edge34_Node000022_Node000025"><a xlink:title=" ">
<path fill="none" stroke="#63b8ff" d="M261.1,-162.01C243.88,-155.16 220.65,-147.54 202.03,-142.55"/>
<polygon fill="#63b8ff" stroke="#63b8ff" points="259.89,-165.3 270.47,-165.93 262.59,-158.84 259.89,-165.3"/>
</a>
</g>
</g>
<!-- Node26 -->
<g id="Node000026" class="node">
<title>Node26</title>
<g id="a_Node000026"><a xlink:href="ast__run_8c.html#ae25cd3ced8abafd76110dba8852a6b87" target="_top" xlink:title=" ">
<polygon fill="white" stroke="#666666" points="206,-93 133,-93 133,-74 206,-74 206,-93"/>
<text text-anchor="middle" x="169.5" y="-81" font-family="Helvetica,sans-Serif" font-size="10.00">ast_run_list</text>
</a>
</g>
</g>
<!-- Node22&#45;&gt;Node26 -->
<g id="edge36_Node000022_Node000026" class="edge">
<title>Node22&#45;&gt;Node26</title>
<g id="a_edge36_Node000022_Node000026"><a xlink:title=" ">
<path fill="none" stroke="#63b8ff" d="M274.23,-157.6C262.22,-143.6 242.44,-124.97 224,-110.5 216.25,-104.42 207.51,-98.26 199.37,-93.17"/>
<polygon fill="#63b8ff" stroke="#63b8ff" points="271.65,-159.99 280.62,-165.63 277.13,-155.63 271.65,-159.99"/>
</a>
</g>
</g>
<!-- Node27 -->
<g id="Node000027" class="node">
<title>Node27</title>
<g id="a_Node000027"><a xlink:href="ast__run_8c.html#a536f37ba9bffcd2099fef668656181e0" target="_top" xlink:title=" ">
<polygon fill="white" stroke="#666666" points="209,-390 130,-390 130,-371 209,-371 209,-390"/>
<text text-anchor="middle" x="169.5" y="-378" font-family="Helvetica,sans-Serif" font-size="10.00">ast_run_loop</text>
</a>
</g>
</g>
<!-- Node22&#45;&gt;Node27 -->
<g id="edge39_Node000022_Node000027" class="edge">
<title>Node22&#45;&gt;Node27</title>
<g id="a_edge39_Node000022_Node000027"><a xlink:title=" ">
<path fill="none" stroke="#63b8ff" d="M284.11,-195.8C280.59,-232.49 268.12,-309.08 224,-353.5 214.61,-362.96 200.1,-367.45 188.55,-370.93"/>
<polygon fill="#63b8ff" stroke="#63b8ff" points="287.64,-195.64 284.97,-185.38 280.66,-195.06 287.64,-195.64"/>
</a>
</g>
</g>
<!-- Node28 -->
<g id="Node000028" class="node">
<title>Node28</title>
<g id="a_Node000028"><a xlink:href="ast__run_8c.html#aa3e6a973e744d748ee415840596beb53" target="_top" xlink:title=" ">
<polygon fill="white" stroke="#666666" points="224,-353 115,-353 115,-334 224,-334 224,-353"/>
<text text-anchor="middle" x="169.5" y="-341" font-family="Helvetica,sans-Serif" font-size="10.00">ast_run_shell_redir</text>
</a>
</g>
</g>
<!-- Node22&#45;&gt;Node28 -->
<g id="edge41_Node000022_Node000028" class="edge">
<title>Node22&#45;&gt;Node28</title>
<g id="a_edge41_Node000022_Node000028"><a xlink:title=" ">
<path fill="none" stroke="#63b8ff" d="M281.67,-195.03C275.4,-225.38 259.84,-282.9 224,-316.5 214.13,-325.75 199.36,-330.26 187.83,-333.86"/>
<polygon fill="#63b8ff" stroke="#63b8ff" points="285.11,-195.66 283.58,-185.18 278.24,-194.33 285.11,-195.66"/>
</a>
</g>
</g>
<!-- Node29 -->
<g id="Node000029" class="node">
<title>Node29</title>
<g id="a_Node000029"><a xlink:href="exec_8c.html#a23babf893bbcd2f6126698a1a19b169f" target="_top" xlink:title="Execute funct with given arguments.">
<polygon fill="white" stroke="#666666" points="202,-56 137,-56 137,-37 202,-37 202,-56"/>
<text text-anchor="middle" x="169.5" y="-44" font-family="Helvetica,sans-Serif" font-size="10.00">exec_func</text>
</a>
</g>
</g>
<!-- Node22&#45;&gt;Node29 -->
<g id="edge43_Node000022_Node000029" class="edge">
<title>Node22&#45;&gt;Node29</title>
<g id="a_edge43_Node000022_Node000029"><a xlink:title=" ">
<path fill="none" stroke="#63b8ff" d="M279.71,-156.28C271.32,-131.61 253.49,-89.07 224,-64.5 217.75,-59.29 209.93,-55.57 202.21,-52.92"/>
<polygon fill="#63b8ff" stroke="#63b8ff" points="276.42,-157.49 282.82,-165.94 283.09,-155.35 276.42,-157.49"/>
</a>
</g>
</g>
<!-- Node30 -->
<g id="Node000030" class="node">
<title>Node30</title>
<g id="a_Node000030"><a xlink:href="exec_8c.html#ab743cb88e12e9b922050925fd2075e36" target="_top" xlink:title="Execute a pipeline of commands.">
<polygon fill="white" stroke="#666666" points="202,-298 137,-298 137,-279 202,-279 202,-298"/>
<text text-anchor="middle" x="169.5" y="-286" font-family="Helvetica,sans-Serif" font-size="10.00">exec_pipe</text>
</a>
</g>
</g>
<!-- Node22&#45;&gt;Node30 -->
<g id="edge45_Node000022_Node000030" class="edge">
<title>Node22&#45;&gt;Node30</title>
<g id="a_edge45_Node000022_Node000030"><a xlink:title=" ">
<path fill="none" stroke="#63b8ff" d="M276.46,-194.27C266.15,-214 247.61,-244.86 224,-264.5 216.8,-270.49 207.87,-275.27 199.37,-278.95"/>
<polygon fill="#63b8ff" stroke="#63b8ff" points="279.72,-195.59 281.09,-185.08 273.46,-192.44 279.72,-195.59"/>
</a>
</g>
</g>
<!-- Node23&#45;&gt;Node22 -->
<g id="edge31_Node000023_Node000022" class="edge">
<title>Node23&#45;&gt;Node22</title>
<g id="a_edge31_Node000023_Node000022"><a xlink:title=" ">
<path fill="none" stroke="#63b8ff" d="M224.85,-201.75C241.6,-196.46 258.71,-190.29 270.47,-185.07"/>
<polygon fill="#63b8ff" stroke="#63b8ff" points="223.61,-198.48 215.07,-204.76 225.66,-205.17 223.61,-198.48"/>
</a>
</g>
</g>
<!-- Node24&#45;&gt;Node22 -->
<g id="edge33_Node000024_Node000022" class="edge">
<title>Node24&#45;&gt;Node22</title>
<g id="a_edge33_Node000024_Node000022"><a xlink:title=" ">
<path fill="none" stroke="#63b8ff" d="M215.34,-182.1C230.48,-182.46 246.86,-182.17 259.98,-181.22"/>
<polygon fill="#63b8ff" stroke="#63b8ff" points="215.23,-178.6 205.11,-181.75 214.98,-185.59 215.23,-178.6"/>
</a>
</g>
</g>
<!-- Node25&#45;&gt;Node22 -->
<g id="edge35_Node000025_Node000022" class="edge">
<title>Node25&#45;&gt;Node22</title>
<g id="a_edge35_Node000025_Node000022"><a xlink:title=" ">
<path fill="none" stroke="#63b8ff" d="M194.64,-151.89C213.79,-159.52 240.48,-168.14 259.98,-173.01"/>
<polygon fill="#63b8ff" stroke="#63b8ff" points="195.97,-148.65 185.4,-148.01 193.27,-155.1 195.97,-148.65"/>
</a>
</g>
</g>
<!-- Node26&#45;&gt;Node22 -->
<g id="edge38_Node000026_Node000022" class="edge">
<title>Node26&#45;&gt;Node22</title>
<g id="a_edge38_Node000026_Node000022"><a xlink:title=" ">
<path fill="none" stroke="#63b8ff" d="M184.71,-99.61C195.72,-108.23 211.21,-118.46 224,-128.5 239.56,-140.71 256.08,-155.89 268.08,-165.99"/>
<polygon fill="#63b8ff" stroke="#63b8ff" points="186.87,-96.86 176.97,-93.08 182.35,-102.21 186.87,-96.86"/>
</a>
</g>
</g>
<!-- Node26&#45;&gt;Node26 -->
<g id="edge37_Node000026_Node000026" class="edge">
<title>Node26&#45;&gt;Node26</title>
<g id="a_edge37_Node000026_Node000026"><a xlink:title=" ">
<path fill="none" stroke="#63b8ff" d="M190.98,-102.55C189.55,-107.38 182.39,-111 169.5,-111 148.88,-111 142.92,-101.73 151.62,-93.08"/>
<polygon fill="#63b8ff" stroke="#63b8ff" points="194.2,-101.19 187.38,-93.08 187.66,-103.67 194.2,-101.19"/>
</a>
</g>
</g>
<!-- Node27&#45;&gt;Node22 -->
<g id="edge40_Node000027_Node000022" class="edge">
<title>Node27&#45;&gt;Node22</title>
<g id="a_edge40_Node000027_Node000022"><a xlink:title=" ">
<path fill="none" stroke="#63b8ff" d="M217.94,-376.5C220.12,-375.02 222.16,-373.36 224,-371.5 277.22,-317.91 284.39,-217.48 285.35,-185.24"/>
<polygon fill="#63b8ff" stroke="#63b8ff" points="216.13,-373.5 209,-381.34 219.46,-379.66 216.13,-373.5"/>
</a>
</g>
</g>
<!-- Node28&#45;&gt;Node22 -->
<g id="edge42_Node000028_Node000022" class="edge">
<title>Node28&#45;&gt;Node22</title>
<g id="a_edge42_Node000028_Node000022"><a xlink:title=" ">
<path fill="none" stroke="#63b8ff" d="M231.29,-327.04C270.21,-283.74 282.05,-211.68 284.8,-185.1"/>
<polygon fill="#63b8ff" stroke="#63b8ff" points="228.74,-324.65 224.26,-334.25 233.75,-329.54 228.74,-324.65"/>
</a>
</g>
</g>
<!-- Node29&#45;&gt;Node20 -->
<g id="edge44_Node000029_Node000020" class="edge">
<title>Node29&#45;&gt;Node20</title>
<g id="a_edge44_Node000029_Node000020"><a xlink:title=" ">
<path fill="none" stroke="#63b8ff" d="M212.3,-54.52C263.35,-64.45 352.24,-82.17 428,-99.5 439.78,-102.19 452.66,-105.38 463.98,-108.26"/>
<polygon fill="#63b8ff" stroke="#63b8ff" points="212.79,-51.05 202.31,-52.58 211.46,-57.92 212.79,-51.05"/>
</a>
</g>
</g>
<!-- Node30&#45;&gt;Node30 -->
<g id="edge48_Node000030_Node000030" class="edge">
<title>Node30&#45;&gt;Node30</title>
<g id="a_edge48_Node000030_Node000030"><a xlink:title=" ">
<path fill="none" stroke="#63b8ff" d="M190.98,-307.55C189.55,-312.38 182.39,-316 169.5,-316 148.88,-316 142.92,-306.73 151.62,-298.08"/>
<polygon fill="#63b8ff" stroke="#63b8ff" points="194.2,-306.19 187.38,-298.08 187.66,-308.67 194.2,-306.19"/>
</a>
</g>
</g>
<!-- Node31 -->
<g id="Node000031" class="node">
<title>Node31</title>
<g id="a_Node000031"><a xlink:href="ast__run_8c.html#a24d0223822f7b635628199085c3283be" target="_top" xlink:title=" ">
<polygon fill="white" stroke="#666666" points="79,-279 0,-279 0,-260 79,-260 79,-279"/>
<text text-anchor="middle" x="39.5" y="-267" font-family="Helvetica,sans-Serif" font-size="10.00">ast_run_pipe</text>
</a>
</g>
</g>
<!-- Node30&#45;&gt;Node31 -->
<g id="edge46_Node000030_Node000031" class="edge">
<title>Node30&#45;&gt;Node31</title>
<g id="a_edge46_Node000030_Node000031"><a xlink:title=" ">
<path fill="none" stroke="#63b8ff" d="M126.62,-282.28C111.32,-280.01 94.09,-277.45 79.08,-275.23"/>
<polygon fill="#63b8ff" stroke="#63b8ff" points="126.45,-285.8 136.86,-283.8 127.48,-278.87 126.45,-285.8"/>
</a>
</g>
</g>
<!-- Node31&#45;&gt;Node22 -->
<g id="edge47_Node000031_Node000022" class="edge">
<title>Node31&#45;&gt;Node22</title>
<g id="a_edge47_Node000031_Node000022"><a xlink:title=" ">
<path fill="none" stroke="#63b8ff" d="M89.7,-265.99C128.03,-261.65 181.66,-251.99 224,-230.5 246.23,-219.22 266.65,-197.87 277.45,-185.34"/>
<polygon fill="#63b8ff" stroke="#63b8ff" points="88.9,-262.55 79.32,-267.07 89.63,-269.51 88.9,-262.55"/>
</a>
</g>
</g>
<!-- Node32&#45;&gt;Node3 -->
<g id="edge52_Node000032_Node000003" class="edge">
<title>Node32&#45;&gt;Node3</title>
<g id="a_edge52_Node000032_Node000003"><a xlink:title=" ">
<path fill="none" stroke="#63b8ff" d="M1685.81,-41.29C1677.36,-41.09 1668.61,-40.88 1660.2,-40.68"/>
<polygon fill="#63b8ff" stroke="#63b8ff" points="1685.85,-44.79 1695.93,-41.53 1686.01,-37.79 1685.85,-44.79"/>
</a>
</g>
</g>
</g>
</svg>
