<?xml version="1.0" encoding="UTF-8" standalone="no"?>
<!DOCTYPE svg PUBLIC "-//W3C//DTD SVG 1.1//EN"
 "http://www.w3.org/Graphics/SVG/1.1/DTD/svg11.dtd">
<!-- Generated by graphviz version 2.43.0 (0)
 -->
<!-- Title: parser_element Pages: 1 -->
<svg width="2101pt" height="465pt"
 viewBox="0.00 0.00 2101.00 464.50" xmlns="http://www.w3.org/2000/svg" xmlns:xlink="http://www.w3.org/1999/xlink">
<g id="graph0" class="graph" transform="scale(1 1) rotate(0) translate(4 460.5)">
<title>parser_element</title>
<!-- Node1 -->
<g id="Node000001" class="node">
<title>Node1</title>
<g id="a_Node000001"><a xlink:title="Handle an element in a command: either a word or a redirection.">
<polygon fill="#999999" stroke="#666666" points="2093,-428 2000,-428 2000,-409 2093,-409 2093,-428"/>
<text text-anchor="middle" x="2046.5" y="-416" font-family="Helvetica,sans-Serif" font-size="10.00">parser_element</text>
</a>
</g>
</g>
<!-- Node2 -->
<g id="Node000002" class="node">
<title>Node2</title>
<g id="a_Node000002"><a xlink:href="parser__commands_8c.html#a8de59a4400a37b3e42d6475270cd5425" target="_top" xlink:title="Group words in a command in order to form a list of commands.">
<polygon fill="white" stroke="#666666" points="1964,-428 1824,-428 1824,-409 1964,-409 1964,-428"/>
<text text-anchor="middle" x="1894" y="-416" font-family="Helvetica,sans-Serif" font-size="10.00">parser_simple_command</text>
</a>
</g>
</g>
<!-- Node1&#45;&gt;Node2 -->
<g id="edge1_Node000001_Node000002" class="edge">
<title>Node1&#45;&gt;Node2</title>
<g id="a_edge1_Node000001_Node000002"><a xlink:title=" ">
<path fill="none" stroke="#63b8ff" d="M1989.87,-418.5C1981.45,-418.5 1972.68,-418.5 1964.02,-418.5"/>
<polygon fill="#63b8ff" stroke="#63b8ff" points="1989.94,-422 1999.94,-418.5 1989.94,-415 1989.94,-422"/>
</a>
</g>
</g>
<!-- Node3 -->
<g id="Node000003" class="node">
<title>Node3</title>
<g id="a_Node000003"><a xlink:href="parser__commands_8c.html#aa7191f56bd8e70874c5c381e52186807" target="_top" xlink:title="Parse a command which can be either a simple command or a shell command.">
<polygon fill="white" stroke="#666666" points="1788,-428 1687,-428 1687,-409 1788,-409 1788,-428"/>
<text text-anchor="middle" x="1737.5" y="-416" font-family="Helvetica,sans-Serif" font-size="10.00">parser_command</text>
</a>
</g>
</g>
<!-- Node2&#45;&gt;Node3 -->
<g id="edge2_Node000002_Node000003" class="edge">
<title>Node2&#45;&gt;Node3</title>
<g id="a_edge2_Node000002_Node000003"><a xlink:title=" ">
<path fill="none" stroke="#63b8ff" d="M1813.68,-418.5C1804.98,-418.5 1796.31,-418.5 1788.12,-418.5"/>
<polygon fill="#63b8ff" stroke="#63b8ff" points="1813.88,-422 1823.88,-418.5 1813.88,-415 1813.88,-422"/>
</a>
</g>
</g>
<!-- Node4 -->
<g id="Node000004" class="node">
<title>Node4</title>
<g id="a_Node000004"><a xlink:href="parser__pipelines_8c.html#a06068cdf8924fb28f414f419d84a5eae" target="_top" xlink:title="Parse and_or blocks separated by &#39;|&#39; (pipes)">
<polygon fill="white" stroke="#666666" points="1651,-330 1559,-330 1559,-311 1651,-311 1651,-330"/>
<text text-anchor="middle" x="1605" y="-318" font-family="Helvetica,sans-Serif" font-size="10.00">parser_pipeline</text>
</a>
</g>
</g>
<!-- Node3&#45;&gt;Node4 -->
<g id="edge3_Node000003_Node000004" class="edge">
<title>Node3&#45;&gt;Node4</title>
<g id="a_edge3_Node000003_Node000004"><a xlink:title=" ">
<path fill="none" stroke="#63b8ff" d="M1715.39,-402.65C1688.12,-382.17 1641.47,-347.14 1618.94,-330.22"/>
<polygon fill="#63b8ff" stroke="#63b8ff" points="1713.41,-405.54 1723.51,-408.75 1717.62,-399.94 1713.41,-405.54"/>
</a>
</g>
</g>
<!-- Node5 -->
<g id="Node000005" class="node">
<title>Node5</title>
<g id="a_Node000005"><a xlink:href="parser__pipelines_8c.html#a85ca4872d7efdb8b0cd643037ccd5763" target="_top" xlink:title="Parse and_or blocks separated by &#39;&amp;&amp;&#39; or &#39;||&#39;.">
<polygon fill="white" stroke="#666666" points="1523,-268 1437,-268 1437,-249 1523,-249 1523,-268"/>
<text text-anchor="middle" x="1480" y="-256" font-family="Helvetica,sans-Serif" font-size="10.00">parser_and_or</text>
</a>
</g>
</g>
<!-- Node4&#45;&gt;Node5 -->
<g id="edge4_Node000004_Node000005" class="edge">
<title>Node4&#45;&gt;Node5</title>
<g id="a_edge4_Node000004_Node000005"><a xlink:title=" ">
<path fill="none" stroke="#63b8ff" d="M1576.05,-306.41C1552.86,-294.72 1520.52,-278.42 1500.17,-268.16"/>
<polygon fill="#63b8ff" stroke="#63b8ff" points="1574.55,-309.57 1585.05,-310.95 1577.7,-303.32 1574.55,-309.57"/>
</a>
</g>
</g>
<!-- Node6 -->
<g id="Node000006" class="node">
<title>Node6</title>
<g id="a_Node000006"><a xlink:href="parser__lists_8c.html#aae7a5d6760b83c1a37b0369f82a20500" target="_top" xlink:title="Absorb a chain of and_or separeted by &#39;;&#39; or &#39; &#39;.">
<polygon fill="white" stroke="#666666" points="1401,-268 1277,-268 1277,-249 1401,-249 1401,-268"/>
<text text-anchor="middle" x="1339" y="-256" font-family="Helvetica,sans-Serif" font-size="10.00">parser_compound_list</text>
</a>
</g>
</g>
<!-- Node5&#45;&gt;Node6 -->
<g id="edge5_Node000005_Node000006" class="edge">
<title>Node5&#45;&gt;Node6</title>
<g id="a_edge5_Node000005_Node000006"><a xlink:title=" ">
<path fill="none" stroke="#63b8ff" d="M1426.9,-258.5C1418.5,-258.5 1409.75,-258.5 1401.17,-258.5"/>
<polygon fill="#63b8ff" stroke="#63b8ff" points="1426.92,-262 1436.92,-258.5 1426.92,-255 1426.92,-262"/>
</a>
</g>
</g>
<!-- Node16 -->
<g id="Node000016" class="node">
<title>Node16</title>
<g id="a_Node000016"><a xlink:href="parser__lists_8c.html#a7b9812922acfb4eba24e65d40bd99001" target="_top" xlink:title="Parse list block into sub and_or block(s) separated by semi&#45;colons.">
<polygon fill="white" stroke="#666666" points="1373,-174 1305,-174 1305,-155 1373,-155 1373,-174"/>
<text text-anchor="middle" x="1339" y="-162" font-family="Helvetica,sans-Serif" font-size="10.00">parser_list</text>
</a>
</g>
</g>
<!-- Node5&#45;&gt;Node16 -->
<g id="edge24_Node000005_Node000016" class="edge">
<title>Node5&#45;&gt;Node16</title>
<g id="a_edge24_Node000005_Node000016"><a xlink:title=" ">
<path fill="none" stroke="#63b8ff" d="M1456.28,-243.13C1427.34,-223.56 1378.2,-190.33 1354.13,-174.06"/>
<polygon fill="#63b8ff" stroke="#63b8ff" points="1454.66,-246.27 1464.91,-248.97 1458.58,-240.47 1454.66,-246.27"/>
</a>
</g>
</g>
<!-- Node7 -->
<g id="Node000007" class="node">
<title>Node7</title>
<g id="a_Node000007"><a xlink:href="parser__rules_8c.html#a799f84e24df3eff653f7c0696e348572" target="_top" xlink:title="Parse an elif block when called.">
<polygon fill="white" stroke="#666666" points="1223.5,-268 1155.5,-268 1155.5,-249 1223.5,-249 1223.5,-268"/>
<text text-anchor="middle" x="1189.5" y="-256" font-family="Helvetica,sans-Serif" font-size="10.00">parser_elif</text>
</a>
</g>
</g>
<!-- Node6&#45;&gt;Node7 -->
<g id="edge6_Node000006_Node000007" class="edge">
<title>Node6&#45;&gt;Node7</title>
<g id="a_edge6_Node000006_Node000007"><a xlink:title=" ">
<path fill="none" stroke="#63b8ff" d="M1266.41,-258.5C1251.43,-258.5 1236.33,-258.5 1223.59,-258.5"/>
<polygon fill="#63b8ff" stroke="#63b8ff" points="1266.73,-262 1276.73,-258.5 1266.73,-255 1266.73,-262"/>
</a>
</g>
</g>
<!-- Node8 -->
<g id="Node000008" class="node">
<title>Node8</title>
<g id="a_Node000008"><a xlink:href="parser__rules_8c.html#adf5258219dad4f79fdbc7786eb925699" target="_top" xlink:title="Define which parser to use depending on the context.">
<polygon fill="white" stroke="#666666" points="1094.5,-266 984.5,-266 984.5,-247 1094.5,-247 1094.5,-266"/>
<text text-anchor="middle" x="1039.5" y="-254" font-family="Helvetica,sans-Serif" font-size="10.00">parser_else_clause</text>
</a>
</g>
</g>
<!-- Node6&#45;&gt;Node8 -->
<g id="edge14_Node000006_Node000008" class="edge">
<title>Node6&#45;&gt;Node8</title>
<g id="a_edge14_Node000006_Node000008"><a xlink:title=" ">
<path fill="none" stroke="#63b8ff" d="M1285.54,-246.95C1271.17,-244.28 1255.55,-241.84 1241,-240.5 1195.41,-236.31 1183.63,-236.78 1138,-240.5 1121.93,-241.81 1104.51,-244.32 1088.91,-246.96"/>
<polygon fill="#63b8ff" stroke="#63b8ff" points="1285.26,-250.46 1295.74,-248.92 1286.58,-243.59 1285.26,-250.46"/>
</a>
</g>
</g>
<!-- Node9 -->
<g id="Node000009" class="node">
<title>Node9</title>
<g id="a_Node000009"><a xlink:href="parser__rules_8c.html#abf9e27d14e7a1c314285114bead78817" target="_top" xlink:title="Handle a &#39;if&#39; block by calling corresponding parser at each step.">
<polygon fill="white" stroke="#666666" points="937.5,-266 854.5,-266 854.5,-247 937.5,-247 937.5,-266"/>
<text text-anchor="middle" x="896" y="-254" font-family="Helvetica,sans-Serif" font-size="10.00">parser_rule_if</text>
</a>
</g>
</g>
<!-- Node6&#45;&gt;Node9 -->
<g id="edge19_Node000006_Node000009" class="edge">
<title>Node6&#45;&gt;Node9</title>
<g id="a_edge19_Node000006_Node000009"><a xlink:title=" ">
<path fill="none" stroke="#63b8ff" d="M1298.8,-246C1281.31,-241.04 1260.33,-235.95 1241,-233.5 1199.41,-228.23 978.26,-238.34 977,-238.5 962.31,-240.36 946.36,-243.68 932.58,-246.97"/>
<polygon fill="#63b8ff" stroke="#63b8ff" points="1298.08,-249.43 1308.66,-248.88 1300.04,-242.71 1298.08,-249.43"/>
</a>
</g>
</g>
<!-- Node12 -->
<g id="Node000012" class="node">
<title>Node12</title>
<g id="a_Node000012"><a xlink:href="parser__rules_8c.html#afb9701776de31af668314b48a0b54636" target="_top" xlink:title="Handle a command block enclosed in brackets.">
<polygon fill="white" stroke="#666666" points="1102,-352.5 977,-352.5 977,-322.5 1102,-322.5 1102,-352.5"/>
<text text-anchor="start" x="985" y="-340.5" font-family="Helvetica,sans-Serif" font-size="10.00">parser_rule_command</text>
<text text-anchor="middle" x="1039.5" y="-329.5" font-family="Helvetica,sans-Serif" font-size="10.00">_block</text>
</a>
</g>
</g>
<!-- Node6&#45;&gt;Node12 -->
<g id="edge15_Node000006_Node000012" class="edge">
<title>Node6&#45;&gt;Node12</title>
<g id="a_edge15_Node000006_Node000012"><a xlink:title=" ">
<path fill="none" stroke="#63b8ff" d="M1315.4,-273.64C1296.38,-285.63 1268.03,-301.75 1241,-310.5 1195.89,-325.1 1142.6,-331.81 1102.3,-334.89"/>
<polygon fill="#63b8ff" stroke="#63b8ff" points="1317.43,-276.5 1323.94,-268.14 1313.64,-270.62 1317.43,-276.5"/>
</a>
</g>
</g>
<!-- Node13 -->
<g id="Node000013" class="node">
<title>Node13</title>
<g id="a_Node000013"><a xlink:href="parser__rules_8c.html#a55dc38591d3749d39ca3f38f8a2a26dd" target="_top" xlink:title="Handle a for block by calling corresponding parser at each step.">
<polygon fill="white" stroke="#666666" points="941,-307 851,-307 851,-288 941,-288 941,-307"/>
<text text-anchor="middle" x="896" y="-295" font-family="Helvetica,sans-Serif" font-size="10.00">parser_rule_for</text>
</a>
</g>
</g>
<!-- Node6&#45;&gt;Node13 -->
<g id="edge17_Node000006_Node000013" class="edge">
<title>Node6&#45;&gt;Node13</title>
<g id="a_edge17_Node000006_Node000013"><a xlink:title=" ">
<path fill="none" stroke="#63b8ff" d="M1285.5,-270.13C1271.13,-272.94 1255.52,-275.66 1241,-277.5 1133.87,-291.04 1006.8,-295.43 941.16,-296.84"/>
<polygon fill="#63b8ff" stroke="#63b8ff" points="1286.59,-273.48 1295.71,-268.08 1285.21,-266.62 1286.59,-273.48"/>
</a>
</g>
</g>
<!-- Node14 -->
<g id="Node000014" class="node">
<title>Node14</title>
<g id="a_Node000014"><a xlink:href="parser__rules_8c.html#abf1c3edda1bb73d8c86028687922ce95" target="_top" xlink:title="Handle a &#39;until&#39; block by calling corresponding parser at each step.">
<polygon fill="white" stroke="#666666" points="1088.5,-154 990.5,-154 990.5,-135 1088.5,-135 1088.5,-154"/>
<text text-anchor="middle" x="1039.5" y="-142" font-family="Helvetica,sans-Serif" font-size="10.00">parser_rule_until</text>
</a>
</g>
</g>
<!-- Node6&#45;&gt;Node14 -->
<g id="edge20_Node000006_Node000014" class="edge">
<title>Node6&#45;&gt;Node14</title>
<g id="a_edge20_Node000006_Node000014"><a xlink:title=" ">
<path fill="none" stroke="#63b8ff" d="M1324.7,-240.64C1307.82,-219.46 1276.57,-184.97 1241,-168.5 1192.48,-146.04 1130.62,-141.82 1088.53,-142.08"/>
<polygon fill="#63b8ff" stroke="#63b8ff" points="1322.14,-243.05 1331.03,-248.81 1327.67,-238.76 1322.14,-243.05"/>
</a>
</g>
</g>
<!-- Node15 -->
<g id="Node000015" class="node">
<title>Node15</title>
<g id="a_Node000015"><a xlink:href="parser__rules_8c.html#aa6719ad356821f03ad45b1ac0a57d3bd" target="_top" xlink:title="Handle a &#39;while&#39; block by calling corresponding parser at each step.">
<polygon fill="white" stroke="#666666" points="1241,-387 1138,-387 1138,-368 1241,-368 1241,-387"/>
<text text-anchor="middle" x="1189.5" y="-375" font-family="Helvetica,sans-Serif" font-size="10.00">parser_rule_while</text>
</a>
</g>
</g>
<!-- Node6&#45;&gt;Node15 -->
<g id="edge22_Node000006_Node000015" class="edge">
<title>Node6&#45;&gt;Node15</title>
<g id="a_edge22_Node000006_Node000015"><a xlink:title=" ">
<path fill="none" stroke="#63b8ff" d="M1322.32,-275.57C1303.99,-294.93 1272.19,-326.77 1241,-349.5 1231.44,-356.47 1219.96,-362.96 1210.37,-367.94"/>
<polygon fill="#63b8ff" stroke="#63b8ff" points="1325.03,-277.79 1329.31,-268.1 1319.92,-273.01 1325.03,-277.79"/>
</a>
</g>
</g>
<!-- Node7&#45;&gt;Node8 -->
<g id="edge7_Node000007_Node000008" class="edge">
<title>Node7&#45;&gt;Node8</title>
<g id="a_edge7_Node000007_Node000008"><a xlink:title=" ">
<path fill="none" stroke="#63b8ff" d="M1145.23,-251.71C1129.36,-250.9 1111.21,-250.55 1094.52,-250.7"/>
<polygon fill="#63b8ff" stroke="#63b8ff" points="1145.1,-255.21 1155.29,-252.31 1145.51,-248.22 1145.1,-255.21"/>
</a>
</g>
</g>
<!-- Node8&#45;&gt;Node7 -->
<g id="edge8_Node000008_Node000007" class="edge">
<title>Node8&#45;&gt;Node7</title>
<g id="a_edge8_Node000008_Node000007"><a xlink:title=" ">
<path fill="none" stroke="#63b8ff" d="M1104.68,-264.06C1122.13,-264.49 1140.32,-264.42 1155.29,-263.79"/>
<polygon fill="#63b8ff" stroke="#63b8ff" points="1104.62,-260.56 1094.52,-263.76 1104.4,-267.56 1104.62,-260.56"/>
</a>
</g>
</g>
<!-- Node8&#45;&gt;Node9 -->
<g id="edge9_Node000008_Node000009" class="edge">
<title>Node8&#45;&gt;Node9</title>
<g id="a_edge9_Node000008_Node000009"><a xlink:title=" ">
<path fill="none" stroke="#63b8ff" d="M973.94,-256.5C961.63,-256.5 949.06,-256.5 937.75,-256.5"/>
<polygon fill="#63b8ff" stroke="#63b8ff" points="974.2,-260 984.2,-256.5 974.2,-253 974.2,-260"/>
</a>
</g>
</g>
<!-- Node10 -->
<g id="Node000010" class="node">
<title>Node10</title>
<g id="a_Node000010"><a xlink:href="parser__commands_8c.html#ad98fbb958a265134e775b69579e28835" target="_top" xlink:title="Handle a shell command block by calling corresponding parser at each step.">
<polygon fill="white" stroke="#666666" points="815,-347 685,-347 685,-328 815,-328 815,-347"/>
<text text-anchor="middle" x="750" y="-335" font-family="Helvetica,sans-Serif" font-size="10.00">parser_shell_command</text>
</a>
</g>
</g>
<!-- Node9&#45;&gt;Node10 -->
<g id="edge10_Node000009_Node000010" class="edge">
<title>Node9&#45;&gt;Node10</title>
<g id="a_edge10_Node000009_Node000010"><a xlink:title=" ">
<path fill="none" stroke="#63b8ff" d="M866.85,-270.98C861.56,-273.77 856.1,-276.69 851,-279.5 821.12,-295.97 786.82,-316.14 767.16,-327.84"/>
<polygon fill="#63b8ff" stroke="#63b8ff" points="868.82,-273.9 876.06,-266.17 865.58,-267.7 868.82,-273.9"/>
</a>
</g>
</g>
<!-- Node10&#45;&gt;Node3 -->
<g id="edge11_Node000010_Node000003" class="edge">
<title>Node10&#45;&gt;Node3</title>
<g id="a_edge11_Node000010_Node000003"><a xlink:title=" ">
<path fill="none" stroke="#63b8ff" d="M779.77,-351.3C830.69,-374.43 940.58,-418.5 1038.5,-418.5 1481,-418.5 1481,-418.5 1481,-418.5 1552.42,-418.5 1635.06,-418.5 1686.56,-418.5"/>
<polygon fill="#63b8ff" stroke="#63b8ff" points="781.22,-348.12 770.68,-347.11 778.29,-354.48 781.22,-348.12"/>
</a>
</g>
</g>
<!-- Node11 -->
<g id="Node000011" class="node">
<title>Node11</title>
<g id="a_Node000011"><a xlink:href="parser__commands_8c.html#a14408e6904da17fc6899bba03f7a5f5a" target="_top" xlink:title="Handle a function definition and add it to the dictionnary.">
<polygon fill="white" stroke="#666666" points="649,-406 565,-406 565,-387 649,-387 649,-406"/>
<text text-anchor="middle" x="607" y="-394" font-family="Helvetica,sans-Serif" font-size="10.00">parser_fundef</text>
</a>
</g>
</g>
<!-- Node10&#45;&gt;Node11 -->
<g id="edge12_Node000010_Node000011" class="edge">
<title>Node10&#45;&gt;Node11</title>
<g id="a_edge12_Node000010_Node000011"><a xlink:title=" ">
<path fill="none" stroke="#63b8ff" d="M716.54,-351.08C690.36,-362.04 654.2,-377.17 630.96,-386.89"/>
<polygon fill="#63b8ff" stroke="#63b8ff" points="718.16,-354.2 726.03,-347.11 715.46,-347.74 718.16,-354.2"/>
</a>
</g>
</g>
<!-- Node11&#45;&gt;Node3 -->
<g id="edge13_Node000011_Node000003" class="edge">
<title>Node11&#45;&gt;Node3</title>
<g id="a_edge13_Node000011_Node000003"><a xlink:title=" ">
<path fill="none" stroke="#63b8ff" d="M644.72,-409.25C698.82,-426.87 803.42,-456.5 895,-456.5 1481,-456.5 1481,-456.5 1481,-456.5 1558.13,-456.5 1646.96,-439.35 1696.94,-428.09"/>
<polygon fill="#63b8ff" stroke="#63b8ff" points="645.5,-405.82 634.91,-406.01 643.31,-412.47 645.5,-405.82"/>
</a>
</g>
</g>
<!-- Node12&#45;&gt;Node10 -->
<g id="edge16_Node000012_Node000010" class="edge">
<title>Node12&#45;&gt;Node10</title>
<g id="a_edge16_Node000012_Node000010"><a xlink:title=" ">
<path fill="none" stroke="#63b8ff" d="M966.8,-337.5C920.23,-337.5 860.04,-337.5 815.06,-337.5"/>
<polygon fill="#63b8ff" stroke="#63b8ff" points="966.82,-341 976.82,-337.5 966.82,-334 966.82,-341"/>
</a>
</g>
</g>
<!-- Node13&#45;&gt;Node10 -->
<g id="edge18_Node000013_Node000010" class="edge">
<title>Node13&#45;&gt;Node10</title>
<g id="a_edge18_Node000013_Node000010"><a xlink:title=" ">
<path fill="none" stroke="#63b8ff" d="M850.8,-309.78C829.7,-315.64 804.84,-322.54 785.21,-328"/>
<polygon fill="#63b8ff" stroke="#63b8ff" points="851.81,-313.13 860.51,-307.08 849.94,-306.39 851.81,-313.13"/>
</a>
</g>
</g>
<!-- Node14&#45;&gt;Node10 -->
<g id="edge21_Node000014_Node000010" class="edge">
<title>Node14&#45;&gt;Node10</title>
<g id="a_edge21_Node000014_Node000010"><a xlink:title=" ">
<path fill="none" stroke="#63b8ff" d="M1002.26,-157.7C993.87,-161.02 985.05,-164.71 977,-168.5 919.03,-195.76 902.24,-200.05 851,-238.5 813.09,-266.95 775.21,-309.13 759.08,-327.9"/>
<polygon fill="#63b8ff" stroke="#63b8ff" points="1003.76,-160.87 1011.83,-154.01 1001.24,-154.34 1003.76,-160.87"/>
</a>
</g>
</g>
<!-- Node15&#45;&gt;Node10 -->
<g id="edge23_Node000015_Node000010" class="edge">
<title>Node15&#45;&gt;Node10</title>
<g id="a_edge23_Node000015_Node000010"><a xlink:title=" ">
<path fill="none" stroke="#63b8ff" d="M1127.75,-374C1060.09,-369.84 947.54,-362.08 851,-351.5 839.32,-350.22 826.91,-348.65 814.94,-347.03"/>
<polygon fill="#63b8ff" stroke="#63b8ff" points="1127.61,-377.5 1137.8,-374.62 1128.03,-370.51 1127.61,-377.5"/>
</a>
</g>
</g>
<!-- Node17 -->
<g id="Node000017" class="node">
<title>Node17</title>
<g id="a_Node000017"><a xlink:href="parser_8c.html#a620dffcc9a167cdee6e67de1191e5277" target="_top" xlink:title="Parse the input of our shell into list.">
<polygon fill="white" stroke="#666666" points="1213,-116 1166,-116 1166,-97 1213,-97 1213,-116"/>
<text text-anchor="middle" x="1189.5" y="-104" font-family="Helvetica,sans-Serif" font-size="10.00">parser</text>
</a>
</g>
</g>
<!-- Node16&#45;&gt;Node17 -->
<g id="edge25_Node000016_Node000017" class="edge">
<title>Node16&#45;&gt;Node17</title>
<g id="a_edge25_Node000016_Node000017"><a xlink:title=" ">
<path fill="none" stroke="#63b8ff" d="M1304.3,-151.25C1276.49,-140.31 1237.78,-125.09 1213.44,-115.52"/>
<polygon fill="#63b8ff" stroke="#63b8ff" points="1303.06,-154.52 1313.64,-154.92 1305.62,-148.01 1303.06,-154.52"/>
</a>
</g>
</g>
<!-- Node18 -->
<g id="Node000018" class="node">
<title>Node18</title>
<g id="a_Node000018"><a xlink:href="42sh_8c.html#a3c04138a5bfe5d72780bb7e82a18e627" target="_top" xlink:title=" ">
<polygon fill="white" stroke="#666666" points="190,-19 149,-19 149,0 190,0 190,-19"/>
<text text-anchor="middle" x="169.5" y="-7" font-family="Helvetica,sans-Serif" font-size="10.00">main</text>
</a>
</g>
</g>
<!-- Node17&#45;&gt;Node18 -->
<g id="edge26_Node000017_Node000018" class="edge">
<title>Node17&#45;&gt;Node18</title>
<g id="a_edge26_Node000017_Node000018"><a xlink:title=" ">
<path fill="none" stroke="#63b8ff" d="M1158.91,-92.7C1107.05,-69.81 995.85,-26.5 897,-26.5 897,-26.5 897,-26.5 387.5,-26.5 314.57,-26.5 228.27,-16.84 190.21,-12.08"/>
<polygon fill="#63b8ff" stroke="#63b8ff" points="1157.62,-95.95 1168.17,-96.85 1160.48,-89.57 1157.62,-95.95"/>
</a>
</g>
</g>
<!-- Node19 -->
<g id="Node000019" class="node">
<title>Node19</title>
<g id="a_Node000019"><a xlink:href="dot_8c.html#a17477ee2b0f1b8b9306566c990d15b35" target="_top" xlink:title="Main loop of dot builtin.">
<polygon fill="white" stroke="#666666" points="1073.5,-117 1005.5,-117 1005.5,-98 1073.5,-98 1073.5,-117"/>
<text text-anchor="middle" x="1039.5" y="-105" font-family="Helvetica,sans-Serif" font-size="10.00">main_loop</text>
</a>
</g>
</g>
<!-- Node17&#45;&gt;Node19 -->
<g id="edge27_Node000017_Node000019" class="edge">
<title>Node17&#45;&gt;Node19</title>
<g id="a_edge27_Node000017_Node000019"><a xlink:title=" ">
<path fill="none" stroke="#63b8ff" d="M1155.52,-106.72C1131.18,-106.89 1098.18,-107.11 1073.77,-107.28"/>
<polygon fill="#63b8ff" stroke="#63b8ff" points="1155.72,-110.22 1165.7,-106.65 1155.68,-103.22 1155.72,-110.22"/>
</a>
</g>
</g>
<!-- Node20 -->
<g id="Node000020" class="node">
<title>Node20</title>
<g id="a_Node000020"><a xlink:href="dot_8c.html#a713938d3c6ee343132c429642048bcf6" target="_top" xlink:title="Execute the dot builtin cmd.">
<polygon fill="white" stroke="#666666" points="918,-117 874,-117 874,-98 918,-98 918,-117"/>
<text text-anchor="middle" x="896" y="-105" font-family="Helvetica,sans-Serif" font-size="10.00">dot_b</text>
</a>
</g>
</g>
<!-- Node19&#45;&gt;Node20 -->
<g id="edge28_Node000019_Node000020" class="edge">
<title>Node19&#45;&gt;Node20</title>
<g id="a_edge28_Node000019_Node000020"><a xlink:title=" ">
<path fill="none" stroke="#63b8ff" d="M995.12,-107.5C969.56,-107.5 938.37,-107.5 918.11,-107.5"/>
<polygon fill="#63b8ff" stroke="#63b8ff" points="995.32,-111 1005.32,-107.5 995.32,-104 995.32,-111"/>
</a>
</g>
</g>
<!-- Node21 -->
<g id="Node000021" class="node">
<title>Node21</title>
<g id="a_Node000021"><a xlink:href="exec_8c.html#abaeb177587c7eec6a064b35bb8399cae" target="_top" xlink:title="Execute builtin cmd with given args.">
<polygon fill="white" stroke="#666666" points="787.5,-117 712.5,-117 712.5,-98 787.5,-98 787.5,-117"/>
<text text-anchor="middle" x="750" y="-105" font-family="Helvetica,sans-Serif" font-size="10.00">exec_builtin</text>
</a>
</g>
</g>
<!-- Node20&#45;&gt;Node21 -->
<g id="edge29_Node000020_Node000021" class="edge">
<title>Node20&#45;&gt;Node21</title>
<g id="a_edge29_Node000020_Node000021"><a xlink:title=" ">
<path fill="none" stroke="#63b8ff" d="M863.47,-107.5C841.14,-107.5 811.12,-107.5 787.71,-107.5"/>
<polygon fill="#63b8ff" stroke="#63b8ff" points="863.75,-111 873.75,-107.5 863.75,-104 863.75,-111"/>
</a>
</g>
</g>
<!-- Node22 -->
<g id="Node000022" class="node">
<title>Node22</title>
<g id="a_Node000022"><a xlink:href="exec_8c.html#a287d81b4658832f192750310e2925917" target="_top" xlink:title="Execute the builtin command with given args.">
<polygon fill="white" stroke="#666666" points="632,-117 582,-117 582,-98 632,-98 632,-117"/>
<text text-anchor="middle" x="607" y="-105" font-family="Helvetica,sans-Serif" font-size="10.00">exec_b</text>
</a>
</g>
</g>
<!-- Node21&#45;&gt;Node22 -->
<g id="edge30_Node000021_Node000022" class="edge">
<title>Node21&#45;&gt;Node22</title>
<g id="a_edge30_Node000021_Node000022"><a xlink:title=" ">
<path fill="none" stroke="#63b8ff" d="M702.2,-107.5C678.72,-107.5 651.28,-107.5 632.09,-107.5"/>
<polygon fill="#63b8ff" stroke="#63b8ff" points="702.32,-111 712.32,-107.5 702.32,-104 702.32,-111"/>
</a>
</g>
</g>
<!-- Node23 -->
<g id="Node000023" class="node">
<title>Node23</title>
<g id="a_Node000023"><a xlink:href="exec_8c.html#ae65edaa99b26b49d60c451157d38b34a" target="_top" xlink:title="Execute les commandes avec les args donnes.">
<polygon fill="white" stroke="#666666" points="529,-117 464,-117 464,-98 529,-98 529,-117"/>
<text text-anchor="middle" x="496.5" y="-105" font-family="Helvetica,sans-Serif" font-size="10.00">exec_cmd</text>
</a>
</g>
</g>
<!-- Node22&#45;&gt;Node23 -->
<g id="edge31_Node000022_Node000023" class="edge">
<title>Node22&#45;&gt;Node23</title>
<g id="a_edge31_Node000022_Node000023"><a xlink:title=" ">
<path fill="none" stroke="#63b8ff" d="M571.56,-107.5C558.03,-107.5 542.6,-107.5 529.34,-107.5"/>
<polygon fill="#63b8ff" stroke="#63b8ff" points="571.92,-111 581.92,-107.5 571.92,-104 571.92,-111"/>
</a>
</g>
</g>
<!-- Node24 -->
<g id="Node000024" class="node">
<title>Node24</title>
<g id="a_Node000024"><a xlink:href="ast__run_8c.html#aeb6878a59c6907e5669fc3cc428913d9" target="_top" xlink:title=" ">
<polygon fill="white" stroke="#666666" points="428,-124 349,-124 349,-105 428,-105 428,-124"/>
<text text-anchor="middle" x="388.5" y="-112" font-family="Helvetica,sans-Serif" font-size="10.00">ast_run_cmd</text>
</a>
</g>
</g>
<!-- Node23&#45;&gt;Node24 -->
<g id="edge32_Node000023_Node000024" class="edge">
<title>Node23&#45;&gt;Node24</title>
<g id="a_edge32_Node000023_Node000024"><a xlink:title=" ">
<path fill="none" stroke="#63b8ff" d="M453.92,-110.25C445.45,-110.81 436.58,-111.39 428.21,-111.94"/>
<polygon fill="#63b8ff" stroke="#63b8ff" points="454.24,-113.73 463.98,-109.58 453.77,-106.75 454.24,-113.73"/>
</a>
</g>
</g>
<!-- Node25 -->
<g id="Node000025" class="node">
<title>Node25</title>
<g id="a_Node000025"><a xlink:href="ast_8c.html#a572345b2707780bbbc5bbaacdca9c372" target="_top" xlink:title=" ">
<polygon fill="white" stroke="#666666" points="313,-167 260,-167 260,-148 313,-148 313,-167"/>
<text text-anchor="middle" x="286.5" y="-155" font-family="Helvetica,sans-Serif" font-size="10.00">run_ast</text>
</a>
</g>
</g>
<!-- Node24&#45;&gt;Node25 -->
<g id="edge33_Node000024_Node000025" class="edge">
<title>Node24&#45;&gt;Node25</title>
<g id="a_edge33_Node000024_Node000025"><a xlink:title=" ">
<path fill="none" stroke="#63b8ff" d="M355.86,-128.1C340.83,-134.57 323.21,-142.14 309.63,-147.98"/>
<polygon fill="#63b8ff" stroke="#63b8ff" points="357.5,-131.21 365.31,-124.04 354.74,-124.78 357.5,-131.21"/>
</a>
</g>
</g>
<!-- Node25&#45;&gt;Node18 -->
<g id="edge53_Node000025_Node000018" class="edge">
<title>Node25&#45;&gt;Node18</title>
<g id="a_edge53_Node000025_Node000018"><a xlink:title=" ">
<path fill="none" stroke="#63b8ff" d="M281.35,-137.87C274.36,-109.55 257.6,-57.38 224,-27.5 214.63,-19.17 201.25,-14.67 190.22,-12.25"/>
<polygon fill="#63b8ff" stroke="#63b8ff" points="277.98,-138.82 283.63,-147.78 284.8,-137.25 277.98,-138.82"/>
</a>
</g>
</g>
<!-- Node25&#45;&gt;Node19 -->
<g id="edge54_Node000025_Node000019" class="edge">
<title>Node25&#45;&gt;Node19</title>
<g id="a_edge54_Node000025_Node000019"><a xlink:title=" ">
<path fill="none" stroke="#63b8ff" d="M323.25,-156.67C364.69,-155.78 435.03,-154.5 495.5,-154.5 751,-154.5 751,-154.5 751,-154.5 844.06,-154.5 951.87,-130.22 1005.15,-116.56"/>
<polygon fill="#63b8ff" stroke="#63b8ff" points="323.04,-153.17 313.12,-156.89 323.19,-160.17 323.04,-153.17"/>
</a>
</g>
</g>
<!-- Node26 -->
<g id="Node000026" class="node">
<title>Node26</title>
<g id="a_Node000026"><a xlink:href="ast__run_8c.html#a8a01fec616135007fc5b3968a101901b" target="_top" xlink:title=" ">
<polygon fill="white" stroke="#666666" points="215,-167 124,-167 124,-148 215,-148 215,-167"/>
<text text-anchor="middle" x="169.5" y="-155" font-family="Helvetica,sans-Serif" font-size="10.00">ast_run_and_or</text>
</a>
</g>
</g>
<!-- Node25&#45;&gt;Node26 -->
<g id="edge34_Node000025_Node000026" class="edge">
<title>Node25&#45;&gt;Node26</title>
<g id="a_edge34_Node000025_Node000026"><a xlink:title=" ">
<path fill="none" stroke="#63b8ff" d="M249.95,-151.21C239.03,-150.73 226.86,-150.63 215.4,-150.9"/>
<polygon fill="#63b8ff" stroke="#63b8ff" points="249.79,-154.7 259.98,-151.78 250.19,-147.72 249.79,-154.7"/>
</a>
</g>
</g>
<!-- Node27 -->
<g id="Node000027" class="node">
<title>Node27</title>
<g id="a_Node000027"><a xlink:href="ast__run_8c.html#a9d83d4834a61ffe21eb77838d70ae173" target="_top" xlink:title=" ">
<polygon fill="white" stroke="#666666" points="205,-130 134,-130 134,-111 205,-111 205,-130"/>
<text text-anchor="middle" x="169.5" y="-118" font-family="Helvetica,sans-Serif" font-size="10.00">ast_run_for</text>
</a>
</g>
</g>
<!-- Node25&#45;&gt;Node27 -->
<g id="edge36_Node000025_Node000027" class="edge">
<title>Node25&#45;&gt;Node27</title>
<g id="a_edge36_Node000025_Node000027"><a xlink:title=" ">
<path fill="none" stroke="#63b8ff" d="M261.14,-144.03C244.93,-137.58 223.39,-130.44 205.37,-125.46"/>
<polygon fill="#63b8ff" stroke="#63b8ff" points="259.89,-147.3 270.47,-147.93 262.59,-140.84 259.89,-147.3"/>
</a>
</g>
</g>
<!-- Node28 -->
<g id="Node000028" class="node">
<title>Node28</title>
<g id="a_Node000028"><a xlink:href="ast__run_8c.html#a0a7138b1f2608ea36211c9b78988c248" target="_top" xlink:title=" ">
<polygon fill="white" stroke="#666666" points="202,-93 137,-93 137,-74 202,-74 202,-93"/>
<text text-anchor="middle" x="169.5" y="-81" font-family="Helvetica,sans-Serif" font-size="10.00">ast_run_if</text>
</a>
</g>
</g>
<!-- Node25&#45;&gt;Node28 -->
<g id="edge38_Node000025_Node000028" class="edge">
<title>Node25&#45;&gt;Node28</title>
<g id="a_edge38_Node000025_Node000028"><a xlink:title=" ">
<path fill="none" stroke="#63b8ff" d="M275.2,-139.3C263.75,-124.68 244.2,-105.48 224,-93.5 217.3,-89.53 209.64,-86.2 202.26,-83.76"/>
<polygon fill="#63b8ff" stroke="#63b8ff" points="272.55,-141.61 281.22,-147.7 278.24,-137.53 272.55,-141.61"/>
</a>
</g>
</g>
<!-- Node29 -->
<g id="Node000029" class="node">
<title>Node29</title>
<g id="a_Node000029"><a xlink:href="ast__run_8c.html#ae25cd3ced8abafd76110dba8852a6b87" target="_top" xlink:title=" ">
<polygon fill="white" stroke="#666666" points="206,-372 133,-372 133,-353 206,-353 206,-372"/>
<text text-anchor="middle" x="169.5" y="-360" font-family="Helvetica,sans-Serif" font-size="10.00">ast_run_list</text>
</a>
</g>
</g>
<!-- Node25&#45;&gt;Node29 -->
<g id="edge40_Node000025_Node000029" class="edge">
<title>Node25&#45;&gt;Node29</title>
<g id="a_edge40_Node000025_Node000029"><a xlink:title=" ">
<path fill="none" stroke="#63b8ff" d="M284.11,-177.8C280.59,-214.49 268.12,-291.08 224,-335.5 214.61,-344.96 200.1,-349.45 188.55,-352.93"/>
<polygon fill="#63b8ff" stroke="#63b8ff" points="287.64,-177.64 284.97,-167.38 280.66,-177.06 287.64,-177.64"/>
</a>
</g>
</g>
<!-- Node30 -->
<g id="Node000030" class="node">
<title>Node30</title>
<g id="a_Node000030"><a xlink:href="ast__run_8c.html#a536f37ba9bffcd2099fef668656181e0" target="_top" xlink:title=" ">
<polygon fill="white" stroke="#666666" points="209,-335 130,-335 130,-316 209,-316 209,-335"/>
<text text-anchor="middle" x="169.5" y="-323" font-family="Helvetica,sans-Serif" font-size="10.00">ast_run_loop</text>
</a>
</g>
</g>
<!-- Node25&#45;&gt;Node30 -->
<g id="edge43_Node000025_Node000030" class="edge">
<title>Node25&#45;&gt;Node30</title>
<g id="a_edge43_Node000025_Node000030"><a xlink:title=" ">
<path fill="none" stroke="#63b8ff" d="M281.67,-177.03C275.4,-207.38 259.84,-264.9 224,-298.5 214.13,-307.75 199.36,-312.26 187.83,-315.86"/>
<polygon fill="#63b8ff" stroke="#63b8ff" points="285.11,-177.66 283.58,-167.18 278.24,-176.33 285.11,-177.66"/>
</a>
</g>
</g>
<!-- Node31 -->
<g id="Node000031" class="node">
<title>Node31</title>
<g id="a_Node000031"><a xlink:href="ast__run_8c.html#aa3e6a973e744d748ee415840596beb53" target="_top" xlink:title=" ">
<polygon fill="white" stroke="#666666" points="224,-298 115,-298 115,-279 224,-279 224,-298"/>
<text text-anchor="middle" x="169.5" y="-286" font-family="Helvetica,sans-Serif" font-size="10.00">ast_run_shell_redir</text>
</a>
</g>
</g>
<!-- Node25&#45;&gt;Node31 -->
<g id="edge45_Node000025_Node000031" class="edge">
<title>Node25&#45;&gt;Node31</title>
<g id="a_edge45_Node000025_Node000031"><a xlink:title=" ">
<path fill="none" stroke="#63b8ff" d="M277.66,-176.57C268.64,-199.92 251.44,-238.46 224,-261.5 213.19,-270.57 197.62,-275.14 186.05,-278.99"/>
<polygon fill="#63b8ff" stroke="#63b8ff" points="281.01,-177.61 281.23,-167.02 274.45,-175.16 281.01,-177.61"/>
</a>
</g>
</g>
<!-- Node32 -->
<g id="Node000032" class="node">
<title>Node32</title>
<g id="a_Node000032"><a xlink:href="exec_8c.html#a23babf893bbcd2f6126698a1a19b169f" target="_top" xlink:title="Execute funct with given arguments.">
<polygon fill="white" stroke="#666666" points="202,-56 137,-56 137,-37 202,-37 202,-56"/>
<text text-anchor="middle" x="169.5" y="-44" font-family="Helvetica,sans-Serif" font-size="10.00">exec_func</text>
</a>
</g>
</g>
<!-- Node25&#45;&gt;Node32 -->
<g id="edge47_Node000025_Node000032" class="edge">
<title>Node25&#45;&gt;Node32</title>
<g id="a_edge47_Node000025_Node000032"><a xlink:title=" ">
<path fill="none" stroke="#63b8ff" d="M277.61,-138.63C267.93,-117.66 249.58,-84.17 224,-64.5 217.63,-59.6 209.85,-55.99 202.22,-53.35"/>
<polygon fill="#63b8ff" stroke="#63b8ff" points="274.42,-140.07 281.66,-147.81 280.82,-137.24 274.42,-140.07"/>
</a>
</g>
</g>
<!-- Node33 -->
<g id="Node000033" class="node">
<title>Node33</title>
<g id="a_Node000033"><a xlink:href="exec_8c.html#ab743cb88e12e9b922050925fd2075e36" target="_top" xlink:title="Execute a pipeline of commands.">
<polygon fill="white" stroke="#666666" points="202,-243 137,-243 137,-224 202,-224 202,-243"/>
<text text-anchor="middle" x="169.5" y="-231" font-family="Helvetica,sans-Serif" font-size="10.00">exec_pipe</text>
</a>
</g>
</g>
<!-- Node25&#45;&gt;Node33 -->
<g id="edge49_Node000025_Node000033" class="edge">
<title>Node25&#45;&gt;Node33</title>
<g id="a_edge49_Node000025_Node000033"><a xlink:title=" ">
<path fill="none" stroke="#63b8ff" d="M268.37,-174.27C256.56,-185.22 240.15,-199.33 224,-209.5 215.21,-215.03 204.93,-219.96 195.75,-223.9"/>
<polygon fill="#63b8ff" stroke="#63b8ff" points="270.89,-176.69 275.74,-167.27 266.08,-171.62 270.89,-176.69"/>
</a>
</g>
</g>
<!-- Node26&#45;&gt;Node25 -->
<g id="edge35_Node000026_Node000025" class="edge">
<title>Node26&#45;&gt;Node25</title>
<g id="a_edge35_Node000026_Node000025"><a xlink:title=" ">
<path fill="none" stroke="#63b8ff" d="M225.45,-164.24C237.52,-164.3 249.74,-163.96 259.98,-163.22"/>
<polygon fill="#63b8ff" stroke="#63b8ff" points="225.45,-160.74 215.4,-164.1 225.35,-167.74 225.45,-160.74"/>
</a>
</g>
</g>
<!-- Node27&#45;&gt;Node25 -->
<g id="edge37_Node000027_Node000025" class="edge">
<title>Node27&#45;&gt;Node25</title>
<g id="a_edge37_Node000027_Node000025"><a xlink:title=" ">
<path fill="none" stroke="#63b8ff" d="M194.64,-133.89C213.79,-141.52 240.48,-150.14 259.98,-155.01"/>
<polygon fill="#63b8ff" stroke="#63b8ff" points="195.97,-130.65 185.4,-130.01 193.27,-137.1 195.97,-130.65"/>
</a>
</g>
</g>
<!-- Node28&#45;&gt;Node25 -->
<g id="edge39_Node000028_Node000025" class="edge">
<title>Node28&#45;&gt;Node25</title>
<g id="a_edge39_Node000028_Node000025"><a xlink:title=" ">
<path fill="none" stroke="#63b8ff" d="M191.53,-97.01C201.75,-101.03 213.95,-105.54 224,-111.5 241.25,-121.73 258.02,-137.22 269.69,-147.69"/>
<polygon fill="#63b8ff" stroke="#63b8ff" points="192.71,-93.71 182.13,-93.11 190.03,-100.17 192.71,-93.71"/>
</a>
</g>
</g>
<!-- Node29&#45;&gt;Node25 -->
<g id="edge42_Node000029_Node000025" class="edge">
<title>Node29&#45;&gt;Node25</title>
<g id="a_edge42_Node000029_Node000025"><a xlink:title=" ">
<path fill="none" stroke="#63b8ff" d="M215.46,-360.08C218.57,-358.23 221.47,-356.05 224,-353.5 277.22,-299.91 284.39,-199.48 285.35,-167.24"/>
<polygon fill="#63b8ff" stroke="#63b8ff" points="213.8,-356.99 206.26,-364.43 216.79,-363.32 213.8,-356.99"/>
</a>
</g>
</g>
<!-- Node29&#45;&gt;Node29 -->
<g id="edge41_Node000029_Node000029" class="edge">
<title>Node29&#45;&gt;Node29</title>
<g id="a_edge41_Node000029_Node000029"><a xlink:title=" ">
<path fill="none" stroke="#63b8ff" d="M190.98,-381.55C189.55,-386.38 182.39,-390 169.5,-390 148.88,-390 142.92,-380.73 151.62,-372.08"/>
<polygon fill="#63b8ff" stroke="#63b8ff" points="194.2,-380.19 187.38,-372.08 187.66,-382.67 194.2,-380.19"/>
</a>
</g>
</g>
<!-- Node30&#45;&gt;Node25 -->
<g id="edge44_Node000030_Node000025" class="edge">
<title>Node30&#45;&gt;Node25</title>
<g id="a_edge44_Node000030_Node000025"><a xlink:title=" ">
<path fill="none" stroke="#63b8ff" d="M217.89,-321.27C220.07,-319.85 222.12,-318.26 224,-316.5 268.76,-274.54 281.89,-195.27 284.8,-167.1"/>
<polygon fill="#63b8ff" stroke="#63b8ff" points="216.22,-318.19 209.02,-325.96 219.49,-324.38 216.22,-318.19"/>
</a>
</g>
</g>
<!-- Node31&#45;&gt;Node25 -->
<g id="edge46_Node000031_Node000025" class="edge">
<title>Node31&#45;&gt;Node25</title>
<g id="a_edge46_Node000031_Node000025"><a xlink:title=" ">
<path fill="none" stroke="#63b8ff" d="M231.79,-272.29C263.08,-240.53 279.2,-189.24 283.96,-167.22"/>
<polygon fill="#63b8ff" stroke="#63b8ff" points="229.36,-269.77 224.43,-279.14 234.13,-274.89 229.36,-269.77"/>
</a>
</g>
</g>
<!-- Node32&#45;&gt;Node23 -->
<g id="edge48_Node000032_Node000023" class="edge">
<title>Node32&#45;&gt;Node23</title>
<g id="a_edge48_Node000032_Node000023"><a xlink:title=" ">
<path fill="none" stroke="#63b8ff" d="M212.42,-54.37C278.34,-66.74 404.77,-90.47 463.75,-101.54"/>
<polygon fill="#63b8ff" stroke="#63b8ff" points="212.86,-50.89 202.38,-52.48 211.57,-57.77 212.86,-50.89"/>
</a>
</g>
</g>
<!-- Node33&#45;&gt;Node33 -->
<g id="edge52_Node000033_Node000033" class="edge">
<title>Node33&#45;&gt;Node33</title>
<g id="a_edge52_Node000033_Node000033"><a xlink:title=" ">
<path fill="none" stroke="#63b8ff" d="M190.98,-252.55C189.55,-257.38 182.39,-261 169.5,-261 148.88,-261 142.92,-251.73 151.62,-243.08"/>
<polygon fill="#63b8ff" stroke="#63b8ff" points="194.2,-251.19 187.38,-243.08 187.66,-253.67 194.2,-251.19"/>
</a>
</g>
</g>
<!-- Node34 -->
<g id="Node000034" class="node">
<title>Node34</title>
<g id="a_Node000034"><a xlink:href="ast__run_8c.html#a24d0223822f7b635628199085c3283be" target="_top" xlink:title=" ">
<polygon fill="white" stroke="#666666" points="79,-224 0,-224 0,-205 79,-205 79,-224"/>
<text text-anchor="middle" x="39.5" y="-212" font-family="Helvetica,sans-Serif" font-size="10.00">ast_run_pipe</text>
</a>
</g>
</g>
<!-- Node33&#45;&gt;Node34 -->
<g id="edge50_Node000033_Node000034" class="edge">
<title>Node33&#45;&gt;Node34</title>
<g id="a_edge50_Node000033_Node000034"><a xlink:title=" ">
<path fill="none" stroke="#63b8ff" d="M126.62,-227.28C111.32,-225.01 94.09,-222.45 79.08,-220.23"/>
<polygon fill="#63b8ff" stroke="#63b8ff" points="126.45,-230.8 136.86,-228.8 127.48,-223.87 126.45,-230.8"/>
</a>
</g>
</g>
<!-- Node34&#45;&gt;Node25 -->
<g id="edge51_Node000034_Node000025" class="edge">
<title>Node34&#45;&gt;Node25</title>
<g id="a_edge51_Node000034_Node000025"><a xlink:title=" ">
<path fill="none" stroke="#63b8ff" d="M89.11,-205.74C126.27,-198.74 178.64,-188.17 224,-176.5 235.9,-173.44 248.93,-169.5 259.92,-166"/>
<polygon fill="#63b8ff" stroke="#63b8ff" points="88.24,-202.35 79.05,-207.62 89.53,-209.23 88.24,-202.35"/>
</a>
</g>
</g>
</g>
</svg>
