<?xml version="1.0" encoding="UTF-8" standalone="no"?>
<!DOCTYPE svg PUBLIC "-//W3C//DTD SVG 1.1//EN"
 "http://www.w3.org/Graphics/SVG/1.1/DTD/svg11.dtd">
<!-- Generated by graphviz version 2.43.0 (0)
 -->
<!-- Title: src/utils/prettyprint.c Pages: 1 -->
<svg width="275pt" height="302pt"
 viewBox="0.00 0.00 274.91 302.00" xmlns="http://www.w3.org/2000/svg" xmlns:xlink="http://www.w3.org/1999/xlink">
<g id="graph0" class="graph" transform="scale(1 1) rotate(0) translate(4 298)">
<title>src/utils/prettyprint.c</title>
<!-- Node1 -->
<g id="Node000001" class="node">
<title>Node1</title>
<g id="a_Node000001"><a xlink:title=" ">
<polygon fill="#999999" stroke="#666666" points="118,-294 0,-294 0,-275 118,-275 118,-294"/>
<text text-anchor="middle" x="59" y="-282" font-family="Helvetica,sans-Serif" font-size="10.00">src/utils/prettyprint.c</text>
</a>
</g>
</g>
<!-- Node2 -->
<g id="Node000002" class="node">
<title>Node2</title>
<g id="a_Node000002"><a xlink:href="prettyprint_8h.html" target="_top" xlink:title=" ">
<polygon fill="white" stroke="#666666" points="97.5,-239 20.5,-239 20.5,-220 97.5,-220 97.5,-239"/>
<text text-anchor="middle" x="59" y="-227" font-family="Helvetica,sans-Serif" font-size="10.00">prettyprint.h</text>
</a>
</g>
</g>
<!-- Node1&#45;&gt;Node2 -->
<g id="edge1_Node000001_Node000002" class="edge">
<title>Node1&#45;&gt;Node2</title>
<g id="a_edge1_Node000001_Node000002"><a xlink:title=" ">
<path fill="none" stroke="#63b8ff" d="M59,-274.75C59,-267.8 59,-257.85 59,-249.13"/>
<polygon fill="#63b8ff" stroke="#63b8ff" points="62.5,-249.09 59,-239.09 55.5,-249.09 62.5,-249.09"/>
</a>
</g>
</g>
<!-- Node3 -->
<g id="Node000003" class="node">
<title>Node3</title>
<g id="a_Node000003"><a xlink:title=" ">
<polygon fill="#e0e0e0" stroke="#999999" points="141,-19 91,-19 91,0 141,0 141,-19"/>
<text text-anchor="middle" x="116" y="-7" font-family="Helvetica,sans-Serif" font-size="10.00">stdio.h</text>
</a>
</g>
</g>
<!-- Node2&#45;&gt;Node3 -->
<g id="edge2_Node000002_Node000003" class="edge">
<title>Node2&#45;&gt;Node3</title>
<g id="a_edge2_Node000002_Node000003"><a xlink:title=" ">
<path fill="none" stroke="#63b8ff" d="M55.31,-219.89C47.4,-200.38 30.07,-151.27 37,-110 41.28,-84.49 40.71,-75.86 56,-55 65.17,-42.5 78.85,-31.97 90.84,-24.3"/>
<polygon fill="#63b8ff" stroke="#63b8ff" points="92.84,-27.18 99.57,-19 89.21,-21.19 92.84,-27.18"/>
</a>
</g>
</g>
<!-- Node4 -->
<g id="Node000004" class="node">
<title>Node4</title>
<g id="a_Node000004"><a xlink:href="ast_8h.html" target="_top" xlink:title=" ">
<polygon fill="white" stroke="#666666" points="191,-184 123,-184 123,-165 191,-165 191,-184"/>
<text text-anchor="middle" x="157" y="-172" font-family="Helvetica,sans-Serif" font-size="10.00">../ast/ast.h</text>
</a>
</g>
</g>
<!-- Node2&#45;&gt;Node4 -->
<g id="edge3_Node000002_Node000004" class="edge">
<title>Node2&#45;&gt;Node4</title>
<g id="a_edge3_Node000002_Node000004"><a xlink:title=" ">
<path fill="none" stroke="#63b8ff" d="M74.75,-219.98C90.23,-211.61 114.09,-198.7 132.14,-188.95"/>
<polygon fill="#63b8ff" stroke="#63b8ff" points="133.84,-192.01 140.97,-184.17 130.51,-185.85 133.84,-192.01"/>
</a>
</g>
</g>
<!-- Node5 -->
<g id="Node000005" class="node">
<title>Node5</title>
<g id="a_Node000005"><a xlink:href="expand_8h.html" target="_top" xlink:title=" ">
<polygon fill="white" stroke="#666666" points="156,-129 46,-129 46,-110 156,-110 156,-129"/>
<text text-anchor="middle" x="101" y="-117" font-family="Helvetica,sans-Serif" font-size="10.00">../expand/expand.h</text>
</a>
</g>
</g>
<!-- Node4&#45;&gt;Node5 -->
<g id="edge4_Node000004_Node000005" class="edge">
<title>Node4&#45;&gt;Node5</title>
<g id="a_edge4_Node000004_Node000005"><a xlink:title=" ">
<path fill="none" stroke="#63b8ff" d="M148,-164.98C139.81,-157.23 127.49,-145.58 117.53,-136.14"/>
<polygon fill="#63b8ff" stroke="#63b8ff" points="119.83,-133.5 110.16,-129.17 115.02,-138.59 119.83,-133.5"/>
</a>
</g>
</g>
<!-- Node7 -->
<g id="Node000007" class="node">
<title>Node7</title>
<g id="a_Node000007"><a xlink:href="redir_8h.html" target="_top" xlink:title=" ">
<polygon fill="white" stroke="#666666" points="254,-129 174,-129 174,-110 254,-110 254,-129"/>
<text text-anchor="middle" x="214" y="-117" font-family="Helvetica,sans-Serif" font-size="10.00">../utils/redir.h</text>
</a>
</g>
</g>
<!-- Node4&#45;&gt;Node7 -->
<g id="edge6_Node000004_Node000007" class="edge">
<title>Node4&#45;&gt;Node7</title>
<g id="a_edge6_Node000004_Node000007"><a xlink:title=" ">
<path fill="none" stroke="#63b8ff" d="M166.16,-164.98C174.5,-157.23 187.03,-145.58 197.18,-136.14"/>
<polygon fill="#63b8ff" stroke="#63b8ff" points="199.74,-138.54 204.68,-129.17 194.97,-133.42 199.74,-138.54"/>
</a>
</g>
</g>
<!-- Node8 -->
<g id="Node000008" class="node">
<title>Node8</title>
<g id="a_Node000008"><a xlink:href="token_8h.html" target="_top" xlink:title=" ">
<polygon fill="white" stroke="#666666" points="240.5,-74 187.5,-74 187.5,-55 240.5,-55 240.5,-74"/>
<text text-anchor="middle" x="214" y="-62" font-family="Helvetica,sans-Serif" font-size="10.00">token.h</text>
</a>
</g>
</g>
<!-- Node4&#45;&gt;Node8 -->
<g id="edge9_Node000004_Node000008" class="edge">
<title>Node4&#45;&gt;Node8</title>
<g id="a_edge9_Node000004_Node000008"><a xlink:title=" ">
<path fill="none" stroke="#63b8ff" d="M191.23,-169.09C215.76,-163.95 247.14,-152.85 263,-129 274.73,-111.36 255.22,-92.26 237.45,-79.67"/>
<polygon fill="#63b8ff" stroke="#63b8ff" points="239.28,-76.68 229.02,-74.05 235.4,-82.5 239.28,-76.68"/>
</a>
</g>
</g>
<!-- Node6 -->
<g id="Node000006" class="node">
<title>Node6</title>
<g id="a_Node000006"><a xlink:href="hashmap_8h.html" target="_top" xlink:title=" ">
<polygon fill="white" stroke="#666666" points="136.5,-74 65.5,-74 65.5,-55 136.5,-55 136.5,-74"/>
<text text-anchor="middle" x="101" y="-62" font-family="Helvetica,sans-Serif" font-size="10.00">hashmap.h</text>
</a>
</g>
</g>
<!-- Node5&#45;&gt;Node6 -->
<g id="edge5_Node000005_Node000006" class="edge">
<title>Node5&#45;&gt;Node6</title>
<g id="a_edge5_Node000005_Node000006"><a xlink:title=" ">
<path fill="none" stroke="#63b8ff" d="M101,-109.75C101,-102.8 101,-92.85 101,-84.13"/>
<polygon fill="#63b8ff" stroke="#63b8ff" points="104.5,-84.09 101,-74.09 97.5,-84.09 104.5,-84.09"/>
</a>
</g>
</g>
<!-- Node7&#45;&gt;Node8 -->
<g id="edge7_Node000007_Node000008" class="edge">
<title>Node7&#45;&gt;Node8</title>
<g id="a_edge7_Node000007_Node000008"><a xlink:title=" ">
<path fill="none" stroke="#63b8ff" d="M214,-109.75C214,-102.8 214,-92.85 214,-84.13"/>
<polygon fill="#63b8ff" stroke="#63b8ff" points="217.5,-84.09 214,-74.09 210.5,-84.09 217.5,-84.09"/>
</a>
</g>
</g>
<!-- Node8&#45;&gt;Node3 -->
<g id="edge8_Node000008_Node000003" class="edge">
<title>Node8&#45;&gt;Node3</title>
<g id="a_edge8_Node000008_Node000003"><a xlink:title=" ">
<path fill="none" stroke="#63b8ff" d="M198.25,-54.98C182.77,-46.61 158.91,-33.7 140.86,-23.95"/>
<polygon fill="#63b8ff" stroke="#63b8ff" points="142.49,-20.85 132.03,-19.17 139.16,-27.01 142.49,-20.85"/>
</a>
</g>
</g>
</g>
</svg>
