<?xml version="1.0" encoding="UTF-8" standalone="no"?>
<!DOCTYPE svg PUBLIC "-//W3C//DTD SVG 1.1//EN"
 "http://www.w3.org/Graphics/SVG/1.1/DTD/svg11.dtd">
<!-- Generated by graphviz version 2.43.0 (0)
 -->
<!-- Title: ast_print_cmd Pages: 1 -->
<svg width="311pt" height="156pt"
 viewBox="0.00 0.00 311.00 156.00" xmlns="http://www.w3.org/2000/svg" xmlns:xlink="http://www.w3.org/1999/xlink">
<g id="graph0" class="graph" transform="scale(1 1) rotate(0) translate(4 152)">
<title>ast_print_cmd</title>
<!-- Node1 -->
<g id="Node000001" class="node">
<title>Node1</title>
<g id="a_Node000001"><a xlink:title="Print AST cmd.">
<polygon fill="#999999" stroke="#666666" points="303,-93 217,-93 217,-74 303,-74 303,-93"/>
<text text-anchor="middle" x="260" y="-81" font-family="Helvetica,sans-Serif" font-size="10.00">ast_print_cmd</text>
</a>
</g>
</g>
<!-- Node2 -->
<g id="Node000002" class="node">
<title>Node2</title>
<g id="a_Node000002"><a xlink:href="prettyprint_8c.html#a02a9ac599f3c70d8afa9fab30e8b77d2" target="_top" xlink:title="main func to print">
<polygon fill="white" stroke="#666666" points="181,-93 122,-93 122,-74 181,-74 181,-93"/>
<text text-anchor="middle" x="151.5" y="-81" font-family="Helvetica,sans-Serif" font-size="10.00">print_ast</text>
</a>
</g>
</g>
<!-- Node1&#45;&gt;Node2 -->
<g id="edge1_Node000001_Node000002" class="edge">
<title>Node1&#45;&gt;Node2</title>
<g id="a_edge1_Node000001_Node000002"><a xlink:title=" ">
<path fill="none" stroke="#63b8ff" d="M206.67,-83.5C197.89,-83.5 189.08,-83.5 181.18,-83.5"/>
<polygon fill="#63b8ff" stroke="#63b8ff" points="206.91,-87 216.91,-83.5 206.91,-80 206.91,-87"/>
</a>
</g>
</g>
<!-- Node3 -->
<g id="Node000003" class="node">
<title>Node3</title>
<g id="a_Node000003"><a xlink:href="prettyprint_8c.html#a305627a97ec5954d1b4534381448b7fb" target="_top" xlink:title="print ast if">
<polygon fill="white" stroke="#666666" points="78.5,-148 7.5,-148 7.5,-129 78.5,-129 78.5,-148"/>
<text text-anchor="middle" x="43" y="-136" font-family="Helvetica,sans-Serif" font-size="10.00">ast_print_if</text>
</a>
</g>
</g>
<!-- Node2&#45;&gt;Node3 -->
<g id="edge2_Node000002_Node000003" class="edge">
<title>Node2&#45;&gt;Node3</title>
<g id="a_edge2_Node000002_Node000003"><a xlink:title=" ">
<path fill="none" stroke="#63b8ff" d="M113.11,-97.17C104.32,-101.92 94.92,-107.05 86,-111.5 74.36,-117.31 60.4,-123.06 51.86,-128.81"/>
<polygon fill="#63b8ff" stroke="#63b8ff" points="114.83,-100.22 121.99,-92.41 111.52,-94.05 114.83,-100.22"/>
</a>
</g>
</g>
<!-- Node4 -->
<g id="Node000004" class="node">
<title>Node4</title>
<g id="a_Node000004"><a xlink:href="prettyprint_8c.html#a0a8e333f8361d58b83fafdc8a2666022" target="_top" xlink:title="Print aST list.">
<polygon fill="white" stroke="#666666" points="83,-93 3,-93 3,-74 83,-74 83,-93"/>
<text text-anchor="middle" x="43" y="-81" font-family="Helvetica,sans-Serif" font-size="10.00">ast_print_list</text>
</a>
</g>
</g>
<!-- Node2&#45;&gt;Node4 -->
<g id="edge4_Node000002_Node000004" class="edge">
<title>Node2&#45;&gt;Node4</title>
<g id="a_edge4_Node000002_Node000004"><a xlink:title=" ">
<path fill="none" stroke="#63b8ff" d="M111.74,-76.98C102.39,-76.68 92.39,-76.67 83.03,-76.97"/>
<polygon fill="#63b8ff" stroke="#63b8ff" points="111.81,-80.48 121.96,-77.44 112.13,-73.49 111.81,-80.48"/>
</a>
</g>
</g>
<!-- Node5 -->
<g id="Node000005" class="node">
<title>Node5</title>
<g id="a_Node000005"><a xlink:href="prettyprint_8c.html#a578bb5256df8ecdf746eaffb3e3915a5" target="_top" xlink:title="Print ast pipe.">
<polygon fill="white" stroke="#666666" points="86,-56 0,-56 0,-37 86,-37 86,-56"/>
<text text-anchor="middle" x="43" y="-44" font-family="Helvetica,sans-Serif" font-size="10.00">ast_print_pipe</text>
</a>
</g>
</g>
<!-- Node2&#45;&gt;Node5 -->
<g id="edge7_Node000002_Node000005" class="edge">
<title>Node2&#45;&gt;Node5</title>
<g id="a_edge7_Node000002_Node000005"><a xlink:title=" ">
<path fill="none" stroke="#63b8ff" d="M127.33,-69.77C115.37,-64.66 100.4,-59.14 86.46,-54.63"/>
<polygon fill="#63b8ff" stroke="#63b8ff" points="126.02,-73.02 136.58,-73.93 128.9,-66.63 126.02,-73.02"/>
</a>
</g>
</g>
<!-- Node6 -->
<g id="Node000006" class="node">
<title>Node6</title>
<g id="a_Node000006"><a xlink:href="42sh_8c.html#a3c04138a5bfe5d72780bb7e82a18e627" target="_top" xlink:title=" ">
<polygon fill="white" stroke="#666666" points="63.5,-19 22.5,-19 22.5,0 63.5,0 63.5,-19"/>
<text text-anchor="middle" x="43" y="-7" font-family="Helvetica,sans-Serif" font-size="10.00">main</text>
</a>
</g>
</g>
<!-- Node2&#45;&gt;Node6 -->
<g id="edge9_Node000002_Node000006" class="edge">
<title>Node2&#45;&gt;Node6</title>
<g id="a_edge9_Node000002_Node000006"><a xlink:title=" ">
<path fill="none" stroke="#63b8ff" d="M133.34,-66.52C120.92,-54.83 103.33,-39.5 86,-28.5 79.11,-24.13 71.04,-20.22 63.83,-17.11"/>
<polygon fill="#63b8ff" stroke="#63b8ff" points="131.07,-69.19 140.71,-73.59 135.92,-64.14 131.07,-69.19"/>
</a>
</g>
</g>
<!-- Node3&#45;&gt;Node2 -->
<g id="edge3_Node000003_Node000002" class="edge">
<title>Node3&#45;&gt;Node2</title>
<g id="a_edge3_Node000003_Node000002"><a xlink:title=" ">
<path fill="none" stroke="#63b8ff" d="M87.6,-128.5C112.76,-115.57 133.54,-102.66 143.86,-93.09"/>
<polygon fill="#63b8ff" stroke="#63b8ff" points="85.89,-125.44 78.53,-133.06 89.04,-131.69 85.89,-125.44"/>
</a>
</g>
</g>
<!-- Node4&#45;&gt;Node2 -->
<g id="edge6_Node000004_Node000002" class="edge">
<title>Node4&#45;&gt;Node2</title>
<g id="a_edge6_Node000004_Node000002"><a xlink:title=" ">
<path fill="none" stroke="#63b8ff" d="M93.18,-90.23C103.04,-90.32 113.09,-90.09 121.96,-89.56"/>
<polygon fill="#63b8ff" stroke="#63b8ff" points="93.1,-86.73 83.03,-90.03 92.96,-93.73 93.1,-86.73"/>
</a>
</g>
</g>
<!-- Node4&#45;&gt;Node4 -->
<g id="edge5_Node000004_Node000004" class="edge">
<title>Node4&#45;&gt;Node4</title>
<g id="a_edge5_Node000004_Node000004"><a xlink:title=" ">
<path fill="none" stroke="#63b8ff" d="M63,-102.55C61.66,-107.38 55,-111 43,-111 23.8,-111 18.26,-101.73 26.35,-93.08"/>
<polygon fill="#63b8ff" stroke="#63b8ff" points="66.28,-101.34 59.65,-93.08 59.68,-103.68 66.28,-101.34"/>
</a>
</g>
</g>
<!-- Node5&#45;&gt;Node2 -->
<g id="edge8_Node000005_Node000002" class="edge">
<title>Node5&#45;&gt;Node2</title>
<g id="a_edge8_Node000005_Node000002"><a xlink:title=" ">
<path fill="none" stroke="#63b8ff" d="M67.19,-60.24C83.28,-67.11 104.82,-74.72 121.96,-79.64"/>
<polygon fill="#63b8ff" stroke="#63b8ff" points="68.52,-57 57.96,-56.09 65.65,-63.38 68.52,-57"/>
</a>
</g>
</g>
</g>
</svg>
