<?xml version="1.0" encoding="UTF-8" standalone="no"?>
<!DOCTYPE svg PUBLIC "-//W3C//DTD SVG 1.1//EN"
 "http://www.w3.org/Graphics/SVG/1.1/DTD/svg11.dtd">
<!-- Generated by graphviz version 2.43.0 (0)
 -->
<!-- Title: print_ast Pages: 1 -->
<svg width="189pt" height="156pt"
 viewBox="0.00 0.00 189.00 156.00" xmlns="http://www.w3.org/2000/svg" xmlns:xlink="http://www.w3.org/1999/xlink">
<g id="graph0" class="graph" transform="scale(1 1) rotate(0) translate(4 152)">
<title>print_ast</title>
<!-- Node1 -->
<g id="Node000001" class="node">
<title>Node1</title>
<g id="a_Node000001"><a xlink:title="main func to print">
<polygon fill="#999999" stroke="#666666" points="59,-56 0,-56 0,-37 59,-37 59,-56"/>
<text text-anchor="middle" x="29.5" y="-44" font-family="Helvetica,sans-Serif" font-size="10.00">print_ast</text>
</a>
</g>
</g>
<!-- Node2 -->
<g id="Node000002" class="node">
<title>Node2</title>
<g id="a_Node000002"><a xlink:href="prettyprint_8c.html#a3a1e5eab673050cb3766cfee53f71473" target="_top" xlink:title="Print AST cmd.">
<polygon fill="white" stroke="#666666" points="181,-148 95,-148 95,-129 181,-129 181,-148"/>
<text text-anchor="middle" x="138" y="-136" font-family="Helvetica,sans-Serif" font-size="10.00">ast_print_cmd</text>
</a>
</g>
</g>
<!-- Node1&#45;&gt;Node2 -->
<g id="edge1_Node000001_Node000002" class="edge">
<title>Node1&#45;&gt;Node2</title>
<g id="a_edge1_Node000001_Node000002"><a xlink:title=" ">
<path fill="none" stroke="#63b8ff" d="M36.92,-56.39C47.42,-71.89 69.65,-102.04 95,-120.5 96.82,-121.83 98.76,-123.08 100.76,-124.26"/>
<polygon fill="#63b8ff" stroke="#63b8ff" points="99.33,-127.46 109.81,-128.98 102.56,-121.25 99.33,-127.46"/>
</a>
</g>
</g>
<!-- Node3 -->
<g id="Node000003" class="node">
<title>Node3</title>
<g id="a_Node000003"><a xlink:href="prettyprint_8c.html#a305627a97ec5954d1b4534381448b7fb" target="_top" xlink:title="print ast if">
<polygon fill="white" stroke="#666666" points="173.5,-111 102.5,-111 102.5,-92 173.5,-92 173.5,-111"/>
<text text-anchor="middle" x="138" y="-99" font-family="Helvetica,sans-Serif" font-size="10.00">ast_print_if</text>
</a>
</g>
</g>
<!-- Node1&#45;&gt;Node3 -->
<g id="edge2_Node000001_Node000003" class="edge">
<title>Node1&#45;&gt;Node3</title>
<g id="a_edge2_Node000001_Node000003"><a xlink:title=" ">
<path fill="none" stroke="#63b8ff" d="M59.01,-55.41C70.09,-61.27 82.99,-68.51 95,-74.5 103.19,-78.58 112.52,-82.64 120.3,-86.69"/>
<polygon fill="#63b8ff" stroke="#63b8ff" points="118.73,-89.82 129.14,-91.81 122.24,-83.77 118.73,-89.82"/>
</a>
</g>
</g>
<!-- Node4 -->
<g id="Node000004" class="node">
<title>Node4</title>
<g id="a_Node000004"><a xlink:href="prettyprint_8c.html#a0a8e333f8361d58b83fafdc8a2666022" target="_top" xlink:title="Print aST list.">
<polygon fill="white" stroke="#666666" points="178,-56 98,-56 98,-37 178,-37 178,-56"/>
<text text-anchor="middle" x="138" y="-44" font-family="Helvetica,sans-Serif" font-size="10.00">ast_print_list</text>
</a>
</g>
</g>
<!-- Node1&#45;&gt;Node4 -->
<g id="edge4_Node000001_Node000004" class="edge">
<title>Node1&#45;&gt;Node4</title>
<g id="a_edge4_Node000001_Node000004"><a xlink:title=" ">
<path fill="none" stroke="#63b8ff" d="M59.04,-40.44C67.91,-39.91 77.96,-39.68 87.82,-39.77"/>
<polygon fill="#63b8ff" stroke="#63b8ff" points="87.9,-43.27 97.97,-39.97 88.04,-36.27 87.9,-43.27"/>
</a>
</g>
</g>
<!-- Node5 -->
<g id="Node000005" class="node">
<title>Node5</title>
<g id="a_Node000005"><a xlink:href="prettyprint_8c.html#a578bb5256df8ecdf746eaffb3e3915a5" target="_top" xlink:title="Print ast pipe.">
<polygon fill="white" stroke="#666666" points="181,-19 95,-19 95,0 181,0 181,-19"/>
<text text-anchor="middle" x="138" y="-7" font-family="Helvetica,sans-Serif" font-size="10.00">ast_print_pipe</text>
</a>
</g>
</g>
<!-- Node1&#45;&gt;Node5 -->
<g id="edge7_Node000001_Node000005" class="edge">
<title>Node1&#45;&gt;Node5</title>
<g id="a_edge7_Node000001_Node000005"><a xlink:title=" ">
<path fill="none" stroke="#63b8ff" d="M44.42,-36.93C54.88,-31.92 69.9,-26.03 84.81,-20.88"/>
<polygon fill="#63b8ff" stroke="#63b8ff" points="86.17,-24.12 94.54,-17.63 83.95,-17.48 86.17,-24.12"/>
</a>
</g>
</g>
<!-- Node3&#45;&gt;Node1 -->
<g id="edge3_Node000003_Node000001" class="edge">
<title>Node3&#45;&gt;Node1</title>
<g id="a_edge3_Node000003_Node000001"><a xlink:title=" ">
<path fill="none" stroke="#63b8ff" d="M102.47,-96.06C99.93,-94.91 97.41,-93.7 95,-92.5 77.36,-83.7 57.8,-72.22 44.9,-62.49"/>
<polygon fill="#63b8ff" stroke="#63b8ff" points="47.08,-59.75 37.14,-56.09 42.62,-65.15 47.08,-59.75"/>
</a>
</g>
</g>
<!-- Node4&#45;&gt;Node1 -->
<g id="edge6_Node000004_Node000001" class="edge">
<title>Node4&#45;&gt;Node1</title>
<g id="a_edge6_Node000004_Node000001"><a xlink:title=" ">
<path fill="none" stroke="#63b8ff" d="M97.97,-53.03C88.61,-53.33 78.61,-53.32 69.26,-53.02"/>
<polygon fill="#63b8ff" stroke="#63b8ff" points="69.19,-49.52 59.04,-52.56 68.87,-56.51 69.19,-49.52"/>
</a>
</g>
</g>
<!-- Node4&#45;&gt;Node4 -->
<g id="edge5_Node000004_Node000004" class="edge">
<title>Node4&#45;&gt;Node4</title>
<g id="a_edge5_Node000004_Node000004"><a xlink:title=" ">
<path fill="none" stroke="#63b8ff" d="M121.35,-56.08C113.26,-64.73 118.8,-74 138,-74 150,-74 156.66,-70.38 158,-65.55"/>
<polygon fill="#63b8ff" stroke="#63b8ff" points="161.28,-64.34 154.65,-56.08 154.68,-66.68 161.28,-64.34"/>
</a>
</g>
</g>
<!-- Node5&#45;&gt;Node1 -->
<g id="edge8_Node000005_Node000001" class="edge">
<title>Node5&#45;&gt;Node1</title>
<g id="a_edge8_Node000005_Node000001"><a xlink:title=" ">
<path fill="none" stroke="#63b8ff" d="M123.04,-19.09C109.25,-25.69 87.55,-33.82 68.63,-39.76"/>
<polygon fill="#63b8ff" stroke="#63b8ff" points="67.61,-36.41 59.04,-42.64 69.62,-43.11 67.61,-36.41"/>
</a>
</g>
</g>
</g>
</svg>
