<?xml version="1.0" encoding="UTF-8" standalone="no"?>
<!DOCTYPE svg PUBLIC "-//W3C//DTD SVG 1.1//EN"
 "http://www.w3.org/Graphics/SVG/1.1/DTD/svg11.dtd">
<!-- Generated by graphviz version 2.43.0 (0)
 -->
<!-- Title: ast_print_list Pages: 1 -->
<svg width="305pt" height="101pt"
 viewBox="0.00 0.00 305.00 101.00" xmlns="http://www.w3.org/2000/svg" xmlns:xlink="http://www.w3.org/1999/xlink">
<g id="graph0" class="graph" transform="scale(1 1) rotate(0) translate(4 97)">
<title>ast_print_list</title>
<!-- Node1 -->
<g id="Node000001" class="node">
<title>Node1</title>
<g id="a_Node000001"><a xlink:title="Print aST list.">
<polygon fill="#999999" stroke="#666666" points="80,-56 0,-56 0,-37 80,-37 80,-56"/>
<text text-anchor="middle" x="40" y="-44" font-family="Helvetica,sans-Serif" font-size="10.00">ast_print_list</text>
</a>
</g>
</g>
<!-- Node1&#45;&gt;Node1 -->
<g id="edge1_Node000001_Node000001" class="edge">
<title>Node1&#45;&gt;Node1</title>
<g id="a_edge1_Node000001_Node000001"><a xlink:title=" ">
<path fill="none" stroke="#63b8ff" d="M23.97,-56.08C16.17,-64.73 21.52,-74 40,-74 51.55,-74 57.97,-70.38 59.26,-65.55"/>
<polygon fill="#63b8ff" stroke="#63b8ff" points="62.57,-64.42 56.03,-56.08 55.94,-66.68 62.57,-64.42"/>
</a>
</g>
</g>
<!-- Node2 -->
<g id="Node000002" class="node">
<title>Node2</title>
<g id="a_Node000002"><a xlink:href="prettyprint_8c.html#a02a9ac599f3c70d8afa9fab30e8b77d2" target="_top" xlink:title="main func to print">
<polygon fill="white" stroke="#666666" points="175,-56 116,-56 116,-37 175,-37 175,-56"/>
<text text-anchor="middle" x="145.5" y="-44" font-family="Helvetica,sans-Serif" font-size="10.00">print_ast</text>
</a>
</g>
</g>
<!-- Node1&#45;&gt;Node2 -->
<g id="edge2_Node000001_Node000002" class="edge">
<title>Node1&#45;&gt;Node2</title>
<g id="a_edge2_Node000001_Node000002"><a xlink:title=" ">
<path fill="none" stroke="#63b8ff" d="M80.13,-39.93C88.5,-39.69 97.34,-39.69 105.7,-39.94"/>
<polygon fill="#63b8ff" stroke="#63b8ff" points="105.82,-43.45 115.96,-40.39 106.13,-36.46 105.82,-43.45"/>
</a>
</g>
</g>
<!-- Node2&#45;&gt;Node1 -->
<g id="edge6_Node000002_Node000001" class="edge">
<title>Node2&#45;&gt;Node1</title>
<g id="a_edge6_Node000002_Node000001"><a xlink:title=" ">
<path fill="none" stroke="#63b8ff" d="M115.96,-52.61C108.01,-53.08 99.13,-53.29 90.34,-53.24"/>
<polygon fill="#63b8ff" stroke="#63b8ff" points="90.19,-49.74 80.13,-53.07 90.07,-56.74 90.19,-49.74"/>
</a>
</g>
</g>
<!-- Node3 -->
<g id="Node000003" class="node">
<title>Node3</title>
<g id="a_Node000003"><a xlink:href="prettyprint_8c.html#a3a1e5eab673050cb3766cfee53f71473" target="_top" xlink:title="Print AST cmd.">
<polygon fill="white" stroke="#666666" points="297,-93 211,-93 211,-74 297,-74 297,-93"/>
<text text-anchor="middle" x="254" y="-81" font-family="Helvetica,sans-Serif" font-size="10.00">ast_print_cmd</text>
</a>
</g>
</g>
<!-- Node2&#45;&gt;Node3 -->
<g id="edge3_Node000002_Node000003" class="edge">
<title>Node2&#45;&gt;Node3</title>
<g id="a_edge3_Node000002_Node000003"><a xlink:title=" ">
<path fill="none" stroke="#63b8ff" d="M173.93,-56.03C186.62,-60.44 201.9,-65.75 215.63,-70.52"/>
<polygon fill="#63b8ff" stroke="#63b8ff" points="214.7,-73.9 225.3,-73.88 217,-67.29 214.7,-73.9"/>
</a>
</g>
</g>
<!-- Node4 -->
<g id="Node000004" class="node">
<title>Node4</title>
<g id="a_Node000004"><a xlink:href="prettyprint_8c.html#a305627a97ec5954d1b4534381448b7fb" target="_top" xlink:title="print ast if">
<polygon fill="white" stroke="#666666" points="289.5,-56 218.5,-56 218.5,-37 289.5,-37 289.5,-56"/>
<text text-anchor="middle" x="254" y="-44" font-family="Helvetica,sans-Serif" font-size="10.00">ast_print_if</text>
</a>
</g>
</g>
<!-- Node2&#45;&gt;Node4 -->
<g id="edge4_Node000002_Node000004" class="edge">
<title>Node2&#45;&gt;Node4</title>
<g id="a_edge4_Node000002_Node000004"><a xlink:title=" ">
<path fill="none" stroke="#63b8ff" d="M175.04,-40.44C185.23,-39.83 196.97,-39.62 208.2,-39.83"/>
<polygon fill="#63b8ff" stroke="#63b8ff" points="208.2,-43.33 218.3,-40.13 208.41,-36.33 208.2,-43.33"/>
</a>
</g>
</g>
<!-- Node5 -->
<g id="Node000005" class="node">
<title>Node5</title>
<g id="a_Node000005"><a xlink:href="prettyprint_8c.html#a578bb5256df8ecdf746eaffb3e3915a5" target="_top" xlink:title="Print ast pipe.">
<polygon fill="white" stroke="#666666" points="297,-19 211,-19 211,0 297,0 297,-19"/>
<text text-anchor="middle" x="254" y="-7" font-family="Helvetica,sans-Serif" font-size="10.00">ast_print_pipe</text>
</a>
</g>
</g>
<!-- Node2&#45;&gt;Node5 -->
<g id="edge7_Node000002_Node000005" class="edge">
<title>Node2&#45;&gt;Node5</title>
<g id="a_edge7_Node000002_Node000005"><a xlink:title=" ">
<path fill="none" stroke="#63b8ff" d="M160.42,-36.93C170.88,-31.92 185.9,-26.03 200.81,-20.88"/>
<polygon fill="#63b8ff" stroke="#63b8ff" points="202.17,-24.12 210.54,-17.63 199.95,-17.48 202.17,-24.12"/>
</a>
</g>
</g>
<!-- Node4&#45;&gt;Node2 -->
<g id="edge5_Node000004_Node000002" class="edge">
<title>Node4&#45;&gt;Node2</title>
<g id="a_edge5_Node000004_Node000002"><a xlink:title=" ">
<path fill="none" stroke="#63b8ff" d="M218.3,-52.87C207.69,-53.32 195.96,-53.37 185.11,-53.02"/>
<polygon fill="#63b8ff" stroke="#63b8ff" points="185.19,-49.52 175.04,-52.56 184.87,-56.51 185.19,-49.52"/>
</a>
</g>
</g>
<!-- Node5&#45;&gt;Node2 -->
<g id="edge8_Node000005_Node000002" class="edge">
<title>Node5&#45;&gt;Node2</title>
<g id="a_edge8_Node000005_Node000002"><a xlink:title=" ">
<path fill="none" stroke="#63b8ff" d="M239.04,-19.09C225.25,-25.69 203.55,-33.82 184.63,-39.76"/>
<polygon fill="#63b8ff" stroke="#63b8ff" points="183.61,-36.41 175.04,-42.64 185.62,-43.11 183.61,-36.41"/>
</a>
</g>
</g>
</g>
</svg>
