<?xml version="1.0" encoding="UTF-8" standalone="no"?>
<!DOCTYPE svg PUBLIC "-//W3C//DTD SVG 1.1//EN"
 "http://www.w3.org/Graphics/SVG/1.1/DTD/svg11.dtd">
<!-- Generated by graphviz version 2.43.0 (0)
 -->
<!-- Title: ast_print_pipe Pages: 1 -->
<svg width="311pt" height="119pt"
 viewBox="0.00 0.00 311.00 119.00" xmlns="http://www.w3.org/2000/svg" xmlns:xlink="http://www.w3.org/1999/xlink">
<g id="graph0" class="graph" transform="scale(1 1) rotate(0) translate(4 115)">
<title>ast_print_pipe</title>
<!-- Node1 -->
<g id="Node000001" class="node">
<title>Node1</title>
<g id="a_Node000001"><a xlink:title="Print ast pipe.">
<polygon fill="#999999" stroke="#666666" points="86,-74 0,-74 0,-55 86,-55 86,-74"/>
<text text-anchor="middle" x="43" y="-62" font-family="Helvetica,sans-Serif" font-size="10.00">ast_print_pipe</text>
</a>
</g>
</g>
<!-- Node2 -->
<g id="Node000002" class="node">
<title>Node2</title>
<g id="a_Node000002"><a xlink:href="prettyprint_8c.html#a02a9ac599f3c70d8afa9fab30e8b77d2" target="_top" xlink:title="main func to print">
<polygon fill="white" stroke="#666666" points="181,-74 122,-74 122,-55 181,-55 181,-74"/>
<text text-anchor="middle" x="151.5" y="-62" font-family="Helvetica,sans-Serif" font-size="10.00">print_ast</text>
</a>
</g>
</g>
<!-- Node1&#45;&gt;Node2 -->
<g id="edge1_Node000001_Node000002" class="edge">
<title>Node1&#45;&gt;Node2</title>
<g id="a_edge1_Node000001_Node000002"><a xlink:title=" ">
<path fill="none" stroke="#63b8ff" d="M86.09,-57.88C94.51,-57.68 103.32,-57.71 111.63,-57.97"/>
<polygon fill="#63b8ff" stroke="#63b8ff" points="111.67,-61.48 121.82,-58.43 111.98,-54.49 111.67,-61.48"/>
</a>
</g>
</g>
<!-- Node2&#45;&gt;Node1 -->
<g id="edge8_Node000002_Node000001" class="edge">
<title>Node2&#45;&gt;Node1</title>
<g id="a_edge8_Node000002_Node000001"><a xlink:title=" ">
<path fill="none" stroke="#63b8ff" d="M121.82,-70.57C113.92,-71.04 105.11,-71.27 96.33,-71.25"/>
<polygon fill="#63b8ff" stroke="#63b8ff" points="96.14,-67.75 86.09,-71.12 96.05,-74.75 96.14,-67.75"/>
</a>
</g>
</g>
<!-- Node3 -->
<g id="Node000003" class="node">
<title>Node3</title>
<g id="a_Node000003"><a xlink:href="prettyprint_8c.html#a3a1e5eab673050cb3766cfee53f71473" target="_top" xlink:title="Print AST cmd.">
<polygon fill="white" stroke="#666666" points="303,-111 217,-111 217,-92 303,-92 303,-111"/>
<text text-anchor="middle" x="260" y="-99" font-family="Helvetica,sans-Serif" font-size="10.00">ast_print_cmd</text>
</a>
</g>
</g>
<!-- Node2&#45;&gt;Node3 -->
<g id="edge2_Node000002_Node000003" class="edge">
<title>Node2&#45;&gt;Node3</title>
<g id="a_edge2_Node000002_Node000003"><a xlink:title=" ">
<path fill="none" stroke="#63b8ff" d="M179.93,-74.03C192.62,-78.44 207.9,-83.75 221.63,-88.52"/>
<polygon fill="#63b8ff" stroke="#63b8ff" points="220.7,-91.9 231.3,-91.88 223,-85.29 220.7,-91.9"/>
</a>
</g>
</g>
<!-- Node4 -->
<g id="Node000004" class="node">
<title>Node4</title>
<g id="a_Node000004"><a xlink:href="prettyprint_8c.html#a305627a97ec5954d1b4534381448b7fb" target="_top" xlink:title="print ast if">
<polygon fill="white" stroke="#666666" points="295.5,-74 224.5,-74 224.5,-55 295.5,-55 295.5,-74"/>
<text text-anchor="middle" x="260" y="-62" font-family="Helvetica,sans-Serif" font-size="10.00">ast_print_if</text>
</a>
</g>
</g>
<!-- Node2&#45;&gt;Node4 -->
<g id="edge3_Node000002_Node000004" class="edge">
<title>Node2&#45;&gt;Node4</title>
<g id="a_edge3_Node000002_Node000004"><a xlink:title=" ">
<path fill="none" stroke="#63b8ff" d="M181.04,-58.44C191.23,-57.83 202.97,-57.62 214.2,-57.83"/>
<polygon fill="#63b8ff" stroke="#63b8ff" points="214.2,-61.33 224.3,-58.13 214.41,-54.33 214.2,-61.33"/>
</a>
</g>
</g>
<!-- Node5 -->
<g id="Node000005" class="node">
<title>Node5</title>
<g id="a_Node000005"><a xlink:href="prettyprint_8c.html#a0a8e333f8361d58b83fafdc8a2666022" target="_top" xlink:title="Print aST list.">
<polygon fill="white" stroke="#666666" points="300,-19 220,-19 220,0 300,0 300,-19"/>
<text text-anchor="middle" x="260" y="-7" font-family="Helvetica,sans-Serif" font-size="10.00">ast_print_list</text>
</a>
</g>
</g>
<!-- Node2&#45;&gt;Node5 -->
<g id="edge5_Node000002_Node000005" class="edge">
<title>Node2&#45;&gt;Node5</title>
<g id="a_edge5_Node000002_Node000005"><a xlink:title=" ">
<path fill="none" stroke="#63b8ff" d="M163.1,-54.78C176.09,-45.95 198.85,-33.42 218.94,-23.62"/>
<polygon fill="#63b8ff" stroke="#63b8ff" points="220.71,-26.66 228.24,-19.2 217.7,-20.34 220.71,-26.66"/>
</a>
</g>
</g>
<!-- Node4&#45;&gt;Node2 -->
<g id="edge4_Node000004_Node000002" class="edge">
<title>Node4&#45;&gt;Node2</title>
<g id="a_edge4_Node000004_Node000002"><a xlink:title=" ">
<path fill="none" stroke="#63b8ff" d="M224.3,-70.87C213.69,-71.32 201.96,-71.37 191.11,-71.02"/>
<polygon fill="#63b8ff" stroke="#63b8ff" points="191.19,-67.52 181.04,-70.56 190.87,-74.51 191.19,-67.52"/>
</a>
</g>
</g>
<!-- Node5&#45;&gt;Node2 -->
<g id="edge7_Node000005_Node000002" class="edge">
<title>Node5&#45;&gt;Node2</title>
<g id="a_edge7_Node000005_Node000002"><a xlink:title=" ">
<path fill="none" stroke="#63b8ff" d="M248.59,-19.09C235.14,-28.27 210.99,-41.5 190.27,-51.48"/>
<polygon fill="#63b8ff" stroke="#63b8ff" points="188.6,-48.4 181.04,-55.82 191.58,-54.74 188.6,-48.4"/>
</a>
</g>
</g>
<!-- Node5&#45;&gt;Node5 -->
<g id="edge6_Node000005_Node000005" class="edge">
<title>Node5&#45;&gt;Node5</title>
<g id="a_edge6_Node000005_Node000005"><a xlink:title=" ">
<path fill="none" stroke="#63b8ff" d="M243.35,-19.08C235.26,-27.73 240.8,-37 260,-37 272,-37 278.66,-33.38 280,-28.55"/>
<polygon fill="#63b8ff" stroke="#63b8ff" points="283.28,-27.34 276.65,-19.08 276.68,-29.68 283.28,-27.34"/>
</a>
</g>
</g>
</g>
</svg>
