<?xml version="1.0" encoding="UTF-8" standalone="no"?>
<!DOCTYPE svg PUBLIC "-//W3C//DTD SVG 1.1//EN"
 "http://www.w3.org/Graphics/SVG/1.1/DTD/svg11.dtd">
<!-- Generated by graphviz version 2.43.0 (0)
 -->
<!-- Title: ast_print_pipe Pages: 1 -->
<svg width="305pt" height="119pt"
 viewBox="0.00 0.00 305.00 119.00" xmlns="http://www.w3.org/2000/svg" xmlns:xlink="http://www.w3.org/1999/xlink">
<g id="graph0" class="graph" transform="scale(1 1) rotate(0) translate(4 115)">
<title>ast_print_pipe</title>
<!-- Node1 -->
<g id="Node000001" class="node">
<title>Node1</title>
<g id="a_Node000001"><a xlink:title="Print ast pipe.">
<polygon fill="#999999" stroke="#666666" points="297,-56 211,-56 211,-37 297,-37 297,-56"/>
<text text-anchor="middle" x="254" y="-44" font-family="Helvetica,sans-Serif" font-size="10.00">ast_print_pipe</text>
</a>
</g>
</g>
<!-- Node2 -->
<g id="Node000002" class="node">
<title>Node2</title>
<g id="a_Node000002"><a xlink:href="prettyprint_8c.html#a02a9ac599f3c70d8afa9fab30e8b77d2" target="_top" xlink:title="main func to print">
<polygon fill="white" stroke="#666666" points="175,-56 116,-56 116,-37 175,-37 175,-56"/>
<text text-anchor="middle" x="145.5" y="-44" font-family="Helvetica,sans-Serif" font-size="10.00">print_ast</text>
</a>
</g>
</g>
<!-- Node1&#45;&gt;Node2 -->
<g id="edge1_Node000001_Node000002" class="edge">
<title>Node1&#45;&gt;Node2</title>
<g id="a_edge1_Node000001_Node000002"><a xlink:title=" ">
<path fill="none" stroke="#63b8ff" d="M200.67,-39.75C191.89,-39.73 183.08,-39.96 175.18,-40.43"/>
<polygon fill="#63b8ff" stroke="#63b8ff" points="200.86,-43.25 210.91,-39.88 200.95,-36.25 200.86,-43.25"/>
</a>
</g>
</g>
<!-- Node2&#45;&gt;Node1 -->
<g id="edge7_Node000002_Node000001" class="edge">
<title>Node2&#45;&gt;Node1</title>
<g id="a_edge7_Node000002_Node000001"><a xlink:title=" ">
<path fill="none" stroke="#63b8ff" d="M185.37,-53.03C193.68,-53.29 202.49,-53.32 210.91,-53.12"/>
<polygon fill="#63b8ff" stroke="#63b8ff" points="185.33,-49.52 175.18,-52.57 185.02,-56.51 185.33,-49.52"/>
</a>
</g>
</g>
<!-- Node3 -->
<g id="Node000003" class="node">
<title>Node3</title>
<g id="a_Node000003"><a xlink:href="prettyprint_8c.html#a305627a97ec5954d1b4534381448b7fb" target="_top" xlink:title="print ast if">
<polygon fill="white" stroke="#666666" points="75.5,-111 4.5,-111 4.5,-92 75.5,-92 75.5,-111"/>
<text text-anchor="middle" x="40" y="-99" font-family="Helvetica,sans-Serif" font-size="10.00">ast_print_if</text>
</a>
</g>
</g>
<!-- Node2&#45;&gt;Node3 -->
<g id="edge2_Node000002_Node000003" class="edge">
<title>Node2&#45;&gt;Node3</title>
<g id="a_edge2_Node000002_Node000003"><a xlink:title=" ">
<path fill="none" stroke="#63b8ff" d="M107.01,-59.99C98.23,-64.75 88.85,-69.93 80,-74.5 69,-80.18 55.87,-86.06 47.99,-91.95"/>
<polygon fill="#63b8ff" stroke="#63b8ff" points="108.74,-63.04 115.9,-55.23 105.44,-56.87 108.74,-63.04"/>
</a>
</g>
</g>
<!-- Node4 -->
<g id="Node000004" class="node">
<title>Node4</title>
<g id="a_Node000004"><a xlink:href="prettyprint_8c.html#a0a8e333f8361d58b83fafdc8a2666022" target="_top" xlink:title="Print aST list.">
<polygon fill="white" stroke="#666666" points="80,-56 0,-56 0,-37 80,-37 80,-56"/>
<text text-anchor="middle" x="40" y="-44" font-family="Helvetica,sans-Serif" font-size="10.00">ast_print_list</text>
</a>
</g>
</g>
<!-- Node2&#45;&gt;Node4 -->
<g id="edge4_Node000002_Node000004" class="edge">
<title>Node2&#45;&gt;Node4</title>
<g id="a_edge4_Node000002_Node000004"><a xlink:title=" ">
<path fill="none" stroke="#63b8ff" d="M105.74,-39.94C97.43,-39.69 88.64,-39.69 80.31,-39.93"/>
<polygon fill="#63b8ff" stroke="#63b8ff" points="105.8,-43.45 115.94,-40.39 106.11,-36.46 105.8,-43.45"/>
</a>
</g>
</g>
<!-- Node5 -->
<g id="Node000005" class="node">
<title>Node5</title>
<g id="a_Node000005"><a xlink:href="42sh_8c.html#a3c04138a5bfe5d72780bb7e82a18e627" target="_top" xlink:title=" ">
<polygon fill="white" stroke="#666666" points="60.5,-19 19.5,-19 19.5,0 60.5,0 60.5,-19"/>
<text text-anchor="middle" x="40" y="-7" font-family="Helvetica,sans-Serif" font-size="10.00">main</text>
</a>
</g>
</g>
<!-- Node2&#45;&gt;Node5 -->
<g id="edge8_Node000002_Node000005" class="edge">
<title>Node2&#45;&gt;Node5</title>
<g id="a_edge8_Node000002_Node000005"><a xlink:title=" ">
<path fill="none" stroke="#63b8ff" d="M108.24,-33.54C92.26,-27.82 74.11,-21.34 60.7,-16.54"/>
<polygon fill="#63b8ff" stroke="#63b8ff" points="107.25,-36.9 117.85,-36.97 109.61,-30.31 107.25,-36.9"/>
</a>
</g>
</g>
<!-- Node3&#45;&gt;Node2 -->
<g id="edge3_Node000003_Node000002" class="edge">
<title>Node3&#45;&gt;Node2</title>
<g id="a_edge3_Node000003_Node000002"><a xlink:title=" ">
<path fill="none" stroke="#63b8ff" d="M84.61,-90C107.17,-77.97 127.6,-65.39 137.83,-56.02"/>
<polygon fill="#63b8ff" stroke="#63b8ff" points="82.77,-87.02 75.53,-94.76 86.01,-93.22 82.77,-87.02"/>
</a>
</g>
</g>
<!-- Node4&#45;&gt;Node2 -->
<g id="edge6_Node000004_Node000002" class="edge">
<title>Node4&#45;&gt;Node2</title>
<g id="a_edge6_Node000004_Node000002"><a xlink:title=" ">
<path fill="none" stroke="#63b8ff" d="M90.47,-53.24C99.21,-53.29 108.03,-53.08 115.94,-52.61"/>
<polygon fill="#63b8ff" stroke="#63b8ff" points="90.37,-49.74 80.31,-53.07 90.25,-56.74 90.37,-49.74"/>
</a>
</g>
</g>
<!-- Node4&#45;&gt;Node4 -->
<g id="edge5_Node000004_Node000004" class="edge">
<title>Node4&#45;&gt;Node4</title>
<g id="a_edge5_Node000004_Node000004"><a xlink:title=" ">
<path fill="none" stroke="#63b8ff" d="M59.26,-65.55C57.97,-70.38 51.55,-74 40,-74 21.52,-74 16.17,-64.73 23.97,-56.08"/>
<polygon fill="#63b8ff" stroke="#63b8ff" points="62.57,-64.42 56.03,-56.08 55.94,-66.68 62.57,-64.42"/>
</a>
</g>
</g>
</g>
</svg>
