<?xml version="1.0" encoding="UTF-8" standalone="no"?>
<!DOCTYPE svg PUBLIC "-//W3C//DTD SVG 1.1//EN"
 "http://www.w3.org/Graphics/SVG/1.1/DTD/svg11.dtd">
<!-- Generated by graphviz version 2.43.0 (0)
 -->
<!-- Title: ast_print_if Pages: 1 -->
<svg width="296pt" height="119pt"
 viewBox="0.00 0.00 296.00 119.00" xmlns="http://www.w3.org/2000/svg" xmlns:xlink="http://www.w3.org/1999/xlink">
<g id="graph0" class="graph" transform="scale(1 1) rotate(0) translate(4 115)">
<title>ast_print_if</title>
<!-- Node1 -->
<g id="Node000001" class="node">
<title>Node1</title>
<g id="a_Node000001"><a xlink:title="print ast if">
<polygon fill="#999999" stroke="#666666" points="71,-56 0,-56 0,-37 71,-37 71,-56"/>
<text text-anchor="middle" x="35.5" y="-44" font-family="Helvetica,sans-Serif" font-size="10.00">ast_print_if</text>
</a>
</g>
</g>
<!-- Node2 -->
<g id="Node000002" class="node">
<title>Node2</title>
<g id="a_Node000002"><a xlink:href="prettyprint_8c.html#a02a9ac599f3c70d8afa9fab30e8b77d2" target="_top" xlink:title="main func to print">
<polygon fill="white" stroke="#666666" points="166,-56 107,-56 107,-37 166,-37 166,-56"/>
<text text-anchor="middle" x="136.5" y="-44" font-family="Helvetica,sans-Serif" font-size="10.00">print_ast</text>
</a>
</g>
</g>
<!-- Node1&#45;&gt;Node2 -->
<g id="edge1_Node000001_Node000002" class="edge">
<title>Node1&#45;&gt;Node2</title>
<g id="a_edge1_Node000001_Node000002"><a xlink:title=" ">
<path fill="none" stroke="#63b8ff" d="M71.13,-40.03C79.45,-39.71 88.39,-39.66 96.89,-39.9"/>
<polygon fill="#63b8ff" stroke="#63b8ff" points="96.81,-43.4 106.95,-40.32 97.11,-36.4 96.81,-43.4"/>
</a>
</g>
</g>
<!-- Node2&#45;&gt;Node1 -->
<g id="edge3_Node000002_Node000001" class="edge">
<title>Node2&#45;&gt;Node1</title>
<g id="a_edge3_Node000002_Node000001"><a xlink:title=" ">
<path fill="none" stroke="#63b8ff" d="M106.95,-52.68C98.91,-53.14 89.97,-53.32 81.23,-53.22"/>
<polygon fill="#63b8ff" stroke="#63b8ff" points="81.21,-49.72 71.13,-52.97 81.04,-56.72 81.21,-49.72"/>
</a>
</g>
</g>
<!-- Node3 -->
<g id="Node000003" class="node">
<title>Node3</title>
<g id="a_Node000003"><a xlink:href="prettyprint_8c.html#a3a1e5eab673050cb3766cfee53f71473" target="_top" xlink:title="Print AST cmd.">
<polygon fill="white" stroke="#666666" points="288,-111 202,-111 202,-92 288,-92 288,-111"/>
<text text-anchor="middle" x="245" y="-99" font-family="Helvetica,sans-Serif" font-size="10.00">ast_print_cmd</text>
</a>
</g>
</g>
<!-- Node2&#45;&gt;Node3 -->
<g id="edge2_Node000002_Node000003" class="edge">
<title>Node2&#45;&gt;Node3</title>
<g id="a_edge2_Node000002_Node000003"><a xlink:title=" ">
<path fill="none" stroke="#63b8ff" d="M153.12,-56.14C166.02,-63.94 184.9,-74.97 202,-83.5 204.91,-84.95 207.97,-86.4 211.05,-87.81"/>
<polygon fill="#63b8ff" stroke="#63b8ff" points="209.67,-91.03 220.23,-91.88 212.51,-84.63 209.67,-91.03"/>
</a>
</g>
</g>
<!-- Node4 -->
<g id="Node000004" class="node">
<title>Node4</title>
<g id="a_Node000004"><a xlink:href="prettyprint_8c.html#a0a8e333f8361d58b83fafdc8a2666022" target="_top" xlink:title="Print aST list.">
<polygon fill="white" stroke="#666666" points="285,-56 205,-56 205,-37 285,-37 285,-56"/>
<text text-anchor="middle" x="245" y="-44" font-family="Helvetica,sans-Serif" font-size="10.00">ast_print_list</text>
</a>
</g>
</g>
<!-- Node2&#45;&gt;Node4 -->
<g id="edge4_Node000002_Node000004" class="edge">
<title>Node2&#45;&gt;Node4</title>
<g id="a_edge4_Node000002_Node000004"><a xlink:title=" ">
<path fill="none" stroke="#63b8ff" d="M166.04,-40.44C174.91,-39.91 184.96,-39.68 194.82,-39.77"/>
<polygon fill="#63b8ff" stroke="#63b8ff" points="194.9,-43.27 204.97,-39.97 195.04,-36.27 194.9,-43.27"/>
</a>
</g>
</g>
<!-- Node5 -->
<g id="Node000005" class="node">
<title>Node5</title>
<g id="a_Node000005"><a xlink:href="prettyprint_8c.html#a578bb5256df8ecdf746eaffb3e3915a5" target="_top" xlink:title="Print ast pipe.">
<polygon fill="white" stroke="#666666" points="288,-19 202,-19 202,0 288,0 288,-19"/>
<text text-anchor="middle" x="245" y="-7" font-family="Helvetica,sans-Serif" font-size="10.00">ast_print_pipe</text>
</a>
</g>
</g>
<!-- Node2&#45;&gt;Node5 -->
<g id="edge7_Node000002_Node000005" class="edge">
<title>Node2&#45;&gt;Node5</title>
<g id="a_edge7_Node000002_Node000005"><a xlink:title=" ">
<path fill="none" stroke="#63b8ff" d="M151.42,-36.93C161.88,-31.92 176.9,-26.03 191.81,-20.88"/>
<polygon fill="#63b8ff" stroke="#63b8ff" points="193.17,-24.12 201.54,-17.63 190.95,-17.48 193.17,-24.12"/>
</a>
</g>
</g>
<!-- Node4&#45;&gt;Node2 -->
<g id="edge6_Node000004_Node000002" class="edge">
<title>Node4&#45;&gt;Node2</title>
<g id="a_edge6_Node000004_Node000002"><a xlink:title=" ">
<path fill="none" stroke="#63b8ff" d="M204.97,-53.03C195.61,-53.33 185.61,-53.32 176.26,-53.02"/>
<polygon fill="#63b8ff" stroke="#63b8ff" points="176.19,-49.52 166.04,-52.56 175.87,-56.51 176.19,-49.52"/>
</a>
</g>
</g>
<!-- Node4&#45;&gt;Node4 -->
<g id="edge5_Node000004_Node000004" class="edge">
<title>Node4&#45;&gt;Node4</title>
<g id="a_edge5_Node000004_Node000004"><a xlink:title=" ">
<path fill="none" stroke="#63b8ff" d="M228.35,-56.08C220.26,-64.73 225.8,-74 245,-74 257,-74 263.66,-70.38 265,-65.55"/>
<polygon fill="#63b8ff" stroke="#63b8ff" points="268.28,-64.34 261.65,-56.08 261.68,-66.68 268.28,-64.34"/>
</a>
</g>
</g>
<!-- Node5&#45;&gt;Node2 -->
<g id="edge8_Node000005_Node000002" class="edge">
<title>Node5&#45;&gt;Node2</title>
<g id="a_edge8_Node000005_Node000002"><a xlink:title=" ">
<path fill="none" stroke="#63b8ff" d="M230.04,-19.09C216.25,-25.69 194.55,-33.82 175.63,-39.76"/>
<polygon fill="#63b8ff" stroke="#63b8ff" points="174.61,-36.41 166.04,-42.64 176.62,-43.11 174.61,-36.41"/>
</a>
</g>
</g>
</g>
</svg>
