<?xml version="1.0" encoding="UTF-8" standalone="no"?>
<!DOCTYPE svg PUBLIC "-//W3C//DTD SVG 1.1//EN"
 "http://www.w3.org/Graphics/SVG/1.1/DTD/svg11.dtd">
<!-- Generated by graphviz version 2.43.0 (0)
 -->
<!-- Title: ast_print_if Pages: 1 -->
<svg width="296pt" height="119pt"
 viewBox="0.00 0.00 296.00 119.00" xmlns="http://www.w3.org/2000/svg" xmlns:xlink="http://www.w3.org/1999/xlink">
<g id="graph0" class="graph" transform="scale(1 1) rotate(0) translate(4 115)">
<title>ast_print_if</title>
<!-- Node1 -->
<g id="Node000001" class="node">
<title>Node1</title>
<g id="a_Node000001"><a xlink:title="print ast if">
<polygon fill="#999999" stroke="#666666" points="288,-56 217,-56 217,-37 288,-37 288,-56"/>
<text text-anchor="middle" x="252.5" y="-44" font-family="Helvetica,sans-Serif" font-size="10.00">ast_print_if</text>
</a>
</g>
</g>
<!-- Node2 -->
<g id="Node000002" class="node">
<title>Node2</title>
<g id="a_Node000002"><a xlink:href="prettyprint_8c.html#a02a9ac599f3c70d8afa9fab30e8b77d2" target="_top" xlink:title="main func to print">
<polygon fill="white" stroke="#666666" points="181,-56 122,-56 122,-37 181,-37 181,-56"/>
<text text-anchor="middle" x="151.5" y="-44" font-family="Helvetica,sans-Serif" font-size="10.00">print_ast</text>
</a>
</g>
</g>
<!-- Node1&#45;&gt;Node2 -->
<g id="edge1_Node000001_Node000002" class="edge">
<title>Node1&#45;&gt;Node2</title>
<g id="a_edge1_Node000001_Node000002"><a xlink:title=" ">
<path fill="none" stroke="#63b8ff" d="M206.77,-39.78C198.03,-39.68 189.09,-39.86 181.05,-40.32"/>
<polygon fill="#63b8ff" stroke="#63b8ff" points="206.79,-43.28 216.87,-40.03 206.96,-36.28 206.79,-43.28"/>
</a>
</g>
</g>
<!-- Node2&#45;&gt;Node1 -->
<g id="edge2_Node000002_Node000001" class="edge">
<title>Node2&#45;&gt;Node1</title>
<g id="a_edge2_Node000002_Node000001"><a xlink:title=" ">
<path fill="none" stroke="#63b8ff" d="M191.11,-53.1C199.61,-53.34 208.55,-53.29 216.87,-52.97"/>
<polygon fill="#63b8ff" stroke="#63b8ff" points="191.19,-49.6 181.05,-52.68 190.89,-56.6 191.19,-49.6"/>
</a>
</g>
</g>
<!-- Node3 -->
<g id="Node000003" class="node">
<title>Node3</title>
<g id="a_Node000003"><a xlink:href="prettyprint_8c.html#a0a8e333f8361d58b83fafdc8a2666022" target="_top" xlink:title="Print aST list.">
<polygon fill="white" stroke="#666666" points="83,-93 3,-93 3,-74 83,-74 83,-93"/>
<text text-anchor="middle" x="43" y="-81" font-family="Helvetica,sans-Serif" font-size="10.00">ast_print_list</text>
</a>
</g>
</g>
<!-- Node2&#45;&gt;Node3 -->
<g id="edge3_Node000002_Node000003" class="edge">
<title>Node2&#45;&gt;Node3</title>
<g id="a_edge3_Node000002_Node000003"><a xlink:title=" ">
<path fill="none" stroke="#63b8ff" d="M112.37,-53.24C93.45,-59.18 71.75,-67.31 57.96,-73.91"/>
<polygon fill="#63b8ff" stroke="#63b8ff" points="113.39,-56.59 121.96,-50.36 111.38,-49.89 113.39,-56.59"/>
</a>
</g>
</g>
<!-- Node4 -->
<g id="Node000004" class="node">
<title>Node4</title>
<g id="a_Node000004"><a xlink:href="prettyprint_8c.html#a578bb5256df8ecdf746eaffb3e3915a5" target="_top" xlink:title="Print ast pipe.">
<polygon fill="white" stroke="#666666" points="86,-56 0,-56 0,-37 86,-37 86,-56"/>
<text text-anchor="middle" x="43" y="-44" font-family="Helvetica,sans-Serif" font-size="10.00">ast_print_pipe</text>
</a>
</g>
</g>
<!-- Node2&#45;&gt;Node4 -->
<g id="edge6_Node000002_Node000004" class="edge">
<title>Node2&#45;&gt;Node4</title>
<g id="a_edge6_Node000002_Node000004"><a xlink:title=" ">
<path fill="none" stroke="#63b8ff" d="M111.78,-39.98C103.48,-39.71 94.67,-39.68 86.24,-39.88"/>
<polygon fill="#63b8ff" stroke="#63b8ff" points="111.81,-43.48 121.96,-40.44 112.13,-36.49 111.81,-43.48"/>
</a>
</g>
</g>
<!-- Node5 -->
<g id="Node000005" class="node">
<title>Node5</title>
<g id="a_Node000005"><a xlink:href="42sh_8c.html#a3c04138a5bfe5d72780bb7e82a18e627" target="_top" xlink:title=" ">
<polygon fill="white" stroke="#666666" points="63.5,-19 22.5,-19 22.5,0 63.5,0 63.5,-19"/>
<text text-anchor="middle" x="43" y="-7" font-family="Helvetica,sans-Serif" font-size="10.00">main</text>
</a>
</g>
</g>
<!-- Node2&#45;&gt;Node5 -->
<g id="edge8_Node000002_Node000005" class="edge">
<title>Node2&#45;&gt;Node5</title>
<g id="a_edge8_Node000002_Node000005"><a xlink:title=" ">
<path fill="none" stroke="#63b8ff" d="M113.52,-33.65C96.73,-27.82 77.56,-21.16 63.6,-16.31"/>
<polygon fill="#63b8ff" stroke="#63b8ff" points="112.48,-37 123.07,-36.97 114.78,-30.38 112.48,-37"/>
</a>
</g>
</g>
<!-- Node3&#45;&gt;Node2 -->
<g id="edge5_Node000003_Node000002" class="edge">
<title>Node3&#45;&gt;Node2</title>
<g id="a_edge5_Node000003_Node000002"><a xlink:title=" ">
<path fill="none" stroke="#63b8ff" d="M92.97,-73.22C108.91,-67.82 125.37,-61.44 136.58,-56.07"/>
<polygon fill="#63b8ff" stroke="#63b8ff" points="91.58,-69.99 83.17,-76.43 93.76,-76.64 91.58,-69.99"/>
</a>
</g>
</g>
<!-- Node3&#45;&gt;Node3 -->
<g id="edge4_Node000003_Node000003" class="edge">
<title>Node3&#45;&gt;Node3</title>
<g id="a_edge4_Node000003_Node000003"><a xlink:title=" ">
<path fill="none" stroke="#63b8ff" d="M63,-102.55C61.66,-107.38 55,-111 43,-111 23.8,-111 18.26,-101.73 26.35,-93.08"/>
<polygon fill="#63b8ff" stroke="#63b8ff" points="66.28,-101.34 59.65,-93.08 59.68,-103.68 66.28,-101.34"/>
</a>
</g>
</g>
<!-- Node4&#45;&gt;Node2 -->
<g id="edge7_Node000004_Node000002" class="edge">
<title>Node4&#45;&gt;Node2</title>
<g id="a_edge7_Node000004_Node000002"><a xlink:title=" ">
<path fill="none" stroke="#63b8ff" d="M96.48,-53.25C105.27,-53.26 114.08,-53.03 121.96,-52.56"/>
<polygon fill="#63b8ff" stroke="#63b8ff" points="96.29,-49.75 86.24,-53.12 96.2,-56.75 96.29,-49.75"/>
</a>
</g>
</g>
</g>
</svg>
