<?xml version="1.0" encoding="UTF-8" standalone="no"?>
<!DOCTYPE svg PUBLIC "-//W3C//DTD SVG 1.1//EN"
 "http://www.w3.org/Graphics/SVG/1.1/DTD/svg11.dtd">
<!-- Generated by graphviz version 2.43.0 (0)
 -->
<!-- Title: src/exec/redir_exec.h Pages: 1 -->
<svg width="348pt" height="82pt"
 viewBox="0.00 0.00 348.00 82.00" xmlns="http://www.w3.org/2000/svg" xmlns:xlink="http://www.w3.org/1999/xlink">
<g id="graph0" class="graph" transform="scale(1 1) rotate(0) translate(4 78)">
<title>src/exec/redir_exec.h</title>
<!-- Node1 -->
<g id="Node000001" class="node">
<title>Node1</title>
<g id="a_Node000001"><a xlink:title=" ">
<polygon fill="#999999" stroke="#666666" points="218.5,-74 99.5,-74 99.5,-55 218.5,-55 218.5,-74"/>
<text text-anchor="middle" x="159" y="-62" font-family="Helvetica,sans-Serif" font-size="10.00">src/exec/redir_exec.h</text>
</a>
</g>
</g>
<!-- Node2 -->
<g id="Node000002" class="node">
<title>Node2</title>
<g id="a_Node000002"><a xlink:href="ast__run_8c.html" target="_top" xlink:title=" ">
<polygon fill="white" stroke="#666666" points="96,-19 0,-19 0,0 96,0 96,-19"/>
<text text-anchor="middle" x="48" y="-7" font-family="Helvetica,sans-Serif" font-size="10.00">src/ast/ast_run.c</text>
</a>
</g>
</g>
<!-- Node1&#45;&gt;Node2 -->
<g id="edge1_Node000001_Node000002" class="edge">
<title>Node1&#45;&gt;Node2</title>
<g id="a_edge1_Node000001_Node000002"><a xlink:title=" ">
<path fill="none" stroke="#63b8ff" d="M132.05,-50.63C111.61,-40.87 84.05,-27.71 66.16,-19.17"/>
<polygon fill="#63b8ff" stroke="#63b8ff" points="130.63,-53.83 141.17,-54.98 133.65,-47.52 130.63,-53.83"/>
</a>
</g>
</g>
<!-- Node3 -->
<g id="Node000003" class="node">
<title>Node3</title>
<g id="a_Node000003"><a xlink:href="exec_8c.html" target="_top" xlink:title=" ">
<polygon fill="white" stroke="#666666" points="204,-19 114,-19 114,0 204,0 204,-19"/>
<text text-anchor="middle" x="159" y="-7" font-family="Helvetica,sans-Serif" font-size="10.00">src/exec/exec.c</text>
</a>
</g>
</g>
<!-- Node1&#45;&gt;Node3 -->
<g id="edge2_Node000001_Node000003" class="edge">
<title>Node1&#45;&gt;Node3</title>
<g id="a_edge2_Node000001_Node000003"><a xlink:title=" ">
<path fill="none" stroke="#63b8ff" d="M159,-44.66C159,-35.93 159,-25.99 159,-19.09"/>
<polygon fill="#63b8ff" stroke="#63b8ff" points="155.5,-44.75 159,-54.75 162.5,-44.75 155.5,-44.75"/>
</a>
</g>
</g>
<!-- Node4 -->
<g id="Node000004" class="node">
<title>Node4</title>
<g id="a_Node000004"><a xlink:href="redir__exec_8c.html" target="_top" xlink:title=" ">
<polygon fill="white" stroke="#666666" points="340,-19 222,-19 222,0 340,0 340,-19"/>
<text text-anchor="middle" x="281" y="-7" font-family="Helvetica,sans-Serif" font-size="10.00">src/exec/redir_exec.c</text>
</a>
</g>
</g>
<!-- Node1&#45;&gt;Node4 -->
<g id="edge3_Node000001_Node000004" class="edge">
<title>Node1&#45;&gt;Node4</title>
<g id="a_edge3_Node000001_Node000004"><a xlink:title=" ">
<path fill="none" stroke="#63b8ff" d="M188.01,-50.9C210.54,-41.11 241.2,-27.79 261.04,-19.17"/>
<polygon fill="#63b8ff" stroke="#63b8ff" points="186.38,-47.79 178.6,-54.98 189.17,-54.21 186.38,-47.79"/>
</a>
</g>
</g>
</g>
</svg>
