<?xml version="1.0" encoding="UTF-8" standalone="no"?>
<!DOCTYPE svg PUBLIC "-//W3C//DTD SVG 1.1//EN"
 "http://www.w3.org/Graphics/SVG/1.1/DTD/svg11.dtd">
<!-- Generated by graphviz version 2.43.0 (0)
 -->
<!-- Title: restore_redirs Pages: 1 -->
<svg width="1029pt" height="513pt"
 viewBox="0.00 0.00 1029.00 513.00" xmlns="http://www.w3.org/2000/svg" xmlns:xlink="http://www.w3.org/1999/xlink">
<g id="graph0" class="graph" transform="scale(1 1) rotate(0) translate(4 509)">
<title>restore_redirs</title>
<!-- Node1 -->
<g id="Node000001" class="node">
<title>Node1</title>
<g id="a_Node000001"><a xlink:title="Restore saved fds.">
<polygon fill="#999999" stroke="#666666" points="1021,-57 937,-57 937,-38 1021,-38 1021,-57"/>
<text text-anchor="middle" x="979" y="-45" font-family="Helvetica,sans-Serif" font-size="10.00">restore_redirs</text>
</a>
</g>
</g>
<!-- Node2 -->
<g id="Node000002" class="node">
<title>Node2</title>
<g id="a_Node000002"><a xlink:href="ast__run_8c.html#aa3e6a973e744d748ee415840596beb53" target="_top" xlink:title=" ">
<polygon fill="white" stroke="#666666" points="901,-284 792,-284 792,-265 901,-265 901,-284"/>
<text text-anchor="middle" x="846.5" y="-272" font-family="Helvetica,sans-Serif" font-size="10.00">ast_run_shell_redir</text>
</a>
</g>
</g>
<!-- Node1&#45;&gt;Node2 -->
<g id="edge1_Node000001_Node000002" class="edge">
<title>Node1&#45;&gt;Node2</title>
<g id="a_edge1_Node000001_Node000002"><a xlink:title=" ">
<path fill="none" stroke="#63b8ff" d="M967.26,-66.18C940.77,-112.25 873.01,-230.13 853.09,-264.78"/>
<polygon fill="#63b8ff" stroke="#63b8ff" points="970.44,-67.67 972.39,-57.25 964.37,-64.18 970.44,-67.67"/>
</a>
</g>
</g>
<!-- Node18 -->
<g id="Node000018" class="node">
<title>Node18</title>
<g id="a_Node000018"><a xlink:href="exec_8c.html#a287d81b4658832f192750310e2925917" target="_top" xlink:title="Execute the builtin command with given args.">
<polygon fill="white" stroke="#666666" points="266,-95 216,-95 216,-76 266,-76 266,-95"/>
<text text-anchor="middle" x="241" y="-83" font-family="Helvetica,sans-Serif" font-size="10.00">exec_b</text>
</a>
</g>
</g>
<!-- Node1&#45;&gt;Node18 -->
<g id="edge31_Node000001_Node000018" class="edge">
<title>Node1&#45;&gt;Node18</title>
<g id="a_edge31_Node000001_Node000018"><a xlink:title=" ">
<path fill="none" stroke="#63b8ff" d="M926.48,-47.5C871.87,-47.5 783.11,-47.5 706.5,-47.5 706.5,-47.5 706.5,-47.5 451.5,-47.5 384.52,-47.5 367.41,-52.11 302,-66.5 290.05,-69.13 277.07,-73.09 266.25,-76.72"/>
<polygon fill="#63b8ff" stroke="#63b8ff" points="926.6,-51 936.6,-47.5 926.6,-44 926.6,-51"/>
</a>
</g>
</g>
<!-- Node19 -->
<g id="Node000019" class="node">
<title>Node19</title>
<g id="a_Node000019"><a xlink:href="exec_8c.html#a60ea263265f67ff588c7de955c83bcec" target="_top" xlink:title="Exec assignments in cmd.">
<polygon fill="white" stroke="#666666" points="756,-19 655,-19 655,0 756,0 756,-19"/>
<text text-anchor="middle" x="705.5" y="-7" font-family="Helvetica,sans-Serif" font-size="10.00">exec_assignment</text>
</a>
</g>
</g>
<!-- Node1&#45;&gt;Node19 -->
<g id="edge29_Node000001_Node000019" class="edge">
<title>Node1&#45;&gt;Node19</title>
<g id="a_edge29_Node000001_Node000019"><a xlink:title=" ">
<path fill="none" stroke="#63b8ff" d="M926.93,-37.79C918.29,-36.27 909.4,-34.78 901,-33.5 851.89,-26.01 795.54,-19.26 756.17,-14.84"/>
<polygon fill="#63b8ff" stroke="#63b8ff" points="926.45,-41.26 936.91,-39.58 927.69,-34.37 926.45,-41.26"/>
</a>
</g>
</g>
<!-- Node3 -->
<g id="Node000003" class="node">
<title>Node3</title>
<g id="a_Node000003"><a xlink:href="ast_8c.html#a572345b2707780bbbc5bbaacdca9c372" target="_top" xlink:title=" ">
<polygon fill="white" stroke="#666666" points="732,-284 679,-284 679,-265 732,-265 732,-284"/>
<text text-anchor="middle" x="705.5" y="-272" font-family="Helvetica,sans-Serif" font-size="10.00">run_ast</text>
</a>
</g>
</g>
<!-- Node2&#45;&gt;Node3 -->
<g id="edge2_Node000002_Node000003" class="edge">
<title>Node2&#45;&gt;Node3</title>
<g id="a_edge2_Node000002_Node000003"><a xlink:title=" ">
<path fill="none" stroke="#63b8ff" d="M781.56,-267.77C764.09,-267.65 746.14,-268.1 732.18,-269.12"/>
<polygon fill="#63b8ff" stroke="#63b8ff" points="781.71,-271.27 791.76,-267.91 781.81,-264.27 781.71,-271.27"/>
</a>
</g>
</g>
<!-- Node3&#45;&gt;Node2 -->
<g id="edge14_Node000003_Node000002" class="edge">
<title>Node3&#45;&gt;Node2</title>
<g id="a_edge14_Node000003_Node000002"><a xlink:title=" ">
<path fill="none" stroke="#63b8ff" d="M742.57,-280.5C757.56,-281.23 775.28,-281.43 791.76,-281.09"/>
<polygon fill="#63b8ff" stroke="#63b8ff" points="742.38,-276.98 732.18,-279.88 741.96,-283.97 742.38,-276.98"/>
</a>
</g>
</g>
<!-- Node4 -->
<g id="Node000004" class="node">
<title>Node4</title>
<g id="a_Node000004"><a xlink:href="ast__run_8c.html#a8a01fec616135007fc5b3968a101901b" target="_top" xlink:title=" ">
<polygon fill="white" stroke="#666666" points="619,-413 528,-413 528,-394 619,-394 619,-413"/>
<text text-anchor="middle" x="573.5" y="-401" font-family="Helvetica,sans-Serif" font-size="10.00">ast_run_and_or</text>
</a>
</g>
</g>
<!-- Node3&#45;&gt;Node4 -->
<g id="edge3_Node000003_Node000004" class="edge">
<title>Node3&#45;&gt;Node4</title>
<g id="a_edge3_Node000003_Node000004"><a xlink:title=" ">
<path fill="none" stroke="#63b8ff" d="M690.76,-292.53C675.92,-315.1 650.16,-352.84 619,-376.5 608.78,-384.26 594.75,-389.2 585.2,-393.86"/>
<polygon fill="#63b8ff" stroke="#63b8ff" points="693.7,-294.43 696.26,-284.15 687.85,-290.59 693.7,-294.43"/>
</a>
</g>
</g>
<!-- Node5 -->
<g id="Node000005" class="node">
<title>Node5</title>
<g id="a_Node000005"><a xlink:href="ast__run_8c.html#a9d83d4834a61ffe21eb77838d70ae173" target="_top" xlink:title=" ">
<polygon fill="white" stroke="#666666" points="609,-376 538,-376 538,-357 609,-357 609,-376"/>
<text text-anchor="middle" x="573.5" y="-364" font-family="Helvetica,sans-Serif" font-size="10.00">ast_run_for</text>
</a>
</g>
</g>
<!-- Node3&#45;&gt;Node5 -->
<g id="edge5_Node000003_Node000005" class="edge">
<title>Node3&#45;&gt;Node5</title>
<g id="a_edge5_Node000003_Node000005"><a xlink:title=" ">
<path fill="none" stroke="#63b8ff" d="M680.86,-291.12C664.57,-305.48 641.82,-325.54 619,-339.5 607.62,-346.46 593.09,-351.75 583.78,-356.94"/>
<polygon fill="#63b8ff" stroke="#63b8ff" points="683.54,-293.42 688.75,-284.2 678.93,-288.16 683.54,-293.42"/>
</a>
</g>
</g>
<!-- Node6 -->
<g id="Node000006" class="node">
<title>Node6</title>
<g id="a_Node000006"><a xlink:href="ast__run_8c.html#a0a7138b1f2608ea36211c9b78988c248" target="_top" xlink:title=" ">
<polygon fill="white" stroke="#666666" points="606,-339 541,-339 541,-320 606,-320 606,-339"/>
<text text-anchor="middle" x="573.5" y="-327" font-family="Helvetica,sans-Serif" font-size="10.00">ast_run_if</text>
</a>
</g>
</g>
<!-- Node3&#45;&gt;Node6 -->
<g id="edge7_Node000003_Node000006" class="edge">
<title>Node3&#45;&gt;Node6</title>
<g id="a_edge7_Node000003_Node000006"><a xlink:title=" ">
<path fill="none" stroke="#63b8ff" d="M669.12,-281.77C653.75,-287.73 635.52,-295.58 619,-302.5 606.24,-307.84 591.32,-313.82 582.4,-319.82"/>
<polygon fill="#63b8ff" stroke="#63b8ff" points="670.62,-284.94 678.75,-278.15 668.16,-278.39 670.62,-284.94"/>
</a>
</g>
</g>
<!-- Node7 -->
<g id="Node000007" class="node">
<title>Node7</title>
<g id="a_Node000007"><a xlink:href="ast__run_8c.html#ae25cd3ced8abafd76110dba8852a6b87" target="_top" xlink:title=" ">
<polygon fill="white" stroke="#666666" points="610,-284 537,-284 537,-265 610,-265 610,-284"/>
<text text-anchor="middle" x="573.5" y="-272" font-family="Helvetica,sans-Serif" font-size="10.00">ast_run_list</text>
</a>
</g>
</g>
<!-- Node3&#45;&gt;Node7 -->
<g id="edge9_Node000003_Node000007" class="edge">
<title>Node3&#45;&gt;Node7</title>
<g id="a_edge9_Node000003_Node000007"><a xlink:title=" ">
<path fill="none" stroke="#63b8ff" d="M668.65,-268.39C650.53,-267.54 628.6,-267.54 610.46,-268.39"/>
<polygon fill="#63b8ff" stroke="#63b8ff" points="668.63,-271.9 678.82,-269 669.04,-264.91 668.63,-271.9"/>
</a>
</g>
</g>
<!-- Node8 -->
<g id="Node000008" class="node">
<title>Node8</title>
<g id="a_Node000008"><a xlink:href="ast__run_8c.html#a536f37ba9bffcd2099fef668656181e0" target="_top" xlink:title=" ">
<polygon fill="white" stroke="#666666" points="613,-247 534,-247 534,-228 613,-228 613,-247"/>
<text text-anchor="middle" x="573.5" y="-235" font-family="Helvetica,sans-Serif" font-size="10.00">ast_run_loop</text>
</a>
</g>
</g>
<!-- Node3&#45;&gt;Node8 -->
<g id="edge12_Node000003_Node000008" class="edge">
<title>Node3&#45;&gt;Node8</title>
<g id="a_edge12_Node000003_Node000008"><a xlink:title=" ">
<path fill="none" stroke="#63b8ff" d="M677.88,-261.35C659.22,-254.73 633.97,-247.33 613.1,-242.26"/>
<polygon fill="#63b8ff" stroke="#63b8ff" points="676.91,-264.73 687.5,-264.93 679.35,-258.17 676.91,-264.73"/>
</a>
</g>
</g>
<!-- Node9 -->
<g id="Node000009" class="node">
<title>Node9</title>
<g id="a_Node000009"><a xlink:href="exec_8c.html#a23babf893bbcd2f6126698a1a19b169f" target="_top" xlink:title="Execute funct with given arguments.">
<polygon fill="white" stroke="#666666" points="372,-133 307,-133 307,-114 372,-114 372,-133"/>
<text text-anchor="middle" x="339.5" y="-121" font-family="Helvetica,sans-Serif" font-size="10.00">exec_func</text>
</a>
</g>
</g>
<!-- Node3&#45;&gt;Node9 -->
<g id="edge15_Node000003_Node000009" class="edge">
<title>Node3&#45;&gt;Node9</title>
<g id="a_edge15_Node000003_Node000009"><a xlink:title=" ">
<path fill="none" stroke="#63b8ff" d="M697.75,-255.23C686.48,-226.22 660.82,-172.12 619,-147.5 540.38,-101.21 427.04,-109.97 372.37,-117.88"/>
<polygon fill="#63b8ff" stroke="#63b8ff" points="694.5,-256.52 701.26,-264.68 701.06,-254.09 694.5,-256.52"/>
</a>
</g>
</g>
<!-- Node12 -->
<g id="Node000012" class="node">
<title>Node12</title>
<g id="a_Node000012"><a xlink:href="exec_8c.html#ab743cb88e12e9b922050925fd2075e36" target="_top" xlink:title="Execute a pipeline of commands.">
<polygon fill="white" stroke="#666666" points="606,-487 541,-487 541,-468 606,-468 606,-487"/>
<text text-anchor="middle" x="573.5" y="-475" font-family="Helvetica,sans-Serif" font-size="10.00">exec_pipe</text>
</a>
</g>
</g>
<!-- Node3&#45;&gt;Node12 -->
<g id="edge19_Node000003_Node000012" class="edge">
<title>Node3&#45;&gt;Node12</title>
<g id="a_edge19_Node000003_Node000012"><a xlink:title=" ">
<path fill="none" stroke="#63b8ff" d="M700.5,-294.02C691.94,-331.14 668.45,-412.39 619,-459.5 615.38,-462.95 611.01,-465.77 606.45,-468.07"/>
<polygon fill="#63b8ff" stroke="#63b8ff" points="703.98,-294.52 702.69,-284.01 697.14,-293.03 703.98,-294.52"/>
</a>
</g>
</g>
<!-- Node14 -->
<g id="Node000014" class="node">
<title>Node14</title>
<g id="a_Node000014"><a xlink:href="42sh_8c.html#a3c04138a5bfe5d72780bb7e82a18e627" target="_top" xlink:title=" ">
<polygon fill="white" stroke="#666666" points="594,-450 553,-450 553,-431 594,-431 594,-450"/>
<text text-anchor="middle" x="573.5" y="-438" font-family="Helvetica,sans-Serif" font-size="10.00">main</text>
</a>
</g>
</g>
<!-- Node3&#45;&gt;Node14 -->
<g id="edge23_Node000003_Node000014" class="edge">
<title>Node3&#45;&gt;Node14</title>
<g id="a_edge23_Node000003_Node000014"><a xlink:title=" ">
<path fill="none" stroke="#63b8ff" d="M698.01,-293.94C686.68,-325.12 660.47,-386.45 619,-422.5 611.96,-428.62 602.56,-432.83 594.21,-435.63"/>
<polygon fill="#63b8ff" stroke="#63b8ff" points="701.4,-294.86 701.4,-284.26 694.79,-292.54 701.4,-294.86"/>
</a>
</g>
</g>
<!-- Node15 -->
<g id="Node000015" class="node">
<title>Node15</title>
<g id="a_Node000015"><a xlink:href="dot_8c.html#a17477ee2b0f1b8b9306566c990d15b35" target="_top" xlink:title="Main loop of dot builtin.">
<polygon fill="white" stroke="#666666" points="607.5,-95 539.5,-95 539.5,-76 607.5,-76 607.5,-95"/>
<text text-anchor="middle" x="573.5" y="-83" font-family="Helvetica,sans-Serif" font-size="10.00">main_loop</text>
</a>
</g>
</g>
<!-- Node3&#45;&gt;Node15 -->
<g id="edge24_Node000003_Node000015" class="edge">
<title>Node3&#45;&gt;Node15</title>
<g id="a_edge24_Node000003_Node000015"><a xlink:title=" ">
<path fill="none" stroke="#63b8ff" d="M698.57,-254.79C687.64,-221.29 661.48,-152.69 619,-109.5 613.21,-103.62 605.68,-98.82 598.46,-95.1"/>
<polygon fill="#63b8ff" stroke="#63b8ff" points="695.35,-256.23 701.69,-264.72 702.03,-254.13 695.35,-256.23"/>
</a>
</g>
</g>
<!-- Node4&#45;&gt;Node3 -->
<g id="edge4_Node000004_Node000003" class="edge">
<title>Node4&#45;&gt;Node3</title>
<g id="a_edge4_Node000004_Node000003"><a xlink:title=" ">
<path fill="none" stroke="#63b8ff" d="M627.53,-387.57C664.61,-355.48 692.72,-305.51 701.57,-284.01"/>
<polygon fill="#63b8ff" stroke="#63b8ff" points="625.02,-385.1 619.48,-394.13 629.45,-390.52 625.02,-385.1"/>
</a>
</g>
</g>
<!-- Node5&#45;&gt;Node3 -->
<g id="edge6_Node000005_Node000003" class="edge">
<title>Node5&#45;&gt;Node3</title>
<g id="a_edge6_Node000005_Node000003"><a xlink:title=" ">
<path fill="none" stroke="#63b8ff" d="M618.11,-358.03C618.41,-357.86 618.71,-357.68 619,-357.5 653.33,-336.5 687.51,-301.68 699.76,-284.02"/>
<polygon fill="#63b8ff" stroke="#63b8ff" points="616.29,-355.04 609.07,-362.8 619.55,-361.23 616.29,-355.04"/>
</a>
</g>
</g>
<!-- Node6&#45;&gt;Node3 -->
<g id="edge8_Node000006_Node000003" class="edge">
<title>Node6&#45;&gt;Node3</title>
<g id="a_edge8_Node000006_Node000003"><a xlink:title=" ">
<path fill="none" stroke="#63b8ff" d="M615.45,-321.98C616.65,-321.48 617.83,-320.99 619,-320.5 646.9,-308.82 679.66,-294.46 695.29,-284.06"/>
<polygon fill="#63b8ff" stroke="#63b8ff" points="614.11,-318.74 606.14,-325.73 616.72,-325.24 614.11,-318.74"/>
</a>
</g>
</g>
<!-- Node7&#45;&gt;Node3 -->
<g id="edge11_Node000007_Node000003" class="edge">
<title>Node7&#45;&gt;Node3</title>
<g id="a_edge11_Node000007_Node000003"><a xlink:title=" ">
<path fill="none" stroke="#63b8ff" d="M620.71,-280.99C640.25,-281.54 662.26,-281.21 678.82,-280"/>
<polygon fill="#63b8ff" stroke="#63b8ff" points="620.59,-277.49 610.46,-280.61 620.33,-284.48 620.59,-277.49"/>
</a>
</g>
</g>
<!-- Node7&#45;&gt;Node7 -->
<g id="edge10_Node000007_Node000007" class="edge">
<title>Node7&#45;&gt;Node7</title>
<g id="a_edge10_Node000007_Node000007"><a xlink:title=" ">
<path fill="none" stroke="#63b8ff" d="M595.72,-293.55C594.24,-298.38 586.83,-302 573.5,-302 552.17,-302 546.01,-292.73 555,-284.08"/>
<polygon fill="#63b8ff" stroke="#63b8ff" points="598.91,-292.11 592,-284.08 592.4,-294.67 598.91,-292.11"/>
</a>
</g>
</g>
<!-- Node8&#45;&gt;Node3 -->
<g id="edge13_Node000008_Node000003" class="edge">
<title>Node8&#45;&gt;Node3</title>
<g id="a_edge13_Node000008_Node000003"><a xlink:title=" ">
<path fill="none" stroke="#63b8ff" d="M600.83,-250.54C623.57,-258.63 656.26,-267.92 678.82,-272.69"/>
<polygon fill="#63b8ff" stroke="#63b8ff" points="602.04,-247.26 591.44,-247.05 599.59,-253.82 602.04,-247.26"/>
</a>
</g>
</g>
<!-- Node10 -->
<g id="Node000010" class="node">
<title>Node10</title>
<g id="a_Node000010"><a xlink:href="exec_8c.html#ae65edaa99b26b49d60c451157d38b34a" target="_top" xlink:title="Execute les commandes avec les args donnes.">
<polygon fill="white" stroke="#666666" points="180,-114 115,-114 115,-95 180,-95 180,-114"/>
<text text-anchor="middle" x="147.5" y="-102" font-family="Helvetica,sans-Serif" font-size="10.00">exec_cmd</text>
</a>
</g>
</g>
<!-- Node9&#45;&gt;Node10 -->
<g id="edge16_Node000009_Node000010" class="edge">
<title>Node9&#45;&gt;Node10</title>
<g id="a_edge16_Node000009_Node000010"><a xlink:title=" ">
<path fill="none" stroke="#63b8ff" d="M296.73,-119.32C261.57,-115.81 212.03,-110.85 180.09,-107.66"/>
<polygon fill="#63b8ff" stroke="#63b8ff" points="296.4,-122.81 306.7,-120.32 297.1,-115.84 296.4,-122.81"/>
</a>
</g>
</g>
<!-- Node11 -->
<g id="Node000011" class="node">
<title>Node11</title>
<g id="a_Node000011"><a xlink:href="ast__run_8c.html#aeb6878a59c6907e5669fc3cc428913d9" target="_top" xlink:title=" ">
<polygon fill="white" stroke="#666666" points="79,-133 0,-133 0,-114 79,-114 79,-133"/>
<text text-anchor="middle" x="39.5" y="-121" font-family="Helvetica,sans-Serif" font-size="10.00">ast_run_cmd</text>
</a>
</g>
</g>
<!-- Node10&#45;&gt;Node11 -->
<g id="edge17_Node000010_Node000011" class="edge">
<title>Node10&#45;&gt;Node11</title>
<g id="a_edge17_Node000010_Node000011"><a xlink:title=" ">
<path fill="none" stroke="#63b8ff" d="M104.92,-111.95C96.45,-113.47 87.58,-115.06 79.21,-116.56"/>
<polygon fill="#63b8ff" stroke="#63b8ff" points="105.76,-115.36 114.98,-110.15 104.52,-108.47 105.76,-115.36"/>
</a>
</g>
</g>
<!-- Node11&#45;&gt;Node3 -->
<g id="edge18_Node000011_Node000003" class="edge">
<title>Node11&#45;&gt;Node3</title>
<g id="a_edge18_Node000011_Node000003"><a xlink:title=" ">
<path fill="none" stroke="#63b8ff" d="M80.91,-135.82C120.91,-146.92 184.09,-161.5 240,-161.5 453.5,-161.5 453.5,-161.5 453.5,-161.5 529.39,-161.5 551.37,-169.08 619,-203.5 650.64,-219.6 680.97,-249.24 695.52,-264.63"/>
<polygon fill="#63b8ff" stroke="#63b8ff" points="81.83,-132.45 71.25,-133.09 79.92,-139.18 81.83,-132.45"/>
</a>
</g>
</g>
<!-- Node12&#45;&gt;Node12 -->
<g id="edge22_Node000012_Node000012" class="edge">
<title>Node12&#45;&gt;Node12</title>
<g id="a_edge22_Node000012_Node000012"><a xlink:title=" ">
<path fill="none" stroke="#63b8ff" d="M595.72,-496.55C594.24,-501.38 586.83,-505 573.5,-505 552.17,-505 546.01,-495.73 555,-487.08"/>
<polygon fill="#63b8ff" stroke="#63b8ff" points="598.91,-495.11 592,-487.08 592.4,-497.67 598.91,-495.11"/>
</a>
</g>
</g>
<!-- Node13 -->
<g id="Node000013" class="node">
<title>Node13</title>
<g id="a_Node000013"><a xlink:href="ast__run_8c.html#a24d0223822f7b635628199085c3283be" target="_top" xlink:title=" ">
<polygon fill="white" stroke="#666666" points="492,-348 413,-348 413,-329 492,-329 492,-348"/>
<text text-anchor="middle" x="452.5" y="-336" font-family="Helvetica,sans-Serif" font-size="10.00">ast_run_pipe</text>
</a>
</g>
</g>
<!-- Node12&#45;&gt;Node13 -->
<g id="edge20_Node000012_Node000013" class="edge">
<title>Node12&#45;&gt;Node13</title>
<g id="a_edge20_Node000012_Node000013"><a xlink:title=" ">
<path fill="none" stroke="#63b8ff" d="M532.29,-462.74C530.8,-461.73 529.36,-460.65 528,-459.5 489.94,-427.33 465.56,-370.59 456.97,-348.09"/>
<polygon fill="#63b8ff" stroke="#63b8ff" points="530.94,-466 541.37,-467.9 534.4,-459.92 530.94,-466"/>
</a>
</g>
</g>
<!-- Node13&#45;&gt;Node3 -->
<g id="edge21_Node000013_Node000003" class="edge">
<title>Node13&#45;&gt;Node3</title>
<g id="a_edge21_Node000013_Node000003"><a xlink:title=" ">
<path fill="none" stroke="#63b8ff" d="M459.14,-318.93C468.36,-291 489.6,-240.77 528,-219.5 563.38,-199.91 580.2,-208.1 619,-219.5 649.31,-228.41 679.04,-251.75 694.17,-264.98"/>
<polygon fill="#63b8ff" stroke="#63b8ff" points="455.71,-318.16 456.09,-328.75 462.4,-320.23 455.71,-318.16"/>
</a>
</g>
</g>
<!-- Node16 -->
<g id="Node000016" class="node">
<title>Node16</title>
<g id="a_Node000016"><a xlink:href="dot_8c.html#a713938d3c6ee343132c429642048bcf6" target="_top" xlink:title="Execute the dot builtin cmd.">
<polygon fill="white" stroke="#666666" points="474.5,-95 430.5,-95 430.5,-76 474.5,-76 474.5,-95"/>
<text text-anchor="middle" x="452.5" y="-83" font-family="Helvetica,sans-Serif" font-size="10.00">dot_b</text>
</a>
</g>
</g>
<!-- Node15&#45;&gt;Node16 -->
<g id="edge25_Node000015_Node000016" class="edge">
<title>Node15&#45;&gt;Node16</title>
<g id="a_edge25_Node000015_Node000016"><a xlink:title=" ">
<path fill="none" stroke="#63b8ff" d="M529.34,-85.5C510.81,-85.5 489.99,-85.5 474.86,-85.5"/>
<polygon fill="#63b8ff" stroke="#63b8ff" points="529.35,-89 539.35,-85.5 529.35,-82 529.35,-89"/>
</a>
</g>
</g>
<!-- Node17 -->
<g id="Node000017" class="node">
<title>Node17</title>
<g id="a_Node000017"><a xlink:href="exec_8c.html#abaeb177587c7eec6a064b35bb8399cae" target="_top" xlink:title="Execute builtin cmd with given args.">
<polygon fill="white" stroke="#666666" points="377,-95 302,-95 302,-76 377,-76 377,-95"/>
<text text-anchor="middle" x="339.5" y="-83" font-family="Helvetica,sans-Serif" font-size="10.00">exec_builtin</text>
</a>
</g>
</g>
<!-- Node16&#45;&gt;Node17 -->
<g id="edge26_Node000016_Node000017" class="edge">
<title>Node16&#45;&gt;Node17</title>
<g id="a_edge26_Node000016_Node000017"><a xlink:title=" ">
<path fill="none" stroke="#63b8ff" d="M420.23,-85.5C406.88,-85.5 391.2,-85.5 377.3,-85.5"/>
<polygon fill="#63b8ff" stroke="#63b8ff" points="420.36,-89 430.36,-85.5 420.36,-82 420.36,-89"/>
</a>
</g>
</g>
<!-- Node17&#45;&gt;Node18 -->
<g id="edge27_Node000017_Node000018" class="edge">
<title>Node17&#45;&gt;Node18</title>
<g id="a_edge27_Node000017_Node000018"><a xlink:title=" ">
<path fill="none" stroke="#63b8ff" d="M291.51,-85.5C282.71,-85.5 273.86,-85.5 266.12,-85.5"/>
<polygon fill="#63b8ff" stroke="#63b8ff" points="291.74,-89 301.74,-85.5 291.74,-82 291.74,-89"/>
</a>
</g>
</g>
<!-- Node18&#45;&gt;Node10 -->
<g id="edge28_Node000018_Node000010" class="edge">
<title>Node18&#45;&gt;Node10</title>
<g id="a_edge28_Node000018_Node000010"><a xlink:title=" ">
<path fill="none" stroke="#63b8ff" d="M206.05,-92.55C197.62,-94.3 188.62,-96.17 180.3,-97.9"/>
<polygon fill="#63b8ff" stroke="#63b8ff" points="206.88,-95.95 215.96,-90.49 205.46,-89.1 206.88,-95.95"/>
</a>
</g>
</g>
<!-- Node19&#45;&gt;Node10 -->
<g id="edge30_Node000019_Node000010" class="edge">
<title>Node19&#45;&gt;Node10</title>
<g id="a_edge30_Node000019_Node000010"><a xlink:title=" ">
<path fill="none" stroke="#63b8ff" d="M644.81,-9.5C593.96,-9.5 518.93,-9.5 453.5,-9.5 453.5,-9.5 453.5,-9.5 338.5,-9.5 262.9,-9.5 186.54,-70.42 159.12,-94.69"/>
<polygon fill="#63b8ff" stroke="#63b8ff" points="644.97,-13 654.97,-9.5 644.97,-6 644.97,-13"/>
</a>
</g>
</g>
</g>
</svg>
