<?xml version="1.0" encoding="UTF-8" standalone="no"?>
<!DOCTYPE svg PUBLIC "-//W3C//DTD SVG 1.1//EN"
 "http://www.w3.org/Graphics/SVG/1.1/DTD/svg11.dtd">
<!-- Generated by graphviz version 2.43.0 (0)
 -->
<!-- Title: free_redir Pages: 1 -->
<svg width="2312pt" height="610pt"
 viewBox="0.00 0.00 2312.00 609.50" xmlns="http://www.w3.org/2000/svg" xmlns:xlink="http://www.w3.org/1999/xlink">
<g id="graph0" class="graph" transform="scale(1 1) rotate(0) translate(4 605.5)">
<title>free_redir</title>
<!-- Node1 -->
<g id="Node000001" class="node">
<title>Node1</title>
<g id="a_Node000001"><a xlink:title="Free redir struct.">
<polygon fill="#999999" stroke="#666666" points="2304,-549 2240,-549 2240,-530 2304,-530 2304,-549"/>
<text text-anchor="middle" x="2272" y="-537" font-family="Helvetica,sans-Serif" font-size="10.00">free_redir</text>
</a>
</g>
</g>
<!-- Node2 -->
<g id="Node000002" class="node">
<title>Node2</title>
<g id="a_Node000002"><a xlink:href="parser__redirections_8c.html#a34130e6d959e97ce9b1c87f1e42973ba" target="_top" xlink:title="Parse a redirection.">
<polygon fill="white" stroke="#666666" points="2204,-530 2129,-530 2129,-511 2204,-511 2204,-530"/>
<text text-anchor="middle" x="2166.5" y="-518" font-family="Helvetica,sans-Serif" font-size="10.00">parser_redir</text>
</a>
</g>
</g>
<!-- Node1&#45;&gt;Node2 -->
<g id="edge1_Node000001_Node000002" class="edge">
<title>Node1&#45;&gt;Node2</title>
<g id="a_edge1_Node000001_Node000002"><a xlink:title=" ">
<path fill="none" stroke="#63b8ff" d="M2229.92,-531.96C2221.48,-530.41 2212.65,-528.79 2204.37,-527.27"/>
<polygon fill="#63b8ff" stroke="#63b8ff" points="2229.48,-535.44 2239.95,-533.8 2230.74,-528.55 2229.48,-535.44"/>
</a>
</g>
</g>
<!-- Node38 -->
<g id="Node000038" class="node">
<title>Node38</title>
<g id="a_Node000038"><a xlink:href="parser__redirections_8c.html#af22cbfc55d87c3c1c175bb34c8973359" target="_top" xlink:title="Parse a redirection in a shell command context.">
<polygon fill="white" stroke="#666666" points="1946,-582 1842,-582 1842,-563 1946,-563 1946,-582"/>
<text text-anchor="middle" x="1894" y="-570" font-family="Helvetica,sans-Serif" font-size="10.00">parser_redir_shell</text>
</a>
</g>
</g>
<!-- Node1&#45;&gt;Node38 -->
<g id="edge59_Node000001_Node000038" class="edge">
<title>Node1&#45;&gt;Node38</title>
<g id="a_edge59_Node000001_Node000038"><a xlink:title=" ">
<path fill="none" stroke="#63b8ff" d="M2229.84,-543.11C2160.7,-549.18 2021.44,-561.4 1946.14,-568.01"/>
<polygon fill="#63b8ff" stroke="#63b8ff" points="2230.25,-546.59 2239.91,-542.23 2229.64,-539.62 2230.25,-546.59"/>
</a>
</g>
</g>
<!-- Node3 -->
<g id="Node000003" class="node">
<title>Node3</title>
<g id="a_Node000003"><a xlink:href="parser__redirections_8c.html#a3c820cbe7e06249f3a043137fafe26e7" target="_top" xlink:title="Handle an element in a command: either a word or a redirection.">
<polygon fill="white" stroke="#666666" points="2093,-493 2000,-493 2000,-474 2093,-474 2093,-493"/>
<text text-anchor="middle" x="2046.5" y="-481" font-family="Helvetica,sans-Serif" font-size="10.00">parser_element</text>
</a>
</g>
</g>
<!-- Node2&#45;&gt;Node3 -->
<g id="edge2_Node000002_Node000003" class="edge">
<title>Node2&#45;&gt;Node3</title>
<g id="a_edge2_Node000002_Node000003"><a xlink:title=" ">
<path fill="none" stroke="#63b8ff" d="M2125.31,-507.9C2109.9,-503.07 2092.58,-497.63 2078.2,-493.12"/>
<polygon fill="#63b8ff" stroke="#63b8ff" points="2124.52,-511.32 2135.11,-510.97 2126.62,-504.64 2124.52,-511.32"/>
</a>
</g>
</g>
<!-- Node37 -->
<g id="Node000037" class="node">
<title>Node37</title>
<g id="a_Node000037"><a xlink:href="parser__redirections_8c.html#af19404319b0e9a74ec8c4c3f6a0cf849" target="_top" xlink:title="Handle a prefix in a command: either an assignment or a redirection.">
<polygon fill="white" stroke="#666666" points="2086.5,-530 2006.5,-530 2006.5,-511 2086.5,-511 2086.5,-530"/>
<text text-anchor="middle" x="2046.5" y="-518" font-family="Helvetica,sans-Serif" font-size="10.00">parser_prefix</text>
</a>
</g>
</g>
<!-- Node2&#45;&gt;Node37 -->
<g id="edge57_Node000002_Node000037" class="edge">
<title>Node2&#45;&gt;Node37</title>
<g id="a_edge57_Node000002_Node000037"><a xlink:title=" ">
<path fill="none" stroke="#63b8ff" d="M2118.81,-520.5C2108.15,-520.5 2096.93,-520.5 2086.62,-520.5"/>
<polygon fill="#63b8ff" stroke="#63b8ff" points="2118.81,-524 2128.81,-520.5 2118.81,-517 2118.81,-524"/>
</a>
</g>
</g>
<!-- Node4 -->
<g id="Node000004" class="node">
<title>Node4</title>
<g id="a_Node000004"><a xlink:href="parser__commands_8c.html#a8de59a4400a37b3e42d6475270cd5425" target="_top" xlink:title="Group words in a command in order to form a list of commands.">
<polygon fill="white" stroke="#666666" points="1964,-493 1824,-493 1824,-474 1964,-474 1964,-493"/>
<text text-anchor="middle" x="1894" y="-481" font-family="Helvetica,sans-Serif" font-size="10.00">parser_simple_command</text>
</a>
</g>
</g>
<!-- Node3&#45;&gt;Node4 -->
<g id="edge3_Node000003_Node000004" class="edge">
<title>Node3&#45;&gt;Node4</title>
<g id="a_edge3_Node000003_Node000004"><a xlink:title=" ">
<path fill="none" stroke="#63b8ff" d="M1989.87,-483.5C1981.45,-483.5 1972.68,-483.5 1964.02,-483.5"/>
<polygon fill="#63b8ff" stroke="#63b8ff" points="1989.94,-487 1999.94,-483.5 1989.94,-480 1989.94,-487"/>
</a>
</g>
</g>
<!-- Node5 -->
<g id="Node000005" class="node">
<title>Node5</title>
<g id="a_Node000005"><a xlink:href="parser__commands_8c.html#aa7191f56bd8e70874c5c381e52186807" target="_top" xlink:title="Parse a command which can be either a simple command or a shell command.">
<polygon fill="white" stroke="#666666" points="1788,-493 1687,-493 1687,-474 1788,-474 1788,-493"/>
<text text-anchor="middle" x="1737.5" y="-481" font-family="Helvetica,sans-Serif" font-size="10.00">parser_command</text>
</a>
</g>
</g>
<!-- Node4&#45;&gt;Node5 -->
<g id="edge4_Node000004_Node000005" class="edge">
<title>Node4&#45;&gt;Node5</title>
<g id="a_edge4_Node000004_Node000005"><a xlink:title=" ">
<path fill="none" stroke="#63b8ff" d="M1813.68,-483.5C1804.98,-483.5 1796.31,-483.5 1788.12,-483.5"/>
<polygon fill="#63b8ff" stroke="#63b8ff" points="1813.88,-487 1823.88,-483.5 1813.88,-480 1813.88,-487"/>
</a>
</g>
</g>
<!-- Node6 -->
<g id="Node000006" class="node">
<title>Node6</title>
<g id="a_Node000006"><a xlink:href="parser__pipelines_8c.html#a06068cdf8924fb28f414f419d84a5eae" target="_top" xlink:title="Parse and_or blocks separated by &#39;|&#39; (pipes)">
<polygon fill="white" stroke="#666666" points="1651,-478 1559,-478 1559,-459 1651,-459 1651,-478"/>
<text text-anchor="middle" x="1605" y="-466" font-family="Helvetica,sans-Serif" font-size="10.00">parser_pipeline</text>
</a>
</g>
</g>
<!-- Node5&#45;&gt;Node6 -->
<g id="edge5_Node000005_Node000006" class="edge">
<title>Node5&#45;&gt;Node6</title>
<g id="a_edge5_Node000005_Node000006"><a xlink:title=" ">
<path fill="none" stroke="#63b8ff" d="M1676.81,-476.64C1668.23,-475.65 1659.53,-474.65 1651.29,-473.71"/>
<polygon fill="#63b8ff" stroke="#63b8ff" points="1676.46,-480.12 1686.79,-477.79 1677.26,-473.17 1676.46,-480.12"/>
</a>
</g>
</g>
<!-- Node7 -->
<g id="Node000007" class="node">
<title>Node7</title>
<g id="a_Node000007"><a xlink:href="parser__pipelines_8c.html#a85ca4872d7efdb8b0cd643037ccd5763" target="_top" xlink:title="Parse and_or blocks separated by &#39;&amp;&amp;&#39; or &#39;||&#39;.">
<polygon fill="white" stroke="#666666" points="1523,-421 1437,-421 1437,-402 1523,-402 1523,-421"/>
<text text-anchor="middle" x="1480" y="-409" font-family="Helvetica,sans-Serif" font-size="10.00">parser_and_or</text>
</a>
</g>
</g>
<!-- Node6&#45;&gt;Node7 -->
<g id="edge6_Node000006_Node000007" class="edge">
<title>Node6&#45;&gt;Node7</title>
<g id="a_edge6_Node000006_Node000007"><a xlink:title=" ">
<path fill="none" stroke="#63b8ff" d="M1574.31,-454.74C1551.84,-444.33 1521.55,-430.29 1501.65,-421.07"/>
<polygon fill="#63b8ff" stroke="#63b8ff" points="1572.87,-457.93 1583.41,-458.96 1575.81,-451.58 1572.87,-457.93"/>
</a>
</g>
</g>
<!-- Node8 -->
<g id="Node000008" class="node">
<title>Node8</title>
<g id="a_Node000008"><a xlink:href="parser__lists_8c.html#aae7a5d6760b83c1a37b0369f82a20500" target="_top" xlink:title="Absorb a chain of and_or separeted by &#39;;&#39; or &#39; &#39;.">
<polygon fill="white" stroke="#666666" points="1401,-421 1277,-421 1277,-402 1401,-402 1401,-421"/>
<text text-anchor="middle" x="1339" y="-409" font-family="Helvetica,sans-Serif" font-size="10.00">parser_compound_list</text>
</a>
</g>
</g>
<!-- Node7&#45;&gt;Node8 -->
<g id="edge7_Node000007_Node000008" class="edge">
<title>Node7&#45;&gt;Node8</title>
<g id="a_edge7_Node000007_Node000008"><a xlink:title=" ">
<path fill="none" stroke="#63b8ff" d="M1426.9,-411.5C1418.5,-411.5 1409.75,-411.5 1401.17,-411.5"/>
<polygon fill="#63b8ff" stroke="#63b8ff" points="1426.92,-415 1436.92,-411.5 1426.92,-408 1426.92,-415"/>
</a>
</g>
</g>
<!-- Node18 -->
<g id="Node000018" class="node">
<title>Node18</title>
<g id="a_Node000018"><a xlink:href="parser__lists_8c.html#a7b9812922acfb4eba24e65d40bd99001" target="_top" xlink:title="Parse list block into sub and_or block(s) separated by semi&#45;colons.">
<polygon fill="white" stroke="#666666" points="1373,-346 1305,-346 1305,-327 1373,-327 1373,-346"/>
<text text-anchor="middle" x="1339" y="-334" font-family="Helvetica,sans-Serif" font-size="10.00">parser_list</text>
</a>
</g>
</g>
<!-- Node7&#45;&gt;Node18 -->
<g id="edge26_Node000007_Node000018" class="edge">
<title>Node7&#45;&gt;Node18</title>
<g id="a_edge26_Node000007_Node000018"><a xlink:title=" ">
<path fill="none" stroke="#63b8ff" d="M1452.31,-397.1C1424.52,-382.1 1381.76,-359.03 1357.82,-346.11"/>
<polygon fill="#63b8ff" stroke="#63b8ff" points="1450.65,-400.18 1461.11,-401.85 1453.97,-394.02 1450.65,-400.18"/>
</a>
</g>
</g>
<!-- Node9 -->
<g id="Node000009" class="node">
<title>Node9</title>
<g id="a_Node000009"><a xlink:href="parser__rules_8c.html#a799f84e24df3eff653f7c0696e348572" target="_top" xlink:title="Parse an elif block when called.">
<polygon fill="white" stroke="#666666" points="1223.5,-535 1155.5,-535 1155.5,-516 1223.5,-516 1223.5,-535"/>
<text text-anchor="middle" x="1189.5" y="-523" font-family="Helvetica,sans-Serif" font-size="10.00">parser_elif</text>
</a>
</g>
</g>
<!-- Node8&#45;&gt;Node9 -->
<g id="edge8_Node000008_Node000009" class="edge">
<title>Node8&#45;&gt;Node9</title>
<g id="a_edge8_Node000008_Node000009"><a xlink:title=" ">
<path fill="none" stroke="#63b8ff" d="M1322.53,-428.72C1304.4,-448.18 1272.78,-479.95 1241,-501.5 1232.8,-507.06 1223.12,-512 1214.44,-515.93"/>
<polygon fill="#63b8ff" stroke="#63b8ff" points="1325.26,-430.93 1329.44,-421.2 1320.1,-426.2 1325.26,-430.93"/>
</a>
</g>
</g>
<!-- Node10 -->
<g id="Node000010" class="node">
<title>Node10</title>
<g id="a_Node000010"><a xlink:href="parser__rules_8c.html#adf5258219dad4f79fdbc7786eb925699" target="_top" xlink:title="Define which parser to use depending on the context.">
<polygon fill="white" stroke="#666666" points="1094.5,-521 984.5,-521 984.5,-502 1094.5,-502 1094.5,-521"/>
<text text-anchor="middle" x="1039.5" y="-509" font-family="Helvetica,sans-Serif" font-size="10.00">parser_else_clause</text>
</a>
</g>
</g>
<!-- Node8&#45;&gt;Node10 -->
<g id="edge16_Node000008_Node000010" class="edge">
<title>Node8&#45;&gt;Node10</title>
<g id="a_edge16_Node000008_Node000010"><a xlink:title=" ">
<path fill="none" stroke="#63b8ff" d="M1314.48,-426.33C1295.32,-437.86 1267.24,-453.52 1241,-463.5 1192.99,-481.76 1135.81,-494.63 1094.82,-502.42"/>
<polygon fill="#63b8ff" stroke="#63b8ff" points="1316.41,-429.25 1323.12,-421.05 1312.76,-423.28 1316.41,-429.25"/>
</a>
</g>
</g>
<!-- Node11 -->
<g id="Node000011" class="node">
<title>Node11</title>
<g id="a_Node000011"><a xlink:href="parser__rules_8c.html#abf9e27d14e7a1c314285114bead78817" target="_top" xlink:title="Handle a &#39;if&#39; block by calling corresponding parser at each step.">
<polygon fill="white" stroke="#666666" points="937.5,-469 854.5,-469 854.5,-450 937.5,-450 937.5,-469"/>
<text text-anchor="middle" x="896" y="-457" font-family="Helvetica,sans-Serif" font-size="10.00">parser_rule_if</text>
</a>
</g>
</g>
<!-- Node8&#45;&gt;Node11 -->
<g id="edge21_Node000008_Node000011" class="edge">
<title>Node8&#45;&gt;Node11</title>
<g id="a_edge21_Node000008_Node000011"><a xlink:title=" ">
<path fill="none" stroke="#63b8ff" d="M1278.15,-422.8C1265.89,-424.88 1253.05,-426.9 1241,-428.5 1131.77,-442.97 1002.12,-452.64 937.63,-456.94"/>
<polygon fill="#63b8ff" stroke="#63b8ff" points="1279.02,-426.2 1288.28,-421.04 1277.83,-419.3 1279.02,-426.2"/>
</a>
</g>
</g>
<!-- Node14 -->
<g id="Node000014" class="node">
<title>Node14</title>
<g id="a_Node000014"><a xlink:href="parser__rules_8c.html#afb9701776de31af668314b48a0b54636" target="_top" xlink:title="Handle a command block enclosed in brackets.">
<polygon fill="white" stroke="#666666" points="1102,-431.5 977,-431.5 977,-401.5 1102,-401.5 1102,-431.5"/>
<text text-anchor="start" x="985" y="-419.5" font-family="Helvetica,sans-Serif" font-size="10.00">parser_rule_command</text>
<text text-anchor="middle" x="1039.5" y="-408.5" font-family="Helvetica,sans-Serif" font-size="10.00">_block</text>
</a>
</g>
</g>
<!-- Node8&#45;&gt;Node14 -->
<g id="edge17_Node000008_Node000014" class="edge">
<title>Node8&#45;&gt;Node14</title>
<g id="a_edge17_Node000008_Node000014"><a xlink:title=" ">
<path fill="none" stroke="#63b8ff" d="M1266.6,-412.7C1216.45,-413.54 1150.06,-414.66 1102.21,-415.46"/>
<polygon fill="#63b8ff" stroke="#63b8ff" points="1266.78,-416.2 1276.72,-412.53 1266.66,-409.2 1266.78,-416.2"/>
</a>
</g>
</g>
<!-- Node15 -->
<g id="Node000015" class="node">
<title>Node15</title>
<g id="a_Node000015"><a xlink:href="parser__rules_8c.html#a55dc38591d3749d39ca3f38f8a2a26dd" target="_top" xlink:title="Handle a for block by calling corresponding parser at each step.">
<polygon fill="white" stroke="#666666" points="941,-386 851,-386 851,-367 941,-367 941,-386"/>
<text text-anchor="middle" x="896" y="-374" font-family="Helvetica,sans-Serif" font-size="10.00">parser_rule_for</text>
</a>
</g>
</g>
<!-- Node8&#45;&gt;Node15 -->
<g id="edge19_Node000008_Node000015" class="edge">
<title>Node8&#45;&gt;Node15</title>
<g id="a_edge19_Node000008_Node000015"><a xlink:title=" ">
<path fill="none" stroke="#63b8ff" d="M1266.84,-405.73C1220,-401.94 1157.35,-396.89 1102,-392.5 1046.66,-388.11 982.91,-383.15 941.39,-379.93"/>
<polygon fill="#63b8ff" stroke="#63b8ff" points="1266.63,-409.22 1276.88,-406.54 1267.2,-402.24 1266.63,-409.22"/>
</a>
</g>
</g>
<!-- Node16 -->
<g id="Node000016" class="node">
<title>Node16</title>
<g id="a_Node000016"><a xlink:href="parser__rules_8c.html#abf1c3edda1bb73d8c86028687922ce95" target="_top" xlink:title="Handle a &#39;until&#39; block by calling corresponding parser at each step.">
<polygon fill="white" stroke="#666666" points="1088.5,-345 990.5,-345 990.5,-326 1088.5,-326 1088.5,-345"/>
<text text-anchor="middle" x="1039.5" y="-333" font-family="Helvetica,sans-Serif" font-size="10.00">parser_rule_until</text>
</a>
</g>
</g>
<!-- Node8&#45;&gt;Node16 -->
<g id="edge22_Node000008_Node000016" class="edge">
<title>Node8&#45;&gt;Node16</title>
<g id="a_edge22_Node000008_Node000016"><a xlink:title=" ">
<path fill="none" stroke="#63b8ff" d="M1315.76,-396.46C1296.76,-384.39 1268.25,-368.1 1241,-359.5 1190.52,-343.57 1129.83,-338.08 1088.54,-336.26"/>
<polygon fill="#63b8ff" stroke="#63b8ff" points="1313.99,-399.48 1324.28,-401.99 1317.8,-393.61 1313.99,-399.48"/>
</a>
</g>
</g>
<!-- Node17 -->
<g id="Node000017" class="node">
<title>Node17</title>
<g id="a_Node000017"><a xlink:href="parser__rules_8c.html#aa6719ad356821f03ad45b1ac0a57d3bd" target="_top" xlink:title="Handle a &#39;while&#39; block by calling corresponding parser at each step.">
<polygon fill="white" stroke="#666666" points="1241,-307 1138,-307 1138,-288 1241,-288 1241,-307"/>
<text text-anchor="middle" x="1189.5" y="-295" font-family="Helvetica,sans-Serif" font-size="10.00">parser_rule_while</text>
</a>
</g>
</g>
<!-- Node8&#45;&gt;Node17 -->
<g id="edge24_Node000008_Node000017" class="edge">
<title>Node8&#45;&gt;Node17</title>
<g id="a_edge24_Node000008_Node000017"><a xlink:title=" ">
<path fill="none" stroke="#63b8ff" d="M1320.16,-394.82C1292.75,-369.21 1243.2,-322.99 1241,-321.5 1232.8,-315.94 1223.12,-311 1214.44,-307.07"/>
<polygon fill="#63b8ff" stroke="#63b8ff" points="1317.86,-397.46 1327.56,-401.73 1322.64,-392.35 1317.86,-397.46"/>
</a>
</g>
</g>
<!-- Node9&#45;&gt;Node10 -->
<g id="edge9_Node000009_Node000010" class="edge">
<title>Node9&#45;&gt;Node10</title>
<g id="a_edge9_Node000009_Node000010"><a xlink:title=" ">
<path fill="none" stroke="#63b8ff" d="M1145.23,-515.2C1129.36,-513.11 1111.21,-511.28 1094.52,-510.08"/>
<polygon fill="#63b8ff" stroke="#63b8ff" points="1144.9,-518.69 1155.29,-516.62 1145.87,-511.76 1144.9,-518.69"/>
</a>
</g>
</g>
<!-- Node10&#45;&gt;Node9 -->
<g id="edge10_Node000010_Node000009" class="edge">
<title>Node10&#45;&gt;Node9</title>
<g id="a_edge10_Node000010_Node000009"><a xlink:title=" ">
<path fill="none" stroke="#63b8ff" d="M1088.14,-522.36C1110.04,-525.12 1135.49,-527.32 1155.29,-528.1"/>
<polygon fill="#63b8ff" stroke="#63b8ff" points="1088.41,-518.87 1078.03,-521.01 1087.48,-525.8 1088.41,-518.87"/>
</a>
</g>
</g>
<!-- Node10&#45;&gt;Node11 -->
<g id="edge11_Node000010_Node000011" class="edge">
<title>Node10&#45;&gt;Node11</title>
<g id="a_edge11_Node000010_Node000011"><a xlink:title=" ">
<path fill="none" stroke="#63b8ff" d="M1003.13,-498.5C978.35,-489.39 945.76,-477.42 923.27,-469.15"/>
<polygon fill="#63b8ff" stroke="#63b8ff" points="1001.95,-501.8 1012.55,-501.96 1004.37,-495.23 1001.95,-501.8"/>
</a>
</g>
</g>
<!-- Node12 -->
<g id="Node000012" class="node">
<title>Node12</title>
<g id="a_Node000012"><a xlink:href="parser__commands_8c.html#ad98fbb958a265134e775b69579e28835" target="_top" xlink:title="Handle a shell command block by calling corresponding parser at each step.">
<polygon fill="white" stroke="#666666" points="815,-405 685,-405 685,-386 815,-386 815,-405"/>
<text text-anchor="middle" x="750" y="-393" font-family="Helvetica,sans-Serif" font-size="10.00">parser_shell_command</text>
</a>
</g>
</g>
<!-- Node11&#45;&gt;Node12 -->
<g id="edge12_Node000011_Node000012" class="edge">
<title>Node11&#45;&gt;Node12</title>
<g id="a_edge12_Node000011_Node000012"><a xlink:title=" ">
<path fill="none" stroke="#63b8ff" d="M864.26,-445.84C836.73,-433.6 797.05,-415.97 772.71,-405.15"/>
<polygon fill="#63b8ff" stroke="#63b8ff" points="862.88,-449.06 873.44,-449.92 865.73,-442.66 862.88,-449.06"/>
</a>
</g>
</g>
<!-- Node12&#45;&gt;Node5 -->
<g id="edge13_Node000012_Node000005" class="edge">
<title>Node12&#45;&gt;Node5</title>
<g id="a_edge13_Node000012_Node000005"><a xlink:title=" ">
<path fill="none" stroke="#63b8ff" d="M766.14,-412.38C806.1,-454.99 919.56,-563.5 1038.5,-563.5 1481,-563.5 1481,-563.5 1481,-563.5 1574.19,-563.5 1678.13,-514.43 1718.82,-493.15"/>
<polygon fill="#63b8ff" stroke="#63b8ff" points="768.7,-409.99 759.35,-405.01 763.55,-414.74 768.7,-409.99"/>
</a>
</g>
</g>
<!-- Node13 -->
<g id="Node000013" class="node">
<title>Node13</title>
<g id="a_Node000013"><a xlink:href="parser__commands_8c.html#a14408e6904da17fc6899bba03f7a5f5a" target="_top" xlink:title="Handle a function definition and add it to the dictionnary.">
<polygon fill="white" stroke="#666666" points="649,-327 565,-327 565,-308 649,-308 649,-327"/>
<text text-anchor="middle" x="607" y="-315" font-family="Helvetica,sans-Serif" font-size="10.00">parser_fundef</text>
</a>
</g>
</g>
<!-- Node12&#45;&gt;Node13 -->
<g id="edge14_Node000012_Node000013" class="edge">
<title>Node12&#45;&gt;Node13</title>
<g id="a_edge14_Node000012_Node000013"><a xlink:title=" ">
<path fill="none" stroke="#63b8ff" d="M722.74,-380.98C694.33,-365.26 649.82,-340.64 625.43,-327.14"/>
<polygon fill="#63b8ff" stroke="#63b8ff" points="721.27,-384.16 731.71,-385.94 724.65,-378.03 721.27,-384.16"/>
</a>
</g>
</g>
<!-- Node13&#45;&gt;Node5 -->
<g id="edge15_Node000013_Node000005" class="edge">
<title>Node13&#45;&gt;Node5</title>
<g id="a_edge15_Node000013_Node000005"><a xlink:title=" ">
<path fill="none" stroke="#63b8ff" d="M645.7,-304.88C700.1,-287.81 804.08,-259.5 895,-259.5 1481,-259.5 1481,-259.5 1481,-259.5 1613.14,-259.5 1709.65,-431 1731.72,-473.88"/>
<polygon fill="#63b8ff" stroke="#63b8ff" points="644.6,-301.55 636.13,-307.92 646.72,-308.22 644.6,-301.55"/>
</a>
</g>
</g>
<!-- Node14&#45;&gt;Node12 -->
<g id="edge18_Node000014_Node000012" class="edge">
<title>Node14&#45;&gt;Node12</title>
<g id="a_edge18_Node000014_Node000012"><a xlink:title=" ">
<path fill="none" stroke="#63b8ff" d="M966.8,-411.26C920.23,-407.86 860.04,-403.46 815.06,-400.18"/>
<polygon fill="#63b8ff" stroke="#63b8ff" points="966.6,-414.76 976.82,-411.99 967.11,-407.78 966.6,-414.76"/>
</a>
</g>
</g>
<!-- Node15&#45;&gt;Node12 -->
<g id="edge20_Node000015_Node000012" class="edge">
<title>Node15&#45;&gt;Node12</title>
<g id="a_edge20_Node000015_Node000012"><a xlink:title=" ">
<path fill="none" stroke="#63b8ff" d="M840.64,-383.67C832.3,-384.77 823.62,-385.92 815.08,-387.04"/>
<polygon fill="#63b8ff" stroke="#63b8ff" points="841.16,-387.13 850.62,-382.36 840.25,-380.19 841.16,-387.13"/>
</a>
</g>
</g>
<!-- Node16&#45;&gt;Node12 -->
<g id="edge23_Node000016_Node000012" class="edge">
<title>Node16&#45;&gt;Node12</title>
<g id="a_edge23_Node000016_Node000012"><a xlink:title=" ">
<path fill="none" stroke="#63b8ff" d="M979.94,-338.65C942.63,-341.57 893.49,-347.1 851,-357.5 822.68,-364.43 791.48,-377.15 771.59,-385.96"/>
<polygon fill="#63b8ff" stroke="#63b8ff" points="980.43,-342.12 990.14,-337.9 979.91,-335.14 980.43,-342.12"/>
</a>
</g>
</g>
<!-- Node17&#45;&gt;Node12 -->
<g id="edge25_Node000017_Node000012" class="edge">
<title>Node17&#45;&gt;Node12</title>
<g id="a_edge25_Node000017_Node000012"><a xlink:title=" ">
<path fill="none" stroke="#63b8ff" d="M1127.45,-297.1C1058.38,-298.46 943.48,-306.21 851,-339.5 818.05,-351.36 783.14,-373.38 764.54,-385.99"/>
<polygon fill="#63b8ff" stroke="#63b8ff" points="1127.77,-300.6 1137.72,-296.94 1127.66,-293.6 1127.77,-300.6"/>
</a>
</g>
</g>
<!-- Node19 -->
<g id="Node000019" class="node">
<title>Node19</title>
<g id="a_Node000019"><a xlink:href="parser_8c.html#a620dffcc9a167cdee6e67de1191e5277" target="_top" xlink:title="Parse the input of our shell into list.">
<polygon fill="white" stroke="#666666" points="1213,-212 1166,-212 1166,-193 1213,-193 1213,-212"/>
<text text-anchor="middle" x="1189.5" y="-200" font-family="Helvetica,sans-Serif" font-size="10.00">parser</text>
</a>
</g>
</g>
<!-- Node18&#45;&gt;Node19 -->
<g id="edge27_Node000018_Node000019" class="edge">
<title>Node18&#45;&gt;Node19</title>
<g id="a_edge27_Node000018_Node000019"><a xlink:title=" ">
<path fill="none" stroke="#63b8ff" d="M1319.84,-320C1288.66,-291.67 1225.9,-234.66 1201.01,-212.05"/>
<polygon fill="#63b8ff" stroke="#63b8ff" points="1317.64,-322.73 1327.39,-326.86 1322.34,-317.55 1317.64,-322.73"/>
</a>
</g>
</g>
<!-- Node20 -->
<g id="Node000020" class="node">
<title>Node20</title>
<g id="a_Node000020"><a xlink:href="42sh_8c.html#a3c04138a5bfe5d72780bb7e82a18e627" target="_top" xlink:title=" ">
<polygon fill="white" stroke="#666666" points="190,-19 149,-19 149,0 190,0 190,-19"/>
<text text-anchor="middle" x="169.5" y="-7" font-family="Helvetica,sans-Serif" font-size="10.00">main</text>
</a>
</g>
</g>
<!-- Node19&#45;&gt;Node20 -->
<g id="edge28_Node000019_Node000020" class="edge">
<title>Node19&#45;&gt;Node20</title>
<g id="a_edge28_Node000019_Node000020"><a xlink:title=" ">
<path fill="none" stroke="#63b8ff" d="M1164.19,-187.68C1115.41,-159.4 1001.3,-100.5 897,-100.5 897,-100.5 897,-100.5 387.5,-100.5 307.92,-100.5 298.13,-56.44 224,-27.5 212.95,-23.19 200.4,-18.93 190.23,-15.64"/>
<polygon fill="#63b8ff" stroke="#63b8ff" points="1162.66,-190.84 1173.06,-192.9 1166.22,-184.81 1162.66,-190.84"/>
</a>
</g>
</g>
<!-- Node21 -->
<g id="Node000021" class="node">
<title>Node21</title>
<g id="a_Node000021"><a xlink:href="dot_8c.html#a17477ee2b0f1b8b9306566c990d15b35" target="_top" xlink:title="Main loop of dot builtin.">
<polygon fill="white" stroke="#666666" points="1073.5,-212 1005.5,-212 1005.5,-193 1073.5,-193 1073.5,-212"/>
<text text-anchor="middle" x="1039.5" y="-200" font-family="Helvetica,sans-Serif" font-size="10.00">main_loop</text>
</a>
</g>
</g>
<!-- Node19&#45;&gt;Node21 -->
<g id="edge29_Node000019_Node000021" class="edge">
<title>Node19&#45;&gt;Node21</title>
<g id="a_edge29_Node000019_Node000021"><a xlink:title=" ">
<path fill="none" stroke="#63b8ff" d="M1155.52,-202.5C1131.18,-202.5 1098.18,-202.5 1073.77,-202.5"/>
<polygon fill="#63b8ff" stroke="#63b8ff" points="1155.7,-206 1165.7,-202.5 1155.7,-199 1155.7,-206"/>
</a>
</g>
</g>
<!-- Node22 -->
<g id="Node000022" class="node">
<title>Node22</title>
<g id="a_Node000022"><a xlink:href="dot_8c.html#a713938d3c6ee343132c429642048bcf6" target="_top" xlink:title="Execute the dot builtin cmd.">
<polygon fill="white" stroke="#666666" points="918,-231 874,-231 874,-212 918,-212 918,-231"/>
<text text-anchor="middle" x="896" y="-219" font-family="Helvetica,sans-Serif" font-size="10.00">dot_b</text>
</a>
</g>
</g>
<!-- Node21&#45;&gt;Node22 -->
<g id="edge30_Node000021_Node000022" class="edge">
<title>Node21&#45;&gt;Node22</title>
<g id="a_edge30_Node000021_Node000022"><a xlink:title=" ">
<path fill="none" stroke="#63b8ff" d="M995.12,-208.32C969.56,-211.76 938.37,-215.95 918.11,-218.66"/>
<polygon fill="#63b8ff" stroke="#63b8ff" points="995.88,-211.75 1005.32,-206.95 994.95,-204.82 995.88,-211.75"/>
</a>
</g>
</g>
<!-- Node23 -->
<g id="Node000023" class="node">
<title>Node23</title>
<g id="a_Node000023"><a xlink:href="exec_8c.html#abaeb177587c7eec6a064b35bb8399cae" target="_top" xlink:title="Execute builtin cmd with given args.">
<polygon fill="white" stroke="#666666" points="787.5,-231 712.5,-231 712.5,-212 787.5,-212 787.5,-231"/>
<text text-anchor="middle" x="750" y="-219" font-family="Helvetica,sans-Serif" font-size="10.00">exec_builtin</text>
</a>
</g>
</g>
<!-- Node22&#45;&gt;Node23 -->
<g id="edge31_Node000022_Node000023" class="edge">
<title>Node22&#45;&gt;Node23</title>
<g id="a_edge31_Node000022_Node000023"><a xlink:title=" ">
<path fill="none" stroke="#63b8ff" d="M863.47,-221.5C841.14,-221.5 811.12,-221.5 787.71,-221.5"/>
<polygon fill="#63b8ff" stroke="#63b8ff" points="863.75,-225 873.75,-221.5 863.75,-218 863.75,-225"/>
</a>
</g>
</g>
<!-- Node24 -->
<g id="Node000024" class="node">
<title>Node24</title>
<g id="a_Node000024"><a xlink:href="exec_8c.html#a287d81b4658832f192750310e2925917" target="_top" xlink:title="Execute the builtin command with given args.">
<polygon fill="white" stroke="#666666" points="632,-231 582,-231 582,-212 632,-212 632,-231"/>
<text text-anchor="middle" x="607" y="-219" font-family="Helvetica,sans-Serif" font-size="10.00">exec_b</text>
</a>
</g>
</g>
<!-- Node23&#45;&gt;Node24 -->
<g id="edge32_Node000023_Node000024" class="edge">
<title>Node23&#45;&gt;Node24</title>
<g id="a_edge32_Node000023_Node000024"><a xlink:title=" ">
<path fill="none" stroke="#63b8ff" d="M702.2,-221.5C678.72,-221.5 651.28,-221.5 632.09,-221.5"/>
<polygon fill="#63b8ff" stroke="#63b8ff" points="702.32,-225 712.32,-221.5 702.32,-218 702.32,-225"/>
</a>
</g>
</g>
<!-- Node25 -->
<g id="Node000025" class="node">
<title>Node25</title>
<g id="a_Node000025"><a xlink:href="exec_8c.html#ae65edaa99b26b49d60c451157d38b34a" target="_top" xlink:title="Execute les commandes avec les args donnes.">
<polygon fill="white" stroke="#666666" points="529,-231 464,-231 464,-212 529,-212 529,-231"/>
<text text-anchor="middle" x="496.5" y="-219" font-family="Helvetica,sans-Serif" font-size="10.00">exec_cmd</text>
</a>
</g>
</g>
<!-- Node24&#45;&gt;Node25 -->
<g id="edge33_Node000024_Node000025" class="edge">
<title>Node24&#45;&gt;Node25</title>
<g id="a_edge33_Node000024_Node000025"><a xlink:title=" ">
<path fill="none" stroke="#63b8ff" d="M571.56,-221.5C558.03,-221.5 542.6,-221.5 529.34,-221.5"/>
<polygon fill="#63b8ff" stroke="#63b8ff" points="571.92,-225 581.92,-221.5 571.92,-218 571.92,-225"/>
</a>
</g>
</g>
<!-- Node26 -->
<g id="Node000026" class="node">
<title>Node26</title>
<g id="a_Node000026"><a xlink:href="ast__run_8c.html#aeb6878a59c6907e5669fc3cc428913d9" target="_top" xlink:title=" ">
<polygon fill="white" stroke="#666666" points="428,-231 349,-231 349,-212 428,-212 428,-231"/>
<text text-anchor="middle" x="388.5" y="-219" font-family="Helvetica,sans-Serif" font-size="10.00">ast_run_cmd</text>
</a>
</g>
</g>
<!-- Node25&#45;&gt;Node26 -->
<g id="edge34_Node000025_Node000026" class="edge">
<title>Node25&#45;&gt;Node26</title>
<g id="a_edge34_Node000025_Node000026"><a xlink:title=" ">
<path fill="none" stroke="#63b8ff" d="M453.92,-221.5C445.45,-221.5 436.58,-221.5 428.21,-221.5"/>
<polygon fill="#63b8ff" stroke="#63b8ff" points="453.98,-225 463.98,-221.5 453.98,-218 453.98,-225"/>
</a>
</g>
</g>
<!-- Node27 -->
<g id="Node000027" class="node">
<title>Node27</title>
<g id="a_Node000027"><a xlink:href="ast_8c.html#a572345b2707780bbbc5bbaacdca9c372" target="_top" xlink:title=" ">
<polygon fill="white" stroke="#666666" points="313,-212 260,-212 260,-193 313,-193 313,-212"/>
<text text-anchor="middle" x="286.5" y="-200" font-family="Helvetica,sans-Serif" font-size="10.00">run_ast</text>
</a>
</g>
</g>
<!-- Node26&#45;&gt;Node27 -->
<g id="edge35_Node000026_Node000027" class="edge">
<title>Node26&#45;&gt;Node27</title>
<g id="a_edge35_Node000026_Node000027"><a xlink:title=" ">
<path fill="none" stroke="#63b8ff" d="M338.86,-212.26C329.95,-210.57 320.99,-208.86 313.1,-207.36"/>
<polygon fill="#63b8ff" stroke="#63b8ff" points="338.36,-215.73 348.84,-214.15 339.67,-208.85 338.36,-215.73"/>
</a>
</g>
</g>
<!-- Node27&#45;&gt;Node20 -->
<g id="edge55_Node000027_Node000020" class="edge">
<title>Node27&#45;&gt;Node20</title>
<g id="a_edge55_Node000027_Node000020"><a xlink:title=" ">
<path fill="none" stroke="#63b8ff" d="M279.79,-183.29C266.85,-140.23 235.52,-38.86 224,-27.5 214.93,-18.55 201.28,-14.05 190.03,-11.79"/>
<polygon fill="#63b8ff" stroke="#63b8ff" points="276.44,-184.31 282.66,-192.89 283.15,-182.31 276.44,-184.31"/>
</a>
</g>
</g>
<!-- Node27&#45;&gt;Node21 -->
<g id="edge56_Node000027_Node000021" class="edge">
<title>Node27&#45;&gt;Node21</title>
<g id="a_edge56_Node000027_Node000021"><a xlink:title=" ">
<path fill="none" stroke="#63b8ff" d="M323.17,-197.25C364.52,-191.63 434.79,-183.5 495.5,-183.5 751,-183.5 751,-183.5 751,-183.5 843.29,-183.5 951.88,-193.37 1005.34,-198.88"/>
<polygon fill="#63b8ff" stroke="#63b8ff" points="322.47,-193.81 313.05,-198.66 323.43,-200.75 322.47,-193.81"/>
</a>
</g>
</g>
<!-- Node28 -->
<g id="Node000028" class="node">
<title>Node28</title>
<g id="a_Node000028"><a xlink:href="ast__run_8c.html#a8a01fec616135007fc5b3968a101901b" target="_top" xlink:title=" ">
<polygon fill="white" stroke="#666666" points="215,-314 124,-314 124,-295 215,-295 215,-314"/>
<text text-anchor="middle" x="169.5" y="-302" font-family="Helvetica,sans-Serif" font-size="10.00">ast_run_and_or</text>
</a>
</g>
</g>
<!-- Node27&#45;&gt;Node28 -->
<g id="edge36_Node000027_Node000028" class="edge">
<title>Node27&#45;&gt;Node28</title>
<g id="a_edge36_Node000027_Node000028"><a xlink:title=" ">
<path fill="none" stroke="#63b8ff" d="M269.38,-220.44C255.19,-239.78 235.13,-268.27 224,-276.5 211.96,-285.41 195.35,-290.44 183.85,-294.94"/>
<polygon fill="#63b8ff" stroke="#63b8ff" points="272.27,-222.42 275.42,-212.3 266.65,-218.24 272.27,-222.42"/>
</a>
</g>
</g>
<!-- Node29 -->
<g id="Node000029" class="node">
<title>Node29</title>
<g id="a_Node000029"><a xlink:href="ast__run_8c.html#a9d83d4834a61ffe21eb77838d70ae173" target="_top" xlink:title=" ">
<polygon fill="white" stroke="#666666" points="205,-277 134,-277 134,-258 205,-258 205,-277"/>
<text text-anchor="middle" x="169.5" y="-265" font-family="Helvetica,sans-Serif" font-size="10.00">ast_run_for</text>
</a>
</g>
</g>
<!-- Node27&#45;&gt;Node29 -->
<g id="edge38_Node000027_Node000029" class="edge">
<title>Node27&#45;&gt;Node29</title>
<g id="a_edge38_Node000027_Node000029"><a xlink:title=" ">
<path fill="none" stroke="#63b8ff" d="M256.89,-218.19C246.92,-225.36 235.36,-233.41 224,-239.5 210.1,-246.95 192.68,-252.51 181.56,-257.83"/>
<polygon fill="#63b8ff" stroke="#63b8ff" points="259.16,-220.87 265.21,-212.17 255.06,-215.2 259.16,-220.87"/>
</a>
</g>
</g>
<!-- Node30 -->
<g id="Node000030" class="node">
<title>Node30</title>
<g id="a_Node000030"><a xlink:href="ast__run_8c.html#a0a7138b1f2608ea36211c9b78988c248" target="_top" xlink:title=" ">
<polygon fill="white" stroke="#666666" points="202,-240 137,-240 137,-221 202,-221 202,-240"/>
<text text-anchor="middle" x="169.5" y="-228" font-family="Helvetica,sans-Serif" font-size="10.00">ast_run_if</text>
</a>
</g>
</g>
<!-- Node27&#45;&gt;Node30 -->
<g id="edge40_Node000027_Node000030" class="edge">
<title>Node27&#45;&gt;Node30</title>
<g id="a_edge40_Node000027_Node000030"><a xlink:title=" ">
<path fill="none" stroke="#63b8ff" d="M250.13,-204.83C229.86,-208.87 205.25,-215.26 188.81,-220.95"/>
<polygon fill="#63b8ff" stroke="#63b8ff" points="250.79,-208.27 259.98,-202.99 249.51,-201.38 250.79,-208.27"/>
</a>
</g>
</g>
<!-- Node31 -->
<g id="Node000031" class="node">
<title>Node31</title>
<g id="a_Node000031"><a xlink:href="ast__run_8c.html#ae25cd3ced8abafd76110dba8852a6b87" target="_top" xlink:title=" ">
<polygon fill="white" stroke="#666666" points="206,-185 133,-185 133,-166 206,-166 206,-185"/>
<text text-anchor="middle" x="169.5" y="-173" font-family="Helvetica,sans-Serif" font-size="10.00">ast_run_list</text>
</a>
</g>
</g>
<!-- Node27&#45;&gt;Node31 -->
<g id="edge42_Node000027_Node000031" class="edge">
<title>Node27&#45;&gt;Node31</title>
<g id="a_edge42_Node000027_Node000031"><a xlink:title=" ">
<path fill="none" stroke="#63b8ff" d="M256.86,-189.85C241.59,-185.31 222.66,-180.74 206.41,-177.62"/>
<polygon fill="#63b8ff" stroke="#63b8ff" points="256.18,-193.3 266.77,-192.96 258.28,-186.62 256.18,-193.3"/>
</a>
</g>
</g>
<!-- Node32 -->
<g id="Node000032" class="node">
<title>Node32</title>
<g id="a_Node000032"><a xlink:href="ast__run_8c.html#a536f37ba9bffcd2099fef668656181e0" target="_top" xlink:title=" ">
<polygon fill="white" stroke="#666666" points="209,-148 130,-148 130,-129 209,-129 209,-148"/>
<text text-anchor="middle" x="169.5" y="-136" font-family="Helvetica,sans-Serif" font-size="10.00">ast_run_loop</text>
</a>
</g>
</g>
<!-- Node27&#45;&gt;Node32 -->
<g id="edge45_Node000027_Node000032" class="edge">
<title>Node27&#45;&gt;Node32</title>
<g id="a_edge45_Node000027_Node000032"><a xlink:title=" ">
<path fill="none" stroke="#63b8ff" d="M273.82,-185.13C261.98,-172.74 242.79,-157.36 224,-147.5 219.31,-145.04 214.23,-142.82 209.11,-140.93"/>
<polygon fill="#63b8ff" stroke="#63b8ff" points="271.25,-187.5 280.46,-192.74 276.53,-182.91 271.25,-187.5"/>
</a>
</g>
</g>
<!-- Node33 -->
<g id="Node000033" class="node">
<title>Node33</title>
<g id="a_Node000033"><a xlink:href="ast__run_8c.html#aa3e6a973e744d748ee415840596beb53" target="_top" xlink:title=" ">
<polygon fill="white" stroke="#666666" points="224,-111 115,-111 115,-92 224,-92 224,-111"/>
<text text-anchor="middle" x="169.5" y="-99" font-family="Helvetica,sans-Serif" font-size="10.00">ast_run_shell_redir</text>
</a>
</g>
</g>
<!-- Node27&#45;&gt;Node33 -->
<g id="edge47_Node000027_Node000033" class="edge">
<title>Node27&#45;&gt;Node33</title>
<g id="a_edge47_Node000027_Node000033"><a xlink:title=" ">
<path fill="none" stroke="#63b8ff" d="M279.18,-183.64C269.7,-162.48 250.12,-129.67 224.35,-110.76"/>
<polygon fill="#63b8ff" stroke="#63b8ff" points="275.98,-185.06 283.01,-192.98 282.45,-182.4 275.98,-185.06"/>
</a>
</g>
</g>
<!-- Node34 -->
<g id="Node000034" class="node">
<title>Node34</title>
<g id="a_Node000034"><a xlink:href="exec_8c.html#a23babf893bbcd2f6126698a1a19b169f" target="_top" xlink:title="Execute funct with given arguments.">
<polygon fill="white" stroke="#666666" points="202,-390 137,-390 137,-371 202,-371 202,-390"/>
<text text-anchor="middle" x="169.5" y="-378" font-family="Helvetica,sans-Serif" font-size="10.00">exec_func</text>
</a>
</g>
</g>
<!-- Node27&#45;&gt;Node34 -->
<g id="edge49_Node000027_Node000034" class="edge">
<title>Node27&#45;&gt;Node34</title>
<g id="a_edge49_Node000027_Node000034"><a xlink:title=" ">
<path fill="none" stroke="#63b8ff" d="M273.51,-220.67C268.89,-228.16 263.82,-237.05 260,-245.5 238.64,-292.76 258.64,-317.9 224,-356.5 218.15,-363.02 210.2,-367.86 202.21,-371.43"/>
<polygon fill="#63b8ff" stroke="#63b8ff" points="276.57,-222.39 278.98,-212.07 270.66,-218.63 276.57,-222.39"/>
</a>
</g>
</g>
<!-- Node35 -->
<g id="Node000035" class="node">
<title>Node35</title>
<g id="a_Node000035"><a xlink:href="exec_8c.html#ab743cb88e12e9b922050925fd2075e36" target="_top" xlink:title="Execute a pipeline of commands.">
<polygon fill="white" stroke="#666666" points="202,-56 137,-56 137,-37 202,-37 202,-56"/>
<text text-anchor="middle" x="169.5" y="-44" font-family="Helvetica,sans-Serif" font-size="10.00">exec_pipe</text>
</a>
</g>
</g>
<!-- Node27&#45;&gt;Node35 -->
<g id="edge51_Node000027_Node000035" class="edge">
<title>Node27&#45;&gt;Node35</title>
<g id="a_edge51_Node000027_Node000035"><a xlink:title=" ">
<path fill="none" stroke="#63b8ff" d="M279.09,-183.26C269.95,-157.96 251.2,-113.14 224,-82.5 214.26,-71.53 200.48,-62.36 189.35,-56.02"/>
<polygon fill="#63b8ff" stroke="#63b8ff" points="275.83,-184.52 282.42,-192.81 282.44,-182.22 275.83,-184.52"/>
</a>
</g>
</g>
<!-- Node28&#45;&gt;Node27 -->
<g id="edge37_Node000028_Node000027" class="edge">
<title>Node28&#45;&gt;Node27</title>
<g id="a_edge37_Node000028_Node000027"><a xlink:title=" ">
<path fill="none" stroke="#63b8ff" d="M223.74,-294.69C223.83,-294.63 223.91,-294.56 224,-294.5 239.21,-283.24 271.13,-234.16 281.88,-212.21"/>
<polygon fill="#63b8ff" stroke="#63b8ff" points="221.75,-291.81 215.07,-300.03 225.42,-297.77 221.75,-291.81"/>
</a>
</g>
</g>
<!-- Node29&#45;&gt;Node27 -->
<g id="edge39_Node000029_Node000027" class="edge">
<title>Node29&#45;&gt;Node27</title>
<g id="a_edge39_Node000029_Node000027"><a xlink:title=" ">
<path fill="none" stroke="#63b8ff" d="M214.46,-262.09C217.74,-260.67 220.95,-259.13 224,-257.5 246.8,-245.29 270.36,-225.17 280.44,-212.22"/>
<polygon fill="#63b8ff" stroke="#63b8ff" points="213.15,-258.85 205.12,-265.76 215.71,-265.36 213.15,-258.85"/>
</a>
</g>
</g>
<!-- Node30&#45;&gt;Node27 -->
<g id="edge41_Node000030_Node000027" class="edge">
<title>Node30&#45;&gt;Node27</title>
<g id="a_edge41_Node000030_Node000027"><a xlink:title=" ">
<path fill="none" stroke="#63b8ff" d="M212.02,-226.9C230.98,-222.86 252.46,-217.16 267.28,-212.03"/>
<polygon fill="#63b8ff" stroke="#63b8ff" points="211.2,-223.5 202.09,-228.91 212.58,-230.36 211.2,-223.5"/>
</a>
</g>
</g>
<!-- Node31&#45;&gt;Node27 -->
<g id="edge44_Node000031_Node000027" class="edge">
<title>Node31&#45;&gt;Node27</title>
<g id="a_edge44_Node000031_Node000027"><a xlink:title=" ">
<path fill="none" stroke="#63b8ff" d="M198.9,-188.08C217.61,-193.65 241.89,-199.29 259.98,-202.23"/>
<polygon fill="#63b8ff" stroke="#63b8ff" points="199.75,-184.68 189.16,-185.01 197.65,-191.36 199.75,-184.68"/>
</a>
</g>
</g>
<!-- Node31&#45;&gt;Node31 -->
<g id="edge43_Node000031_Node000031" class="edge">
<title>Node31&#45;&gt;Node31</title>
<g id="a_edge43_Node000031_Node000031"><a xlink:title=" ">
<path fill="none" stroke="#63b8ff" d="M190.98,-194.55C189.55,-199.38 182.39,-203 169.5,-203 148.88,-203 142.92,-193.73 151.62,-185.08"/>
<polygon fill="#63b8ff" stroke="#63b8ff" points="194.2,-193.19 187.38,-185.08 187.66,-195.67 194.2,-193.19"/>
</a>
</g>
</g>
<!-- Node32&#45;&gt;Node27 -->
<g id="edge46_Node000032_Node000027" class="edge">
<title>Node32&#45;&gt;Node27</title>
<g id="a_edge46_Node000032_Node000027"><a xlink:title=" ">
<path fill="none" stroke="#63b8ff" d="M191.32,-151.94C201.49,-155.85 213.72,-160.1 224,-165.5 238.88,-173.31 254.01,-184.57 265.54,-192.93"/>
<polygon fill="#63b8ff" stroke="#63b8ff" points="192.57,-148.67 181.99,-148.11 189.92,-155.14 192.57,-148.67"/>
</a>
</g>
</g>
<!-- Node33&#45;&gt;Node27 -->
<g id="edge48_Node000033_Node000027" class="edge">
<title>Node33&#45;&gt;Node27</title>
<g id="a_edge48_Node000033_Node000027"><a xlink:title=" ">
<path fill="none" stroke="#63b8ff" d="M194.39,-114.5C204.21,-117.96 215.29,-122.17 224,-128.5 248.51,-146.33 267.46,-176.79 277.51,-192.85"/>
<polygon fill="#63b8ff" stroke="#63b8ff" points="195.36,-111.13 184.77,-111.11 193.04,-117.73 195.36,-111.13"/>
</a>
</g>
</g>
<!-- Node34&#45;&gt;Node25 -->
<g id="edge50_Node000034_Node000025" class="edge">
<title>Node34&#45;&gt;Node25</title>
<g id="a_edge50_Node000034_Node000025"><a xlink:title=" ">
<path fill="none" stroke="#63b8ff" d="M199.33,-366.4C264.2,-334.66 420.34,-258.27 475.66,-231.21"/>
<polygon fill="#63b8ff" stroke="#63b8ff" points="197.53,-363.38 190.08,-370.92 200.6,-369.67 197.53,-363.38"/>
</a>
</g>
</g>
<!-- Node35&#45;&gt;Node35 -->
<g id="edge54_Node000035_Node000035" class="edge">
<title>Node35&#45;&gt;Node35</title>
<g id="a_edge54_Node000035_Node000035"><a xlink:title=" ">
<path fill="none" stroke="#63b8ff" d="M190.98,-65.55C189.55,-70.38 182.39,-74 169.5,-74 148.88,-74 142.92,-64.73 151.62,-56.08"/>
<polygon fill="#63b8ff" stroke="#63b8ff" points="194.2,-64.19 187.38,-56.08 187.66,-66.67 194.2,-64.19"/>
</a>
</g>
</g>
<!-- Node36 -->
<g id="Node000036" class="node">
<title>Node36</title>
<g id="a_Node000036"><a xlink:href="ast__run_8c.html#a24d0223822f7b635628199085c3283be" target="_top" xlink:title=" ">
<polygon fill="white" stroke="#666666" points="79,-204 0,-204 0,-185 79,-185 79,-204"/>
<text text-anchor="middle" x="39.5" y="-192" font-family="Helvetica,sans-Serif" font-size="10.00">ast_run_pipe</text>
</a>
</g>
</g>
<!-- Node35&#45;&gt;Node36 -->
<g id="edge52_Node000035_Node000036" class="edge">
<title>Node35&#45;&gt;Node36</title>
<g id="a_edge52_Node000035_Node000036"><a xlink:title=" ">
<path fill="none" stroke="#63b8ff" d="M141.63,-61.65C132.59,-67.48 122.82,-74.64 115,-82.5 82.39,-115.28 55.66,-164.35 45.22,-184.91"/>
<polygon fill="#63b8ff" stroke="#63b8ff" points="143.66,-64.51 150.34,-56.28 139.99,-58.55 143.66,-64.51"/>
</a>
</g>
</g>
<!-- Node36&#45;&gt;Node27 -->
<g id="edge53_Node000036_Node000027" class="edge">
<title>Node36&#45;&gt;Node27</title>
<g id="a_edge53_Node000036_Node000027"><a xlink:title=" ">
<path fill="none" stroke="#63b8ff" d="M45.31,-214.23C53.74,-243.92 74.28,-299.09 115,-322.5 157,-346.65 183.13,-348.51 224,-322.5 255.87,-302.22 242.34,-278.9 260,-245.5 266.17,-233.84 274,-220.86 279.35,-212.25"/>
<polygon fill="#63b8ff" stroke="#63b8ff" points="48.61,-212.99 42.66,-204.22 41.84,-214.78 48.61,-212.99"/>
</a>
</g>
</g>
<!-- Node37&#45;&gt;Node4 -->
<g id="edge58_Node000037_Node000004" class="edge">
<title>Node37&#45;&gt;Node4</title>
<g id="a_edge58_Node000037_Node000004"><a xlink:title=" ">
<path fill="none" stroke="#63b8ff" d="M1996.99,-508.57C1976.58,-503.56 1953.14,-497.79 1933.89,-493.06"/>
<polygon fill="#63b8ff" stroke="#63b8ff" points="1996.2,-511.98 2006.74,-510.97 1997.87,-505.19 1996.2,-511.98"/>
</a>
</g>
</g>
<!-- Node38&#45;&gt;Node12 -->
<g id="edge60_Node000038_Node000012" class="edge">
<title>Node38&#45;&gt;Node12</title>
<g id="a_edge60_Node000038_Node000012"><a xlink:title=" ">
<path fill="none" stroke="#63b8ff" d="M1831.74,-582.3C1773.75,-590.71 1684.19,-601.5 1606,-601.5 1606,-601.5 1606,-601.5 1038.5,-601.5 949.07,-601.5 922.26,-582.53 851,-528.5 804.04,-492.9 768.42,-429.58 755.89,-405.33"/>
<polygon fill="#63b8ff" stroke="#63b8ff" points="1832.45,-585.73 1841.83,-580.81 1831.43,-578.81 1832.45,-585.73"/>
</a>
</g>
</g>
</g>
</svg>
