<?xml version="1.0" encoding="UTF-8" standalone="no"?>
<!DOCTYPE svg PUBLIC "-//W3C//DTD SVG 1.1//EN"
 "http://www.w3.org/Graphics/SVG/1.1/DTD/svg11.dtd">
<!-- Generated by graphviz version 2.43.0 (0)
 -->
<!-- Title: redir_apply Pages: 1 -->
<svg width="305pt" height="140pt"
 viewBox="0.00 0.00 305.00 140.00" xmlns="http://www.w3.org/2000/svg" xmlns:xlink="http://www.w3.org/1999/xlink">
<g id="graph0" class="graph" transform="scale(1 1) rotate(0) translate(4 136)">
<title>redir_apply</title>
<!-- Node1 -->
<g id="Node000001" class="node">
<title>Node1</title>
<g id="a_Node000001"><a xlink:title="Apply redirs.">
<polygon fill="#999999" stroke="#666666" points="71,-76 0,-76 0,-57 71,-57 71,-76"/>
<text text-anchor="middle" x="35.5" y="-64" font-family="Helvetica,sans-Serif" font-size="10.00">redir_apply</text>
</a>
</g>
</g>
<!-- Node2 -->
<g id="Node000002" class="node">
<title>Node2</title>
<g id="a_Node000002"><a xlink:href="redir__exec_8c.html#a5a3ff9da1f0e0d2c0081574a73114b1a" target="_top" xlink:title="Save fd state.">
<polygon fill="white" stroke="#666666" points="185,-132 130,-132 130,-113 185,-113 185,-132"/>
<text text-anchor="middle" x="157.5" y="-120" font-family="Helvetica,sans-Serif" font-size="10.00">fd_save</text>
</a>
</g>
</g>
<!-- Node1&#45;&gt;Node2 -->
<g id="edge1_Node000001_Node000002" class="edge">
<title>Node1&#45;&gt;Node2</title>
<g id="a_edge1_Node000001_Node000002"><a xlink:title=" ">
<path fill="none" stroke="#63b8ff" d="M52.68,-76.1C66.76,-84.23 87.84,-95.91 107,-104.5 111.2,-106.38 115.65,-108.22 120.11,-109.96"/>
<polygon fill="#63b8ff" stroke="#63b8ff" points="119.16,-113.34 129.76,-113.58 121.62,-106.79 119.16,-113.34"/>
</a>
</g>
</g>
<!-- Node3 -->
<g id="Node000003" class="node">
<title>Node3</title>
<g id="a_Node000003"><a xlink:href="redir__exec_8c.html#a007e10b16e39db1606efa3f9650fc163" target="_top" xlink:title="Handle dup redir.">
<polygon fill="white" stroke="#666666" points="208,-95 107,-95 107,-76 208,-76 208,-95"/>
<text text-anchor="middle" x="157.5" y="-83" font-family="Helvetica,sans-Serif" font-size="10.00">handle_dup_redir</text>
</a>
</g>
</g>
<!-- Node1&#45;&gt;Node3 -->
<g id="edge2_Node000001_Node000003" class="edge">
<title>Node1&#45;&gt;Node3</title>
<g id="a_edge2_Node000001_Node000003"><a xlink:title=" ">
<path fill="none" stroke="#63b8ff" d="M71.21,-72C79.17,-73.26 87.86,-74.63 96.54,-76.01"/>
<polygon fill="#63b8ff" stroke="#63b8ff" points="96.27,-79.51 106.7,-77.61 97.37,-72.59 96.27,-79.51"/>
</a>
</g>
</g>
<!-- Node4 -->
<g id="Node000004" class="node">
<title>Node4</title>
<g id="a_Node000004"><a xlink:href="redir__exec_8c.html#abd4469671025c9985273fcde19dc69ae" target="_top" xlink:title="Read io num from string.">
<polygon fill="white" stroke="#666666" points="297,-76 244,-76 244,-57 297,-57 297,-76"/>
<text text-anchor="middle" x="270.5" y="-64" font-family="Helvetica,sans-Serif" font-size="10.00">read_io</text>
</a>
</g>
</g>
<!-- Node1&#45;&gt;Node4 -->
<g id="edge5_Node000001_Node000004" class="edge">
<title>Node1&#45;&gt;Node4</title>
<g id="a_edge5_Node000001_Node000004"><a xlink:title=" ">
<path fill="none" stroke="#63b8ff" d="M71.13,-66.5C114.79,-66.5 189.47,-66.5 233.68,-66.5"/>
<polygon fill="#63b8ff" stroke="#63b8ff" points="233.69,-70 243.69,-66.5 233.69,-63 233.69,-70"/>
</a>
</g>
</g>
<!-- Node5 -->
<g id="Node000005" class="node">
<title>Node5</title>
<g id="a_Node000005"><a xlink:href="redir__exec_8c.html#a65f8df655786afa907a1f7029bea8088" target="_top" xlink:title="Open file for redir.">
<polygon fill="white" stroke="#666666" points="202,-19 113,-19 113,0 202,0 202,-19"/>
<text text-anchor="middle" x="157.5" y="-7" font-family="Helvetica,sans-Serif" font-size="10.00">open_redir_file</text>
</a>
</g>
</g>
<!-- Node1&#45;&gt;Node5 -->
<g id="edge4_Node000001_Node000005" class="edge">
<title>Node1&#45;&gt;Node5</title>
<g id="a_edge4_Node000001_Node000005"><a xlink:title=" ">
<path fill="none" stroke="#63b8ff" d="M56.59,-56.96C75.88,-47.79 105.26,-33.84 127.17,-23.43"/>
<polygon fill="#63b8ff" stroke="#63b8ff" points="128.82,-26.52 136.35,-19.07 125.81,-20.2 128.82,-26.52"/>
</a>
</g>
</g>
<!-- Node3&#45;&gt;Node4 -->
<g id="edge3_Node000003_Node000004" class="edge">
<title>Node3&#45;&gt;Node4</title>
<g id="a_edge3_Node000003_Node000004"><a xlink:title=" ">
<path fill="none" stroke="#63b8ff" d="M208.16,-77C216.84,-75.51 225.72,-73.99 233.93,-72.59"/>
<polygon fill="#63b8ff" stroke="#63b8ff" points="234.64,-76.02 243.9,-70.88 233.45,-69.12 234.64,-76.02"/>
</a>
</g>
</g>
</g>
</svg>
