<?xml version="1.0" encoding="UTF-8" standalone="no"?>
<!DOCTYPE svg PUBLIC "-//W3C//DTD SVG 1.1//EN"
 "http://www.w3.org/Graphics/SVG/1.1/DTD/svg11.dtd">
<!-- Generated by graphviz version 2.43.0 (0)
 -->
<!-- Title: src/utils/redir.h Pages: 1 -->
<svg width="1605pt" height="247pt"
 viewBox="0.00 0.00 1604.50 247.00" xmlns="http://www.w3.org/2000/svg" xmlns:xlink="http://www.w3.org/1999/xlink">
<g id="graph0" class="graph" transform="scale(1 1) rotate(0) translate(4 243)">
<title>src/utils/redir.h</title>
<!-- Node1 -->
<g id="Node000001" class="node">
<title>Node1</title>
<g id="a_Node000001"><a xlink:title=" ">
<polygon fill="#999999" stroke="#666666" points="1437,-239 1348,-239 1348,-220 1437,-220 1437,-239"/>
<text text-anchor="middle" x="1392.5" y="-227" font-family="Helvetica,sans-Serif" font-size="10.00">src/utils/redir.h</text>
</a>
</g>
</g>
<!-- Node2 -->
<g id="Node000002" class="node">
<title>Node2</title>
<g id="a_Node000002"><a xlink:href="ast_8h.html" target="_top" xlink:title=" ">
<polygon fill="white" stroke="#666666" points="942.5,-184 866.5,-184 866.5,-165 942.5,-165 942.5,-184"/>
<text text-anchor="middle" x="904.5" y="-172" font-family="Helvetica,sans-Serif" font-size="10.00">src/ast/ast.h</text>
</a>
</g>
</g>
<!-- Node1&#45;&gt;Node2 -->
<g id="edge1_Node000001_Node000002" class="edge">
<title>Node1&#45;&gt;Node2</title>
<g id="a_edge1_Node000001_Node000002"><a xlink:title=" ">
<path fill="none" stroke="#63b8ff" d="M1337.72,-222.55C1237.88,-211.71 1028.68,-188.99 942.67,-179.65"/>
<polygon fill="#63b8ff" stroke="#63b8ff" points="1337.58,-226.06 1347.9,-223.66 1338.34,-219.1 1337.58,-226.06"/>
</a>
</g>
</g>
<!-- Node15 -->
<g id="Node000015" class="node">
<title>Node15</title>
<g id="a_Node000015"><a xlink:href="exec_8c.html" target="_top" xlink:title=" ">
<polygon fill="white" stroke="#666666" points="1278.5,-74 1188.5,-74 1188.5,-55 1278.5,-55 1278.5,-74"/>
<text text-anchor="middle" x="1233.5" y="-62" font-family="Helvetica,sans-Serif" font-size="10.00">src/exec/exec.c</text>
</a>
</g>
</g>
<!-- Node1&#45;&gt;Node15 -->
<g id="edge32_Node000001_Node000015" class="edge">
<title>Node1&#45;&gt;Node15</title>
<g id="a_edge32_Node000001_Node000015"><a xlink:title=" ">
<path fill="none" stroke="#63b8ff" d="M1378.68,-211.88C1358.87,-188.38 1320.9,-144.47 1285.5,-110 1272.05,-96.9 1255.39,-83.02 1244.61,-74.31"/>
<polygon fill="#63b8ff" stroke="#63b8ff" points="1376.23,-214.41 1385.33,-219.82 1381.59,-209.91 1376.23,-214.41"/>
</a>
</g>
</g>
<!-- Node21 -->
<g id="Node000021" class="node">
<title>Node21</title>
<g id="a_Node000021"><a xlink:href="parser__redirections_8c.html" target="_top" xlink:title=" ">
<polygon fill="white" stroke="#666666" points="1556.5,-19 1386.5,-19 1386.5,0 1556.5,0 1556.5,-19"/>
<text text-anchor="middle" x="1471.5" y="-7" font-family="Helvetica,sans-Serif" font-size="10.00">src/parser/parser_redirections.c</text>
</a>
</g>
</g>
<!-- Node1&#45;&gt;Node21 -->
<g id="edge37_Node000001_Node000021" class="edge">
<title>Node1&#45;&gt;Node21</title>
<g id="a_edge37_Node000001_Node000021"><a xlink:title=" ">
<path fill="none" stroke="#63b8ff" d="M1407.82,-212.31C1424.3,-193.78 1449.72,-161.76 1461.5,-129 1475.54,-89.95 1473.7,-39.17 1472.26,-19.15"/>
<polygon fill="#63b8ff" stroke="#63b8ff" points="1405.12,-210.08 1400.96,-219.82 1410.29,-214.8 1405.12,-210.08"/>
</a>
</g>
</g>
<!-- Node25 -->
<g id="Node000025" class="node">
<title>Node25</title>
<g id="a_Node000025"><a xlink:href="redir__exec_8h.html" target="_top" xlink:title=" ">
<polygon fill="white" stroke="#666666" points="1452,-129 1333,-129 1333,-110 1452,-110 1452,-129"/>
<text text-anchor="middle" x="1392.5" y="-117" font-family="Helvetica,sans-Serif" font-size="10.00">src/exec/redir_exec.h</text>
</a>
</g>
</g>
<!-- Node1&#45;&gt;Node25 -->
<g id="edge33_Node000001_Node000025" class="edge">
<title>Node1&#45;&gt;Node25</title>
<g id="a_edge33_Node000001_Node000025"><a xlink:title=" ">
<path fill="none" stroke="#63b8ff" d="M1392.5,-209.48C1392.5,-185.84 1392.5,-146.5 1392.5,-129.16"/>
<polygon fill="#63b8ff" stroke="#63b8ff" points="1389,-209.66 1392.5,-219.66 1396,-209.66 1389,-209.66"/>
</a>
</g>
</g>
<!-- Node27 -->
<g id="Node000027" class="node">
<title>Node27</title>
<g id="a_Node000027"><a xlink:href="redir_8c.html" target="_top" xlink:title=" ">
<polygon fill="white" stroke="#666666" points="1596.5,-184 1508.5,-184 1508.5,-165 1596.5,-165 1596.5,-184"/>
<text text-anchor="middle" x="1552.5" y="-172" font-family="Helvetica,sans-Serif" font-size="10.00">src/utils/redir.c</text>
</a>
</g>
</g>
<!-- Node1&#45;&gt;Node27 -->
<g id="edge38_Node000001_Node000027" class="edge">
<title>Node1&#45;&gt;Node27</title>
<g id="a_edge38_Node000001_Node000027"><a xlink:title=" ">
<path fill="none" stroke="#63b8ff" d="M1427.83,-216.8C1457.69,-206.91 1499.77,-192.97 1526.59,-184.08"/>
<polygon fill="#63b8ff" stroke="#63b8ff" points="1426.6,-213.52 1418.21,-219.98 1428.8,-220.16 1426.6,-213.52"/>
</a>
</g>
</g>
<!-- Node3 -->
<g id="Node000003" class="node">
<title>Node3</title>
<g id="a_Node000003"><a xlink:href="42sh_8c.html" target="_top" xlink:title=" ">
<polygon fill="white" stroke="#666666" points="802,-74 737,-74 737,-55 802,-55 802,-74"/>
<text text-anchor="middle" x="769.5" y="-62" font-family="Helvetica,sans-Serif" font-size="10.00">src/42sh.c</text>
</a>
</g>
</g>
<!-- Node2&#45;&gt;Node3 -->
<g id="edge2_Node000002_Node000003" class="edge">
<title>Node2&#45;&gt;Node3</title>
<g id="a_edge2_Node000002_Node000003"><a xlink:title=" ">
<path fill="none" stroke="#63b8ff" d="M856.26,-170.41C827.13,-165.8 791.98,-154.82 772.5,-129 760.4,-112.97 763.99,-87.64 767.07,-74.33"/>
<polygon fill="#63b8ff" stroke="#63b8ff" points="855.9,-173.89 866.28,-171.79 856.85,-166.96 855.9,-173.89"/>
</a>
</g>
</g>
<!-- Node4 -->
<g id="Node000004" class="node">
<title>Node4</title>
<g id="a_Node000004"><a xlink:href="ast__aux_8h.html" target="_top" xlink:title=" ">
<polygon fill="white" stroke="#666666" points="582,-74 483,-74 483,-55 582,-55 582,-74"/>
<text text-anchor="middle" x="532.5" y="-62" font-family="Helvetica,sans-Serif" font-size="10.00">src/ast/ast_aux.h</text>
</a>
</g>
</g>
<!-- Node2&#45;&gt;Node4 -->
<g id="edge3_Node000002_Node000004" class="edge">
<title>Node2&#45;&gt;Node4</title>
<g id="a_edge3_Node000002_Node000004"><a xlink:title=" ">
<path fill="none" stroke="#63b8ff" d="M856.19,-170.29C781.05,-164.68 640.18,-151.48 595.5,-129 569.7,-116.02 548.13,-88.38 538.27,-74.23"/>
<polygon fill="#63b8ff" stroke="#63b8ff" points="856.11,-173.79 866.34,-171.03 856.62,-166.81 856.11,-173.79"/>
</a>
</g>
</g>
<!-- Node14 -->
<g id="Node000014" class="node">
<title>Node14</title>
<g id="a_Node000014"><a xlink:href="exec_8h.html" target="_top" xlink:title=" ">
<polygon fill="white" stroke="#666666" points="1132,-129 1041,-129 1041,-110 1132,-110 1132,-129"/>
<text text-anchor="middle" x="1086.5" y="-117" font-family="Helvetica,sans-Serif" font-size="10.00">src/exec/exec.h</text>
</a>
</g>
</g>
<!-- Node2&#45;&gt;Node14 -->
<g id="edge13_Node000002_Node000014" class="edge">
<title>Node2&#45;&gt;Node14</title>
<g id="a_edge13_Node000002_Node000014"><a xlink:title=" ">
<path fill="none" stroke="#63b8ff" d="M943.36,-162.18C977.4,-152.27 1026.12,-138.08 1057.03,-129.08"/>
<polygon fill="#63b8ff" stroke="#63b8ff" points="942.36,-158.83 933.74,-164.98 944.32,-165.55 942.36,-158.83"/>
</a>
</g>
</g>
<!-- Node16 -->
<g id="Node000016" class="node">
<title>Node16</title>
<g id="a_Node000016"><a xlink:href="expand_8c.html" target="_top" xlink:title=" ">
<polygon fill="white" stroke="#666666" points="898,-129 781,-129 781,-110 898,-110 898,-129"/>
<text text-anchor="middle" x="839.5" y="-117" font-family="Helvetica,sans-Serif" font-size="10.00">src/expand/expand.c</text>
</a>
</g>
</g>
<!-- Node2&#45;&gt;Node16 -->
<g id="edge16_Node000002_Node000016" class="edge">
<title>Node2&#45;&gt;Node16</title>
<g id="a_edge16_Node000002_Node000016"><a xlink:title=" ">
<path fill="none" stroke="#63b8ff" d="M886.23,-158.6C874.58,-149.11 859.9,-137.13 850.13,-129.17"/>
<polygon fill="#63b8ff" stroke="#63b8ff" points="884.09,-161.38 894.06,-164.98 888.52,-155.95 884.09,-161.38"/>
</a>
</g>
</g>
<!-- Node17 -->
<g id="Node000017" class="node">
<title>Node17</title>
<g id="a_Node000017"><a xlink:href="hashmap_8c.html" target="_top" xlink:title=" ">
<polygon fill="white" stroke="#666666" points="1276.5,-129 1150.5,-129 1150.5,-110 1276.5,-110 1276.5,-129"/>
<text text-anchor="middle" x="1213.5" y="-117" font-family="Helvetica,sans-Serif" font-size="10.00">src/expand/hashmap.c</text>
</a>
</g>
</g>
<!-- Node2&#45;&gt;Node17 -->
<g id="edge17_Node000002_Node000017" class="edge">
<title>Node2&#45;&gt;Node17</title>
<g id="a_edge17_Node000002_Node000017"><a xlink:title=" ">
<path fill="none" stroke="#63b8ff" d="M952.62,-165.25C1010.11,-155.39 1105.79,-138.98 1163.91,-129.01"/>
<polygon fill="#63b8ff" stroke="#63b8ff" points="951.96,-161.81 942.7,-166.95 953.15,-168.71 951.96,-161.81"/>
</a>
</g>
</g>
<!-- Node18 -->
<g id="Node000018" class="node">
<title>Node18</title>
<g id="a_Node000018"><a xlink:href="parser_8h.html" target="_top" xlink:title=" ">
<polygon fill="white" stroke="#666666" points="1023,-129 916,-129 916,-110 1023,-110 1023,-129"/>
<text text-anchor="middle" x="969.5" y="-117" font-family="Helvetica,sans-Serif" font-size="10.00">src/parser/parser.h</text>
</a>
</g>
</g>
<!-- Node2&#45;&gt;Node18 -->
<g id="edge18_Node000002_Node000018" class="edge">
<title>Node2&#45;&gt;Node18</title>
<g id="a_edge18_Node000002_Node000018"><a xlink:title=" ">
<path fill="none" stroke="#63b8ff" d="M922.77,-158.6C934.42,-149.11 949.1,-137.13 958.87,-129.17"/>
<polygon fill="#63b8ff" stroke="#63b8ff" points="920.48,-155.95 914.94,-164.98 924.91,-161.38 920.48,-155.95"/>
</a>
</g>
</g>
<!-- Node23 -->
<g id="Node000023" class="node">
<title>Node23</title>
<g id="a_Node000023"><a xlink:href="prettyprint_8h.html" target="_top" xlink:title=" ">
<polygon fill="white" stroke="#666666" points="724,-129 605,-129 605,-110 724,-110 724,-129"/>
<text text-anchor="middle" x="664.5" y="-117" font-family="Helvetica,sans-Serif" font-size="10.00">src/utils/prettyprint.h</text>
</a>
</g>
</g>
<!-- Node2&#45;&gt;Node23 -->
<g id="edge29_Node000002_Node000023" class="edge">
<title>Node2&#45;&gt;Node23</title>
<g id="a_edge29_Node000002_Node000023"><a xlink:title=" ">
<path fill="none" stroke="#63b8ff" d="M856.64,-162.93C811.57,-152.98 744.93,-138.26 703.15,-129.03"/>
<polygon fill="#63b8ff" stroke="#63b8ff" points="855.95,-166.36 866.47,-165.1 857.46,-159.53 855.95,-166.36"/>
</a>
</g>
</g>
<!-- Node5 -->
<g id="Node000005" class="node">
<title>Node5</title>
<g id="a_Node000005"><a xlink:href="ast_8c.html" target="_top" xlink:title=" ">
<polygon fill="white" stroke="#666666" points="75,-19 0,-19 0,0 75,0 75,-19"/>
<text text-anchor="middle" x="37.5" y="-7" font-family="Helvetica,sans-Serif" font-size="10.00">src/ast/ast.c</text>
</a>
</g>
</g>
<!-- Node4&#45;&gt;Node5 -->
<g id="edge4_Node000004_Node000005" class="edge">
<title>Node4&#45;&gt;Node5</title>
<g id="a_edge4_Node000004_Node000005"><a xlink:title=" ">
<path fill="none" stroke="#63b8ff" d="M472.86,-59.1C386.84,-52.41 223.04,-38.38 84.5,-19 81.46,-18.58 78.32,-18.1 75.17,-17.59"/>
<polygon fill="#63b8ff" stroke="#63b8ff" points="472.72,-62.6 482.96,-59.88 473.26,-55.62 472.72,-62.6"/>
</a>
</g>
</g>
<!-- Node6 -->
<g id="Node000006" class="node">
<title>Node6</title>
<g id="a_Node000006"><a xlink:href="ast__free_8c.html" target="_top" xlink:title=" ">
<polygon fill="white" stroke="#666666" points="307.5,-19 207.5,-19 207.5,0 307.5,0 307.5,-19"/>
<text text-anchor="middle" x="257.5" y="-7" font-family="Helvetica,sans-Serif" font-size="10.00">src/ast/ast_free.c</text>
</a>
</g>
</g>
<!-- Node4&#45;&gt;Node6 -->
<g id="edge5_Node000004_Node000006" class="edge">
<title>Node4&#45;&gt;Node6</title>
<g id="a_edge5_Node000004_Node000006"><a xlink:title=" ">
<path fill="none" stroke="#63b8ff" d="M478.36,-53.07C426.8,-43.13 350.14,-28.35 302.03,-19.08"/>
<polygon fill="#63b8ff" stroke="#63b8ff" points="477.83,-56.53 488.32,-54.98 479.16,-49.66 477.83,-56.53"/>
</a>
</g>
</g>
<!-- Node7 -->
<g id="Node000007" class="node">
<title>Node7</title>
<g id="a_Node000007"><a xlink:href="ast__init_8c.html" target="_top" xlink:title=" ">
<polygon fill="white" stroke="#666666" points="189.5,-19 93.5,-19 93.5,0 189.5,0 189.5,-19"/>
<text text-anchor="middle" x="141.5" y="-7" font-family="Helvetica,sans-Serif" font-size="10.00">src/ast/ast_init.c</text>
</a>
</g>
</g>
<!-- Node4&#45;&gt;Node7 -->
<g id="edge6_Node000004_Node000007" class="edge">
<title>Node4&#45;&gt;Node7</title>
<g id="a_edge6_Node000004_Node000007"><a xlink:title=" ">
<path fill="none" stroke="#63b8ff" d="M473.02,-55.86C406.2,-47.21 294.5,-32.55 198.5,-19 195.63,-18.59 192.67,-18.17 189.69,-17.74"/>
<polygon fill="#63b8ff" stroke="#63b8ff" points="472.59,-59.33 482.95,-57.14 473.48,-52.39 472.59,-59.33"/>
</a>
</g>
</g>
<!-- Node8 -->
<g id="Node000008" class="node">
<title>Node8</title>
<g id="a_Node000008"><a xlink:href="ast__run_8c.html" target="_top" xlink:title=" ">
<polygon fill="white" stroke="#666666" points="1359.5,-19 1263.5,-19 1263.5,0 1359.5,0 1359.5,-19"/>
<text text-anchor="middle" x="1311.5" y="-7" font-family="Helvetica,sans-Serif" font-size="10.00">src/ast/ast_run.c</text>
</a>
</g>
</g>
<!-- Node4&#45;&gt;Node8 -->
<g id="edge7_Node000004_Node000008" class="edge">
<title>Node4&#45;&gt;Node8</title>
<g id="a_edge7_Node000004_Node000008"><a xlink:title=" ">
<path fill="none" stroke="#63b8ff" d="M592.16,-55.04C886.89,-26.44 964.2,-48.46 1254.5,-19 1257.39,-18.71 1260.35,-18.37 1263.34,-18.01"/>
<polygon fill="#63b8ff" stroke="#63b8ff" points="591.65,-51.58 582.04,-56.04 592.33,-58.54 591.65,-51.58"/>
</a>
</g>
</g>
<!-- Node9 -->
<g id="Node000009" class="node">
<title>Node9</title>
<g id="a_Node000009"><a xlink:href="parser_8c.html" target="_top" xlink:title=" ">
<polygon fill="white" stroke="#666666" points="585.5,-19 479.5,-19 479.5,0 585.5,0 585.5,-19"/>
<text text-anchor="middle" x="532.5" y="-7" font-family="Helvetica,sans-Serif" font-size="10.00">src/parser/parser.c</text>
</a>
</g>
</g>
<!-- Node4&#45;&gt;Node9 -->
<g id="edge8_Node000004_Node000009" class="edge">
<title>Node4&#45;&gt;Node9</title>
<g id="a_edge8_Node000004_Node000009"><a xlink:title=" ">
<path fill="none" stroke="#63b8ff" d="M532.5,-44.66C532.5,-35.93 532.5,-25.99 532.5,-19.09"/>
<polygon fill="#63b8ff" stroke="#63b8ff" points="529,-44.75 532.5,-54.75 536,-44.75 529,-44.75"/>
</a>
</g>
</g>
<!-- Node10 -->
<g id="Node000010" class="node">
<title>Node10</title>
<g id="a_Node000010"><a xlink:href="parser__commands_8c.html" target="_top" xlink:title=" ">
<polygon fill="white" stroke="#666666" points="769.5,-19 603.5,-19 603.5,0 769.5,0 769.5,-19"/>
<text text-anchor="middle" x="686.5" y="-7" font-family="Helvetica,sans-Serif" font-size="10.00">src/parser/parser_commands.c</text>
</a>
</g>
</g>
<!-- Node4&#45;&gt;Node10 -->
<g id="edge9_Node000004_Node000010" class="edge">
<title>Node4&#45;&gt;Node10</title>
<g id="a_edge9_Node000004_Node000010"><a xlink:title=" ">
<path fill="none" stroke="#63b8ff" d="M566.88,-51.67C595.59,-41.79 635.86,-27.93 661.56,-19.08"/>
<polygon fill="#63b8ff" stroke="#63b8ff" points="565.56,-48.42 557.24,-54.98 567.84,-55.04 565.56,-48.42"/>
</a>
</g>
</g>
<!-- Node11 -->
<g id="Node000011" class="node">
<title>Node11</title>
<g id="a_Node000011"><a xlink:href="parser__lists_8c.html" target="_top" xlink:title=" ">
<polygon fill="white" stroke="#666666" points="919.5,-19 787.5,-19 787.5,0 919.5,0 919.5,-19"/>
<text text-anchor="middle" x="853.5" y="-7" font-family="Helvetica,sans-Serif" font-size="10.00">src/parser/parser_lists.c</text>
</a>
</g>
</g>
<!-- Node4&#45;&gt;Node11 -->
<g id="edge10_Node000004_Node000011" class="edge">
<title>Node4&#45;&gt;Node11</title>
<g id="a_edge10_Node000004_Node000011"><a xlink:title=" ">
<path fill="none" stroke="#63b8ff" d="M592.44,-53.6C652.77,-43.64 744.84,-28.44 801.98,-19.01"/>
<polygon fill="#63b8ff" stroke="#63b8ff" points="591.6,-50.19 582.3,-55.28 592.74,-57.1 591.6,-50.19"/>
</a>
</g>
</g>
<!-- Node12 -->
<g id="Node000012" class="node">
<title>Node12</title>
<g id="a_Node000012"><a xlink:href="parser__pipelines_8c.html" target="_top" xlink:title=" ">
<polygon fill="white" stroke="#666666" points="1093.5,-19 937.5,-19 937.5,0 1093.5,0 1093.5,-19"/>
<text text-anchor="middle" x="1015.5" y="-7" font-family="Helvetica,sans-Serif" font-size="10.00">src/parser/parser_pipelines.c</text>
</a>
</g>
</g>
<!-- Node4&#45;&gt;Node12 -->
<g id="edge11_Node000004_Node000012" class="edge">
<title>Node4&#45;&gt;Node12</title>
<g id="a_edge11_Node000004_Node000012"><a xlink:title=" ">
<path fill="none" stroke="#63b8ff" d="M592.2,-54.97C671.52,-45.38 838.26,-28.34 937.42,-18.33"/>
<polygon fill="#63b8ff" stroke="#63b8ff" points="591.55,-51.53 582.06,-56.22 592.41,-58.47 591.55,-51.53"/>
</a>
</g>
</g>
<!-- Node13 -->
<g id="Node000013" class="node">
<title>Node13</title>
<g id="a_Node000013"><a xlink:href="parser__rules_8c.html" target="_top" xlink:title=" ">
<polygon fill="white" stroke="#666666" points="461.5,-19 325.5,-19 325.5,0 461.5,0 461.5,-19"/>
<text text-anchor="middle" x="393.5" y="-7" font-family="Helvetica,sans-Serif" font-size="10.00">src/parser/parser_rules.c</text>
</a>
</g>
</g>
<!-- Node4&#45;&gt;Node13 -->
<g id="edge12_Node000004_Node000013" class="edge">
<title>Node4&#45;&gt;Node13</title>
<g id="a_edge12_Node000004_Node000013"><a xlink:title=" ">
<path fill="none" stroke="#63b8ff" d="M500.82,-51.42C475.03,-41.59 439.26,-27.95 416.24,-19.17"/>
<polygon fill="#63b8ff" stroke="#63b8ff" points="499.58,-54.69 510.17,-54.98 502.07,-48.15 499.58,-54.69"/>
</a>
</g>
</g>
<!-- Node14&#45;&gt;Node8 -->
<g id="edge14_Node000014_Node000008" class="edge">
<title>Node14&#45;&gt;Node8</title>
<g id="a_edge14_Node000014_Node000008"><a xlink:title=" ">
<path fill="none" stroke="#63b8ff" d="M1105.05,-103.57C1123.17,-89.54 1151.98,-68.71 1179.5,-55 1211.54,-39.04 1250.65,-26.66 1277.95,-19.06"/>
<polygon fill="#63b8ff" stroke="#63b8ff" points="1102.76,-100.91 1097.06,-109.85 1107.09,-106.42 1102.76,-100.91"/>
</a>
</g>
</g>
<!-- Node14&#45;&gt;Node15 -->
<g id="edge15_Node000014_Node000015" class="edge">
<title>Node14&#45;&gt;Node15</title>
<g id="a_edge15_Node000014_Node000015"><a xlink:title=" ">
<path fill="none" stroke="#63b8ff" d="M1119.64,-106.55C1146.94,-96.71 1185,-82.98 1209.45,-74.17"/>
<polygon fill="#63b8ff" stroke="#63b8ff" points="1118.34,-103.3 1110.12,-109.98 1120.71,-109.89 1118.34,-103.3"/>
</a>
</g>
</g>
<!-- Node18&#45;&gt;Node3 -->
<g id="edge19_Node000018_Node000003" class="edge">
<title>Node18&#45;&gt;Node3</title>
<g id="a_edge19_Node000018_Node000003"><a xlink:title=" ">
<path fill="none" stroke="#63b8ff" d="M927.28,-107.31C889.85,-97.39 836,-83.12 801.89,-74.08"/>
<polygon fill="#63b8ff" stroke="#63b8ff" points="926.8,-110.81 937.37,-109.98 928.6,-104.04 926.8,-110.81"/>
</a>
</g>
</g>
<!-- Node19 -->
<g id="Node000019" class="node">
<title>Node19</title>
<g id="a_Node000019"><a xlink:href="dot_8c.html" target="_top" xlink:title=" ">
<polygon fill="white" stroke="#666666" points="912.5,-74 820.5,-74 820.5,-55 912.5,-55 912.5,-74"/>
<text text-anchor="middle" x="866.5" y="-62" font-family="Helvetica,sans-Serif" font-size="10.00">src/builtin/dot.c</text>
</a>
</g>
</g>
<!-- Node18&#45;&gt;Node19 -->
<g id="edge20_Node000018_Node000019" class="edge">
<title>Node18&#45;&gt;Node19</title>
<g id="a_edge20_Node000018_Node000019"><a xlink:title=" ">
<path fill="none" stroke="#63b8ff" d="M943.98,-105.37C925.06,-95.63 899.8,-82.64 883.35,-74.17"/>
<polygon fill="#63b8ff" stroke="#63b8ff" points="942.46,-108.52 952.95,-109.98 945.66,-102.3 942.46,-108.52"/>
</a>
</g>
</g>
<!-- Node20 -->
<g id="Node000020" class="node">
<title>Node20</title>
<g id="a_Node000020"><a xlink:href="parser__aux_8h.html" target="_top" xlink:title=" ">
<polygon fill="white" stroke="#666666" points="1062,-74 931,-74 931,-55 1062,-55 1062,-74"/>
<text text-anchor="middle" x="996.5" y="-62" font-family="Helvetica,sans-Serif" font-size="10.00">src/parser/parser_aux.h</text>
</a>
</g>
</g>
<!-- Node18&#45;&gt;Node20 -->
<g id="edge21_Node000018_Node000020" class="edge">
<title>Node18&#45;&gt;Node20</title>
<g id="a_edge21_Node000018_Node000020"><a xlink:title=" ">
<path fill="none" stroke="#63b8ff" d="M978.51,-100.82C983.09,-91.82 988.45,-81.29 992.12,-74.09"/>
<polygon fill="#63b8ff" stroke="#63b8ff" points="975.38,-99.25 973.96,-109.75 981.62,-102.43 975.38,-99.25"/>
</a>
</g>
</g>
<!-- Node20&#45;&gt;Node9 -->
<g id="edge22_Node000020_Node000009" class="edge">
<title>Node20&#45;&gt;Node9</title>
<g id="a_edge22_Node000020_Node000009"><a xlink:title=" ">
<path fill="none" stroke="#63b8ff" d="M920.42,-54.89C774.49,-38.68 736.35,-36.53 594.5,-19 591.59,-18.64 588.6,-18.26 585.59,-17.87"/>
<polygon fill="#63b8ff" stroke="#63b8ff" points="920.33,-58.4 930.65,-56.03 921.1,-51.44 920.33,-58.4"/>
</a>
</g>
</g>
<!-- Node20&#45;&gt;Node10 -->
<g id="edge23_Node000020_Node000010" class="edge">
<title>Node20&#45;&gt;Node10</title>
<g id="a_edge23_Node000020_Node000010"><a xlink:title=" ">
<path fill="none" stroke="#63b8ff" d="M936.54,-53.25C878.32,-43.3 790.99,-28.36 736.44,-19.04"/>
<polygon fill="#63b8ff" stroke="#63b8ff" points="936.25,-56.75 946.69,-54.98 937.43,-49.85 936.25,-56.75"/>
</a>
</g>
</g>
<!-- Node20&#45;&gt;Node11 -->
<g id="edge24_Node000020_Node000011" class="edge">
<title>Node20&#45;&gt;Node11</title>
<g id="a_edge24_Node000020_Node000011"><a xlink:title=" ">
<path fill="none" stroke="#63b8ff" d="M963.91,-51.42C937.38,-41.59 900.57,-27.95 876.89,-19.17"/>
<polygon fill="#63b8ff" stroke="#63b8ff" points="962.93,-54.79 973.52,-54.98 965.36,-48.23 962.93,-54.79"/>
</a>
</g>
</g>
<!-- Node20&#45;&gt;Node12 -->
<g id="edge25_Node000020_Node000012" class="edge">
<title>Node20&#45;&gt;Node12</title>
<g id="a_edge25_Node000020_Node000012"><a xlink:title=" ">
<path fill="none" stroke="#63b8ff" d="M1003.05,-45.24C1006.22,-36.37 1009.89,-26.14 1012.42,-19.09"/>
<polygon fill="#63b8ff" stroke="#63b8ff" points="999.72,-44.15 999.64,-54.75 1006.31,-46.52 999.72,-44.15"/>
</a>
</g>
</g>
<!-- Node20&#45;&gt;Node13 -->
<g id="edge27_Node000020_Node000013" class="edge">
<title>Node20&#45;&gt;Node13</title>
<g id="a_edge27_Node000020_Node000013"><a xlink:title=" ">
<path fill="none" stroke="#63b8ff" d="M920.67,-54.95C719.68,-35.75 667.45,-37.73 470.5,-19 467.55,-18.72 464.55,-18.43 461.51,-18.12"/>
<polygon fill="#63b8ff" stroke="#63b8ff" points="920.37,-58.44 930.66,-55.91 921.04,-51.47 920.37,-58.44"/>
</a>
</g>
</g>
<!-- Node20&#45;&gt;Node21 -->
<g id="edge26_Node000020_Node000021" class="edge">
<title>Node20&#45;&gt;Node21</title>
<g id="a_edge26_Node000020_Node000021"><a xlink:title=" ">
<path fill="none" stroke="#63b8ff" d="M1072.02,-55.07C1160.54,-45.2 1306.41,-28.92 1395.25,-19.01"/>
<polygon fill="#63b8ff" stroke="#63b8ff" points="1071.6,-51.6 1062.05,-56.19 1072.37,-58.56 1071.6,-51.6"/>
</a>
</g>
</g>
<!-- Node22 -->
<g id="Node000022" class="node">
<title>Node22</title>
<g id="a_Node000022"><a xlink:href="parser__utils_8c.html" target="_top" xlink:title=" ">
<polygon fill="white" stroke="#666666" points="1245,-19 1112,-19 1112,0 1245,0 1245,-19"/>
<text text-anchor="middle" x="1178.5" y="-7" font-family="Helvetica,sans-Serif" font-size="10.00">src/parser/parser_utils.c</text>
</a>
</g>
</g>
<!-- Node20&#45;&gt;Node22 -->
<g id="edge28_Node000020_Node000022" class="edge">
<title>Node20&#45;&gt;Node22</title>
<g id="a_edge28_Node000020_Node000022"><a xlink:title=" ">
<path fill="none" stroke="#63b8ff" d="M1035.36,-52.18C1069.4,-42.27 1118.12,-28.08 1149.03,-19.08"/>
<polygon fill="#63b8ff" stroke="#63b8ff" points="1034.36,-48.83 1025.74,-54.98 1036.32,-55.55 1034.36,-48.83"/>
</a>
</g>
</g>
<!-- Node23&#45;&gt;Node3 -->
<g id="edge30_Node000023_Node000003" class="edge">
<title>Node23&#45;&gt;Node3</title>
<g id="a_edge30_Node000023_Node000003"><a xlink:title=" ">
<path fill="none" stroke="#63b8ff" d="M690.52,-105.37C709.8,-95.63 735.55,-82.64 752.32,-74.17"/>
<polygon fill="#63b8ff" stroke="#63b8ff" points="688.72,-102.35 681.37,-109.98 691.87,-108.6 688.72,-102.35"/>
</a>
</g>
</g>
<!-- Node24 -->
<g id="Node000024" class="node">
<title>Node24</title>
<g id="a_Node000024"><a xlink:href="prettyprint_8c.html" target="_top" xlink:title=" ">
<polygon fill="white" stroke="#666666" points="718.5,-74 600.5,-74 600.5,-55 718.5,-55 718.5,-74"/>
<text text-anchor="middle" x="659.5" y="-62" font-family="Helvetica,sans-Serif" font-size="10.00">src/utils/prettyprint.c</text>
</a>
</g>
</g>
<!-- Node23&#45;&gt;Node24 -->
<g id="edge31_Node000023_Node000024" class="edge">
<title>Node23&#45;&gt;Node24</title>
<g id="a_edge31_Node000023_Node000024"><a xlink:title=" ">
<path fill="none" stroke="#63b8ff" d="M662.72,-99.66C661.9,-90.93 660.96,-80.99 660.31,-74.09"/>
<polygon fill="#63b8ff" stroke="#63b8ff" points="659.25,-100.12 663.67,-109.75 666.22,-99.46 659.25,-100.12"/>
</a>
</g>
</g>
<!-- Node25&#45;&gt;Node8 -->
<g id="edge34_Node000025_Node000008" class="edge">
<title>Node25&#45;&gt;Node8</title>
<g id="a_edge34_Node000025_Node000008"><a xlink:title=" ">
<path fill="none" stroke="#63b8ff" d="M1362.86,-105.31C1349.52,-97.93 1334.74,-87.48 1325.5,-74 1313.89,-57.05 1311.71,-32.11 1311.42,-19.1"/>
<polygon fill="#63b8ff" stroke="#63b8ff" points="1361.29,-108.43 1371.78,-109.92 1364.5,-102.22 1361.29,-108.43"/>
</a>
</g>
</g>
<!-- Node25&#45;&gt;Node15 -->
<g id="edge35_Node000025_Node000015" class="edge">
<title>Node25&#45;&gt;Node15</title>
<g id="a_edge35_Node000025_Node000015"><a xlink:title=" ">
<path fill="none" stroke="#63b8ff" d="M1357.4,-106.8C1327.72,-96.91 1285.9,-82.97 1259.25,-74.08"/>
<polygon fill="#63b8ff" stroke="#63b8ff" points="1356.36,-110.14 1366.95,-109.98 1358.57,-103.5 1356.36,-110.14"/>
</a>
</g>
</g>
<!-- Node26 -->
<g id="Node000026" class="node">
<title>Node26</title>
<g id="a_Node000026"><a xlink:href="redir__exec_8c.html" target="_top" xlink:title=" ">
<polygon fill="white" stroke="#666666" points="1452.5,-74 1334.5,-74 1334.5,-55 1452.5,-55 1452.5,-74"/>
<text text-anchor="middle" x="1393.5" y="-62" font-family="Helvetica,sans-Serif" font-size="10.00">src/exec/redir_exec.c</text>
</a>
</g>
</g>
<!-- Node25&#45;&gt;Node26 -->
<g id="edge36_Node000025_Node000026" class="edge">
<title>Node25&#45;&gt;Node26</title>
<g id="a_edge36_Node000025_Node000026"><a xlink:title=" ">
<path fill="none" stroke="#63b8ff" d="M1392.86,-99.66C1393.02,-90.93 1393.21,-80.99 1393.34,-74.09"/>
<polygon fill="#63b8ff" stroke="#63b8ff" points="1389.35,-99.68 1392.67,-109.75 1396.35,-99.82 1389.35,-99.68"/>
</a>
</g>
</g>
</g>
</svg>
