<?xml version="1.0" encoding="UTF-8" standalone="no"?>
<!DOCTYPE svg PUBLIC "-//W3C//DTD SVG 1.1//EN"
 "http://www.w3.org/Graphics/SVG/1.1/DTD/svg11.dtd">
<!-- Generated by graphviz version 2.43.0 (0)
 -->
<!-- Title: read_io Pages: 1 -->
<svg width="1235pt" height="546pt"
 viewBox="0.00 0.00 1235.00 545.63" xmlns="http://www.w3.org/2000/svg" xmlns:xlink="http://www.w3.org/1999/xlink">
<g id="graph0" class="graph" transform="scale(1 1) rotate(0) translate(4 541.63)">
<title>read_io</title>
<!-- Node1 -->
<g id="Node000001" class="node">
<title>Node1</title>
<g id="a_Node000001"><a xlink:title="Read io num from string.">
<polygon fill="#999999" stroke="#666666" points="1227,-76 1174,-76 1174,-57 1227,-57 1227,-76"/>
<text text-anchor="middle" x="1200.5" y="-64" font-family="Helvetica,sans-Serif" font-size="10.00">read_io</text>
</a>
</g>
</g>
<!-- Node2 -->
<g id="Node000002" class="node">
<title>Node2</title>
<g id="a_Node000002"><a xlink:href="redir__exec_8c.html#a007e10b16e39db1606efa3f9650fc163" target="_top" xlink:title="Handle dup redir.">
<polygon fill="white" stroke="#666666" points="1138,-57 1037,-57 1037,-38 1138,-38 1138,-57"/>
<text text-anchor="middle" x="1087.5" y="-45" font-family="Helvetica,sans-Serif" font-size="10.00">handle_dup_redir</text>
</a>
</g>
</g>
<!-- Node1&#45;&gt;Node2 -->
<g id="edge1_Node000001_Node000002" class="edge">
<title>Node1&#45;&gt;Node2</title>
<g id="a_edge1_Node000001_Node000002"><a xlink:title=" ">
<path fill="none" stroke="#63b8ff" d="M1163.8,-60.39C1155.62,-58.99 1146.77,-57.47 1138.12,-55.99"/>
<polygon fill="#63b8ff" stroke="#63b8ff" points="1163.31,-63.86 1173.76,-62.09 1164.49,-56.96 1163.31,-63.86"/>
</a>
</g>
</g>
<!-- Node3 -->
<g id="Node000003" class="node">
<title>Node3</title>
<g id="a_Node000003"><a xlink:href="redir__exec_8c.html#ace19b4ee14b7f7739a289d5119c95663" target="_top" xlink:title="Apply redirs.">
<polygon fill="white" stroke="#666666" points="1001,-76 930,-76 930,-57 1001,-57 1001,-76"/>
<text text-anchor="middle" x="965.5" y="-64" font-family="Helvetica,sans-Serif" font-size="10.00">redir_apply</text>
</a>
</g>
</g>
<!-- Node1&#45;&gt;Node3 -->
<g id="edge36_Node000001_Node000003" class="edge">
<title>Node1&#45;&gt;Node3</title>
<g id="a_edge36_Node000001_Node000003"><a xlink:title=" ">
<path fill="none" stroke="#63b8ff" d="M1163.66,-66.5C1119.44,-66.5 1044.78,-66.5 1001.13,-66.5"/>
<polygon fill="#63b8ff" stroke="#63b8ff" points="1163.67,-70 1173.67,-66.5 1163.67,-63 1163.67,-70"/>
</a>
</g>
</g>
<!-- Node2&#45;&gt;Node3 -->
<g id="edge2_Node000002_Node000003" class="edge">
<title>Node2&#45;&gt;Node3</title>
<g id="a_edge2_Node000002_Node000003"><a xlink:title=" ">
<path fill="none" stroke="#63b8ff" d="M1027.06,-56.91C1018.21,-58.31 1009.35,-59.72 1001.24,-61"/>
<polygon fill="#63b8ff" stroke="#63b8ff" points="1027.67,-60.36 1037,-55.34 1026.57,-53.44 1027.67,-60.36"/>
</a>
</g>
</g>
<!-- Node4 -->
<g id="Node000004" class="node">
<title>Node4</title>
<g id="a_Node000004"><a xlink:href="ast__run_8c.html#aa3e6a973e744d748ee415840596beb53" target="_top" xlink:title=" ">
<polygon fill="white" stroke="#666666" points="894,-262 785,-262 785,-243 894,-243 894,-262"/>
<text text-anchor="middle" x="839.5" y="-250" font-family="Helvetica,sans-Serif" font-size="10.00">ast_run_shell_redir</text>
</a>
</g>
</g>
<!-- Node3&#45;&gt;Node4 -->
<g id="edge3_Node000003_Node000004" class="edge">
<title>Node3&#45;&gt;Node4</title>
<g id="a_edge3_Node000003_Node000004"><a xlink:title=" ">
<path fill="none" stroke="#63b8ff" d="M952.17,-84.99C926.19,-123.96 866.59,-213.36 846.93,-242.86"/>
<polygon fill="#63b8ff" stroke="#63b8ff" points="955.37,-86.5 958.01,-76.24 949.55,-82.62 955.37,-86.5"/>
</a>
</g>
</g>
<!-- Node20 -->
<g id="Node000020" class="node">
<title>Node20</title>
<g id="a_Node000020"><a xlink:href="exec_8c.html#a287d81b4658832f192750310e2925917" target="_top" xlink:title="Execute the builtin command with given args.">
<polygon fill="white" stroke="#666666" points="273.5,-234 223.5,-234 223.5,-215 273.5,-215 273.5,-234"/>
<text text-anchor="middle" x="248.5" y="-222" font-family="Helvetica,sans-Serif" font-size="10.00">exec_b</text>
</a>
</g>
</g>
<!-- Node3&#45;&gt;Node20 -->
<g id="edge35_Node000003_Node000020" class="edge">
<title>Node3&#45;&gt;Node20</title>
<g id="a_edge35_Node000003_Node000020"><a xlink:title=" ">
<path fill="none" stroke="#63b8ff" d="M919.72,-60.85C871.4,-55.25 792.12,-47.5 723.5,-47.5 723.5,-47.5 723.5,-47.5 492.5,-47.5 407.68,-47.5 382.15,-68.18 317,-122.5 285.03,-149.15 262.45,-194.78 253.62,-214.71"/>
<polygon fill="#63b8ff" stroke="#63b8ff" points="919.5,-64.35 929.85,-62.05 920.33,-57.4 919.5,-64.35"/>
</a>
</g>
</g>
<!-- Node21 -->
<g id="Node000021" class="node">
<title>Node21</title>
<g id="a_Node000021"><a xlink:href="exec_8c.html#a9707f3708c634be49a10356313da4d30" target="_top" xlink:title="Execute the command with given arguments.">
<polygon fill="white" stroke="#666666" points="742,-19 703,-19 703,0 742,0 742,-19"/>
<text text-anchor="middle" x="722.5" y="-7" font-family="Helvetica,sans-Serif" font-size="10.00">exec</text>
</a>
</g>
</g>
<!-- Node3&#45;&gt;Node21 -->
<g id="edge31_Node000003_Node000021" class="edge">
<title>Node3&#45;&gt;Node21</title>
<g id="a_edge31_Node000003_Node000021"><a xlink:title=" ">
<path fill="none" stroke="#63b8ff" d="M938.81,-52.21C925.76,-45.54 909.43,-38.08 894,-33.5 840.27,-17.54 773.78,-12.08 742.05,-10.31"/>
<polygon fill="#63b8ff" stroke="#63b8ff" points="937.2,-55.32 947.68,-56.88 940.46,-49.12 937.2,-55.32"/>
</a>
</g>
</g>
<!-- Node22 -->
<g id="Node000022" class="node">
<title>Node22</title>
<g id="a_Node000022"><a xlink:href="exec_8c.html#a60ea263265f67ff588c7de955c83bcec" target="_top" xlink:title="Exec assignments in cmd.">
<polygon fill="white" stroke="#666666" points="418,-151 317,-151 317,-132 418,-132 418,-151"/>
<text text-anchor="middle" x="367.5" y="-139" font-family="Helvetica,sans-Serif" font-size="10.00">exec_assignment</text>
</a>
</g>
</g>
<!-- Node3&#45;&gt;Node22 -->
<g id="edge33_Node000003_Node000022" class="edge">
<title>Node3&#45;&gt;Node22</title>
<g id="a_edge33_Node000003_Node000022"><a xlink:title=" ">
<path fill="none" stroke="#63b8ff" d="M919.72,-72.15C871.4,-77.75 792.12,-85.5 723.5,-85.5 723.5,-85.5 723.5,-85.5 613.5,-85.5 531.25,-85.5 437.29,-115.86 393.46,-131.87"/>
<polygon fill="#63b8ff" stroke="#63b8ff" points="920.33,-75.6 929.85,-70.95 919.5,-68.65 920.33,-75.6"/>
</a>
</g>
</g>
<!-- Node5 -->
<g id="Node000005" class="node">
<title>Node5</title>
<g id="a_Node000005"><a xlink:href="ast_8c.html#a572345b2707780bbbc5bbaacdca9c372" target="_top" xlink:title=" ">
<polygon fill="white" stroke="#666666" points="749,-262 696,-262 696,-243 749,-243 749,-262"/>
<text text-anchor="middle" x="722.5" y="-250" font-family="Helvetica,sans-Serif" font-size="10.00">run_ast</text>
</a>
</g>
</g>
<!-- Node4&#45;&gt;Node5 -->
<g id="edge4_Node000004_Node000005" class="edge">
<title>Node4&#45;&gt;Node5</title>
<g id="a_edge4_Node000004_Node000005"><a xlink:title=" ">
<path fill="none" stroke="#63b8ff" d="M774.53,-245.79C765.56,-245.89 756.81,-246.22 749.15,-246.77"/>
<polygon fill="#63b8ff" stroke="#63b8ff" points="774.71,-249.29 784.7,-245.76 774.69,-242.29 774.71,-249.29"/>
</a>
</g>
</g>
<!-- Node5&#45;&gt;Node4 -->
<g id="edge16_Node000005_Node000004" class="edge">
<title>Node5&#45;&gt;Node4</title>
<g id="a_edge16_Node000005_Node000004"><a xlink:title=" ">
<path fill="none" stroke="#63b8ff" d="M759.3,-258.8C767.36,-259.15 776.09,-259.3 784.7,-259.24"/>
<polygon fill="#63b8ff" stroke="#63b8ff" points="759.33,-255.3 749.15,-258.23 758.94,-262.29 759.33,-255.3"/>
</a>
</g>
</g>
<!-- Node6 -->
<g id="Node000006" class="node">
<title>Node6</title>
<g id="a_Node000006"><a xlink:href="ast__run_8c.html#a8a01fec616135007fc5b3968a101901b" target="_top" xlink:title=" ">
<polygon fill="white" stroke="#666666" points="660,-299 569,-299 569,-280 660,-280 660,-299"/>
<text text-anchor="middle" x="614.5" y="-287" font-family="Helvetica,sans-Serif" font-size="10.00">ast_run_and_or</text>
</a>
</g>
</g>
<!-- Node5&#45;&gt;Node6 -->
<g id="edge5_Node000005_Node000006" class="edge">
<title>Node5&#45;&gt;Node6</title>
<g id="a_edge5_Node000005_Node000006"><a xlink:title=" ">
<path fill="none" stroke="#63b8ff" d="M686.05,-258.46C666.6,-264.47 643.58,-273.07 629.26,-279.98"/>
<polygon fill="#63b8ff" stroke="#63b8ff" points="687.24,-261.76 695.84,-255.58 685.26,-255.05 687.24,-261.76"/>
</a>
</g>
</g>
<!-- Node7 -->
<g id="Node000007" class="node">
<title>Node7</title>
<g id="a_Node000007"><a xlink:href="ast__run_8c.html#a9d83d4834a61ffe21eb77838d70ae173" target="_top" xlink:title=" ">
<polygon fill="white" stroke="#666666" points="650,-262 579,-262 579,-243 650,-243 650,-262"/>
<text text-anchor="middle" x="614.5" y="-250" font-family="Helvetica,sans-Serif" font-size="10.00">ast_run_for</text>
</a>
</g>
</g>
<!-- Node5&#45;&gt;Node7 -->
<g id="edge7_Node000005_Node000007" class="edge">
<title>Node5&#45;&gt;Node7</title>
<g id="a_edge7_Node000005_Node000007"><a xlink:title=" ">
<path fill="none" stroke="#63b8ff" d="M685.71,-246.08C674.22,-245.63 661.53,-245.64 650.14,-246.12"/>
<polygon fill="#63b8ff" stroke="#63b8ff" points="685.67,-249.58 695.84,-246.62 686.04,-242.59 685.67,-249.58"/>
</a>
</g>
</g>
<!-- Node8 -->
<g id="Node000008" class="node">
<title>Node8</title>
<g id="a_Node000008"><a xlink:href="ast__run_8c.html#a0a7138b1f2608ea36211c9b78988c248" target="_top" xlink:title=" ">
<polygon fill="white" stroke="#666666" points="647,-225 582,-225 582,-206 647,-206 647,-225"/>
<text text-anchor="middle" x="614.5" y="-213" font-family="Helvetica,sans-Serif" font-size="10.00">ast_run_if</text>
</a>
</g>
</g>
<!-- Node5&#45;&gt;Node8 -->
<g id="edge9_Node000005_Node000008" class="edge">
<title>Node5&#45;&gt;Node8</title>
<g id="a_edge9_Node000005_Node000008"><a xlink:title=" ">
<path fill="none" stroke="#63b8ff" d="M698.12,-238.63C683.16,-232.23 663.55,-225.21 647.2,-220.32"/>
<polygon fill="#63b8ff" stroke="#63b8ff" points="697.09,-242 707.64,-242.93 699.97,-235.63 697.09,-242"/>
</a>
</g>
</g>
<!-- Node9 -->
<g id="Node000009" class="node">
<title>Node9</title>
<g id="a_Node000009"><a xlink:href="ast__run_8c.html#ae25cd3ced8abafd76110dba8852a6b87" target="_top" xlink:title=" ">
<polygon fill="white" stroke="#666666" points="651,-170 578,-170 578,-151 651,-151 651,-170"/>
<text text-anchor="middle" x="614.5" y="-158" font-family="Helvetica,sans-Serif" font-size="10.00">ast_run_list</text>
</a>
</g>
</g>
<!-- Node5&#45;&gt;Node9 -->
<g id="edge11_Node000005_Node000009" class="edge">
<title>Node5&#45;&gt;Node9</title>
<g id="a_edge11_Node000005_Node000009"><a xlink:title=" ">
<path fill="none" stroke="#63b8ff" d="M709.89,-235.19C697.61,-221.72 677.61,-203.68 660,-188.5 652.85,-182.33 644.95,-175.7 637.81,-170.23"/>
<polygon fill="#63b8ff" stroke="#63b8ff" points="707.31,-237.56 716.45,-242.91 712.65,-233.02 707.31,-237.56"/>
</a>
</g>
</g>
<!-- Node10 -->
<g id="Node000010" class="node">
<title>Node10</title>
<g id="a_Node000010"><a xlink:href="ast__run_8c.html#a536f37ba9bffcd2099fef668656181e0" target="_top" xlink:title=" ">
<polygon fill="white" stroke="#666666" points="654,-133 575,-133 575,-114 654,-114 654,-133"/>
<text text-anchor="middle" x="614.5" y="-121" font-family="Helvetica,sans-Serif" font-size="10.00">ast_run_loop</text>
</a>
</g>
</g>
<!-- Node5&#45;&gt;Node10 -->
<g id="edge14_Node000005_Node000010" class="edge">
<title>Node5&#45;&gt;Node10</title>
<g id="a_edge14_Node000005_Node000010"><a xlink:title=" ">
<path fill="none" stroke="#63b8ff" d="M717.25,-233.2C709.49,-206.55 690.88,-159.84 660,-132.5 658.25,-130.95 656.36,-129.53 654.36,-128.23"/>
<polygon fill="#63b8ff" stroke="#63b8ff" points="713.9,-234.21 719.85,-242.97 720.66,-232.41 713.9,-234.21"/>
</a>
</g>
</g>
<!-- Node11 -->
<g id="Node000011" class="node">
<title>Node11</title>
<g id="a_Node000011"><a xlink:href="exec_8c.html#a23babf893bbcd2f6126698a1a19b169f" target="_top" xlink:title="Execute funct with given arguments.">
<polygon fill="white" stroke="#666666" points="281,-487 216,-487 216,-468 281,-468 281,-487"/>
<text text-anchor="middle" x="248.5" y="-475" font-family="Helvetica,sans-Serif" font-size="10.00">exec_func</text>
</a>
</g>
</g>
<!-- Node5&#45;&gt;Node11 -->
<g id="edge17_Node000005_Node000011" class="edge">
<title>Node5&#45;&gt;Node11</title>
<g id="a_edge17_Node000005_Node000011"><a xlink:title=" ">
<path fill="none" stroke="#63b8ff" d="M719.11,-272.28C712.62,-322.24 692.92,-451.34 660,-476.5 601.11,-521.51 366.92,-494.04 281.17,-482.15"/>
<polygon fill="#63b8ff" stroke="#63b8ff" points="722.61,-272.49 720.38,-262.13 715.66,-271.62 722.61,-272.49"/>
</a>
</g>
</g>
<!-- Node14 -->
<g id="Node000014" class="node">
<title>Node14</title>
<g id="a_Node000014"><a xlink:href="exec_8c.html#ab743cb88e12e9b922050925fd2075e36" target="_top" xlink:title="Execute a pipeline of commands.">
<polygon fill="white" stroke="#666666" points="647,-412 582,-412 582,-393 647,-393 647,-412"/>
<text text-anchor="middle" x="614.5" y="-400" font-family="Helvetica,sans-Serif" font-size="10.00">exec_pipe</text>
</a>
</g>
</g>
<!-- Node5&#45;&gt;Node14 -->
<g id="edge21_Node000005_Node000014" class="edge">
<title>Node5&#45;&gt;Node14</title>
<g id="a_edge21_Node000005_Node000014"><a xlink:title=" ">
<path fill="none" stroke="#63b8ff" d="M716.15,-271.97C707.93,-298.79 689.93,-347.33 660,-378.5 654.29,-384.45 646.77,-389.27 639.54,-392.98"/>
<polygon fill="#63b8ff" stroke="#63b8ff" points="719.55,-272.8 718.99,-262.22 712.83,-270.84 719.55,-272.8"/>
</a>
</g>
</g>
<!-- Node16 -->
<g id="Node000016" class="node">
<title>Node16</title>
<g id="a_Node000016"><a xlink:href="42sh_8c.html#a3c04138a5bfe5d72780bb7e82a18e627" target="_top" xlink:title=" ">
<polygon fill="white" stroke="#666666" points="635,-336 594,-336 594,-317 635,-317 635,-336"/>
<text text-anchor="middle" x="614.5" y="-324" font-family="Helvetica,sans-Serif" font-size="10.00">main</text>
</a>
</g>
</g>
<!-- Node5&#45;&gt;Node16 -->
<g id="edge25_Node000005_Node000016" class="edge">
<title>Node5&#45;&gt;Node16</title>
<g id="a_edge25_Node000005_Node000016"><a xlink:title=" ">
<path fill="none" stroke="#63b8ff" d="M705.88,-269.66C694.16,-281.75 677.25,-297.65 660,-308.5 652.38,-313.29 643.27,-317.24 635.28,-320.21"/>
<polygon fill="#63b8ff" stroke="#63b8ff" points="708.45,-272.03 712.77,-262.36 703.36,-267.23 708.45,-272.03"/>
</a>
</g>
</g>
<!-- Node17 -->
<g id="Node000017" class="node">
<title>Node17</title>
<g id="a_Node000017"><a xlink:href="dot_8c.html#a17477ee2b0f1b8b9306566c990d15b35" target="_top" xlink:title="Main loop of dot builtin.">
<polygon fill="white" stroke="#666666" points="648.5,-467 580.5,-467 580.5,-448 648.5,-448 648.5,-467"/>
<text text-anchor="middle" x="614.5" y="-455" font-family="Helvetica,sans-Serif" font-size="10.00">main_loop</text>
</a>
</g>
</g>
<!-- Node5&#45;&gt;Node17 -->
<g id="edge26_Node000005_Node000017" class="edge">
<title>Node5&#45;&gt;Node17</title>
<g id="a_edge26_Node000005_Node000017"><a xlink:title=" ">
<path fill="none" stroke="#63b8ff" d="M720.35,-272.13C717.14,-309.48 705.07,-391.32 660,-439.5 656.81,-442.91 652.89,-445.69 648.71,-447.95"/>
<polygon fill="#63b8ff" stroke="#63b8ff" points="723.85,-272.29 721.09,-262.06 716.86,-271.77 723.85,-272.29"/>
</a>
</g>
</g>
<!-- Node6&#45;&gt;Node5 -->
<g id="edge6_Node000006_Node000005" class="edge">
<title>Node6&#45;&gt;Node5</title>
<g id="a_edge6_Node000006_Node000005"><a xlink:title=" ">
<path fill="none" stroke="#63b8ff" d="M669.82,-277.29C683.87,-272.34 697.79,-266.81 707.64,-262.07"/>
<polygon fill="#63b8ff" stroke="#63b8ff" points="668.46,-274.05 660.13,-280.6 670.72,-280.68 668.46,-274.05"/>
</a>
</g>
</g>
<!-- Node7&#45;&gt;Node5 -->
<g id="edge8_Node000007_Node000005" class="edge">
<title>Node7&#45;&gt;Node5</title>
<g id="a_edge8_Node000007_Node000005"><a xlink:title=" ">
<path fill="none" stroke="#63b8ff" d="M660.16,-259.18C672.34,-259.4 685.12,-259.13 695.84,-258.38"/>
<polygon fill="#63b8ff" stroke="#63b8ff" points="660.23,-255.68 650.14,-258.88 660.03,-262.67 660.23,-255.68"/>
</a>
</g>
</g>
<!-- Node8&#45;&gt;Node5 -->
<g id="edge10_Node000008_Node000005" class="edge">
<title>Node8&#45;&gt;Node5</title>
<g id="a_edge10_Node000008_Node000005"><a xlink:title=" ">
<path fill="none" stroke="#63b8ff" d="M638.42,-229.17C655.32,-236.44 678.32,-244.53 695.84,-249.42"/>
<polygon fill="#63b8ff" stroke="#63b8ff" points="639.81,-225.96 629.26,-225.02 636.92,-232.34 639.81,-225.96"/>
</a>
</g>
</g>
<!-- Node9&#45;&gt;Node5 -->
<g id="edge13_Node000009_Node000005" class="edge">
<title>Node9&#45;&gt;Node5</title>
<g id="a_edge13_Node000009_Node000005"><a xlink:title=" ">
<path fill="none" stroke="#63b8ff" d="M627.33,-177.55C636.36,-186.55 649.05,-197.06 660,-206.5 674.43,-218.94 690.46,-233.3 702.54,-242.97"/>
<polygon fill="#63b8ff" stroke="#63b8ff" points="629.83,-175.09 620.49,-170.1 624.68,-179.83 629.83,-175.09"/>
</a>
</g>
</g>
<!-- Node9&#45;&gt;Node9 -->
<g id="edge12_Node000009_Node000009" class="edge">
<title>Node9&#45;&gt;Node9</title>
<g id="a_edge12_Node000009_Node000009"><a xlink:title=" ">
<path fill="none" stroke="#63b8ff" d="M634.5,-179.55C633.16,-184.38 626.5,-188 614.5,-188 595.3,-188 589.76,-178.73 597.85,-170.08"/>
<polygon fill="#63b8ff" stroke="#63b8ff" points="637.78,-178.34 631.15,-170.08 631.18,-180.68 637.78,-178.34"/>
</a>
</g>
</g>
<!-- Node10&#45;&gt;Node5 -->
<g id="edge15_Node000010_Node000005" class="edge">
<title>Node10&#45;&gt;Node5</title>
<g id="a_edge15_Node000010_Node000005"><a xlink:title=" ">
<path fill="none" stroke="#63b8ff" d="M636.47,-137.07C644.51,-140.5 653.35,-144.61 660,-150.5 690.19,-177.22 708.64,-222.46 716.71,-242.8"/>
<polygon fill="#63b8ff" stroke="#63b8ff" points="637.83,-133.84 627.26,-133.13 635.08,-140.28 637.83,-133.84"/>
</a>
</g>
</g>
<!-- Node12 -->
<g id="Node000012" class="node">
<title>Node12</title>
<g id="a_Node000012"><a xlink:href="exec_8c.html#ae65edaa99b26b49d60c451157d38b34a" target="_top" xlink:title="Execute les commandes avec les args donnes.">
<polygon fill="white" stroke="#666666" points="180,-272 115,-272 115,-253 180,-253 180,-272"/>
<text text-anchor="middle" x="147.5" y="-260" font-family="Helvetica,sans-Serif" font-size="10.00">exec_cmd</text>
</a>
</g>
</g>
<!-- Node11&#45;&gt;Node12 -->
<g id="edge18_Node000011_Node000012" class="edge">
<title>Node11&#45;&gt;Node12</title>
<g id="a_edge18_Node000011_Node000012"><a xlink:title=" ">
<path fill="none" stroke="#63b8ff" d="M238.84,-458.7C218.54,-414.62 168.43,-305.78 153.06,-272.4"/>
<polygon fill="#63b8ff" stroke="#63b8ff" points="235.76,-460.36 243.12,-467.98 242.11,-457.44 235.76,-460.36"/>
</a>
</g>
</g>
<!-- Node13 -->
<g id="Node000013" class="node">
<title>Node13</title>
<g id="a_Node000013"><a xlink:href="ast__run_8c.html#aeb6878a59c6907e5669fc3cc428913d9" target="_top" xlink:title=" ">
<polygon fill="white" stroke="#666666" points="79,-328 0,-328 0,-309 79,-309 79,-328"/>
<text text-anchor="middle" x="39.5" y="-316" font-family="Helvetica,sans-Serif" font-size="10.00">ast_run_cmd</text>
</a>
</g>
</g>
<!-- Node12&#45;&gt;Node13 -->
<g id="edge19_Node000012_Node000013" class="edge">
<title>Node12&#45;&gt;Node13</title>
<g id="a_edge19_Node000012_Node000013"><a xlink:title=" ">
<path fill="none" stroke="#63b8ff" d="M118.98,-277.04C100.01,-287.06 75.33,-300.1 58.75,-308.86"/>
<polygon fill="#63b8ff" stroke="#63b8ff" points="120.83,-280.02 128.04,-272.25 117.56,-273.83 120.83,-280.02"/>
</a>
</g>
</g>
<!-- Node13&#45;&gt;Node5 -->
<g id="edge20_Node000013_Node000005" class="edge">
<title>Node13&#45;&gt;Node5</title>
<g id="a_edge20_Node000013_Node000005"><a xlink:title=" ">
<path fill="none" stroke="#63b8ff" d="M47.89,-337.51C69.7,-390.07 139.16,-533.5 247.5,-533.5 494.5,-533.5 494.5,-533.5 494.5,-533.5 569.42,-533.5 605.69,-553.1 660,-501.5 695.99,-467.3 715.95,-303.74 720.49,-262.14"/>
<polygon fill="#63b8ff" stroke="#63b8ff" points="51.05,-335.98 44.06,-328.02 44.56,-338.6 51.05,-335.98"/>
</a>
</g>
</g>
<!-- Node14&#45;&gt;Node14 -->
<g id="edge24_Node000014_Node000014" class="edge">
<title>Node14&#45;&gt;Node14</title>
<g id="a_edge24_Node000014_Node000014"><a xlink:title=" ">
<path fill="none" stroke="#63b8ff" d="M634.5,-421.55C633.16,-426.38 626.5,-430 614.5,-430 595.3,-430 589.76,-420.73 597.85,-412.08"/>
<polygon fill="#63b8ff" stroke="#63b8ff" points="637.78,-420.34 631.15,-412.08 631.18,-422.68 637.78,-420.34"/>
</a>
</g>
</g>
<!-- Node15 -->
<g id="Node000015" class="node">
<title>Node15</title>
<g id="a_Node000015"><a xlink:href="ast__run_8c.html#a24d0223822f7b635628199085c3283be" target="_top" xlink:title=" ">
<polygon fill="white" stroke="#666666" points="533,-388 454,-388 454,-369 533,-369 533,-388"/>
<text text-anchor="middle" x="493.5" y="-376" font-family="Helvetica,sans-Serif" font-size="10.00">ast_run_pipe</text>
</a>
</g>
</g>
<!-- Node14&#45;&gt;Node15 -->
<g id="edge22_Node000014_Node000015" class="edge">
<title>Node14&#45;&gt;Node15</title>
<g id="a_edge22_Node000014_Node000015"><a xlink:title=" ">
<path fill="none" stroke="#63b8ff" d="M572.06,-394.14C559.39,-391.59 545.5,-388.79 533.02,-386.27"/>
<polygon fill="#63b8ff" stroke="#63b8ff" points="571.43,-397.59 581.92,-396.13 572.81,-390.72 571.43,-397.59"/>
</a>
</g>
</g>
<!-- Node15&#45;&gt;Node5 -->
<g id="edge23_Node000015_Node000005" class="edge">
<title>Node15&#45;&gt;Node5</title>
<g id="a_edge23_Node000015_Node000005"><a xlink:title=" ">
<path fill="none" stroke="#63b8ff" d="M543.2,-378.5C578.34,-376.32 625.47,-368.7 660,-345.5 691.33,-324.45 710.61,-281.51 718.03,-262.24"/>
<polygon fill="#63b8ff" stroke="#63b8ff" points="542.98,-375.01 533.17,-379 543.33,-382 542.98,-375.01"/>
</a>
</g>
</g>
<!-- Node18 -->
<g id="Node000018" class="node">
<title>Node18</title>
<g id="a_Node000018"><a xlink:href="dot_8c.html#a713938d3c6ee343132c429642048bcf6" target="_top" xlink:title="Execute the dot builtin cmd.">
<polygon fill="white" stroke="#666666" points="515.5,-439 471.5,-439 471.5,-420 515.5,-420 515.5,-439"/>
<text text-anchor="middle" x="493.5" y="-427" font-family="Helvetica,sans-Serif" font-size="10.00">dot_b</text>
</a>
</g>
</g>
<!-- Node17&#45;&gt;Node18 -->
<g id="edge27_Node000017_Node000018" class="edge">
<title>Node17&#45;&gt;Node18</title>
<g id="a_edge27_Node000017_Node000018"><a xlink:title=" ">
<path fill="none" stroke="#63b8ff" d="M570.6,-447.41C552.01,-443.03 531.06,-438.1 515.86,-434.53"/>
<polygon fill="#63b8ff" stroke="#63b8ff" points="569.82,-450.82 580.35,-449.7 571.42,-444 569.82,-450.82"/>
</a>
</g>
</g>
<!-- Node19 -->
<g id="Node000019" class="node">
<title>Node19</title>
<g id="a_Node000019"><a xlink:href="exec_8c.html#abaeb177587c7eec6a064b35bb8399cae" target="_top" xlink:title="Execute builtin cmd with given args.">
<polygon fill="white" stroke="#666666" points="405,-355 330,-355 330,-336 405,-336 405,-355"/>
<text text-anchor="middle" x="367.5" y="-343" font-family="Helvetica,sans-Serif" font-size="10.00">exec_builtin</text>
</a>
</g>
</g>
<!-- Node18&#45;&gt;Node19 -->
<g id="edge28_Node000018_Node000019" class="edge">
<title>Node18&#45;&gt;Node19</title>
<g id="a_edge28_Node000018_Node000019"><a xlink:title=" ">
<path fill="none" stroke="#63b8ff" d="M469.96,-414.23C444.5,-396.99 403.85,-369.45 382.56,-355.02"/>
<polygon fill="#63b8ff" stroke="#63b8ff" points="468.03,-417.15 478.28,-419.86 471.96,-411.36 468.03,-417.15"/>
</a>
</g>
</g>
<!-- Node19&#45;&gt;Node20 -->
<g id="edge29_Node000019_Node000020" class="edge">
<title>Node19&#45;&gt;Node20</title>
<g id="a_edge29_Node000019_Node000020"><a xlink:title=" ">
<path fill="none" stroke="#63b8ff" d="M349.93,-328.36C325.01,-302.59 278.69,-254.69 258.88,-234.2"/>
<polygon fill="#63b8ff" stroke="#63b8ff" points="347.46,-330.84 356.93,-335.6 352.49,-325.98 347.46,-330.84"/>
</a>
</g>
</g>
<!-- Node20&#45;&gt;Node12 -->
<g id="edge30_Node000020_Node000012" class="edge">
<title>Node20&#45;&gt;Node12</title>
<g id="a_edge30_Node000020_Node000012"><a xlink:title=" ">
<path fill="none" stroke="#63b8ff" d="M213.61,-237.51C200.46,-242.56 185.66,-248.24 173.5,-252.9"/>
<polygon fill="#63b8ff" stroke="#63b8ff" points="215.2,-240.65 223.28,-233.8 212.69,-234.11 215.2,-240.65"/>
</a>
</g>
</g>
<!-- Node21&#45;&gt;Node12 -->
<g id="edge32_Node000021_Node000012" class="edge">
<title>Node21&#45;&gt;Node12</title>
<g id="a_edge32_Node000021_Node000012"><a xlink:title=" ">
<path fill="none" stroke="#63b8ff" d="M692.94,-9.5C649.91,-9.5 565.89,-9.5 494.5,-9.5 494.5,-9.5 494.5,-9.5 366.5,-9.5 235.46,-9.5 165.89,-206.68 151.38,-252.89"/>
<polygon fill="#63b8ff" stroke="#63b8ff" points="692.96,-13 702.96,-9.5 692.96,-6 692.96,-13"/>
</a>
</g>
</g>
<!-- Node22&#45;&gt;Node12 -->
<g id="edge34_Node000022_Node000012" class="edge">
<title>Node22&#45;&gt;Node12</title>
<g id="a_edge34_Node000022_Node000012"><a xlink:title=" ">
<path fill="none" stroke="#63b8ff" d="M356.65,-160.12C343.04,-183.8 316.16,-223.94 281,-243.5 249.83,-260.85 208.4,-264.22 180.22,-264.14"/>
<polygon fill="#63b8ff" stroke="#63b8ff" points="359.86,-161.54 361.65,-151.09 353.74,-158.14 359.86,-161.54"/>
</a>
</g>
</g>
</g>
</svg>
