<?xml version="1.0" encoding="UTF-8" standalone="no"?>
<!DOCTYPE svg PUBLIC "-//W3C//DTD SVG 1.1//EN"
 "http://www.w3.org/Graphics/SVG/1.1/DTD/svg11.dtd">
<!-- Generated by graphviz version 2.43.0 (0)
 -->
<!-- Title: src/exec/redir_exec.c Pages: 1 -->
<svg width="399pt" height="247pt"
 viewBox="0.00 0.00 399.00 247.00" xmlns="http://www.w3.org/2000/svg" xmlns:xlink="http://www.w3.org/1999/xlink">
<g id="graph0" class="graph" transform="scale(1 1) rotate(0) translate(4 243)">
<title>src/exec/redir_exec.c</title>
<!-- Node1 -->
<g id="Node000001" class="node">
<title>Node1</title>
<g id="a_Node000001"><a xlink:title=" ">
<polygon fill="#999999" stroke="#666666" points="281,-239 163,-239 163,-220 281,-220 281,-239"/>
<text text-anchor="middle" x="222" y="-227" font-family="Helvetica,sans-Serif" font-size="10.00">src/exec/redir_exec.c</text>
</a>
</g>
</g>
<!-- Node2 -->
<g id="Node000002" class="node">
<title>Node2</title>
<g id="a_Node000002"><a xlink:href="redir__exec_8h.html" target="_top" xlink:title=" ">
<polygon fill="white" stroke="#666666" points="109,-184 33,-184 33,-165 109,-165 109,-184"/>
<text text-anchor="middle" x="71" y="-172" font-family="Helvetica,sans-Serif" font-size="10.00">redir_exec.h</text>
</a>
</g>
</g>
<!-- Node1&#45;&gt;Node2 -->
<g id="edge1_Node000001_Node000002" class="edge">
<title>Node1&#45;&gt;Node2</title>
<g id="a_edge1_Node000001_Node000002"><a xlink:title=" ">
<path fill="none" stroke="#63b8ff" d="M197.74,-219.98C172.68,-211.19 133.37,-197.39 105.17,-187.49"/>
<polygon fill="#63b8ff" stroke="#63b8ff" points="106.3,-184.18 95.7,-184.17 103.98,-190.78 106.3,-184.18"/>
</a>
</g>
</g>
<!-- Node7 -->
<g id="Node000007" class="node">
<title>Node7</title>
<g id="a_Node000007"><a xlink:title=" ">
<polygon fill="#e0e0e0" stroke="#999999" points="180.5,-184 127.5,-184 127.5,-165 180.5,-165 180.5,-184"/>
<text text-anchor="middle" x="154" y="-172" font-family="Helvetica,sans-Serif" font-size="10.00">ctype.h</text>
</a>
</g>
</g>
<!-- Node1&#45;&gt;Node7 -->
<g id="edge6_Node000001_Node000007" class="edge">
<title>Node1&#45;&gt;Node7</title>
<g id="a_edge6_Node000001_Node000007"><a xlink:title=" ">
<path fill="none" stroke="#63b8ff" d="M211.07,-219.98C200.92,-212.07 185.58,-200.11 173.35,-190.58"/>
<polygon fill="#63b8ff" stroke="#63b8ff" points="175.16,-187.56 165.12,-184.17 170.86,-193.08 175.16,-187.56"/>
</a>
</g>
</g>
<!-- Node8 -->
<g id="Node000008" class="node">
<title>Node8</title>
<g id="a_Node000008"><a xlink:title=" ">
<polygon fill="#e0e0e0" stroke="#999999" points="245.5,-184 198.5,-184 198.5,-165 245.5,-165 245.5,-184"/>
<text text-anchor="middle" x="222" y="-172" font-family="Helvetica,sans-Serif" font-size="10.00">fcntl.h</text>
</a>
</g>
</g>
<!-- Node1&#45;&gt;Node8 -->
<g id="edge7_Node000001_Node000008" class="edge">
<title>Node1&#45;&gt;Node8</title>
<g id="a_edge7_Node000001_Node000008"><a xlink:title=" ">
<path fill="none" stroke="#63b8ff" d="M222,-219.75C222,-212.8 222,-202.85 222,-194.13"/>
<polygon fill="#63b8ff" stroke="#63b8ff" points="225.5,-194.09 222,-184.09 218.5,-194.09 225.5,-194.09"/>
</a>
</g>
</g>
<!-- Node9 -->
<g id="Node000009" class="node">
<title>Node9</title>
<g id="a_Node000009"><a xlink:title=" ">
<polygon fill="#e0e0e0" stroke="#999999" points="316.5,-184 263.5,-184 263.5,-165 316.5,-165 316.5,-184"/>
<text text-anchor="middle" x="290" y="-172" font-family="Helvetica,sans-Serif" font-size="10.00">stdlib.h</text>
</a>
</g>
</g>
<!-- Node1&#45;&gt;Node9 -->
<g id="edge8_Node000001_Node000009" class="edge">
<title>Node1&#45;&gt;Node9</title>
<g id="a_edge8_Node000001_Node000009"><a xlink:title=" ">
<path fill="none" stroke="#63b8ff" d="M232.93,-219.98C243.08,-212.07 258.42,-200.11 270.65,-190.58"/>
<polygon fill="#63b8ff" stroke="#63b8ff" points="273.14,-193.08 278.88,-184.17 268.84,-187.56 273.14,-193.08"/>
</a>
</g>
</g>
<!-- Node10 -->
<g id="Node000010" class="node">
<title>Node10</title>
<g id="a_Node000010"><a xlink:title=" ">
<polygon fill="#e0e0e0" stroke="#999999" points="391,-184 335,-184 335,-165 391,-165 391,-184"/>
<text text-anchor="middle" x="363" y="-172" font-family="Helvetica,sans-Serif" font-size="10.00">unistd.h</text>
</a>
</g>
</g>
<!-- Node1&#45;&gt;Node10 -->
<g id="edge9_Node000001_Node000010" class="edge">
<title>Node1&#45;&gt;Node10</title>
<g id="a_edge9_Node000001_Node000010"><a xlink:title=" ">
<path fill="none" stroke="#63b8ff" d="M244.65,-219.98C267.85,-211.27 304.12,-197.63 330.4,-187.75"/>
<polygon fill="#63b8ff" stroke="#63b8ff" points="331.8,-190.97 339.93,-184.17 329.34,-184.41 331.8,-190.97"/>
</a>
</g>
</g>
<!-- Node3 -->
<g id="Node000003" class="node">
<title>Node3</title>
<g id="a_Node000003"><a xlink:title=" ">
<polygon fill="#e0e0e0" stroke="#999999" points="56,-129 0,-129 0,-110 56,-110 56,-129"/>
<text text-anchor="middle" x="28" y="-117" font-family="Helvetica,sans-Serif" font-size="10.00">stddef.h</text>
</a>
</g>
</g>
<!-- Node2&#45;&gt;Node3 -->
<g id="edge2_Node000002_Node000003" class="edge">
<title>Node2&#45;&gt;Node3</title>
<g id="a_edge2_Node000002_Node000003"><a xlink:title=" ">
<path fill="none" stroke="#63b8ff" d="M63.9,-164.75C57.83,-157.26 48.91,-146.28 41.49,-137.13"/>
<polygon fill="#63b8ff" stroke="#63b8ff" points="43.99,-134.65 34.97,-129.09 38.55,-139.06 43.99,-134.65"/>
</a>
</g>
</g>
<!-- Node4 -->
<g id="Node000004" class="node">
<title>Node4</title>
<g id="a_Node000004"><a xlink:href="redir_8h.html" target="_top" xlink:title=" ">
<polygon fill="white" stroke="#666666" points="154,-129 74,-129 74,-110 154,-110 154,-129"/>
<text text-anchor="middle" x="114" y="-117" font-family="Helvetica,sans-Serif" font-size="10.00">../utils/redir.h</text>
</a>
</g>
</g>
<!-- Node2&#45;&gt;Node4 -->
<g id="edge3_Node000002_Node000004" class="edge">
<title>Node2&#45;&gt;Node4</title>
<g id="a_edge3_Node000002_Node000004"><a xlink:title=" ">
<path fill="none" stroke="#63b8ff" d="M78.1,-164.75C84.17,-157.26 93.09,-146.28 100.51,-137.13"/>
<polygon fill="#63b8ff" stroke="#63b8ff" points="103.45,-139.06 107.03,-129.09 98.01,-134.65 103.45,-139.06"/>
</a>
</g>
</g>
<!-- Node5 -->
<g id="Node000005" class="node">
<title>Node5</title>
<g id="a_Node000005"><a xlink:href="token_8h.html" target="_top" xlink:title=" ">
<polygon fill="white" stroke="#666666" points="140.5,-74 87.5,-74 87.5,-55 140.5,-55 140.5,-74"/>
<text text-anchor="middle" x="114" y="-62" font-family="Helvetica,sans-Serif" font-size="10.00">token.h</text>
</a>
</g>
</g>
<!-- Node4&#45;&gt;Node5 -->
<g id="edge4_Node000004_Node000005" class="edge">
<title>Node4&#45;&gt;Node5</title>
<g id="a_edge4_Node000004_Node000005"><a xlink:title=" ">
<path fill="none" stroke="#63b8ff" d="M114,-109.75C114,-102.8 114,-92.85 114,-84.13"/>
<polygon fill="#63b8ff" stroke="#63b8ff" points="117.5,-84.09 114,-74.09 110.5,-84.09 117.5,-84.09"/>
</a>
</g>
</g>
<!-- Node6 -->
<g id="Node000006" class="node">
<title>Node6</title>
<g id="a_Node000006"><a xlink:title=" ">
<polygon fill="#e0e0e0" stroke="#999999" points="139,-19 89,-19 89,0 139,0 139,-19"/>
<text text-anchor="middle" x="114" y="-7" font-family="Helvetica,sans-Serif" font-size="10.00">stdio.h</text>
</a>
</g>
</g>
<!-- Node5&#45;&gt;Node6 -->
<g id="edge5_Node000005_Node000006" class="edge">
<title>Node5&#45;&gt;Node6</title>
<g id="a_edge5_Node000005_Node000006"><a xlink:title=" ">
<path fill="none" stroke="#63b8ff" d="M114,-54.75C114,-47.8 114,-37.85 114,-29.13"/>
<polygon fill="#63b8ff" stroke="#63b8ff" points="117.5,-29.09 114,-19.09 110.5,-29.09 117.5,-29.09"/>
</a>
</g>
</g>
</g>
</svg>
