<?xml version="1.0" encoding="UTF-8" standalone="no"?>
<!DOCTYPE svg PUBLIC "-//W3C//DTD SVG 1.1//EN"
 "http://www.w3.org/Graphics/SVG/1.1/DTD/svg11.dtd">
<!-- Generated by graphviz version 2.43.0 (0)
 -->
<!-- Title: src/exec/redir_exec.h Pages: 1 -->
<svg width="162pt" height="192pt"
 viewBox="0.00 0.00 162.00 192.00" xmlns="http://www.w3.org/2000/svg" xmlns:xlink="http://www.w3.org/1999/xlink">
<g id="graph0" class="graph" transform="scale(1 1) rotate(0) translate(4 188)">
<title>src/exec/redir_exec.h</title>
<!-- Node1 -->
<g id="Node000001" class="node">
<title>Node1</title>
<g id="a_Node000001"><a xlink:title=" ">
<polygon fill="#999999" stroke="#666666" points="130.5,-184 11.5,-184 11.5,-165 130.5,-165 130.5,-184"/>
<text text-anchor="middle" x="71" y="-172" font-family="Helvetica,sans-Serif" font-size="10.00">src/exec/redir_exec.h</text>
</a>
</g>
</g>
<!-- Node2 -->
<g id="Node000002" class="node">
<title>Node2</title>
<g id="a_Node000002"><a xlink:title=" ">
<polygon fill="#e0e0e0" stroke="#999999" points="56,-129 0,-129 0,-110 56,-110 56,-129"/>
<text text-anchor="middle" x="28" y="-117" font-family="Helvetica,sans-Serif" font-size="10.00">stddef.h</text>
</a>
</g>
</g>
<!-- Node1&#45;&gt;Node2 -->
<g id="edge1_Node000001_Node000002" class="edge">
<title>Node1&#45;&gt;Node2</title>
<g id="a_edge1_Node000001_Node000002"><a xlink:title=" ">
<path fill="none" stroke="#63b8ff" d="M63.9,-164.75C57.83,-157.26 48.91,-146.28 41.49,-137.13"/>
<polygon fill="#63b8ff" stroke="#63b8ff" points="43.99,-134.65 34.97,-129.09 38.55,-139.06 43.99,-134.65"/>
</a>
</g>
</g>
<!-- Node3 -->
<g id="Node000003" class="node">
<title>Node3</title>
<g id="a_Node000003"><a xlink:href="redir_8h.html" target="_top" xlink:title=" ">
<polygon fill="white" stroke="#666666" points="154,-129 74,-129 74,-110 154,-110 154,-129"/>
<text text-anchor="middle" x="114" y="-117" font-family="Helvetica,sans-Serif" font-size="10.00">../utils/redir.h</text>
</a>
</g>
</g>
<!-- Node1&#45;&gt;Node3 -->
<g id="edge2_Node000001_Node000003" class="edge">
<title>Node1&#45;&gt;Node3</title>
<g id="a_edge2_Node000001_Node000003"><a xlink:title=" ">
<path fill="none" stroke="#63b8ff" d="M78.1,-164.75C84.17,-157.26 93.09,-146.28 100.51,-137.13"/>
<polygon fill="#63b8ff" stroke="#63b8ff" points="103.45,-139.06 107.03,-129.09 98.01,-134.65 103.45,-139.06"/>
</a>
</g>
</g>
<!-- Node4 -->
<g id="Node000004" class="node">
<title>Node4</title>
<g id="a_Node000004"><a xlink:href="token_8h.html" target="_top" xlink:title=" ">
<polygon fill="white" stroke="#666666" points="140.5,-74 87.5,-74 87.5,-55 140.5,-55 140.5,-74"/>
<text text-anchor="middle" x="114" y="-62" font-family="Helvetica,sans-Serif" font-size="10.00">token.h</text>
</a>
</g>
</g>
<!-- Node3&#45;&gt;Node4 -->
<g id="edge3_Node000003_Node000004" class="edge">
<title>Node3&#45;&gt;Node4</title>
<g id="a_edge3_Node000003_Node000004"><a xlink:title=" ">
<path fill="none" stroke="#63b8ff" d="M114,-109.75C114,-102.8 114,-92.85 114,-84.13"/>
<polygon fill="#63b8ff" stroke="#63b8ff" points="117.5,-84.09 114,-74.09 110.5,-84.09 117.5,-84.09"/>
</a>
</g>
</g>
<!-- Node5 -->
<g id="Node000005" class="node">
<title>Node5</title>
<g id="a_Node000005"><a xlink:title=" ">
<polygon fill="#e0e0e0" stroke="#999999" points="139,-19 89,-19 89,0 139,0 139,-19"/>
<text text-anchor="middle" x="114" y="-7" font-family="Helvetica,sans-Serif" font-size="10.00">stdio.h</text>
</a>
</g>
</g>
<!-- Node4&#45;&gt;Node5 -->
<g id="edge4_Node000004_Node000005" class="edge">
<title>Node4&#45;&gt;Node5</title>
<g id="a_edge4_Node000004_Node000005"><a xlink:title=" ">
<path fill="none" stroke="#63b8ff" d="M114,-54.75C114,-47.8 114,-37.85 114,-29.13"/>
<polygon fill="#63b8ff" stroke="#63b8ff" points="117.5,-29.09 114,-19.09 110.5,-29.09 117.5,-29.09"/>
</a>
</g>
</g>
</g>
</svg>
