<?xml version="1.0" encoding="UTF-8" standalone="no"?>
<!DOCTYPE svg PUBLIC "-//W3C//DTD SVG 1.1//EN"
 "http://www.w3.org/Graphics/SVG/1.1/DTD/svg11.dtd">
<!-- Generated by graphviz version 2.43.0 (0)
 -->
<!-- Title: redir_saved Pages: 1 -->
<svg width="83pt" height="168pt"
 viewBox="0.00 0.00 83.00 168.00" xmlns="http://www.w3.org/2000/svg" xmlns:xlink="http://www.w3.org/1999/xlink">
<g id="graph0" class="graph" transform="scale(1 1) rotate(0) translate(4 164)">
<title>redir_saved</title>
<!-- Node1 -->
<g id="Node000001" class="node">
<title>Node1</title>
<g id="a_Node000001"><a xlink:title=" ">
<polygon fill="#999999" stroke="transparent" points="68,-49 0,-49 0,0 68,0 68,-49"/>
<text text-anchor="start" x="5" y="-36.5" font-family="Helvetica,sans-Serif" font-size="10.00">redir_saved</text>
<text text-anchor="start" x="10.5" y="-21.5" font-family="Helvetica,sans-Serif" font-size="10.00">+</text>
<text text-anchor="start" x="30" y="-21.5" font-family="Helvetica,sans-Serif" font-size="10.00">size</text>
<text text-anchor="start" x="32" y="-6.5" font-family="Helvetica,sans-Serif" font-size="10.00"> </text>
<polygon fill="#666666" stroke="#666666" points="0,-31.5 0,-31.5 68,-31.5 68,-31.5 0,-31.5"/>
<polygon fill="#666666" stroke="#666666" points="0,-16.5 0,-16.5 28,-16.5 28,-16.5 0,-16.5"/>
<polygon fill="#666666" stroke="#666666" points="28,-16.5 28,-16.5 68,-16.5 68,-16.5 28,-16.5"/>
<polygon fill="none" stroke="#666666" points="0,0 0,-49 68,-49 68,0 0,0"/>
</a>
</g>
</g>
<!-- Node2 -->
<g id="Node000002" class="node">
<title>Node2</title>
<g id="a_Node000002"><a xlink:href="structsaved__fd.html" target="_top" xlink:title=" ">
<polygon fill="white" stroke="transparent" points="67,-160 1,-160 1,-96 67,-96 67,-160"/>
<text text-anchor="start" x="11.5" y="-148" font-family="Helvetica,sans-Serif" font-size="10.00">saved_fd</text>
<text text-anchor="start" x="5" y="-133" font-family="Helvetica,sans-Serif" font-size="10.00">+</text>
<text text-anchor="start" x="18" y="-133" font-family="Helvetica,sans-Serif" font-size="10.00">target_fd</text>
<text text-anchor="start" x="5" y="-118" font-family="Helvetica,sans-Serif" font-size="10.00">+</text>
<text text-anchor="start" x="18" y="-118" font-family="Helvetica,sans-Serif" font-size="10.00">copy_fd</text>
<text text-anchor="start" x="32" y="-103" font-family="Helvetica,sans-Serif" font-size="10.00"> </text>
<polygon fill="#666666" stroke="#666666" points="1,-143 1,-143 67,-143 67,-143 1,-143"/>
<polygon fill="#666666" stroke="#666666" points="1,-113 1,-113 16,-113 16,-113 1,-113"/>
<polygon fill="#666666" stroke="#666666" points="16,-113 16,-113 67,-113 67,-113 16,-113"/>
<polygon fill="none" stroke="#666666" points="1,-96 1,-160 67,-160 67,-96 1,-96"/>
</a>
</g>
</g>
<!-- Node2&#45;&gt;Node1 -->
<g id="edge1_Node000001_Node000002" class="edge">
<title>Node2&#45;&gt;Node1</title>
<g id="a_edge1_Node000001_Node000002"><a xlink:title=" ">
<path fill="none" stroke="#63b8ff" d="M34,-96C34,-85.07 34,-72.69 34,-61.39"/>
<polygon fill="none" stroke="#63b8ff" points="34,-61.23 30,-55.23 34,-49.23 38,-55.23 34,-61.23"/>
</a>
</g>
<text text-anchor="middle" x="54.5" y="-70" font-family="Helvetica,sans-Serif" font-size="10.00" fill="grey"> +saved</text>
</g>
</g>
</svg>
