<?xml version="1.0" encoding="UTF-8" standalone="no"?>
<!DOCTYPE svg PUBLIC "-//W3C//DTD SVG 1.1//EN"
 "http://www.w3.org/Graphics/SVG/1.1/DTD/svg11.dtd">
<!-- Generated by graphviz version 2.43.0 (0)
 -->
<!-- Title: ast_shell_redir Pages: 1 -->
<svg width="128pt" height="194pt"
 viewBox="0.00 0.00 127.50 194.00" xmlns="http://www.w3.org/2000/svg" xmlns:xlink="http://www.w3.org/1999/xlink">
<g id="graph0" class="graph" transform="scale(1 1) rotate(0) translate(4 190)">
<title>ast_shell_redir</title>
<!-- Node1 -->
<g id="Node000001" class="node">
<title>Node1</title>
<g id="a_Node000001"><a xlink:title=" ">
<polygon fill="#999999" stroke="transparent" points="96.5,-49 14.5,-49 14.5,0 96.5,0 96.5,-49"/>
<text text-anchor="start" x="19.5" y="-36.5" font-family="Helvetica,sans-Serif" font-size="10.00">ast_shell_redir</text>
<text text-anchor="start" x="26" y="-21.5" font-family="Helvetica,sans-Serif" font-size="10.00">+</text>
<text text-anchor="start" x="46.5" y="-21.5" font-family="Helvetica,sans-Serif" font-size="10.00">words</text>
<text text-anchor="start" x="53.5" y="-6.5" font-family="Helvetica,sans-Serif" font-size="10.00"> </text>
<polygon fill="#666666" stroke="#666666" points="14.5,-31.5 14.5,-31.5 96.5,-31.5 96.5,-31.5 14.5,-31.5"/>
<polygon fill="#666666" stroke="#666666" points="14.5,-16.5 14.5,-16.5 44.5,-16.5 44.5,-16.5 14.5,-16.5"/>
<polygon fill="#666666" stroke="#666666" points="44.5,-16.5 44.5,-16.5 96.5,-16.5 96.5,-16.5 44.5,-16.5"/>
<polygon fill="none" stroke="#666666" points="14.5,0 14.5,-49 96.5,-49 96.5,0 14.5,0"/>
</a>
</g>
</g>
<!-- Node2 -->
<g id="Node000002" class="node">
<title>Node2</title>
<g id="a_Node000002"><a xlink:href="structast.html" target="_top" xlink:title=" ">
<polygon fill="white" stroke="transparent" points="43,-171 0,-171 0,-122 43,-122 43,-171"/>
<text text-anchor="start" x="14" y="-158.5" font-family="Helvetica,sans-Serif" font-size="10.00">ast</text>
<text text-anchor="start" x="4.5" y="-143.5" font-family="Helvetica,sans-Serif" font-size="10.00">+</text>
<text text-anchor="start" x="17.5" y="-143.5" font-family="Helvetica,sans-Serif" font-size="10.00">type</text>
<text text-anchor="start" x="20" y="-128.5" font-family="Helvetica,sans-Serif" font-size="10.00"> </text>
<polygon fill="#666666" stroke="#666666" points="0.5,-153.5 0.5,-153.5 43.5,-153.5 43.5,-153.5 0.5,-153.5"/>
<polygon fill="#666666" stroke="#666666" points="0.5,-138.5 0.5,-138.5 15.5,-138.5 15.5,-138.5 0.5,-138.5"/>
<polygon fill="#666666" stroke="#666666" points="15.5,-138.5 15.5,-138.5 43.5,-138.5 43.5,-138.5 15.5,-138.5"/>
<polygon fill="none" stroke="#666666" points="0,-122 0,-171 43,-171 43,-122 0,-122"/>
</a>
</g>
</g>
<!-- Node2&#45;&gt;Node1 -->
<g id="edge1_Node000001_Node000002" class="edge">
<title>Node2&#45;&gt;Node1</title>
<g id="a_edge1_Node000001_Node000002"><a xlink:title=" ">
<path fill="none" stroke="#63b8ff" d="M23.06,-121.66C24.59,-105.84 27.61,-84.8 33.5,-67 34.25,-64.74 35.11,-62.45 36.06,-60.17"/>
<polygon fill="none" stroke="#63b8ff" points="36.19,-59.9 35.11,-52.77 41.28,-49.03 42.36,-56.16 36.19,-59.9"/>
</a>
</g>
<text text-anchor="middle" x="51" y="-81" font-family="Helvetica,sans-Serif" font-size="10.00" fill="grey"> +base</text>
<text text-anchor="middle" x="51" y="-70" font-family="Helvetica,sans-Serif" font-size="10.00" fill="grey">+child</text>
</g>
<!-- Node3 -->
<g id="Node000003" class="node">
<title>Node3</title>
<g id="a_Node000003"><a xlink:href="structredir.html" target="_top" xlink:title=" ">
<polygon fill="white" stroke="transparent" points="119.5,-186 61.5,-186 61.5,-107 119.5,-107 119.5,-186"/>
<text text-anchor="start" x="79" y="-173.5" font-family="Helvetica,sans-Serif" font-size="10.00">redir</text>
<text text-anchor="start" x="65.5" y="-158.5" font-family="Helvetica,sans-Serif" font-size="10.00">+</text>
<text text-anchor="start" x="78.5" y="-158.5" font-family="Helvetica,sans-Serif" font-size="10.00">io_num</text>
<text text-anchor="start" x="65.5" y="-143.5" font-family="Helvetica,sans-Serif" font-size="10.00">+</text>
<text text-anchor="start" x="78.5" y="-143.5" font-family="Helvetica,sans-Serif" font-size="10.00">type</text>
<text text-anchor="start" x="65.5" y="-128.5" font-family="Helvetica,sans-Serif" font-size="10.00">+</text>
<text text-anchor="start" x="78.5" y="-128.5" font-family="Helvetica,sans-Serif" font-size="10.00">target</text>
<text text-anchor="start" x="88.5" y="-113.5" font-family="Helvetica,sans-Serif" font-size="10.00"> </text>
<polygon fill="#666666" stroke="#666666" points="61.5,-168.5 61.5,-168.5 119.5,-168.5 119.5,-168.5 61.5,-168.5"/>
<polygon fill="#666666" stroke="#666666" points="61.5,-123.5 61.5,-123.5 76.5,-123.5 76.5,-123.5 61.5,-123.5"/>
<polygon fill="#666666" stroke="#666666" points="76.5,-123.5 76.5,-123.5 119.5,-123.5 119.5,-123.5 76.5,-123.5"/>
<polygon fill="none" stroke="#666666" points="61.5,-107 61.5,-186 119.5,-186 119.5,-107 61.5,-107"/>
</a>
</g>
</g>
<!-- Node3&#45;&gt;Node1 -->
<g id="edge2_Node000001_Node000003" class="edge">
<title>Node3&#45;&gt;Node1</title>
<g id="a_edge2_Node000001_Node000003"><a xlink:title=" ">
<path fill="none" stroke="#63b8ff" d="M79.88,-106.7C76.34,-94.02 72.32,-79.89 68.5,-67 67.91,-65.01 67.3,-62.97 66.67,-60.91"/>
<polygon fill="none" stroke="#63b8ff" points="66.59,-60.63 60.99,-56.08 63.05,-49.16 68.64,-53.72 66.59,-60.63"/>
</a>
</g>
<text text-anchor="middle" x="94.5" y="-75.5" font-family="Helvetica,sans-Serif" font-size="10.00" fill="grey"> +redirs</text>
</g>
</g>
</svg>
