<?xml version="1.0" encoding="UTF-8" standalone="no"?>
<!DOCTYPE svg PUBLIC "-//W3C//DTD SVG 1.1//EN"
 "http://www.w3.org/Graphics/SVG/1.1/DTD/svg11.dtd">
<!-- Generated by graphviz version 2.43.0 (0)
 -->
<!-- Title: dictionnary Pages: 1 -->
<svg width="236pt" height="264pt"
 viewBox="0.00 0.00 236.00 264.00" xmlns="http://www.w3.org/2000/svg" xmlns:xlink="http://www.w3.org/1999/xlink">
<g id="graph0" class="graph" transform="scale(1 1) rotate(0) translate(4 260)">
<title>dictionnary</title>
<!-- Node1 -->
<g id="Node000001" class="node">
<title>Node1</title>
<g id="a_Node000001"><a xlink:title=" ">
<polygon fill="#999999" stroke="transparent" points="121.5,-49 56.5,-49 56.5,0 121.5,0 121.5,-49"/>
<text text-anchor="start" x="62" y="-36.5" font-family="Helvetica,sans-Serif" font-size="10.00">dictionnary</text>
<text text-anchor="start" x="87.5" y="-21.5" font-family="Helvetica,sans-Serif" font-size="10.00"> </text>
<text text-anchor="start" x="87.5" y="-6.5" font-family="Helvetica,sans-Serif" font-size="10.00"> </text>
<polygon fill="#666666" stroke="#666666" points="57,-31.5 57,-31.5 122,-31.5 122,-31.5 57,-31.5"/>
<polygon fill="#666666" stroke="#666666" points="57,-16.5 57,-16.5 122,-16.5 122,-16.5 57,-16.5"/>
<polygon fill="none" stroke="#666666" points="56.5,0 56.5,-49 121.5,-49 121.5,0 56.5,0"/>
</a>
</g>
</g>
<!-- Node2 -->
<g id="Node000002" class="node">
<title>Node2</title>
<g id="a_Node000002"><a xlink:href="structvariables.html" target="_top" xlink:title=" ">
<polygon fill="white" stroke="transparent" points="56,-160 0,-160 0,-96 56,-96 56,-160"/>
<text text-anchor="start" x="5" y="-148" font-family="Helvetica,sans-Serif" font-size="10.00">variables</text>
<text text-anchor="start" x="8" y="-133" font-family="Helvetica,sans-Serif" font-size="10.00">+</text>
<text text-anchor="start" x="25" y="-133" font-family="Helvetica,sans-Serif" font-size="10.00">key</text>
<text text-anchor="start" x="8" y="-118" font-family="Helvetica,sans-Serif" font-size="10.00">+</text>
<text text-anchor="start" x="25" y="-118" font-family="Helvetica,sans-Serif" font-size="10.00">elt</text>
<text text-anchor="start" x="26" y="-103" font-family="Helvetica,sans-Serif" font-size="10.00"> </text>
<polygon fill="#666666" stroke="#666666" points="0,-143 0,-143 56,-143 56,-143 0,-143"/>
<polygon fill="#666666" stroke="#666666" points="0,-113 0,-113 23,-113 23,-113 0,-113"/>
<polygon fill="#666666" stroke="#666666" points="23,-113 23,-113 56,-113 56,-113 23,-113"/>
<polygon fill="none" stroke="#666666" points="0,-96 0,-160 56,-160 56,-96 0,-96"/>
</a>
</g>
</g>
<!-- Node2&#45;&gt;Node1 -->
<g id="edge1_Node000001_Node000002" class="edge">
<title>Node2&#45;&gt;Node1</title>
<g id="a_edge1_Node000001_Node000002"><a xlink:title=" ">
<path fill="none" stroke="#63b8ff" d="M44.43,-95.86C49.56,-86.48 55.36,-76.23 61,-67 62.49,-64.56 64.06,-62.06 65.66,-59.56"/>
<polygon fill="none" stroke="#63b8ff" points="65.75,-59.43 65.7,-52.22 72.34,-49.4 72.39,-56.61 65.75,-59.43"/>
</a>
</g>
<text text-anchor="middle" x="89.5" y="-70" font-family="Helvetica,sans-Serif" font-size="10.00" fill="grey"> +variables</text>
</g>
<!-- Node2&#45;&gt;Node2 -->
<g id="edge2_Node000002_Node000002" class="edge">
<title>Node2&#45;&gt;Node2</title>
<g id="a_edge2_Node000002_Node000002"><a xlink:title=" ">
<path fill="none" stroke="#63b8ff" d="M56.3,-138.12C66.09,-138.23 74,-134.86 74,-128 74,-124.36 71.77,-121.7 68.21,-120.02"/>
<polygon fill="none" stroke="#63b8ff" points="68.11,-120 61.5,-122.88 56.3,-117.88 62.91,-115 68.11,-120"/>
</a>
</g>
<text text-anchor="middle" x="91" y="-125.5" font-family="Helvetica,sans-Serif" font-size="10.00" fill="grey"> +next</text>
</g>
<!-- Node3 -->
<g id="Node000003" class="node">
<title>Node3</title>
<g id="a_Node000003"><a xlink:href="structfunction.html" target="_top" xlink:title=" ">
<polygon fill="white" stroke="transparent" points="176,-152.5 126,-152.5 126,-103.5 176,-103.5 176,-152.5"/>
<text text-anchor="start" x="131" y="-140" font-family="Helvetica,sans-Serif" font-size="10.00">function</text>
<text text-anchor="start" x="132.5" y="-125" font-family="Helvetica,sans-Serif" font-size="10.00">+</text>
<text text-anchor="start" x="148" y="-125" font-family="Helvetica,sans-Serif" font-size="10.00">key</text>
<text text-anchor="start" x="149" y="-110" font-family="Helvetica,sans-Serif" font-size="10.00"> </text>
<polygon fill="#666666" stroke="#666666" points="126,-135 126,-135 176,-135 176,-135 126,-135"/>
<polygon fill="#666666" stroke="#666666" points="126,-120 126,-120 146,-120 146,-120 126,-120"/>
<polygon fill="#666666" stroke="#666666" points="146,-120 146,-120 176,-120 176,-120 146,-120"/>
<polygon fill="none" stroke="#666666" points="126,-103.5 126,-152.5 176,-152.5 176,-103.5 126,-103.5"/>
</a>
</g>
</g>
<!-- Node3&#45;&gt;Node1 -->
<g id="edge3_Node000001_Node000003" class="edge">
<title>Node3&#45;&gt;Node1</title>
<g id="a_edge3_Node000001_Node000003"><a xlink:title=" ">
<path fill="none" stroke="#63b8ff" d="M138.72,-103.3C132.74,-92.13 125.28,-78.71 118,-67 116.47,-64.54 114.86,-62.03 113.21,-59.52"/>
<polygon fill="none" stroke="#63b8ff" points="113.04,-59.28 106.37,-56.56 106.31,-49.35 112.99,-52.07 113.04,-59.28"/>
</a>
</g>
<text text-anchor="middle" x="149" y="-70" font-family="Helvetica,sans-Serif" font-size="10.00" fill="grey"> +function</text>
</g>
<!-- Node3&#45;&gt;Node3 -->
<g id="edge5_Node000003_Node000003" class="edge">
<title>Node3&#45;&gt;Node3</title>
<g id="a_edge5_Node000003_Node000003"><a xlink:title=" ">
<path fill="none" stroke="#63b8ff" d="M176.18,-138.09C185.91,-138.53 194,-135.17 194,-128 194,-124.19 191.72,-121.46 188.12,-119.8"/>
<polygon fill="none" stroke="#63b8ff" points="188.03,-119.78 181.48,-122.8 176.18,-117.91 182.73,-114.9 188.03,-119.78"/>
</a>
</g>
<text text-anchor="middle" x="211" y="-125.5" font-family="Helvetica,sans-Serif" font-size="10.00" fill="grey"> +next</text>
</g>
<!-- Node4 -->
<g id="Node000004" class="node">
<title>Node4</title>
<g id="a_Node000004"><a xlink:href="structast.html" target="_top" xlink:title=" ">
<polygon fill="white" stroke="transparent" points="172.5,-256 129.5,-256 129.5,-207 172.5,-207 172.5,-256"/>
<text text-anchor="start" x="143.5" y="-243.5" font-family="Helvetica,sans-Serif" font-size="10.00">ast</text>
<text text-anchor="start" x="134" y="-228.5" font-family="Helvetica,sans-Serif" font-size="10.00">+</text>
<text text-anchor="start" x="147" y="-228.5" font-family="Helvetica,sans-Serif" font-size="10.00">type</text>
<text text-anchor="start" x="149.5" y="-213.5" font-family="Helvetica,sans-Serif" font-size="10.00"> </text>
<polygon fill="#666666" stroke="#666666" points="130,-238.5 130,-238.5 173,-238.5 173,-238.5 130,-238.5"/>
<polygon fill="#666666" stroke="#666666" points="130,-223.5 130,-223.5 145,-223.5 145,-223.5 130,-223.5"/>
<polygon fill="#666666" stroke="#666666" points="145,-223.5 145,-223.5 173,-223.5 173,-223.5 145,-223.5"/>
<polygon fill="none" stroke="#666666" points="129.5,-207 129.5,-256 172.5,-256 172.5,-207 129.5,-207"/>
</a>
</g>
</g>
<!-- Node4&#45;&gt;Node3 -->
<g id="edge4_Node000003_Node000004" class="edge">
<title>Node4&#45;&gt;Node3</title>
<g id="a_edge4_Node000003_Node000004"><a xlink:title=" ">
<path fill="none" stroke="#63b8ff" d="M151,-206.96C151,-194.49 151,-178.92 151,-164.98"/>
<polygon fill="none" stroke="#63b8ff" points="151,-164.77 147,-158.77 151,-152.77 155,-158.77 151,-164.77"/>
</a>
</g>
<text text-anchor="middle" x="164.5" y="-181" font-family="Helvetica,sans-Serif" font-size="10.00" fill="grey"> +ast</text>
</g>
</g>
</svg>
