<?xml version="1.0" encoding="UTF-8" standalone="no"?>
<!DOCTYPE svg PUBLIC "-//W3C//DTD SVG 1.1//EN"
 "http://www.w3.org/Graphics/SVG/1.1/DTD/svg11.dtd">
<!-- Generated by graphviz version 2.43.0 (0)
 -->
<!-- Title: function Pages: 1 -->
<svg width="110pt" height="153pt"
 viewBox="0.00 0.00 110.00 153.00" xmlns="http://www.w3.org/2000/svg" xmlns:xlink="http://www.w3.org/1999/xlink">
<g id="graph0" class="graph" transform="scale(1 1) rotate(0) translate(4 149)">
<title>function</title>
<!-- Node1 -->
<g id="Node000001" class="node">
<title>Node1</title>
<g id="a_Node000001"><a xlink:title=" ">
<polygon fill="#999999" stroke="transparent" points="50,-49 0,-49 0,0 50,0 50,-49"/>
<text text-anchor="start" x="5" y="-36.5" font-family="Helvetica,sans-Serif" font-size="10.00">function</text>
<text text-anchor="start" x="6.5" y="-21.5" font-family="Helvetica,sans-Serif" font-size="10.00">+</text>
<text text-anchor="start" x="22" y="-21.5" font-family="Helvetica,sans-Serif" font-size="10.00">key</text>
<text text-anchor="start" x="23" y="-6.5" font-family="Helvetica,sans-Serif" font-size="10.00"> </text>
<polygon fill="#666666" stroke="#666666" points="0,-31.5 0,-31.5 50,-31.5 50,-31.5 0,-31.5"/>
<polygon fill="#666666" stroke="#666666" points="0,-16.5 0,-16.5 20,-16.5 20,-16.5 0,-16.5"/>
<polygon fill="#666666" stroke="#666666" points="20,-16.5 20,-16.5 50,-16.5 50,-16.5 20,-16.5"/>
<polygon fill="none" stroke="#666666" points="0,0 0,-49 50,-49 50,0 0,0"/>
</a>
</g>
</g>
<!-- Node1&#45;&gt;Node1 -->
<g id="edge2_Node000001_Node000001" class="edge">
<title>Node1&#45;&gt;Node1</title>
<g id="a_edge2_Node000001_Node000001"><a xlink:title=" ">
<path fill="none" stroke="#63b8ff" d="M50.18,-33.46C59.91,-33.86 68,-30.88 68,-24.5 68,-21.11 65.72,-18.68 62.12,-17.21"/>
<polygon fill="none" stroke="#63b8ff" points="62.06,-17.2 55.56,-20.33 50.18,-15.54 56.67,-12.41 62.06,-17.2"/>
</a>
</g>
<text text-anchor="middle" x="85" y="-22" font-family="Helvetica,sans-Serif" font-size="10.00" fill="grey"> +next</text>
</g>
<!-- Node2 -->
<g id="Node000002" class="node">
<title>Node2</title>
<g id="a_Node000002"><a xlink:href="structast.html" target="_top" xlink:title=" ">
<polygon fill="white" stroke="transparent" points="46.5,-145 3.5,-145 3.5,-96 46.5,-96 46.5,-145"/>
<text text-anchor="start" x="17.5" y="-132.5" font-family="Helvetica,sans-Serif" font-size="10.00">ast</text>
<text text-anchor="start" x="8" y="-117.5" font-family="Helvetica,sans-Serif" font-size="10.00">+</text>
<text text-anchor="start" x="21" y="-117.5" font-family="Helvetica,sans-Serif" font-size="10.00">type</text>
<text text-anchor="start" x="23.5" y="-102.5" font-family="Helvetica,sans-Serif" font-size="10.00"> </text>
<polygon fill="#666666" stroke="#666666" points="4,-127.5 4,-127.5 47,-127.5 47,-127.5 4,-127.5"/>
<polygon fill="#666666" stroke="#666666" points="4,-112.5 4,-112.5 19,-112.5 19,-112.5 4,-112.5"/>
<polygon fill="#666666" stroke="#666666" points="19,-112.5 19,-112.5 47,-112.5 47,-112.5 19,-112.5"/>
<polygon fill="none" stroke="#666666" points="3.5,-96 3.5,-145 46.5,-145 46.5,-96 3.5,-96"/>
</a>
</g>
</g>
<!-- Node2&#45;&gt;Node1 -->
<g id="edge1_Node000001_Node000002" class="edge">
<title>Node2&#45;&gt;Node1</title>
<g id="a_edge1_Node000001_Node000002"><a xlink:title=" ">
<path fill="none" stroke="#63b8ff" d="M25,-95.78C25,-85.32 25,-72.79 25,-61.23"/>
<polygon fill="none" stroke="#63b8ff" points="25,-61.21 21,-55.21 25,-49.21 29,-55.21 25,-61.21"/>
</a>
</g>
<text text-anchor="middle" x="38.5" y="-70" font-family="Helvetica,sans-Serif" font-size="10.00" fill="grey"> +ast</text>
</g>
</g>
</svg>
