<?xml version="1.0" encoding="UTF-8" standalone="no"?>
<!DOCTYPE svg PUBLIC "-//W3C//DTD SVG 1.1//EN"
 "http://www.w3.org/Graphics/SVG/1.1/DTD/svg11.dtd">
<!-- Generated by graphviz version 2.43.0 (0)
 -->
<!-- Title: variables Pages: 1 -->
<svg width="116pt" height="72pt"
 viewBox="0.00 0.00 116.00 72.00" xmlns="http://www.w3.org/2000/svg" xmlns:xlink="http://www.w3.org/1999/xlink">
<g id="graph0" class="graph" transform="scale(1 1) rotate(0) translate(4 68)">
<title>variables</title>
<!-- Node1 -->
<g id="Node000001" class="node">
<title>Node1</title>
<g id="a_Node000001"><a xlink:title=" ">
<polygon fill="#999999" stroke="transparent" points="56,-64 0,-64 0,0 56,0 56,-64"/>
<text text-anchor="start" x="5" y="-52" font-family="Helvetica,sans-Serif" font-size="10.00">variables</text>
<text text-anchor="start" x="8" y="-37" font-family="Helvetica,sans-Serif" font-size="10.00">+</text>
<text text-anchor="start" x="25" y="-37" font-family="Helvetica,sans-Serif" font-size="10.00">key</text>
<text text-anchor="start" x="8" y="-22" font-family="Helvetica,sans-Serif" font-size="10.00">+</text>
<text text-anchor="start" x="25" y="-22" font-family="Helvetica,sans-Serif" font-size="10.00">elt</text>
<text text-anchor="start" x="26" y="-7" font-family="Helvetica,sans-Serif" font-size="10.00"> </text>
<polygon fill="#666666" stroke="#666666" points="0,-47 0,-47 56,-47 56,-47 0,-47"/>
<polygon fill="#666666" stroke="#666666" points="0,-17 0,-17 23,-17 23,-17 0,-17"/>
<polygon fill="#666666" stroke="#666666" points="23,-17 23,-17 56,-17 56,-17 23,-17"/>
<polygon fill="none" stroke="#666666" points="0,0 0,-64 56,-64 56,0 0,0"/>
</a>
</g>
</g>
<!-- Node1&#45;&gt;Node1 -->
<g id="edge1_Node000001_Node000001" class="edge">
<title>Node1&#45;&gt;Node1</title>
<g id="a_edge1_Node000001_Node000001"><a xlink:title=" ">
<path fill="none" stroke="#63b8ff" d="M56.3,-44C66.09,-44.12 74,-40.12 74,-32 74,-27.68 71.77,-24.53 68.21,-22.54"/>
<polygon fill="none" stroke="#63b8ff" points="68.04,-22.51 61.33,-25.17 56.3,-20 63,-17.34 68.04,-22.51"/>
</a>
</g>
<text text-anchor="middle" x="91" y="-29.5" font-family="Helvetica,sans-Serif" font-size="10.00" fill="grey"> +next</text>
</g>
</g>
</svg>
