<?xml version="1.0" encoding="UTF-8" standalone="no"?>
<!DOCTYPE svg PUBLIC "-//W3C//DTD SVG 1.1//EN"
 "http://www.w3.org/Graphics/SVG/1.1/DTD/svg11.dtd">
<!-- Generated by graphviz version 2.43.0 (0)
 -->
<!-- Title: ast_for Pages: 1 -->
<svg width="69pt" height="179pt"
 viewBox="0.00 0.00 68.50 179.00" xmlns="http://www.w3.org/2000/svg" xmlns:xlink="http://www.w3.org/1999/xlink">
<g id="graph0" class="graph" transform="scale(1 1) rotate(0) translate(4 175)">
<title>ast_for</title>
<!-- Node1 -->
<g id="Node000001" class="node">
<title>Node1</title>
<g id="a_Node000001"><a xlink:title=" ">
<polygon fill="#999999" stroke="transparent" points="51,-64 0,-64 0,0 51,0 51,-64"/>
<text text-anchor="start" x="9" y="-52" font-family="Helvetica,sans-Serif" font-size="10.00">ast_for</text>
<text text-anchor="start" x="4.5" y="-37" font-family="Helvetica,sans-Serif" font-size="10.00">+</text>
<text text-anchor="start" x="17.5" y="-37" font-family="Helvetica,sans-Serif" font-size="10.00">var</text>
<text text-anchor="start" x="4.5" y="-22" font-family="Helvetica,sans-Serif" font-size="10.00">+</text>
<text text-anchor="start" x="17.5" y="-22" font-family="Helvetica,sans-Serif" font-size="10.00">words</text>
<text text-anchor="start" x="24" y="-7" font-family="Helvetica,sans-Serif" font-size="10.00"> </text>
<polygon fill="#666666" stroke="#666666" points="0.5,-47 0.5,-47 51.5,-47 51.5,-47 0.5,-47"/>
<polygon fill="#666666" stroke="#666666" points="0.5,-17 0.5,-17 15.5,-17 15.5,-17 0.5,-17"/>
<polygon fill="#666666" stroke="#666666" points="15.5,-17 15.5,-17 51.5,-17 51.5,-17 15.5,-17"/>
<polygon fill="none" stroke="#666666" points="0,0 0,-64 51,-64 51,0 0,0"/>
</a>
</g>
</g>
<!-- Node2 -->
<g id="Node000002" class="node">
<title>Node2</title>
<g id="a_Node000002"><a xlink:href="structast.html" target="_top" xlink:title=" ">
<polygon fill="white" stroke="transparent" points="47,-171 4,-171 4,-122 47,-122 47,-171"/>
<text text-anchor="start" x="18" y="-158.5" font-family="Helvetica,sans-Serif" font-size="10.00">ast</text>
<text text-anchor="start" x="8.5" y="-143.5" font-family="Helvetica,sans-Serif" font-size="10.00">+</text>
<text text-anchor="start" x="21.5" y="-143.5" font-family="Helvetica,sans-Serif" font-size="10.00">type</text>
<text text-anchor="start" x="24" y="-128.5" font-family="Helvetica,sans-Serif" font-size="10.00"> </text>
<polygon fill="#666666" stroke="#666666" points="4.5,-153.5 4.5,-153.5 47.5,-153.5 47.5,-153.5 4.5,-153.5"/>
<polygon fill="#666666" stroke="#666666" points="4.5,-138.5 4.5,-138.5 19.5,-138.5 19.5,-138.5 4.5,-138.5"/>
<polygon fill="#666666" stroke="#666666" points="19.5,-138.5 19.5,-138.5 47.5,-138.5 47.5,-138.5 19.5,-138.5"/>
<polygon fill="none" stroke="#666666" points="4,-122 4,-171 47,-171 47,-122 4,-122"/>
</a>
</g>
</g>
<!-- Node2&#45;&gt;Node1 -->
<g id="edge1_Node000001_Node000002" class="edge">
<title>Node2&#45;&gt;Node1</title>
<g id="a_edge1_Node000001_Node000002"><a xlink:title=" ">
<path fill="none" stroke="#63b8ff" d="M25.5,-121.92C25.5,-108.7 25.5,-91.8 25.5,-76.29"/>
<polygon fill="none" stroke="#63b8ff" points="25.5,-76.24 21.5,-70.24 25.5,-64.24 29.5,-70.24 25.5,-76.24"/>
</a>
</g>
<text text-anchor="middle" x="43" y="-96" font-family="Helvetica,sans-Serif" font-size="10.00" fill="grey"> +base</text>
<text text-anchor="middle" x="43" y="-85" font-family="Helvetica,sans-Serif" font-size="10.00" fill="grey">+body</text>
</g>
</g>
</svg>
