<?xml version="1.0" encoding="UTF-8" standalone="no"?>
<!DOCTYPE svg PUBLIC "-//W3C//DTD SVG 1.1//EN"
 "http://www.w3.org/Graphics/SVG/1.1/DTD/svg11.dtd">
<!-- Generated by graphviz version 2.43.0 (0)
 -->
<!-- Title: ast_list Pages: 1 -->
<svg width="106pt" height="164pt"
 viewBox="0.00 0.00 106.00 164.00" xmlns="http://www.w3.org/2000/svg" xmlns:xlink="http://www.w3.org/1999/xlink">
<g id="graph0" class="graph" transform="scale(1 1) rotate(0) translate(4 160)">
<title>ast_list</title>
<!-- Node1 -->
<g id="Node000001" class="node">
<title>Node1</title>
<g id="a_Node000001"><a xlink:title=" ">
<polygon fill="#999999" stroke="transparent" points="46,-49 0,-49 0,0 46,0 46,-49"/>
<text text-anchor="start" x="5" y="-36.5" font-family="Helvetica,sans-Serif" font-size="10.00">ast_list</text>
<text text-anchor="start" x="21" y="-21.5" font-family="Helvetica,sans-Serif" font-size="10.00"> </text>
<text text-anchor="start" x="21" y="-6.5" font-family="Helvetica,sans-Serif" font-size="10.00"> </text>
<polygon fill="#666666" stroke="#666666" points="0,-31.5 0,-31.5 46,-31.5 46,-31.5 0,-31.5"/>
<polygon fill="#666666" stroke="#666666" points="0,-16.5 0,-16.5 46,-16.5 46,-16.5 0,-16.5"/>
<polygon fill="none" stroke="#666666" points="0,0 0,-49 46,-49 46,0 0,0"/>
</a>
</g>
</g>
<!-- Node1&#45;&gt;Node1 -->
<g id="edge2_Node000001_Node000001" class="edge">
<title>Node1&#45;&gt;Node1</title>
<g id="a_edge2_Node000001_Node000001"><a xlink:title=" ">
<path fill="none" stroke="#63b8ff" d="M46.18,-34.16C55.83,-34.83 64,-31.61 64,-24.5 64,-20.72 61.69,-18.04 58.08,-16.46"/>
<polygon fill="none" stroke="#63b8ff" points="58.07,-16.46 51.59,-19.61 46.18,-14.84 52.67,-11.68 58.07,-16.46"/>
</a>
</g>
<text text-anchor="middle" x="81" y="-22" font-family="Helvetica,sans-Serif" font-size="10.00" fill="grey"> +next</text>
</g>
<!-- Node2 -->
<g id="Node000002" class="node">
<title>Node2</title>
<g id="a_Node000002"><a xlink:href="structast.html" target="_top" xlink:title=" ">
<polygon fill="white" stroke="transparent" points="44.5,-156 1.5,-156 1.5,-107 44.5,-107 44.5,-156"/>
<text text-anchor="start" x="15.5" y="-143.5" font-family="Helvetica,sans-Serif" font-size="10.00">ast</text>
<text text-anchor="start" x="6" y="-128.5" font-family="Helvetica,sans-Serif" font-size="10.00">+</text>
<text text-anchor="start" x="19" y="-128.5" font-family="Helvetica,sans-Serif" font-size="10.00">type</text>
<text text-anchor="start" x="21.5" y="-113.5" font-family="Helvetica,sans-Serif" font-size="10.00"> </text>
<polygon fill="#666666" stroke="#666666" points="2,-138.5 2,-138.5 45,-138.5 45,-138.5 2,-138.5"/>
<polygon fill="#666666" stroke="#666666" points="2,-123.5 2,-123.5 17,-123.5 17,-123.5 2,-123.5"/>
<polygon fill="#666666" stroke="#666666" points="17,-123.5 17,-123.5 45,-123.5 45,-123.5 17,-123.5"/>
<polygon fill="none" stroke="#666666" points="1.5,-107 1.5,-156 44.5,-156 44.5,-107 1.5,-107"/>
</a>
</g>
</g>
<!-- Node2&#45;&gt;Node1 -->
<g id="edge1_Node000001_Node000002" class="edge">
<title>Node2&#45;&gt;Node1</title>
<g id="a_edge1_Node000001_Node000002"><a xlink:title=" ">
<path fill="none" stroke="#63b8ff" d="M23,-106.94C23,-93.52 23,-76.44 23,-61.39"/>
<polygon fill="none" stroke="#63b8ff" points="23,-61.35 19,-55.35 23,-49.35 27,-55.35 23,-61.35"/>
</a>
</g>
<text text-anchor="middle" x="40.5" y="-81" font-family="Helvetica,sans-Serif" font-size="10.00" fill="grey"> +base</text>
<text text-anchor="middle" x="40.5" y="-70" font-family="Helvetica,sans-Serif" font-size="10.00" fill="grey">+elt</text>
</g>
</g>
</svg>
