<?xml version="1.0" encoding="UTF-8" standalone="no"?>
<!DOCTYPE svg PUBLIC "-//W3C//DTD SVG 1.1//EN"
 "http://www.w3.org/Graphics/SVG/1.1/DTD/svg11.dtd">
<!-- Generated by graphviz version 2.43.0 (0)
 -->
<!-- Title: ast_pipe Pages: 1 -->
<svg width="157pt" height="294pt"
 viewBox="0.00 0.00 157.00 294.00" xmlns="http://www.w3.org/2000/svg" xmlns:xlink="http://www.w3.org/1999/xlink">
<g id="graph0" class="graph" transform="scale(1 1) rotate(0) translate(4 290)">
<title>ast_pipe</title>
<!-- Node1 -->
<g id="Node000001" class="node">
<title>Node1</title>
<g id="a_Node000001"><a xlink:title=" ">
<polygon fill="#999999" stroke="transparent" points="64,-49 0,-49 0,0 64,0 64,-49"/>
<text text-anchor="start" x="11" y="-36.5" font-family="Helvetica,sans-Serif" font-size="10.00">ast_pipe</text>
<text text-anchor="start" x="4" y="-21.5" font-family="Helvetica,sans-Serif" font-size="10.00">+</text>
<text text-anchor="start" x="17" y="-21.5" font-family="Helvetica,sans-Serif" font-size="10.00">negation</text>
<text text-anchor="start" x="30" y="-6.5" font-family="Helvetica,sans-Serif" font-size="10.00"> </text>
<polygon fill="#666666" stroke="#666666" points="0,-31.5 0,-31.5 64,-31.5 64,-31.5 0,-31.5"/>
<polygon fill="#666666" stroke="#666666" points="0,-16.5 0,-16.5 15,-16.5 15,-16.5 0,-16.5"/>
<polygon fill="#666666" stroke="#666666" points="15,-16.5 15,-16.5 64,-16.5 64,-16.5 15,-16.5"/>
<polygon fill="none" stroke="#666666" points="0,0 0,-49 64,-49 64,0 0,0"/>
</a>
</g>
</g>
<!-- Node2 -->
<g id="Node000002" class="node">
<title>Node2</title>
<g id="a_Node000002"><a xlink:href="structast.html" target="_top" xlink:title=" ">
<polygon fill="white" stroke="transparent" points="49.5,-271 6.5,-271 6.5,-222 49.5,-222 49.5,-271"/>
<text text-anchor="start" x="20.5" y="-258.5" font-family="Helvetica,sans-Serif" font-size="10.00">ast</text>
<text text-anchor="start" x="11" y="-243.5" font-family="Helvetica,sans-Serif" font-size="10.00">+</text>
<text text-anchor="start" x="24" y="-243.5" font-family="Helvetica,sans-Serif" font-size="10.00">type</text>
<text text-anchor="start" x="26.5" y="-228.5" font-family="Helvetica,sans-Serif" font-size="10.00"> </text>
<polygon fill="#666666" stroke="#666666" points="7,-253.5 7,-253.5 50,-253.5 50,-253.5 7,-253.5"/>
<polygon fill="#666666" stroke="#666666" points="7,-238.5 7,-238.5 22,-238.5 22,-238.5 7,-238.5"/>
<polygon fill="#666666" stroke="#666666" points="22,-238.5 22,-238.5 50,-238.5 50,-238.5 22,-238.5"/>
<polygon fill="none" stroke="#666666" points="6.5,-222 6.5,-271 49.5,-271 49.5,-222 6.5,-222"/>
</a>
</g>
</g>
<!-- Node2&#45;&gt;Node1 -->
<g id="edge1_Node000001_Node000002" class="edge">
<title>Node2&#45;&gt;Node1</title>
<g id="a_edge1_Node000001_Node000002"><a xlink:title=" ">
<path fill="none" stroke="#63b8ff" d="M26.52,-221.92C24.89,-192.45 22.8,-140.47 25,-96 25.56,-84.66 26.63,-72.34 27.76,-61.22"/>
<polygon fill="none" stroke="#63b8ff" points="27.76,-61.21 24.43,-54.82 29.05,-49.28 32.38,-55.67 27.76,-61.21"/>
</a>
</g>
<text text-anchor="middle" x="42.5" y="-125.5" font-family="Helvetica,sans-Serif" font-size="10.00" fill="grey"> +base</text>
</g>
<!-- Node3 -->
<g id="Node000003" class="node">
<title>Node3</title>
<g id="a_Node000003"><a xlink:href="structast__cmd.html" target="_top" xlink:title=" ">
<polygon fill="white" stroke="transparent" points="148.5,-160 69.5,-160 69.5,-96 148.5,-96 148.5,-160"/>
<text text-anchor="start" x="88.5" y="-148" font-family="Helvetica,sans-Serif" font-size="10.00">ast_cmd</text>
<text text-anchor="start" x="74" y="-133" font-family="Helvetica,sans-Serif" font-size="10.00">+</text>
<text text-anchor="start" x="87" y="-133" font-family="Helvetica,sans-Serif" font-size="10.00">assignment</text>
<text text-anchor="start" x="74" y="-118" font-family="Helvetica,sans-Serif" font-size="10.00">+</text>
<text text-anchor="start" x="87" y="-118" font-family="Helvetica,sans-Serif" font-size="10.00">words</text>
<text text-anchor="start" x="107.5" y="-103" font-family="Helvetica,sans-Serif" font-size="10.00"> </text>
<polygon fill="#666666" stroke="#666666" points="70,-143 70,-143 149,-143 149,-143 70,-143"/>
<polygon fill="#666666" stroke="#666666" points="70,-113 70,-113 85,-113 85,-113 70,-113"/>
<polygon fill="#666666" stroke="#666666" points="85,-113 85,-113 149,-113 149,-113 85,-113"/>
<polygon fill="none" stroke="#666666" points="69.5,-96 69.5,-160 148.5,-160 148.5,-96 69.5,-96"/>
</a>
</g>
</g>
<!-- Node2&#45;&gt;Node3 -->
<g id="edge3_Node000003_Node000002" class="edge">
<title>Node2&#45;&gt;Node3</title>
<g id="a_edge3_Node000003_Node000002"><a xlink:title=" ">
<path fill="none" stroke="#63b8ff" d="M41.74,-221.95C49.64,-208.78 59.97,-192.21 70,-178 71.87,-175.34 73.84,-172.64 75.86,-169.93"/>
<polygon fill="none" stroke="#63b8ff" points="75.99,-169.76 76.46,-162.56 83.28,-160.22 82.81,-167.42 75.99,-169.76"/>
</a>
</g>
<text text-anchor="middle" x="87.5" y="-181" font-family="Helvetica,sans-Serif" font-size="10.00" fill="grey"> +base</text>
</g>
<!-- Node3&#45;&gt;Node1 -->
<g id="edge2_Node000001_Node000003" class="edge">
<title>Node3&#45;&gt;Node1</title>
<g id="a_edge2_Node000001_Node000003"><a xlink:title=" ">
<path fill="none" stroke="#63b8ff" d="M85.48,-96C76.56,-84.24 66.38,-70.82 57.31,-58.86"/>
<polygon fill="none" stroke="#63b8ff" points="57.25,-58.79 50.44,-56.43 50,-49.23 56.81,-51.59 57.25,-58.79"/>
</a>
</g>
<text text-anchor="middle" x="87.5" y="-70" font-family="Helvetica,sans-Serif" font-size="10.00" fill="grey"> +cmd</text>
</g>
<!-- Node4 -->
<g id="Node000004" class="node">
<title>Node4</title>
<g id="a_Node000004"><a xlink:href="structredir.html" target="_top" xlink:title=" ">
<polygon fill="white" stroke="transparent" points="138,-286 80,-286 80,-207 138,-207 138,-286"/>
<text text-anchor="start" x="97.5" y="-273.5" font-family="Helvetica,sans-Serif" font-size="10.00">redir</text>
<text text-anchor="start" x="84" y="-258.5" font-family="Helvetica,sans-Serif" font-size="10.00">+</text>
<text text-anchor="start" x="97" y="-258.5" font-family="Helvetica,sans-Serif" font-size="10.00">io_num</text>
<text text-anchor="start" x="84" y="-243.5" font-family="Helvetica,sans-Serif" font-size="10.00">+</text>
<text text-anchor="start" x="97" y="-243.5" font-family="Helvetica,sans-Serif" font-size="10.00">type</text>
<text text-anchor="start" x="84" y="-228.5" font-family="Helvetica,sans-Serif" font-size="10.00">+</text>
<text text-anchor="start" x="97" y="-228.5" font-family="Helvetica,sans-Serif" font-size="10.00">target</text>
<text text-anchor="start" x="107" y="-213.5" font-family="Helvetica,sans-Serif" font-size="10.00"> </text>
<polygon fill="#666666" stroke="#666666" points="80,-268.5 80,-268.5 138,-268.5 138,-268.5 80,-268.5"/>
<polygon fill="#666666" stroke="#666666" points="80,-223.5 80,-223.5 95,-223.5 95,-223.5 80,-223.5"/>
<polygon fill="#666666" stroke="#666666" points="95,-223.5 95,-223.5 138,-223.5 138,-223.5 95,-223.5"/>
<polygon fill="none" stroke="#666666" points="80,-207 80,-286 138,-286 138,-207 80,-207"/>
</a>
</g>
</g>
<!-- Node4&#45;&gt;Node3 -->
<g id="edge4_Node000003_Node000004" class="edge">
<title>Node4&#45;&gt;Node3</title>
<g id="a_edge4_Node000003_Node000004"><a xlink:title=" ">
<path fill="none" stroke="#63b8ff" d="M109,-206.71C109,-195.74 109,-183.74 109,-172.51"/>
<polygon fill="none" stroke="#63b8ff" points="109,-172.27 105,-166.27 109,-160.27 113,-166.27 109,-172.27"/>
</a>
</g>
<text text-anchor="middle" x="129" y="-181" font-family="Helvetica,sans-Serif" font-size="10.00" fill="grey"> +redirs</text>
</g>
</g>
</svg>
