<?xml version="1.0" encoding="UTF-8" standalone="no"?>
<!DOCTYPE svg PUBLIC "-//W3C//DTD SVG 1.1//EN"
 "http://www.w3.org/Graphics/SVG/1.1/DTD/svg11.dtd">
<!-- Generated by graphviz version 2.43.0 (0)
 -->
<!-- Title: lex Pages: 1 -->
<svg width="125pt" height="198pt"
 viewBox="0.00 0.00 125.00 198.00" xmlns="http://www.w3.org/2000/svg" xmlns:xlink="http://www.w3.org/1999/xlink">
<g id="graph0" class="graph" transform="scale(1 1) rotate(0) translate(4 194)">
<title>lex</title>
<!-- Node1 -->
<g id="Node000001" class="node">
<title>Node1</title>
<g id="a_Node000001"><a xlink:title=" ">
<polygon fill="#999999" stroke="transparent" points="67,-79 9,-79 9,0 67,0 67,-79"/>
<text text-anchor="start" x="30" y="-66.5" font-family="Helvetica,sans-Serif" font-size="10.00">lex</text>
<text text-anchor="start" x="13" y="-51.5" font-family="Helvetica,sans-Serif" font-size="10.00">+</text>
<text text-anchor="start" x="26" y="-51.5" font-family="Helvetica,sans-Serif" font-size="10.00">entry</text>
<text text-anchor="start" x="13" y="-36.5" font-family="Helvetica,sans-Serif" font-size="10.00">+</text>
<text text-anchor="start" x="26" y="-36.5" font-family="Helvetica,sans-Serif" font-size="10.00">context</text>
<text text-anchor="start" x="13" y="-21.5" font-family="Helvetica,sans-Serif" font-size="10.00">+</text>
<text text-anchor="start" x="26" y="-21.5" font-family="Helvetica,sans-Serif" font-size="10.00">error</text>
<text text-anchor="start" x="36" y="-6.5" font-family="Helvetica,sans-Serif" font-size="10.00"> </text>
<polygon fill="#666666" stroke="#666666" points="9,-61.5 9,-61.5 67,-61.5 67,-61.5 9,-61.5"/>
<polygon fill="#666666" stroke="#666666" points="9,-16.5 9,-16.5 24,-16.5 24,-16.5 9,-16.5"/>
<polygon fill="#666666" stroke="#666666" points="24,-16.5 24,-16.5 67,-16.5 67,-16.5 24,-16.5"/>
<polygon fill="none" stroke="#666666" points="9,0 9,-79 67,-79 67,0 9,0"/>
</a>
</g>
</g>
<!-- Node2 -->
<g id="Node000002" class="node">
<title>Node2</title>
<g id="a_Node000002"><a xlink:href="structtoken.html" target="_top" xlink:title=" ">
<polygon fill="white" stroke="transparent" points="76,-190 0,-190 0,-126 76,-126 76,-190"/>
<text text-anchor="start" x="24" y="-178" font-family="Helvetica,sans-Serif" font-size="10.00">token</text>
<text text-anchor="start" x="4" y="-163" font-family="Helvetica,sans-Serif" font-size="10.00">+</text>
<text text-anchor="start" x="17" y="-163" font-family="Helvetica,sans-Serif" font-size="10.00">value</text>
<text text-anchor="start" x="4" y="-148" font-family="Helvetica,sans-Serif" font-size="10.00">+</text>
<text text-anchor="start" x="17" y="-148" font-family="Helvetica,sans-Serif" font-size="10.00">token_type</text>
<text text-anchor="start" x="36" y="-133" font-family="Helvetica,sans-Serif" font-size="10.00"> </text>
<polygon fill="#666666" stroke="#666666" points="0,-173 0,-173 76,-173 76,-173 0,-173"/>
<polygon fill="#666666" stroke="#666666" points="0,-143 0,-143 15,-143 15,-143 0,-143"/>
<polygon fill="#666666" stroke="#666666" points="15,-143 15,-143 76,-143 76,-143 15,-143"/>
<polygon fill="none" stroke="#666666" points="0,-126 0,-190 76,-190 76,-126 0,-126"/>
</a>
</g>
</g>
<!-- Node2&#45;&gt;Node1 -->
<g id="edge1_Node000001_Node000002" class="edge">
<title>Node2&#45;&gt;Node1</title>
<g id="a_edge1_Node000001_Node000002"><a xlink:title=" ">
<path fill="none" stroke="#63b8ff" d="M38,-125.78C38,-115.29 38,-103.29 38,-91.67"/>
<polygon fill="none" stroke="#63b8ff" points="38,-91.31 34,-85.31 38,-79.31 42,-85.31 38,-91.31"/>
</a>
</g>
<text text-anchor="middle" x="77.5" y="-100" font-family="Helvetica,sans-Serif" font-size="10.00" fill="grey"> +current_token</text>
</g>
</g>
</svg>
