<?xml version="1.0" encoding="UTF-8" standalone="no"?>
<!DOCTYPE svg PUBLIC "-//W3C//DTD SVG 1.1//EN"
 "http://www.w3.org/Graphics/SVG/1.1/DTD/svg11.dtd">
<!-- Generated by graphviz version 2.43.0 (0)
 -->
<!-- Title: ast_loop Pages: 1 -->
<svg width="88pt" height="175pt"
 viewBox="0.00 0.00 88.00 175.00" xmlns="http://www.w3.org/2000/svg" xmlns:xlink="http://www.w3.org/1999/xlink">
<g id="graph0" class="graph" transform="scale(1 1) rotate(0) translate(4 171)">
<title>ast_loop</title>
<!-- Node1 -->
<g id="Node000001" class="node">
<title>Node1</title>
<g id="a_Node000001"><a xlink:title=" ">
<polygon fill="#999999" stroke="transparent" points="52,-49 0,-49 0,0 52,0 52,-49"/>
<text text-anchor="start" x="5" y="-36.5" font-family="Helvetica,sans-Serif" font-size="10.00">ast_loop</text>
<text text-anchor="start" x="5.5" y="-21.5" font-family="Helvetica,sans-Serif" font-size="10.00">+</text>
<text text-anchor="start" x="20" y="-21.5" font-family="Helvetica,sans-Serif" font-size="10.00">truth</text>
<text text-anchor="start" x="24" y="-6.5" font-family="Helvetica,sans-Serif" font-size="10.00"> </text>
<polygon fill="#666666" stroke="#666666" points="0,-31.5 0,-31.5 52,-31.5 52,-31.5 0,-31.5"/>
<polygon fill="#666666" stroke="#666666" points="0,-16.5 0,-16.5 18,-16.5 18,-16.5 0,-16.5"/>
<polygon fill="#666666" stroke="#666666" points="18,-16.5 18,-16.5 52,-16.5 52,-16.5 18,-16.5"/>
<polygon fill="none" stroke="#666666" points="0,0 0,-49 52,-49 52,0 0,0"/>
</a>
</g>
</g>
<!-- Node2 -->
<g id="Node000002" class="node">
<title>Node2</title>
<g id="a_Node000002"><a xlink:href="structast.html" target="_top" xlink:title=" ">
<polygon fill="white" stroke="transparent" points="47.5,-167 4.5,-167 4.5,-118 47.5,-118 47.5,-167"/>
<text text-anchor="start" x="18.5" y="-154.5" font-family="Helvetica,sans-Serif" font-size="10.00">ast</text>
<text text-anchor="start" x="9" y="-139.5" font-family="Helvetica,sans-Serif" font-size="10.00">+</text>
<text text-anchor="start" x="22" y="-139.5" font-family="Helvetica,sans-Serif" font-size="10.00">type</text>
<text text-anchor="start" x="24.5" y="-124.5" font-family="Helvetica,sans-Serif" font-size="10.00"> </text>
<polygon fill="#666666" stroke="#666666" points="5,-149.5 5,-149.5 48,-149.5 48,-149.5 5,-149.5"/>
<polygon fill="#666666" stroke="#666666" points="5,-134.5 5,-134.5 20,-134.5 20,-134.5 5,-134.5"/>
<polygon fill="#666666" stroke="#666666" points="20,-134.5 20,-134.5 48,-134.5 48,-134.5 20,-134.5"/>
<polygon fill="none" stroke="#666666" points="4.5,-118 4.5,-167 47.5,-167 47.5,-118 4.5,-118"/>
</a>
</g>
</g>
<!-- Node2&#45;&gt;Node1 -->
<g id="edge1_Node000001_Node000002" class="edge">
<title>Node2&#45;&gt;Node1</title>
<g id="a_edge1_Node000001_Node000002"><a xlink:title=" ">
<path fill="none" stroke="#63b8ff" d="M26,-117.75C26,-101.48 26,-79.62 26,-61.26"/>
<polygon fill="none" stroke="#63b8ff" points="26,-61.22 22,-55.22 26,-49.22 30,-55.22 26,-61.22"/>
</a>
</g>
<text text-anchor="middle" x="53" y="-92" font-family="Helvetica,sans-Serif" font-size="10.00" fill="grey"> +base</text>
<text text-anchor="middle" x="53" y="-81" font-family="Helvetica,sans-Serif" font-size="10.00" fill="grey">+body</text>
<text text-anchor="middle" x="53" y="-70" font-family="Helvetica,sans-Serif" font-size="10.00" fill="grey">+condition</text>
</g>
</g>
</svg>
