<?xml version="1.0" encoding="UTF-8" standalone="no"?>
<!DOCTYPE svg PUBLIC "-//W3C//DTD SVG 1.1//EN"
 "http://www.w3.org/Graphics/SVG/1.1/DTD/svg11.dtd">
<!-- Generated by graphviz version 2.43.0 (0)
 -->
<!-- Title: ast_cmd Pages: 1 -->
<svg width="128pt" height="198pt"
 viewBox="0.00 0.00 127.50 198.00" xmlns="http://www.w3.org/2000/svg" xmlns:xlink="http://www.w3.org/1999/xlink">
<g id="graph0" class="graph" transform="scale(1 1) rotate(0) translate(4 194)">
<title>ast_cmd</title>
<!-- Node1 -->
<g id="Node000001" class="node">
<title>Node1</title>
<g id="a_Node000001"><a xlink:title=" ">
<polygon fill="#999999" stroke="transparent" points="95,-64 16,-64 16,0 95,0 95,-64"/>
<text text-anchor="start" x="35" y="-52" font-family="Helvetica,sans-Serif" font-size="10.00">ast_cmd</text>
<text text-anchor="start" x="20.5" y="-37" font-family="Helvetica,sans-Serif" font-size="10.00">+</text>
<text text-anchor="start" x="33.5" y="-37" font-family="Helvetica,sans-Serif" font-size="10.00">assignment</text>
<text text-anchor="start" x="20.5" y="-22" font-family="Helvetica,sans-Serif" font-size="10.00">+</text>
<text text-anchor="start" x="33.5" y="-22" font-family="Helvetica,sans-Serif" font-size="10.00">words</text>
<text text-anchor="start" x="54" y="-7" font-family="Helvetica,sans-Serif" font-size="10.00"> </text>
<polygon fill="#666666" stroke="#666666" points="16.5,-47 16.5,-47 95.5,-47 95.5,-47 16.5,-47"/>
<polygon fill="#666666" stroke="#666666" points="16.5,-17 16.5,-17 31.5,-17 31.5,-17 16.5,-17"/>
<polygon fill="#666666" stroke="#666666" points="31.5,-17 31.5,-17 95.5,-17 95.5,-17 31.5,-17"/>
<polygon fill="none" stroke="#666666" points="16,0 16,-64 95,-64 95,0 16,0"/>
</a>
</g>
</g>
<!-- Node2 -->
<g id="Node000002" class="node">
<title>Node2</title>
<g id="a_Node000002"><a xlink:href="structast.html" target="_top" xlink:title=" ">
<polygon fill="white" stroke="transparent" points="43,-175 0,-175 0,-126 43,-126 43,-175"/>
<text text-anchor="start" x="14" y="-162.5" font-family="Helvetica,sans-Serif" font-size="10.00">ast</text>
<text text-anchor="start" x="4.5" y="-147.5" font-family="Helvetica,sans-Serif" font-size="10.00">+</text>
<text text-anchor="start" x="17.5" y="-147.5" font-family="Helvetica,sans-Serif" font-size="10.00">type</text>
<text text-anchor="start" x="20" y="-132.5" font-family="Helvetica,sans-Serif" font-size="10.00"> </text>
<polygon fill="#666666" stroke="#666666" points="0.5,-157.5 0.5,-157.5 43.5,-157.5 43.5,-157.5 0.5,-157.5"/>
<polygon fill="#666666" stroke="#666666" points="0.5,-142.5 0.5,-142.5 15.5,-142.5 15.5,-142.5 0.5,-142.5"/>
<polygon fill="#666666" stroke="#666666" points="15.5,-142.5 15.5,-142.5 43.5,-142.5 43.5,-142.5 15.5,-142.5"/>
<polygon fill="none" stroke="#666666" points="0,-126 0,-175 43,-175 43,-126 0,-126"/>
</a>
</g>
</g>
<!-- Node2&#45;&gt;Node1 -->
<g id="edge1_Node000001_Node000002" class="edge">
<title>Node2&#45;&gt;Node1</title>
<g id="a_edge1_Node000001_Node000002"><a xlink:title=" ">
<path fill="none" stroke="#63b8ff" d="M24.27,-125.73C26.15,-112.64 29.12,-96.22 33.5,-82 34.15,-79.89 34.87,-77.74 35.64,-75.6"/>
<polygon fill="none" stroke="#63b8ff" points="35.73,-75.36 34.21,-68.31 40.13,-64.19 41.65,-71.24 35.73,-75.36"/>
</a>
</g>
<text text-anchor="middle" x="51" y="-85" font-family="Helvetica,sans-Serif" font-size="10.00" fill="grey"> +base</text>
</g>
<!-- Node3 -->
<g id="Node000003" class="node">
<title>Node3</title>
<g id="a_Node000003"><a xlink:href="structredir.html" target="_top" xlink:title=" ">
<polygon fill="white" stroke="transparent" points="119.5,-190 61.5,-190 61.5,-111 119.5,-111 119.5,-190"/>
<text text-anchor="start" x="79" y="-177.5" font-family="Helvetica,sans-Serif" font-size="10.00">redir</text>
<text text-anchor="start" x="65.5" y="-162.5" font-family="Helvetica,sans-Serif" font-size="10.00">+</text>
<text text-anchor="start" x="78.5" y="-162.5" font-family="Helvetica,sans-Serif" font-size="10.00">io_num</text>
<text text-anchor="start" x="65.5" y="-147.5" font-family="Helvetica,sans-Serif" font-size="10.00">+</text>
<text text-anchor="start" x="78.5" y="-147.5" font-family="Helvetica,sans-Serif" font-size="10.00">type</text>
<text text-anchor="start" x="65.5" y="-132.5" font-family="Helvetica,sans-Serif" font-size="10.00">+</text>
<text text-anchor="start" x="78.5" y="-132.5" font-family="Helvetica,sans-Serif" font-size="10.00">target</text>
<text text-anchor="start" x="88.5" y="-117.5" font-family="Helvetica,sans-Serif" font-size="10.00"> </text>
<polygon fill="#666666" stroke="#666666" points="61.5,-172.5 61.5,-172.5 119.5,-172.5 119.5,-172.5 61.5,-172.5"/>
<polygon fill="#666666" stroke="#666666" points="61.5,-127.5 61.5,-127.5 76.5,-127.5 76.5,-127.5 61.5,-127.5"/>
<polygon fill="#666666" stroke="#666666" points="76.5,-127.5 76.5,-127.5 119.5,-127.5 119.5,-127.5 76.5,-127.5"/>
<polygon fill="none" stroke="#666666" points="61.5,-111 61.5,-190 119.5,-190 119.5,-111 61.5,-111"/>
</a>
</g>
</g>
<!-- Node3&#45;&gt;Node1 -->
<g id="edge2_Node000001_Node000003" class="edge">
<title>Node3&#45;&gt;Node1</title>
<g id="a_edge2_Node000001_Node000003"><a xlink:title=" ">
<path fill="none" stroke="#63b8ff" d="M78.85,-110.71C75.48,-99.51 71.79,-87.22 68.36,-75.79"/>
<polygon fill="none" stroke="#63b8ff" points="68.35,-75.77 62.79,-71.17 64.9,-64.27 70.45,-68.87 68.35,-75.77"/>
</a>
</g>
<text text-anchor="middle" x="92.5" y="-85" font-family="Helvetica,sans-Serif" font-size="10.00" fill="grey"> +redirs</text>
</g>
</g>
</svg>
