<?xml version="1.0" encoding="UTF-8" standalone="no"?>
<!DOCTYPE svg PUBLIC "-//W3C//DTD SVG 1.1//EN"
 "http://www.w3.org/Graphics/SVG/1.1/DTD/svg11.dtd">
<!-- Generated by graphviz version 2.43.0 (0)
 -->
<!-- Title: src/utils/token.h Pages: 1 -->
<svg width="1866pt" height="302pt"
 viewBox="0.00 0.00 1866.00 302.00" xmlns="http://www.w3.org/2000/svg" xmlns:xlink="http://www.w3.org/1999/xlink">
<g id="graph0" class="graph" transform="scale(1 1) rotate(0) translate(4 298)">
<title>src/utils/token.h</title>
<!-- Node1 -->
<g id="Node000001" class="node">
<title>Node1</title>
<g id="a_Node000001"><a xlink:title=" ">
<polygon fill="#999999" stroke="#666666" points="1248,-294 1154,-294 1154,-275 1248,-275 1248,-294"/>
<text text-anchor="middle" x="1201" y="-282" font-family="Helvetica,sans-Serif" font-size="10.00">src/utils/token.h</text>
</a>
</g>
</g>
<!-- Node2 -->
<g id="Node000002" class="node">
<title>Node2</title>
<g id="a_Node000002"><a xlink:href="ast_8h.html" target="_top" xlink:title=" ">
<polygon fill="white" stroke="#666666" points="1239,-184 1163,-184 1163,-165 1239,-165 1239,-184"/>
<text text-anchor="middle" x="1201" y="-172" font-family="Helvetica,sans-Serif" font-size="10.00">src/ast/ast.h</text>
</a>
</g>
</g>
<!-- Node1&#45;&gt;Node2 -->
<g id="edge1_Node000001_Node000002" class="edge">
<title>Node1&#45;&gt;Node2</title>
<g id="a_edge1_Node000001_Node000002"><a xlink:title=" ">
<path fill="none" stroke="#63b8ff" d="M1201,-264.48C1201,-240.84 1201,-201.5 1201,-184.16"/>
<polygon fill="#63b8ff" stroke="#63b8ff" points="1197.5,-264.66 1201,-274.66 1204.5,-264.66 1197.5,-264.66"/>
</a>
</g>
</g>
<!-- Node25 -->
<g id="Node000025" class="node">
<title>Node25</title>
<g id="a_Node000025"><a xlink:href="lexer_8h.html" target="_top" xlink:title=" ">
<polygon fill="white" stroke="#666666" points="831.5,-239 738.5,-239 738.5,-220 831.5,-220 831.5,-239"/>
<text text-anchor="middle" x="785" y="-227" font-family="Helvetica,sans-Serif" font-size="10.00">src/lexer/lexer.h</text>
</a>
</g>
</g>
<!-- Node1&#45;&gt;Node25 -->
<g id="edge32_Node000001_Node000025" class="edge">
<title>Node1&#45;&gt;Node25</title>
<g id="a_edge32_Node000001_Node000025"><a xlink:title=" ">
<path fill="none" stroke="#63b8ff" d="M1143.66,-276.19C1060.56,-265.61 908.26,-246.2 831.63,-236.44"/>
<polygon fill="#63b8ff" stroke="#63b8ff" points="1143.32,-279.68 1153.68,-277.47 1144.21,-272.74 1143.32,-279.68"/>
</a>
</g>
</g>
<!-- Node26 -->
<g id="Node000026" class="node">
<title>Node26</title>
<g id="a_Node000026"><a xlink:href="lexer__aux_8h.html" target="_top" xlink:title=" ">
<polygon fill="white" stroke="#666666" points="588.5,-184 471.5,-184 471.5,-165 588.5,-165 588.5,-184"/>
<text text-anchor="middle" x="530" y="-172" font-family="Helvetica,sans-Serif" font-size="10.00">src/lexer/lexer_aux.h</text>
</a>
</g>
</g>
<!-- Node1&#45;&gt;Node26 -->
<g id="edge41_Node000001_Node000026" class="edge">
<title>Node1&#45;&gt;Node26</title>
<g id="a_edge41_Node000001_Node000026"><a xlink:title=" ">
<path fill="none" stroke="#63b8ff" d="M1143.75,-282.06C1054.37,-278.93 876.58,-269.14 729,-239 662.73,-225.47 587.4,-197.95 551.39,-184.01"/>
<polygon fill="#63b8ff" stroke="#63b8ff" points="1143.84,-285.56 1153.95,-282.4 1144.07,-278.57 1143.84,-285.56"/>
</a>
</g>
</g>
<!-- Node32 -->
<g id="Node000032" class="node">
<title>Node32</title>
<g id="a_Node000032"><a xlink:href="redir_8h.html" target="_top" xlink:title=" ">
<polygon fill="white" stroke="#666666" points="1576.5,-239 1487.5,-239 1487.5,-220 1576.5,-220 1576.5,-239"/>
<text text-anchor="middle" x="1532" y="-227" font-family="Helvetica,sans-Serif" font-size="10.00">src/utils/redir.h</text>
</a>
</g>
</g>
<!-- Node1&#45;&gt;Node32 -->
<g id="edge42_Node000001_Node000032" class="edge">
<title>Node1&#45;&gt;Node32</title>
<g id="a_edge42_Node000001_Node000032"><a xlink:title=" ">
<path fill="none" stroke="#63b8ff" d="M1258.16,-274.35C1323.24,-263.93 1428.18,-247.12 1487.47,-237.63"/>
<polygon fill="#63b8ff" stroke="#63b8ff" points="1257.39,-270.93 1248.07,-275.96 1258.5,-277.84 1257.39,-270.93"/>
</a>
</g>
</g>
<!-- Node36 -->
<g id="Node000036" class="node">
<title>Node36</title>
<g id="a_Node000036"><a xlink:href="token_8c.html" target="_top" xlink:title=" ">
<polygon fill="white" stroke="#666666" points="1687.5,-239 1594.5,-239 1594.5,-220 1687.5,-220 1687.5,-239"/>
<text text-anchor="middle" x="1641" y="-227" font-family="Helvetica,sans-Serif" font-size="10.00">src/utils/token.c</text>
</a>
</g>
</g>
<!-- Node1&#45;&gt;Node36 -->
<g id="edge51_Node000001_Node000036" class="edge">
<title>Node1&#45;&gt;Node36</title>
<g id="a_edge51_Node000001_Node000036"><a xlink:title=" ">
<path fill="none" stroke="#63b8ff" d="M1258.4,-277.56C1333.71,-269.6 1469.93,-254.67 1586,-239 1588.68,-238.64 1591.43,-238.25 1594.21,-237.86"/>
<polygon fill="#63b8ff" stroke="#63b8ff" points="1257.77,-274.11 1248.19,-278.63 1258.5,-281.07 1257.77,-274.11"/>
</a>
</g>
</g>
<!-- Node3 -->
<g id="Node000003" class="node">
<title>Node3</title>
<g id="a_Node000003"><a xlink:href="42sh_8c.html" target="_top" xlink:title=" ">
<polygon fill="white" stroke="#666666" points="1257.5,-74 1192.5,-74 1192.5,-55 1257.5,-55 1257.5,-74"/>
<text text-anchor="middle" x="1225" y="-62" font-family="Helvetica,sans-Serif" font-size="10.00">src/42sh.c</text>
</a>
</g>
</g>
<!-- Node2&#45;&gt;Node3 -->
<g id="edge2_Node000002_Node000003" class="edge">
<title>Node2&#45;&gt;Node3</title>
<g id="a_edge2_Node000002_Node000003"><a xlink:title=" ">
<path fill="none" stroke="#63b8ff" d="M1214.21,-156.68C1219.61,-148.75 1225.24,-138.88 1228,-129 1233.29,-110.08 1229.77,-86.77 1227.14,-74.32"/>
<polygon fill="#63b8ff" stroke="#63b8ff" points="1211.22,-154.83 1208.15,-164.97 1216.87,-158.96 1211.22,-154.83"/>
</a>
</g>
</g>
<!-- Node4 -->
<g id="Node000004" class="node">
<title>Node4</title>
<g id="a_Node000004"><a xlink:href="ast__aux_8h.html" target="_top" xlink:title=" ">
<polygon fill="white" stroke="#666666" points="746.5,-74 647.5,-74 647.5,-55 746.5,-55 746.5,-74"/>
<text text-anchor="middle" x="697" y="-62" font-family="Helvetica,sans-Serif" font-size="10.00">src/ast/ast_aux.h</text>
</a>
</g>
</g>
<!-- Node2&#45;&gt;Node4 -->
<g id="edge3_Node000002_Node000004" class="edge">
<title>Node2&#45;&gt;Node4</title>
<g id="a_edge3_Node000002_Node000004"><a xlink:title=" ">
<path fill="none" stroke="#63b8ff" d="M1152.57,-173.15C1079.59,-171.45 937.75,-163.49 823,-129 779.37,-115.88 732.62,-88.31 710.32,-74.2"/>
<polygon fill="#63b8ff" stroke="#63b8ff" points="1152.76,-176.66 1162.83,-173.36 1152.9,-169.66 1152.76,-176.66"/>
</a>
</g>
</g>
<!-- Node14 -->
<g id="Node000014" class="node">
<title>Node14</title>
<g id="a_Node000014"><a xlink:href="exec_8h.html" target="_top" xlink:title=" ">
<polygon fill="white" stroke="#666666" points="1503.5,-129 1412.5,-129 1412.5,-110 1503.5,-110 1503.5,-129"/>
<text text-anchor="middle" x="1458" y="-117" font-family="Helvetica,sans-Serif" font-size="10.00">src/exec/exec.h</text>
</a>
</g>
</g>
<!-- Node2&#45;&gt;Node14 -->
<g id="edge13_Node000002_Node000014" class="edge">
<title>Node2&#45;&gt;Node14</title>
<g id="a_edge13_Node000002_Node000014"><a xlink:title=" ">
<path fill="none" stroke="#63b8ff" d="M1249.09,-163.58C1297.34,-153.63 1370.88,-138.47 1416.61,-129.04"/>
<polygon fill="#63b8ff" stroke="#63b8ff" points="1248.28,-160.17 1239.2,-165.62 1249.7,-167.03 1248.28,-160.17"/>
</a>
</g>
</g>
<!-- Node16 -->
<g id="Node000016" class="node">
<title>Node16</title>
<g id="a_Node000016"><a xlink:href="expand_8c.html" target="_top" xlink:title=" ">
<polygon fill="white" stroke="#666666" points="1074.5,-129 957.5,-129 957.5,-110 1074.5,-110 1074.5,-129"/>
<text text-anchor="middle" x="1016" y="-117" font-family="Helvetica,sans-Serif" font-size="10.00">src/expand/expand.c</text>
</a>
</g>
</g>
<!-- Node2&#45;&gt;Node16 -->
<g id="edge16_Node000002_Node000016" class="edge">
<title>Node2&#45;&gt;Node16</title>
<g id="a_edge16_Node000002_Node000016"><a xlink:title=" ">
<path fill="none" stroke="#63b8ff" d="M1161.5,-162.18C1126.9,-152.27 1077.37,-138.08 1045.96,-129.08"/>
<polygon fill="#63b8ff" stroke="#63b8ff" points="1160.7,-165.6 1171.28,-164.98 1162.63,-158.87 1160.7,-165.6"/>
</a>
</g>
</g>
<!-- Node17 -->
<g id="Node000017" class="node">
<title>Node17</title>
<g id="a_Node000017"><a xlink:href="hashmap_8c.html" target="_top" xlink:title=" ">
<polygon fill="white" stroke="#666666" points="1219,-129 1093,-129 1093,-110 1219,-110 1219,-129"/>
<text text-anchor="middle" x="1156" y="-117" font-family="Helvetica,sans-Serif" font-size="10.00">src/expand/hashmap.c</text>
</a>
</g>
</g>
<!-- Node2&#45;&gt;Node17 -->
<g id="edge17_Node000002_Node000017" class="edge">
<title>Node2&#45;&gt;Node17</title>
<g id="a_edge17_Node000002_Node000017"><a xlink:title=" ">
<path fill="none" stroke="#63b8ff" d="M1186.95,-156.96C1179.11,-147.72 1169.67,-136.6 1163.29,-129.09"/>
<polygon fill="#63b8ff" stroke="#63b8ff" points="1184.43,-159.39 1193.57,-164.75 1189.76,-154.86 1184.43,-159.39"/>
</a>
</g>
</g>
<!-- Node18 -->
<g id="Node000018" class="node">
<title>Node18</title>
<g id="a_Node000018"><a xlink:href="parser_8h.html" target="_top" xlink:title=" ">
<polygon fill="white" stroke="#666666" points="939.5,-129 832.5,-129 832.5,-110 939.5,-110 939.5,-129"/>
<text text-anchor="middle" x="886" y="-117" font-family="Helvetica,sans-Serif" font-size="10.00">src/parser/parser.h</text>
</a>
</g>
</g>
<!-- Node2&#45;&gt;Node18 -->
<g id="edge18_Node000002_Node000018" class="edge">
<title>Node2&#45;&gt;Node18</title>
<g id="a_edge18_Node000002_Node000018"><a xlink:title=" ">
<path fill="none" stroke="#63b8ff" d="M1152.6,-165.36C1094.15,-155.52 996.28,-139.06 936.78,-129.04"/>
<polygon fill="#63b8ff" stroke="#63b8ff" points="1152.25,-168.85 1162.69,-167.05 1153.41,-161.94 1152.25,-168.85"/>
</a>
</g>
</g>
<!-- Node23 -->
<g id="Node000023" class="node">
<title>Node23</title>
<g id="a_Node000023"><a xlink:href="prettyprint_8h.html" target="_top" xlink:title=" ">
<polygon fill="white" stroke="#666666" points="1394.5,-129 1275.5,-129 1275.5,-110 1394.5,-110 1394.5,-129"/>
<text text-anchor="middle" x="1335" y="-117" font-family="Helvetica,sans-Serif" font-size="10.00">src/utils/prettyprint.h</text>
</a>
</g>
</g>
<!-- Node2&#45;&gt;Node23 -->
<g id="edge29_Node000002_Node000023" class="edge">
<title>Node2&#45;&gt;Node23</title>
<g id="a_edge29_Node000002_Node000023"><a xlink:title=" ">
<path fill="none" stroke="#63b8ff" d="M1231.87,-161.29C1256.7,-151.47 1290.99,-137.91 1313.08,-129.17"/>
<polygon fill="#63b8ff" stroke="#63b8ff" points="1230.54,-158.05 1222.53,-164.98 1233.12,-164.56 1230.54,-158.05"/>
</a>
</g>
</g>
<!-- Node5 -->
<g id="Node000005" class="node">
<title>Node5</title>
<g id="a_Node000005"><a xlink:href="ast_8c.html" target="_top" xlink:title=" ">
<polygon fill="white" stroke="#666666" points="335.5,-19 260.5,-19 260.5,0 335.5,0 335.5,-19"/>
<text text-anchor="middle" x="298" y="-7" font-family="Helvetica,sans-Serif" font-size="10.00">src/ast/ast.c</text>
</a>
</g>
</g>
<!-- Node4&#45;&gt;Node5 -->
<g id="edge4_Node000004_Node000005" class="edge">
<title>Node4&#45;&gt;Node5</title>
<g id="a_edge4_Node000004_Node000005"><a xlink:title=" ">
<path fill="none" stroke="#63b8ff" d="M637.36,-56.94C567.24,-49 447.42,-34.72 345,-19 341.97,-18.53 338.83,-18.03 335.68,-17.5"/>
<polygon fill="#63b8ff" stroke="#63b8ff" points="637.01,-60.42 647.33,-58.06 637.79,-53.47 637.01,-60.42"/>
</a>
</g>
</g>
<!-- Node6 -->
<g id="Node000006" class="node">
<title>Node6</title>
<g id="a_Node000006"><a xlink:href="ast__free_8c.html" target="_top" xlink:title=" ">
<polygon fill="white" stroke="#666666" points="242,-19 142,-19 142,0 242,0 242,-19"/>
<text text-anchor="middle" x="192" y="-7" font-family="Helvetica,sans-Serif" font-size="10.00">src/ast/ast_free.c</text>
</a>
</g>
</g>
<!-- Node4&#45;&gt;Node6 -->
<g id="edge5_Node000004_Node000006" class="edge">
<title>Node4&#45;&gt;Node6</title>
<g id="a_edge5_Node000004_Node000006"><a xlink:title=" ">
<path fill="none" stroke="#63b8ff" d="M637.37,-58.38C551.74,-50.85 389.06,-35.82 251,-19 248.12,-18.65 245.17,-18.27 242.19,-17.88"/>
<polygon fill="#63b8ff" stroke="#63b8ff" points="637.16,-61.88 647.42,-59.27 637.77,-54.91 637.16,-61.88"/>
</a>
</g>
</g>
<!-- Node7 -->
<g id="Node000007" class="node">
<title>Node7</title>
<g id="a_Node000007"><a xlink:href="ast__init_8c.html" target="_top" xlink:title=" ">
<polygon fill="white" stroke="#666666" points="450,-19 354,-19 354,0 450,0 450,-19"/>
<text text-anchor="middle" x="402" y="-7" font-family="Helvetica,sans-Serif" font-size="10.00">src/ast/ast_init.c</text>
</a>
</g>
</g>
<!-- Node4&#45;&gt;Node7 -->
<g id="edge6_Node000004_Node000007" class="edge">
<title>Node4&#45;&gt;Node7</title>
<g id="a_edge6_Node000004_Node000007"><a xlink:title=" ">
<path fill="none" stroke="#63b8ff" d="M639.61,-53.19C584.3,-43.25 501.59,-28.39 449.77,-19.08"/>
<polygon fill="#63b8ff" stroke="#63b8ff" points="639.14,-56.66 649.6,-54.98 640.38,-49.77 639.14,-56.66"/>
</a>
</g>
</g>
<!-- Node8 -->
<g id="Node000008" class="node">
<title>Node8</title>
<g id="a_Node000008"><a xlink:href="ast__run_8c.html" target="_top" xlink:title=" ">
<polygon fill="white" stroke="#666666" points="1502,-19 1406,-19 1406,0 1502,0 1502,-19"/>
<text text-anchor="middle" x="1454" y="-7" font-family="Helvetica,sans-Serif" font-size="10.00">src/ast/ast_run.c</text>
</a>
</g>
</g>
<!-- Node4&#45;&gt;Node8 -->
<g id="edge7_Node000004_Node000008" class="edge">
<title>Node4&#45;&gt;Node8</title>
<g id="a_edge7_Node000004_Node000008"><a xlink:title=" ">
<path fill="none" stroke="#63b8ff" d="M756.92,-55.97C760.33,-55.62 763.71,-55.29 767,-55 1046.35,-30.08 1118.02,-47.71 1397,-19 1399.89,-18.7 1402.85,-18.36 1405.84,-18"/>
<polygon fill="#63b8ff" stroke="#63b8ff" points="756.24,-52.52 746.67,-57.07 756.99,-59.48 756.24,-52.52"/>
</a>
</g>
</g>
<!-- Node9 -->
<g id="Node000009" class="node">
<title>Node9</title>
<g id="a_Node000009"><a xlink:href="parser_8c.html" target="_top" xlink:title=" ">
<polygon fill="white" stroke="#666666" points="574,-19 468,-19 468,0 574,0 574,-19"/>
<text text-anchor="middle" x="521" y="-7" font-family="Helvetica,sans-Serif" font-size="10.00">src/parser/parser.c</text>
</a>
</g>
</g>
<!-- Node4&#45;&gt;Node9 -->
<g id="edge8_Node000004_Node000009" class="edge">
<title>Node4&#45;&gt;Node9</title>
<g id="a_edge8_Node000004_Node000009"><a xlink:title=" ">
<path fill="none" stroke="#63b8ff" d="M659,-52.06C626.1,-42.15 579.26,-28.04 549.5,-19.08"/>
<polygon fill="#63b8ff" stroke="#63b8ff" points="658.14,-55.45 668.72,-54.98 660.16,-48.75 658.14,-55.45"/>
</a>
</g>
</g>
<!-- Node10 -->
<g id="Node000010" class="node">
<title>Node10</title>
<g id="a_Node000010"><a xlink:href="parser__commands_8c.html" target="_top" xlink:title=" ">
<polygon fill="white" stroke="#666666" points="758,-19 592,-19 592,0 758,0 758,-19"/>
<text text-anchor="middle" x="675" y="-7" font-family="Helvetica,sans-Serif" font-size="10.00">src/parser/parser_commands.c</text>
</a>
</g>
</g>
<!-- Node4&#45;&gt;Node10 -->
<g id="edge9_Node000004_Node000010" class="edge">
<title>Node4&#45;&gt;Node10</title>
<g id="a_edge9_Node000004_Node000010"><a xlink:title=" ">
<path fill="none" stroke="#63b8ff" d="M689.42,-45.24C685.74,-36.37 681.49,-26.14 678.57,-19.09"/>
<polygon fill="#63b8ff" stroke="#63b8ff" points="686.3,-46.85 693.37,-54.75 692.77,-44.17 686.3,-46.85"/>
</a>
</g>
</g>
<!-- Node11 -->
<g id="Node000011" class="node">
<title>Node11</title>
<g id="a_Node000011"><a xlink:href="parser__lists_8c.html" target="_top" xlink:title=" ">
<polygon fill="white" stroke="#666666" points="908,-19 776,-19 776,0 908,0 908,-19"/>
<text text-anchor="middle" x="842" y="-7" font-family="Helvetica,sans-Serif" font-size="10.00">src/parser/parser_lists.c</text>
</a>
</g>
</g>
<!-- Node4&#45;&gt;Node11 -->
<g id="edge10_Node000004_Node000011" class="edge">
<title>Node4&#45;&gt;Node11</title>
<g id="a_edge10_Node000004_Node000011"><a xlink:title=" ">
<path fill="none" stroke="#63b8ff" d="M729.69,-51.55C756.62,-41.71 794.16,-27.98 818.28,-19.17"/>
<polygon fill="#63b8ff" stroke="#63b8ff" points="728.49,-48.26 720.3,-54.98 730.89,-54.84 728.49,-48.26"/>
</a>
</g>
</g>
<!-- Node12 -->
<g id="Node000012" class="node">
<title>Node12</title>
<g id="a_Node000012"><a xlink:href="parser__pipelines_8c.html" target="_top" xlink:title=" ">
<polygon fill="white" stroke="#666666" points="1082,-19 926,-19 926,0 1082,0 1082,-19"/>
<text text-anchor="middle" x="1004" y="-7" font-family="Helvetica,sans-Serif" font-size="10.00">src/parser/parser_pipelines.c</text>
</a>
</g>
</g>
<!-- Node4&#45;&gt;Node12 -->
<g id="edge11_Node000004_Node000012" class="edge">
<title>Node4&#45;&gt;Node12</title>
<g id="a_edge11_Node000004_Node000012"><a xlink:title=" ">
<path fill="none" stroke="#63b8ff" d="M756.38,-53.25C814.03,-43.3 900.53,-28.36 954.54,-19.04"/>
<polygon fill="#63b8ff" stroke="#63b8ff" points="755.58,-49.83 746.32,-54.98 756.77,-56.73 755.58,-49.83"/>
</a>
</g>
</g>
<!-- Node13 -->
<g id="Node000013" class="node">
<title>Node13</title>
<g id="a_Node000013"><a xlink:href="parser__rules_8c.html" target="_top" xlink:title=" ">
<polygon fill="white" stroke="#666666" points="1236,-19 1100,-19 1100,0 1236,0 1236,-19"/>
<text text-anchor="middle" x="1168" y="-7" font-family="Helvetica,sans-Serif" font-size="10.00">src/parser/parser_rules.c</text>
</a>
</g>
</g>
<!-- Node4&#45;&gt;Node13 -->
<g id="edge12_Node000004_Node000013" class="edge">
<title>Node4&#45;&gt;Node13</title>
<g id="a_edge12_Node000004_Node000013"><a xlink:title=" ">
<path fill="none" stroke="#63b8ff" d="M756.95,-56.18C760.35,-55.78 763.72,-55.38 767,-55 799.14,-51.27 993.74,-29.74 1099.57,-18.05"/>
<polygon fill="#63b8ff" stroke="#63b8ff" points="756.22,-52.74 746.7,-57.4 757.05,-59.69 756.22,-52.74"/>
</a>
</g>
</g>
<!-- Node14&#45;&gt;Node8 -->
<g id="edge14_Node000014_Node000008" class="edge">
<title>Node14&#45;&gt;Node8</title>
<g id="a_edge14_Node000014_Node000008"><a xlink:title=" ">
<path fill="none" stroke="#63b8ff" d="M1449.44,-100.59C1446.1,-92.64 1442.67,-83.05 1441,-74 1437.37,-54.3 1445.07,-31.3 1450.1,-19.11"/>
<polygon fill="#63b8ff" stroke="#63b8ff" points="1446.34,-102.22 1453.63,-109.91 1452.73,-99.35 1446.34,-102.22"/>
</a>
</g>
</g>
<!-- Node15 -->
<g id="Node000015" class="node">
<title>Node15</title>
<g id="a_Node000015"><a xlink:href="exec_8c.html" target="_top" xlink:title=" ">
<polygon fill="white" stroke="#666666" points="1540,-74 1450,-74 1450,-55 1540,-55 1540,-74"/>
<text text-anchor="middle" x="1495" y="-62" font-family="Helvetica,sans-Serif" font-size="10.00">src/exec/exec.c</text>
</a>
</g>
</g>
<!-- Node14&#45;&gt;Node15 -->
<g id="edge15_Node000014_Node000015" class="edge">
<title>Node14&#45;&gt;Node15</title>
<g id="a_edge15_Node000014_Node000015"><a xlink:title=" ">
<path fill="none" stroke="#63b8ff" d="M1469.95,-101.39C1476.31,-92.27 1483.87,-81.45 1489,-74.09"/>
<polygon fill="#63b8ff" stroke="#63b8ff" points="1466.96,-99.55 1464.11,-109.75 1472.7,-103.55 1466.96,-99.55"/>
</a>
</g>
</g>
<!-- Node18&#45;&gt;Node3 -->
<g id="edge19_Node000018_Node000003" class="edge">
<title>Node18&#45;&gt;Node3</title>
<g id="a_edge19_Node000018_Node000003"><a xlink:title=" ">
<path fill="none" stroke="#63b8ff" d="M949.61,-108.56C1021.79,-97.27 1136.71,-79.3 1192.5,-70.58"/>
<polygon fill="#63b8ff" stroke="#63b8ff" points="949.05,-105.1 939.72,-110.1 950.14,-112.02 949.05,-105.1"/>
</a>
</g>
</g>
<!-- Node19 -->
<g id="Node000019" class="node">
<title>Node19</title>
<g id="a_Node000019"><a xlink:href="dot_8c.html" target="_top" xlink:title=" ">
<polygon fill="white" stroke="#666666" points="1018,-74 926,-74 926,-55 1018,-55 1018,-74"/>
<text text-anchor="middle" x="972" y="-62" font-family="Helvetica,sans-Serif" font-size="10.00">src/builtin/dot.c</text>
</a>
</g>
</g>
<!-- Node18&#45;&gt;Node19 -->
<g id="edge20_Node000018_Node000019" class="edge">
<title>Node18&#45;&gt;Node19</title>
<g id="a_edge20_Node000018_Node000019"><a xlink:title=" ">
<path fill="none" stroke="#63b8ff" d="M908.4,-104.7C924.07,-95.04 944.51,-82.44 957.93,-74.17"/>
<polygon fill="#63b8ff" stroke="#63b8ff" points="906.49,-101.76 899.82,-109.98 910.17,-107.72 906.49,-101.76"/>
</a>
</g>
</g>
<!-- Node20 -->
<g id="Node000020" class="node">
<title>Node20</title>
<g id="a_Node000020"><a xlink:href="parser__aux_8h.html" target="_top" xlink:title=" ">
<polygon fill="white" stroke="#666666" points="907.5,-74 776.5,-74 776.5,-55 907.5,-55 907.5,-74"/>
<text text-anchor="middle" x="842" y="-62" font-family="Helvetica,sans-Serif" font-size="10.00">src/parser/parser_aux.h</text>
</a>
</g>
</g>
<!-- Node18&#45;&gt;Node20 -->
<g id="edge21_Node000018_Node000020" class="edge">
<title>Node18&#45;&gt;Node20</title>
<g id="a_edge21_Node000018_Node000020"><a xlink:title=" ">
<path fill="none" stroke="#63b8ff" d="M872.27,-101.96C864.6,-92.72 855.37,-81.6 849.13,-74.09"/>
<polygon fill="#63b8ff" stroke="#63b8ff" points="869.65,-104.29 878.73,-109.75 875.04,-99.82 869.65,-104.29"/>
</a>
</g>
</g>
<!-- Node20&#45;&gt;Node9 -->
<g id="edge22_Node000020_Node000009" class="edge">
<title>Node20&#45;&gt;Node9</title>
<g id="a_edge22_Node000020_Node000009"><a xlink:title=" ">
<path fill="none" stroke="#63b8ff" d="M780.28,-53.31C720,-43.36 629.31,-28.38 572.71,-19.04"/>
<polygon fill="#63b8ff" stroke="#63b8ff" points="779.99,-56.81 790.43,-54.98 781.13,-49.9 779.99,-56.81"/>
</a>
</g>
</g>
<!-- Node20&#45;&gt;Node10 -->
<g id="edge23_Node000020_Node000010" class="edge">
<title>Node20&#45;&gt;Node10</title>
<g id="a_edge23_Node000020_Node000010"><a xlink:title=" ">
<path fill="none" stroke="#63b8ff" d="M805.54,-51.93C774.34,-42.03 730.16,-28.01 702.04,-19.08"/>
<polygon fill="#63b8ff" stroke="#63b8ff" points="804.58,-55.3 815.17,-54.98 806.7,-48.62 804.58,-55.3"/>
</a>
</g>
</g>
<!-- Node20&#45;&gt;Node11 -->
<g id="edge24_Node000020_Node000011" class="edge">
<title>Node20&#45;&gt;Node11</title>
<g id="a_edge24_Node000020_Node000011"><a xlink:title=" ">
<path fill="none" stroke="#63b8ff" d="M842,-44.66C842,-35.93 842,-25.99 842,-19.09"/>
<polygon fill="#63b8ff" stroke="#63b8ff" points="838.5,-44.75 842,-54.75 845.5,-44.75 838.5,-44.75"/>
</a>
</g>
</g>
<!-- Node20&#45;&gt;Node12 -->
<g id="edge25_Node000020_Node000012" class="edge">
<title>Node20&#45;&gt;Node12</title>
<g id="a_edge25_Node000020_Node000012"><a xlink:title=" ">
<path fill="none" stroke="#63b8ff" d="M877.77,-51.8C908,-41.91 950.61,-27.97 977.77,-19.08"/>
<polygon fill="#63b8ff" stroke="#63b8ff" points="876.44,-48.55 868.03,-54.98 878.62,-55.2 876.44,-48.55"/>
</a>
</g>
</g>
<!-- Node20&#45;&gt;Node13 -->
<g id="edge27_Node000020_Node000013" class="edge">
<title>Node20&#45;&gt;Node13</title>
<g id="a_edge27_Node000020_Node000013"><a xlink:title=" ">
<path fill="none" stroke="#63b8ff" d="M904.3,-53.37C965.51,-43.42 1057.88,-28.4 1115.48,-19.04"/>
<polygon fill="#63b8ff" stroke="#63b8ff" points="903.69,-49.93 894.38,-54.98 904.81,-56.83 903.69,-49.93"/>
</a>
</g>
</g>
<!-- Node21 -->
<g id="Node000021" class="node">
<title>Node21</title>
<g id="a_Node000021"><a xlink:href="parser__redirections_8c.html" target="_top" xlink:title=" ">
<polygon fill="white" stroke="#666666" points="1759,-19 1589,-19 1589,0 1759,0 1759,-19"/>
<text text-anchor="middle" x="1674" y="-7" font-family="Helvetica,sans-Serif" font-size="10.00">src/parser/parser_redirections.c</text>
</a>
</g>
</g>
<!-- Node20&#45;&gt;Node21 -->
<g id="edge26_Node000020_Node000021" class="edge">
<title>Node20&#45;&gt;Node21</title>
<g id="a_edge26_Node000020_Node000021"><a xlink:title=" ">
<path fill="none" stroke="#63b8ff" d="M917.88,-54.99C1062.73,-43.03 1423.53,-23.6 1588.95,-14.92"/>
<polygon fill="#63b8ff" stroke="#63b8ff" points="917.5,-51.51 907.83,-55.84 918.09,-58.48 917.5,-51.51"/>
</a>
</g>
</g>
<!-- Node22 -->
<g id="Node000022" class="node">
<title>Node22</title>
<g id="a_Node000022"><a xlink:href="parser__utils_8c.html" target="_top" xlink:title=" ">
<polygon fill="white" stroke="#666666" points="1387.5,-19 1254.5,-19 1254.5,0 1387.5,0 1387.5,-19"/>
<text text-anchor="middle" x="1321" y="-7" font-family="Helvetica,sans-Serif" font-size="10.00">src/parser/parser_utils.c</text>
</a>
</g>
</g>
<!-- Node20&#45;&gt;Node22 -->
<g id="edge28_Node000020_Node000022" class="edge">
<title>Node20&#45;&gt;Node22</title>
<g id="a_edge28_Node000020_Node000022"><a xlink:title=" ">
<path fill="none" stroke="#63b8ff" d="M918.11,-54.88C1064.44,-38.57 1102.51,-34.79 1245,-19 1248.04,-18.66 1251.14,-18.32 1254.27,-17.97"/>
<polygon fill="#63b8ff" stroke="#63b8ff" points="917.4,-51.44 907.85,-56.02 918.17,-58.39 917.4,-51.44"/>
</a>
</g>
</g>
<!-- Node23&#45;&gt;Node3 -->
<g id="edge30_Node000023_Node000003" class="edge">
<title>Node23&#45;&gt;Node3</title>
<g id="a_edge30_Node000023_Node000003"><a xlink:title=" ">
<path fill="none" stroke="#63b8ff" d="M1308.3,-105.63C1288.03,-95.87 1260.73,-82.71 1242.99,-74.17"/>
<polygon fill="#63b8ff" stroke="#63b8ff" points="1306.8,-108.8 1317.33,-109.98 1309.84,-102.49 1306.8,-108.8"/>
</a>
</g>
</g>
<!-- Node24 -->
<g id="Node000024" class="node">
<title>Node24</title>
<g id="a_Node000024"><a xlink:href="prettyprint_8c.html" target="_top" xlink:title=" ">
<polygon fill="white" stroke="#666666" points="1394,-74 1276,-74 1276,-55 1394,-55 1394,-74"/>
<text text-anchor="middle" x="1335" y="-62" font-family="Helvetica,sans-Serif" font-size="10.00">src/utils/prettyprint.c</text>
</a>
</g>
</g>
<!-- Node23&#45;&gt;Node24 -->
<g id="edge31_Node000023_Node000024" class="edge">
<title>Node23&#45;&gt;Node24</title>
<g id="a_edge31_Node000023_Node000024"><a xlink:title=" ">
<path fill="none" stroke="#63b8ff" d="M1335,-99.66C1335,-90.93 1335,-80.99 1335,-74.09"/>
<polygon fill="#63b8ff" stroke="#63b8ff" points="1331.5,-99.75 1335,-109.75 1338.5,-99.75 1331.5,-99.75"/>
</a>
</g>
</g>
<!-- Node25&#45;&gt;Node19 -->
<g id="edge33_Node000025_Node000019" class="edge">
<title>Node25&#45;&gt;Node19</title>
<g id="a_edge33_Node000025_Node000019"><a xlink:title=" ">
<path fill="none" stroke="#63b8ff" d="M788.73,-210.02C795.06,-180.37 808.63,-124.08 823,-110 837.89,-95.4 889.08,-82.22 927.33,-74.05"/>
<polygon fill="#63b8ff" stroke="#63b8ff" points="785.28,-209.43 786.67,-219.93 792.13,-210.86 785.28,-209.43"/>
</a>
</g>
</g>
<!-- Node25&#45;&gt;Node20 -->
<g id="edge40_Node000025_Node000020" class="edge">
<title>Node25&#45;&gt;Node20</title>
<g id="a_edge40_Node000025_Node000020"><a xlink:title=" ">
<path fill="none" stroke="#63b8ff" d="M781.41,-209.89C777.67,-185.58 774.3,-142.29 790,-110 797.69,-94.18 813.87,-81.78 826.15,-74.13"/>
<polygon fill="#63b8ff" stroke="#63b8ff" points="777.99,-210.64 783.15,-219.9 784.89,-209.45 777.99,-210.64"/>
</a>
</g>
</g>
<!-- Node25&#45;&gt;Node26 -->
<g id="edge34_Node000025_Node000026" class="edge">
<title>Node25&#45;&gt;Node26</title>
<g id="a_edge34_Node000025_Node000026"><a xlink:title=" ">
<path fill="none" stroke="#63b8ff" d="M734.2,-217.94C686.4,-208.01 615.71,-193.31 571.29,-184.08"/>
<polygon fill="#63b8ff" stroke="#63b8ff" points="733.53,-221.38 744.03,-219.98 734.95,-214.52 733.53,-221.38"/>
</a>
</g>
</g>
<!-- Node27 -->
<g id="Node000027" class="node">
<title>Node27</title>
<g id="a_Node000027"><a xlink:href="lexer_8c.html" target="_top" xlink:title=" ">
<polygon fill="white" stroke="#666666" points="700,-129 608,-129 608,-110 700,-110 700,-129"/>
<text text-anchor="middle" x="654" y="-117" font-family="Helvetica,sans-Serif" font-size="10.00">src/lexer/lexer.c</text>
</a>
</g>
</g>
<!-- Node26&#45;&gt;Node27 -->
<g id="edge35_Node000026_Node000027" class="edge">
<title>Node26&#45;&gt;Node27</title>
<g id="a_edge35_Node000026_Node000027"><a xlink:title=" ">
<path fill="none" stroke="#63b8ff" d="M559.18,-161.03C582.11,-151.23 613.45,-137.83 633.71,-129.17"/>
<polygon fill="#63b8ff" stroke="#63b8ff" points="557.74,-157.84 549.92,-164.98 560.49,-164.27 557.74,-157.84"/>
</a>
</g>
</g>
<!-- Node28 -->
<g id="Node000028" class="node">
<title>Node28</title>
<g id="a_Node000028"><a xlink:href="lexer__handlers_8c.html" target="_top" xlink:title=" ">
<polygon fill="white" stroke="#666666" points="140,-129 0,-129 0,-110 140,-110 140,-129"/>
<text text-anchor="middle" x="70" y="-117" font-family="Helvetica,sans-Serif" font-size="10.00">src/lexer/lexer_handlers.c</text>
</a>
</g>
</g>
<!-- Node26&#45;&gt;Node28 -->
<g id="edge36_Node000026_Node000028" class="edge">
<title>Node26&#45;&gt;Node28</title>
<g id="a_edge36_Node000026_Node000028"><a xlink:title=" ">
<path fill="none" stroke="#63b8ff" d="M461.3,-165.58C374.83,-155.62 227.11,-138.6 140.02,-128.57"/>
<polygon fill="#63b8ff" stroke="#63b8ff" points="460.94,-169.07 471.27,-166.73 461.74,-162.11 460.94,-169.07"/>
</a>
</g>
</g>
<!-- Node29 -->
<g id="Node000029" class="node">
<title>Node29</title>
<g id="a_Node000029"><a xlink:href="lexer__operators_8c.html" target="_top" xlink:title=" ">
<polygon fill="white" stroke="#666666" points="303.5,-129 158.5,-129 158.5,-110 303.5,-110 303.5,-129"/>
<text text-anchor="middle" x="231" y="-117" font-family="Helvetica,sans-Serif" font-size="10.00">src/lexer/lexer_operators.c</text>
</a>
</g>
</g>
<!-- Node26&#45;&gt;Node29 -->
<g id="edge37_Node000026_Node000029" class="edge">
<title>Node26&#45;&gt;Node29</title>
<g id="a_edge37_Node000026_Node000029"><a xlink:title=" ">
<path fill="none" stroke="#63b8ff" d="M471.83,-163.19C415.77,-153.25 331.94,-138.39 279.42,-129.08"/>
<polygon fill="#63b8ff" stroke="#63b8ff" points="471.5,-166.69 481.96,-164.98 472.72,-159.79 471.5,-166.69"/>
</a>
</g>
</g>
<!-- Node30 -->
<g id="Node000030" class="node">
<title>Node30</title>
<g id="a_Node000030"><a xlink:href="lexer__tokens_8c.html" target="_top" xlink:title=" ">
<polygon fill="white" stroke="#666666" points="452.5,-129 321.5,-129 321.5,-110 452.5,-110 452.5,-129"/>
<text text-anchor="middle" x="387" y="-117" font-family="Helvetica,sans-Serif" font-size="10.00">src/lexer/lexer_tokens.c</text>
</a>
</g>
</g>
<!-- Node26&#45;&gt;Node30 -->
<g id="edge38_Node000026_Node000030" class="edge">
<title>Node26&#45;&gt;Node30</title>
<g id="a_edge38_Node000026_Node000030"><a xlink:title=" ">
<path fill="none" stroke="#63b8ff" d="M497.41,-161.42C470.88,-151.59 434.07,-137.95 410.39,-129.17"/>
<polygon fill="#63b8ff" stroke="#63b8ff" points="496.43,-164.79 507.02,-164.98 498.86,-158.23 496.43,-164.79"/>
</a>
</g>
</g>
<!-- Node31 -->
<g id="Node000031" class="node">
<title>Node31</title>
<g id="a_Node000031"><a xlink:href="lexer__utils_8c.html" target="_top" xlink:title=" ">
<polygon fill="white" stroke="#666666" points="589.5,-129 470.5,-129 470.5,-110 589.5,-110 589.5,-129"/>
<text text-anchor="middle" x="530" y="-117" font-family="Helvetica,sans-Serif" font-size="10.00">src/lexer/lexer_utils.c</text>
</a>
</g>
</g>
<!-- Node26&#45;&gt;Node31 -->
<g id="edge39_Node000026_Node000031" class="edge">
<title>Node26&#45;&gt;Node31</title>
<g id="a_edge39_Node000026_Node000031"><a xlink:title=" ">
<path fill="none" stroke="#63b8ff" d="M530,-154.66C530,-145.93 530,-135.99 530,-129.09"/>
<polygon fill="#63b8ff" stroke="#63b8ff" points="526.5,-154.75 530,-164.75 533.5,-154.75 526.5,-154.75"/>
</a>
</g>
</g>
<!-- Node32&#45;&gt;Node2 -->
<g id="edge43_Node000032_Node000002" class="edge">
<title>Node32&#45;&gt;Node2</title>
<g id="a_edge43_Node000032_Node000002"><a xlink:title=" ">
<path fill="none" stroke="#63b8ff" d="M1477.39,-219.76C1410.22,-209 1297.94,-191.02 1239.3,-181.63"/>
<polygon fill="#63b8ff" stroke="#63b8ff" points="1476.93,-223.23 1487.36,-221.35 1478.04,-216.32 1476.93,-223.23"/>
</a>
</g>
</g>
<!-- Node32&#45;&gt;Node15 -->
<g id="edge44_Node000032_Node000015" class="edge">
<title>Node32&#45;&gt;Node15</title>
<g id="a_edge44_Node000032_Node000015"><a xlink:title=" ">
<path fill="none" stroke="#63b8ff" d="M1530.31,-209.7C1527.88,-186.09 1522.61,-144.5 1513,-110 1509.42,-97.16 1503.29,-82.98 1499.19,-74.16"/>
<polygon fill="#63b8ff" stroke="#63b8ff" points="1526.83,-210.12 1531.28,-219.73 1533.8,-209.44 1526.83,-210.12"/>
</a>
</g>
</g>
<!-- Node32&#45;&gt;Node21 -->
<g id="edge49_Node000032_Node000021" class="edge">
<title>Node32&#45;&gt;Node21</title>
<g id="a_edge49_Node000032_Node000021"><a xlink:title=" ">
<path fill="none" stroke="#63b8ff" d="M1560.34,-215.49C1594.02,-198.99 1650.48,-167.95 1689,-129 1714.45,-103.26 1737.65,-88.1 1723,-55 1716.12,-39.45 1700.81,-27.01 1689.13,-19.27"/>
<polygon fill="#63b8ff" stroke="#63b8ff" points="1558.57,-212.46 1551.07,-219.94 1561.6,-218.77 1558.57,-212.46"/>
</a>
</g>
</g>
<!-- Node33 -->
<g id="Node000033" class="node">
<title>Node33</title>
<g id="a_Node000033"><a xlink:href="redir__exec_8h.html" target="_top" xlink:title=" ">
<polygon fill="white" stroke="#666666" points="1679.5,-129 1560.5,-129 1560.5,-110 1679.5,-110 1679.5,-129"/>
<text text-anchor="middle" x="1620" y="-117" font-family="Helvetica,sans-Serif" font-size="10.00">src/exec/redir_exec.h</text>
</a>
</g>
</g>
<!-- Node32&#45;&gt;Node33 -->
<g id="edge45_Node000032_Node000033" class="edge">
<title>Node32&#45;&gt;Node33</title>
<g id="a_edge45_Node000032_Node000033"><a xlink:title=" ">
<path fill="none" stroke="#63b8ff" d="M1545.7,-211.69C1564.7,-188.37 1598.37,-147.05 1612.95,-129.16"/>
<polygon fill="#63b8ff" stroke="#63b8ff" points="1542.8,-209.7 1539.2,-219.66 1548.23,-214.12 1542.8,-209.7"/>
</a>
</g>
</g>
<!-- Node35 -->
<g id="Node000035" class="node">
<title>Node35</title>
<g id="a_Node000035"><a xlink:href="redir_8c.html" target="_top" xlink:title=" ">
<polygon fill="white" stroke="#666666" points="1858,-184 1770,-184 1770,-165 1858,-165 1858,-184"/>
<text text-anchor="middle" x="1814" y="-172" font-family="Helvetica,sans-Serif" font-size="10.00">src/utils/redir.c</text>
</a>
</g>
</g>
<!-- Node32&#45;&gt;Node35 -->
<g id="edge50_Node000032_Node000035" class="edge">
<title>Node32&#45;&gt;Node35</title>
<g id="a_edge50_Node000032_Node000035"><a xlink:title=" ">
<path fill="none" stroke="#63b8ff" d="M1586.67,-218.23C1640.13,-208.18 1720.52,-193.07 1769.99,-183.77"/>
<polygon fill="#63b8ff" stroke="#63b8ff" points="1585.87,-214.82 1576.68,-220.1 1587.16,-221.69 1585.87,-214.82"/>
</a>
</g>
</g>
<!-- Node33&#45;&gt;Node8 -->
<g id="edge46_Node000033_Node000008" class="edge">
<title>Node33&#45;&gt;Node8</title>
<g id="a_edge46_Node000033_Node000008"><a xlink:title=" ">
<path fill="none" stroke="#63b8ff" d="M1604.79,-102.47C1591.11,-88.68 1569.99,-68.87 1549,-55 1525.9,-39.74 1496.74,-26.91 1476.86,-19.01"/>
<polygon fill="#63b8ff" stroke="#63b8ff" points="1602.44,-105.08 1611.93,-109.81 1607.46,-100.2 1602.44,-105.08"/>
</a>
</g>
</g>
<!-- Node33&#45;&gt;Node15 -->
<g id="edge47_Node000033_Node000015" class="edge">
<title>Node33&#45;&gt;Node15</title>
<g id="a_edge47_Node000033_Node000015"><a xlink:title=" ">
<path fill="none" stroke="#63b8ff" d="M1590.59,-106.03C1567.47,-96.23 1535.87,-82.83 1515.45,-74.17"/>
<polygon fill="#63b8ff" stroke="#63b8ff" points="1589.34,-109.3 1599.92,-109.98 1592.08,-102.86 1589.34,-109.3"/>
</a>
</g>
</g>
<!-- Node34 -->
<g id="Node000034" class="node">
<title>Node34</title>
<g id="a_Node000034"><a xlink:href="redir__exec_8c.html" target="_top" xlink:title=" ">
<polygon fill="white" stroke="#666666" points="1714,-74 1596,-74 1596,-55 1714,-55 1714,-74"/>
<text text-anchor="middle" x="1655" y="-62" font-family="Helvetica,sans-Serif" font-size="10.00">src/exec/redir_exec.c</text>
</a>
</g>
</g>
<!-- Node33&#45;&gt;Node34 -->
<g id="edge48_Node000033_Node000034" class="edge">
<title>Node33&#45;&gt;Node34</title>
<g id="a_edge48_Node000033_Node000034"><a xlink:title=" ">
<path fill="none" stroke="#63b8ff" d="M1631.3,-101.39C1637.32,-92.27 1644.47,-81.45 1649.33,-74.09"/>
<polygon fill="#63b8ff" stroke="#63b8ff" points="1628.37,-99.47 1625.78,-109.75 1634.21,-103.33 1628.37,-99.47"/>
</a>
</g>
</g>
</g>
</svg>
