<?xml version="1.0" encoding="UTF-8" standalone="no"?>
<!DOCTYPE svg PUBLIC "-//W3C//DTD SVG 1.1//EN"
 "http://www.w3.org/Graphics/SVG/1.1/DTD/svg11.dtd">
<!-- Generated by graphviz version 2.43.0 (0)
 -->
<!-- Title: free_lex Pages: 1 -->
<svg width="1093pt" height="398pt"
 viewBox="0.00 0.00 1093.00 398.00" xmlns="http://www.w3.org/2000/svg" xmlns:xlink="http://www.w3.org/1999/xlink">
<g id="graph0" class="graph" transform="scale(1 1) rotate(0) translate(4 394)">
<title>free_lex</title>
<!-- Node1 -->
<g id="Node000001" class="node">
<title>Node1</title>
<g id="a_Node000001"><a xlink:title=" ">
<polygon fill="#999999" stroke="#666666" points="1085,-223 1029,-223 1029,-204 1085,-204 1085,-223"/>
<text text-anchor="middle" x="1057" y="-211" font-family="Helvetica,sans-Serif" font-size="10.00">free_lex</text>
</a>
</g>
</g>
<!-- Node2 -->
<g id="Node000002" class="node">
<title>Node2</title>
<g id="a_Node000002"><a xlink:href="parser_8c.html#a620dffcc9a167cdee6e67de1191e5277" target="_top" xlink:title="Parse the input of our shell into list.">
<polygon fill="white" stroke="#666666" points="993,-223 946,-223 946,-204 993,-204 993,-223"/>
<text text-anchor="middle" x="969.5" y="-211" font-family="Helvetica,sans-Serif" font-size="10.00">parser</text>
</a>
</g>
</g>
<!-- Node1&#45;&gt;Node2 -->
<g id="edge1_Node000001_Node000002" class="edge">
<title>Node1&#45;&gt;Node2</title>
<g id="a_edge1_Node000001_Node000002"><a xlink:title=" ">
<path fill="none" stroke="#63b8ff" d="M1018.88,-213.5C1010.09,-213.5 1000.99,-213.5 993.08,-213.5"/>
<polygon fill="#63b8ff" stroke="#63b8ff" points="1018.95,-217 1028.95,-213.5 1018.95,-210 1018.95,-217"/>
</a>
</g>
</g>
<!-- Node3 -->
<g id="Node000003" class="node">
<title>Node3</title>
<g id="a_Node000003"><a xlink:href="42sh_8c.html#a3c04138a5bfe5d72780bb7e82a18e627" target="_top" xlink:title=" ">
<polygon fill="white" stroke="#666666" points="190,-390 149,-390 149,-371 190,-371 190,-390"/>
<text text-anchor="middle" x="169.5" y="-378" font-family="Helvetica,sans-Serif" font-size="10.00">main</text>
</a>
</g>
</g>
<!-- Node2&#45;&gt;Node3 -->
<g id="edge2_Node000002_Node000003" class="edge">
<title>Node2&#45;&gt;Node3</title>
<g id="a_edge2_Node000002_Node000003"><a xlink:title=" ">
<path fill="none" stroke="#63b8ff" d="M950.44,-229.96C919.19,-256.67 851.92,-306.5 785,-306.5 785,-306.5 785,-306.5 387.5,-306.5 310.69,-306.5 296.73,-337.81 224,-362.5 212.86,-366.28 200.41,-370.47 190.33,-373.86"/>
<polygon fill="#63b8ff" stroke="#63b8ff" points="953.06,-232.33 958.27,-223.1 948.44,-227.06 953.06,-232.33"/>
</a>
</g>
</g>
<!-- Node4 -->
<g id="Node000004" class="node">
<title>Node4</title>
<g id="a_Node000004"><a xlink:href="dot_8c.html#a17477ee2b0f1b8b9306566c990d15b35" target="_top" xlink:title="Main loop of dot builtin.">
<polygon fill="white" stroke="#666666" points="910,-204 842,-204 842,-185 910,-185 910,-204"/>
<text text-anchor="middle" x="876" y="-192" font-family="Helvetica,sans-Serif" font-size="10.00">main_loop</text>
</a>
</g>
</g>
<!-- Node2&#45;&gt;Node4 -->
<g id="edge3_Node000002_Node000004" class="edge">
<title>Node2&#45;&gt;Node4</title>
<g id="a_edge3_Node000002_Node000004"><a xlink:title=" ">
<path fill="none" stroke="#63b8ff" d="M936.02,-206.76C927.6,-205.01 918.52,-203.12 910.07,-201.37"/>
<polygon fill="#63b8ff" stroke="#63b8ff" points="935.38,-210.2 945.88,-208.8 936.8,-203.34 935.38,-210.2"/>
</a>
</g>
</g>
<!-- Node5 -->
<g id="Node000005" class="node">
<title>Node5</title>
<g id="a_Node000005"><a xlink:href="dot_8c.html#a713938d3c6ee343132c429642048bcf6" target="_top" xlink:title="Execute the dot builtin cmd.">
<polygon fill="white" stroke="#666666" points="806,-166 762,-166 762,-147 806,-147 806,-166"/>
<text text-anchor="middle" x="784" y="-154" font-family="Helvetica,sans-Serif" font-size="10.00">dot_b</text>
</a>
</g>
</g>
<!-- Node4&#45;&gt;Node5 -->
<g id="edge4_Node000004_Node000005" class="edge">
<title>Node4&#45;&gt;Node5</title>
<g id="a_edge4_Node000004_Node000005"><a xlink:title=" ">
<path fill="none" stroke="#63b8ff" d="M842.88,-180.94C830.68,-175.79 817.1,-170.05 806.16,-165.43"/>
<polygon fill="#63b8ff" stroke="#63b8ff" points="841.72,-184.25 852.29,-184.91 844.44,-177.8 841.72,-184.25"/>
</a>
</g>
</g>
<!-- Node6 -->
<g id="Node000006" class="node">
<title>Node6</title>
<g id="a_Node000006"><a xlink:href="exec_8c.html#abaeb177587c7eec6a064b35bb8399cae" target="_top" xlink:title="Execute builtin cmd with given args.">
<polygon fill="white" stroke="#666666" points="726,-166 651,-166 651,-147 726,-147 726,-166"/>
<text text-anchor="middle" x="688.5" y="-154" font-family="Helvetica,sans-Serif" font-size="10.00">exec_builtin</text>
</a>
</g>
</g>
<!-- Node5&#45;&gt;Node6 -->
<g id="edge5_Node000005_Node000006" class="edge">
<title>Node5&#45;&gt;Node6</title>
<g id="a_edge5_Node000005_Node000006"><a xlink:title=" ">
<path fill="none" stroke="#63b8ff" d="M751.53,-156.5C743.35,-156.5 734.47,-156.5 726.05,-156.5"/>
<polygon fill="#63b8ff" stroke="#63b8ff" points="751.78,-160 761.78,-156.5 751.78,-153 751.78,-160"/>
</a>
</g>
</g>
<!-- Node7 -->
<g id="Node000007" class="node">
<title>Node7</title>
<g id="a_Node000007"><a xlink:href="exec_8c.html#a287d81b4658832f192750310e2925917" target="_top" xlink:title="Execute the builtin command with given args.">
<polygon fill="white" stroke="#666666" points="615,-166 565,-166 565,-147 615,-147 615,-166"/>
<text text-anchor="middle" x="590" y="-154" font-family="Helvetica,sans-Serif" font-size="10.00">exec_b</text>
</a>
</g>
</g>
<!-- Node6&#45;&gt;Node7 -->
<g id="edge6_Node000006_Node000007" class="edge">
<title>Node6&#45;&gt;Node7</title>
<g id="a_edge6_Node000006_Node000007"><a xlink:title=" ">
<path fill="none" stroke="#63b8ff" d="M640.51,-156.5C631.71,-156.5 622.86,-156.5 615.12,-156.5"/>
<polygon fill="#63b8ff" stroke="#63b8ff" points="640.74,-160 650.74,-156.5 640.74,-153 640.74,-160"/>
</a>
</g>
</g>
<!-- Node8 -->
<g id="Node000008" class="node">
<title>Node8</title>
<g id="a_Node000008"><a xlink:href="exec_8c.html#ae65edaa99b26b49d60c451157d38b34a" target="_top" xlink:title="Execute les commandes avec les args donnes.">
<polygon fill="white" stroke="#666666" points="529,-166 464,-166 464,-147 529,-147 529,-166"/>
<text text-anchor="middle" x="496.5" y="-154" font-family="Helvetica,sans-Serif" font-size="10.00">exec_cmd</text>
</a>
</g>
</g>
<!-- Node7&#45;&gt;Node8 -->
<g id="edge7_Node000007_Node000008" class="edge">
<title>Node7&#45;&gt;Node8</title>
<g id="a_edge7_Node000007_Node000008"><a xlink:title=" ">
<path fill="none" stroke="#63b8ff" d="M554.77,-156.5C546.42,-156.5 537.53,-156.5 529.3,-156.5"/>
<polygon fill="#63b8ff" stroke="#63b8ff" points="554.96,-160 564.96,-156.5 554.96,-153 554.96,-160"/>
</a>
</g>
</g>
<!-- Node9 -->
<g id="Node000009" class="node">
<title>Node9</title>
<g id="a_Node000009"><a xlink:href="ast__run_8c.html#aeb6878a59c6907e5669fc3cc428913d9" target="_top" xlink:title=" ">
<polygon fill="white" stroke="#666666" points="428,-166 349,-166 349,-147 428,-147 428,-166"/>
<text text-anchor="middle" x="388.5" y="-154" font-family="Helvetica,sans-Serif" font-size="10.00">ast_run_cmd</text>
</a>
</g>
</g>
<!-- Node8&#45;&gt;Node9 -->
<g id="edge8_Node000008_Node000009" class="edge">
<title>Node8&#45;&gt;Node9</title>
<g id="a_edge8_Node000008_Node000009"><a xlink:title=" ">
<path fill="none" stroke="#63b8ff" d="M453.92,-156.5C445.45,-156.5 436.58,-156.5 428.21,-156.5"/>
<polygon fill="#63b8ff" stroke="#63b8ff" points="453.98,-160 463.98,-156.5 453.98,-153 453.98,-160"/>
</a>
</g>
</g>
<!-- Node10 -->
<g id="Node000010" class="node">
<title>Node10</title>
<g id="a_Node000010"><a xlink:href="ast_8c.html#a572345b2707780bbbc5bbaacdca9c372" target="_top" xlink:title=" ">
<polygon fill="white" stroke="#666666" points="313,-185 260,-185 260,-166 313,-166 313,-185"/>
<text text-anchor="middle" x="286.5" y="-173" font-family="Helvetica,sans-Serif" font-size="10.00">run_ast</text>
</a>
</g>
</g>
<!-- Node9&#45;&gt;Node10 -->
<g id="edge9_Node000009_Node000010" class="edge">
<title>Node9&#45;&gt;Node10</title>
<g id="a_edge9_Node000009_Node000010"><a xlink:title=" ">
<path fill="none" stroke="#63b8ff" d="M338.86,-165.74C329.95,-167.43 320.99,-169.14 313.1,-170.64"/>
<polygon fill="#63b8ff" stroke="#63b8ff" points="339.67,-169.15 348.84,-163.85 338.36,-162.27 339.67,-169.15"/>
</a>
</g>
</g>
<!-- Node10&#45;&gt;Node3 -->
<g id="edge29_Node000010_Node000003" class="edge">
<title>Node10&#45;&gt;Node3</title>
<g id="a_edge29_Node000010_Node000003"><a xlink:title=" ">
<path fill="none" stroke="#63b8ff" d="M281.36,-195.19C271.98,-238.13 248.04,-338.3 224,-362.5 215.02,-371.54 201.37,-376.04 190.1,-378.28"/>
<polygon fill="#63b8ff" stroke="#63b8ff" points="284.8,-195.88 283.47,-185.37 277.95,-194.41 284.8,-195.88"/>
</a>
</g>
</g>
<!-- Node10&#45;&gt;Node4 -->
<g id="edge30_Node000010_Node000004" class="edge">
<title>Node10&#45;&gt;Node4</title>
<g id="a_edge30_Node000010_Node000004"><a xlink:title=" ">
<path fill="none" stroke="#63b8ff" d="M323.17,-180.75C364.52,-186.37 434.79,-194.5 495.5,-194.5 689.5,-194.5 689.5,-194.5 689.5,-194.5 742.8,-194.5 804.71,-194.5 841.83,-194.5"/>
<polygon fill="#63b8ff" stroke="#63b8ff" points="323.43,-177.25 313.05,-179.34 322.47,-184.19 323.43,-177.25"/>
</a>
</g>
</g>
<!-- Node11 -->
<g id="Node000011" class="node">
<title>Node11</title>
<g id="a_Node000011"><a xlink:href="ast__run_8c.html#a8a01fec616135007fc5b3968a101901b" target="_top" xlink:title=" ">
<polygon fill="white" stroke="#666666" points="215,-222 124,-222 124,-203 215,-203 215,-222"/>
<text text-anchor="middle" x="169.5" y="-210" font-family="Helvetica,sans-Serif" font-size="10.00">ast_run_and_or</text>
</a>
</g>
</g>
<!-- Node10&#45;&gt;Node11 -->
<g id="edge10_Node000010_Node000011" class="edge">
<title>Node10&#45;&gt;Node11</title>
<g id="a_edge10_Node000010_Node000011"><a xlink:title=" ">
<path fill="none" stroke="#63b8ff" d="M250.09,-180.61C228.37,-186.64 201.69,-195.75 185.4,-202.99"/>
<polygon fill="#63b8ff" stroke="#63b8ff" points="251.21,-183.93 259.98,-177.99 249.42,-177.16 251.21,-183.93"/>
</a>
</g>
</g>
<!-- Node12 -->
<g id="Node000012" class="node">
<title>Node12</title>
<g id="a_Node000012"><a xlink:href="ast__run_8c.html#a9d83d4834a61ffe21eb77838d70ae173" target="_top" xlink:title=" ">
<polygon fill="white" stroke="#666666" points="205,-185 134,-185 134,-166 205,-166 205,-185"/>
<text text-anchor="middle" x="169.5" y="-173" font-family="Helvetica,sans-Serif" font-size="10.00">ast_run_for</text>
</a>
</g>
</g>
<!-- Node10&#45;&gt;Node12 -->
<g id="edge12_Node000010_Node000012" class="edge">
<title>Node10&#45;&gt;Node12</title>
<g id="a_edge12_Node000010_Node000012"><a xlink:title=" ">
<path fill="none" stroke="#63b8ff" d="M249.6,-169.19C235.41,-168.58 219.17,-168.6 205.11,-169.25"/>
<polygon fill="#63b8ff" stroke="#63b8ff" points="249.8,-172.71 259.98,-169.78 250.19,-165.72 249.8,-172.71"/>
</a>
</g>
</g>
<!-- Node13 -->
<g id="Node000013" class="node">
<title>Node13</title>
<g id="a_Node000013"><a xlink:href="ast__run_8c.html#a0a7138b1f2608ea36211c9b78988c248" target="_top" xlink:title=" ">
<polygon fill="white" stroke="#666666" points="202,-148 137,-148 137,-129 202,-129 202,-148"/>
<text text-anchor="middle" x="169.5" y="-136" font-family="Helvetica,sans-Serif" font-size="10.00">ast_run_if</text>
</a>
</g>
</g>
<!-- Node10&#45;&gt;Node13 -->
<g id="edge14_Node000010_Node000013" class="edge">
<title>Node10&#45;&gt;Node13</title>
<g id="a_edge14_Node000010_Node000013"><a xlink:title=" ">
<path fill="none" stroke="#63b8ff" d="M261.1,-162.01C243.88,-155.16 220.65,-147.54 202.03,-142.55"/>
<polygon fill="#63b8ff" stroke="#63b8ff" points="259.89,-165.3 270.47,-165.93 262.59,-158.84 259.89,-165.3"/>
</a>
</g>
</g>
<!-- Node14 -->
<g id="Node000014" class="node">
<title>Node14</title>
<g id="a_Node000014"><a xlink:href="ast__run_8c.html#ae25cd3ced8abafd76110dba8852a6b87" target="_top" xlink:title=" ">
<polygon fill="white" stroke="#666666" points="206,-93 133,-93 133,-74 206,-74 206,-93"/>
<text text-anchor="middle" x="169.5" y="-81" font-family="Helvetica,sans-Serif" font-size="10.00">ast_run_list</text>
</a>
</g>
</g>
<!-- Node10&#45;&gt;Node14 -->
<g id="edge16_Node000010_Node000014" class="edge">
<title>Node10&#45;&gt;Node14</title>
<g id="a_edge16_Node000010_Node000014"><a xlink:title=" ">
<path fill="none" stroke="#63b8ff" d="M274.16,-157.87C262.09,-144.14 242.26,-125.89 224,-111.5 215.84,-105.07 206.63,-98.48 198.19,-93.1"/>
<polygon fill="#63b8ff" stroke="#63b8ff" points="271.55,-160.21 280.58,-165.76 276.98,-155.79 271.55,-160.21"/>
</a>
</g>
</g>
<!-- Node15 -->
<g id="Node000015" class="node">
<title>Node15</title>
<g id="a_Node000015"><a xlink:href="ast__run_8c.html#a536f37ba9bffcd2099fef668656181e0" target="_top" xlink:title=" ">
<polygon fill="white" stroke="#666666" points="209,-56 130,-56 130,-37 209,-37 209,-56"/>
<text text-anchor="middle" x="169.5" y="-44" font-family="Helvetica,sans-Serif" font-size="10.00">ast_run_loop</text>
</a>
</g>
</g>
<!-- Node10&#45;&gt;Node15 -->
<g id="edge19_Node000010_Node000015" class="edge">
<title>Node10&#45;&gt;Node15</title>
<g id="a_edge19_Node000010_Node000015"><a xlink:title=" ">
<path fill="none" stroke="#63b8ff" d="M281.34,-156.18C273.71,-129.52 255.3,-82.92 224,-56.5 219.63,-52.81 214.5,-49.82 209.17,-47.5"/>
<polygon fill="#63b8ff" stroke="#63b8ff" points="277.98,-157.17 283.89,-165.96 284.76,-155.4 277.98,-157.17"/>
</a>
</g>
</g>
<!-- Node16 -->
<g id="Node000016" class="node">
<title>Node16</title>
<g id="a_Node000016"><a xlink:href="ast__run_8c.html#aa3e6a973e744d748ee415840596beb53" target="_top" xlink:title=" ">
<polygon fill="white" stroke="#666666" points="224,-353 115,-353 115,-334 224,-334 224,-353"/>
<text text-anchor="middle" x="169.5" y="-341" font-family="Helvetica,sans-Serif" font-size="10.00">ast_run_shell_redir</text>
</a>
</g>
</g>
<!-- Node10&#45;&gt;Node16 -->
<g id="edge21_Node000010_Node000016" class="edge">
<title>Node10&#45;&gt;Node16</title>
<g id="a_edge21_Node000010_Node000016"><a xlink:title=" ">
<path fill="none" stroke="#63b8ff" d="M281.67,-195.03C275.4,-225.38 259.84,-282.9 224,-316.5 214.13,-325.75 199.36,-330.26 187.83,-333.86"/>
<polygon fill="#63b8ff" stroke="#63b8ff" points="285.11,-195.66 283.58,-185.18 278.24,-194.33 285.11,-195.66"/>
</a>
</g>
</g>
<!-- Node17 -->
<g id="Node000017" class="node">
<title>Node17</title>
<g id="a_Node000017"><a xlink:href="exec_8c.html#a23babf893bbcd2f6126698a1a19b169f" target="_top" xlink:title="Execute funct with given arguments.">
<polygon fill="white" stroke="#666666" points="202,-19 137,-19 137,0 202,0 202,-19"/>
<text text-anchor="middle" x="169.5" y="-7" font-family="Helvetica,sans-Serif" font-size="10.00">exec_func</text>
</a>
</g>
</g>
<!-- Node10&#45;&gt;Node17 -->
<g id="edge23_Node000010_Node000017" class="edge">
<title>Node10&#45;&gt;Node17</title>
<g id="a_edge23_Node000010_Node000017"><a xlink:title=" ">
<path fill="none" stroke="#63b8ff" d="M279.57,-155.86C268.39,-119.96 243.54,-45.73 224,-27.5 217.91,-21.82 209.97,-17.92 202.07,-15.26"/>
<polygon fill="#63b8ff" stroke="#63b8ff" points="276.3,-157.14 282.59,-165.67 283,-155.08 276.3,-157.14"/>
</a>
</g>
</g>
<!-- Node18 -->
<g id="Node000018" class="node">
<title>Node18</title>
<g id="a_Node000018"><a xlink:href="exec_8c.html#ab743cb88e12e9b922050925fd2075e36" target="_top" xlink:title="Execute a pipeline of commands.">
<polygon fill="white" stroke="#666666" points="202,-298 137,-298 137,-279 202,-279 202,-298"/>
<text text-anchor="middle" x="169.5" y="-286" font-family="Helvetica,sans-Serif" font-size="10.00">exec_pipe</text>
</a>
</g>
</g>
<!-- Node10&#45;&gt;Node18 -->
<g id="edge25_Node000010_Node000018" class="edge">
<title>Node10&#45;&gt;Node18</title>
<g id="a_edge25_Node000010_Node000018"><a xlink:title=" ">
<path fill="none" stroke="#63b8ff" d="M276.46,-194.27C266.15,-214 247.61,-244.86 224,-264.5 216.8,-270.49 207.87,-275.27 199.37,-278.95"/>
<polygon fill="#63b8ff" stroke="#63b8ff" points="279.72,-195.59 281.09,-185.08 273.46,-192.44 279.72,-195.59"/>
</a>
</g>
</g>
<!-- Node11&#45;&gt;Node10 -->
<g id="edge11_Node000011_Node000010" class="edge">
<title>Node11&#45;&gt;Node10</title>
<g id="a_edge11_Node000011_Node000010"><a xlink:title=" ">
<path fill="none" stroke="#63b8ff" d="M224.85,-201.75C241.6,-196.46 258.71,-190.29 270.47,-185.07"/>
<polygon fill="#63b8ff" stroke="#63b8ff" points="223.61,-198.48 215.07,-204.76 225.66,-205.17 223.61,-198.48"/>
</a>
</g>
</g>
<!-- Node12&#45;&gt;Node10 -->
<g id="edge13_Node000012_Node000010" class="edge">
<title>Node12&#45;&gt;Node10</title>
<g id="a_edge13_Node000012_Node000010"><a xlink:title=" ">
<path fill="none" stroke="#63b8ff" d="M215.34,-182.1C230.48,-182.46 246.86,-182.17 259.98,-181.22"/>
<polygon fill="#63b8ff" stroke="#63b8ff" points="215.23,-178.6 205.11,-181.75 214.98,-185.59 215.23,-178.6"/>
</a>
</g>
</g>
<!-- Node13&#45;&gt;Node10 -->
<g id="edge15_Node000013_Node000010" class="edge">
<title>Node13&#45;&gt;Node10</title>
<g id="a_edge15_Node000013_Node000010"><a xlink:title=" ">
<path fill="none" stroke="#63b8ff" d="M194.64,-151.89C213.79,-159.52 240.48,-168.14 259.98,-173.01"/>
<polygon fill="#63b8ff" stroke="#63b8ff" points="195.97,-148.65 185.4,-148.01 193.27,-155.1 195.97,-148.65"/>
</a>
</g>
</g>
<!-- Node14&#45;&gt;Node10 -->
<g id="edge18_Node000014_Node000010" class="edge">
<title>Node14&#45;&gt;Node10</title>
<g id="a_edge18_Node000014_Node000010"><a xlink:title=" ">
<path fill="none" stroke="#63b8ff" d="M184.66,-99.95C195.64,-108.81 211.12,-119.35 224,-129.5 239.19,-141.47 255.46,-156.11 267.45,-165.95"/>
<polygon fill="#63b8ff" stroke="#63b8ff" points="186.78,-97.16 176.94,-93.24 182.19,-102.44 186.78,-97.16"/>
</a>
</g>
</g>
<!-- Node14&#45;&gt;Node14 -->
<g id="edge17_Node000014_Node000014" class="edge">
<title>Node14&#45;&gt;Node14</title>
<g id="a_edge17_Node000014_Node000014"><a xlink:title=" ">
<path fill="none" stroke="#63b8ff" d="M190.98,-102.55C189.55,-107.38 182.39,-111 169.5,-111 148.88,-111 142.92,-101.73 151.62,-93.08"/>
<polygon fill="#63b8ff" stroke="#63b8ff" points="194.2,-101.19 187.38,-93.08 187.66,-103.67 194.2,-101.19"/>
</a>
</g>
</g>
<!-- Node15&#45;&gt;Node10 -->
<g id="edge20_Node000015_Node000010" class="edge">
<title>Node15&#45;&gt;Node10</title>
<g id="a_edge20_Node000015_Node000010"><a xlink:title=" ">
<path fill="none" stroke="#63b8ff" d="M194.81,-59.47C204.7,-63.03 215.73,-67.52 224,-74.5 254.59,-100.33 272.88,-145.44 280.81,-165.78"/>
<polygon fill="#63b8ff" stroke="#63b8ff" points="195.67,-56.06 185.08,-56.03 193.34,-62.66 195.67,-56.06"/>
</a>
</g>
</g>
<!-- Node16&#45;&gt;Node10 -->
<g id="edge22_Node000016_Node000010" class="edge">
<title>Node16&#45;&gt;Node10</title>
<g id="a_edge22_Node000016_Node000010"><a xlink:title=" ">
<path fill="none" stroke="#63b8ff" d="M231.29,-327.04C270.21,-283.74 282.05,-211.68 284.8,-185.1"/>
<polygon fill="#63b8ff" stroke="#63b8ff" points="228.74,-324.65 224.26,-334.25 233.75,-329.54 228.74,-324.65"/>
</a>
</g>
</g>
<!-- Node17&#45;&gt;Node8 -->
<g id="edge24_Node000017_Node000008" class="edge">
<title>Node17&#45;&gt;Node8</title>
<g id="a_edge24_Node000017_Node000008"><a xlink:title=" ">
<path fill="none" stroke="#63b8ff" d="M210.76,-22.47C215.26,-24.09 219.75,-25.78 224,-27.5 321.74,-67 434.27,-124.48 477.4,-146.97"/>
<polygon fill="#63b8ff" stroke="#63b8ff" points="211.6,-19.05 201,-19.06 209.29,-25.66 211.6,-19.05"/>
</a>
</g>
</g>
<!-- Node18&#45;&gt;Node18 -->
<g id="edge28_Node000018_Node000018" class="edge">
<title>Node18&#45;&gt;Node18</title>
<g id="a_edge28_Node000018_Node000018"><a xlink:title=" ">
<path fill="none" stroke="#63b8ff" d="M190.98,-307.55C189.55,-312.38 182.39,-316 169.5,-316 148.88,-316 142.92,-306.73 151.62,-298.08"/>
<polygon fill="#63b8ff" stroke="#63b8ff" points="194.2,-306.19 187.38,-298.08 187.66,-308.67 194.2,-306.19"/>
</a>
</g>
</g>
<!-- Node19 -->
<g id="Node000019" class="node">
<title>Node19</title>
<g id="a_Node000019"><a xlink:href="ast__run_8c.html#a24d0223822f7b635628199085c3283be" target="_top" xlink:title=" ">
<polygon fill="white" stroke="#666666" points="79,-279 0,-279 0,-260 79,-260 79,-279"/>
<text text-anchor="middle" x="39.5" y="-267" font-family="Helvetica,sans-Serif" font-size="10.00">ast_run_pipe</text>
</a>
</g>
</g>
<!-- Node18&#45;&gt;Node19 -->
<g id="edge26_Node000018_Node000019" class="edge">
<title>Node18&#45;&gt;Node19</title>
<g id="a_edge26_Node000018_Node000019"><a xlink:title=" ">
<path fill="none" stroke="#63b8ff" d="M126.62,-282.28C111.32,-280.01 94.09,-277.45 79.08,-275.23"/>
<polygon fill="#63b8ff" stroke="#63b8ff" points="126.45,-285.8 136.86,-283.8 127.48,-278.87 126.45,-285.8"/>
</a>
</g>
</g>
<!-- Node19&#45;&gt;Node10 -->
<g id="edge27_Node000019_Node000010" class="edge">
<title>Node19&#45;&gt;Node10</title>
<g id="a_edge27_Node000019_Node000010"><a xlink:title=" ">
<path fill="none" stroke="#63b8ff" d="M89.75,-266.41C128.1,-262.37 181.74,-253.04 224,-231.5 246.64,-219.96 267.22,-197.82 277.87,-185.11"/>
<polygon fill="#63b8ff" stroke="#63b8ff" points="88.97,-262.97 79.36,-267.42 89.65,-269.94 88.97,-262.97"/>
</a>
</g>
</g>
</g>
</svg>
