<?xml version="1.0" encoding="UTF-8" standalone="no"?>
<!DOCTYPE svg PUBLIC "-//W3C//DTD SVG 1.1//EN"
 "http://www.w3.org/Graphics/SVG/1.1/DTD/svg11.dtd">
<!-- Generated by graphviz version 2.43.0 (0)
 -->
<!-- Title: src/builtin/unset.c Pages: 1 -->
<svg width="337pt" height="137pt"
 viewBox="0.00 0.00 336.50 137.00" xmlns="http://www.w3.org/2000/svg" xmlns:xlink="http://www.w3.org/1999/xlink">
<g id="graph0" class="graph" transform="scale(1 1) rotate(0) translate(4 133)">
<title>src/builtin/unset.c</title>
<!-- Node1 -->
<g id="Node000001" class="node">
<title>Node1</title>
<g id="a_Node000001"><a xlink:title=" ">
<polygon fill="#999999" stroke="#666666" points="217,-129 114,-129 114,-110 217,-110 217,-129"/>
<text text-anchor="middle" x="165.5" y="-117" font-family="Helvetica,sans-Serif" font-size="10.00">src/builtin/unset.c</text>
</a>
</g>
</g>
<!-- Node2 -->
<g id="Node000002" class="node">
<title>Node2</title>
<g id="a_Node000002"><a xlink:href="unset_8h.html" target="_top" xlink:title=" ">
<polygon fill="white" stroke="#666666" points="86,-74 33,-74 33,-55 86,-55 86,-74"/>
<text text-anchor="middle" x="59.5" y="-62" font-family="Helvetica,sans-Serif" font-size="10.00">unset.h</text>
</a>
</g>
</g>
<!-- Node1&#45;&gt;Node2 -->
<g id="edge1_Node000001_Node000002" class="edge">
<title>Node1&#45;&gt;Node2</title>
<g id="a_edge1_Node000001_Node000002"><a xlink:title=" ">
<path fill="none" stroke="#63b8ff" d="M148.47,-109.98C131.57,-101.54 105.44,-88.47 85.86,-78.68"/>
<polygon fill="#63b8ff" stroke="#63b8ff" points="87.35,-75.51 76.84,-74.17 84.22,-81.77 87.35,-75.51"/>
</a>
</g>
</g>
<!-- Node4 -->
<g id="Node000004" class="node">
<title>Node4</title>
<g id="a_Node000004"><a xlink:title=" ">
<polygon fill="#e0e0e0" stroke="#999999" points="157,-74 104,-74 104,-55 157,-55 157,-74"/>
<text text-anchor="middle" x="130.5" y="-62" font-family="Helvetica,sans-Serif" font-size="10.00">stdlib.h</text>
</a>
</g>
</g>
<!-- Node1&#45;&gt;Node4 -->
<g id="edge3_Node000001_Node000004" class="edge">
<title>Node1&#45;&gt;Node4</title>
<g id="a_edge3_Node000001_Node000004"><a xlink:title=" ">
<path fill="none" stroke="#63b8ff" d="M159.72,-109.75C154.88,-102.42 147.82,-91.73 141.86,-82.7"/>
<polygon fill="#63b8ff" stroke="#63b8ff" points="144.6,-80.5 136.17,-74.09 138.76,-84.36 144.6,-80.5"/>
</a>
</g>
</g>
<!-- Node5 -->
<g id="Node000005" class="node">
<title>Node5</title>
<g id="a_Node000005"><a xlink:title=" ">
<polygon fill="#e0e0e0" stroke="#999999" points="228,-74 175,-74 175,-55 228,-55 228,-74"/>
<text text-anchor="middle" x="201.5" y="-62" font-family="Helvetica,sans-Serif" font-size="10.00">string.h</text>
</a>
</g>
</g>
<!-- Node1&#45;&gt;Node5 -->
<g id="edge4_Node000001_Node000005" class="edge">
<title>Node1&#45;&gt;Node5</title>
<g id="a_edge4_Node000001_Node000005"><a xlink:title=" ">
<path fill="none" stroke="#63b8ff" d="M171.44,-109.75C176.48,-102.34 183.84,-91.5 190.01,-82.41"/>
<polygon fill="#63b8ff" stroke="#63b8ff" points="192.94,-84.33 195.67,-74.09 187.15,-80.39 192.94,-84.33"/>
</a>
</g>
</g>
<!-- Node6 -->
<g id="Node000006" class="node">
<title>Node6</title>
<g id="a_Node000006"><a xlink:href="hash_8h.html" target="_top" xlink:title=" ">
<polygon fill="white" stroke="#666666" points="328.5,-74 246.5,-74 246.5,-55 328.5,-55 328.5,-74"/>
<text text-anchor="middle" x="287.5" y="-62" font-family="Helvetica,sans-Serif" font-size="10.00">../utils/hash.h</text>
</a>
</g>
</g>
<!-- Node1&#45;&gt;Node6 -->
<g id="edge5_Node000001_Node000006" class="edge">
<title>Node1&#45;&gt;Node6</title>
<g id="a_edge5_Node000001_Node000006"><a xlink:title=" ">
<path fill="none" stroke="#63b8ff" d="M185.1,-109.98C204.82,-101.42 235.45,-88.11 258.08,-78.28"/>
<polygon fill="#63b8ff" stroke="#63b8ff" points="259.76,-81.37 267.54,-74.17 256.98,-74.94 259.76,-81.37"/>
</a>
</g>
</g>
<!-- Node3 -->
<g id="Node000003" class="node">
<title>Node3</title>
<g id="a_Node000003"><a xlink:href="hashmap_8h.html" target="_top" xlink:title=" ">
<polygon fill="white" stroke="#666666" points="119,-19 0,-19 0,0 119,0 119,-19"/>
<text text-anchor="middle" x="59.5" y="-7" font-family="Helvetica,sans-Serif" font-size="10.00">../expand/hashmap.h</text>
</a>
</g>
</g>
<!-- Node2&#45;&gt;Node3 -->
<g id="edge2_Node000002_Node000003" class="edge">
<title>Node2&#45;&gt;Node3</title>
<g id="a_edge2_Node000002_Node000003"><a xlink:title=" ">
<path fill="none" stroke="#63b8ff" d="M59.5,-54.75C59.5,-47.8 59.5,-37.85 59.5,-29.13"/>
<polygon fill="#63b8ff" stroke="#63b8ff" points="63,-29.09 59.5,-19.09 56,-29.09 63,-29.09"/>
</a>
</g>
</g>
</g>
</svg>
