<?xml version="1.0" encoding="UTF-8" standalone="no"?>
<!DOCTYPE svg PUBLIC "-//W3C//DTD SVG 1.1//EN"
 "http://www.w3.org/Graphics/SVG/1.1/DTD/svg11.dtd">
<!-- Generated by graphviz version 2.43.0 (0)
 -->
<!-- Title: unset Pages: 1 -->
<svg width="153pt" height="64pt"
 viewBox="0.00 0.00 153.00 64.00" xmlns="http://www.w3.org/2000/svg" xmlns:xlink="http://www.w3.org/1999/xlink">
<g id="graph0" class="graph" transform="scale(1 1) rotate(0) translate(4 60)">
<title>unset</title>
<!-- Node1 -->
<g id="Node000001" class="node">
<title>Node1</title>
<g id="a_Node000001"><a xlink:title="Execute unset builtin cmd.">
<polygon fill="#999999" stroke="#666666" points="44,-37 0,-37 0,-18 44,-18 44,-37"/>
<text text-anchor="middle" x="22" y="-25" font-family="Helvetica,sans-Serif" font-size="10.00">unset</text>
</a>
</g>
</g>
<!-- Node2 -->
<g id="Node000002" class="node">
<title>Node2</title>
<g id="a_Node000002"><a xlink:href="unset_8c.html#a362d2e195d256661772ae7bfe888774e" target="_top" xlink:title="Free a var node.">
<polygon fill="white" stroke="#666666" points="145,-56 80,-56 80,-37 145,-37 145,-56"/>
<text text-anchor="middle" x="112.5" y="-44" font-family="Helvetica,sans-Serif" font-size="10.00">free_node</text>
</a>
</g>
</g>
<!-- Node1&#45;&gt;Node2 -->
<g id="edge1_Node000001_Node000002" class="edge">
<title>Node1&#45;&gt;Node2</title>
<g id="a_edge1_Node000001_Node000002"><a xlink:title=" ">
<path fill="none" stroke="#63b8ff" d="M44.42,-32.1C52.15,-33.76 61.17,-35.69 70.03,-37.6"/>
<polygon fill="#63b8ff" stroke="#63b8ff" points="69.38,-41.04 79.89,-39.71 70.85,-34.19 69.38,-41.04"/>
</a>
</g>
</g>
<!-- Node3 -->
<g id="Node000003" class="node">
<title>Node3</title>
<g id="a_Node000003"><a xlink:href="hash_8c.html#ac74a7e29e54c223be6213463974d6154" target="_top" xlink:title=" ">
<polygon fill="white" stroke="#666666" points="132.5,-19 92.5,-19 92.5,0 132.5,0 132.5,-19"/>
<text text-anchor="middle" x="112.5" y="-7" font-family="Helvetica,sans-Serif" font-size="10.00">hash</text>
</a>
</g>
</g>
<!-- Node1&#45;&gt;Node3 -->
<g id="edge2_Node000001_Node000003" class="edge">
<title>Node1&#45;&gt;Node3</title>
<g id="a_edge2_Node000001_Node000003"><a xlink:title=" ">
<path fill="none" stroke="#63b8ff" d="M44.42,-23.14C55.85,-20.82 70.08,-17.92 82.49,-15.4"/>
<polygon fill="#63b8ff" stroke="#63b8ff" points="83.28,-18.81 92.38,-13.39 81.88,-11.95 83.28,-18.81"/>
</a>
</g>
</g>
</g>
</svg>
